<svg xmlns="http://www.w3.org/2000/svg" xmlns:xlink="http://www.w3.org/1999/xlink" width="510" height="900" viewBox="0 0 510 900"><defs><style>.a,.d,.l{fill:none;}.b,.k{fill:#ffdc82;}.b,.c,.d,.g,.j,.k,.l,.m{stroke:#432d1e;stroke-width:8px;}.b{stroke-miterlimit:11;}.c,.f{fill:#fff;}.c,.d,.g{stroke-miterlimit:10;}.e,.g{fill:#432d1e;}.h{clip-path:url(#a);}.i,.m{fill:#bd645d;}.j{fill:#56634a;}.j,.k,.l,.m{stroke-miterlimit:2;}</style><clipPath id="a"><path class="a" d="M249.57,403.61c-28.85-5.63-78.79-.81-78.79-.81S152,359.6,147.1,310.85c-4.43-44.2,1.41-69,4.71-78.74a14.78,14.78,0,0,1,4.87-7.05c11.68-9,17.5-22.3,13.36-33-5.12-13.22-23.56-17.39-41.17-9.31-16.15,7.41-26,22.54-23.57,35.2,0,0,20.24,81,11.7,165.34-3.51,34.69-3.83,55.73-3,68.49a37,37,0,0,0,.8,8c8,36.5,60,66.44,112.83,76.74,68.54,13.37,129-5.55,135.07-42.26S318.11,417,249.57,403.61Z"/></clipPath></defs><title>10</title><polygon class="b" points="259.07 156.12 163.66 183.81 172.63 205.09 259.07 156.12"/><path class="c" d="M242.41,548c-2.55,23.1-15.09,52.66-29.32,51.09s-20-33.15-17.48-56.26,12.48-29,26.72-27.42S245,524.87,242.41,548Z"/><line class="d" x1="212.83" y1="599.08" x2="206.38" y2="659.23"/><line class="d" x1="206.38" y1="659.23" x2="191.25" y2="800.38"/><polygon class="e" points="208.66 638.03 197.9 658.26 214.87 660.19 208.66 638.03"/><polygon class="e" points="204.11 680.42 214.87 660.19 197.9 658.26 204.11 680.42"/><path class="c" d="M271.64,538.27c2.55,23.11-3.25,54.69-17.48,56.26s-26.77-28-29.32-51.1,5.87-31,20.1-32.58S269.1,515.17,271.64,538.27Z"/><line class="d" x1="254.76" y1="594.51" x2="261.44" y2="656.59"/><line class="d" x1="261.44" y1="656.59" x2="277.14" y2="802.28"/><polygon class="e" points="259.09 634.72 252.63 657.58 270.26 655.6 259.09 634.72"/><polygon class="e" points="263.8 678.47 270.26 655.6 252.63 657.58 263.8 678.47"/><path class="f" d="M270.78,544.84a230.41,230.41,0,0,1-43.9-4.36c-27.37-5.34-53.88-15.68-74.64-29.12-23.05-14.91-37.34-32.45-41.33-50.7a40.55,40.55,0,0,1-.89-8.73c-1-15.88,0-39.1,3-69,8.23-81.33-10.73-160.42-11.54-163.74-.07-.26-.12-.52-.17-.78-2.6-14.67,8.29-31.18,25.89-39.26a47.67,47.67,0,0,1,19.63-4.48c12.8,0,23.12,6.12,26.94,16,4.7,12.14-1.19,27.25-14.66,37.61a10.72,10.72,0,0,0-3.51,5.14c-2.83,8.43-8.95,32.82-4.52,77.08,4.09,40.8,18.22,78.06,22.27,88.1,6.4-.53,22.33-1.68,39.3-1.68,15.47,0,28.15.94,37.68,2.8,33.78,6.59,64.42,19.87,86.29,37.39,22.55,18.07,33.22,38.62,30.05,57.87-2.52,15.23-13.4,28-31.48,37-17.07,8.45-39.34,12.92-64.4,12.92Z"/><path class="e" d="M146.83,178.65c10.8,0,19.86,4.78,23.21,13.43,4.14,10.68-1.68,24-13.37,33a14.73,14.73,0,0,0-4.86,7c-3.29,9.79-9.14,34.54-4.71,78.75,4.88,48.75,23.68,91.95,23.68,91.95s19.92-1.92,41.87-1.92c12.8,0,26.29.65,36.92,2.73,68.54,13.37,119.2,54,113.15,90.68C358,523,319.94,540.84,270.78,540.84a226.19,226.19,0,0,1-43.13-4.29c-52.83-10.3-104.86-40.24-112.83-76.74a37,37,0,0,1-.8-8c-.85-12.76-.53-33.8,3-68.49,8.26-81.65-10.41-160.08-11.64-165.09,0-.18-.08-.35-.11-.53-2.24-12.6,7.58-27.57,23.62-34.92a43.39,43.39,0,0,1,18-4.12m0-8a51.61,51.61,0,0,0-21.29,4.85c-19.24,8.82-31.09,27.15-28.17,43.59.06.33.13.66.22,1,.81,3.29,19.62,81.72,11.45,162.38-3,30.07-4.06,53.47-3,69.56a44.11,44.11,0,0,0,1,9.45c4.22,19.31,19.11,37.71,43.07,53.21,21.18,13.71,48.19,24.25,76.05,29.68a233.53,233.53,0,0,0,44.66,4.44c25.68,0,48.57-4.61,66.18-13.34,19.28-9.55,30.92-23.35,33.65-39.91C374,474.86,362.85,453,339.12,434c-22.36-17.92-53.62-31.49-88-38.2-9.78-1.9-22.72-2.87-38.45-2.87-15.07,0-29.05.87-36.67,1.46-5-12.78-17.19-47.09-20.92-84.28-1.45-14.49-3.93-50.83,4.33-75.41a6.82,6.82,0,0,1,2.16-3.24C176.44,220,182.85,203,177.5,189.19c-4.43-11.44-16.18-18.54-30.67-18.54Z"/><path class="g" d="M412.72,494.57c14.33,31.54,4.92,71.34,4.92,71.34s-17.57-29.29-43.87-49c-24.31-18.17-8-65.24-8-65.24S398.39,463,412.72,494.57Z"/><path class="c" d="M315.58,385.81c38.81,24.93,88.84,152,88.84,152s-140.34,13.45-179.14-11.49-65.95-86.83-41-125.63S276.78,360.87,315.58,385.81Z"/><ellipse class="e" cx="152.96" cy="192.5" rx="9.47" ry="7.53" transform="translate(-75.76 102.27) rotate(-30)"/><path class="e" d="M143.05,828.13c3.68-2.89,7.44-5.64,11.19-8.41l5.67-4.08,5.73-4c1.91-1.32,3.75-2.77,5.62-4.17a32.65,32.65,0,0,1,6-3.55,53.72,53.72,0,0,1,6.6-2.49,33.11,33.11,0,0,1,7.22-1.42l.41.69a33.23,33.23,0,0,1-4.78,5.6,51,51,0,0,1-5.4,4.53,32.45,32.45,0,0,1-6,3.47c-2.14.94-4.3,1.84-6.39,2.86l-6.27,3-6.34,2.95c-4.24,1.91-8.48,3.84-12.8,5.64Z"/><path class="e" d="M160.13,842.76c2.05-3.92,4.23-7.75,6.4-11.59l3.32-5.71,3.41-5.65c1.15-1.87,2.17-3.83,3.23-5.77a30.09,30.09,0,0,1,3.82-5.35,47.93,47.93,0,0,1,4.8-4.64,30.47,30.47,0,0,1,5.82-3.9l.65.47a30.71,30.71,0,0,1-1.88,6.75,48.29,48.29,0,0,1-2.9,6,28.45,28.45,0,0,1-3.89,5.3c-1.5,1.62-3,3.21-4.46,4.88l-4.29,5-4.39,4.94c-3,3.27-5.92,6.54-9,9.72Z"/><path class="e" d="M210.84,814.75c-2-.65-3.94-1.43-5.88-2.2l-2.86-1.22c-.93-.42-1.86-.86-2.79-1.31s-1.94-.76-2.91-1.14a6.14,6.14,0,0,1-2.5-1.72,11.94,11.94,0,0,1-1.8-2.71,11.32,11.32,0,0,1-1.08-3.74l.47-.65a11.22,11.22,0,0,1,3.88-.23,11.93,11.93,0,0,1,3.15.8,6.24,6.24,0,0,1,2.46,1.79c.67.79,1.3,1.66,2,2.38s1.46,1.45,2.17,2.19l2.1,2.3c1.36,1.57,2.74,3.13,4,4.81Z"/><path class="e" d="M228.88,828.13c3.68-2.89,7.44-5.64,11.19-8.41l5.67-4.08,5.73-4c1.91-1.32,3.75-2.77,5.61-4.17a33.07,33.07,0,0,1,6-3.55,53.11,53.11,0,0,1,6.6-2.49,33.11,33.11,0,0,1,7.22-1.42l.41.69a33.7,33.7,0,0,1-4.78,5.6,50.13,50.13,0,0,1-5.41,4.53,32.45,32.45,0,0,1-6,3.47c-2.13.94-4.29,1.84-6.38,2.86l-6.27,3-6.34,2.95c-4.24,1.91-8.49,3.84-12.8,5.64Z"/><path class="e" d="M246,842.76c2-3.92,4.23-7.75,6.4-11.59l3.32-5.71,3.41-5.65c1.14-1.87,2.17-3.83,3.23-5.77a29.6,29.6,0,0,1,3.82-5.35,46.88,46.88,0,0,1,4.8-4.64,30.47,30.47,0,0,1,5.82-3.9l.65.47a30.72,30.72,0,0,1-1.89,6.75,45.63,45.63,0,0,1-2.9,6,28.86,28.86,0,0,1-3.88,5.3c-1.5,1.62-3,3.21-4.46,4.88l-4.29,5-4.39,4.94c-3,3.27-5.92,6.54-9,9.72Z"/><path class="e" d="M296.67,814.75c-2-.65-3.94-1.43-5.88-2.2l-2.86-1.22c-.94-.42-1.86-.86-2.79-1.31s-1.94-.76-2.91-1.14a6.14,6.14,0,0,1-2.5-1.72,11.94,11.94,0,0,1-1.8-2.71,11.32,11.32,0,0,1-1.08-3.74l.46-.65a11.29,11.29,0,0,1,3.89-.23,11.93,11.93,0,0,1,3.15.8,6.31,6.31,0,0,1,2.46,1.79c.67.79,1.3,1.66,2,2.38s1.46,1.45,2.17,2.19l2.09,2.3c1.37,1.57,2.75,3.13,4,4.81Z"/><g class="h"><path class="i" d="M117.48,206.33s11.39-23.56,43.91-27.68c-54.67-49.6-72.12,37-72.12,37Z"/><path class="e" d="M186.39,185.19s-61.58,9.17-49.49,105.45c0,0-.82,82.65,42.49,107.46C204.65,412.58,186.39,185.19,186.39,185.19Z"/></g><path class="j" d="M518.05,909.1H380.41c-41.56-94.49-65.6-177.92-65.6-177.92s44.2,28.05,100.95,71.7c2.07-162,80-367.65,80-367.65s10.77,28.41,24.41,72.42Z"/><path class="j" d="M455.29,909.1H441.12c-67.78-94.5-126.31-177.92-126.31-177.92S381.54,814.71,455.29,909.1Z"/><path class="j" d="M487.62,909.1c-.07-13.38-.11-28.27-.11-44.91,0-163,8.27-429,8.27-429s8.27,266,8.27,429c0,16.64,0,31.53-.11,44.91Z"/><rect class="k" x="485.42" y="428.04" width="20.71" height="45.99" transform="translate(991.56 902.07) rotate(-180)"/><path class="l" d="M497.68,606.9c7.65,0,15.29-2.63,22.08-6.11"/><path class="l" d="M499,586.63c7.25,0,14.51-2.77,20.75-6.24"/><path class="l" d="M497.16,568.52c8.21,0,16.43-3.72,23-7.86"/><path class="l" d="M497.51,548.64c8.39,0,16.77-4.65,22.68-8.89"/><path class="l" d="M497.41,527.87c9.12,0,18.23-6.57,22.78-10.42"/><path class="l" d="M497.53,507.53c10.26,0,20.52-10.45,20.52-10.45"/><path class="l" d="M499.33,627.3c7,0,14-2.08,20.43-5"/><path class="l" d="M499.87,667.81a54,54,0,0,0,19.89-4.24"/><path class="l" d="M500,647.55a51.41,51.41,0,0,0,19.73-4.42"/><path class="l" d="M501.74,787.72a63,63,0,0,0,17.18-2.55"/><path class="l" d="M502,767a61.29,61.29,0,0,0,16.95-2.56"/><path class="l" d="M501.94,749.06a59.67,59.67,0,0,0,17-2.65"/><path class="l" d="M501.2,728.72a58.3,58.3,0,0,0,17.82-3"/><path class="l" d="M501.34,708.42a56.79,56.79,0,0,0,18.42-3.35"/><path class="l" d="M500.6,688.11a55.26,55.26,0,0,0,19.16-3.77"/><path class="l" d="M501.69,808.21a63.74,63.74,0,0,0,17.23-2.53"/><path class="l" d="M502.55,828.77a63.81,63.81,0,0,0,15.15-1.93"/><path class="l" d="M493.8,606.9c-22.73,0-45.45-23.17-45.45-23.17"/><path class="l" d="M492.47,586.63c-19.35,0-38.71-19.73-38.71-19.73"/><path class="l" d="M494.32,568.52c-18.5,0-37-18.86-37-18.86"/><path class="l" d="M494,548.64c-15.41,0-30.82-15.71-30.82-15.71"/><path class="l" d="M494.06,527.87c-12.87,0-25.74-13.12-25.74-13.12"/><path class="l" d="M493.94,507.53c-10.26,0-20.51-10.45-20.51-10.45"/><path class="l" d="M492.15,627.3c-24.06,0-48.11-24.52-48.11-24.52"/><path class="l" d="M491.61,667.81c-27.65,0-55.29-28.19-55.29-28.19"/><path class="l" d="M491.44,647.55c-25.86,0-51.73-26.37-51.73-26.37"/><path class="l" d="M489.74,787.72c-35.73,0-71.45-36.42-71.45-36.42"/><path class="l" d="M489.51,767c-34.52,0-69.05-35.19-69.05-35.19"/><path class="l" d="M489.53,749.06c-33.48,0-67-34.14-67-34.14"/><path class="l" d="M490.28,728.72C458.14,728.72,426,696,426,696"/><path class="l" d="M490.14,708.42c-30.61,0-61.21-31.2-61.21-31.2"/><path class="l" d="M490.87,688.11c-29.15,0-58.31-29.73-58.31-29.73"/><path class="l" d="M489.78,808.21c-36.2,0-72.4-36.91-72.4-36.91"/><path class="l" d="M488.92,828.77c-36.29,0-72.57-37-72.57-37"/><rect class="k" x="313.93" y="720.83" width="20.71" height="45.99" transform="matrix(0.8, -0.6, 0.6, 0.8, -381.21, 342.94)"/><path class="l" d="M416.21,869.7C398,883.33,366,878.41,366,878.41"/><path class="l" d="M403,854.28c-15.49,11.6-42.81,7.42-42.81,7.42"/><path class="l" d="M393.62,838.68c-14.8,11.08-40.91,7.08-40.91,7.08"/><path class="l" d="M381.42,823c-12.34,9.24-34.09,5.9-34.09,5.9"/><path class="l" d="M369,806.3c-10.3,7.72-28.47,4.93-28.47,4.93"/><path class="l" d="M356.75,790.1c-8.2,6.14-22.68,3.92-22.68,3.92"/><path class="l" d="M427.13,887c-19.26,14.42-53.21,9.21-53.21,9.21"/><path class="l" d="M419.32,867.38c18.19-13.63,24.22-54.49,24.22-54.49"/><path class="l" d="M408.23,850.36c15.49-11.6,21.76-47.69,21.76-47.69"/><path class="l" d="M395.89,837c14.8-11.08,18.3-37.26,18.3-37.26"/><path class="l" d="M384.26,820.85c12.33-9.24,15.25-31.05,15.25-31.05"/><path class="l" d="M371.73,804.29c10.3-7.72,12.74-25.94,12.74-25.94"/><path class="l" d="M359.63,787.94c8.21-6.15,10.15-20.67,10.15-20.67"/><path class="l" d="M432.87,882.72c19.25-14.42,24.67-61.51,24.67-61.51"/><path class="l" d="M457.59,914.81c22.12-16.57,30-64.4,30-64.4"/><path class="l" d="M445.58,898.5c20.7-15.5,28.2-71.24,28.2-71.24"/><path class="l" d="M518.12,894.51c-10.24-19.93-14.2-44.1-14.2-44.1"/><path class="j" d="M-13.31,909.1H124.32c41.56-94.49,65.61-177.92,65.61-177.92S145.72,759.23,89,802.88C86.9,640.87,9,435.23,9,435.23s-10.76,28.41-24.4,72.42Z"/><path class="j" d="M49.45,909.1H63.62c67.77-94.5,126.31-177.92,126.31-177.92S123.2,814.71,49.45,909.1Z"/><path class="j" d="M17.11,909.1c.08-13.38.12-28.27.12-44.91,0-163-8.28-429-8.28-429s-8.27,266-8.27,429c0,16.64,0,31.53.11,44.91Z"/><rect class="k" x="-1.4" y="428.04" width="20.71" height="45.99"/><path class="l" d="M7.06,606.9c-7.65,0-15.3-2.63-22.08-6.11"/><path class="l" d="M5.73,586.63c-7.26,0-14.52-2.77-20.75-6.24"/><path class="l" d="M7.58,568.52c-8.22,0-16.44-3.72-23-7.86"/><path class="l" d="M7.22,548.64c-8.38,0-16.77-4.65-22.67-8.89"/><path class="l" d="M7.32,527.87c-9.11,0-18.23-6.57-22.77-10.42"/><path class="l" d="M7.2,507.53c-10.26,0-20.51-10.45-20.51-10.45"/><path class="l" d="M5.41,627.3c-7,0-14-2.08-20.43-5"/><path class="l" d="M4.87,667.81A54,54,0,0,1-15,663.57"/><path class="l" d="M4.7,647.55A51.49,51.49,0,0,1-15,643.13"/><path class="l" d="M3,787.72a62.9,62.9,0,0,1-17.18-2.55"/><path class="l" d="M2.77,767a61.35,61.35,0,0,1-16.95-2.56"/><path class="l" d="M2.79,749.06a59.73,59.73,0,0,1-17-2.65"/><path class="l" d="M3.54,728.72a58.36,58.36,0,0,1-17.83-3"/><path class="l" d="M3.4,708.42A56.8,56.8,0,0,1-15,705.07"/><path class="l" d="M4.14,688.11A55.31,55.31,0,0,1-15,684.34"/><path class="l" d="M3,808.21a63.61,63.61,0,0,1-17.22-2.53"/><path class="l" d="M2.18,828.77A63.73,63.73,0,0,1-13,826.84"/><path class="l" d="M10.94,606.9c22.72,0,45.45-23.17,45.45-23.17"/><path class="l" d="M12.27,586.63c19.35,0,38.7-19.73,38.7-19.73"/><path class="l" d="M10.42,568.52c18.49,0,37-18.86,37-18.86"/><path class="l" d="M10.77,548.64c15.41,0,30.83-15.71,30.83-15.71"/><path class="l" d="M10.68,527.87c12.87,0,25.74-13.12,25.74-13.12"/><path class="l" d="M10.79,507.53c10.26,0,20.52-10.45,20.52-10.45"/><path class="l" d="M12.59,627.3c24.05,0,48.1-24.52,48.1-24.52"/><path class="l" d="M13.13,667.81c27.64,0,55.29-28.19,55.29-28.19"/><path class="l" d="M13.29,647.55c25.87,0,51.73-26.37,51.73-26.37"/><path class="l" d="M15,787.72c35.72,0,71.45-36.42,71.45-36.42"/><path class="l" d="M15.22,767c34.53,0,69.05-35.19,69.05-35.19"/><path class="l" d="M15.2,749.06c33.48,0,67-34.14,67-34.14"/><path class="l" d="M14.46,728.72c32.13,0,64.27-32.76,64.27-32.76"/><path class="l" d="M14.6,708.42c30.6,0,61.21-31.2,61.21-31.2"/><path class="l" d="M13.86,688.11c29.16,0,58.31-29.73,58.31-29.73"/><path class="l" d="M15,808.21c36.21,0,72.41-36.91,72.41-36.91"/><path class="l" d="M15.81,828.77c36.29,0,72.58-37,72.58-37"/><rect class="k" x="170.09" y="720.83" width="20.71" height="45.99" transform="translate(-121.09 1447.33) rotate(-143.16)"/><path class="l" d="M88.52,869.7c18.19,13.63,50.27,8.71,50.27,8.71"/><path class="l" d="M101.74,854.28c15.48,11.6,42.8,7.42,42.8,7.42"/><path class="l" d="M111.12,838.68c14.8,11.08,40.9,7.08,40.9,7.08"/><path class="l" d="M123.32,823c12.33,9.24,34.09,5.9,34.09,5.9"/><path class="l" d="M135.69,806.3c10.3,7.72,28.47,4.93,28.47,4.93"/><path class="l" d="M148,790.1c8.21,6.14,22.69,3.92,22.69,3.92"/><path class="l" d="M77.61,887c19.25,14.42,53.2,9.21,53.2,9.21"/><path class="l" d="M85.42,867.38c-18.19-13.63-24.23-54.49-24.23-54.49"/><path class="l" d="M96.5,850.36C81,838.76,74.75,802.67,74.75,802.67"/><path class="l" d="M108.84,837c-14.8-11.08-18.3-37.26-18.3-37.26"/><path class="l" d="M120.48,820.85c-12.34-9.24-15.25-31.05-15.25-31.05"/><path class="l" d="M133,804.29c-10.3-7.72-12.73-25.94-12.73-25.94"/><path class="l" d="M145.1,787.94c-8.21-6.15-10.15-20.67-10.15-20.67"/><path class="l" d="M71.86,882.72c-19.25-14.42-24.67-61.51-24.67-61.51"/><path class="l" d="M47.14,914.81c-22.12-16.57-30-64.4-30-64.4"/><path class="l" d="M59.16,898.5C38.46,883,31,827.26,31,827.26"/><path class="l" d="M-13.39,894.51c10.24-19.93,14.2-44.1,14.2-44.1"/><path class="m" d="M515.52,255.22C371.64,255.22,255,138.58,255-5.3V-19.18l275.7-.71V255.22Z"/></svg>