<svg xmlns="http://www.w3.org/2000/svg" xmlns:xlink="http://www.w3.org/1999/xlink" width="510" height="900" viewBox="0 0 510 900"><defs><style>.a,.d,.f,.i{fill:none;}.b{fill:#bd645d;}.c,.h{fill:#5c5b54;}.c,.d,.f,.i{stroke:#432d1e;}.c,.d,.f{stroke-miterlimit:10;}.c{stroke-width:20px;}.d{stroke-linecap:round;}.d,.f{stroke-width:8px;}.e{fill:#432d1e;}.g{clip-path:url(#a);}.i{stroke-miterlimit:2;stroke-width:7px;}</style><clipPath id="a"><path class="a" d="M460-22.62l12,7c-38.46,60.34-56.16,93.37-63.72,108.79,9.49,12.75,12.59,26.7,6.84,37.49-3.61,6.79-10.23,11.36-18.59,13.63a20.57,20.57,0,0,1-1.9,5.22c-2.65,5-7.2,8.52-13,10.63a12.55,12.55,0,0,1,.1,1.94l1.55,0a2.37,2.37,0,0,1,1.86.92,28.56,28.56,0,0,0,7.46-4.7l-2.49,5.94c-.27,1.39-.9,8.81,14.44,15.2C413.66,183.27,418,191.88,416,202c-1.39,7-5.92,14.34-12.15,19.68l.06-8.92a33.63,33.63,0,0,0-4,2.05l-.13,17.29s-6.05,19.85-20.72,31.14c0,0,6.19-19.14,2.55-32.19l-.66-8.58c-1.34,0-2.68,0-4,0l.43,5.53c-6.6-2.34-14.35-8.46-19.46-23.48-4.22-12.37-14.51-18.39-31.47-18.39-26.94,0-61.22,15.71-72,24.13a28.31,28.31,0,0,1-9,4.54l.52-5.83c-1.35,0-2.69.1-4,.16l-1.48,16.61c-4.37,15,2.52,37.22,2.52,37.22-16.79-13.25-23.52-36.25-23.52-36.25l.08-16.11-4,.36v3c-8.16-2.83-14.82-7.92-16.35-15.53-.87-4.34-.3-11,7.38-18.26,5.37-5.06,13.52-9.84,24.9-14.61l.64-.27.68-.15a218,218,0,0,0,24.34-7.23,41.94,41.94,0,0,1-6.63-7.38,33.41,33.41,0,0,1-10.39,1.47c-10.31,0-16.88-11.42-20.28-24.19L225,125.4c0-1.45,0-2.91-.06-4.36L210,127.82c-15.23,3.59-31.15,20.52-31.15,20.52,3.26-21.13,20-38.31,20-38.31L224,95.88c-.08-1.49-.15-3-.24-4.45l-5.06,2.84c2.13-6.93,6.2-11.46,12-12.9a15.6,15.6,0,0,1,3.72-.44h0c5.7,0,15.85,2.51,38.11,24.2,6.76,6.6,12.77,13.13,16.62,17.44,7.63-4.32,8.51-4.32,10.32-4.32a7.87,7.87,0,0,1,1.38.13h0l.13-.1a35.75,35.75,0,0,0,1.16,4.55,20.9,20.9,0,0,1,3.65-1.7c-2-6.55-1.75-12.92,1.14-18.34a20.19,20.19,0,0,1,3.27-4.49c-2.78-8.21-2.67-16.25.94-23C317.66,63,333.89,58,352.56,60.66h0c16.91-13.81,45.69-42.17,58.52-83.28H-12v949H525v-949ZM335.69,691.07c6.94-12.23,9.64-12.13,26.42-21.74,21.94-13.65,34.42,2.28,54.55-38.52C441.52,665,427,660.18,489.19,648.44c-22.13,19.94-15.24,24.44-63.3,37.92-23.66,14.53-67.12,54.33-93.09,57.37-4.42-6.77-34.57-19.68-20-29C316.38,702.17,329.42,696.16,335.69,691.07ZM1,607.54-1.33,525.2c.43.29,12.46,11.46,12.48,11.33,11.93-4.32,40.81-36.15,47.1-43.6,15.06-21.52,6.8-25.76,42.76-23.51,4.27-.13,35.62-46.18,43.59-33.35,5.37,4.38,2.61,1.57,4.51,7.82,6.77,35.24,14.88,8.12,61.41-8-8.36,10-25.39,37.49-45.56,49.81-5.44-.81-36.42-12.51-34.88-9.3-23,14.51-45.18,20-56.63,34.91-15.12,21.07-23.71,25.07-38,54.76C23.71,576.29,14.4,578.17,1,607.54Zm398.5,218c-5.52-2.31-4.82-5.54-11.17-3.32-9.63,17.35.28,23-40.71,34.71-52.32,12.62-34.18,17.63-89.61-16.29-13.74,14.36-28.24,29.25-47.33,33.16-11.15,2.57-29-8.69-35.69-6.62-24.56,5.41-38.2,17-57.12,19.77-13.94,3.49-28.43,18.73-39.68,25.85L56,912.38c-.62-19.4,4.27-43.1-1.08-61.13-7.11-26.9-10.21-49.78,2.42-90a39.82,39.82,0,0,0,3.78-15.41l-3.59-4.18q-2.31-4-4.39-8.22c-20.64-42.11-15.87-88.83,8.8-117l51.47-70.85c10.31-17.73,25.32-31.82,44.37-39.93,54.8-23.32,122.18,11.76,150.48,78.37s6.81,139.52-48,162.85a89.41,89.41,0,0,1-13.84,4.59h0l-2.83,3.72a206.49,206.49,0,0,1,23.31-9.9c-15.34,18.26-21.58,34.09-67,65-9.31,5.14-7.83-2.57-23.4-.62-17.48-1.92-24.56,12.16-55.34-17.81l-5.37.69A105.68,105.68,0,0,1,87.35,776.4l-3.28-3.82c-9.56,22.9,1.6,3.06,15.67,99.56,12.5-13.2,38.15-35.38,57.25-34.06,8.09,1.63,6.47,6.59,11.75,8.89a185.46,185.46,0,0,0,44.93-5.48c12.52-8,16.38-20.58,35.14-24.15,10.18-8.41,41.41,27.07,113.4,3.17,19.89-16.47,41.62-52,64.18-68.84,1.19,3.56-42.22,57.08-23.26,57.59,11.57-.53,29,1.7,39.43,4.68,22.23-2.18,34.75-22.24,59.84-18.74C465.51,816.15,455.15,864.38,399.45,825.55Z"/></clipPath></defs><title>113</title><rect class="b" x="-8.25" y="-8.02" width="533.74" height="919.39"/><path class="c" d="M223.88,787.75c-86.67,3.32-170,22.53-250,55.78q-7-381-13.93-761.92C51.13,71.44,141.43,79,230.18,102.07c52.22,14.75,101.86,70.12,100,126.55q-5,236.16-10.06,472.31C319.1,752.18,272.27,786.38,223.88,787.75Z"/><path class="c" d="M525.49,76.4q-8.19,1.95-16.38,4.08c-52.22,14.74-101.86,70.11-100,126.54q5,236.16,10.06,472.32c1,51.25,47.84,85.44,96.23,86.82,3.37.12,6.73.29,10.08.46Z"/><path class="d" d="M87.35,776.4a105.68,105.68,0,0,0,28.41,16.19"/><path class="d" d="M113.41,545.62,61.94,616.47c-24.67,28.18-29.44,74.9-8.8,117q2.07,4.23,4.39,8.22"/><ellipse class="d" cx="209.02" cy="626.3" rx="107.85" ry="131.04" transform="translate(-227.63 131.04) rotate(-22.95)"/><ellipse class="d" cx="209.02" cy="626.3" rx="92.23" ry="112.07" transform="translate(-227.63 131.04) rotate(-22.95)"/><path class="d" d="M148.33,700.05c20.91,18.53,48.73,16.09,62.15-5.46,9.39-15.09,5.14-37.84-9.49-50.81-10.25-9.08-23.89-7.89-30.46,2.67-4.6,7.4-2.52,18.54,4.65,24.9,5,4.45,11.7,3.86,14.93-1.31,2.25-3.62,1.23-9.08-2.28-12.2-2.46-2.18-5.74-1.89-7.32.64a4.9,4.9,0,0,0,1.12,6"/><path class="d" d="M175.51,519.67c-22.07,9.39-30.73,38.76-19.33,65.59,8,18.78,27,28.67,42.43,22.09,10.82-4.6,15.06-19,9.47-32.14-3.91-9.2-13.22-14.05-20.79-10.82-5.3,2.25-7.38,9.3-4.64,15.75,1.92,4.5,6.48,6.88,10.19,5.3,2.59-1.1,3.61-4.56,2.27-7.72-.94-2.21-3.17-3.37-5-2.6"/><path class="d" d="M302.93,660.28c1.17-27.93-18-54.85-42.82-60.13-17.37-3.69-32.12,9.16-32.93,28.71-.57,13.69,8.82,26.88,21,29.47,8.51,1.81,15.74-4.49,16.14-14.07.28-6.71-4.33-13.17-10.29-14.44-4.17-.89-7.71,2.2-7.9,6.89-.14,3.29,2.12,6.46,5,7.08,2,.43,3.77-1.08,3.87-3.38"/><path class="e" d="M140.72,433.81a4.36,4.36,0,0,1,3.88,2.26c5.37,4.38,2.61,1.57,4.51,7.82,2.42,12.62,5,17.24,9.49,17.24,8,0,22.05-14.88,51.92-25.2-8.36,10-25.39,37.49-45.56,49.81-4.79-.71-29.34-9.86-34.13-9.86-.65,0-.94.17-.75.56-23,14.51-45.18,20-56.63,34.91-15.12,21.07-23.71,25.07-38,54.76C23.71,576.29,14.4,578.17,1,607.54L-1.33,525.2c.43.29,12.32,11.33,12.47,11.33h0c11.93-4.32,40.81-36.15,47.1-43.6C71,474.72,67,468.88,87.3,468.88c3.69,0,8.17.2,13.71.54,3.75-.12,28.36-35.61,39.71-35.61M235.05,419l-27.14,9.39c-17.57,6.07-29.73,13.52-38.6,19a93.09,93.09,0,0,1-9.55,5.4c-.62-1.38-1.63-4.3-2.79-10.36l-.08-.41-.13-.41a10.54,10.54,0,0,1-.51-2.35c-.48-4.43-2.63-6.15-5.13-8.16l-.66-.53a12.28,12.28,0,0,0-9.74-4.71h0c-10.1,0-20.91,11.47-35.09,27.68-2.39,2.74-5.23,6-7,7.78-4.65-.26-8.3-.39-11.34-.39-9.1,0-14.59,1.16-19,4-4.59,3-7,7.27-9.76,12.23a121.52,121.52,0,0,1-6.69,10.93C42.64,499,22.73,519.71,12.33,526.83l-2.51-2.3c-6-5.51-6-5.52-6.7-6l-12.88-8.63.43,15.5L-7,607.76l1,34.37L8.22,610.87C18,589.51,25,584.25,33.12,578.15c2.4-1.81,4.89-3.68,7.57-6l1.25-1.09.72-1.48c9.14-19,15.54-26.63,23.66-36.28,4-4.71,8.43-10,13.56-17.18C86,508.23,96.64,503,109,496.91c7.23-3.56,15.37-7.56,23.64-12.63,3.87,1,11.3,3.38,16.09,4.94,7.91,2.58,12.51,4,15.08,4.44l2.87.42,2.48-1.51c16.93-10.35,31.33-29.85,40.86-42.76,2.64-3.58,4.92-6.67,6.66-8.76L235.05,419Z"/><path class="e" d="M78,726.61c6.67,0,16.05,1,29.26,3.18l.36,0c2.56,0,7.2,3.65,20.38,11.52,21.25,12.65,11.94,6.51,10.82,28.24-.21,6.85,5.59,9,16,9,13.2,0,33.79-3.5,58.78-5.32,12.88-1.69,8.8-11.67,53.39-27.88-15.34,18.26-21.58,34.09-67,65a11.53,11.53,0,0,1-5.54,1.8c-3.49,0-5.58-2.74-13.06-2.74a38,38,0,0,0-4.8.32,32.43,32.43,0,0,0-3.48-.19c-6.4,0-11.55,1.86-17.55,1.86-12.2,0-27.91-7.69-64.88-54.3-19.65,48.1-7.21,2.67,9.18,115.06,12.14-12.82,36.69-34.12,55.6-34.12q.84,0,1.65.06c8.09,1.63,6.47,6.59,11.75,8.89h.77a185.71,185.71,0,0,0,44.16-5.49c12.52-8,16.38-20.58,35.14-24.15A6.28,6.28,0,0,1,253,816c9.48,0,28.17,12.91,61,12.91,13.55,0,29.52-2.2,48.24-8.42,19.89-16.47,41.62-52,64.18-68.84,1.19,3.56-42.22,57.08-23.26,57.59,1.14-.06,2.34-.08,3.59-.08a149.72,149.72,0,0,1,35.84,4.76c20.46-2,32.69-19.15,54.06-19.15a41.69,41.69,0,0,1,5.78.41c-26.88,15.26-39.67,45-66.18,45-9.88,0-21.66-4.12-36.77-14.66-4.21-1.76-4.8-4.06-7.67-4.06a11,11,0,0,0-3.5.74c-9.63,17.35.28,23-40.71,34.71-22.85,5.51-32.26,9.57-40.23,9.57-10.28,0-18.16-6.76-49.38-25.86-13.74,14.36-28.24,29.25-47.33,33.16a16.63,16.63,0,0,1-3.66.38c-10,0-23.25-7.26-30.1-7.26a6.35,6.35,0,0,0-1.93.26c-24.56,5.41-38.2,17-57.12,19.77-13.94,3.49-28.43,18.73-39.68,25.85L56,912.38c-.62-19.4,4.27-43.1-1.08-61.13-7.11-26.9-10.21-49.78,2.42-90,9.6-19.77-5.09-34.68,20.62-34.68m0-8c-6.91,0-15.48.81-20.52,7.11-3.77,4.71-4,10.36-4.13,15.82-.17,5.13-.35,10.45-3.17,16.25l-.26.53-.18.57c-12.54,39.91-10.56,64-2.52,94.4l0,.12,0,.12c3.09,10.42,2.26,24,1.45,37-.46,7.36-.92,15-.7,22.06l.25,7.6,7.59.14,22.14.44,2.41,0,2-1.28a155.1,155.1,0,0,0,12.73-9.46c7.82-6.22,16.67-13.25,24.27-15.3,10.42-1.57,19.12-5.43,28.31-9.51,8.62-3.83,17.54-7.79,28.93-10.3l.29-.06c1.91.06,6.22,1.52,9.69,2.69,6.34,2.14,13.53,4.56,20.33,4.56a24.67,24.67,0,0,0,5.35-.56c19.51-4,34.15-17.59,46.94-30.79,4.41,2.73,8.29,5.17,11.83,7.39,18.33,11.51,25.91,16.28,36.25,16.28,6,0,12-1.7,21.15-4.26,5.45-1.53,12.23-3.43,21-5.54l.16,0,.15,0c15.94-4.54,25.27-8.43,31.21-13,6.66-5.14,8.53-10.67,10.33-16,.49-1.44,1-2.9,1.6-4.45a22.75,22.75,0,0,0,2.61,1.42c15.28,10.54,28.6,15.66,40.71,15.66,19.29,0,32.24-12.77,44.77-25.11,7.69-7.58,15.64-15.42,25.36-21l20.47-11.62-23.31-3.26a50.41,50.41,0,0,0-6.89-.48c-13.38,0-23.66,5.65-32.72,10.63-6.85,3.77-13.34,7.33-20.74,8.39a161.71,161.71,0,0,0-36.07-4.63A69.7,69.7,0,0,1,412,790.81c3.85-6.93,8.93-14.66,13-20.87,2.45-3.74,4.57-7,6.12-9.53,2-3.3,4.25-7,2.84-11.27l-3.5-10.48-8.87,6.6c-13,9.65-25.22,24.57-37.07,39-9.28,11.31-18.07,22-26.3,29.13-15.49,5-30.37,7.53-44.27,7.53-20,0-34.33-5.1-44.81-8.82-6.43-2.28-11.51-4.09-16.2-4.09h0a14.52,14.52,0,0,0-7.27,1.8c-13.45,3-20.4,10.09-26.56,16.38a61.23,61.23,0,0,1-8.76,7.88,178,178,0,0,1-39,4.89l-.29-.43c-1.75-2.52-4.67-6.73-12.51-8.3l-.51-.11-.52,0c-.72-.05-1.46-.08-2.2-.08h0c-10,0-21.77,4.6-34.89,13.67a162.65,162.65,0,0,0-15.15,12C99,817.13,93.56,800.91,90.46,791.73c-1.55-4.62-2.08-6.29-1.93-7.67.22-2,1.73-5.6,4.24-11.54,32.09,38.7,48.05,46.86,62.67,46.86a58.91,58.91,0,0,0,9.77-1,47.46,47.46,0,0,1,7.78-.85,24.72,24.72,0,0,1,2.6.14l.94.1.93-.11a29.74,29.74,0,0,1,3.81-.26,14.91,14.91,0,0,1,6.2,1.23,18.36,18.36,0,0,0,6.86,1.51,19.26,19.26,0,0,0,9.4-2.79l.33-.18.31-.21c37.14-25.26,49.35-41.38,60.13-55.61,2.82-3.72,5.49-7.24,8.53-10.87l19.21-22.87-28.07,10.21c-28.1,10.22-38.2,18.45-44.24,23.36-3.61,2.94-4.63,3.71-7.25,4.08-11.27.83-21.62,2-30.76,3-10.92,1.22-20.35,2.27-27.18,2.27-4.92,0-7.11-.57-8-.9a49,49,0,0,1,1.94-11.48c1-3.59,2.36-8.52-1.74-13.46-2.32-2.78-5.77-4.83-13.33-9.32l-1.6-1c-4.14-2.47-7.45-4.54-10.1-6.19-7-4.38-10.26-6.41-14.23-6.45-13.18-2.16-22.65-3.16-29.76-3.16Z"/><path class="e" d="M416.66,630.81c14.26,19.6,15.54,26.37,25.8,26.37,7.62,0,20.2-3.74,46.73-8.74-22.13,19.94-15.24,24.44-63.3,37.92-23.66,14.53-67.12,54.33-93.09,57.37-4.42-6.77-34.57-19.68-20-29,3.6-12.54,16.64-18.55,22.91-23.64,6.94-12.23,9.64-12.13,26.42-21.74,21.94-13.65,34.42,2.28,54.55-38.52m-1.32-15.41-5.85,11.87c-5.48,11.11-10.65,18.37-15.8,22.2-4.2,3.12-8.18,3.92-13.7,5-6,1.2-13.47,2.7-22,8-2.58,1.48-4.83,2.73-6.83,3.83-10.52,5.84-15.13,8.39-21.62,19.4-1,.72-2.15,1.52-3.36,2.34-6.46,4.4-16,10.89-20.2,21.78a13.76,13.76,0,0,0-5.15,10.3c-.22,9.53,9.6,16.49,18.26,22.63,2.45,1.74,6.15,4.36,7,5.44l2.66,4.07,4.92-.57c20.16-2.37,47-22.5,70.75-40.26,9.18-6.88,17.87-13.39,24.67-17.67,36.29-10.25,42.45-15.68,53.86-27.89,3.05-3.26,6.51-7,11.54-11.48l21.18-19.09-28,5.28c-10.49,2-18.8,3.76-25.48,5.19-9.62,2.06-16,3.42-19.77,3.42-3,0-3.51,0-10.76-10.75-2.24-3.32-5-7.45-8.57-12.33l-7.79-10.7Z"/><path class="f" d="M310.2,98.29a20.19,20.19,0,0,0-3.27,4.49c-8.16,15.32,4.85,38.2,29.07,51.1s50.47,11,58.63-4.37a20.57,20.57,0,0,0,1.9-5.22"/><path class="f" d="M416.5-47.5c-9.5,75.88-77,117.83-77,117.83-7.79,15.21-.1,34.93,17.35,44.23s38.1,4.68,46.39-10.27c0,0,10.79-28.91,68.79-119.91C472-15.62,416.56-48,416.5-47.5Z"/><path class="f" d="M352.56,60.66C333.89,58,317.66,63,311.14,75.26c-9.68,18.16,5.75,45.29,34.47,60.59s59.83,13,69.51-5.19c5.75-10.79,2.65-24.74-6.84-37.49"/><path class="f" d="M219.57,195l-.15,31.69s6.73,23,23.52,36.25c0,0-6.89-22.2-2.52-37.22L243,196.94S234.48,187,219.57,195Z"/><path class="f" d="M226.42,94.54,198.76,110s-16.7,17.18-20,38.31c0,0,15.92-16.93,31.15-20.52l26.26-11.93S240.72,103.59,226.42,94.54Z"/><path class="f" d="M400,204.62l-.2,27.44s-6.05,19.85-20.72,31.14c0,0,6.19-19.14,2.55-32.19l-1.91-24.9S387.17,197.56,400,204.62Z"/><path class="e" d="M299.45,118.25c-1.81,0-2.69,0-10.32,4.32-3.85-4.31-9.86-10.84-16.62-17.44-22.26-21.69-32.41-24.2-38.11-24.2h0a15.6,15.6,0,0,0-3.72.44c-5.75,1.44-9.82,6-12,12.9l7.82-4.38,2,1.27c.15.09.28.19.42.28a7,7,0,0,1,3.64-2.31,7.3,7.3,0,0,1,1.78-.2c16,0,53,43.86,53,43.86l2.34-1.35c1.18-4.38,3.62-7.73,11.07-13.06A7.87,7.87,0,0,0,299.45,118.25Z"/><path class="e" d="M254,137.44s-.93,6.5-13.93,6.5c-5.43,0-10.21-8.91-12.86-19.55l-7.42,3.36c3.4,12.77,10,24.19,20.28,24.19a33.41,33.41,0,0,0,10.39-1.47,42.34,42.34,0,0,0,6.63,7.38c2.92-1.06,5.79-2.18,8.54-3.36C260.69,150.81,254,144.5,254,137.44Z"/><path class="e" d="M215.52,205.31c-12.55-5.65-15.55-17.95,19-32.43,0,0,44-10,56-25,11.35-14.19,2.13-13.18,13-21.49a38,38,0,0,1-2.48-8.12l-.13.1c-8.66,6.18-10.57,9.7-11.57,15.25-.33,1.8-.7,3.85-5,9.26-7.45,9.31-35.56,18.56-51.52,22.2l-.68.15-.64.27c-11.38,4.77-19.53,9.55-24.9,14.61-7.68,7.23-8.25,13.92-7.38,18.26,1.53,7.61,8.19,12.7,16.35,15.53Z"/><path class="e" d="M376.68,218.69c-4.28-2.8-8.21-8.1-11.18-16.81-6-17.69-21.31-23.82-39-23.82-29.38,0-65.43,16.85-77,25.82a17.72,17.72,0,0,1-3.31,2l-.78,8.86a28.31,28.31,0,0,0,9-4.54c10.83-8.42,45.11-24.13,72-24.13,17,0,27.25,6,31.47,18.39,5.11,15,12.86,21.14,19.46,23.48Z"/><path class="e" d="M404.58,179.49c-15.34-6.39-14.71-13.81-14.44-15.2l2.49-5.94a30.06,30.06,0,0,1-10.53,5.89c-.32,4.62,1.21,15.06,19.4,22.64,9.51,4,8.34,14.51,2.46,22.89l-.08,11.87c6.23-5.34,10.76-12.72,12.15-19.68C418,191.88,413.66,183.27,404.58,179.49Z"/><g class="g"><path class="d" d="M214.87-5.93-10.62,183.73"/><path class="d" d="M306.45-5.93-15.33,325.28"/><path class="d" d="M343.51-4.16-15.87,404.31"/><path class="d" d="M412.39-5.93l-423,587.58"/><path class="d" d="M442.31-5.93,99,523.12"/><path class="d" d="M241.84,386.38,50.18,715.45"/><path class="d" d="M470.32-5.93q-102,175.16-204,350.31"/><path class="d" d="M498.9-10Q302.45,368.08,106,746.18"/><path class="d" d="M512.24,15.19,163.62,773.41"/><path class="d" d="M351.22,478.38Q287.08,637.73,223,797.09"/><path class="d" d="M515.81,69.36q-73.23,182-146.48,364"/><path class="d" d="M516.43,146.9,328,690"/><path class="d" d="M517.71,248.29Q459.35,447.45,401,646.61"/><path class="d" d="M483.08,541.39,407,858.27"/><path class="d" d="M516,404.21q-10.58,44.09-21.17,88.17"/><path class="d" d="M517.71,626.4q-23.67,126-47.33,252"/><path class="d" d="M68.78,175.38l-80.72,75.18"/><path class="d" d="M263.44-5.93,104.21,142.38"/><path class="d" d="M86.12,49.38-11.94,123.6"/><path class="d" d="M159.19-5.93l-37.4,28.31"/><path class="d" d="M138.58,297.38-10.62,484.7"/><path class="d" d="M378.67-4.07,167.25,261.38"/><path class="d" d="M94.18-5.93-9.6,64.4"/><line class="d" x1="-15.5" y1="525.38" x2="265" y2="525.38"/><line class="d" x1="-15.5" y1="546.2" x2="265" y2="546.2"/><line class="d" x1="-15.5" y1="567.02" x2="265" y2="567.02"/><line class="d" x1="-15.5" y1="587.85" x2="265" y2="587.85"/><line class="d" x1="-15.5" y1="608.67" x2="265" y2="608.67"/><line class="d" x1="-15.5" y1="629.49" x2="265" y2="629.49"/><line class="d" x1="-15.5" y1="650.32" x2="265" y2="650.32"/><line class="d" x1="-15.5" y1="671.14" x2="265" y2="671.14"/><line class="d" x1="-15.5" y1="691.96" x2="265" y2="691.96"/><line class="d" x1="-15.5" y1="712.79" x2="265" y2="712.79"/><line class="d" x1="-15.5" y1="733.61" x2="391" y2="733.61"/><line class="d" x1="-15.5" y1="754.43" x2="391" y2="754.43"/><line class="d" x1="-15.5" y1="775.26" x2="368" y2="775.26"/><line class="d" x1="-15.5" y1="796.08" x2="343" y2="796.08"/><line class="d" x1="-15.5" y1="816.91" x2="391" y2="816.91"/><line class="d" x1="-15.5" y1="837.73" x2="399" y2="837.73"/><line class="d" x1="-15.5" y1="858.55" x2="460" y2="858.55"/><line class="d" x1="-15.5" y1="879.38" x2="489" y2="879.38"/><line class="d" x1="1" y1="175.38" x2="67" y2="175.38"/><line class="d" x1="106" y1="142.38" x2="159" y2="142.38"/><line class="d" x1="169" y1="261.38" x2="220" y2="261.38"/><line class="d" x1="80" y1="297.38" x2="137" y2="297.38"/><line class="d" x1="14" y1="49.38" x2="85" y2="49.38"/><line class="d" x1="122" y1="22.38" x2="181" y2="22.38"/><line class="d" x1="188" y1="386.38" x2="241" y2="386.38"/><line class="d" x1="266" y1="344.38" x2="315" y2="344.38"/><line class="d" x1="299" y1="478.38" x2="352" y2="478.38"/><line class="d" x1="368" y1="433.38" x2="414" y2="433.38"/><line class="d" x1="432" y1="541.38" x2="483" y2="541.38"/><line class="d" x1="495" y1="492.38" x2="525" y2="492.38"/></g><path class="h" d="M-1482.5,274.39c52.2-20.95,92.22-53.71,109.35-85.69-38.95-8.5-99.68-2.89-127.69.46a56.35,56.35,0,0,0-27.32,11c-22.56,16.93-70.32,54.87-92.59,87.93C-1586.27,299.33-1534.7,295.33-1482.5,274.39Z"/><path class="i" d="M-1482.5,274.39c52.2-20.95,92.22-53.71,109.35-85.69-38.95-8.5-99.68-2.89-127.69.46a56.35,56.35,0,0,0-27.32,11c-22.56,16.93-70.32,54.87-92.59,87.93C-1586.27,299.33-1534.7,295.33-1482.5,274.39Z"/></svg>