<svg xmlns="http://www.w3.org/2000/svg" width="510" height="900" viewBox="0 0 510 900"><defs><style>.a{fill:none;stroke-width:8px;}.a,.d{stroke:#432d1e;stroke-miterlimit:10;}.b,.d{fill:#9980bf;}.c{fill:#432d1e;}.d{stroke-width:6px;}.e{fill:#56634a;}</style></defs><title>123</title><path class="a" d="M65.79,287.87c21.41,42.25,43.9,89.44,65.1,141.11"/><path class="b" d="M63.05,292.15c-8.58,0-20.11-11.62-26.6-22.56-3.87-6.51-5.84-12.46-5.87-17.68,0-5.55,2.21-9.94,6.31-12.37a12.12,12.12,0,0,1,6.3-1.73c7.07,0,14.28,5.59,20.3,15.73,7,11.87,13.17,32,3.94,37.45A8.41,8.41,0,0,1,63.05,292.15Z"/><path class="c" d="M43.2,241.81c5.07,0,11.24,4.32,16.85,13.77,7.3,12.31,10.91,28.67,5.34,32a4.46,4.46,0,0,1-2.34.6c-6.23,0-16.75-9.79-23.16-20.6-7.31-12.31-6.53-21.27-1-24.58a8.32,8.32,0,0,1,4.27-1.16m0-8h0a16.37,16.37,0,0,0-8.35,2.28c-5.29,3.14-8.3,8.91-8.27,15.84,0,5.94,2.19,12.57,6.43,19.7a71.41,71.41,0,0,0,13.17,16.21c6.11,5.51,11.78,8.31,16.87,8.31a12.41,12.41,0,0,0,6.43-1.72c7.31-4.34,7.26-13.78,5.93-20.94a70.12,70.12,0,0,0-8.48-22c-6.77-11.41-15.2-17.69-23.73-17.69Z"/><path class="b" d="M111.85,329.1a7.78,7.78,0,0,1-2.84-.52c-9.17-3.61-6.7-22.47-2.14-34.08,4.28-10.92,10.77-17.18,17.8-17.18a11.37,11.37,0,0,1,4.15.79c4.1,1.61,6.8,5.27,7.6,10.31.73,4.68-.16,10.28-2.65,16.63C130.12,314.35,120.94,329.1,111.85,329.1Z"/><path class="c" d="M124.67,281.32a7.34,7.34,0,0,1,2.69.51c5.37,2.11,7.35,9.88,2.68,21.76-4.28,10.92-12.69,21.51-18.19,21.51a3.79,3.79,0,0,1-1.38-.25c-5.37-2.11-4.54-17,.12-28.89,3.91-10,9.28-14.64,14.08-14.64m0-8h0c-8.76,0-16.61,7.19-21.53,19.71s-8.1,34.36,4.41,39.27a11.81,11.81,0,0,0,4.3.8c5.17,0,10.46-3.21,15.71-9.55a64.91,64.91,0,0,0,9.93-17c7.36-18.74.71-29-7.21-32.13a15.24,15.24,0,0,0-5.61-1.07Z"/><path class="b" d="M138.12,372.89a7.69,7.69,0,0,1-2.83-.53c-3-1.16-6.46-4.64-6.25-14.59a59.29,59.29,0,0,1,4.1-19.49c4.28-10.91,10.77-17.17,17.81-17.17a11.12,11.12,0,0,1,4.14.79c4.11,1.61,6.8,5.27,7.6,10.31.74,4.68-.15,10.27-2.65,16.63C156.39,358.14,147.21,372.89,138.12,372.89Z"/><path class="c" d="M151,325.11a7.25,7.25,0,0,1,2.68.51c5.37,2.11,7.35,9.88,2.69,21.76-4.29,10.92-12.69,21.51-18.2,21.51a3.7,3.7,0,0,1-1.37-.25c-5.37-2.11-4.55-17,.11-28.89,3.91-10,9.29-14.64,14.09-14.64m0-8h0c-8.77,0-16.62,7.18-21.53,19.71s-8.11,34.36,4.4,39.27a11.84,11.84,0,0,0,4.3.8c5.18,0,10.46-3.21,15.72-9.55a65.06,65.06,0,0,0,9.92-17c2.76-7,3.73-13.32,2.88-18.71-1-6.41-4.69-11.3-10.09-13.42a15.34,15.34,0,0,0-5.6-1.06Z"/><path class="b" d="M68.85,405a61,61,0,0,1-9.54-.74c-6.75-1.06-12-3.12-15.69-6.12-3.95-3.23-5.75-7.41-5.06-11.77.41-2.64,2.94-11.25,18.07-11.25a46,46,0,0,1,7.17.6A59,59,0,0,1,82.68,382c8.7,4.84,9.93,9.61,9.43,12.76C90.63,404.21,73.93,405,68.85,405Z"/><path class="c" d="M56.63,379.07a42.59,42.59,0,0,1,6.54.55c12.61,2,25.89,8.81,25,14.51-.69,4.38-9.53,6.82-19.31,6.82a57.87,57.87,0,0,1-8.92-.69c-12.61-2-18.32-7.61-17.42-13.31.73-4.63,5.58-7.88,14.12-7.88m0-8v0h0c-14.54,0-20.91,7.56-22,14.63-1.33,8.41,4.19,19.34,24.07,22.47a66.79,66.79,0,0,0,10.17.78c15.94,0,25.86-4.95,27.22-13.58.41-2.65.11-6.71-3.69-11a30.11,30.11,0,0,0-7.75-5.91,63.39,63.39,0,0,0-20.21-6.77,50.37,50.37,0,0,0-7.78-.65Z"/><path class="b" d="M52.92,354.87a61.15,61.15,0,0,1-9.55-.73c-10.6-1.67-22.4-7.35-20.75-17.89C23,333.61,25.57,325,40.7,325a46,46,0,0,1,7.16.6c12.33,1.93,29.85,9.34,28.32,19.08C74.69,354.14,58,354.87,52.92,354.87Z"/><path class="c" d="M40.7,329a41.56,41.56,0,0,1,6.54.55c12.61,2,25.89,8.8,25,14.51-.69,4.37-9.54,6.82-19.31,6.82a58.1,58.1,0,0,1-8.93-.69c-12.6-2-18.31-7.62-17.41-13.32.72-4.62,5.58-7.87,14.12-7.87m0-8h0c-14.54,0-20.91,7.56-22,14.63C17.35,344,22.86,355,42.75,358.09a65.34,65.34,0,0,0,10.17.79c15.94,0,25.85-4.95,27.21-13.58.42-2.65.12-6.71-3.69-11a29.93,29.93,0,0,0-7.75-5.91,63.57,63.57,0,0,0-20.21-6.78A51.37,51.37,0,0,0,40.7,321Z"/><polyline class="a" points="76.68 344.93 95.46 348.38 108.08 329.69"/><polyline class="a" points="90.24 394.27 116.8 397.42 133.39 373.34"/><path class="a" d="M312.68,113c-27.17,75.93-86.6,269.26-91.1,376.66"/><path class="b" d="M314.75,117a8.2,8.2,0,0,1-3.31-.68c-9.84-4.27-6.27-25-.77-37.65,5.05-11.59,12.24-18.24,19.75-18.24a12.15,12.15,0,0,1,4.89,1c10.64,4.63,8.91,18.93,4.2,29.77-7.29,16.74-18.2,25.78-24.76,25.78Z"/><path class="c" d="M330.42,64.41a8.12,8.12,0,0,1,3.29.69c5.94,2.58,7.84,11.37,2.13,24.5-5.2,12-14.92,23.38-21.09,23.38a4.33,4.33,0,0,1-1.72-.34c-5.93-2.59-4.4-19.26,1.31-32.39,4.7-10.81,10.77-15.84,16.08-15.84m0-8c-9.17,0-17.71,7.53-23.42,20.65a70.22,70.22,0,0,0-5.67,22.88c-.42,7.26.72,16.64,8.51,20a12.22,12.22,0,0,0,4.91,1c11.86,0,23.49-16.86,28.42-28.19,8.72-20.05,2.08-31.4-6.27-35a16.08,16.08,0,0,0-6.48-1.35Z"/><path class="b" d="M271.06,159.74c-7.87,0-18.07-10.92-23.68-21.19-3.27-6-4.85-11.44-4.7-16.17.16-5.1,2.37-9.07,6.24-11.18a11.21,11.21,0,0,1,5.47-1.39c6.6,0,13.12,5.29,18.36,14.9a58.94,58.94,0,0,1,6.5,18.82c1.46,9.85-1.57,13.73-4.36,15.26a7.88,7.88,0,0,1-3.83,1Z"/><path class="c" d="M254.39,113.81c4.58,0,10.06,4,14.85,12.82,6.11,11.2,8.8,25.89,3.73,28.65a3.94,3.94,0,0,1-1.91.46c-5.54,0-14.74-9.16-20.16-19.11-6.12-11.2-5.13-19.16-.06-21.92a7.29,7.29,0,0,1,3.55-.9m0-8a15.2,15.2,0,0,0-7.38,1.88c-7.47,4.07-12.78,15.1-3.14,32.77,4.39,8,15.73,23.28,27.19,23.28a11.87,11.87,0,0,0,5.74-1.44c7.09-3.87,7.4-12.66,6.41-19.35a63.39,63.39,0,0,0-6.94-20.16c-8.07-14.78-17.17-17-21.88-17Z"/><path class="b" d="M250.46,206.47c-7.86,0-18.06-10.92-23.67-21.19-3.27-6-4.85-11.44-4.7-16.17.15-5.1,2.37-9.07,6.24-11.18a11.21,11.21,0,0,1,5.47-1.39c6.6,0,13.12,5.29,18.36,14.9a59.18,59.18,0,0,1,6.5,18.82c1.46,9.85-1.57,13.74-4.37,15.26a7.84,7.84,0,0,1-3.82.95Z"/><path class="c" d="M233.8,160.54c4.58,0,10.06,4,14.85,12.82,6.11,11.2,8.79,25.89,3.73,28.65a4,4,0,0,1-1.92.46c-5.54,0-14.73-9.16-20.16-19.11-6.11-11.2-5.12-19.16-.05-21.92a7.26,7.26,0,0,1,3.55-.9m0-8a15.3,15.3,0,0,0-7.38,1.87c-7.48,4.08-12.78,15.11-3.14,32.78,4.39,8.05,15.72,23.28,27.18,23.28a11.91,11.91,0,0,0,5.75-1.44c11.8-6.43,5.93-27.65-.54-39.51-8.06-14.78-17.16-17-21.87-17Z"/><path class="b" d="M237.73,263.3c-7.87,0-18.07-10.92-23.67-21.19-3.27-6-4.85-11.43-4.71-16.16.16-5.11,2.38-9.08,6.25-11.19a11.31,11.31,0,0,1,5.46-1.39c6.6,0,13.13,5.29,18.37,14.9a59.24,59.24,0,0,1,6.5,18.83c1.46,9.84-1.57,13.73-4.37,15.25a7.88,7.88,0,0,1-3.83.95Z"/><path class="c" d="M221.06,217.37c4.59,0,10.07,4,14.86,12.82,6.11,11.2,8.79,25.89,3.73,28.65a4,4,0,0,1-1.92.46c-5.54,0-14.73-9.16-20.16-19.1-6.11-11.21-5.12-19.16-.06-21.93a7.43,7.43,0,0,1,3.55-.9m0-8a15.23,15.23,0,0,0-7.38,1.88c-7.47,4.07-12.77,15.1-3.13,32.78,4.39,8.05,15.72,23.27,27.18,23.27a11.9,11.9,0,0,0,5.75-1.43c7.09-3.87,7.4-12.67,6.41-19.36a63.36,63.36,0,0,0-6.95-20.15c-8.06-14.78-17.17-17-21.88-17Z"/><path class="b" d="M304.78,286.16c-9.64,0-15.74-2.72-17.17-7.67-2.74-9.47,13.72-19,25.71-22.48a40.74,40.74,0,0,1,11.13-1.75c7.88,0,13.58,3.43,15.24,9.17,1.22,4.23,0,8.61-3.55,12.31-3.26,3.44-8.24,6.14-14.8,8a61.32,61.32,0,0,1-16.56,2.38Z"/><path class="c" d="M324.45,258.26c6.35,0,10.29,2.46,11.4,6.28,1.6,5.55-3.36,11.85-15.62,15.39a57.3,57.3,0,0,1-15.45,2.23c-6.87,0-12.39-1.53-13.33-4.78-1.6-5.55,10.72-14,23-17.52a36.58,36.58,0,0,1,10-1.6m0-8a44.47,44.47,0,0,0-12.24,1.91A63.54,63.54,0,0,0,293,261.42a29.94,29.94,0,0,0-6.95,6.84c-3.24,4.7-3,8.76-2.29,11.34,2.66,9.19,14.31,10.56,21,10.56a65.45,65.45,0,0,0,17.67-2.54c19.34-5.59,23.44-17.12,21.08-25.3-.82-2.83-4.61-12.06-19.08-12.06Z"/><path class="b" d="M317.1,230c-9.64,0-15.74-2.73-17.17-7.68-2.74-9.47,13.72-19,25.71-22.47a40.4,40.4,0,0,1,11.13-1.76c7.88,0,13.58,3.43,15.24,9.18,1.22,4.23,0,8.6-3.55,12.31-3.26,3.43-8.24,6.13-14.8,8A61.28,61.28,0,0,1,317.1,230Z"/><path class="c" d="M336.77,202.1c6.36,0,10.29,2.46,11.4,6.29,1.6,5.54-3.36,11.84-15.62,15.39A57.7,57.7,0,0,1,317.1,226c-6.87,0-12.39-1.54-13.33-4.79-1.6-5.54,10.72-14,23-17.52a36.52,36.52,0,0,1,10-1.6m0-8A44.5,44.5,0,0,0,324.53,196a63.07,63.07,0,0,0-19.21,9.25,30.12,30.12,0,0,0-6.95,6.83c-3.24,4.7-3,8.76-2.29,11.34,2.66,9.2,14.31,10.57,21,10.57a65.08,65.08,0,0,0,17.67-2.55c7.26-2.09,12.84-5.16,16.59-9.12,4.47-4.71,6.1-10.6,4.49-16.17-.82-2.83-4.61-12.07-19.08-12.07Z"/><path class="b" d="M326.65,178.34c-9.64,0-15.75-2.73-17.18-7.68-.88-3.06-.25-7.95,7.77-13.84a59,59,0,0,1,17.94-8.63,40.47,40.47,0,0,1,11.14-1.76c7.88,0,13.58,3.43,15.24,9.17,1.85,6.41-1.85,15.58-18.35,20.35a61.39,61.39,0,0,1-16.56,2.39Z"/><path class="c" d="M346.32,150.43c6.35,0,10.29,2.46,11.39,6.29,1.61,5.54-3.35,11.84-15.61,15.39a57.7,57.7,0,0,1-15.45,2.23c-6.87,0-12.39-1.54-13.33-4.79-1.61-5.54,10.71-14,23-17.52a36.59,36.59,0,0,1,10-1.6m0-8a44.59,44.59,0,0,0-12.25,1.91c-13,3.76-32.17,14.52-28.44,27.43,2.66,9.19,14.31,10.57,21,10.57a65.53,65.53,0,0,0,17.67-2.55c7.25-2.09,12.83-5.17,16.59-9.12,4.46-4.71,6.1-10.61,4.49-16.18-.82-2.83-4.61-12.06-19.08-12.06Z"/><polyline class="a" points="309.01 170.97 290.81 176.75 275.95 159.78"/><polyline class="a" points="301.73 221.63 275.77 228.07 256.29 206.25"/><polyline class="a" points="291.85 278.05 260.31 281.74 241.94 261.17"/><path class="b" d="M261.74,438.61a112.67,112.67,0,0,1-24.15-11.68c-13.49-8.6-23-19-28-30.49-8.62,11-22.9,16.91-41.16,16.91A80.34,80.34,0,0,1,153.16,412l-2.94-.64-.2-3c-.09-1.27-1.67-29.78,26-50.77-14.28-9.15-20-21.21-22.22-30.17a49.4,49.4,0,0,1-1-20l.57-2.88,2.92-.31a50.11,50.11,0,0,1,5.08-.22c6.42,0,16,.87,25,5a38,38,0,0,1,16.2,13.48c7.38-26.26,29.6-37.87,30.69-38.42l2.45-1.25,2.05,1.84c.91.83,20.16,18.65,14.3,49a41.21,41.21,0,0,1,18.86-4.32c15.3,0,27.95,7.28,28.48,7.59l2.6,1.52-.74,2.92c-.31,1.2-7.28,27.1-39.29,36.91,6.61,7.27,8.13,19.51,8,29.84a142.39,142.39,0,0,1-3.29,27.61l-1,4.21Z"/><path class="c" d="M235.22,287.6s23,20.8,10.08,55.79a36.34,36.34,0,0,1,25.76-10.08c14.4,0,26.46,7,26.46,7S290,369.81,252,376.57c23.09,6.31,10.95,58.22,10.95,58.22s-44.45-14.05-52.32-47.7c-8.81,18.72-28.56,22.26-42.24,22.26a75.92,75.92,0,0,1-14.38-1.3s-2.08-30.72,29.54-50.83c-33.19-16.82-26.74-49-26.74-49s1.77-.19,4.65-.19c10.83,0,37.25,2.73,43,28.8,1.7-34.4,30.79-49.2,30.79-49.2m1.27-9.62-4.9,2.49a70.32,70.32,0,0,0-30.31,33.9,43.71,43.71,0,0,0-13.11-9c-9.72-4.41-19.89-5.34-26.71-5.34-3.22,0-5.29.22-5.51.24l-5.83.63L149,306.62a53.77,53.77,0,0,0,20.49,51.16c-25,21.85-23.51,49.51-23.43,50.8l.41,6,5.89,1.27a84,84,0,0,0,16.07,1.48,67.65,67.65,0,0,0,26-4.72,45.5,45.5,0,0,0,14.18-9.13c15.37,27.07,50.23,38.38,51.94,38.92l8.24,2.6,2-8.4a148.25,148.25,0,0,0,3.39-28.49c.1-9.21-1.06-19.84-5.63-27.86,29.69-11.56,36.46-36.72,36.77-37.94l1.49-5.84-5.21-3c-.57-.34-14.12-8.14-30.49-8.14a47.09,47.09,0,0,0-14,2.05,58.87,58.87,0,0,0-4.59-28.16,53.18,53.18,0,0,0-11.88-17.54L236.49,278Z"/><path class="d" d="M234.72,367s-19,12-39.06-6.48"/><line class="d" x1="214.6" y1="368.14" x2="218.2" y2="346.45"/><path class="d" d="M207.1,366.9a15.8,15.8,0,0,1-1.59-16.18"/><path class="d" d="M222.1,369.39a15.82,15.82,0,0,0,6.72-14.81"/><path class="a" d="M433.83,334.41c-18,33.35-36.76,69.86-55.08,109.3"/><path class="b" d="M436.1,338.69a8.47,8.47,0,0,1-4.42-1.18c-2.93-1.76-6-6.1-4-16.8a66,66,0,0,1,8.1-20.63c6.05-10.08,13.26-15.63,20.3-15.63a12.18,12.18,0,0,1,6.36,1.75c9.95,6,6.38,19.93.29,30.06-6.52,10.87-18.09,22.43-26.66,22.43Z"/><path class="c" d="M456.12,288.45a8.31,8.31,0,0,1,4.31,1.18c5.55,3.34,6.28,12.3-1.08,24.57-6.46,10.76-17,20.49-23.25,20.49a4.54,4.54,0,0,1-2.36-.61c-5.55-3.33-1.86-19.67,5.51-31.94,5.64-9.4,11.8-13.69,16.87-13.69m0-8c-8.5,0-16.93,6.24-23.73,17.57-7.61,12.67-15.09,35.52-2.77,42.92a12.39,12.39,0,0,0,6.48,1.75c5.08,0,10.76-2.78,16.88-8.25a71.36,71.36,0,0,0,13.22-16.12c4.27-7.11,6.47-13.73,6.53-19.67.07-6.92-2.91-12.71-8.19-15.87a16.25,16.25,0,0,0-8.42-2.33Z"/><path class="b" d="M398,354.9c-8.85,0-17.23-15.21-20.35-26-3-10.32-2.82-23.41,7.43-26.37a11.26,11.26,0,0,1,3.15-.45c3.54,0,12.29,1.83,17.19,18.8,3.46,12,4.17,31-5.3,33.73a7.54,7.54,0,0,1-2.12.3Z"/><path class="c" d="M388.21,306.07c5,0,10.23,5.13,13.35,15.91,3.54,12.26,3,27.18-2.57,28.78a3.85,3.85,0,0,1-1,.14c-5.51,0-13.17-11.59-16.5-23.12-3.54-12.26-.86-19.82,4.69-21.42a7.45,7.45,0,0,1,2-.29m0-8a15.38,15.38,0,0,0-4.26.6c-5.57,1.61-9.69,6.14-11.29,12.43-1.34,5.28-1,11.64,1.13,18.9a64.48,64.48,0,0,0,8.55,18.23c4.93,7.08,10.19,10.67,15.64,10.67a11.66,11.66,0,0,0,3.23-.45c2.58-.75,6.13-2.74,8.37-8a29.65,29.65,0,0,0,2.08-9.52,63.34,63.34,0,0,0-2.42-21.18c-5.65-19.58-16.59-21.69-21-21.69Z"/><path class="b" d="M459.35,386.26a56.39,56.39,0,0,1-17.61-2.67c-8.29-2.86-10.25-7-10.44-9.91-.62-9.84,17.51-15.59,30-16.38,1.11-.07,2.21-.1,3.26-.1,14.78,0,20.48,6.74,20.88,13.05.28,4.4-1.9,8.4-6.13,11.25-3.93,2.65-9.37,4.21-16.19,4.64-1.22.08-2.47.12-3.73.12Z"/><path class="c" d="M464.53,361.2c10.8,0,16.55,4,16.88,9.31.37,5.76-5.84,10.84-18.57,11.64-1.15.08-2.32.11-3.48.11-11.75,0-23.74-3.6-24.07-8.83-.36-5.76,13.49-11.33,26.23-12.13,1-.07,2.05-.1,3-.1m0-8c-1.14,0-2.32,0-3.52.11-13.48.85-34.55,7.21-33.7,20.62.81,12.89,20.53,16.33,32.05,16.33,1.34,0,2.68,0,4-.12,7.54-.48,13.65-2.27,18.17-5.32,5.38-3.63,8.26-9,7.89-14.82-.34-5.39-3.34-10-8.45-13-4.25-2.51-9.78-3.78-16.42-3.78Z"/><polyline class="a" points="430.78 373.88 411.76 375.58 400.93 355.8"/><path class="b" d="M293.58,508.71c-.52-1.16-11.71-27.28,7-56.34-16.45-3.69-25.89-13-31.05-20.63a49.48,49.48,0,0,1-7.71-18.33l-.44-2.9,2.63-1.3a65.53,65.53,0,0,1,26.13-6c9,0,16.91,2.45,23.38,7.18-2-27.06,14.76-45.46,15.59-46.35l1.88-2,2.55,1c1.14.46,25.19,10.55,30.09,40.9,11-11.74,26.64-13.76,36.08-13.76a56.23,56.23,0,0,1,9.27.69l3,.53.3,3c.12,1.22,2.43,27.78-24.07,47.87,7.24,3.76,13.23,12.43,17.87,25.93a143.52,143.52,0,0,1,6.09,26.19l.52,4.28-4.32.19s-.77,0-2.16,0a115.88,115.88,0,0,1-29.87-4.08c-13.16-3.7-23.59-9.57-31.13-17.51-3.54,10.9-11.84,19.85-24.38,26.2a81.38,81.38,0,0,1-23,7.48l-3,.41Z"/><path class="c" d="M332.06,366.81s28.64,11.58,28.45,48.7c9.16-18.37,28.14-21.27,39.22-21.27a53.27,53.27,0,0,1,8.56.62s3,30.09-30.19,49.38c.43,0,.87-.05,1.29-.05,22.67,0,28.8,50.74,28.8,50.74s-.71,0-2,0c-9,0-46.67-1.56-63.19-26.77-3,33-45.77,38.9-45.77,38.9s-12.42-28,10.28-57.59c-36.77-4.4-41.72-36.7-41.72-36.7a61.72,61.72,0,0,1,24.36-5.55c10.39,0,21.93,3.5,29.9,16-10.14-32.73,12-56.48,12-56.48m-2.1-9.48-3.75,4a70,70,0,0,0-16.78,42,44.86,44.86,0,0,0-19.27-4.07h0a69.92,69.92,0,0,0-27.89,6.37l-5.26,2.6.89,5.79a53.52,53.52,0,0,0,36.57,40.85c-15.92,29-5.06,54.29-4.54,55.47l2.45,5.51,6-.83a85.94,85.94,0,0,0,24.29-7.87c11.33-5.74,19.46-13.5,24.08-22.85,7.5,6.38,17.05,11.21,28.53,14.44a119.91,119.91,0,0,0,31,4.23c1.42,0,2.25,0,2.34,0l8.62-.38-1-8.57a148.22,148.22,0,0,0-6.27-27c-2.83-8.23-6.24-14.89-10.13-19.81a34.58,34.58,0,0,0-4.89-5.08c23.79-20.94,21.54-46.76,21.41-48l-.6-6L409.71,387a59.71,59.71,0,0,0-10-.75c-8.74,0-22.42,1.63-33.68,10.19a58.69,58.69,0,0,0-13.88-24.69,52.85,52.85,0,0,0-17.11-12.35l-5.1-2.06Z"/><path class="d" d="M358.67,441.14s-13.7,17.71-38.73,7.27"/><line class="d" x1="340.26" y1="449.12" x2="336.22" y2="427.61"/><path class="d" d="M332.82,450.52a15.73,15.73,0,0,1-7-14.59"/><path class="d" d="M347.7,447.73a15.74,15.74,0,0,0,1.23-16.14"/><path class="e" d="M427.39,664.56c-7.18,0-14.22-1.84-21.68-3.78-3.21-.83-6.52-1.7-9.82-2.4-2.77-.58-5.64-1-8.69-1.49-7.5-1.15-15.25-2.34-22.83-5.86-6.59-3.07-12.15-7.78-18-12.77-2.56-2.17-5.21-4.41-7.94-6.5-1.8-1.38-3.76-2.71-5.66-4-5.09-3.46-10.35-7-14-12.28-3.75-5.43-5.2-11.64-6.61-17.66-.53-2.26-1-4.4-1.65-6.46s-1.38-4.19-2.18-6.41c-2.1-5.79-4.26-11.79-4.11-18.3s2.61-12.38,5-18.09c.9-2.17,1.75-4.22,2.49-6.29s1.29-4.08,1.92-6.28c1.7-5.94,3.45-12.08,7.53-17.4s9.53-8.64,14.81-11.84c2-1.18,3.82-2.3,5.55-3.5s3.57-2.61,5.43-4.06c4.88-3.79,9.93-7.7,16.14-9.55a34.68,34.68,0,0,1,10.09-1.31c2.92,0,5.83.24,8.65.47,2.35.19,4.56.37,6.75.42l1.42,0c1.71,0,3.43-.06,5.26-.13s3.73-.13,5.62-.13A39.57,39.57,0,0,1,414,490.86c6,2.11,10.84,6.25,15.51,10.25,1.75,1.5,3.55,3,5.35,4.42,2.73,2.08,5.59,4.05,8.36,6,6.36,4.37,12.37,8.5,17.06,14,5.39,6.39,8.57,13.56,11.65,20.5,1.25,2.81,2.43,5.47,3.72,8,1.55,3,3.25,6,4.89,8.84,3.87,6.76,7.53,13.14,9.4,20.15,2.17,8.16,2.13,16.15,2.09,23.2,0,3.19,0,6.21.16,9a42.51,42.51,0,0,0,3.56,14.44c2.4,5.92,4.46,11-2.68,20.37-4.52,5.92-8.6,8.33-14.09,8.33a41.6,41.6,0,0,1-4.87-.39,54.76,54.76,0,0,0-6.71-.49,41,41,0,0,0-8.16.84c-2.71.55-5.62,1.35-8.69,2.21-6.8,1.88-14.49,4-22.94,4.06Z"/><path class="c" d="M373.15,492.33c5.07,0,10.27.77,15.31.89l1.51,0c3.58,0,7.25-.26,10.88-.26a35.38,35.38,0,0,1,11.82,1.65c7.43,2.62,13.17,9,19.77,14.07,8.86,6.78,18.42,11.88,24.78,19.41,7.15,8.47,10.36,18.93,14.87,27.73,5.09,9.91,11.47,18.75,14,28.2,3,11.22,1.51,22.28,2.13,31.41,1.26,18.65,11.22,19.65,1.7,32.11-4.21,5.5-7.25,6.76-10.92,6.76-3.07,0-6.59-.88-11.58-.88a45.2,45.2,0,0,0-8.94.92c-9,1.8-19.26,6.13-30.87,6.19h-.2c-9.72,0-19.86-3.8-30.67-6.09-9.69-2.05-20.62-2.4-30.66-7.07-8.94-4.16-16.38-12-25.24-18.82-6.59-5-14.29-8.89-18.76-15.37-4.64-6.72-5.45-15.34-7.73-23s-6.31-15.4-6.12-23.47,4.53-15.45,7.24-23.15c2.61-7.42,3.82-16,8.86-22.58s13-10,19.46-14.47c6.71-4.64,12.77-10.79,20.43-13.07a31.32,31.32,0,0,1,8.95-1.14m0-8a38.72,38.72,0,0,0-11.23,1.48c-6.93,2.06-12.52,6.4-17.45,10.22-1.82,1.41-3.53,2.74-5.25,3.93s-3.44,2.22-5.35,3.37c-5.34,3.23-11.39,6.9-15.92,12.83s-6.48,12.73-8.19,18.73c-.62,2.14-1.2,4.17-1.86,6.05s-1.52,4-2.4,6.09c-2.4,5.76-5.12,12.3-5.29,19.53s2.23,13.9,4.35,19.75c.78,2.16,1.52,4.2,2.11,6.19s1.07,4,1.58,6.24c1.43,6.07,3,13,7.22,19,4,5.86,9.62,9.65,15,13.32,1.94,1.31,3.77,2.56,5.48,3.87,2.65,2,5.26,4.23,7.78,6.37,5.83,4.94,11.86,10.05,18.94,13.34,8.1,3.77,16.5,5.06,23.91,6.19,3,.46,5.81.9,8.47,1.46,3.22.68,6.48,1.53,9.64,2.35,7.37,1.92,15,3.91,22.69,3.91h.24c9,0,16.95-2.26,24-4.21,3-.83,5.84-1.62,8.41-2.14a37.66,37.66,0,0,1,7.37-.76,50.52,50.52,0,0,1,6.24.46,43.34,43.34,0,0,0,5.34.42c6.8,0,12-3,17.27-9.9,7.9-10.33,6.22-16.85,3.21-24.3a39,39,0,0,1-3.28-13.21c-.18-2.62-.16-5.56-.15-8.68,0-7.3.08-15.57-2.23-24.25-2-7.51-6-14.42-9.79-21.11-1.62-2.83-3.3-5.75-4.8-8.68-1.24-2.42-2.4-5-3.62-7.79-3-6.85-6.5-14.62-12.26-21.45-5-6-11.55-10.44-17.85-14.77-2.72-1.87-5.54-3.81-8.19-5.83-1.71-1.31-3.39-2.75-5.17-4.27-5-4.25-10.08-8.63-16.79-11A43.1,43.1,0,0,0,400.85,485c-2,0-3.9.07-5.77.14s-3.47.12-5.11.12l-1.32,0c-2.08,0-4.24-.22-6.52-.41-2.9-.23-5.9-.48-9-.48Z"/><path class="c" d="M335.09,523.85,483.5,641.12,329.1,531.85a5,5,0,0,1,5.78-8.16Z"/><path class="c" d="M336.19,534.66c.37,7.27,0,14-.18,20.74-.11,1.68-.09,3.38-.24,5.06s-.35,3.37-.47,5.06-.38,3.38-.53,5.08-.2,3.41-.28,5.12,0,3.41-.07,5.13v2.57l.07,2.57c0,3.43.17,6.87.36,10.31.37,6.89,1,13.79,2,20.66h0a.4.4,0,0,1-.77.18,167.07,167.07,0,0,1-5.17-20.35c-.64-3.45-1.23-6.92-1.7-10.41l-.34-2.62-.26-2.63c-.15-1.75-.39-3.5-.48-5.27s-.24-3.52-.41-5.29l-.29-5.33c0-.89-.08-1.78-.06-2.67s.06-1.78.12-2.67a45.58,45.58,0,0,1,.6-5.32c.34-1.76.69-3.51,1.1-5.25a26.24,26.24,0,0,1,.73-2.59c.27-.86.56-1.72.85-2.56s.6-1.7.92-2.53.74-1.66,1.13-2.47a50,50,0,0,1,2.64-4.75.41.41,0,0,1,.58-.12.39.39,0,0,1,.19.32Z"/><path class="c" d="M355.18,548.89c.07,7.32-.37,14.14-.49,21.06-.08,1.72-.05,3.45-.17,5.17,0,.86-.12,1.72-.19,2.58l-.14,2.59c-.12,1.73-.29,3.46-.37,5.2s-.08,3.48-.11,5.22.08,3.49.11,5.24.12,3.49.24,5.23c.14,3.5.43,7,.76,10.5.61,7,1.6,14,2.87,20.94h0a.35.35,0,0,1-.28.41.35.35,0,0,1-.39-.23q-1.78-5-3.13-10.21c-.93-3.44-1.76-6.9-2.53-10.39s-1.4-7-1.93-10.54c-.28-1.77-.53-3.55-.72-5.33s-.45-3.56-.59-5.35-.31-3.58-.49-5.37-.25-3.6-.37-5.41c0-.9-.09-1.81-.11-2.71s0-1.81.09-2.72c.11-1.81.19-3.62.47-5.41s.62-3.59,1-5.37l.29-1.33.37-1.32c.25-.88.51-1.76.78-2.63a48.2,48.2,0,0,1,4.38-10,.35.35,0,0,1,.49-.14.33.33,0,0,1,.18.31Z"/><path class="c" d="M372.06,560.15c.21,1.8.29,3.55.37,5.29s.18,3.47.28,5.19.11,3.42.29,5.14.25,3.41.34,5.11c0,.85.1,1.7.18,2.55s.11,1.7.17,2.56c.07,1.7.1,3.41.22,5.11s.12,3.43.22,5.15.3,3.42.48,5.14.45,3.41.67,5.12l.36,2.56.45,2.56c.53,3.41,1.2,6.81,1.91,10.2,1.4,6.79,3.16,13.53,5.22,20.18h0a.29.29,0,0,1-.2.37.29.29,0,0,1-.36-.16c-1.49-3.17-2.85-6.41-4.07-9.69s-2.4-6.6-3.5-9.94-2.05-6.73-2.92-10.15l-.65-2.56-.57-2.58c-.36-1.73-.8-3.44-1.1-5.18-1.38-6.92-2.74-14-2.52-21.13.1-1.79.21-3.57.36-5.35A22.25,22.25,0,0,1,368,573c.13-.88.29-1.76.46-2.64s.31-1.76.5-2.63.47-1.74.71-2.6c.54-1.71,1.08-3.42,1.75-5.07a.3.3,0,0,1,.4-.17.29.29,0,0,1,.19.25Z"/><path class="c" d="M403.37,582.22c2.83,6.15,5.12,12.16,8.06,18,.62,1.49,1.43,2.9,2.12,4.37s1.3,3,2.06,4.4l2.14,4.39c.77,1.43,1.58,2.85,2.37,4.27s1.69,2.8,2.56,4.19,1.74,2.77,2.69,4.1c1.81,2.74,3.75,5.39,5.73,8a154.06,154.06,0,0,0,12.88,15h0a.24.24,0,0,1,0,.35.25.25,0,0,1-.33,0q-3.9-3.12-7.48-6.62c-2.41-2.3-4.72-4.7-7-7.15s-4.42-5-6.49-7.64c-1.07-1.3-2.05-2.65-3-4s-2-2.69-2.91-4.1c-3.83-5.5-7.51-11.26-9.9-17.61-.57-1.6-1.13-3.2-1.64-4.81s-.85-3.29-1.19-5c-.18-.83-.37-1.65-.52-2.48s-.2-1.69-.29-2.53c-.15-1.69-.3-3.37-.32-5.06a.26.26,0,0,1,.25-.26.25.25,0,0,1,.23.15Z"/><path class="c" d="M388.56,571.69c1.17,6.81,1.92,13.35,3.27,19.88l.19,1.22.26,1.22.48,2.44c.3,1.63.52,3.28.87,4.9l.91,4.92,1.18,4.87c.38,1.63.91,3.22,1.37,4.82l.72,2.41c.24.8.52,1.59.79,2.39,1,3.2,2.16,6.35,3.36,9.5a175.84,175.84,0,0,0,8.25,18.46h0a.24.24,0,0,1-.42.25q-2.88-4.22-5.35-8.69c-1.68-3-3.25-6-4.77-9s-2.9-6.18-4.19-9.35c-.32-.79-.66-1.58-1-2.37l-.89-2.41c-.58-1.61-1.23-3.2-1.73-4.84-2.25-6.47-4.3-13.12-5-20-.14-1.72-.27-3.45-.36-5.17-.06-.86,0-1.73,0-2.6s0-1.73.08-2.59.07-1.73.13-2.59.23-1.72.35-2.58c.29-1.71.57-3.41,1-5.09a.24.24,0,0,1,.3-.18.23.23,0,0,1,.19.2Z"/><path class="c" d="M339.35,529.18a51.81,51.81,0,0,1,3.82-3.88c.67-.6,1.33-1.25,2-1.78l2.17-1.6q1.1-.78,2.22-1.53a24.78,24.78,0,0,1,2.28-1.43c1.55-.89,3.14-1.72,4.73-2.54a47.22,47.22,0,0,1,4.93-2.08c.84-.3,1.68-.59,2.53-.87s1.72-.46,2.58-.7l5.19-1.22c1.74-.34,3.47-.72,5.2-1.1s3.46-.68,5.19-1l2.59-.49,2.61-.41c3.48-.54,7-.95,10.46-1.32a169.25,169.25,0,0,1,21-.78.4.4,0,0,1,.39.41.4.4,0,0,1-.35.38h0q-10.29,1.53-20.37,3.93c-3.36.79-6.7,1.62-10,2.57l-2.48.66-2.46.74c-1.64.51-3.3.94-4.91,1.51s-3.23,1.12-4.83,1.71-3.15,1.3-4.72,1.95-3.14,1.28-4.72,1.88-3.2,1.07-4.79,1.65c-6.47,2.06-12.77,4.33-19.85,6h0a.42.42,0,0,1-.5-.31A.4.4,0,0,1,339.35,529.18Z"/><path class="c" d="M358.43,543.47a47.22,47.22,0,0,1,8.38-7c.76-.51,1.52-1,2.29-1.5l1.16-.73,1.2-.64c1.61-.85,3.23-1.66,4.87-2.46s3.36-1.37,5.06-2c.86-.3,1.73-.57,2.59-.85s1.75-.44,2.63-.67c1.77-.39,3.52-.83,5.29-1.17s3.54-.68,5.29-1.05,3.54-.62,5.3-.94,3.54-.58,5.31-.81c3.55-.49,7.11-.83,10.66-1.13s7.13-.43,10.69-.5,7.11-.07,10.67.11a.35.35,0,0,1,.33.37.34.34,0,0,1-.31.33h0c-7,.75-14,1.77-20.9,3.16-3.45.68-6.88,1.38-10.28,2.23-1.71.39-3.41.79-5.09,1.26s-3.39.86-5.05,1.37-3.33,1-5,1.58-3.26,1.22-4.89,1.82l-2.44.87c-.81.3-1.61.62-2.42.91-1.62.6-3.29,1.06-4.91,1.62-6.61,2.07-13,4.42-20.07,6.42h0a.35.35,0,0,1-.35-.59Z"/><path class="c" d="M374.1,556.53c1.4-1.12,2.88-2.11,4.37-3.12.76-.47,1.5-1,2.29-1.41s1.59-.82,2.38-1.23,1.6-.81,2.41-1.19a23.16,23.16,0,0,1,2.46-1.07c1.66-.65,3.34-1.26,5-1.85,6.79-2.24,13.95-2.92,21-3.55,1.76-.21,3.53-.27,5.28-.41l2.64-.18,2.65-.1c3.52-.13,7-.11,10.55-.06s7,.27,10.52.55,7,.63,10.46,1.16a.31.31,0,0,1,.25.34.32.32,0,0,1-.3.26h0c-7-.11-13.93.11-20.84.69-3.45.27-6.9.58-10.33,1l-2.57.29-2.56.38c-1.7.27-3.42.46-5.11.8s-3.38.64-5.06,1-3.33.83-5,1.24-3.32.82-5,1.24c-.83.18-1.66.39-2.5.56s-1.68.32-2.5.55c-1.65.39-3.32.77-5,1.11s-3.31.83-5,1.17-3.39.71-5.05,1.2-3.4.84-5.19,1.13h0a.31.31,0,0,1-.35-.25A.28.28,0,0,1,374.1,556.53Z"/><path class="c" d="M404.34,580.37c1.62-.45,3.27-.78,4.94-1.12.83-.15,1.67-.31,2.51-.43s1.68-.14,2.53-.21c1.68-.13,3.38-.23,5.08-.25s3.38.12,5.07.21c6.77.5,13.33,2.41,19.69,4.54,1.61.47,3.18,1.06,4.76,1.63s3.16,1.12,4.7,1.78c3.11,1.25,6.15,2.64,9.17,4.07s5.94,3,8.83,4.69,5.73,3.39,8.46,5.3a.25.25,0,0,1,.06.35.24.24,0,0,1-.32.08h0a155.62,155.62,0,0,0-18-8.12c-3.07-1.16-6.16-2.27-9.3-3.23-1.54-.54-3.12-1-4.7-1.43s-3.13-.92-4.73-1.27-3.18-.73-4.77-1.07l-4.82-.8c-1.59-.33-3.21-.47-4.8-.75s-3.18-.62-4.79-.79c-6.39-1.19-12.81-1.69-19.5-2.67h0a.26.26,0,0,1-.22-.29A.27.27,0,0,1,404.34,580.37Z"/><path class="c" d="M389.93,569.16c1.49-.85,3.05-1.6,4.61-2.36.79-.36,1.57-.75,2.37-1.06s1.63-.57,2.45-.85,1.63-.57,2.46-.82,1.65-.56,2.49-.74c1.68-.4,3.37-.76,5.07-1.12,6.8-1.26,13.77-1.17,20.6-.83,1.72,0,3.43.18,5.13.28l2.56.18c.86.07,1.71.17,2.56.26,3.4.35,6.78.84,10.14,1.38s6.71,1.25,10,2,6.6,1.63,9.85,2.67a.25.25,0,0,1,.16.32.25.25,0,0,1-.29.16h0a178.57,178.57,0,0,0-20-2.7c-3.35-.26-6.7-.48-10.06-.54-.84,0-1.67-.08-2.51-.09H435c-1.68,0-3.35,0-5,.06l-5,.24-5,.51c-1.66.12-3.3.38-5,.55l-2.47.23-1.25.09-1.23.16c-6.63.55-13.12,1.68-20,2.47h0a.26.26,0,0,1-.28-.23A.26.26,0,0,1,389.93,569.16Z"/><path class="e" d="M89.62,620.34c-8.78,0-17-1.76-24.23-3.32-3.34-.71-6.5-1.39-9.48-1.85a49.49,49.49,0,0,0-7.71-.62,59,59,0,0,0-9.25.84,41.41,41.41,0,0,1-6.12.63h0c-5.68,0-10.11-2.53-15.29-8.72-8-9.56-6.82-14.78-4.2-22.5a50.77,50.77,0,0,0,3.2-16.66c.07-3,0-6.24-.16-9.66-.28-8.14-.59-17.37,1.5-26.9,1.82-8.31,5.7-16.1,9.81-24.35,1.52-3.05,3.09-6.2,4.54-9.38,1.25-2.72,2.4-5.54,3.62-8.52,3.34-8.18,6.79-16.64,12.73-24.34,5.18-6.73,12-12,19.15-17.59,2.76-2.14,5.61-4.36,8.36-6.66,1.8-1.5,3.59-3.12,5.32-4.69,5.35-4.84,10.89-9.85,17.74-12.61,7.09-2.86,14.54-3.05,21.75-3.24,2.38-.06,4.63-.12,6.86-.28s4.53-.4,6.92-.66a113.11,113.11,0,0,1,12-.87,40.74,40.74,0,0,1,9.88,1.11c7.3,1.83,13.48,6,19.47,10.12,1.89,1.29,3.84,2.63,5.76,3.83s3.79,2.26,5.84,3.43c6.25,3.55,12.72,7.23,17.71,13.19s7.47,13,9.87,19.74c.78,2.23,1.52,4.32,2.35,6.36s1.81,4.26,2.75,6.35c3,6.6,6,13.44,6.53,20.94s-1.58,14.69-3.61,21.6c-.68,2.31-1.32,4.49-1.87,6.69s-1,4.38-1.47,6.71c-1.46,7.06-3,14.36-7,20.84-3.93,6.26-9.83,10.83-15.53,15.24-1.85,1.44-3.76,2.92-5.56,4.42-2.75,2.3-5.43,4.72-8,7-6.76,6.09-13.15,11.85-20.69,15.77-8.62,4.49-17.56,6.4-26.2,8.25-3.15.67-6.13,1.31-9,2.06-3.39.87-6.77,1.86-10,2.82-8.84,2.6-17.19,5.05-25.69,5.38C91.3,620.32,90.46,620.34,89.62,620.34Z"/><path class="c" d="M146.7,422.39a37.06,37.06,0,0,1,8.91,1c8.83,2.21,16.2,8.52,24.08,13.46,7.59,4.76,16.53,8.55,22.6,15.79s8.22,16.72,11.57,25c3.48,8.62,8.4,17,9,26.06s-3.14,18.13-5.37,27-3.06,18.52-8,26.4c-4.76,7.59-13,12.64-20.26,18.71-9.74,8.15-18,17.16-28,22.34-11.2,5.83-23.47,7.17-34.38,10-12.28,3.17-23.76,7.64-34.89,8.07-.79,0-1.57.05-2.36.05-12.28,0-23.41-3.63-33.1-5.12a53.58,53.58,0,0,0-8.32-.67c-7,0-11.43,1.47-15.37,1.47s-7.35-1.46-12.23-7.28c-11.47-13.71-.55-15.22-.06-36.51.25-10.42-1.59-22.88,1.25-35.8,2.38-10.88,8.8-21.39,14.08-32.91,4.69-10.25,8.17-22.09,15.88-32.09,6.85-8.89,17.17-15.47,26.91-23.62,7.25-6.07,13.67-13.31,22-16.66,8.62-3.47,18.31-2.62,27.39-3.23,6.16-.42,12.47-1.53,18.66-1.53m0-8a113.74,113.74,0,0,0-12.45.9c-2.35.25-4.58.5-6.76.64s-4.35.21-6.7.27c-7.2.19-15.37.4-23.13,3.53-7.52,3-13.32,8.28-18.93,13.35-1.79,1.62-3.47,3.14-5.2,4.59-2.7,2.26-5.52,4.45-8.25,6.57-7.06,5.49-14.37,11.17-19.87,18.3-6.27,8.13-10,17.24-13.27,25.28-1.2,2.94-2.33,5.72-3.54,8.36-1.43,3.12-3,6.24-4.49,9.26-4,8.11-8.21,16.49-10.14,25.28-2.2,10-1.87,19.52-1.58,27.9.11,3.36.22,6.53.15,9.43a46.44,46.44,0,0,1-3,15.46c-2.89,8.54-4.23,15.43,4.92,26.36C20.42,617,25.91,620,32.83,620a44.87,44.87,0,0,0,6.72-.67,54.41,54.41,0,0,1,8.65-.8,46.66,46.66,0,0,1,7.1.57c2.86.44,6,1.11,9.25,1.81,7.43,1.6,15.86,3.41,25.07,3.41.9,0,1.8,0,2.68-.06,9-.35,18-3,26.66-5.53,3.24-1,6.59-1.93,9.91-2.79,2.81-.72,5.74-1.35,8.85-2,8.49-1.82,18.12-3.88,27.22-8.61,8-4.16,14.87-10.36,21.51-16.35,2.57-2.31,5.23-4.7,7.92-7,1.73-1.45,3.53-2.84,5.43-4.31,6-4.63,12.18-9.42,16.48-16.29,4.44-7.09,6.09-15.09,7.54-22.15.48-2.3.92-4.46,1.44-6.55s1.16-4.27,1.83-6.54c2.13-7.25,4.33-14.74,3.77-23s-3.78-15.38-6.88-22.31c-1-2.14-1.88-4.17-2.69-6.2s-1.52-4-2.29-6.2c-2.4-6.78-5.12-14.47-10.57-21s-12.55-10.54-18.8-14.1c-2-1.14-3.91-2.22-5.7-3.34s-3.69-2.42-5.63-3.74c-6.28-4.28-12.76-8.7-20.75-10.7a44.68,44.68,0,0,0-10.85-1.23Z"/><path class="c" d="M196.16,463.25,29.2,599.38,189.66,455.65a5,5,0,1,1,6.67,7.45Z"/><path class="c" d="M184.35,462.25c-8-1.69-15.35-3.94-22.86-5.87-.92-.29-1.86-.52-2.79-.76s-1.86-.51-2.79-.8c-1.84-.57-3.66-1.2-5.52-1.76s-3.69-1.23-5.54-1.81-3.76-1-5.64-1.54-3.8-.88-5.7-1.32l-2.87-.64-2.88-.56c-3.83-.8-7.69-1.46-11.57-2.08-7.76-1.29-15.6-2.17-23.48-2.75h0a.4.4,0,0,1-.37-.43.4.4,0,0,1,.36-.37q6-.53,11.93-.56c4-.06,8,0,12,.12s8,.43,12,.81l3,.3,3,.38c2,.28,4,.46,6,.82s4,.64,6,.91l6,1.06c1,.21,2,.36,3,.62s1.95.52,2.92.81,1.94.59,2.9.91,1.91.65,2.85,1.05c1.87.8,3.73,1.61,5.56,2.47.93.42,1.82.91,2.71,1.42s1.77,1,2.64,1.53,1.75,1.05,2.6,1.59,1.67,1.19,2.49,1.8c1.61,1.27,3.22,2.53,4.7,3.94a.42.42,0,0,1,0,.59.42.42,0,0,1-.39.12Z"/><path class="c" d="M163.78,479.8c-8-2-15.49-4.3-23.16-6.24-.93-.3-1.9-.49-2.86-.73s-1.9-.51-2.85-.77-1.89-.56-2.83-.85l-2.86-.79c-1.9-.55-3.78-1.16-5.71-1.66s-3.85-.94-5.79-1.39-3.9-.76-5.86-1.15c-1-.19-2-.39-2.94-.55l-3-.47c-3.93-.69-7.9-1.21-11.87-1.7-7.95-1-16-1.6-24-1.85h0a.35.35,0,0,1,0-.7q6-.65,12.11-.81c4-.15,8.11-.18,12.17-.13s8.12.25,12.18.57l3,.24c1,.09,2,.21,3,.32,2,.24,4.06.41,6.07.71s4,.58,6.08.84,4.05.66,6.08,1c1,.19,2,.36,3,.57s2,.5,3,.79c2,.56,4,1.12,5.89,1.85s3.83,1.55,5.72,2.37l1.41.63,1.37.72c.92.48,1.83,1,2.73,1.48a58.42,58.42,0,0,1,10.16,7.1.35.35,0,0,1,0,.5.36.36,0,0,1-.36.12Z"/><path class="c" d="M147.05,495.74c-8-1.34-15.56-3-23.29-4.12-1-.21-1.92-.32-2.89-.46s-1.92-.3-2.88-.46c-1.92-.34-3.83-.72-5.77-1s-3.85-.7-5.79-1-3.89-.49-5.84-.72-3.91-.33-5.87-.5l-2.94-.23-3-.13c-3.94-.24-7.88-.31-11.83-.35-7.9-.09-15.83.22-23.73.92h0a.3.3,0,0,1-.32-.28.3.3,0,0,1,.23-.32c3.91-.83,7.84-1.49,11.8-2s7.93-1,11.91-1.32,8-.55,12-.64l3-.07,3,0c2,0,4,0,6,.1,8,.23,16.17.58,24,2.56,2,.54,3.91,1.09,5.84,1.68,1,.28,1.92.65,2.87,1s1.9.74,2.83,1.13,1.88.75,2.81,1.16,1.81.93,2.72,1.39c1.78,1,3.55,2,5.25,3.07a.31.31,0,0,1,.08.43.3.3,0,0,1-.3.13Z"/><path class="c" d="M114.68,525c-7.54,1.41-14.83,2.38-22,4.17-1.82.31-3.59.85-5.4,1.24l-2.71.59c-.91.17-1.81.39-2.7.63L76.41,533c-1.78.51-3.56,1.07-5.34,1.6s-3.53,1.19-5.29,1.82-3.51,1.26-5.23,2c-3.49,1.35-6.91,2.86-10.32,4.42a173.62,173.62,0,0,0-19.82,10.69h0a.25.25,0,0,1-.34-.08.25.25,0,0,1,.06-.33c3-2.35,6.07-4.54,9.25-6.59,1.57-1.06,3.21-2,4.81-3s3.27-1.92,4.91-2.88c3.33-1.83,6.69-3.62,10.13-5.24,1.71-.86,3.46-1.6,5.21-2.35s3.49-1.54,5.29-2.18c7.07-2.86,14.39-5.42,22-6.53l5.73-.66c1.92-.12,3.86-.15,5.78-.15,1,0,1.92,0,2.87,0s1.92.17,2.88.26c1.92.23,3.82.45,5.7.79a.24.24,0,0,1,.2.29.26.26,0,0,1-.2.21Z"/><path class="c" d="M130.09,511.19c-7.81-.58-15.29-1.46-22.88-1.64l-1.42-.1-1.42,0-2.84-.08c-1.89-.07-3.78-.24-5.68-.24l-5.7-.18-5.71.13c-1.91,0-3.81.21-5.71.33l-2.86.21c-1,.07-1.9.19-2.85.29-3.81.35-7.61.86-11.4,1.42A200.12,200.12,0,0,0,39.07,516h0a.26.26,0,0,1-.31-.18.25.25,0,0,1,.15-.3q5.43-2.09,11-3.69c3.71-1.11,7.46-2.08,11.24-3s7.59-1.64,11.43-2.26c1-.16,1.91-.34,2.88-.47l2.89-.38c1.93-.24,3.86-.55,5.8-.68,7.74-.86,15.63-1.39,23.44-.51l5.83.86c1,.13,1.92.41,2.88.62s1.91.46,2.86.71,1.9.49,2.84.75,1.86.66,2.79,1c1.83.71,3.66,1.41,5.44,2.22a.26.26,0,0,1,.12.34.25.25,0,0,1-.25.14Z"/><path class="c" d="M189.57,467.2c1.17,1.69,2.15,3.47,3.16,5.26.47.9,1,1.8,1.39,2.73s.79,1.88,1.17,2.82.75,1.9,1.1,2.85.71,1.92,1,2.89c.56,1.95,1.07,3.92,1.57,5.89.25,1,.44,2,.6,3s.31,2,.44,3,.23,2,.35,3,.09,2,.15,3l.12,6.06c0,2,0,4,0,6s-.08,4-.11,6l-.09,3-.17,3c-.24,4-.63,8-1.06,11.94s-1.06,7.91-1.74,11.83-1.45,7.83-2.41,11.7a.41.41,0,0,1-.49.29.4.4,0,0,1-.3-.42v0c.66-7.86,1-15.75.94-23.61,0-3.93-.06-7.85-.26-11.76l-.09-2.93-.19-2.93c-.15-2-.2-3.9-.42-5.84s-.4-3.88-.64-5.81-.63-3.84-.93-5.75-.6-3.83-.88-5.74c-.14-.95-.25-1.91-.35-2.87s-.18-1.93-.32-2.88c-.74-7.72-1.83-15.29-2.24-23.49h0a.42.42,0,0,1,.4-.44A.43.43,0,0,1,189.57,467.2Z"/><path class="c" d="M168.93,484.82A58.77,58.77,0,0,1,174.36,496c.35,1,.7,1.95,1,2.93l.5,1.47.4,1.49c.51,2,1,4,1.45,6s.66,4.06.91,6.11c.13,1,.21,2,.31,3.07s.06,2.05.1,3.08c0,2,.07,4.1,0,6.15s-.1,4.09-.12,6.13-.17,4.08-.25,6.12c0,1-.08,2-.15,3.05l-.24,3c-.31,4.06-.8,8.1-1.33,12.12s-1.24,8-2,12-1.63,7.93-2.69,11.84a.35.35,0,0,1-.43.25.36.36,0,0,1-.26-.39h0c1-8,1.67-16,1.91-24,.14-4,.24-8,.17-12v-3c0-1-.06-2-.08-3-.08-2-.09-4-.23-6s-.29-4-.47-5.94-.51-3.94-.75-5.9l-.34-2.95c-.13-1-.29-2-.4-2.92s-.23-2-.31-2.94-.13-2-.28-2.94c-.72-7.87-1.84-15.6-2.56-23.85v0a.35.35,0,0,1,.66-.21Z"/><path class="c" d="M150.51,499c.83,1.85,1.52,3.75,2.22,5.67.31,1,.69,1.92.94,2.9s.48,2,.72,3,.47,2,.67,3,.43,2,.55,3c.29,2,.52,4,.75,6,.73,8.09-.2,16.19-1.22,24.15-.19,2-.56,4-.83,6l-.44,3-.54,3c-.71,3.94-1.59,7.85-2.5,11.74s-2,7.74-3.16,11.56-2.39,7.62-3.82,11.35a.3.3,0,0,1-.39.17.29.29,0,0,1-.18-.35h0c1.92-7.69,3.46-15.48,4.61-23.3.58-3.9,1.11-7.81,1.49-11.73l.33-2.94.24-2.94c.13-2,.36-3.92.41-5.88s.15-3.92.2-5.88-.06-3.92-.09-5.88-.05-3.9-.1-5.85c0-1,0-1.94,0-2.92s0-1.95,0-2.92c.07-7.82-.37-15.54-.45-23.65h0a.31.31,0,0,1,.3-.31A.33.33,0,0,1,150.51,499Z"/><path class="c" d="M116.45,526.59c0,1.91,0,3.82-.11,5.75,0,.95-.09,1.92-.18,2.88s-.3,1.89-.44,2.84c-.3,1.9-.63,3.8-1,5.68l-1.54,5.56c-2.29,7.36-6,14.19-9.88,20.73-.91,1.67-2,3.27-3,4.88s-2,3.23-3.12,4.79c-2.15,3.14-4.43,6.18-6.76,9.19-1.21,1.46-2.38,3-3.61,4.4s-2.46,2.89-3.75,4.27c-2.53,2.83-5.17,5.54-8,8.12a.26.26,0,0,1-.36,0,.27.27,0,0,1,0-.34h0a173.66,173.66,0,0,0,13.64-17.91c2.08-3.12,4.1-6.27,6-9.5,1-1.58,1.88-3.23,2.78-4.86s1.83-3.25,2.62-4.94,1.64-3.34,2.42-5l2.14-5.14c.37-.85.73-1.71,1-2.58l1-2.58c.67-1.72,1.48-3.4,2.07-5.14,2.88-6.85,5-13.9,7.55-21.12h0a.27.27,0,0,1,.33-.16A.25.25,0,0,1,116.45,526.59Z"/><path class="c" d="M132.51,513.39c.53,1.88.94,3.79,1.35,5.72.18,1,.41,1.93.54,2.9s.2,1.94.3,2.92.19,2,.26,2.94.18,2,.16,2.94l-.06,5.89c-.34,7.86-2.09,15.56-4.14,23.08-.44,1.9-1,3.75-1.58,5.62l-.82,2.8c-.29.93-.61,1.85-.92,2.77-1.21,3.7-2.59,7.33-4,10.94s-3,7.15-4.69,10.64-3.42,6.94-5.36,10.3a.26.26,0,0,1-.35.09.25.25,0,0,1-.1-.32h0a198.57,198.57,0,0,0,8.15-21.55c1.14-3.66,2.24-7.32,3.18-11,.24-.93.51-1.85.73-2.77l.65-2.8c.41-1.86.9-3.7,1.22-5.59l1-5.62.71-5.66c.3-1.88.43-3.77.65-5.65l.36-2.81.2-1.41.13-1.41c1-7.54,1.3-15.06,1.94-22.86h0a.25.25,0,0,1,.49-.05Z"/><path class="e" d="M149.41,742.16c-4.54,0-9.16-1.87-15-6.06-11.62-8.35-11.86-14.44-11.28-23.67a62.24,62.24,0,0,0-1.36-19.85c-.73-3.18-1.65-6.51-2.62-10-2.6-9.41-5.55-20.09-6-31.8-.36-10.45,1.76-21,4-32.26.66-3.3,1.35-6.7,2-10.1.55-3,1-6.13,1.52-9.39,1.62-10.6,3.29-21.56,7.95-32.38,4.1-9.55,10.49-18,17.25-27,2.12-2.82,4.31-5.73,6.43-8.67,1.34-1.86,2.67-3.8,4-5.67,5-7.3,10.19-14.85,17.43-20.17,7.46-5.47,16.15-8.1,24.56-10.64,2.15-.64,4.37-1.31,6.48-2s4.34-1.49,6.47-2.25c8.28-3,16.85-6,26-6.06h.23c9.05,0,17.64,3,26,5.82,2.1.73,4.27,1.48,6.38,2.15s4.21,1.29,6.44,1.94c8.4,2.44,17.08,5,24.71,10.46s12.79,12.91,17.78,20.09c1.32,1.91,2.58,3.71,3.88,5.49s2.71,3.61,4.07,5.37c5.41,7,11,14.29,13.85,23s2.7,17.79,2.53,26.59c0,2.26-.08,4.59-.07,6.84s.09,4.55.16,6.79c.27,8.78.55,17.86-2.27,26.67-2.74,8.55-8.25,15.87-13.58,22.94-1.36,1.81-2.77,3.69-4.11,5.54-2.12,3-4.18,6-6.17,8.86-6.35,9.27-12.35,18-20.09,25-8.77,7.85-18.63,12.93-28.16,17.83-2.94,1.51-5.71,2.94-8.43,4.44-3,1.66-6,3.39-9,5.07-9.91,5.71-19.28,11.1-29.3,14.08-11.23,3.35-22.29,4-32,4.49-3.65.19-7.1.38-10.35.7a62.28,62.28,0,0,0-19.25,5C156.62,740.81,153.32,742.16,149.41,742.16Z"/><path class="c" d="M237.48,488.16c10.59,0,20.81,4.49,31.11,7.78,10,3.2,21,5.36,30,11.83S313.17,524,319.4,532.48c6.45,8.78,14,17.08,17.34,27.21s2.2,21.43,2.26,32.2,1.4,21.85-1.92,32.22c-3.2,10-10.66,18.37-17.13,27.37-8.69,12.09-15.88,24.38-25.68,33.16-11,9.87-24.27,15.37-35.84,21.74-13,7.17-25,15.1-37.47,18.83-14.86,4.42-29.48,3.86-41.65,5-16.89,1.64-22.62,7.91-29.9,7.91-3.43,0-7.2-1.39-12.65-5.31-17-12.23-5.45-16.85-11.07-41.17-2.75-11.9-7.94-25.59-8.48-41.08-.45-13.05,3.28-26.89,5.93-41.51,2.35-13,3.35-27.31,9.2-40.9,5.2-12.09,14.57-22.81,23.26-34.9,6.47-9,12-18.72,20.49-24.94,8.79-6.45,19.8-8.74,29.94-12.08s20.47-8,31.24-8.11h.21m0-8h-.26c-9.83.06-18.73,3.23-27.33,6.29-2.2.79-4.28,1.53-6.37,2.22s-4.17,1.31-6.39,2c-8.73,2.63-17.76,5.35-25.77,11.24C163.57,507.62,158.2,515.45,153,523c-1.27,1.85-2.58,3.77-3.89,5.59-2.1,2.91-4.28,5.8-6.39,8.6C135.81,546.38,129.29,555,125,565c-4.85,11.28-6.64,23-8.22,33.35-.5,3.24-1,6.29-1.5,9.28-.61,3.37-1.29,6.76-2,10-2.3,11.45-4.48,22.27-4.1,33.18.42,12.19,3.43,23.11,6.09,32.74,1,3.48,1.87,6.77,2.59,9.88a58.12,58.12,0,0,1,1.26,18.69c-.65,10.33-.1,17.8,12.93,27.17,6.55,4.71,11.89,6.81,17.32,6.81,4.69,0,8.51-1.55,12.55-3.2a58,58,0,0,1,18.12-4.75c3.17-.31,6.58-.49,10.19-.69,10-.55,21.28-1.17,33-4.65,10.47-3.11,20-8.61,30.16-14.44,2.89-1.67,5.89-3.39,8.88-5,2.67-1.47,5.42-2.88,8.33-4.38,9.3-4.79,19.84-10.21,29-18.41,8.1-7.25,14.23-16.19,20.72-25.66,2-2.89,4-5.88,6.12-8.79,1.31-1.82,2.71-3.68,4.06-5.47,5.53-7.34,11.25-14.93,14.19-24.13,3-9.47,2.73-18.89,2.45-28-.07-2.32-.14-4.51-.15-6.69s0-4.41.07-6.75c.17-9.13.35-18.57-2.73-27.91s-8.87-16.86-14.48-24.15c-1.4-1.82-2.73-3.54-4-5.3s-2.52-3.52-3.83-5.41c-4.94-7.11-10.54-15.17-18.73-21.05s-17.6-8.63-25.91-11c-2.21-.65-4.3-1.25-6.35-1.91s-4.13-1.37-6.3-2.12c-8.62-3-17.53-6-27.25-6Z"/><path class="c" d="M294.19,520.91,144.82,724.48,286,515.15a5,5,0,0,1,8.29,5.59Z"/><path class="c" d="M281.21,523.62c-9.53,0-18.52-.54-27.63-.64-1.13-.07-2.27-.07-3.41-.08s-2.27,0-3.4-.1c-2.27-.12-4.53-.29-6.81-.36s-4.56-.28-6.84-.38-4.57,0-6.86,0-4.58.14-6.87.2l-3.44.13-3.44.23c-4.59.24-9.17.65-13.76,1.11-9.18.88-18.33,2.23-27.42,4h0a.39.39,0,0,1-.47-.31.41.41,0,0,1,.26-.46q6.63-2.25,13.41-4c4.51-1.19,9-2.23,13.62-3.21s9.18-1.76,13.81-2.44l3.48-.51,3.49-.4c2.33-.24,4.65-.6,7-.75s4.68-.4,7-.64l7.06-.46c1.18,0,2.36-.14,3.54-.13l3.54.08c1.18,0,2.36.11,3.54.18s2.36.17,3.53.35c2.35.34,4.7.7,7,1.1,1.16.19,2.32.47,3.47.77s2.31.59,3.45.9,2.29.64,3.42,1,2.24.82,3.35,1.24c2.21.9,4.41,1.79,6.53,2.87a.41.41,0,0,1-.18.77Z"/><path class="c" d="M263,549.54c-9.63-.26-18.81-.85-28.1-.9-1.15-.08-2.31,0-3.47,0s-2.32,0-3.47,0-2.32-.09-3.48-.13l-3.48-.06c-2.32,0-4.65-.17-7-.16s-4.66.09-7,.16-4.66.29-7,.43c-1.17.08-2.34.14-3.5.25l-3.5.35c-4.67.39-9.32,1-14,1.62-9.31,1.25-18.59,3-27.76,5.11h0a.35.35,0,0,1-.42-.26.36.36,0,0,1,.22-.41q6.71-2.43,13.55-4.32c4.56-1.31,9.17-2.48,13.79-3.56s9.3-2,14-2.79l3.52-.6c1.18-.18,2.36-.32,3.54-.49,2.37-.3,4.72-.69,7.1-.91s4.75-.49,7.13-.77,4.78-.38,7.17-.57c1.2-.07,2.4-.16,3.6-.21s2.4,0,3.6,0c2.41.07,4.81.12,7.21.37s4.78.6,7.16,1l1.79.28,1.77.4c1.17.26,2.35.54,3.52.83s2.34.58,3.5.89a15.6,15.6,0,0,1,1.72.55l1.71.6c2.27.86,4.52,1.7,6.71,2.7a.35.35,0,0,1,.17.47.33.33,0,0,1-.33.21Z"/><path class="c" d="M248.56,572.51c-9.44.52-18.53.74-27.68,1.62-1.14,0-2.28.18-3.42.3l-3.42.31c-1.14.1-2.28.16-3.42.24s-2.29.21-3.43.32c-2.29.2-4.58.36-6.87.6s-4.57.6-6.85.92-4.55.79-6.82,1.17l-3.41.62-3.39.73c-4.54.9-9,2-13.53,3.12a274.84,274.84,0,0,0-26.62,8.14h0a.29.29,0,0,1-.38-.18.29.29,0,0,1,.15-.37q6.31-3.06,12.84-5.6c4.35-1.74,8.74-3.34,13.17-4.87s8.91-2.89,13.44-4.12l3.39-.94,3.42-.82c2.29-.53,4.56-1.16,6.87-1.6,9.17-2,18.51-3.85,28-4,2.37,0,4.74.07,7.1.15,1.19,0,2.37.15,3.55.28s2.36.25,3.53.4,2.35.28,3.52.46,2.33.47,3.49.71c2.31.55,4.61,1.09,6.87,1.78a.3.3,0,0,1,.2.38.31.31,0,0,1-.27.22Z"/><path class="c" d="M220.29,615.17c-4.12,1.76-8.21,3.33-12.2,5.14s-7.94,3.6-11.8,5.61-7.74,3.94-11.59,6c-1.95,1-3.85,2.05-5.75,3.12s-3.77,2.21-5.61,3.4A219,219,0,0,0,132.84,672h0a.25.25,0,0,1-.38-.33c2.71-3.52,5.62-6.86,8.65-10.11s6.14-6.41,9.37-9.48a204.06,204.06,0,0,1,20.63-17c7.26-5.17,14.75-10.27,23.09-13.71,2.07-.88,4.18-1.66,6.29-2.43,1.06-.38,2.14-.68,3.21-1s2.14-.67,3.24-.93a72.69,72.69,0,0,1,13.24-2.31.27.27,0,0,1,.28.23.25.25,0,0,1-.16.26Z"/><path class="c" d="M233.79,595c-9,1.37-17.83,2.45-26.54,4.4l-1.64.29-1.63.39-3.26.73c-2.17.47-4.37.84-6.53,1.4l-6.53,1.5-6.45,1.84A232.32,232.32,0,0,0,156,614.86a228.7,228.7,0,0,0-24.18,12h0a.25.25,0,0,1-.34-.09.25.25,0,0,1,.07-.33q5.58-3.91,11.47-7.31c3.9-2.31,7.89-4.48,11.93-6.57a237.72,237.72,0,0,1,25-10.86,129.54,129.54,0,0,1,26.43-7.28l6.85-.76c1.13-.15,2.29-.12,3.44-.17s2.3,0,3.44-.06,2.29,0,3.44,0,2.29.16,3.43.25c2.29.23,4.56.45,6.82.79a.25.25,0,0,1,.21.29.27.27,0,0,1-.21.21Z"/><path class="c" d="M288.5,527.84c1.73,1.63,3.31,3.4,4.91,5.18.77.9,1.6,1.78,2.29,2.74s1.39,1.91,2.07,2.89,1.35,2,2,2.94a35.19,35.19,0,0,1,1.89,3c1.17,2.06,2.3,4.14,3.41,6.24a34.83,34.83,0,0,1,1.52,3.21c.47,1.08.93,2.17,1.37,3.27l1.27,3.31c.42,1.1.71,2.25,1.08,3.37l1.95,6.8c.56,2.29,1.16,4.56,1.76,6.83s1.11,4.56,1.66,6.84l.8,3.42.69,3.44c.93,4.59,1.67,9.21,2.37,13.83s1.18,9.26,1.59,13.9.72,9.29.8,14a.4.4,0,0,1-.4.41.39.39,0,0,1-.4-.34h0c-1.43-9.14-3.25-18.22-5.52-27.15-1.11-4.47-2.27-8.93-3.6-13.33l-.94-3.31L310,586c-.72-2.18-1.33-4.39-2.14-6.53s-1.55-4.31-2.36-6.45-1.78-4.21-2.67-6.31-1.76-4.19-2.64-6.29c-.43-1-.84-2.1-1.24-3.17s-.77-2.13-1.22-3.17c-3.17-8.55-6.77-16.81-9.94-25.79v0a.41.41,0,0,1,.25-.52A.43.43,0,0,1,288.5,527.84Z"/><path class="c" d="M270.18,553.83c1.69,1.72,3.24,3.56,4.81,5.4l1.15,1.41a15.12,15.12,0,0,1,1.09,1.44c.69,1,1.36,2,2,3s1.32,2,2,3l1,1.53.86,1.58c1.14,2.12,2.24,4.27,3.33,6.42s1.89,4.42,2.77,6.66c.44,1.12.83,2.25,1.25,3.38s.68,2.31,1,3.46c.63,2.31,1.32,4.61,1.88,6.94s1.11,4.65,1.69,7,1,4.66,1.54,7c.24,1.17.5,2.33.73,3.5l.63,3.52c.85,4.68,1.5,9.4,2.1,14.11s1,9.45,1.3,14.18.53,9.47.51,14.22a.35.35,0,0,1-.7,0v0c-1.08-9.36-2.6-18.67-4.57-27.85-1-4.6-2-9.18-3.19-13.7l-.85-3.41c-.3-1.13-.63-2.25-.95-3.38-.66-2.24-1.23-4.51-2-6.73s-1.45-4.44-2.21-6.64-1.68-4.35-2.51-6.52l-1.22-3.26c-.43-1.07-.89-2.14-1.3-3.22s-.83-2.16-1.22-3.26-.73-2.2-1.19-3.26c-3.19-8.72-6.84-17.16-10.34-26.13v0a.36.36,0,0,1,.2-.46A.37.37,0,0,1,270.18,553.83Z"/><path class="c" d="M253.37,575.24c1.41,1.89,2.7,3.87,4,5.86.62,1,1.31,2,1.85,3s1.07,2.11,1.61,3.16,1.08,2.12,1.58,3.19,1,2.14,1.45,3.24c.88,2.2,1.72,4.42,2.54,6.64,3.1,9,4.53,18.38,5.72,27.7.37,2.32.54,4.67.82,7l.38,3.5.26,3.51c.37,4.68.54,9.36.66,14s0,9.36-.13,14-.44,9.34-.94,14a.32.32,0,0,1-.33.27.3.3,0,0,1-.27-.3h0a274.26,274.26,0,0,0-1.33-27.81c-.45-4.61-.94-9.22-1.63-13.79l-.46-3.43-.57-3.42c-.4-2.27-.7-4.56-1.2-6.81s-.94-4.52-1.44-6.76-1.17-4.45-1.75-6.68c-.29-1.11-.55-2.22-.86-3.33s-.64-2.2-.94-3.3l-.86-3.33c-.27-1.11-.52-2.23-.87-3.32-2.25-8.9-5.12-17.54-7.82-26.6h0a.3.3,0,0,1,.2-.38A.29.29,0,0,1,253.37,575.24Z"/><path class="c" d="M222.73,616.48a72.37,72.37,0,0,1,2.3,13.24c.13,1.12.18,2.24.22,3.37s.11,2.25.11,3.37c0,2.25,0,4.5-.16,6.74-.42,9-2.7,17.78-5.11,26.36a205.19,205.19,0,0,1-9,25.16q-2.7,6.1-5.76,12c-2,3.94-4.2,7.81-6.6,11.55a.25.25,0,0,1-.34.08.25.25,0,0,1-.09-.33h0a202,202,0,0,0,10.47-24.25,200,200,0,0,0,7.46-25.21c.5-2.14.89-4.29,1.3-6.43s.73-4.3,1-6.47c.61-4.31,1.19-8.61,1.71-12.93s.94-8.64,1.29-13,.46-8.74.72-13.21h0a.26.26,0,0,1,.27-.24A.27.27,0,0,1,222.73,616.48Z"/><path class="c" d="M237.13,596.84c1.09,2,2.07,4.07,3.05,6.15.47,1,1,2.08,1.4,3.15s.76,2.15,1.14,3.24.75,2.16,1.1,3.26.76,2.18,1,3.29l1.59,6.7A130.06,130.06,0,0,1,248.49,650a237.89,237.89,0,0,1-1.76,27.24c-.61,4.51-1.3,9-2.16,13.45s-1.81,8.88-3,13.26a.26.26,0,0,1-.31.18.26.26,0,0,1-.18-.29h0A230.65,230.65,0,0,0,244.24,677a234.46,234.46,0,0,0,.25-26.9l-.45-6.7-.79-6.65c-.2-2.22-.59-4.42-.88-6.62l-.42-3.31-.18-1.66-.28-1.64c-1.11-8.86-3.06-17.5-4.82-26.47h0a.27.27,0,0,1,.2-.3A.25.25,0,0,1,237.13,596.84Z"/></svg>