<svg xmlns="http://www.w3.org/2000/svg" xmlns:xlink="http://www.w3.org/1999/xlink" width="510" height="900" viewBox="0 0 510 900"><defs><style>.a,.e,.i,.n{fill:none;}.b,.d,.m{fill:#bd645d;}.b,.d,.e,.g,.h,.i,.m,.n{stroke:#432d1e;stroke-miterlimit:10;}.b,.n{stroke-linecap:round;}.b{stroke-width:6px;}.c{fill:#432d1e;}.d,.e{stroke-width:8px;}.f,.g{fill:#ffdc82;}.g,.h,.m{stroke-width:7px;}.h,.j{fill:#92cc7c;}.i,.n{stroke-width:5px;}.k{clip-path:url(#a);}.l{fill:#fff;}</style><clipPath id="a"><path class="a" d="M294.79,407.06c-15.55-26.94-33.79-45.44-52.16-55.68-16.67-66.77-46.35-75.85-86.16-65.15,0,0-25.25,2-19.35,30.55-4.27,40.08,25.59,35.38,24.43,72.13C157,424,167.31,473.52,189.24,511.49c18.91,32.77,51.68,51.8,82.45,58.3v13.14c-12.18.39-27.82,3.28-47.8,10.64a3.19,3.19,0,0,0,2,6.06c12.86-3.77,63.77-17.39,77.13-1.43a3.12,3.12,0,0,0,4.09.7l.6-.38a3.18,3.18,0,0,0,.5-5c-3.35-3.2-10.32-8-22.84-9.9V571.88c18.67,1.74,35.64-1.35,47-9C351.75,549.87,328.39,465.27,294.79,407.06Z"/></clipPath></defs><title>20</title><path class="b" d="M209.52,26.82c3.6,0,6.51,2.31,6.51,5.16,0,4.07-4.16,7.37-9.31,7.37-7.34,0-13.3-4.71-13.3-10.53,0-8.3,8.51-15,19-15,15,0,27.15,18.77,27.15,35.49,0,16.95-17.36,16.69-38.78,16.69H-12.46V-34.9s154.27-.37,159.64,37.63c27.84-10.29,50.14,3.79,53.3,11"/><path class="b" d="M356.06,26.82c-3.6,0-6.52,2.31-6.52,5.16,0,4.07,4.17,7.37,9.31,7.37,7.35,0,13.3-4.71,13.3-10.53,0-8.3-8.51-15-19-15-15,0-27.15,18.77-27.15,35.49C326,66.22,343.37,66,364.78,66H518V-24.9s-69.18-4.91-84.75,21c-27-3.13-57.23,3.86-68.2,17.7"/><path class="b" d="M351.86,112.89c-3.6,0-6.52,2.31-6.52,5.15,0,4.07,4.17,7.37,9.32,7.37,7.34,0,13.3-4.71,13.3-10.52,0-8.31-8.51-15-19-15-15,0-27.14,18.77-27.14,35.48,0,16.95,17.36,16.69,38.78,16.69H513.84V31.16s-72-9.7-72,36.56c-39.53,0-76.3,15-80.94,32.13"/><path class="b" d="M421.54,140c-3.6,0-6.51,2.31-6.51,5.15,0,4.07,4.16,7.37,9.31,7.37,7.34,0,13.3-4.71,13.3-10.52,0-8.31-8.51-15-19-15-15,0-27.15,18.77-27.15,35.48,0,17,17.36,16.69,38.78,16.69h84.25V108.25"/><path class="b" d="M478,97.16c-2.45,0-4.44,1.58-4.44,3.52,0,2.77,2.84,5,6.35,5,5,0,9.06-3.21,9.06-7.17,0-5.66-5.8-10.25-12.95-10.25-10.22,0-18.5,12.79-18.5,24.18,0,11.55,11.83,11.38,26.43,11.38h29.48V75.54s-29.27-3.24-29.27,12.74"/><path class="b" d="M187.27,96.13c3.6,0,6.52,2.31,6.52,5.15,0,4.07-4.17,7.37-9.31,7.37-7.35,0-13.3-4.71-13.3-10.52,0-8.31,8.5-15,19-15,15,0,27.15,18.77,27.15,35.48,0,17-17.37,16.69-38.78,16.69H-4.71V64.4s173-35.13,182.94,18.69"/><path class="b" d="M129.88,33.8c3.6,0,6.52,2.31,6.52,5.16,0,4.07-4.17,7.37-9.31,7.37-7.35,0-13.31-4.71-13.31-10.53,0-8.3,8.51-15,19-15,15,0,27.14,18.77,27.14,35.49,0,17-17.36,16.69-38.78,16.69H-7.1V-7.92S113-4.63,120.84,20.76"/><path class="b" d="M64.38,52.43c3.6,0,6.52,2.31,6.52,5.16,0,4.07-4.17,7.37-9.31,7.37-7.35,0-13.3-4.72-13.3-10.53,0-8.31,8.51-15,19-15,15,0,27.15,18.77,27.15,35.49,0,17-17.37,16.69-38.78,16.69H-7.6V20.71"/><path class="b" d="M39,136.38c3.6,0,6.52,2.31,6.52,5.16,0,4.07-4.17,7.36-9.32,7.36-7.34,0-13.3-4.71-13.3-10.52,0-8.31,8.51-15,19-15,15,0,27.14,18.77,27.14,35.48,0,17-17.36,16.69-38.78,16.69H-13V104.65s42.94-4.75,42.94,18.69"/><path class="c" d="M507.91,802.83c-17.83-12.33-147.29-87-304.48-116.11-4.94-.92-5.15-7.09-.68-9.4,254.1-131.76,317.56-220.71,317.56-220.71l-1.28-59s-24.9,22.9-87.83,67.26l-34.81-53.61a18.15,18.15,0,0,0-4.51-4.76L371,202.57a18.33,18.33,0,1,0-36.46,3.73l21.31,208.08a18.27,18.27,0,0,0,8.05,13.37,18.74,18.74,0,0,0,1.75,3.46l35.41,54.53c-52.21,35.55-124.11,81.58-220.25,137.6l-34.89-53.73a18.32,18.32,0,0,0-25.35-5.39h0a18.32,18.32,0,0,0-5.39,25.35L149,641.71q-12.36,7.1-25.2,14.37c-19.37,11-30.09,50.08-9.8,59.27C194,751.59,322.7,827.8,373.35,898a4.84,4.84,0,0,0,3.92,2H505.13a4.87,4.87,0,0,0,4.87-4.87v-88.3A4.86,4.86,0,0,0,507.91,802.83Z"/><path class="c" d="M248.24,885.08,141,835.41a18.32,18.32,0,0,0-24.33,8.93h0a18.31,18.31,0,0,0,8.93,24.33l107.26,49.68a18.33,18.33,0,0,0,15.4-33.27Z"/><path class="c" d="M60.54,640.73c-.42-3.78-6.52-7.28-13.64-7.84S34.34,635,34.75,638.73L49.69,805.42c.41,3.78,9.09,1.54,16.21,2.09h0c7.12.55,17.71-1.06,17.3-4.84Z"/><path class="c" d="M26.42,370.3c-2.13-4.37-9.87-5.94-17.29-3.5s-11.71,8-9.58,12.33L90.21,573.47c2.13,4.38,9.85-2.11,17.27-4.55h0c7.42-2.44,17.36-9,15.23-13.37Z"/><circle class="d" cx="44.81" cy="780.22" r="22.86"/><path class="e" d="M33.25,760.49s3.72,14,19,16.85"/><path class="e" d="M58.07,761.59c-2.31,13.75-13.12,27.92-31.83,32"/><path class="d" d="M128.18,792c-.6,0-1.19,0-1.79,0,0-.31,0-.63,0-1,0-16.68-14.61-30.2-32.62-30.2s-32.63,13.52-32.63,30.2c0,.32,0,.64,0,1-.6,0-1.19,0-1.79,0-18,0-32.63,13.52-32.63,30.19s14.61,30.2,32.63,30.2a34.25,34.25,0,0,0,18-5,34.87,34.87,0,0,0,32.81,0,34.25,34.25,0,0,0,18,5c18,0,32.63-13.52,32.63-30.2S146.2,792,128.18,792Z"/><ellipse class="f" cx="93.8" cy="824.6" rx="30.54" ry="17.32"/><path class="c" d="M93.5,844a24.1,24.1,0,0,1-2.43-5.64,36.37,36.37,0,0,1-1.17-5.63,21.3,21.3,0,0,1,0-5.64c.27-1.88.59-3.76.76-5.64l.54-5.64.66-5.64c.49-3.76,1-7.52,1.6-11.28h.8c.63,3.76,1.11,7.52,1.6,11.28l.66,5.64.54,5.64c.17,1.88.49,3.76.76,5.64a21.3,21.3,0,0,1,0,5.64,35.24,35.24,0,0,1-1.17,5.63A24.1,24.1,0,0,1,94.3,844Z"/><path class="c" d="M79.31,835.08a14,14,0,0,1-3.66-2.54,16.72,16.72,0,0,1-2.49-3,9.4,9.4,0,0,1-1.36-3.47c-.23-1.25-.39-2.53-.7-3.74l-.91-3.66L69.4,815c-.48-2.49-1-5-1.32-7.52l.74-.3c1.52,2.07,2.9,4.19,4.29,6.31l2,3.21L77,819.9c.62,1.09,1.4,2.12,2.1,3.17a9.5,9.5,0,0,1,1.45,3.44,16.59,16.59,0,0,1,.31,3.9,13.78,13.78,0,0,1-.84,4.37Z"/><path class="c" d="M107.76,834.78a13.54,13.54,0,0,1-.85-4.37,16.58,16.58,0,0,1,.32-3.9,9.31,9.31,0,0,1,1.44-3.44c.71-1.05,1.49-2.08,2.11-3.17l1.9-3.25,2-3.21c1.39-2.12,2.76-4.24,4.29-6.31l.74.3c-.35,2.54-.85,5-1.33,7.52l-.79,3.7-.9,3.66c-.32,1.21-.48,2.49-.7,3.74a9.42,9.42,0,0,1-1.37,3.47,16.72,16.72,0,0,1-2.49,3,13.92,13.92,0,0,1-3.65,2.54Z"/><ellipse class="d" cx="73.12" cy="848.54" rx="19.61" ry="18.15"/><ellipse class="d" cx="114.47" cy="848.54" rx="19.61" ry="18.15"/><circle class="d" cx="433.71" cy="325.77" r="27.58"/><path class="e" d="M419.77,302s4.48,16.87,22.94,20.33"/><path class="e" d="M449.71,303.31c-2.79,16.58-15.83,33.68-38.4,38.56"/><circle class="d" cx="333.49" cy="293.54" r="27.58"/><path class="e" d="M312.18,276s10,14.28,28.55,11.14"/><path class="e" d="M340.73,266.93c3.12,16.52-3.2,37.08-22.69,49.46"/><path class="d" d="M438.28,358.81q-1.08,0-2.13.06c0-.38,0-.76,0-1.14,0-19.79-17.33-35.84-38.71-35.84s-38.72,16.05-38.72,35.84c0,.38,0,.76,0,1.14q-1-.06-2.13-.06c-21.38,0-38.71,16.05-38.71,35.84s17.33,35.83,38.71,35.83A40.77,40.77,0,0,0,378,424.54a41.34,41.34,0,0,0,38.93,0,40.8,40.8,0,0,0,21.35,5.94c21.38,0,38.71-16,38.71-35.83S459.66,358.81,438.28,358.81Z"/><ellipse class="f" cx="397.47" cy="397.55" rx="36.24" ry="20.56"/><path class="c" d="M397.19,420.52a32.17,32.17,0,0,1-2.43-6.69,50.83,50.83,0,0,1-1.17-6.7,29.93,29.93,0,0,1,0-6.69c.27-2.23.59-4.46.76-6.69l.54-6.69.66-6.69c.49-4.47,1-8.93,1.6-13.39h.8c.63,4.46,1.11,8.92,1.6,13.39l.66,6.69.54,6.69c.17,2.23.49,4.46.76,6.69a29.93,29.93,0,0,1,0,6.69,49.24,49.24,0,0,1-1.17,6.7,31.07,31.07,0,0,1-2.43,6.69Z"/><path class="c" d="M380.34,410a16.65,16.65,0,0,1-3.91-3.19,23.11,23.11,0,0,1-2.76-3.66A13.44,13.44,0,0,1,372,399c-.31-1.47-.55-3-1-4.39l-1.16-4.31L368.86,386c-.65-2.92-1.32-5.83-1.85-8.8l.74-.3c1.7,2.49,3.25,5,4.82,7.6l2.28,3.85,2.16,3.9c.71,1.31,1.58,2.55,2.37,3.82a13.2,13.2,0,0,1,1.71,4.08,23.2,23.2,0,0,1,.57,4.54,16.68,16.68,0,0,1-.58,5Z"/><path class="c" d="M414.1,409.66a17,17,0,0,1-.58-5,22.47,22.47,0,0,1,.58-4.54,13.18,13.18,0,0,1,1.7-4.08c.8-1.27,1.67-2.51,2.37-3.82l2.17-3.9,2.27-3.85c1.57-2.55,3.12-5.11,4.82-7.6l.74.3c-.52,3-1.19,5.88-1.85,8.8l-1.05,4.35-1.17,4.31c-.4,1.43-.64,2.92-1,4.39a13.19,13.19,0,0,1-1.63,4.11,22.45,22.45,0,0,1-2.75,3.66,16.92,16.92,0,0,1-3.92,3.19Z"/><ellipse class="d" cx="372.93" cy="425.96" rx="23.27" ry="21.54"/><ellipse class="d" cx="422" cy="425.96" rx="23.27" ry="21.54"/><circle class="d" cx="73.12" cy="701.87" r="22.86"/><path class="e" d="M61.56,682.15s3.72,14,19,16.85"/><path class="e" d="M86.38,683.25c-2.31,13.74-13.12,27.92-31.82,32"/><circle class="d" cx="46.79" cy="506.51" r="22.86"/><path class="e" d="M35.24,486.78s3.72,14,19,16.85"/><path class="e" d="M60.05,487.88c-2.3,13.75-13.12,27.92-31.82,32"/><path class="d" d="M165.15,534c-.72,0-1.43,0-2.13,0,0-.37,0-.75,0-1.13,0-19.79-17.33-35.84-38.72-35.84S85.62,513.11,85.62,532.9c0,.38,0,.76,0,1.13-.7,0-1.41,0-2.13,0-21.38,0-38.71,16-38.71,35.84s17.33,35.83,38.71,35.83a40.8,40.8,0,0,0,21.35-5.94,41.41,41.41,0,0,0,38.93,0,40.8,40.8,0,0,0,21.35,5.94c21.38,0,38.71-16,38.71-35.83S186.53,534,165.15,534Z"/><ellipse class="f" cx="124.33" cy="572.72" rx="36.24" ry="20.56"/><path class="c" d="M124.06,595.69a31.89,31.89,0,0,1-2.43-6.7,48.83,48.83,0,0,1-1.17-6.69,29.93,29.93,0,0,1,0-6.69c.27-2.23.59-4.46.76-6.69l.54-6.7.66-6.69c.49-4.46,1-8.92,1.6-13.38h.8c.63,4.46,1.11,8.92,1.6,13.38l.66,6.69.54,6.7c.17,2.23.49,4.46.76,6.69a29.93,29.93,0,0,1,0,6.69,48.83,48.83,0,0,1-1.17,6.69,31.89,31.89,0,0,1-2.43,6.7Z"/><path class="c" d="M107.21,585.13a17.18,17.18,0,0,1-3.92-3.19,22.45,22.45,0,0,1-2.75-3.66,13.49,13.49,0,0,1-1.63-4.12c-.31-1.46-.55-3-1-4.38l-1.16-4.31-1.06-4.35c-.65-2.92-1.32-5.83-1.85-8.8l.74-.3c1.7,2.49,3.25,5.05,4.82,7.6l2.27,3.85,2.17,3.9c.71,1.3,1.58,2.54,2.37,3.81a13,13,0,0,1,1.7,4.09,22.38,22.38,0,0,1,.58,4.54,16.68,16.68,0,0,1-.58,5Z"/><path class="c" d="M141,584.83a16.68,16.68,0,0,1-.58-5,22.38,22.38,0,0,1,.58-4.54,13.23,13.23,0,0,1,1.7-4.09c.79-1.27,1.66-2.51,2.37-3.81l2.17-3.9,2.27-3.85c1.57-2.55,3.12-5.11,4.82-7.6l.74.3c-.53,3-1.19,5.88-1.85,8.8l-1.05,4.35L151,569.78c-.4,1.42-.65,2.92-1,4.38a13.24,13.24,0,0,1-1.63,4.12,22.45,22.45,0,0,1-2.75,3.66,17.18,17.18,0,0,1-3.92,3.19Z"/><ellipse class="d" cx="99.8" cy="601.12" rx="23.27" ry="21.54"/><ellipse class="d" cx="148.87" cy="601.12" rx="23.27" ry="21.54"/><path class="d" d="M457.85,555.42c-4.51-10.21,7.67-25.48,7.67-25.48s19.48,1.3,24,11.52,1.07,21.62-7.67,25.48S462.35,565.64,457.85,555.42Z"/><path class="d" d="M179.06,805.86c-5.05-10,6.28-25.86,6.28-25.86s19.53.24,24.58,10.19,2.25,21.54-6.28,25.86S184.12,815.81,179.06,805.86Z"/><circle class="d" cx="64.97" cy="430.48" r="22.86"/><path class="e" d="M53.41,410.76s3.72,14,19,16.85"/><path class="e" d="M78.23,411.86c-2.31,13.75-13.12,27.92-31.83,32"/><polygon class="g" points="111.11 277.13 131.41 312.04 151 283.45 111.11 277.13"/><path class="h" d="M327.4,514S385.87,575,436.88,576.76L416,621.38c-42.72-3.27-92.67-77.76-92.67-77.76Z"/><path class="i" d="M326.26,522.24s44.93,59.6,102.77,71.27"/><path class="i" d="M325,531.24s41.4,62.11,98.47,77.11"/><path class="j" d="M225,603.75a7.18,7.18,0,0,1-2.47-13.93c16.72-6.17,31.89-9.75,45.18-10.69V573c-35.05-8.28-64.79-29.84-81.92-59.51-21.68-37.56-33-87.72-28.21-124.9.46-16-5.41-23.22-11.62-30.9-7.06-8.72-15.05-18.6-12.86-40.71-2-10-.58-18.21,4.08-24.43,6.28-8.38,16.38-10,18.57-10.27a100.68,100.68,0,0,1,25.81-3.84c15.71,0,28.41,5.32,38.83,16.25,10.91,11.46,19.33,29.16,25.72,54.06,19.36,11.25,37.36,30.68,52.16,56.31,16.49,28.56,31.1,64.4,39.08,95.88,6.26,24.73,10.88,56.13-2.73,65.27-9.87,6.63-23.46,10.14-39.29,10.14h0c-2,0-3.95-.06-5.95-.17v4.1c11.17,2.26,17.87,6.8,21.6,10.37a7.18,7.18,0,0,1-1.11,11.24l-.59.38a7,7,0,0,1-3.78,1.11,7.22,7.22,0,0,1-5.54-2.61c-3.36-4-10.89-6.15-21.76-6.15-19.45,0-44.09,6.77-51.18,8.84A7,7,0,0,1,225,603.75Z"/><path class="c" d="M181.54,282.44c27.32,0,48.13,17.05,61.09,68.94,18.37,10.24,36.61,28.74,52.16,55.68,33.6,58.21,57,142.81,37.58,155.83-9.31,6.25-22.38,9.46-37.06,9.46q-4.87,0-9.95-.47v11.76c12.52,1.85,19.49,6.7,22.84,9.9a3.18,3.18,0,0,1-.5,5l-.6.38a2.92,2.92,0,0,1-1.62.48A3.25,3.25,0,0,1,303,598.2c-4.71-5.63-14.09-7.58-24.83-7.58-19.7,0-44,6.57-52.3,9a3.5,3.5,0,0,1-.9.13,3.19,3.19,0,0,1-1.09-6.19c20-7.36,35.62-10.25,47.8-10.64V569.79c-30.77-6.5-63.54-25.53-82.45-58.3-21.93-38-32.28-87.47-27.69-122.58,1.16-36.75-28.7-32.05-24.43-72.13-5.9-28.51,19.35-30.55,19.35-30.55a97.32,97.32,0,0,1,25.07-3.79m0-8a104.23,104.23,0,0,0-26.56,3.9c-3.26.42-14,2.47-21,11.81-5.27,7-6.92,16.12-4.92,27-2.16,23.34,6.3,33.8,13.79,43,6.19,7.66,11.1,13.73,10.73,28.07-4.83,38,6.7,89,28.75,127.21a125.56,125.56,0,0,0,39.25,41.64A140,140,0,0,0,262,575.66c-12.31,1.44-26,4.93-40.85,10.4a11.19,11.19,0,0,0,7,21.24c7-2,31.14-8.68,50.06-8.68,9.38,0,16.19,1.72,18.7,4.72a11.19,11.19,0,0,0,8.6,4,11,11,0,0,0,5.93-1.74l.6-.38a11.18,11.18,0,0,0,1.71-17.5,40.82,40.82,0,0,0-11.59-7.63c13.74-.89,25.63-4.51,34.7-10.6,12.48-8.38,13.95-31.79,4.37-69.58-8.06-31.8-22.82-68-39.48-96.89-14.78-25.6-32.76-45.2-52.17-56.91-12.89-48.9-34.56-71.71-68-71.71Z"/><path class="d" d="M464.24,630.2c-.72,0-1.43,0-2.13,0,0-.38,0-.75,0-1.13,0-19.8-17.33-35.84-38.71-35.84s-38.72,16-38.72,35.84c0,.38,0,.75,0,1.13-.7,0-1.41,0-2.13,0-21.38,0-38.71,16-38.71,35.83s17.33,35.84,38.71,35.84A40.77,40.77,0,0,0,404,695.93a41.41,41.41,0,0,0,38.93,0,40.8,40.8,0,0,0,21.35,5.94c21.38,0,38.71-16,38.71-35.84S485.62,630.2,464.24,630.2Z"/><ellipse class="f" cx="423.43" cy="668.94" rx="36.24" ry="20.56"/><path class="c" d="M423.15,691.9a31.56,31.56,0,0,1-2.42-6.69,48.87,48.87,0,0,1-1.18-6.69,29.93,29.93,0,0,1,0-6.69c.27-2.23.59-4.47.76-6.7l.54-6.69.66-6.69c.49-4.46,1-8.92,1.6-13.38h.8c.63,4.46,1.11,8.92,1.6,13.38l.66,6.69.54,6.69c.17,2.23.49,4.47.76,6.7a29.93,29.93,0,0,1,0,6.69,47.36,47.36,0,0,1-1.17,6.69A31.07,31.07,0,0,1,424,691.9Z"/><path class="c" d="M406.3,681.35a16.9,16.9,0,0,1-3.91-3.19,23.11,23.11,0,0,1-2.76-3.66,13.59,13.59,0,0,1-1.63-4.12c-.31-1.46-.55-3-1-4.39l-1.16-4.3-1.06-4.35c-.65-2.92-1.32-5.83-1.85-8.81l.74-.3c1.7,2.5,3.25,5,4.82,7.6l2.28,3.86,2.16,3.89c.71,1.31,1.58,2.55,2.37,3.82a13.26,13.26,0,0,1,1.71,4.09,23,23,0,0,1,.57,4.54,16.62,16.62,0,0,1-.58,5Z"/><path class="c" d="M440.06,681a17.28,17.28,0,0,1-.58-5,22.29,22.29,0,0,1,.58-4.54,13.23,13.23,0,0,1,1.7-4.09c.8-1.27,1.67-2.51,2.37-3.82l2.17-3.89,2.28-3.86c1.56-2.55,3.11-5.1,4.81-7.6l.74.3c-.52,3-1.19,5.89-1.85,8.81l-1,4.35-1.17,4.3c-.4,1.43-.64,2.93-1,4.39a13.34,13.34,0,0,1-1.63,4.12,22.45,22.45,0,0,1-2.75,3.66,17.18,17.18,0,0,1-3.92,3.19Z"/><ellipse class="d" cx="398.89" cy="697.34" rx="23.27" ry="21.54"/><ellipse class="d" cx="447.96" cy="697.34" rx="23.27" ry="21.54"/><g class="k"><path class="f" d="M205.41,441.1c-18.18-31.18-23.68-62.73-25.33-79.9a43.54,43.54,0,1,0-40.59-2.48l-14.77,3.95,39.76,250,146.18,8.71,46.19-66.33S232.31,487.22,205.41,441.1Z"/><polygon class="l" points="271.69 569.79 285.36 571.88 324.66 591.65 321.26 609.83 207.2 612.03 208 581.07 271.69 569.79"/></g><circle class="m" cx="173.4" cy="304.91" r="9.27"/><path class="h" d="M275.32,409c47.85,87.83,99.87,146,99.87,146s-107.34,9.52-158.68-66.54c-22.21-32.9-31.86-76.28-15.85-105.61S255.8,373.19,275.32,409Z"/><path class="n" d="M252.13,460s46.48,17.56,61.83,14.3"/><path class="n" d="M258.74,484.77S316.3,508.05,335.27,504"/><path class="n" d="M264.09,503.67s69.76,35,92.54,30"/></svg>