<svg xmlns="http://www.w3.org/2000/svg" width="510" height="900" viewBox="0 0 510 900"><defs><style>.a{fill:#432d1e;}.b{fill:#bd645d;}.b,.c{stroke:#432d1e;stroke-miterlimit:10;stroke-width:8px;}.c{fill:none;}.d{fill:#ffdc82;}</style></defs><title>23</title><path class="a" d="M479.55,29.21l-.36,0C467,27.78,462,36.57,460.56,48.78l-62.36,498a22.26,22.26,0,0,0,19.61,24.63l.36,0a22.27,22.27,0,0,0,24.63-19.62l50.36-498C494.55,41.61,491.76,30.59,479.55,29.21Z"/><path class="a" d="M420.44,575.28h0a22.28,22.28,0,0,0-26.48,17l-16.73,77.2c-20.06,2.18-54.42,7.42-96.87,19.86,1-23.79-4.06-72.61-4.06-72.61,0-.28,0-.55-.06-.83a20.85,20.85,0,0,0,2.25-2.08c8.34-9,8.42-23.86-1.25-31.46-39.82-31.29-78.7-66.72-109.2-96C166.06,423.5,183,262.2,183,262.2a16,16,0,0,0-31.77-3.6s-15.32,121.37-17,194.57c-9.16-9.23-16.33-16.62-21-21.45L82.69,209.05c-1.46-12.21-8.54-20.93-20.75-19.47h0C49.73,191,46,202.11,47.47,214.32L69.1,437.4a22.24,22.24,0,0,0,.84,3.94,22.17,22.17,0,0,0,7.13,16.8s66,77.42,158,148a22.12,22.12,0,0,0-3.27,12.66s1.93,59.59-2,87.76C215.9,711.9,201.49,718,186.74,725a13.32,13.32,0,0,0-.69-5.22c-6.93-18.55-40.2-68.25-40.2-68.25a22.11,22.11,0,0,0-6.09-6.71,19,19,0,0,0-8.6-5.18c-49.33-13.87-99.38-32-139-47.52v49.8a1098.68,1098.68,0,0,0,118.7,38.25c7.39,13.2,24.9,45.18,33.72,66.73A628.55,628.55,0,0,0,.84,859v41H180.12s64.42-122.34,214.25-171.18a22.25,22.25,0,0,0,19.33-17.41l23.78-109.65A22.28,22.28,0,0,0,420.44,575.28Z"/><circle class="b" cx="328.61" cy="600.65" r="27.58"/><path class="c" d="M338.25,574.82s-1.52,17.38-19.1,24"/><path class="c" d="M309,581.27c5.59,15.86,21.38,30.46,44.45,31.39"/><circle class="b" cx="12.41" cy="581.27" r="27.58"/><path class="c" d="M32.06,561.93s-8.72,15.12-27.44,13.66"/><path class="c" d="M2.81,555.42c-1.63,16.73,6.51,36.64,27,47.22"/><circle class="b" cx="471.06" cy="470.82" r="27.58"/><path class="c" d="M489.88,450.66s-8.07,15.47-26.84,14.8"/><path class="c" d="M460.38,445.39c-.92,16.79,8.06,36.33,29,46"/><circle class="b" cx="49.78" cy="300.31" r="27.58"/><path class="c" d="M59.42,274.48s-1.52,17.38-19.1,24"/><path class="c" d="M30.16,280.93c5.59,15.86,21.38,30.46,44.45,31.39"/><path class="b" d="M402.67,519.78c.71,0,1.42,0,2.13.06,0-.38,0-.75,0-1.14,0-19.79,17.33-35.83,38.71-35.83s38.72,16,38.72,35.83c0,.39,0,.76,0,1.14.7,0,1.41-.06,2.12-.06,21.38,0,38.72,16.05,38.72,35.84s-17.34,35.84-38.72,35.84A40.76,40.76,0,0,1,463,585.52a41.41,41.41,0,0,1-38.93,0,40.8,40.8,0,0,1-21.35,5.94c-21.38,0-38.71-16.05-38.71-35.84S381.29,519.78,402.67,519.78Z"/><ellipse class="d" cx="443.48" cy="558.53" rx="36.24" ry="20.56"/><path class="a" d="M443,581.49a31.07,31.07,0,0,1-2.43-6.69,47.36,47.36,0,0,1-1.17-6.69,29.93,29.93,0,0,1,0-6.69c.27-2.24.59-4.47.76-6.7l.54-6.69.66-6.69c.49-4.46,1-8.92,1.6-13.39h.8c.63,4.47,1.11,8.93,1.6,13.39L446,548l.54,6.69c.17,2.23.49,4.46.76,6.7a31.17,31.17,0,0,1,0,6.69,48.87,48.87,0,0,1-1.18,6.69,31.56,31.56,0,0,1-2.42,6.69Z"/><path class="a" d="M459.87,570.63a17,17,0,0,1-.59-5,22.29,22.29,0,0,1,.58-4.54,13.26,13.26,0,0,1,1.71-4.09c.79-1.27,1.66-2.51,2.37-3.82l2.16-3.89,2.28-3.86c1.56-2.55,3.12-5.1,4.81-7.6l.74.3c-.52,3-1.19,5.89-1.85,8.81L471,551.28l-1.17,4.3c-.4,1.43-.64,2.93-1,4.39a13.1,13.1,0,0,1-1.63,4.12,22.45,22.45,0,0,1-2.75,3.66,16.83,16.83,0,0,1-3.91,3.18Z"/><path class="a" d="M426.1,570.93a17,17,0,0,1-3.91-3.18,22.45,22.45,0,0,1-2.75-3.66,13.34,13.34,0,0,1-1.63-4.12c-.32-1.46-.56-3-1-4.39l-1.17-4.3-1.05-4.35c-.66-2.92-1.33-5.84-1.85-8.81l.74-.3c1.7,2.5,3.25,5,4.81,7.6l2.28,3.86,2.17,3.89c.7,1.31,1.57,2.55,2.37,3.82a13.23,13.23,0,0,1,1.7,4.09,22.29,22.29,0,0,1,.58,4.54,17.32,17.32,0,0,1-.58,5Z"/><ellipse class="b" cx="468.02" cy="586.93" rx="23.27" ry="21.54"/><ellipse class="b" cx="418.95" cy="586.93" rx="23.27" ry="21.54"/><path class="b" d="M67.61,611.33c.72,0,1.43,0,2.13,0,0-.37,0-.75,0-1.13,0-19.79,17.33-35.84,38.72-35.84s38.71,16.05,38.71,35.84c0,.38,0,.76,0,1.13.7,0,1.41,0,2.13,0,21.38,0,38.71,16,38.71,35.84S170.62,683,149.24,683a40.8,40.8,0,0,1-21.35-5.94,41.41,41.41,0,0,1-38.93,0A40.8,40.8,0,0,1,67.61,683c-21.38,0-38.71-16-38.71-35.83S46.23,611.33,67.61,611.33Z"/><ellipse class="d" cx="108.43" cy="650.07" rx="36.24" ry="20.56"/><path class="a" d="M107.9,673a31.89,31.89,0,0,1-2.43-6.7,48.83,48.83,0,0,1-1.17-6.69,29.93,29.93,0,0,1,0-6.69c.27-2.23.59-4.46.76-6.69l.54-6.69.66-6.7c.49-4.46,1-8.92,1.6-13.38h.8c.63,4.46,1.11,8.92,1.6,13.38l.66,6.7.54,6.69c.17,2.23.49,4.46.76,6.69a29.93,29.93,0,0,1,0,6.69,48.83,48.83,0,0,1-1.17,6.69,31.89,31.89,0,0,1-2.43,6.7Z"/><path class="a" d="M124.81,662.18a16.68,16.68,0,0,1-.58-5,22.47,22.47,0,0,1,.58-4.54,13,13,0,0,1,1.7-4.09c.79-1.27,1.66-2.51,2.37-3.81l2.17-3.9,2.27-3.85c1.57-2.55,3.12-5.11,4.82-7.6l.74.3c-.53,3-1.19,5.88-1.85,8.8L136,642.82l-1.16,4.31c-.41,1.42-.65,2.92-1,4.38a13.49,13.49,0,0,1-1.63,4.12,22.45,22.45,0,0,1-2.75,3.66,17.18,17.18,0,0,1-3.92,3.19Z"/><path class="a" d="M91.05,662.48a17.18,17.18,0,0,1-3.92-3.19,22.45,22.45,0,0,1-2.75-3.66,13.24,13.24,0,0,1-1.63-4.12c-.31-1.46-.55-3-1-4.38l-1.16-4.31-1.06-4.35c-.66-2.92-1.32-5.83-1.85-8.8l.74-.3c1.7,2.49,3.25,5,4.82,7.6l2.27,3.85,2.17,3.9c.71,1.3,1.58,2.54,2.37,3.81a13.23,13.23,0,0,1,1.7,4.09,22.47,22.47,0,0,1,.58,4.54,16.68,16.68,0,0,1-.58,5Z"/><ellipse class="b" cx="132.96" cy="678.48" rx="23.27" ry="21.54"/><ellipse class="b" cx="83.89" cy="678.48" rx="23.27" ry="21.54"/><circle class="b" cx="258.61" cy="525.92" r="27.58"/><path class="c" d="M268.26,500.09s-1.52,17.38-19.11,24"/><path class="c" d="M239,506.54c5.59,15.86,21.38,30.46,44.45,31.38"/><circle class="b" cx="45.01" cy="713.5" r="27.58"/><path class="c" d="M59.34,689.94s-4.76,16.79-23.27,19.95"/><path class="c" d="M29.38,690.78C31.89,707.4,44.66,724.71,67.14,730"/><path class="b" d="M331.22,622.39c.71,0,1.42,0,2.13.05,0-.38,0-.75,0-1.13,0-19.8,17.33-35.84,38.71-35.84s38.71,16,38.71,35.84c0,.38,0,.75,0,1.13.71,0,1.42-.05,2.13-.05,21.38,0,38.72,16,38.72,35.83s-17.34,35.84-38.72,35.84a40.76,40.76,0,0,1-21.34-5.94,41.41,41.41,0,0,1-38.93,0,40.8,40.8,0,0,1-21.35,5.94c-21.38,0-38.72-16-38.72-35.84S309.84,622.39,331.22,622.39Z"/><ellipse class="d" cx="372.03" cy="661.13" rx="36.24" ry="20.56"/><path class="a" d="M371.5,684.09a31.56,31.56,0,0,1-2.42-6.69,48.87,48.87,0,0,1-1.18-6.69,31.17,31.17,0,0,1,0-6.69c.28-2.23.59-4.46.76-6.69l.54-6.7.66-6.69c.49-4.46,1-8.92,1.6-13.38h.8c.64,4.46,1.11,8.92,1.6,13.38l.66,6.69.54,6.7c.18,2.23.49,4.46.76,6.69a29.93,29.93,0,0,1,0,6.69,47.36,47.36,0,0,1-1.17,6.69,31.07,31.07,0,0,1-2.43,6.69Z"/><path class="a" d="M388.41,673.24a17.39,17.39,0,0,1-.58-5,22.29,22.29,0,0,1,.58-4.54,13.23,13.23,0,0,1,1.7-4.09c.8-1.27,1.67-2.51,2.37-3.81l2.17-3.9,2.28-3.86c1.56-2.55,3.12-5.1,4.81-7.6l.74.3c-.52,3-1.19,5.89-1.85,8.81l-1.05,4.35-1.17,4.3c-.4,1.43-.64,2.93-1,4.39a13,13,0,0,1-1.63,4.12,22.45,22.45,0,0,1-2.75,3.66,17.34,17.34,0,0,1-3.91,3.19Z"/><path class="a" d="M354.65,673.54a17.34,17.34,0,0,1-3.91-3.19,22.45,22.45,0,0,1-2.75-3.66,13,13,0,0,1-1.63-4.12c-.32-1.46-.56-3-1-4.39l-1.17-4.3-1.05-4.35c-.66-2.92-1.33-5.83-1.85-8.81l.74-.3c1.69,2.5,3.25,5.05,4.81,7.6l2.28,3.86,2.16,3.9c.71,1.3,1.58,2.54,2.37,3.81a13.26,13.26,0,0,1,1.71,4.09,22.29,22.29,0,0,1,.58,4.54,17.07,17.07,0,0,1-.59,5Z"/><ellipse class="b" cx="396.57" cy="689.53" rx="23.27" ry="21.54"/><ellipse class="b" cx="347.49" cy="689.53" rx="23.27" ry="21.54"/><path class="b" d="M170,562.57q1.06,0,2.13.06,0-.57,0-1.14c0-19.79,17.33-35.84,38.71-35.84s38.71,16.05,38.71,35.84q0,.57,0,1.14,1.07-.06,2.13-.06c21.38,0,38.72,16,38.72,35.84S273,634.25,251.61,634.25a40.68,40.68,0,0,1-21.34-6,41.34,41.34,0,0,1-38.93,0,40.71,40.71,0,0,1-21.35,6c-21.38,0-38.72-16-38.72-35.84S148.61,562.57,170,562.57Z"/><ellipse class="d" cx="210.8" cy="601.32" rx="36.24" ry="20.56"/><path class="a" d="M210.27,624.28a31.56,31.56,0,0,1-2.42-6.69,49,49,0,0,1-1.18-6.7,31.17,31.17,0,0,1,0-6.69c.28-2.23.59-4.46.76-6.69l.54-6.69.66-6.69c.5-4.47,1-8.93,1.6-13.39h.8c.64,4.46,1.11,8.92,1.6,13.39l.66,6.69.54,6.69c.18,2.23.49,4.46.76,6.69a29.93,29.93,0,0,1,0,6.69,47.49,47.49,0,0,1-1.17,6.7,31.07,31.07,0,0,1-2.43,6.69Z"/><path class="a" d="M227.18,613.42a17.32,17.32,0,0,1-.58-5,22.48,22.48,0,0,1,.58-4.55,13.53,13.53,0,0,1,1.7-4.08c.8-1.27,1.67-2.51,2.37-3.82l2.17-3.9,2.28-3.85c1.56-2.55,3.12-5.11,4.81-7.6l.74.3c-.52,3-1.19,5.89-1.85,8.8l-1.05,4.35-1.17,4.31c-.4,1.43-.64,2.92-1,4.39a13,13,0,0,1-1.63,4.11,22,22,0,0,1-2.75,3.66,17.07,17.07,0,0,1-3.91,3.19Z"/><path class="a" d="M193.42,613.72a17.07,17.07,0,0,1-3.91-3.19,22,22,0,0,1-2.75-3.66,13,13,0,0,1-1.63-4.11c-.32-1.47-.56-3-1-4.39L183,594.06,182,589.71c-.66-2.91-1.33-5.83-1.85-8.8l.74-.3c1.69,2.49,3.25,5,4.81,7.6l2.28,3.85,2.17,3.9c.7,1.31,1.57,2.55,2.37,3.82a13.53,13.53,0,0,1,1.7,4.08,22.48,22.48,0,0,1,.58,4.55,17,17,0,0,1-.59,5Z"/><ellipse class="b" cx="235.34" cy="629.72" rx="23.27" ry="21.54"/><ellipse class="b" cx="186.27" cy="629.72" rx="23.27" ry="21.54"/><circle class="b" cx="174.56" cy="360.94" r="27.58"/><path class="c" d="M193.38,340.78s-8.08,15.47-26.84,14.8"/><path class="c" d="M163.88,335.51c-.92,16.79,8.05,36.34,29,46"/><circle class="b" cx="64.63" cy="421.32" r="27.58"/><path class="c" d="M74.27,395.48s-1.52,17.39-19.1,24"/><path class="c" d="M45,401.94c5.59,15.85,21.38,30.45,44.45,31.38"/><circle class="b" cx="436.36" cy="130.74" r="27.58"/><path class="c" d="M455.17,110.59s-8.07,15.47-26.84,14.8"/><path class="c" d="M425.67,105.32c-.92,16.78,8.06,36.33,29,46"/><circle class="b" cx="483.26" cy="244.41" r="27.58"/><path class="c" d="M502.08,224.26s-8.08,15.47-26.84,14.8"/><path class="c" d="M472.58,219c-.93,16.78,8.05,36.33,29,46"/><circle class="b" cx="412.66" cy="327.48" r="27.58"/><path class="c" d="M431.48,307.32s-8.08,15.47-26.84,14.8"/><path class="c" d="M402,302.05c-.92,16.79,8.06,36.33,29,46"/><path class="b" d="M362.69,362.63c.72,0,1.42,0,2.13.06,0-.38,0-.76,0-1.14,0-19.79,17.33-35.84,38.71-35.84s38.72,16.05,38.72,35.84c0,.38,0,.76,0,1.14.7,0,1.41-.06,2.12-.06,21.39,0,38.72,16,38.72,35.84S465.7,434.3,444.31,434.3A40.76,40.76,0,0,1,423,428.36a41.41,41.41,0,0,1-38.93,0,40.8,40.8,0,0,1-21.35,5.94c-21.38,0-38.71-16-38.71-35.83S341.31,362.63,362.69,362.63Z"/><ellipse class="d" cx="403.5" cy="401.37" rx="36.24" ry="20.56"/><path class="a" d="M403,424.34a31,31,0,0,1-2.43-6.7,47.36,47.36,0,0,1-1.17-6.69,29.93,29.93,0,0,1,0-6.69c.27-2.23.59-4.46.76-6.69l.54-6.69.66-6.7c.49-4.46,1-8.92,1.6-13.38h.8c.63,4.46,1.11,8.92,1.6,13.38l.66,6.7.54,6.69c.17,2.23.49,4.46.76,6.69a30.54,30.54,0,0,1,0,6.69,48.87,48.87,0,0,1-1.18,6.69,31.44,31.44,0,0,1-2.42,6.7Z"/><path class="a" d="M419.89,413.48a17,17,0,0,1-.59-5,22.47,22.47,0,0,1,.58-4.54,13.26,13.26,0,0,1,1.71-4.09c.79-1.27,1.66-2.51,2.37-3.81l2.16-3.9,2.28-3.85c1.56-2.55,3.12-5.11,4.81-7.6l.75.3c-.53,3-1.2,5.88-1.85,8.8l-1.06,4.35-1.16,4.31c-.41,1.43-.65,2.92-1,4.38a13.22,13.22,0,0,1-1.62,4.12,23.11,23.11,0,0,1-2.76,3.66,16.9,16.9,0,0,1-3.91,3.19Z"/><path class="a" d="M386.13,413.78a17.18,17.18,0,0,1-3.92-3.19,22.45,22.45,0,0,1-2.75-3.66,13.24,13.24,0,0,1-1.63-4.12c-.32-1.46-.56-2.95-1-4.38l-1.17-4.31-1.05-4.35c-.66-2.92-1.33-5.83-1.85-8.8l.74-.3c1.7,2.49,3.25,5.05,4.81,7.6l2.28,3.85,2.17,3.9c.7,1.3,1.57,2.54,2.37,3.81a13.23,13.23,0,0,1,1.7,4.09,22.47,22.47,0,0,1,.58,4.54,17.35,17.35,0,0,1-.58,5Z"/><ellipse class="b" cx="428.04" cy="429.78" rx="23.27" ry="21.54"/><ellipse class="b" cx="378.97" cy="429.78" rx="23.27" ry="21.54"/><path class="b" d="M227.39,422.12c-4.53-10.21-24-11.47-24-11.47s-12.16,15.28-7.63,25.49,15.27,15.35,24,11.48S231.91,432.33,227.39,422.12Z"/><path class="b" d="M388.86,827.61c5.79-9.55-4.32-26.26-4.32-26.26s-19.49-1.22-25.28,8.33-3.84,21.31,4.33,26.26S383.08,837.16,388.86,827.61Z"/><path class="b" d="M495.05,705.85c-4.53-10.21-24-11.48-24-11.48s-12.15,15.29-7.63,25.5,15.27,15.34,24,11.47S499.57,716.05,495.05,705.85Z"/><path class="b" d="M379.53,239.56c5.78-9.55-4.32-26.25-4.32-26.25s-19.49-1.23-25.28,8.32-3.85,21.31,4.32,26.26S373.74,249.12,379.53,239.56Z"/><path class="b" d="M55.89,509.19c5.79-9.55-4.32-26.26-4.32-26.26s-19.49-1.22-25.28,8.33-3.85,21.31,4.32,26.26S50.1,518.74,55.89,509.19Z"/><path class="b" d="M362.17,496c5.78-9.55-4.33-26.26-4.33-26.26s-19.49-1.22-25.27,8.33-3.85,21.31,4.32,26.26S356.38,505.57,362.17,496Z"/><path class="b" d="M113.25,791.89c5.79-9.55-4.32-26.26-4.32-26.26S89.44,764.41,83.66,774,79.81,795.27,88,800.22,107.47,801.44,113.25,791.89Z"/><path class="b" d="M217.82,680.93c-5.67-9.63-25.17-8.64-25.17-8.64s-10.32,16.58-4.65,26.2,16.94,13.49,25.17,8.64S223.49,690.55,217.82,680.93Z"/><path class="b" d="M270.58,852.73c-3.1-10.72-22.24-14.6-22.24-14.6s-14.1,13.51-11,24.24,13.07,17.26,22.25,14.6S273.69,863.46,270.58,852.73Z"/></svg>