<svg xmlns="http://www.w3.org/2000/svg" width="510" height="900" viewBox="0 0 510 900"><defs><style>.a,.e{fill:#432d1e;}.b{fill:#ebaed3;}.c{fill:#db85a0;}.d{fill:#aebf7c;}.e{stroke:#432d1e;stroke-linejoin:round;stroke-width:8px;}</style></defs><title>33</title><path class="a" d="M191.05,148.42A66,66,0,0,1,181.44,161a97.15,97.15,0,0,1-11.06,9.95c-1.91,1.54-3.93,2.89-5.91,4.31s-4,2.68-6.15,3.85l-3.13,1.82L152,182.61l-1.61.84-1.64.77c-1.1.51-2.19,1-3.3,1.54l-1.63.73a8.13,8.13,0,0,1-3.82.67l-7.16-.52-7.16-.7L118.5,185c-2.38-.38-4.77-.7-7.15-1.13q-7.17-1.23-14.32-3a120.5,120.5,0,0,1-14.31-4.42l-.21-.08a.63.63,0,0,1-.37-.81.65.65,0,0,1,.58-.41L97,175c4.78-.09,9.55-.1,14.33-.14l14.32-.11H140l-.61.15c4.23-2.35,8.42-4.75,12.67-7.06l12.71-7c4.25-2.32,8.53-4.57,12.78-6.86s8.58-4.47,12.86-6.71a.61.61,0,0,1,.82.26.63.63,0,0,1,0,.57Z"/><path class="b" d="M172.49,106.59l-7.62,9.73-3.19-3.16a22.53,22.53,0,0,1-5.9-15.11,25.8,25.8,0,0,1,2.74-11.45,29.28,29.28,0,0,1-5,.43c-14.78,0-23.25-11.26-23.6-11.74l-2.38-3.23,11.7-8.6L125.72,57l3.8-4a30.91,30.91,0,0,1,21-8.6,29.87,29.87,0,0,1,6.28.67c-8.53-21.81,2.12-32.54,2.63-33l3-2.93,11,12.41,6.71-15,4,3c.47.35,8.62,6.74,8.89,22C203.16,20,212.26,19.16,212.77,19.12l4.78-.33-1.11,10,10.9-3.73.34,5.22c.41,6.3-1.87,18.14-11.56,27,12.59,3.77,17.33,16.4,18,23.61l.45,4.51L217.77,85l3.36,12.31-4.74.49s-.39,0-1.1,0c-2.88,0-10.85-.66-19.86-7,1.65,14.57-6.32,23-12.11,25.76l-3.12,1.5Z"/><path class="a" d="M181.74,12.71s13.25,10,4.07,37.46c12.53-26,27.24-27.06,27.24-27.06l-1.28,11.54,11.92-4.08s1.36,20.92-20.21,30a32.31,32.31,0,0,1,4.83-.39c19.77,0,21.87,21.1,21.87,21.1l-17.69-.45L216,93.77a7.19,7.19,0,0,1-.74,0c-3.19,0-16.15-1-28.15-16.65,12.81,27-5.56,35.79-5.56,35.79l-8.85-13.15-8.24,10.53S151,96.94,169.73,78c-6.06,3.66-11.5,5-16.21,5-12.93,0-20.38-10.12-20.38-10.12L147,62.74l-14.57-7a26.88,26.88,0,0,1,18.13-7.36,28.84,28.84,0,0,1,14.25,4c-14.69-25.71-2.55-37.51-2.55-37.51l12.31,13.92,7.19-16.08M178.54.27l-4.1,9.17-2.12,4.75-4.08-4.61-5.56-6.29-6,5.85c-.81.78-4.92,5.11-6.51,13.32a39.63,39.63,0,0,0,.9,17.92h-.52a34.54,34.54,0,0,0-23.91,9.84l-7.61,8L129,63l2.56,1.23-3.11,2.29L122,71.21l4.75,6.45c.39.54,9.7,12.93,26,13.36a28.24,28.24,0,0,0-.87,7A26.46,26.46,0,0,0,158.86,116l6.39,6.32,5.54-7.08,1.45-1.86,2.7,4,3.87,5.74,6.24-3a27.09,27.09,0,0,0,11.17-11.21,29.19,29.19,0,0,0,3.3-11.1,37,37,0,0,0,15.77,4c.73,0,1.22,0,1.45-.06l9.53-.86-2.53-9.22L223,89.1l6.94.17,9.06.23-.9-9a37.71,37.71,0,0,0-4.52-13.7A28.53,28.53,0,0,0,223,55.89a39.74,39.74,0,0,0,8.7-25.84L231,19.61,221.11,23l.95-8.53-9.57.67c-1.19.08-8.06.86-16.43,7.81a36,36,0,0,0-1.33-4.54c-2.83-7.76-7.3-11.42-8.17-12.07l-8-6.06Z"/><path class="b" d="M181.91,72.24c-4.3,0-7.89-2.33-9.15-5.92-1.7-4.85,1.46-10.38,7-12.34a12.2,12.2,0,0,1,4.07-.71c4.3,0,7.89,2.33,9.15,5.93,1.7,4.84-1.46,10.37-7.05,12.34A12.38,12.38,0,0,1,181.91,72.24Z"/><path class="a" d="M183.87,57.27c2.5,0,4.66,1.21,5.38,3.25,1,2.77-1.09,6-4.6,7.24a8.12,8.12,0,0,1-2.74.48c-2.5,0-4.66-1.21-5.38-3.25-1-2.76,1.09-6,4.6-7.24a8.37,8.37,0,0,1,2.74-.48m0-8h0a16.38,16.38,0,0,0-5.39.93,15.67,15.67,0,0,0-8.08,6.31A12.78,12.78,0,0,0,169,67.64c1.84,5.22,6.91,8.6,12.93,8.6a16.17,16.17,0,0,0,5.39-.93,15.79,15.79,0,0,0,8.08-6.3,12.8,12.8,0,0,0,1.42-11.14c-1.84-5.22-6.91-8.6-12.93-8.6Z"/><path class="b" d="M181.13,57.75c-3.3-4.71-4.44-16.55-4.44-16.55"/><path class="a" d="M177.85,60.05a17.26,17.26,0,0,1-1.4-5.19,38,38,0,0,1-.29-4.69,69.72,69.72,0,0,1,.53-9,69.62,69.62,0,0,0,3.36,8.06,32.73,32.73,0,0,0,2.06,3.61,9.68,9.68,0,0,0,2.3,2.59Z"/><path class="b" d="M188.06,58.75c4.26-6.28,13.64-11.12,13.64-11.12"/><path class="a" d="M184.75,56.5A30.26,30.26,0,0,1,193,50.88a53.89,53.89,0,0,1,8.66-3.25,51.88,51.88,0,0,0-6.2,6.4A35,35,0,0,0,193,57.5,19.69,19.69,0,0,0,191.37,61Z"/><path class="b" d="M189.22,63.5C198.44,65,202,70.25,202,70.25"/><path class="a" d="M189.88,59.55c.66.3,1.31.59,2,.91s1.27.65,1.87,1a26.4,26.4,0,0,1,3.42,2.44,21.34,21.34,0,0,1,2.84,3,13.8,13.8,0,0,1,2,3.36,13.13,13.13,0,0,0-3.23-1.78,19.64,19.64,0,0,0-3.42-1,20.87,20.87,0,0,0-3.42-.29c-.55,0-1.13,0-1.68,0s-1.12.12-1.66.17Z"/><path class="b" d="M179.65,67.88c-3.1,5.49-2.75,15.23-2.75,15.23"/><path class="a" d="M183.13,69.84a11.48,11.48,0,0,0-2,2.49,24.84,24.84,0,0,0-1.72,3.29,44.1,44.1,0,0,0-2.46,7.49,46.85,46.85,0,0,1-1.5-8.09,31.12,31.12,0,0,1-.09-4.34,18.88,18.88,0,0,1,.84-4.76Z"/><path class="b" d="M176.32,63.14c-8.32-3.33-17.78-.4-17.78-.4"/><path class="a" d="M174.83,66.86a17.83,17.83,0,0,0-3.37-2,22.1,22.1,0,0,0-4-1.34,31.24,31.24,0,0,0-8.92-.82,33.32,33.32,0,0,1,8.94-3.18,28.13,28.13,0,0,1,5-.58,25.76,25.76,0,0,1,5.33.45Z"/><path class="c" d="M224.06,159l-8.81,8.67-2.76-3.55a22.58,22.58,0,0,1-3.89-15.75,25.78,25.78,0,0,1,4.2-11l-1.18,0c-17.25,0-25.38-14.34-25.72-15L184,118.91l12.71-7-12.56-8.2,4.28-3.45a31.1,31.1,0,0,1,18.2-6.06,29.45,29.45,0,0,1,9.89,1.72c-5.62-22.72,6.32-32,6.9-32.41L226.75,61,236,74.71l8.6-14,3.58,3.52c.42.41,7.67,7.79,6,23,10.3-9.12,18.66-9.74,20.72-9.74h.45l4.7.36L279,82.4l-1.26,5.15L289,85.26l-.34,5.22c-.41,6.3-4.2,17.74-14.95,25.23a22.83,22.83,0,0,1,7.14,5c8,8.23,7.7,20.26,7.69,20.77l-.14,4.53-16.65-2.61,1.75,12.7-4.77-.19c-.53,0-10-.54-19.88-9.63-.25,14.66-9.24,22-15.35,24l-3.29,1.08Z"/><path class="a" d="M225.78,66.7l10.4,15.39,9.22-15s11.84,11.63-.82,37.67c14.71-22.54,28.49-23.31,30.31-23.31h.2l-2.76,11.28,12.35-2.51s-1.36,20.92-23.92,27.13h.79c23.74,0,23,24,23,24l-17.49-2.73,1.84,13.29s-15.13-.61-26.49-20.22c9.2,28.38-10.15,34.77-10.15,34.77l-7.08-14.19-9.53,9.37s-11.67-15,9.38-31.34a33.37,33.37,0,0,1-13.41,3.08c-15.09,0-22.21-12.89-22.21-12.89l15-8.3-13.54-8.82a27.05,27.05,0,0,1,15.69-5.17c5,0,10.77,1.48,16.85,6-11.23-27.39,2.33-37.52,2.33-37.52m18.06-12.37-5.26,8.57-2.72,4.43-3.45-5.11-4.69-6.95-6.72,5c-.9.67-5.54,4.43-8.18,12.37a39.61,39.61,0,0,0-1.43,17.88,33.25,33.25,0,0,0-4.79-.35,34.83,34.83,0,0,0-20.71,6.94l-8.57,6.92,9.22,6,2.38,1.55-3.38,1.87-7,3.87,3.87,7c.35.63,8,14.11,24,16.62a28.15,28.15,0,0,0-1.78,6.87,26.45,26.45,0,0,0,4.7,18.7l5.52,7.1,6.41-6.3,1.68-1.66L225.1,170l3.09,6.19,6.57-2.17a27,27,0,0,0,12.53-9.67A29.1,29.1,0,0,0,252,153.79a42.48,42.48,0,0,0,4.33,2.51,31.73,31.73,0,0,0,12.24,3.59l9.56.39-1.31-9.47-.36-2.64,6.85,1.08,9,1.4.28-9.06c0-1.45.17-14.4-8.82-23.68a26.91,26.91,0,0,0-3-2.68,39.77,39.77,0,0,0,12-24.49l.69-10.44L283.1,82.38l2-8.15-9.52-.77s-.23,0-.69,0c-1.95,0-7.24.41-14.15,4.18-.83.46-1.65.94-2.47,1.45a35.89,35.89,0,0,0-.73-4.66c-1.8-8.06-5.76-12.27-6.53-13l-7.17-7Z"/><path class="c" d="M239.4,126.23c-4.91,0-9-2.94-9.86-7.16-1-5,2.8-10.1,8.59-11.32a12.49,12.49,0,0,1,2.58-.27c4.91,0,9,2.94,9.85,7.15,1.06,5-2.79,10.11-8.58,11.33A12.56,12.56,0,0,1,239.4,126.23Z"/><path class="a" d="M240.71,111.48c2.93,0,5.43,1.58,5.94,4,.6,2.87-1.86,5.82-5.5,6.58a8.15,8.15,0,0,1-1.75.19c-2.94,0-5.43-1.58-5.94-4-.61-2.86,1.86-5.81,5.5-6.58a8.81,8.81,0,0,1,1.75-.18m0-8h0a16.91,16.91,0,0,0-3.4.35c-8,1.68-13.19,8.89-11.68,16.07,1.29,6.08,7,10.33,13.77,10.33a16.3,16.3,0,0,0,3.4-.36c7.95-1.68,13.19-8.88,11.68-16.06-1.29-6.08-6.95-10.33-13.77-10.33Z"/><path class="c" d="M239,111.66c-2.66-5.1-2.26-17-2.26-17"/><path class="a" d="M235.41,113.51a17.39,17.39,0,0,1-.72-5.32,37.28,37.28,0,0,1,.32-4.69,69.79,69.79,0,0,1,1.69-8.82A67.22,67.22,0,0,0,239,103.1a30.37,30.37,0,0,0,1.58,3.85,9.58,9.58,0,0,0,1.93,2.86Z"/><path class="c" d="M245.7,113.55c5-5.68,15-9.26,15-9.26"/><path class="a" d="M242.71,110.9a30,30,0,0,1,8.95-4.51,54.11,54.11,0,0,1,9-2.1,51.72,51.72,0,0,0-7,5.55A34.91,34.91,0,0,0,250.8,113a18.33,18.33,0,0,0-2.1,3.24Z"/><path class="c" d="M246.24,118.41c8.93,2.71,11.76,8.35,11.76,8.35"/><path class="a" d="M247.4,114.58c.62.39,1.23.76,1.82,1.15s1.17.81,1.72,1.27a26.24,26.24,0,0,1,3.07,2.87,21.63,21.63,0,0,1,2.43,3.29,13.74,13.74,0,0,1,1.56,3.6,12.94,12.94,0,0,0-3-2.19,19.24,19.24,0,0,0-3.26-1.39,21,21,0,0,0-3.36-.73c-.54-.1-1.13-.11-1.67-.17s-1.12,0-1.67,0Z"/><path class="c" d="M236.18,121.51c-3.78,5-4.7,14.75-4.7,14.75"/><path class="a" d="M239.38,123.91a11.59,11.59,0,0,0-2.35,2.2,26,26,0,0,0-2.13,3,44.85,44.85,0,0,0-3.42,7.11,47.24,47.24,0,0,1-.43-8.21,31.15,31.15,0,0,1,.47-4.32,18.84,18.84,0,0,1,1.46-4.61Z"/><path class="c" d="M233.49,116.39c-7.82-4.39-17.58-2.7-17.58-2.7"/><path class="a" d="M231.53,119.87a17.55,17.55,0,0,0-3.09-2.38,22.18,22.18,0,0,0-3.79-1.84,31.19,31.19,0,0,0-8.74-2,33.22,33.22,0,0,1,9.28-2,28.28,28.28,0,0,1,5,.08,25.18,25.18,0,0,1,5.23,1.14Z"/><path class="d" d="M325.12,216.85c-.94,0-22.95-1.4-36.34-12.21a30.32,30.32,0,0,1-11.36-21.91c-.23-6,1.67-11.23,5.38-14.74a20.05,20.05,0,0,1,14-5.73c6.26,0,12.68,2.84,18.57,8.22,12.59,11.49,13.93,41,14,42.21l.17,4.41Z"/><path class="a" d="M296.79,166.26c5.08,0,10.59,2.35,15.88,7.18,11.5,10.49,12.67,39.42,12.67,39.42s-21.5-1.21-34-11.34c-10.62-8.57-12.92-23.82-5.74-30.63a16.08,16.08,0,0,1,11.24-4.63m0-8a24,24,0,0,0-16.74,6.82c-4.56,4.32-6.91,10.64-6.62,17.81a34.33,34.33,0,0,0,12.83,24.86c14.39,11.61,37.65,13,38.63,13.09l8.8.5-.36-8.81c-.13-3.3-1.7-32.62-15.27-45-6.64-6.07-14-9.27-21.27-9.27Z"/><path class="d" d="M296,176.66c10,6.64,13.58,14.47,13.58,14.47"/><path class="a" d="M296.25,176.32a8.23,8.23,0,0,1,6.35.26,5,5,0,0,1,1.15.75,5.09,5.09,0,0,1,.87,1.08c.51.79.89,1.7,1.41,2.44s1,1.54,1.39,2.35.79,1.65,1.14,2.49A21.74,21.74,0,0,1,310,191a.42.42,0,0,1-.37.46.38.38,0,0,1-.33-.1l0,0c-1.28-1.15-2.57-2.23-3.9-3.21-.65-.51-1.31-1-2-1.43s-1.31-.93-2-1.38a13.63,13.63,0,0,0-2.17-1.06,4.05,4.05,0,0,1-1.74-1.48,9.38,9.38,0,0,1-1.1-2.36,12.11,12.11,0,0,1-.59-3.38v0A.67.67,0,0,1,296.25,176.32Z"/><path class="d" d="M128.32,153.69a86.52,86.52,0,0,1-25.25-4.25L98.91,148l1.84-4c.53-1.14,13-27.89,29-33.72a33.91,33.91,0,0,1,11.5-2.19c8.94,0,16.07,4.48,19.57,12.29,2.09,4.65,1.86,10.22-.65,15.67A30.27,30.27,0,0,1,141.33,152,45.81,45.81,0,0,1,128.32,153.69Z"/><path class="a" d="M141.24,112.08c7.38,0,13.07,3.56,15.92,9.92,4.05,9-3.89,22.26-17,26.15a42.19,42.19,0,0,1-11.87,1.54,82.84,82.84,0,0,1-23.93-4s12.09-26.3,26.72-31.63a30.24,30.24,0,0,1,10.13-2m0-8h0a37.81,37.81,0,0,0-12.87,2.44c-17.27,6.28-29.88,32.79-31.26,35.8l-3.68,8,8.32,2.9a90.9,90.9,0,0,0,26.56,4.47,49.69,49.69,0,0,0,14.14-1.88,34.3,34.3,0,0,0,21.34-18.1c3-6.51,3.22-13.26.66-19-4.17-9.31-12.64-14.65-23.21-14.65Z"/><path class="d" d="M145.27,123.35c-11.79,2.32-18.07,8.2-18.07,8.2"/><path class="a" d="M145.35,123.74a11.73,11.73,0,0,1-1.83,2.9,9.45,9.45,0,0,1-1.91,1.77,4,4,0,0,1-2.17.7,13.87,13.87,0,0,0-2.42.16c-.77.17-1.55.33-2.33.52s-1.59.35-2.38.57a50.4,50.4,0,0,0-4.83,1.49h0a.42.42,0,0,1-.51-.6,21.2,21.2,0,0,1,3.32-4.33c.64-.65,1.31-1.26,2-1.87s1.43-1.12,2.18-1.64,1.46-1.19,2.23-1.73a5.49,5.49,0,0,1,1.21-.66,5.12,5.12,0,0,1,1.36-.26,8.21,8.21,0,0,1,6,2.19.65.65,0,0,1,.17.75Z"/><path class="d" d="M208.3,227.6c-1.06,0-1.66,0-1.66,0l-4.39-.17.59-4.36c.16-1.24,4.28-30.46,17.9-40.7,5.67-4.27,11.64-6.52,17.29-6.52a19.92,19.92,0,0,1,15.36,7.11c3.36,3.85,4.76,9.24,4,15.19A30.28,30.28,0,0,1,244,218.85C231.71,227,213.57,227.6,208.3,227.6Z"/><path class="a" d="M238,179.82a16,16,0,0,1,12.35,5.74c6.51,7.46,2.77,22.43-8.61,30s-28.37,8.08-33.47,8.08c-1,0-1.5,0-1.5,0s3.9-28.69,16.34-38.05c5.13-3.85,10.24-5.71,14.89-5.71m0-8v0h0c-6.51,0-13.32,2.53-19.69,7.32-14.68,11.05-19,40.08-19.46,43.36l-1.19,8.73,8.81.34c.11,0,.74,0,1.81,0,21.35,0,33.6-6.58,37.88-9.41a34.33,34.33,0,0,0,15.13-23.54c1-7.1-.78-13.62-4.9-18.35A24.14,24.14,0,0,0,238,171.82Z"/><path class="d" d="M239.4,190.31c-10.6,5.66-14.89,13.12-14.89,13.12"/><path class="a" d="M239.59,190.67a12,12,0,0,1-.9,3.31,9.94,9.94,0,0,1-1.31,2.24,4,4,0,0,1-1.88,1.3,14.25,14.25,0,0,0-2.26.86c-.69.39-1.39.77-2.08,1.18s-1.43.8-2.11,1.24a49.7,49.7,0,0,0-4.19,2.83l0,0a.43.43,0,0,1-.59-.09.42.42,0,0,1-.08-.34,21.54,21.54,0,0,1,1.91-5.11c.43-.8.89-1.59,1.37-2.37s1.05-1.49,1.61-2.21,1-1.56,1.63-2.3a5.69,5.69,0,0,1,1-1,5.25,5.25,0,0,1,1.22-.64,8.24,8.24,0,0,1,6.35.35.67.67,0,0,1,.38.67Z"/><path class="b" d="M274.46,143.48,262,151l-1.86-4.09a25.48,25.48,0,0,1-.14-18.34,29.91,29.91,0,0,1,8.51-11.92c-16.81-2.76-25-16.31-27.13-23.85l-1.07-3.86L257,84.31,244.9,71.54l5-2.36a34.75,34.75,0,0,1,13.87-2.81,33.57,33.57,0,0,1,19.39,6.13c-.73-27.76,15.35-35,16.11-35.38l3.85-1.66L310,53.75l13.62-13.62,2.66,4.25c.37.58,6.81,11.28-.12,28.6,9.89-5.61,17.62-6.71,22.16-6.71a19.76,19.76,0,0,1,5.39.62l4.59,1.4L352.8,78.93l13.54.46-1.54,5c-.07.21-5.72,17.78-24.37,24.48a25.92,25.92,0,0,1,7.32,7.8c6.86,11.26,3.33,24.69,3.17,25.26l-1.18,4.37-18.22-7.47-1.45,14.9-4.61-1.3c-.59-.16-11.58-3.43-20.3-17.2-3.79,17.25-16.08,23.26-23.55,23.89l-3.45.3Z"/><path class="a" d="M300.82,40.8,308.42,61l14.45-14.46s10.23,16.32-11.07,42.3c17-16.11,30.13-18.54,36.49-18.54a16.09,16.09,0,0,1,4.23.45l-6.16,12,14.62.5s-7.18,23.25-34.32,24.18c27.86,6,20.4,33.49,20.4,33.49l-19-7.8-1.51,15.5s-16.92-4.76-24.46-30c2.75,34.53-20.82,36.52-20.82,36.52l-4.16-17.93-13.29,8s-9.13-20.09,19-32.85a45,45,0,0,1-8,.76c-23.62,0-29.56-21.43-29.56-21.43l19.21-5.32-12.9-13.6a30.82,30.82,0,0,1,12.15-2.42c7.11,0,16.25,2.43,24.35,12.15-5.31-33.95,12.73-41.72,12.73-41.72m4.54-10.67-7.7,3.32c-.8.34-16.46,7.42-18.36,32.27a37.45,37.45,0,0,0-15.56-3.35,38.8,38.8,0,0,0-15.59,3.19l-10,4.74,7.58,8,3.74,3.94L243.14,84l-7.71,2.14,2.14,7.71c2,7.35,9.25,19.79,23.43,24.94a32.15,32.15,0,0,0-4.7,8.35,29.23,29.23,0,0,0,.24,21.4l3.71,8.18,7.7-4.64,3.86-2.33,1.67,7.2,1.56,6.74,6.9-.58a30,30,0,0,0,16-7.24,33,33,0,0,0,8.68-12c8.45,9.7,17.19,12.29,17.75,12.44l9.2,2.6.93-9.52.47-4.79,9,3.71,8.38,3.44,2.37-8.74c.43-1.59,4-15.9-3.61-28.39a31.1,31.1,0,0,0-3.42-4.59,44.77,44.77,0,0,0,20.87-24.43l3.09-10-10.46-.36-2-.07.4-.76L364,65.85l-9.18-2.78a23.16,23.16,0,0,0-6.55-.8,43.41,43.41,0,0,0-15.76,3.22,42.5,42.5,0,0,0,.79-7.46c.13-9.22-3-14.76-3.68-15.77l-5.33-8.52-7.11,7.11-5.67,5.68L308.31,38l-2.95-7.85Z"/><path class="a" d="M299.71,96.08a20.16,20.16,0,0,1,.48-6,42.7,42.7,0,0,1,1.46-5.18,82.37,82.37,0,0,1,4-9.54,80.72,80.72,0,0,0,0,10.08,38.18,38.18,0,0,0,.58,4.8,12.44,12.44,0,0,0,1.28,3.92Z"/><path class="a" d="M308.4,95.77a35.4,35.4,0,0,1,11-2.9,63.3,63.3,0,0,1,10.64-.25,60.74,60.74,0,0,0-9.47,4.08,42.56,42.56,0,0,0-4.2,2.61,23.12,23.12,0,0,0-3.42,3Z"/><path class="a" d="M312,101.22c.59.57,1.18,1.12,1.75,1.7s1.12,1.17,1.62,1.81a29.74,29.74,0,0,1,2.76,3.91,25.18,25.18,0,0,1,1.95,4.23,16.32,16.32,0,0,1,.93,4.4,15,15,0,0,0-2.63-3.35,22.26,22.26,0,0,0-3.21-2.58,24,24,0,0,0-3.52-1.9c-.59-.28-1.23-.49-1.83-.72s-1.25-.4-1.86-.59Z"/><path class="a" d="M300.35,108.55a14.85,14.85,0,0,0-3.22,2,30,30,0,0,0-3.11,3,52.71,52.71,0,0,0-5.5,7.27,54.46,54.46,0,0,1,2-9.23,36.81,36.81,0,0,1,1.8-4.63,21.74,21.74,0,0,1,2.91-4.6Z"/><path class="a" d="M293.43,101.9a21.24,21.24,0,0,0-3-3.46,26,26,0,0,0-3.91-3A36.35,36.35,0,0,0,277,91.18a35.93,35.93,0,0,1,5.4-.12,38.72,38.72,0,0,1,5.5.66,31.72,31.72,0,0,1,5.52,1.56A28.67,28.67,0,0,1,298.86,96Z"/><path class="b" d="M303.23,110.46c-5.69,0-10.22-3.73-10.52-8.67-.3-5.12,4.25-9.57,10.16-9.93.26,0,.52,0,.77,0,5.69,0,10.22,3.72,10.52,8.66.3,5.12-4.25,9.58-10.16,9.94Z"/><path class="a" d="M303.64,95.84c3.48,0,6.35,2.11,6.52,4.9s-2.69,5.48-6.4,5.7l-.53,0c-3.48,0-6.35-2.12-6.52-4.91s2.69-5.47,6.4-5.7h.53m0-8-1,0a15.73,15.73,0,0,0-9.5,3.84A12.83,12.83,0,0,0,288.72,102c.43,7.08,6.67,12.42,14.51,12.42l1,0a15.74,15.74,0,0,0,9.5-3.85,12.8,12.8,0,0,0,4.41-10.32c-.43-7.08-6.67-12.42-14.51-12.42Z"/><polygon class="e" points="-26.8 798.69 41.22 611.69 24.48 191.69 100.55 -22.36 58.49 191.69 111.92 632.47 69.04 898.53 -26.8 897.85 -26.8 798.69"/><path class="a" d="M278,427.42a89.81,89.81,0,0,1-6.42,14.23c-2.43,4.41-5.07,8.58-7.83,12.61s-5.72,7.83-8.79,11.51-6.27,7.2-9.59,10.59a12.77,12.77,0,0,1-8.1,3.82l-2.7.23a185.79,185.79,0,0,1-21.36.52,173.25,173.25,0,0,1-21.35-2A148.12,148.12,0,0,1,170.53,474a99.67,99.67,0,0,1-21.36-9.15l-.43-.26a.88.88,0,0,1,.43-1.64c7.12-.17,14.24-.41,21.36-.52s14.23-.24,21.35-.29l21.35-.11c7.12-.07,14.24,0,21.36.05l-1.2.44,10.75-9.26L255,444.14c3.61-3.05,7.2-6.13,10.86-9.12l10.94-9a.89.89,0,0,1,1.41,1Z"/><path class="a" d="M382.35,319a45.51,45.51,0,0,1-2.84,6.94A67.31,67.31,0,0,1,376,332a73.55,73.55,0,0,1-8.26,10.47,85.78,85.78,0,0,1-9.57,8.75,82.6,82.6,0,0,1-10.74,7.22l-2.6,1.46a6.46,6.46,0,0,1-4,.77l-1.79-.23-1.8-.32c-1.2-.22-2.4-.42-3.6-.72s-2.4-.54-3.6-.91l-1.79-.5-1.8-.59a65.28,65.28,0,0,1-7.2-2.86,46.17,46.17,0,0,1-7.19-4.14l-.32-.23a.58.58,0,0,1-.14-.82.56.56,0,0,1,.46-.25c4.8-.14,9.59-.35,14.39-.4l7.19-.13c2.4,0,4.8,0,7.19-.05l-.74.25,10.24-7.87,10.32-7.76c3.43-2.61,6.93-5.11,10.4-7.67s7-5,10.5-7.53a.59.59,0,0,1,.91.65Z"/><path class="b" d="M103.2,346.11a22.64,22.64,0,0,1-8.24-14,25.73,25.73,0,0,1,.87-11.73,29,29,0,0,1-9.4,1.58,31.66,31.66,0,0,1-20.64-8.18L62.93,311,73.1,300.64l-14.39-4.25,3.11-4.54c.35-.5,8.58-12.23,24.12-12.23.52,0,1,0,1.56,0-11.91-20.16-3.12-32.47-2.69-33l2.5-3.37,12.82,10.49,4.22-15.88,4.44,2.34c.52.28,9.59,5.28,12.3,20.31,8.13-13,17-15.29,17.49-15.41l4.67-1.1.5,10.09,10.17-5.44,1.17,5.1c1.41,6.16,1.06,18.22-7.1,28.48,13.15,1.73,19.84,13.8,21.59,20.41l1.17,4.38-16.7,2.27L159.37,321l-4.63,1.18a23,23,0,0,1-5.22.52,38.11,38.11,0,0,1-16.59-4.07c4,14.13-2.55,23.71-7.82,27.4l-2.84,2-9.45-10.08-6,10.83Z"/><path class="a" d="M106.92,243.74s14.68,7.75,10,36.32c8.2-27.7,22.55-31.07,22.55-31.07l.59,11.6,11.11-5.94s4.69,20.44-15.14,32.85a28.16,28.16,0,0,1,8.69-1.49c16.29,0,21,17.65,21,17.65l-17.54,2.4,5.57,12.21a19.2,19.2,0,0,1-4.23.39c-5.53,0-15.82-1.7-27-12.18,17,24.56.25,36.23.25,36.23L112,331.14l-6.44,11.71s-15.49-11,0-32.71c-7,5.91-13.51,7.85-19.1,7.85a27.61,27.61,0,0,1-17.84-7l12-12.26-15.5-4.57s7.21-10.5,20.82-10.5a30.72,30.72,0,0,1,10.6,2C77.93,262.59,88,249,88,249l14.38,11.77,4.52-17M101.77,232l-2.58,9.72-1.33,5-4.77-3.9L86.6,237.5l-5,6.73c-.67.9-4,5.83-4.29,14.19A39.68,39.68,0,0,0,81.07,276a35.07,35.07,0,0,0-22.54,13.62l-6.23,9.08,10.56,3.12,2.72.8-2.7,2.76-5.61,5.71L63,316.67A35.31,35.31,0,0,0,86.43,326a32.77,32.77,0,0,0,4.32-.29,28.05,28.05,0,0,0,.27,7.1,26.43,26.43,0,0,0,9.86,16.57l7.32,5.22,4.33-7.88,1.14-2.06,3.31,3.53,4.74,5.05,5.67-4a27.15,27.15,0,0,0,9.23-12.86,29.06,29.06,0,0,0,1.49-11.5,39.6,39.6,0,0,0,11.41,1.75,26.41,26.41,0,0,0,6.21-.64l9.26-2.37-4-8.7-1.11-2.42,6.88-.94,9-1.22-2.33-8.76c-1.73-6.49-7.64-17.58-18.92-21.85a39.75,39.75,0,0,0,4.46-26.9l-2.34-10.2-9.22,4.93L147,239l-9.34,2.19c-1.16.28-7.82,2.14-15,10.35a38.1,38.1,0,0,0-2-4.27c-4-7.21-9-10.1-10-10.61l-8.89-4.7Z"/><path class="b" d="M114.79,302.62a9,9,0,0,1-8.15-4.53c-2.46-4.5-.22-10.47,5-13.3a12,12,0,0,1,5.73-1.5,9,9,0,0,1,8.15,4.53,8.83,8.83,0,0,1,.23,7.73,11.71,11.71,0,0,1-5.21,5.58A12,12,0,0,1,114.79,302.62Z"/><path class="a" d="M117.35,287.29a5.1,5.1,0,0,1,4.64,2.44c1.4,2.58-.11,6.11-3.38,7.89a8,8,0,0,1-3.81,1,5.1,5.1,0,0,1-4.65-2.44c-1.4-2.57.11-6.1,3.38-7.88a8.06,8.06,0,0,1,3.82-1m0-8h0a16.11,16.11,0,0,0-7.64,2,15.76,15.76,0,0,0-7,7.52,12.79,12.79,0,0,0,.39,11.22,13,13,0,0,0,11.67,6.61,16,16,0,0,0,7.63-2,15.69,15.69,0,0,0,7-7.51,12.79,12.79,0,0,0-.39-11.22,12.94,12.94,0,0,0-11.66-6.62Z"/><path class="b" d="M113.53,288.3c-4-4.12-7-15.63-7-15.63"/><path class="a" d="M110.67,291.09a17,17,0,0,1-2.22-4.9,36.17,36.17,0,0,1-1-4.58,70.36,70.36,0,0,1-.91-8.94,69.07,69.07,0,0,0,4.61,7.42,30.61,30.61,0,0,0,2.61,3.23,9.42,9.42,0,0,0,2.68,2.19Z"/><path class="b" d="M120.54,288.17c3.2-6.88,11.68-13.16,11.68-13.16"/><path class="a" d="M116.91,286.49a29.72,29.72,0,0,1,7.28-6.88,53.88,53.88,0,0,1,8-4.6,52,52,0,0,0-5.1,7.32,34.34,34.34,0,0,0-1.87,3.81,18.81,18.81,0,0,0-1.09,3.72Z"/><path class="b" d="M122.44,292.68c9.34,0,13.67,4.62,13.67,4.62"/><path class="a" d="M122.45,288.68c.71.19,1.4.37,2.08.58s1.35.44,2,.72a25.94,25.94,0,0,1,3.77,1.87,21.62,21.62,0,0,1,3.27,2.45,14.05,14.05,0,0,1,2.53,3,13.19,13.19,0,0,0-3.48-1.24,19.38,19.38,0,0,0-3.52-.4,20.45,20.45,0,0,0-3.43.26c-.55.07-1.11.22-1.65.32s-1.08.29-1.61.44Z"/><path class="b" d="M113.69,298.53c-2.17,5.92-.27,15.48-.27,15.48"/><path class="a" d="M117.45,299.91a11.45,11.45,0,0,0-1.63,2.78,24.33,24.33,0,0,0-1.16,3.53,44.74,44.74,0,0,0-1.24,7.79,47.07,47.07,0,0,1-2.76-7.75,31.35,31.35,0,0,1-.8-4.27,19.29,19.29,0,0,1,.08-4.84Z"/><path class="b" d="M109.65,294.39c-8.75-2-17.62,2.45-17.62,2.45"/><path class="a" d="M108.77,298.29a18.09,18.09,0,0,0-3.64-1.39,22.3,22.3,0,0,0-4.16-.68,31.66,31.66,0,0,0-8.94.62,33.3,33.3,0,0,1,8.32-4.57,27.85,27.85,0,0,1,4.84-1.37,25.1,25.1,0,0,1,5.33-.41Z"/><path class="c" d="M158.59,386.76l-9.11,8.35-2.63-3.64a22.57,22.57,0,0,1-3.34-15.88,25.9,25.9,0,0,1,4.58-10.84H148c-18,0-25.92-15.21-26.25-15.86l-1.82-3.57,13-6.56-12.28-8.63,4.41-3.31a31.13,31.13,0,0,1,17.38-5.43,29.34,29.34,0,0,1,10.84,2.08c-4.82-22.9,7.44-31.74,8-32.15l3.45-2.39,8.78,14,9.08-13.7,3.46,3.65c.4.42,7.38,8,5.16,23.12,9.87-8.14,17.8-9,20.63-9,.57,0,.87,0,.87,0l4.67.54-1.21,4.53-1.44,5.11,11.37-1.9-.52,5.21c-.63,6.28-4.82,17.58-15.83,24.69a22.8,22.8,0,0,1,6.79,5.05c7.87,8.51,7.17,20.69,7.13,21.21l-.3,4.52-16.54-3.19,1.3,12.76-4.76-.36c-.53,0-10-.89-19.53-10.32-.76,14.64-10,21.63-16.18,23.43l-3.32,1Z"/><path class="a" d="M163.54,294.6l9.85,15.75,9.74-14.68s11.42,12-2.14,37.62c14.87-21.12,28.18-22.24,30.83-22.24a4.34,4.34,0,0,1,.48,0l-3.15,11.17,12.43-2.07s-2.1,20.86-24.86,26.28c24.55.31,22.94,24.81,22.94,24.81l-17.38-3.35,1.37,13.35s-15.1-1.14-25.77-21.14c8.21,28.69-11.36,34.4-11.36,34.4L160,380.09l-9.86,9s-11.14-15.41,10.47-31A33.84,33.84,0,0,1,148,360.75c-15.74,0-22.69-13.67-22.69-13.67l15.32-7.77L127.41,330a27.07,27.07,0,0,1,15-4.63c5.16,0,11.23,1.59,17.51,6.63-10.27-27.77,3.64-37.42,3.64-37.42M182,282.87l-5.55,8.38-2.87,4.33-3.27-5.22-4.45-7.11L159,288c-.93.64-5.69,4.24-8.61,12.07a39.78,39.78,0,0,0-2.05,17.82,33.45,33.45,0,0,0-5.93-.53,34.85,34.85,0,0,0-19.78,6.23l-8.81,6.61,9,6.34,2.32,1.63L121.69,340l-7.15,3.62,3.63,7.13c.33.66,7.5,14.39,23.4,17.45a28.51,28.51,0,0,0-2,6.8,26.4,26.4,0,0,0,4.05,18.86l5.26,7.29L155.5,395l1.73-1.59,2,4.4,2.87,6.3,6.65-1.93A27.05,27.05,0,0,0,181.61,393a28.94,28.94,0,0,0,5.09-10.4,42.11,42.11,0,0,0,4.23,2.65,31.91,31.91,0,0,0,12.12,4l9.53.71-1-9.51-.28-2.64,6.82,1.31,8.9,1.71.59-9c.1-1.46.69-14.59-8.18-24.19a27.6,27.6,0,0,0-2.74-2.56A39.87,39.87,0,0,0,229.54,321l1-10.42-10.3,1.72,2.33-8.25-9.54-.92c-.25,0-.67-.05-1.25-.05-2.5,0-8.53.56-16.24,5.07a36.35,36.35,0,0,0-.57-4.7c-1.52-8.12-5.33-12.47-6.08-13.26L182,282.87Z"/><path class="c" d="M175.49,354.58c-5.13,0-9.25-3.09-10-7.51-.89-5.05,3.14-10,9-11a11.94,11.94,0,0,1,2.15-.19c5.13,0,9.25,3.09,10,7.51.88,5.05-3.15,10-9,11A12,12,0,0,1,175.49,354.58Z"/><path class="a" d="M176.6,339.87c3.06,0,5.65,1.7,6.09,4.2.5,2.88-2.06,5.74-5.73,6.38a8.27,8.27,0,0,1-1.47.13c-3.06,0-5.65-1.7-6.08-4.19-.51-2.89,2.06-5.75,5.72-6.39a8.27,8.27,0,0,1,1.47-.13m0-8h0a16,16,0,0,0-2.84.25c-8,1.4-13.5,8.42-12.23,15.64,1.09,6.27,7,10.82,14,10.82a16.06,16.06,0,0,0,2.85-.25c8-1.4,13.49-8.41,12.23-15.64-1.1-6.27-7-10.82-14-10.82Z"/><path class="c" d="M175.13,340c-2.48-5.19-1.66-17.05-1.66-17.05"/><path class="a" d="M171.53,341.73a17.07,17.07,0,0,1-.54-5.35,38.59,38.59,0,0,1,.48-4.68,70.91,70.91,0,0,1,2-8.75,68.76,68.76,0,0,0,2,8.5,33.15,33.15,0,0,0,1.44,3.9,9.67,9.67,0,0,0,1.84,2.92Z"/><path class="c" d="M181.81,342.12c5.23-5.5,15.28-8.73,15.28-8.73"/><path class="a" d="M178.91,339.36a30.24,30.24,0,0,1,9.1-4.19,54.15,54.15,0,0,1,9.08-1.78,51.93,51.93,0,0,0-7.17,5.3,35.57,35.57,0,0,0-3,3,18,18,0,0,0-2.21,3.17Z"/><path class="c" d="M182.17,347c8.84,3,11.47,8.75,11.47,8.75"/><path class="a" d="M183.47,343.21c.6.41,1.2.8,1.78,1.22s1.14.85,1.67,1.33a25.24,25.24,0,0,1,3,3,20.78,20.78,0,0,1,2.31,3.37,13.94,13.94,0,0,1,1.44,3.65,13.42,13.42,0,0,0-2.9-2.29,18.66,18.66,0,0,0-3.21-1.5,20.75,20.75,0,0,0-3.32-.85c-.55-.12-1.13-.15-1.67-.23s-1.12-.07-1.67-.1Z"/><path class="c" d="M172,349.75c-3.95,4.91-5.21,14.58-5.21,14.58"/><path class="a" d="M175.13,352.26a11.21,11.21,0,0,0-2.43,2.11,25.9,25.9,0,0,0-2.24,3,44.89,44.89,0,0,0-3.66,7,47.92,47.92,0,0,1-.14-8.23,31.74,31.74,0,0,1,.62-4.31,18.77,18.77,0,0,1,1.62-4.55Z"/><path class="c" d="M169.5,344.53c-7.66-4.66-17.47-3.31-17.47-3.31"/><path class="a" d="M167.42,348a17.72,17.72,0,0,0-3-2.49,23.08,23.08,0,0,0-3.72-2,31.52,31.52,0,0,0-8.67-2.26,33.27,33.27,0,0,1,9.34-1.68,27.69,27.69,0,0,1,5,.26,25.08,25.08,0,0,1,5.18,1.31Z"/><path class="d" d="M241.84,519.86c0-1.25.14-30.75,12.25-42.74,5.94-5.88,12.53-9,19-9a20.16,20.16,0,0,1,13.39,5.17c3.84,3.36,6,8.52,6,14.52A30.3,30.3,0,0,1,282,510.17c-12.94,11.34-34.88,13.58-35.81,13.67l-4.39.43Z"/><path class="a" d="M273.14,472.13a16.09,16.09,0,0,1,10.76,4.19c7.45,6.51,5.77,21.85-4.49,30.84-12.13,10.63-33.57,12.7-33.57,12.7s0-28.95,11.07-39.9c5.31-5.26,11-7.83,16.23-7.83m0-8h0c-7.6,0-15.16,3.51-21.86,10.15-13.06,12.92-13.44,42.28-13.44,45.58v8.81l8.77-.84c1-.1,24.16-2.47,38.06-14.66a34.34,34.34,0,0,0,11.82-25.36c0-7.17-2.61-13.39-7.34-17.52a24.09,24.09,0,0,0-16-6.16Z"/><path class="d" d="M273.67,482.5c-9.74,7-13,15-13,15"/><path class="a" d="M273.9,482.83a11.76,11.76,0,0,1-.45,3.4,9.41,9.41,0,0,1-1,2.4,4.06,4.06,0,0,1-1.68,1.55,13.63,13.63,0,0,0-2.13,1.15c-.63.48-1.27.95-1.9,1.45s-1.3,1-1.92,1.51c-1.29,1-2.54,2.17-3.77,3.37l0,0a.42.42,0,0,1-.59,0,.41.41,0,0,1-.12-.33,21.49,21.49,0,0,1,1.2-5.32c.31-.85.66-1.69,1-2.53s.83-1.62,1.29-2.41.83-1.68,1.31-2.5a5.59,5.59,0,0,1,.82-1.11,5.3,5.3,0,0,1,1.12-.8,8.22,8.22,0,0,1,6.34-.51.65.65,0,0,1,.47.62Z"/><path class="d" d="M116,455.08c-.37-1.19-9-29.41-1-44.45,5.12-9.61,12.9-15.13,21.35-15.13a20.85,20.85,0,0,1,8.49,1.86c4.67,2.06,8.22,6.36,10,12.08a30.32,30.32,0,0,1-3.35,24.45c-9,14.68-29.28,23.33-30.14,23.69l-4.06,1.71Z"/><path class="a" d="M136.34,399.5a16.91,16.91,0,0,1,6.87,1.52c9.06,4,12,19.15,4.87,30.78-8.43,13.75-28.28,22.09-28.28,22.09s-8.6-27.64-1.28-41.38c4.57-8.59,11.06-13,17.82-13m0-8v0h0c-10,0-19,6.29-24.88,17.25-8.64,16.22-.28,44.36.7,47.52l2.61,8.41,8.13-3.41c.9-.38,22.34-9.52,32-25.29a34.36,34.36,0,0,0,3.76-27.72c-2.14-6.85-6.47-12-12.21-14.56a24.81,24.81,0,0,0-10.11-2.2Z"/><path class="d" d="M135.28,410c-7.21,9.62-8,18.19-8,18.19"/><path class="a" d="M135.6,410.2a12.25,12.25,0,0,1,.58,3.38,9.93,9.93,0,0,1-.24,2.59,4,4,0,0,1-1.15,2,14.51,14.51,0,0,0-1.69,1.73c-.46.64-.93,1.29-1.39,1.95s-1,1.32-1.38,2a47.24,47.24,0,0,0-2.6,4.33l0,0a.42.42,0,0,1-.78-.11,21.54,21.54,0,0,1-.43-5.43c0-.91.13-1.82.24-2.73s.32-1.79.52-2.69.29-1.85.5-2.77a5.73,5.73,0,0,1,.46-1.3,5.26,5.26,0,0,1,.84-1.1,8.2,8.2,0,0,1,5.9-2.37.67.67,0,0,1,.63.45Z"/><path class="d" d="M39.88,386.38c0-1.25-.16-30.76,11.83-42.86,5.95-6,12.57-9.17,19.16-9.17a20.17,20.17,0,0,1,13.25,5c3.87,3.32,6,8.46,6.1,14.46A30.3,30.3,0,0,1,80,376.3c-12.84,11.47-34.76,13.92-35.68,14l-4.38.46Z"/><path class="a" d="M70.87,338.35a16.15,16.15,0,0,1,10.64,4.08c7.52,6.44,6,21.79-4.19,30.88-12,10.75-33.44,13-33.44,13s-.28-28.95,10.68-40c5.31-5.36,11-8,16.31-8m0-8h0c-7.68,0-15.28,3.58-22,10.35-12.93,13.05-13,42.41-13,45.72l.08,8.81,8.76-.94c1-.1,24.14-2.69,37.93-15a34.34,34.34,0,0,0,11.57-25.47c-.07-7.17-2.74-13.37-7.5-17.45a24.15,24.15,0,0,0-15.85-6Z"/><path class="d" d="M71.34,348.72c-9.67,7.13-12.85,15.13-12.85,15.13"/><path class="a" d="M71.58,349a11.87,11.87,0,0,1-.42,3.4,9.7,9.7,0,0,1-1,2.41,4,4,0,0,1-1.66,1.57,13.18,13.18,0,0,0-2.12,1.17c-.63.48-1.26,1-1.89,1.47s-1.29,1-1.91,1.53A47.31,47.31,0,0,0,58.87,364l0,0a.42.42,0,0,1-.6,0,.45.45,0,0,1-.12-.32,21.06,21.06,0,0,1,1.16-5.33c.3-.86.64-1.7,1-2.54s.82-1.63,1.27-2.43.81-1.69,1.28-2.5a5.44,5.44,0,0,1,.81-1.12,5,5,0,0,1,1.12-.81,8.2,8.2,0,0,1,6.33-.58.65.65,0,0,1,.47.62Z"/><path class="b" d="M254.87,399.72c-.64-.35-12.64-7.27-18.56-26.15-8.89,20.1-24.89,22-30.43,22a21.56,21.56,0,0,1-2.75-.16l-3.42-.52.11-19.4-16.26,5.19-.86-4.41a29,29,0,0,1,4.71-20.33,34.73,34.73,0,0,1,13.94-11.66,39,39,0,0,1-25.26-34.31l-.15-4,20.57-.74-10.37-17.91,5.38-1.15a33.17,33.17,0,0,1,6.5-.56,39,39,0,0,1,30.56,14.11c6.3-32.42,26.6-36.35,27.55-36.52l4.13-.72,2.9,22.92,19.28-11.86,1.61,4.76c.25.76,4.81,15.11-8.91,33.32a63.15,63.15,0,0,1,19-3.17c9.58,0,14.68,2.82,15.23,3.14l4.13,2.42-9.23,10.77L319.63,329,317,333.48c-.48.82-11.57,19.12-35.05,21A29.88,29.88,0,0,1,288.86,366c4.64,14.35-2.87,28.38-3.19,29l-2.17,4-18.74-13.48-5.71,16.59Z"/><path class="a" d="M256.82,267.1,260,292l20.29-12.48s7.18,21.26-24,44.95c16.67-9.63,29.31-12.08,37.84-12.08,8.78,0,13.21,2.59,13.21,2.59l-10.23,11.93,16.44,4.51s-11.32,19.17-35.47,19.17a49.94,49.94,0,0,1-10-1c30,14.34,14.07,43.48,14.07,43.48l-19.44-14-5.9,17.16s-17.89-10-19.61-40.58c-5.16,33.05-24.77,35.88-31.33,35.88a16,16,0,0,1-2.15-.12l.13-21.44-17.23,5.49s-4.92-25.25,30.45-32.08c-35.84-2-37-33.6-37-33.6L203.3,309,192.36,290a30,30,0,0,1,5.66-.47c8.31,0,23.83,2.73,33.08,21.38,3.17-39.91,25.72-43.85,25.72-43.85m6.88-9.32-8.26,1.44c-1,.17-20.75,4-29.07,32.56a42,42,0,0,0-8.61-5.68A44.83,44.83,0,0,0,198,281.57a36.93,36.93,0,0,0-7.33.65l-10.77,2.3,5.52,9.53,4.27,7.38-9.91.36-8,.29.29,8a45.65,45.65,0,0,0,6.15,19.79,41.34,41.34,0,0,0,14.64,14.78,36.32,36.32,0,0,0-8.79,9A32.82,32.82,0,0,0,178.77,377l1.72,8.82,8.57-2.73,6.73-2.14-.06,10.42,0,6.93,6.84,1a23.53,23.53,0,0,0,3.35.21,35,35,0,0,0,21-7.17,39.1,39.1,0,0,0,8.81-9.42c6.85,14.33,16.6,19.94,17.2,20.28l8.36,4.65,3.11-9,2.4-7,10.69,7.69,7.36,5.3,4.34-8c.35-.65,8.65-16.15,3.48-32.12a33.57,33.57,0,0,0-3.4-7.37,51.15,51.15,0,0,0,31.16-21.88l5.32-9-10.09-2.77-4.27-1.18,2-2.34,6.24-7.28-8.28-4.83c-1.05-.62-6.82-3.69-17.24-3.69a61.16,61.16,0,0,0-10.36.93c8.1-15.79,4.33-27.63,4.09-28.36l-3.22-9.52-8.56,5.26-9.71,6-1.59-12.6-1.06-8.32Z"/><path class="a" d="M242.34,329a11,11,0,0,1,2.92.39c4.87,1.29,8,5.45,7,9.28-.81,3.05-4,5-7.73,5a11.07,11.07,0,0,1-2.92-.39c-4.86-1.29-8-5.45-7-9.28.81-3.05,4-5,7.73-5m0-8h0c-7.51,0-13.72,4.38-15.46,10.91-2.15,8.09,3.51,16.64,12.63,19.07a19.19,19.19,0,0,0,5,.66c7.51,0,13.72-4.38,15.46-10.91,2.16-8.09-3.51-16.64-12.62-19.07a19.27,19.27,0,0,0-5-.66Z"/><path class="a" d="M241.27,329.45a23.46,23.46,0,0,1,2-6.58,50.66,50.66,0,0,1,2.88-5.48,98.22,98.22,0,0,1,6.77-9.87,95.65,95.65,0,0,0-3,11.31,44.84,44.84,0,0,0-.81,5.59,16,16,0,0,0,.2,4.93Z"/><path class="a" d="M250.78,332.07a41,41,0,0,1,13.07-.58A74,74,0,0,1,276,333.75a73.08,73.08,0,0,0-11.85,1.73,52.49,52.49,0,0,0-5.54,1.67,28.75,28.75,0,0,0-4.85,2.36Z"/><path class="a" d="M252.69,339.09c.53.78,1.06,1.54,1.56,2.32s1,1.57,1.38,2.4a34.22,34.22,0,0,1,2.17,5,29.11,29.11,0,0,1,1.21,5.21,19.2,19.2,0,0,1,0,5.19,18.27,18.27,0,0,0-1.92-4.56,25.81,25.81,0,0,0-2.81-3.9,28.75,28.75,0,0,0-3.38-3.25c-.58-.51-1.24-.94-1.84-1.4s-1.29-.84-1.92-1.26Z"/><path class="a" d="M237.67,343.17a18.09,18.09,0,0,0-4.23,1.67,37.1,37.1,0,0,0-4.27,2.7,62.68,62.68,0,0,0-7.95,7,64.26,64.26,0,0,1,5-9.7,43.09,43.09,0,0,1,3.36-4.6,26.27,26.27,0,0,1,4.52-4.22Z"/><path class="a" d="M232.46,334a26.33,26.33,0,0,0-2.71-4.74,33.44,33.44,0,0,0-3.78-4.36A42.73,42.73,0,0,0,221.4,321a41.82,41.82,0,0,0-5.18-3.26,42.35,42.35,0,0,1,6.08,1.47,45.86,45.86,0,0,1,5.94,2.36,37.49,37.49,0,0,1,5.69,3.35,33,33,0,0,1,5.17,4.58Z"/><path class="c" d="M411.33,330.71c-.47-.23-8.9-4.51-14.27-16.79-6.81,14.8-19.52,15.73-22.57,15.73-.75,0-1.18,0-1.18,0l-3.39-.38-.21-3.42-.48-10.33-11.56,4.36-1.09-4.36a22.49,22.49,0,0,1,2.8-16,25.79,25.79,0,0,1,8.3-8.37,29.9,29.9,0,0,1-18.59-24.51l-.36-4,14.47-1.29L355,248.78l5.32-1.43a27.5,27.5,0,0,1,6.69-.74,29.92,29.92,0,0,1,20.76,8.13c4-23.06,18.7-26.71,19.4-26.87l4.09-.94,2.94,16.3,13.52-9.34,1.85,4.67c.22.54,3.87,10.23-3.82,23.42A43.86,43.86,0,0,1,439,259.73c6.18,0,9.65,1.7,10,1.89l4.26,2.2-6.16,8,11.26,2.46L456,278.92A35.58,35.58,0,0,1,432.17,296a22.87,22.87,0,0,1,4.38,7.16c4.14,10.83-1,21.88-1.26,22.34l-2,4.09-14.18-9.11-3.52,12.33Z"/><path class="a" d="M408.08,231.77l3.29,18.28,14.5-10s6.13,15.42-16,34.12c13-8.47,22.85-10.43,29.14-10.43,5.39,0,8.19,1.45,8.19,1.45l-7.09,9.2,12.31,2.69s-8.13,15.58-27.26,15.58a38.09,38.09,0,0,1-5.58-.42c22.67,9.42,12.07,31.56,12.07,31.56l-14.89-9.57-3.69,12.9s-13.6-6.67-16.06-29.2c-2.69,26.19-18.8,27.73-22.55,27.73-.51,0-.79,0-.79,0L373,309.79l-12.5,4.72s-4.61-18.45,21.24-24.87c-26.55-.08-28.63-23.37-28.63-23.37l17.11-1.52-8.81-13.54a24.1,24.1,0,0,1,5.65-.6c6.38,0,16.79,2.14,23.77,14.53.79-29.59,17.29-33.37,17.29-33.37m6.38-9.68L406.29,224c-1.1.25-6.86,1.82-12.48,8a39.69,39.69,0,0,0-8.52,15.77A34.48,34.48,0,0,0,367,242.61a31.35,31.35,0,0,0-7.73.88l-10.64,2.86,6,9.23,1.55,2.38-3.84.34-8,.71.71,8a36,36,0,0,0,5.65,15.34,32.7,32.7,0,0,0,9.59,9.56,28.14,28.14,0,0,0-4.39,5.56,26.45,26.45,0,0,0-3.26,19l2.18,8.72,8.41-3.17,2.21-.84.22,4.84.32,6.91,6.9.68c.25,0,.78.06,1.56.06A27.93,27.93,0,0,0,391,328a30.24,30.24,0,0,0,5.9-5.95,42.85,42.85,0,0,0,2.94,4,31.77,31.77,0,0,0,9.74,8.23l8.59,4.21,2.63-9.19.73-2.55,5.84,3.75,7.62,4.9,3.92-8.18c.63-1.32,6.06-13.29,1.39-25.5a26.4,26.4,0,0,0-1.58-3.38,40.28,40.28,0,0,0,20.84-17.59l4.84-9.27-10.21-2.24,5.24-6.8-8.53-4.39c-1.06-.55-5.05-2.34-11.85-2.34a41.88,41.88,0,0,0-6.24.48,37.15,37.15,0,0,0,1.22-4.57c1.6-8.1-.32-13.55-.72-14.56l-3.71-9.34-8.27,5.71-4.28,3L416,230.35l-1.49-8.26Z"/><path class="c" d="M401.52,292.78a12.47,12.47,0,0,1-2.57-.27c-5.79-1.22-9.65-6.3-8.59-11.32.89-4.21,4.94-7.16,9.86-7.16a12.47,12.47,0,0,1,2.57.27c5.79,1.22,9.65,6.3,8.59,11.32C410.49,289.84,406.44,292.78,401.52,292.78Z"/><path class="a" d="M400.22,278a8.22,8.22,0,0,1,1.75.19c3.64.77,6.1,3.71,5.49,6.58-.5,2.4-3,4-5.94,4a8.72,8.72,0,0,1-1.74-.18c-3.65-.77-6.11-3.72-5.5-6.58.5-2.4,3-4,5.94-4m0-8h0c-6.83,0-12.49,4.25-13.77,10.34-1.52,7.18,3.72,14.38,11.67,16.06a17.06,17.06,0,0,0,3.4.35c6.83,0,12.49-4.24,13.77-10.33,1.52-7.18-3.72-14.38-11.67-16.06a16.37,16.37,0,0,0-3.4-.36Z"/><path class="c" d="M402,278.22c-.38-5.74,4.79-16.45,4.79-16.45"/><path class="a" d="M398,278.48a17.25,17.25,0,0,1,1.5-5.17,37,37,0,0,1,2.18-4.16,72.53,72.53,0,0,1,5.11-7.38,70.36,70.36,0,0,0-1.31,8.63,30.8,30.8,0,0,0-.11,4.16A9.51,9.51,0,0,0,406,278Z"/><path class="c" d="M407.37,282.67c6.91-3.16,17.43-2.43,17.43-2.43"/><path class="a" d="M405.71,279a30.39,30.39,0,0,1,10-.51,54.71,54.71,0,0,1,9.09,1.72,51.56,51.56,0,0,0-8.63,2.26,37.21,37.21,0,0,0-3.9,1.68,18.83,18.83,0,0,0-3.23,2.13Z"/><path class="c" d="M405.9,287.33c7.08,6.09,7.39,12.39,7.39,12.39"/><path class="a" d="M408.51,284.3c.41.6.82,1.18,1.2,1.79s.74,1.21,1.06,1.85a25.14,25.14,0,0,1,1.65,3.87,21.81,21.81,0,0,1,.89,4,13.9,13.9,0,0,1,0,3.92,13.09,13.09,0,0,0-1.84-3.2,18.68,18.68,0,0,0-2.42-2.59,21.35,21.35,0,0,0-2.77-2c-.47-.31-1-.56-1.47-.83s-1-.48-1.5-.71Z"/><path class="c" d="M395.44,286.11c-5.5,3.09-10.25,11.59-10.25,11.59"/><path class="a" d="M397.4,289.59a11.41,11.41,0,0,0-3,1.06,26.11,26.11,0,0,0-3.17,1.93,44.83,44.83,0,0,0-6,5.12,47.48,47.48,0,0,1,2.92-7.69,30.16,30.16,0,0,1,2.18-3.76,19.23,19.23,0,0,1,3.19-3.63Z"/><path class="c" d="M395.05,280.33c-5.38-7.17-15-9.57-15-9.57"/><path class="a" d="M391.85,282.73A17.49,17.49,0,0,0,390,279.3a22.55,22.55,0,0,0-2.72-3.22,31.32,31.32,0,0,0-7.21-5.32,33.45,33.45,0,0,1,9.3,1.92,27.92,27.92,0,0,1,4.57,2.1,24.9,24.9,0,0,1,4.32,3.15Z"/><path class="c" d="M314.9,467.21c-.43-.3-8.09-5.86-11.47-18.85-7.25,10.82-16.79,12.28-21.39,12.28a19.12,19.12,0,0,1-4.52-.48l-3.35-.87,1.53-13.73-12.1,2.5-.39-4.48a22.6,22.6,0,0,1,5.27-15.34,25.9,25.9,0,0,1,9.51-7,29.9,29.9,0,0,1-14.52-27.11l.28-4,14.49,1-6.12-13.71,5.48-.58c.12,0,.8-.08,1.88-.08,4,0,15.86,1,24.07,11.68,7.6-22.14,22.66-23.44,23.38-23.49l4.18-.29.34,16.56,14.82-7.1,1.1,4.9c.13.57,2.22,10.7-7.43,22.52a48.73,48.73,0,0,1,7.39-.58c10.08,0,15.12,3.49,15.67,3.89l3.86,2.84-7.34,6.94,10.73,4.2-3.12,4.2a35.68,35.68,0,0,1-26.22,13.13,22.67,22.67,0,0,1,3.22,7.77c2.39,11.34-4.46,21.44-4.76,21.86l-2.57,3.73-12.57-11.22L318.81,470Z"/><path class="a" d="M327.2,369l.38,18.57,15.89-7.61s3.64,16.19-21.12,31.2c10.62-4.73,18.89-6.14,25-6.14,9.05,0,13.3,3.11,13.3,3.11l-8.45,8,11.74,4.59a31.69,31.69,0,0,1-24.15,11.53,35.43,35.43,0,0,1-10.66-1.71c20.91,12.86,7,33.06,7,33.06l-13.21-11.78-5.67,12.16s-12.38-8.72-11.28-31.36c-5.65,21.27-17.86,24.06-23.88,24.06a15.48,15.48,0,0,1-3.51-.35l1.76-15.76-13.1,2.7s-1.66-18.94,24.88-21.23c-26.2-4.25-24.61-27.57-24.61-27.57l17.14,1.19L278,380.86a14.41,14.41,0,0,1,1.46-.06c4.64,0,19.09,1.42,25.41,18.43C310.31,370.13,327.2,369,327.2,369m7.82-8.55-8.37.57c-1.12.07-7,.72-13.58,5.95a39.67,39.67,0,0,0-10.88,14.21,35.23,35.23,0,0,0-22.71-8.36,19.84,19.84,0,0,0-2.3.11l-11,1.15,4.49,10.06,1.16,2.6-3.85-.27-8-.55-.55,8a36.06,36.06,0,0,0,3.17,16,32.72,32.72,0,0,0,8,10.94,28.08,28.08,0,0,0-5.21,4.81,26.43,26.43,0,0,0-6.2,18.26l.79,9,8.8-1.82,2.31-.48-.54,4.81-.76,6.88,6.7,1.75a23.09,23.09,0,0,0,5.52.61,28.51,28.51,0,0,0,20-8.25,41.18,41.18,0,0,0,2.26,4.43,31.86,31.86,0,0,0,8.34,9.66l7.82,5.51,4-8.67,1.12-2.41,5.18,4.62,6.76,6,5.15-7.46c.83-1.21,8.07-12.18,5.37-25a26.49,26.49,0,0,0-1-3.6,40.33,40.33,0,0,0,23.35-14.09l6.23-8.4-9.73-3.81,6.24-5.9-7.73-5.67c-1-.77-6.76-4.57-17.58-4.67a37.47,37.47,0,0,0,1.92-4.32c2.86-7.75,1.81-13.43,1.58-14.5l-2.2-9.8L340,372.72,335.32,375l-.12-6.16-.18-8.38Z"/><path class="c" d="M313,428.36a12,12,0,0,1-4.37-.82,11.71,11.71,0,0,1-5.9-4.83A8.82,8.82,0,0,1,302,415a9.34,9.34,0,0,1,9-5.68,12.26,12.26,0,0,1,4.37.82,11.72,11.72,0,0,1,5.9,4.84,8.81,8.81,0,0,1,.8,7.69C320.7,426.14,317.17,428.36,313,428.36Z"/><path class="a" d="M310.94,413.34a8.22,8.22,0,0,1,2.94.56c3.48,1.33,5.44,4.62,4.4,7.36a5.37,5.37,0,0,1-5.25,3.1,8.13,8.13,0,0,1-2.94-.55c-3.48-1.33-5.45-4.63-4.4-7.37.75-2,2.84-3.1,5.25-3.1m0-8h0c-5.81,0-10.81,3.24-12.72,8.25a12.8,12.8,0,0,0,1.1,11.17,15.77,15.77,0,0,0,7.91,6.52,16.15,16.15,0,0,0,5.8,1.08c5.81,0,10.8-3.23,12.72-8.24,2.62-6.85-1.42-14.79-9-17.69a16.17,16.17,0,0,0-5.8-1.09Z"/><path class="c" d="M313.88,413.9c.53-5.73,7.31-15.5,7.31-15.5"/><path class="a" d="M309.9,413.53a17,17,0,0,1,2.28-4.87A36.78,36.78,0,0,1,315,404.9a72.27,72.27,0,0,1,6.2-6.5,69,69,0,0,0-2.64,8.32,33.25,33.25,0,0,0-.77,4.09,9.64,9.64,0,0,0,.08,3.45Z"/><path class="c" d="M318.52,419.14c7.31-2,17.6.34,17.6.34"/><path class="a" d="M317.45,415.29a30.06,30.06,0,0,1,10,1.07,53.84,53.84,0,0,1,8.71,3.12,51.7,51.7,0,0,0-8.88.87,35,35,0,0,0-4.12,1.06,18.48,18.48,0,0,0-3.53,1.59Z"/><path class="c" d="M316.33,423.51c6,7.13,5.36,13.4,5.36,13.4"/><path class="a" d="M319.39,420.93c.31.66.62,1.3.9,1.95s.55,1.32.76,2a25.9,25.9,0,0,1,1,4.08,21.68,21.68,0,0,1,.26,4.08,14.12,14.12,0,0,1-.64,3.87,13.38,13.38,0,0,0-1.31-3.45,19.68,19.68,0,0,0-2-2.94,21.36,21.36,0,0,0-2.42-2.43c-.41-.38-.89-.71-1.31-1s-.93-.64-1.38-.94Z"/><path class="c" d="M306.2,420.67c-5.91,2.19-11.95,9.84-11.95,9.84"/><path class="a" d="M307.59,424.42a11.21,11.21,0,0,0-3.17.57,25.9,25.9,0,0,0-3.44,1.4,44.68,44.68,0,0,0-6.73,4.12,47,47,0,0,1,4.1-7.13,30.27,30.27,0,0,1,2.74-3.38,19.09,19.09,0,0,1,3.72-3.09Z"/><path class="c" d="M306.72,414.9c-4.19-7.93-13.3-11.8-13.3-11.8"/><path class="a" d="M303.19,416.77a18.48,18.48,0,0,0-1.31-3.68,22.87,22.87,0,0,0-2.18-3.6,31.12,31.12,0,0,0-6.28-6.39,33.36,33.36,0,0,1,8.88,3.35,28.42,28.42,0,0,1,4.18,2.79,25.56,25.56,0,0,1,3.78,3.79Z"/><path class="b" d="M467.58,354.46a22.51,22.51,0,0,1-8.24-14,25.73,25.73,0,0,1,.87-11.73,29.09,29.09,0,0,1-9.41,1.58,31.61,31.61,0,0,1-20.64-8.18l-2.86-2.8L437.47,309l-14.39-4.25,3.12-4.54c.34-.5,8.57-12.23,24.11-12.23.52,0,1,0,1.56,0-11.9-20.16-3.12-32.46-2.68-33l2.5-3.37,12.81,10.49,4.22-15.88,4.45,2.35c.51.27,9.58,5.27,12.3,20.3,8.12-13,17-15.29,17.48-15.41l4.67-1.1.51,10.09L518.29,257l1.17,5.11c1.42,6.15,1.06,18.21-7.1,28.47,13.16,1.73,19.84,13.8,21.6,20.41l1.16,4.38-16.69,2.27,5.32,11.67-4.64,1.18a21.76,21.76,0,0,1-5.21.53A38.29,38.29,0,0,1,497.3,327c4,14.12-2.54,23.7-7.82,27.39l-2.84,2-9.44-10.08-6,10.83Z"/><path class="a" d="M471.3,252.09s14.67,7.75,10,36.32c8.2-27.7,22.56-31.07,22.56-31.07l.58,11.6L515.57,263s4.69,20.44-15.15,32.85a28.17,28.17,0,0,1,8.69-1.48c16.29,0,21,17.65,21,17.65l-17.53,2.39,5.56,12.21a18.59,18.59,0,0,1-4.22.4c-5.53,0-15.82-1.71-26.95-12.19,17,24.56.24,36.23.24,36.23l-10.84-11.57L469.9,351.2s-15.49-11,0-32.71c-7,5.91-13.51,7.85-19.1,7.85a27.61,27.61,0,0,1-17.84-7L445,307l-15.49-4.57s7.2-10.5,20.81-10.5a30.73,30.73,0,0,1,10.61,2c-18.62-23-8.52-36.61-8.52-36.61l14.37,11.77,4.53-17m-5.15-11.76L463.57,250l-1.34,5-4.77-3.9L451,245.85l-5,6.73c-.67.9-4,5.84-4.29,14.19a39.68,39.68,0,0,0,3.76,17.55,35.11,35.11,0,0,0-22.54,13.62L416.67,307l10.56,3.12,2.73.8-2.71,2.76-5.6,5.72,5.71,5.6a35.37,35.37,0,0,0,23.44,9.32,32.77,32.77,0,0,0,4.32-.29,28.05,28.05,0,0,0,.27,7.1,26.42,26.42,0,0,0,9.87,16.57l7.32,5.22,4.33-7.88L478,353l3.32,3.53,4.73,5.05,5.68-4A27,27,0,0,0,501,344.76a29.06,29.06,0,0,0,1.49-11.5A39.78,39.78,0,0,0,513.9,335a26.25,26.25,0,0,0,6.21-.65l9.26-2.37-4-8.7-1.1-2.42,6.87-.94,9-1.22L537.83,310c-1.73-6.49-7.65-17.58-18.92-21.85a39.83,39.83,0,0,0,4.45-26.9L521,251l-9.21,4.93-.44-8.57L502,249.56c-1.16.27-7.82,2.13-15,10.34a34.9,34.9,0,0,0-2-4.27c-4-7.21-9-10.1-10-10.61l-8.88-4.69Z"/><path class="b" d="M479.17,311a9,9,0,0,1-8.16-4.53c-2.45-4.5-.22-10.47,5-13.3a12,12,0,0,1,5.73-1.5,9.06,9.06,0,0,1,8.16,4.53,8.83,8.83,0,0,1,.22,7.73,11.74,11.74,0,0,1-5.2,5.58A12,12,0,0,1,479.17,311Z"/><path class="a" d="M481.72,295.64a5.09,5.09,0,0,1,4.64,2.45c1.41,2.57-.11,6.1-3.38,7.88a8,8,0,0,1-3.81,1,5.08,5.08,0,0,1-4.64-2.44c-1.41-2.57.11-6.1,3.38-7.88a8,8,0,0,1,3.81-1m0-8h0a16.11,16.11,0,0,0-7.64,2c-7.14,3.89-10.09,12.29-6.58,18.74A13,13,0,0,0,479.17,315a16,16,0,0,0,7.64-2c7.14-3.88,10.09-12.29,6.58-18.73a13,13,0,0,0-11.67-6.62Z"/><path class="b" d="M477.91,296.65c-4-4.12-7-15.63-7-15.63"/><path class="a" d="M475,299.44a17,17,0,0,1-2.21-4.9,36.24,36.24,0,0,1-1.05-4.58,72.23,72.23,0,0,1-.91-8.94,69.07,69.07,0,0,0,4.61,7.42,30.67,30.67,0,0,0,2.62,3.23,9.4,9.4,0,0,0,2.67,2.19Z"/><path class="b" d="M484.91,296.52c3.2-6.88,11.68-13.16,11.68-13.16"/><path class="a" d="M481.28,294.84a30.47,30.47,0,0,1,7.28-6.88,53.88,53.88,0,0,1,8-4.6,52,52,0,0,0-5.1,7.32,37.32,37.32,0,0,0-1.87,3.82,19.16,19.16,0,0,0-1.08,3.71Z"/><path class="b" d="M486.81,301c9.35,0,13.67,4.62,13.67,4.62"/><path class="a" d="M486.83,297c.7.19,1.39.37,2.07.58s1.36.44,2,.72a25.33,25.33,0,0,1,3.76,1.87,21.13,21.13,0,0,1,3.27,2.45,14.05,14.05,0,0,1,2.53,3,13,13,0,0,0-3.48-1.24,19.38,19.38,0,0,0-3.52-.4,20.33,20.33,0,0,0-3.42.26c-.55.07-1.12.22-1.65.32s-1.09.29-1.61.44Z"/><path class="b" d="M478.07,306.88c-2.18,5.92-.27,15.48-.27,15.48"/><path class="a" d="M481.82,308.26A11.77,11.77,0,0,0,480.2,311a25.62,25.62,0,0,0-1.17,3.53,44.74,44.74,0,0,0-1.23,7.79,47.31,47.31,0,0,1-2.77-7.74,31.5,31.5,0,0,1-.79-4.28,19.27,19.27,0,0,1,.07-4.84Z"/><path class="b" d="M474,302.74c-8.75-2-17.61,2.46-17.61,2.46"/><path class="a" d="M473.15,306.65a17.4,17.4,0,0,0-3.65-1.4,22.9,22.9,0,0,0-4.15-.68,31.28,31.28,0,0,0-8.94.63,32.78,32.78,0,0,1,8.31-4.58,27.72,27.72,0,0,1,4.85-1.37,25.05,25.05,0,0,1,5.33-.41Z"/><path class="b" d="M392.48,484.81l-9.91,16-3.52-2.79A31.41,31.41,0,0,1,368.59,478c-.76-6.55.46-13.34,3.62-20.31a42.42,42.42,0,0,1-15.35,2.95c-18.39,0-30.2-12.57-30.7-13.11l-2.71-2.94,16.81-15.5-21.56-7.56,3.34-4.38c.49-.64,12.17-15.65,32.9-15.65a44.58,44.58,0,0,1,8.15.77c-18.45-31.78-4.27-49.66-3.6-50.48l2.66-3.23,19,17.18,7.63-23.8,4.32,2.57c.76.45,15.14,9.36,16.28,35.15,13.45-22.33,28.12-25.28,28.89-25.42l4.72-.86v15.74l16-7.53.92,5.15c.05.29,4,24.46-14.76,42.83,20.87,1.59,30.44,20.6,32.63,30.86l.94,4.43L453.28,447l7.13,18-4.69.95a26.76,26.76,0,0,1-5.18.41c-6.36,0-17.29-1.48-29.67-9.5,2.82,8.79,3.72,18.52,0,27.88a32.33,32.33,0,0,1-11.52,14.64l-2.93,1.83Z"/><path class="a" d="M391,348s21.2,12.59,12.15,54.64C417.4,362.11,439,358.18,439,358.18v17.26l16.94-8s5.43,30.68-24.93,47.62a43.45,43.45,0,0,1,11.27-1.6c25.64,0,31.55,27.8,31.55,27.8l-26.2,2.24L454.93,462a24,24,0,0,1-4.39.33c-7.58,0-23.94-2.39-41-20.14C432.88,479.94,407.2,496,407.2,496L392,478l-10.44,16.91s-22.15-17.55,2.45-48.54c-10,7.65-19.22,10.26-27.12,10.26-16.85,0-27.76-11.82-27.76-11.82l18.77-17.3-22.65-7.95s10.73-14.07,29.72-14.07a44.73,44.73,0,0,1,17.54,3.8c-25.9-35.55-9.91-55-9.91-55L383,372.88,391,348m-4.55-12-3.06,9.56-4.2,13.11-11.26-10.2-6.21-5.63-5.33,6.47c-.7.84-14.5,18.23-.32,48.26h-1.14c-22.68,0-35.55,16.52-36.08,17.22l-6.68,8.76,10.39,3.64,10.09,3.54-9,8.27-5.89,5.43,5.43,5.88c.55.59,13.52,14.4,33.64,14.4a44.84,44.84,0,0,0,8.92-.9,39.39,39.39,0,0,0-1.17,14.72,35.09,35.09,0,0,0,12,22.73l7,5.58,4.73-7.65L393,491.6l8.11,9.57,4.47,5.28,5.87-3.67a36,36,0,0,0,13.11-16.54,41,41,0,0,0,2.28-21.48,55.87,55.87,0,0,0,23.71,5.61,30.74,30.74,0,0,0,6-.49l9.37-1.9-3.52-8.88L459,450.56l15.48-1.32,9-.77-1.88-8.86a52,52,0,0,0-7.35-16.71c-5.53-8.2-12.81-13.63-21.4-16a55,55,0,0,0,10.9-40.82l-1.82-10.31-9.47,4.46L447,362.82V348.59l-9.43,1.72c-1.25.23-7.91,1.72-16.28,8.78a65.56,65.56,0,0,0-9.26,9.65c-4.17-19.82-16.15-27.23-16.88-27.66L386.46,336Z"/><path class="a" d="M402.69,413.35c3.19,0,6,1.41,7.24,4,1.89,3.93-.62,9.05-5.6,11.45a12.22,12.22,0,0,1-5.2,1.22c-3.2,0-6-1.42-7.25-4-1.88-3.92.63-9,5.61-11.44a12,12,0,0,1,5.2-1.22m0-8h0a20.12,20.12,0,0,0-8.67,2c-8.95,4.31-13.14,14.23-9.34,22.12,2.52,5.26,8.06,8.52,14.45,8.52a20.19,20.19,0,0,0,8.66-2,19.57,19.57,0,0,0,9.1-8.84,15.15,15.15,0,0,0,.25-13.29c-2.53-5.25-8.06-8.51-14.45-8.51Z"/><path class="a" d="M394.49,417.21a25.7,25.7,0,0,1-3.07-6.78,55.54,55.54,0,0,1-1.6-6.57,107.53,107.53,0,0,1-1.6-13,106.69,106.69,0,0,0,5.37,11.67,49.55,49.55,0,0,0,3.24,5.3,18.44,18.44,0,0,0,3.66,4.1Z"/><path class="a" d="M404.35,413a40,40,0,0,1,4.88-5.48,63,63,0,0,1,5.4-4.4,81.54,81.54,0,0,1,11.58-6.91,79.25,79.25,0,0,0-8.79,9.78,57.92,57.92,0,0,0-3.52,5.3,32.64,32.64,0,0,0-2.47,5.44Z"/><path class="a" d="M410.6,417.74c1,.25,2,.48,2.93.76s1.93.58,2.86,1a37.38,37.38,0,0,1,5.39,2.53,31.26,31.26,0,0,1,4.76,3.39,20.7,20.7,0,0,1,3.78,4.23,19.48,19.48,0,0,0-4.82-2.52,29.43,29.43,0,0,0-5.11-1.35,32.11,32.11,0,0,0-5.16-.39c-.84,0-1.71.06-2.55.09s-1.69.19-2.52.27Z"/><path class="a" d="M400.64,431.34a21.19,21.19,0,0,0-2.26,4.52,42,42,0,0,0-1.53,5.35c-.41,1.85-.71,3.75-1,5.68s-.41,3.87-.48,5.83c-.59-1.88-1.08-3.79-1.52-5.74s-.79-3.91-1-5.93a46.49,46.49,0,0,1-.39-6.2,28.71,28.71,0,0,1,.82-6.65Z"/><path class="a" d="M390.2,427.17a29.67,29.67,0,0,0-5.73-1.92,36.18,36.18,0,0,0-6.31-.83,46.77,46.77,0,0,0-6.58.14,45.79,45.79,0,0,0-6.63,1.08,47.4,47.4,0,0,1,6.15-3,50.43,50.43,0,0,1,6.63-2.18,41.27,41.27,0,0,1,7.1-1.18,36.52,36.52,0,0,1,7.51.21Z"/><path class="d" d="M491.17,513.2a49.18,49.18,0,0,1-16.46-2.52,30.31,30.31,0,0,1-17.93-16.95c-2.19-5.59-2.12-11.16.22-15.69a20.45,20.45,0,0,1,18.77-11.23,32.7,32.7,0,0,1,12.81,2.87c15.67,6.7,26.63,34.09,27.09,35.26l1.61,4.09-4.23,1.22a88.28,88.28,0,0,1-21.88,3Z"/><path class="a" d="M475.77,470.81A28.88,28.88,0,0,1,487,473.35c14.32,6.13,24.95,33.06,24.95,33.06a84.94,84.94,0,0,1-20.78,2.79,45.3,45.3,0,0,1-15.11-2.29c-12.84-4.59-20-18.24-15.5-27a16.34,16.34,0,0,1,15.21-9.06m0-8a24.3,24.3,0,0,0-22.32,13.39c-2.88,5.58-3,12.32-.39,19a34.28,34.28,0,0,0,20.31,19.25,52.69,52.69,0,0,0,17.8,2.76,92.36,92.36,0,0,0,23-3.11l8.47-2.43-3.23-8.19c-1.22-3.08-12.34-30.24-29.24-37.47a36.69,36.69,0,0,0-14.38-3.19Z"/><path class="d" d="M472.35,481.87c11.65,3,17.59,9.19,17.59,9.19"/><path class="a" d="M472.45,481.48a8.21,8.21,0,0,1,6.08-1.85,5.37,5.37,0,0,1,1.34.33,5.42,5.42,0,0,1,1.18.74c.73.58,1.39,1.31,2.12,1.84s1.43,1.14,2.09,1.76,1.3,1.3,1.9,2a21.12,21.12,0,0,1,3.07,4.51.42.42,0,0,1-.2.56.45.45,0,0,1-.34,0l0,0a47.77,47.77,0,0,0-4.74-1.75c-.77-.27-1.56-.5-2.34-.7s-1.55-.44-2.3-.65a13.8,13.8,0,0,0-2.41-.29,4.08,4.08,0,0,1-2.13-.82,9.81,9.81,0,0,1-1.81-1.87,11.73,11.73,0,0,1-1.67-3v0A.67.67,0,0,1,472.45,481.48Z"/><path class="c" d="M52.84,468.4a5.92,5.92,0,0,1-5.17-2.74,8.23,8.23,0,0,1-.85-5.53H46.4c-4.2,0-5.89-2.15-6.52-3.43-1.85-3.75.84-8,3.39-11.37l.23-.31.29-.25c7.87-7,18.48-7.75,22.68-7.75,1.27,0,2.06.07,2.15.07l3.76.34-.11,3.77c0,.61-.58,14.89-10.56,23.75l-.29.26-.33.19C57.65,467.45,55,468.4,52.84,468.4Z"/><path class="a" d="M66.47,441c1.13,0,1.8.06,1.8.06s-.41,13.06-9.22,20.88c-2.94,1.75-4.92,2.43-6.21,2.43-4.8,0-.09-9.53-.09-9.53a23.41,23.41,0,0,1-6.35,1.27c-3.09,0-5.15-1.6,0-8.37,6.82-6,16.16-6.74,20-6.74m0-8h0c-4.65,0-16.44.85-25.34,8.76l-.57.51-.46.6c-1.92,2.49-7,9.12-3.81,15.58a10,10,0,0,0,6.53,5.21,10.47,10.47,0,0,0,1.45,4.08,9.82,9.82,0,0,0,8.57,4.63c3,0,6.16-1.09,10.29-3.55l.66-.39.57-.51c11.07-9.83,11.85-24.92,11.9-26.61l.24-7.56L69,433.12c-.17,0-1.09-.09-2.5-.09Z"/><path class="b" d="M163.22,544.19a5.76,5.76,0,0,1-4.17-1.8,9.18,9.18,0,0,1-2.06-3.85,9.4,9.4,0,0,1-4,1.06h0a5.76,5.76,0,0,1-4.6-2.17c-1.75-2.21-2-5.56-.75-10.88l.08-.37.16-.35c5.41-12.21,18.85-17.07,19.42-17.27l3.56-1.26,1.46,3.49c.23.55,5.64,13.78.23,26l-.16.34-.21.32C168.92,542.11,166.16,544.19,163.22,544.19Z"/><path class="a" d="M168.62,512.33s5,12,.26,22.82c-2.57,3.7-4.39,5-5.66,5-3.3,0-3-8.89-3-8.89s-4.46,4.3-7.22,4.3c-1.82,0-2.91-1.88-1.46-8.15,4.78-10.77,17.1-15.12,17.1-15.12m4.46-10.06L166,504.79c-1.59.56-15.74,5.89-21.74,19.42l-.31.7-.17.74c-1,4.46-1.79,10.1,1.52,14.27A9.82,9.82,0,0,0,153,543.6a10.25,10.25,0,0,0,1.83-.17,11.1,11.1,0,0,0,1.36,1.74,9.75,9.75,0,0,0,7.05,3c5.62,0,9.49-4.53,12.23-8.47l.44-.62.3-.7c6-13.53.46-27.6-.19-29.16l-2.92-7Z"/><path class="b" d="M394.45,664.33c-.49-.22-9.19-4.41-14.9-16.85a28.31,28.31,0,0,1-8.9,11.7,23.89,23.89,0,0,1-14.08,4.88c-.53,0-.82,0-.82,0l-3.41-.3-.27-3.41-.73-10.59-11.67,4.69-1.18-4.33A22.91,22.91,0,0,1,341,633.84a26.21,26.21,0,0,1,8.35-8.75,30.36,30.36,0,0,1-19.51-24.49l-.45-4L344.1,595l-8.61-12.62,5.28-1.55a28.64,28.64,0,0,1,7.47-.91,30.39,30.39,0,0,1,20.62,7.9c3.56-23.6,18.4-27.64,19.11-27.82l4.07-1,3.35,16.54,13.56-9.8,1.95,4.63c.23.55,4.17,10.36-3.46,24a44.09,44.09,0,0,1,14.33-2.63,22.83,22.83,0,0,1,9.47,1.7l4.3,2.11-6.1,8.28L441,606.06l-2.33,4.69a36.1,36.1,0,0,1-23.92,17.87,23.07,23.07,0,0,1,4.68,7.26c4.44,10.89-.58,22.2-.79,22.68l-1.87,4.13-14.63-9-3.32,12.62Z"/><path class="a" d="M389,563.88l3.75,18.52,14.52-10.5s6.56,15.55-15.49,35c13.51-9.2,23.68-11.24,30-11.24a19.05,19.05,0,0,1,7.71,1.29l-7,9.51L435.05,609a32.11,32.11,0,0,1-28.15,16.44,38.49,38.49,0,0,1-4.91-.32c23.25,9.09,13,31.82,13,31.82l-15.34-9.4-3.48,13.19s-14-6.48-17-29.33c-2.22,27.4-19.38,28.69-22.6,28.69-.33,0-.51,0-.51,0L355,644,342.35,649s-5.09-18.66,21-25.75h-.84c-26.2,0-28.77-23.13-28.77-23.13l17.36-1.92-9.25-13.57a24.67,24.67,0,0,1,6.34-.75c6.53,0,16.73,2.22,23.86,14.27.16-30.1,16.85-34.31,16.85-34.31m6.18-9.8-8.13,2c-1.11.27-6.89,2-12.45,8.37a40.37,40.37,0,0,0-8.34,16.34,34.81,34.81,0,0,0-18-4.92,32.21,32.21,0,0,0-8.59,1.07l-10.57,3.09,6.21,9.1,1.75,2.57-4.13.45-8,.88.88,8a36.36,36.36,0,0,0,5.89,15.17A33.26,33.26,0,0,0,342,626a28.43,28.43,0,0,0-4.44,5.84,26.71,26.71,0,0,0-2.88,19.29l2.36,8.67,8.34-3.35,2.4-1,.34,5.1.48,6.91,6.9.52c.18,0,.57,0,1.12,0a28,28,0,0,0,16.49-5.68,30.74,30.74,0,0,0,6.5-6.72,42.37,42.37,0,0,0,3.16,4.18,32.23,32.23,0,0,0,10,8.12l8.68,4,2.43-9.25.73-2.79,6.17,3.78,7.73,4.74,3.74-8.26c.61-1.35,5.85-13.59.86-25.84a26.18,26.18,0,0,0-1.75-3.53,40.72,40.72,0,0,0,20.87-18.32l4.64-9.38-10.27-2-.19,0,5.21-7.07L433,589.81c-1-.5-4.81-2.11-11.22-2.11a42,42,0,0,0-7.35.67,38.86,38.86,0,0,0,1.2-4.87c1.45-8.23-.61-13.7-1-14.71l-3.92-9.26-8.14,5.89-4.45,3.22-1.29-6.34-1.66-8.22Z"/><path class="a" d="M382.15,611.09a8,8,0,0,1,1.6.15c3.72.7,6.29,3.64,5.74,6.57-.48,2.5-3.07,4.18-6.14,4.18a8.83,8.83,0,0,1-1.6-.15c-3.72-.7-6.28-3.65-5.73-6.57.47-2.5,3.07-4.18,6.13-4.18m0-8h0c-7,0-12.8,4.39-14,10.69-1.37,7.26,4.06,14.4,12.11,15.92a16.9,16.9,0,0,0,3.08.29c7,0,12.81-4.4,14-10.7a12.86,12.86,0,0,0-3.1-10.86,15.85,15.85,0,0,0-9-5,16.09,16.09,0,0,0-3.09-.29Z"/><path class="a" d="M379.77,611.58a16.89,16.89,0,0,1,1.39-5.26,35.48,35.48,0,0,1,2.11-4.28,70.63,70.63,0,0,1,5-7.63,70.83,70.83,0,0,0-1.18,8.8,33.16,33.16,0,0,0,0,4.22,9.88,9.88,0,0,0,.69,3.46Z"/><path class="a" d="M387.6,612a30.8,30.8,0,0,1,10.14-.76A55,55,0,0,1,407,612.8a53.76,53.76,0,0,0-8.73,2.44,37.2,37.2,0,0,0-3.93,1.79,18.42,18.42,0,0,0-3.26,2.22Z"/><path class="a" d="M390.49,617.33c.43.6.86,1.18,1.26,1.78s.79,1.21,1.13,1.86a28,28,0,0,1,1.77,3.87,22.43,22.43,0,0,1,1,4,14.38,14.38,0,0,1,.07,4,13.46,13.46,0,0,0-1.92-3.22A18.69,18.69,0,0,0,391.3,627a20.49,20.49,0,0,0-2.85-2c-.48-.31-1-.55-1.5-.82s-1-.47-1.55-.7Z"/><path class="a" d="M379.33,622.84a11.54,11.54,0,0,0-3.07,1.17,25.39,25.39,0,0,0-3.18,2,46.62,46.62,0,0,0-6,5.36,49.1,49.1,0,0,1,2.83-7.86,32.16,32.16,0,0,1,2.14-3.86,19.52,19.52,0,0,1,3.17-3.74Z"/><path class="a" d="M373.62,616a18.07,18.07,0,0,0-2-3.44,22.94,22.94,0,0,0-2.85-3.2,31.8,31.8,0,0,0-7.45-5.23,34.09,34.09,0,0,1,9.47,1.78,27.84,27.84,0,0,1,4.68,2.05,24.77,24.77,0,0,1,4.44,3.11Z"/><path class="c" d="M154,674.41l-7.52,7.72-2.84-3.48a20.47,20.47,0,0,1-3.83-14.16,23,23,0,0,1,3.1-9.21h-.76c-15.09,0-22.47-12.4-22.78-12.93l-2-3.46,10.8-6.27L117,625.71l4.21-3.54A27.87,27.87,0,0,1,138,616.36a26.15,26.15,0,0,1,7.53,1.11c-5-19.64,5.33-28,5.84-28.38l3.3-2.58,8.3,11.72,7.24-12.39,3.66,3.45c.37.35,6.67,6.49,5.93,19.29,8.78-7.74,15.91-8.28,17.71-8.28h.23l4.79.19L200.65,609l9.79-2.21-.23,5.22A31.66,31.66,0,0,1,198,634.43a20.38,20.38,0,0,1,5.95,4.19c7.17,7.24,7.16,17.89,7.15,18.34l0,4.53-14.62-2,1.77,11.1-4.78-.09c-.46,0-8.5-.27-17.23-7.57-.34,12.52-8,19-13.38,20.86L159.52,685Z"/><path class="a" d="M171.14,592.2s10.66,10,0,33.22c12.86-20.66,25.3-21.12,26.38-21.12h.08l-2.23,10,10.84-2.45s-.8,18.47-20.57,24.38c.46,0,.91,0,1.36,0,20.26,0,20.07,20.72,20.07,20.72l-15.47-2.08,1.88,11.69s-13.36-.25-23.74-17.33c8.66,24.86-8.29,30.85-8.29,30.85L155,667.68l-8.23,8.44s-10.58-13,7.67-27.8a29.11,29.11,0,0,1-12.27,3c-13,0-19.32-10.94-19.32-10.94l13.1-7.61-12.1-7.52A23.89,23.89,0,0,1,138,620.36a24.61,24.61,0,0,1,14.49,5c-10.42-23.93,1.34-33.12,1.34-33.12l9.46,13.37,7.84-13.41m-1.84-12.71-5.07,8.67-1.57,2.7-2.29-3.24-4.84-6.85-6.61,5.16c-.82.65-5,4.21-7.3,11.53a35.27,35.27,0,0,0-1.12,15c-.82-.07-1.65-.11-2.49-.11a31.77,31.77,0,0,0-19.37,6.75l-8.42,7.09,9.36,5.82.79.49-1.59.92-6.92,4,4,6.92a31.77,31.77,0,0,0,21,14.46,26.39,26.39,0,0,0-1.11,5.25,24.3,24.3,0,0,0,4.71,17.09l5.67,7,6.27-6.44.54-.56,1.38,2.63,3.22,6.12,6.53-2.31a24.38,24.38,0,0,0,11.32-9.12,26.37,26.37,0,0,0,3.81-8.47c1,.59,1.95,1.08,2.83,1.5a29.21,29.21,0,0,0,11.25,3l9.56.17-1.51-9.44-.17-1,4.8.64,9,1.21.08-9.07c0-1.29-.12-12.92-8.31-21.19a23.77,23.77,0,0,0-2.12-1.9,36.62,36.62,0,0,0,9.57-21.7l.45-10.46-8.74,2,1.53-6.89-9.55-.52h-.38c-1.63,0-7.05.36-14.06,4.65-.15-.93-.33-1.85-.55-2.75-1.81-7.33-5.55-11.14-6.29-11.83l-7.32-6.88Z"/><path class="c" d="M166.75,644.94c-4.44,0-8.16-2.67-9.05-6.5a8.23,8.23,0,0,1,1.71-7,10.87,10.87,0,0,1,6-3.69,11.55,11.55,0,0,1,2.61-.3c4.44,0,8.16,2.67,9.05,6.49,1.09,4.66-2.37,9.46-7.71,10.71A11.41,11.41,0,0,1,166.75,644.94Z"/><path class="a" d="M168,631.43c2.52,0,4.67,1.33,5.16,3.4.58,2.52-1.53,5.16-4.73,5.91a7.64,7.64,0,0,1-1.69.2c-2.52,0-4.68-1.34-5.16-3.41-.59-2.51,1.53-5.16,4.72-5.9a7.23,7.23,0,0,1,1.7-.2m0-8h0a15.53,15.53,0,0,0-3.52.41c-7.48,1.75-12.28,8.71-10.69,15.51,1.32,5.65,6.65,9.59,12.95,9.59a15.44,15.44,0,0,0,3.51-.41c7.49-1.75,12.29-8.71,10.7-15.52-1.32-5.64-6.65-9.58-13-9.58Z"/><path class="c" d="M166.31,631.63c-2.44-4.45-2.31-14.93-2.31-14.93"/><path class="a" d="M162.81,633.55a14.92,14.92,0,0,1-.67-4.83,33.18,33.18,0,0,1,.3-4.19A61.63,61.63,0,0,1,164,616.7a59.63,59.63,0,0,0,2.41,7.35,26.68,26.68,0,0,0,1.58,3.31,7.32,7.32,0,0,0,1.83,2.34Z"/><path class="c" d="M172.3,633.16c4.33-5.1,13-8.45,13-8.45"/><path class="a" d="M169.25,630.57a26.64,26.64,0,0,1,8-4,48.47,48.47,0,0,1,8-1.82,46,46,0,0,0-5.92,5.23,28.48,28.48,0,0,0-2.39,2.88,14.78,14.78,0,0,0-1.65,2.93Z"/><path class="c" d="M172.86,637.43c7.93,2.23,10.53,7.14,10.53,7.14"/><path class="a" d="M173.94,633.58a27.59,27.59,0,0,1,3.18,2.2,22.64,22.64,0,0,1,2.75,2.6,19.62,19.62,0,0,1,2.16,3,12.08,12.08,0,0,1,1.36,3.23,11.1,11.1,0,0,0-2.74-1.78,16,16,0,0,0-3-1,17.18,17.18,0,0,0-3-.46,20.46,20.46,0,0,0-2.93,0Z"/><path class="c" d="M164.05,640.36c-3.24,4.53-3.86,13.1-3.86,13.1"/><path class="a" d="M167.3,642.69a9.54,9.54,0,0,0-2.09,1.84,22.47,22.47,0,0,0-1.91,2.65,39.47,39.47,0,0,0-3.11,6.28,42.39,42.39,0,0,1-.76-7.3,27.39,27.39,0,0,1,.23-3.89A16.93,16.93,0,0,1,160.8,638Z"/><path class="c" d="M161.58,635.89c-7-3.71-15.55-2-15.55-2"/><path class="a" d="M159.7,639.42a15.28,15.28,0,0,0-2.64-2.11,19,19,0,0,0-3.31-1.66,27.65,27.65,0,0,0-7.72-1.8,29.56,29.56,0,0,1,8.17-2.18,25.9,25.9,0,0,1,4.51-.13,22.43,22.43,0,0,1,4.75.82Z"/><path class="d" d="M221.57,732c-.89-.26-22-6.58-32.6-20.16a30.27,30.27,0,0,1-6.06-23.92c1.13-5.89,4.18-10.56,8.58-13.13a20.38,20.38,0,0,1,10.41-2.92c7.73,0,15.09,4.53,20.74,12.76,9.64,14.05,4.23,43.06,4,44.29l-.83,4.32Z"/><path class="a" d="M201.9,675.88c6.17,0,12.4,3.69,17.44,11,8.81,12.83,3.36,41.26,3.36,41.26s-20.66-6.06-30.58-18.78c-8.38-10.76-7.15-26.14,1.39-31.14a16.51,16.51,0,0,1,8.39-2.37m0-8a24.44,24.44,0,0,0-12.43,3.46c-5.41,3.17-9.14,8.79-10.49,15.83a34.3,34.3,0,0,0,6.83,27.13c11.37,14.59,33.69,21.27,34.64,21.55l8.45,2.48,1.66-8.65c.62-3.25,5.77-32.15-4.63-47.3-6.41-9.35-14.94-14.5-24-14.5Z"/><path class="d" d="M202.4,686.25c8.24,8.75,9.93,17.19,9.93,17.19"/><path class="a" d="M202.69,686a8.21,8.21,0,0,1,6.13,1.69,5.28,5.28,0,0,1,1,1,5.47,5.47,0,0,1,.6,1.24c.31.89.48,1.86.81,2.7s.6,1.73.82,2.61.4,1.79.54,2.69a21.13,21.13,0,0,1,.19,5.45.42.42,0,0,1-.47.36.4.4,0,0,1-.29-.17l0,0a48.15,48.15,0,0,0-3.07-4c-.51-.64-1.05-1.26-1.6-1.85s-1.07-1.2-1.6-1.78a13.32,13.32,0,0,0-1.87-1.54,4,4,0,0,1-1.36-1.83,9.5,9.5,0,0,1-.53-2.55,12,12,0,0,1,.2-3.42v0A.64.64,0,0,1,202.69,686Z"/><path class="b" d="M87.35,657.92l-8.86,8.61L75.75,663A22.56,22.56,0,0,1,72,647.19a25.92,25.92,0,0,1,4.26-11l-1,0c-17.38,0-25.47-14.49-25.81-15.11l-1.91-3.51,12.75-6.94-12.52-8.27L52.05,599A31.17,31.17,0,0,1,70.11,593a29.22,29.22,0,0,1,10.06,1.78c-5.49-22.76,6.51-32,7.09-32.38L90.64,560l9.19,13.77,8.68-14,3.56,3.55c.42.41,7.62,7.84,5.83,23,10.32-9,18.66-9.62,20.72-9.62a4.79,4.79,0,0,1,.5,0l4.71.39-1.09,4.57-1.3,5.15,11.31-2.23-.37,5.22c-.45,6.3-4.31,17.72-15.1,25.14a23,23,0,0,1,7.05,5c8,8.29,7.63,20.36,7.62,20.87l-.17,4.53-16.63-2.71,1.67,12.71-4.77-.22c-.53,0-10-.6-19.82-9.75-.34,14.66-9.38,21.9-15.5,23.88l-3.29,1.07Z"/><path class="a" d="M89.64,565.66l10.3,15.46,9.31-15s11.77,11.7-1,37.66c14.75-22.28,28.44-23.12,30.42-23.12h.24L136,592l12.37-2.43s-1.49,20.91-24.09,27h.58c24,0,23.07,24.14,23.07,24.14l-17.47-2.84,1.75,13.3s-15.13-.7-26.36-20.38c9,28.44-10.37,34.71-10.37,34.71l-7-14.24-9.59,9.32s-11.58-15.09,9.57-31.28a33.49,33.49,0,0,1-13.27,3c-15.2,0-22.3-13-22.3-13L68,611l-13.48-8.9A27.07,27.07,0,0,1,70.11,597c5,0,10.85,1.49,17,6.12-11.07-27.46,2.56-37.5,2.56-37.5m18.13-12.26-5.31,8.53-2.75,4.42-3.42-5.13-4.65-7-6.75,5c-.91.67-5.56,4.4-8.26,12.32a39.81,39.81,0,0,0-1.53,17.87,33.13,33.13,0,0,0-5-.37,34.85,34.85,0,0,0-20.55,6.81l-8.62,6.86,9.19,6.07,2.37,1.57-3.39,1.84-7,3.83,3.83,7c.34.63,7.89,14.15,23.9,16.76A28.17,28.17,0,0,0,68,646.67a26.38,26.38,0,0,0,4.59,18.73l5.47,7.13,6.45-6.26,1.69-1.64L88.32,669l3.05,6.22L98,673.06a27.07,27.07,0,0,0,12.59-9.6,29.16,29.16,0,0,0,4.78-10.55,41.73,41.73,0,0,0,4.31,2.53,31.82,31.82,0,0,0,12.22,3.67l9.55.45-1.25-9.48-.34-2.64,6.84,1.12,9,1.45.33-9c.06-1.46.27-14.46-8.73-23.79a24.61,24.61,0,0,0-3-2.64,39.84,39.84,0,0,0,12.12-24.42l.75-10.44-10.26,2,2-8.13-9.52-.83a7.52,7.52,0,0,0-.77,0c-2.56,0-8.74.61-16.57,5.5a37,37,0,0,0-.7-4.64c-1.75-8.07-5.69-12.3-6.46-13.07l-7.12-7.09Z"/><path class="b" d="M103,625.27c-5,0-9-3-9.89-7.22-1-5,2.86-10.08,8.66-11.27a12.47,12.47,0,0,1,2.5-.25c5,0,9,3,9.88,7.22,1,5-2.85,10.08-8.65,11.27A12.47,12.47,0,0,1,103,625.27Z"/><path class="a" d="M104.24,610.53c3,0,5.47,1.6,6,4,.58,2.87-1.9,5.8-5.54,6.55a8.38,8.38,0,0,1-1.7.17c-3,0-5.48-1.6-6-4-.59-2.87,1.89-5.8,5.54-6.55a8.24,8.24,0,0,1,1.7-.17m0-8h0a16.71,16.71,0,0,0-3.3.33A15.75,15.75,0,0,0,92.07,608a12.84,12.84,0,0,0-2.91,10.85c1.26,6.13,6.93,10.41,13.81,10.41a16.71,16.71,0,0,0,3.3-.33,15.75,15.75,0,0,0,8.86-5.15A12.77,12.77,0,0,0,118,612.94c-1.25-6.13-6.93-10.41-13.8-10.41Z"/><path class="b" d="M102.54,610.7c-2.63-5.11-2.16-17-2.16-17"/><path class="a" d="M99,612.53a17,17,0,0,1-.68-5.33,35.56,35.56,0,0,1,.34-4.69,72.24,72.24,0,0,1,1.74-8.81,69.19,69.19,0,0,0,2.24,8.44,33.75,33.75,0,0,0,1.55,3.86,9.46,9.46,0,0,0,1.93,2.87Z"/><path class="b" d="M109.27,612.63c5.08-5.65,15-9.17,15-9.17"/><path class="a" d="M106.3,610a29.9,29.9,0,0,1,9-4.45,53.27,53.27,0,0,1,9-2,51.77,51.77,0,0,0-7,5.51,35,35,0,0,0-2.91,3.1,19,19,0,0,0-2.12,3.23Z"/><path class="b" d="M109.77,617.49c8.93,2.77,11.72,8.42,11.72,8.42"/><path class="a" d="M111,613.67c.62.39,1.23.76,1.82,1.17s1.16.81,1.71,1.28a25.3,25.3,0,0,1,3.05,2.88,21.64,21.64,0,0,1,2.41,3.31,13.68,13.68,0,0,1,1.54,3.6,13,13,0,0,0-3-2.2,18.16,18.16,0,0,0-3.25-1.41,21.26,21.26,0,0,0-3.35-.76c-.55-.09-1.13-.11-1.67-.17s-1.13,0-1.67-.06Z"/><path class="b" d="M99.7,620.54c-3.81,5-4.79,14.72-4.79,14.72"/><path class="a" d="M102.89,623a11.34,11.34,0,0,0-2.37,2.19,25.12,25.12,0,0,0-2.15,3,45.23,45.23,0,0,0-3.46,7.09,47.46,47.46,0,0,1-.38-8.22,31.46,31.46,0,0,1,.5-4.32,19.3,19.3,0,0,1,1.48-4.6Z"/><path class="b" d="M97,615.39c-7.79-4.43-17.56-2.8-17.56-2.8"/><path class="a" d="M95.06,618.87a17.84,17.84,0,0,0-3.07-2.4,22.54,22.54,0,0,0-3.78-1.87,31.17,31.17,0,0,0-8.73-2,33.25,33.25,0,0,1,9.29-2,28.33,28.33,0,0,1,5,.11A25.06,25.06,0,0,1,99,611.92Z"/><path class="d" d="M128,745.63c-.79-.49-19.43-12.27-26-28.2a30.29,30.29,0,0,1,.61-24.67c2.67-5.37,6.87-9,11.8-10.33a21.83,21.83,0,0,1,5.5-.73c9.71,0,17.87,6.95,21.84,18.6,5.5,16.13-7.52,42.6-8.08,43.72l-2,4Z"/><path class="a" d="M120,685.7c7.76,0,14.53,5.53,18.06,15.89,5,14.73-7.88,40.65-7.88,40.65s-18.26-11.41-24.38-26.33c-5.18-12.62.14-27.1,9.72-29.61a17.6,17.6,0,0,1,4.48-.6m0-8a25.66,25.66,0,0,0-6.51.86c-6.07,1.59-11.17,6-14.37,12.42a34.36,34.36,0,0,0-.73,28c7,17.1,26.72,29.55,27.55,30.07l7.48,4.67,3.92-7.89c1.48-2.95,14.22-29.4,8.29-46.79-4.55-13.34-14.13-21.31-25.63-21.31Z"/><path class="d" d="M121.9,696.4c5.58,10.64,4.94,19.22,4.94,19.22"/><path class="a" d="M122.26,696.21a8.18,8.18,0,0,1,5.44,3.28,5.3,5.3,0,0,1,.65,1.22,5.54,5.54,0,0,1,.24,1.36c.07.94,0,1.92.06,2.82s.1,1.82.08,2.73-.09,1.83-.2,2.73a21.16,21.16,0,0,1-1.29,5.3.42.42,0,0,1-.55.23.41.41,0,0,1-.23-.25l0,0a47.72,47.72,0,0,0-1.87-4.69c-.32-.76-.68-1.5-1-2.22s-.7-1.43-1-2.14a14.19,14.19,0,0,0-1.4-2,4.08,4.08,0,0,1-.81-2.14,9.8,9.8,0,0,1,.17-2.59,12.21,12.21,0,0,1,1.12-3.25v0A.66.66,0,0,1,122.26,696.21Z"/><path class="c" d="M318.35,717.52l-11.2,10-2.57-3.68A26.15,26.15,0,0,1,301,705.32a30.8,30.8,0,0,1,6.52-13.82l-1.13,0c-21.46,0-30.62-18.26-31-19l-1.75-3.59,16.09-7.84L275,650.36l4.46-3.24a36.49,36.49,0,0,1,19.88-6,34.44,34.44,0,0,1,14.56,3.24c-6.07-28.09,8.86-38.51,9.58-39L327,603l10.45,17.3,11.25-16.4,3.4,3.7c.48.52,9.07,10.21,5.16,29.22,12.36-10.51,22.29-11.58,25.74-11.58a9.61,9.61,0,0,1,1.21.06l4.77.53-3.56,11.86,13.85-2.09-.6,5.2c0,.23-2.47,19.19-20.25,29.43a26.56,26.56,0,0,1,9.06,6.59c9,10.09,8,24.32,7.93,24.92l-.36,4.52-19.9-4.16,1.33,15.4-4.76-.44c-.64-.05-12.49-1.3-23.95-13.8-.48,18.33-11.84,26.79-19.3,28.83l-3.33.92Z"/><path class="a" d="M325.73,608.68l11.49,19,11.93-17.38s13.44,14.62-3.27,45c17.85-24.51,33.53-26,37.11-26a7.52,7.52,0,0,1,.77,0l-4,13.32,14.91-2.25s-2.9,24.92-30.23,31c29.36.85,27,30.12,27,30.12l-20.73-4.34,1.38,16s-18-1.65-30.42-25.77c9.28,34.48-14.24,40.93-14.24,40.93l-7.59-17.39-12,10.62s-13-18.65,13.12-36.87a41,41,0,0,1-14.57,2.9c-19.21,0-27.4-16.79-27.4-16.79l18.47-9-15.63-11.37a32.36,32.36,0,0,1,17.53-5.26c6.28,0,13.7,2,21.3,8.27-11.76-33.42,5.06-44.69,5.06-44.69m2.52-11.32-7,4.67c-.75.5-15.29,10.63-12.39,36.27a38,38,0,0,0-9.52-1.2,39.94,39.94,0,0,0-22.23,6.79l-8.91,6.47,8.9,6.47,4.87,3.54-6.51,3.17-7.19,3.51,3.51,7.19c.39.79,8.93,17.84,28.58,20.83a32.38,32.38,0,0,0-3.31,9.55,29.91,29.91,0,0,0,4.22,21.46l5.15,7.37,6.72-6,3.72-3.31,3.19,7.29,2.77,6.34,6.67-1.83a30.58,30.58,0,0,0,14.74-10.26,33.84,33.84,0,0,0,6.57-14.1,48.18,48.18,0,0,0,6.73,4.61c7.2,4.07,12.75,4.75,13.78,4.85l9.53.87-.83-9.53-.45-5.27,10.19,2.13,8.87,1.85.74-9c.14-1.68,1.06-16.75-8.94-27.92A30.86,30.86,0,0,0,385.9,670a46,46,0,0,0,16.73-28.73l1.21-10.39-10.35,1.56-2.43.36.36-1.22,2.76-9.18-9.53-1.07a15.16,15.16,0,0,0-1.66-.08c-2.93,0-9,.62-16.9,4.73q-1.92,1-3.83,2.19a44.16,44.16,0,0,0-.59-8.1c-1.59-9.31-5.8-14.27-6.63-15.17l-6.8-7.4-5.69,8.29-4.9,7.14-5.07-8.4-4.33-7.18Z"/><path class="a" d="M340.34,663.07c3.74,0,6.88,2.1,7.36,5.14.55,3.46-2.57,6.83-7,7.53a9.77,9.77,0,0,1-1.6.13c-3.73,0-6.88-2.1-7.36-5.14-.55-3.46,2.58-6.83,7-7.53a11.12,11.12,0,0,1,1.6-.13m0-8a18.35,18.35,0,0,0-2.85.23,17.24,17.24,0,0,0-10,5.2A13.74,13.74,0,0,0,323.87,672c1.09,6.88,7.51,11.88,15.26,11.88a18.16,18.16,0,0,0,2.85-.23c8.75-1.38,14.86-8.87,13.62-16.68-1.09-6.89-7.51-11.89-15.26-11.89Z"/><path class="a" d="M335.11,664.87a20.66,20.66,0,0,1-.67-6.17,44.3,44.3,0,0,1,.47-5.51,84,84,0,0,1,2.17-10.42A81.28,81.28,0,0,0,338.91,653a39.48,39.48,0,0,0,1.46,4.76,13,13,0,0,0,2,3.77Z"/><path class="a" d="M343.84,663.06a36.35,36.35,0,0,1,10.58-5,65.9,65.9,0,0,1,10.71-2.31,62.93,62.93,0,0,0-8.86,5.86,44.69,44.69,0,0,0-3.79,3.41,24.88,24.88,0,0,0-2.94,3.69Z"/><path class="a" d="M348.39,667.94c.7.46,1.41.9,2.09,1.38s1.35,1,2,1.51a30.91,30.91,0,0,1,3.54,3.41,25.93,25.93,0,0,1,2.79,3.89,16.35,16.35,0,0,1,1.79,4.27,15.87,15.87,0,0,0-3.27-2.93,23.33,23.33,0,0,0-3.72-2,26.15,26.15,0,0,0-3.93-1.29c-.65-.18-1.34-.27-2-.41s-1.34-.17-2-.26Z"/><path class="a" d="M337.9,677.36a15.39,15.39,0,0,0-2.87,2.72,32,32,0,0,0-2.57,3.65,54,54,0,0,0-4.14,8.42,55.81,55.81,0,0,1,.35-9.72,38,38,0,0,1,1-5,22.73,22.73,0,0,1,2.1-5.18Z"/><path class="a" d="M329.79,671.9A22.15,22.15,0,0,0,326,669a28,28,0,0,0-4.55-2.27,37.94,37.94,0,0,0-10.4-2.49,36.28,36.28,0,0,1,5.45-1.1,39.62,39.62,0,0,1,5.69-.34,33.06,33.06,0,0,1,5.88.57,29.06,29.06,0,0,1,5.95,1.78Z"/><path class="b" d="M419.76,797.51c-.82-.38-16.67-8-25.25-31.78-9.19,29.38-31.86,31.1-37,31.1-.74,0-1.14,0-1.14,0l-3.43-.29-.26-3.43-1.4-20.5-19.45,7.82-1.18-4.33a34.31,34.31,0,0,1,3.79-24.4c3.74-6.53,9.54-11.9,17.34-16.07a45.17,45.17,0,0,1-27-18.66,50.14,50.14,0,0,1-8-20.5l-.44-4,25.42-2.8-14.31-21,5.28-1.54A44,44,0,0,1,344,665.76a46.7,46.7,0,0,1,35.15,15.63c4.09-41,28.55-47.62,29.68-47.9l4.06-1,5.66,27.95,22.51-16.26,2,4.62c.39.92,7.5,18.65-9.33,42.8,12.42-5.37,22.26-6.78,29.17-6.78,8.86,0,13.7,2.25,14.23,2.5l4.3,2.11L471,703.55l19.27,3.79L487.94,712c-.54,1.09-12.66,24.88-41.83,28.37a35.66,35.66,0,0,1,10.65,14.27c6.77,16.64-.92,34-1.25,34.73l-1.87,4.12-24.08-14.75-5.46,20.75Z"/><path class="a" d="M409.83,637.36l6.06,29.93,23.47-17s10.62,25.13-25,56.64c21.84-14.88,38.28-18.18,48.55-18.18,8.19,0,12.47,2.1,12.47,2.1L464,706.26l20.32,4s-13.15,26.57-45.49,26.57a63.38,63.38,0,0,1-7.95-.51c37.59,14.69,21,51.44,21,51.44l-24.81-15.2-5.62,21.33S398.87,783.4,394,746.46c-3.58,44.29-31.33,46.37-36.52,46.37-.54,0-.84,0-.84,0l-1.77-26L334.5,775s-8.23-30.16,34-41.63h-1.35c-42.36,0-46.51-37.4-46.51-37.4l28.06-3.1-15-21.93A40.07,40.07,0,0,1,344,669.76c10.55,0,27,3.58,38.57,23.06.26-48.66,27.23-55.46,27.23-55.46m6.18-9.8-8.13,2.05c-1.16.29-25,6.75-31.58,43.5A50.77,50.77,0,0,0,344,661.76a47.65,47.65,0,0,0-12.51,1.53L321,666.38l6.21,9.09,7.46,10.94-14.83,1.64-8,.87.88,8a53.54,53.54,0,0,0,8.7,22.31,48.52,48.52,0,0,0,21.16,17.52,43.06,43.06,0,0,0-11.61,13,38,38,0,0,0-4.18,27.44l2.37,8.67,8.33-3.35,10.17-4.1,1,15,.47,6.9,6.9.53c.18,0,.68,0,1.45,0a40.13,40.13,0,0,0,23.68-8.19,46,46,0,0,0,13.49-16.57c9.46,18.36,22.63,24.71,23.41,25.06l8.67,4,2.43-9.25L432.06,785l15.63,9.58,7.73,4.73,3.73-8.25c.36-.8,8.73-19.67,1.31-37.89a38.7,38.7,0,0,0-6.12-10.23c25.72-6.57,36.65-28.06,37.18-29.13l4.65-9.38-10.27-2L478,700.84l3.84-5.21,5.69-7.72-8.62-4.21c-1-.49-6.42-2.91-16-2.91A69.67,69.67,0,0,0,442.82,684c10.28-21,4.28-35.88,3.91-36.75L442.82,638l-8.15,5.89-13.4,9.68-3.6-17.75L416,627.56Z"/><path class="a" d="M398.84,713.67a14.43,14.43,0,0,1,2.59.24c6,1.14,10.16,5.89,9.27,10.62-.76,4.05-5,6.76-9.91,6.76a13.5,13.5,0,0,1-2.59-.24c-6-1.13-10.16-5.89-9.27-10.62.76-4,5-6.76,9.91-6.76m0-8h0c-9,0-16.3,5.46-17.77,13.27A15.88,15.88,0,0,0,385,732.35a20.67,20.67,0,0,0,11.76,6.56,21.59,21.59,0,0,0,4.08.38c9,0,16.3-5.46,17.77-13.27a15.92,15.92,0,0,0-3.88-13.41,20.67,20.67,0,0,0-11.77-6.56,22.42,22.42,0,0,0-4.07-.38Z"/><path class="a" d="M397.44,714.26a28.72,28.72,0,0,1,1.61-8,64.88,64.88,0,0,1,2.77-6.9q1.55-3.31,3.28-6.48c1.16-2.11,2.36-4.19,3.63-6.21a117.44,117.44,0,0,0-3.08,13.86,56,56,0,0,0-.7,6.85,21.55,21.55,0,0,0,.46,6.14Z"/><path class="a" d="M408.73,717.44a43,43,0,0,1,7.84-1.76,68.39,68.39,0,0,1,7.64-.47c2.51,0,5,.1,7.48.31s4.92.49,7.34.91a88.54,88.54,0,0,0-14.28,2.74,63.68,63.68,0,0,0-6.66,2.31,36.44,36.44,0,0,0-5.88,3.16Z"/><path class="a" d="M410.76,725.66c.71.86,1.44,1.68,2.12,2.55s1.35,1.74,1.93,2.68a39.94,39.94,0,0,1,3.2,5.69,35.06,35.06,0,0,1,2.09,6.06,23.09,23.09,0,0,1,.7,6.21,21.68,21.68,0,0,0-2.55-5.44,31.37,31.37,0,0,0-3.58-4.63,36,36,0,0,0-4.28-3.84c-.73-.6-1.56-1.1-2.31-1.64s-1.62-1-2.41-1.47Z"/><path class="a" d="M393,730.55a24.57,24.57,0,0,0-5,2.67,46.46,46.46,0,0,0-4.81,3.86c-1.56,1.41-3.05,2.93-4.5,4.51s-2.85,3.21-4.17,4.93c.73-2,1.58-4,2.5-6s1.92-4,3-5.89a51.74,51.74,0,0,1,3.77-5.68,31.38,31.38,0,0,1,5.09-5.25Z"/><path class="a" d="M387,720.09a33.33,33.33,0,0,0-4-5.45,40.44,40.44,0,0,0-5.18-4.83,53.09,53.09,0,0,0-6-4.1,50.07,50.07,0,0,0-6.65-3.28,52,52,0,0,1,7.42,1.44,54.74,54.74,0,0,1,7.27,2.49,45.88,45.88,0,0,1,7,3.67,39.7,39.7,0,0,1,6.42,5.13Z"/><path class="b" d="M417.33,30.06c-2.65,0-5.41-1.65-9-5.34l-.26-.28-.21-.32c-7.25-11.22-4-25.12-3.82-25.71l.9-3.67,3.71.69c.6.11,14.63,2.82,21.88,14l.21.32.14.35c1.44,3.58,2.83,8.1.7,11.25A5.89,5.89,0,0,1,426.55,24a10.45,10.45,0,0,1-3-.51A8.77,8.77,0,0,1,421.8,28a5.7,5.7,0,0,1-4.47,2.11Z"/><path class="a" d="M408-.64s12.84,2.38,19.24,12.28c2.61,6.47,1.47,8.31-.66,8.31-2.8,0-7.31-3.16-7.31-3.16s1.76,9.27-1.91,9.27c-1.27,0-3.19-1.11-6.07-4.11C404.86,12.05,408-.64,408-.64m-6-9.24-1.8,7.34c-.4,1.64-3.68,16.4,4.35,28.83l.42.64.53.55c2.93,3.07,6.93,6.58,11.84,6.58a9.76,9.76,0,0,0,7.55-3.55A10.52,10.52,0,0,0,426.44,28h.11a9.91,9.91,0,0,0,8.39-4.32c3.18-4.72,1.5-10.49-.31-15l-.29-.71-.41-.64c-8-12.43-22.84-15.49-24.51-15.8L402-9.88Z"/><path class="c" d="M506.79,88.71a5.74,5.74,0,0,1-4.15-1.79,9.23,9.23,0,0,1-2.07-3.8,9.38,9.38,0,0,1-4.05,1.09h0a5.73,5.73,0,0,1-4.58-2.15c-1.76-2.19-2-5.54-.84-10.85l.09-.38.15-.35c5.31-12.25,18.71-17.23,19.27-17.43l3.56-1.29,1.49,3.47c.23.56,5.75,13.74.44,26l-.15.35-.21.32C513.56,85.06,510.59,88.71,506.79,88.71Z"/><path class="a" d="M512,56.81s5.14,12,.45,22.82c-2.55,3.74-4.36,5.08-5.64,5.08-3.28,0-3.07-8.86-3.07-8.86s-4.44,4.36-7.2,4.36c-1.82,0-2.9-1.88-1.51-8.14,4.69-10.81,17-15.26,17-15.26m4.38-10.1-7.11,2.58c-1.59.57-15.69,6-21.58,19.6l-.3.7-.17.75c-1,4.45-1.7,10.08,1.62,14.22a9.8,9.8,0,0,0,7.7,3.65,10.59,10.59,0,0,0,1.92-.18,10.81,10.81,0,0,0,1.34,1.69,9.73,9.73,0,0,0,7,3c5.67,0,9.52-4.58,12.25-8.57l.43-.63.3-.7c5.89-13.58.23-27.6-.44-29.15l-3-6.95Z"/><path class="b" d="M434.26,193.66c-2.54,0-5.27-1.46-8.87-4.74l-.29-.25-.22-.31c-8-10.69-5.68-24.79-5.58-25.39l.65-3.72,3.75.43c.6.07,14.79,1.82,22.79,12.51l.22.31.17.34c1.72,3.55,3.44,8,1.37,11.35a6,6,0,0,1-5.34,2.75,11.4,11.4,0,0,1-2.48-.32,8.7,8.7,0,0,1-1.55,4.79,5.71,5.71,0,0,1-4.62,2.25Z"/><path class="a" d="M423.24,163.66s13,1.49,20,10.93c3.18,6.55,2,8.35-.37,8.35-2.82,0-7.23-2.66-7.23-2.66s2.46,9.38-1.42,9.38c-1.28,0-3.23-1-6.18-3.7-7.06-9.43-4.84-22.3-4.84-22.3m-6.59-8.82-1.29,7.45c-.29,1.67-2.56,16.61,6.31,28.47l.46.61.56.51c4.4,4,8,5.78,11.57,5.78a9.74,9.74,0,0,0,7.78-3.81,10.45,10.45,0,0,0,1.59-2.93,9.94,9.94,0,0,0,8-4.61c3.11-5,1-10.74-1.16-15.22l-.33-.68-.46-.62c-8.87-11.85-23.85-13.89-25.53-14.08l-7.51-.87Z"/><path class="d" d="M303.42,848.45c-.21-1.23-4.87-30.36,5.12-44.16,5.72-7.89,13-12.23,20.56-12.23a20.29,20.29,0,0,1,10.83,3.19c4.34,2.68,7.27,7.42,8.25,13.34a30.28,30.28,0,0,1-6.68,23.76c-10.93,13.3-32.21,19.08-33.11,19.32l-4.26,1.13Z"/><path class="a" d="M329.1,796.06a16.39,16.39,0,0,1,8.72,2.59c8.42,5.21,9.25,20.62.59,31.16-10.24,12.46-31.05,18-31.05,18s-4.71-28.56,4.42-41.17c5.11-7,11.28-10.57,17.32-10.57m0-8h0c-8.86,0-17.31,4.93-23.79,13.88-10.79,14.88-6.38,43.9-5.84,47.17l1.43,8.69,8.52-2.27c.95-.25,23.44-6.36,35.17-20.64a34.37,34.37,0,0,0,7.54-26.95c-1.18-7.07-4.76-12.79-10.09-16.09a24.23,24.23,0,0,0-12.94-3.79Z"/><path class="d" d="M328.73,806.42c-8.46,8.53-10.37,16.92-10.37,16.92"/><path class="a" d="M329,806.7a12,12,0,0,1,.11,3.43,9.68,9.68,0,0,1-.6,2.53,4.06,4.06,0,0,1-1.4,1.8,14,14,0,0,0-1.92,1.48c-.54.58-1.1,1.15-1.64,1.74s-1.12,1.18-1.65,1.81c-1.1,1.23-2.15,2.55-3.17,3.94l0,0a.42.42,0,0,1-.59.09.42.42,0,0,1-.17-.3,21.61,21.61,0,0,1,.32-5.45c.17-.89.38-1.78.61-2.66s.56-1.74.89-2.59.54-1.8.88-2.68a5.7,5.7,0,0,1,.63-1.23,5.63,5.63,0,0,1,1-1,8.22,8.22,0,0,1,6.17-1.53.64.64,0,0,1,.56.53Z"/><path class="d" d="M292.3,782c-14.51,0-28.8-6.27-29.4-6.54l-4-1.79,2.17-3.83c.62-1.09,15.25-26.71,31.69-31.19a35.53,35.53,0,0,1,9.3-1.32c10,0,17.75,5.22,20.82,14,1.69,4.82,1,10.34-1.94,15.57a30.31,30.31,0,0,1-20.1,14.32A42.38,42.38,0,0,1,292.3,782Z"/><path class="a" d="M302,741.3c8.39,0,14.53,4.13,17.05,11.29,3.28,9.34-5.73,21.86-19.09,24.64a37.84,37.84,0,0,1-7.69.74c-13.83,0-27.78-6.19-27.78-6.19s14.24-25.21,29.27-29.3A31.37,31.37,0,0,1,302,741.3m0-8h0a39.61,39.61,0,0,0-10.35,1.46c-17.73,4.83-32.5,30.2-34.12,33.08l-4.34,7.67,8.06,3.58c.63.28,15.67,6.88,31,6.88a46,46,0,0,0,9.32-.91,34.34,34.34,0,0,0,22.77-16.26c3.52-6.25,4.32-12.95,2.24-18.87C323,739.52,313.77,733.3,302,733.3Z"/><path class="d" d="M307.12,752.94c-11.94,1.34-18.69,6.68-18.69,6.68"/><path class="a" d="M307.17,753.34a12.09,12.09,0,0,1-2.06,2.74,10,10,0,0,1-2.06,1.6,4.07,4.07,0,0,1-2.22.52,14,14,0,0,0-2.42-.05l-2.37.33c-.81.1-1.62.21-2.42.37a50.33,50.33,0,0,0-4.94,1.08h0a.41.41,0,0,1-.51-.3.45.45,0,0,1,.05-.34,22,22,0,0,1,3.67-4c.69-.59,1.41-1.15,2.15-1.69s1.52-1,2.31-1.46,1.55-1.06,2.37-1.53a5.48,5.48,0,0,1,1.26-.57,5.19,5.19,0,0,1,1.37-.14,8.22,8.22,0,0,1,5.77,2.67.65.65,0,0,1,.1.77Z"/><path class="d" d="M486.75,648.6a48.91,48.91,0,0,1-16.46-2.53,30.28,30.28,0,0,1-17.93-17c-2.2-5.58-2.12-11.15.22-15.69a20.43,20.43,0,0,1,18.77-11.22,32.68,32.68,0,0,1,12.81,2.86c15.66,6.71,26.62,34.1,27.08,35.26l1.62,4.1-4.23,1.22a88.38,88.38,0,0,1-21.88,3Z"/><path class="a" d="M471.35,606.21a28.7,28.7,0,0,1,11.23,2.54c14.31,6.12,24.94,33,24.94,33a84.63,84.63,0,0,1-20.77,2.8,45.51,45.51,0,0,1-15.11-2.29c-12.85-4.6-20.05-18.24-15.5-27,3-5.84,8.42-9.06,15.21-9.06m0-8A24.3,24.3,0,0,0,449,611.6c-2.88,5.57-3,12.32-.39,19a34.35,34.35,0,0,0,20.3,19.25,53,53,0,0,0,17.81,2.76,92.46,92.46,0,0,0,23-3.11l8.47-2.43-3.24-8.2c-1.21-3.07-12.34-30.24-29.23-37.47a36.7,36.7,0,0,0-14.38-3.18Z"/><path class="d" d="M467.93,617.27c11.64,3,17.59,9.19,17.59,9.19"/><path class="a" d="M468,616.88a8.2,8.2,0,0,1,6.08-1.85,5.16,5.16,0,0,1,1.34.33,6,6,0,0,1,1.17.73c.74.58,1.4,1.31,2.13,1.84s1.43,1.14,2.09,1.77,1.29,1.29,1.89,2a21.1,21.1,0,0,1,3.08,4.5.42.42,0,0,1-.2.56.37.37,0,0,1-.34,0h0a47.77,47.77,0,0,0-4.74-1.75c-.78-.27-1.56-.5-2.35-.71s-1.54-.43-2.3-.65a14.71,14.71,0,0,0-2.4-.29,3.92,3.92,0,0,1-2.13-.82,10.07,10.07,0,0,1-1.82-1.86,12.42,12.42,0,0,1-1.66-3v0A.65.65,0,0,1,468,616.88Z"/><polygon class="a" points="27.48 900.18 31.65 880.81 284.92 802.48 275.8 823.07 164.63 900.18 27.48 900.18"/><path class="a" d="M277.7,808.9l-5.11,11.53L163.37,896.18H32.43l2.64-12.24,242.63-75m14.44-12.84L28.24,877.68l-5.72,26.5H165.88L279,825.72l13.14-29.66Z"/><path class="b" d="M466.35,878.84c-4,0-6.81-4-8.84-7.48l-.19-.33-.12-.36c-4.4-12.61,2.07-25.35,2.35-25.88l1.74-3.36,3.45,1.55c.55.24,13.54,6.19,17.94,18.8l.13.36.05.38c.77,5.25.31,8.52-1.48,10.59a5.71,5.71,0,0,1-4.4,2,8.83,8.83,0,0,1-4.4-1.4c-1.76,4.5-4.73,5.13-6.23,5.13Z"/><path class="a" d="M463.1,846.63S475,852,478.9,863.1c.9,6.12-.21,8-1.92,8-2.74,0-7-4.89-7-4.89s-.44,8.62-3.59,8.62c-1.29,0-3-1.44-5.38-5.49-3.88-11.12,2.13-22.72,2.13-22.72m-3.63-10.4L456,843c-.78,1.5-7.46,15.06-2.58,29l.25.72.38.66c1.51,2.59,5.5,9.47,12.3,9.47a10,10,0,0,0,8-4.08,10.86,10.86,0,0,0,2.67.35,9.68,9.68,0,0,0,7.43-3.38c3.36-3.89,3-9.41,2.41-13.79l-.11-.76-.25-.72c-4.88-14-18.54-20.44-20.09-21.13l-6.9-3.1Z"/><path class="c" d="M386.82,916.48a5.78,5.78,0,0,1-4.15-1.79,9.2,9.2,0,0,1-2.07-3.81,9.26,9.26,0,0,1-4.05,1.1h0a5.76,5.76,0,0,1-4.58-2.15c-1.76-2.2-2-5.54-.84-10.86l.09-.37.15-.35c5.31-12.25,18.71-17.23,19.27-17.43l3.56-1.29,1.48,3.47c.24.56,5.76,13.74.45,26l-.15.35-.22.31C393.59,912.83,390.61,916.48,386.82,916.48Z"/><path class="a" d="M392,884.58s5.14,12,.45,22.82c-2.55,3.73-4.36,5.08-5.64,5.08-3.28,0-3.07-8.86-3.07-8.86s-4.45,4.36-7.2,4.36c-1.82,0-2.9-1.89-1.51-8.14,4.69-10.81,17-15.26,17-15.26m4.38-10.1-7.11,2.58c-1.59.57-15.69,6-21.58,19.6l-.31.7-.16.75c-1,4.44-1.7,10.08,1.62,14.22a9.8,9.8,0,0,0,7.7,3.65,10.55,10.55,0,0,0,1.91-.19,11.08,11.08,0,0,0,1.35,1.7,9.73,9.73,0,0,0,7,3c5.67,0,9.52-4.58,12.25-8.57l.43-.63.3-.7c5.89-13.58.23-27.6-.44-29.15l-3-6.95Z"/><path class="b" d="M54.12,716.24a5.74,5.74,0,0,1-4.3-1.94,9,9,0,0,1-1.92-4.15,9.85,9.85,0,0,1-3.6.8,5.79,5.79,0,0,1-4.79-2.34c-1.72-2.32-1.75-5.74-.12-11.07l.11-.37.18-.34c6.26-11.79,20-15.7,20.59-15.86l3.64-1,1.21,3.58c.2.57,4.67,14.15-1.59,25.94l-.18.34-.24.3C59.7,714.35,56.93,716.24,54.12,716.24Z"/><path class="a" d="M61.33,684.82S65.52,697.2,60,707.61c-2.73,3.39-4.6,4.63-5.87,4.63-3.44,0-2.51-9.08-2.51-9.08S47.08,707,44.3,707c-1.95,0-3-1.87-1.08-8.24,5.52-10.41,18.11-13.89,18.11-13.89m5.16-9.72-7.28,2c-1.63.45-16.12,4.77-23.06,17.85l-.36.67-.22.73c-1.38,4.49-2.54,10.22.72,14.63a10,10,0,0,0,9.09,3.9A10.92,10.92,0,0,0,46.85,717a9.71,9.71,0,0,0,7.27,3.26c5.29,0,9.25-4.07,12.1-7.61l.48-.6.36-.67c6.94-13.08,2.39-27.5,1.85-29.1l-2.42-7.16Z"/><path class="c" d="M179.63,804.88c-2.53,0-5.27-1.46-8.87-4.73l-.28-.26-.23-.31c-8-10.69-5.67-24.79-5.57-25.38l.65-3.73,3.75.43c.6.07,14.78,1.82,22.78,12.51l.23.31.17.34c1.72,3.55,3.44,8.05,1.37,11.35a6,6,0,0,1-5.34,2.75,10.82,10.82,0,0,1-2.48-.32,8.68,8.68,0,0,1-1.55,4.79,5.71,5.71,0,0,1-4.62,2.25Z"/><path class="a" d="M168.62,774.88s13,1.49,20,10.93c3.18,6.55,1.94,8.35-.37,8.35-2.82,0-7.23-2.66-7.23-2.66s2.46,9.38-1.42,9.38c-1.28,0-3.23-1-6.18-3.69-7.06-9.44-4.84-22.31-4.84-22.31M162,766.06l-1.29,7.45c-.29,1.67-2.56,16.62,6.31,28.47l.46.61.56.51c4.39,4,8,5.78,11.57,5.78a9.75,9.75,0,0,0,7.78-3.81,10.71,10.71,0,0,0,1.59-2.93,9.94,9.94,0,0,0,8-4.61c3.11-5,1-10.74-1.16-15.21l-.34-.69-.45-.61c-8.87-11.86-23.85-13.9-25.53-14.09l-7.51-.87Z"/><path class="c" d="M336.83,536.92c-4.23,0-6.85-4.39-8.66-8.21l-.16-.35-.1-.37c-3.32-12.93,4.2-25.08,4.52-25.59l2-3.2,3.31,1.83c.53.29,13,7.31,16.3,20.24l.1.37,0,.38c.32,5.15-.36,8.31-2.19,10.25a5.7,5.7,0,0,1-4.2,1.83,8.58,8.58,0,0,1-4.83-1.79c-1.24,2.52-3.15,4.61-6.12,4.61Z"/><path class="a" d="M335.81,504.53s11.43,6.32,14.37,17.74c.36,6-.8,7.83-2.4,7.83-2.75,0-6.8-5.47-6.8-5.47s-1.12,8.29-4.15,8.29c-1.31,0-3-1.53-5-5.92-2.94-11.42,4-22.47,4-22.47m-2.74-10.66-4,6.4c-.9,1.43-8.69,14.38-5,28.72l.19.74.32.69c1.36,2.87,5,10.5,12.28,10.5a10,10,0,0,0,7.46-3.43,10.54,10.54,0,0,0,3.49.61A9.69,9.69,0,0,0,354.9,535c3.39-3.6,3.52-9,3.26-13.23l0-.77-.19-.73c-3.69-14.34-16.77-21.93-18.24-22.75l-6.62-3.66Z"/></svg>