<svg xmlns="http://www.w3.org/2000/svg" width="510" height="900" viewBox="0 0 510 900"><defs><style>.a{fill:#bd645d;}.a,.b,.c,.f,.g,.h{stroke:#432d1e;stroke-miterlimit:10;}.a,.b,.c,.f{stroke-width:8px;}.b{fill:#56634a;}.c,.h{fill:none;}.d{fill:#8c76d6;}.e,.g{fill:#432d1e;}.f{fill:#f7a859;}.h{stroke-linecap:round;stroke-width:5px;}</style></defs><title>40</title><path class="a" d="M120,209.17A193.82,193.82,0,0,1,60.42,16c-1.43,1.51-2.85,3-4.24,4.61A172.63,172.63,0,1,0,315,249.17c1.39-1.58,2.73-3.18,4.05-4.79A193.8,193.8,0,0,1,120,209.17Z"/><line class="b" x1="531.9" y1="129.01" x2="470.68" y2="102.01"/><line class="b" x1="546.6" y1="59.72" x2="482.59" y2="25.65"/><path class="b" d="M369.21,126.33c15.28-7.25,36.76,6,36.76,6s-3.3,25-18.58,32.3-36.76-6-36.76-6S353.92,133.58,369.21,126.33Z"/><line class="b" x1="405.97" y1="132.36" x2="470.63" y2="101.68"/><path class="b" d="M381.16,50.3c15.29-7.25,36.77,6,36.77,6s-3.3,25-18.58,32.29-36.77-6-36.77-6S365.88,57.55,381.16,50.3Z"/><line class="b" x1="417.93" y1="56.33" x2="482.59" y2="25.65"/><path class="b" d="M399-33.07c15.29-7.25,36.77,6,36.77,6s-3.3,25-18.58,32.29-36.77-6-36.77-6S383.67-25.81,399-33.07Z"/><path class="c" d="M464.54,192.72C466.36,130.44,475,61.91,489.8-7.07"/><path class="b" d="M441.65,222.11c1-16.88,22.89-29.39,22.89-29.39S485,207.6,484,224.49s-22.89,29.39-22.89,29.39S440.7,239,441.65,222.11Z"/><path class="b" d="M246,125.74C236,112.13,244.87,88.5,244.87,88.5s25.2-1.57,35.25,12,1.14,37.24,1.14,37.24S256.05,139.35,246,125.74Z"/><line class="b" x1="244.87" y1="88.5" x2="205.12" y2="34.68"/><path class="b" d="M290.41,72.86c-9-14.31,1.61-37.22,1.61-37.22s25.26.29,34.28,14.6-1.61,37.22-1.61,37.22S299.43,87.17,290.41,72.86Z"/><line class="b" x1="292.02" y1="35.64" x2="265.1" y2="-7.07"/><path class="b" d="M346,14c-8.53-14.6,2.86-37.14,2.86-37.14S374.05-22,382.59-7.4s-2.87,37.14-2.87,37.14S354.49,28.6,346,14Z"/><path class="b" d="M105,5.44c16.87,1.29,28.93,23.48,28.93,23.48S118.59,49,101.72,47.73,72.8,24.25,72.8,24.25,88.09,4.15,105,5.44Z"/><line class="b" x1="133.88" y1="28.92" x2="205.24" y2="34.37"/><path class="c" d="M154.78,110.39C178.41,71.71,206.83,32,238.68-7.07"/><path class="b" d="M120.32,124.54c9.2-14.19,34.46-14.15,34.46-14.15s10.33,23,1.13,37.23-34.46,14.16-34.46,14.16S111.11,138.74,120.32,124.54Z"/><path class="c" d="M307,470c-33.43,86.23-76.45,217.17-97.18,336.53"/><path class="d" d="M257.05,541.12c-7.92,0-17.94-11.23-23.35-21.8-4.89-9.56-7.24-22.44,2.26-27.31a11.29,11.29,0,0,1,5.19-1.25c6.71,0,13.2,5.47,18.28,15.39,5.68,11.1,10,29.63,1.24,34.12a7.78,7.78,0,0,1-3.62.85Z"/><path class="e" d="M241.15,494.76c4.63,0,10.09,4.17,14.72,13.21,5.81,11.36,8.11,26.11,3,28.74a3.83,3.83,0,0,1-1.79.41c-5.53,0-14.58-9.46-19.79-19.63-5.81-11.36-4.62-19.29.52-21.92a7.41,7.41,0,0,1,3.37-.81m0-8a15.33,15.33,0,0,0-7,1.69c-7.57,3.88-13.16,14.77-4,32.69,4.25,8.29,15.34,24,26.91,24a11.76,11.76,0,0,0,5.44-1.29c7.19-3.68,7.73-12.46,6.91-19.18A63.21,63.21,0,0,0,263,504.32c-7.83-15.28-17-17.56-21.84-17.56Z"/><path class="d" d="M235.24,587.29c-7.91,0-17.93-11.23-23.34-21.8-4.9-9.55-7.24-22.44,2.25-27.3a11.29,11.29,0,0,1,5.19-1.25c6.71,0,13.2,5.46,18.28,15.38a59.3,59.3,0,0,1,6,19c1.2,9.88-1.93,13.68-4.76,15.14a7.9,7.9,0,0,1-3.62.84Z"/><path class="e" d="M219.34,540.94c4.63,0,10.09,4.17,14.72,13.2,5.81,11.36,8.11,26.12,3,28.75a4,4,0,0,1-1.79.41c-5.53,0-14.58-9.47-19.78-19.63-5.82-11.36-4.62-19.29.51-21.92a7.28,7.28,0,0,1,3.37-.81m0-8a15.26,15.26,0,0,0-7,1.69c-5.17,2.64-8.34,7.87-8.71,14.35-.31,5.44,1.27,11.61,4.71,18.33,4.25,8.3,15.34,24,26.91,24a11.88,11.88,0,0,0,5.44-1.29c12-6.13,6.66-27.49.5-39.51-7.82-15.28-17-17.56-21.84-17.56Z"/><path class="d" d="M221,643.78c-7.91,0-17.93-11.24-23.34-21.81-3.11-6.08-4.55-11.56-4.28-16.28.29-5.1,2.61-9,6.53-11a11.3,11.3,0,0,1,5.2-1.25c6.7,0,13.19,5.46,18.27,15.38,5.69,11.11,10,29.64,1.24,34.13a7.91,7.91,0,0,1-3.62.85Z"/><path class="e" d="M205.13,597.42c4.62,0,10.08,4.17,14.71,13.21,5.82,11.36,8.11,26.11,3,28.74a4,4,0,0,1-1.8.41c-5.53,0-14.58-9.47-19.78-19.63-5.82-11.36-4.62-19.29.52-21.92a7.28,7.28,0,0,1,3.37-.81m0-8a15.27,15.27,0,0,0-7,1.69c-7.58,3.88-13.17,14.77-4,32.69,4.25,8.29,15.33,24,26.9,24a11.88,11.88,0,0,0,5.44-1.29c7.2-3.68,7.73-12.46,6.92-19.18A63.49,63.49,0,0,0,227,607c-7.82-15.28-17-17.56-21.83-17.56Z"/><path class="d" d="M288.58,668.4c-10.45,0-17-2.89-18.33-8.14-.81-3.08-.05-8,8.12-13.63a59.17,59.17,0,0,1,18.17-8.16,41.58,41.58,0,0,1,10.4-1.48c8.31,0,14.2,3.58,15.77,9.58,1.68,6.45-2.25,15.52-18.88,19.86a62.18,62.18,0,0,1-15.25,2Z"/><path class="e" d="M307,641c6.74,0,10.85,2.61,11.89,6.59,1.45,5.59-3.67,11.76-16,15a57.86,57.86,0,0,1-14.24,1.84c-7.45,0-13.56-1.68-14.46-5.15-1.46-5.58,11.08-13.69,23.43-16.91A37.33,37.33,0,0,1,307,641m0-8a45.39,45.39,0,0,0-11.42,1.61C282.46,638,263,648.27,266.38,661.27c2.52,9.69,15,11.13,22.2,11.13a66,66,0,0,0,16.26-2.1c19.48-5.08,23.89-16.5,21.74-24.74C325.81,642.61,322.12,633,307,633Z"/><path class="d" d="M302.36,612.59c-10.45,0-17-2.89-18.33-8.14-2.48-9.54,14.22-18.65,26.29-21.8a41.68,41.68,0,0,1,10.41-1.47c8.3,0,14.2,3.58,15.76,9.58,1.68,6.45-2.25,15.52-18.87,19.86a62.24,62.24,0,0,1-15.25,2Z"/><path class="e" d="M320.73,585.18c6.75,0,10.85,2.61,11.89,6.59,1.46,5.58-3.66,11.75-16,15a57.88,57.88,0,0,1-14.25,1.84c-7.45,0-13.55-1.68-14.46-5.15-1.45-5.59,11.08-13.69,23.43-16.92a37.86,37.86,0,0,1,9.4-1.34m0-8a45.94,45.94,0,0,0-11.42,1.6c-13.07,3.41-32.54,13.67-29.15,26.68,2.53,9.68,15,11.13,22.2,11.13a66.56,66.56,0,0,0,16.27-2.1c19.48-5.09,23.88-16.51,21.73-24.74-.77-3-4.46-12.57-19.63-12.57Z"/><path class="d" d="M313.26,561.18c-10.45,0-17-2.89-18.33-8.14-.8-3.08-.05-7.95,8.12-13.63a59.17,59.17,0,0,1,18.17-8.16,41.6,41.6,0,0,1,10.41-1.48c8.3,0,14.19,3.59,15.76,9.59,1.68,6.45-2.25,15.52-18.87,19.85A62.26,62.26,0,0,1,313.26,561.18Z"/><path class="e" d="M331.63,533.77c6.74,0,10.85,2.61,11.89,6.6,1.46,5.58-3.67,11.75-16,15a57.94,57.94,0,0,1-14.25,1.84c-7.45,0-13.55-1.68-14.46-5.15-1.46-5.58,11.08-13.69,23.43-16.91a37.8,37.8,0,0,1,9.4-1.35m0-8a45.39,45.39,0,0,0-11.42,1.61c-13.07,3.41-32.54,13.67-29.15,26.67,2.53,9.69,15,11.13,22.2,11.13a66.14,66.14,0,0,0,16.27-2.1c7.3-1.9,13-4.83,16.82-8.69,4.58-4.58,6.37-10.43,4.91-16-.77-3-4.46-12.58-19.63-12.58Z"/><polyline class="c" points="294.46 553.34 276.11 558.64 261.7 541.29"/><polyline class="c" points="285.85 603.79 259.74 609.55 240.84 587.23"/><polyline class="c" points="274.5 659.94 242.88 662.8 225.05 641.75"/><path class="d" d="M206.44,700.54c-7.91,0-17.93-11.23-23.34-21.8-3.11-6.08-4.55-11.56-4.28-16.29.29-5.09,2.61-9,6.53-11a11.34,11.34,0,0,1,5.2-1.26c6.7,0,13.19,5.47,18.27,15.39,5.69,11.1,10,29.63,1.24,34.12a7.76,7.76,0,0,1-3.62.85Z"/><path class="e" d="M190.55,654.18c4.62,0,10.08,4.17,14.71,13.21,5.82,11.36,8.12,26.11,3,28.74a3.87,3.87,0,0,1-1.8.41c-5.53,0-14.58-9.46-19.78-19.62-5.82-11.36-4.62-19.29.52-21.92a7.29,7.29,0,0,1,3.37-.82m0-8a15.16,15.16,0,0,0-7,1.7c-5.16,2.64-8.33,7.87-8.71,14.34-.31,5.45,1.28,11.62,4.72,18.34,4.25,8.3,15.33,24,26.9,24a11.73,11.73,0,0,0,5.44-1.29c7.2-3.68,7.73-12.46,6.92-19.18a63.49,63.49,0,0,0-6.42-20.33c-7.82-15.27-17-17.56-21.83-17.56Z"/><path class="d" d="M274,725.17c-10.45,0-17-2.89-18.33-8.14-.81-3.09,0-7.95,8.12-13.64A59.4,59.4,0,0,1,282,695.23a41.55,41.55,0,0,1,10.41-1.47c8.3,0,14.19,3.58,15.76,9.58,1.11,4.26-.26,8.6-3.87,12.21-3.35,3.35-8.4,5.92-15,7.65a62.18,62.18,0,0,1-15.25,2Z"/><path class="e" d="M292.37,697.76c6.74,0,10.85,2.61,11.89,6.59,1.45,5.58-3.67,11.75-16,15A57.8,57.8,0,0,1,274,721.17c-7.45,0-13.56-1.68-14.46-5.15-1.46-5.59,11.08-13.69,23.43-16.92a37.74,37.74,0,0,1,9.4-1.34m0-8a45.81,45.81,0,0,0-11.42,1.6,63.36,63.36,0,0,0-19.44,8.75,29.81,29.81,0,0,0-7.13,6.65c-3.36,4.61-3.26,8.68-2.58,11.28,2.53,9.68,15,11.13,22.2,11.13a66.48,66.48,0,0,0,16.26-2.1c19.48-5.09,23.89-16.51,21.74-24.74-.77-3-4.46-12.57-19.63-12.57Z"/><polyline class="c" points="259.92 716.7 228.3 719.57 210.47 698.52"/><path class="d" d="M191.55,758.7c-7.91,0-17.93-11.23-23.34-21.8-3.11-6.08-4.55-11.56-4.28-16.29.29-5.09,2.61-9,6.54-11a11.26,11.26,0,0,1,5.19-1.25c6.7,0,13.2,5.46,18.27,15.38,5.69,11.11,10,29.63,1.24,34.12a7.74,7.74,0,0,1-3.61.85Z"/><path class="e" d="M175.66,712.35c4.62,0,10.09,4.16,14.71,13.2,5.82,11.36,8.12,26.11,3,28.74a3.85,3.85,0,0,1-1.8.41c-5.52,0-14.58-9.46-19.78-19.62-5.81-11.36-4.62-19.29.52-21.92a7.28,7.28,0,0,1,3.37-.81m0-8a15.15,15.15,0,0,0-7,1.69c-7.57,3.87-13.16,14.76-4,32.68,4.25,8.3,15.34,24,26.9,24a11.77,11.77,0,0,0,5.45-1.29c7.19-3.68,7.73-12.46,6.91-19.18a63.11,63.11,0,0,0-6.42-20.32c-7.82-15.28-17-17.56-21.83-17.56Z"/><path class="d" d="M259.11,783.33c-10.45,0-17-2.89-18.33-8.14-.8-3.09-.05-8,8.12-13.64a59.15,59.15,0,0,1,18.17-8.15,41.6,41.6,0,0,1,10.41-1.48c8.3,0,14.19,3.58,15.76,9.58,1.11,4.26-.26,8.6-3.87,12.21-3.35,3.35-8.4,5.92-15,7.65a62.32,62.32,0,0,1-15.26,2Z"/><path class="e" d="M277.48,755.92c6.74,0,10.85,2.61,11.89,6.59,1.46,5.58-3.67,11.76-16,15a57.94,57.94,0,0,1-14.25,1.84c-7.45,0-13.55-1.68-14.46-5.15-1.46-5.59,11.08-13.69,23.43-16.91a37.33,37.33,0,0,1,9.4-1.35m0-8a45.81,45.81,0,0,0-11.42,1.6,63.36,63.36,0,0,0-19.44,8.75,29.75,29.75,0,0,0-7.12,6.65c-3.37,4.61-3.27,8.68-2.59,11.28,2.53,9.68,15,11.13,22.2,11.13a66.62,66.62,0,0,0,16.27-2.1c19.48-5.08,23.88-16.5,21.73-24.74-.77-3-4.46-12.57-19.63-12.57Z"/><polyline class="c" points="245.03 774.86 213.41 777.73 195.59 756.68"/><path class="d" d="M205.48,856.41a11.87,11.87,0,0,1-1.68-.12c-4.72-.65-8.49-3.82-10.63-8.94-2-4.83-2.5-11.08-1.47-18.58a66.6,66.6,0,0,1,6.35-20.65c3.78-7.32,8.2-11.19,12.79-11.19a7.73,7.73,0,0,1,1.08.07c10.63,1.46,12.81,22.37,10.93,36-1.55,11.3-6.92,23.37-17.37,23.37Z"/><path class="e" d="M210.84,800.93a3.27,3.27,0,0,1,.54,0c6.41.88,9.45,17.34,7.51,31.53-1.83,13.34-7.42,19.91-13.41,19.91a8.74,8.74,0,0,1-1.14-.08c-6.41-.88-10.62-8.83-8.68-23,1.89-13.78,8.9-28.38,15.18-28.38m0-8c-4.31,0-10.65,2.32-16.34,13.35a70.61,70.61,0,0,0-6.76,22c-3,21.66,6.5,30.79,15.51,32a16.72,16.72,0,0,0,2.23.16c5.69,0,10.93-2.95,14.77-8.29,3.3-4.61,5.51-10.84,6.57-18.54a70.14,70.14,0,0,0-.74-23.55c-1.56-7.12-5.19-15.84-13.61-17a12.75,12.75,0,0,0-1.63-.11Z"/><path class="c" d="M154.44,388.12C113.3,471,58.53,597.42,27,714.4"/><path class="d" d="M99,454.47c-9.07,0-18.34-14.64-22-23.87-4-10-5.16-23,4.74-27a11.37,11.37,0,0,1,4.23-.82c7,0,13.5,6.21,17.85,17,4.65,11.58,7.27,30.43-1.87,34.1a7.67,7.67,0,0,1-2.9.55Z"/><path class="e" d="M85.91,406.79c4.78,0,10.16,4.63,14.14,14.52,4.76,11.85,5.7,26.75.35,28.9a3.75,3.75,0,0,1-1.41.26c-5.51,0-14-10.5-18.33-21.37-4.76-11.84-2.85-19.62,2.51-21.78a7.38,7.38,0,0,1,2.74-.53m0-8a15.17,15.17,0,0,0-5.72,1.11c-7.9,3.17-14.46,13.51-7,32.19a65.23,65.23,0,0,0,10,16.92c5.28,6.28,10.57,9.46,15.72,9.46a11.7,11.7,0,0,0,4.39-.84c7.49-3,8.83-11.71,8.63-18.47a63.32,63.32,0,0,0-4.54-20.83c-5-12.42-12.85-19.54-21.56-19.54Z"/><path class="d" d="M73.06,498.47c-9.07,0-18.33-14.65-22-23.88-4-10-5.16-23,4.73-27a11.23,11.23,0,0,1,4.24-.82c7,0,13.5,6.21,17.85,17a59.28,59.28,0,0,1,4.25,19.45c.29,10-3.17,13.46-6.13,14.65a7.83,7.83,0,0,1-2.9.55Z"/><path class="e" d="M60,450.79c4.78,0,10.16,4.63,14.14,14.52,4.75,11.84,5.7,26.74.34,28.89a3.69,3.69,0,0,1-1.41.27c-5.5,0-14-10.5-18.33-21.37-4.75-11.84-2.84-19.63,2.52-21.78a7.34,7.34,0,0,1,2.74-.53m0-8a15.26,15.26,0,0,0-5.73,1.11c-5.38,2.16-9,7.08-10,13.49-.81,5.4.21,11.69,3,18.69a65.12,65.12,0,0,0,10,16.93c5.28,6.27,10.56,9.46,15.71,9.46a11.91,11.91,0,0,0,4.4-.84c12.47-5,9.13-26.77,4.09-39.3S68.7,442.79,60,442.79Z"/><path class="d" d="M53.76,553.42c-9.07,0-18.33-14.65-22-23.88-2.54-6.33-3.48-11.92-2.78-16.6.76-5.05,3.42-8.74,7.51-10.38a11.42,11.42,0,0,1,4.24-.82c7,0,13.5,6.21,17.85,17,4.65,11.58,7.27,30.42-1.88,34.1a7.83,7.83,0,0,1-2.9.55Z"/><path class="e" d="M40.69,505.74c4.78,0,10.16,4.63,14.14,14.52,4.75,11.84,5.7,26.74.34,28.9a3.88,3.88,0,0,1-1.41.26c-5.5,0-14-10.5-18.33-21.37-4.75-11.84-2.84-19.63,2.51-21.78a7.43,7.43,0,0,1,2.75-.53m0-8A15.26,15.26,0,0,0,35,498.85c-5.38,2.16-9,7.08-10,13.5-.8,5.39.22,11.68,3,18.69a65.23,65.23,0,0,0,10,16.92c5.28,6.28,10.56,9.46,15.71,9.46a11.62,11.62,0,0,0,4.39-.84c7.5-3,8.84-11.71,8.64-18.47a63.32,63.32,0,0,0-4.54-20.83c-5-12.42-12.85-19.54-21.56-19.54Z"/><path class="d" d="M123.35,584.3c-5,0-21.31-.73-22.85-10-.52-3.14.68-7.92,9.33-12.84A59.54,59.54,0,0,1,128.67,555a46.56,46.56,0,0,1,7.45-.65c14.87,0,17.44,8.5,17.87,11.11.72,4.35-1,8.54-5,11.81-3.63,3-8.9,5.13-15.63,6.25a62.59,62.59,0,0,1-10,.81Z"/><path class="e" d="M136.12,558.32c8.38,0,13.17,3.19,13.92,7.76,1,5.7-4.72,11.38-17.31,13.46a57.89,57.89,0,0,1-9.38.76c-9.59,0-18.19-2.37-18.9-6.67-.94-5.69,12.28-12.63,24.87-14.71a41.87,41.87,0,0,1,6.8-.6m0-8A50.2,50.2,0,0,0,128,551c-13.32,2.2-33.65,10.65-31.45,23.91,1.4,8.49,11.17,13.36,26.79,13.36a64.89,64.89,0,0,0,10.69-.87c7.45-1.23,13.35-3.63,17.54-7.12,5-4.15,7.3-9.81,6.36-15.53-1.16-7-7.5-14.46-21.82-14.46Z"/><path class="d" d="M142.16,530c-5,0-21.31-.72-22.85-10-.52-3.15.68-7.93,9.34-12.84a58.91,58.91,0,0,1,18.83-6.47,45.49,45.49,0,0,1,7.45-.66c14.88,0,17.44,8.51,17.87,11.11.72,4.35-1,8.54-5,11.81-3.63,3-8.89,5.13-15.63,6.25a61.46,61.46,0,0,1-10,.81Z"/><path class="e" d="M154.93,504c8.38,0,13.17,3.19,13.92,7.77,1,5.69-4.72,11.37-17.31,13.45a57.89,57.89,0,0,1-9.38.76c-9.59,0-18.19-2.37-18.9-6.67-.94-5.69,12.28-12.62,24.87-14.71a41.87,41.87,0,0,1,6.8-.6m0-8a50,50,0,0,0-8.1.71,63.37,63.37,0,0,0-20.16,6.94,29.89,29.89,0,0,0-7.7,6c-3.77,4.29-4,8.35-3.6,11,1.4,8.49,11.17,13.36,26.79,13.36a66,66,0,0,0,10.69-.86c7.45-1.24,13.35-3.63,17.54-7.13,5-4.15,7.3-9.81,6.36-15.53-1.16-7-7.5-14.46-21.82-14.46Z"/><path class="d" d="M157.69,479.77c-5,0-21.31-.72-22.84-10-.52-3.15.67-7.93,9.33-12.84A59.15,59.15,0,0,1,163,450.45a45.51,45.51,0,0,1,7.46-.66c14.87,0,17.43,8.51,17.86,11.11,1.09,6.58-3.65,15.26-20.6,18.06a61.46,61.46,0,0,1-10,.81Z"/><path class="e" d="M170.47,453.79c8.37,0,13.16,3.2,13.92,7.77.94,5.69-4.72,11.37-17.31,13.45a58.11,58.11,0,0,1-9.39.76c-9.59,0-18.19-2.36-18.9-6.67-.94-5.69,12.28-12.62,24.87-14.7a42,42,0,0,1,6.81-.61m0-8a50,50,0,0,0-8.11.71,63.37,63.37,0,0,0-20.16,6.94,29.69,29.69,0,0,0-7.7,6c-3.77,4.29-4,8.34-3.6,11,1.41,8.49,11.17,13.36,26.79,13.36a66,66,0,0,0,10.69-.86c19.87-3.29,25.29-14.26,23.9-22.66-1.16-7-7.49-14.46-21.81-14.46Z"/><polyline class="c" points="134.35 470.01 115.59 473.62 102.83 455.03"/><polyline class="c" points="121.19 519.47 94.65 522.82 77.86 498.88"/><polyline class="c" points="104.76 574.35 73.02 574.32 57.18 551.73"/><path class="d" d="M34.07,608.62c-9.07,0-18.33-14.64-22-23.87-4-10-5.16-23,4.73-27a11.46,11.46,0,0,1,4.24-.82c7,0,13.5,6.21,17.85,17,4.65,11.58,7.27,30.42-1.87,34.1a7.92,7.92,0,0,1-2.91.55Z"/><path class="e" d="M21,560.94c4.78,0,10.16,4.63,14.14,14.52,4.76,11.85,5.7,26.75.34,28.9a3.68,3.68,0,0,1-1.41.26c-5.5,0-14-10.5-18.32-21.36-4.76-11.85-2.85-19.63,2.51-21.79a7.38,7.38,0,0,1,2.74-.53m0-8a15.26,15.26,0,0,0-5.73,1.11c-5.38,2.16-9,7.08-10,13.5-.81,5.39.21,11.68,3,18.69a65.23,65.23,0,0,0,10,16.92c5.28,6.28,10.56,9.46,15.71,9.46a11.71,11.71,0,0,0,4.4-.84c7.49-3,8.83-11.71,8.63-18.47a63.32,63.32,0,0,0-4.54-20.83c-5-12.42-12.85-19.54-21.56-19.54Z"/><path class="d" d="M103.66,639.5c-5,0-21.31-.72-22.85-10-.52-3.14.68-7.92,9.34-12.83A58.91,58.91,0,0,1,109,610.18a45.51,45.51,0,0,1,7.46-.66c14.87,0,17.43,8.5,17.86,11.11.72,4.35-1,8.54-5,11.81-3.64,3-8.9,5.13-15.64,6.25a61.46,61.46,0,0,1-10,.81Z"/><path class="e" d="M116.44,613.52c8.37,0,13.16,3.19,13.91,7.76,1,5.7-4.71,11.38-17.31,13.46a57.89,57.89,0,0,1-9.38.76c-9.59,0-18.19-2.37-18.9-6.67-.94-5.69,12.28-12.62,24.87-14.71a41.89,41.89,0,0,1,6.81-.6m0-8a50,50,0,0,0-8.11.71,63.37,63.37,0,0,0-20.16,6.94,29.89,29.89,0,0,0-7.7,6c-3.77,4.29-4,8.35-3.6,11,1.4,8.49,11.17,13.36,26.79,13.36a64.89,64.89,0,0,0,10.69-.87c19.86-3.28,25.29-14.26,23.9-22.65-1.16-7-7.5-14.46-21.81-14.46Z"/><polyline class="c" points="85.08 629.55 53.33 629.52 37.49 606.93"/><path class="d" d="M14,665.18c-9.07,0-18.33-14.64-22-23.87-2.55-6.34-3.48-11.93-2.78-16.61.75-5.05,3.42-8.73,7.51-10.37a11.22,11.22,0,0,1,4.23-.83c7,0,13.51,6.21,17.86,17C23.38,642.12,26,661,16.85,664.63a7.63,7.63,0,0,1-2.9.55Z"/><path class="e" d="M.87,617.5C5.66,617.5,11,622.13,15,632c4.76,11.84,5.71,26.74.35,28.89a3.68,3.68,0,0,1-1.41.26c-5.5,0-14-10.5-18.33-21.36C-9.14,628-7.22,620.19-1.87,618a7.19,7.19,0,0,1,2.74-.54m0-8a15.4,15.4,0,0,0-5.72,1.11c-5.38,2.17-9,7.09-10,13.5-.8,5.4.21,11.68,3,18.69a64.78,64.78,0,0,0,10,16.92C3.51,666,8.8,669.18,14,669.18a11.62,11.62,0,0,0,4.39-.84c12.47-5,9.13-26.76,4.1-39.29S9.59,609.5.87,609.5Z"/><path class="d" d="M83.54,696.06c-5,0-21.31-.72-22.85-10-.52-3.15.68-7.93,9.33-12.84a59.21,59.21,0,0,1,18.84-6.47,45.4,45.4,0,0,1,7.45-.66c14.87,0,17.44,8.51,17.87,11.11.72,4.35-1.05,8.55-5,11.81-3.64,3-8.9,5.14-15.64,6.25a61.25,61.25,0,0,1-10,.81Z"/><path class="e" d="M96.31,670.08c8.38,0,13.16,3.2,13.92,7.77.94,5.69-4.72,11.37-17.31,13.45a58,58,0,0,1-9.38.76c-9.59,0-18.19-2.36-18.9-6.67-1-5.69,12.28-12.62,24.87-14.7a42,42,0,0,1,6.8-.61m0-8a50.2,50.2,0,0,0-8.11.71C74.88,665,54.55,673.44,56.74,686.7c1.41,8.49,11.17,13.36,26.8,13.36a66.09,66.09,0,0,0,10.69-.86c7.45-1.24,13.35-3.63,17.54-7.12,5-4.16,7.3-9.82,6.35-15.54-1.15-7-7.49-14.46-21.81-14.46Z"/><polyline class="c" points="64.95 686.11 33.2 686.09 17.37 663.5"/><path class="d" d="M19.25,763.76a12.32,12.32,0,0,1-2.77-.31c-11.31-2.62-12.21-17-9.54-28.51,2.88-12.46,11.37-30,21.21-30a7.88,7.88,0,0,1,1.82.21c10.45,2.41,10.71,23.43,7.6,36.88-3.15,13.61-10,21.73-18.32,21.73Z"/><path class="e" d="M28.15,708.94a4.05,4.05,0,0,1,.92.1c6.3,1.46,7.83,18.14,4.6,32.09C30.76,753.7,25,759.76,19.25,759.76a8.44,8.44,0,0,1-1.87-.21c-6.31-1.46-9.77-9.76-6.55-23.71,3.08-13.29,11.12-26.9,17.32-26.9m0-8c-12.8,0-22,19.79-25.11,33.1-1.87,8.08-1.92,15.05-.15,20.73C5,761.37,9.58,766,15.57,767.34a16.36,16.36,0,0,0,3.68.42c10.31,0,18.62-9.28,22.22-24.83,3.33-14.4,3.4-38.44-10.6-41.68a11.82,11.82,0,0,0-2.72-.31Z"/><path class="f" d="M122.38,372.34s-23.83,5.7-33,34.77a75.34,75.34,0,0,1,38.71-11.91Z"/><path class="f" d="M466.61,250.58,345.7,298.28l19.79,20.59L495.8,281S507,270.82,497,260.39,466.61,250.58,466.61,250.58Z"/><path class="f" d="M333.27,440.44c-4.86-5.23-21.21-26.55-4.92-62.4,1.18-2.28,1.52-4.41.85-6.26-3-8.44-25.43-8.14-50.08.67s-42.19,22.78-39.18,31.22c.7,1.93,2.42,3.4,4.95,4.42,0,0,5.94,3.27-18.27,40.31a18.11,18.11,0,0,0-2,5.23c-.63,11.69,20.59,23.66,78.31,26.81s130-9,130.72-15.42C434.41,458,383.75,446,333.27,440.44Z"/><path class="f" d="M378.37,312.82c-7.23-22.11-63.65-23.48-126-3.07-26.58,8.71-49.94,20-67.44,31.73a52.4,52.4,0,0,0-32,.54c-24.16,7.91-37.74,29.93-32.15,49.74,10.54,37.35,125.62,8.61,157.85-1.94C340.94,369.41,385.61,334.93,378.37,312.82Z"/><path class="f" d="M284.57,242.32c1.88-2.2,3.85-4.53,5.95-7C380.69,129.21,393.22,119.87,341,119.87c-56,0-58.14-9.91-123.07,75-20,26.2-35.58,81.74-20.89,82.09,44.37,13.45,43.93,23.75,44.39,25.48a.62.62,0,0,1-.2.61c-12.17,10.24-18.68,20.09-15.65,25.34,4.47,7.75,28.12,2.49,52.8-11.77s37.74-29.76,36.6-39.85C311.59,260,284.57,242.32,284.57,242.32Z"/><ellipse class="g" cx="150.33" cy="365.64" rx="6.21" ry="3.65" transform="translate(-143.11 100.72) rotate(-25.57)"/><line class="h" x1="298" y1="122.63" x2="218.88" y2="220.74"/><line class="h" x1="314.28" y1="119.84" x2="226.57" y2="229.08"/><line class="h" x1="330.56" y1="120.94" x2="244.68" y2="227.46"/><line class="h" x1="346.85" y1="122.82" x2="256.57" y2="234.78"/><line class="h" x1="363.13" y1="122.04" x2="275.42" y2="231.27"/><line class="h" x1="489.01" y1="255.99" x2="368.72" y2="300.54"/><line class="h" x1="499.78" y1="266.23" x2="374.37" y2="306.63"/><line class="h" x1="428.22" y1="462.13" x2="329.36" y2="450.3"/><line class="h" x1="421.99" y1="470.71" x2="315.09" y2="460.4"/><line class="h" x1="379.14" y1="476.79" x2="332.99" y2="472.15"/></svg>