<svg xmlns="http://www.w3.org/2000/svg" width="510" height="900" viewBox="0 0 510 900"><defs><style>.a{fill:#ffdc82;}.a,.b,.c,.d,.e{stroke:#432d1e;stroke-linejoin:round;}.a,.b,.d,.e{stroke-width:8px;}.b{fill:#56634a;}.c,.e{fill:none;}.c{stroke-width:5px;}.d{fill:#9980bf;}</style></defs><title>52</title><path class="a" d="M237.81,354c80.07,299.21,19.91,580.35-147.07,802.58l-61.11-95.3C212.1,876.75,277.52,624,237.81,354Z"/><path class="b" d="M527.92,98.42C337.62,333.56,260,628,287.93,925.67c29.08-18.52,57.52-3.15,86.59-21.67C318.56,633.09,380.51,328.28,527.92,98.42Z"/><path class="c" d="M530,97.8C355,338.44,283.32,630.29,326.91,924.61"/><path class="b" d="M534.6,348.13C365,498.8,310.5,699.33,359.83,909.85l81.57-32.49C366.51,683.5,406.77,498.27,534.6,348.13Z"/><path class="c" d="M536.59,347.85C382.48,503.5,333.56,702.63,398,912"/><path class="b" d="M-28.7,206.62C191.21,424.74,280.89,697.89,248.61,974l-100.8-51.53C212.48,671.15,141.64,419.85-28.7,206.62Z"/><path class="c" d="M-31.09,206.05c202.2,223.21,285,493.94,234.67,767"/><path class="b" d="M-48.62,438c195.93,139.77,259,325.78,202,521.06L59.08,928.89C145.61,749.07,99.09,577.24-48.62,438Z"/><path class="c" d="M-50.92,437.71C127.16,582.1,183.68,766.81,109.2,961"/><path class="b" d="M-2.44,641.56C105,722.14,155.37,830.89,150.09,953.6L70.51,943C93.67,837.43,66,743.73-2.18,667"/><path class="c" d="M-11.19,645.54C87.52,728.84,132,837.49,115.94,961"/><path class="b" d="M-6.74,781.42c79.09,31,123.07,90.86,131.65,172.57L53.12,972.73c6.31-69.81-15-123.13-58.9-159.75"/><path class="c" d="M-6.74,794.43C59.77,829.86,95.11,889.82,95.53,971.1"/><path class="b" d="M580.74,500.78c-156.1,87.79-229.95,233-224.07,403.22l68.88-11.46C397.08,730.93,457.37,595.09,580.74,500.78Z"/><path class="c" d="M582.34,500.9C437.55,595.08,368.33,740.18,386.23,912"/><path class="b" d="M603.84,693.5C471,702,399,779.61,388.47,904.41l62.13,20.2c-9.16-126,48.65-202.18,153.41-227.48"/><path class="c" d="M607.28,695.58c-124.78,16.66-192.84,96.3-193.39,227.28"/><path class="b" d="M453.8,552.8C297.7,640.59,223.86,785.84,229.73,956l68.88-11.45C270.14,783,330.44,647.11,453.8,552.8Z"/><path class="c" d="M455.41,552.92C310.62,647.1,241.39,792.21,259.29,964"/><path class="d" d="M280.74,226.5c6.23,12.15,6.91,29.78,7.13,44.61.06,4-4,3.69-5.6.08a219,219,0,0,0-19.22-33.37c-3.67-5.37-6.23-16-1.53-21.49C268.93,207.68,278.11,221.39,280.74,226.5Z"/><path class="e" d="M255.77,350.48c3.67,21,20.17,35.72,20.17,35.72s10.55-19.4,6.88-40.43-20.16-35.72-20.16-35.72S252.11,329.46,255.77,350.48Z"/><path class="e" d="M285.73,313.12C292,333.51,310.24,346,310.24,346s8-20.58,1.72-41-24.52-32.88-24.52-32.88S279.43,292.72,285.73,313.12Z"/><path class="e" d="M235,352.87c-3.66,21-20.16,35.72-20.16,35.72s-10.55-19.41-6.88-40.44,20.16-35.72,20.16-35.72S238.69,331.84,235,352.87Z"/><path class="e" d="M200.51,325.57C194.22,346,176,358.45,176,358.45s-8-20.58-1.72-41,24.52-32.88,24.52-32.88S206.81,305.17,200.51,325.57Z"/><path class="d" d="M308.55,399.87c0,54.58-63.14,98.17-63.14,98.17s-63.14-43.59-63.14-98.17,63.14-59.2,63.14,6C245.41,340.67,308.55,345.29,308.55,399.87Z"/><path class="d" d="M259,381.87C259,395.08,245.41,492,245.41,492s-13.56-96.92-13.56-110.13S237.92,358,245.41,358,259,368.66,259,381.87Z"/><path class="d" d="M166.52,387.36c-30.9,17.52-62.33,35-94,51.25-9.79-42.51-.39-95.17,40.32-118.39,11.86-6.76,50.86-19.14,59.87-.3,7.51,15.7-30,31.81-38.81,37.33,12.91-7.21,51-22.28,61.95-2.39C203.91,369.43,175.23,382.43,166.52,387.36Z"/><path class="d" d="M163.45,352.37c-37.52,15.08-71.9,40.95-88.77,79.58C85.35,392,114.91,351.2,152.6,337.63c8.63-3.11,28.13-6.52,31.76-.25C187.1,342.12,168.33,350.4,163.45,352.37Z"/><path class="d" d="M316.66,375c30.9,17.52,62.33,35,94,51.25,9.79-42.51.39-95.17-40.32-118.39-11.86-6.76-50.86-19.14-59.87-.3-7.51,15.7,30,31.81,38.81,37.33-12.91-7.21-51-22.28-61.95-2.39C279.27,357.09,308,370.09,316.66,375Z"/><path class="d" d="M319.73,340c37.52,15.08,71.9,41,88.77,79.58-10.67-39.95-40.23-80.75-77.92-94.32-8.63-3.11-28.13-6.52-31.76-.25C296.08,329.78,314.85,338.07,319.73,340Z"/><path class="d" d="M209,237.6c-7.12,11.65-9.13,29.18-10.45,44-.36,3.95,3.68,4,5.57.5a219.76,219.76,0,0,1,21.67-31.84c4.06-5.07,7.41-15.48,3.14-21.3C222.19,219.72,212,232.7,209,237.6Z"/><path class="d" d="M226,286c-4.27,6.73-4,17.79-3.42,27.14a2.3,2.3,0,0,0,4.36.91,90.71,90.71,0,0,1,13.39-18.16c2.6-2.83,4.09-9.17.17-13.37C234.33,275.93,227.83,283.19,226,286Z"/><path class="d" d="M273,284.38c1.66,7.8-2.48,18.06-6.25,26.63a2.3,2.3,0,0,1-4.41-.66,90.86,90.86,0,0,0-6.21-21.7c-1.46-3.56-.64-10,4.5-12.58C268.78,272,272.34,281.1,273,284.38Z"/></svg>