<svg xmlns="http://www.w3.org/2000/svg" width="510" height="900" viewBox="0 0 510 900"><defs><style>.a{fill:#ffdc82;}.a,.b,.c,.d,.e{stroke:#432d1e;stroke-linejoin:round;}.a,.b,.d,.e{stroke-width:8px;}.b{fill:#56634a;}.c,.e{fill:none;}.c{stroke-width:5px;}.d{fill:#9980bf;}</style></defs><title>53</title><path class="a" d="M278.47,354c-80.07,299.21-19.91,580.35,147.07,802.58l61.11-95.3C304.18,876.75,238.76,624,278.47,354Z"/><path class="b" d="M-11.64,98.42c190.3,235.14,267.91,529.61,240,827.25-29.08-18.52-57.52-3.15-86.59-21.67C197.72,633.09,135.77,328.28-11.64,98.42Z"/><path class="c" d="M-13.72,97.8C161.27,338.44,233,630.29,189.37,924.61"/><path class="b" d="M-18.32,348.13c169.56,150.67,224.1,351.2,174.77,561.72L74.88,877.36C149.77,683.5,109.51,498.27-18.32,348.13Z"/><path class="c" d="M-20.31,347.85C133.8,503.5,182.72,702.63,118.25,912"/><path class="b" d="M545,206.62C325.07,424.74,235.39,697.89,267.67,974l100.8-51.53C303.8,671.15,374.64,419.85,545,206.62Z"/><path class="c" d="M547.37,206.05C345.17,429.26,262.34,700,312.7,973"/><path class="b" d="M564.9,438C369,577.74,306,763.75,363,959l94.25-30.14C370.67,749.07,417.19,577.24,564.9,438Z"/><path class="c" d="M567.2,437.71C389.12,582.1,332.6,766.81,407.08,961"/><path class="b" d="M625.1,579.57C444.72,661,359.4,795.74,366.19,953.6L445.77,943C412.88,793.07,482.55,667.05,625.1,579.57Z"/><path class="c" d="M627,579.68C459.65,667,379.66,801.65,400.34,961"/><path class="b" d="M665.37,757.64c-169.54,1-261.2,74.41-274,196.35l71.79,18.74C451.88,848,528.63,776,665.37,757.64Z"/><path class="c" d="M667,758.35c-158.66,9.9-245.59,85-246.25,212.75"/><path class="b" d="M-64.46,500.78c156.1,87.79,230,233,224.07,403.22L90.73,892.54C119.2,730.93,58.91,595.09-64.46,500.78Z"/><path class="c" d="M-66.06,500.9C78.73,595.08,148,740.18,130.06,912"/><path class="b" d="M-94.13,693.14c137,6.3,211.26,84.42,221.94,211.27l-62.13,20.2C75,796.13,14.76,719.48-93.9,695.71"/><path class="c" d="M-97,694.82c128.63,14.88,198.88,94.95,199.44,228"/><path class="b" d="M62.48,552.8c156.1,87.79,229.94,233,224.07,403.22l-68.88-11.45C246.14,783,185.84,647.11,62.48,552.8Z"/><path class="c" d="M60.87,552.92C205.66,647.1,274.89,792.21,257,964"/><path class="d" d="M235.54,226.5c-6.23,12.15-6.91,29.78-7.13,44.61-.06,4,4,3.69,5.6.08a219,219,0,0,1,19.22-33.37c3.67-5.37,6.23-16,1.53-21.49C247.35,207.68,238.17,221.39,235.54,226.5Z"/><path class="e" d="M260.51,350.48c-3.67,21-20.17,35.72-20.17,35.72s-10.55-19.4-6.88-40.43,20.16-35.72,20.16-35.72S264.17,329.46,260.51,350.48Z"/><path class="e" d="M230.55,313.12C224.26,333.51,206,346,206,346s-8-20.58-1.72-41,24.52-32.88,24.52-32.88S236.85,292.72,230.55,313.12Z"/><path class="e" d="M281.26,352.87c3.66,21,20.16,35.72,20.16,35.72s10.55-19.41,6.88-40.44-20.16-35.72-20.16-35.72S277.59,331.84,281.26,352.87Z"/><path class="e" d="M315.77,325.57c6.29,20.4,24.51,32.88,24.51,32.88s8-20.58,1.72-41-24.52-32.88-24.52-32.88S309.47,305.17,315.77,325.57Z"/><path class="d" d="M207.73,399.87c0,54.58,63.14,98.17,63.14,98.17S334,454.45,334,399.87s-63.14-59.2-63.14,6C270.87,340.67,207.73,345.29,207.73,399.87Z"/><path class="d" d="M257.31,381.87c0,13.21,13.56,110.13,13.56,110.13s13.56-96.92,13.56-110.13S278.36,358,270.87,358,257.31,368.66,257.31,381.87Z"/><path class="d" d="M349.76,387.36c30.9,17.52,62.33,35,94,51.25,9.79-42.51.39-95.17-40.32-118.39-11.86-6.76-50.86-19.14-59.87-.3-7.51,15.7,30,31.81,38.81,37.33-12.91-7.21-51-22.28-62-2.39C312.37,369.43,341.05,382.43,349.76,387.36Z"/><path class="d" d="M352.83,352.37c37.52,15.08,71.9,40.95,88.77,79.58-10.67-39.95-40.23-80.75-77.92-94.32-8.63-3.11-28.13-6.52-31.76-.25C329.18,342.12,348,350.4,352.83,352.37Z"/><path class="d" d="M199.62,375c-30.9,17.52-62.33,35-94,51.25-9.79-42.51-.39-95.17,40.32-118.39,11.86-6.76,50.86-19.14,59.87-.3,7.51,15.7-30,31.81-38.81,37.33,12.91-7.21,51-22.28,61.95-2.39C237,357.09,208.33,370.09,199.62,375Z"/><path class="d" d="M196.55,340c-37.52,15.08-71.9,41-88.77,79.58,10.67-39.95,40.23-80.75,77.92-94.32,8.63-3.11,28.13-6.52,31.76-.25C220.2,329.78,201.43,338.07,196.55,340Z"/><path class="d" d="M307.27,237.6c7.12,11.65,9.13,29.18,10.45,44,.36,3.95-3.68,4-5.57.5a219.76,219.76,0,0,0-21.67-31.84c-4.06-5.07-7.41-15.48-3.14-21.3C294.09,219.72,304.27,232.7,307.27,237.6Z"/><path class="d" d="M290.25,286c4.27,6.73,4,17.79,3.42,27.14a2.3,2.3,0,0,1-4.36.91,90.71,90.71,0,0,0-13.39-18.16c-2.6-2.83-4.09-9.17-.17-13.37C282,275.93,288.45,283.19,290.25,286Z"/><path class="d" d="M243.24,284.38c-1.66,7.8,2.48,18.06,6.25,26.63a2.3,2.3,0,0,0,4.41-.66,90.86,90.86,0,0,1,6.21-21.7c1.46-3.56.64-10-4.5-12.58C247.5,272,243.94,281.1,243.24,284.38Z"/></svg>