<svg xmlns="http://www.w3.org/2000/svg" width="510" height="900" viewBox="0 0 510 900"><defs><style>.a,.d,.e,.g{fill:#bd645d;}.a,.b,.d,.e,.f,.i{stroke:#432d1e;stroke-miterlimit:10;}.a,.i{stroke-linecap:round;}.a{stroke-width:6px;}.b{fill:#56634a;}.b,.d,.f{stroke-width:8px;}.c{fill:#432d1e;}.e{stroke-width:5px;}.f,.h{fill:#ffdc82;}.i{fill:none;stroke-width:7px;}</style></defs><title>60</title><path class="a" d="M489.57,7.36c3.6,0,6.52,2.31,6.52,5.16,0,4.07-4.17,7.37-9.32,7.37-7.34,0-13.3-4.72-13.3-10.53,0-8.31,8.51-15,19-15,15,0,27.14,18.77,27.14,35.48,0,17-17.36,16.7-38.78,16.7H222.59V-34.36S472.66-31.07,480.53-5.68"/><path class="a" d="M424.07,26c3.6,0,6.52,2.31,6.52,5.16,0,4.06-4.17,7.36-9.31,7.36C413.93,38.51,408,33.8,408,28c0-8.31,8.5-15,19-15,15,0,27.15,18.77,27.15,35.48,0,16.95-17.37,16.69-38.79,16.69H222.09V-5.74"/><path class="a" d="M316.51,49.22c3.6,0,6.52,2.31,6.52,5.16,0,4.07-4.17,7.37-9.31,7.37-7.35,0-13.31-4.71-13.31-10.53,0-8.3,8.51-15,19-15,15,0,27.14,18.77,27.14,35.48,0,17-17.36,16.69-38.78,16.69H94.53V-12.5s154.27-.37,159.64,37.63c27.85-10.28,50.14,3.8,53.3,11.06"/><path class="a" d="M194.27,98.53c3.59,0,6.51,2.31,6.51,5.16,0,4.07-4.17,7.37-9.31,7.37-7.34,0-13.3-4.72-13.3-10.53,0-8.31,8.51-15,19-15,15,0,27.15,18.77,27.15,35.48,0,16.95-17.36,16.7-38.78,16.7H2.28V66.81s173-35.13,183,18.68"/><path class="a" d="M136.87,36.21c3.6,0,6.52,2.31,6.52,5.15,0,4.07-4.17,7.37-9.31,7.37-7.35,0-13.3-4.71-13.3-10.52,0-8.31,8.5-15,19-15,15,0,27.15,18.77,27.15,35.48,0,16.95-17.37,16.69-38.78,16.69H-.11V-5.52S120-2.22,127.83,23.17"/><path class="a" d="M71.38,54.83c3.6,0,6.51,2.31,6.51,5.16,0,4.07-4.17,7.37-9.31,7.37-7.34,0-13.3-4.71-13.3-10.53,0-8.3,8.51-15,19-15,15,0,27.15,18.78,27.15,35.49,0,17-17.36,16.69-38.78,16.69H-.61V23.11"/><path class="a" d="M46,138.78c3.6,0,6.52,2.31,6.52,5.16,0,4.07-4.17,7.37-9.31,7.37-7.35,0-13.3-4.72-13.3-10.53,0-8.31,8.5-15,19-15,15,0,27.14,18.77,27.14,35.49,0,17-17.36,16.69-38.78,16.69H-6V107.06s42.94-4.76,42.94,18.68"/><path class="b" d="M187.59,512.53l-70.8,78.82s-43-1.35-74.9-51.69c0,0,19.07,8.09,32,2.35a49.45,49.45,0,0,1-18.8-10.58c-20.39-18.32-30.62-94.21-30.62-94.21s76.55,2.07,96.94,20.38A49.49,49.49,0,0,1,134,475.17c4.33-13.49-5.76-31.59-5.76-31.59C181.66,469.94,187.59,512.53,187.59,512.53Z"/><path class="c" d="M143,544.16c-4.66-2.83-9-6-13.37-9.16s-8.51-6.54-12.63-10-8.09-7-11.93-10.76-7.62-7.54-11.5-11.23L82,492,70.39,480.8c-7.65-7.5-15.37-14.93-23-22.5a.35.35,0,0,1,0-.5.36.36,0,0,1,.47,0c8.34,6.74,16.55,13.62,24.83,20.42l12.33,10.3,12.26,10.38c4.09,3.47,8.25,6.84,12.39,10.24s8.13,7,12,10.71,7.61,7.55,11.27,11.49,7.21,8,10.52,12.32a.35.35,0,0,1-.46.52Z"/><path class="c" d="M135.17,536.83a32.57,32.57,0,0,1,.08-6.78,50.2,50.2,0,0,1,1.12-6.41,32,32,0,0,1,2.12-6.08c.92-1.95,1.88-3.89,2.72-5.87l2.53-5.93,2.64-5.9c1.8-3.92,3.58-7.84,5.5-11.72a.36.36,0,0,1,.47-.16.36.36,0,0,1,.19.39c-.87,4.24-1.86,8.43-2.85,12.63l-1.54,6.27-1.65,6.24c-.55,2.08-1,4.2-1.46,6.3a31.94,31.94,0,0,1-2,6.1,50.44,50.44,0,0,1-3.06,5.75,32.07,32.07,0,0,1-4.1,5.4.39.39,0,0,1-.55,0A.44.44,0,0,1,135.17,536.83Z"/><path class="c" d="M110.92,515.05a19.79,19.79,0,0,1-.48-5.15,28.78,28.78,0,0,1,.56-4.79,17.08,17.08,0,0,1,1.57-4.45c.73-1.41,1.5-2.81,2.16-4.25l2-4.3,2.08-4.27c1.43-2.84,2.84-5.67,4.39-8.47a.36.36,0,0,1,.48-.14.38.38,0,0,1,.18.37c-.5,3.15-1.12,6.26-1.74,9.37l-1,4.65L120,498.23c-.37,1.54-.61,3.11-.9,4.68a17.19,17.19,0,0,1-1.5,4.47,27.43,27.43,0,0,1-2.5,4.12,19.19,19.19,0,0,1-3.54,3.77.41.41,0,0,1-.66-.22Z"/><path class="c" d="M90.67,496.85a19.67,19.67,0,0,1-.48-5.14,29,29,0,0,1,.56-4.8,16.78,16.78,0,0,1,1.57-4.44c.73-1.41,1.5-2.81,2.16-4.25l2-4.3,2.08-4.28c1.43-2.83,2.84-5.67,4.38-8.46a.37.37,0,0,1,.49-.14.36.36,0,0,1,.18.37c-.5,3.15-1.13,6.26-1.74,9.37l-1,4.65L99.77,480c-.37,1.53-.61,3.11-.9,4.68a17.31,17.31,0,0,1-1.5,4.47,27.94,27.94,0,0,1-2.5,4.12,19.19,19.19,0,0,1-3.54,3.77.41.41,0,0,1-.58-.06A.38.38,0,0,1,90.67,496.85Z"/><path class="c" d="M70.42,478.66a13.24,13.24,0,0,1-.87-4,17,17,0,0,1,.17-3.66,9.63,9.63,0,0,1,1.18-3.32c.6-1,1.25-2.05,1.77-3.11l1.59-3.18L76,458.24c1.16-2.08,2.32-4.16,3.61-6.2a.35.35,0,0,1,.49-.11.37.37,0,0,1,.17.34c-.24,2.4-.61,4.75-1,7.11l-.6,3.51L78,466.38c-.24,1.15-.36,2.35-.52,3.54a9.41,9.41,0,0,1-1.11,3.34,16.43,16.43,0,0,1-2.11,3,12.89,12.89,0,0,1-3.15,2.64.46.46,0,0,1-.63-.16Z"/><path class="c" d="M135.3,537.65a32.06,32.06,0,0,1-4.93,4.65A51.65,51.65,0,0,1,125,546a32.48,32.48,0,0,1-5.84,2.69c-2,.7-4.11,1.35-6.11,2.13l-6,2.29-6.08,2.21c-4.06,1.43-8.12,2.87-12.24,4.18a.35.35,0,0,1-.3-.63c3.65-2.32,7.36-4.51,11.06-6.72l5.58-3.25,5.63-3.16c1.88-1,3.71-2.2,5.55-3.33a32.15,32.15,0,0,1,5.81-2.75,50.17,50.17,0,0,1,6.27-1.8A31.78,31.78,0,0,1,135,537a.39.39,0,0,1,.39.39A.38.38,0,0,1,135.3,537.65Z"/><path class="c" d="M111.05,515.87a19.75,19.75,0,0,1-3.37,3.92,29.17,29.17,0,0,1-3.83,2.92,17,17,0,0,1-4.29,2c-1.52.45-3.06.87-4.55,1.4l-4.47,1.57L86,529.12c-3,1-6,1.9-9.13,2.73a.36.36,0,0,1-.44-.25.35.35,0,0,1,.14-.38c2.61-1.84,5.28-3.55,8-5.27l4-2.52L92.64,521c1.36-.8,2.66-1.71,4-2.6a17.36,17.36,0,0,1,4.26-2,27.68,27.68,0,0,1,4.7-1.06,19.32,19.32,0,0,1,5.17-.08.42.42,0,0,1,.36.47A.49.49,0,0,1,111.05,515.87Z"/><path class="c" d="M90.8,497.67a19.47,19.47,0,0,1-3.37,3.92,28.41,28.41,0,0,1-3.83,2.93,17,17,0,0,1-4.29,2c-1.52.45-3.07.86-4.55,1.39l-4.47,1.58-4.52,1.47c-3,.94-6,1.9-9.13,2.73a.36.36,0,0,1-.44-.25.37.37,0,0,1,.14-.39c2.61-1.83,5.28-3.54,8-5.26l4-2.52,4.07-2.43c1.36-.8,2.67-1.72,4-2.6a17.36,17.36,0,0,1,4.26-2,28.69,28.69,0,0,1,4.7-1.07A19.76,19.76,0,0,1,90.5,497a.42.42,0,0,1,.36.47A.44.44,0,0,1,90.8,497.67Z"/><path class="c" d="M70.55,479.48a13.34,13.34,0,0,1-2.29,3.42,16.86,16.86,0,0,1-2.75,2.42,9.79,9.79,0,0,1-3.2,1.46c-1.16.28-2.34.52-3.47.88l-3.38,1.07-3.44,1c-2.3.61-4.6,1.23-7,1.72a.37.37,0,0,1-.43-.28.38.38,0,0,1,.13-.36c1.89-1.49,3.84-2.86,5.78-4.25l2.94-2,3-1.92c1-.63,1.94-1.38,2.9-2.09A9.43,9.43,0,0,1,62.55,479a16.2,16.2,0,0,1,3.62-.57,13.26,13.26,0,0,1,4.08.44.45.45,0,0,1,.32.56A.14.14,0,0,1,70.55,479.48Z"/><path class="b" d="M419.73,575.35,346,505.27s2.47-41.21,51.64-70.47c0,0-8.29,18.09-3.13,30.67a47.44,47.44,0,0,1,10.67-17.76c18.13-19.06,91.23-26.81,91.23-26.81s-4.07,73.4-22.2,92.46a47.45,47.45,0,0,1-17.19,11.55c12.82,4.52,30.46-4.67,30.46-4.67C460.76,570.82,419.73,575.35,419.73,575.35Z"/><path class="c" d="M390.59,531.7c2.81-4.42,5.91-8.56,9.08-12.64s6.49-8,9.88-11.88,6.95-7.57,10.65-11.14,7.46-7.1,11.11-10.72l11-10.84,11.05-10.77c7.42-7.13,14.77-14.32,22.26-21.38a.35.35,0,0,1,.49,0,.34.34,0,0,1,0,.47c-6.67,7.83-13.49,15.54-20.23,23.31l-10.2,11.57-10.28,11.49c-3.44,3.83-6.78,7.75-10.15,11.63s-6.91,7.61-10.59,11.2-7.48,7.07-11.37,10.46-7.89,6.68-12.16,9.71a.36.36,0,0,1-.5-.09A.33.33,0,0,1,390.59,531.7Z"/><path class="c" d="M397.85,524.37a30.7,30.7,0,0,1,6.53.18,47.62,47.62,0,0,1,6.14,1.21,29.23,29.23,0,0,1,5.77,2.21c1.84.94,3.67,1.93,5.55,2.79l5.62,2.61,5.58,2.71c3.7,1.85,7.41,3.69,11.07,5.65a.35.35,0,0,1,.14.48.34.34,0,0,1-.39.18c-4.05-.93-8.05-2-12.05-3l-6-1.63L419.87,536c-2-.58-4-1-6-1.54a29.66,29.66,0,0,1-5.8-2.14,47.51,47.51,0,0,1-5.42-3.13,30.82,30.82,0,0,1-5-4.16.4.4,0,0,1,.25-.66Z"/><path class="c" d="M419.41,501.7a18.39,18.39,0,0,1,5-.4,26.41,26.41,0,0,1,4.6.63,15.75,15.75,0,0,1,4.23,1.62c1.33.76,2.64,1.55,4,2.22l4.07,2,4,2.13c2.67,1.46,5.35,2.91,8,4.49a.36.36,0,0,1,.12.49.37.37,0,0,1-.37.17c-3-.55-6-1.21-9-1.87l-4.44-1.05L435.25,511c-1.46-.39-3-.66-4.47-1a15.73,15.73,0,0,1-4.25-1.56,25.58,25.58,0,0,1-3.87-2.55,18.34,18.34,0,0,1-3.5-3.58.42.42,0,0,1,.1-.58A.34.34,0,0,1,419.41,501.7Z"/><path class="c" d="M437.42,482.76a18.34,18.34,0,0,1,5-.39,25.74,25.74,0,0,1,4.6.63,15.56,15.56,0,0,1,4.22,1.62c1.33.75,2.65,1.54,4,2.21l4.07,2,4,2.13c2.68,1.47,5.36,2.92,8,4.5a.35.35,0,0,1-.25.65c-3-.54-6-1.21-9-1.87l-4.44-1-4.4-1.15c-1.46-.39-3-.66-4.47-1a16.07,16.07,0,0,1-4.25-1.56,26.45,26.45,0,0,1-3.88-2.55,18.59,18.59,0,0,1-3.49-3.58.43.43,0,0,1,.1-.59A.69.69,0,0,1,437.42,482.76Z"/><path class="c" d="M455.43,463.83a12.17,12.17,0,0,1,3.9-.8,15.74,15.74,0,0,1,3.53.22,8.87,8.87,0,0,1,3.15,1.22c1,.62,1.92,1.28,2.92,1.81l3,1.63,3,1.73c1.95,1.19,3.92,2.37,5.83,3.68a.36.36,0,0,1,.09.5.36.36,0,0,1-.34.16c-2.3-.28-4.55-.68-6.81-1.07l-3.37-.64-3.32-.75c-1.11-.25-2.26-.39-3.4-.56a8.76,8.76,0,0,1-3.17-1.15,15.25,15.25,0,0,1-2.8-2.15,12.49,12.49,0,0,1-2.42-3.18.47.47,0,0,1,.2-.63Z"/><path class="c" d="M397,524.49a29.54,29.54,0,0,1-4.4-4.82,44.85,44.85,0,0,1-3.4-5.26,28.5,28.5,0,0,1-2.43-5.68c-.6-2-1.17-4-1.85-5.93l-2-5.85-1.93-5.9c-1.25-3.95-2.5-7.89-3.63-11.89a.35.35,0,0,1,.64-.28c2.15,3.56,4.17,7.17,6.2,10.78l3,5.44,2.89,5.47c1,1.83,2,3.61,3.07,5.41a30,30,0,0,1,2.49,5.65,46.82,46.82,0,0,1,1.51,6.07,30.14,30.14,0,0,1,.51,6.52.39.39,0,0,1-.4.37A.4.4,0,0,1,397,524.49Z"/><path class="c" d="M418.6,501.82a18.39,18.39,0,0,1-3.75-3.31,26.92,26.92,0,0,1-2.74-3.74,16,16,0,0,1-1.77-4.17c-.38-1.47-.72-3-1.19-4.41l-1.37-4.34-1.27-4.38c-.8-2.94-1.62-5.88-2.31-8.86a.35.35,0,0,1,.26-.43.35.35,0,0,1,.38.15c1.71,2.54,3.29,5.15,4.88,7.74l2.34,3.93,2.23,4c.74,1.32,1.59,2.6,2.41,3.89a15.34,15.34,0,0,1,1.83,4.14,25,25,0,0,1,.86,4.56,18.35,18.35,0,0,1-.14,5,.43.43,0,0,1-.49.34A.44.44,0,0,1,418.6,501.82Z"/><path class="c" d="M436.61,482.89a18.73,18.73,0,0,1-3.75-3.31,26.92,26.92,0,0,1-2.74-3.74,16,16,0,0,1-1.77-4.17c-.38-1.48-.73-3-1.19-4.42l-1.37-4.34-1.27-4.38c-.81-2.94-1.62-5.87-2.32-8.86a.36.36,0,0,1,.65-.28c1.7,2.55,3.29,5.15,4.88,7.75l2.33,3.92,2.24,4c.74,1.33,1.59,2.6,2.41,3.89a15.8,15.8,0,0,1,1.83,4.14,26.07,26.07,0,0,1,.86,4.56,18.46,18.46,0,0,1-.15,5,.42.42,0,0,1-.48.34A.76.76,0,0,1,436.61,482.89Z"/><path class="c" d="M454.62,464a12.52,12.52,0,0,1-3.29-2.25A15.49,15.49,0,0,1,449,459a8.82,8.82,0,0,1-1.31-3.11c-.23-1.13-.42-2.28-.73-3.37l-.91-3.28-.82-3.33c-.5-2.24-1-4.47-1.4-6.75a.36.36,0,0,1,.29-.42.36.36,0,0,1,.35.14c1.4,1.84,2.68,3.74,4,5.64l1.88,2.86,1.77,2.91c.59,1,1.29,1.9,2,2.84a8.8,8.8,0,0,1,1.37,3.08,16,16,0,0,1,.41,3.51,12.84,12.84,0,0,1-.61,3.94.46.46,0,0,1-.59.3Z"/><path class="b" d="M285.35,469.15l-71.54,28s-27.39-14.89-31.64-57.9c0,0,9.71,11.47,20,12a36,36,0,0,1-8.72-13c-7.23-18.51,10.89-71,10.89-71s48.9,26.3,56.12,44.81a35.78,35.78,0,0,1,2.39,15.46c7.2-7.32,6.57-22.33,6.57-22.33C295.4,439.63,285.35,469.15,285.35,469.15Z"/><path class="c" d="M246.08,475.12a95.06,95.06,0,0,1-6.21-10.07c-1.87-3.44-3.59-6.93-5.19-10.47a105.05,105.05,0,0,1-4.21-10.86c-1.19-3.7-2.34-7.41-3.61-11.08l-3.8-11-3.7-11.05c-2.38-7.41-4.86-14.77-7.17-22.2a.36.36,0,0,1,.24-.44.36.36,0,0,1,.42.18c3.34,7,6.51,14.12,9.77,21.18l4.78,10.64,4.67,10.67c1.55,3.56,3.23,7.07,4.86,10.6A108.19,108.19,0,0,1,241.2,452q1.83,5.54,3.28,11.22a96.2,96.2,0,0,1,2.25,11.62.36.36,0,0,1-.65.25Z"/><path class="c" d="M243.42,467.72a19.41,19.41,0,0,1,1.85-4.78,28.32,28.32,0,0,1,2.62-4,16.92,16.92,0,0,1,3.36-3.24c1.28-.91,2.59-1.8,3.81-2.78l3.66-2.92,3.74-2.85c2.53-1.86,5-3.74,7.66-5.52a.36.36,0,0,1,.49.1.36.36,0,0,1,0,.41c-1.84,2.56-3.78,5-5.7,7.52L262,453.34l-3,3.6c-1,1.19-1.93,2.48-2.87,3.73a17,17,0,0,1-3.32,3.29,27.58,27.58,0,0,1-4.05,2.52,19.2,19.2,0,0,1-4.82,1.74.41.41,0,0,1-.49-.32A.54.54,0,0,1,243.42,467.72Z"/><path class="c" d="M234.82,445.71a13.11,13.11,0,0,1,1-3.91,16.17,16.17,0,0,1,1.73-3.12,9,9,0,0,1,2.47-2.36c1-.63,2-1.23,2.91-1.92l2.78-2,2.84-2c1.93-1.29,3.86-2.58,5.87-3.78a.37.37,0,0,1,.5.13.35.35,0,0,1,0,.37c-1.24,2-2.58,3.88-3.91,5.78l-2,2.8-2.12,2.73c-.71.9-1.33,1.9-2,2.86a9,9,0,0,1-2.42,2.42,15.74,15.74,0,0,1-3.16,1.65,12.69,12.69,0,0,1-3.93.87.46.46,0,0,1-.49-.44Z"/><path class="c" d="M227.64,427.33a13,13,0,0,1,1-3.91,16.17,16.17,0,0,1,1.73-3.12,9.14,9.14,0,0,1,2.47-2.37c1-.62,2-1.22,2.91-1.91l2.78-2,2.84-2c1.93-1.29,3.86-2.58,5.87-3.78a.37.37,0,0,1,.5.13.35.35,0,0,1,0,.37c-1.24,2-2.58,3.88-3.91,5.78l-2,2.8L239.62,420c-.71.9-1.33,1.9-2,2.86a8.81,8.81,0,0,1-2.42,2.41,16,16,0,0,1-3.16,1.66,12.69,12.69,0,0,1-3.93.87.47.47,0,0,1-.49-.44Z"/><path class="c" d="M220.46,408.94a9.7,9.7,0,0,1,1.45-5.81,5,5,0,0,1,1.85-1.76c.76-.43,1.58-.81,2.29-1.31l2.15-1.44,2.23-1.37c1.52-.88,3-1.77,4.63-2.56a.36.36,0,0,1,.49.16.4.4,0,0,1,0,.34c-.83,1.58-1.76,3.07-2.67,4.56l-1.43,2.2L230,404.07c-.51.69-.91,1.5-1.36,2.26a5.09,5.09,0,0,1-1.8,1.8,9.35,9.35,0,0,1-2.54,1.05,9.79,9.79,0,0,1-3.31.27A.55.55,0,0,1,220.46,408.94Z"/><path class="c" d="M243.3,468.46a19.21,19.21,0,0,1-4.72,2,27.85,27.85,0,0,1-4.69.89,17,17,0,0,1-4.67-.17c-1.54-.28-3.09-.61-4.64-.8l-4.65-.61-4.65-.71c-3.09-.52-6.19-1-9.28-1.67a.35.35,0,0,1,0-.7c3.12-.46,6.24-.79,9.37-1.13l4.68-.44,4.67-.34c1.56-.1,3.12-.34,4.68-.53a17,17,0,0,1,4.67.1,27.76,27.76,0,0,1,4.63,1.16,19.2,19.2,0,0,1,4.6,2.26.42.42,0,0,1,.11.58A.37.37,0,0,1,243.3,468.46Z"/><path class="c" d="M234.7,446.45a12.63,12.63,0,0,1-3.47,2,16.09,16.09,0,0,1-3.45.93,9.17,9.17,0,0,1-3.42-.14c-1.13-.26-2.26-.58-3.39-.76l-3.41-.57-3.4-.68c-2.26-.49-4.53-1-6.79-1.59a.36.36,0,0,1,0-.7c2.3-.49,4.59-.84,6.88-1.2l3.43-.48,3.43-.38c1.14-.11,2.29-.36,3.43-.56a9.14,9.14,0,0,1,3.42.06,15.88,15.88,0,0,1,3.39,1.13,12.55,12.55,0,0,1,3.35,2.22.47.47,0,0,1,0,.66Z"/><path class="c" d="M227.52,428.06a12.68,12.68,0,0,1-3.47,2,16.7,16.7,0,0,1-3.45.93,9.16,9.16,0,0,1-3.42-.14c-1.13-.27-2.26-.58-3.39-.76l-3.41-.57-3.4-.68c-2.26-.49-4.53-1-6.79-1.59a.37.37,0,0,1-.25-.45.34.34,0,0,1,.27-.25c2.29-.49,4.58-.84,6.87-1.21l3.44-.48,3.43-.37c1.14-.12,2.29-.36,3.43-.56a8.94,8.94,0,0,1,3.42.06,16,16,0,0,1,3.39,1.12,13.05,13.05,0,0,1,3.35,2.22.47.47,0,0,1,0,.66Z"/><path class="c" d="M220.34,409.68a9.32,9.32,0,0,1-2.61,2.05,9.63,9.63,0,0,1-2.58.95,5,5,0,0,1-2.54-.11c-.85-.24-1.69-.57-2.53-.73l-2.54-.55-2.53-.65c-1.69-.48-3.38-.94-5.06-1.55a.37.37,0,0,1-.22-.47.39.39,0,0,1,.24-.23c1.71-.5,3.43-.87,5.14-1.25l2.56-.5,2.57-.4c.85-.12,1.71-.39,2.57-.59a5,5,0,0,1,2.55,0,9.86,9.86,0,0,1,2.52,1.1,9.59,9.59,0,0,1,2.48,2.19A.53.53,0,0,1,220.34,409.68Z"/><path class="b" d="M317.94,720.36l94.55-70.86s46.74,10.8,70.74,72.79c0,0-19.12-13-34.53-9.52A55.17,55.17,0,0,1,467,728.43C485.31,752.88,480,838.13,480,838.13s-83.3-18.87-101.63-43.32a55.16,55.16,0,0,1-9.9-21.94c-7.66,13.82-.55,35.81-.55,35.81C315.19,768.25,317.94,720.36,317.94,720.36Z"/><path class="c" d="M373.55,695.46c4.39,4.17,8.45,8.59,12.44,13.06s7.82,9.06,11.56,13.72,7.31,9.44,10.72,14.35,6.74,9.86,10.21,14.73l10.36,14.62,10.28,14.67c6.78,9.84,13.65,19.62,20.36,29.51a.34.34,0,0,1-.09.48.35.35,0,0,1-.47-.06c-7.61-9.22-15.06-18.56-22.6-27.83l-11.21-14L414,754.68c-3.71-4.69-7.51-9.3-11.28-13.94s-7.35-9.41-10.77-14.31-6.73-9.88-9.92-14.94-6.27-10.23-9-15.61a.35.35,0,0,1,.56-.42Z"/><path class="c" d="M380.53,705.13a38.43,38.43,0,0,1-1.77,7.27,61.68,61.68,0,0,1-2.72,6.72,39.49,39.49,0,0,1-3.63,6.19c-1.41,2-2.85,3.88-4.18,5.87l-4,6-4.1,5.91c-2.78,3.92-5.54,7.85-8.42,11.71a.35.35,0,0,1-.5.07.36.36,0,0,1-.11-.42c1.93-4.42,4-8.76,6-13.12l3.11-6.49,3.19-6.44c1.08-2.15,2-4.35,3-6.54a40,40,0,0,1,3.58-6.22,62.3,62.3,0,0,1,4.49-5.69,39.19,39.19,0,0,1,5.44-5.14.39.39,0,0,1,.54.07A.41.41,0,0,1,380.53,705.13Z"/><path class="c" d="M402.33,734.22a23.22,23.22,0,0,1-.8,5.61,34.09,34.09,0,0,1-1.76,5.07,21,21,0,0,1-2.67,4.52c-1.09,1.4-2.21,2.78-3.22,4.22L390.83,758l-3.14,4.25c-2.13,2.82-4.25,5.64-6.49,8.39a.35.35,0,0,1-.5,0,.36.36,0,0,1-.11-.4c1.29-3.31,2.69-6.55,4.08-9.8l2.14-4.83,2.23-4.79c.75-1.59,1.39-3.24,2.07-4.88a21,21,0,0,1,2.61-4.56,35.12,35.12,0,0,1,3.53-4,23,23,0,0,1,4.48-3.48.4.4,0,0,1,.55.15A.35.35,0,0,1,402.33,734.22Z"/><path class="c" d="M420.54,758.52a23.36,23.36,0,0,1-.8,5.61,35.14,35.14,0,0,1-1.76,5.06,21.49,21.49,0,0,1-2.67,4.53c-1.09,1.4-2.21,2.77-3.22,4.21l-3,4.31-3.14,4.26c-2.13,2.81-4.25,5.63-6.49,8.39a.36.36,0,0,1-.5.05.37.37,0,0,1-.11-.4c1.28-3.31,2.68-6.55,4.07-9.8L405,779.9l2.23-4.78c.75-1.59,1.39-3.25,2.07-4.88a21.11,21.11,0,0,1,2.61-4.57,35.12,35.12,0,0,1,3.53-4,23,23,0,0,1,4.48-3.48.41.41,0,0,1,.55.15A.5.5,0,0,1,420.54,758.52Z"/><path class="c" d="M438.75,782.81a14.89,14.89,0,0,1-.14,4.46,20,20,0,0,1-1.08,3.91,12.11,12.11,0,0,1-2,3.37c-.86,1-1.76,2-2.55,3.06l-2.38,3.16-2.47,3.1c-1.68,2-3.36,4.1-5.15,6.08a.35.35,0,0,1-.51,0,.36.36,0,0,1-.1-.37c.84-2.54,1.79-5,2.74-7.49l1.47-3.68,1.56-3.63c.53-1.21.94-2.48,1.4-3.73a11.9,11.9,0,0,1,1.94-3.41,19.94,19.94,0,0,1,2.86-2.88,14.88,14.88,0,0,1,3.8-2.32.44.44,0,0,1,.58.24Z"/><path class="c" d="M380.61,704.27a38.3,38.3,0,0,1,6.46-3.78,61.35,61.35,0,0,1,6.72-2.72,39.79,39.79,0,0,1,7-1.69c2.38-.34,4.77-.64,7.13-1.07l7.08-1.26,7.11-1.16c4.74-.73,9.49-1.47,14.27-2.08a.35.35,0,0,1,.39.31.36.36,0,0,1-.22.37c-4.52,1.69-9.06,3.24-13.6,4.8l-6.83,2.28-6.86,2.18c-2.28.72-4.54,1.56-6.81,2.36a39.55,39.55,0,0,1-6.95,1.76,64,64,0,0,1-7.22.72,39.4,39.4,0,0,1-7.47-.34.39.39,0,0,1-.32-.44A.36.36,0,0,1,380.61,704.27Z"/><path class="c" d="M402.41,733.36A23.08,23.08,0,0,1,407,730a34.36,34.36,0,0,1,4.86-2.25,21.29,21.29,0,0,1,5.11-1.23c1.76-.19,3.53-.34,5.26-.61l5.22-.8,5.25-.7c3.5-.42,7-.86,10.54-1.16a.36.36,0,0,1,.39.32.36.36,0,0,1-.22.36c-3.27,1.37-6.57,2.62-9.87,3.88l-5,1.82-5,1.72c-1.67.56-3.3,1.25-4.95,1.9a20.87,20.87,0,0,1-5.1,1.29,33.83,33.83,0,0,1-5.35.27,23.43,23.43,0,0,1-5.61-.8.41.41,0,0,1-.28-.5A.37.37,0,0,1,402.41,733.36Z"/><path class="c" d="M420.62,757.65a23.13,23.13,0,0,1,4.6-3.32,34.43,34.43,0,0,1,4.86-2.26,21.28,21.28,0,0,1,5.11-1.22c1.76-.19,3.53-.34,5.26-.62l5.22-.8,5.25-.7c3.5-.42,7-.85,10.54-1.16a.35.35,0,0,1,.38.33.34.34,0,0,1-.21.35c-3.27,1.38-6.58,2.62-9.88,3.88l-5,1.82-5,1.72c-1.66.56-3.3,1.26-4.94,1.91a21.94,21.94,0,0,1-5.1,1.29,35.07,35.07,0,0,1-5.35.26,23.43,23.43,0,0,1-5.61-.8.4.4,0,0,1-.28-.5A.42.42,0,0,1,420.62,757.65Z"/><path class="c" d="M438.83,782a15.07,15.07,0,0,1,3.3-3,20.24,20.24,0,0,1,3.56-1.93,12,12,0,0,1,3.82-.91c1.33-.08,2.66-.13,4-.29l3.92-.48,4-.38c2.64-.21,5.28-.43,7.95-.52a.34.34,0,0,1,.37.34.36.36,0,0,1-.2.34c-2.41,1.16-4.85,2.19-7.28,3.23l-3.67,1.5-3.7,1.4c-1.23.46-2.44,1-3.65,1.59a12,12,0,0,1-3.8,1,19.74,19.74,0,0,1-4.06,0,15,15,0,0,1-4.31-1.13.43.43,0,0,1-.23-.58A.28.28,0,0,1,438.83,782Z"/><path class="b" d="M120.07,634.89l77.11,89.52s-7.61,47.37-67.83,75.51c0,0,11.67-19.95,7.16-35.08a55.08,55.08,0,0,1-14.39,19.29C99,804.08,13.56,804.6,13.56,804.6s13.17-84.38,36.33-104.33A55.22,55.22,0,0,1,71.1,688.9c-14.3-6.7-35.76,1.88-35.76,1.88C72.1,635.4,120.07,634.89,120.07,634.89Z"/><path class="c" d="M148.68,688.68c-3.87,4.66-8,9-12.19,13.3s-8.51,8.41-12.9,12.46-8.92,7.94-13.59,11.67-9.38,7.4-14,11.18L82.12,748.62l-14,11.25c-9.36,7.44-18.64,15-28.06,22.32a.35.35,0,0,1-.45-.53c8.68-8.21,17.49-16.29,26.23-24.44L79.08,745.1l13.26-12.05c4.43-4,8.77-8.12,13.14-12.19s8.89-8,13.55-11.72,9.4-7.38,14.24-10.91,9.77-7,14.95-10.08a.36.36,0,0,1,.49.12A.36.36,0,0,1,148.68,688.68Z"/><path class="c" d="M139.5,696.3a39,39,0,0,1-7.37-1.27,61.67,61.67,0,0,1-6.89-2.26,38.87,38.87,0,0,1-6.42-3.21c-2-1.27-4.06-2.58-6.14-3.77l-6.23-3.6-6.18-3.69c-4.1-2.5-8.2-5-12.25-7.61a.35.35,0,0,1,.31-.63c4.54,1.62,9,3.37,13.49,5.1l6.69,2.66,6.65,2.75c2.21.93,4.48,1.73,6.73,2.58a40.46,40.46,0,0,1,6.45,3.14,66,66,0,0,1,6,4.1,39,39,0,0,1,5.49,5.08.38.38,0,0,1,0,.54A.37.37,0,0,1,139.5,696.3Z"/><path class="c" d="M112,720a23,23,0,0,1-5.65-.43,34.79,34.79,0,0,1-5.17-1.4,21.56,21.56,0,0,1-4.7-2.36c-1.47-1-2.92-2-4.42-2.93l-4.51-2.75-4.46-2.84c-3-1.94-5.91-3.87-8.81-5.91a.35.35,0,0,1,.31-.63c3.39,1.05,6.72,2.23,10,3.4l5,1.81,4.92,1.9c1.64.64,3.34,1.17,5,1.73a21.78,21.78,0,0,1,4.73,2.3,33.66,33.66,0,0,1,4.27,3.25,23.19,23.19,0,0,1,3.77,4.23.4.4,0,0,1-.11.56A.48.48,0,0,1,112,720Z"/><path class="c" d="M89,739.84a23.67,23.67,0,0,1-5.66-.42A34.81,34.81,0,0,1,78.13,738a21.34,21.34,0,0,1-4.7-2.36c-1.46-1-2.91-2-4.42-2.92L64.51,730l-4.46-2.85c-3-1.93-5.92-3.86-8.81-5.91a.35.35,0,0,1-.09-.49.37.37,0,0,1,.4-.14c3.38,1.06,6.71,2.24,10.05,3.4l5,1.81,4.92,1.91c1.64.64,3.33,1.16,5,1.73a21.3,21.3,0,0,1,4.73,2.29A34.52,34.52,0,0,1,85.49,735a23.53,23.53,0,0,1,3.78,4.23.41.41,0,0,1-.11.56A.37.37,0,0,1,89,739.84Z"/><path class="c" d="M66,759.65a15,15,0,0,1-4.45.17,20.5,20.5,0,0,1-4-.81,12.15,12.15,0,0,1-3.5-1.77c-1.07-.79-2.12-1.62-3.22-2.34l-3.31-2.16-3.27-2.25c-2.15-1.54-4.31-3.07-6.41-4.73a.34.34,0,0,1-.06-.5.35.35,0,0,1,.37-.13c2.59.67,5.12,1.45,7.65,2.22l3.78,1.22,3.72,1.31c1.24.45,2.54.78,3.82,1.14a11.9,11.9,0,0,1,3.53,1.71,19.51,19.51,0,0,1,3.06,2.66A14.69,14.69,0,0,1,66.26,759a.44.44,0,0,1-.2.59A.35.35,0,0,1,66,759.65Z"/><path class="c" d="M140.37,696.32a37.81,37.81,0,0,1,4.21,6.19,62.14,62.14,0,0,1,3.17,6.52,39.06,39.06,0,0,1,2.15,6.84c.51,2.35,1,4.72,1.56,7l1.74,7,1.63,7c1,4.69,2.11,9.37,3,14.1a.36.36,0,0,1-.28.41.34.34,0,0,1-.39-.2c-2-4.39-3.84-8.82-5.71-13.24l-2.74-6.66-2.64-6.69c-.87-2.23-1.86-4.43-2.82-6.63a40.05,40.05,0,0,1-2.22-6.83,64.86,64.86,0,0,1-1.21-7.14,38.81,38.81,0,0,1-.16-7.49.37.37,0,0,1,.41-.34A.38.38,0,0,1,140.37,696.32Z"/><path class="c" d="M112.83,720.05a22.78,22.78,0,0,1,3.62,4.36A33.13,33.13,0,0,1,119,729.1a21.06,21.06,0,0,1,1.57,5c.31,1.74.58,3.5,1,5.21l1.16,5.15,1,5.19c.66,3.47,1.33,6.93,1.87,10.44a.35.35,0,0,1-.29.4.33.33,0,0,1-.37-.19c-1.6-3.17-3.07-6.38-4.54-9.59l-2.16-4.83L116.24,741c-.68-1.63-1.48-3.21-2.24-4.81a21,21,0,0,1-1.63-5,34.65,34.65,0,0,1-.63-5.33,23.45,23.45,0,0,1,.42-5.65.4.4,0,0,1,.48-.31A.35.35,0,0,1,112.83,720.05Z"/><path class="c" d="M89.82,739.86a22.84,22.84,0,0,1,3.63,4.36,34.27,34.27,0,0,1,2.58,4.7,21.44,21.44,0,0,1,1.57,5c.31,1.75.58,3.5,1,5.21l1.15,5.16,1.06,5.18c.66,3.47,1.33,6.94,1.87,10.44a.35.35,0,0,1-.3.41.37.37,0,0,1-.37-.19c-1.59-3.17-3.06-6.38-4.54-9.59l-2.15-4.83-2.05-4.87c-.68-1.62-1.48-3.21-2.24-4.8a21.54,21.54,0,0,1-1.64-5,35.64,35.64,0,0,1-.62-5.32,23.07,23.07,0,0,1,.42-5.66.41.41,0,0,1,.48-.31A.4.4,0,0,1,89.82,739.86Z"/><path class="c" d="M66.82,759.67A15.13,15.13,0,0,1,70,762.76a19.92,19.92,0,0,1,2.17,3.43,12,12,0,0,1,1.17,3.74c.17,1.32.3,2.65.56,3.94l.75,3.89.64,3.91c.39,2.62.79,5.24,1.06,7.9a.36.36,0,0,1-.67.21c-1.32-2.32-2.52-4.68-3.72-7l-1.75-3.56-1.64-3.59c-.55-1.2-1.21-2.36-1.83-3.53a11.78,11.78,0,0,1-1.23-3.73,19.33,19.33,0,0,1-.22-4.05,15.3,15.3,0,0,1,.82-4.38.45.45,0,0,1,.57-.27Z"/><ellipse class="d" cx="267.67" cy="594.05" rx="56.39" ry="38.33"/><line class="e" x1="275.84" y1="554.84" x2="275.84" y2="630.82"/><line class="e" x1="292.18" y1="554.84" x2="292.18" y2="630.82"/><line class="e" x1="308.53" y1="554.84" x2="308.53" y2="630.82"/><line class="e" x1="259.5" y1="554.84" x2="259.5" y2="630.82"/><line class="e" x1="243.16" y1="554.84" x2="243.16" y2="630.82"/><line class="e" x1="226.82" y1="554.84" x2="226.82" y2="630.82"/><path class="d" d="M418.67,624.66c-26.27-37.42-41.05,3.25-76.86,28.39S262.73,678.26,289,715.68s104.56,11.09,104.56,11.09S444.94,662.09,418.67,624.66Z"/><path class="d" d="M116.67,624.66c26.27-37.42,41.05,3.25,76.86,28.39s79.08,25.21,52.81,62.63-104.56,11.09-104.56,11.09S90.4,662.09,116.67,624.66Z"/><path class="d" d="M384.33,497.51c-39.76-.34-18.47,31.91-18.81,71.47s-22.18,71.45,17.58,71.79,60.74-71.11,60.74-71.11S424.09,497.85,384.33,497.51Z"/><path class="d" d="M151,640.77c39.76.34,18.47-31.91,18.81-71.48s22.18-71.44-17.58-71.78S91.5,568.62,91.5,568.62,111.25,640.43,151,640.77Z"/><path class="d" d="M260.68,459c22.14,33-16.51,33-49.38,55s-47.5,57.79-69.63,24.76,26-89.83,26-89.83S238.55,426,260.68,459Z"/><path class="d" d="M274.66,459c-22.14,33,16.51,33,49.38,55s47.5,57.79,69.64,24.76-26-89.83-26-89.83S296.8,426,274.66,459Z"/><path class="d" d="M346.88,677.59c.4-45.73-35.28-21.23-79-21.61s-79-25.48-79.39,20.25,78.62,69.82,78.62,69.82S346.49,723.31,346.88,677.59Z"/><path class="d" d="M211.56,519.69c-.29,33.25,26.69,15.45,59.78,15.73s59.75,18.55,60-14.7-59.47-50.8-59.47-50.8S211.84,486.44,211.56,519.69Z"/><path class="d" d="M331.07,513.28c-30.09,9.78-6.69,26.26,2,53.14s-.51,54,29.58,44.18,29.7-63.45,29.7-63.45S361.17,503.5,331.07,513.28Z"/><path class="d" d="M177.6,619.77c22.53-31,29.06-.57,52.18,16.23s58.67,17.51,31.56,44.61c-17.66,17.66-79.57,6.81-79.57,6.81S155.07,650.78,177.6,619.77Z"/><path class="d" d="M364.78,619.77c-22.53-31-29-.57-52.18,16.23S253.94,653.51,281,680.61c17.66,17.66,79.57,6.81,79.57,6.81S387.31,650.78,364.78,619.77Z"/><path class="d" d="M211.86,513.28c30.09,9.78,6.69,26.26-2,53.14s.51,54-29.58,44.18-29.7-63.45-29.7-63.45S181.76,503.5,211.86,513.28Z"/><path class="d" d="M194.17,595.07c15.81,21.09,24.25-3.1,45.24-18.83s46.58-17,30.77-38.14-61.92-3.41-61.92-3.41S178.36,574,194.17,595.07Z"/><path class="d" d="M348.76,595.07c-15.81,21.09-24.25-3.1-45.24-18.83s-46.58-17-30.77-38.14,61.92-3.41,61.92-3.41S364.57,574,348.76,595.07Z"/><path class="d" d="M194.17,586.19c15.81-21.1,24.25,3.1,45.24,18.83s46.58,17.05,30.77,38.14-61.92,3.41-61.92,3.41S178.36,607.28,194.17,586.19Z"/><path class="d" d="M348.76,586.19c-15.81-21.1-24.25,3.1-45.24,18.83s-46.58,17.05-30.77,38.14,61.92,3.41,61.92,3.41S364.57,607.28,348.76,586.19Z"/><path class="d" d="M116.69,219.57c13.45-10.4,26,.24,33.26,9.6,9,11.67,6,29.87-6.44,39.46-10,7.72-27.06,17.87-34.3,8.51S103.24,230,116.69,219.57Z"/><path class="f" d="M216.75,313.12c20.63-15.95,9.7-38.72-1.39-53.07-13.84-17.9-42.05-20.38-61.06-5.68-15.33,11.85-37,33.27-25.88,47.61S196.12,329.07,216.75,313.12Z"/><path class="g" d="M199.75,300.9a12.7,12.7,0,1,1,7.77-2.65,12.65,12.65,0,0,1-7.77,2.65Z"/><path class="c" d="M199.74,278a10.2,10.2,0,1,1-6.24,2.13,10.19,10.19,0,0,1,6.24-2.13m0-5a15.22,15.22,0,1,0,12,5.91,15.06,15.06,0,0,0-12-5.91Z"/><path class="g" d="M163.75,283.27a8.81,8.81,0,1,1,5.38-1.84,8.76,8.76,0,0,1-5.38,1.84Z"/><path class="c" d="M163.74,268.16a6.3,6.3,0,0,1,3.86,11.29,6.3,6.3,0,1,1-3.86-11.29m0-5a11.3,11.3,0,1,0,8.95,4.39,11.18,11.18,0,0,0-8.95-4.39Z"/><path class="h" d="M129.26,261.53a8.81,8.81,0,1,1,5.38-1.84,8.73,8.73,0,0,1-5.38,1.84Z"/><path class="c" d="M129.25,246.42a6.31,6.31,0,1,1-3.86,1.32,6.29,6.29,0,0,1,3.86-1.32m0-5a11.3,11.3,0,1,0,8.95,4.39,11.2,11.2,0,0,0-8.95-4.39Z"/><path class="d" d="M55.12,267.17c-13.45,10.4-6.32,25.25.91,34.61,9,11.67,27.42,13.28,39.81,3.7,10-7.73,24.11-21.69,16.88-31.05S68.57,256.77,55.12,267.17Z"/><path class="f" d="M120.46,387.57c-20.63,15.95-39.92-.37-51-14.72C55.61,355,60.32,327,79.33,312.33c15.32-11.85,41.5-27.4,52.59-13.05S141.09,371.62,120.46,387.57Z"/><path class="g" d="M100.63,377.54a12.71,12.71,0,1,1,7.76-2.66A12.61,12.61,0,0,1,100.63,377.54Z"/><path class="c" d="M100.61,354.62a10.21,10.21,0,1,1-6.23,2.13,10.2,10.2,0,0,1,6.23-2.13m0-5h0a15.21,15.21,0,1,0,12,5.91,15.06,15.06,0,0,0-12-5.91Z"/><path class="g" d="M96.4,335.34a8.81,8.81,0,1,1,5.38-1.84A8.73,8.73,0,0,1,96.4,335.34Z"/><path class="c" d="M96.39,320.23a6.3,6.3,0,1,1-3.85,1.31,6.27,6.27,0,0,1,3.85-1.31m0-5h0a11.31,11.31,0,1,0,6.92,20.25,11.31,11.31,0,0,0-6.92-20.25Z"/><path class="h" d="M84.05,296.48a8.81,8.81,0,1,1,7-14.19,8.8,8.8,0,0,1-7,14.19Z"/><path class="c" d="M84,281.37a6.31,6.31,0,1,1-3.85,1.32A6.27,6.27,0,0,1,84,281.37m0-5h0A11.31,11.31,0,1,0,93,280.76,11.24,11.24,0,0,0,84,276.37Z"/><ellipse class="d" cx="119.24" cy="286.48" rx="10.96" ry="51.91" transform="translate(-150.32 132.76) rotate(-37.71)"/><path class="i" d="M151.57,324.08s13,15.79,40.12,24.38"/><path class="i" d="M147.48,327.24s12,16.6,13.49,45"/><path class="d" d="M483.43,238.75c14.26,18.45-.32,35.69-13.15,45.61-16,12.37-41,8.17-54.12-8.84-10.59-13.7-24.5-37.1-11.67-47S469.17,220.31,483.43,238.75Z"/><path class="f" d="M355.15,376c21.87,28.29,53.1,13.3,72.78-1.91,24.55-19,27.94-57.65,7.78-83.73-16.24-21-45.61-50.69-65.28-35.48S333.29,347.67,355.15,376Z"/><path class="g" d="M389.34,369.13a16.5,16.5,0,1,1,10.08-3.44,16.4,16.4,0,0,1-10.08,3.44Z"/><path class="c" d="M389.32,338.64a14,14,0,1,1-8.55,2.93,14,14,0,0,1,8.55-2.93m0-5a18.77,18.77,0,0,0-11.6,4,19,19,0,1,0,11.6-4Z"/><path class="g" d="M408.17,314.43A11.15,11.15,0,1,1,415,312.1a11.1,11.1,0,0,1-6.81,2.33Z"/><path class="c" d="M408.16,294.63a8.65,8.65,0,0,1,5.29,15.49,8.65,8.65,0,1,1-5.29-15.49m0-5a13.65,13.65,0,1,0,8.35,24.45,13.65,13.65,0,0,0-8.35-24.45Z"/><path class="h" d="M438,267.13a11.15,11.15,0,1,1,6.81-2.33,11.08,11.08,0,0,1-6.81,2.33Z"/><path class="c" d="M438,247.33a8.65,8.65,0,1,1-5.28,1.81,8.61,8.61,0,0,1,5.28-1.81m0-5a13.65,13.65,0,1,0,10.81,5.3,13.57,13.57,0,0,0-10.81-5.3Z"/><path class="d" d="M418.17,154.33c-14.26-18.44-34.63-8.67-47.46,1.25-16,12.37-18.21,37.59-5.07,54.59,10.59,13.7,29.74,33.05,42.57,23.14S432.43,172.78,418.17,154.33Z"/><path class="f" d="M253.08,243.92c-21.87-28.28.49-54.73,20.17-69.94,24.55-19,62.83-12.53,83,13.55,16.25,21,37.58,56.9,17.9,72.11S275,272.21,253.08,243.92Z"/><path class="g" d="M284.26,233.21a16.5,16.5,0,1,1,10.08-3.44A16.4,16.4,0,0,1,284.26,233.21Z"/><path class="c" d="M284.24,202.72a14,14,0,1,1-8.55,2.93,14,14,0,0,1,8.55-2.93m0-5h0a18.77,18.77,0,0,0-11.6,4,19,19,0,1,0,11.6-4Z"/><path class="g" d="M336.77,222.07a11.15,11.15,0,1,1,6.81-2.33A11.07,11.07,0,0,1,336.77,222.07Z"/><path class="c" d="M336.76,202.28a8.64,8.64,0,1,1-5.29,1.8,8.64,8.64,0,0,1,5.29-1.8m0-5h0a13.47,13.47,0,0,0-8.34,2.85,13.64,13.64,0,0,0,8.35,24.44,13.47,13.47,0,0,0,8.34-2.85,13.64,13.64,0,0,0-8.35-24.44Z"/><path class="h" d="M390.05,205.14a11.16,11.16,0,1,1,6.81-2.33A11.06,11.06,0,0,1,390.05,205.14Z"/><path class="c" d="M390,185.34a8.66,8.66,0,1,1-5.28,1.81,8.65,8.65,0,0,1,5.28-1.81m0-5h0a13.65,13.65,0,1,0,10.8,5.3,13.55,13.55,0,0,0-10.8-5.3Z"/><ellipse class="d" cx="391.68" cy="242.24" rx="71.18" ry="15.03" transform="translate(-66.36 290.16) rotate(-37.71)"/><path class="i" d="M340.13,286.58s-21.65,17.88-33.43,55"/><path class="i" d="M335.8,281s-22.77,16.45-61.67,18.5"/></svg>