<svg xmlns="http://www.w3.org/2000/svg" width="510" height="900" viewBox="0 0 510 900"><defs><style>.a,.b{fill:#56634a;}.a,.b,.c,.e,.f{stroke:#432d1e;}.a{stroke-linecap:round;}.a,.b,.c,.e{stroke-miterlimit:10;}.a,.b,.c,.f{stroke-width:8px;}.c,.e{fill:#bd645d;}.d{fill:#432d1e;}.e{stroke-width:5px;}.f{fill:#968acf;stroke-miterlimit:2;}</style></defs><title>61</title><path class="a" d="M263,411.46l-12.09,17.1s-80.09-87-119.8-277l21-7.64C195,341.45,263,411.46,263,411.46Z"/><path class="b" d="M107.06,117.19l.28,1.81c2.4,15.18,18.82,38.42,34.15,36h0c15.34-2.42,23.78-29.59,21.38-44.77l-.28-1.81Z"/><ellipse class="c" cx="126.45" cy="51.99" rx="30.1" ry="18.74" transform="translate(-9.52 37.68) rotate(-16.34)"/><path class="c" d="M118.59,81.16c5.11,17.63,24.9,40.15,40,35.78s14.67-51.65,9.56-69.29-13,1.06-28.06,5.43S113.48,63.53,118.59,81.16Z"/><path class="c" d="M145.13,85.5c.68,18.35-11.06,45.94-26.77,46.52S88.23,87.58,87.55,69.23s12.64-3.07,28.36-3.65S144.45,67.15,145.13,85.5Z"/><path class="b" d="M158.64,316.45c27.42,18.54,46.51,10.44,46.51,10.44s-25.37-38.15-52.8-56.69-46.5-10.45-46.5-10.45S131.22,297.9,158.64,316.45Z"/><path class="b" d="M217.42,464.52l-77.83,86.64s-47.26-1.48-82.35-56.82c0,0,21,8.9,35.21,2.59a54.32,54.32,0,0,1-20.67-11.64C49.37,465.16,38.12,381.72,38.12,381.72s84.15,2.28,106.56,22.41a54.29,54.29,0,0,1,13.78,19.31c4.76-14.83-6.33-34.73-6.33-34.73C210.9,417.69,217.42,464.52,217.42,464.52Z"/><path class="d" d="M168.43,499.26c-5.05-3.18-9.83-6.67-14.55-10.22s-9.31-7.25-13.82-11-8.88-7.73-13.11-11.83-8.41-8.25-12.69-12.29l-12.82-12.15L88.69,429.51c-8.44-8.22-17-16.36-25.33-24.64a.34.34,0,0,1,0-.49.35.35,0,0,1,.47,0C73,411.8,82,419.39,91,426.91l13.52,11.36L118,449.72c4.48,3.82,9,7.55,13.58,11.31s8.91,7.68,13.15,11.77,8.4,8.27,12.45,12.56,8,8.7,11.72,13.38a.36.36,0,0,1-.47.52Z"/><path class="d" d="M159.82,491.24a38.29,38.29,0,0,1,.29-7.38,62.14,62.14,0,0,1,1.33-7,38.59,38.59,0,0,1,2.33-6.68c1-2.15,2-4.29,2.92-6.48l2.75-6.53,2.84-6.51c1.94-4.32,3.86-8.64,5.92-12.92a.35.35,0,0,1,.47-.17.36.36,0,0,1,.19.39c-1,4.64-2.15,9.24-3.27,13.84l-1.75,6.88L172,465.5c-.63,2.28-1.13,4.6-1.67,6.91a38.55,38.55,0,0,1-2.26,6.7,60.66,60.66,0,0,1-3.27,6.36,38.77,38.77,0,0,1-4.3,6,.39.39,0,0,1-.54,0A.38.38,0,0,1,159.82,491.24Z"/><path class="d" d="M133.17,467.29a22.33,22.33,0,0,1-.33-5.59,34.47,34.47,0,0,1,.71-5.23,20.6,20.6,0,0,1,1.72-4.89c.78-1.56,1.61-3.11,2.31-4.69l2.13-4.75,2.23-4.71c1.53-3.13,3-6.27,4.69-9.35a.35.35,0,0,1,.48-.15.34.34,0,0,1,.18.37c-.6,3.45-1.33,6.85-2,10.26l-1.14,5.09-1.23,5.06c-.42,1.68-.72,3.4-1.06,5.12a20.43,20.43,0,0,1-1.65,4.91,33.43,33.43,0,0,1-2.65,4.57,22.84,22.84,0,0,1-3.69,4.21.4.4,0,0,1-.57,0A.34.34,0,0,1,133.17,467.29Z"/><path class="d" d="M110.9,447.29a22.79,22.79,0,0,1-.32-5.59,33.25,33.25,0,0,1,.71-5.23,20.32,20.32,0,0,1,1.72-4.89c.78-1.56,1.6-3.1,2.31-4.69l2.13-4.75,2.23-4.71c1.52-3.13,3-6.27,4.69-9.35a.34.34,0,0,1,.47-.15.36.36,0,0,1,.19.37c-.6,3.45-1.33,6.85-2,10.26l-1.14,5.09-1.24,5.06c-.42,1.68-.71,3.4-1,5.12a20.88,20.88,0,0,1-1.65,4.91,33.43,33.43,0,0,1-2.65,4.57,22.84,22.84,0,0,1-3.69,4.21.41.41,0,0,1-.58,0A.56.56,0,0,1,110.9,447.29Z"/><path class="d" d="M88.64,427.3a14.68,14.68,0,0,1-.75-4.35,20.07,20.07,0,0,1,.28-4,11.61,11.61,0,0,1,1.29-3.65c.64-1.14,1.33-2.27,1.89-3.44l1.7-3.51,1.8-3.47c1.24-2.3,2.48-4.6,3.84-6.86a.36.36,0,0,1,.49-.12.37.37,0,0,1,.17.35c-.32,2.62-.76,5.19-1.19,7.77l-.71,3.84-.81,3.82c-.27,1.26-.43,2.57-.62,3.87a11.61,11.61,0,0,1-1.23,3.67,19.42,19.42,0,0,1-2.22,3.32,14.78,14.78,0,0,1-3.27,3,.43.43,0,0,1-.61-.13A.41.41,0,0,1,88.64,427.3Z"/><path class="d" d="M159.92,492.1a37.23,37.23,0,0,1-5.51,4.92,62,62,0,0,1-6,3.93,38.06,38.06,0,0,1-6.42,3c-2.24.79-4.49,1.54-6.69,2.4l-6.61,2.57-6.65,2.47c-4.45,1.61-8.9,3.23-13.41,4.73a.35.35,0,0,1-.44-.22.35.35,0,0,1,.15-.41c4-2.5,8.13-4.88,12.22-7.27l6.16-3.52,6.21-3.42c2.07-1.14,4.09-2.39,6.12-3.6a38.1,38.1,0,0,1,6.39-3,60.24,60.24,0,0,1,6.85-2.07,38.11,38.11,0,0,1,7.3-1.08.4.4,0,0,1,.4.37A.43.43,0,0,1,159.92,492.1Z"/><path class="d" d="M133.26,468.15a22.82,22.82,0,0,1-3.79,4.12,34.23,34.23,0,0,1-4.26,3.13,20.92,20.92,0,0,1-4.71,2.16c-1.67.52-3.35,1-5,1.6l-4.89,1.77-4.94,1.67c-3.31,1.08-6.62,2.16-10,3.12a.35.35,0,0,1-.3-.63c2.89-2,5.85-3.81,8.79-5.66l4.45-2.72,4.5-2.63c1.5-.86,2.95-1.85,4.41-2.79a20.51,20.51,0,0,1,4.68-2.23,33.16,33.16,0,0,1,5.13-1.27,22.39,22.39,0,0,1,5.6-.27.4.4,0,0,1,.36.44A.32.32,0,0,1,133.26,468.15Z"/><path class="d" d="M111,448.15a22.82,22.82,0,0,1-3.79,4.12A35,35,0,0,1,103,455.4a20.49,20.49,0,0,1-4.71,2.16c-1.67.52-3.35,1-5,1.6l-4.9,1.77-4.93,1.67c-3.32,1.08-6.62,2.16-10,3.12a.35.35,0,0,1-.29-.63c2.89-2,5.84-3.81,8.79-5.66l4.45-2.72,4.5-2.62c1.5-.87,2.94-1.86,4.41-2.8a20.51,20.51,0,0,1,4.68-2.23,33.16,33.16,0,0,1,5.13-1.27,22.31,22.31,0,0,1,5.59-.27.4.4,0,0,1,.3.63Z"/><path class="d" d="M88.74,428.15a14.77,14.77,0,0,1-2.61,3.56,19.31,19.31,0,0,1-3.06,2.57,11.47,11.47,0,0,1-3.52,1.61c-1.27.33-2.56.63-3.79,1l-3.7,1.21-3.75,1.11c-2.51.71-5,1.42-7.6,2a.36.36,0,0,1-.43-.26.36.36,0,0,1,.14-.37c2.1-1.59,4.26-3.06,6.41-4.55l3.26-2.16,3.3-2.06c1.1-.69,2.15-1.49,3.22-2.25a11.58,11.58,0,0,1,3.49-1.67,19.9,19.9,0,0,1,3.94-.71,15,15,0,0,1,4.4.29.43.43,0,0,1,.33.53A.38.38,0,0,1,88.74,428.15Z"/><path class="b" d="M412.43,520.26,298.78,456.87S288.71,405,340.34,353.1c0,0-4.51,25,5.88,39a60.85,60.85,0,0,1,7.57-25.4c16.4-29.4,104.52-62.28,104.52-62.28s18.33,92.26,1.94,121.65a60.79,60.79,0,0,1-17.63,19.79c17.33,1.52,36.27-15.49,36.27-15.49C461.85,501.57,412.43,520.26,412.43,520.26Z"/><path class="d" d="M362.5,475.48c2.33-6.23,5-12.27,7.77-18.25,1.35-3,2.83-6,4.25-8.92l4.45-8.82q4.53-8.76,9.64-17.21t10.19-16.9l20.13-33.94c6.82-11.26,13.55-22.56,20.44-33.78a.35.35,0,0,1,.61.35c-5.92,11.75-12,23.42-18,35.13l-18.3,35q-4.56,8.75-9,17.55t-9.58,17.24l-5.16,8.42c-1.78,2.77-3.51,5.57-5.35,8.31-3.63,5.5-7.38,10.94-11.46,16.2a.35.35,0,0,1-.49.06A.36.36,0,0,1,362.5,475.48Z"/><path class="d" d="M369.07,464.15a46.06,46.06,0,0,1,8.09-1.27,75.71,75.71,0,0,1,8-.17,49.38,49.38,0,0,1,7.86.88c2.59.52,5.18,1.08,7.78,1.51l7.81,1.32,7.8,1.42c5.19,1,10.38,2,15.56,3.09a.35.35,0,0,1-.07.7c-5.3,0-10.58-.17-15.87-.31l-7.92-.27-7.91-.38c-2.63-.13-5.28-.14-7.93-.19a47.19,47.19,0,0,1-7.86-.81,75.75,75.75,0,0,1-7.74-1.87,46.29,46.29,0,0,1-7.64-3,.38.38,0,0,1-.16-.5A.35.35,0,0,1,369.07,464.15Z"/><path class="d" d="M388.57,429.18a27.06,27.06,0,0,1,6-1.49,41.56,41.56,0,0,1,5.87-.4,25.94,25.94,0,0,1,5.75.66c1.89.44,3.78.92,5.69,1.28l5.7,1.09,5.7,1.2c3.79.84,7.59,1.67,11.36,2.63a.36.36,0,0,1,.26.43.36.36,0,0,1-.33.27c-3.9.13-7.78.13-11.67.15l-5.82-.05-5.8-.15c-1.94-.06-3.89,0-5.83,0a26,26,0,0,1-5.77-.59,41.53,41.53,0,0,1-5.64-1.64,27.29,27.29,0,0,1-5.53-2.73.4.4,0,0,1-.11-.55A.38.38,0,0,1,388.57,429.18Z"/><path class="d" d="M404.86,400a26.92,26.92,0,0,1,6-1.49,41.52,41.52,0,0,1,5.86-.4,26,26,0,0,1,5.76.65c1.89.45,3.78.93,5.68,1.29l5.71,1.09,5.7,1.19c3.79.84,7.58,1.67,11.36,2.64a.36.36,0,0,1,.26.43.35.35,0,0,1-.33.26c-3.9.14-7.78.14-11.67.15l-5.82,0-5.81-.15c-1.93-.06-3.88,0-5.83,0a26,26,0,0,1-5.76-.58,42.08,42.08,0,0,1-5.65-1.64,27.33,27.33,0,0,1-5.53-2.74.39.39,0,0,1-.11-.54A.45.45,0,0,1,404.86,400Z"/><path class="d" d="M421.15,370.78a16.9,16.9,0,0,1,4.52-1.65,24.09,24.09,0,0,1,4.41-.56,14.48,14.48,0,0,1,4.29.5c1.41.39,2.81.82,4.23,1.12l4.24.94,4.23,1c2.82.73,5.64,1.46,8.45,2.31a.36.36,0,0,1-.08.7c-2.92.24-5.83.35-8.74.47l-4.36.11H438c-1.44,0-2.91.12-4.36.2a14.46,14.46,0,0,1-4.3-.43,24.93,24.93,0,0,1-4.19-1.48,17.63,17.63,0,0,1-4.07-2.58.43.43,0,0,1,0-.6A.27.27,0,0,1,421.15,370.78Z"/><path class="d" d="M368.2,464.4a46.59,46.59,0,0,1-6.53-4.94,76.86,76.86,0,0,1-5.66-5.61,47.15,47.15,0,0,1-4.82-6.26c-1.43-2.23-2.83-4.48-4.33-6.65l-4.48-6.53L338,427.82c-2.9-4.43-5.8-8.84-8.6-13.34a.36.36,0,0,1,.12-.49.34.34,0,0,1,.43.06c3.68,3.82,7.24,7.72,10.81,11.62l5.31,5.88,5.22,5.95c1.74,2,3.57,3.9,5.38,5.84a49.57,49.57,0,0,1,4.88,6.21q2.18,3.31,4,6.87a46.69,46.69,0,0,1,3.17,7.55.38.38,0,0,1-.25.47A.39.39,0,0,1,368.2,464.4Z"/><path class="d" d="M387.7,429.43a26.78,26.78,0,0,1-5.23-3.27,41.12,41.12,0,0,1-4.37-3.94,25.66,25.66,0,0,1-3.52-4.59c-1-1.67-2-3.37-3-5l-3.18-4.87-3.1-4.92c-2-3.32-4.07-6.62-6-10a.35.35,0,0,1,.13-.48.36.36,0,0,1,.42.05c2.8,2.71,5.5,5.5,8.21,8.29l4,4.22,3.93,4.28c1.3,1.43,2.71,2.78,4.08,4.16a26.19,26.19,0,0,1,3.58,4.55,41.52,41.52,0,0,1,2.74,5.21,26.71,26.71,0,0,1,1.88,5.87.39.39,0,0,1-.31.46A.38.38,0,0,1,387.7,429.43Z"/><path class="d" d="M404,400.23a26.78,26.78,0,0,1-5.23-3.27,42.23,42.23,0,0,1-4.37-3.94,25.9,25.9,0,0,1-3.53-4.6c-1-1.67-2-3.36-3-5l-3.19-4.86-3.09-4.93c-2-3.31-4.07-6.61-6-10a.36.36,0,0,1,.14-.48.35.35,0,0,1,.42.05c2.8,2.71,5.5,5.5,8.21,8.29l4,4.21,3.93,4.29c1.3,1.43,2.7,2.78,4.08,4.16a26.19,26.19,0,0,1,3.58,4.55,42.1,42.1,0,0,1,2.74,5.2,27,27,0,0,1,1.88,5.88.4.4,0,0,1-.32.46A.45.45,0,0,1,404,400.23Z"/><path class="d" d="M420.27,371a17.54,17.54,0,0,1-4.32-2.11,24.43,24.43,0,0,1-3.47-2.78,14.18,14.18,0,0,1-2.62-3.44c-.7-1.28-1.36-2.59-2.13-3.82l-2.28-3.7-2.19-3.76c-1.43-2.54-2.87-5.07-4.2-7.69a.36.36,0,0,1,.15-.48.38.38,0,0,1,.4.05c2.21,1.94,4.3,4,6.41,6l3.11,3.05,3,3.13c1,1,2.11,2,3.18,3a14.42,14.42,0,0,1,2.68,3.39,24.32,24.32,0,0,1,1.84,4,17.47,17.47,0,0,1,1,4.72.42.42,0,0,1-.41.44A.38.38,0,0,1,420.27,371Z"/><path class="b" d="M334.6,708.36l112.45-36.28s40.69,25.41,43.23,91.83c0,0-13.85-18.5-29.55-20.22a55.18,55.18,0,0,1,12.19,20.75c9.38,29.08-23.31,108-23.31,108s-72.64-44.91-82-74a55.07,55.07,0,0,1-2.23-24c-11.73,10.57-12.16,33.68-12.16,33.68C316.43,752.75,334.6,708.36,334.6,708.36Z"/><path class="d" d="M395.28,702.89c2.79,5.37,5.2,10.87,7.52,16.39s4.45,11.11,6.48,16.73,3.84,11.31,5.46,17.06,3.18,11.52,4.87,17.25l5.05,17.19,4.95,17.22c3.22,11.51,6.53,23,9.66,34.52a.35.35,0,0,1-.66.22c-4.2-11.19-8.22-22.44-12.33-33.66l-6-16.87-6-16.9c-2-5.64-4.07-11.24-6.13-16.84s-3.9-11.3-5.54-17-3.15-11.53-4.52-17.36-2.6-11.71-3.48-17.7a.36.36,0,0,1,.3-.4A.36.36,0,0,1,395.28,702.89Z"/><path class="d" d="M398.74,714.3a38.32,38.32,0,0,1-4,6.3,62.64,62.64,0,0,1-4.75,5.48,40.29,40.29,0,0,1-5.45,4.66c-2,1.39-4,2.75-5.87,4.2l-5.73,4.34-5.81,4.26c-3.89,2.8-7.79,5.62-11.77,8.33a.34.34,0,0,1-.48-.09.35.35,0,0,1,0-.44c3.25-3.55,6.6-7,9.93-10.45l5.05-5.13L375,730.7c1.71-1.67,3.34-3.45,5-5.2a39.87,39.87,0,0,1,5.41-4.72,63.86,63.86,0,0,1,6.09-3.92,39.57,39.57,0,0,1,6.82-3.09.39.39,0,0,1,.48.25A.39.39,0,0,1,398.74,714.3Z"/><path class="d" d="M409.9,748.9a23.06,23.06,0,0,1-2.59,5.05,34.23,34.23,0,0,1-3.3,4.21,21.41,21.41,0,0,1-4,3.42c-1.48,1-3,1.9-4.41,2.94l-4.29,3.08-4.35,3c-2.93,2-5.86,3.95-8.87,5.83a.36.36,0,0,1-.46-.53c2.29-2.72,4.67-5.33,7-7.94l3.6-3.88,3.66-3.8c1.23-1.26,2.37-2.62,3.54-3.94a21.44,21.44,0,0,1,4-3.47,33.58,33.58,0,0,1,4.65-2.66,23,23,0,0,1,5.36-1.84.4.4,0,0,1,.47.32A.38.38,0,0,1,409.9,748.9Z"/><path class="d" d="M419.22,777.79a23.06,23.06,0,0,1-2.59,5.05,33.59,33.59,0,0,1-3.3,4.22,21.36,21.36,0,0,1-4,3.41c-1.48,1-3,1.91-4.41,2.94l-4.29,3.08-4.35,3c-2.93,2-5.86,3.94-8.87,5.82a.37.37,0,0,1-.49-.11.38.38,0,0,1,0-.42c2.29-2.71,4.67-5.32,7-7.94l3.6-3.88,3.67-3.8c1.22-1.26,2.37-2.61,3.54-3.94a21.06,21.06,0,0,1,3.95-3.47,34.63,34.63,0,0,1,4.65-2.66,23,23,0,0,1,5.36-1.84.42.42,0,0,1,.48.32A.47.47,0,0,1,419.22,777.79Z"/><path class="d" d="M428.54,806.69a15,15,0,0,1-1.57,4.17,19.94,19.94,0,0,1-2.3,3.34,11.8,11.8,0,0,1-3,2.55c-1.14.67-2.31,1.32-3.4,2.06L415,821l-3.34,2.13c-2.26,1.39-4.51,2.78-6.85,4.08a.37.37,0,0,1-.49-.14.37.37,0,0,1,0-.39c1.62-2.13,3.32-4.16,5-6.2l2.59-3,2.65-2.92c.9-1,1.7-2,2.54-3.07a11.77,11.77,0,0,1,2.94-2.6,20.19,20.19,0,0,1,3.64-1.79,15.09,15.09,0,0,1,4.36-1,.43.43,0,0,1,.46.41A.49.49,0,0,1,428.54,806.69Z"/><path class="d" d="M399.09,713.51a39,39,0,0,1,7.34-1.48,63.07,63.07,0,0,1,7.24-.38,40.71,40.71,0,0,1,7.14.67c2.37.45,4.72.94,7.09,1.31l7.11,1.11L442.1,716c4.73.85,9.46,1.7,14.18,2.67a.35.35,0,0,1-.07.7c-4.81.12-9.61.11-14.42.12l-7.2-.07-7.19-.17c-2.39-.06-4.8,0-7.2,0a39.75,39.75,0,0,1-7.15-.61A60.69,60.69,0,0,1,406,717a38.7,38.7,0,0,1-7-2.75.38.38,0,0,1,.06-.7Z"/><path class="d" d="M410.26,748.11a22.54,22.54,0,0,1,5.42-1.65,33.59,33.59,0,0,1,5.33-.55,20.86,20.86,0,0,1,5.23.5c1.73.39,3.45.83,5.18,1.13l5.2.94,5.18,1c3.46.74,6.91,1.47,10.35,2.33a.36.36,0,0,1,.26.43.35.35,0,0,1-.32.27c-3.54.24-7.07.34-10.6.46l-5.29.11h-5.28c-1.75,0-3.53.11-5.29.19a21.38,21.38,0,0,1-5.24-.43,34.6,34.6,0,0,1-5.15-1.49,23.25,23.25,0,0,1-5.05-2.59.41.41,0,0,1-.1-.56A.43.43,0,0,1,410.26,748.11Z"/><path class="d" d="M419.58,777a23.48,23.48,0,0,1,5.42-1.65,36.1,36.1,0,0,1,5.33-.55,21.47,21.47,0,0,1,5.24.5c1.72.4,3.44.83,5.17,1.13l5.2.94,5.19,1c3.45.74,6.9,1.46,10.35,2.33a.36.36,0,0,1-.07.7c-3.54.23-7.07.34-10.6.45l-5.28.11h-5.28c-1.76,0-3.53.12-5.3.2a21,21,0,0,1-5.24-.44,35,35,0,0,1-5.15-1.49,23.2,23.2,0,0,1-5.05-2.58.41.41,0,0,1-.1-.56A.46.46,0,0,1,419.58,777Z"/><path class="d" d="M428.9,805.9a14.76,14.76,0,0,1,4.1-1.77,19.33,19.33,0,0,1,4-.67,11.93,11.93,0,0,1,3.9.38c1.28.35,2.56.75,3.85,1l3.86.82,3.86.93c2.57.66,5.14,1.31,7.69,2.09a.36.36,0,0,1,.24.45.35.35,0,0,1-.3.25c-2.65.32-5.3.5-7.94.69l-4,.23-3.95.12c-1.32,0-2.64.19-4,.31a12,12,0,0,1-3.91-.31,20,20,0,0,1-3.81-1.37,15,15,0,0,1-3.72-2.47.44.44,0,0,1,0-.62Z"/><path class="b" d="M146.58,620.18,223.7,709.7s-7.61,47.37-67.83,75.51c0,0,11.67-20,7.16-35.08a55.08,55.08,0,0,1-14.39,19.29c-23.15,19.94-108.56,20.47-108.56,20.47s13.17-84.38,36.33-104.33a55.15,55.15,0,0,1,21.21-11.37c-14.3-6.7-35.76,1.88-35.76,1.88C98.62,620.69,146.58,620.18,146.58,620.18Z"/><path class="d" d="M175.2,674c-3.87,4.66-8,9-12.19,13.3s-8.51,8.41-12.9,12.46-8.92,7.94-13.59,11.67-9.38,7.4-14,11.18l-13.87,11.33-14,11.25c-9.36,7.44-18.65,15-28.06,22.32a.35.35,0,0,1-.45-.53c8.68-8.21,17.48-16.29,26.22-24.44l13.2-12.12,13.26-12c4.43-4,8.77-8.12,13.14-12.19s8.89-8,13.54-11.72,9.4-7.38,14.24-10.91,9.78-6.95,15-10.08a.36.36,0,0,1,.49.12A.36.36,0,0,1,175.2,674Z"/><path class="d" d="M166,681.59a38.86,38.86,0,0,1-7.37-1.27,61,61,0,0,1-6.89-2.26,38.48,38.48,0,0,1-6.42-3.21c-2-1.27-4.06-2.58-6.14-3.77l-6.23-3.6-6.18-3.69c-4.1-2.5-8.2-5-12.25-7.61a.35.35,0,0,1,.31-.63c4.54,1.62,9,3.37,13.49,5.1l6.69,2.66,6.65,2.75c2.21.92,4.48,1.73,6.73,2.58a40.88,40.88,0,0,1,6.45,3.14,66,66,0,0,1,6,4.1,39,39,0,0,1,5.49,5.08.39.39,0,0,1,0,.54A.41.41,0,0,1,166,681.59Z"/><path class="d" d="M138.48,705.32a23.15,23.15,0,0,1-5.66-.43,35.46,35.46,0,0,1-5.17-1.4,22,22,0,0,1-4.7-2.36c-1.46-1-2.91-2-4.42-2.93l-4.5-2.75-4.46-2.84c-3-1.94-5.91-3.87-8.81-5.91a.37.37,0,0,1-.09-.5.35.35,0,0,1,.4-.13c3.39,1,6.71,2.23,10.05,3.4l5,1.81,4.92,1.9c1.64.64,3.34,1.17,5,1.73a21.34,21.34,0,0,1,4.73,2.3,33.56,33.56,0,0,1,4.26,3.25,22.87,22.87,0,0,1,3.78,4.23.41.41,0,0,1-.11.56A.48.48,0,0,1,138.48,705.32Z"/><path class="d" d="M115.48,725.13a23.63,23.63,0,0,1-5.66-.42,34.81,34.81,0,0,1-5.17-1.41,21.34,21.34,0,0,1-4.7-2.36c-1.47-1-2.91-2-4.42-2.92L91,715.27l-4.46-2.85c-3-1.94-5.91-3.86-8.81-5.91a.35.35,0,0,1-.08-.49.36.36,0,0,1,.39-.14c3.39,1.06,6.72,2.24,10,3.4l5,1.81L98,713c1.64.64,3.33,1.16,5,1.73a21.3,21.3,0,0,1,4.73,2.29,35.29,35.29,0,0,1,4.26,3.25,23.53,23.53,0,0,1,3.78,4.23.41.41,0,0,1-.11.56A.6.6,0,0,1,115.48,725.13Z"/><path class="d" d="M92.47,744.94a15.11,15.11,0,0,1-4.46.17,20.39,20.39,0,0,1-4-.81,12.15,12.15,0,0,1-3.5-1.77c-1.07-.79-2.12-1.62-3.23-2.34L74,738l-3.26-2.25c-2.15-1.54-4.31-3.07-6.41-4.73a.36.36,0,0,1,.3-.63c2.6.67,5.13,1.45,7.66,2.22l3.78,1.22,3.72,1.31c1.24.45,2.54.78,3.82,1.14A11.9,11.9,0,0,1,87.14,738a19.51,19.51,0,0,1,3.06,2.66,15,15,0,0,1,2.58,3.64.44.44,0,0,1-.2.59A.35.35,0,0,1,92.47,744.94Z"/><path class="d" d="M166.89,681.61a38.45,38.45,0,0,1,4.21,6.19,64.18,64.18,0,0,1,3.17,6.52,39.06,39.06,0,0,1,2.15,6.84c.5,2.35,1,4.72,1.56,7l1.73,7,1.64,7c1.05,4.69,2.11,9.37,3,14.1a.35.35,0,0,1-.66.21c-2-4.39-3.84-8.82-5.71-13.24l-2.74-6.66-2.64-6.69c-.87-2.23-1.86-4.43-2.82-6.63a40.05,40.05,0,0,1-2.22-6.83,64.86,64.86,0,0,1-1.21-7.14,39.61,39.61,0,0,1-.17-7.49.38.38,0,0,1,.67-.21Z"/><path class="d" d="M139.35,705.34A22.78,22.78,0,0,1,143,709.7a34.17,34.17,0,0,1,2.58,4.69,21.06,21.06,0,0,1,1.57,5c.31,1.74.58,3.5,1,5.21l1.16,5.15L150.3,735c.66,3.47,1.33,6.93,1.87,10.44a.36.36,0,0,1-.67.21c-1.59-3.17-3.06-6.38-4.53-9.59l-2.16-4.83-2.05-4.86c-.68-1.63-1.48-3.21-2.24-4.81a20.91,20.91,0,0,1-1.63-5,34.37,34.37,0,0,1-.63-5.32,23,23,0,0,1,.42-5.65.4.4,0,0,1,.48-.31A.35.35,0,0,1,139.35,705.34Z"/><path class="d" d="M116.34,725.15a22.84,22.84,0,0,1,3.63,4.36,34.27,34.27,0,0,1,2.58,4.7,21.44,21.44,0,0,1,1.57,5c.31,1.75.58,3.5,1,5.21l1.15,5.16,1.05,5.18c.66,3.47,1.34,6.94,1.88,10.44a.36.36,0,0,1-.3.41.37.37,0,0,1-.37-.19c-1.59-3.17-3.06-6.38-4.54-9.59L121.81,751l-2-4.87c-.68-1.62-1.48-3.21-2.24-4.8a21.54,21.54,0,0,1-1.64-5,34.37,34.37,0,0,1-.62-5.32,23.07,23.07,0,0,1,.42-5.66.4.4,0,0,1,.47-.31A.39.39,0,0,1,116.34,725.15Z"/><path class="d" d="M93.34,745a15.37,15.37,0,0,1,3.22,3.09,19.92,19.92,0,0,1,2.17,3.43,11.71,11.71,0,0,1,1.16,3.74c.18,1.32.31,2.65.57,3.94l.74,3.88.65,3.92c.39,2.62.79,5.24,1.06,7.9a.36.36,0,0,1-.32.39.37.37,0,0,1-.35-.18c-1.32-2.32-2.52-4.69-3.72-7.05l-1.75-3.56-1.65-3.59c-.54-1.2-1.2-2.36-1.83-3.53a11.76,11.76,0,0,1-1.22-3.73,19.33,19.33,0,0,1-.22-4.05,15.3,15.3,0,0,1,.82-4.38.45.45,0,0,1,.57-.27Z"/><ellipse class="c" cx="330.11" cy="585.7" rx="53.38" ry="36.29"/><line class="e" x1="337.85" y1="548.58" x2="337.85" y2="620.5"/><line class="e" x1="353.32" y1="548.58" x2="353.32" y2="620.5"/><line class="e" x1="368.79" y1="548.58" x2="368.79" y2="620.5"/><line class="e" x1="322.37" y1="548.58" x2="322.37" y2="620.5"/><line class="e" x1="306.9" y1="548.58" x2="306.9" y2="620.5"/><line class="e" x1="291.43" y1="548.58" x2="291.43" y2="620.5"/><path class="c" d="M473.06,614.68c-24.87-35.43-38.86,3.07-72.76,26.87s-74.87,23.87-50,59.3,99,10.49,99,10.49S497.93,650.11,473.06,614.68Z"/><path class="c" d="M187.16,614.68c24.87-35.43,38.86,3.07,72.76,26.87s74.87,23.87,50,59.3-99,10.49-99,10.49S162.29,650.11,187.16,614.68Z"/><path class="c" d="M440.55,494.3c-37.64-.32-17.49,30.21-17.81,67.66s-21,67.64,16.65,68,57.5-67.33,57.5-67.33S478.19,494.62,440.55,494.3Z"/><path class="c" d="M219.67,629.93c37.64.32,17.49-30.22,17.81-67.67s21-67.64-16.65-68-57.5,67.32-57.5,67.32S182,629.6,219.67,629.93Z"/><path class="c" d="M323.49,457.85c21,31.28-15.63,31.22-46.74,52.07s-45,54.71-65.93,23.44,24.65-85,24.65-85S302.54,426.58,323.49,457.85Z"/><path class="c" d="M336.73,457.85c-21,31.28,15.63,31.22,46.74,52.07s45,54.71,65.93,23.44-24.65-85-24.65-85S357.68,426.58,336.73,457.85Z"/><path class="c" d="M405.1,664.78c.37-43.29-33.41-20.1-74.82-20.45s-74.79-24.12-75.16,19.16,74.43,66.1,74.43,66.1S404.73,708.06,405.1,664.78Z"/><path class="c" d="M277,515.3c-.27,31.48,25.27,14.62,56.59,14.89s56.57,17.56,56.84-13.92-56.31-48.09-56.31-48.09S277.26,483.82,277,515.3Z"/><path class="c" d="M390.13,509.23c-28.49,9.26-6.33,24.86,1.93,50.3s-.48,51.09,28,41.83,28.11-60.06,28.11-60.06S418.62,500,390.13,509.23Z"/><path class="c" d="M244.84,610c21.33-29.35,27.51-.54,49.4,15.37s55.54,16.57,29.88,42.23c-16.72,16.72-75.33,6.45-75.33,6.45S223.51,639.4,244.84,610Z"/><path class="c" d="M422.05,610c-21.34-29.35-27.51-.54-49.4,15.37S317.11,642,342.77,667.64c16.71,16.72,75.32,6.45,75.32,6.45S443.38,639.4,422.05,610Z"/><path class="c" d="M277.27,509.23c28.49,9.26,6.34,24.86-1.93,50.3s.49,51.09-28,41.83-28.12-60.06-28.12-60.06S248.78,500,277.27,509.23Z"/><path class="c" d="M260.53,586.66c15,20,23-2.93,42.83-17.83s44.09-16.14,29.12-36.1-58.61-3.23-58.61-3.23S245.56,566.69,260.53,586.66Z"/><path class="c" d="M406.87,586.66c-15,20-22.95-2.93-42.82-17.83s-44.1-16.14-29.13-36.1,58.62-3.23,58.62-3.23S421.84,566.69,406.87,586.66Z"/><path class="c" d="M260.53,578.25c15-20,23,2.94,42.83,17.83s44.09,16.14,29.12,36.11-58.61,3.23-58.61,3.23S245.56,598.22,260.53,578.25Z"/><path class="c" d="M406.87,578.25c-15-20-22.95,2.94-42.82,17.83s-44.1,16.14-29.13,36.11,58.62,3.23,58.62,3.23S421.84,598.22,406.87,578.25Z"/><path class="f" d="M178.69,726.92l-120-101.76s152.1-123.49,152.1-481.67l140.11,18C350.93,594.36,178.69,726.92,178.69,726.92Z"/><path class="b" d="M107.51,153c29.72,14.58,47.51,3.93,47.51,3.93s-30.4-34.28-60.12-48.86-47.5-3.93-47.5-3.93S77.79,138.43,107.51,153Z"/><path class="b" d="M183.11,141.21c-24.63,22.11-44.64,16.71-44.64,16.71S158.39,116.65,183,94.54s44.64-16.71,44.64-16.71S207.74,119.09,183.11,141.21Z"/></svg>