<svg xmlns="http://www.w3.org/2000/svg" width="510" height="900" viewBox="0 0 510 900"><defs><style>.a,.c{fill:#56634a;}.a,.c,.d,.e{stroke:#432d1e;stroke-miterlimit:10;}.a,.c,.d{stroke-width:8px;}.b{fill:#432d1e;}.c{stroke-linecap:round;}.d,.e{fill:#bd645d;}.e{stroke-width:5px;}</style></defs><title>63</title><path class="a" d="M328.33,156.77C307.92,182.83,287.27,181,287.27,181s12.44-44.1,32.85-70.16,41.06-24.22,41.06-24.22S348.73,130.71,328.33,156.77Z"/><path class="a" d="M187.76,512.53,117,591.35S74,590,42.05,539.66c0,0,19.08,8.09,32,2.35a49.52,49.52,0,0,1-18.8-10.58c-20.38-18.32-30.62-94.21-30.62-94.21s76.56,2.07,96.94,20.38a49.52,49.52,0,0,1,12.54,17.57c4.32-13.49-5.77-31.59-5.77-31.59C181.82,469.94,187.76,512.53,187.76,512.53Z"/><path class="b" d="M143.17,544.16c-4.66-2.83-9-6-13.37-9.16s-8.51-6.54-12.63-10-8.09-7-11.92-10.76-7.62-7.54-11.51-11.23L82.11,492,70.55,480.8c-7.65-7.5-15.36-14.93-23-22.5a.37.37,0,0,1,0-.5.36.36,0,0,1,.47,0c8.34,6.74,16.55,13.62,24.83,20.42l12.33,10.3,12.27,10.38c4.08,3.47,8.25,6.84,12.39,10.24s8.12,7,12,10.71,7.6,7.55,11.26,11.49,7.22,8,10.53,12.32a.35.35,0,0,1-.07.5A.36.36,0,0,1,143.17,544.16Z"/><path class="b" d="M135.33,536.83a32.57,32.57,0,0,1,.08-6.78,52,52,0,0,1,1.12-6.41,32,32,0,0,1,2.12-6.08c.92-1.95,1.88-3.89,2.72-5.87l2.54-5.93,2.63-5.9c1.8-3.92,3.59-7.84,5.5-11.72a.36.36,0,0,1,.67.23c-.87,4.24-1.87,8.43-2.86,12.63l-1.54,6.27-1.64,6.24c-.56,2.08-1,4.2-1.46,6.3a32,32,0,0,1-2.06,6.1,50.44,50.44,0,0,1-3.06,5.75,32.07,32.07,0,0,1-4.1,5.4.38.38,0,0,1-.54,0A.39.39,0,0,1,135.33,536.83Z"/><path class="b" d="M111.08,515.05a19.34,19.34,0,0,1-.47-5.15,27.76,27.76,0,0,1,.56-4.79,17.06,17.06,0,0,1,1.56-4.45c.73-1.41,1.51-2.81,2.16-4.25l2-4.3,2.07-4.27c1.43-2.84,2.85-5.67,4.39-8.47a.36.36,0,0,1,.48-.14.36.36,0,0,1,.18.37c-.5,3.15-1.12,6.26-1.74,9.37l-1,4.65-1.08,4.61c-.37,1.54-.62,3.11-.91,4.68a17.16,17.16,0,0,1-1.49,4.47,27.5,27.5,0,0,1-2.51,4.12,19.13,19.13,0,0,1-3.53,3.77.42.42,0,0,1-.59-.06A.6.6,0,0,1,111.08,515.05Z"/><path class="b" d="M90.83,496.85a19.23,19.23,0,0,1-.47-5.14,28,28,0,0,1,.55-4.8,17.15,17.15,0,0,1,1.57-4.44c.73-1.41,1.51-2.81,2.16-4.25l2-4.3,2.07-4.28c1.43-2.83,2.84-5.67,4.39-8.46a.36.36,0,0,1,.48-.14.35.35,0,0,1,.18.37c-.5,3.15-1.12,6.26-1.74,9.37l-1,4.65L99.93,480c-.36,1.53-.61,3.11-.9,4.68a17.29,17.29,0,0,1-1.49,4.47A28.9,28.9,0,0,1,95,493.31a19.19,19.19,0,0,1-3.54,3.77.41.41,0,0,1-.58-.06A.53.53,0,0,1,90.83,496.85Z"/><path class="b" d="M70.58,478.66a12.92,12.92,0,0,1-.86-4,16.36,16.36,0,0,1,.17-3.66,9.62,9.62,0,0,1,1.17-3.32c.61-1,1.25-2.05,1.77-3.11l1.59-3.18,1.69-3.14c1.17-2.08,2.32-4.16,3.61-6.2a.36.36,0,0,1,.49-.11.37.37,0,0,1,.17.34c-.24,2.4-.6,4.75-1,7.11l-.59,3.51-.7,3.49c-.24,1.15-.36,2.35-.51,3.54a9.61,9.61,0,0,1-1.11,3.34,16.49,16.49,0,0,1-2.12,3,12.89,12.89,0,0,1-3.15,2.64.46.46,0,0,1-.63-.16Z"/><path class="b" d="M135.46,537.65a31.61,31.61,0,0,1-4.93,4.65,50.61,50.61,0,0,1-5.39,3.66,31.85,31.85,0,0,1-5.84,2.69c-2,.7-4.11,1.35-6.11,2.13l-6,2.29-6.07,2.21c-4.07,1.43-8.13,2.87-12.25,4.18a.35.35,0,0,1-.3-.63c3.65-2.32,7.36-4.51,11.06-6.72l5.59-3.25,5.63-3.16c1.88-1,3.7-2.2,5.54-3.33a31.92,31.92,0,0,1,5.82-2.75,49.54,49.54,0,0,1,6.26-1.8,31.79,31.79,0,0,1,6.73-.81.39.39,0,0,1,.38.39A.38.38,0,0,1,135.46,537.65Z"/><path class="b" d="M111.21,515.87a19.43,19.43,0,0,1-3.37,3.92,27.9,27.9,0,0,1-3.83,2.92,17,17,0,0,1-4.29,2c-1.52.45-3.06.87-4.55,1.4l-4.47,1.57-4.51,1.47c-3,1-6.06,1.9-9.14,2.73a.35.35,0,0,1-.43-.25.36.36,0,0,1,.13-.38c2.62-1.84,5.29-3.55,8-5.27l4-2.52L92.8,521c1.36-.8,2.66-1.71,4-2.6a17.13,17.13,0,0,1,4.25-2,27.8,27.8,0,0,1,4.71-1.06,19.3,19.3,0,0,1,5.17-.08.42.42,0,0,1,.36.47A.36.36,0,0,1,111.21,515.87Z"/><path class="b" d="M91,497.67a19.16,19.16,0,0,1-3.37,3.92,27.79,27.79,0,0,1-3.83,2.93,17,17,0,0,1-4.29,2c-1.52.45-3.06.86-4.55,1.39l-4.47,1.58-4.52,1.47c-3,.94-6.05,1.9-9.13,2.73a.35.35,0,0,1-.43-.25.38.38,0,0,1,.13-.39c2.62-1.83,5.29-3.54,8-5.26l4-2.52,4.07-2.43c1.36-.8,2.66-1.72,4-2.6a17.13,17.13,0,0,1,4.25-2,28.81,28.81,0,0,1,4.71-1.07,19.74,19.74,0,0,1,5.17-.07.42.42,0,0,1,.35.47A.31.31,0,0,1,91,497.67Z"/><path class="b" d="M70.71,479.48a13.07,13.07,0,0,1-2.28,3.42,17.73,17.73,0,0,1-2.75,2.42,9.94,9.94,0,0,1-3.21,1.46c-1.16.28-2.34.52-3.46.88l-3.39,1.07-3.43,1c-2.31.61-4.61,1.23-7,1.72a.36.36,0,0,1-.42-.28.36.36,0,0,1,.13-.36c1.88-1.49,3.83-2.86,5.77-4.25l2.95-2,3-1.92c1-.63,1.95-1.38,2.91-2.09A9.39,9.39,0,0,1,62.71,479a16.3,16.3,0,0,1,3.62-.57,13.36,13.36,0,0,1,4.09.44.46.46,0,0,1,.32.56Z"/><path class="a" d="M419.89,575.35,346.2,505.27s2.46-41.21,51.63-70.47c0,0-8.28,18.09-3.13,30.67a47.44,47.44,0,0,1,10.67-17.76c18.13-19.06,91.23-26.81,91.23-26.81s-4.07,73.4-22.2,92.46a47.36,47.36,0,0,1-17.19,11.55c12.82,4.52,30.46-4.67,30.46-4.67C460.93,570.82,419.89,575.35,419.89,575.35Z"/><path class="b" d="M390.75,531.7c2.81-4.42,5.92-8.56,9.09-12.64s6.48-8,9.88-11.88,6.94-7.57,10.65-11.14,7.45-7.1,11.1-10.72l11-10.84,11-10.77c7.42-7.13,14.77-14.32,22.26-21.38a.36.36,0,0,1,.5,0,.36.36,0,0,1,0,.47c-6.68,7.83-13.49,15.54-20.24,23.31l-10.2,11.57-10.28,11.49c-3.43,3.83-6.77,7.75-10.14,11.63s-6.91,7.61-10.6,11.2-7.47,7.07-11.37,10.46-7.89,6.68-12.16,9.71a.36.36,0,0,1-.51-.48Z"/><path class="b" d="M398,524.37a30.68,30.68,0,0,1,6.53.18,47.62,47.62,0,0,1,6.14,1.21,29,29,0,0,1,5.77,2.21c1.85.94,3.68,1.93,5.55,2.79l5.62,2.61,5.58,2.71c3.7,1.85,7.41,3.69,11.07,5.65a.36.36,0,0,1,.15.48.36.36,0,0,1-.39.18c-4-.93-8-2-12.06-3l-6-1.63L420,536c-2-.58-4-1-6-1.54a29.9,29.9,0,0,1-5.8-2.14,48.38,48.38,0,0,1-5.42-3.13,30.82,30.82,0,0,1-5-4.16.39.39,0,0,1,0-.55A.45.45,0,0,1,398,524.37Z"/><path class="b" d="M419.57,501.7a18.46,18.46,0,0,1,5-.4,26.43,26.43,0,0,1,4.59.63,15.62,15.62,0,0,1,4.23,1.62c1.33.76,2.64,1.55,4,2.22l4.07,2,4,2.13c2.67,1.46,5.35,2.91,8,4.49a.36.36,0,0,1,.12.49.36.36,0,0,1-.37.17c-3-.55-6-1.21-9-1.87l-4.44-1.05-4.4-1.15c-1.47-.39-3-.66-4.48-1a15.73,15.73,0,0,1-4.25-1.56,25.58,25.58,0,0,1-3.87-2.55,18.3,18.3,0,0,1-3.49-3.58.41.41,0,0,1,.09-.58A.34.34,0,0,1,419.57,501.7Z"/><path class="b" d="M437.58,482.76a18.4,18.4,0,0,1,5-.39,25.49,25.49,0,0,1,4.6.63,15.75,15.75,0,0,1,4.23,1.62c1.33.75,2.64,1.54,4,2.21l4.07,2,4,2.13c2.67,1.47,5.35,2.92,8,4.5a.35.35,0,0,1,.12.48.36.36,0,0,1-.37.17c-3-.54-6-1.21-9-1.87l-4.44-1-4.41-1.15c-1.46-.39-3-.66-4.47-1a16.07,16.07,0,0,1-4.25-1.56,26.36,26.36,0,0,1-3.87-2.55,18.3,18.3,0,0,1-3.49-3.58.42.42,0,0,1,.09-.59Z"/><path class="b" d="M455.59,463.83a12.28,12.28,0,0,1,3.91-.8,15.69,15.69,0,0,1,3.52.22,8.8,8.8,0,0,1,3.15,1.22c1,.62,1.93,1.28,2.93,1.81l3,1.63,3,1.73c2,1.19,3.92,2.37,5.83,3.68a.36.36,0,0,1,.1.5.37.37,0,0,1-.34.16c-2.31-.28-4.56-.68-6.82-1.07l-3.36-.64-3.33-.75c-1.11-.25-2.26-.39-3.4-.56a8.76,8.76,0,0,1-3.17-1.15,15.6,15.6,0,0,1-2.8-2.15,12.49,12.49,0,0,1-2.42-3.18.47.47,0,0,1,.2-.63Z"/><path class="b" d="M397.2,524.49a30,30,0,0,1-4.4-4.82,46.18,46.18,0,0,1-3.4-5.26,29.71,29.71,0,0,1-2.43-5.68c-.6-2-1.16-4-1.84-5.93l-2-5.85-1.93-5.9c-1.24-3.95-2.5-7.89-3.63-11.89a.35.35,0,0,1,.25-.43.34.34,0,0,1,.39.15c2.15,3.56,4.17,7.17,6.2,10.78l3,5.44,2.89,5.47c1,1.83,2,3.61,3.07,5.41a29.32,29.32,0,0,1,2.49,5.65,48.53,48.53,0,0,1,1.52,6.07,30.14,30.14,0,0,1,.51,6.52.4.4,0,0,1-.41.37A.43.43,0,0,1,397.2,524.49Z"/><path class="b" d="M418.77,501.82a18.13,18.13,0,0,1-3.75-3.31,25.38,25.38,0,0,1-2.74-3.74,15.36,15.36,0,0,1-1.77-4.17c-.39-1.47-.73-3-1.19-4.41L408,481.85l-1.27-4.38c-.81-2.94-1.63-5.88-2.32-8.86a.35.35,0,0,1,.27-.43.34.34,0,0,1,.37.15c1.71,2.54,3.29,5.15,4.89,7.74l2.33,3.93,2.23,4c.74,1.32,1.6,2.6,2.41,3.89A15.68,15.68,0,0,1,418.7,492a26.84,26.84,0,0,1,.86,4.56,18.37,18.37,0,0,1-.15,5,.42.42,0,0,1-.49.34A.34.34,0,0,1,418.77,501.82Z"/><path class="b" d="M436.77,482.89a18.66,18.66,0,0,1-3.74-3.31,26.2,26.2,0,0,1-2.75-3.74,16.31,16.31,0,0,1-1.77-4.17c-.38-1.48-.72-3-1.19-4.42L426,462.91l-1.28-4.38c-.8-2.94-1.62-5.87-2.31-8.86a.36.36,0,0,1,.26-.43.37.37,0,0,1,.38.15c1.71,2.55,3.29,5.15,4.89,7.75l2.33,3.92,2.23,4c.74,1.33,1.59,2.6,2.41,3.89a15.47,15.47,0,0,1,1.83,4.14,25.17,25.17,0,0,1,.86,4.56,18.44,18.44,0,0,1-.14,5,.42.42,0,0,1-.49.34A.76.76,0,0,1,436.77,482.89Z"/><path class="b" d="M454.78,464a12.52,12.52,0,0,1-3.29-2.25A15.94,15.94,0,0,1,449.2,459a9,9,0,0,1-1.31-3.11c-.23-1.13-.42-2.28-.73-3.37l-.91-3.28-.81-3.33c-.51-2.24-1-4.47-1.41-6.75a.36.36,0,0,1,.3-.42.34.34,0,0,1,.34.14c1.41,1.84,2.69,3.74,4,5.64l1.87,2.86,1.78,2.91c.58,1,1.29,1.9,1.95,2.84a8.82,8.82,0,0,1,1.38,3.08,15.41,15.41,0,0,1,.4,3.51,12.26,12.26,0,0,1-.61,3.94.46.46,0,0,1-.59.3Z"/><path class="a" d="M285.52,469.15,214,497.1s-27.4-14.89-31.65-57.9c0,0,9.71,11.47,20,12a35.88,35.88,0,0,1-8.73-13c-7.22-18.51,10.9-71,10.9-71s48.89,26.3,56.12,44.81A35.93,35.93,0,0,1,263,427.47c7.19-7.32,6.56-22.33,6.56-22.33C295.57,439.63,285.52,469.15,285.52,469.15Z"/><path class="b" d="M246.25,475.12A93.54,93.54,0,0,1,240,465.05q-2.79-5.16-5.19-10.47a102.77,102.77,0,0,1-4.2-10.86c-1.2-3.7-2.35-7.41-3.62-11.08l-3.8-11-3.69-11.05c-2.39-7.41-4.87-14.77-7.17-22.2a.34.34,0,0,1,.23-.44.35.35,0,0,1,.42.18c3.34,7,6.51,14.12,9.78,21.18l4.77,10.64,4.68,10.67c1.55,3.56,3.22,7.07,4.85,10.6A105.84,105.84,0,0,1,241.36,452q1.83,5.54,3.28,11.22a96.22,96.22,0,0,1,2.26,11.62.36.36,0,0,1-.32.4A.33.33,0,0,1,246.25,475.12Z"/><path class="b" d="M243.58,467.72a19,19,0,0,1,1.86-4.78,27.47,27.47,0,0,1,2.62-4,16.65,16.65,0,0,1,3.36-3.24c1.28-.91,2.58-1.8,3.8-2.78l3.67-2.92,3.74-2.85c2.52-1.86,5-3.74,7.65-5.52a.36.36,0,0,1,.49.1.36.36,0,0,1,0,.41c-1.84,2.56-3.77,5-5.7,7.52l-2.93,3.67-3,3.6c-1,1.19-1.92,2.48-2.87,3.73A16.64,16.64,0,0,1,253,464a27.69,27.69,0,0,1-4.06,2.52,19.06,19.06,0,0,1-4.82,1.74.42.42,0,0,1-.49-.32A.54.54,0,0,1,243.58,467.72Z"/><path class="b" d="M235,445.71a12.81,12.81,0,0,1,1-3.91,15.62,15.62,0,0,1,1.72-3.12,9,9,0,0,1,2.47-2.36c1-.63,2-1.23,2.91-1.92l2.78-2,2.85-2c1.93-1.29,3.85-2.58,5.87-3.78a.36.36,0,0,1,.49.13.38.38,0,0,1,0,.37c-1.25,2-2.59,3.88-3.92,5.78l-2,2.8L247,438.41c-.71.9-1.33,1.9-2,2.86a9.13,9.13,0,0,1-2.42,2.42,15.83,15.83,0,0,1-3.17,1.65,12.63,12.63,0,0,1-3.93.87.47.47,0,0,1-.49-.44Z"/><path class="b" d="M227.8,427.33a12.66,12.66,0,0,1,1-3.91,15.62,15.62,0,0,1,1.72-3.12,9.14,9.14,0,0,1,2.47-2.37c1-.62,2-1.22,2.91-1.91l2.78-2,2.85-2c1.93-1.29,3.85-2.58,5.87-3.78a.36.36,0,0,1,.49.13.35.35,0,0,1,0,.37c-1.24,2-2.58,3.88-3.91,5.78l-2,2.8L239.79,420c-.71.9-1.33,1.9-2,2.86a8.85,8.85,0,0,1-2.43,2.41,15.51,15.51,0,0,1-3.16,1.66,12.63,12.63,0,0,1-3.93.87.48.48,0,0,1-.49-.44Z"/><path class="b" d="M220.62,408.94a9.7,9.7,0,0,1,1.45-5.81,5,5,0,0,1,1.85-1.76,25.64,25.64,0,0,0,2.29-1.31l2.15-1.44,2.23-1.37c1.52-.88,3-1.77,4.63-2.56a.36.36,0,0,1,.49.16.37.37,0,0,1,0,.34c-.83,1.58-1.76,3.07-2.67,4.56l-1.42,2.2-1.5,2.12c-.51.69-.91,1.5-1.36,2.26a5,5,0,0,1-1.8,1.8,9.35,9.35,0,0,1-2.54,1.05,9.74,9.74,0,0,1-3.31.27A.56.56,0,0,1,220.62,408.94Z"/><path class="b" d="M243.47,468.46a19.44,19.44,0,0,1-4.73,2,27.85,27.85,0,0,1-4.69.89,16.92,16.92,0,0,1-4.66-.17c-1.55-.28-3.1-.61-4.65-.8l-4.65-.61-4.64-.71c-3.1-.52-6.19-1-9.29-1.67a.35.35,0,0,1-.27-.42.35.35,0,0,1,.29-.28c3.13-.46,6.25-.79,9.37-1.13l4.68-.44,4.67-.34c1.56-.1,3.13-.34,4.69-.53a16.92,16.92,0,0,1,4.66.1,27.76,27.76,0,0,1,4.63,1.16,19.45,19.45,0,0,1,4.61,2.26.42.42,0,0,1,.1.58A.46.46,0,0,1,243.47,468.46Z"/><path class="b" d="M234.87,446.45a12.82,12.82,0,0,1-3.48,2,15.79,15.79,0,0,1-3.45.93,9.11,9.11,0,0,1-3.41-.14c-1.13-.26-2.27-.58-3.4-.76l-3.4-.57-3.4-.68c-2.27-.49-4.53-1-6.8-1.59a.36.36,0,0,1-.25-.44.37.37,0,0,1,.27-.26c2.3-.49,4.59-.84,6.88-1.2l3.43-.48,3.43-.38c1.15-.11,2.29-.36,3.44-.56a9.15,9.15,0,0,1,3.42.06,15.8,15.8,0,0,1,3.38,1.13,12.44,12.44,0,0,1,3.36,2.22.46.46,0,0,1,0,.66Z"/><path class="b" d="M227.69,428.06a12.87,12.87,0,0,1-3.48,2,16.37,16.37,0,0,1-3.45.93,9.11,9.11,0,0,1-3.41-.14c-1.13-.27-2.27-.58-3.4-.76l-3.4-.57-3.4-.68c-2.27-.49-4.53-1-6.8-1.59a.37.37,0,0,1-.25-.45.36.36,0,0,1,.27-.25c2.3-.49,4.59-.84,6.88-1.21l3.43-.48,3.43-.37c1.14-.12,2.29-.36,3.44-.56A8.89,8.89,0,0,1,221,424a15.66,15.66,0,0,1,3.39,1.12,12.93,12.93,0,0,1,3.36,2.22.46.46,0,0,1,0,.66S227.7,428.05,227.69,428.06Z"/><path class="b" d="M220.51,409.68a9.47,9.47,0,0,1-2.61,2.05,9.89,9.89,0,0,1-2.58.95,5,5,0,0,1-2.55-.11c-.84-.24-1.69-.57-2.53-.73l-2.54-.55-2.53-.65c-1.69-.48-3.37-.94-5.06-1.55a.37.37,0,0,1-.22-.47.39.39,0,0,1,.24-.23c1.72-.5,3.43-.87,5.14-1.25l2.57-.5,2.56-.4c.85-.12,1.71-.39,2.57-.59a5,5,0,0,1,2.55,0,9.86,9.86,0,0,1,2.52,1.1,9.62,9.62,0,0,1,2.49,2.19A.56.56,0,0,1,220.51,409.68Z"/><path class="a" d="M255.13,179.05c31.8,9.19,47.46-4.39,47.46-4.39S266.7,146.18,234.9,137s-47.47,4.39-47.47,4.39S223.32,169.86,255.13,179.05Z"/><path class="a" d="M318.11,720.36l94.54-70.86s46.74,10.8,70.74,72.79c0,0-19.11-13-34.52-9.52a55.23,55.23,0,0,1,18.27,15.66c18.33,24.45,13.06,109.7,13.06,109.7s-83.29-18.87-101.62-43.32a55.18,55.18,0,0,1-9.91-21.94c-7.65,13.82-.55,35.81-.55,35.81C315.36,768.25,318.11,720.36,318.11,720.36Z"/><path class="b" d="M373.71,695.46c4.39,4.17,8.45,8.59,12.44,13.06s7.82,9.06,11.57,13.72,7.31,9.44,10.71,14.35,6.75,9.86,10.21,14.73L429,765.94l10.28,14.67c6.79,9.84,13.65,19.62,20.37,29.51a.35.35,0,0,1-.1.48.34.34,0,0,1-.46-.06c-7.61-9.22-15.07-18.56-22.61-27.83l-11.2-14-11.12-14.05c-3.7-4.69-7.51-9.3-11.28-13.94s-7.35-9.41-10.77-14.31-6.73-9.88-9.92-14.94-6.27-10.23-9-15.61a.35.35,0,0,1,.56-.42Z"/><path class="b" d="M380.69,705.13a38.43,38.43,0,0,1-1.77,7.27,63.7,63.7,0,0,1-2.71,6.72,39.55,39.55,0,0,1-3.64,6.19c-1.41,2-2.85,3.88-4.18,5.87l-4,6-4.11,5.91c-2.77,3.92-5.54,7.85-8.42,11.71a.34.34,0,0,1-.49.07.35.35,0,0,1-.12-.42c1.93-4.42,4-8.76,6-13.12l3.11-6.49,3.2-6.44c1.07-2.15,2-4.35,3-6.54a39.13,39.13,0,0,1,3.57-6.22,60.72,60.72,0,0,1,4.5-5.69,38.1,38.1,0,0,1,5.44-5.14.38.38,0,0,1,.53.07A.41.41,0,0,1,380.69,705.13Z"/><path class="b" d="M402.5,734.22a23.21,23.21,0,0,1-.81,5.61,35.23,35.23,0,0,1-1.75,5.07,21,21,0,0,1-2.68,4.52c-1.08,1.4-2.2,2.78-3.21,4.22L391,758l-3.14,4.25c-2.14,2.82-4.26,5.64-6.5,8.39a.35.35,0,0,1-.5,0,.34.34,0,0,1-.1-.4c1.28-3.31,2.68-6.55,4.07-9.8l2.14-4.83,2.23-4.79c.76-1.59,1.4-3.24,2.07-4.88a21.46,21.46,0,0,1,2.61-4.56,35.12,35.12,0,0,1,3.53-4,23.33,23.33,0,0,1,4.48-3.48.4.4,0,0,1,.55.15A.36.36,0,0,1,402.5,734.22Z"/><path class="b" d="M420.7,758.52a23.36,23.36,0,0,1-.8,5.61,34,34,0,0,1-1.76,5.06,21.07,21.07,0,0,1-2.67,4.53c-1.08,1.4-2.21,2.77-3.21,4.21l-3.06,4.31-3.14,4.26c-2.13,2.81-4.25,5.63-6.49,8.39a.36.36,0,0,1-.5.05.37.37,0,0,1-.11-.4c1.29-3.31,2.69-6.55,4.08-9.8l2.14-4.84,2.23-4.78c.75-1.59,1.39-3.25,2.07-4.88a21.53,21.53,0,0,1,2.61-4.57,35.12,35.12,0,0,1,3.53-4,23.33,23.33,0,0,1,4.48-3.48.41.41,0,0,1,.55.15A.38.38,0,0,1,420.7,758.52Z"/><path class="b" d="M438.91,782.81a15.24,15.24,0,0,1-.13,4.46,20.69,20.69,0,0,1-1.09,3.91,11.88,11.88,0,0,1-2,3.37c-.86,1-1.76,2-2.54,3.06l-2.38,3.16-2.47,3.1c-1.69,2-3.36,4.1-5.16,6.08a.34.34,0,0,1-.5,0,.33.33,0,0,1-.1-.37c.83-2.54,1.79-5,2.73-7.49l1.47-3.68,1.56-3.63c.53-1.21.95-2.48,1.4-3.73a11.9,11.9,0,0,1,1.94-3.41,20.47,20.47,0,0,1,2.86-2.88,14.77,14.77,0,0,1,3.81-2.32.43.43,0,0,1,.57.24A.2.2,0,0,1,438.91,782.81Z"/><path class="b" d="M380.77,704.27a38.7,38.7,0,0,1,6.46-3.78,62.16,62.16,0,0,1,6.72-2.72,39.69,39.69,0,0,1,7-1.69c2.38-.34,4.77-.64,7.12-1.07l7.08-1.26,7.11-1.16c4.75-.73,9.49-1.47,14.27-2.08a.35.35,0,0,1,.39.31.33.33,0,0,1-.22.37c-4.51,1.69-9.06,3.24-13.6,4.8l-6.83,2.28-6.85,2.18c-2.29.72-4.55,1.56-6.81,2.36a39.88,39.88,0,0,1-7,1.76,63.78,63.78,0,0,1-7.21.72,39.47,39.47,0,0,1-7.48-.34.39.39,0,0,1-.32-.44A.36.36,0,0,1,380.77,704.27Z"/><path class="b" d="M402.57,733.36a23.37,23.37,0,0,1,4.6-3.33,35.43,35.43,0,0,1,4.86-2.25,21.41,21.41,0,0,1,5.11-1.23c1.76-.19,3.53-.34,5.27-.61l5.22-.8,5.24-.7c3.51-.42,7-.86,10.55-1.16a.36.36,0,0,1,.38.32.36.36,0,0,1-.22.36c-3.27,1.37-6.57,2.62-9.87,3.88l-5,1.82-5,1.72c-1.67.56-3.3,1.25-4.95,1.9a20.79,20.79,0,0,1-5.09,1.29,33.89,33.89,0,0,1-5.35.27,23.44,23.44,0,0,1-5.62-.8.42.42,0,0,1-.28-.5A.46.46,0,0,1,402.57,733.36Z"/><path class="b" d="M420.78,757.65a23.42,23.42,0,0,1,4.6-3.32,35,35,0,0,1,4.86-2.26,21.39,21.39,0,0,1,5.11-1.22c1.76-.19,3.53-.34,5.27-.62l5.21-.8,5.25-.7c3.5-.42,7-.85,10.54-1.16a.37.37,0,0,1,.39.33.36.36,0,0,1-.22.35c-3.27,1.38-6.57,2.62-9.87,3.88L447,754l-5,1.72c-1.67.56-3.3,1.26-4.95,1.91a21.86,21.86,0,0,1-5.09,1.29,35.26,35.26,0,0,1-5.36.26,23.43,23.43,0,0,1-5.61-.8.41.41,0,0,1-.28-.5A.42.42,0,0,1,420.78,757.65Z"/><path class="b" d="M439,782a15.07,15.07,0,0,1,3.3-3,20,20,0,0,1,3.57-1.93,11.86,11.86,0,0,1,3.81-.91c1.33-.08,2.67-.13,4-.29l3.92-.48,3.95-.38c2.64-.21,5.28-.43,8-.52a.36.36,0,0,1,.37.34.37.37,0,0,1-.21.34c-2.4,1.16-4.84,2.19-7.28,3.23l-3.67,1.5-3.7,1.4c-1.23.46-2.43,1-3.65,1.59a11.89,11.89,0,0,1-3.8,1,19.63,19.63,0,0,1-4,0,15,15,0,0,1-4.32-1.13.44.44,0,0,1-.23-.58Z"/><path class="c" d="M300.86,457.12l18.33,10.14s34.24-113.18-12.71-301.52L284.24,168C331.56,364.51,300.86,457.12,300.86,457.12Z"/><path class="a" d="M313.14,124.32l.53,1.76c4.45,14.71-.22,42.78-15.08,47.27h0c-14.86,4.49-34.29-16.29-38.73-31l-.54-1.75Z"/><ellipse class="d" cx="267.3" cy="74.07" rx="30.1" ry="18.74" transform="translate(-8.54 44.94) rotate(-9.46)"/><path class="d" d="M287.08,96.9c3.07,18.1-4.95,47-20.45,49.63s-35.69-40.12-38.76-58.22S240,83.62,255.5,81,284,78.81,287.08,96.9Z"/><path class="d" d="M265.07,112.37c7.38,16.81,29.95,36.54,44.35,30.23s7.78-53.13.4-69.94-12.71,2.74-27.11,9S257.7,95.55,265.07,112.37Z"/><path class="a" d="M120.23,634.89l77.11,89.52s-7.6,47.37-67.83,75.51c0,0,11.67-19.95,7.16-35.08a55.17,55.17,0,0,1-14.38,19.29c-23.16,20-108.56,20.47-108.56,20.47S26.9,720.22,50.05,700.27A55.26,55.26,0,0,1,71.27,688.9c-14.31-6.7-35.76,1.88-35.76,1.88C72.26,635.4,120.23,634.89,120.23,634.89Z"/><path class="b" d="M148.84,688.68c-3.86,4.66-8,9-12.18,13.3s-8.51,8.41-12.9,12.46-8.93,7.94-13.6,11.67-9.38,7.4-14,11.18L82.28,748.62l-14,11.25c-9.35,7.44-18.64,15-28,22.32a.35.35,0,0,1-.49-.06.34.34,0,0,1,0-.47c8.68-8.21,17.49-16.29,26.23-24.44L79.24,745.1,92.5,733.05c4.43-4,8.77-8.12,13.14-12.19s8.89-8,13.55-11.72,9.4-7.38,14.24-10.91,9.77-7,15-10.08a.35.35,0,0,1,.45.53Z"/><path class="b" d="M139.67,696.3a39,39,0,0,1-7.38-1.27,61.67,61.67,0,0,1-6.89-2.26,39.27,39.27,0,0,1-6.42-3.21c-2-1.27-4.06-2.58-6.14-3.77l-6.22-3.6-6.18-3.69c-4.1-2.5-8.21-5-12.25-7.61a.36.36,0,0,1-.11-.49.37.37,0,0,1,.42-.14c4.53,1.62,9,3.37,13.49,5.1l6.69,2.66,6.64,2.75c2.21.93,4.48,1.73,6.73,2.58a40,40,0,0,1,6.45,3.14,64.6,64.6,0,0,1,6,4.1,38.48,38.48,0,0,1,5.5,5.08.38.38,0,0,1,0,.54A.36.36,0,0,1,139.67,696.3Z"/><path class="b" d="M112.12,720a23.07,23.07,0,0,1-5.65-.43,34.79,34.79,0,0,1-5.17-1.4,21.56,21.56,0,0,1-4.7-2.36c-1.47-1-2.92-2-4.42-2.93l-4.51-2.75-4.46-2.84c-2.95-1.94-5.91-3.87-8.81-5.91a.36.36,0,0,1-.08-.5.35.35,0,0,1,.39-.13c3.39,1.05,6.72,2.23,10.05,3.4l5,1.81,4.93,1.9c1.63.64,3.33,1.17,5,1.73a21.78,21.78,0,0,1,4.73,2.3,34.29,34.29,0,0,1,4.26,3.25,22.48,22.48,0,0,1,3.77,4.23.4.4,0,0,1-.11.56A.48.48,0,0,1,112.12,720Z"/><path class="b" d="M89.12,739.84a23.54,23.54,0,0,1-5.65-.42A34.81,34.81,0,0,1,78.3,738a21.12,21.12,0,0,1-4.7-2.36c-1.47-1-2.92-2-4.43-2.92L64.67,730l-4.46-2.85c-3-1.93-5.91-3.86-8.81-5.91a.35.35,0,0,1-.09-.49.37.37,0,0,1,.4-.14c3.39,1.06,6.71,2.24,10,3.4l5,1.81,4.92,1.91c1.64.64,3.34,1.16,5,1.73a21.3,21.3,0,0,1,4.73,2.29A34.52,34.52,0,0,1,85.65,735a23.53,23.53,0,0,1,3.78,4.23.4.4,0,0,1-.11.56A.37.37,0,0,1,89.12,739.84Z"/><path class="b" d="M66.12,759.65a15.12,15.12,0,0,1-4.46.17,20.24,20.24,0,0,1-4-.81,12.2,12.2,0,0,1-3.51-1.77c-1.07-.79-2.11-1.62-3.22-2.34l-3.31-2.16-3.26-2.25c-2.16-1.54-4.32-3.07-6.42-4.73a.35.35,0,0,1-.06-.5.36.36,0,0,1,.37-.13c2.59.67,5.12,1.45,7.66,2.22l3.77,1.22,3.73,1.31c1.24.45,2.53.78,3.81,1.14a11.9,11.9,0,0,1,3.53,1.71,19.58,19.58,0,0,1,3.07,2.66A15,15,0,0,1,66.43,759a.46.46,0,0,1-.2.59Z"/><path class="b" d="M140.54,696.32a39.11,39.11,0,0,1,4.21,6.19,62.06,62.06,0,0,1,3.16,6.52,40,40,0,0,1,2.16,6.84c.5,2.35,1,4.72,1.55,7l1.74,7,1.64,7c1.05,4.69,2.11,9.37,3,14.1a.35.35,0,0,1-.28.41.36.36,0,0,1-.39-.2c-2-4.39-3.84-8.82-5.71-13.24l-2.74-6.66-2.63-6.69c-.87-2.23-1.87-4.43-2.82-6.63a39.22,39.22,0,0,1-2.23-6.83A64.86,64.86,0,0,1,140,704a38.81,38.81,0,0,1-.16-7.49.37.37,0,0,1,.41-.34A.43.43,0,0,1,140.54,696.32Z"/><path class="b" d="M113,720.05a23.22,23.22,0,0,1,3.63,4.36,35.27,35.27,0,0,1,2.58,4.69,21.52,21.52,0,0,1,1.57,5c.31,1.74.57,3.5,1,5.21l1.15,5.15,1,5.19c.66,3.47,1.33,6.93,1.88,10.44a.36.36,0,0,1-.3.4.34.34,0,0,1-.37-.19c-1.6-3.17-3.06-6.38-4.54-9.59l-2.15-4.83L116.4,741c-.67-1.63-1.47-3.21-2.23-4.81a21.46,21.46,0,0,1-1.64-5,34.65,34.65,0,0,1-.62-5.33,22.94,22.94,0,0,1,.41-5.65.41.41,0,0,1,.48-.31A.32.32,0,0,1,113,720.05Z"/><path class="b" d="M90,739.86a22.78,22.78,0,0,1,3.62,4.36,34.27,34.27,0,0,1,2.58,4.7,21,21,0,0,1,1.57,5c.31,1.75.58,3.5,1,5.21l1.16,5.16,1,5.18c.66,3.47,1.33,6.94,1.87,10.44a.35.35,0,0,1-.66.22c-1.6-3.17-3.07-6.38-4.54-9.59l-2.16-4.83-2-4.87c-.68-1.62-1.48-3.21-2.24-4.8a21.05,21.05,0,0,1-1.63-5,34.37,34.37,0,0,1-.63-5.32,23.57,23.57,0,0,1,.42-5.66.42.42,0,0,1,.48-.31A.44.44,0,0,1,90,739.86Z"/><path class="b" d="M67,759.67a14.89,14.89,0,0,1,3.22,3.09,20,20,0,0,1,2.18,3.43,12,12,0,0,1,1.16,3.74c.17,1.32.31,2.65.56,3.94l.75,3.89.64,3.91c.39,2.62.79,5.24,1.06,7.9a.36.36,0,0,1-.32.39.34.34,0,0,1-.34-.18c-1.33-2.32-2.52-4.68-3.73-7l-1.74-3.56-1.65-3.59c-.54-1.2-1.21-2.36-1.83-3.53a12,12,0,0,1-1.23-3.73,20.78,20.78,0,0,1-.22-4.05,15,15,0,0,1,.83-4.38.44.44,0,0,1,.56-.27Z"/><ellipse class="d" cx="267.83" cy="594.05" rx="56.39" ry="38.33"/><line class="e" x1="276" y1="554.84" x2="276" y2="630.82"/><line class="e" x1="292.35" y1="554.84" x2="292.35" y2="630.82"/><line class="e" x1="308.69" y1="554.84" x2="308.69" y2="630.82"/><line class="e" x1="259.66" y1="554.84" x2="259.66" y2="630.82"/><line class="e" x1="243.32" y1="554.84" x2="243.32" y2="630.82"/><line class="e" x1="226.98" y1="554.84" x2="226.98" y2="630.82"/><path class="d" d="M418.84,624.66c-26.27-37.42-41,3.25-76.86,28.39s-79.09,25.21-52.82,62.63,104.56,11.09,104.56,11.09S445.1,662.09,418.84,624.66Z"/><path class="d" d="M116.83,624.66c26.27-37.42,41.05,3.25,76.86,28.39s79.09,25.21,52.82,62.63S142,726.77,142,726.77,90.56,662.09,116.83,624.66Z"/><path class="d" d="M384.49,497.51c-39.76-.34-18.47,31.91-18.81,71.47s-22.18,71.45,17.58,71.79S444,569.66,444,569.66,424.25,497.85,384.49,497.51Z"/><path class="d" d="M151.18,640.77c39.76.34,18.47-31.91,18.81-71.48s22.18-71.44-17.58-71.78-60.75,71.11-60.75,71.11S111.41,640.43,151.18,640.77Z"/><path class="d" d="M260.84,459c22.14,33-16.51,33-49.37,55S164,571.8,141.83,538.77s26-89.83,26-89.83S238.71,426,260.84,459Z"/><path class="d" d="M274.82,459c-22.13,33,16.52,33,49.38,55s47.5,57.79,69.64,24.76-26-89.83-26-89.83S297,426,274.82,459Z"/><path class="d" d="M347.05,677.59c.39-45.73-35.29-21.23-79-21.61s-79-25.48-79.39,20.25,78.62,69.82,78.62,69.82S346.65,723.31,347.05,677.59Z"/><path class="d" d="M211.72,519.69c-.29,33.25,26.69,15.45,59.78,15.73s59.75,18.55,60-14.7-59.48-50.8-59.48-50.8S212,486.44,211.72,519.69Z"/><path class="d" d="M331.24,513.28c-30.1,9.78-6.7,26.26,2,53.14s-.51,54,29.59,44.18,29.69-63.45,29.69-63.45S361.33,503.5,331.24,513.28Z"/><path class="d" d="M177.76,619.77c22.53-31,29.06-.57,52.18,16.23s58.67,17.51,31.56,44.61c-17.65,17.66-79.56,6.81-79.56,6.81S155.23,650.78,177.76,619.77Z"/><path class="d" d="M365,619.77c-22.54-31-29.06-.57-52.19,16.23s-58.66,17.51-31.55,44.61c17.65,17.66,79.56,6.81,79.56,6.81S387.48,650.78,365,619.77Z"/><path class="d" d="M212,513.28c30.09,9.78,6.69,26.26-2,53.14s.51,54-29.58,44.18-29.7-63.45-29.7-63.45S181.93,503.5,212,513.28Z"/><path class="d" d="M194.33,595.07c15.82,21.09,24.25-3.1,45.24-18.83s46.58-17,30.77-38.14-61.91-3.41-61.91-3.41S178.52,574,194.33,595.07Z"/><path class="d" d="M348.92,595.07c-15.81,21.09-24.25-3.1-45.24-18.83s-46.57-17-30.76-38.14,61.91-3.41,61.91-3.41S364.73,574,348.92,595.07Z"/><path class="d" d="M194.33,586.19c15.82-21.1,24.25,3.1,45.24,18.83s46.58,17.05,30.77,38.14-61.91,3.41-61.91,3.41S178.52,607.28,194.33,586.19Z"/><path class="d" d="M348.92,586.19c-15.81-21.1-24.25,3.1-45.24,18.83s-46.57,17.05-30.76,38.14,61.91,3.41,61.91,3.41S364.73,607.28,348.92,586.19Z"/><path class="a" d="M353.43,326.17c-16.62,28.63-37.32,29.65-37.32,29.65s6.23-45.4,22.85-74,37.32-29.66,37.32-29.66S370.05,297.54,353.43,326.17Z"/></svg>