<svg xmlns="http://www.w3.org/2000/svg" width="510" height="900" viewBox="0 0 510 900"><defs><style>.a,.i,.j{fill:none;}.a,.d,.e,.f,.g,.h,.i,.j,.k{stroke:#432d1e;}.a,.d,.e,.f,.g,.h,.i,.k{stroke-miterlimit:10;}.a,.d,.e,.f,.g,.h,.i{stroke-width:8px;}.b,.k{fill:#bd645d;}.c,.e,.g{fill:#432d1e;}.d{fill:#56634a;}.f,.h{fill:#f7a859;}.g,.h,.i,.j,.k{stroke-linecap:round;}.j{stroke-width:3px;}.k{stroke-width:6px;}</style></defs><title>70</title><path class="a" d="M200.66,203.51c64.26,75.77,198.26,248.61,349.81,263.37"/><path class="b" d="M197.82,207.78c-8.5,0-20.45-10.68-27.37-20.73-4.3-6.24-6.67-12-7-17.25-.4-5.53,1.53-10.07,5.46-12.77a12.37,12.37,0,0,1,7.06-2.17c6.79,0,14,5.09,20.42,14.35a65.68,65.68,0,0,1,9.37,20.08c2.71,10.55-.08,15.07-2.9,17a8.56,8.56,0,0,1-5,1.48Z"/><path class="c" d="M175.92,158.86c5,0,11.14,3.93,17.13,12.62,8.12,11.78,12.82,27.86,7.49,31.53a4.68,4.68,0,0,1-2.72.77c-6.29,0-17.11-8.89-24.08-19-8.12-11.79-7.94-20.78-2.61-24.46a8.34,8.34,0,0,1,4.79-1.46m0-8a16.31,16.31,0,0,0-9.33,2.88c-7.49,5.16-11.84,17.58.57,35.58,7.45,10.81,20.23,22.46,30.66,22.46a12.76,12.76,0,0,0,7.26-2.18c7-4.83,6.32-14.25,4.51-21.3a69.81,69.81,0,0,0-10-21.36c-7.14-10.37-15.56-16.08-23.71-16.08Z"/><path class="b" d="M191.22,272.53c-1.14,0-2.28,0-3.39-.09-10.72-.62-23-5.13-22.41-15.77.37-6.37,6.1-13.17,21.07-13.17,1,0,2,0,3,.08A59.13,59.13,0,0,1,208.91,248c9.13,4,10.82,8.59,10.64,11.77-.54,9.35-17.24,12.74-28.33,12.74Z"/><path class="c" d="M186.49,247.5c.89,0,1.82,0,2.77.08,12.74.73,26.63,6.22,26.29,12-.3,5.29-12.48,9-24.33,9-1.06,0-2.12,0-3.16-.09-12.74-.73-19-5.78-18.64-11.54.3-5.33,6.12-9.4,17.07-9.4m0-8c-6.71,0-12.29,1.28-16.59,3.8-5.15,3-8.16,7.7-8.47,13.14-.33,5.79,2.57,11.17,8,14.77,4.53,3,10.66,4.78,18.2,5.22,1.18.07,2.4.1,3.62.1,11.65,0,31.57-3.47,32.32-16.5.47-8.07-6.83-13-13-15.68a63.35,63.35,0,0,0-20.78-4.76c-1.09-.06-2.18-.09-3.23-.09Z"/><path class="b" d="M220,314.72c-1.14,0-2.29,0-3.4-.1-6.82-.39-12.27-1.93-16.21-4.55-4.25-2.84-6.44-6.82-6.19-11.22.37-6.37,6.1-13.17,21.07-13.17,1,0,2,0,3,.09a59.32,59.32,0,0,1,19.41,4.43c9.13,4,10.83,8.6,10.64,11.78-.53,9.34-17.23,12.74-28.32,12.74Z"/><path class="c" d="M215.27,289.68c.89,0,1.81,0,2.77.08,12.74.74,26.62,6.23,26.29,12-.3,5.29-12.48,9-24.33,9-1.06,0-2.12,0-3.17-.09-12.74-.74-19-5.79-18.64-11.55.31-5.33,6.13-9.4,17.08-9.4m0-8c-6.72,0-12.3,1.28-16.59,3.81-5.15,3-8.16,7.7-8.47,13.13-.49,8.5,6.06,18.83,26.16,20,1.19.07,2.41.11,3.63.11,11.65,0,31.56-3.48,32.32-16.51.77-13.42-20.33-19.65-33.82-20.43-1.1-.07-2.18-.1-3.23-.1Z"/><path class="b" d="M261.51,355.57c-1.15,0-2.29,0-3.4-.09-6.82-.4-12.27-1.93-16.21-4.56-4.25-2.83-6.45-6.81-6.19-11.21.37-6.37,6.09-13.17,21.06-13.17,1,0,2,0,3,.09a59.13,59.13,0,0,1,19.41,4.43c9.13,4,10.83,8.6,10.64,11.78-.54,9.34-17.23,12.73-28.32,12.73Z"/><path class="c" d="M256.78,330.54c.88,0,1.81,0,2.77.08,12.74.74,26.62,6.22,26.29,12-.31,5.28-12.48,9-24.33,9-1.06,0-2.12,0-3.17-.09-12.74-.73-19-5.78-18.64-11.54.31-5.33,6.12-9.4,17.08-9.4m0-8c-6.72,0-12.3,1.28-16.59,3.81-5.15,3-8.16,7.69-8.48,13.13-.33,5.79,2.57,11.17,8,14.77,4.54,3,10.66,4.79,18.2,5.22,1.19.07,2.41.1,3.63.1,11.65,0,31.56-3.47,32.32-16.5.46-8.07-6.84-13-13-15.68A63.41,63.41,0,0,0,260,322.63c-1.1-.06-2.19-.09-3.23-.09Z"/><path class="b" d="M330,312.57a7.62,7.62,0,0,1-2.08-.28c-3.06-.87-6.88-4-7.64-13.91a59.19,59.19,0,0,1,2.16-19.8c3.35-11.83,9.76-18.89,17.15-18.89a11.19,11.19,0,0,1,3.09.43c4.24,1.2,7.28,4.58,8.57,9.52,1.19,4.58.86,10.24-1,16.81-3.07,10.84-11.38,26.12-20.24,26.12Z"/><path class="c" d="M339.54,263.69a7.21,7.21,0,0,1,2,.28c5.55,1.57,8.28,9.11,4.81,21.39-3.27,11.57-10.88,23.21-16.4,23.21a3.69,3.69,0,0,1-1-.13c-5.55-1.57-6.19-16.49-2.72-28.77,3.06-10.82,8.3-16,13.3-16m0-8c-4.46,0-15.43,2.12-21,21.8-3.68,13-4.69,35,8.24,38.64a11.72,11.72,0,0,0,3.17.44c5.47,0,10.73-3.61,15.63-10.73a64.6,64.6,0,0,0,8.47-18.3c2.05-7.27,2.4-13.63,1-18.91-1.63-6.28-5.77-10.78-11.35-12.36a15.28,15.28,0,0,0-4.18-.58Z"/><path class="b" d="M288.8,272.42a7.62,7.62,0,0,1-2.08-.28c-9.48-2.69-8.88-21.7-5.48-33.71,3.35-11.83,9.76-18.89,17.14-18.89a11.21,11.21,0,0,1,3.1.43c6.41,1.81,12.24,9.8,7.57,26.33-3.07,10.85-11.38,26.12-20.25,26.12Z"/><path class="c" d="M298.39,223.54a7.21,7.21,0,0,1,2,.28c5.55,1.57,8.28,9.11,4.81,21.39-3.27,11.57-10.88,23.21-16.4,23.21a3.64,3.64,0,0,1-1-.13c-5.55-1.57-6.2-16.49-2.72-28.77,3.06-10.82,8.29-16,13.3-16m0-8c-4.46,0-15.43,2.12-21,21.8-3.68,13-4.69,35,8.24,38.65a11.71,11.71,0,0,0,3.17.43c5.47,0,10.73-3.61,15.63-10.73a64.6,64.6,0,0,0,8.47-18.3c5.48-19.37-2.14-28.95-10.33-31.27a15.28,15.28,0,0,0-4.18-.58Z"/><path class="b" d="M250,237a7.63,7.63,0,0,1-2.08-.29c-3.07-.86-6.88-4-7.64-13.91A59.16,59.16,0,0,1,242.43,203c3.35-11.83,9.76-18.9,17.15-18.9a11.58,11.58,0,0,1,3.09.43c4.24,1.2,7.28,4.59,8.57,9.53,1.19,4.58.86,10.23-1,16.8C267.17,221.72,258.86,237,250,237Z"/><path class="c" d="M259.57,188.11a7.62,7.62,0,0,1,2,.28c5.55,1.58,8.28,9.12,4.81,21.4C263.12,221.35,255.51,233,250,233a3.64,3.64,0,0,1-1-.14c-5.55-1.57-6.2-16.48-2.72-28.76,3.06-10.82,8.29-16,13.29-16m0-8c-4.45,0-15.42,2.13-21,21.81a63.27,63.27,0,0,0-2.3,21.19,29.47,29.47,0,0,0,2.13,9.51c2.27,5.24,5.83,7.21,8.41,7.94A11.72,11.72,0,0,0,250,241c5.47,0,10.73-3.61,15.63-10.73A64.53,64.53,0,0,0,274.09,212c2.05-7.26,2.4-13.62,1-18.9-1.63-6.28-5.77-10.79-11.35-12.36a15.31,15.31,0,0,0-4.19-.59Z"/><polyline class="a" points="247.93 237.27 243.21 255.78 220.95 259.41"/><polyline class="a" points="287.07 270.23 278.82 295.67 250 300.67"/><polyline class="a" points="329.74 308.46 320.68 336.4 289.03 341.89"/><path class="d" d="M375.33,291.92c-5.17,16.11,10.84,35.64,10.84,35.64s24.39-6.58,29.55-22.69-10.84-35.64-10.84-35.64S380.5,275.81,375.33,291.92Z"/><line class="d" x1="386.17" y1="327.56" x2="369.67" y2="379.02"/><path class="d" d="M431.76,316.69c-5.17,16.11,10.84,35.64,10.84,35.64s24.38-6.57,29.55-22.68S461.31,294,461.31,294,436.92,300.59,431.76,316.69Z"/><line class="d" x1="442.6" y1="352.33" x2="422.16" y2="416.05"/><line class="d" x1="498.9" y1="379.4" x2="477.5" y2="446.11"/><path class="d" d="M273.11,419.06c16.18-3.11,25.3-26.46,25.3-26.46s-17.11-18.31-33.3-15.2-25.3,26.45-25.3,26.45S256.92,422.16,273.11,419.06Z"/><line class="d" x1="298.41" y1="392.6" x2="366.89" y2="379.46"/><path class="d" d="M323.93,456.87c16.61-3.19,26.08-26.6,26.08-26.6S332.55,412,315.94,415.21s-26.08,26.6-26.08,26.6S307.32,460.06,323.93,456.87Z"/><line class="d" x1="350.01" y1="430.27" x2="420.3" y2="416.78"/><path class="d" d="M381.11,486.14c16.61-3.18,26.08-26.6,26.08-26.6s-17.46-18.24-34.08-15.05S347,471.09,347,471.09,364.5,489.33,381.11,486.14Z"/><line class="d" x1="407.19" y1="459.54" x2="477.48" y2="446.05"/><path class="d" d="M486.4,348.44c-5.17,16.11,10.84,35.64,10.84,35.64s24.39-6.58,29.55-22.68S516,325.75,516,325.75,491.57,332.33,486.4,348.44Z"/><path class="d" d="M455.93,517.7c16-5.44,22.19-29.93,22.19-29.93s-19.8-15.68-35.82-10.24-22.19,29.93-22.19,29.93S439.91,523.13,455.93,517.7Z"/><line class="d" x1="478.12" y1="487.77" x2="545.89" y2="464.77"/><path class="e" d="M405.35,800.91l-21.54-2.07s1.86-16.6,16.65-23.14l17,10C414.73,798.73,405.35,800.91,405.35,800.91Z"/><path class="f" d="M398.93,690.12c18.34,15.42,28.49,38.1,28.49,38.1h0l-27.6,47.89,18.44,10.64,36.36-63.07a9.64,9.64,0,0,0,.32-9.09,114.21,114.21,0,0,1-11.11-37.84"/><path class="e" d="M104,759l-21.54-2S84.25,740.43,99,733.83l17,10C113.37,756.8,104,759,104,759Z"/><path class="f" d="M176.47,547.45c-16-4.63-34.29,9.85-45.92,50.15-9.24,32-11.53,70.58-4.08,87.49L98.5,734,117,744.59l28.58-54.16c15.28-10.47,33.82-44.22,43-76.07C200.23,574.06,192.5,552.08,176.47,547.45Z"/><path class="f" d="M166.51,389.59a62.39,62.39,0,0,1,13.62-31c19.45-23.12,56.73-30.48,56.73-30.48s5.74,30.13-13.71,53.25c-7.3,8.67-17.1,15.12-26.51,19.8"/><path class="f" d="M478.16,581.49c-7.08-24-20.38-43.69-36.34-56.51h0s-10.42-13.18-57-29.21c-24-8.27-37.67-28.79-45.26-46.73-1.58-10-9.54-30.6-9.54-30.6-8.69-17.65-22.34-31.82-40.27-39.89a78.66,78.66,0,0,0-22.39-6.31,18.57,18.57,0,0,0-2.91-.68c-19-3.05-26.31-13.05-26.31-13.05A36.48,36.48,0,0,0,195.91,341h0c-47.55,4.51-64.19,45.84-89.15,45.84-84.83,0-95.95,8.66-95.95,8.66l4.89,30.3s2.23,1,6.12,2.58h0c-7.55,6.91,47.43,56,93.26,73.49,40.26,15.39,6.18,126.85,186,192.47,49.94,18.23,100,13.57,131.4-2a49.52,49.52,0,0,0,6.17-1.41C475.13,680.24,492.83,631.21,478.16,581.49Z"/><path class="a" d="M82.65,449.76c7.76-17.24,34-22.24,58.6-11.16s38.24,34,30.47,51.28-34,22.25-58.6,11.17-38.24-34-30.47-51.29"/><path class="f" d="M14,410.43c1.44,10.08,3.51,19.62-1.32,17.74-5.21-2-4.39-8-5.83-18.12s-5.14-15.36-.73-18.15C10.69,389,12.57,400.35,14,410.43Z"/><path class="g" d="M151.62,770.35H130s.26-16.7,14.35-24.62l17.84,8.37C160.74,767.28,151.62,770.35,151.62,770.35Z"/><path class="h" d="M171,580.06a138.91,138.91,0,0,0-7.8,27.11c-6.26,32.68-5,71.34,4,87.5L143.85,746l19.37,8.82,23.5-56.55c13.32-11,27.6-42.58,34.51-73.22"/><path class="a" d="M15.71,425.83s34.41,15.48,69.09,20.11"/><polyline class="a" points="64.71 442.17 79.15 424.57 82.03 445.55"/><path class="g" d="M454,811.71H432.37s.26-16.71,14.35-24.63l17.84,8.38C463.13,808.64,454,811.71,454,811.71Z"/><path class="h" d="M373.25,668.73c9.69,10.11,20.83,17.47,32.41,21.33,1.13.7,9.27,2.34,11.27,2.6,31.16,7.7,52.1,44.59,52.1,44.59h0l-22.9,50.31,19.37,8.82,30.17-66.25a9.7,9.7,0,0,0-.54-9.09,113.78,113.78,0,0,1-16.23-74.16"/><path class="f" d="M190.07,397.53a62.43,62.43,0,0,1,13.62-31C223.15,343.4,260.43,336,260.43,336s5.74,30.13-13.72,53.25c-7.3,8.67-17.1,15.13-26.5,19.81"/><path class="e" d="M141.06,401.4c-.25.44-.48.89-.71,1.36-3.74,7.54-4.37,14.85-1.41,16.32s8.4-3.46,12.14-11a32.65,32.65,0,0,0,3.07-9.22Z"/><path class="i" d="M458.59,542.34s50.9,30.9,57.22,88.69"/><path class="i" d="M458.59,542.34s55.55,27.95,62.45,80.2"/><path class="i" d="M460.17,543.34s38.29,30.9,43.05,88.68"/><path class="j" d="M412.07,563.63a14.11,14.11,0,0,0-4.42-5,13.82,13.82,0,0,0-6.45-2.71"/><path class="j" d="M419.42,557.69a19.39,19.39,0,0,0-6-6.86,19,19,0,0,0-8.8-3.7"/><path class="j" d="M427.49,553.53a27.93,27.93,0,0,0-8.73-9.92A27.48,27.48,0,0,0,406,538.25"/><path class="j" d="M434.72,548.62A34.38,34.38,0,0,0,424,536.48a33.8,33.8,0,0,0-15.6-6.56"/><path class="j" d="M440.79,543.83a38.84,38.84,0,0,0-12.07-13.72c-5.9-4.3-12.22-6.82-17.61-7.39"/><path class="j" d="M371.52,540.78a14.17,14.17,0,0,0-5.71-3.49,13.91,13.91,0,0,0-7-.68"/><path class="j" d="M376.78,532.92a19.51,19.51,0,0,0-7.8-4.76,19,19,0,0,0-9.51-.92"/><path class="j" d="M383.25,526.56A28,28,0,0,0,372,519.67a27.55,27.55,0,0,0-13.76-1.34"/><path class="j" d="M388.7,519.73a34.32,34.32,0,0,0-13.8-8.43,33.73,33.73,0,0,0-16.84-1.64"/><path class="j" d="M393.08,513.35a38.83,38.83,0,0,0-15.59-9.52c-6.91-2.36-13.69-2.89-19-1.85"/><path class="j" d="M318.15,505.76a14.22,14.22,0,0,0-3.49-5.71,14,14,0,0,0-5.89-3.78"/><path class="j" d="M326.41,501.17a19.38,19.38,0,0,0-4.77-7.79,19,19,0,0,0-8-5.16"/><path class="j" d="M335.07,498.46a28.08,28.08,0,0,0-6.89-11.27,27.38,27.38,0,0,0-11.63-7.47"/><path class="j" d="M343,494.87a34.51,34.51,0,0,0-8.44-13.8,33.68,33.68,0,0,0-14.24-9.14"/><path class="j" d="M349.84,491.2a38.78,38.78,0,0,0-9.52-15.59c-5.08-5.25-10.87-8.82-16.08-10.32"/><path class="j" d="M290.51,451.48a14.23,14.23,0,0,0-1.91-6.41,13.93,13.93,0,0,0-4.72-5.17"/><path class="j" d="M299.67,449.16a19.25,19.25,0,0,0-2.61-8.75,18.88,18.88,0,0,0-6.44-7.05"/><path class="j" d="M308.74,448.77A28,28,0,0,0,305,436.1a27.45,27.45,0,0,0-9.33-10.2"/><path class="j" d="M317.36,447.34a34.26,34.26,0,0,0-4.62-15.5,33.7,33.7,0,0,0-11.41-12.49"/><path class="j" d="M324.88,445.53a38.73,38.73,0,0,0-5.21-17.5c-3.56-6.38-8.24-11.32-12.89-14.1"/><path class="c" d="M271.22,379.66a28.87,28.87,0,0,1,11.71-6.06,40.87,40.87,0,0,1,13.12-1.43A40.25,40.25,0,0,1,309,374.89a31.49,31.49,0,0,1,11.1,7.09c-2.3,0-4.37-.29-6.47-.43s-4.09-.44-6.11-.54c-4-.42-7.91-.63-11.83-.85s-7.85-.31-11.87-.35S275.69,379.76,271.22,379.66Z"/><path class="c" d="M260.16,376.51a26.2,26.2,0,0,1,4.81-5.26c.89-.78,1.84-1.47,2.79-2.18s2-1.3,3-1.93A44.68,44.68,0,0,1,284,362.05c1.18-.21,2.34-.5,3.54-.61s2.39-.23,3.58-.31,2.4,0,3.6.06l1.79.08,1.79.28c1.18.19,2.36.39,3.52.66s2.29.72,3.41,1.12c.56.21,1.12.38,1.66.64s1.08.54,1.6.83a32.56,32.56,0,0,1,3,1.85c-4.82.56-9.11.54-13.39,1.19l-1.58.15-1.58.25c-1.05.19-2.1.25-3.14.45-2.07.4-4.15.69-6.2,1.18-4.12.87-8.25,1.88-12.44,3S264.78,375.31,260.16,376.51Z"/><path class="c" d="M307.68,401.25a23,23,0,0,1,12.38-2.63,32.63,32.63,0,0,1,12.42,3c1,.42,1.9,1,2.85,1.49l1.38.82c.45.28.88.6,1.31.92.85.65,1.72,1.27,2.53,1.95s1.54,1.47,2.28,2.23a17,17,0,0,1,2.07,2.4c.64.84,1.24,1.71,1.82,2.58a20.25,20.25,0,0,1,1.49,2.8,25.19,25.19,0,0,1,1.18,3,56.05,56.05,0,0,1-5.42-3c-.87-.47-1.73-.95-2.55-1.44-.42-.24-.81-.51-1.22-.74s-.86-.43-1.27-.67c-.83-.45-1.64-.91-2.43-1.39s-1.65-.84-2.47-1.27c-.41-.2-.79-.45-1.2-.65l-1.25-.58c-.82-.38-1.6-.86-2.45-1.19A109.27,109.27,0,0,0,319,404.79c-1.76-.65-3.57-1.2-5.43-1.82S309.75,401.83,307.68,401.25Z"/><path class="c" d="M299.09,393.91a22.49,22.49,0,0,1,5.33-4.16,33.47,33.47,0,0,1,6.16-2.78,35.26,35.26,0,0,1,13.54-1.71,31.19,31.19,0,0,1,13.24,3.95,24.64,24.64,0,0,1,9.59,9.54c-4.33-1.45-8.13-2.83-12-3.73a70.48,70.48,0,0,0-11.43-1.78,98.13,98.13,0,0,0-11.78-.11C307.72,393.29,303.61,393.63,299.09,393.91Z"/><path class="c" d="M332.83,431.85a23,23,0,0,1,12.38-2.63,32.63,32.63,0,0,1,12.42,3c1,.42,1.9,1,2.85,1.49l1.38.82c.45.28.89.6,1.31.92.86.65,1.72,1.27,2.54,1.95s1.53,1.47,2.27,2.23a17,17,0,0,1,2.07,2.4c.64.84,1.24,1.71,1.83,2.58a21.33,21.33,0,0,1,1.48,2.8,27.12,27.12,0,0,1,1.19,2.95,56.25,56.25,0,0,1-5.43-2.95q-1.31-.7-2.55-1.44c-.42-.24-.8-.51-1.22-.74s-.86-.43-1.27-.67c-.83-.45-1.64-.91-2.43-1.39s-1.65-.84-2.47-1.27c-.41-.2-.79-.45-1.2-.65l-1.24-.58c-.83-.38-1.61-.86-2.46-1.19a109.27,109.27,0,0,0-10.18-4.12c-1.76-.65-3.56-1.2-5.43-1.82S334.9,432.43,332.83,431.85Z"/><path class="c" d="M324.24,424.52a22.28,22.28,0,0,1,5.33-4.17,33.78,33.78,0,0,1,6.16-2.78,35.26,35.26,0,0,1,13.54-1.71,31.15,31.15,0,0,1,13.24,3.95,24.57,24.57,0,0,1,9.59,9.54c-4.32-1.45-8.13-2.83-12-3.73a70.31,70.31,0,0,0-11.43-1.78,98,98,0,0,0-11.77-.11C332.87,423.89,328.76,424.23,324.24,424.52Z"/><path class="c" d="M23.89,408a13.57,13.57,0,0,1,5.77-6.75,19.13,19.13,0,0,1,8.42-2.84,18.56,18.56,0,0,1,2.24-.07,11.85,11.85,0,0,1,2.22.16c.73.1,1.46.23,2.19.38s1.41.45,2.1.69a17.89,17.89,0,0,1,3.9,2,13.59,13.59,0,0,1,1.71,1.44,14.61,14.61,0,0,1,1.52,1.7,30.79,30.79,0,0,1-4.28.65c-1.35.23-2.6.2-3.83.39-.62.05-1.22.1-1.81.12s-1.18.14-1.76.18a16.35,16.35,0,0,0-1.73.15c-.57.07-1.15,0-1.71.14-2.28.18-4.54.46-7,.73Z"/><path class="c" d="M22.09,401a13.58,13.58,0,0,1,.29-4.82A20.27,20.27,0,0,1,24,391.71a21.69,21.69,0,0,1,6-7.39,18.82,18.82,0,0,1,8.93-3.92c.82-.11,1.63-.2,2.44-.23s1.65.12,2.45.22a9.4,9.4,0,0,1,1.18.21c.4.12.79.24,1.18.38a14.24,14.24,0,0,1,2.22,1c-2.86,1.8-5.27,2.85-7.41,4.36a74,74,0,0,0-6.08,4.29c-1.94,1.53-3.9,3.13-6,4.87S24.75,399.05,22.09,401Z"/><path class="c" d="M22.09,411.27a13.57,13.57,0,0,1,7.69-4.46,19,19,0,0,1,8.88.13,16.41,16.41,0,0,1,2.13.67,12.73,12.73,0,0,1,2,.89c.66.34,1.31.71,1.94,1.09s1.18.89,1.75,1.35a17.61,17.61,0,0,1,3,3.22,12.72,12.72,0,0,1,1.14,1.93,13,13,0,0,1,.86,2.1,29.49,29.49,0,0,1-4.25-.81c-1.35-.23-2.51-.67-3.74-.91-.6-.15-1.18-.3-1.75-.48s-1.16-.26-1.72-.42a16.55,16.55,0,0,0-1.68-.43c-.56-.13-1.1-.34-1.66-.44-2.21-.58-4.43-1.07-6.79-1.62Z"/><path class="a" d="M45.62,768.43c13.44,27.22,39.3,77.47,76.49,130.49"/><path class="b" d="M44,772.27c-8.23,0-18-12.32-23-23.91-2.79-6.44-3.91-12.16-3.33-17,.64-5.18,3.25-9,7.38-10.81a11.65,11.65,0,0,1,4.61-1c7,0,13.76,6.19,18.45,17,5.1,11.76,8.34,31-.91,35a8,8,0,0,1-3.16.64Z"/><path class="c" d="M29.65,723.61c4.89,0,10.46,4.63,14.78,14.58,5.23,12.07,6.63,27.4,1.17,29.77a3.93,3.93,0,0,1-1.57.31c-5.68,0-14.6-10.51-19.37-21.51-5.24-12.07-3.49-20.15,2-22.52a7.54,7.54,0,0,1,3-.63m0-8a15.58,15.58,0,0,0-6.2,1.29C15.5,720.35,9.13,731.07,17.32,750a66.94,66.94,0,0,0,10.69,17c5.47,6.19,10.86,9.33,16,9.33a12,12,0,0,0,4.75-1c12.55-5.45,8.49-27.61,3-40.3-5.35-12.32-13.41-19.39-22.12-19.39Z"/><path class="b" d="M35.68,830.41a57.35,57.35,0,0,1-13.94-1.78C12,826.14,1.6,819.77,4.1,810.05c1.46-5.7,7-9.1,14.86-9.1a39,39,0,0,1,9.56,1.33,54.85,54.85,0,0,1,16.83,7.49c7.68,5.3,8.39,9.92,7.64,12.85-1.29,5-7.44,7.79-17.31,7.79Z"/><path class="c" d="M19,805a35.06,35.06,0,0,1,8.56,1.2c11.36,2.93,22.91,10.34,21.59,15.48-.82,3.21-6.51,4.78-13.43,4.78a53.33,53.33,0,0,1-12.94-1.65C11.38,821.84,6.65,816.18,8,811c1-3.68,4.74-6.09,11-6.09m0-8C4.46,797,1,806.21.22,809.05c-1.38,5.39.34,11,4.74,15.36,3.64,3.61,9,6.34,15.79,8.1a61.91,61.91,0,0,0,14.93,1.9c16,0,20.14-6.76,21.18-10.79,1.94-7.55-4-13.49-9.24-17.14a58.79,58.79,0,0,0-18.1-8.07A42.71,42.71,0,0,0,19,797Z"/><path class="b" d="M54.16,873.56a57.23,57.23,0,0,1-13.94-1.78c-9.7-2.49-20.15-8.86-17.65-18.58,1.47-5.7,7-9.1,14.87-9.1A39,39,0,0,1,47,845.43a54.69,54.69,0,0,1,16.82,7.49c7.69,5.3,8.4,9.92,7.64,12.85-1.29,5-7.43,7.79-17.3,7.79Z"/><path class="c" d="M37.44,848.1A35.06,35.06,0,0,1,46,849.3c11.36,2.93,22.91,10.34,21.59,15.48-.83,3.21-6.51,4.78-13.43,4.78a53.33,53.33,0,0,1-12.94-1.65c-11.37-2.92-16.09-8.58-14.77-13.72.95-3.68,4.74-6.09,11-6.09m0-8c-14.5,0-18,9.26-18.74,12.1-2,7.86,2.14,18.73,20.52,23.46a62,62,0,0,0,14.94,1.9c16,0,20.14-6.76,21.18-10.79,1.94-7.55-4-13.49-9.24-17.14A58.85,58.85,0,0,0,48,841.56a42.58,42.58,0,0,0-10.55-1.46Z"/><path class="b" d="M84.35,917.76A57.84,57.84,0,0,1,70.41,916c-6.13-1.58-10.83-4-14-7.06-3.41-3.39-4.72-7.49-3.68-11.53,1.47-5.69,7-9.09,14.87-9.09a38.45,38.45,0,0,1,9.55,1.33A54.74,54.74,0,0,1,94,897.13c7.68,5.3,8.39,9.91,7.64,12.85-1.29,5-7.44,7.78-17.31,7.78Z"/><path class="c" d="M67.64,892.31a34.7,34.7,0,0,1,8.56,1.2c11.36,2.93,22.91,10.34,21.59,15.47-.83,3.22-6.51,4.78-13.44,4.78a53.31,53.31,0,0,1-12.94-1.64c-11.36-2.93-16.09-8.58-14.77-13.72,1-3.68,4.74-6.09,11-6.09m0-8c-14.5,0-18,9.26-18.74,12.1-1.39,5.39.34,11,4.73,15.35,3.64,3.62,8.95,6.35,15.79,8.1a61.42,61.42,0,0,0,14.93,1.9c16,0,20.15-6.75,21.18-10.78,2-7.56-4-13.49-9.24-17.15a58.9,58.9,0,0,0-18.1-8.06,42.71,42.71,0,0,0-10.55-1.46Z"/><path class="b" d="M144.37,890.18a7.39,7.39,0,0,1-3.44-.81c-2.71-1.37-5.7-5-4.61-14.22a54.86,54.86,0,0,1,5.49-17.58c4.71-9.27,10.77-14.38,17.08-14.38a10.81,10.81,0,0,1,4.89,1.17c5.59,2.84,9.55,11.23,2.3,25.53-6.69,13.18-16.18,20.29-21.71,20.29Z"/><path class="c" d="M158.89,847.19a6.72,6.72,0,0,1,3.08.74c4.73,2.4,5.85,9.69.54,20.15-4.76,9.36-13.06,18.1-18.14,18.1a3.55,3.55,0,0,1-1.63-.37c-4.73-2.4-2.67-16,2.64-26.43,4.23-8.34,9.25-12.19,13.51-12.19m0-8c-4.57,0-13.33,2.16-20.64,16.57a58.78,58.78,0,0,0-5.9,18.92c-.75,6.38-.19,14.73,6.76,18.26a11.54,11.54,0,0,0,5.26,1.24c11,0,21.33-14.71,25.27-22.48,3.2-6.3,4.66-12.08,4.35-17.21-.38-6.18-3.44-11.17-8.4-13.69a14.61,14.61,0,0,0-6.7-1.61Z"/><path class="b" d="M114.37,846.67a7.57,7.57,0,0,1-3.44-.8c-2.71-1.37-5.7-5-4.61-14.23a54.86,54.86,0,0,1,5.49-17.58c4.71-9.27,10.78-14.37,17.08-14.37a10.65,10.65,0,0,1,4.89,1.17c5.59,2.84,9.55,11.23,2.3,25.52-6.69,13.18-16.18,20.29-21.71,20.29Z"/><path class="c" d="M128.89,803.69a6.84,6.84,0,0,1,3.08.73c4.73,2.4,5.85,9.69.54,20.15-4.75,9.37-13.06,18.1-18.14,18.1a3.55,3.55,0,0,1-1.63-.37c-4.73-2.4-2.67-16,2.64-26.43,4.24-8.34,9.25-12.18,13.51-12.18m0-8c-4.57,0-13.33,2.15-20.64,16.56a58.85,58.85,0,0,0-5.9,18.92c-.75,6.39-.19,14.74,6.77,18.27a11.46,11.46,0,0,0,5.25,1.23c11,0,21.33-14.7,25.27-22.48,8.6-16.92,3.19-27.22-4-30.9a14.73,14.73,0,0,0-6.7-1.6Z"/><path class="b" d="M85.65,807.84a7.58,7.58,0,0,1-3.45-.8c-2.7-1.37-5.7-5-4.6-14.23a54.86,54.86,0,0,1,5.49-17.58c4.71-9.27,10.77-14.37,17.08-14.37a10.64,10.64,0,0,1,4.88,1.17c3.72,1.88,5.93,5.57,6.22,10.37.27,4.4-1,9.5-3.92,15.15-6.69,13.18-16.17,20.29-21.7,20.29Z"/><path class="c" d="M100.17,764.86a6.8,6.8,0,0,1,3.07.73c4.73,2.4,5.86,9.69.55,20.15-4.76,9.37-13.06,18.1-18.14,18.1a3.62,3.62,0,0,1-1.64-.37c-4.73-2.4-2.66-16,2.65-26.43,4.23-8.34,9.25-12.18,13.51-12.18m0-8c-4.57,0-13.33,2.15-20.65,16.56a59.35,59.35,0,0,0-5.9,18.92c-.75,6.39-.18,14.74,6.77,18.27a11.53,11.53,0,0,0,5.26,1.23c11,0,21.32-14.7,25.27-22.48,3.19-6.29,4.66-12.08,4.34-17.2-.37-6.19-3.43-11.18-8.4-13.7a14.66,14.66,0,0,0-6.69-1.6Z"/><polyline class="a" points="82.27 807.25 74.72 823.11 54.01 822.45"/><polyline class="a" points="111.73 843.93 99.77 865.41 72.9 864.81"/><line class="a" x1="143.44" y1="885.97" x2="136.23" y2="898.92"/><path class="d" d="M187.49,879.13C180,892.74,191,913.2,191,913.2s23.16-1.61,30.67-15.22-3.46-34.07-3.46-34.07S195,865.52,187.49,879.13Z"/><path class="a" d="M291.75,824.17c3.92,17.88,10.21,45,19.7,76.89"/><path class="b" d="M291.23,827.76c-9.44,0-16.54-17-18.56-29-1.17-6.92-.88-12.74.85-17.28,1.86-4.87,5.32-8,9.76-8.71a11.44,11.44,0,0,1,1.93-.17c3.06,0,13.28,1.54,16.6,21.26a61,61,0,0,1,0,20.49c-1.88,10-6.1,12.76-9.3,13.3A7.59,7.59,0,0,1,291.23,827.76Z"/><path class="c" d="M285.21,776.61c5.43,0,10.63,5.88,12.65,17.92,2.18,13-.15,28.2-6,29.18a3.08,3.08,0,0,1-.61,0c-5.75,0-12.51-13.12-14.62-25.65-2.18-13,1.46-20.4,7.33-21.39a7.88,7.88,0,0,1,1.27-.11m0-8a16.29,16.29,0,0,0-2.6.22c-8.54,1.44-17.3,10.31-13.89,30.6,2.19,13,10,32.33,22.51,32.33a11.46,11.46,0,0,0,1.94-.16c8.07-1.36,11.29-9.72,12.56-16.5a65.07,65.07,0,0,0,0-21.89c-3.84-22.82-16.69-24.6-20.54-24.6Z"/><path class="b" d="M275.83,883.13c-6.16,0-14.68-2.46-21.73-6.26-5.58-3-9.57-6.44-11.86-10.21-2.49-4.11-2.78-8.4-.8-12.07s6.12-6,11.17-6c4.26,0,9.11,1.45,14.4,4.3a54.77,54.77,0,0,1,14.54,11.32c6.18,7,5.76,11.64,4.32,14.31-1.12,2.09-3.78,4.58-10,4.58Z"/><path class="c" d="M252.61,852.62c3.36,0,7.59,1.17,12.5,3.82,10.33,5.57,19.76,15.54,17.24,20.21-.92,1.72-3.33,2.48-6.52,2.48-5.5,0-13.3-2.26-19.83-5.78-10.33-5.57-13.56-12.19-11-16.86,1.32-2.45,4-3.87,7.65-3.87m0-8c-6.57,0-11.92,2.94-14.69,8.07-2.64,4.9-2.31,10.75.91,16,2.66,4.38,7.16,8.3,13.37,11.65,7.7,4.16,16.76,6.74,23.63,6.74,8.23,0,11.92-3.63,13.56-6.68,3.7-6.87-.59-14.05-4.85-18.86a58.78,58.78,0,0,0-15.63-12.19c-5.88-3.17-11.37-4.78-16.3-4.78Z"/><path class="b" d="M283.39,929.45c-6.15,0-14.68-2.45-21.73-6.25-5.58-3-9.56-6.44-11.85-10.21-2.5-4.12-2.79-8.4-.81-12.07s6.12-6,11.17-6c4.26,0,9.11,1.44,14.41,4.3a54.85,54.85,0,0,1,14.53,11.31c6.18,7,5.76,11.65,4.32,14.32-1.12,2.08-3.78,4.57-10,4.57Z"/><path class="c" d="M260.17,898.94c3.36,0,7.59,1.18,12.51,3.83,10.32,5.57,19.75,15.54,17.23,20.21-.92,1.71-3.33,2.47-6.52,2.47-5.49,0-13.3-2.25-19.83-5.77-10.33-5.57-13.55-12.2-11-16.86,1.32-2.45,4-3.88,7.65-3.88m0-8c-6.57,0-11.92,2.95-14.69,8.08-3.85,7.15-2.43,18.69,14.28,27.7,7.71,4.15,16.76,6.73,23.63,6.73,8.23,0,11.92-3.63,13.57-6.68,3.7-6.86-.6-14-4.85-18.86a58.76,58.76,0,0,0-15.64-12.18c-5.88-3.18-11.37-4.79-16.3-4.79Z"/><path class="b" d="M342,916.92a8.07,8.07,0,0,1-5.43-1.88c-2.29-2-4.33-6.17-1-14.91A55,55,0,0,1,345,884.38c5.76-6.66,11.71-10.18,17.22-10.18a11,11,0,0,1,7.28,2.64c4.74,4.11,6.57,13.2-3.91,25.33-6.33,7.33-16.49,14.75-23.67,14.75Z"/><path class="c" d="M362.25,878.2a7,7,0,0,1,4.66,1.67c4,3.47,3.35,10.81-4.31,19.69-6.31,7.29-15.39,13.36-20.65,13.36a4.2,4.2,0,0,1-2.81-.9c-4-3.47,1.25-16.14,8.92-25,5.25-6.08,10.26-8.8,14.19-8.8m0-8c-4.67,0-12,2-20.24,11.57a58.73,58.73,0,0,0-10.28,17c-2.26,6-3.72,14.25,2.18,19.35a12,12,0,0,0,8,2.85c8.82,0,19.76-8.1,26.7-16.13,4.61-5.34,7.42-10.61,8.35-15.66,1.12-6.09-.65-11.67-4.86-15.31a14.89,14.89,0,0,0-9.89-3.62Z"/><path class="b" d="M323.4,872.32a8.07,8.07,0,0,1-5.42-1.87c-2.3-2-4.34-6.18-1.05-14.92a54.57,54.57,0,0,1,9.55-15.74c5.76-6.67,11.72-10.19,17.23-10.19a11,11,0,0,1,7.27,2.65c3.15,2.72,4.41,6.83,3.54,11.56-.8,4.34-3.3,9-7.45,13.77-6.33,7.32-16.49,14.74-23.67,14.74Z"/><path class="c" d="M343.71,833.6a6.94,6.94,0,0,1,4.65,1.67c4,3.47,3.36,10.81-4.31,19.69-6.31,7.3-15.39,13.36-20.65,13.36a4.15,4.15,0,0,1-2.81-.9c-4-3.47,1.25-16.14,8.92-25,5.25-6.08,10.27-8.8,14.2-8.8m0-8c-4.68,0-12,2-20.25,11.57a59.08,59.08,0,0,0-10.28,17c-2.26,6-3.72,14.26,2.18,19.35a12,12,0,0,0,8,2.85c8.82,0,19.76-8.1,26.7-16.13,12.41-14.36,9.64-25.66,3.49-31a14.88,14.88,0,0,0-9.88-3.62Z"/><polyline class="a" points="317.99 870.67 306.86 884.25 286.91 878.63"/><rect class="k" x="218.67" y="-6.46" width="217.96" height="47.4"/><path class="k" d="M309.52,46.82c3.6,0,6.51,2.31,6.51,5.16,0,4.07-4.16,7.37-9.31,7.37-7.34,0-13.3-4.71-13.3-10.53,0-8.3,8.51-15,19-15,15,0,27.15,18.77,27.15,35.49,0,17-17.36,16.69-38.78,16.69H87.54V-14.9s154.27-.37,159.64,37.63c27.84-10.29,50.14,3.79,53.3,11.05"/><path class="k" d="M356.06,36.82c-3.6,0-6.52,2.31-6.52,5.16,0,4.07,4.17,7.37,9.31,7.37,7.35,0,13.3-4.71,13.3-10.53,0-8.3-8.51-15-19-15-15,0-27.15,18.77-27.15,35.49C326,76.22,343.37,76,364.78,76H518V-14.9s-69.18-4.91-84.75,21c-27-3.13-57.23,3.86-68.2,17.7"/><path class="k" d="M351.86,112.89c-3.6,0-6.52,2.31-6.52,5.15,0,4.07,4.17,7.37,9.32,7.37,7.34,0,13.3-4.71,13.3-10.52,0-8.31-8.51-15-19-15-15,0-27.14,18.77-27.14,35.48,0,16.95,17.36,16.69,38.78,16.69H513.84V31.16s-72-9.7-72,36.56c-39.53,0-76.3,15-80.94,32.13"/><path class="k" d="M421.54,140c-3.6,0-6.51,2.31-6.51,5.15,0,4.07,4.16,7.37,9.31,7.37,7.34,0,13.3-4.71,13.3-10.52,0-8.31-8.51-15-19-15-15,0-27.15,18.77-27.15,35.48,0,17,17.36,16.69,38.78,16.69h84.25V108.25"/><path class="k" d="M478,97.16c-2.45,0-4.44,1.58-4.44,3.52,0,2.77,2.84,5,6.35,5,5,0,9.06-3.21,9.06-7.17,0-5.66-5.8-10.25-12.95-10.25-10.22,0-18.5,12.79-18.5,24.18,0,11.55,11.83,11.38,26.43,11.38h29.48V75.54s-29.27-3.24-29.27,12.74"/><path class="k" d="M462.56,188.83c-3.6,0-6.52,2.3-6.52,5.15,0,4.07,4.17,7.37,9.31,7.37,7.35,0,13.31-4.71,13.31-10.52,0-8.31-8.51-15-19-15-15,0-27.14,18.77-27.14,35.48,0,16.95,17.36,16.69,38.78,16.69h43.25V157.1s-42.94-4.75-42.94,18.69"/><path class="k" d="M187.27,96.13c3.6,0,6.52,2.31,6.52,5.15,0,4.07-4.17,7.37-9.31,7.37-7.35,0-13.3-4.71-13.3-10.52,0-8.31,8.5-15,19-15,15,0,27.15,18.77,27.15,35.48,0,17-17.37,16.69-38.78,16.69H-4.71V64.4s173-35.13,182.94,18.69"/><path class="k" d="M129.88,33.8c3.6,0,6.52,2.31,6.52,5.16,0,4.07-4.17,7.37-9.31,7.37-7.35,0-13.31-4.71-13.31-10.53,0-8.3,8.51-15,19-15,15,0,27.14,18.77,27.14,35.49,0,17-17.36,16.69-38.78,16.69H-7.1V-7.92S113-4.63,120.84,20.76"/><path class="k" d="M64.38,52.43c3.6,0,6.52,2.31,6.52,5.16,0,4.07-4.17,7.37-9.31,7.37-7.35,0-13.3-4.72-13.3-10.53,0-8.31,8.51-15,19-15,15,0,27.15,18.77,27.15,35.49,0,17-17.37,16.69-38.78,16.69H-7.6V20.71"/><path class="k" d="M39,136.38c3.6,0,6.52,2.31,6.52,5.16,0,4.07-4.17,7.36-9.32,7.36-7.34,0-13.3-4.71-13.3-10.52,0-8.31,8.51-15,19-15,15,0,27.14,18.77,27.14,35.48,0,17-17.36,16.69-38.78,16.69H-13V104.65s42.94-4.75,42.94,18.69"/></svg>