<svg xmlns="http://www.w3.org/2000/svg" width="510" height="900" viewBox="0 0 510 900"><defs><style>.a{fill:#56634a;}.a,.b,.c{stroke:#432d1e;stroke-miterlimit:10;stroke-width:8px;}.b{fill:#f7a859;}.c{fill:#bd645d;}.d{fill:#432d1e;}</style></defs><title>81</title><path class="a" d="M510,594.44c-68-43.8-157.28-70.36-255-70.36S68,550.64,0,594.44V900H510Z"/><path class="a" d="M90.6,591.85A523.44,523.44,0,0,0,0,599.67V900H475.48A211.15,211.15,0,0,0,477,874.76C477,718.51,304,591.85,90.6,591.85Z"/><path class="a" d="M510,617.16c-2.9,0-5.8-.08-8.72-.08-213.4,0-386.39,126.67-386.39,282.92H510Z"/><path class="a" d="M0,680V900H266.15C240.49,795.45,136.36,710.84,0,680Z"/><path class="a" d="M510,900V709.89C418.85,751.35,353,819.81,333.32,900Z"/><path class="a" d="M510,900V814.33a513,513,0,0,0-135.94-18c-120.5,0-228.11,40.39-299,103.68Z"/><path class="b" d="M81.2,366c-25.61-11-51.44-14.9-72.53-12.24C25,329.34,59.77,325,94.46,335.18c54.71,16,61,42.29,45.46,75.08C127.36,393.11,106.8,377,81.2,366Z"/><path class="b" d="M232,363.34,247,353.2l-23.19,4.19,12.36-9.32-29,3.75c-14.4-3.1-35.49-.39-57.08,8.42-26.42,10.79-45.91,27.59-50.73,42.07l-22.74,9.28a11.56,11.56,0,0,0-6.34,15.07h0A11.56,11.56,0,0,0,85.26,433L108,423.71c13.58,7,39.26,5.33,65.68-5.46,23.59-9.63,41.65-24.05,48.69-37.33l25.75-18.64Z"/><path class="c" d="M53.55,409.68c-7.31,3-23.59,15.86-28.79,26.79L1.65,456.8,34.55,455c8,2.77,18.94,2.22,29.78-2.21,17.86-7.29,28.61-22.32,24-33.57S71.41,402.39,53.55,409.68Z"/><ellipse class="d" cx="55.12" cy="429.95" rx="3.45" ry="5.75" transform="translate(-158.4 52.72) rotate(-22.21)"/><path class="b" d="M216.76,423.36c27.38,13.5,49.05,32.09,62,51.25,8.3-30.13-13-61.69-46.21-83.23-42.78-27.74-75.31-10.94-94.16,14C161.44,404,189.37,409.85,216.76,423.36Z"/><path class="b" d="M316.4,202c-25.61-11-51.44-14.89-72.53-12.24,16.35-24.39,51.1-28.72,85.79-18.56,54.71,16,61,42.3,45.46,75.09C362.56,229.09,342,213,316.4,202Z"/><path class="b" d="M467.22,199.32l14.94-10.14L459,193.37,471.33,184l-29.05,3.76c-14.4-3.1-35.49-.39-57.08,8.42-26.42,10.79-45.91,27.59-50.73,42.06l-22.74,9.29a11.56,11.56,0,0,0-6.34,15.07h0A11.56,11.56,0,0,0,320.46,269l22.74-9.29c13.58,7,39.26,5.34,65.68-5.45,23.59-9.63,41.65-24,48.69-37.33l25.75-18.64Z"/><path class="c" d="M288.75,245.66c-7.31,3-23.59,15.86-28.79,26.79l-23.11,20.33,32.9-1.77c8,2.76,18.94,2.22,29.78-2.21,17.86-7.29,28.61-22.32,24-33.58S306.61,238.37,288.75,245.66Z"/><ellipse class="d" cx="290.32" cy="265.93" rx="3.45" ry="5.75" transform="translate(-78.97 129.44) rotate(-22.21)"/><path class="b" d="M452,259.33c27.38,13.51,49.05,32.1,62,51.26,8.3-30.14-13-61.69-46.21-83.23-42.78-27.74-75.31-10.94-94.16,14C396.64,240,424.57,245.82,452,259.33Z"/><path class="b" d="M81.2,37.93C55.59,26.9,29.76,23,8.67,25.69,25,1.29,59.77-3,94.46,7.13c54.71,16,61,42.3,45.46,75.09C127.36,65.07,106.8,49,81.2,37.93Z"/><path class="b" d="M232,35.29,247,25.15l-23.19,4.2L236.13,20l-29,3.76c-14.4-3.1-35.49-.39-57.08,8.42C123.58,43,104.09,59.79,99.27,74.26L76.53,83.55a11.55,11.55,0,0,0-6.34,15.06h0A11.57,11.57,0,0,0,85.26,105L108,95.66c13.58,7,39.26,5.33,65.68-5.45,23.59-9.63,41.65-24,48.69-37.33l25.75-18.64Z"/><path class="c" d="M53.55,81.64c-7.31,3-23.59,15.86-28.79,26.79L1.65,128.75,34.55,127c8,2.76,18.94,2.21,29.78-2.21,17.86-7.29,28.61-22.32,24-33.58S71.41,74.35,53.55,81.64Z"/><ellipse class="d" cx="55.12" cy="101.9" rx="3.45" ry="5.75" transform="translate(-34.42 28.39) rotate(-22.21)"/><path class="b" d="M216.76,95.31c27.38,13.51,49.05,32.1,62,51.25,8.3-30.13-13-61.69-46.21-83.22-42.78-27.75-75.31-10.94-94.16,14C161.44,75.92,189.37,81.8,216.76,95.31Z"/></svg>