<svg xmlns="http://www.w3.org/2000/svg" width="510" height="900" viewBox="0 0 510 900"><defs><style>.a{fill:#56634a;stroke:#432d1e;stroke-miterlimit:10;stroke-width:8px;}</style></defs><title>82</title><path class="a" d="M510,594.44c-68-43.8-157.28-70.36-255-70.36S68,550.64,0,594.44V900H510Z"/><path class="a" d="M90.6,591.85A523.44,523.44,0,0,0,0,599.67V900H475.48A211.15,211.15,0,0,0,477,874.76C477,718.51,304,591.85,90.6,591.85Z"/><path class="a" d="M510,617.16c-2.9,0-5.8-.08-8.72-.08-213.4,0-386.39,126.67-386.39,282.92H510Z"/><path class="a" d="M0,680V900H266.15C240.49,795.45,136.36,710.84,0,680Z"/><path class="a" d="M510,900V709.89C418.85,751.35,353,819.81,333.32,900Z"/><path class="a" d="M510,900V814.33a513,513,0,0,0-135.94-18c-120.5,0-228.11,40.39-299,103.68Z"/></svg>