<svg xmlns="http://www.w3.org/2000/svg" width="510" height="900" viewBox="0 0 510 900"><defs><style>.a,.d{fill:#56634a;}.b,.c,.g{fill:none;}.b,.c,.d,.e,.f,.g{stroke:#432d1e;}.b,.c,.d,.g{stroke-miterlimit:10;}.b,.d,.e,.f{stroke-width:8px;}.c,.e,.f,.g{stroke-linecap:round;}.c{stroke-width:4px;}.e,.j{fill:#ffdc82;}.e,.f{stroke-linejoin:round;}.f,.h{fill:#e37f49;}.g{stroke-width:5px;}.i{fill:#432d1e;}</style></defs><title>92</title><path class="a" d="M-10.37,143c7.35-12.15,13.28,1.79,29.83,3.71,8.34,1,18.72-1.14,28.57,2,8.58,2.73,15.73,10.11,24.16,15.29C81,169.4,91,173.39,97,180.84c6.75,8.29,8.56,19.33,12.44,27.46,7.4,15.48,22.29,16.28,13.53,28.42-7.92,11-11.72-4.64-27.32-9.49-7.52-2.34-17.6-1.71-26.75-5.78-7.77-3.45-14-11.13-22.12-16.09-8.37-5.13-18.16-8-24.53-14.21-7.36-7.18-10.37-17.24-15.16-24C-2.46,153.61-17.64,155-10.37,143Z"/><path class="b" d="M-10.37,143c7.35-12.15,13.28,1.79,29.83,3.71,8.34,1,18.72-1.14,28.57,2,8.58,2.73,15.73,10.11,24.16,15.29C81,169.4,91,173.39,97,180.84c6.75,8.29,8.56,19.33,12.44,27.46,7.4,15.48,22.29,16.28,13.53,28.42-7.92,11-11.72-4.64-27.32-9.49-7.52-2.34-17.6-1.71-26.75-5.78-7.77-3.45-14-11.13-22.12-16.09-8.37-5.13-18.16-8-24.53-14.21-7.36-7.18-10.37-17.24-15.16-24C-2.46,153.61-17.64,155-10.37,143Z"/><path class="c" d="M107.9,223s-31.47-37.1-97.05-69.08"/><path class="c" d="M66.82,187.09s-11.25,1-27.74-3.22"/><path class="c" d="M66.78,187.15S65,178,56.91,166.47"/><path class="c" d="M94.41,208.12S93.19,201.19,88,192"/><path class="c" d="M40.51,169.94s-8.41,1.22-21-1.31"/><path class="c" d="M40.51,169.94s-2.71-6.5-9.85-14.35"/><path class="c" d="M94.22,208.38s-8,1.25-20-1"/><path class="a" d="M290.3,197.48c-2.8-13.92-8.27-7.49-24.49-11.28-8.17-1.91-18.29.48-28.62.1-9-.33-18.88-3.72-28.57-1.7-10.14,2.11-18,9.83-26.2,14.79-9.16,5.52-19.48,9-25.88,15.36-12.2,12.07-19.82,9.53-15.69,23.91,3.74,13,8.58,4.71,24.91,5.42,7.87.34,17-3.64,27-4.37,8.48-.62,18.08,2.17,27.36.24,9.62-2,17.32-8.93,25.42-12.63,9.35-4.26,19.54-5.79,26.34-10.54C285.48,207.28,293.08,211.27,290.3,197.48Z"/><path class="b" d="M290.3,197.48c-2.8-13.92-8.27-7.49-24.49-11.28-8.17-1.91-18.29.48-28.62.1-9-.33-18.88-3.72-28.57-1.7-10.14,2.11-18,9.83-26.2,14.79-9.16,5.52-19.48,9-25.88,15.36-12.2,12.07-19.82,9.53-15.69,23.91,3.74,13,8.58,4.71,24.91,5.42,7.87.34,17-3.64,27-4.37,8.48-.62,18.08,2.17,27.36.24,9.62-2,17.32-8.93,25.42-12.63,9.35-4.26,19.54-5.79,26.34-10.54C285.48,207.28,293.08,211.27,290.3,197.48Z"/><path class="c" d="M155.88,231.92s42.16-24.27,114.7-32.17"/><path class="c" d="M206.67,212.07s10.24,4.76,27.2,6.36"/><path class="c" d="M206.69,212.14s4.82-8,16.28-16.12"/><path class="c" d="M173.59,222.52s3.49-6.11,11.55-13"/><path class="c" d="M237.23,204.83s7.5,4,20.17,5.87"/><path class="c" d="M237.23,204.83s4.75-5.19,14.12-10.16"/><path class="c" d="M173.68,222.83s7.09,3.88,19.13,5.79"/><path class="d" d="M108.51,129l76,18.81c4.2,1,5.25,5.5,1.63,6.95,0,0-17.31,16.22-37.3,17.29a10.37,10.37,0,0,1-.66,2.21L137,234.51a18.24,18.24,0,0,0-1.34,8.7L134,313.07a23.58,23.58,0,0,0,3.15,9.75L155,412.07c8.65,14.84-2.91,14.15-2.91,14.15A10.76,10.76,0,0,1,136,422.16l-19.85-98.6,3.26-91.69,8.71-65.17v0c-16.72-10.44-24.26-32.29-24.26-32.29C101.3,131.42,104.3,128,108.51,129Z"/><path class="e" d="M38.92,156.37c9.37-26,32.84-42.41,69-43.78Q115,121.28,122.18,130C85.37,125.6,55.2,133.94,38.92,156.37Z"/><path class="e" d="M106.89,85.84c18.59,20,23.4,45.72,23.4,45.72S105,124.93,86.35,105,63,59.23,63,59.23,88.29,65.86,106.89,85.84Z"/><path class="f" d="M100.75,97.11C123.83,111.68,135,135.35,135,135.35s-26.19.05-49.27-14.52S51.49,82.58,51.49,82.58,77.68,82.53,100.75,97.11Z"/><path class="f" d="M234.07,204.65c3.84-27.39-9.28-52.83-40.6-70.89l-20.75,8.72C207.33,155.78,230.13,177.22,234.07,204.65Z"/><path class="f" d="M206.83,110.56c-25.77,9-42,29.54-42,29.54s25.51,6,51.27-3,42-29.55,42-29.55S232.59,101.56,206.83,110.56Z"/><path class="e" d="M207,123.39c-27.21,2.14-48.17,17.85-48.17,17.85s23.16,12.25,50.36,10.12,48.17-17.85,48.17-17.85S234.21,121.26,207,123.39Z"/><path class="f" d="M125,22.36c-23.94,34.88-24.22,71.45,4.58,102.9L162.93,119C126.51,93,111.27,59.24,125,22.36Z"/><path class="e" d="M94.18,31.82C82.7,65,92.88,100,127.62,130.15l28.06-5.78C115.68,99.3,92.42,67,94.18,31.82Z"/><path class="e" d="M156.74,32.37c-30.61,23.56-41.09,55.28-24.82,90.76l30.77,4C138.28,94.2,134.46,60.56,156.74,32.37Z"/><path class="e" d="M220.4,46c4.92,42-11.89,74.5-52,88.89l-26.59-21.06C186.13,107.74,215.35,85,220.4,46Z"/><path class="f" d="M243.26,68.7c-5.33,34.71-30.62,60.87-75.44,71.39L145.7,121.9C192.78,118.37,228.42,100.63,243.26,68.7Z"/><path class="e" d="M187.66,40c16.09,35.12,10.57,68.06-20.37,91.86l-29.08-10.82C175.15,103.32,194.22,75.34,187.66,40Z"/><path class="f" d="M171.18,38.74s9,85.12-10.94,99.65c-5.49,4-22.85-.3-25.84-6.39C123.48,109.82,171.18,38.74,171.18,38.74Z"/><path class="d" d="M233.85,712.35l-75.69-41.63c-4.18-2.3-8.37.53-6.51,4.41,0,0,1.88,26.1,17.28,41.91a12,12,0,0,0-1.11,2.28l-36,57.22a20.05,20.05,0,0,1-5.42,8.06l-25,22.54a25.85,25.85,0,0,1-9.84,5.55L33.45,846.26,38.9,830a20.76,20.76,0,0,1,5.7-8.79l41.63-59.83A12.54,12.54,0,0,0,88,759.3c22.66,9.65,49.71,1.27,49.71,1.27,4.71.38,5.71-5.07,1.56-8.48L64.16,690.38C60,687,55,689.12,56.37,693.73c0,0-2.24,28,11.23,48.45l0,0L26.33,808.76l-24,57.75L-2,902.36l25.16.94L26,877.11c-.08-.65-.12-1.3-.16-2a11.68,11.68,0,0,0,5.67-.79l76.56-45.31,40-41.46,41.69-59.32v0c21.35,4,43.81-8,43.81-8C237.88,719.7,238,714.65,233.85,712.35Z"/><path class="a" d="M547.08,422.64c-1.33-13.08-6.75-7.8-21.36-12.74-7.37-2.49-17-.91-26.46-2.19-8.25-1.1-17.06-5.4-26.18-4.41-9.53,1-17.35,7.73-25.38,11.57-8.93,4.26-18.91,6.32-25.38,11.59-12.32,10-18.88,7.09-16.36,20.72,2.29,12.33,7.32,5.27,22.3,7.39,7.22,1,16-2.13,25.31-1.91,7.87.19,16.48,3.92,25.21,3,9-1,16.7-7,24.49-9.65,9-3.09,18.65-3.32,25.34-7.09C542,431.35,548.4,435.6,547.08,422.64Z"/><path class="b" d="M547.08,422.64c-1.33-13.08-6.75-7.8-21.36-12.74-7.37-2.49-17-.91-26.46-2.19-8.25-1.1-17.06-5.4-26.18-4.41-9.53,1-17.35,7.73-25.38,11.57-8.93,4.26-18.91,6.32-25.38,11.59-12.32,10-18.88,7.09-16.36,20.72,2.29,12.33,7.32,5.27,22.3,7.39,7.22,1,16-2.13,25.31-1.91,7.87.19,16.48,3.92,25.21,3,9-1,16.7-7,24.49-9.65,9-3.09,18.65-3.32,25.34-7.09C542,431.35,548.4,435.6,547.08,422.64Z"/><path class="c" d="M420.27,442.34s41-18.59,108.58-19.39"/><path class="c" d="M468.85,428.59s9,5.3,24.49,8.29"/><path class="c" d="M468.86,428.66s5.16-7,16.45-13.41"/><path class="c" d="M437.43,435.26a51.9,51.9,0,0,1,11.81-11"/><path class="c" d="M497.66,424.65s6.55,4.35,18.06,7.21"/><path class="c" d="M497.66,424.65a52,52,0,0,1,13.93-8.11"/><path class="c" d="M437.48,435.55s6.2,4.21,17.12,7.05"/><path class="a" d="M274.6,346.48c7.86-10.54,12.17,3.07,27.24,6.32,7.6,1.65,17.46.34,26.25,4.12,7.66,3.28,13.44,11,20.75,16.5,7.65,5.78,16.67,10.14,21.59,17.55,5.48,8.25,5.91,18.72,8.75,26.56,5.43,14.93,19.33,17,10.18,27.45-8.29,9.41-10.44-5.56-24.39-11.43-6.72-2.83-16.19-2.88-24.26-7.45-6.86-3.88-11.78-11.76-18.79-17.06-7.25-5.48-16.22-8.78-21.53-15.07-6.14-7.28-7.78-17-11.59-23.66C281.19,357,266.82,356.92,274.6,346.48Z"/><path class="b" d="M274.6,346.48c7.86-10.54,12.17,3.07,27.24,6.32,7.6,1.65,17.46.34,26.25,4.12,7.66,3.28,13.44,11,20.75,16.5,7.65,5.78,16.67,10.14,21.59,17.55,5.48,8.25,5.91,18.72,8.75,26.56,5.43,14.93,19.33,17,10.18,27.45-8.29,9.41-10.44-5.56-24.39-11.43-6.72-2.83-16.19-2.88-24.26-7.45-6.86-3.88-11.78-11.76-18.79-17.06-7.25-5.48-16.22-8.78-21.53-15.07-6.14-7.28-7.78-17-11.59-23.66C281.19,357,266.82,356.92,274.6,346.48Z"/><path class="c" d="M376.56,430.84s-25.68-37-83.26-72.35"/><path class="c" d="M341.91,394.12s-10.46-.08-25.28-5.46"/><path class="c" d="M341.87,394.17s-.87-8.63-7.25-19.95"/><path class="c" d="M365.46,416A52.12,52.12,0,0,0,361,400.49"/><path class="c" d="M319.2,376s-7.86.38-19.2-3.08"/><path class="c" d="M319.2,376a52,52,0,0,0-7.79-14.1"/><path class="c" d="M365.26,416.18s-7.47.44-18.31-2.73"/><path class="d" d="M457,363.46,385.88,349.1c-3.93-.8-6.57,2.52-4.11,5.16,0,0,8.06,20.44,24.36,29.25a9.78,9.78,0,0,0-.32,2.1l-14.48,54.87a16.79,16.79,0,0,1-2.32,7.81L362.7,507.4a21.71,21.71,0,0,1-6.5,6.92L305.94,582c-13.11,9-3.16,13-3.16,13a10,10,0,0,0,15.11,3l55.66-74.67,33.59-78,18.51-58v0c18.12-2.11,33.09-17.42,33.09-17.42C462,368.34,460.89,364.26,457,363.46Z"/><path class="a" d="M167.85,547.9c-1.85,3.89-12,4.51-16,9.43-3.45,4.31-1.22,13.87-4.73,17.7-5.56,6.07-16.13,5.35-17.22,6.49s0,11.76-5.9,17.68c-3.72,3.73-13.43,2-17.66,5.69-4.74,4.16-4.87,14.36-8.81,16.55-9.15,5.09-21.58,1-31.29,2.62-10.59,1.79-21.29,9.39-30.59,7.2-10.65-2.51-15.77-14-21.88-21.53C9.06,603.87-.44,599.84-.7,592.87c-.25-6.72,9-12,12.55-18.71,3.06-5.84-.06-13.07,5.57-18.2-6.43-6.73-4.18-16-8.1-23-4.73-8.43-15-14.5-15.64-22.19-.78-9.35,8.51-15.28,14.53-21.57S19.9,472.78,30.34,472c8.42-.61,17.07,8.37,26.89,11.14,8.47,2.39,17.92-1.84,26.53,2.92,5-6.06,13.27-3.57,19.58-7.23,6.79-3.95,11.68-13.84,19-14.55,7.56-.74,13.85,8,20.88,11.22,8.84,4.06,20.84,5.42,25.27,13.91,4.2,8-1.26,19.25-1.54,29.21C166.69,527.65,172.13,538.85,167.85,547.9Z"/><path class="b" d="M167.85,547.9c-1.85,3.89-12,4.51-16,9.43-3.45,4.31-1.22,13.87-4.73,17.7-5.56,6.07-16.13,5.35-17.22,6.49s0,11.76-5.9,17.68c-3.72,3.73-13.43,2-17.66,5.69-4.74,4.16-4.87,14.36-8.81,16.55-9.15,5.09-21.58,1-31.29,2.62-10.59,1.79-21.29,9.39-30.59,7.2-10.65-2.51-15.77-14-21.88-21.53C9.06,603.87-.44,599.84-.7,592.87c-.25-6.72,9-12,12.55-18.71,3.06-5.84-.06-13.07,5.57-18.2-6.43-6.73-4.18-16-8.1-23-4.73-8.43-15-14.5-15.64-22.19-.78-9.35,8.51-15.28,14.53-21.57S19.9,472.78,30.34,472c8.42-.61,17.07,8.37,26.89,11.14,8.47,2.39,17.92-1.84,26.53,2.92,5-6.06,13.27-3.57,19.58-7.23,6.79-3.95,11.68-13.84,19-14.55,7.56-.74,13.85,8,20.88,11.22,8.84,4.06,20.84,5.42,25.27,13.91,4.2,8-1.26,19.25-1.54,29.21C166.69,527.65,172.13,538.85,167.85,547.9Z"/><line class="g" x1="114.13" y1="569.95" x2="21.66" y2="499.02"/><path class="g" d="M47.71,518.89A53.62,53.62,0,0,1,17,521.72"/><path class="g" d="M47.72,518.91a39.32,39.32,0,0,0-1.92-27.68"/><path class="g" d="M71,536.74a71.9,71.9,0,0,1-41.29,3.79"/><path class="g" d="M71,536.77a52.79,52.79,0,0,0-2.57-37.15"/><path class="g" d="M89.46,550.81s-25.32,13.78-55.3,10.1"/><path class="g" d="M89.48,550.84s11.06-24.61,2.11-50.48"/><line class="g" x1="114.13" y1="569.95" x2="33.82" y2="603.91"/><path class="g" d="M56.45,594.42s-10.51-8.59-24.76-10.14"/><path class="g" d="M56.46,594.41s2.89,11.76-3.63,22"/><path class="g" d="M76.71,585.88s-14.1-11.52-33.24-13.6"/><path class="g" d="M76.72,585.87s3.88,15.79-4.86,29.5"/><line class="g" x1="114.13" y1="569.95" x2="139.24" y2="493.64"/><path class="g" d="M132.26,515.13s-11.1-8-15-20.35"/><path class="g" d="M132.24,515.14s13.43.75,23.69-6.59"/><path class="g" d="M126,534.37s-14.88-10.7-20.12-27.31"/><path class="g" d="M125.94,534.39s18,1,31.79-8.84"/><path class="a" d="M321.8,589.55c.18,4.87-6.26,12.66-4.35,19.54,1.67,6,11.35,9.87,13.29,15.43,3.07,8.78-1.64,18.56-1,20.24s10.63,6.07,14.15,14.88c2.2,5.53-2.53,14.88.21,20.63,3.08,6.44,13.11,8.22,16.23,12.26,7.25,9.38,10.65,23.05,20,29.08,10.21,6.58,24.05,3.7,34.71,5.57,12.2,2.14,25.14,8.42,34.87,3.31,7.55-4,7.56-15.12,10.94-22.26,3.26-6.88,12.17-13.51,11.5-22.08-.58-7.44-10.2-16.79-13.77-24.64,9.69-4.13,24.27-4.11,31.45-9.62,8.69-6.66,9.36-19.16,13.46-26.87,5-9.38,13.48-18.68,10-27.91s-16.72-11.79-27.25-17.23c-8.49-4.38-16.47-14.93-27.93-16.43-9.88-1.3-23,6-34.1,7.13-2.52-8.54-1.28-22.21-6.2-28.83-5.3-7.13-16.94-7-24.23-11-7.53-4.15-14.08-13.87-22.84-13.65-11,.28-18.49,11.48-26.89,18.33-7.94,6.48-20.59,10.84-24.75,21.33C315.59,566.17,321.38,578.23,321.8,589.55Z"/><path class="b" d="M321.8,589.55c.18,4.87-6.26,12.66-4.35,19.54,1.67,6,11.35,9.87,13.29,15.43,3.07,8.78-1.64,18.56-1,20.24s10.63,6.07,14.15,14.88c2.2,5.53-2.53,14.88.21,20.63,3.08,6.44,13.11,8.22,16.23,12.26,7.25,9.38,10.65,23.05,20,29.08,10.21,6.58,24.05,3.7,34.71,5.57,12.2,2.14,25.14,8.42,34.87,3.31,7.55-4,7.56-15.12,10.94-22.26,3.26-6.88,12.17-13.51,11.5-22.08-.58-7.44-10.2-16.79-13.77-24.64,9.69-4.13,24.27-4.11,31.45-9.62,8.69-6.66,9.36-19.16,13.46-26.87,5-9.38,13.48-18.68,10-27.91s-16.72-11.79-27.25-17.23c-8.49-4.38-16.47-14.93-27.93-16.43-9.88-1.3-23,6-34.1,7.13-2.52-8.54-1.28-22.21-6.2-28.83-5.3-7.13-16.94-7-24.23-11-7.53-4.15-14.08-13.87-22.84-13.65-11,.28-18.49,11.48-26.89,18.33-7.94,6.48-20.59,10.84-24.75,21.33C315.59,566.17,321.38,578.23,321.8,589.55Z"/><line class="g" x1="359.33" y1="636.78" x2="487.18" y2="604.26"/><path class="g" d="M451.21,613.31A60.68,60.68,0,0,0,482,630"/><path class="g" d="M451.19,613.32a44.6,44.6,0,0,1,14.35-27.94"/><path class="g" d="M419,621.47s15.09,16.94,41.26,22.37"/><path class="g" d="M419,621.49A59.76,59.76,0,0,1,438.22,584"/><path class="g" d="M393.53,627.88s20.19,25.64,53,35.19"/><path class="g" d="M393.49,627.91s-.51-30.54,20.35-53.47"/><line class="g" x1="359.33" y1="636.78" x2="427.73" y2="707.96"/><path class="g" d="M408.42,688s14.76-4.25,30.28.5"/><path class="g" d="M408.41,688s-8.26,10.95-6,24.49"/><path class="g" d="M391.15,670.07s19.81-5.71,40.65.67"/><path class="g" d="M391.14,670s-11.08,14.7-8.11,32.86"/><line class="g" x1="359.33" y1="636.78" x2="367.26" y2="546.19"/><path class="g" d="M364.93,571.66s15.1-3.35,24.68-14.48"/><path class="g" d="M364.94,571.68s-14.3-5.22-21.71-17.43"/><path class="g" d="M362.9,594.49S383.16,590,396,575.06"/><path class="g" d="M362.91,594.52s-19.19-7-29.14-23.39"/><path class="a" d="M221.71,716.38c-5-2.81-9.09-13.08-17.07-16-7-2.51-16.93,2.67-23.6.62-10.56-3.26-16.94-13.31-19-13.9s-12.87,4.43-23.6,1.48c-6.76-1.86-12.41-11.59-19.7-13.23-8.26-1.87-17.27,4.59-23.11,4.22-11.88-.74-23.71-7.92-33.92-6-12.27,2.36-20,13.75-28.18,19.19C22.8,700,10.11,706,9.93,716.59c-.14,8.33,10.55,13.73,17.25,20.9,5.39,5.76,8,17.27,16.66,21.57,7.36,3.64,20.9.93,30,3.1-1.29,10.2-7.94,23.22-5.64,32.26,2.52,9.89,13.93,15.12,20.2,22.23,6.42,7.28,10.54,19.21,20.3,22.06S129,833.77,139,831.16c9.53-2.48,22.27-.23,30.56-6.83,7.71-6.13,10.61-20.7,16.16-29.69,9,3.12,19,12.82,27.57,13.72,9.8,1,18.52-7.27,26.57-9.18,9.8-2.32,21.94-.51,27.09-7.22,6.6-8.59.51-20.57-3.44-31.86-3.1-8.91-2.6-22.25-11.2-30.81C245.31,722.3,231.83,722.05,221.71,716.38Z"/><path class="b" d="M221.71,716.38c-5-2.81-9.09-13.08-17.07-16-7-2.51-16.93,2.67-23.6.62-10.56-3.26-16.94-13.31-19-13.9s-12.87,4.43-23.6,1.48c-6.76-1.86-12.41-11.59-19.7-13.23-8.26-1.87-17.27,4.59-23.11,4.22-11.88-.74-23.71-7.92-33.92-6-12.27,2.36-20,13.75-28.18,19.19C22.8,700,10.11,706,9.93,716.59c-.14,8.33,10.55,13.73,17.25,20.9,5.39,5.76,8,17.27,16.66,21.57,7.36,3.64,20.9.93,30,3.1-1.29,10.2-7.94,23.22-5.64,32.26,2.52,9.89,13.93,15.12,20.2,22.23,6.42,7.28,10.54,19.21,20.3,22.06S129,833.77,139,831.16c9.53-2.48,22.27-.23,30.56-6.83,7.71-6.13,10.61-20.7,16.16-29.69,9,3.12,19,12.82,27.57,13.72,9.8,1,18.52-7.27,26.57-9.18,9.8-2.32,21.94-.51,27.09-7.22,6.6-8.59.51-20.57-3.44-31.86-3.1-8.91-2.6-22.25-11.2-30.81C245.31,722.3,231.83,722.05,221.71,716.38Z"/><line class="g" x1="153.44" y1="712.08" x2="116.35" y2="816.43"/><path class="g" d="M126.89,787.13S108,787,93.26,797.49"/><path class="g" d="M126.88,787.11s15.33,10,20.35,26.33"/><path class="g" d="M136.27,760.86s-25.34-.19-45.13,13.9"/><path class="g" d="M136.27,760.83s20.56,13.39,27.31,35.33"/><path class="g" d="M143.72,740.12s-36.91-2-64.5,14"/><path class="g" d="M143.71,740.08s31.11,18,42.84,45.66"/><line class="g" x1="153.44" y1="712.08" x2="44.22" y2="714.61"/><path class="g" d="M74.92,713.82A37.73,37.73,0,0,1,57.86,733.6"/><path class="g" d="M75,713.82a48.24,48.24,0,0,0-21.41-18.73"/><path class="g" d="M102.45,713.15a50.6,50.6,0,0,1-22.9,26.55"/><path class="g" d="M102.48,713.16A64.74,64.74,0,0,0,73.75,688"/><line class="g" x1="153.44" y1="712.08" x2="240.52" y2="771.86"/><path class="g" d="M216.1,755a34.09,34.09,0,0,0,1.11,25.08"/><path class="g" d="M216.07,755a55.21,55.21,0,0,1,29.46-3.9"/><path class="g" d="M194.16,739.9a45.79,45.79,0,0,0,1.5,33.66"/><path class="g" d="M194.13,739.89a74.14,74.14,0,0,1,39.54-5.24"/><path class="a" d="M269.62,522.84c-5.2,2.17-15-3.77-23.12-2.44-7.12,1.16-13.65,10-20.42,10.61-10.72,1-20.17-6.47-22.23-6.32s-10.44,9-21.4,9.56c-6.88.36-14.74-7.38-22.11-7.48-8.25-.1-17,7.25-22.77,5.93-13.37-3.07-22.8-15.71-33.68-22.63C92,502.53,76.64,498.79,69.52,488.51c-8.16-11.78-5.32-26.8-4.66-39.48.51-9.86-3-21.25,2.85-28.26,5.65-6.75,17.91-5.69,27.23-9.14,8.09-3,12.8-10.85,22.77-10.89-.35-12.19,7.76-20.25,10.07-30.46,2.79-12.34.31-26.23,6.42-34.26,7.44-9.78,20.59-9.38,32-10.23s25.14-3.56,36,4.87c8.71,6.79,11.06,21.47,18.19,32.77,6.14,9.75,17.25,15.58,21.45,27.74,10.19-1.48,17,6,26.37,7.93,10.06,2.11,22.5-1,30.24,4.71,8,5.9,8.34,18.42,12.34,27.72,5,11.7,13.18,23.73,10.05,35.86-3,11.48-16,18.78-25,28.22C287.62,504.14,281.72,517.8,269.62,522.84Z"/><path class="b" d="M269.62,522.84c-5.2,2.17-15-3.77-23.12-2.44-7.12,1.16-13.65,10-20.42,10.61-10.72,1-20.17-6.47-22.23-6.32s-10.44,9-21.4,9.56c-6.88.36-14.74-7.38-22.11-7.48-8.25-.1-17,7.25-22.77,5.93-13.37-3.07-22.8-15.71-33.68-22.63C92,502.53,76.64,498.79,69.52,488.51c-8.16-11.78-5.32-26.8-4.66-39.48.51-9.86-3-21.25,2.85-28.26,5.65-6.75,17.91-5.69,27.23-9.14,8.09-3,12.8-10.85,22.77-10.89-.35-12.19,7.76-20.25,10.07-30.46,2.79-12.34.31-26.23,6.42-34.26,7.44-9.78,20.59-9.38,32-10.23s25.14-3.56,36,4.87c8.71,6.79,11.06,21.47,18.19,32.77,6.14,9.75,17.25,15.58,21.45,27.74,10.19-1.48,17,6,26.37,7.93,10.06,2.11,22.5-1,30.24,4.71,8,5.9,8.34,18.42,12.34,27.72,5,11.7,13.18,23.73,10.05,35.86-3,11.48-16,18.78-25,28.22C287.62,504.14,281.72,517.8,269.62,522.84Z"/><line class="g" x1="198.53" y1="498.34" x2="170.77" y2="348.32"/><path class="g" d="M178.68,390.48a70.18,70.18,0,0,1-32.38-24.22"/><path class="g" d="M178.68,390.51a51.53,51.53,0,0,0,22.39-28.61"/><path class="g" d="M185.72,428.27s-25.1-7.64-43.47-32.5"/><path class="g" d="M185.71,428.31s21.5-11.37,30.06-38.39"/><path class="g" d="M191.31,458.11s-36.7-8.79-62.63-38.65"/><path class="g" d="M191.3,458.16s32.33-14.24,46.3-47.25"/><line class="g" x1="198.53" y1="498.34" x2="90.66" y2="460.97"/><path class="g" d="M121,471.58S118.29,454,105.79,440"/><path class="g" d="M121,471.58s-7.5,14-22.79,18.2"/><path class="g" d="M148.16,481s-3.6-23.57-20.39-42.36"/><path class="g" d="M148.19,481s-10.06,18.75-30.58,24.42"/><line class="g" x1="198.53" y1="498.34" x2="289.83" y2="446.15"/><path class="g" d="M264.21,460.92s-3.8-17.47,3.25-32.93"/><path class="g" d="M264.18,460.92s12.4,12.5,28.82,14.36"/><path class="g" d="M241.21,474.11s-5.1-23.45,4.37-44.2"/><path class="g" d="M241.18,474.12s16.64,16.76,38.67,19.27"/><path class="h" d="M206.67,742.2c-12.78,0-20.73-22-20.73-57.5,0-34.05,16.44-68.19,17.14-69.62l3.59-7.39,3.6,7.39c.7,1.43,17.14,35.57,17.14,69.62C227.41,720.17,219.46,742.2,206.67,742.2Z"/><path class="i" d="M206.67,616.83s16.74,34.35,16.74,67.87-7.49,53.5-16.74,53.5-16.73-20-16.73-53.5,16.73-67.87,16.73-67.87m0-18.28-7.19,14.77c-.71,1.47-17.54,36.42-17.54,71.38,0,38.51,9.25,61.5,24.73,61.5s24.74-23,24.74-61.5c0-35-16.83-69.91-17.54-71.38l-7.2-14.77Z"/><path class="h" d="M203.08,600.56c-.53-1.09-13.05-27.08-13.05-53,0-27.4,6.38-44.42,16.64-44.42s16.64,17,16.64,44.42c0,26-12.51,51.94-13,53l-3.6,7.38Z"/><path class="i" d="M206.67,507.11c7,0,12.64,15.1,12.64,40.42s-12.64,51.28-12.64,51.28S194,572.85,194,547.53s5.66-40.42,12.64-40.42m0-8c-5.1,0-12.12,2.82-16.53,16.21-2.69,8.15-4.11,19.29-4.11,32.21,0,26.86,12.9,53.65,13.45,54.78l7.19,14.77,7.2-14.77c.55-1.13,13.44-27.92,13.44-54.78,0-12.92-1.41-24.06-4.1-32.21-4.42-13.39-11.43-16.21-16.54-16.21Z"/><path class="h" d="M83.36,688.29c-6.8,0-10-2.85-11.55-5.23-6-9.41,4.68-24.41,27.86-39.16,22-14,51.55-16.27,52.8-16.36l7.38-.53-3.6,6.46c-.61,1.09-15.15,26.9-37.17,40.92-14.08,9-26.77,13.9-35.72,13.9Z"/><path class="i" d="M152.75,631.53s-14.4,25.85-35.82,39.48c-14.12,9-25.95,13.28-33.57,13.28-3.94,0-6.76-1.15-8.18-3.38-4.17-6.56,5.21-20,26.63-33.64s50.94-15.74,50.94-15.74m14.19-9-14.76,1.06c-1.29.09-31.8,2.41-54.66,17-11,7-19.64,14.39-25,21.36-9,11.77-6.45,19.67-4.12,23.32,3.93,6.17,11,7.09,14.93,7.09,9.7,0,23.15-5.16,37.87-14.53,22.86-14.55,37.88-41.21,38.51-42.34l7.2-12.93Z"/><path class="h" d="M78.68,651.59c-19,0-23.35-7-24.23-11.2-.83-3.94.27-9.94,10.25-16.17,7-4.41,17.28-8.11,29.59-10.71A91.06,91.06,0,0,1,113,611.7a142.28,142.28,0,0,1,36.46,5l7.09,2.09-5.64,4.79c-.95.81-23.63,19.86-49.17,25.25a113.11,113.11,0,0,1-23.07,2.71Z"/><path class="i" d="M113,615.7a139.68,139.68,0,0,1,35.32,4.88S125.77,639.73,100.92,645a110.08,110.08,0,0,1-22.24,2.62c-11.94,0-19.27-3-20.32-8-1.6-7.6,11.91-16.89,36.75-22.14A87.76,87.76,0,0,1,113,615.7m0-8a95,95,0,0,0-19.55,1.9C80.7,612.29,70,616.17,62.58,620.82,50,628.68,49.64,637,50.53,641.21c1.14,5.37,6.3,14.38,28.15,14.38a117.07,117.07,0,0,0,23.9-2.8c26.52-5.59,50-25.27,50.93-26.11l11.28-9.57-14.19-4.2A147.06,147.06,0,0,0,113,607.7Z"/><path class="j" d="M117,715.11c-4.43,0-7.77-2.06-9.16-5.65-4.1-10.58,1.42-22.3,19-40.45,18.3-18.84,47.8-25.84,49.05-26.13l6.93-1.61L180.6,648c-.4,1.19-9.83,29.26-28.83,47.17-13.24,12.47-26.25,19.91-34.8,19.91Z"/><path class="i" d="M176.8,646.78s-9.29,28.09-27.78,45.5c-13.19,12.44-25.23,18.83-32.06,18.83-2.73,0-4.63-1-5.43-3.1-2.25-5.81-2.7-14.7,18.19-36.21,17.69-18.22,47.08-25,47.08-25m12.07-11L175,639c-1.29.3-31.9,7.56-51,27.24-18.9,19.46-24.67,32.41-19.91,44.68,2,5.14,6.81,8.21,12.89,8.21,9.7,0,23.38-7.65,37.55-21,19.73-18.59,29.48-47.6,29.88-48.82l4.48-13.52Z"/><path class="j" d="M107.15,615.56h-1.41c-12.58-.24-23.33-1.95-31.07-5-11-4.25-13.19-9.94-13.11-14,.2-10.64,16.28-17.25,42-17.25l2.9,0c26.1.49,51.95,15,53,15.56l6.44,3.65L159.33,602c-1.07.55-26.54,13.55-52.18,13.55Z"/><path class="i" d="M103.53,583.38l2.82,0c25.39.48,51.15,15.05,51.15,15.05s-25.38,13.1-50.35,13.1h-1.33c-25.39-.48-40.41-7.07-40.26-14.84.14-7.48,14.27-13.33,38-13.33m0-8c-28.53,0-45.72,7.92-46,21.18-.08,4.33,1.84,12.41,15.66,17.76,8.18,3.17,19.4,5,32.44,5.23h1.49c26.6,0,52.91-13.42,54-14l13.15-6.79-12.88-7.28c-1.13-.63-27.84-15.57-54.94-16.08l-3,0Z"/><path class="j" d="M164.47,601.47c-1.25,0-30.86-.61-53.63-13.38-24-13.43-35.46-27.82-30-37.54,1.51-2.7,4.94-5.91,12.7-5.91,8.85,0,21.27,4.23,35,11.92,22.77,12.76,38.73,37.72,39.4,38.77l4,6.25Z"/><path class="i" d="M93.53,548.64c7.65,0,19.2,3.65,33,11.41,22.15,12.42,38,37.42,38,37.42s-29.59-.45-51.74-12.87-32.27-25.31-28.47-32.1c1.43-2.54,4.61-3.86,9.21-3.86m0-8c-10.2,0-14.52,5-16.19,8-2.12,3.79-4.23,11.81,5.41,23.06,5.72,6.66,14.75,13.55,26.13,19.93,23.64,13.25,54.24,13.87,55.53,13.89l14.79.23-7.91-12.51c-.69-1.09-17.18-26.87-40.82-40.12-14.51-8.13-27.28-12.43-36.94-12.43Z"/><path class="j" d="M191.47,601.92c-.78-1-19.32-24.08-24.12-49.73-5.06-27-1.4-45.05,9.56-47.1a9.37,9.37,0,0,1,1.83-.17c10.19,0,19.44,15.56,24.14,40.61,4.8,25.66-4.11,53.9-4.49,55.09l-2.26,7Z"/><path class="i" d="M178.74,508.92c7.39,0,15.75,13.57,20.2,37.35,4.68,25-4.36,53.13-4.36,53.13s-18.63-23-23.3-47.95-1.27-41,6.37-42.43a5.74,5.74,0,0,1,1.09-.1m0-8a13.89,13.89,0,0,0-2.57.24c-4.26.79-11.77,4.32-14.22,18.93-1.44,8.66-.94,20,1.46,32.83,5,26.64,24.14,50.51,25,51.52l9.32,11.49,4.52-14.08c.39-1.23,9.6-30.42,4.61-57.06-5.23-27.88-15.46-43.87-28.07-43.87Z"/><path class="j" d="M165.73,737.16a9.91,9.91,0,0,1-3.16-.51c-10.59-3.5-11.8-21.87-3.18-47.95,8.19-24.79,29.65-45.21,30.56-46.06l5.38-5.08,1.3,7.29c.22,1.23,5.28,30.41-2.92,55.2-7.68,23.23-18.14,37.11-28,37.11Z"/><path class="i" d="M192.69,645.55s5.19,29.13-2.78,53.24c-7.31,22.11-16.94,34.37-24.18,34.37a5.78,5.78,0,0,1-1.9-.31c-7.38-2.44-8.61-18.79-.64-42.9s29.5-44.4,29.5-44.4m5.28-16-10.76,10.15c-.94.88-23.11,22-31.62,47.71-4.09,12.39-6.11,23.57-5.84,32.34.47,14.81,7.45,19.31,11.56,20.67a14.06,14.06,0,0,0,4.42.71c16.79,0,27.82-27.87,31.78-39.86,8.51-25.73,3.28-55.88,3.06-57.16L198,629.58Z"/><path class="h" d="M187.53,592.39c-1.19-.38-29.3-9.73-47.26-28.67-18.9-19.93-25.62-37.08-17.53-44.75a11.14,11.14,0,0,1,7.86-2.89c9.09,0,22.18,8.3,35.9,22.76,18,18.94,25.81,47.51,26.13,48.71l1.93,7.15Z"/><path class="i" d="M130.6,520.08c7.35,0,19.43,7.21,33,21.52,17.47,18.42,25.17,47,25.17,47s-28.12-9.2-45.6-27.62-23.32-33.75-17.68-39.1a7.19,7.19,0,0,1,5.11-1.79m0-8a15.06,15.06,0,0,0-10.61,4c-3.15,3-7.55,10-1.67,23.62,3.48,8,10.07,17.31,19.05,26.78,18.65,19.67,47.69,29.32,48.91,29.73l14.07,4.6-3.86-14.29c-.33-1.25-8.44-30.75-27.09-50.42-8.5-9-24.85-24-38.8-24Z"/><path class="j" d="M330,688.29c-8.95,0-21.64-4.94-35.72-13.9-22-14-36.56-39.83-37.17-40.92L253.5,627l7.38.53c1.25.09,30.78,2.34,52.8,16.36,23.17,14.75,33.85,29.75,27.86,39.16C340,685.44,336.78,688.29,330,688.29Z"/><path class="i" d="M260.6,631.53s29.51,2.1,50.94,15.74,30.8,27.08,26.63,33.64c-1.42,2.23-4.24,3.38-8.18,3.38-7.62,0-19.45-4.29-33.57-13.28C275,657.38,260.6,631.53,260.6,631.53m-14.19-9,7.2,12.93c.63,1.13,15.65,27.79,38.51,42.34,14.72,9.37,28.17,14.53,37.87,14.53,3.89,0,11-.92,14.93-7.09,2.33-3.65,4.89-11.55-4.12-23.32-5.33-7-14-14.35-25-21.36-22.86-14.56-53.38-16.88-54.66-17l-14.76-1.06Z"/><path class="j" d="M334.67,651.59a113.11,113.11,0,0,1-23.07-2.71c-25.54-5.39-48.22-24.44-49.17-25.25l-5.64-4.79,7.09-2.09a142.18,142.18,0,0,1,36.46-5,91.2,91.2,0,0,1,18.72,1.81c12.31,2.6,22.54,6.3,29.59,10.71,10,6.23,11.08,12.23,10.25,16.17C358,644.57,353.7,651.59,334.67,651.59Z"/><path class="i" d="M300.34,615.7a87.83,87.83,0,0,1,17.9,1.72c24.84,5.25,38.35,14.54,36.75,22.14-1.06,5-8.38,8-20.32,8A110.25,110.25,0,0,1,312.42,645C287.58,639.73,265,620.58,265,620.58a139.81,139.81,0,0,1,35.33-4.88m0-8v0a147.28,147.28,0,0,0-37.6,5.21l-14.19,4.2,11.29,9.57c1,.84,24.41,20.52,50.93,26.11a117.07,117.07,0,0,0,23.9,2.8c21.85,0,27-9,28.15-14.38.89-4.24.52-12.53-12.05-20.39-7.44-4.65-18.12-8.53-30.88-11.22a95,95,0,0,0-19.55-1.9Z"/><path class="j" d="M296.38,715.11c-8.55,0-21.56-7.44-34.8-19.91-19-17.91-28.44-46-28.83-47.17l-2.23-6.76,6.93,1.61c1.25.29,30.75,7.29,49.05,26.13,17.63,18.15,23.15,29.87,19.05,40.45C304.16,713.05,300.82,715.11,296.38,715.11Z"/><path class="i" d="M236.55,646.78s29.39,6.8,47.08,25c20.89,21.51,20.44,30.4,18.19,36.21-.8,2.08-2.7,3.1-5.44,3.1-6.82,0-18.86-6.39-32.06-18.83-18.48-17.41-27.77-45.5-27.77-45.5m-12.07-11L229,649.29c.41,1.22,10.16,30.23,29.89,48.82,14.17,13.35,27.85,21,37.54,21,6.09,0,10.91-3.07,12.9-8.21,4.75-12.27-1-25.22-19.91-44.68-19.11-19.68-49.72-26.94-51-27.24l-13.87-3.21Z"/><path class="h" d="M306.2,615.56c-25.64,0-51.11-13-52.18-13.55l-6.58-3.39,6.44-3.65c1.09-.61,26.94-15.07,53-15.56l2.9,0c25.69,0,41.77,6.61,42,17.25.21,11.15-16.72,18.4-44.18,18.92Z"/><path class="i" d="M309.82,583.38c23.7,0,37.83,5.85,38,13.33.15,7.77-14.87,14.36-40.26,14.84H306.2c-25,0-50.35-13.1-50.35-13.1s25.76-14.57,51.15-15.05l2.82,0m0-8v0l-3,0c-27.1.51-53.81,15.45-54.94,16.08L239,598.77l13.15,6.79c1.11.58,27.42,14,54,14h1.48c13.05-.25,24.27-2.06,32.45-5.23,13.82-5.35,15.74-13.43,15.66-17.76-.25-13.26-17.44-21.18-46-21.18Z"/><path class="h" d="M245.44,595.33c.67-1.05,16.62-26,39.39-38.77,13.72-7.69,26.14-11.92,35-11.92,7.75,0,11.19,3.21,12.7,5.91,2,3.51,2.7,9.56-5,18.49-5.41,6.31-14.07,12.9-25.05,19.05-22.77,12.77-52.38,13.36-53.63,13.38l-7.4.11Z"/><path class="i" d="M319.82,548.64c4.59,0,7.78,1.32,9.21,3.86,3.8,6.79-6.32,19.68-28.47,32.1s-51.74,12.87-51.74,12.87,15.82-25,38-37.42c13.83-7.76,25.38-11.41,33-11.41m0-8h0c-9.66,0-22.43,4.3-36.94,12.43-23.64,13.25-40.13,39-40.82,40.12l-7.91,12.51,14.79-.23c1.29,0,31.88-.64,55.53-13.89,11.38-6.38,20.41-13.27,26.13-19.93,9.64-11.25,7.53-19.27,5.41-23.06-1.67-3-6-8-16.19-8Z"/><path class="h" d="M215,600.62c-.38-1.19-9.29-29.43-4.49-55.09,4.7-25,13.94-40.61,24.13-40.61a9.4,9.4,0,0,1,1.84.17c11,2.05,14.62,20.1,9.56,47.1-4.8,25.65-23.34,48.76-24.12,49.73l-4.66,5.75Z"/><path class="i" d="M234.6,508.92a5.77,5.77,0,0,1,1.1.1c7.64,1.43,11.05,17.47,6.37,42.43s-23.3,47.95-23.3,47.95-9-28.18-4.37-53.13c4.46-23.78,12.82-37.35,20.2-37.35m0-8h0c-12.61,0-22.83,16-28.06,43.87-5,26.64,4.22,55.83,4.61,57.06l4.52,14.08L225,604.44c.82-1,20-24.88,25-51.52,2.41-12.82,2.91-24.17,1.47-32.83-2.45-14.61-10-18.14-14.22-18.93a13.92,13.92,0,0,0-2.58-.24Z"/><path class="h" d="M247.62,737.16c-9.84,0-20.3-13.88-28-37.11-8.2-24.79-3.14-54-2.92-55.2l1.3-7.29,5.38,5.08c.91.85,22.37,21.27,30.56,46.06,8.62,26.08,7.4,44.45-3.18,47.95A9.91,9.91,0,0,1,247.62,737.16Z"/><path class="i" d="M220.66,645.55s21.53,20.29,29.5,44.4,6.74,40.46-.64,42.9a5.78,5.78,0,0,1-1.9.31c-7.24,0-16.87-12.26-24.18-34.37-8-24.11-2.78-53.24-2.78-53.24m-5.28-16-2.6,14.56c-.23,1.28-5.45,31.43,3.06,57.16,4,12,15,39.86,31.78,39.86a14,14,0,0,0,4.41-.71c4.12-1.36,11.1-5.86,11.57-20.67.27-8.77-1.75-19.95-5.84-32.34-8.51-25.73-30.68-46.83-31.62-47.71l-10.76-10.15Z"/><path class="j" d="M220.72,587.55c.32-1.2,8.17-29.77,26.13-48.71,13.72-14.46,26.81-22.76,35.9-22.76a11.14,11.14,0,0,1,7.86,2.89c8.09,7.67,1.37,24.82-17.53,44.75-18,18.94-46.07,28.29-47.26,28.67l-7,2.31Z"/><path class="i" d="M282.75,520.08a7.19,7.19,0,0,1,5.11,1.79c5.64,5.35-.21,20.67-17.68,39.1s-45.6,27.62-45.6,27.62,7.7-28.57,25.17-47c13.57-14.31,25.65-21.52,33-21.52m0-8h0c-13.95,0-30.3,15-38.8,24-18.65,19.67-26.76,49.17-27.1,50.42L213,600.8l14.07-4.6c1.22-.41,30.26-10.06,48.91-29.73,9-9.47,15.57-18.73,19-26.78,5.88-13.6,1.48-20.64-1.67-23.62a15.05,15.05,0,0,0-10.6-4Z"/><path class="h" d="M180.79,610.3c-10,0-35.7-.77-57.68-7.91-25.61-8.32-36.21-11.76-38.67-17.83a7.06,7.06,0,0,1,.39-6.15c2.91-5.51,12-8.93,23.79-8.93a90.72,90.72,0,0,1,27.73,4.9c27.61,9,50.05,28,51,28.83l7.79,6.68-10.26.35C184.81,610.25,183.34,610.3,180.79,610.3Z"/><path class="i" d="M108.62,573.48c7.15,0,16,1.31,26.5,4.7,27.16,8.82,49.62,28.07,49.62,28.07s-1.44,0-4,0c-9.59,0-34.92-.73-56.45-7.72-27.16-8.82-38.95-12.67-36-18.3,1.83-3.47,8.82-6.8,20.25-6.8m0-8v0h0c-13.45,0-23.67,4.14-27.33,11.06a11.17,11.17,0,0,0-.56,9.53c3.16,7.78,13.5,11.14,41.14,20.12,22.53,7.32,48.71,8.11,58.92,8.11,2.62,0,4.16-.06,4.22-.06l20.52-.71-15.59-13.36c-1-.83-24-20.39-52.35-29.6a94.73,94.73,0,0,0-29-5.09Z"/><path class="j" d="M93.28,661.91c-5.14,0-7.43-2.29-8.45-4.21-.87-1.66-1.56-4.49.11-8.63,3.22-7.92,15.14-19.82,38.17-27.3,22-7.14,47.66-7.91,57.68-7.91,2.55,0,4,0,4.08,0l10.26.36L187.34,621c-.94.8-23.38,19.86-51,28.83-4,1.3-7.79,2.56-11.33,3.73C109.8,658.57,99.74,661.91,93.28,661.91Z"/><path class="i" d="M180.79,617.86c2.51,0,4,0,4,0S162.28,637.15,135.12,646c-20.21,6.57-34.58,11.94-41.84,11.94-2.5,0-4.15-.64-4.91-2.08-3-5.63,8.81-21.43,36-30.26,21.52-7,46.86-7.71,56.45-7.71m0-8v0h0c-10.21,0-36.39.79-58.92,8.11-20,6.5-36,18.12-40.63,29.6-2.26,5.56-1.22,9.59.05,12s4.48,6.34,12,6.34c7.11,0,17.41-3.42,33-8.6,3.6-1.19,7.32-2.43,11.32-3.73,28.35-9.21,51.38-28.77,52.35-29.6l15.59-13.35L185,609.91c-.06,0-1.6,0-4.22,0Z"/><path class="h" d="M166.56,704a17.26,17.26,0,0,1-5.32-.87c-4.07-1.33-6.84-3.72-8.22-7.13-2.5-6.16-.38-15,6.89-28.79,11.56-21.88,36-39.55,37-40.29l5.91-4.24.41,7.26c.06,1.11,1.4,27.42-10.23,49.45C184.13,696.15,175.73,704,166.56,704Z"/><path class="i" d="M199.24,630.14s1.47,26.06-9.78,47.35C180.27,694.9,172.88,700,166.56,700a13,13,0,0,1-4.08-.68c-7.18-2.33-10.28-8.95,1-30.25s35.79-38.9,35.79-38.9m7.16-15-11.83,8.49c-1.06.76-26.21,19-38.2,41.67-7.87,14.89-10,24.81-7.06,32.16,1.27,3.13,4.15,7.31,10.7,9.43a21.22,21.22,0,0,0,6.55,1.07c14.2,0,23.91-15.26,30-26.74,12.15-23,10.76-50.39,10.69-51.54l-.82-14.54Z"/><path class="j" d="M246.79,704c-9.17,0-17.57-7.82-26.44-24.61-11.64-22-10.29-48.34-10.23-49.45l.41-7.26,5.91,4.24c1,.74,25.44,18.41,37,40.29,7.27,13.75,9.39,22.63,6.89,28.79-1.38,3.41-4.15,5.8-8.23,7.13A17.15,17.15,0,0,1,246.79,704Z"/><path class="i" d="M214.11,630.14s24.54,17.61,35.79,38.9,8.15,27.92,1,30.25a13,13,0,0,1-4.08.68c-6.32,0-13.71-5.07-22.9-22.48-11.25-21.29-9.78-47.35-9.78-47.35m-7.16-15-.83,14.54c-.06,1.15-1.46,28.54,10.69,51.54,12.67,24,23.17,26.74,30,26.74a21.22,21.22,0,0,0,6.55-1.07c6.54-2.12,9.43-6.3,10.7-9.43,3-7.35.8-17.27-7.06-32.16-12-22.7-37.14-40.91-38.21-41.67L207,615.15Z"/><path class="h" d="M320.07,661.91c-6.46,0-16.52-3.34-31.74-8.4-3.54-1.17-7.32-2.43-11.33-3.73-27.61-9-50.05-28-51-28.83l-7.79-6.68,10.25-.36c.07,0,1.54,0,4.09,0,10,0,35.7.77,57.68,7.91,23,7.48,34.95,19.38,38.17,27.3,1.67,4.14,1,7,.11,8.63C327.5,659.62,325.21,661.91,320.07,661.91Z"/><path class="i" d="M232.56,617.86c9.59,0,34.92.72,56.45,7.71,27.16,8.83,38.95,24.63,36,30.26-.76,1.44-2.42,2.08-4.91,2.08-7.26,0-21.63-5.37-41.84-11.94-27.16-8.82-49.62-28.06-49.62-28.06s1.44,0,3.95,0m0-8c-2.62,0-4.16,0-4.23,0l-20.51.72L223.41,624c1,.83,24,20.39,52.35,29.6,4,1.3,7.72,2.54,11.31,3.73,15.59,5.18,25.89,8.6,33,8.6,7.51,0,10.73-4,12-6.34s2.32-6.44.06-12c-4.65-11.48-20.6-23.1-40.63-29.6-22.53-7.32-48.71-8.11-58.92-8.11Z"/><path class="h" d="M232.56,610.3c-2.55,0-4,0-4.09-.06l-10.25-.35,7.79-6.68c.94-.81,23.38-19.87,51-28.83a90.83,90.83,0,0,1,27.74-4.9c11.76,0,20.88,3.42,23.79,8.93a7.06,7.06,0,0,1,.39,6.15c-2.46,6.07-13.06,9.51-38.67,17.83C268.26,609.53,242.58,610.3,232.56,610.3Z"/><path class="i" d="M304.73,573.48c11.43,0,18.42,3.33,20.25,6.8,3,5.63-8.81,9.48-36,18.3-21.53,7-46.86,7.72-56.45,7.72-2.51,0-3.95,0-3.95,0s22.46-19.25,49.62-28.07c10.46-3.39,19.35-4.7,26.5-4.7m0-8h0a95,95,0,0,0-29,5.09c-28.36,9.21-51.39,28.77-52.35,29.6l-15.59,13.36,20.51.71c.07,0,1.61.06,4.23.06,10.21,0,36.39-.79,58.92-8.11,27.64-9,38-12.34,41.14-20.12a11.13,11.13,0,0,0-.57-9.53c-3.65-6.92-13.87-11.06-27.32-11.06Z"/><path class="h" d="M211.12,595c-.12-.92-2.75-22.6,8.19-40.08,9.43-15.07,21.11-24.43,30.48-24.43a12.79,12.79,0,0,1,3.8.56,10.68,10.68,0,0,1,7,6.67c2.54,6.85-.28,17.38-8,29.65C241.87,584.54,218,597.47,217,598l-5.12,2.75Z"/><path class="i" d="M249.79,534.49a8.92,8.92,0,0,1,2.62.38c7.33,2.27,7.12,13.92-3.18,30.38s-34.14,29.24-34.14,29.24-2.7-21,7.61-37.44c9.15-14.63,19.71-22.56,27.09-22.56m0-8c-10.9,0-23.56,9.84-33.87,26.31-11.7,18.68-8.89,41.74-8.77,42.71L208.64,607l10.23-5.48c1-.57,25.83-14,37.14-32,5.91-9.44,12.15-22.85,8.32-33.16a14.65,14.65,0,0,0-9.56-9.1,16.72,16.72,0,0,0-5-.74Z"/><path class="j" d="M196.82,598c-1-.54-24.89-13.47-35.64-30.64-7.68-12.27-10.51-22.8-8-29.65a10.69,10.69,0,0,1,7-6.67,12.91,12.91,0,0,1,3.81-.56c9.36,0,21.05,9.36,30.48,24.43,10.94,17.48,8.3,39.16,8.18,40.08l-.74,5.76Z"/><path class="i" d="M164,534.49c7.38,0,17.93,7.93,27.09,22.56,10.31,16.46,7.61,37.44,7.61,37.44s-23.83-12.78-34.14-29.24-10.51-28.11-3.19-30.38a9,9,0,0,1,2.63-.38m0-8h0a16.77,16.77,0,0,0-5,.74,14.61,14.61,0,0,0-9.55,9.1c-2.12,5.69-2.39,16.06,8.32,33.16,11.3,18.06,36.09,31.48,37.14,32L205.16,607l1.48-11.51c.13-1,2.93-24-8.76-42.71-10.31-16.47-23-26.31-33.87-26.31Z"/><path class="h" d="M186.06,594.92c-.92-.18-22.75-4.55-36.92-14.29-7.89-5.42-17.3-13.41-17.3-20.68a7.37,7.37,0,0,1,3.28-6.23,11.38,11.38,0,0,1,6.54-1.77c7,0,17,4.16,27.56,11.4,14.46,9.94,21,25.45,21.3,26.11l2.87,6.9Z"/><path class="i" d="M141.66,556c5.71,0,14.91,3.56,25.29,10.7C180.61,576,186.83,591,186.83,591s-21.77-4.27-35.42-13.66S133.09,560,137.39,557a7.58,7.58,0,0,1,4.27-1.06m0-8h0a15.2,15.2,0,0,0-8.8,2.47,11.4,11.4,0,0,0-5,9.53c0,7.23,6.41,15.3,19,24,14.84,10.2,37.45,14.73,38.41,14.91L200,601.73l-5.74-13.81c-.3-.7-7.31-17.26-22.74-27.86C160.13,552.25,149.54,548,141.66,548Z"/><path class="h" d="M203.48,587.85c-.48-.6-11.88-14.87-11.88-29.39,0-17.39,7.53-25.18,15-25.18s15,7.79,15,25.18c0,14.52-11.4,28.79-11.88,29.39l-3.12,3.85Z"/><path class="i" d="M206.59,537.28c6.08,0,11,7.91,11,21.18s-11,26.88-11,26.88-11-13.61-11-26.88,4.92-21.18,11-21.18m0-8c-9.45,0-19,9-19,29.18,0,15.65,11.46,30.29,12.77,31.9l6.22,7.71,6.23-7.71c1.3-1.61,12.77-16.25,12.77-31.9,0-20.16-9.54-29.18-19-29.18Z"/><path class="j" d="M137.41,616.16c-9.78,0-16.57,0-21.5-.57-3-.32-11.16-1.18-11.16-7.53,0-8.28,15.62-15,34.82-15,19.82,0,39.69,7.5,40.53,7.82l9.79,3.74-9.79,3.74c-.84.32-20.71,7.82-40.53,7.82Z"/><path class="i" d="M139.57,597c19.31,0,39.1,7.56,39.1,7.56s-19.79,7.56-39.1,7.56h-2.16c-18,0-28.66-.08-28.66-4.1s11.51-11,30.82-11m0-8c-22.13,0-38.82,8.18-38.82,19,0,4.17,2.5,7.77,6.69,9.64a26.6,26.6,0,0,0,8,1.87c5.12.54,12,.59,21.92.59h2.16c20.55,0,41.09-7.76,42-8.09l19.58-7.47-19.58-7.47c-.87-.33-21.41-8.09-42-8.09Z"/><path class="h" d="M140.78,658.75a9.6,9.6,0,0,1-5.58-1.56,7.58,7.58,0,0,1-3.28-6.48c0-6.43,6.47-14.72,17.3-22.16,14.17-9.74,36-14.11,36.91-14.29l7.34-1.44-2.87,6.9c-.27.66-6.84,16.17-21.3,26.11C160.72,651.72,148.81,658.75,140.78,658.75Z"/><path class="i" d="M186.91,618.18s-6.23,15-19.88,24.35c-11,7.55-20.65,12.22-26.25,12.22a5.84,5.84,0,0,1-3.32-.85c-4.29-2.95.37-12.67,14-22.06s35.43-13.66,35.43-13.66M200,607.45l-14.67,2.88c-1,.19-23.56,4.72-38.41,14.92-12.09,8.31-19,17.59-19,25.46a11.66,11.66,0,0,0,5,9.78,13.56,13.56,0,0,0,7.85,2.26c7.27,0,17.62-4.59,30.78-13.63C187,638.52,194,622,194.29,621.26L200,607.45Z"/><path class="j" d="M206.7,677.58c-9.06,0-16.72-12.33-16.72-26.92s13.24-29,13.8-29.6l2.92-3.13,2.92,3.13c.57.6,13.81,14.92,13.81,29.6S215.77,677.58,206.7,677.58Z"/><path class="i" d="M206.7,623.79s12.73,13.6,12.73,26.87-6.66,22.92-12.73,22.92S194,663.93,194,650.66s12.72-26.87,12.72-26.87m0-11.71-5.84,6.24C199.34,620,186,634.7,186,650.66c0,17.05,9.29,30.92,20.72,30.92s20.73-13.87,20.73-30.92c0-16-13.36-30.71-14.89-32.34l-5.84-6.24Z"/><path class="h" d="M272.59,658.7c-8,0-19.93-7-28.51-12.93-14.46-9.94-21-25.45-21.31-26.1l-2.87-6.9,7.34,1.44c.92.18,22.74,4.55,36.91,14.29,10.84,7.44,17.3,15.72,17.3,22.16a7.58,7.58,0,0,1-3.28,6.48A9.68,9.68,0,0,1,272.59,658.7Z"/><path class="i" d="M226.47,618.13s21.77,4.28,35.42,13.66,18.31,19.1,14,22.06a5.84,5.84,0,0,1-3.32.85c-5.59,0-15.26-4.67-26.25-12.22-13.65-9.39-19.87-24.35-19.87-24.35M213.34,607.4l5.74,13.8c.29.7,7.31,17.27,22.73,27.87,13.16,9,23.51,13.63,30.78,13.63a13.56,13.56,0,0,0,7.85-2.26,11.64,11.64,0,0,0,5-9.78c0-7.87-6.93-17.15-19-25.46C251.57,615,229,610.47,228,610.28l-14.67-2.88Z"/><path class="j" d="M273.72,616.08c-19.81,0-39.69-7.5-40.52-7.82l-9.8-3.73,9.8-3.74c.83-.32,20.71-7.82,40.52-7.82,19.2,0,34.82,6.74,34.82,15,0,6.35-8.1,7.21-11.15,7.53-4.94.52-11.72.56-21.51.56Z"/><path class="i" d="M273.72,597c19.31,0,30.82,6.85,30.82,11,0,4-10.65,4.09-28.65,4.09h-2.17c-19.3,0-39.1-7.55-39.1-7.55s19.8-7.56,39.1-7.56m0-8c-20.54,0-41.09,7.75-42,8.08l-19.58,7.48L231.77,612c.86.33,21.41,8.08,42,8.08h2.17c9.91,0,16.79,0,21.92-.58a26.6,26.6,0,0,0,8.05-1.87c4.18-1.87,6.68-5.47,6.68-9.64,0-10.84-16.69-19-38.82-19Z"/><path class="j" d="M222.7,589.41c.27-.66,6.84-16.17,21.3-26.11,10.54-7.25,20.59-11.4,27.56-11.4a11.38,11.38,0,0,1,6.54,1.76,7.4,7.4,0,0,1,3.28,6.24c0,7.26-9.41,15.25-17.3,20.68-14.17,9.74-36,14.11-36.92,14.29l-7.33,1.44Z"/><path class="i" d="M271.56,555.9a7.5,7.5,0,0,1,4.27,1.06c4.3,2.95-.36,10.94-14,20.32s-35.42,13.66-35.42,13.66,6.22-15,19.88-24.34c10.38-7.14,19.58-10.7,25.29-10.7m0-8h0c-7.88,0-18.47,4.3-29.82,12.1-15.43,10.6-22.44,27.17-22.74,27.87l-5.74,13.8,14.67-2.88c1-.19,23.57-4.71,38.41-14.92,12.63-8.68,19-16.74,19-24a11.4,11.4,0,0,0-5-9.53,15.2,15.2,0,0,0-8.8-2.47Z"/><path class="j" d="M206.65,620.66c-14.84,0-26-6.55-26-15.23s11.19-15.24,26-15.24,26,6.55,26,15.24S221.49,620.66,206.65,620.66Z"/><path class="i" d="M206.65,594.19c12.17,0,22,5,22,11.24s-9.86,11.23-22,11.23-22-5-22-11.23,9.86-11.24,22-11.24m0-8a43,43,0,0,0-19.21,4.17c-6.88,3.5-10.82,9-10.82,15.07s3.94,11.56,10.82,15.07a46.43,46.43,0,0,0,38.42,0c6.88-3.51,10.82-9,10.82-15.07s-3.94-11.57-10.82-15.07a43.08,43.08,0,0,0-19.21-4.17Z"/><path class="h" d="M411.67,399.5a8.76,8.76,0,0,1-2.28-.3c-3.62-1-8.06-4.55-8.7-16.09-.45-8,1-18.51,4.2-30.38,6.62-24.62,25.13-46.1,25.92-47l5.39-6.2,1.55,8.07c.23,1.17,5.47,29-1.16,53.66C430.15,385.2,420.84,399.5,411.67,399.5Z"/><path class="i" d="M433.82,308.36s5.37,27.84-1.09,51.86c-6.07,22.55-14.56,35.28-21.06,35.28a4.7,4.7,0,0,1-1.24-.17c-6.63-1.78-8.14-17.54-1.68-41.56s25.07-45.41,25.07-45.41m4.75-17.65-10.78,12.4c-.81.93-19.9,23.08-26.77,48.58-3.3,12.28-4.8,23.22-4.33,31.65.78,13.92,6.77,18.4,11.66,19.72a12.83,12.83,0,0,0,3.32.44c6.31,0,12.2-4.37,17.5-13,4.29-7,8.2-16.72,11.29-28.21,6.86-25.51,1.45-54.25,1.22-55.46l-3.11-16.13Z"/><path class="h" d="M433.37,296.2c-.17-.89-4.17-22.16.89-41,2.4-8.9,9.12-29.61,19.77-29.61a7.68,7.68,0,0,1,2,.26c3.05.82,6.78,3.75,7.3,13,.34,6.15-.77,14.2-3.21,23.26-5.06,18.82-19.19,35.21-19.78,35.9l-5.4,6.2Z"/><path class="i" d="M454,229.61a3.59,3.59,0,0,1,.93.12c5,1.35,6.15,13.26,1.27,31.4s-18.94,34.31-18.94,34.31-4.06-21,.83-39.18c4.58-17,11-26.65,15.91-26.65m0-8h0c-12.94,0-20.36,20.41-23.63,32.57-5.3,19.7-1.14,41.85-1,42.78l3.11,16.13,10.78-12.39c.63-.72,15.34-17.79,20.64-37.49,2.55-9.47,3.7-17.95,3.33-24.52-.29-5.28-2-14.47-10.25-16.68a11.31,11.31,0,0,0-3-.4Z"/><path class="h" d="M338.61,337.62c-11.17,0-14.31-4.69-15.19-7.49-2.66-8.5,8.14-17.7,28.19-24a77.38,77.38,0,0,1,23-3.13,107.22,107.22,0,0,1,18.47,1.56l7.26,1.41-5.15,5.3c-.66.68-16.23,16.55-35,22.42-8.17,2.57-15.65,3.92-21.64,3.92Z"/><path class="i" d="M374.64,307a103.31,103.31,0,0,1,17.71,1.49S377,324.25,359.07,329.89c-8.17,2.56-15.13,3.73-20.46,3.73-6.39,0-10.43-1.69-11.37-4.69-1.73-5.5,7.59-13.33,25.57-19A74,74,0,0,1,374.64,307m0-8a81.41,81.41,0,0,0-24.23,3.31c-22.74,7.14-34.26,18-30.8,29,1.2,3.85,5.28,10.3,19,10.3,6.4,0,14.3-1.42,22.85-4.1,19.68-6.18,35.94-22.75,36.63-23.45l10.31-10.61-14.53-2.82A112.12,112.12,0,0,0,374.64,299Z"/><path class="h" d="M355.57,312.22c-1.07,0-2.14,0-3.17-.09-21-1.15-33.73-7.4-33.24-16.29.44-8,11.25-12.72,28.91-12.72,1.9,0,3.89.05,5.91.16,19.6,1.08,38.61,12.62,39.41,13.11l6.3,3.87L393,303.42c-.76.36-18.86,8.8-37.43,8.8Z"/><path class="i" d="M348.07,287.12c1.81,0,3.71.05,5.69.16,18.82,1,37.53,12.52,37.53,12.52s-17.84,8.42-35.72,8.42c-1,0-2,0-2.95-.08-18.82-1-29.78-6.32-29.46-12.08.28-5.16,9.49-8.94,24.91-8.94m0-8c-28.88,0-32.63,11.54-32.9,16.5-.21,3.75,1.13,10.76,12.38,15.6,6.21,2.66,14.72,4.36,24.63,4.9,1.1.06,2.25.1,3.39.1,19.45,0,38.34-8.81,39.14-9.18l13.38-6.32L395.48,293c-.84-.51-20.68-12.56-41.28-13.69-2.09-.11-4.16-.17-6.13-.17Z"/><path class="j" d="M354.5,363c-8.95,0-10.23-5.51-10.42-7.2-.94-8.84,5.42-16.46,21.95-26.31,14.7-8.76,33.85-9.44,39.36-9.44.9,0,1.39,0,1.39,0l7.11.26L410,326.26c-.51.78-12.83,19.29-30.12,28.58C370.22,360,361,363,354.5,363Z"/><path class="i" d="M405.39,324c.81,0,1.25,0,1.25,0S394.57,342.4,378,351.32c-9.7,5.21-18.06,7.67-23.46,7.67-3.84,0-6.18-1.25-6.44-3.63-.49-4.6.9-11.06,20-22.45C382,324.63,400.47,324,405.39,324m0-8c-5.77,0-25.83.73-41.4,10-18.11,10.78-25,19.53-23.88,30.17.53,5,4.62,10.78,14.39,10.78,7.22,0,16.9-3.06,27.25-8.62,18.17-9.77,31-29.09,31.57-29.91l7.81-11.86-14.21-.54s-.54,0-1.53,0Z"/><path class="j" d="M382.25,291.62a75.11,75.11,0,0,1-20.8-2.65c-20.19-5.84-31.19-14.79-28.72-23.35.85-2.93,4-7.84,16-7.84a77.88,77.88,0,0,1,20.8,3.44c18.85,5.46,34.77,21,35.44,21.64l5.27,5.19L403,289.62a107.46,107.46,0,0,1-20.71,2Z"/><path class="i" d="M348.69,261.78a73,73,0,0,1,19.68,3.29c18.1,5.24,33.76,20.64,33.76,20.64a104.23,104.23,0,0,1-19.88,1.91,71.77,71.77,0,0,1-19.69-2.49c-18.1-5.24-27.59-12.85-26-18.39.91-3.16,5.22-5,12.11-5m0-8c-6.23,0-17.09,1.39-19.8,10.73-3.21,11.09,8.55,21.68,31.45,28.31a79.23,79.23,0,0,0,21.91,2.8,112.37,112.37,0,0,0,21.57-2.09l14.46-3.14L407.74,280c-.7-.69-17.32-16.89-37.14-22.63a80.54,80.54,0,0,0-21.91-3.6Z"/><path class="j" d="M406.26,290.21C405.36,290,384,283.74,370,270c-15-14.69-20.5-27.78-14.28-34.15a9.32,9.32,0,0,1,6.93-2.68c7,0,17,5.89,27.54,16.16,14,13.72,20.75,34.92,21,35.81l2.2,7.07Z"/><path class="i" d="M362.61,237.2c5.49,0,14.49,5,24.75,15,13.48,13.17,20,34.14,20,34.14s-21.12-6-34.6-19.2-18.25-24.36-14.22-28.49a5.49,5.49,0,0,1,4.07-1.47m0-8a13.25,13.25,0,0,0-9.79,3.88c-2.62,2.69-6.24,8.85-.95,19.9,2.91,6.09,8.2,13,15.3,19.91,14.76,14.41,37.05,20.9,38,21.16l14.23,4.07L415,284c-.29-.94-7.29-23.07-22-37.49-15.41-15.06-25.63-17.3-30.34-17.3Z"/><path class="j" d="M424.86,295.16c-.38-.86-9.31-21.22-7.79-40.79,1.6-20.59,7.73-32.88,16.39-32.88l.66,0c8.88.7,13.38,14.14,11.76,35.1-1.53,19.57-13.49,38.31-14,39.1l-4,6.21Z"/><path class="i" d="M433.46,225.49h.35c5.75.45,9.54,12,8.08,30.8s-13.37,37.24-13.37,37.24-8.92-20.07-7.46-38.86c1.43-18.41,6.78-29.19,12.4-29.19m0-8c-8.32,0-13,7.8-15.08,12.44-2.71,6.11-4.54,14.45-5.29,24.13-1.6,20.57,7.72,41.83,8.12,42.73l6,13.52,8-12.43c.53-.83,13-20.39,14.62-41,1.85-23.77-3.92-38.5-15.43-39.39-.32,0-.65,0-1,0Z"/><path class="j" d="M383.45,388a8.76,8.76,0,0,1-4.9-1.41c-7.44-4.9-4.89-18.85,6.67-36.41,10.79-16.4,30.33-27,31.15-27.46l6.52-3.5-.64,7.37c-.08.93-2.11,23.07-12.9,39.47C400.17,380,390.73,388,383.45,388Z"/><path class="i" d="M418.27,326.24s-1.9,21.88-12.26,37.62c-8.7,13.22-17.2,20.14-22.56,20.14a4.8,4.8,0,0,1-2.7-.76c-4.82-3.17-2.55-15.12,7.81-30.86s29.71-26.14,29.71-26.14m9.25-14.05-13,7c-.86.46-21.26,11.55-32.6,28.78-5.45,8.29-9.16,16.14-10.7,22.71-2.81,11.93,2,17.17,5.17,19.24a12.86,12.86,0,0,0,7.1,2.07c11.85,0,23.41-14.87,29.24-23.74C424,351,426.15,327.91,426.24,326.93l1.28-14.74Z"/><path class="h" d="M424.25,288c-.79-.51-19.34-12.77-28.68-30-10-18.49-11.36-32.61-3.52-36.85a8.65,8.65,0,0,1,4.15-1c7.45,0,16.48,8.79,24.77,24.12,9.35,17.27,9.47,39.5,9.47,40.44v7.4Z"/><path class="i" d="M396.2,224.11c5.34,0,13.48,7.67,21.26,22,9,16.57,9,38.53,9,38.53s-18.38-12-27.35-28.59-10.21-28.67-5.14-31.42a4.63,4.63,0,0,1,2.25-.55m0-8a12.66,12.66,0,0,0-6.06,1.51c-3.3,1.79-8.58,6.6-6.8,18.72,1,6.68,4,14.83,8.71,23.55,9.82,18.14,29.19,30.94,30,31.48l12.38,8.09V284.67c0-1-.13-24.2-9.95-42.34-5.3-9.79-16-26.22-28.29-26.22Z"/><path class="j" d="M512,384.89c-7.06,0-17-6.45-27.3-17.7-13.25-14.48-18.76-36-19-36.93L464,323.08l7,2.43c.89.3,21.86,7.7,35.11,22.18,14.19,15.5,18.93,28.87,12.35,34.89A9.22,9.22,0,0,1,512,384.89Z"/><path class="i" d="M469.63,329.29s20.75,7.2,33.47,21.1,16.86,25.34,12.6,29.24a5.25,5.25,0,0,1-3.66,1.26c-5.45,0-14.38-5.51-24.35-16.4-12.72-13.9-18.06-35.2-18.06-35.2m-11.35-12.41,3.59,14.35c.24.95,6,23.44,19.92,38.66,15.13,16.53,25.45,19,30.25,19a13.13,13.13,0,0,0,9.06-3.36c8.52-7.8,4-22.95-12.1-40.54-13.93-15.22-35.82-22.94-36.74-23.26l-14-4.85Z"/><path class="j" d="M528.25,360.4c-6.65,0-15.84-2.81-25.88-7.93-17.5-8.9-30.22-27.13-30.75-27.9l-4.2-6.08,7.39-.2h.91c5.43,0,24.36.6,39.75,8.44,8.43,4.29,15.15,9,19.43,13.59,6.69,7.19,5.62,12.32,4.39,14.74S535.13,360.4,528.25,360.4Z"/><path class="i" d="M475.72,322.29c4.11,0,23,.43,37.94,8,16.79,8.55,24.68,17.81,22.07,22.95-1.06,2.07-3.66,3.16-7.48,3.16-5.67,0-14-2.39-24.07-7.49-16.79-8.55-29.27-26.62-29.27-26.62h.81m0-8h-1l-14.76.39,8.38,12.15c.55.81,13.84,19.84,32.22,29.2,10.75,5.47,20.33,8.36,27.7,8.36,9.38,0,13.18-4.72,14.61-7.53,5.23-10.29-4.33-22.89-25.58-33.71-16.18-8.23-35.9-8.87-41.56-8.87Z"/><path class="j" d="M481.54,397.45c-8.05,0-17.86-11.27-24.35-21.81-10.3-16.71-11.67-38.9-11.72-39.84l-.41-7.1,6.28,3.35c.85.45,20.9,11.3,30.53,28.59,9.36,16.82,11,26.6,5.79,33.77A7.39,7.39,0,0,1,481.54,397.45Z"/><path class="i" d="M449.46,335.58s19.75,10.54,28.91,27c10.83,19.44,8.79,25.72,6.06,29.45a3.39,3.39,0,0,1-2.89,1.41c-4.77,0-13.07-7.11-21-19.9-9.89-16.05-11.13-38-11.13-38m-8.79-13.76.8,14.21c.06,1,1.49,24.15,12.31,41.71,4.39,7.13,15.89,23.71,27.76,23.71a11.43,11.43,0,0,0,9.34-4.68c6.33-8.63,4.73-19.67-5.52-38.08S454.12,329,453.23,328.52l-12.56-6.7Z"/><path class="h" d="M525.3,330.59a81,81,0,0,1-19.15-2.69c-19-4.74-35.55-19.64-36.24-20.27l-5.46-5,7.16-1.84a107.42,107.42,0,0,1,24.29-2.86,71.64,71.64,0,0,1,17.23,1.93c9.17,2.28,16.78,5.35,22,8.87,8.13,5.5,8.25,10.74,7.59,13.37C541.92,325.28,538.61,330.59,525.3,330.59Z"/><path class="i" d="M495.9,301.94a67.79,67.79,0,0,1,16.26,1.81c18.29,4.55,28.06,11.8,26.67,17.39-.85,3.43-5.7,5.45-13.53,5.45A77.35,77.35,0,0,1,507.12,324c-18.29-4.55-34.51-19.35-34.51-19.35a104.4,104.4,0,0,1,23.29-2.73m0-8h0a112.51,112.51,0,0,0-25.29,3l-14.33,3.69,10.94,10c.72.66,17.95,16.22,38,21.2a84.85,84.85,0,0,0,20.11,2.81c16,0,20.22-7.22,21.29-11.52.91-3.64.91-10.78-9.23-17.64-5.6-3.79-13.64-7.05-23.27-9.45a76,76,0,0,0-18.19-2Z"/><path class="h" d="M490.67,309.24a107.9,107.9,0,0,1-23.89-2.75l-7.18-1.81,5.45-5c.69-.64,17.12-15.61,36.15-20.43a80.3,80.3,0,0,1,19.35-2.77c13.14,0,16.44,5.26,17.23,8.4.67,2.63.58,7.86-7.53,13.4-5.2,3.54-12.79,6.65-21.95,9A72.05,72.05,0,0,1,490.67,309.24Z"/><path class="i" d="M520.55,280.47c7.72,0,12.5,2,13.36,5.38,1.41,5.59-8.33,12.88-26.6,17.51a68.53,68.53,0,0,1-16.64,1.88,104.31,104.31,0,0,1-22.91-2.63s16.16-14.87,34.42-19.5a77.11,77.11,0,0,1,18.37-2.64m0-8h0a84.14,84.14,0,0,0-20.33,2.89c-20,5.07-37.16,20.7-37.88,21.36l-10.89,10,14.35,3.63a112.71,112.71,0,0,0,24.87,2.87,76.08,76.08,0,0,0,18.61-2.12c9.62-2.44,17.65-5.74,23.22-9.55,10.12-6.9,10.08-14,9.16-17.69-1.08-4.26-5.26-11.41-21.11-11.41Z"/><path class="h" d="M441.85,298.39c0-.94-1-23.15,7.51-40.84,7.73-16.08,16.49-25.3,24-25.3a8.53,8.53,0,0,1,3.74.84c8,3.86,7.36,18-1.74,37-8.5,17.7-26.44,30.83-27.2,31.38l-6,4.34Z"/><path class="i" d="M473.4,236.25a4.55,4.55,0,0,1,2,.45c5.2,2.49,4.55,14.65-3.62,31.63s-25.94,29.87-25.94,29.87-1.05-21.93,7.12-38.92c7.19-15,15.09-23,20.43-23m0-8h0c-12.53,0-22.7,17.27-27.64,27.57-8.94,18.59-7.95,41.78-7.9,42.76l.7,14.78,12-8.68c.8-.58,19.53-14.29,28.47-32.88,4.29-8.95,6.91-17.22,7.57-23.94,1.18-12.2-4.32-16.75-7.7-18.37a12.56,12.56,0,0,0-5.48-1.24Z"/><path class="h" d="M441.91,403.77c-8.63,0-14.71-12.73-15.87-33.22-1.11-19.6,8.25-39.77,8.65-40.62l3.14-6.69,3.88,6.3c.49.79,12.07,19.78,13.17,39.38.54,9.44-.14,17.61-2,23.63-2.84,9.4-7.81,11.06-10.52,11.21Z"/><path class="i" d="M438.31,331.63s11.52,18.7,12.58,37.51-3,30.3-8.73,30.63h-.25c-5.66,0-10.83-10.9-11.87-29.44-1.07-18.82,8.27-38.7,8.27-38.7m-.95-16.79-6.29,13.39c-.42.89-10.19,21.95-9,42.55.55,9.75,2.22,18.17,4.82,24.33,2,4.73,6.61,12.66,15,12.66.24,0,.47,0,.71,0,3.75-.21,10.57-2.32,14.12-14,2-6.46,2.7-15.11,2.14-25-1.17-20.6-13.25-40.42-13.76-41.25l-7.76-12.6Z"/><path class="j" d="M448.64,289.57c.47-.81,11.73-20,28.47-30.23,10.54-6.45,20.09-10,26.9-10,5.73,0,8.44,2.46,9.71,4.53,4.65,7.6-3.6,19.14-21.53,30.11-16.75,10.24-38.94,11.54-39.88,11.59l-7.39.39Z"/><path class="i" d="M504,253.34c3.07,0,5.24.89,6.3,2.62,3,4.92-4.14,14.77-20.21,24.61s-38,11-38,11,11-19,27.1-28.82c10.42-6.38,19.14-9.41,24.81-9.41m0-8h0c-9.66,0-21.1,5.76-29,10.58-17.59,10.77-29.35,30.79-29.84,31.64l-7.43,12.79,14.77-.79c1-.05,24.16-1.4,41.76-12.17,8.46-5.18,15.15-10.71,19.35-16,7.61-9.59,5.46-16.4,3.5-19.6-1.47-2.41-5.13-6.45-13.12-6.45Z"/><path class="h" d="M419.24,300.44c-1-.23-24.93-5.87-43.08-17.68-17.53-11.4-24.08-15.67-24.74-21a6.35,6.35,0,0,1,1.74-5.16c2.11-2.28,5.7-3.47,10.39-3.47s14.79,1.34,28.63,10.35c18.22,11.85,30.74,30,31.26,30.77l5.8,8.47Z"/><path class="i" d="M363.55,257.17c6.13,0,15.34,2.48,26.45,9.7,17.76,11.56,30.14,29.68,30.14,29.68s-24-5.58-41.8-17.14-25.47-16.59-22.25-20.05c1.21-1.3,3.78-2.19,7.46-2.19m0-8h0c-5.83,0-10.43,1.64-13.32,4.74a10.32,10.32,0,0,0-2.78,8.38c.88,7.14,7.87,11.68,26.53,23.82s43.32,18,44.35,18.23l20,4.64-11.58-17c-.55-.79-13.51-19.58-32.39-31.87-10.9-7.09-21.84-11-30.81-11Z"/><path class="j" d="M352.3,320.61c-4.64,0-13.26,0-14.68-6.22-.35-1.57-.31-4.06,1.93-7,4-5.24,15.08-11.68,33.38-12.62,1.51-.08,3.07-.12,4.66-.12,20.26,0,40.62,6.18,41.48,6.44l9.81,3-9.26,4.42c-.84.4-20.77,9.82-42.49,10.93-3.13.16-6.08.33-8.84.49C362,320.3,356.59,320.61,352.3,320.61Z"/><path class="i" d="M377.59,298.64c19.89,0,40.3,6.26,40.3,6.26s-19.8,9.46-41,10.55c-10.23.52-18.6,1.16-24.63,1.16-6.45,0-10.23-.73-10.78-3.11-1-4.61,10.45-13.66,31.62-14.75,1.47-.07,3-.11,4.45-.11m0-8h0c-1.65,0-3.29,0-4.86.12a70.89,70.89,0,0,0-22.61,4.68c-6.18,2.51-10.94,5.8-13.76,9.52a12.48,12.48,0,0,0-2.64,10.31c2.12,9.34,13.65,9.34,18.58,9.34,4.41,0,9.89-.31,16.22-.68,2.76-.16,5.7-.33,8.82-.49,22.5-1.16,43.14-10.9,44-11.32l18.52-8.85-19.62-6c-.88-.27-21.8-6.61-42.64-6.61Z"/><path class="h" d="M391.35,364.51a13.23,13.23,0,0,1-7.28-2.22,10.22,10.22,0,0,1-5-7.44c-.64-5.22,2.67-11.43,10.76-20.13,12.66-13.63,33.78-21.67,34.67-22l6.81-2.56-1.49,7.12c-.17.82-4.34,20.21-17.12,34C404.31,360.29,397.52,364.51,391.35,364.51Z"/><path class="i" d="M425.93,316.46s-4,19-16.14,32.05c-8.36,9-14.13,12-18.44,12a9.06,9.06,0,0,1-5.09-1.58c-4.7-3.05-5.65-8.39,6.52-21.49s33.15-21,33.15-21m10.81-12.61L423.11,309c-.93.35-22.89,8.72-36.19,23-9,9.64-12.6,16.84-11.8,23.34a14.16,14.16,0,0,0,6.77,10.3,17.15,17.15,0,0,0,9.46,2.87c7.35,0,15.08-4.62,24.3-14.55,13.53-14.56,17.93-35,18.11-35.86l3-14.25Z"/><path class="j" d="M449,380c-11.66,0-16.11-13.67-18.45-23.95-4.15-18.31,2-37.17,2.23-38l2.28-6.91,4.61,5.64c.61.74,14.84,18.29,19,36.42,2.63,11.59,2.38,18.62-.8,22.82a10.21,10.21,0,0,1-8,3.93Z"/><path class="i" d="M436.59,319.33s14.19,17.35,18.15,34.78.45,21.58-5.14,21.86l-.59,0c-5.4,0-10.73-4-14.55-20.84-3.95-17.43,2.13-35.82,2.13-35.82m-3-16.33L429,316.82c-.28.84-6.73,20.72-2.33,40.1,2.06,9.08,4.76,15.6,8.24,20A17.71,17.71,0,0,0,449,384c.33,0,.67,0,1,0a14.12,14.12,0,0,0,11-5.51c4-5.22,4.42-13.27,1.51-26.11-4.33-19-19.13-37.31-19.76-38.07L433.56,303Z"/><path class="h" d="M509,363.93c-5.06,0-11.88-4.5-24.27-12.68q-3.46-2.29-7.4-4.86c-18.22-11.86-30.74-30-31.26-30.77l-5.8-8.48,10,2.33c1,.23,24.93,5.87,43.08,17.67,15.36,10,21.74,21.15,22.55,27.67.45,3.67-.76,5.85-1.85,7A6.69,6.69,0,0,1,509,363.93Z"/><path class="i" d="M449.34,313.36s24,5.58,41.8,17.14,23.16,25.15,19.95,28.61a2.73,2.73,0,0,1-2.12.82c-4.69,0-14.57-7.18-29.49-16.89-17.76-11.56-30.14-29.68-30.14-29.68m-18.19-12.43,11.58,16.95c.55.79,13.5,19.58,32.39,31.86q3.93,2.56,7.38,4.85c13,8.6,20.21,13.34,26.47,13.34a10.76,10.76,0,0,0,8-3.37,12.49,12.49,0,0,0,2.89-10.24c-1-7.72-7.85-19.8-24.34-30.53-18.73-12.18-43.32-18-44.35-18.22l-20-4.64Z"/><path class="h" d="M491.89,315.26c-20.26,0-40.62-6.17-41.48-6.43l-9.81-3,9.26-4.43c.84-.4,20.77-9.81,42.49-10.93,1.53-.07,3-.11,4.52-.11,14.69,0,30.63,4.72,32.68,13.74a6.34,6.34,0,0,1-1.09,5.33c-3.22,4.26-11,4.66-31.91,5.73C495,315.23,493.48,315.26,491.89,315.26Z"/><path class="i" d="M496.87,294.35c18.33,0,27.81,6.34,28.78,10.62,1.05,4.61-8.14,5.1-29.31,6.18-1.47.08-3,.11-4.45.11-19.89,0-40.3-6.26-40.3-6.26s19.8-9.46,41-10.54c1.49-.08,2.93-.11,4.32-.11m0-8v0c-1.54,0-3.13,0-4.73.12-22.5,1.15-43.14,10.9-44,11.32l-18.52,8.84,19.62,6c.88.27,21.8,6.61,42.65,6.61,1.65,0,3.29,0,4.86-.12,22.24-1.14,30.56-1.56,34.9-7.3a10.27,10.27,0,0,0,1.8-8.64c-1.9-8.39-14-16.85-36.58-16.85Z"/><path class="h" d="M440.2,293.43c.09-.69,2.43-17.09,13.91-27.75,8.42-7.83,17.18-12.31,24-12.31a11.77,11.77,0,0,1,6.38,1.69,8.94,8.94,0,0,1,4.2,6.91c.53,5.72-3.64,13-11.75,20.56-11.21,10.41-31.07,15.14-31.91,15.34l-5.65,1.31Z"/><path class="i" d="M478.15,257.37a7.93,7.93,0,0,1,4.25,1.07c4.81,3,2.42,11.35-8.14,21.16S444.16,294,444.16,294s2.11-15.55,12.67-25.36c8.07-7.5,15.92-11.24,21.32-11.24m0-8c-7.86,0-17.61,4.87-26.76,13.38-12.52,11.62-15.05,29.39-15.16,30.14l-1.56,11.51L446,301.76c.88-.21,21.75-5.17,33.73-16.3,9.17-8.52,13.66-16.77,13-23.87a12.86,12.86,0,0,0-6-9.91,15.65,15.65,0,0,0-8.52-2.31Z"/><path class="j" d="M429.68,293.72c-.63-.59-15.44-14.64-19.91-29.27-3.24-10.59-3.18-19,.15-23.68a9,9,0,0,1,7.1-3.87h.37c8,0,16.08,9.6,20.62,24.46s-1.62,30.34-1.89,31l-2.21,5.37Z"/><path class="i" d="M417.39,240.89c5.65,0,12.64,8,16.8,21.62,4.21,13.79-1.77,28.3-1.77,28.3s-14.61-13.75-18.83-27.53-2.11-22.17,3.58-22.39h.22m0-8h-.52a12.85,12.85,0,0,0-10.2,5.55c-4.13,5.8-4.38,15.19-.73,27.17,4.78,15.63,20.34,30.4,21,31l8.46,7.95,4.42-10.73c.29-.7,7-17.35,2-33.68-5.15-16.83-14.51-27.29-24.45-27.29Z"/><path class="h" d="M422.82,289.61c-.63-.31-15.62-7.74-24-17.62-4.77-5.59-10.14-13.45-8.62-19.09a6.48,6.48,0,0,1,4.2-4.54,8.18,8.18,0,0,1,2.7-.44c5.56,0,13.41,5.32,21,14.22,8.64,10.15,10.4,22.82,10.47,23.35l1,7.42Z"/><path class="i" d="M397.07,251.92c4,0,10.88,4.51,18,12.82,8,9.36,9.55,21.28,9.55,21.28s-14.77-7.26-22.75-16.62-9.77-16-6.13-17.26a4,4,0,0,1,1.37-.22m0-8h0a12.21,12.21,0,0,0-4,.67,10.49,10.49,0,0,0-6.73,7.28c-1.61,5.95,1.48,13.39,9.43,22.72,8.95,10.5,24.65,18.28,25.31,18.61l13.42,6.59-2-14.82c-.07-.58-2-14.39-11.39-25.42-5-5.84-14.71-15.63-24.05-15.63Z"/><path class="h" d="M436.18,287.39c-.24-.53-5.79-13.28-2.9-24,2.69-10,8.24-16.2,14.5-16.2a9.44,9.44,0,0,1,2.36.31c3.6,1,6.27,4.05,7.34,8.45.92,3.81.67,8.57-.72,13.75-2.89,10.76-14.1,19-14.57,19.34l-4,2.91Z"/><path class="i" d="M447.78,251.16a4.94,4.94,0,0,1,1.32.18c4.35,1.17,6.35,7.78,3.8,17.29s-13.06,17.14-13.06,17.14-5.26-11.86-2.7-21.37c2.3-8.56,6.62-13.24,10.64-13.24m0-8h0c-8.15,0-15.19,7.34-18.36,19.16s2.45,25.21,3.1,26.69l4,9.06,8-5.82c1.31-.95,12.88-9.64,16.08-21.54,4.26-15.82-1.67-25-9.44-27.1a13.07,13.07,0,0,0-3.4-.45Z"/><path class="j" d="M407.82,298.54a88.46,88.46,0,0,1-22.22-2.61l-.78-.21c-6.82-1.83-12.21-3.28-15.95-4.7-2.19-.83-8.87-3.36-7.39-8.86,1.13-4.21,6.88-6.73,15.36-6.73a53.42,53.42,0,0,1,13.75,1.95c14.38,3.87,27.33,13.18,27.87,13.58l8.49,6.15-10.43,1.07C416.38,298.19,412.92,298.54,407.82,298.54Z"/><path class="i" d="M376.84,279.43a49.6,49.6,0,0,1,12.71,1.81c13.84,3.73,26.57,13,26.57,13s-3.34.34-8.3.34a84,84,0,0,1-21.18-2.47c-13.84-3.72-22.1-5.88-21.3-8.87.53-1.95,4.78-3.77,11.5-3.77m0-8h0c-10.56,0-17.57,3.53-19.22,9.69a9.83,9.83,0,0,0,3.74,10.43,22.28,22.28,0,0,0,6.09,3.21c3.93,1.49,9.4,3,16.32,4.83l.79.21a93.12,93.12,0,0,0,23.26,2.74c5.3,0,9-.37,9.11-.38L437.78,300l-17-12.3c-.57-.41-14.09-10.14-29.18-14.2a57,57,0,0,0-14.78-2.09Z"/><path class="h" d="M382.43,327.18c-3.93,0-6.67-1-8.39-3a6.63,6.63,0,0,1-1.31-6.22c1.32-4.94,7.8-9.89,17.32-13.25,7.8-2.76,17.39-3.34,24.06-3.34,3.31,0,5.47.15,5.56.16l7.46.51L422.56,308c-.33.43-8.21,10.51-20.77,14.94C396.27,324.85,388.43,327.18,382.43,327.18Z"/><path class="i" d="M414.11,305.37c3.2,0,5.29.15,5.29.15s-7.35,9.52-18.94,13.61c-7.3,2.58-13.68,4.05-18,4.05-2.56,0-4.42-.51-5.35-1.6-2.51-2.94,2.71-9,14.3-13.1,7.46-2.64,16.93-3.11,22.73-3.11m0-8c-7,0-17.06.62-25.39,3.57-10.93,3.85-18.16,9.68-19.86,16a10.69,10.69,0,0,0,2.13,9.85c2.49,2.92,6.34,4.41,11.44,4.41,6.56,0,14.88-2.45,20.69-4.5,13.67-4.83,22.25-15.81,22.61-16.28l9.13-11.84-14.91-1c-.1,0-2.4-.17-5.84-.17Z"/><path class="j" d="M424.1,353.18a8.34,8.34,0,0,1-2.24-.29c-7.15-1.92-10.53-12.59-7.52-23.77,2.93-10.91,15.52-18.83,16.05-19.17L434,307.7l2,3.77c.3.56,7.21,13.72,4.27,24.63C437.64,346,430.82,353.18,424.1,353.18Z"/><path class="i" d="M432.5,313.35s6.5,12.2,3.94,21.71c-2.33,8.68-8.05,14.12-12.34,14.12a4.75,4.75,0,0,1-1.2-.15c-4.35-1.17-7.26-9.36-4.7-18.87s14.3-16.81,14.3-16.81m3-11.31-7.26,4.52c-1.48.91-14.52,9.31-17.8,21.52-3.65,13.54.9,26.14,10.35,28.68a12.69,12.69,0,0,0,3.27.42c8.5,0,16.94-8.42,20.07-20,3.28-12.21-3.79-26-4.61-27.55l-4-7.55Z"/><path class="h" d="M475.19,352.41c-5.16,0-12.2-5.19-20.93-15.43s-10.4-22.81-10.47-23.35l-1-7.41,6.71,3.3c.63.31,15.62,7.74,24,17.61,6.55,7.68,9.66,15.22,8.34,20.15a6.64,6.64,0,0,1-4.26,4.72A7.27,7.27,0,0,1,475.19,352.41Z"/><path class="i" d="M447.76,313.11s14.77,7.26,22.75,16.62S480,347,476.3,348.23a3.31,3.31,0,0,1-1.11.18c-3.91,0-10.65-5.54-17.88-14-8-9.36-9.55-21.28-9.55-21.28m-9.89-13.78,2,14.83c.07.58,2,14.39,11.39,25.42,14.35,16.83,21.59,16.83,24,16.83a11.4,11.4,0,0,0,3.78-.63,10.72,10.72,0,0,0,6.78-7.46c1.69-6.3-1.64-15-9.15-23.78-9-10.5-24.65-18.29-25.31-18.61l-13.42-6.6Z"/><path class="j" d="M502.65,326.27c-4.08,0-10.46-1.72-20.11-4.31l-.79-.22c-14.38-3.86-27.33-13.18-27.87-13.57L445.39,302,455.82,301c.14,0,3.6-.36,8.7-.36a88.86,88.86,0,0,1,22.22,2.6c14.55,3.91,24.56,12.15,22.79,18.74C509.17,323.24,507.8,326.27,502.65,326.27Z"/><path class="i" d="M464.52,304.59a84.44,84.44,0,0,1,21.18,2.46c13.84,3.73,20.77,10.85,20,13.84-.26,1-1.28,1.38-3,1.38-3.66,0-10.47-1.86-19.86-4.39-13.84-3.72-26.57-12.95-26.57-12.95s3.34-.34,8.3-.34m0-8h0c-5.3,0-9,.36-9.11.38l-20.85,2.13,17,12.31c.57.41,14.09,10.14,29.18,14.2l.79.21c10,2.68,16.54,4.45,21.15,4.45,8.14,0,10.28-5.59,10.74-7.3.77-2.88.86-8.67-7.3-15-3.29-2.57-9.14-6.14-18.31-8.61a92.6,92.6,0,0,0-23.26-2.74Z"/><path class="j" d="M458.23,297.75c-3.31,0-5.47-.15-5.56-.15l-7.46-.52,4.57-5.91c.33-.43,8.21-10.51,20.77-14.95a54.19,54.19,0,0,1,17.31-3.49c4.75,0,8.15,1.17,10.11,3.46a6.5,6.5,0,0,1,1.36,6c-1.52,5.64-10.1,9.74-17,12.19C474.49,297.17,464.9,297.75,458.23,297.75Z"/><path class="i" d="M487.86,276.73c3.45,0,5.93.72,7.07,2.06,2.5,2.94-2.38,7.76-14,11.86-7.46,2.63-16.93,3.1-22.73,3.1-3.2,0-5.29-.14-5.29-.14s7.35-9.52,18.94-13.62a50.36,50.36,0,0,1,16-3.26m0-8h0a58.15,58.15,0,0,0-18.64,3.72c-13.67,4.82-22.25,15.81-22.61,16.27l-9.13,11.84,14.91,1c.1,0,2.4.16,5.84.16,7,0,17.06-.62,25.39-3.56,11.57-4.08,18-9,19.57-14.92A10.48,10.48,0,0,0,501,273.6c-2.75-3.23-7.17-4.87-13.14-4.87Z"/><path class="j" d="M441.44,313.29a33.28,33.28,0,0,1-8.64-1.19,30.06,30.06,0,0,1-12.17-6.26c-3.75-3.38-5.27-7.27-4.28-10.94,1.32-4.9,6.63-7.82,14.21-7.82a33.41,33.41,0,0,1,8.65,1.19,30.11,30.11,0,0,1,12.17,6.25c3.74,3.39,5.26,7.27,4.27,11C454.34,310.37,449,313.29,441.44,313.29Z"/><path class="i" d="M430.56,291.08a29.78,29.78,0,0,1,7.61,1.05c8.72,2.35,14.82,7.85,13.62,12.3-.83,3.09-5,4.86-10.35,4.86a29.31,29.31,0,0,1-7.6-1.06c-8.72-2.34-14.82-7.85-13.63-12.29.84-3.1,5-4.86,10.35-4.86m0-8h0c-9.36,0-16.28,4.13-18.07,10.78C410,303,418.13,312.3,431.76,316a37.35,37.35,0,0,0,9.68,1.33c9.36,0,16.29-4.13,18.08-10.78,2.46-9.14-5.65-18.44-19.27-22.1a37.48,37.48,0,0,0-9.69-1.33Z"/></svg>