<svg xmlns="http://www.w3.org/2000/svg" width="510" height="900" viewBox="0 0 510 900"><defs><style>.a,.d{fill:#56634a;}.b,.c,.g{fill:none;}.b,.c,.d,.e,.f,.g{stroke:#432d1e;}.b,.c,.d,.g{stroke-miterlimit:10;}.b,.d,.e,.f{stroke-width:8px;}.c,.e,.f,.g{stroke-linecap:round;}.c{stroke-width:4px;}.e,.j{fill:#ffdc82;}.e,.f{stroke-linejoin:round;}.f,.h{fill:#e37f49;}.g{stroke-width:5px;}.i{fill:#432d1e;}</style></defs><title>93</title><path class="a" d="M517.36,145.06c-7.34-12.15-10.32-4.25-26.86-2.33-8.34,1-17.05,6.64-26.9,9.78-8.58,2.73-19,2.89-27.47,8.07-8.83,5.42-13.57,15.33-19.64,22.78-6.75,8.29-15.28,15.09-19.16,23.21-7.39,15.49-15.43,15.67-6.67,27.81,7.92,11,9.66,1.52,25.26-3.33,7.53-2.34,14.79-9.18,23.94-13.25,7.77-3.46,17.76-4.07,25.84-9,8.37-5.13,13.27-14.27,19.64-20.48,7.36-7.18,16.43-12.07,21.22-18.84C516.14,155.92,524.64,157.1,517.36,145.06Z"/><path class="b" d="M517.36,145.06c-7.34-12.15-10.32-4.25-26.86-2.33-8.34,1-17.05,6.64-26.9,9.78-8.58,2.73-19,2.89-27.47,8.07-8.83,5.42-13.57,15.33-19.64,22.78-6.75,8.29-15.28,15.09-19.16,23.21-7.39,15.49-15.43,15.67-6.67,27.81,7.92,11,9.66,1.52,25.26-3.33,7.53-2.34,14.79-9.18,23.94-13.25,7.77-3.46,17.76-4.07,25.84-9,8.37-5.13,13.27-14.27,19.64-20.48,7.36-7.18,16.43-12.07,21.22-18.84C516.14,155.92,524.64,157.1,517.36,145.06Z"/><path class="c" d="M402.52,223s31.46-37.1,97.05-69.08"/><path class="c" d="M443.6,187.09s11.24,1,27.74-3.22"/><path class="c" d="M443.64,187.15s1.82-9.18,9.87-20.68"/><path class="c" d="M416,208.12s1.22-6.93,6.47-16.16"/><path class="c" d="M469.9,169.94s8.41,1.22,21-1.31"/><path class="c" d="M469.9,169.94s2.71-6.5,9.85-14.35"/><path class="c" d="M416.19,208.38s8,1.25,20-1"/><path class="a" d="M216.19,196.69c2.8-13.92,13.1-2.81,29.32-6.6,8.18-1.9,17.24-7.41,27.57-7.79,9-.33,18.21,4.2,27.9,6.21,10.14,2.11,20.85,2.5,29.08,7.46,9.15,5.52,14.6,15.29,21,21.63,12.2,12.07,26.48,7.78,22.35,22.16-3.74,13-12.6-.39-28.92.32-7.88.35-17.14,4.35-27.13,3.61-8.48-.62-17-5.72-26.27-7.65-9.61-2-19.79-1.38-27.88-5.08-9.35-4.27-15.6-12.71-22.39-17.46C227.22,204,213.42,210.48,216.19,196.69Z"/><path class="b" d="M216.19,196.69c2.8-13.92,13.1-2.81,29.32-6.6,8.18-1.9,17.24-7.41,27.57-7.79,9-.33,18.21,4.2,27.9,6.21,10.14,2.11,20.85,2.5,29.08,7.46,9.15,5.52,14.6,15.29,21,21.63,12.2,12.07,26.48,7.78,22.35,22.16-3.74,13-12.6-.39-28.92.32-7.88.35-17.14,4.35-27.13,3.61-8.48-.62-17-5.72-26.27-7.65-9.61-2-19.79-1.38-27.88-5.08-9.35-4.27-15.6-12.71-22.39-17.46C227.22,204,213.42,210.48,216.19,196.69Z"/><path class="c" d="M354.54,231.92s-42.17-24.27-114.71-32.17"/><path class="c" d="M303.75,212.07s-10.25,4.76-27.2,6.36"/><path class="c" d="M303.73,212.14s-4.83-8-16.29-16.12"/><path class="c" d="M336.82,222.52s-3.49-6.11-11.54-13"/><path class="c" d="M273.18,204.83s-7.49,4-20.16,5.87"/><path class="c" d="M273.18,204.83s-4.74-5.19-14.12-10.16"/><path class="c" d="M336.74,222.83s-7.1,3.88-19.14,5.79"/><path class="d" d="M401.91,129l-76,18.81c-4.21,1-5.25,5.5-1.63,6.95,0,0,17.31,16.22,37.29,17.29a11,11,0,0,0,.66,2.21l11.21,60.25a18.24,18.24,0,0,1,1.34,8.7l1.62,69.86a23.43,23.43,0,0,1-3.15,9.75L355.4,412.07c-8.65,14.84,2.92,14.15,2.92,14.15a10.75,10.75,0,0,0,16.13-4.06l19.85-98.6-3.25-91.69-8.71-65.17v0c16.72-10.44,24.26-32.29,24.26-32.29C409.12,131.42,406.11,128,401.91,129Z"/><path class="e" d="M471.49,156.37c-9.37-26-32.83-42.41-69-43.78L388.24,130C425.05,125.6,455.22,133.94,471.49,156.37Z"/><path class="e" d="M403.53,85.84c-18.6,20-23.4,45.72-23.4,45.72s25.34-6.63,43.93-26.61,23.4-45.72,23.4-45.72S422.12,65.86,403.53,85.84Z"/><path class="f" d="M409.66,97.11c-23.07,14.57-34.29,38.24-34.29,38.24s26.2.05,49.27-14.52,34.29-38.25,34.29-38.25S432.73,82.53,409.66,97.11Z"/><path class="f" d="M276.35,204.65c-3.84-27.39,9.27-52.83,40.6-70.89l20.74,8.72C303.09,155.78,280.29,177.22,276.35,204.65Z"/><path class="f" d="M303.59,110.56c25.76,9,42,29.54,42,29.54s-25.51,6-51.28-3-42-29.55-42-29.55S277.82,101.56,303.59,110.56Z"/><path class="e" d="M303.42,123.39c27.2,2.14,48.16,17.85,48.16,17.85s-23.15,12.25-50.36,10.12-48.16-17.85-48.16-17.85S276.21,121.26,303.42,123.39Z"/><path class="f" d="M385.41,22.36c23.95,34.88,24.22,71.45-4.58,102.9L347.49,119C383.9,93,399.14,59.24,385.41,22.36Z"/><path class="e" d="M416.23,31.82c11.48,33.19,1.3,68.13-33.44,98.33l-28.05-5.78C394.74,99.3,418,67,416.23,31.82Z"/><path class="e" d="M353.68,32.37c30.61,23.56,41.08,55.28,24.81,90.76l-30.77,4C372.13,94.2,376,60.56,353.68,32.37Z"/><path class="e" d="M290,46c-4.92,42,11.89,74.5,52,88.89l26.58-21.06C324.28,107.74,295.07,85,290,46Z"/><path class="f" d="M267.16,68.7c5.32,34.71,30.62,60.87,75.43,71.39l22.13-18.19C317.64,118.37,282,100.63,267.16,68.7Z"/><path class="e" d="M322.75,40c-16.08,35.12-10.56,68.06,20.37,91.86l29.08-10.82C335.26,103.32,316.19,75.34,322.75,40Z"/><path class="f" d="M339.24,38.74s-9.06,85.12,10.94,99.65c5.49,4,22.84-.3,25.84-6.39C386.93,109.82,339.24,38.74,339.24,38.74Z"/><path class="d" d="M276.57,712.35l75.68-41.63c4.19-2.3,8.38.53,6.52,4.41,0,0-1.89,26.1-17.29,41.91a11.49,11.49,0,0,1,1.12,2.28l36,57.22A20.05,20.05,0,0,0,384,784.6l25,22.54a26,26,0,0,0,9.85,5.55L477,846.26,471.52,830a20.85,20.85,0,0,0-5.7-8.79l-41.63-59.83a11.67,11.67,0,0,1-1.8-2.06c-22.66,9.65-49.71,1.27-49.71,1.27-4.72.38-5.72-5.07-1.56-8.48l75.13-61.71c4.16-3.42,9.17-1.26,7.8,3.35,0,0,2.24,28-11.23,48.45l0,0,41.24,66.56,24,57.75,4.36,35.85-25.17.94-2.91-26.19c.08-.65.13-1.3.16-2a11.7,11.7,0,0,1-5.67-.79l-76.55-45.31-40-41.46-41.69-59.32v0c-21.36,4-43.82-8-43.82-8C272.53,719.7,272.38,714.65,276.57,712.35Z"/><path class="a" d="M-40.65,422.23c1.34-13.08,12-3.6,26.63-8.54,7.36-2.5,15.15-8.67,24.64-9.94,8.26-1.11,17.17,2.53,26.28,3.52,9.53,1,19.51.15,27.54,4,8.93,4.27,14.66,13,21.13,18.3,12.32,10,25.34,4.72,22.82,18.34-2.29,12.33-11.82.59-26.8,2.71-7.22,1-15.37,5.83-24.65,6.05-7.87.19-16.14-4.05-24.87-5-9-1-18.43.79-26.22-1.9-9-3.09-15.39-10.59-22.08-14.36C-29.6,427.87-42,435.19-40.65,422.23Z"/><path class="b" d="M-40.65,422.23c1.34-13.08,12-3.6,26.63-8.54,7.36-2.5,15.15-8.67,24.64-9.94,8.26-1.11,17.17,2.53,26.28,3.52,9.53,1,19.51.15,27.54,4,8.93,4.27,14.66,13,21.13,18.3,12.32,10,25.34,4.72,22.82,18.34-2.29,12.33-11.82.59-26.8,2.71-7.22,1-15.37,5.83-24.65,6.05-7.87.19-16.14-4.05-24.87-5-9-1-18.43.79-26.22-1.9-9-3.09-15.39-10.59-22.08-14.36C-29.6,427.87-42,435.19-40.65,422.23Z"/><path class="c" d="M90.15,442.34S49.12,423.75-18.44,423"/><path class="c" d="M41.56,428.59s-9,5.3-24.49,8.29"/><path class="c" d="M41.55,428.66s-5.16-7-16.45-13.41"/><path class="c" d="M73,435.26a51.69,51.69,0,0,0-11.8-11"/><path class="c" d="M12.75,424.65S6.2,429-5.31,431.86"/><path class="c" d="M12.75,424.65a52,52,0,0,0-13.92-8.11"/><path class="c" d="M72.93,435.55s-6.19,4.21-17.12,7.05"/><path class="a" d="M232.6,348.87c-7.85-10.54-9.8-3.23-24.87,0-7.6,1.65-15,7.93-23.83,11.7-7.66,3.29-17.43,4.12-24.74,9.64-7.65,5.78-10.92,15.55-15.85,23-5.48,8.24-13,15.13-15.84,23-5.43,14.93-12.57,15.77-3.41,26.17,8.28,9.42,9,.78,22.93-5.09,6.73-2.83,12.67-10.05,20.75-14.62,6.85-3.88,16.16-5.09,23.16-10.39,7.26-5.48,10.76-14.54,16.07-20.84,6.14-7.28,14.3-12.43,18.11-19.1C232.7,359,240.39,359.31,232.6,348.87Z"/><path class="b" d="M232.6,348.87c-7.85-10.54-9.8-3.23-24.87,0-7.6,1.65-15,7.93-23.83,11.7-7.66,3.29-17.43,4.12-24.74,9.64-7.65,5.78-10.92,15.55-15.85,23-5.48,8.24-13,15.13-15.84,23-5.43,14.93-12.57,15.77-3.41,26.17,8.28,9.42,9,.78,22.93-5.09,6.73-2.83,12.67-10.05,20.75-14.62,6.85-3.88,16.16-5.09,23.16-10.39,7.26-5.48,10.76-14.54,16.07-20.84,6.14-7.28,14.3-12.43,18.11-19.1C232.7,359,240.39,359.31,232.6,348.87Z"/><path class="c" d="M133.85,430.84s25.68-37,83.26-72.35"/><path class="c" d="M168.5,394.12s10.46-.08,25.28-5.46"/><path class="c" d="M168.55,394.17s.86-8.63,7.24-19.95"/><path class="c" d="M145,416a51.75,51.75,0,0,1,4.51-15.47"/><path class="c" d="M191.21,376s7.86.38,19.21-3.08"/><path class="c" d="M191.21,376a51.88,51.88,0,0,1,7.8-14.1"/><path class="c" d="M145.15,416.18s7.48.44,18.31-2.73"/><path class="d" d="M53.45,363.46l71.08-14.36c3.93-.8,6.58,2.52,4.12,5.16,0,0-8.06,20.44-24.37,29.25a10.45,10.45,0,0,1,.33,2.1l14.47,54.87a16.8,16.8,0,0,0,2.33,7.81l26.31,59.11a21.68,21.68,0,0,0,6.49,6.92L204.47,582c13.12,9,3.17,13,3.17,13a10,10,0,0,1-15.11,3l-55.67-74.67-33.58-78-18.52-58v0c-18.12-2.11-33.09-17.42-33.09-17.42C48.38,368.34,49.52,364.26,53.45,363.46Z"/><path class="a" d="M349.8,544.47c1.84,3.89-1.46,12.95,2.48,17.87,3.45,4.3,13.36,3.46,16.88,7.29,5.55,6.06,4.45,16.28,5.54,17.42s11.41.57,17.33,6.5c3.72,3.72,2.5,13.64,6.73,17.35,4.73,4.16,14,1.35,18,3.55,9.15,5.09,16.36,15.87,26.07,17.5,10.58,1.79,20.78-6.29,30.08-8.48,10.65-2.51,23.82-1.17,29.93-8.7,4.75-5.86,0-15.23.3-22.2.25-6.72,6.06-15.4,2.53-22.13-3.06-5.83-15-9.89-20.63-15,6.42-6.73,19.14-11.53,23.05-18.5,4.73-8.43.05-19.08.69-26.76.78-9.35,5.24-20.14-.77-26.44s-18.05-3-28.49-3.7c-8.42-.61-18.67-7.31-28.49-4.54-8.47,2.39-16.51,13.83-25.11,18.58-5-6.05-8.5-18.45-14.8-22.11-6.79-3.95-16.49,1.05-23.8.33-7.56-.74-16.41-7.24-23.44-4-8.83,4.06-10.41,16.4-14.84,24.88-4.19,8-13.82,15.77-13.54,25.73C335.73,527.87,345.51,535.43,349.8,544.47Z"/><path class="b" d="M349.8,544.47c1.84,3.89-1.46,12.95,2.48,17.87,3.45,4.3,13.36,3.46,16.88,7.29,5.55,6.06,4.45,16.28,5.54,17.42s11.41.57,17.33,6.5c3.72,3.72,2.5,13.64,6.73,17.35,4.73,4.16,14,1.35,18,3.55,9.15,5.09,16.36,15.87,26.07,17.5,10.58,1.79,20.78-6.29,30.08-8.48,10.65-2.51,23.82-1.17,29.93-8.7,4.75-5.86,0-15.23.3-22.2.25-6.72,6.06-15.4,2.53-22.13-3.06-5.83-15-9.89-20.63-15,6.42-6.73,19.14-11.53,23.05-18.5,4.73-8.43.05-19.08.69-26.76.78-9.35,5.24-20.14-.77-26.44s-18.05-3-28.49-3.7c-8.42-.61-18.67-7.31-28.49-4.54-8.47,2.39-16.51,13.83-25.11,18.58-5-6.05-8.5-18.45-14.8-22.11-6.79-3.95-16.49,1.05-23.8.33-7.56-.74-16.41-7.24-23.44-4-8.83,4.06-10.41,16.4-14.84,24.88-4.19,8-13.82,15.77-13.54,25.73C335.73,527.87,345.51,535.43,349.8,544.47Z"/><line class="g" x1="396.29" y1="569.95" x2="488.75" y2="499.02"/><path class="g" d="M462.71,518.89a53.62,53.62,0,0,0,30.76,2.83"/><path class="g" d="M462.69,518.91a39.39,39.39,0,0,1,1.92-27.68"/><path class="g" d="M439.39,536.74a71.85,71.85,0,0,0,41.28,3.79"/><path class="g" d="M439.37,536.77A52.83,52.83,0,0,1,442,499.62"/><path class="g" d="M421,550.81s25.32,13.78,55.3,10.1"/><path class="g" d="M420.93,550.84s-11.05-24.61-2.1-50.48"/><line class="g" x1="396.29" y1="569.95" x2="476.6" y2="603.91"/><path class="g" d="M454,594.42s10.5-8.59,24.76-10.14"/><path class="g" d="M454,594.41s-2.89,11.76,3.62,22"/><path class="g" d="M433.71,585.88s14.1-11.52,33.23-13.6"/><path class="g" d="M433.69,585.87s-3.88,15.79,4.87,29.5"/><line class="g" x1="396.29" y1="569.95" x2="371.18" y2="493.64"/><path class="g" d="M378.16,515.13s11.09-8,15-20.35"/><path class="g" d="M378.17,515.14s-13.42.75-23.69-6.59"/><path class="g" d="M384.46,534.37s14.89-10.7,20.13-27.31"/><path class="g" d="M384.48,534.39s-18,1-31.8-8.84"/><path class="a" d="M196.61,589.85c-.18,4.87-9.44,10.22-11.35,17.1-1.67,6,3.91,14.65,2,20.21-3.08,8.78-13.41,13.12-14,14.79s4.28,11.85.77,20.65c-2.21,5.54-12.13,8.48-14.87,14.23-3.07,6.44.44,16.55-2.68,20.59-7.25,9.38-21.31,11.43-30.68,17.47-10.21,6.58-18.33,18.3-29,20.17-12.2,2.14-22.81-6.54-32.53-11.65-7.56-4-18.51-4.62-21.9-11.76-3.25-6.88,3-16.31,3.71-24.88.58-7.44-4.9-13.77-1.33-21.62C35,661,32.42,651.05,25.24,645.54c-8.68-6.66-21.29-9-25.39-16.76-5-9.38,1.08-19.64,4.53-28.87s5.55-21.7,16.08-27.13c8.49-4.39,21.18.1,32.64-1.4,9.88-1.29,18.15-8.92,29.22-7.82,2.53-8.54,11.55-10.41,16.47-17,5.3-7.13,6.66-18.83,13.95-22.83,7.53-4.15,17.73,1.14,26.49,1.36,11,.28,23.75-2.72,32.15,4.13,7.94,6.48,8.1,20,12.26,30.48C187.39,569.12,197,578.52,196.61,589.85Z"/><path class="b" d="M196.61,589.85c-.18,4.87-9.44,10.22-11.35,17.1-1.67,6,3.91,14.65,2,20.21-3.08,8.78-13.41,13.12-14,14.79s4.28,11.85.77,20.65c-2.21,5.54-12.13,8.48-14.87,14.23-3.07,6.44.44,16.55-2.68,20.59-7.25,9.38-21.31,11.43-30.68,17.47-10.21,6.58-18.33,18.3-29,20.17-12.2,2.14-22.81-6.54-32.53-11.65-7.56-4-18.51-4.62-21.9-11.76-3.25-6.88,3-16.31,3.71-24.88.58-7.44-4.9-13.77-1.33-21.62C35,661,32.42,651.05,25.24,645.54c-8.68-6.66-21.29-9-25.39-16.76-5-9.38,1.08-19.64,4.53-28.87s5.55-21.7,16.08-27.13c8.49-4.39,21.18.1,32.64-1.4,9.88-1.29,18.15-8.92,29.22-7.82,2.53-8.54,11.55-10.41,16.47-17,5.3-7.13,6.66-18.83,13.95-22.83,7.53-4.15,17.73,1.14,26.49,1.36,11,.28,23.75-2.72,32.15,4.13,7.94,6.48,8.1,20,12.26,30.48C187.39,569.12,197,578.52,196.61,589.85Z"/><line class="g" x1="151.09" y1="636.78" x2="23.23" y2="604.26"/><path class="g" d="M59.2,613.31A60.62,60.62,0,0,1,28.46,630"/><path class="g" d="M59.22,613.32a44.54,44.54,0,0,0-14.35-27.94"/><path class="g" d="M91.43,621.47s-15.09,16.94-41.27,22.37"/><path class="g" d="M91.46,621.49A59.8,59.8,0,0,0,72.19,584"/><path class="g" d="M116.89,627.88s-20.2,25.64-53,35.19"/><path class="g" d="M116.92,627.91s.52-30.54-20.34-53.47"/><line class="g" x1="151.09" y1="636.78" x2="82.69" y2="707.96"/><path class="g" d="M102,688s-14.76-4.25-30.29.5"/><path class="g" d="M102,688s8.25,10.95,6,24.49"/><path class="g" d="M119.27,670.07s-19.81-5.71-40.65.67"/><path class="g" d="M119.28,670s11.08,14.7,8.1,32.86"/><line class="g" x1="151.09" y1="636.78" x2="143.16" y2="546.19"/><path class="g" d="M145.48,571.66s-15.09-3.35-24.68-14.48"/><path class="g" d="M145.48,571.68s14.3-5.22,21.7-17.43"/><path class="g" d="M147.52,594.49s-20.27-4.49-33.13-19.43"/><path class="g" d="M147.51,594.52s19.19-7,29.13-23.39"/><path class="a" d="M284.8,709.4c5-2.81,15.71,1.43,23.69-1.44,7-2.51,11.86-12.5,18.53-14.56,10.56-3.25,21.54,2,23.57,1.43s8.51-11,19.25-13.91c6.76-1.86,16.29,3.92,23.57,2.28,8.27-1.87,15-11.2,20.85-11.56,11.89-.75,22.7,7.92,32.91,9.89,12.27,2.36,25.92-.77,34.12,4.67,10.75,7.13,11,19.91,11.19,30.52.14,8.33,3.3,19.06-3.4,26.23-5.39,5.76-17.37,4.64-26.05,8.94-7.37,3.65-10.58,12.36-19.65,14.53,1.28,10.21-6.59,17-8.89,26-2.51,9.89-.17,22.38-6.44,29.49-6.42,7.28-18.78,6.24-28.55,9.09s-20.11,10.49-30.12,7.87c-9.53-2.48-15.27-14.23-23.57-20.83-7.71-6.13-18.59-7-24.13-16-9,3.12-16.88-2.56-25.41-1.66-9.8,1-19.53,8.47-27.58,6.56-9.8-2.32-13.75-13.16-18.9-19.87-6.6-8.59-14.4-18.33-10.46-29.63,3.1-8.91,15.79-13.94,24.4-22.5C270.75,728,274.68,715.07,284.8,709.4Z"/><path class="b" d="M284.8,709.4c5-2.81,15.71,1.43,23.69-1.44,7-2.51,11.86-12.5,18.53-14.56,10.56-3.25,21.54,2,23.57,1.43s8.51-11,19.25-13.91c6.76-1.86,16.29,3.92,23.57,2.28,8.27-1.87,15-11.2,20.85-11.56,11.89-.75,22.7,7.92,32.91,9.89,12.27,2.36,25.92-.77,34.12,4.67,10.75,7.13,11,19.91,11.19,30.52.14,8.33,3.3,19.06-3.4,26.23-5.39,5.76-17.37,4.64-26.05,8.94-7.37,3.65-10.58,12.36-19.65,14.53,1.28,10.21-6.59,17-8.89,26-2.51,9.89-.17,22.38-6.44,29.49-6.42,7.28-18.78,6.24-28.55,9.09s-20.11,10.49-30.12,7.87c-9.53-2.48-15.27-14.23-23.57-20.83-7.71-6.13-18.59-7-24.13-16-9,3.12-16.88-2.56-25.41-1.66-9.8,1-19.53,8.47-27.58,6.56-9.8-2.32-13.75-13.16-18.9-19.87-6.6-8.59-14.4-18.33-10.46-29.63,3.1-8.91,15.79-13.94,24.4-22.5C270.75,728,274.68,715.07,284.8,709.4Z"/><line class="g" x1="356.97" y1="712.08" x2="394.07" y2="816.43"/><path class="g" d="M383.53,787.13s18.88-.14,33.63,10.36"/><path class="g" d="M383.53,787.11s-15.32,10-20.35,26.33"/><path class="g" d="M374.14,760.86s25.35-.19,45.14,13.9"/><path class="g" d="M374.15,760.83s-20.57,13.39-27.31,35.33"/><path class="g" d="M366.69,740.12s36.92-2,64.51,14"/><path class="g" d="M366.7,740.08s-31.1,18-42.83,45.66"/><line class="g" x1="356.97" y1="712.08" x2="466.2" y2="714.61"/><path class="g" d="M435.49,713.82a37.78,37.78,0,0,0,17.07,19.78"/><path class="g" d="M435.47,713.82a48.17,48.17,0,0,1,21.41-18.73"/><path class="g" d="M408,713.15a50.65,50.65,0,0,0,22.91,26.55"/><path class="g" d="M407.93,713.16A64.74,64.74,0,0,1,436.66,688"/><line class="g" x1="356.97" y1="712.08" x2="269.89" y2="771.86"/><path class="g" d="M294.32,755a34.06,34.06,0,0,1-1.12,25.08"/><path class="g" d="M294.34,755a55.19,55.19,0,0,0-29.45-3.9"/><path class="g" d="M316.25,739.9a45.73,45.73,0,0,1-1.5,33.66"/><path class="g" d="M316.28,739.89a74.12,74.12,0,0,0-39.54-5.24"/><path class="a" d="M243.87,515.46c5.2,2.17,10.61,11.51,18.76,12.83,7.12,1.16,15.7-5.89,22.47-5.24,10.72,1,18.81,9.46,20.87,9.62s11.46-7,22.41-6.41c6.88.36,14.43,8.61,21.8,8.51,8.25-.1,15.12-8.55,20.88-9.87,13.36-3.07,28.88-1.16,39.76-8.08,11.85-7.54,16.37-22.58,23.5-32.87,8.16-11.77,19.88-22.65,19.22-35.33-.51-9.87-11.11-15.71-17-22.72-5.65-6.75-9-18.33-18.32-21.77-8.09-3-21.86,1.6-31.83,1.55.35-12.18,6.33-26.95,4-37.16-2.79-12.35-14.48-19.62-20.59-27.66-7.44-9.78-13.64-22.2-25-23.05S324,328.54,313.22,337c-8.71,6.79-22.75,10.89-29.87,22.2-6.14,9.74-5.72,26.26-9.92,38.43-10.19-1.49-23.44-8.29-32.78-6.33-10.06,2.11-16.11,13.26-23.84,19-8,5.91-20.44,8.83-24.44,18.13-5,11.69,1.91,24.89,5,37,3,11.48,2.47,26.29,11.47,35.73C217,509.66,231.77,510.42,243.87,515.46Z"/><path class="b" d="M243.87,515.46c5.2,2.17,10.61,11.51,18.76,12.83,7.12,1.16,15.7-5.89,22.47-5.24,10.72,1,18.81,9.46,20.87,9.62s11.46-7,22.41-6.41c6.88.36,14.43,8.61,21.8,8.51,8.25-.1,15.12-8.55,20.88-9.87,13.36-3.07,28.88-1.16,39.76-8.08,11.85-7.54,16.37-22.58,23.5-32.87,8.16-11.77,19.88-22.65,19.22-35.33-.51-9.87-11.11-15.71-17-22.72-5.65-6.75-9-18.33-18.32-21.77-8.09-3-21.86,1.6-31.83,1.55.35-12.18,6.33-26.95,4-37.16-2.79-12.35-14.48-19.62-20.59-27.66-7.44-9.78-13.64-22.2-25-23.05S324,328.54,313.22,337c-8.71,6.79-22.75,10.89-29.87,22.2-6.14,9.74-5.72,26.26-9.92,38.43-10.19-1.49-23.44-8.29-32.78-6.33-10.06,2.11-16.11,13.26-23.84,19-8,5.91-20.44,8.83-24.44,18.13-5,11.69,1.91,24.89,5,37,3,11.48,2.47,26.29,11.47,35.73C217,509.66,231.77,510.42,243.87,515.46Z"/><line class="g" x1="311.88" y1="498.34" x2="339.65" y2="348.32"/><path class="g" d="M331.73,390.48a70.18,70.18,0,0,0,32.39-24.22"/><path class="g" d="M331.74,390.51a51.57,51.57,0,0,1-22.4-28.61"/><path class="g" d="M324.7,428.27s25.09-7.64,43.47-32.5"/><path class="g" d="M324.7,428.31s-21.49-11.37-30.05-38.39"/><path class="g" d="M319.1,458.11s36.71-8.79,62.63-38.65"/><path class="g" d="M319.11,458.16s-32.32-14.24-46.3-47.25"/><line class="g" x1="311.88" y1="498.34" x2="419.76" y2="460.97"/><path class="g" d="M389.44,471.58S392.12,454,404.63,440"/><path class="g" d="M389.42,471.58s7.5,14,22.78,18.2"/><path class="g" d="M362.25,481s3.61-23.57,20.39-42.36"/><path class="g" d="M362.22,481s10.07,18.75,30.59,24.42"/><line class="g" x1="311.88" y1="498.34" x2="220.59" y2="446.15"/><path class="g" d="M246.21,460.92S250,443.45,243,428"/><path class="g" d="M246.23,460.92s-12.4,12.5-28.81,14.36"/><path class="g" d="M269.2,474.11s5.1-23.45-4.37-44.2"/><path class="g" d="M269.23,474.12s-16.64,16.76-38.67,19.27"/><path class="h" d="M303.74,742.2c-12.79,0-20.73-22-20.73-57.5,0-34.05,16.43-68.19,17.13-69.62l3.6-7.39,3.6,7.39c.7,1.43,17.13,35.57,17.13,69.62C324.47,720.17,316.53,742.2,303.74,742.2Z"/><path class="i" d="M303.74,616.83s16.73,34.35,16.73,67.87-7.49,53.5-16.73,53.5S287,718.22,287,684.7s16.73-67.87,16.73-67.87m0-18.28-7.19,14.77c-.72,1.47-17.54,36.42-17.54,71.38,0,38.51,9.24,61.5,24.73,61.5s24.73-23,24.73-61.5c0-35-16.82-69.91-17.54-71.38l-7.19-14.77Z"/><path class="h" d="M300.14,600.56c-.53-1.09-13-27.08-13-53,0-27.4,6.38-44.42,16.64-44.42s16.64,17,16.64,44.42c0,26-12.51,51.94-13,53l-3.6,7.38Z"/><path class="i" d="M303.74,507.11c7,0,12.64,15.1,12.64,40.42s-12.64,51.28-12.64,51.28-12.64-26-12.64-51.28,5.66-40.42,12.64-40.42m0-8c-5.11,0-12.12,2.82-16.54,16.21-2.68,8.15-4.1,19.29-4.1,32.21,0,26.86,12.9,53.65,13.45,54.78l7.19,14.77,7.19-14.77c.55-1.13,13.45-27.92,13.45-54.78,0-12.92-1.42-24.06-4.1-32.21-4.42-13.39-11.43-16.21-16.54-16.21Z"/><path class="h" d="M427.06,688.29c-9,0-21.64-4.94-35.72-13.9-22-14-36.56-39.82-37.17-40.92l-3.6-6.46,7.38.53c1.24.09,30.78,2.34,52.8,16.36,23.17,14.74,33.85,29.75,27.86,39.16C437.09,685.44,433.85,688.29,427.06,688.29Z"/><path class="i" d="M357.66,631.53s29.52,2.1,50.94,15.74,30.81,27.08,26.63,33.64c-1.42,2.23-4.23,3.38-8.17,3.38-7.62,0-19.46-4.29-33.58-13.28-21.42-13.63-35.82-39.48-35.82-39.48m-14.19-9,7.2,12.93c.63,1.13,15.65,27.79,38.52,42.34,14.71,9.37,28.16,14.53,37.87,14.53,3.89,0,11-.92,14.92-7.09,2.33-3.65,4.89-11.55-4.11-23.32-5.33-7-14-14.35-25-21.36-22.87-14.56-53.38-16.88-54.67-17l-14.76-1.06Z"/><path class="h" d="M431.73,651.59a113.1,113.1,0,0,1-23.06-2.71c-25.55-5.39-48.22-24.44-49.18-25.25l-5.64-4.79,7.09-2.09a142.37,142.37,0,0,1,36.46-5,91.23,91.23,0,0,1,18.73,1.81c12.31,2.6,22.54,6.3,29.59,10.71,10,6.23,11.08,12.23,10.25,16.17C455.09,644.57,450.76,651.59,431.73,651.59Z"/><path class="i" d="M397.4,615.7a87.76,87.76,0,0,1,17.9,1.72c24.85,5.25,38.36,14.54,36.75,22.14-1.05,5-8.37,8-20.32,8A110.24,110.24,0,0,1,409.49,645c-24.84-5.24-47.41-24.39-47.41-24.39a139.68,139.68,0,0,1,35.32-4.88m0-8h0a147.15,147.15,0,0,0-37.59,5.21l-14.19,4.2,11.28,9.57c1,.84,24.42,20.52,50.94,26.11a116.9,116.9,0,0,0,23.89,2.8c21.86,0,27-9,28.15-14.38.9-4.24.52-12.53-12-20.39-7.44-4.65-18.12-8.53-30.89-11.22a94.86,94.86,0,0,0-19.55-1.9Z"/><path class="j" d="M393.45,715.11c-8.56,0-21.57-7.44-34.8-19.91-19-17.91-28.44-46-28.83-47.17l-2.24-6.76,6.94,1.61c1.24.29,30.74,7.29,49,26.13,17.63,18.15,23.15,29.87,19.06,40.45C401.22,713.05,397.88,715.11,393.45,715.11Z"/><path class="i" d="M333.62,646.78s29.38,6.8,47.07,25c20.89,21.51,20.45,30.4,18.2,36.21-.81,2.08-2.71,3.1-5.44,3.1-6.83,0-18.86-6.39-32.06-18.83-18.48-17.41-27.77-45.5-27.77-45.5m-12.07-11L326,649.29c.41,1.22,10.16,30.23,29.88,48.82,14.17,13.35,27.86,21,37.55,21,6.08,0,10.91-3.07,12.9-8.21,4.75-12.27-1-25.22-19.92-44.68-19.11-19.68-49.72-26.94-51-27.24l-13.87-3.21Z"/><path class="j" d="M403.27,615.56c-25.65,0-51.12-13-52.19-13.55l-6.57-3.39L351,595c1.09-.61,26.94-15.07,53-15.56l2.9,0c25.68,0,41.76,6.61,42,17.25.08,4-2.13,9.71-13.1,14-7.75,3-18.49,4.72-31.08,5Z"/><path class="i" d="M406.89,583.38c23.69,0,37.82,5.85,38,13.33.14,7.77-14.87,14.36-40.26,14.84h-1.33c-25,0-50.35-13.1-50.35-13.1s25.76-14.57,51.14-15.05l2.83,0m0-8v0l-3,0c-27.1.51-53.81,15.45-54.93,16.08l-12.88,7.29,13.15,6.78c1.1.58,27.41,14,54,14h1.48c13.05-.25,24.26-2.06,32.44-5.23,13.82-5.35,15.75-13.43,15.66-17.76-.25-13.26-17.43-21.18-46-21.18Z"/><path class="j" d="M342.5,595.33c.67-1.05,16.63-26,39.4-38.77,13.71-7.69,26.14-11.92,35-11.92,7.76,0,11.19,3.21,12.7,5.91,5.45,9.72-6,24.11-30,37.54-22.77,12.77-52.39,13.36-53.64,13.38l-7.39.11Z"/><path class="i" d="M416.88,548.64c4.6,0,7.79,1.32,9.21,3.86,3.81,6.79-6.32,19.68-28.47,32.1s-51.74,12.87-51.74,12.87,15.83-25,38-37.42c13.83-7.76,25.38-11.41,33-11.41m0-8h0c-9.65,0-22.43,4.3-36.93,12.43-23.65,13.25-40.14,39-40.83,40.12l-7.91,12.51,14.8-.23c1.29,0,31.88-.64,55.52-13.89,11.38-6.38,20.42-13.27,26.13-19.93,9.65-11.25,7.53-19.27,5.41-23.06-1.66-3-6-8-16.19-8Z"/><path class="j" d="M312,600.62c-.39-1.19-9.3-29.43-4.49-55.09,4.69-25,13.94-40.61,24.13-40.61a9.47,9.47,0,0,1,1.84.17c3.95.74,9.07,4.06,11,15.66,1.37,8.2.87,19.07-1.45,31.44-4.81,25.65-23.34,48.76-24.13,49.73l-4.65,5.75Z"/><path class="i" d="M331.67,508.92a5.77,5.77,0,0,1,1.1.1c7.64,1.43,11,17.47,6.37,42.43s-23.31,47.95-23.31,47.95-9-28.18-4.36-53.13c4.45-23.78,12.81-37.35,20.2-37.35m0-8h0c-12.61,0-22.84,16-28.06,43.87-5,26.64,4.21,55.83,4.61,57.06l4.52,14.08,9.31-11.49c.81-1,20-24.88,24.95-51.52,2.4-12.82,2.91-24.17,1.46-32.83-2.44-14.61-10-18.14-14.22-18.93a13.81,13.81,0,0,0-2.57-.24Z"/><path class="j" d="M344.69,737.16c-9.84,0-20.3-13.88-28-37.11-8.2-24.79-3.14-54-2.93-55.2l1.3-7.29,5.39,5.08c.91.85,22.36,21.27,30.56,46.06,8.62,26.08,7.4,44.45-3.18,47.95A10,10,0,0,1,344.69,737.16Z"/><path class="i" d="M317.72,645.55s21.54,20.29,29.51,44.4,6.74,40.46-.64,42.9a5.82,5.82,0,0,1-1.9.31c-7.24,0-16.88-12.26-24.19-34.37-8-24.11-2.78-53.24-2.78-53.24m-5.28-16-2.59,14.56c-.23,1.28-5.45,31.43,3.06,57.16,4,12,15,39.86,31.78,39.86a14,14,0,0,0,4.41-.71c4.12-1.36,11.09-5.86,11.56-20.67.28-8.77-1.74-19.95-5.84-32.34-8.5-25.73-30.67-46.83-31.61-47.71l-10.77-10.15Z"/><path class="h" d="M317.78,587.55c.33-1.2,8.17-29.77,26.14-48.71,13.72-14.46,26.8-22.76,35.9-22.76a11.16,11.16,0,0,1,7.86,2.89c8.08,7.67,1.37,24.82-17.53,44.75-18,18.94-46.07,28.29-47.26,28.67l-7,2.31Z"/><path class="i" d="M379.82,520.08a7.16,7.16,0,0,1,5.1,1.79c5.64,5.35-.2,20.67-17.68,39.1s-45.6,27.62-45.6,27.62,7.71-28.57,25.18-47c13.57-14.31,25.64-21.52,33-21.52m0-8h0c-13.95,0-30.3,15-38.81,24-18.65,19.67-26.75,49.17-27.09,50.42l-3.85,14.29,14.06-4.6c1.23-.41,30.27-10.06,48.92-29.73,9-9.47,15.56-18.73,19-26.78,5.88-13.6,1.48-20.64-1.66-23.62a15.06,15.06,0,0,0-10.61-4Z"/><path class="j" d="M180.42,688.29c-6.79,0-10-2.85-11.55-5.23-6-9.41,4.69-24.41,27.86-39.16,22-14,51.56-16.27,52.8-16.36l7.38-.53-3.6,6.46c-.61,1.1-15.14,26.9-37.17,40.92-14.08,9-26.76,13.9-35.71,13.9Z"/><path class="i" d="M249.82,631.53S235.42,657.38,214,671c-14.12,9-25.95,13.28-33.57,13.28-3.94,0-6.76-1.15-8.18-3.38-4.18-6.56,5.21-20,26.63-33.64s50.94-15.74,50.94-15.74m14.19-9-14.76,1.06c-1.29.09-31.8,2.41-54.67,17-11,7-19.64,14.39-25,21.36-9,11.77-6.44,19.67-4.11,23.32,3.92,6.17,11,7.09,14.93,7.09,9.7,0,23.15-5.16,37.86-14.53,22.87-14.55,37.89-41.21,38.52-42.34l7.2-12.93Z"/><path class="j" d="M175.75,651.59c-19,0-23.35-7-24.24-11.2-.83-3.94.28-9.94,10.25-16.17,7.05-4.41,17.28-8.11,29.59-10.71a91.23,91.23,0,0,1,18.73-1.81,142.28,142.28,0,0,1,36.46,5l7.09,2.09L248,623.63c-1,.81-23.63,19.86-49.17,25.25a113.27,113.27,0,0,1-23.07,2.71Z"/><path class="i" d="M210.08,615.7a139.68,139.68,0,0,1,35.32,4.88S222.84,639.73,198,645a110.24,110.24,0,0,1-22.24,2.62c-11.95,0-19.27-3-20.32-8-1.61-7.6,11.9-16.89,36.75-22.14a87.76,87.76,0,0,1,17.9-1.72m0-8a94.93,94.93,0,0,0-19.55,1.9c-12.77,2.69-23.45,6.57-30.89,11.22-12.56,7.86-12.94,16.15-12,20.39,1.13,5.37,6.29,14.38,28.15,14.38a116.9,116.9,0,0,0,23.89-2.8c26.52-5.59,50-25.27,50.94-26.11l11.28-9.57-14.19-4.2a147.15,147.15,0,0,0-37.59-5.21Z"/><path class="j" d="M214,715.11c-4.43,0-7.77-2.06-9.17-5.65-4.09-10.58,1.43-22.3,19.06-40.45,18.3-18.84,47.8-25.84,49-26.13l6.94-1.61L277.66,648c-.39,1.19-9.83,29.26-28.83,47.17-13.23,12.47-26.24,19.91-34.8,19.91Z"/><path class="i" d="M273.87,646.78s-9.3,28.09-27.78,45.5c-13.2,12.44-25.23,18.83-32.06,18.83-2.73,0-4.63-1-5.44-3.1-2.25-5.81-2.69-14.7,18.2-36.21,17.69-18.22,47.08-25,47.08-25m12.06-11L272.06,639c-1.29.3-31.9,7.56-51,27.24-18.9,19.46-24.67,32.41-19.92,44.68,2,5.14,6.82,8.21,12.9,8.21,9.69,0,23.38-7.65,37.55-21,19.72-18.59,29.48-47.6,29.88-48.82l4.47-13.52Z"/><path class="h" d="M204.21,615.56h-1.4c-27.47-.52-44.39-7.77-44.18-18.92.2-10.64,16.28-17.25,42-17.25l2.9,0c26.1.49,52,15,53,15.56l6.44,3.65L256.4,602c-1.07.55-26.54,13.55-52.18,13.55Z"/><path class="i" d="M200.59,583.38l2.83,0c25.39.48,51.14,15.05,51.14,15.05s-25.38,13.1-50.35,13.1h-1.33c-25.39-.48-40.4-7.07-40.25-14.84.14-7.48,14.27-13.33,38-13.33m0-8c-28.53,0-45.71,7.92-46,21.18-.08,4.33,1.84,12.41,15.66,17.76,8.18,3.17,19.4,5,32.44,5.23h1.48c26.61,0,52.92-13.42,54-14l13.15-6.78-12.88-7.29c-1.12-.63-27.83-15.57-54.93-16.08l-3,0Z"/><path class="h" d="M261.54,601.47c-1.25,0-30.87-.61-53.64-13.38-24-13.43-35.45-27.82-30-37.54,1.51-2.7,4.94-5.91,12.7-5.91,8.84,0,21.27,4.23,35,11.92,22.77,12.76,38.73,37.72,39.4,38.77l3.95,6.25Z"/><path class="i" d="M190.6,548.64c7.64,0,19.19,3.65,33,11.41,22.15,12.42,38,37.42,38,37.42S232,597,209.86,584.6s-32.27-25.31-28.47-32.1c1.42-2.54,4.61-3.86,9.21-3.86m0-8c-10.21,0-14.53,5-16.19,8-2.12,3.79-4.24,11.81,5.41,23.06,5.71,6.66,14.75,13.55,26.13,19.93,23.64,13.25,54.23,13.87,55.53,13.89l14.79.23-7.91-12.51c-.69-1.09-17.18-26.87-40.82-40.12-14.51-8.13-27.28-12.43-36.94-12.43Z"/><path class="h" d="M288.54,601.92c-.79-1-19.32-24.08-24.13-49.73-2.32-12.37-2.82-23.24-1.45-31.44,1.94-11.6,7.06-14.92,11-15.66a9.37,9.37,0,0,1,1.83-.17c10.19,0,19.44,15.56,24.13,40.61,4.81,25.66-4.1,53.9-4.48,55.09l-2.26,7Z"/><path class="i" d="M275.81,508.92c7.39,0,15.75,13.57,20.2,37.35,4.68,25-4.36,53.13-4.36,53.13s-18.63-23-23.31-47.95-1.27-41,6.37-42.43a5.85,5.85,0,0,1,1.1-.1m0-8a13.81,13.81,0,0,0-2.57.24c-4.26.79-11.78,4.32-14.22,18.93-1.45,8.66-.94,20,1.46,32.83,5,26.64,24.14,50.51,24.95,51.52l9.31,11.49,4.52-14.08c.4-1.23,9.61-30.42,4.61-57.06-5.22-27.88-15.45-43.87-28.06-43.87Z"/><path class="h" d="M262.79,737.16a9.85,9.85,0,0,1-3.15-.51c-10.59-3.5-11.81-21.87-3.19-47.95,8.2-24.79,29.66-45.21,30.57-46.06l5.38-5.08,1.3,7.29c.22,1.23,5.27,30.41-2.92,55.2-7.69,23.23-18.15,37.11-28,37.11Z"/><path class="i" d="M289.76,645.55S295,674.68,287,698.79c-7.31,22.11-17,34.37-24.19,34.37a5.82,5.82,0,0,1-1.9-.31c-7.38-2.44-8.61-18.79-.64-42.9s29.51-44.4,29.51-44.4m5.28-16-10.77,10.15c-.94.88-23.1,22-31.61,47.71-4.1,12.39-6.12,23.57-5.84,32.34.47,14.81,7.44,19.31,11.56,20.67a14,14,0,0,0,4.41.71c16.79,0,27.82-27.87,31.78-39.86,8.51-25.73,3.29-55.88,3.06-57.16L295,629.58Z"/><path class="j" d="M284.59,592.39c-1.19-.38-29.29-9.73-47.25-28.67-18.91-19.93-25.62-37.08-17.53-44.75a11.14,11.14,0,0,1,7.85-2.89c9.1,0,22.19,8.3,35.9,22.76,18,18.94,25.81,47.51,26.14,48.71l1.92,7.15Z"/><path class="i" d="M227.66,520.08c7.36,0,19.43,7.21,33,21.52,17.48,18.42,25.18,47,25.18,47s-28.13-9.2-45.6-27.62-23.32-33.75-17.68-39.1a7.16,7.16,0,0,1,5.1-1.79m0-8a15.06,15.06,0,0,0-10.61,4c-3.14,3-7.54,10-1.66,23.62,3.48,8,10.07,17.31,19,26.78,18.66,19.67,47.69,29.32,48.92,29.73l14.06,4.6-3.85-14.29c-.33-1.25-8.44-30.75-27.09-50.42-8.51-9-24.86-24-38.81-24Z"/><path class="h" d="M329.62,610.3c-2.55,0-4,0-4.08,0l-10.26-.36,7.8-6.68c.94-.81,23.38-19.87,51-28.83a90.83,90.83,0,0,1,27.74-4.9c11.76,0,20.87,3.42,23.78,8.93a7.11,7.11,0,0,1,.4,6.15c-2.46,6.07-13.06,9.51-38.67,17.83-22,7.14-47.66,7.91-57.69,7.91Z"/><path class="i" d="M401.8,573.48c11.43,0,18.42,3.33,20.25,6.8,3,5.63-8.82,9.48-36,18.3-21.52,7-46.85,7.72-56.44,7.72-2.52,0-3.95,0-3.95,0S348.14,587,375.3,578.18c10.45-3.39,19.35-4.7,26.5-4.7m0-8a94.68,94.68,0,0,0-29,5.09c-28.36,9.21-51.39,28.77-52.36,29.6l-15.58,13.36,20.51.71c.07,0,1.6.06,4.23.06,10.21,0,36.38-.79,58.91-8.11,27.64-9,38-12.34,41.14-20.12a11.17,11.17,0,0,0-.56-9.53c-3.66-6.92-13.87-11.06-27.32-11.06Z"/><path class="j" d="M417.13,661.91c-6.46,0-16.51-3.34-31.73-8.4-3.54-1.17-7.33-2.43-11.34-3.73-27.6-9-50-28-51-28.83l-7.8-6.68,10.26-.36c.06,0,1.53,0,4.09,0,10,0,35.69.77,57.68,7.91,23,7.48,34.95,19.38,38.16,27.3,1.68,4.13,1,7,.11,8.63-1,1.92-3.3,4.21-8.45,4.21Z"/><path class="i" d="M329.63,617.86c9.59,0,34.92.72,56.44,7.71,27.16,8.83,38.95,24.63,36,30.26-.77,1.44-2.42,2.08-4.92,2.08-7.25,0-21.62-5.37-41.83-11.94-27.16-8.82-49.62-28.06-49.62-28.06s1.43,0,3.95,0m0-8c-2.63,0-4.16,0-4.23,0l-20.51.72L320.47,624c1,.83,24,20.39,52.36,29.6,4,1.3,7.71,2.54,11.31,3.73,15.59,5.18,25.89,8.6,33,8.6,7.52,0,10.74-4,12-6.34s2.31-6.44.06-12c-4.66-11.48-20.61-23.1-40.64-29.6-22.53-7.32-48.7-8.11-58.91-8.11Z"/><path class="h" d="M343.85,704c-9.16,0-17.56-7.82-26.43-24.61-11.64-22-10.3-48.34-10.24-49.45l.41-7.26,5.92,4.24c1,.74,25.44,18.41,37,40.29,7.26,13.75,9.39,22.63,6.89,28.79-1.38,3.4-4.15,5.8-8.23,7.13a17.26,17.26,0,0,1-5.32.87Z"/><path class="i" d="M311.18,630.14S335.72,647.75,347,669s8.15,27.92,1,30.25a13,13,0,0,1-4.08.68c-6.31,0-13.7-5.07-22.9-22.48-11.25-21.29-9.77-47.35-9.77-47.35m-7.17-15-.82,14.54c-.07,1.15-1.46,28.54,10.69,51.54,12.66,24,23.17,26.74,30,26.74a21.29,21.29,0,0,0,6.56-1.07c6.54-2.12,9.43-6.3,10.7-9.43,3-7.35.8-17.27-7.07-32.16-12-22.7-37.13-40.91-38.2-41.67L304,615.15Z"/><path class="j" d="M263.63,704a17.26,17.26,0,0,1-5.32-.87c-4.08-1.33-6.85-3.73-8.23-7.13-2.5-6.16-.37-15,6.9-28.79,11.55-21.88,36-39.55,37-40.29l5.92-4.24.41,7.26c.06,1.11,1.4,27.42-10.24,49.45C281.19,696.15,272.79,704,263.63,704Z"/><path class="i" d="M296.3,630.14s1.48,26.06-9.77,47.35c-9.2,17.41-16.59,22.48-22.9,22.48a13,13,0,0,1-4.08-.68c-7.19-2.33-10.29-8.95,1-30.25s35.79-38.9,35.79-38.9m7.17-15-11.83,8.49c-1.06.76-26.21,19-38.2,41.67-7.87,14.89-10.05,24.81-7.06,32.16,1.26,3.13,4.15,7.31,10.7,9.43a21.18,21.18,0,0,0,6.55,1.07c14.2,0,23.91-15.26,30-26.74,12.15-23,10.76-50.39,10.69-51.54l-.82-14.54Z"/><path class="h" d="M190.35,661.91c-5.15,0-7.44-2.29-8.45-4.21-.88-1.66-1.57-4.5.11-8.63,3.21-7.92,15.14-19.82,38.16-27.3,22-7.14,47.66-7.91,57.68-7.91,2.56,0,4,0,4.09,0l10.26.36L284.4,621c-.94.8-23.38,19.86-51,28.83-4,1.3-7.8,2.56-11.34,3.73-15.22,5.06-25.27,8.4-31.73,8.4Z"/><path class="i" d="M277.86,617.86c2.51,0,3.94,0,3.94,0S259.35,637.15,232.18,646c-20.21,6.57-34.57,11.94-41.83,11.94-2.5,0-4.15-.64-4.92-2.08-3-5.63,8.82-21.43,36-30.26,21.52-7,46.86-7.71,56.45-7.71m0-8c-10.21,0-36.39.79-58.92,8.11-20,6.5-36,18.12-40.64,29.6-2.25,5.56-1.21,9.59.06,12s4.47,6.34,12,6.34c7.1,0,17.4-3.42,33-8.6,3.6-1.19,7.32-2.43,11.32-3.73C263,644.37,286,624.81,287,624l15.59-13.35-20.52-.72c-.06,0-1.6,0-4.22,0Z"/><path class="h" d="M277.86,610.3c-10,0-35.7-.77-57.69-7.91-25.61-8.32-36.21-11.76-38.66-17.83a7.06,7.06,0,0,1,.39-6.15c2.91-5.51,12-8.93,23.78-8.93a90.78,90.78,0,0,1,27.74,4.9c27.6,9,50,28,51,28.83l7.8,6.68-10.26.36c-.06,0-1.53,0-4.08,0Z"/><path class="i" d="M205.68,573.48c7.15,0,16,1.31,26.5,4.7,27.17,8.82,49.62,28.07,49.62,28.07s-1.43,0-3.94,0c-9.6,0-34.93-.73-56.45-7.72-27.16-8.82-38.95-12.67-36-18.3,1.83-3.47,8.82-6.8,20.25-6.8m0-8c-13.45,0-23.66,4.14-27.32,11.06a11.17,11.17,0,0,0-.56,9.53c3.16,7.78,13.5,11.14,41.14,20.12,22.53,7.32,48.71,8.11,58.92,8.11,2.62,0,4.16-.06,4.22-.06l20.51-.71L287,600.17c-1-.83-24-20.39-52.35-29.6a94.79,94.79,0,0,0-29-5.09Z"/><path class="h" d="M293.44,598c-1-.54-24.89-13.47-35.64-30.64-7.68-12.27-10.51-22.79-8-29.65a10.71,10.71,0,0,1,7-6.67,12.89,12.89,0,0,1,3.8-.56c9.37,0,21.05,9.36,30.49,24.43,10.94,17.48,8.3,39.16,8.18,40.08l-.74,5.76Z"/><path class="i" d="M260.63,534.49c7.37,0,17.93,7.93,27.09,22.56,10.3,16.46,7.61,37.44,7.61,37.44s-23.83-12.78-34.14-29.24-10.51-28.11-3.19-30.38a9,9,0,0,1,2.63-.38m0-8h0a16.77,16.77,0,0,0-5,.74,14.61,14.61,0,0,0-9.55,9.1c-2.12,5.69-2.39,16.06,8.32,33.16,11.3,18.06,36.09,31.48,37.14,32L301.78,607l1.48-11.51c.13-1,2.93-24-8.76-42.71-10.31-16.47-23-26.31-33.87-26.31Z"/><path class="j" d="M307.74,595c-.12-.92-2.75-22.6,8.19-40.08,9.43-15.07,21.11-24.43,30.48-24.43a12.79,12.79,0,0,1,3.8.56,10.71,10.71,0,0,1,7,6.67c2.54,6.86-.28,17.38-8,29.65-10.75,17.17-34.63,30.1-35.64,30.64l-5.12,2.75Z"/><path class="i" d="M346.41,534.49a8.92,8.92,0,0,1,2.62.38c7.33,2.27,7.12,13.92-3.18,30.38s-34.14,29.24-34.14,29.24-2.7-21,7.61-37.44c9.15-14.63,19.71-22.56,27.09-22.56m0-8c-10.9,0-23.56,9.84-33.87,26.31-11.7,18.68-8.89,41.74-8.77,42.71L305.26,607l10.23-5.48c1.05-.57,25.83-14,37.14-32,5.91-9.44,12.15-22.85,8.32-33.16a14.65,14.65,0,0,0-9.56-9.1,16.72,16.72,0,0,0-5-.74Z"/><path class="h" d="M319.89,589.46c.28-.66,6.85-16.17,21.31-26.11,10.54-7.24,20.58-11.4,27.55-11.4a11.34,11.34,0,0,1,6.54,1.77,7.34,7.34,0,0,1,3.28,6.23c0,7.27-9.41,15.26-17.3,20.68-14.17,9.74-36,14.11-36.91,14.29L317,596.36Z"/><path class="i" d="M368.75,556A7.59,7.59,0,0,1,373,557c4.29,3-.37,10.94-14,20.32S323.59,591,323.59,591s6.22-15,19.87-24.34c10.38-7.14,19.59-10.7,25.29-10.7m0-8c-7.87,0-18.46,4.3-29.82,12.11-15.42,10.6-22.44,27.16-22.73,27.86l-5.74,13.81,14.67-2.89c.95-.18,23.56-4.71,38.41-14.91,12.63-8.68,19-16.75,19-24a11.42,11.42,0,0,0-5-9.53,15.23,15.23,0,0,0-8.81-2.47Z"/><path class="h" d="M300.71,587.85c-.49-.6-11.88-14.87-11.88-29.39,0-17.39,7.53-25.18,15-25.18s15,7.79,15,25.18c0,14.52-11.39,28.79-11.88,29.39l-3.11,3.85Z"/><path class="i" d="M303.82,537.28c6.07,0,11,7.91,11,21.18s-11,26.88-11,26.88-11-13.61-11-26.88,4.92-21.18,11-21.18m0-8c-9.45,0-19,9-19,29.18,0,15.65,11.46,30.29,12.77,31.9l6.22,7.71,6.22-7.71c1.31-1.61,12.77-16.25,12.77-31.9,0-20.16-9.54-29.18-19-29.18Z"/><path class="j" d="M370.84,616.16c-19.82,0-39.69-7.5-40.53-7.82l-9.79-3.74,9.79-3.74c.84-.32,20.71-7.82,40.53-7.82,19.2,0,34.82,6.74,34.82,15,0,6.35-8.1,7.21-11.16,7.53-4.93.53-11.71.57-21.49.57Z"/><path class="i" d="M370.84,597c19.31,0,30.82,6.85,30.82,11s-10.65,4.1-28.65,4.1h-2.17c-19.31,0-39.1-7.56-39.1-7.56s19.79-7.56,39.1-7.56m0-8c-20.54,0-41.09,7.76-41.95,8.09l-19.58,7.47,19.58,7.47c.86.33,21.41,8.09,41.95,8.09H373c9.91,0,16.79,0,21.92-.59A26.68,26.68,0,0,0,403,617.7c4.18-1.87,6.68-5.47,6.68-9.64,0-10.84-16.69-19-38.82-19Z"/><path class="h" d="M369.63,658.75c-8,0-19.93-7-28.51-12.92-14.46-9.94-21-25.45-21.3-26.11l-2.87-6.9,7.33,1.44c.92.18,22.74,4.55,36.92,14.29,10.83,7.44,17.29,15.73,17.29,22.16a7.6,7.6,0,0,1-3.27,6.48,9.61,9.61,0,0,1-5.59,1.56Z"/><path class="i" d="M323.51,618.18s21.77,4.28,35.42,13.67,18.31,19.1,14,22a5.84,5.84,0,0,1-3.32.85c-5.59,0-15.26-4.67-26.24-12.22-13.66-9.38-19.88-24.35-19.88-24.35m-13.13-10.73,5.74,13.81c.29.7,7.31,17.26,22.73,27.86,13.16,9,23.52,13.63,30.78,13.63a13.56,13.56,0,0,0,7.85-2.26,11.63,11.63,0,0,0,5-9.78c0-7.87-6.93-17.15-19-25.46-14.84-10.2-37.45-14.73-38.41-14.92l-14.67-2.88Z"/><path class="j" d="M303.71,677.58c-9.06,0-16.72-12.33-16.72-26.92s13.24-29,13.8-29.6l2.92-3.13,2.92,3.13c.57.6,13.81,14.92,13.81,29.6S312.78,677.58,303.71,677.58Z"/><path class="i" d="M303.71,623.79s12.73,13.6,12.73,26.87-6.66,22.92-12.73,22.92S291,663.93,291,650.66s12.72-26.87,12.72-26.87m0-11.71-5.84,6.24C296.35,620,283,634.7,283,650.66c0,17.05,9.29,30.92,20.72,30.92s20.73-13.87,20.73-30.92c0-16-13.36-30.71-14.88-32.34l-5.85-6.24Z"/><path class="h" d="M237.82,658.7a9.68,9.68,0,0,1-5.58-1.56,7.6,7.6,0,0,1-3.28-6.48c0-6.44,6.47-14.72,17.3-22.16,14.17-9.74,36-14.11,36.92-14.29l7.33-1.44-2.87,6.9c-.27.65-6.84,16.16-21.3,26.1-8.58,5.9-20.49,12.93-28.52,12.93Z"/><path class="i" d="M284,618.13s-6.23,15-19.88,24.35c-11,7.55-20.65,12.22-26.25,12.22a5.78,5.78,0,0,1-3.31-.85c-4.3-3,.36-12.67,14-22.06S284,618.13,284,618.13m13.13-10.73-14.67,2.88c-1,.19-23.57,4.72-38.42,14.92-12.09,8.31-19,17.59-19,25.46a11.67,11.67,0,0,0,5,9.78,13.61,13.61,0,0,0,7.85,2.26c7.27,0,17.63-4.59,30.78-13.63C284,638.47,291,621.9,291.33,621.2l5.75-13.8Z"/><path class="j" d="M234.53,616.08c-9.78,0-16.57,0-21.5-.56-3.05-.32-11.16-1.18-11.16-7.53,0-8.28,15.62-15,34.82-15,19.82,0,39.69,7.5,40.53,7.82l9.79,3.74-9.79,3.73c-.84.32-20.71,7.82-40.53,7.82Z"/><path class="i" d="M236.69,597c19.31,0,39.1,7.56,39.1,7.56s-19.79,7.55-39.1,7.55h-2.17c-18,0-28.65-.08-28.65-4.09,0-4.17,11.51-11,30.82-11m0-8c-22.13,0-38.82,8.18-38.82,19,0,4.17,2.5,7.77,6.69,9.64a26.61,26.61,0,0,0,8,1.87c5.13.54,12,.58,21.92.58h2.17c20.55,0,41.09-7.75,42-8.08l19.58-7.47-19.58-7.48c-.87-.33-21.41-8.08-42-8.08Z"/><path class="j" d="M283.25,594.87c-.92-.18-22.74-4.55-36.91-14.29-7.89-5.43-17.3-13.42-17.3-20.68a7.37,7.37,0,0,1,3.28-6.24,11.34,11.34,0,0,1,6.54-1.76c7,0,17,4.15,27.55,11.4,14.46,9.94,21,25.45,21.31,26.11l2.87,6.9Z"/><path class="i" d="M238.86,555.9c5.7,0,14.91,3.56,25.29,10.7C277.8,576,284,590.94,284,590.94s-21.76-4.28-35.42-13.66-18.31-17.37-14-20.32a7.51,7.51,0,0,1,4.28-1.06m0-8a15.23,15.23,0,0,0-8.81,2.47,11.42,11.42,0,0,0-5,9.53c0,7.23,6.4,15.29,19,24,14.85,10.21,37.46,14.73,38.41,14.92l14.67,2.88-5.74-13.8c-.29-.7-7.31-17.27-22.73-27.87-11.36-7.8-22-12.1-29.82-12.1Z"/><path class="j" d="M303.77,620.66c-14.84,0-26-6.55-26-15.23s11.19-15.24,26-15.24,26,6.55,26,15.24S318.61,620.66,303.77,620.66Z"/><path class="i" d="M303.77,594.19c12.16,0,22,5,22,11.24s-9.87,11.23-22,11.23-22-5-22-11.23,9.86-11.24,22-11.24m0-8a43.12,43.12,0,0,0-19.22,4.17c-6.87,3.5-10.81,9-10.81,15.07s3.94,11.56,10.81,15.07a46.46,46.46,0,0,0,38.43,0c6.87-3.51,10.82-9,10.82-15.07s-3.95-11.57-10.82-15.07a43.11,43.11,0,0,0-19.21-4.17Z"/><path class="h" d="M98.74,399.5c-9.16,0-18.48-14.3-24.92-38.24-6.62-24.62-1.38-52.49-1.16-53.66l1.56-8.07,5.39,6.2c.78.9,19.29,22.38,25.92,47,3.19,11.87,4.64,22.38,4.2,30.38-.65,11.54-5.09,15.12-8.7,16.09A8.78,8.78,0,0,1,98.74,399.5Z"/><path class="i" d="M76.59,308.36s18.61,21.39,25.08,45.41,4.94,39.78-1.68,41.56a4.77,4.77,0,0,1-1.25.17c-6.49,0-15-12.73-21-35.28-6.47-24-1.1-51.86-1.1-51.86m-4.75-17.65-3.11,16.13c-.23,1.21-5.63,30,1.23,55.46,3.09,11.49,7,21.24,11.28,28.21,5.31,8.62,11.2,13,17.5,13a12.84,12.84,0,0,0,3.33-.44c4.89-1.32,10.88-5.8,11.65-19.72.47-8.43-1-19.37-4.33-31.65-6.86-25.5-25.95-47.65-26.76-48.58l-10.79-12.4Z"/><path class="h" d="M70.1,298.07c-.6-.69-14.73-17.08-19.79-35.9-2.44-9.06-3.55-17.11-3.2-23.26.51-9.29,4.25-12.22,7.29-13a7.74,7.74,0,0,1,2-.26c10.66,0,17.38,20.71,19.77,29.61,5.07,18.82,1.07,40.09.89,41l-1.55,8.07Z"/><path class="i" d="M56.38,229.61c4.91,0,11.33,9.62,15.91,26.65,4.88,18.15.83,39.18.83,39.18s-14.07-16.16-19-34.31-3.73-30,1.27-31.4a3.73,3.73,0,0,1,.94-.12m0-8a11.39,11.39,0,0,0-3,.4c-10.66,2.87-13.18,17.89-6.91,41.2,5.3,19.7,20,36.77,20.63,37.49l10.78,12.39L81,297c.18-.93,4.34-23.08-1-42.78-3.28-12.16-10.7-32.57-23.64-32.57Z"/><path class="h" d="M171.8,337.62c-6,0-13.48-1.35-21.65-3.92-18.73-5.87-34.3-21.74-34.95-22.42L110,306l7.27-1.41A106.46,106.46,0,0,1,135.78,303a77.29,77.29,0,0,1,23,3.14c9,2.83,16.43,6.35,21.42,10.18,7.78,6,7.58,11.22,6.77,13.81C186.11,332.93,183,337.62,171.8,337.62Z"/><path class="i" d="M135.77,307A73.67,73.67,0,0,1,157.6,310c18,5.64,27.3,13.47,25.58,19-1,3-5,4.69-11.38,4.69-5.32,0-12.28-1.17-20.45-3.73-18-5.64-33.28-21.39-33.28-21.39a103.11,103.11,0,0,1,17.7-1.49m0-8v0h0a112.41,112.41,0,0,0-19.23,1.63L102,303.46l10.31,10.61c.68.7,16.94,17.27,36.62,23.45,8.56,2.68,16.46,4.1,22.85,4.1,13.73,0,17.8-6.45,19-10.3,1.12-3.58,1.56-10.71-8.16-18.17C177.3,309,169.47,305.3,160,302.32A81.39,81.39,0,0,0,135.78,299Z"/><path class="h" d="M154.84,312.21c-18.56,0-36.66-8.43-37.42-8.79l-6.7-3.16,6.31-3.87c.8-.49,19.8-12,39.4-13.11,2-.11,4-.16,5.92-.16,17.66,0,28.46,4.75,28.9,12.72.15,2.71-.95,7.83-10,11.7-5.77,2.49-13.82,4.07-23.26,4.59C157,312.19,155.92,312.21,154.84,312.21Z"/><path class="i" d="M162.35,287.12c15.41,0,24.63,3.78,24.91,8.94.32,5.76-10.65,11-29.46,12.08-1,.05-2,.08-3,.08-17.88,0-35.72-8.42-35.72-8.42s18.72-11.49,37.53-12.52c2-.11,3.88-.16,5.7-.16m0-8v0h0c-2,0-4,.06-6.14.17-20.6,1.13-40.44,13.18-41.27,13.69l-12.61,7.74L115.71,307c.79.37,19.68,9.18,39.13,9.18,1.15,0,2.29,0,3.4-.1,23.8-1.3,37.64-9,37-20.5-.28-5-4-16.5-32.9-16.5Z"/><path class="j" d="M155.92,363c-6.48,0-15.72-3-25.36-8.15-17.3-9.29-29.61-27.8-30.13-28.58l-3.91-5.94,7.11-.26s.49,0,1.39,0c5.52,0,24.67.68,39.36,9.44,16.54,9.85,22.9,17.47,22,26.31C166.15,357.48,164.86,363,155.92,363Z"/><path class="i" d="M105,324c4.92,0,23.4.59,37.31,8.87,19.12,11.39,20.52,17.85,20,22.45-.25,2.38-2.59,3.63-6.43,3.63-5.4,0-13.77-2.46-23.47-7.67-16.6-8.92-28.68-27.26-28.68-27.26s.45,0,1.25,0m0-8h0c-1,0-1.53,0-1.53,0l-14.18.54,7.78,11.86c.54.82,13.4,20.14,31.58,29.91,10.35,5.56,20,8.62,27.25,8.62,9.77,0,13.85-5.81,14.39-10.78,1.14-10.64-5.78-19.39-23.88-30.17-15.57-9.27-35.63-10-41.41-10Z"/><path class="j" d="M128.16,291.62a107.63,107.63,0,0,1-20.72-2l-7.23-1.57,5.27-5.19c.67-.66,16.59-16.18,35.45-21.64a77.88,77.88,0,0,1,20.8-3.44c11.9,0,15.1,4.91,16,7.84,2.48,8.56-8.53,17.51-28.72,23.35A75,75,0,0,1,128.16,291.62Z"/><path class="i" d="M161.73,261.78c6.88,0,11.19,1.8,12.11,5,1.6,5.54-7.89,13.15-26,18.39a71.68,71.68,0,0,1-19.69,2.49,104.05,104.05,0,0,1-19.87-1.91s15.65-15.4,33.75-20.64a73.16,73.16,0,0,1,19.69-3.29m0-8h0a80.54,80.54,0,0,0-21.91,3.6C120,263.12,103.38,279.32,102.68,280L92.13,290.39l14.46,3.14a112.5,112.5,0,0,0,21.57,2.09,79.3,79.3,0,0,0,21.92-2.8c9.53-2.76,17.44-6.33,22.88-10.32,9.88-7.25,9.61-14.38,8.56-18-2.7-9.34-13.56-10.73-19.79-10.73Z"/><path class="j" d="M99.24,285.17c.28-.89,7-22.09,21-35.81,10.52-10.27,20.56-16.16,27.55-16.16a9.33,9.33,0,0,1,6.92,2.68c1.9,1.94,4.45,6.52.21,15.37-2.71,5.68-7.72,12.17-14.49,18.78-14,13.71-35.39,19.92-36.29,20.18l-7.12,2Z"/><path class="i" d="M147.81,237.2a5.47,5.47,0,0,1,4.06,1.47c4,4.13-.74,15.33-14.21,28.49s-34.6,19.2-34.6,19.2,6.52-21,20-34.14c10.26-10,19.26-15,24.75-15m0-8h0c-4.72,0-14.93,2.25-30.34,17.3-14.76,14.42-21.76,36.55-22,37.49L91,298.12l14.23-4.07c.94-.26,23.23-6.75,38-21.16,7.09-6.94,12.38-13.82,15.3-19.91,5.28-11,1.67-17.21-1-19.9a13.22,13.22,0,0,0-9.78-3.88Z"/><path class="j" d="M78.54,295.71c-.51-.79-12.48-19.53-14-39.1C63.81,247.18,64.32,239,66,233c2.65-9.46,7.59-11.22,10.29-11.43.22,0,.43,0,.65,0,8.66,0,14.79,12.29,16.39,32.88,1.52,19.57-7.41,39.93-7.79,40.79l-3,6.76Z"/><path class="i" d="M77,225.49c5.63,0,11,10.78,12.4,29.19,1.46,18.79-7.45,38.86-7.45,38.86S70,275.09,68.53,256.3s2.33-30.35,8.08-30.8H77m0-8c-.32,0-.64,0-1,0-11.52.89-17.29,15.62-15.44,39.39,1.6,20.57,14.1,40.13,14.63,41l8,12.43,6-13.52c.4-.9,9.72-22.16,8.12-42.73-.75-9.68-2.58-18-5.29-24.13C90,225.29,85.27,217.49,77,217.49Z"/><path class="j" d="M127,388c-7.28,0-16.72-8-25.9-21.94-10.79-16.4-12.82-38.54-12.9-39.47l-.64-7.37,6.52,3.5c.83.44,20.36,11.06,31.15,27.46,5.2,7.9,8.71,15.31,10.15,21.43,2.25,9.56-1.21,13.48-3.48,15A8.73,8.73,0,0,1,127,388Z"/><path class="i" d="M92.15,326.24s19.34,10.4,29.7,26.14,12.63,27.69,7.81,30.86a4.77,4.77,0,0,1-2.7.76c-5.35,0-13.86-6.92-22.56-20.14C94,348.12,92.15,326.24,92.15,326.24M82.9,312.19l1.28,14.74c.08,1,2.2,24.1,13.54,41.33C103.56,377.13,115.12,392,127,392a12.83,12.83,0,0,0,7.1-2.07c3.14-2.07,8-7.31,5.18-19.24-1.55-6.57-5.25-14.42-10.71-22.71-11.34-17.23-31.73-28.32-32.6-28.78l-13-7Z"/><path class="h" d="M80,284.67c0-.94.12-23.17,9.46-40.43,8.3-15.33,17.33-24.13,24.77-24.13a8.69,8.69,0,0,1,4.16,1c2.38,1.29,6.17,4.91,4.75,14.63-.91,6.22-3.77,13.9-8.27,22.22-9.35,17.26-27.9,29.52-28.68,30L80,292.07Z"/><path class="i" d="M114.21,224.11a4.6,4.6,0,0,1,2.25.55c5.07,2.75,3.84,14.85-5.13,31.42S84,284.67,84,284.67s0-22,9-38.53c7.77-14.36,15.92-22,21.25-22m0-8h0c-12.26,0-23,16.43-28.29,26.22C76.1,260.47,76,283.69,76,284.67v14.79l12.39-8.09c.81-.54,20.18-13.34,30-31.48,4.73-8.72,7.74-16.87,8.72-23.55,1.77-12.12-3.51-16.93-6.81-18.72a12.6,12.6,0,0,0-6.06-1.51Z"/><path class="j" d="M-1.62,384.89A9.27,9.27,0,0,1-8,382.58c-2-1.83-4.8-6.26-1.06-15.34,2.39-5.82,7-12.58,13.41-19.55,13.26-14.48,34.22-21.88,35.11-22.18l7-2.43-1.8,7.18c-.23.91-5.73,22.45-19,36.93-10.29,11.25-20.24,17.7-27.29,17.7Z"/><path class="i" d="M40.78,329.29s-5.33,21.3-18.06,35.2c-10,10.89-18.9,16.4-24.34,16.4a5.26,5.26,0,0,1-3.67-1.26c-4.25-3.9-.12-15.34,12.6-29.24s33.47-21.1,33.47-21.1m11.36-12.41-14,4.85c-.93.32-22.82,8-36.75,23.26-16.09,17.59-20.62,32.74-12.1,40.54a13.15,13.15,0,0,0,9.07,3.36c4.8,0,15.12-2.47,30.25-19,13.92-15.22,19.67-37.71,19.91-38.66l3.6-14.35Z"/><path class="j" d="M-17.83,360.4c-6.88,0-9.81-2.91-11-5.34-4-7.95,5.09-18.8,23.82-28.33,15.39-7.83,34.32-8.44,39.76-8.44h.91l7.38.2-4.19,6.08c-.53.77-13.26,19-30.75,27.9-10,5.11-19.24,7.93-25.88,7.93Z"/><path class="i" d="M34.7,322.29h.81S23,340.36,6.23,348.91c-10,5.1-18.39,7.49-24.06,7.49-3.83,0-6.43-1.09-7.48-3.16-2.62-5.14,5.27-14.4,22.07-22.95,14.89-7.57,33.83-8,37.94-8m0-8c-5.66,0-25.39.64-41.57,8.87C-28.12,334-37.68,346.58-32.44,356.87c1.43,2.81,5.23,7.53,14.61,7.53,7.37,0,16.94-2.89,27.69-8.36,18.39-9.36,31.67-28.39,32.23-29.2l8.39-12.14-14.77-.4Z"/><path class="j" d="M28.87,397.45a7.38,7.38,0,0,1-6.11-3c-5.25-7.17-3.58-17,5.79-33.77,9.62-17.3,29.67-28.14,30.52-28.59l6.28-3.35-.4,7.1c0,.94-1.42,23.13-11.72,39.84-6.5,10.54-16.31,21.81-24.36,21.81Z"/><path class="i" d="M61,335.58s-1.25,21.92-11.14,38c-7.88,12.79-16.18,19.9-20.95,19.9A3.37,3.37,0,0,1,26,392c-2.74-3.73-4.77-10,6.05-29.45,9.17-16.47,28.92-27,28.92-27m8.79-13.76-12.56,6.7c-.89.48-21.95,11.86-32.14,30.17s-11.85,29.45-5.52,38.08a11.45,11.45,0,0,0,9.34,4.68c11.87,0,23.37-16.58,27.76-23.71C67.46,360.18,68.89,337,68.94,336l.81-14.21Z"/><path class="h" d="M-14.88,330.59c-13.32,0-16.63-5.31-17.42-8.48-2.15-8.65,9.19-17.17,29.59-22.24a71.58,71.58,0,0,1,17.23-1.93A107.28,107.28,0,0,1,38.8,300.8L46,302.64l-5.47,5c-.69.63-17.19,15.53-36.24,20.27a81,81,0,0,1-19.14,2.69Z"/><path class="i" d="M14.52,301.94a104.52,104.52,0,0,1,23.29,2.73S21.58,319.47,3.3,324a77.42,77.42,0,0,1-18.19,2.57c-7.82,0-12.67-2-13.52-5.45-1.4-5.59,8.38-12.84,26.66-17.39a67.88,67.88,0,0,1,16.27-1.81m0-8a76.1,76.1,0,0,0-18.2,2c-23.14,5.76-35.29,15.89-32.5,27.09,1.07,4.3,5.26,11.52,21.29,11.52a84.86,84.86,0,0,0,20.12-2.81c20-5,37.25-20.54,38-21.2l10.93-10L39.8,296.92a112.37,112.37,0,0,0-25.28-3Z"/><path class="h" d="M19.74,309.24a72,72,0,0,1-17.62-2c-20.38-5.16-31.68-13.74-29.49-22.37.8-3.14,4.09-8.4,17.23-8.4a80.17,80.17,0,0,1,19.35,2.77c19,4.82,35.47,19.79,36.16,20.43l5.44,5-7.17,1.81a108,108,0,0,1-23.9,2.75Z"/><path class="i" d="M-10.14,280.47a77,77,0,0,1,18.37,2.64c18.27,4.63,34.43,19.5,34.43,19.5a104.47,104.47,0,0,1-22.92,2.63A68.53,68.53,0,0,1,3.1,303.36c-18.27-4.63-28-11.92-26.59-17.51.86-3.4,5.64-5.38,13.35-5.38m0-8c-15.85,0-20,7.15-21.11,11.41-.92,3.65-1,10.79,9.16,17.69,5.58,3.81,13.61,7.11,23.23,9.55a76.06,76.06,0,0,0,18.6,2.12,113,113,0,0,0,24.88-2.87L59,306.74l-10.88-10c-.73-.66-17.88-16.29-37.88-21.36a84.28,84.28,0,0,0-20.34-2.89Z"/><path class="h" d="M62.22,301.44c-.76-.55-18.7-13.68-27.2-31.38-9.11-18.94-9.78-33.11-1.75-37a8.54,8.54,0,0,1,3.75-.84c7.55,0,16.31,9.22,24,25.3,8.51,17.69,7.55,39.9,7.51,40.84l-.35,7.39Z"/><path class="i" d="M37,236.25c5.33,0,13.24,8.07,20.43,23,8.16,17,7.11,38.92,7.11,38.92s-17.78-12.89-25.94-29.87S29.81,239.19,35,236.7a4.6,4.6,0,0,1,2-.45m0-8a12.53,12.53,0,0,0-5.48,1.24c-3.39,1.62-8.89,6.17-7.7,18.37.65,6.72,3.27,15,7.57,23.94,8.94,18.59,27.67,32.3,28.46,32.88l12,8.68.71-14.78c0-1,1-24.17-7.9-42.76-4.95-10.3-15.12-27.57-27.64-27.57Z"/><path class="h" d="M68.5,403.77H68c-8.9-.5-13.69-13.85-12.5-34.84,1.11-19.6,12.68-38.59,13.17-39.38l3.88-6.3,3.15,6.69c.4.85,9.75,21,8.64,40.62C83.21,391,77.13,403.77,68.5,403.77Z"/><path class="i" d="M72.11,331.63s9.33,19.88,8.27,38.7c-1,18.54-6.22,29.44-11.88,29.44h-.25c-5.76-.33-9.79-11.81-8.73-30.63s12.59-37.51,12.59-37.51m1-16.79-7.76,12.6c-.52.83-12.6,20.65-13.76,41.25-1.35,23.81,4.73,38.41,16.26,39.06.23,0,.47,0,.7,0,8.43,0,13-7.93,15-12.66,2.61-6.16,4.27-14.58,4.83-24.33,1.16-20.6-8.6-41.66-9-42.55l-6.29-13.39Z"/><path class="j" d="M58.1,295.57c-.93-.05-23.13-1.35-39.87-11.59C10.16,279,3.83,273.83-.08,268.91c-6.1-7.69-4.64-12.72-3.22-15,1.26-2.06,4-4.53,9.71-4.53,6.81,0,16.36,3.55,26.89,10,16.75,10.24,28,29.42,28.48,30.23L65.49,296Z"/><path class="i" d="M6.41,253.34c5.66,0,14.38,3,24.81,9.41,16.07,9.83,27.1,28.82,27.1,28.82s-21.93-1.17-38-11S-2.9,260.88.11,256c1.06-1.73,3.23-2.62,6.3-2.62m0-8c-8,0-11.65,4-13.13,6.45-2,3.2-4.11,10,3.51,19.6,4.19,5.29,10.89,10.82,19.35,16,17.6,10.77,40.77,12.12,41.75,12.17l14.78.79-7.43-12.79c-.5-.85-12.25-20.87-29.85-31.64-7.89-4.82-19.32-10.58-29-10.58Z"/><path class="h" d="M87,294.29c.52-.77,13-18.92,31.27-30.77,13.84-9,23.88-10.36,28.63-10.36s8.28,1.2,10.39,3.47A6.38,6.38,0,0,1,159,261.8c-.65,5.29-7.21,9.56-24.73,21-18.15,11.81-42.07,17.45-43.08,17.68l-10,2.32Z"/><path class="i" d="M146.86,257.17c3.69,0,6.26.89,7.47,2.19,3.21,3.46-4.49,8.49-22.26,20.05s-41.8,17.14-41.8,17.14,12.39-18.12,30.15-29.68c11.1-7.22,20.31-9.7,26.44-9.7m0-8c-9,0-19.9,3.9-30.8,11C97.17,272.45,84.21,291.24,83.67,292L72.08,309l20-4.64c1-.24,25.63-6,44.36-18.23s25.64-16.68,26.52-23.82a10.32,10.32,0,0,0-2.77-8.38c-2.89-3.1-7.5-4.74-13.33-4.74Z"/><path class="j" d="M158.12,320.61c-4.3,0-9.72-.31-16-.68-2.76-.16-5.71-.33-8.84-.49-21.71-1.11-41.65-10.53-42.48-10.93l-9.26-4.42,9.81-3c.85-.26,21.22-6.44,41.47-6.44,1.59,0,3.16,0,4.66.12,18.3.94,29.42,7.38,33.38,12.61,2.24,3,2.29,5.45,1.93,7-1.41,6.21-10,6.22-14.65,6.22Z"/><path class="i" d="M132.82,298.64c1.49,0,3,0,4.46.11,21.16,1.09,32.66,10.14,31.61,14.75-.54,2.38-4.32,3.11-10.77,3.11-6,0-14.4-.64-24.63-1.16-21.17-1.09-41-10.55-41-10.55s20.42-6.26,40.3-6.26m0-8c-20.84,0-41.76,6.34-42.64,6.61l-19.63,6,18.52,8.85c.87.42,21.51,10.16,44,11.32,3.11.16,6.06.33,8.81.49,6.34.37,11.81.68,16.23.68,4.92,0,16.45,0,18.57-9.34A12.48,12.48,0,0,0,174.05,305c-2.81-3.72-7.57-7-13.76-9.52a70.82,70.82,0,0,0-22.6-4.68c-1.57-.08-3.21-.12-4.87-.12Z"/><path class="h" d="M119.07,364.51c-6.17,0-13-4.22-21.38-13.27-12.78-13.75-17-33.14-17.12-34l-1.49-7.12,6.81,2.56c.9.34,22,8.37,34.68,22,8.08,8.7,11.4,14.91,10.75,20.13a10.19,10.19,0,0,1-5,7.44,13.2,13.2,0,0,1-7.27,2.22Z"/><path class="i" d="M84.49,316.46s21,7.89,33.15,21,11.22,18.44,6.52,21.49a9.11,9.11,0,0,1-5.09,1.58c-4.32,0-10.08-3-18.45-12-12.17-13.09-16.13-32.05-16.13-32.05M73.67,303.85l3,14.25c.18.86,4.57,21.3,18.1,35.86,9.23,9.93,16.95,14.55,24.31,14.55a17.1,17.1,0,0,0,9.45-2.87,14.13,14.13,0,0,0,6.77-10.3c.81-6.5-2.83-13.7-11.79-23.34-13.3-14.31-35.27-22.68-36.2-23l-13.63-5.12Z"/><path class="j" d="M61.4,380l-.79,0a10.22,10.22,0,0,1-8-3.93c-3.18-4.2-3.42-11.23-.79-22.82,4.12-18.14,18.35-35.68,19-36.42l4.61-5.64,2.29,6.92c.26.79,6.38,19.65,2.22,38C77.52,366.32,73.06,380,61.4,380Z"/><path class="i" d="M73.83,319.33s6.08,18.39,2.12,35.82C72.13,372,66.8,376,61.4,376l-.58,0c-5.6-.28-9.1-4.43-5.14-21.86s18.15-34.78,18.15-34.78m3-16.33-9.21,11.27c-.63.76-15.44,19-19.76,38.07-2.92,12.84-2.45,20.89,1.5,26.11a14.14,14.14,0,0,0,11,5.51q.5,0,1,0a17.74,17.74,0,0,0,14.12-7.11c3.48-4.36,6.17-10.88,8.23-20,4.4-19.38-2-39.26-2.33-40.1L76.85,303Z"/><path class="h" d="M1.44,363.93a6.67,6.67,0,0,1-5-2.09c-1.1-1.18-2.3-3.36-1.85-7,.8-6.52,7.19-17.67,22.54-27.66,18.15-11.81,42.07-17.45,43.08-17.69l10-2.32-5.79,8.48c-.52.76-13,18.91-31.27,30.77q-3.93,2.57-7.4,4.87c-12.38,8.17-19.2,12.67-24.27,12.67Z"/><path class="i" d="M61.08,313.36S48.69,331.48,30.93,343C16,352.75,6.13,359.93,1.44,359.93a2.71,2.71,0,0,1-2.11-.82c-3.22-3.46,2.18-17.05,20-28.61s41.8-17.14,41.8-17.14m18.18-12.43-20,4.64c-1,.24-25.63,6-44.36,18.22C-1.58,334.52-8.47,346.6-9.42,354.32a12.46,12.46,0,0,0,2.89,10.24,10.74,10.74,0,0,0,8,3.37c6.27,0,13.44-4.74,26.48-13.34l7.37-4.85c18.89-12.29,31.85-31.07,32.39-31.86l11.58-16.95Z"/><path class="h" d="M18.53,315.26c-1.59,0-3.16,0-4.66-.11C-7,314.08-14.83,313.68-18,309.42a6.34,6.34,0,0,1-1.09-5.33c1.55-6.83,13.28-13.74,32.68-13.74,1.48,0,3,0,4.53.11,21.71,1.12,41.65,10.53,42.48,10.93l9.26,4.43-9.81,3c-.85.26-21.21,6.43-41.47,6.43Z"/><path class="i" d="M13.54,294.35c1.39,0,2.83,0,4.32.11,21.17,1.08,41,10.54,41,10.54s-20.41,6.26-40.3,6.26c-1.49,0-3,0-4.46-.11-21.16-1.08-30.35-1.57-29.31-6.18,1-4.28,10.45-10.62,28.78-10.62m0-8c-22.62,0-34.67,8.46-36.58,16.85a10.34,10.34,0,0,0,1.8,8.64c4.35,5.74,12.67,6.16,34.9,7.3,1.57.08,3.21.12,4.87.12,20.84,0,41.76-6.34,42.64-6.61l19.63-6-18.52-8.84c-.87-.42-21.51-10.17-44-11.32-1.59-.08-3.18-.12-4.73-.12Z"/><path class="h" d="M65.34,297.87c-.84-.2-20.7-4.93-31.91-15.34C25.32,275,21.15,267.69,21.68,262a9,9,0,0,1,4.2-6.91,11.79,11.79,0,0,1,6.38-1.69c6.86,0,15.63,4.48,24.05,12.31,11.47,10.66,13.81,27.06,13.91,27.75l.78,5.75Z"/><path class="i" d="M32.26,257.37c5.41,0,13.26,3.74,21.32,11.24C64.14,278.42,66.25,294,66.25,294s-19.54-4.56-30.1-14.37S23.2,261.48,28,258.44a8,8,0,0,1,4.25-1.07m0-8h0a15.61,15.61,0,0,0-8.51,2.31,12.87,12.87,0,0,0-6.05,9.91c-.66,7.1,3.84,15.35,13,23.87,12,11.13,32.84,16.09,33.72,16.3l11.31,2.64-1.56-11.51c-.1-.75-2.64-18.52-15.15-30.14-9.15-8.51-18.91-13.38-26.77-13.38Z"/><path class="j" d="M74.3,292.33c-.27-.64-6.48-16-1.9-31S85,236.89,93,236.89h.37a8.94,8.94,0,0,1,7.09,3.87c3.34,4.68,3.39,13.09.16,23.68-4.48,14.63-19.29,28.68-19.92,29.27l-4.22,4Z"/><path class="i" d="M93,240.89h.22c5.68.22,7.78,8.6,3.57,22.39S78,290.81,78,290.81s-6-14.51-1.76-28.3c4.16-13.6,11.15-21.62,16.8-21.62m0-8c-9.94,0-19.31,10.46-24.45,27.29-5,16.33,1.73,33,2,33.68L75,304.59l8.46-7.95c.66-.62,16.21-15.39,21-31,3.66-12,3.41-21.37-.72-27.17a12.86,12.86,0,0,0-10.21-5.55Z"/><path class="h" d="M81.87,285.49c.07-.53,1.83-13.21,10.47-23.34,7.59-8.91,15.44-14.23,21-14.23a8.16,8.16,0,0,1,2.69.44,6.49,6.49,0,0,1,4.21,4.54c1.51,5.64-3.85,13.5-8.62,19.1-8.42,9.87-23.4,17.3-24,17.61l-6.71,3.3Z"/><path class="i" d="M113.34,251.92a3.9,3.9,0,0,1,1.37.22c3.65,1.28,1.85,7.9-6.13,17.26S85.83,286,85.83,286s1.58-11.92,9.55-21.28c7.09-8.31,14-12.82,18-12.82m0-8c-9.33,0-19.07,9.79-24,15.63C79.89,270.58,78,284.39,77.9,285l-2,14.82,13.42-6.59c.66-.33,16.36-8.11,25.31-18.61,8-9.33,11-16.77,9.44-22.72a10.53,10.53,0,0,0-6.74-7.28,12.17,12.17,0,0,0-4-.67Z"/><path class="h" d="M68.23,289c-.48-.35-11.68-8.58-14.57-19.34-1.4-5.18-1.65-9.94-.72-13.75,1.06-4.4,3.74-7.48,7.33-8.45a9.46,9.46,0,0,1,2.37-.31c6.25,0,11.81,6.21,14.5,16.2,2.89,10.75-2.67,23.5-2.91,24l-2,4.53Z"/><path class="i" d="M62.64,251.16c4,0,8.33,4.68,10.63,13.24,2.56,9.51-2.69,21.37-2.69,21.37s-10.5-7.63-13.06-17.14-.56-16.12,3.79-17.29a5,5,0,0,1,1.33-.18m0-8a13.09,13.09,0,0,0-3.41.45c-7.76,2.09-13.69,11.28-9.44,27.1,3.2,11.9,14.78,20.59,16.08,21.54l8,5.82,4-9.06c.66-1.48,6.31-14.79,3.11-26.69s-10.21-19.16-18.36-19.16Z"/><path class="j" d="M102.6,298.54c-5.11,0-8.56-.35-8.71-.36l-10.42-1.07L92,291c.54-.4,13.49-9.71,27.87-13.58a53.48,53.48,0,0,1,13.75-1.95c8.49,0,14.23,2.52,15.37,6.73,1.48,5.5-5.2,8-7.39,8.86-3.75,1.42-9.13,2.87-15.94,4.7l-.79.22a88.91,88.91,0,0,1-22.22,2.6Z"/><path class="i" d="M133.57,279.43c6.73,0,11,1.82,11.5,3.77.81,3-7.46,5.15-21.29,8.87a84.1,84.1,0,0,1-21.19,2.47c-5,0-8.29-.34-8.29-.34s12.73-9.23,26.56-13a49.65,49.65,0,0,1,12.71-1.81m0-8a57,57,0,0,0-14.78,2.09c-15.09,4.06-28.62,13.79-29.19,14.2l-17,12.3,20.86,2.14c.15,0,3.8.38,9.1.38a93,93,0,0,0,23.26-2.74l.79-.21c6.93-1.87,12.39-3.34,16.32-4.83a22.21,22.21,0,0,0,6.1-3.21,9.85,9.85,0,0,0,3.74-10.43c-1.66-6.16-8.67-9.69-19.23-9.69Z"/><path class="h" d="M128,327.18c-6,0-13.84-2.33-19.37-4.28C96.06,318.47,88.18,308.39,87.85,308L83.29,302l7.45-.51c.09,0,2.26-.16,5.57-.16,6.67,0,16.26.58,24.06,3.34,9.52,3.36,16,8.31,17.32,13.25a6.63,6.63,0,0,1-1.31,6.21c-1.72,2-4.47,3-8.39,3Z"/><path class="i" d="M96.31,305.37c5.79,0,15.26.47,22.73,3.11,11.59,4.09,16.8,10.16,14.29,13.1-.92,1.09-2.78,1.6-5.34,1.6-4.35,0-10.74-1.47-18-4.05C98.36,315,91,305.52,91,305.52s2.08-.15,5.29-.15m0-8c-3.44,0-5.74.16-5.84.17l-14.92,1,9.13,11.84c.36.47,8.95,11.45,22.61,16.28,5.82,2.05,14.13,4.5,20.7,4.5,5.09,0,8.94-1.49,11.43-4.41a10.67,10.67,0,0,0,2.13-9.85c-1.69-6.3-8.93-12.13-19.85-16-8.34-2.95-18.41-3.57-25.39-3.57Z"/><path class="j" d="M86.32,353.18c-6.73,0-13.55-7.18-16.21-17.08-2.93-10.91,4-24.07,4.27-24.63l2-3.77L80,310c.54.34,13.12,8.26,16.06,19.17a28.2,28.2,0,0,1,.22,14.68c-1.35,4.82-4.18,8.13-7.75,9.09a8.32,8.32,0,0,1-2.23.29Z"/><path class="i" d="M77.91,313.35s11.74,7.3,14.3,16.81-.35,17.7-4.7,18.87a4.68,4.68,0,0,1-1.19.15c-4.29,0-10-5.44-12.35-14.12-2.55-9.51,3.94-21.71,3.94-21.71m-3-11.31-4,7.55c-.82,1.54-7.88,15.34-4.6,27.55,3.12,11.62,11.56,20,20.07,20a12.81,12.81,0,0,0,3.27-.42c9.44-2.54,14-15.14,10.35-28.68-3.29-12.21-16.33-20.61-17.81-21.52L74.87,302Z"/><path class="h" d="M35.23,352.41a7.32,7.32,0,0,1-2.45-.41,6.65,6.65,0,0,1-4.25-4.72c-1.33-4.93,1.79-12.47,8.33-20.15,8.42-9.87,23.4-17.3,24-17.61l6.71-3.3-1,7.41c-.07.54-1.83,13.21-10.47,23.35s-15.77,15.43-20.92,15.43Z"/><path class="i" d="M62.66,313.11S61.08,325,53.11,334.39c-7.23,8.48-14,14-17.88,14a3.33,3.33,0,0,1-1.12-.18c-3.64-1.28-2.18-9.15,5.8-18.5s22.75-16.62,22.75-16.62m9.89-13.78-13.42,6.6c-.66.32-16.36,8.11-25.31,18.61C26.31,333.35,23,342,24.67,348.32a10.68,10.68,0,0,0,6.78,7.46,11.32,11.32,0,0,0,3.78.63c2.38,0,9.62,0,24-16.83,9.4-11,11.31-24.84,11.39-25.42l2-14.83Z"/><path class="j" d="M7.77,326.27c-5.16,0-6.53-3-6.88-4.34-.9-3.33,1.2-7.18,5.89-10.84,3-2.34,8.37-5.61,16.89-7.9a88.91,88.91,0,0,1,22.22-2.6c5.11,0,8.56.35,8.71.36L65,302l-8.48,6.15c-.54.39-13.49,9.7-27.87,13.57l-.8.22c-9.65,2.59-16,4.31-20.1,4.31Z"/><path class="i" d="M45.9,304.59c5,0,8.29.34,8.29.34s-12.73,9.23-26.56,12.95c-9.4,2.53-16.21,4.39-19.86,4.39-1.73,0-2.76-.42-3-1.38-.8-3,6.13-10.11,20-13.84a84.52,84.52,0,0,1,21.19-2.46m0-8a92.67,92.67,0,0,0-23.27,2.74c-9.17,2.47-15,6-18.31,8.61C-3.83,314.3-3.75,320.09-3,323c.46,1.71,2.59,7.3,10.74,7.3,4.61,0,11.19-1.77,21.15-4.45l.78-.21c15.09-4.06,28.62-13.79,29.19-14.2l17-12.31L55,297c-.15,0-3.8-.38-9.1-.38Z"/><path class="j" d="M52.18,297.75c-6.67,0-16.26-.58-24.06-3.33-6.93-2.45-15.52-6.55-17-12.19a6.47,6.47,0,0,1,1.35-6c2-2.29,5.36-3.46,10.11-3.46a54.24,54.24,0,0,1,17.32,3.49c12.56,4.44,20.44,14.52,20.77,14.94l4.56,5.92-7.45.52c-.09,0-2.26.15-5.57.15Z"/><path class="i" d="M22.55,276.73a50.31,50.31,0,0,1,16,3.26c11.6,4.1,18.94,13.62,18.94,13.62s-2.08.14-5.29.14c-5.79,0-15.26-.47-22.73-3.1-11.59-4.1-16.47-8.92-14-11.86,1.14-1.34,3.61-2.06,7.06-2.06m0-8c-6,0-10.4,1.64-13.15,4.87a10.51,10.51,0,0,0-2.18,9.67c1.61,6,8,10.84,19.57,14.92,8.34,2.94,18.41,3.56,25.39,3.56,3.44,0,5.74-.15,5.84-.16l14.92-1-9.13-11.84c-.36-.46-9-11.45-22.61-16.27a58.15,58.15,0,0,0-18.65-3.72Z"/><path class="j" d="M69,313.29c-7.58,0-12.89-2.92-14.21-7.82-1.83-6.79,5.24-14.19,16.45-17.2a33.28,33.28,0,0,1,8.64-1.19c7.58,0,12.9,2.92,14.21,7.82,1,3.67-.53,7.56-4.27,10.94a30.19,30.19,0,0,1-12.17,6.26A33.41,33.41,0,0,1,69,313.29Z"/><path class="i" d="M79.85,291.08c5.38,0,9.52,1.76,10.35,4.86,1.2,4.44-4.9,9.95-13.62,12.29A29.38,29.38,0,0,1,69,309.29c-5.37,0-9.51-1.77-10.35-4.86-1.19-4.45,4.91-9.95,13.63-12.3a29.71,29.71,0,0,1,7.6-1.05m0-8a37.35,37.35,0,0,0-9.68,1.33,33.89,33.89,0,0,0-13.81,7.15c-4.85,4.37-6.84,9.82-5.46,14.95,1.79,6.65,8.71,10.78,18.07,10.78A37.48,37.48,0,0,0,78.66,316a34.08,34.08,0,0,0,13.81-7.15c4.85-4.37,6.83-9.82,5.46-14.95-1.79-6.65-8.72-10.78-18.08-10.78Z"/></svg>