<svg xmlns="http://www.w3.org/2000/svg" width="510" height="900" viewBox="0 0 510 900"><defs><style>.a{fill:#56634a;}.b{fill:#432d1e;}.c{fill:#bd645d;}.d{fill:#ffdc82;}.e{fill:#968acf;stroke-width:8px;}.e,.f{stroke:#432d1e;}.e,.f,.g{stroke-miterlimit:2;}.f{fill:#fff;stroke-width:15px;}.g{fill:#f7a859;stroke:#f7a859;stroke-width:12px;}</style></defs><title>101</title><path class="a" d="M364.41,453.5c-1-.38-9.69-3.77-13.42-7a35.37,35.37,0,0,1-4.47-5.24,35.25,35.25,0,0,1-6.35,2.69,30,30,0,0,1-7,.62c-4,0-8-.38-8.14-.39l-11.19-1.09,9.36-6.22c.47-.32,3-2,5.9-3.59a106.43,106.43,0,0,1-13.3-9.71L306,415.26l12.83,1.33c.82.08,5.58.6,10.47,1.54-3.1-7-4.39-20.78-4.54-22.37l-.91-10.25,7.6,6.94a115.57,115.57,0,0,1,12.73,13.65c3.9-9.16,11.33-20.33,11.71-20.9l5.95-8.9,1.34,10.62c.09.68,1.75,14,1.15,23.93a115.25,115.25,0,0,1,17.49-6.53l9.89-2.82-5.39,8.76c-.84,1.37-8.15,13.12-14.05,18,4.79,1.34,9.29,3,10.06,3.29l12.07,4.55-12.53,3.08a109.8,109.8,0,0,1-16.24,2.75c1.91,2.77,3.4,5.35,3.68,5.84l5.6,9.75Z"/><path class="b" d="M359.22,387.42s2.5,19.71.43,28.48a44.09,44.09,0,0,1-2.21,5.93,41.57,41.57,0,0,1,5-5.21c5.56-4.21,20.44-8.45,20.44-8.45s-8.11,13.18-13.67,17.39A49.82,49.82,0,0,1,358,430.88c2-.22,3.84-.34,4.91-.34l.53,0c5.76.34,17.46,4.74,17.46,4.74S370.06,438,364,438c-.34,0-.67,0-1,0a51,51,0,0,1-10.23-2.37,32.55,32.55,0,0,1,5,3c3.31,2.84,8.08,11.14,8.08,11.14s-8.94-3.43-12.26-6.26c-1.09-.94-4.94-5.49-5.73-7.88-1.78,1.79-7.26,4.14-8.66,4.49a27.55,27.55,0,0,1-6,.5c-3.9,0-7.76-.37-7.76-.37s8-5.3,12.21-6.36a32.78,32.78,0,0,1,5.81-.5,50.7,50.7,0,0,1-10.21-2.45c-5.31-2.27-14.83-10.36-14.83-10.36s12.43,1.28,17.74,3.55a40.64,40.64,0,0,1,4.71,2.72,50.69,50.69,0,0,1-7.66-9.77c-3.09-6.25-4.46-21.67-4.46-21.67s11.42,10.44,14.52,16.69a43.12,43.12,0,0,1,2.17,6.91,45.11,45.11,0,0,1,.67-6.3c2.06-8.76,13.11-25.28,13.11-25.28m5.24-22.23L352.56,383a180.42,180.42,0,0,0-9.3,15.72c-3.88-4.36-7.91-8.1-9.12-9.2L319,375.62l1.82,20.49a123.34,123.34,0,0,0,2.71,17c-2-.28-3.56-.45-4.25-.52L293.58,410l19.66,16.71c1,.86,4.45,3.75,8.36,6.53l-.59.39L302.3,446l22.37,2.17c.17,0,4.3.41,8.53.41a33.69,33.69,0,0,0,7.94-.74,31.9,31.9,0,0,0,4.2-1.57,30.71,30.71,0,0,0,3.05,3.27c4.05,3.47,12.19,6.74,14.59,7.66l21,8-11.19-19.5c-.1-.17-.21-.38-.35-.61,5-.8,9.64-1.92,10.4-2.1l25.05-6.18-24.15-9.08c-.65-.24-2.11-.79-4-1.43a125.89,125.89,0,0,0,10-14l10.78-17.52-19.79,5.63c-1.57.45-6.84,2-12.27,4.17a174.94,174.94,0,0,0-1.3-18.22l-2.69-21.23Z"/><path class="a" d="M147.23,793.41c.18-.66,3.48-13.17,7.62-22.38-1.37.61-2.49,1.07-3.24,1.32-12.1,4.06-38.36,4.7-39.47,4.73l-12.9.29,10.47-7.54c.76-.54,15.82-11.36,27.81-17.25a59.45,59.45,0,0,1-8.38-2.32c-14.31-5.78-38-28-39-29l-7.49-7,10.29.13c1.34,0,32.29.48,47.1,5.86-8.5-18.62-13.7-55.53-13.93-57.17l-1.48-10.6,8.07,7c1.25,1.09,29.3,25.65,40.24,42.94,3.6-15.34,20.14-41.5,20.86-42.63l5.52-8.68,1.8,10.12c.24,1.36,5.86,33.38,2.87,48.53a60,60,0,0,1-2.64,8.28c11.49-6.81,28.78-13.5,29.65-13.83l12-4.64-7.3,10.63c-.63.92-15.54,22.55-25.55,30.46-.62.48-1.62,1.17-2.88,2a169.55,169.55,0,0,1,22.9,5.88l10.66,3.56-10.51,4c-.81.31-19.84,7.46-29.71,7.65h-.24a78.26,78.26,0,0,1-17.16-2.92A75.3,75.3,0,0,1,176.12,777c-5.56,8.15-22,20.17-22.66,20.68l-9.08,6.63Z"/><path class="b" d="M197.13,662s5.77,32.47,2.88,47c-.74,3.76-5.37,16.13-10.31,24.37a87.72,87.72,0,0,1,8.18-8.21c9.66-7.63,34.51-17.2,34.51-17.2s-15.08,21.95-24.73,29.58A109.23,109.23,0,0,1,188,748.28a68.83,68.83,0,0,1,12.23-2.22h.39c9.43,0,28.24,6.29,28.24,6.29s-19.08,7.21-28.37,7.39h-.16c-3.32,0-15.56-1.76-20.13-4.41-.29,5.37-5.69,16.87-7.42,19.4-5.23,7.68-21.71,19.71-21.71,19.71s5.18-19.73,10.41-27.41a70.51,70.51,0,0,1,8.55-9,108.36,108.36,0,0,1-19.72,10.57c-11.67,3.91-38.29,4.52-38.29,4.52s21.61-15.57,33.27-19.48a87.8,87.8,0,0,1,11.35-2.36c-9.6-.37-22.48-3.26-26-4.69-13.78-5.57-37.81-28.16-37.81-28.16s33,.43,46.76,6a89.11,89.11,0,0,1,13.24,7.9,92.45,92.45,0,0,1-7.85-11c-9.13-16.87-15-58.8-15-58.8s31.91,27.82,41,44.69a94.94,94.94,0,0,1,4.88,12.57,91.32,91.32,0,0,1,.62-15.41C179.45,689.8,197.13,662,197.13,662m4.28-21.65-11,17.36c-1.56,2.45-13.09,20.81-18.87,35.94-13-16.8-35.11-36.14-36.23-37.11l-16.13-14.07,2.95,21.2c.2,1.47,4.3,30.54,11.24,50.63-15.82-3.44-37.5-3.83-40.4-3.87l-20.57-.27,15,14.1c2.54,2.38,24.94,23.23,39.7,29.5-9.42,5.53-18.21,11.81-19.68,12.87L86.44,781.67l25.79-.59c2.51-.06,22.52-.61,35.75-3.6-2.53,7.08-4.3,13.7-4.61,14.92l-5.71,21.74,18.16-13.25c1.8-1.31,17.76-13.09,23.6-21.66a75.27,75.27,0,0,0,6.4-13.59,80.5,80.5,0,0,0,14.54,2.09h.32c10.37-.2,29-7.12,31-7.91l21-7.94-21.32-7.13c-1.18-.39-7.7-2.54-15-4.29,9.74-9.44,21.14-25.89,22.57-28l14.6-21.27-24.07,9.27c-1.69.65-11.76,4.58-21.54,9.44,2.83-15.79-2.37-46-3-49.38l-3.59-20.25Z"/><line class="a" x1="139.34" y1="679.75" x2="178.8" y2="752.69"/><path class="b" d="M139.34,679.75c3.84,5.79,7.41,11.71,10.89,17.68,1.77,3,3.44,6,5.16,9l5,9.08,4.86,9.15c1.57,3.08,3.2,6.13,4.72,9.24,3.09,6.18,6.09,12.41,8.83,18.79C175,746.91,171.39,741,167.91,735c-1.77-3-3.44-6-5.15-9l-5-9.08-4.86-9.15c-1.57-3.08-3.19-6.13-4.71-9.24C145.09,692.36,142.08,686.13,139.34,679.75Z"/><line class="a" x1="207.1" y1="753.27" x2="179.82" y2="754.51"/><path class="b" d="M207.1,753.27a42.46,42.46,0,0,1-6.77,1.48q-3.39.48-6.8.63c-2.28.11-4.55.11-6.84,0a42.75,42.75,0,0,1-6.87-.87,41.54,41.54,0,0,1,6.76-1.49q3.4-.48,6.81-.63t6.84,0A41.65,41.65,0,0,1,207.1,753.27Z"/><line class="a" x1="217.63" y1="721.04" x2="179.82" y2="754.51"/><path class="b" d="M217.63,721c-2.74,3.25-5.68,6.28-8.68,9.24-1.49,1.5-3,2.91-4.56,4.37l-4.68,4.25Q195,743.09,190,747c-3.29,2.62-6.66,5.17-10.22,7.49,2.73-3.26,5.67-6.29,8.67-9.25s6.08-5.83,9.24-8.61l4.78-4.12c1.63-1.33,3.22-2.71,4.89-4C210.7,725.91,214.06,723.36,217.63,721Z"/><line class="a" x1="192.71" y1="685.59" x2="179.82" y2="754.51"/><path class="b" d="M192.71,685.59c-.47,5.86-1.22,11.66-2.08,17.45-.4,2.89-.91,5.77-1.36,8.66l-1.53,8.63-1.69,8.6c-.62,2.85-1.19,5.72-1.86,8.56-1.29,5.71-2.69,11.39-4.37,17,.46-5.86,1.21-11.66,2.07-17.45.4-2.89.91-5.77,1.36-8.66l1.54-8.63,1.69-8.6c.62-2.85,1.19-5.72,1.86-8.56C189.63,696.9,191,691.22,192.71,685.59Z"/><line class="a" x1="163.84" y1="776.65" x2="179.81" y2="754.49"/><path class="b" d="M163.84,776.65a41.2,41.2,0,0,1,3-6.22c1.15-2,2.4-3.89,3.73-5.73s2.74-3.64,4.25-5.36a42.07,42.07,0,0,1,4.95-4.85,40.85,40.85,0,0,1-3,6.23c-1.15,2-2.4,3.88-3.73,5.73s-2.75,3.63-4.26,5.35A41.21,41.21,0,0,1,163.84,776.65Z"/><line class="a" x1="131.11" y1="767.83" x2="179.81" y2="754.49"/><path class="b" d="M131.11,767.83c3.89-1.71,7.86-3.13,11.86-4.46,2-.69,4-1.27,6-1.91l6.07-1.74q6.09-1.68,12.26-3c4.12-.9,8.26-1.7,12.49-2.21-3.9,1.72-7.87,3.14-11.87,4.47s-8,2.54-12.09,3.65l-6.11,1.59c-2.05.47-4.09,1-6.15,1.42C139.47,766.52,135.33,767.32,131.11,767.83Z"/><line class="a" x1="115.07" y1="727.58" x2="179.81" y2="754.49"/><path class="b" d="M115.07,727.58c5.63,1.67,11.15,3.61,16.63,5.65,2.75,1,5.46,2.09,8.19,3.13l8.12,3.29,8.07,3.44c2.66,1.2,5.35,2.34,8,3.59,5.31,2.45,10.58,5,15.74,7.81-5.64-1.66-11.16-3.6-16.64-5.64-2.75-1-5.46-2.09-8.18-3.14l-8.13-3.29L138.8,739c-2.66-1.2-5.35-2.35-8-3.6C125.5,732.94,120.22,730.39,115.07,727.58Z"/><path class="a" d="M89.7,146a163.07,163.07,0,0,1,6.9-20.44c-1,.45-1.88.79-2.47,1C82.74,130.36,58.08,131,57,131l-12.9.3,10.47-7.54c.69-.5,14.33-10.29,25.48-15.89a52.71,52.71,0,0,1-7.21-2c-13.46-5.44-35.75-26.31-36.69-27.2l-7.5-7.05L39,71.71c1.24,0,29.57.44,43.7,5.32C74.84,59.36,70.05,25.4,69.84,23.87l-1.48-10.6,8.07,7c1.16,1,27,23.61,37.47,39.84,3.65-14.5,18.79-38.44,19.46-39.49L138.87,12l1.8,10.13c.23,1.28,5.51,31.35,2.69,45.6a52.7,52.7,0,0,1-2.24,7.15c10.79-6.27,26.44-12.33,27.24-12.64l12-4.64L173.1,68.2c-.59.86-14.59,21.17-24,28.61-.5.39-1.24.91-2.18,1.53a164.78,164.78,0,0,1,20.88,5.41l10.66,3.56-10.51,4c-.76.28-18.65,7-27.95,7.19h-.22a72,72,0,0,1-15.93-2.67,71.42,71.42,0,0,1-6.6,15c-5.24,7.68-20.66,19-21.31,19.45l-9.08,6.63Z"/><path class="b" d="M136.73,22.79s5.41,30.45,2.71,44.12c-.7,3.52-5,15.12-9.68,22.85a84.21,84.21,0,0,1,7.68-7.7c9.06-7.15,32.36-16.13,32.36-16.13s-14.14,20.59-23.19,27.74a102,102,0,0,1-18.41,10.06,66.52,66.52,0,0,1,11.46-2.08H140c8.85,0,26.49,5.9,26.49,5.9s-17.89,6.76-26.61,6.93h-.14c-3.12,0-14.6-1.65-18.89-4.14-.27,5-5.33,15.82-6.95,18.19C109,135.74,93.57,147,93.57,147s4.85-18.5,9.76-25.7a66,66,0,0,1,8-8.46,101.48,101.48,0,0,1-18.5,9.9C81.92,126.42,57,127,57,127s20.26-14.59,31.2-18.26a80.63,80.63,0,0,1,10.65-2.21c-9-.35-21.09-3.06-24.42-4.41-12.93-5.22-35.45-26.4-35.45-26.4s30.92.4,43.84,5.62a84.4,84.4,0,0,1,12.42,7.41,86.28,86.28,0,0,1-7.36-10.28c-8.56-15.82-14-55.14-14-55.14s29.92,26.09,38.48,41.91A86.79,86.79,0,0,1,116.86,77a84.2,84.2,0,0,1,.59-14.45c2.7-13.68,19.28-39.78,19.28-39.78M141,1.14,130,18.5c-1.43,2.26-11.88,18.9-17.42,33-12.31-15.64-32.47-33.29-33.5-34.19L62.93,3.22l2.95,21.2c.19,1.36,3.93,27.89,10.29,46.75C61.35,68.1,41.7,67.74,39,67.71l-20.57-.27,15,14.1c2.33,2.19,22.56,21,36.48,27.37C61.39,114,53.6,119.54,52.27,120.5L31.34,135.58,57.13,135c2.31-.05,20.29-.54,32.75-3.19-2.22,6.34-3.76,12.09-4,13.18l-5.7,21.75,18.16-13.25C100,152.24,115,141.15,120.54,133a71.56,71.56,0,0,0,5.9-12.42,74.34,74.34,0,0,0,13.33,1.86h.3c9.81-.2,27.32-6.71,29.28-7.45l21-8L169.06,100c-1.06-.36-6.73-2.22-13.25-3.83,9-9,19.28-23.76,20.59-25.67L191,49.2l-24.07,9.27c-1.54.59-10.45,4.07-19.37,8.44,2.3-15.13-2.39-42.36-2.95-45.52L141,1.14Z"/><line class="a" x1="82.54" y1="39.48" x2="119.55" y2="107.87"/><path class="b" d="M82.54,39.48c3.63,5.4,7,11,10.28,16.54,1.66,2.78,3.23,5.62,4.84,8.43l4.7,8.51,4.56,8.59c1.47,2.89,3,5.75,4.4,8.67,2.89,5.8,5.69,11.65,8.23,17.65-3.64-5.4-7-11-10.28-16.54-1.67-2.78-3.23-5.62-4.85-8.43l-4.69-8.51L95.17,65.8c-1.47-2.89-3-5.75-4.4-8.67C87.88,51.32,85.08,45.47,82.54,39.48Z"/><line class="a" x1="146.09" y1="108.41" x2="120.5" y2="109.58"/><path class="b" d="M146.09,108.41a38.09,38.09,0,0,1-6.35,1.47q-3.18.47-6.38.61a59.61,59.61,0,0,1-6.41,0,36.75,36.75,0,0,1-6.45-.88,35.89,35.89,0,0,1,6.34-1.47,59.6,59.6,0,0,1,6.38-.61,62.51,62.51,0,0,1,6.42,0A38,38,0,0,1,146.09,108.41Z"/><line class="a" x1="155.95" y1="78.19" x2="120.5" y2="109.58"/><path class="b" d="M156,78.19a117.4,117.4,0,0,1-8.09,8.72c-1.38,1.41-2.84,2.74-4.26,4.11l-4.38,4c-2.95,2.62-6,5.14-9.08,7.6a117.62,117.62,0,0,1-9.64,7,115.6,115.6,0,0,1,8.09-8.73c2.81-2.77,5.68-5.48,8.64-8.09l4.49-3.86c1.53-1.25,3-2.53,4.6-3.74C149.42,82.71,152.59,80.34,156,78.19Z"/><line class="a" x1="132.59" y1="44.95" x2="120.5" y2="109.58"/><path class="b" d="M132.59,45c-.4,5.5-1.09,10.94-1.88,16.37-.37,2.72-.84,5.42-1.26,8.13L128,77.54l-1.59,8.06c-.59,2.68-1.12,5.37-1.76,8-1.22,5.34-2.55,10.67-4.17,15.94.39-5.5,1.08-11,1.87-16.37.37-2.72.84-5.42,1.26-8.13L125.07,77l1.59-8.07c.58-2.67,1.12-5.36,1.76-8C129.64,55.55,131,50.22,132.59,45Z"/><line class="a" x1="105.51" y1="130.35" x2="120.49" y2="109.56"/><path class="b" d="M105.51,130.35a37.46,37.46,0,0,1,2.79-5.89c1.07-1.86,2.24-3.65,3.48-5.38a61.94,61.94,0,0,1,4-5,37.26,37.26,0,0,1,4.7-4.51,36.59,36.59,0,0,1-2.79,5.89,61.76,61.76,0,0,1-3.48,5.38,63.73,63.73,0,0,1-4,5A37.26,37.26,0,0,1,105.51,130.35Z"/><line class="a" x1="74.82" y1="122.07" x2="120.49" y2="109.56"/><path class="b" d="M74.82,122.07c3.64-1.64,7.36-3,11.11-4.25,1.86-.65,3.76-1.2,5.64-1.8l5.69-1.65q5.7-1.58,11.5-2.81a117.7,117.7,0,0,1,11.73-2,114.38,114.38,0,0,1-11.11,4.26c-3.75,1.25-7.52,2.41-11.33,3.44l-5.73,1.49c-1.93.44-3.84.93-5.78,1.32A117,117,0,0,1,74.82,122.07Z"/><line class="a" x1="59.78" y1="84.32" x2="120.49" y2="109.56"/><path class="b" d="M59.78,84.32c5.3,1.53,10.48,3.34,15.62,5.24,2.59.92,5.13,1.94,7.69,2.92l7.62,3.08,7.56,3.23c2.5,1.13,5,2.2,7.49,3.38,5,2.31,9.91,4.71,14.73,7.39-5.3-1.52-10.48-3.32-15.63-5.22-2.58-.93-5.12-2-7.68-2.93l-7.62-3.08L82,95.1c-2.5-1.13-5-2.21-7.49-3.39C69.53,89.4,64.6,87,59.78,84.32Z"/><path class="c" d="M235.62,170c-.71-.38-17.41-9.45-23.59-16.32a70.76,70.76,0,0,1-8.5-13.87A71.09,71.09,0,0,1,188,144.61a32.49,32.49,0,0,1-3.45.17c-9.63,0-24.42-3.38-25-3.53l-11-2.52,10.09-5a161.42,161.42,0,0,1,19.79-8.11c-1-.47-1.77-.87-2.3-1.18-10.28-6.08-26.78-24.22-27.48-25L140,89.94l12.55,3c.83.19,17,4.06,28.46,8.79A54,54,0,0,1,177.86,95c-4.68-13.67-3.49-44-3.44-45.29l.42-10.28,6.64,7.87c.79.94,18.87,22.45,24.42,36.25,8.19-17.38,30.56-43,31.57-44.19l7.05-8.06,0,10.7c0,1.54-.19,35.57-5.54,54,13.29-6.68,41.07-10.87,42.29-11l10.18-1.51-6.48,8c-.81,1-20,24.54-32.52,31.7a52,52,0,0,1-6.77,2.95c11.73,4,26.41,11.82,27.16,12.22l11.39,6.07-12.82,1.44c-.53.06-13.16,1.46-24.62,1.46a70,70,0,0,1-12.51-.89c-.61-.12-1.47-.33-2.51-.63A164.25,164.25,0,0,1,241.22,165l4.28,10.39Z"/><path class="b" d="M240.48,42S240.34,81.48,234,98.2a85.42,85.42,0,0,1-5.88,11.11,84.13,84.13,0,0,1,11.24-9c12-6.87,42.44-11.39,42.44-11.39s-19.36,23.87-31.39,30.74c-3.1,1.77-14.64,6-23.46,7.6a81.2,81.2,0,0,1,10.78.76c11.26,2.15,33.17,13.82,33.17,13.82s-12.8,1.44-24.17,1.44A67.23,67.23,0,0,1,235,142.5a100.93,100.93,0,0,1-19.54-7.29,65.07,65.07,0,0,1,9,7.27c5.8,6.44,13.05,24,13.05,24S220.8,157.45,215,151c-1.92-2.13-8.34-12.07-9.28-17-4,3.07-15.35,6.28-18.19,6.61a25.11,25.11,0,0,1-3,.15c-9.29,0-24.15-3.42-24.15-3.42s17.06-8.4,25.67-9.39a21.91,21.91,0,0,1,2.3-.09,80.4,80.4,0,0,1,9.28.6A100.06,100.06,0,0,1,178.16,121c-9.88-5.83-26.55-24.22-26.55-24.22s24.15,5.73,34,11.56a82,82,0,0,1,8.58,6.56c-5.59-7-11.42-17.84-12.58-21.21-4.48-13.11-3.22-43.82-3.22-43.82s19.82,23.49,24.31,36.6a84.4,84.4,0,0,1,2.5,14.16,87,87,0,0,1,2.94-12.22C214.49,71.71,240.48,42,240.48,42m8.07-21.37-14.09,16.1c-.9,1-18.35,21-28.4,38.09-7.34-13.12-19.82-28.06-21.53-30.09L171.27,29l-.84,20.56c-.13,3.18-1.11,30.53,3.14,45.15-9.34-3.1-18.53-5.32-20.12-5.7l-25.1-6,17.33,19.11c1.54,1.7,13.56,14.84,23.65,22.49-6.18,2.45-11.46,5-12.47,5.51l-20.17,9.92,21.91,5.05c.64.15,15.86,3.63,25.94,3.63a33.44,33.44,0,0,0,3.91-.2,70.88,70.88,0,0,0,13.15-3.65,69.82,69.82,0,0,0,7.45,11.43c6.54,7.26,22.83,16.18,24.66,17.17l19.78,10.69-8.57-20.78c-.43-1-2.69-6.45-5.71-12.37q3.33.26,7.54.25c11.68,0,24.52-1.43,25.07-1.49L297.45,147l-22.77-12.13c-1.43-.76-9.8-5.18-18.86-9C268.68,117.64,286,96.47,288,94L301,78l-20.34,3c-2.63.39-21.87,3.35-36,8.34,3.73-19.43,3.87-46,3.88-47.35l.07-21.4Z"/><line class="c" x1="234.02" y1="59.09" x2="206.71" y2="131.41"/><path class="b" d="M234,59.09c-1.69,6.25-3.66,12.39-5.73,18.49-1,3.07-2.12,6.09-3.18,9.13l-3.34,9.07-3.49,9c-1.22,3-2.38,6-3.65,8.95-2.48,6-5.06,11.86-7.92,17.67,1.69-6.25,3.66-12.39,5.73-18.5,1-3.06,2.12-6.08,3.18-9.12L219,94.72l3.5-9c1.21-3,2.38-6,3.64-8.95C228.59,70.81,231.17,64.9,234,59.09Z"/><line class="c" x1="223.57" y1="151.7" x2="206.04" y2="133.23"/><path class="b" d="M223.57,151.7a36.5,36.5,0,0,1-5.23-3.81,62.45,62.45,0,0,1-8.77-9.23,36.68,36.68,0,0,1-3.53-5.43,36,36,0,0,1,5.24,3.81,59.9,59.9,0,0,1,4.62,4.39c1.45,1.54,2.84,3.15,4.14,4.84A37.21,37.21,0,0,1,223.57,151.7Z"/><line class="c" x1="252.7" y1="139.45" x2="206.04" y2="133.23"/><path class="b" d="M252.7,139.45a116.21,116.21,0,0,1-11.82-.4c-2-.12-3.91-.35-5.86-.53l-5.84-.69c-3.89-.51-7.77-1.15-11.63-1.88A117.08,117.08,0,0,1,206,133.23a113.2,113.2,0,0,1,11.82.4q5.88.45,11.71,1.22l5.82.86c1.94.34,3.88.63,5.8,1C245.05,137.48,248.9,138.32,252.7,139.45Z"/><line class="c" x1="262.48" y1="100.26" x2="206.04" y2="133.23"/><path class="b" d="M262.48,100.26c-4.39,3.28-8.93,6.31-13.52,9.25-2.29,1.49-4.62,2.89-6.93,4.34L235,118l-7.1,4c-2.39,1.3-4.76,2.66-7.18,3.91-4.81,2.56-9.68,5-14.7,7.23,4.39-3.29,8.93-6.32,13.52-9.25,2.28-1.5,4.62-2.89,6.93-4.34l7-4.19,7.1-4c2.39-1.3,4.76-2.65,7.18-3.9C252.59,104.94,257.46,102.47,262.48,100.26Z"/><line class="c" x1="180.69" y1="135.48" x2="206.05" y2="133.22"/><path class="b" d="M180.69,135.48a36.38,36.38,0,0,1,6.23-1.73,63.37,63.37,0,0,1,12.68-1.14,36.37,36.37,0,0,1,6.45.61,37.19,37.19,0,0,1-6.24,1.74,58.38,58.38,0,0,1-6.31.88,61.34,61.34,0,0,1-6.37.25A36.35,36.35,0,0,1,180.69,135.48Z"/><line class="c" x1="166.93" y1="107.03" x2="206.05" y2="133.22"/><path class="b" d="M166.93,107a116.83,116.83,0,0,1,10.43,5.58c1.71,1,3.35,2,5,3.07l4.94,3.2c3.26,2.17,6.45,4.46,9.59,6.82a114.19,114.19,0,0,1,9.13,7.52,116.83,116.83,0,0,1-10.43-5.58c-3.38-2-6.71-4.08-10-6.27L180.81,118c-1.58-1.16-3.19-2.28-4.75-3.48C172.93,112.18,169.85,109.73,166.93,107Z"/><line class="c" x1="185.51" y1="71.17" x2="206.05" y2="133.22"/><path class="b" d="M185.51,71.17c2.3,5,4.32,10,6.24,15.15,1,2.54,1.87,5.11,2.81,7.67l2.64,7.73,2.5,7.78c.77,2.61,1.6,5.21,2.33,7.84,1.5,5.24,2.9,10.51,4,15.88-2.3-5-4.33-10-6.25-15.15-1-2.54-1.87-5.12-2.8-7.67l-2.64-7.74-2.49-7.78c-.78-2.61-1.61-5.2-2.33-7.83C188,81.81,186.63,76.54,185.51,71.17Z"/><path class="d" d="M155.4,473.3c-.57-.69-13.92-17-17.38-26.61a78,78,0,0,1-2.93-18.18c-.76,0-1.57.05-2.44.05a78,78,0,0,1-15.9-1.62c-9.84-2.74-27.09-14.84-27.82-15.36l-9.19-6.47L91,404.32c.25,0,6.23-.43,13.31-.43h0q6.72,0,11.59.5c-1.18-1.27-2.1-2.32-2.63-3-8-10.52-17.37-36.1-17.76-37.18L91,352.07l10.5,7.5c.79.56,16.75,12,26.49,21.87a64.45,64.45,0,0,1-.55-9.41c.92-16,14.86-46.66,15.45-48l4.27-9.36,3.17,9.79c.44,1.33,10.42,32.33,9.9,48.56,15.32-14.58,50.24-32.17,51.79-32.95l9.57-4.8-4.08,9.9c-.66,1.6-15.61,37.73-29,54.09a48.4,48.4,0,0,1,5.35-.26c16.87,0,42.72,6.26,43.81,6.53l10,2.44-9,4.95c-1.25.69-30.83,16.86-46.69,19a42.66,42.66,0,0,1-5.06.23c-1.33,0-2.8,0-4.37-.09,10.58,9,23.17,24.06,23.79,24.81l8.25,9.91-12.41-3.51c-1.11-.31-27.31-7.75-38.4-14.95-.74-.48-1.86-1.32-3.21-2.41,1.84,10.36,1.92,24.11,1.92,24.83l0,11.24Z"/><path class="b" d="M146.57,325.73s10.55,32.55,9.67,47.95a94.41,94.41,0,0,1-3.36,15.65A96.68,96.68,0,0,1,161,378c13.54-14.58,52.81-34.28,52.81-34.28s-16.72,40.63-30.27,55.21a96.17,96.17,0,0,1-10.72,9,93.52,93.52,0,0,1,15.35-4.52,44.65,44.65,0,0,1,5.67-.32c16.58,0,42.86,6.41,42.86,6.41s-30,16.48-45.28,18.5a38.56,38.56,0,0,1-4.54.2,121,121,0,0,1-22.84-2.23,91.52,91.52,0,0,1,10.8,5.31c10.7,7,28.39,28.2,28.39,28.2S176.67,451.91,166,445a112.63,112.63,0,0,1-17.08-15.72,71.87,71.87,0,0,1,6.25,11.28c3.27,9.07,3.36,30.24,3.36,30.24s-13.44-16.35-16.71-25.43c-1.08-3-3.52-15.94-2.42-21.41a26.92,26.92,0,0,1-6.71.64,75.05,75.05,0,0,1-14.82-1.47c-9.29-2.59-26.6-14.78-26.6-14.78s6-.42,13-.42c6.14,0,13,.32,17.38,1.53a72,72,0,0,1,11.71,5.4A113.06,113.06,0,0,1,116.4,399c-7.72-10.16-17.18-36.13-17.18-36.13s22.49,16.06,30.21,26.22a90.12,90.12,0,0,1,6.1,10.37c-2.83-9.56-4.28-23.19-4.05-27.15.88-15.4,15.09-46.53,15.09-46.53m1.26-22-8.54,18.71c-1.52,3.32-14.83,32.9-15.8,49.34-8.68-7.57-18.08-14.33-19.63-15.44l-21-15,8.83,24.24C92.6,368,100,388,107.39,399.92c-1,0-2,0-3.13,0-7.21,0-13.33.42-13.59.44L68.25,401.9l18.37,13c1.89,1.33,18.74,13.07,29.06,15.95a79.38,79.38,0,0,0,15.66,1.75,78.63,78.63,0,0,0,2.92,15.5c3.63,10.08,16.59,26,18.05,27.79l14.27,17.37-.09-22.49c0-1.33-.07-8.74-.82-16.7,12.45,6.52,32.88,12.39,35.42,13.1l24.83,7-16.51-19.83c-1.21-1.46-8.66-10.33-16.85-18.43,16.32-2.19,44.83-17.66,48-19.41l18-9.91-20-4.88c-1.06-.26-24.84-6-42.08-6.59,12.27-18.34,24.1-46.92,24.69-48.36l8.15-19.79-19.13,9.59c-1.39.7-29,14.62-46.4,28.21-1.79-16.73-8.75-38.59-9.69-41.48l-6.35-19.56Z"/><line class="d" x1="200.02" y1="358.58" x2="141.47" y2="421.64"/><path class="b" d="M200,358.58c-4.42,5.68-9.06,11.15-13.78,16.56-2.34,2.72-4.76,5.37-7.14,8.05l-7.25,7.94L164.47,399c-2.5,2.57-5,5.18-7.5,7.71-5,5.11-10.16,10.14-15.5,15,4.43-5.68,9.07-11.16,13.78-16.56,2.34-2.72,4.76-5.37,7.14-8.05l7.26-7.94,7.38-7.82c2.5-2.58,5-5.18,7.5-7.72C189.57,368.45,194.69,363.41,200,358.58Z"/><line class="d" x1="150.33" y1="449.65" x2="140.02" y2="423.24"/><path class="b" d="M150.33,449.65a45.27,45.27,0,0,1-3.67-6.18c-1.07-2.12-2-4.28-2.88-6.48s-1.62-4.44-2.28-6.72a45,45,0,0,1-1.48-7,44.34,44.34,0,0,1,3.68,6.18q1.59,3.18,2.87,6.48t2.28,6.72A46.4,46.4,0,0,1,150.33,449.65Z"/><line class="d" x1="185.5" y1="449.26" x2="140.02" y2="423.24"/><path class="b" d="M185.5,449.26c-4.09-1.63-8-3.51-11.94-5.49-2-1-3.88-2-5.81-3L162,437.55q-5.69-3.24-11.21-6.79c-3.68-2.35-7.31-4.81-10.79-7.52,4.1,1.63,8.06,3.51,12,5.49s7.74,4,11.53,6.22l5.64,3.33c1.86,1.15,3.74,2.26,5.56,3.47C178.39,444.11,182,446.56,185.5,449.26Z"/><line class="d" x1="212.05" y1="412.97" x2="140.02" y2="423.24"/><path class="b" d="M212.05,413c-5.92,1.47-11.87,2.65-17.84,3.73-3,.56-6,1-9,1.53l-9,1.36-9,1.21c-3,.34-6,.75-9,1-6,.64-12.09,1.18-18.18,1.41,5.92-1.47,11.87-2.65,17.85-3.72,3-.57,6-1,9-1.53l9-1.37,9-1.2c3-.34,6-.74,9-1C199.91,413.75,206,413.22,212.05,413Z"/><line class="d" x1="112.94" y1="414.91" x2="140.04" y2="423.23"/><path class="b" d="M112.94,414.91a45.18,45.18,0,0,1,7.12,1c2.32.48,4.61,1.08,6.87,1.77s4.48,1.48,6.68,2.38a45.35,45.35,0,0,1,6.43,3.21,44.86,44.86,0,0,1-7.12-1c-2.33-.48-4.62-1.08-6.87-1.78s-4.49-1.48-6.68-2.39A44.77,44.77,0,0,1,112.94,414.91Z"/><line class="d" x1="110.72" y1="379.8" x2="140.04" y2="423.23"/><path class="b" d="M110.72,379.8c3,3.27,5.67,6.71,8.29,10.21,1.34,1.73,2.59,3.52,3.87,5.29l3.74,5.38c2.45,3.61,4.79,7.3,7.06,11s4.43,7.54,6.36,11.51c-3-3.27-5.68-6.71-8.3-10.2s-5.17-7-7.61-10.67l-3.59-5.48c-1.16-1.85-2.35-3.68-3.46-5.57C114.82,387.57,112.64,383.77,110.72,379.8Z"/><line class="d" x1="144.94" y1="350.64" x2="140.04" y2="423.23"/><path class="b" d="M144.94,350.64c.21,6.09.12,12.16-.06,18.23-.07,3-.24,6.06-.37,9.09L144,387l-.69,9.07c-.29,3-.52,6-.86,9.05-.63,6-1.36,12.06-2.39,18.07-.22-6.09-.14-12.16.05-18.23.07-3,.25-6.06.37-9.09l.53-9.07.7-9.07c.28-3,.52-6,.86-9.06C143.18,362.68,143.91,356.65,144.94,350.64Z"/><path class="e" d="M308,726.92l120-101.76S275.82,501.67,275.82,143.49l-140.1,18C135.72,594.36,308,726.92,308,726.92Z"/><path class="d" d="M453.19,144.43c-.77-.24-19-6.11-26.35-11.75a71.35,71.35,0,0,1-11-12.15,71.46,71.46,0,0,1-14.49,7.63c-5.57,1.72-15.07,2.09-22.05,2.09-3.88,0-6.63-.11-6.74-.12l-11.23-.46,9-6.74a163.93,163.93,0,0,1,18.11-11.71c-1.08-.29-2-.55-2.55-.76-11.28-4.1-31-19-31.8-19.6l-10.28-7.79,12.89.61c.85,0,17.61.86,29.83,3.42A53.06,53.06,0,0,1,382.17,81c-7.15-12.63-11.61-42.84-11.8-44.12l-1.48-10.18,8,6.5c1,.79,22.87,18.75,30.9,31.36,4.85-18.71,22.24-48.28,23-49.61l5.44-9.21,1.94,10.52c.28,1.52,6.43,35.26,4.55,54.5,11.88-9.08,38.63-18.4,39.8-18.81l9.72-3.37-4.89,9c-.61,1.14-15.19,28-26.26,37.37a53.37,53.37,0,0,1-6.21,4.21c12.38,1.81,28.38,6.79,29.2,7l12.31,3.86L484,113.91c-1,.31-24.47,7.46-36.5,7.46-.66,0-1.61-.06-2.76-.16a163.32,163.32,0,0,1,13,17.23l6.13,9.42Z"/><path class="b" d="M434.23,17s7.19,39.05,4,56.76a89.08,89.08,0,0,1-3.75,12.08,83.82,83.82,0,0,1,9.45-11c10.62-9,39.84-19.14,39.84-19.14S469.11,82.94,458.49,92c-2.74,2.33-13.35,8.7-21.79,11.87a82.86,82.86,0,0,1,10.77-1.25h0c11.54,0,35.37,7.51,35.37,7.51s-23.76,7.28-35.33,7.28h-.09a101.78,101.78,0,0,1-20.67-3.58,65.19,65.19,0,0,1,10.27,5.51c6.93,5.29,17.36,21.32,17.36,21.32s-18.21-5.83-25.14-11.12c-2.29-1.75-10.49-10.39-12.33-15.08-3.34,3.77-14,9.06-16.76,9.92-5.18,1.6-14.54,1.91-20.87,1.91-3.84,0-6.57-.12-6.57-.12s15.32-11.46,23.64-14a64.48,64.48,0,0,1,11.54-1.64,102.22,102.22,0,0,1-20.64-3.75c-10.85-3.94-30.75-19-30.75-19s25,1.18,35.79,5.12A81.14,81.14,0,0,1,402,97.68C395.2,91.8,387.42,82.16,385.66,79c-6.88-12.13-11.33-42.73-11.33-42.73s24,19.56,30.83,31.68a85.24,85.24,0,0,1,5.11,13.53,86.45,86.45,0,0,1,.63-12.63C414,51.18,434.23,17,434.23,17m4-22.49L427.34,12.93c-.7,1.18-14.28,24.28-21,43-9.69-11.62-24.85-24.13-26.92-25.82l-15.94-13,3,20.35C366.88,40.64,371,68,378,81.59c-9.84-1.34-19.4-1.83-21-1.91l-25.77-1.22L351.7,94.05c1.83,1.39,16.22,12.2,27.62,17.88-5.68,3.58-10.47,7.12-11.37,7.8l-18,13.48,22.47.92c.11,0,2.93.12,6.89.12,10.57,0,18.39-.77,23.24-2.27a71,71,0,0,0,12.35-6.07,70.62,70.62,0,0,0,9.51,9.94c7.8,6,25.56,11.75,27.56,12.39l21.41,6.86-12.26-18.84c-.62-.95-3.89-5.92-8-11.24,12.65-1.41,29.88-6.61,32.08-7.28l24.67-7.57-24.62-7.72c-1.56-.49-10.71-3.31-20.41-5.44,11.21-10.41,24.48-34.65,26-37.47l9.78-18.09L481.2,48.18c-2.52.87-21.05,7.4-34.15,15,.09-19.91-4.71-46.26-5-47.61l-3.87-21Z"/><line class="d" x1="431.02" y1="35.08" x2="417.43" y2="111.65"/><path class="b" d="M431,35.08c-.52,6.49-1.34,12.93-2.25,19.35-.43,3.21-1,6.41-1.45,9.61l-1.62,9.59-1.77,9.56c-.65,3.17-1.25,6.36-1.95,9.52-1.35,6.35-2.8,12.67-4.55,18.94.52-6.49,1.33-12.93,2.25-19.34.42-3.22,1-6.41,1.45-9.62l1.62-9.58,1.78-9.56c.64-3.18,1.24-6.36,1.94-9.53C427.82,47.68,429.27,41.36,431,35.08Z"/><line class="d" x1="437.87" y1="128.59" x2="417.12" y2="113.58"/><path class="b" d="M437.87,128.59a38.64,38.64,0,0,1-5.87-2.8,61.86,61.86,0,0,1-5.38-3.49,60.24,60.24,0,0,1-5-4,37.18,37.18,0,0,1-4.49-4.71,36.94,36.94,0,0,1,5.88,2.8,63.25,63.25,0,0,1,5.37,3.49,61.79,61.79,0,0,1,5,4A37.25,37.25,0,0,1,437.87,128.59Z"/><line class="d" x1="464.4" y1="111.07" x2="417.12" y2="113.58"/><path class="b" d="M464.4,111.07a118.45,118.45,0,0,1-11.76,1.79c-2,.24-3.93.38-5.9.56l-5.9.4c-3.94.22-7.89.31-11.84.3a118.32,118.32,0,0,1-11.88-.54,118,118,0,0,1,11.76-1.8c3.92-.42,7.86-.75,11.8-1l5.91-.23c2,0,4-.1,5.93-.07A118.32,118.32,0,0,1,464.4,111.07Z"/><line class="d" x1="466.79" y1="70.51" x2="417.12" y2="113.58"/><path class="b" d="M466.79,70.51c-3.73,4-7.66,7.89-11.65,11.64-2,1.9-4,3.72-6.05,5.58l-6.15,5.45-6.27,5.32c-2.12,1.73-4.21,3.51-6.37,5.2-4.28,3.42-8.64,6.76-13.18,9.88,3.73-4.06,7.65-7.9,11.65-11.65,2-1.9,4-3.72,6-5.58L441,90.91l6.26-5.32c2.13-1.74,4.22-3.51,6.38-5.2C457.89,77,462.24,73.63,466.79,70.51Z"/><line class="d" x1="392.46" y1="120.52" x2="417.12" y2="113.56"/><path class="b" d="M392.46,120.52a36.81,36.81,0,0,1,5.85-2.87,62.76,62.76,0,0,1,6.07-2.05,58.26,58.26,0,0,1,6.25-1.43,37.47,37.47,0,0,1,6.49-.61,36.87,36.87,0,0,1-5.85,2.88,60.09,60.09,0,0,1-6.07,2,63.52,63.52,0,0,1-6.25,1.43A37.47,37.47,0,0,1,392.46,120.52Z"/><line class="d" x1="373.58" y1="94.94" x2="417.12" y2="113.56"/><path class="b" d="M373.58,94.94a117.62,117.62,0,0,1,11.34,3.58c1.87.65,3.7,1.4,5.54,2.1l5.48,2.25q5.44,2.32,10.75,5a118.87,118.87,0,0,1,10.43,5.73A115.08,115.08,0,0,1,405.77,110c-3.71-1.35-7.39-2.79-11-4.35l-5.41-2.4c-1.78-.86-3.58-1.66-5.34-2.56A118.87,118.87,0,0,1,373.58,94.94Z"/><line class="d" x1="385.29" y1="56.03" x2="417.12" y2="113.56"/><path class="b" d="M385.29,56c3.2,4.49,6.13,9.13,9,13.82,1.45,2.33,2.8,4.71,4.2,7.07l4,7.15,3.91,7.23c1.25,2.44,2.55,4.85,3.76,7.31,2.46,4.9,4.82,9.86,6.93,15-3.2-4.49-6.14-9.12-9-13.81-1.45-2.33-2.8-4.72-4.2-7.07l-4.05-7.16L396,78.29c-1.26-2.44-2.56-4.85-3.76-7.31C389.77,66.08,387.4,61.13,385.29,56Z"/><path class="c" d="M130.58,544.49c-1-.31-24.58-7.53-34.14-14.6-2.65-2-10.45-9.73-15-16.34-6.38,4.85-16.23,9.75-19.36,10.77-8.3,2.72-23.76,3.12-32.24,3.12-2.92,0-4.77-.05-4.77-.05l-11.23-.29,8.89-6.87c.7-.54,14.85-11.43,26-17a60.92,60.92,0,0,1-6.37-1.64C27.85,496.55,2.1,477.69,1,476.89l-10.4-7.64,12.89.42c1.2,0,26.24.89,42.12,4.57a86.39,86.39,0,0,1-8-10.34c-9.44-16.11-15.79-55.11-16.06-56.76L20,397,28,403.37c1.31,1,32.25,25.62,41.69,41.73.13.22.26.46.4.71,4.69-23.9,28.47-65.77,29.51-67.58l5.3-9.29L107,379.43c.41,2.05,9.75,49.29,6.65,73.44l.6-.55c14-12.3,51.17-25.85,52.74-26.42l9.67-3.51-4.76,9.12c-.77,1.48-19.12,36.48-33.17,48.78a87.22,87.22,0,0,1-10.83,7.29c16.23,1.53,40.27,8.63,41.41,9l12.36,3.68-12.27,4c-1.29.42-31.68,10.18-47.12,10.36h-.21c-1.36,0-3.6-.16-6.35-.46,8.86,8.81,18.84,23.61,19.34,24.34l6.27,9.33Z"/><path class="b" d="M103.09,380.21s10.11,50.66,6.37,73.76a113.55,113.55,0,0,1-4.65,15.79c4.82-6.63,9.83-12.46,12.09-14.43,13.64-11.94,51.46-25.67,51.46-25.67s-18.61,35.67-32.25,47.62c-3.51,3.07-17.2,11.58-28.12,15.86a107,107,0,0,1,14-1.84h.43c15.16,0,45.73,9.08,45.73,9.08s-30.93,10-45.94,10.17h-.16c-4.18,0-17.75-1.66-26.8-4.26a85.42,85.42,0,0,1,13.47,7c9.11,6.75,23,27.4,23,27.4s-23.81-7.24-32.93-14c-3-2.23-13.84-13.31-16.33-19.38-4.28,5-18,12.07-21.61,13.23-7.88,2.57-23.27,2.92-31,2.92-2.85,0-4.66-.05-4.66-.05s19.69-15.21,30.47-18.73a85.15,85.15,0,0,1,15-2.36c-9.54-.39-23.18-3.18-26.93-4.48-14.19-4.91-40.37-24.15-40.37-24.15s32.47,1.05,46.66,6a107.37,107.37,0,0,1,12.73,6.18c-9-7.51-19.31-19.91-21.67-23.93-9.17-15.65-15.56-55.38-15.56-55.38s31.55,25,40.72,40.63c1.52,2.58,4.44,9.69,6.91,17.5a114,114,0,0,1,.58-16.44c3.74-23.11,29.34-68,29.34-68m3.66-22.55L96.14,376.25c-.26.47-6.61,11.61-13.51,25.78C76,415.62,71.26,427.09,68.43,436.3c-12.66-16-36.76-35.15-37.92-36.07L14.38,387.46l3.26,20.31c.27,1.69,6.74,41.41,16.56,58.15.41.7,1,1.54,1.64,2.49C21,466.26,4.6,465.71,3.63,465.67l-25.78-.83,20.79,15.28c1.05.77,24.56,18,39.93,24.29C29.81,509.8,21.68,516,20.33,517.06L2.53,530.8l22.48.59c.08,0,1.94.05,4.87.05,10.64,0,25.1-.57,33.48-3.31a94.53,94.53,0,0,0,17.22-9,93.8,93.8,0,0,0,13.48,14c9.94,7.36,32.79,14.43,35.36,15.22l21.51,6.54L138.39,536.2c-.95-1.41-6.7-9.88-13.32-17.77,16.58-1.12,44.33-10,45.57-10.43l24.55-7.93-24.73-7.35c-.92-.28-16.62-4.92-31.42-7.58.94-.69,1.73-1.31,2.34-1.84,14.61-12.79,33.29-48.43,34.08-49.94L185,415.12l-19.33,7c-1.4.5-30.32,11.06-47.38,22.24.22-9.63-.67-22-2.65-37-2.07-15.63-4.57-28.21-4.67-28.73l-4.19-21Z"/><line class="c" x1="99.27" y1="403.81" x2="83.08" y2="503.69"/><path class="b" d="M99.27,403.81c-.74,8.42-1.77,16.79-2.9,25.15-.54,4.19-1.18,8.35-1.78,12.53L92.65,454l-2.1,12.47c-.76,4.15-1.46,8.3-2.27,12.44-1.57,8.29-3.24,16.56-5.2,24.79.73-8.43,1.76-16.8,2.89-25.16.53-4.18,1.18-8.35,1.78-12.53l1.94-12.49L91.8,441c.75-4.15,1.46-8.31,2.27-12.45C95.63,420.3,97.3,412,99.27,403.81Z"/><line class="c" x1="110" y1="525.32" x2="82.7" y2="506.2"/><path class="b" d="M110,525.32a62.05,62.05,0,0,1-7.5-3.81q-3.6-2.13-7-4.52t-6.64-5a60.53,60.53,0,0,1-6.15-5.75A62.05,62.05,0,0,1,90.2,510q3.6,2.13,7,4.52c2.27,1.6,4.49,3.28,6.64,5.05A63.84,63.84,0,0,1,110,525.32Z"/><line class="c" x1="144.17" y1="502.02" x2="82.7" y2="506.2"/><path class="b" d="M144.17,502c-5.08,1-10.18,1.64-15.29,2.21-2.55.31-5.11.51-7.66.77l-7.68.6-7.69.45c-2.57.09-5.13.24-7.7.27-5.14.13-10.28.15-15.45-.12,5.08-1,10.18-1.65,15.29-2.21,2.55-.32,5.11-.52,7.67-.78l7.67-.6,7.69-.44c2.57-.09,5.13-.23,7.71-.27C133.86,501.77,139,501.75,144.17,502Z"/><line class="c" x1="146.49" y1="449.2" x2="82.7" y2="506.2"/><path class="b" d="M146.49,449.2c-4.9,5.21-10,10.2-15.17,15.12-2.56,2.48-5.2,4.87-7.81,7.31l-7.91,7.19-8,7.06c-2.71,2.32-5.39,4.67-8.14,6.94-5.46,4.59-11,9.1-16.73,13.38,4.9-5.22,10-10.21,15.17-15.12,2.56-2.48,5.2-4.88,7.81-7.31l7.92-7.19,8-7.06c2.71-2.32,5.39-4.67,8.14-6.94C135.23,458,140.76,453.49,146.49,449.2Z"/><line class="c" x1="50.76" y1="515.7" x2="82.7" y2="506.18"/><path class="b" d="M50.76,515.7a64.08,64.08,0,0,1,7.65-3.51c2.6-1,5.23-1.89,7.89-2.69s5.36-1.49,8.08-2.07a60.24,60.24,0,0,1,8.32-1.25,60.3,60.3,0,0,1-7.64,3.51c-2.6,1-5.24,1.9-7.9,2.69s-5.35,1.48-8.08,2.07A61.8,61.8,0,0,1,50.76,515.7Z"/><line class="c" x1="25.7" y1="482.79" x2="82.7" y2="506.18"/><path class="b" d="M25.7,482.79c5,1.38,9.86,3,14.69,4.77,2.43.85,4.82,1.79,7.22,2.69l7.16,2.85,7.1,3c2.34,1,4.7,2,7,3.15,4.66,2.15,9.29,4.4,13.8,6.93-5-1.37-9.86-3-14.69-4.76-2.43-.85-4.82-1.8-7.22-2.7l-7.16-2.85-7.09-3c-2.35-1.05-4.71-2.05-7-3.15C34.84,487.57,30.21,485.32,25.7,482.79Z"/><line class="c" x1="40.18" y1="431.95" x2="82.7" y2="506.18"/><path class="b" d="M40.18,432c4.09,5.87,7.91,11.9,11.65,18,1.89,3,3.69,6.11,5.53,9.16l5.38,9.24L68,477.64c1.7,3.13,3.45,6.24,5.1,9.4,3.35,6.29,6.61,12.64,9.61,19.14-4.08-5.88-7.91-11.9-11.64-18-1.9-3-3.69-6.1-5.53-9.15l-5.39-9.24-5.24-9.32c-1.7-3.14-3.45-6.24-5.1-9.41C46.45,444.79,43.19,438.44,40.18,432Z"/><path class="a" d="M406.7,320.59c.49-.73,10.42-15.56,19.25-24.4-2.78.31-5.05.47-6.41.47h-.15c-15.44-.12-45.86-9.77-47.15-10.18L360,282.56l12.35-3.72c1.14-.35,25.15-7.54,41.37-9.12a86.28,86.28,0,0,1-10.85-7.26c-14.1-12.25-32.57-47.18-33.34-48.66l-4.79-9.1,9.68,3.47c1.57.57,38.74,14,52.83,26.24l.6.55c-3.18-24.15,6-71.42,6.39-73.47l2.05-10.5,5.34,9.28c1,1.81,25,43.59,29.75,67.48.13-.26.27-.5.39-.72,9.39-16.14,40.23-40.84,41.54-41.88l8-6.42-1.59,10.17c-.26,1.65-6.47,40.67-15.86,56.81a87.17,87.17,0,0,1-7.93,10.38c15.86-3.74,40.9-4.68,42.1-4.73l12.89-.46-10.37,7.68c-1.08.8-26.77,19.75-41.34,24.85a65,65,0,0,1-6.36,1.67c11.2,5.51,25.39,16.35,26.09,16.89l8.92,6.84-11.23.33c-.09,0-2.31.07-5.72.07-10,0-23.61-.52-31.3-3-3.13-1-13-5.89-19.4-10.71-4.49,6.63-12.26,14.42-14.9,16.39-9.54,7.11-33.09,14.42-34.09,14.73L400.47,330Z"/><path class="b" d="M438.11,162.26S463.87,207,467.7,230.13a114.59,114.59,0,0,1,.64,16.44c2.44-7.82,5.34-14.94,6.84-17.53,9.12-15.68,40.58-40.76,40.58-40.76S509.51,228,500.39,243.7c-2.34,4-12.6,16.47-21.58,24a107.18,107.18,0,0,1,12.71-6.22c14.17-5,46.64-6.13,46.64-6.13s-26.11,19.34-40.28,24.3c-3.75,1.31-17.38,4.14-26.92,4.58a83.53,83.53,0,0,1,15,2.3c10.8,3.48,30.55,18.62,30.55,18.62s-2.21.07-5.6.07c-8,0-22.49-.37-30.07-2.81-3.56-1.15-17.37-8.2-21.66-13.15-2.47,6.07-13.26,17.2-16.26,19.44-9.09,6.78-32.88,14.1-32.88,14.1s13.81-20.7,22.9-27.48a85.44,85.44,0,0,1,13.45-7c-9.08,2.65-22.73,4.35-26.84,4.35h-.11c-15-.12-46-10-46-10s30.71-9.26,45.83-9.25h.29a107.3,107.3,0,0,1,14,1.78C422.69,271,409,262.51,405.44,259.45,391.75,247.55,373,211.94,373,211.94s37.87,13.59,51.56,25.49c2.26,2,7.29,7.77,12.13,14.38a113.8,113.8,0,0,1-4.7-15.76c-3.83-23.09,6.1-73.79,6.1-73.79m-3.74-22.54-4.11,21c-.1.53-2.56,13.11-4.57,28.75-1.93,15-2.77,27.38-2.51,37-17.11-11.11-46.06-21.57-47.46-22.07l-19.36-6.95,9.58,18.2c.79,1.51,19.6,37.09,34.25,49.82.61.53,1.4,1.15,2.35,1.84-14.79,2.71-30.47,7.41-31.39,7.69l-24.7,7.44L371,290.29c1.25.39,29,9.2,45.61,10.27-6.59,7.91-12.31,16.4-13.25,17.81L390.9,337.08l21.49-6.62c2.57-.79,25.39-7.95,35.3-15.34a93.3,93.3,0,0,0,13.43-14.07,93.91,93.91,0,0,0,17.25,9c8.19,2.64,22.21,3.2,32.53,3.2,3.47,0,5.74-.07,5.84-.07l22.47-.67-17.84-13.68c-1.36-1-9.51-7.22-18.29-12.58,15.34-6.36,38.8-23.67,39.84-24.44l20.74-15.35-25.79.93c-1,0-17.31.65-32.19,2.85.67-1,1.23-1.8,1.63-2.49,9.76-16.79,16.08-56.53,16.35-58.21l3.19-20.33L510.77,182c-1.16.93-25.19,20.17-37.8,36.21-2.86-9.2-7.66-20.66-14.32-34.22-6.95-14.15-13.34-25.27-13.6-25.74l-10.68-18.55Z"/><line class="a" x1="442.02" y1="185.84" x2="458.57" y2="285.66"/><path class="b" d="M442,185.84c2,8.22,3.69,16.48,5.29,24.77.82,4.13,1.54,8.29,2.31,12.43l2.15,12.47,2,12.49c.61,4.17,1.27,8.33,1.83,12.52,1.16,8.35,2.22,16.72,3,25.14-2-8.21-3.7-16.48-5.29-24.76-.83-4.14-1.55-8.29-2.32-12.44L448.82,236l-2-12.49c-.61-4.18-1.27-8.34-1.82-12.52C443.85,202.63,442.79,194.26,442,185.84Z"/><line class="a" x1="490.99" y1="297.57" x2="459.02" y2="288.17"/><path class="b" d="M491,297.57a61.77,61.77,0,0,1-8.32-1.22c-2.73-.57-5.43-1.26-8.09-2s-5.3-1.67-7.9-2.66a61.12,61.12,0,0,1-7.66-3.48,60.21,60.21,0,0,1,8.32,1.22c2.73.57,5.42,1.25,8.09,2s5.3,1.67,7.9,2.66A63.28,63.28,0,0,1,491,297.57Z"/><line class="a" x1="515.93" y1="264.57" x2="459.02" y2="288.17"/><path class="b" d="M515.93,264.57c-4.5,2.54-9.12,4.81-13.78,7-2.32,1.11-4.68,2.12-7,3.18l-7.08,3-7.15,2.88c-2.4.91-4.78,1.86-7.21,2.72-4.82,1.76-9.69,3.43-14.67,4.82,4.5-2.55,9.12-4.81,13.78-7,2.32-1.12,4.68-2.12,7-3.18l7.08-3,7.15-2.87c2.4-.91,4.78-1.86,7.21-2.72C506.09,267.63,511,266,515.93,264.57Z"/><line class="a" x1="501.27" y1="213.78" x2="459.02" y2="288.17"/><path class="b" d="M501.27,213.78c-3,6.5-6.22,12.86-9.55,19.17-1.64,3.17-3.37,6.28-5.06,9.42l-5.21,9.34L476.1,261c-1.84,3.06-3.62,6.15-5.5,9.18-3.72,6.09-7.52,12.12-11.58,18,3-6.51,6.21-12.87,9.54-19.18,1.64-3.17,3.38-6.28,5.07-9.42l5.21-9.34,5.35-9.26c1.83-3.06,3.62-6.14,5.5-9.17C493.41,225.71,497.21,219.67,501.27,213.78Z"/><line class="a" x1="431.78" y1="307.37" x2="459.01" y2="288.15"/><path class="b" d="M431.78,307.37a61.62,61.62,0,0,1,6.13-5.77q3.22-2.67,6.62-5.07c2.27-1.6,4.6-3.12,7-4.54a59.19,59.19,0,0,1,7.48-3.84,60.34,60.34,0,0,1-6.12,5.76c-2.15,1.79-4.36,3.47-6.63,5.07s-4.59,3.12-7,4.54A61.45,61.45,0,0,1,431.78,307.37Z"/><line class="a" x1="397.53" y1="284.18" x2="459.01" y2="288.15"/><path class="b" d="M397.53,284.18c5.16-.29,10.3-.28,15.44-.17,2.57,0,5.14.16,7.7.25l7.7.41,7.68.57c2.55.25,5.11.44,7.67.75,5.11.55,10.21,1.2,15.29,2.16-5.16.29-10.31.28-15.44.17-2.58,0-5.14-.16-7.71-.24l-7.69-.42-7.68-.58c-2.55-.24-5.11-.44-7.67-.74C407.71,285.79,402.61,285.13,397.53,284.18Z"/><line class="a" x1="395.02" y1="231.37" x2="459.01" y2="288.15"/><path class="b" d="M395,231.37c5.74,4.27,11.29,8.76,16.77,13.32,2.76,2.27,5.44,4.61,8.16,6.91l8.06,7,7.95,7.15c2.61,2.43,5.26,4.82,7.83,7.29C449,278,454.09,283,459,288.15c-5.74-4.27-11.29-8.76-16.77-13.32-2.76-2.26-5.45-4.61-8.17-6.91l-8.05-7-7.95-7.16c-2.61-2.42-5.25-4.81-7.83-7.28C405.05,241.54,399.94,236.57,395,231.37Z"/><path class="c" d="M499.9,661.71c-1-.35-24.25-8.52-33.52-16A91,91,0,0,1,452.1,628.8c-6.57,4.58-16.61,9.08-19.78,10-4.74,1.34-12.21,2-22.19,2-8,0-14.64-.44-14.92-.46L384,639.58l9.17-6.5c.72-.51,15.3-10.82,26.7-15.91a63,63,0,0,1-6.29-1.9c-14.38-5.64-39.34-25.53-40.39-26.38l-10.08-8,12.87.94c1.19.09,26.17,2,41.89,6.28a86.67,86.67,0,0,1-7.54-10.66c-8.78-16.48-13.54-55.7-13.74-57.36l-1.22-10.22,7.8,6.71c1.27,1.09,31.18,26.92,40,43.4.12.22.24.46.37.73,5.65-23.69,31.12-64.56,32.23-66.33l5.68-9.08,1.66,10.58c.33,2.06,7.73,49.64,3.65,73.65.22-.19.43-.37.63-.52,14.53-11.72,52.17-23.76,53.77-24.26l9.8-3.12-5.12,8.92c-.84,1.45-20.59,35.67-35.13,47.39a86.11,86.11,0,0,1-11.12,6.85c16.15,2.19,39.88,10.26,41,10.65l12.2,4.17L540.33,623c-1.23.35-30.5,8.45-46.26,8.45l-1.23,0a60.74,60.74,0,0,1-6.54-.72c8.49,9.16,17.87,24.35,18.33,25.11l5.88,9.58Z"/><path class="b" d="M479.12,496.45s8,51,3.36,74A115.52,115.52,0,0,1,477.2,586c5.07-6.43,10.33-12,12.66-13.92,14.12-11.38,52.47-23.56,52.47-23.56s-20.05,34.89-34.17,46.27c-3.64,2.93-17.66,10.87-28.74,14.7a115.92,115.92,0,0,1,13.6-1.27h.49c15,.44,45.75,11,45.75,11s-29.8,8.3-45.18,8.3c-.39,0-.76,0-1.13,0-4-.11-17.71-2.34-26.77-5.34a85.15,85.15,0,0,1,13.18,7.5c8.83,7.12,21.86,28.32,21.86,28.32s-23.5-8.2-32.33-15.32c-2.92-2.34-13.29-13.86-15.53-20-4.47,4.79-18.53,11.32-22.13,12.33-5.25,1.48-13.72,1.87-21.1,1.87-8,0-14.65-.45-14.65-.45s20.3-14.4,31.22-17.48a84.62,84.62,0,0,1,15.06-1.74c-9.51-.79-23-4.12-26.72-5.57-14-5.49-39.36-25.78-39.36-25.78s32.41,2.37,46.39,7.86a106.35,106.35,0,0,1,12.46,6.68c-8.69-7.87-18.48-20.67-20.67-24.79-8.53-16-13.3-56-13.3-56s30.51,26.24,39,42.25c1.41,2.64,4,9.86,6.19,17.77A115.33,115.33,0,0,1,447,563.17c4.69-22.93,32.09-66.72,32.09-66.72m4.57-22.39L472.34,492.2c-1,1.6-21.49,34.49-30.12,58.89-12-16.49-35.31-36.62-36.44-37.59l-15.6-13.42,2.44,20.43c.2,1.69,5.05,41.64,14.18,58.78.38.7.9,1.57,1.54,2.55-14.8-2.76-31.11-4-32.07-4.05l-25.73-1.88L370.69,592c1,.81,23.81,19,38.91,25.9-9,5-17.36,10.91-18.75,11.9l-18.33,13,22.43,1.5c.28,0,7.05.47,15.18.47,10.35,0,18.18-.73,23.27-2.17A93.58,93.58,0,0,0,451,634.29a93.73,93.73,0,0,0,12.9,14.55c9.63,7.76,32.18,15.76,34.71,16.64l21.23,7.42L508,653.74c-.9-1.45-6.29-10.14-12.58-18.29,16.54-.43,44.72-8.23,45.95-8.57L566.26,620l-24.41-8.35c-.91-.31-16.4-5.58-31.09-8.85,1-.65,1.79-1.24,2.42-1.74,15.12-12.19,35.23-47,36.08-48.52l10.25-17.83-19.6,6.22c-1.42.45-30.76,9.83-48.26,20.31,1.62-25.84-4.33-64.13-4.63-66l-3.33-21.14Z"/><line class="c" x1="474.34" y1="519.87" x2="454.1" y2="619.01"/><path class="b" d="M474.34,519.87c-1.08,8.38-2.45,16.71-3.92,25-.71,4.15-1.52,8.29-2.28,12.44l-2.45,12.41-2.61,12.37c-.93,4.12-1.8,8.24-2.78,12.35-1.9,8.21-3.91,16.41-6.2,24.55,1.07-8.39,2.44-16.72,3.91-25,.71-4.16,1.52-8.3,2.29-12.44l2.45-12.41,2.61-12.38c.92-4.11,1.8-8.24,2.78-12.34C470,536.2,472,528,474.34,519.87Z"/><line class="c" x1="480.11" y1="641.72" x2="453.62" y2="621.5"/><path class="b" d="M480.11,641.72a61.62,61.62,0,0,1-7.33-4.12q-3.51-2.26-6.82-4.8c-2.21-1.68-4.36-3.45-6.43-5.31a58.68,58.68,0,0,1-5.91-6,61,61,0,0,1,7.34,4.12q3.51,2.26,6.82,4.8c2.2,1.69,4.35,3.45,6.42,5.31A60.8,60.8,0,0,1,480.11,641.72Z"/><line class="c" x1="515.21" y1="619.83" x2="453.62" y2="621.5"/><path class="b" d="M515.21,619.83c-5.12.76-10.24,1.22-15.37,1.58-2.56.21-5.12.31-7.69.46l-7.7.29-7.7.13c-2.56,0-5.13,0-7.7,0-5.14-.08-10.28-.26-15.43-.75,5.11-.76,10.24-1.23,15.36-1.59,2.57-.21,5.13-.3,7.7-.46l7.69-.29,7.7-.12c2.57,0,5.14,0,7.71,0C504.92,619.16,510.06,619.34,515.21,619.83Z"/><line class="c" x1="519.68" y1="567.14" x2="453.62" y2="621.5"/><path class="b" d="M519.68,567.14c-5.11,5-10.41,9.79-15.78,14.49-2.66,2.38-5.39,4.66-8.09,7l-8.21,6.86-8.31,6.73c-2.8,2.21-5.57,4.45-8.41,6.61-5.65,4.36-11.36,8.63-17.26,12.68,5.11-5,10.4-9.79,15.77-14.49,2.66-2.37,5.4-4.66,8.1-7l8.21-6.85,8.31-6.73c2.8-2.21,5.57-4.45,8.41-6.61C508.07,575.47,513.78,571.2,519.68,567.14Z"/><line class="c" x1="421.32" y1="629.7" x2="453.62" y2="621.48"/><path class="b" d="M421.32,629.7a62.24,62.24,0,0,1,7.79-3.2c2.63-.89,5.3-1.68,8-2.36s5.41-1.28,8.16-1.75a62.5,62.5,0,0,1,8.36-.91,60.64,60.64,0,0,1-7.78,3.2c-2.64.9-5.31,1.68-8,2.36s-5.41,1.27-8.15,1.74A62.66,62.66,0,0,1,421.32,629.7Z"/><line class="c" x1="397.62" y1="595.79" x2="453.62" y2="621.48"/><path class="b" d="M397.62,595.79c4.92,1.58,9.73,3.43,14.49,5.37,2.39.94,4.73,2,7.1,3l7,3.14,7,3.28c2.3,1.14,4.62,2.24,6.9,3.44,4.57,2.34,9.11,4.77,13.51,7.48-4.93-1.57-9.73-3.41-14.49-5.36-2.39-.94-4.73-2-7.1-3L425,610l-7-3.29c-2.3-1.14-4.62-2.24-6.9-3.43C406.56,600.93,402,598.5,397.62,595.79Z"/><line class="c" x1="414.16" y1="545.58" x2="453.62" y2="621.48"/><path class="b" d="M414.16,545.58c3.84,6,7.42,12.21,10.9,18.44,1.77,3.1,3.44,6.24,5.15,9.37l5,9.45,4.86,9.52c1.57,3.2,3.19,6.38,4.71,9.61,3.1,6.42,6.1,12.9,8.83,19.51-3.84-6-7.42-12.21-10.9-18.43-1.77-3.1-3.44-6.25-5.16-9.38l-5-9.45-4.86-9.52c-1.57-3.2-3.19-6.38-4.71-9.61C419.9,558.67,416.9,552.19,414.16,545.58Z"/><path class="d" d="M54,850.68c.22-.86,4.78-18.12,10.25-29.35a61.45,61.45,0,0,1-6,2.59c-14.64,4.91-46.55,5.69-47.91,5.72l-12.89.3L7.83,822.4c1-.7,21.33-15.31,36.16-22.09A87.1,87.1,0,0,1,31.36,797C14,790-14.79,763-16,761.83l-7.5-7.05,10.29.13c1.67,0,41.18.62,58.5,7.61l.75.32c-10.88-21.79-17.6-69.47-17.89-71.54l-1.47-10.6,8.06,7c1.57,1.37,37.81,33.09,50.1,54.12,0-.29.09-.56.14-.81,3.62-18.32,24.74-51.71,25.64-53.12l5.51-8.68,1.8,10.12c.3,1.65,7.13,40.57,3.51,58.89a87.71,87.71,0,0,1-4.12,12.39c13.78-8.7,37.15-17.75,38.27-18.18l12-4.63-7.3,10.63c-.77,1.12-18.88,27.4-31,37a62.38,62.38,0,0,1-5.47,3.64c12.38,1.56,29.35,7.2,30.17,7.47l10.66,3.57-10.51,4c-1,.37-24.06,9-36,9.28h-.27a92.85,92.85,0,0,1-21.55-3.8c-2.09,7.73-6.9,17.62-8.76,20.34-6.7,9.83-26.59,24.41-27.43,25l-9.08,6.63Z"/><path class="b" d="M114,690.06s7,39.62,3.53,57.41c-.91,4.58-6.56,19.67-12.59,29.73a106.21,106.21,0,0,1,10-10c11.78-9.3,42.1-21,42.1-21S138.62,773,126.83,782.29c-3.11,2.46-15.08,9.58-24,13.09a85.4,85.4,0,0,1,14.92-2.71h.48c11.51,0,34.47,7.67,34.47,7.67s-23.29,8.8-34.62,9h-.2c-4.05,0-19-2.15-24.57-5.38-.35,6.54-6.93,20.58-9,23.67-6.39,9.37-26.49,24-26.49,24s6.31-24.07,12.7-33.44a84.79,84.79,0,0,1,10.43-11c-7.8,5.51-20.3,11.62-24.07,12.89-14.23,4.77-46.72,5.51-46.72,5.51s26.37-19,40.6-23.76A105.82,105.82,0,0,1,64.62,799c-11.71-.45-27.44-4-31.76-5.73C16,786.48-13.27,758.91-13.27,758.91s40.23.53,57.05,7.32c2.77,1.12,9.43,5,16.15,9.65a116.46,116.46,0,0,1-9.58-13.38C39.22,741.91,32.1,690.75,32.1,690.75s38.94,34,50.07,54.53a114.89,114.89,0,0,1,6,15.34c-.24-8.19.18-15.86.76-18.8C92.41,724,114,690.06,114,690.06m4.28-21.65-11,17.36c-.79,1.26-17.26,27.29-24,46.56C67.93,711.48,38.78,686,37.36,684.72L21.23,670.65l2.95,21.2c.26,1.86,5.67,40.23,14.73,64.49-19.8-5-50.59-5.41-52.08-5.43l-20.57-.26,15,14.09c1.24,1.17,30.61,28.68,48.61,36,.74.3,1.7.63,2.82,1-13.11,7.39-26.4,16.93-27.18,17.49l-20.94,15.08,25.8-.59c1.3,0,30.43-.74,46.46-5.13-3.66,9.62-6.3,19.5-6.73,21.15l-5.71,21.75,18.16-13.25c2.18-1.59,21.42-15.79,28.39-26a95.05,95.05,0,0,0,8.12-17.67,97.21,97.21,0,0,0,18.88,2.87h.35c12.36-.24,34.78-8.59,37.29-9.54l21-8-21.32-7.12c-1.6-.53-11.33-3.74-21.39-6,12.44-11,29-35,29.72-36.07l14.6-21.27-24.07,9.27c-.91.35-16.16,6.25-29.51,13.18.32-1.12.57-2.1.73-2.89,3.76-19-3.2-58.68-3.5-60.36l-3.6-20.25Z"/><line class="d" x1="43.48" y1="711.77" x2="91.62" y2="800.76"/><path class="b" d="M43.48,711.77c4.55,7.12,8.85,14.38,13.06,21.69,2.13,3.65,4.16,7.34,6.24,11l6.09,11.08,5.95,11.17c1.93,3.74,3.91,7.46,5.8,11.24,3.82,7.52,7.54,15.09,11,22.8-4.56-7.12-8.86-14.38-13.06-21.69-2.13-3.64-4.16-7.33-6.24-11L66.23,757l-5.94-11.16c-1.94-3.75-3.92-7.47-5.8-11.25C50.67,727.05,46.94,719.48,43.48,711.77Z"/><line class="d" x1="126.16" y1="801.47" x2="92.86" y2="802.98"/><path class="b" d="M126.16,801.47a62.94,62.94,0,0,1-8.27,1.55q-4.15.53-8.31.7c-2.78.13-5.56.16-8.34.06a61.06,61.06,0,0,1-8.38-.8,61.34,61.34,0,0,1,8.27-1.55q4.16-.52,8.31-.7t8.34-.06A61.36,61.36,0,0,1,126.16,801.47Z"/><line class="d" x1="139" y1="762.14" x2="92.86" y2="802.98"/><path class="b" d="M139,762.14c-3.44,3.87-7.07,7.52-10.76,11.09-1.84,1.8-3.74,3.53-5.61,5.29l-5.71,5.17-5.82,5c-2,1.64-3.91,3.32-5.93,4.92-4,3.24-8,6.4-12.31,9.33,3.43-3.87,7.06-7.51,10.76-11.08,1.83-1.81,3.73-3.53,5.6-5.29l5.72-5.17,5.82-5c2-1.64,3.92-3.32,5.93-4.92C130.68,768.24,134.74,765.08,139,762.14Z"/><line class="d" x1="108.59" y1="718.89" x2="92.86" y2="802.98"/><path class="b" d="M108.59,718.89c-.7,7.12-1.69,14.19-2.78,21.24-.52,3.53-1.15,7-1.73,10.56l-1.88,10.52-2,10.5c-.74,3.49-1.42,7-2.22,10.47-1.52,7-3.15,13.91-5.08,20.8.7-7.12,1.69-14.19,2.78-21.23.52-3.53,1.15-7,1.72-10.56l1.89-10.53,2-10.49c.74-3.49,1.42-7,2.21-10.47C105,732.73,106.67,725.79,108.59,718.89Z"/><line class="d" x1="73.37" y1="830.01" x2="92.85" y2="802.97"/><path class="b" d="M73.37,830a60.54,60.54,0,0,1,3.91-7.45q2.18-3.57,4.61-6.95T87,809A60.64,60.64,0,0,1,92.85,803a61.27,61.27,0,0,1-3.91,7.45q-2.18,3.57-4.62,6.94c-1.62,2.25-3.33,4.45-5.13,6.57A61.73,61.73,0,0,1,73.37,830Z"/><line class="d" x1="33.42" y1="819.24" x2="92.85" y2="802.97"/><path class="b" d="M33.42,819.24c4.79-2,9.66-3.62,14.55-5.19,2.44-.81,4.91-1.52,7.37-2.28l7.4-2.11,7.45-2c2.5-.6,5-1.25,7.5-1.79,5-1.15,10-2.19,15.16-2.94-4.79,1.95-9.65,3.63-14.55,5.19-2.44.82-4.9,1.52-7.36,2.28l-7.41,2.11-7.45,2c-2.49.6-5,1.25-7.49,1.8C43.58,817.44,38.54,818.48,33.42,819.24Z"/><line class="d" x1="13.86" y1="770.12" x2="92.85" y2="802.97"/><path class="b" d="M13.86,770.12c6.82,2.17,13.52,4.61,20.19,7.14,3.35,1.24,6.65,2.58,10,3.87l9.91,4,9.84,4.18c3.26,1.44,6.54,2.84,9.78,4.33,6.5,2.94,13,6,19.3,9.3-6.82-2.16-13.53-4.6-20.2-7.13-3.34-1.24-6.64-2.59-10-3.88l-9.9-4-9.84-4.18c-3.26-1.45-6.54-2.84-9.78-4.34C26.66,776.47,20.2,773.43,13.86,770.12Z"/><path class="a" d="M344.89,929.71c.51-.72,10.83-15.28,19.89-23.87-2.35.2-4.36.3-5.8.3h-.76c-15.43-.54-45.59-11-46.86-11.45l-12.18-4.25L311.62,887c1.12-.3,25.36-6.85,41.6-8a86.82,86.82,0,0,1-10.65-7.54c-13.76-12.63-31.28-48-32-49.54L306,812.73l9.59,3.73c1.56.61,38.35,15,52.11,27.65l.59.57c-2.54-24.23,7.9-71.24,8.35-73.27L379,761l5.09,9.42c1,1.84,23.79,44.25,27.92,68.25.14-.25.28-.48.41-.7,9.82-15.88,41.32-39.74,42.65-40.75l8.22-6.19L461.4,801.1c-.31,1.65-7.57,40.49-17.38,56.37a87.92,87.92,0,0,1-8.21,10.16c16-3.31,41-3.58,42.21-3.59l12.9-.12-10.57,7.4c-1.11.77-27.29,19-42,23.73a60.19,60.19,0,0,1-6.4,1.49c11.05,5.82,24.94,17,25.63,17.59l8.73,7.08-11.34,0c-2.63,0-26-.11-36.82-3.93-3.11-1.1-12.85-6.23-19.1-11.22-4.68,6.5-12.65,14.08-15.34,16-9.73,6.85-33.47,13.52-34.48,13.8l-10.83,3Z"/><path class="b" d="M380.55,772.28s24.54,45.46,27.75,68.64a115.1,115.1,0,0,1,.19,16.45c2.65-7.75,5.74-14.79,7.31-17.34,9.54-15.42,41.66-39.66,41.66-39.66s-7.31,39.57-16.85,55c-2.45,4-13,16.12-22.21,23.42a105.52,105.52,0,0,1,12.86-5.88c14.3-4.58,46.8-4.87,46.8-4.87s-26.63,18.63-40.93,23.2c-3.78,1.21-17.48,3.68-27,3.86A84.78,84.78,0,0,1,425,897.8c10.69,3.77,30,19.44,30,19.44H455c-1.66,0-25.18-.07-35.49-3.7-3.53-1.25-17.14-8.66-21.3-13.73-2.63,6-13.72,16.83-16.78,19-9.27,6.53-33.24,13.22-33.24,13.22s14.36-20.33,23.63-26.86a84.53,84.53,0,0,1,13.63-6.65A135.92,135.92,0,0,1,359,902.14h-.63c-15-.52-45.69-11.23-45.69-11.23s29.51-8,45-8c.47,0,.94,0,1.38,0a106,106,0,0,1,14,2.16c-10.81-4.53-24.3-13.35-27.74-16.51-13.36-12.26-31.13-48.36-31.13-48.36S351.63,834.8,365,847.06c2.21,2,7.09,8,11.74,14.7a113.48,113.48,0,0,1-4.27-15.89c-3.21-23.18,8.09-73.59,8.09-73.59m-3.13-22.63-4.68,20.88c-.12.53-2.91,13-5.34,28.62-2.34,14.93-3.51,27.29-3.51,36.93-16.8-11.57-45.46-22.81-46.85-23.35l-19.17-7.46L307,823.72c.75,1.53,18.6,37.6,32.91,50.73.59.54,1.36,1.18,2.29,1.89-14.85,2.32-30.68,6.6-31.59,6.84L285.68,890l24.36,8.5c1.23.42,28.76,10,45.31,11.49-6.8,7.73-12.74,16.06-13.73,17.45l-13,18.36,21.66-6c2.59-.73,25.59-7.27,35.7-14.39a93.69,93.69,0,0,0,13.8-13.7,93.92,93.92,0,0,0,17,9.44c11.22,4,33.75,4.16,38.15,4.16h.11l22.48-.07L460.1,911c-1.33-1.07-9.31-7.48-18-13.07,15.51-5.94,39.42-22.61,40.49-23.36l21.14-14.79L478,860c-1,0-17.32.18-32.26,2,.7-.94,1.28-1.77,1.7-2.45,10.21-16.52,17.6-56.08,17.91-57.75l3.74-20.23L452.64,794c-1.18.89-25.72,19.48-38.75,35.18-2.62-9.28-7.1-20.86-13.4-34.6-6.57-14.33-12.65-25.62-12.9-26.09l-10.17-18.83Z"/><line class="a" x1="383.82" y1="795.96" x2="397.68" y2="896.19"/><path class="b" d="M383.82,796c1.77,8.27,3.25,16.57,4.62,24.9.71,4.15,1.32,8.33,2,12.49l1.81,12.52,1.66,12.54c.49,4.19,1,8.37,1.48,12.56.94,8.38,1.77,16.78,2.31,25.22-1.78-8.27-3.26-16.58-4.63-24.9-.71-4.16-1.32-8.33-2-12.49l-1.81-12.52-1.65-12.54c-.49-4.19-1-8.37-1.48-12.56C385.19,812.79,384.36,804.4,383.82,796Z"/><line class="a" x1="429.77" y1="908.97" x2="398.06" y2="898.7"/><path class="b" d="M429.77,909a62.69,62.69,0,0,1-8.29-1.45c-2.71-.65-5.39-1.41-8-2.26s-5.26-1.81-7.83-2.87a60.63,60.63,0,0,1-7.56-3.69,61.65,61.65,0,0,1,8.29,1.45c2.71.64,5.38,1.4,8,2.26s5.26,1.81,7.83,2.87A61.45,61.45,0,0,1,429.77,909Z"/><line class="a" x1="455.59" y1="876.65" x2="398.06" y2="898.7"/><path class="b" d="M455.59,876.65c-4.57,2.42-9.25,4.56-14,6.6-2.35,1-4.73,2-7.1,3l-7.16,2.84-7.22,2.68c-2.43.84-4.84,1.73-7.28,2.52-4.88,1.63-9.79,3.17-14.8,4.42,4.57-2.42,9.24-4.56,14-6.6,2.35-1.05,4.73-2,7.1-3l7.17-2.83,7.22-2.68c2.42-.85,4.83-1.74,7.28-2.53C445.66,879.44,450.57,877.91,455.59,876.65Z"/><line class="a" x1="442.29" y1="825.48" x2="398.06" y2="898.7"/><path class="b" d="M442.29,825.48c-3.15,6.42-6.56,12.69-10.06,18.91-1.72,3.12-3.54,6.19-5.31,9.28l-5.46,9.2-5.6,9.11c-1.91,3-3.78,6-5.74,9-3.88,6-7.84,11.92-12.06,17.7,3.15-6.42,6.55-12.69,10.05-18.91,1.73-3.12,3.55-6.19,5.32-9.28l5.46-9.2,5.6-9.11c1.92-3,3.79-6,5.75-9C434.11,837.19,438.08,831.26,442.29,825.48Z"/><line class="a" x1="370.32" y1="917.16" x2="398.05" y2="898.68"/><path class="b" d="M370.32,917.16a61.33,61.33,0,0,1,6.28-5.6c2.19-1.72,4.44-3.34,6.75-4.89s4.68-3,7.11-4.35a62.33,62.33,0,0,1,7.59-3.64,60.16,60.16,0,0,1-6.28,5.6c-2.19,1.73-4.44,3.35-6.75,4.89s-4.68,3-7.12,4.35A62.2,62.2,0,0,1,370.32,917.16Z"/><line class="a" x1="336.69" y1="893.07" x2="398.05" y2="898.68"/><path class="b" d="M336.69,893.07c5.17-.15,10.32,0,15.45.24,2.57.1,5.13.3,7.69.45l7.68.62,7.66.78c2.55.32,5.11.58,7.65,1,5.09.69,10.18,1.48,15.23,2.57-5.17.16-10.31,0-15.44-.24-2.57-.09-5.13-.3-7.7-.45l-7.67-.62-7.67-.79c-2.54-.31-5.1-.58-7.64-1C346.83,894.94,341.75,894.15,336.69,893.07Z"/><line class="a" x1="335.61" y1="840.21" x2="398.05" y2="898.68"/><path class="b" d="M335.61,840.21c5.62,4.42,11.05,9,16.4,13.77,2.7,2.33,5.32,4.74,8,7.12l7.86,7.25,7.76,7.37c2.54,2.49,5.12,4.95,7.63,7.49,5.05,5,10,10.14,14.81,15.47-5.63-4.42-11.06-9-16.41-13.76-2.7-2.34-5.32-4.75-8-7.13l-7.86-7.25-7.74-7.37c-2.55-2.5-5.13-5-7.64-7.49C345.37,850.64,340.39,845.53,335.61,840.21Z"/><path class="d" d="M35.05,280c.24-.52,1.51-3.21,3.16-6.14l-1.29,0a118.89,118.89,0,0,1-15.12-1.36l-12.74-2L20.69,265c.75-.36,5.08-2.4,9.74-4.15-6.29-4.35-14.59-15.43-15.54-16.72l-6.12-8.27,10.09,2a115.74,115.74,0,0,1,18,5c-1.46-9.85-.94-23.26-.91-23.94l.43-10.7,6.68,8.36c.43.53,8.8,11,13.47,19.82A114.32,114.32,0,0,1,68,221.67l7-7.57,0,10.29c0,1.61-.11,15.44-2.59,22.68,4.78-1.36,9.49-2.28,10.29-2.43l12.67-2.43-9.07,9.17a106.72,106.72,0,0,1-12.43,10.81c3.07,1.38,5.69,2.8,6.19,3.07l9.86,5.4-11,2a80.19,80.19,0,0,1-12,1.28h0a20.19,20.19,0,0,1-3.13-.21,35.37,35.37,0,0,1-6.55-2.13,36.61,36.61,0,0,1-4,5.6c-3.44,3.5-11.83,7.62-12.78,8.08l-10.11,4.91Z"/><path class="b" d="M39.93,219.05s12.42,15.51,15.23,24.06a43.34,43.34,0,0,1,1.21,6.21,42.42,42.42,0,0,1,1.57-7.06c2.55-6.5,13-17.88,13-17.88s0,15.48-2.59,22a50.12,50.12,0,0,1-6.79,10.39,42.18,42.18,0,0,1,4.46-3.11c5.1-2.71,17.37-5.06,17.37-5.06s-8.79,8.88-13.88,11.6a51.5,51.5,0,0,1-10,3.31c1.12-.09,2.27-.12,3.27-.12a19,19,0,0,1,2.57.12c4.3.69,12.7,5.29,12.7,5.29A76.84,76.84,0,0,1,66.88,270a16.8,16.8,0,0,1-2.49-.16c-1.42-.23-7.08-2.1-9-3.73-.59,2.45-4,7.31-5,8.34-3.06,3.11-11.67,7.29-11.67,7.29s4-8.68,7.09-11.79a32.27,32.27,0,0,1,4.7-3.45,51,51,0,0,1-10,3.23,25.07,25.07,0,0,1-3.56.21,115.33,115.33,0,0,1-14.5-1.31s11.28-5.39,17-6.22a31.18,31.18,0,0,1,3.76-.17l1.68,0a50.25,50.25,0,0,1-11.64-4.34c-5.9-3.72-15.11-16.15-15.11-16.15s15.19,2.94,21.1,6.66a42.87,42.87,0,0,1,5.45,4.76,44.61,44.61,0,0,1-2.71-5.72c-2.81-8.55-2-28.4-2-28.4M32.8,197.34l-.86,21.38A174.17,174.17,0,0,0,32.21,237c-5.59-1.69-11-2.78-12.59-3.09L-.57,230l12.24,16.53a125.38,125.38,0,0,0,11.19,13.11c-1.85.8-3.26,1.47-3.89,1.77L-4.31,272.51l25.49,4c.27,0,5.25.82,10.54,1.2-.11.24-.21.46-.3.64L22,298.74l20.22-9.82c2.31-1.12,10.14-5.08,13.88-8.88a33,33,0,0,0,2.76-3.52,34.93,34.93,0,0,0,4.31,1.2,24.74,24.74,0,0,0,3.76.26,82.14,82.14,0,0,0,12.69-1.35l22.1-4.08L82,261.75l-.61-.33c3.65-3.11,6.84-6.28,7.77-7.23l18.15-18.33-25.34,4.85c-.68.13-2.22.43-4.19.88A122.4,122.4,0,0,0,79,224.4L79,203.83,65.09,219c-1.11,1.2-4.8,5.28-8.29,10a177.86,177.86,0,0,0-10.62-14.87L32.8,197.34Z"/><path class="c" d="M509.36,757.29c-1-.37-9.69-3.76-13.42-7a35.67,35.67,0,0,1-4.48-5.23,35.45,35.45,0,0,1-6.34,2.68,29.87,29.87,0,0,1-7,.63c-4,0-8-.38-8.14-.39l-11.19-1.09,9.36-6.23c.47-.31,3-2,5.9-3.58a107.49,107.49,0,0,1-13.3-9.71L451,719.05l12.83,1.33c.82.09,5.58.6,10.46,1.55-3.09-7-4.39-20.78-4.53-22.38l-.91-10.24,7.6,6.94a115.57,115.57,0,0,1,12.73,13.65c3.89-9.17,11.33-20.33,11.71-20.9l5.94-8.9,1.35,10.62c.09.68,1.75,14,1.15,23.93a114.11,114.11,0,0,1,17.49-6.53l9.89-2.82-5.39,8.76c-.84,1.37-8.16,13.11-14,18,4.79,1.33,9.29,3,10,3.29l12.08,4.54L526.82,743c-.42.1-9.72,2.38-16.24,2.74,1.91,2.78,3.4,5.35,3.68,5.85l5.6,9.75Z"/><path class="b" d="M504.16,691.22s2.51,19.71.44,28.47a43.1,43.1,0,0,1-2.21,5.93,42,42,0,0,1,5-5.2C513,716.2,527.86,712,527.86,712s-8.11,13.19-13.67,17.4A50.72,50.72,0,0,1,503,734.68a47.74,47.74,0,0,1,4.9-.34h.53c5.77.34,17.47,4.74,17.47,4.74S515,741.77,509,741.77c-.34,0-.67,0-1,0a50.79,50.79,0,0,1-10.23-2.36,32.26,32.26,0,0,1,5,3c3.31,2.83,8.07,11.14,8.07,11.14s-8.93-3.43-12.25-6.27c-1.09-.93-5-5.48-5.74-7.88-1.77,1.8-7.25,4.14-8.65,4.49a26.94,26.94,0,0,1-6,.51c-3.9,0-7.76-.38-7.76-.38s8-5.3,12.21-6.35a31.83,31.83,0,0,1,5.81-.5,50.7,50.7,0,0,1-10.21-2.45c-5.31-2.27-14.83-10.37-14.83-10.37s12.43,1.29,17.74,3.56a42.62,42.62,0,0,1,4.71,2.71,50.69,50.69,0,0,1-7.66-9.76c-3.09-6.26-4.46-21.67-4.46-21.67s11.42,10.44,14.51,16.69a41.65,41.65,0,0,1,2.18,6.9,42.17,42.17,0,0,1,.67-6.29c2.06-8.76,13.1-25.28,13.1-25.28M509.41,669l-11.9,17.79a181.24,181.24,0,0,0-9.3,15.73c-3.89-4.36-7.91-8.11-9.12-9.21l-15.18-13.88,1.82,20.5a123,123,0,0,0,2.71,17c-2-.27-3.56-.44-4.25-.51l-25.66-2.66,19.65,16.71c1,.86,4.46,3.74,8.37,6.53l-.59.38-18.72,12.45L469.62,752c.17,0,4.29.41,8.53.41a33.61,33.61,0,0,0,7.94-.75,32.91,32.91,0,0,0,4.2-1.56,31.79,31.79,0,0,0,3,3.27c4.05,3.47,12.19,6.74,14.59,7.66l21,8-11.19-19.5c-.1-.17-.22-.37-.35-.61,5-.79,9.63-1.91,10.4-2.1l25.05-6.17-24.15-9.08c-.65-.25-2.11-.79-4-1.44a125.18,125.18,0,0,0,10-14l10.78-17.52-19.79,5.63c-1.57.45-6.85,2-12.27,4.17a175.49,175.49,0,0,0-1.3-18.23L509.41,669Z"/><path class="c" d="M163.17,908.58c.37-.43,2.34-2.67,4.74-5a106,106,0,0,1-15.42-5.81l-11.7-5.44,12.73-2.13c.27,0,5.29-.89,10.5-1.3-4.85-5.92-9.77-18.86-10.34-20.36l-3.6-9.64,9.16,4.67a114.35,114.35,0,0,1,15.91,9.77c1.32-9.88,5.51-22.62,5.72-23.27l3.36-10.16,4.13,9.87c.27.64,5.42,13,7.48,22.77a115.61,115.61,0,0,1,15.12-11l8.78-5.35-2.86,9.88c-.45,1.54-4.37,14.82-8.75,21.09,5.26,0,10.36.47,10.57.49l12.85,1.16-11.25,6.32a108.48,108.48,0,0,1-14.92,7c2.57,2.16,4.7,4.25,5.1,4.65l8,7.9-11.18-1.08c-1-.1-10.35-1-14.79-3.13a34.63,34.63,0,0,1-5.71-3.85,35.32,35.32,0,0,1-5.4,4.28c-4.28,2.41-13.47,4.07-14.51,4.25l-11.07,1.93Z"/><path class="b" d="M184.67,851.3s7.66,18.33,8,27.32a44.12,44.12,0,0,1-.55,6.31,41.78,41.78,0,0,1,3.46-6.36C199.82,873,213,865,213,865s-4.31,14.86-8.54,20.4a50.22,50.22,0,0,1-9.4,8.12,41.32,41.32,0,0,1,5.15-1.76,40,40,0,0,1,7.59-.56c5.24,0,10.5.48,10.5.48s-10.9,6.11-16.54,7.32a49.32,49.32,0,0,1-7.66.55c-1,0-2,0-2.83-.1a32,32,0,0,1,5.61,1.6c4,1.85,10.75,8.58,10.75,8.58s-9.53-.92-13.48-2.77c-1.3-.61-6.23-4-7.63-6.06-1.23,2.19-5.89,5.92-7.14,6.63-3.8,2.14-13.23,3.79-13.23,3.79s6.27-7.23,10.07-9.38a31.93,31.93,0,0,1,5.47-2,50.74,50.74,0,0,1-7.38.49,27.34,27.34,0,0,1-3.11-.13c-5.73-.77-17.06-6-17.06-6a112.53,112.53,0,0,1,14.93-1.47,24.33,24.33,0,0,1,3.12.17,42.24,42.24,0,0,1,5.26,1.36,50,50,0,0,1-10-7.37c-4.65-5.2-10.08-19.7-10.08-19.7s13.79,7,18.44,12.22a42.41,42.41,0,0,1,3.94,6.08,44.3,44.3,0,0,1-1-6.25c-.34-9,5.9-27.85,5.9-27.85m-.87-22.83-6.72,20.31a175.37,175.37,0,0,0-4.78,17.64c-4.91-3.17-9.79-5.71-11.24-6.45l-18.34-9.33,7.22,19.27a123.14,123.14,0,0,0,7.15,15.69c-2.4.32-4.08.6-4.24.62l-25.44,4.28,23.4,10.87c1.2.56,5.29,2.42,9.8,4.06l-.46.53-14.73,17,22.15-3.87c2.53-.44,11.15-2.09,15.79-4.71a32.81,32.81,0,0,0,3.62-2.63,31.64,31.64,0,0,0,3.82,2.34c4.82,2.27,13.54,3.25,16.1,3.49l22.38,2.17-16-15.81-.5-.5c4.37-2,8.3-4.15,9.46-4.8L244.76,886l-25.7-2.32c-.12,0-1.83-.16-4.27-.3a122.07,122.07,0,0,0,5.93-16.19l5.73-19.76-17.57,10.7c-1.4.85-6.07,3.76-10.72,7.29a176.55,176.55,0,0,0-6.11-17.22l-8.25-19.74Z"/><circle class="f" cx="395.92" cy="785.92" r="104.08"/><path class="g" d="M329.91,823.83h23.52v-75.6H334.72v-8.52c9.36-1.64,16.15-4.14,21.85-7.54h10.11v91.66h21.2v11h-58Z"/><path class="g" d="M404.37,783.13c0-34.43,12.4-52.89,32.9-52.89s32.91,18.52,32.91,52.89-12.4,53.65-32.91,53.65S404.37,817.56,404.37,783.13Zm53,0c0-30.1-8.12-42.22-20.06-42.22s-20,12.12-20,42.22,8.12,43,20,43S457.33,813.23,457.33,783.13Z"/></svg>