<svg xmlns="http://www.w3.org/2000/svg" width="510" height="900" viewBox="0 0 510 900"><defs><style>.a{fill:#56634a;}.b{fill:#432d1e;}.c{fill:#bd645d;}.d{fill:#ffdc82;}.e{fill:#fff;stroke:#432d1e;stroke-width:15px;}.e,.f{stroke-miterlimit:2;}.f{fill:#f7a859;stroke:#f7a859;stroke-width:12px;}</style></defs><title>102</title><path class="a" d="M142.38,812.17c.18-.67,3.48-13.18,7.62-22.39-1.37.61-2.49,1.07-3.24,1.32-12.1,4.06-38.36,4.7-39.47,4.73l-12.9.29,10.47-7.54c.76-.54,15.82-11.35,27.81-17.25a59.45,59.45,0,0,1-8.38-2.32c-14.31-5.78-38-28-39.05-29l-7.49-7,10.29.13c1.34,0,32.29.48,47.1,5.87-8.5-18.62-13.7-55.53-13.93-57.18l-1.48-10.6,8.07,7c1.25,1.1,29.3,25.65,40.24,43,3.59-15.35,20.14-41.5,20.86-42.64l5.52-8.68L196.21,680c.25,1.35,5.87,33.38,2.88,48.52a60.06,60.06,0,0,1-2.64,8.29C207.94,730,225.23,723.32,226.1,723l12-4.64L230.84,729c-.63.91-15.54,22.54-25.55,30.45-.62.49-1.62,1.17-2.88,2a169.55,169.55,0,0,1,22.9,5.88L236,770.86l-10.51,4c-.81.31-19.84,7.46-29.71,7.65h-.24a78.41,78.41,0,0,1-17.16-2.93,75.07,75.07,0,0,1-7.08,16.17c-5.56,8.15-22,20.17-22.66,20.68L139.53,823Z"/><path class="b" d="M192.28,680.72s5.76,32.46,2.88,47c-.74,3.75-5.37,16.12-10.31,24.36a87.72,87.72,0,0,1,8.18-8.21c9.66-7.63,34.51-17.2,34.51-17.2s-15.08,21.95-24.73,29.58A108.41,108.41,0,0,1,183.17,767a70.1,70.1,0,0,1,12.23-2.22h.39c9.44,0,28.25,6.28,28.25,6.28s-19.08,7.21-28.37,7.39h-.16c-3.32,0-15.56-1.77-20.13-4.41-.29,5.36-5.69,16.86-7.42,19.4-5.23,7.67-21.71,19.7-21.71,19.7s5.18-19.73,10.41-27.41a69.93,69.93,0,0,1,8.55-9,108.51,108.51,0,0,1-19.72,10.56c-11.67,3.91-38.29,4.52-38.29,4.52s21.61-15.56,33.27-19.48A88.25,88.25,0,0,1,151.82,770c-9.6-.38-22.48-3.27-26-4.7C112,759.73,88,737.14,88,737.14s33,.43,46.76,6A90.55,90.55,0,0,1,148,751a92.45,92.45,0,0,1-7.85-11c-9.13-16.87-15-58.8-15-58.8s31.91,27.82,41,44.69a94.94,94.94,0,0,1,4.88,12.57,90.24,90.24,0,0,1,.62-15.41c2.88-14.58,20.57-42.41,20.57-42.41m4.28-21.66-11,17.37c-1.55,2.44-13.08,20.81-18.86,35.94-13-16.81-35.11-36.15-36.23-37.12L114.3,661.18l3,21.2c.2,1.47,4.3,30.55,11.24,50.64-15.82-3.44-37.5-3.84-40.4-3.88l-20.57-.26L82.5,743c2.54,2.39,24.94,23.23,39.7,29.5-9.42,5.53-18.21,11.82-19.68,12.87L81.59,800.42l25.79-.59c2.51-.06,22.52-.6,35.75-3.59-2.53,7.08-4.3,13.69-4.62,14.91l-5.7,21.75L151,819.64c1.8-1.31,17.76-13.09,23.6-21.66a74.93,74.93,0,0,0,6.4-13.59,80.78,80.78,0,0,0,14.54,2.1h.32c10.37-.2,29-7.12,31-7.9l21-8-21.32-7.12c-1.18-.4-7.7-2.54-15-4.3,9.74-9.44,21.14-25.89,22.56-28L248.74,710l-24.08,9.28c-1.68.64-11.75,4.57-21.53,9.43,2.82-15.79-2.37-45.94-3-49.37l-3.59-20.26Z"/><line class="a" x1="134.49" y1="698.51" x2="173.95" y2="771.44"/><path class="b" d="M134.49,698.51c3.84,5.78,7.41,11.7,10.89,17.68,1.77,3,3.44,6,5.15,9l5,9.08,4.86,9.15c1.57,3.08,3.19,6.14,4.72,9.24,3.09,6.18,6.09,12.42,8.83,18.79-3.84-5.78-7.41-11.7-10.89-17.68-1.77-3-3.44-6-5.16-9l-5-9.08L148,726.53c-1.57-3.08-3.19-6.13-4.71-9.23C140.24,711.11,137.23,704.88,134.49,698.51Z"/><line class="a" x1="202.25" y1="772.02" x2="174.96" y2="773.26"/><path class="b" d="M202.25,772a41.39,41.39,0,0,1-6.77,1.48c-2.26.33-4.53.53-6.8.64s-4.56.1-6.84,0a43,43,0,0,1-6.88-.87,41.89,41.89,0,0,1,6.77-1.49q3.41-.48,6.81-.63t6.84,0A42.75,42.75,0,0,1,202.25,772Z"/><line class="a" x1="212.77" y1="739.79" x2="174.96" y2="773.26"/><path class="b" d="M212.77,739.79c-2.73,3.26-5.67,6.29-8.67,9.24-1.49,1.5-3,2.92-4.57,4.37l-4.67,4.25q-4.71,4.19-9.67,8.12c-3.29,2.62-6.66,5.17-10.23,7.49,2.74-3.26,5.68-6.29,8.68-9.24s6.08-5.83,9.24-8.62l4.78-4.12c1.63-1.33,3.22-2.7,4.89-4C205.85,744.66,209.21,742.12,212.77,739.79Z"/><line class="a" x1="187.86" y1="704.34" x2="174.96" y2="773.26"/><path class="b" d="M187.86,704.34c-.47,5.86-1.22,11.66-2.08,17.45-.4,2.89-.91,5.77-1.37,8.66l-1.53,8.63-1.68,8.6c-.62,2.85-1.19,5.72-1.86,8.57-1.29,5.7-2.69,11.38-4.38,17,.47-5.86,1.22-11.66,2.08-17.44.4-2.9.91-5.78,1.36-8.66l1.54-8.63,1.69-8.6c.62-2.86,1.18-5.72,1.86-8.57C184.78,715.66,186.17,710,187.86,704.34Z"/><line class="a" x1="158.99" y1="795.41" x2="174.96" y2="773.25"/><path class="b" d="M159,795.41a41.31,41.31,0,0,1,3-6.23c1.15-2,2.4-3.88,3.73-5.73A66,66,0,0,1,170,778.1a41.3,41.3,0,0,1,5-4.85,41.78,41.78,0,0,1-3,6.23c-1.15,2-2.4,3.88-3.73,5.72s-2.75,3.64-4.26,5.35A42.84,42.84,0,0,1,159,795.41Z"/><line class="a" x1="126.25" y1="786.58" x2="174.96" y2="773.25"/><path class="b" d="M126.25,786.58c3.9-1.71,7.87-3.13,11.87-4.46,2-.68,4-1.27,6-1.9l6.07-1.75q6.09-1.68,12.26-3c4.12-.9,8.26-1.69,12.49-2.2-3.9,1.71-7.87,3.14-11.87,4.46s-8,2.55-12.09,3.65L144.89,783c-2,.47-4.09,1-6.15,1.42C134.62,785.27,130.48,786.07,126.25,786.58Z"/><line class="a" x1="110.22" y1="746.33" x2="174.96" y2="773.25"/><path class="b" d="M110.22,746.33c5.63,1.67,11.15,3.61,16.63,5.65,2.75,1,5.46,2.09,8.19,3.14l8.12,3.28,8.06,3.44c2.67,1.2,5.36,2.35,8,3.6,5.31,2.44,10.58,5,15.74,7.81-5.64-1.67-11.16-3.61-16.64-5.65-2.75-1-5.46-2.09-8.19-3.14L142,761.17,134,757.73c-2.67-1.19-5.35-2.34-8-3.59C120.64,751.69,115.37,749.15,110.22,746.33Z"/><path class="a" d="M75.58,184.56a162.22,162.22,0,0,1,6.89-20.45c-1,.45-1.88.79-2.47,1-11.38,3.82-36,4.42-37.09,4.45l-12.9.29,10.47-7.54c.7-.5,14.33-10.28,25.49-15.88a52.94,52.94,0,0,1-7.22-2c-13.46-5.44-35.75-26.32-36.69-27.2l-7.49-7.05,10.28.13c1.25,0,29.57.44,43.7,5.32C60.71,97.92,55.92,64,55.71,62.43l-1.47-10.6,8.06,7c1.17,1,27,23.61,37.47,39.83,3.65-14.5,18.79-38.44,19.46-39.49l5.51-8.68,1.8,10.13c.23,1.27,5.51,31.35,2.7,45.6A54.19,54.19,0,0,1,127,113.4c10.79-6.28,26.44-12.33,27.24-12.64l12-4.64L159,106.76c-.59.86-14.59,21.17-24,28.61-.49.39-1.24.91-2.18,1.52a163,163,0,0,1,20.88,5.42l10.66,3.56-10.51,4c-.76.29-18.65,7-27.94,7.19h-.23a72.17,72.17,0,0,1-15.93-2.68,70.93,70.93,0,0,1-6.6,15c-5.24,7.69-20.65,19-21.31,19.46l-9.08,6.63Z"/><path class="b" d="M122.61,61.35s5.4,30.45,2.7,44.12c-.69,3.52-5,15.12-9.67,22.85a81.87,81.87,0,0,1,7.67-7.7c9.06-7.15,32.36-16.13,32.36-16.13s-14.13,20.59-23.19,27.74a101.65,101.65,0,0,1-18.41,10.06,64.5,64.5,0,0,1,11.47-2.08h.36c8.85,0,26.5,5.89,26.5,5.89s-17.9,6.76-26.61,6.93h-.15c-3.11,0-14.59-1.66-18.88-4.14-.28,5-5.33,15.81-7,18.19-4.91,7.2-20.36,18.48-20.36,18.48s4.85-18.5,9.76-25.7a65,65,0,0,1,8-8.47,101.33,101.33,0,0,1-18.49,9.91c-10.94,3.67-35.91,4.24-35.91,4.24S63.09,151,74,147.28a84.53,84.53,0,0,1,10.65-2.21c-9-.35-21.09-3.06-24.42-4.4-12.92-5.22-35.45-26.41-35.45-26.41s30.92.41,43.85,5.63a84.45,84.45,0,0,1,12.41,7.41A88.73,88.73,0,0,1,73.7,117c-8.56-15.82-14-55.15-14-55.15S89.6,88,98.16,103.79a88.17,88.17,0,0,1,4.58,11.79,84.36,84.36,0,0,1,.58-14.45c2.7-13.68,19.29-39.78,19.29-39.78m4.27-21.66-11,17.37C114.42,59.31,104,76,98.43,90,86.12,74.39,66,56.75,64.93,55.85L48.8,41.78l3,21.2c.19,1.36,3.93,27.88,10.29,46.75-14.82-3.07-34.46-3.43-37.13-3.47L4.33,106l15,14.09c2.34,2.2,22.57,21,36.48,27.37-8.53,5.08-16.32,10.64-17.66,11.6L17.21,174.14,43,173.55c2.31-.06,20.3-.55,32.75-3.19-2.22,6.33-3.76,12.09-4,13.18L66,205.29,84.16,192c1.7-1.24,16.73-12.32,22.26-20.43a71.53,71.53,0,0,0,5.89-12.43A74.73,74.73,0,0,0,125.64,161h.3c9.82-.19,27.32-6.7,29.28-7.44l21-8-21.32-7.13c-1.06-.35-6.72-2.21-13.25-3.82,9-9,19.28-23.77,20.59-25.67l14.61-21.27L152.8,97c-1.53.59-10.45,4.06-19.37,8.43,2.3-15.12-2.39-42.35-3-45.51l-3.6-20.26Z"/><line class="a" x1="68.42" y1="78.03" x2="105.42" y2="146.43"/><path class="b" d="M68.42,78c3.62,5.41,7,11,10.27,16.55,1.67,2.78,3.23,5.62,4.85,8.43l4.7,8.51,4.55,8.58c1.47,2.89,3,5.76,4.41,8.67,2.89,5.81,5.69,11.66,8.22,17.66-3.63-5.4-7-11-10.28-16.54-1.67-2.79-3.23-5.62-4.85-8.43l-4.69-8.52-4.55-8.59c-1.47-2.88-3-5.75-4.41-8.66C73.75,89.88,71,84,68.42,78Z"/><line class="a" x1="131.96" y1="146.97" x2="106.37" y2="148.13"/><path class="b" d="M132,147a36.76,36.76,0,0,1-6.34,1.46,63.29,63.29,0,0,1-12.8.59,36,36,0,0,1-6.45-.89,37.75,37.75,0,0,1,6.34-1.47c2.13-.31,4.25-.51,6.39-.61a62.32,62.32,0,0,1,6.41,0A36.88,36.88,0,0,1,132,147Z"/><line class="a" x1="141.83" y1="116.75" x2="106.37" y2="148.13"/><path class="b" d="M141.83,116.75c-2.55,3.08-5.28,5.94-8.09,8.72-1.39,1.41-2.85,2.74-4.27,4.11l-4.38,4c-3,2.63-6,5.15-9.08,7.6a113.06,113.06,0,0,1-9.64,7,117.4,117.4,0,0,1,8.09-8.72q4.22-4.17,8.65-8.09l4.48-3.86c1.53-1.25,3-2.53,4.6-3.74A117.62,117.62,0,0,1,141.83,116.75Z"/><line class="a" x1="118.46" y1="83.51" x2="106.37" y2="148.13"/><path class="b" d="M118.46,83.51c-.4,5.5-1.09,10.94-1.88,16.37-.36,2.72-.84,5.41-1.26,8.12l-1.43,8.1-1.59,8.06c-.59,2.68-1.12,5.37-1.76,8-1.22,5.35-2.55,10.67-4.17,15.94.39-5.5,1.08-10.94,1.87-16.37.37-2.72.85-5.41,1.27-8.12l1.43-8.1,1.59-8.06c.59-2.68,1.12-5.36,1.76-8C115.52,94.1,116.84,88.78,118.46,83.51Z"/><line class="a" x1="91.39" y1="168.9" x2="106.36" y2="148.12"/><path class="b" d="M91.39,168.9A36.9,36.9,0,0,1,94.18,163a61.76,61.76,0,0,1,3.48-5.38,60.13,60.13,0,0,1,4-5,37.23,37.23,0,0,1,4.7-4.51,37.43,37.43,0,0,1-2.78,5.89,63.82,63.82,0,0,1-7.5,10.38A36.46,36.46,0,0,1,91.39,168.9Z"/><line class="a" x1="60.69" y1="160.63" x2="106.36" y2="148.12"/><path class="b" d="M60.69,160.63a117,117,0,0,1,11.11-4.25c1.87-.66,3.76-1.21,5.64-1.81l5.69-1.64q5.7-1.58,11.51-2.81a117,117,0,0,1,11.72-2,117,117,0,0,1-11.11,4.26c-3.74,1.25-7.52,2.41-11.33,3.44l-5.73,1.48c-1.92.45-3.83.94-5.77,1.33C68.55,159.46,64.66,160.18,60.69,160.63Z"/><line class="a" x1="106.36" y1="148.12" x2="45.65" y2="122.88"/><path class="b" d="M106.36,148.12c-5.29-1.53-10.48-3.33-15.62-5.23-2.59-.93-5.13-1.95-7.69-2.93l-7.62-3.07-7.56-3.23c-2.49-1.13-5-2.21-7.49-3.39-5-2.3-9.91-4.71-14.73-7.39,5.3,1.53,10.48,3.33,15.63,5.23,2.58.92,5.12,1.95,7.68,2.92l7.62,3.09,7.56,3.23c2.5,1.12,5,2.2,7.49,3.38C96.61,143,101.54,145.44,106.36,148.12Z"/><path class="c" d="M243.22,248c-1-.31-24.5-7.79-34-15-2.63-2-10.34-9.83-14.79-16.49-6.42,4.77-16.33,9.57-19.47,10.56-7.31,2.3-20,2.78-29.4,2.78-4.46,0-7.51-.11-7.64-.11l-11.23-.42,9-6.77c.71-.53,15-11.27,26.21-16.7a64.53,64.53,0,0,1-6.34-1.71C141,198.93,115.46,179.79,114.38,179l-10.31-7.75,12.89.56c1.19.05,26.22,1.17,42.06,5a87.56,87.56,0,0,1-7.85-10.42c-9.27-16.21-15.2-55.28-15.45-56.94L134.2,99.28l8,6.47c1.3,1.06,32,26,41.24,42.18l.39.72c5-23.85,29.18-65.46,30.23-67.26l5.41-9.24,2,10.52c.38,2,9.21,49.39,5.85,73.51.21-.2.42-.38.61-.54,14.18-12.15,51.44-25.31,53-25.86l9.7-3.41-4.85,9.07c-.79,1.48-19.51,36.28-33.69,48.42A87.3,87.3,0,0,1,241.16,191c16.24,1.71,40.17,9.06,41.31,9.41l12.33,3.81-12.32,3.84c-1.29.4-31.79,9.83-47.23,9.84a64,64,0,0,1-6.55-.52c8.76,8.89,18.59,23.8,19.07,24.54l6.17,9.4Z"/><path class="b" d="M217.51,83.41s9.56,50.76,5.57,73.83A116.08,116.08,0,0,1,218.26,173c4.88-6.58,10-12.35,12.24-14.3,13.77-11.8,51.74-25.12,51.74-25.12s-19,35.48-32.77,47.28c-3.54,3-17.32,11.39-28.28,15.55a108.38,108.38,0,0,1,14-1.69h0c15,0,46,9.59,46,9.59s-31,9.65-46,9.66h0c-4,0-17.77-1.81-26.91-4.54a85,85,0,0,1,13.4,7.11c9,6.84,22.7,27.65,22.7,27.65s-23.73-7.5-32.78-14.35c-3-2.26-13.69-13.46-16.12-19.55-4.33,4.92-18.18,11.87-21.75,13-7,2.22-20,2.6-28.2,2.6-4.44,0-7.49-.11-7.49-.11s19.86-15,30.68-18.4a84.24,84.24,0,0,1,15-2.2c-9.54-.5-23.15-3.43-26.89-4.77-14.13-5.06-40.1-24.59-40.1-24.59s32.46,1.41,46.59,6.47A106.62,106.62,0,0,1,176,188.56c-8.92-7.61-19.08-20.11-21.4-24.16-9-15.75-15-55.54-15-55.54S171,134.18,180,149.92c1.48,2.6,4.33,9.74,6.71,17.58a114.25,114.25,0,0,1,.76-16.44c4-23.06,30.08-67.65,30.08-67.65M221.4,60.9,210.6,79.37c-.27.46-6.73,11.54-13.79,25.64-6.76,13.51-11.64,24.93-14.57,34.11-12.49-16.13-36.38-35.54-37.53-36.48l-16-12.94,3,20.35c.26,1.68,6.29,41.47,15.93,58.32.4.7.95,1.54,1.62,2.51-14.87-2.31-31.21-3-32.18-3.09l-25.77-1.11L112,182.18c1,.78,24.37,18.25,39.67,24.72-8.82,5.3-17,11.43-18.38,12.46l-17.94,13.55,22.46.83c.13,0,3.26.11,7.79.11,14,0,24.34-1,30.6-3A93.77,93.77,0,0,0,193.5,222a93.78,93.78,0,0,0,13.32,14.16c9.86,7.47,32.63,14.79,35.2,15.6l21.43,6.77-12.34-18.79c-.93-1.43-6.59-10-13.12-17.91,16.61-1,44.43-9.56,45.68-9.94l24.63-7.67-24.65-7.62c-.92-.28-16.56-5.09-31.34-7.91,1-.68,1.76-1.3,2.37-1.82,14.74-12.63,33.81-48.07,34.61-49.57L299,119.19,279.59,126c-1.4.49-30.43,10.74-47.61,21.73.32-9.63-.43-22-2.25-37-1.9-15.65-4.26-28.25-4.36-28.78l-4-21Z"/><line class="c" x1="213.43" y1="106.96" x2="196.16" y2="206.66"/><path class="b" d="M213.43,107c-.83,8.41-2,16.78-3.17,25.12-.59,4.18-1.27,8.34-1.91,12.51l-2.08,12.48L204,169.51c-.8,4.14-1.54,8.29-2.4,12.42-1.66,8.28-3.42,16.53-5.47,24.73.82-8.42,1.94-16.78,3.16-25.13.58-4.17,1.28-8.33,1.91-12.5l2.09-12.48,2.24-12.44c.79-4.14,1.54-8.29,2.4-12.42C209.62,123.42,211.38,115.16,213.43,107Z"/><line class="c" x1="222.84" y1="228.59" x2="195.76" y2="209.17"/><path class="b" d="M222.84,228.59a61.88,61.88,0,0,1-7.45-3.9c-2.39-1.44-4.71-3-7-4.59s-4.46-3.32-6.59-5.12a60.48,60.48,0,0,1-6.08-5.81,61.83,61.83,0,0,1,7.45,3.89c2.39,1.44,4.71,3,7,4.6s4.46,3.32,6.59,5.12A60.48,60.48,0,0,1,222.84,228.59Z"/><line class="c" x1="257.27" y1="205.65" x2="195.76" y2="209.17"/><path class="b" d="M257.27,205.65c-5.09.91-10.2,1.53-15.31,2-2.56.29-5.12.47-7.68.69l-7.68.53-7.7.36c-2.56.06-5.13.18-7.7.19-5.14.07-10.28,0-15.44-.29,5.09-.92,10.19-1.54,15.31-2,2.55-.29,5.11-.46,7.67-.69l7.69-.52,7.69-.35c2.57-.07,5.13-.19,7.7-.19C247,205.29,252.11,205.32,257.27,205.65Z"/><line class="c" x1="260.16" y1="152.86" x2="195.76" y2="209.17"/><path class="b" d="M260.16,152.86c-5,5.16-10.11,10.1-15.33,14.95-2.6,2.45-5.26,4.82-7.89,7.23l-8,7.1-8.1,7c-2.74,2.29-5.44,4.61-8.21,6.85-5.51,4.53-11.1,9-16.87,13.2,5-5.16,10.1-10.1,15.33-15,2.59-2.45,5.25-4.82,7.88-7.23l8-7.09,8.11-7c2.73-2.29,5.44-4.61,8.21-6.85C248.8,161.53,254.39,157.08,260.16,152.86Z"/><line class="c" x1="163.72" y1="218.32" x2="195.76" y2="209.15"/><path class="b" d="M163.72,218.32a63.82,63.82,0,0,1,7.68-3.42c2.61-1,5.26-1.84,7.93-2.6s5.36-1.44,8.09-2a60.65,60.65,0,0,1,8.34-1.16,61.82,61.82,0,0,1-7.69,3.43q-3.91,1.46-7.92,2.6c-2.67.76-5.37,1.43-8.1,2A60.29,60.29,0,0,1,163.72,218.32Z"/><line class="c" x1="139.01" y1="185.15" x2="195.76" y2="209.15"/><path class="b" d="M139,185.15c5,1.43,9.83,3.13,14.64,4.92,2.42.88,4.8,1.85,7.19,2.77l7.13,2.93,7.06,3.07c2.33,1.08,4.69,2.1,7,3.23,4.64,2.2,9.24,4.5,13.73,7.08-5-1.43-9.83-3.13-14.64-4.92-2.42-.88-4.8-1.85-7.19-2.77l-7.13-2.93-7.06-3.08c-2.33-1.07-4.69-2.1-7-3.23C148.1,190,143.5,187.72,139,185.15Z"/><line class="c" x1="154.04" y1="134.46" x2="195.76" y2="209.15"/><path class="b" d="M154,134.46c4,5.92,7.78,12,11.45,18.1,1.86,3.05,3.62,6.14,5.43,9.22l5.29,9.29,5.15,9.38c1.66,3.15,3.38,6.28,5,9.46,3.29,6.33,6.48,12.71,9.41,19.24-4-5.92-7.78-12-11.45-18.1-1.86-3.05-3.62-6.15-5.43-9.22l-5.29-9.29-5.14-9.38c-1.67-3.15-3.38-6.28-5-9.46C160.17,147.37,157,141,154,134.46Z"/><path class="d" d="M150.55,492.05c-.57-.69-13.92-17-17.38-26.61a77.91,77.91,0,0,1-2.93-18.18c-.76,0-1.57.06-2.44.06a78.77,78.77,0,0,1-15.9-1.62c-9.84-2.75-27.09-14.85-27.82-15.37l-9.19-6.47,11.21-.79c.25,0,6.23-.43,13.31-.43,4.47,0,8.35.17,11.59.5-1.18-1.26-2.1-2.32-2.63-3C100.37,409.6,91,384,90.61,382.94l-4.42-12.12,10.5,7.5c.79.56,16.75,12,26.49,21.88a64.64,64.64,0,0,1-.55-9.42c.92-16,14.86-46.66,15.45-48l4.27-9.35,3.17,9.78c.44,1.34,10.42,32.33,9.9,48.56,15.32-14.58,50.24-32.17,51.79-32.95l9.56-4.79L212.7,364c-.66,1.61-15.61,37.73-29,54.09a51,51,0,0,1,5.35-.26c16.86,0,42.72,6.26,43.81,6.53l10,2.44-9,4.95c-1.25.69-30.83,16.86-46.69,19a40.7,40.7,0,0,1-5.06.23c-1.33,0-2.8,0-4.37-.09,10.58,9,23.16,24.06,23.79,24.81l8.25,9.91L197.33,482c-1.11-.32-27.31-7.76-38.4-15-.74-.48-1.86-1.32-3.21-2.41,1.83,10.36,1.92,24.12,1.92,24.83l.05,11.25Z"/><path class="b" d="M141.72,344.48s10.55,32.55,9.67,47.95A93.26,93.26,0,0,1,148,408.08a98.55,98.55,0,0,1,8.17-11.37C169.73,382.13,209,362.44,209,362.44s-16.72,40.62-30.27,55.21a96.76,96.76,0,0,1-10.73,9,94.88,94.88,0,0,1,15.36-4.52,44.65,44.65,0,0,1,5.67-.32c16.58,0,42.86,6.42,42.86,6.42s-30,16.47-45.28,18.49a38.56,38.56,0,0,1-4.54.2,120.94,120.94,0,0,1-22.84-2.23A91.15,91.15,0,0,1,170,450c10.7,6.95,28.38,28.19,28.38,28.19s-26.59-7.51-37.3-14.46A112.8,112.8,0,0,1,144,448a71.87,71.87,0,0,1,6.25,11.28c3.27,9.07,3.36,30.24,3.36,30.24s-13.44-16.35-16.71-25.42c-1.08-3-3.52-15.95-2.42-21.42a26.86,26.86,0,0,1-6.71.65A75.09,75.09,0,0,1,113,441.84c-9.29-2.59-26.59-14.78-26.59-14.78s6-.42,13-.42c6.14,0,13,.33,17.38,1.53a72.84,72.84,0,0,1,11.71,5.4,113.06,113.06,0,0,1-17-15.87c-7.72-10.16-17.19-36.13-17.19-36.13s22.5,16.06,30.22,26.22a92,92,0,0,1,6.1,10.37c-2.83-9.56-4.28-23.18-4.05-27.15.88-15.4,15.09-46.53,15.09-46.53m1.26-22-8.54,18.71c-1.52,3.33-14.83,32.91-15.8,49.34C110,382.93,100.56,376.17,99,375.06l-21-15,8.83,24.24c.9,2.48,8.27,22.43,15.69,34.36-1,0-2.05,0-3.13,0-7.22,0-13.33.43-13.59.44L63.4,420.66,81.77,433.6c1.89,1.33,18.73,13.07,29.06,15.95a79.35,79.35,0,0,0,15.65,1.75,79.39,79.39,0,0,0,2.92,15.5c3.64,10.08,16.59,26,18.06,27.79L161.73,512l-.09-22.48c0-1.34-.07-8.74-.82-16.71,12.44,6.52,32.88,12.39,35.42,13.11l24.83,7-16.51-19.83c-1.21-1.46-8.66-10.33-16.85-18.43,16.32-2.19,44.83-17.65,48-19.41l18-9.91-20-4.88c-1.06-.25-24.84-6-42.08-6.59,12.27-18.34,24.1-46.92,24.69-48.36l8.15-19.79-19.13,9.6c-1.39.69-29,14.61-46.4,28.2-1.79-16.73-8.76-38.58-9.69-41.47L143,322.45Z"/><line class="d" x1="195.17" y1="377.33" x2="136.62" y2="440.39"/><path class="b" d="M195.17,377.33c-4.42,5.68-9.06,11.16-13.78,16.56-2.34,2.72-4.76,5.37-7.14,8.06L167,409.88l-7.38,7.83c-2.5,2.57-5,5.18-7.5,7.72-5,5.1-10.16,10.13-15.5,15,4.43-5.68,9.06-11.15,13.78-16.56,2.34-2.72,4.76-5.37,7.14-8.05l7.26-7.94,7.38-7.82c2.5-2.57,5-5.18,7.5-7.71C184.72,387.2,189.84,382.17,195.17,377.33Z"/><line class="d" x1="145.48" y1="468.4" x2="135.17" y2="442"/><path class="b" d="M145.48,468.4a45.16,45.16,0,0,1-3.67-6.17c-1.07-2.12-2-4.29-2.88-6.49s-1.63-4.43-2.28-6.71a45.46,45.46,0,0,1-1.48-7,43.67,43.67,0,0,1,3.68,6.17q1.59,3.18,2.87,6.48t2.28,6.72A46.4,46.4,0,0,1,145.48,468.4Z"/><line class="d" x1="180.65" y1="468.02" x2="135.17" y2="442"/><path class="b" d="M180.65,468c-4.09-1.63-8.05-3.52-12-5.5-2-1-3.87-2-5.81-3l-5.72-3.18c-3.8-2.16-7.53-4.44-11.21-6.79s-7.31-4.81-10.79-7.52c4.1,1.62,8.06,3.51,12,5.48s7.75,4,11.54,6.22L164.3,457c1.86,1.15,3.74,2.27,5.56,3.47C173.54,462.86,177.17,465.31,180.65,468Z"/><line class="d" x1="207.2" y1="431.73" x2="135.17" y2="442"/><path class="b" d="M207.2,431.73c-5.92,1.47-11.87,2.64-17.84,3.72-3,.56-6,1-9,1.53l-9,1.37-9,1.2c-3,.35-6,.75-9,1-6,.64-12.08,1.17-18.17,1.41,5.92-1.48,11.87-2.66,17.84-3.73,3-.57,6-1,9-1.53l9-1.36,9-1.2c3-.35,6-.75,9-1C195.06,432.5,201.11,432,207.2,431.73Z"/><line class="d" x1="108.09" y1="433.66" x2="135.18" y2="441.98"/><path class="b" d="M108.09,433.66a46.38,46.38,0,0,1,7.12,1c2.32.48,4.61,1.08,6.87,1.77s4.48,1.48,6.68,2.39a45.18,45.18,0,0,1,6.42,3.2,44,44,0,0,1-7.12-1c-2.32-.48-4.61-1.08-6.86-1.77s-4.49-1.49-6.68-2.39A44.83,44.83,0,0,1,108.09,433.66Z"/><line class="d" x1="105.86" y1="398.56" x2="135.18" y2="441.98"/><path class="b" d="M105.86,398.56c3,3.27,5.68,6.7,8.3,10.2,1.34,1.73,2.58,3.52,3.87,5.29l3.74,5.38q3.67,5.42,7,11c2.27,3.74,4.44,7.54,6.36,11.51-3-3.27-5.67-6.7-8.3-10.2s-5.16-7-7.6-10.67l-3.59-5.48c-1.16-1.85-2.35-3.68-3.46-5.56C110,406.32,107.79,402.52,105.86,398.56Z"/><line class="d" x1="140.09" y1="369.4" x2="135.18" y2="441.98"/><path class="b" d="M140.09,369.4c.21,6.09.12,12.16-.06,18.22-.07,3-.24,6.06-.37,9.09l-.53,9.08-.69,9.07c-.29,3-.52,6-.86,9.06-.63,6-1.36,12.06-2.4,18.06-.21-6.09-.13-12.16.06-18.22.07-3,.25-6.06.37-9.09l.53-9.08.7-9.07c.28-3,.52-6,.86-9.06C138.33,381.43,139.06,375.4,140.09,369.4Z"/><path class="d" d="M482.47,109c-.77-.25-19-6.11-26.35-11.76a71.19,71.19,0,0,1-11-12.14,71.29,71.29,0,0,1-14.49,7.62c-5.57,1.73-15.07,2.09-22,2.09-3.88,0-6.62-.11-6.74-.11l-11.23-.46,9-6.74a162.37,162.37,0,0,1,18.11-11.71c-1.08-.29-2-.55-2.55-.77-11.28-4.09-31-19-31.8-19.59l-10.28-7.8,12.89.62c.86,0,17.62.86,29.83,3.42a52.33,52.33,0,0,1-4.37-6.09C404.3,33,399.84,2.76,399.65,1.48L398.17-8.7l8,6.5c1,.79,22.88,18.74,30.9,31.36,4.86-18.71,22.24-48.28,23-49.61l5.44-9.22,1.94,10.53c.28,1.52,6.43,35.26,4.55,54.5,11.88-9.09,38.63-18.41,39.8-18.81l9.72-3.37-4.89,9.05c-.61,1.14-15.19,28-26.26,37.37a52.5,52.5,0,0,1-6.21,4.21c12.38,1.8,28.38,6.79,29.2,7l12.31,3.86L513.32,78.5c-1,.3-24.47,7.46-36.5,7.46-.66,0-1.61-.06-2.76-.17A163,163,0,0,1,487,103l6.14,9.42Z"/><path class="b" d="M463.51-18.42s7.19,39.05,4.05,56.76a89.52,89.52,0,0,1-3.75,12.08,83.82,83.82,0,0,1,9.45-11c10.62-9,39.84-19.14,39.84-19.14s-14.71,27.2-25.33,36.22C485,58.87,474.42,65.25,466,68.42a82.86,82.86,0,0,1,10.77-1.25h0c11.54,0,35.37,7.51,35.37,7.51S488.39,82,476.82,82h-.09a101.78,101.78,0,0,1-20.67-3.58,64.72,64.72,0,0,1,10.27,5.51c6.93,5.29,17.36,21.32,17.36,21.32s-18.21-5.84-25.14-11.13C456.26,92.34,448.06,83.7,446.22,79c-3.34,3.78-14,9.07-16.76,9.92-5.18,1.61-14.53,1.91-20.86,1.91-3.85,0-6.58-.11-6.58-.11s15.32-11.46,23.64-14A64.71,64.71,0,0,1,437.2,75a102.09,102.09,0,0,1-20.64-3.76c-10.85-3.93-30.75-19-30.75-19s24.95,1.18,35.79,5.12a79.61,79.61,0,0,1,9.71,4.89c-6.83-5.88-14.61-15.52-16.37-18.64C408.07,31.5,403.61.9,403.61.9s24,19.55,30.83,31.68a84.85,84.85,0,0,1,5.11,13.53,86.35,86.35,0,0,1,.63-12.63c3.14-17.71,23.33-51.9,23.33-51.9m4-22.49L456.62-22.48c-.7,1.18-14.28,24.27-21,43C425.9,8.89,410.74-3.61,408.67-5.3l-15.94-13,3,20.36c.47,3.17,4.59,30.5,11.54,44.13-9.84-1.34-19.4-1.83-21-1.91l-25.77-1.22L381,58.64c1.84,1.39,16.22,12.2,27.62,17.87-5.68,3.58-10.46,7.13-11.37,7.81l-18,13.47,22.47.93c.11,0,2.93.11,6.9.11,10.56,0,18.38-.76,23.23-2.27a70,70,0,0,0,12.35-6.06,71.2,71.2,0,0,0,9.51,9.94c7.8,6,25.56,11.75,27.56,12.39l21.41,6.86L490.4,100.85c-.62-.95-3.89-5.92-8-11.24,12.65-1.41,29.88-6.61,32.08-7.29l24.67-7.56L514.54,67c-1.56-.49-10.71-3.32-20.41-5.44,11.21-10.41,24.48-34.65,26-37.47L529.92,6l-19.44,6.74c-2.52.87-21.05,7.39-34.15,15,.1-19.9-4.71-46.26-5-47.61l-3.87-21Z"/><line class="d" x1="460.3" y1="-0.33" x2="446.71" y2="76.24"/><path class="b" d="M460.3-.33C459.78,6.16,459,12.6,458.05,19c-.43,3.21-1,6.41-1.45,9.61L455,38.22l-1.77,9.55c-.65,3.18-1.24,6.37-1.95,9.53-1.35,6.34-2.8,12.67-4.55,18.94.52-6.49,1.33-12.93,2.25-19.35.43-3.21,1-6.41,1.45-9.61L452,37.69l1.78-9.55c.65-3.18,1.24-6.36,1.94-9.53C457.1,12.27,458.55,5.94,460.3-.33Z"/><line class="d" x1="467.15" y1="93.18" x2="446.4" y2="78.17"/><path class="b" d="M467.15,93.18a38.64,38.64,0,0,1-5.87-2.8q-2.79-1.62-5.38-3.49a63.86,63.86,0,0,1-5-4,36.43,36.43,0,0,1-4.49-4.7A36.9,36.9,0,0,1,452.28,81a60.31,60.31,0,0,1,5.37,3.5,61.79,61.79,0,0,1,5,4A37.25,37.25,0,0,1,467.15,93.18Z"/><line class="d" x1="493.68" y1="75.66" x2="446.4" y2="78.17"/><path class="b" d="M493.68,75.66c-3.9.82-7.83,1.36-11.76,1.79-2,.24-3.93.38-5.89.56l-5.91.4c-3.94.22-7.89.31-11.84.3a118.32,118.32,0,0,1-11.88-.54,115.2,115.2,0,0,1,11.76-1.8c3.92-.43,7.86-.76,11.8-1l5.92-.23c2,0,3.94-.09,5.92-.06A118.32,118.32,0,0,1,493.68,75.66Z"/><line class="d" x1="496.07" y1="35.09" x2="446.4" y2="78.17"/><path class="b" d="M496.07,35.09c-3.73,4.06-7.66,7.9-11.65,11.65-2,1.9-4,3.72-6.05,5.58l-6.15,5.44L466,63.09c-2.12,1.73-4.21,3.5-6.37,5.19-4.28,3.43-8.64,6.77-13.18,9.89,3.73-4.06,7.65-7.9,11.65-11.66,2-1.9,4-3.71,6-5.57l6.16-5.44,6.27-5.32c2.12-1.74,4.21-3.51,6.37-5.2C487.17,41.56,491.53,38.21,496.07,35.09Z"/><line class="d" x1="421.74" y1="85.1" x2="446.4" y2="78.15"/><path class="b" d="M421.74,85.1a37.69,37.69,0,0,1,5.85-2.87,62.76,62.76,0,0,1,6.07-2,63.52,63.52,0,0,1,6.25-1.43,37.47,37.47,0,0,1,6.49-.6A35.88,35.88,0,0,1,440.56,81a61.18,61.18,0,0,1-6.08,2,63.52,63.52,0,0,1-6.25,1.43A36.52,36.52,0,0,1,421.74,85.1Z"/><line class="d" x1="402.86" y1="59.53" x2="446.4" y2="78.15"/><path class="b" d="M402.86,59.53a117.62,117.62,0,0,1,11.34,3.58c1.87.65,3.7,1.4,5.54,2.1l5.48,2.25c3.63,1.54,7.21,3.21,10.75,5a116.31,116.31,0,0,1,10.43,5.73,117.81,117.81,0,0,1-11.35-3.58c-3.71-1.35-7.39-2.79-11-4.35l-5.41-2.41c-1.78-.85-3.58-1.65-5.34-2.56C409.75,63.5,406.25,61.65,402.86,59.53Z"/><line class="d" x1="414.57" y1="20.62" x2="446.4" y2="78.15"/><path class="b" d="M414.57,20.62c3.2,4.49,6.13,9.13,9,13.82,1.45,2.33,2.8,4.71,4.2,7.07l4.05,7.15,3.91,7.23c1.25,2.44,2.55,4.85,3.76,7.31,2.46,4.9,4.82,9.85,6.93,15-3.2-4.49-6.14-9.13-9-13.82-1.45-2.32-2.8-4.71-4.2-7.07l-4.05-7.15-3.9-7.23c-1.26-2.44-2.56-4.85-3.76-7.31C419.05,30.66,416.68,25.71,414.57,20.62Z"/><path class="c" d="M125.73,563.24c-1-.3-24.58-7.52-34.14-14.6-2.65-2-10.45-9.72-15-16.34a90.91,90.91,0,0,1-19.35,10.78C49,545.79,33.5,546.19,25,546.19c-2.91,0-4.76,0-4.76,0L9,545.85,17.92,539c.7-.54,14.85-11.43,26-17-2.83-.62-5.1-1.21-6.36-1.64C23,515.31-2.76,496.45-3.85,495.65L-14.24,488l12.89.42c1.2,0,26.24.9,42.12,4.58a87.1,87.1,0,0,1-8-10.35C23.35,466.54,17,427.54,16.74,425.89l-1.63-10.15,8.06,6.38c1.31,1,32.25,25.63,41.69,41.73.13.22.26.46.4.72C70,440.67,93.73,398.8,94.77,397l5.3-9.29,2.09,10.49c.41,2.05,9.75,49.29,6.65,73.45.21-.2.41-.39.6-.55,14-12.3,51.17-25.86,52.74-26.43l9.67-3.51-4.76,9.12c-.77,1.48-19.12,36.48-33.17,48.78a88.13,88.13,0,0,1-10.83,7.3c16.23,1.52,40.27,8.63,41.41,9L176.83,519l-12.27,4c-1.29.42-31.68,10.18-47.12,10.36h-.22c-1.35,0-3.6-.16-6.34-.45,8.86,8.8,18.84,23.6,19.34,24.33l6.27,9.33Z"/><path class="b" d="M98.24,399s10.11,50.66,6.37,73.77A113.93,113.93,0,0,1,100,488.51c4.81-6.63,9.83-12.45,12.08-14.42,13.65-11.95,51.47-25.68,51.47-25.68S144.9,484.08,131.26,496c-3.52,3.08-17.2,11.58-28.12,15.86a106.78,106.78,0,0,1,14-1.84h.42c15.17,0,45.74,9.09,45.74,9.09s-30.93,10-45.94,10.16h-.17c-4.18,0-17.74-1.66-26.8-4.26a85.64,85.64,0,0,1,13.48,7c9.11,6.75,23,27.4,23,27.4s-23.82-7.24-32.93-14c-3-2.22-13.84-13.31-16.33-19.37-4.28,5-18.06,12.06-21.61,13.22-7.88,2.58-23.28,2.92-31,2.92-2.86,0-4.66,0-4.66,0s19.69-15.22,30.47-18.74a84.42,84.42,0,0,1,15-2.35c-9.54-.4-23.18-3.19-26.93-4.49-14.19-4.9-40.38-24.15-40.38-24.15s32.48,1.06,46.67,6a107.37,107.37,0,0,1,12.73,6.18c-9-7.51-19.31-19.9-21.67-23.93C27.08,465,20.69,425.26,20.69,425.26s31.55,25,40.72,40.62c1.51,2.58,4.44,9.69,6.91,17.5a114,114,0,0,1,.58-16.44c3.74-23.1,29.34-68,29.34-68m3.66-22.55L91.29,395c-.27.47-6.61,11.61-13.51,25.79-6.62,13.58-11.37,25.06-14.2,34.27-12.66-16-36.76-35.15-37.93-36.08L9.52,406.22l3.27,20.31c.27,1.68,6.74,41.4,16.56,58.15.4.69,1,1.53,1.64,2.49C16.1,485-.25,484.46-1.22,484.43L-27,483.59l20.79,15.28c1,.77,24.56,18,39.93,24.29-8.77,5.39-16.9,11.61-18.24,12.65l-17.8,13.75,22.48.58c.07,0,1.94.05,4.87.05,10.64,0,25.09-.57,33.48-3.31a94.53,94.53,0,0,0,17.22-9,93.29,93.29,0,0,0,13.48,14c9.94,7.36,32.79,14.44,35.36,15.22l21.51,6.54L133.54,555c-1-1.41-6.7-9.88-13.32-17.77,16.58-1.12,44.33-10,45.56-10.43l24.56-7.93-24.73-7.35c-.92-.28-16.62-4.91-31.42-7.58.94-.69,1.73-1.31,2.34-1.84,14.6-12.79,33.29-48.43,34.08-49.94l9.51-18.24-19.34,7c-1.39.51-30.31,11.07-47.38,22.24.23-9.63-.66-22-2.64-37-2.07-15.63-4.57-28.2-4.68-28.73l-4.18-21Z"/><line class="c" x1="94.42" y1="422.56" x2="78.22" y2="522.44"/><path class="b" d="M94.42,422.56c-.74,8.42-1.77,16.8-2.9,25.16-.54,4.18-1.18,8.35-1.78,12.52l-1.94,12.5-2.1,12.47c-.76,4.15-1.46,8.31-2.27,12.45-1.57,8.28-3.24,16.56-5.21,24.78.74-8.42,1.76-16.8,2.9-25.16.53-4.18,1.18-8.35,1.77-12.52l2-12.5L87,459.79c.75-4.15,1.46-8.31,2.27-12.45C90.78,439.05,92.45,430.78,94.42,422.56Z"/><line class="c" x1="105.15" y1="544.08" x2="77.85" y2="524.95"/><path class="b" d="M105.15,544.08a62.11,62.11,0,0,1-7.5-3.82q-3.6-2.13-7-4.52t-6.64-5A60.53,60.53,0,0,1,77.85,525a61.41,61.41,0,0,1,7.5,3.82c2.4,1.41,4.73,2.92,7,4.52s4.49,3.27,6.64,5A62.72,62.72,0,0,1,105.15,544.08Z"/><line class="c" x1="139.32" y1="520.77" x2="77.85" y2="524.95"/><path class="b" d="M139.32,520.77c-5.08,1-10.18,1.64-15.29,2.21-2.55.31-5.11.52-7.66.77l-7.68.61-7.69.44c-2.57.09-5.13.24-7.7.27-5.14.13-10.29.16-15.45-.12,5.08-1,10.18-1.64,15.29-2.21,2.55-.31,5.11-.52,7.66-.77l7.68-.6,7.69-.44c2.57-.1,5.13-.24,7.7-.28C129,520.52,134.16,520.5,139.32,520.77Z"/><line class="c" x1="141.64" y1="467.95" x2="77.85" y2="524.95"/><path class="b" d="M141.64,468c-4.9,5.21-10,10.21-15.17,15.12-2.57,2.48-5.2,4.88-7.81,7.31l-7.92,7.19-8,7.07c-2.72,2.31-5.39,4.66-8.14,6.93-5.47,4.59-11,9.1-16.73,13.38,4.9-5.21,10-10.21,15.17-15.12,2.56-2.48,5.2-4.87,7.81-7.31l7.92-7.19,8-7.06c2.71-2.31,5.39-4.67,8.14-6.94C130.38,476.75,135.91,472.24,141.64,468Z"/><line class="c" x1="45.91" y1="534.45" x2="77.85" y2="524.93"/><path class="b" d="M45.91,534.45a61.79,61.79,0,0,1,7.65-3.5c2.6-1,5.23-1.9,7.89-2.69s5.36-1.49,8.08-2.08a61.8,61.8,0,0,1,8.32-1.25,59.79,59.79,0,0,1-7.65,3.51c-2.59,1-5.23,1.9-7.89,2.69s-5.35,1.49-8.08,2.07A61.8,61.8,0,0,1,45.91,534.45Z"/><line class="c" x1="20.85" y1="501.55" x2="77.85" y2="524.93"/><path class="b" d="M20.85,501.55c5,1.37,9.86,3,14.69,4.76,2.43.85,4.82,1.8,7.22,2.7l7.16,2.84,7.1,3c2.34,1,4.7,2,7,3.15,4.66,2.16,9.29,4.41,13.8,6.93-5-1.37-9.86-3-14.69-4.76-2.43-.85-4.82-1.8-7.22-2.69l-7.16-2.85-7.09-3c-2.35-1.05-4.71-2.06-7-3.16C30,506.32,25.36,504.07,20.85,501.55Z"/><line class="c" x1="35.33" y1="450.7" x2="77.85" y2="524.93"/><path class="b" d="M35.33,450.7c4.08,5.88,7.91,11.9,11.64,18,1.9,3,3.69,6.1,5.54,9.15l5.38,9.24,5.25,9.32c1.7,3.13,3.45,6.24,5.1,9.4,3.35,6.3,6.61,12.65,9.61,19.14-4.08-5.87-7.91-11.9-11.64-18-1.9-3-3.69-6.11-5.54-9.16l-5.38-9.24-5.24-9.32c-1.7-3.13-3.45-6.24-5.1-9.4C41.6,463.54,38.34,457.19,35.33,450.7Z"/><path class="a" d="M401.85,339.35c.49-.74,10.42-15.57,19.24-24.41-2.77.31-5,.48-6.4.48h-.15c-15.44-.13-45.86-9.78-47.15-10.19l-12.29-3.92,12.35-3.72c1.14-.34,25.15-7.53,41.37-9.12A86.86,86.86,0,0,1,398,281.22C383.87,269,365.4,234,364.62,232.55l-4.79-9.1,9.69,3.48c1.57.56,38.73,14,52.83,26.24q.28.24.6.54c-3.18-24.14,6-71.42,6.38-73.46l2.06-10.51,5.34,9.28c1,1.81,25,43.6,29.75,67.48.13-.26.27-.5.39-.72,9.39-16.14,40.23-40.84,41.54-41.88l8-6.41-1.59,10.16c-.26,1.65-6.47,40.68-15.86,56.82a87.29,87.29,0,0,1-7.93,10.37c15.86-3.74,40.9-4.68,42.1-4.72l12.89-.47-10.37,7.68c-1.09.8-26.77,19.76-41.34,24.86a62.76,62.76,0,0,1-6.36,1.66c11.2,5.52,25.39,16.35,26.09,16.89l8.92,6.84-11.23.33c-.1,0-2.31.07-5.72.07-10,0-23.61-.52-31.3-3-3.13-1-13-5.88-19.4-10.7-4.49,6.62-12.26,14.42-14.9,16.38-9.54,7.12-33.09,14.42-34.09,14.73l-10.74,3.31Z"/><path class="b" d="M433.26,181s25.76,44.78,29.59,67.87a114.67,114.67,0,0,1,.64,16.44c2.44-7.81,5.33-14.94,6.84-17.53C479.45,232.12,510.9,207,510.9,207s-6.24,39.75-15.36,55.43c-2.34,4-12.6,16.46-21.58,24a108.83,108.83,0,0,1,12.71-6.22c14.17-5,46.64-6.13,46.64-6.13s-26.12,19.34-40.28,24.3c-3.75,1.31-17.38,4.15-26.92,4.58a84.63,84.63,0,0,1,15,2.3c10.8,3.48,30.55,18.63,30.55,18.63s-2.21.06-5.6.06c-8,0-22.5-.36-30.07-2.81C472.41,320,458.61,313,454.32,308c-2.47,6.08-13.26,17.2-16.26,19.44-9.09,6.78-32.88,14.11-32.88,14.11s13.81-20.71,22.9-27.49a84.75,84.75,0,0,1,13.45-7c-9.08,2.64-22.73,4.35-26.84,4.35h-.11c-15-.13-46-10-46-10s30.71-9.25,45.83-9.25h.29a106,106,0,0,1,14,1.79c-10.93-4.25-24.65-12.7-28.17-15.76-13.69-11.9-32.43-47.51-32.43-47.51s37.88,13.6,51.56,25.49c2.26,2,7.3,7.77,12.14,14.39a114.22,114.22,0,0,1-4.7-15.77c-3.83-23.09,6.1-73.79,6.1-73.79m-3.74-22.54-4.11,21c-.1.52-2.56,13.11-4.57,28.75-1.93,15-2.77,27.37-2.51,37-17.11-11.12-46.06-21.58-47.46-22.08l-19.37-6.95,9.58,18.21c.8,1.51,19.61,37.08,34.26,49.82.61.52,1.4,1.14,2.35,1.83-14.79,2.72-30.47,7.41-31.39,7.69l-24.71,7.44L366.17,309c1.24.4,29,9.21,45.6,10.27-6.58,7.91-12.3,16.4-13.25,17.82l-12.47,18.7,21.49-6.62c2.57-.79,25.39-7.95,35.3-15.34a93.6,93.6,0,0,0,13.43-14.06,93.38,93.38,0,0,0,17.25,9c8.19,2.65,22.21,3.2,32.53,3.2,3.47,0,5.74-.07,5.84-.07l22.47-.67-17.84-13.67c-1.36-1-9.51-7.23-18.29-12.59,15.34-6.36,38.8-23.66,39.84-24.44l20.74-15.35-25.79.93c-1,0-17.31.65-32.19,2.85.67-1,1.22-1.8,1.63-2.49,9.76-16.79,16.08-56.53,16.35-58.21L522,188l-16.08,12.82c-1.16.93-25.2,20.17-37.8,36.21-2.87-9.2-7.66-20.65-14.32-34.22-7-14.15-13.34-25.27-13.61-25.73l-10.67-18.56Z"/><line class="a" x1="437.17" y1="204.6" x2="453.72" y2="304.42"/><path class="b" d="M437.17,204.6c2,8.21,3.69,16.48,5.29,24.76.82,4.14,1.54,8.29,2.31,12.44l2.15,12.46,2,12.49c.61,4.17,1.27,8.34,1.83,12.52,1.16,8.35,2.22,16.73,3,25.15-2-8.22-3.7-16.49-5.29-24.77-.83-4.13-1.55-8.29-2.32-12.43L444,254.75l-2-12.49c-.61-4.17-1.27-8.34-1.82-12.52C439,221.39,437.94,213,437.17,204.6Z"/><line class="a" x1="486.14" y1="316.32" x2="454.16" y2="306.92"/><path class="b" d="M486.14,316.32a62.15,62.15,0,0,1-8.33-1.22c-2.72-.57-5.42-1.26-8.08-2s-5.3-1.66-7.9-2.66a61.91,61.91,0,0,1-7.67-3.48,60.13,60.13,0,0,1,8.33,1.22c2.73.57,5.42,1.26,8.09,2s5.29,1.67,7.9,2.67A62.38,62.38,0,0,1,486.14,316.32Z"/><line class="a" x1="511.08" y1="283.33" x2="454.16" y2="306.92"/><path class="b" d="M511.08,283.33c-4.5,2.54-9.12,4.8-13.78,7-2.32,1.11-4.68,2.12-7,3.18l-7.08,3-7.15,2.87c-2.4.91-4.78,1.87-7.21,2.72-4.82,1.76-9.69,3.43-14.68,4.82,4.51-2.54,9.13-4.81,13.79-7,2.31-1.11,4.68-2.12,7-3.18l7.08-3,7.15-2.88c2.4-.9,4.78-1.86,7.21-2.71C501.24,286.38,506.1,284.72,511.08,283.33Z"/><line class="a" x1="496.42" y1="232.53" x2="454.16" y2="306.92"/><path class="b" d="M496.42,232.53c-3,6.51-6.22,12.87-9.55,19.17-1.64,3.17-3.38,6.29-5.07,9.43l-5.21,9.33-5.35,9.26c-1.83,3.06-3.61,6.15-5.49,9.18-3.72,6.09-7.52,12.13-11.59,18,3-6.51,6.22-12.87,9.55-19.18,1.64-3.17,3.38-6.28,5.06-9.42L474,269l5.35-9.25c1.83-3.06,3.62-6.15,5.5-9.18C488.55,244.46,492.36,238.42,496.42,232.53Z"/><line class="a" x1="426.93" y1="326.12" x2="454.16" y2="306.9"/><path class="b" d="M426.93,326.12a62.81,62.81,0,0,1,6.13-5.77c2.14-1.78,4.35-3.46,6.62-5.07s4.6-3.12,7-4.54a61.39,61.39,0,0,1,7.49-3.84,61.69,61.69,0,0,1-6.13,5.77c-2.14,1.78-4.35,3.46-6.62,5.06s-4.6,3.12-7,4.54A61.45,61.45,0,0,1,426.93,326.12Z"/><line class="a" x1="392.67" y1="302.94" x2="454.16" y2="306.9"/><path class="b" d="M392.67,302.94c5.17-.29,10.31-.29,15.45-.18,2.57,0,5.14.16,7.7.25l7.69.41,7.69.57c2.55.25,5.11.44,7.66.75,5.11.55,10.22,1.2,15.3,2.16-5.16.29-10.31.29-15.45.18-2.57,0-5.13-.17-7.7-.25l-7.69-.42-7.68-.58c-2.56-.24-5.12-.44-7.67-.74C402.86,304.54,397.76,303.89,392.67,302.94Z"/><line class="a" x1="390.16" y1="250.13" x2="454.16" y2="306.9"/><path class="b" d="M390.16,250.13c5.75,4.26,11.3,8.75,16.78,13.32,2.76,2.26,5.44,4.6,8.16,6.91l8.06,7,7.94,7.16c2.62,2.42,5.26,4.81,7.84,7.28,5.19,4.89,10.3,9.87,15.22,15.07-5.75-4.27-11.3-8.75-16.77-13.32-2.76-2.26-5.45-4.61-8.17-6.91l-8.05-7-7.95-7.16c-2.61-2.42-5.26-4.81-7.83-7.28C400.2,260.3,395.09,255.32,390.16,250.13Z"/><path class="c" d="M405.74,687.27c-1-.34-24.26-8.52-33.53-16-2.56-2.06-10-10.14-14.28-16.93-6.57,4.58-16.61,9.08-19.78,10-4.74,1.33-12.2,2-22.18,2-8,0-14.64-.43-14.92-.45l-11.22-.75,9.17-6.51c.72-.51,15.31-10.81,26.71-15.91a62.54,62.54,0,0,1-6.3-1.9C305,635.19,280.07,615.3,279,614.46l-10.08-8.06,12.87.94c1.19.09,26.18,2,41.9,6.29A87.84,87.84,0,0,1,316.16,603c-8.78-16.48-13.54-55.71-13.74-57.37l-1.21-10.22,7.79,6.71c1.27,1.09,31.18,26.92,40,43.4.12.22.24.46.37.73,5.66-23.69,31.13-64.56,32.23-66.33l5.68-9.07,1.66,10.57c.33,2.06,7.74,49.64,3.65,73.65l.63-.52c14.54-11.72,52.18-23.75,53.77-24.26l9.8-3.11-5.12,8.91c-.83,1.46-20.59,35.68-35.13,47.4a88.46,88.46,0,0,1-11.12,6.85c16.16,2.18,39.88,10.25,41,10.64l12.2,4.17-12.42,3.47c-1.24.34-30.51,8.44-46.26,8.44h-1.24a64.19,64.19,0,0,1-6.54-.73c8.49,9.16,17.87,24.36,18.33,25.11l5.89,9.58Z"/><path class="b" d="M385,522s8.05,51,3.36,74A112.22,112.22,0,0,1,383,611.55c5.08-6.42,10.33-12,12.66-13.92,14.12-11.38,52.47-23.56,52.47-23.56S428.11,609,414,620.34c-3.63,2.93-17.66,10.87-28.74,14.7a115.92,115.92,0,0,1,13.6-1.27h.49c15,.43,45.75,11,45.75,11S415.3,653,399.91,653h-1.13c-4-.12-17.71-2.34-26.77-5.35a84.49,84.49,0,0,1,13.18,7.51c8.83,7.11,21.86,28.32,21.86,28.32s-23.49-8.21-32.33-15.32c-2.91-2.35-13.28-13.87-15.52-20-4.48,4.79-18.53,11.32-22.14,12.34-5.25,1.48-13.71,1.86-21.09,1.86-8,0-14.65-.45-14.65-.45s20.3-14.39,31.21-17.47a84.53,84.53,0,0,1,15.07-1.75c-9.52-.78-23-4.12-26.73-5.57-14-5.48-39.35-25.78-39.35-25.78s32.41,2.38,46.38,7.86a105.21,105.21,0,0,1,12.47,6.69c-8.69-7.87-18.48-20.67-20.68-24.79-8.53-16-13.29-56-13.29-56s30.5,26.23,39,42.24c1.41,2.64,4,9.87,6.19,17.77a113.56,113.56,0,0,1,1.25-16.41C357.55,565.8,385,522,385,522m4.57-22.38-11.35,18.14c-1,1.59-21.49,34.48-30.12,58.89-12-16.5-35.31-36.63-36.44-37.6L296,525.65l2.43,20.42c.2,1.7,5.05,41.64,14.18,58.78.38.71.9,1.57,1.54,2.55-14.79-2.75-31.1-4-32.07-4l-25.73-1.88,20.15,16.11c1,.81,23.81,19,38.91,25.9-9,5-17.35,10.91-18.74,11.9l-18.34,13,22.43,1.5c.29,0,7.05.46,15.19.46,10.34,0,18.17-.73,23.27-2.16a94.54,94.54,0,0,0,17.57-8.33,94.17,94.17,0,0,0,12.9,14.55c9.63,7.75,32.17,15.75,34.71,16.64l21.22,7.41-11.77-19.15c-.89-1.46-6.29-10.15-12.58-18.29,16.54-.44,44.73-8.24,45.95-8.58l24.86-6.92-24.42-8.36c-.91-.31-16.4-5.58-31.08-8.84,1-.66,1.79-1.25,2.41-1.75,15.12-12.18,35.24-47,36.09-48.51l10.25-17.84-19.61,6.23c-1.42.45-30.75,9.83-48.26,20.3,1.63-25.84-4.33-64.13-4.62-66l-3.34-21.14Z"/><line class="c" x1="380.17" y1="545.43" x2="359.93" y2="644.57"/><path class="b" d="M380.17,545.43c-1.08,8.39-2.45,16.71-3.92,25-.7,4.16-1.52,8.29-2.28,12.44l-2.45,12.41-2.61,12.38c-.92,4.11-1.79,8.24-2.77,12.34-1.91,8.22-3.91,16.41-6.21,24.55,1.07-8.39,2.44-16.71,3.91-25,.71-4.16,1.53-8.29,2.29-12.44l2.45-12.41,2.61-12.38c.93-4.11,1.8-8.23,2.78-12.34C375.87,561.77,377.88,553.57,380.17,545.43Z"/><line class="c" x1="385.95" y1="667.28" x2="359.45" y2="647.07"/><path class="b" d="M386,667.28a59.63,59.63,0,0,1-7.34-4.12q-3.51-2.26-6.82-4.79c-2.21-1.69-4.36-3.45-6.43-5.31a63.11,63.11,0,0,1-5.91-6,60.91,60.91,0,0,1,7.34,4.11c2.34,1.51,4.61,3.12,6.82,4.8s4.35,3.46,6.43,5.32A61.83,61.83,0,0,1,386,667.28Z"/><line class="c" x1="421.04" y1="645.39" x2="359.45" y2="647.07"/><path class="b" d="M421,645.39c-5.11.76-10.24,1.22-15.36,1.58-2.57.21-5.13.31-7.7.46l-7.69.3-7.7.13c-2.57,0-5.14,0-7.71,0-5.14-.08-10.28-.27-15.43-.75,5.12-.77,10.24-1.23,15.37-1.59,2.56-.21,5.13-.31,7.69-.46l7.7-.29,7.7-.13c2.57,0,5.13,0,7.7,0C410.75,644.72,415.89,644.91,421,645.39Z"/><line class="c" x1="425.51" y1="592.71" x2="359.45" y2="647.07"/><path class="b" d="M425.51,592.71c-5.11,5-10.41,9.79-15.77,14.49-2.67,2.37-5.4,4.66-8.1,7L393.43,621l-8.3,6.74c-2.81,2.2-5.58,4.44-8.42,6.6-5.64,4.36-11.36,8.64-17.26,12.69,5.11-5,10.41-9.8,15.77-14.5,2.67-2.37,5.4-4.66,8.1-7l8.21-6.85,8.31-6.73c2.8-2.2,5.58-4.44,8.42-6.6C413.9,601,419.61,596.76,425.51,592.71Z"/><line class="c" x1="327.15" y1="655.26" x2="359.46" y2="647.05"/><path class="b" d="M327.15,655.26a61.3,61.3,0,0,1,7.79-3.19c2.64-.9,5.3-1.68,8-2.37s5.41-1.27,8.16-1.74a59.36,59.36,0,0,1,8.37-.91,61.3,61.3,0,0,1-7.79,3.19c-2.64.9-5.3,1.68-8,2.37s-5.41,1.26-8.15,1.73A60.88,60.88,0,0,1,327.15,655.26Z"/><line class="c" x1="303.45" y1="621.36" x2="359.46" y2="647.05"/><path class="b" d="M303.45,621.36c4.93,1.57,9.73,3.42,14.49,5.36,2.39.94,4.74,2,7.1,3l7,3.14,7,3.28c2.29,1.15,4.62,2.24,6.89,3.44,4.58,2.34,9.11,4.78,13.52,7.49-4.93-1.58-9.74-3.42-14.49-5.36-2.4-1-4.74-2-7.11-3l-7-3.14-7-3.28c-2.3-1.15-4.62-2.24-6.89-3.44C312.39,626.5,307.86,624.06,303.45,621.36Z"/><line class="c" x1="319.99" y1="571.14" x2="359.46" y2="647.05"/><path class="b" d="M320,571.14c3.84,6,7.42,12.22,10.9,18.44,1.77,3.1,3.44,6.25,5.16,9.37l5,9.45,4.87,9.53c1.57,3.2,3.19,6.37,4.71,9.6,3.09,6.43,6.09,12.9,8.83,19.52-3.85-6-7.43-12.22-10.91-18.44-1.77-3.1-3.44-6.25-5.15-9.37l-5-9.45-4.86-9.53c-1.57-3.2-3.18-6.38-4.71-9.6C325.73,584.23,322.73,577.75,320,571.14Z"/><path class="d" d="M49.11,869.43c.22-.86,4.78-18.12,10.25-29.34a62.17,62.17,0,0,1-6,2.58c-14.64,4.91-46.55,5.69-47.9,5.72l-12.89.3L3,841.15c1-.7,21.33-15.31,36.15-22.09a85.93,85.93,0,0,1-12.62-3.33c-17.32-7-46.16-34-47.37-35.15l-7.5-7.05,10.29.14c1.67,0,41.18.61,58.5,7.6l.74.32C30.3,759.8,23.58,712.12,23.29,710.05l-1.48-10.6,8.07,7c1.57,1.37,37.8,33.08,50.1,54.11,0-.29.09-.56.14-.8,3.62-18.32,24.74-51.72,25.64-53.13l5.51-8.68,1.8,10.13c.3,1.64,7.13,40.56,3.51,58.88a87.29,87.29,0,0,1-4.12,12.39c13.78-8.7,37.15-17.74,38.26-18.17l12-4.64-7.3,10.63c-.77,1.12-18.88,27.4-31,37a63.22,63.22,0,0,1-5.47,3.64c12.38,1.57,29.34,7.2,30.17,7.48l10.66,3.56-10.51,4c-1,.37-24.06,9-36,9.28h-.27a92.85,92.85,0,0,1-21.55-3.8c-2.1,7.73-6.9,17.62-8.76,20.35-6.7,9.82-26.59,24.4-27.44,25l-9.08,6.62Z"/><path class="b" d="M109.13,708.81s7,39.62,3.53,57.42c-.91,4.57-6.56,19.67-12.59,29.72a106.21,106.21,0,0,1,10-10c11.78-9.3,42.1-21,42.1-21S133.77,791.74,122,801c-3.11,2.46-15.08,9.58-24,13.09a84.18,84.18,0,0,1,14.92-2.7h.48c11.51,0,34.46,7.67,34.46,7.67s-23.28,8.8-34.62,9h-.19c-4,0-19-2.15-24.57-5.38-.35,6.55-6.93,20.58-9,23.67C73.08,855.77,53,870.45,53,870.45s6.31-24.08,12.7-33.45a84.73,84.73,0,0,1,10.43-11c-7.8,5.51-20.3,11.63-24.07,12.89-14.23,4.77-46.72,5.52-46.72,5.52s26.37-19,40.6-23.77a107.55,107.55,0,0,1,13.85-2.88c-11.71-.45-27.44-4-31.77-5.73-16.81-6.79-46.12-34.35-46.12-34.35s40.23.52,57.05,7.31c2.77,1.12,9.43,5,16.15,9.65a113.47,113.47,0,0,1-9.58-13.38C34.37,760.67,27.25,709.5,27.25,709.5s38.94,34,50.07,54.54a114,114,0,0,1,6,15.33c-.24-8.18.18-15.86.76-18.8,3.52-17.79,25.09-51.76,25.09-51.76m4.28-21.65-11,17.37c-.8,1.25-17.26,27.28-23.95,46.55-15.35-20.85-44.51-46.37-45.92-47.61L16.38,689.41l2.95,21.19c.26,1.86,5.67,40.24,14.72,64.49-19.79-4.94-50.58-5.4-52.07-5.42l-20.57-.27,15,14.09c1.24,1.17,30.61,28.68,48.61,36,.74.3,1.7.63,2.82,1C14.72,827.8,1.43,837.34.65,837.9L-20.29,853l25.79-.59c1.31,0,30.44-.74,46.46-5.13-3.65,9.62-6.29,19.51-6.72,21.16l-5.71,21.74,18.16-13.25c2.17-1.59,21.42-15.79,28.39-26a94.35,94.35,0,0,0,8.11-17.66,98,98,0,0,0,18.89,2.86h.35c12.36-.24,34.78-8.58,37.29-9.54l21-7.94-21.32-7.13c-1.6-.53-11.33-3.73-21.39-5.94,12.44-11,29-35,29.72-36.08l14.6-21.27-24.07,9.27c-.91.35-16.16,6.26-29.52,13.19.33-1.13.58-2.11.73-2.89,3.77-19-3.19-58.69-3.49-60.36l-3.6-20.26Z"/><line class="d" x1="38.62" y1="730.52" x2="86.77" y2="819.52"/><path class="b" d="M38.62,730.52c4.56,7.12,8.86,14.39,13.07,21.7,2.12,3.64,4.16,7.33,6.24,11L64,774.31l6,11.16c1.93,3.75,3.91,7.47,5.8,11.24,3.81,7.52,7.54,15.09,11,22.81-4.56-7.12-8.86-14.38-13.06-21.7-2.13-3.64-4.16-7.33-6.24-11l-6.09-11.09-6-11.16c-1.93-3.75-3.91-7.47-5.79-11.24C45.82,745.8,42.09,738.23,38.62,730.52Z"/><line class="d" x1="121.3" y1="820.22" x2="88.01" y2="821.74"/><path class="b" d="M121.3,820.22a60.76,60.76,0,0,1-8.27,1.55c-2.76.35-5.53.58-8.3.71s-5.56.15-8.34.06a62.67,62.67,0,0,1-8.38-.8,59.85,59.85,0,0,1,8.27-1.56q4.14-.52,8.31-.7c2.77-.12,5.55-.15,8.34-.06A62.68,62.68,0,0,1,121.3,820.22Z"/><line class="d" x1="134.15" y1="780.9" x2="88.01" y2="821.74"/><path class="b" d="M134.15,780.9c-3.44,3.87-7.07,7.51-10.77,11.08-1.83,1.81-3.73,3.53-5.6,5.29l-5.71,5.17-5.82,5c-2,1.64-3.92,3.33-5.93,4.92-4,3.24-8,6.4-12.31,9.34,3.43-3.87,7.06-7.52,10.76-11.09,1.83-1.81,3.73-3.53,5.6-5.29l5.71-5.17,5.83-5c2-1.64,3.91-3.32,5.93-4.92C125.83,787,129.89,783.84,134.15,780.9Z"/><line class="d" x1="103.74" y1="737.65" x2="88.01" y2="821.74"/><path class="b" d="M103.74,737.65c-.7,7.12-1.69,14.18-2.79,21.23-.52,3.53-1.14,7-1.72,10.56L97.35,780l-2,10.49c-.73,3.49-1.41,7-2.21,10.47-1.52,7-3.16,13.91-5.08,20.81.7-7.13,1.69-14.19,2.78-21.24.52-3.53,1.15-7,1.72-10.56l1.89-10.52,2-10.5c.73-3.49,1.42-7,2.21-10.47C100.19,751.49,101.82,744.54,103.74,737.65Z"/><line class="d" x1="68.51" y1="848.76" x2="88" y2="821.72"/><path class="b" d="M68.51,848.76a62,62,0,0,1,3.92-7.45c1.45-2.38,3-4.69,4.61-6.95s3.33-4.45,5.13-6.57A60.64,60.64,0,0,1,88,821.72a60.54,60.54,0,0,1-3.91,7.45c-1.45,2.38-3,4.69-4.62,7s-3.33,4.44-5.13,6.57A62.87,62.87,0,0,1,68.51,848.76Z"/><line class="d" x1="28.57" y1="837.99" x2="88" y2="821.72"/><path class="b" d="M28.57,838c4.79-2,9.66-3.62,14.55-5.19,2.44-.81,4.91-1.52,7.36-2.28l7.41-2.11,7.45-2c2.5-.6,5-1.25,7.49-1.79,5-1.15,10-2.19,15.17-2.94-4.79,2-9.65,3.63-14.55,5.2-2.44.81-4.91,1.51-7.36,2.27l-7.41,2.11-7.45,2c-2.49.6-5,1.24-7.49,1.79C38.73,836.19,33.69,837.23,28.57,838Z"/><line class="d" x1="9" y1="788.88" x2="88" y2="821.72"/><path class="b" d="M9,788.88c6.83,2.16,13.53,4.6,20.2,7.13,3.35,1.24,6.65,2.58,10,3.88l9.91,4,9.84,4.18c3.26,1.45,6.54,2.84,9.78,4.34,6.5,2.94,13,6,19.3,9.29-6.82-2.16-13.53-4.6-20.2-7.13-3.34-1.24-6.64-2.58-10-3.88l-9.9-4-9.85-4.18c-3.26-1.44-6.54-2.84-9.77-4.34C21.81,795.22,15.35,792.19,9,788.88Z"/><path class="a" d="M340,948.46c.51-.72,10.83-15.27,19.89-23.87-2.35.2-4.36.31-5.79.31l-.77,0c-15.43-.54-45.59-11-46.86-11.45l-12.18-4.25,12.44-3.38c1.12-.31,25.36-6.86,41.6-8a87.72,87.72,0,0,1-10.65-7.55c-13.76-12.62-31.28-48-32-49.54l-4.55-9.23,9.59,3.73c1.56.61,38.35,15,52.11,27.65.18.17.38.36.58.57-2.53-24.22,7.9-71.23,8.36-73.27l2.34-10.44,5.08,9.41c1,1.84,23.79,44.25,27.93,68.26.14-.26.28-.49.41-.71,9.82-15.88,41.32-39.74,42.65-40.75l8.21-6.19-1.87,10.11c-.3,1.65-7.56,40.49-17.37,56.37A87.05,87.05,0,0,1,431,886.38c16-3.31,41-3.58,42.21-3.59l12.9-.12-10.57,7.4c-1.11.77-27.3,19-42,23.73a62.88,62.88,0,0,1-6.4,1.5c11,5.81,24.94,17,25.63,17.58l8.73,7.08-11.34,0c-2.63,0-26-.11-36.83-3.93-3.1-1.09-12.84-6.23-19.1-11.22-4.67,6.5-12.65,14.09-15.34,16-9.72,6.85-33.47,13.52-34.47,13.8l-10.83,3Z"/><path class="b" d="M375.69,791s24.55,45.46,27.75,68.64a113.34,113.34,0,0,1,.2,16.46c2.65-7.75,5.74-14.8,7.31-17.34,9.54-15.43,41.66-39.66,41.66-39.66s-7.31,39.56-16.85,55c-2.45,4-13,16.12-22.22,23.42a107.8,107.8,0,0,1,12.87-5.88c14.3-4.57,46.79-4.87,46.79-4.87S446.58,905.42,432.28,910c-3.78,1.21-17.48,3.67-27,3.85a84.78,84.78,0,0,1,14.93,2.7c10.69,3.77,30,19.44,30,19.44h-.09c-1.66,0-25.18-.06-35.49-3.7-3.54-1.25-17.15-8.66-21.3-13.73-2.63,6-13.72,16.84-16.78,19-9.27,6.54-33.25,13.22-33.25,13.22s14.37-20.33,23.64-26.86a84.53,84.53,0,0,1,13.63-6.65,136.07,136.07,0,0,1-26.43,3.64h-.63c-15-.53-45.69-11.24-45.69-11.24s29.51-8,45-8c.48,0,.94,0,1.39,0a107.73,107.73,0,0,1,14,2.16c-10.81-4.53-24.3-13.35-27.74-16.51-13.36-12.26-31.13-48.36-31.13-48.36s37.49,14.61,50.85,26.87c2.21,2,7.09,8,11.74,14.71a114.21,114.21,0,0,1-4.27-15.89c-3.21-23.19,8.08-73.6,8.08-73.6m-3.12-22.63-4.68,20.88c-.12.53-2.91,13-5.34,28.62-2.34,14.93-3.51,27.29-3.51,36.93-16.8-11.57-45.47-22.8-46.85-23.34L293,824l9.09,18.46c.75,1.52,18.6,37.59,32.9,50.72.59.54,1.37,1.18,2.3,1.89-14.85,2.32-30.68,6.6-31.59,6.85l-24.89,6.77,24.36,8.5c1.23.43,28.76,10,45.31,11.49-6.8,7.73-12.75,16.06-13.73,17.46l-13,18.36,21.65-6c2.59-.72,25.6-7.26,35.71-14.39A94.51,94.51,0,0,0,395,930.4a94.69,94.69,0,0,0,17,9.43c11.23,4,33.75,4.16,38.16,4.16h.11l22.48-.06-17.46-14.15c-1.33-1.08-9.31-7.48-17.95-13.08,15.51-5.94,39.42-22.61,40.49-23.35l21.14-14.79-25.8.23c-1,0-17.32.19-32.26,2,.7-.94,1.28-1.77,1.7-2.45,10.21-16.52,17.6-56.07,17.91-57.75l3.74-20.23-16.43,12.39c-1.18.9-25.72,19.48-38.75,35.18-2.62-9.28-7.1-20.85-13.4-34.59-6.57-14.34-12.65-25.62-12.91-26.1L372.57,768.4Z"/><line class="a" x1="378.97" y1="814.71" x2="392.83" y2="914.94"/><path class="b" d="M379,814.71c1.77,8.27,3.24,16.58,4.62,24.9.71,4.16,1.32,8.33,2,12.49l1.81,12.52L389,877.16c.49,4.19,1,8.37,1.48,12.56.94,8.39,1.77,16.78,2.31,25.22-1.78-8.27-3.26-16.57-4.63-24.9-.71-4.15-1.32-8.33-2-12.49L384.41,865l-1.65-12.54c-.5-4.19-1-8.37-1.48-12.56C380.34,831.55,379.51,823.15,379,814.71Z"/><line class="a" x1="450.74" y1="895.4" x2="393.2" y2="917.45"/><path class="b" d="M450.74,895.4c-4.58,2.42-9.25,4.56-14,6.6-2.35,1-4.73,2-7.1,3l-7.16,2.84-7.22,2.68c-2.43.84-4.84,1.74-7.28,2.52-4.88,1.64-9.79,3.17-14.81,4.42,4.58-2.42,9.25-4.56,14-6.6,2.35-1.05,4.73-2,7.1-3l7.16-2.83,7.23-2.68c2.42-.84,4.83-1.73,7.28-2.52C440.81,898.19,445.72,896.66,450.74,895.4Z"/><line class="a" x1="437.44" y1="844.23" x2="393.2" y2="917.45"/><path class="b" d="M437.44,844.23c-3.15,6.42-6.56,12.69-10.06,18.91-1.72,3.12-3.54,6.19-5.31,9.28l-5.46,9.2-5.6,9.11c-1.92,3-3.78,6-5.74,9-3.88,6-7.84,11.92-12.07,17.7,3.16-6.42,6.56-12.69,10.06-18.91,1.73-3.12,3.55-6.19,5.32-9.28l5.46-9.19,5.6-9.11c1.91-3,3.78-6.05,5.75-9C429.26,856,433.23,850,437.44,844.23Z"/><line class="a" x1="330.75" y1="858.96" x2="393.2" y2="917.43"/><path class="b" d="M330.75,859c5.63,4.42,11.06,9.06,16.41,13.77,2.7,2.33,5.32,4.75,8,7.12L363,887.1l7.75,7.37c2.55,2.5,5.13,4.95,7.64,7.49,5.05,5,10,10.15,14.81,15.47-5.63-4.41-11.06-9-16.41-13.76-2.7-2.33-5.32-4.75-8-7.13L361,889.29l-7.75-7.37c-2.54-2.49-5.12-4.95-7.63-7.49C340.52,869.4,335.53,864.29,330.75,859Z"/><path class="a" d="M359.56,472.25c-1-.38-9.69-3.77-13.42-7a34.84,34.84,0,0,1-4.47-5.24,35.25,35.25,0,0,1-6.35,2.69,29.87,29.87,0,0,1-7,.63c-4,0-8-.38-8.14-.4L309,461.88l9.36-6.22c.47-.31,3-2,5.9-3.58a107.49,107.49,0,0,1-13.3-9.71L301.15,434,314,435.34c.82.09,5.58.6,10.46,1.54-3.09-7-4.38-20.77-4.53-22.37L319,404.26l7.6,6.94a115.94,115.94,0,0,1,12.73,13.66c3.9-9.17,11.33-20.33,11.71-20.91l5.95-8.89,1.34,10.61c.09.69,1.75,14,1.15,23.94A114.53,114.53,0,0,1,377,423.07l9.89-2.81L381.47,429c-.84,1.36-8.16,13.11-14.05,18,4.79,1.34,9.29,3,10.05,3.3l12.08,4.54L377,457.93a108.41,108.41,0,0,1-16.24,2.75c1.91,2.77,3.4,5.35,3.68,5.84l5.6,9.75Z"/><path class="b" d="M354.36,406.18s2.51,19.71.44,28.47a43.59,43.59,0,0,1-2.21,5.93,43.07,43.07,0,0,1,5-5.21c5.56-4.21,20.44-8.45,20.44-8.45S370,440.1,364.39,444.31a49.82,49.82,0,0,1-11.22,5.32c2-.22,3.84-.33,4.91-.33h.52c5.77.34,17.47,4.74,17.47,4.74s-10.87,2.68-16.92,2.68c-.34,0-.67,0-1,0a50.27,50.27,0,0,1-10.23-2.37,33.39,33.39,0,0,1,5,3c3.31,2.84,8.07,11.14,8.07,11.14s-8.93-3.42-12.25-6.26c-1.09-.94-4.95-5.48-5.74-7.88-1.77,1.79-7.25,4.14-8.65,4.49a27.55,27.55,0,0,1-6,.51c-3.9,0-7.76-.38-7.76-.38s8-5.3,12.21-6.36a33,33,0,0,1,5.81-.49,51.28,51.28,0,0,1-10.21-2.46c-5.31-2.27-14.83-10.36-14.83-10.36s12.43,1.29,17.74,3.56a41,41,0,0,1,4.71,2.71,50.69,50.69,0,0,1-7.66-9.77c-3.09-6.25-4.46-21.67-4.46-21.67s11.42,10.44,14.52,16.7a42.91,42.91,0,0,1,2.17,6.9,43.41,43.41,0,0,1,.67-6.29c2.06-8.76,13.1-25.28,13.1-25.28m5.25-22.24-11.9,17.79a179.57,179.57,0,0,0-9.3,15.73c-3.88-4.36-7.91-8.11-9.12-9.21l-15.18-13.88,1.82,20.49a123.11,123.11,0,0,0,2.71,17c-2-.28-3.56-.45-4.25-.52l-25.66-2.66,19.66,16.71c1,.86,4.45,3.75,8.36,6.53l-.59.39-18.72,12.45L319.82,467c.17,0,4.29.42,8.53.42a33.61,33.61,0,0,0,7.94-.75,32.91,32.91,0,0,0,4.2-1.56,32.94,32.94,0,0,0,3.05,3.27c4,3.46,12.19,6.73,14.59,7.65l21,8-11.19-19.5-.35-.61c5-.79,9.63-1.91,10.4-2.1l25-6.17-24.15-9.09c-.65-.24-2.11-.78-4-1.43a124.08,124.08,0,0,0,10-14l10.78-17.52-19.79,5.64c-1.57.44-6.84,2-12.27,4.16a174.94,174.94,0,0,0-1.3-18.22l-2.69-21.23Z"/><path class="d" d="M30.2,298.79c.24-.51,1.51-3.21,3.16-6.14-.41,0-.84,0-1.29,0A116.93,116.93,0,0,1,17,291.31l-12.75-2,11.64-5.56c.74-.35,5.08-2.4,9.74-4.14C19.29,275.25,11,264.17,10,262.88l-6.12-8.26,10.09,2a114.16,114.16,0,0,1,18,5c-1.46-9.85-.94-23.25-.92-23.94L31.51,227l6.69,8.35c.43.54,8.79,11,13.47,19.82a114.15,114.15,0,0,1,11.51-14.7l7-7.56,0,10.28c0,1.61-.12,15.45-2.59,22.69,4.78-1.36,9.48-2.29,10.29-2.44L90.49,261l-9.07,9.17A107.48,107.48,0,0,1,69,281c3.07,1.37,5.69,2.79,6.19,3.06l9.86,5.4-11.05,2a79,79,0,0,1-12,1.28h0a20.14,20.14,0,0,1-3.12-.21,35.37,35.37,0,0,1-6.55-2.13,36.09,36.09,0,0,1-4,5.6c-3.45,3.5-11.83,7.62-12.78,8.08L25.46,309Z"/><path class="b" d="M35.08,237.8s12.42,15.51,15.23,24.06a44.82,44.82,0,0,1,1.21,6.21A42.42,42.42,0,0,1,53.09,261c2.54-6.5,13-17.88,13-17.88s0,15.48-2.59,22a49.86,49.86,0,0,1-6.79,10.39,40.2,40.2,0,0,1,4.46-3.1c5.1-2.72,17.37-5.07,17.37-5.07s-8.79,8.88-13.88,11.6a51.39,51.39,0,0,1-10,3.32c1.12-.09,2.27-.13,3.27-.13a20.89,20.89,0,0,1,2.57.12c4.3.69,12.7,5.29,12.7,5.29A76.84,76.84,0,0,1,62,288.73a16.8,16.8,0,0,1-2.49-.16c-1.42-.23-7.08-2.1-9-3.73-.58,2.46-4,7.32-5,8.34-3.05,3.11-11.66,7.3-11.66,7.3s4-8.69,7.09-11.8a32.45,32.45,0,0,1,4.7-3.45,51,51,0,0,1-10,3.23,25.07,25.07,0,0,1-3.56.21,115.33,115.33,0,0,1-14.5-1.31s11.28-5.39,17-6.22a31.18,31.18,0,0,1,3.76-.17L40,281a50.79,50.79,0,0,1-11.64-4.33c-5.9-3.72-15.11-16.16-15.11-16.16s15.19,2.95,21.1,6.67a41.75,41.75,0,0,1,5.45,4.75,42.65,42.65,0,0,1-2.71-5.72c-2.81-8.55-2-28.4-2-28.4M28,216.09l-.86,21.39a176,176,0,0,0,.26,18.27c-5.58-1.7-11-2.79-12.58-3.1l-20.19-3.92L6.82,265.26A124.32,124.32,0,0,0,18,278.37c-1.85.81-3.26,1.47-3.89,1.77L-9.16,291.26l25.49,4c.27.05,5.25.82,10.54,1.2-.11.25-.22.46-.3.64L17.1,317.49l20.22-9.82c2.31-1.12,10.14-5.08,13.88-8.88A32,32,0,0,0,54,295.27a34.45,34.45,0,0,0,4.31,1.2,23.52,23.52,0,0,0,3.76.26,83.58,83.58,0,0,0,12.68-1.34l22.11-4.09L77.1,280.5l-.62-.33c3.66-3.11,6.85-6.28,7.78-7.22l18.15-18.34-25.34,4.85c-.68.13-2.22.43-4.19.88a124,124,0,0,0,1.24-17.19l.06-20.57L60.24,237.71c-1.11,1.2-4.8,5.28-8.3,10A176.22,176.22,0,0,0,41.33,232.8L28,216.09Z"/><path class="c" d="M504.51,776c-1-.37-9.69-3.76-13.42-7a35.67,35.67,0,0,1-4.48-5.23,36,36,0,0,1-6.34,2.69,30,30,0,0,1-7,.62c-4.05,0-8-.38-8.15-.39L454,765.68l9.36-6.22c.47-.32,3-2,5.9-3.59a106,106,0,0,1-13.31-9.71l-9.82-8.35,12.83,1.33c.81.08,5.58.6,10.46,1.54-3.09-7-4.39-20.78-4.53-22.38L464,708.06l7.59,6.94a113.84,113.84,0,0,1,12.73,13.65c3.9-9.16,11.33-20.33,11.72-20.9l5.94-8.9,1.35,10.62c.09.68,1.75,14,1.15,23.93a115.25,115.25,0,0,1,17.49-6.53l9.89-2.82-5.39,8.76c-.84,1.37-8.16,13.12-14,18,4.79,1.34,9.28,3,10,3.29l12.08,4.55L522,761.73a109.8,109.8,0,0,1-16.24,2.75c1.9,2.77,3.4,5.35,3.68,5.84l5.6,9.75Z"/><path class="b" d="M499.31,710s2.5,19.71.44,28.48a43.59,43.59,0,0,1-2.21,5.92,41.29,41.29,0,0,1,5-5.2c5.56-4.21,20.44-8.45,20.44-8.45s-8.11,13.18-13.67,17.39a50.72,50.72,0,0,1-11.22,5.32c2-.22,3.83-.34,4.9-.34l.53,0c5.77.34,17.46,4.74,17.46,4.74s-10.86,2.67-16.91,2.67c-.34,0-.67,0-1,0a50.81,50.81,0,0,1-10.23-2.37,32.32,32.32,0,0,1,5,3c3.32,2.84,8.08,11.14,8.08,11.14s-8.94-3.43-12.25-6.26c-1.09-.94-4.95-5.49-5.74-7.88-1.77,1.79-7.25,4.14-8.65,4.48a27,27,0,0,1-6,.51c-3.9,0-7.76-.37-7.76-.37s8-5.3,12.2-6.36a32.06,32.06,0,0,1,5.82-.5,50.7,50.7,0,0,1-10.21-2.45c-5.31-2.27-14.84-10.36-14.84-10.36s12.44,1.28,17.75,3.55a41.51,41.51,0,0,1,4.71,2.72,50.69,50.69,0,0,1-7.66-9.77c-3.09-6.25-4.46-21.67-4.46-21.67s11.42,10.44,14.51,16.69a42.52,42.52,0,0,1,2.18,6.91,42.18,42.18,0,0,1,.67-6.3c2.06-8.76,13.1-25.28,13.1-25.28m5.24-22.24-11.89,17.8a177.74,177.74,0,0,0-9.3,15.72c-3.89-4.36-7.91-8.1-9.12-9.21l-15.18-13.87,1.82,20.49a124.45,124.45,0,0,0,2.7,17c-2-.28-3.55-.45-4.24-.52l-25.66-2.66,19.65,16.71c1,.86,4.46,3.74,8.37,6.53l-.59.38-18.72,12.45,22.38,2.18c.17,0,4.29.41,8.53.41a33.75,33.75,0,0,0,7.94-.74,34.66,34.66,0,0,0,4.19-1.57,31.56,31.56,0,0,0,3.06,3.27c4.05,3.47,12.19,6.74,14.59,7.66l21,8.05-11.19-19.5-.35-.61c5-.8,9.63-1.92,10.4-2.11L548,759.44l-24.15-9.08c-.65-.25-2.12-.79-4-1.43a123.19,123.19,0,0,0,10-14l10.78-17.52L520.82,723c-1.57.45-6.85,2-12.27,4.17a178,178,0,0,0-1.3-18.22l-2.7-21.24Z"/><path class="c" d="M158.32,927.33c.37-.43,2.33-2.67,4.74-5a106,106,0,0,1-15.42-5.81l-11.7-5.43,12.73-2.14c.27,0,5.29-.88,10.5-1.3-4.85-5.92-9.77-18.86-10.34-20.36l-3.6-9.63,9.16,4.66a115,115,0,0,1,15.91,9.77c1.32-9.88,5.51-22.61,5.72-23.27l3.36-10.16,4.13,9.88c.27.63,5.41,13,7.48,22.76a114.92,114.92,0,0,1,15.12-11l8.78-5.35L212,884.84c-.45,1.54-4.37,14.82-8.75,21.09,5.26,0,10.35.48,10.57.5l12.85,1.15-11.25,6.32a107.26,107.26,0,0,1-14.92,7c2.57,2.17,4.7,4.25,5.1,4.65l8,7.91-11.19-1.08c-1-.1-10.34-1.05-14.79-3.14a35.09,35.09,0,0,1-5.7-3.85,35.82,35.82,0,0,1-5.4,4.28c-4.28,2.42-13.48,4.07-14.51,4.25L151,935.82Z"/><path class="b" d="M179.82,870.05s7.66,18.33,8,27.33a45.58,45.58,0,0,1-.55,6.3,43.46,43.46,0,0,1,3.45-6.36c4.24-5.54,17.46-13.59,17.46-13.59s-4.31,14.86-8.54,20.41a50.63,50.63,0,0,1-9.4,8.11,41.32,41.32,0,0,1,5.15-1.76,40,40,0,0,1,7.59-.56c5.24,0,10.5.48,10.5.48s-10.9,6.12-16.54,7.32a48.18,48.18,0,0,1-7.66.55c-1,0-2,0-2.83-.1a33,33,0,0,1,5.61,1.6c4,1.85,10.75,8.58,10.75,8.58s-9.53-.92-13.48-2.77c-1.3-.61-6.23-4-7.63-6.06-1.23,2.2-5.89,5.92-7.14,6.63-3.8,2.15-13.23,3.79-13.23,3.79s6.27-7.23,10.07-9.38a32.82,32.82,0,0,1,5.47-2,50.83,50.83,0,0,1-7.38.49,27.55,27.55,0,0,1-3.12-.13c-5.72-.77-17-6-17-6a112.32,112.32,0,0,1,14.93-1.47,22.53,22.53,0,0,1,3.12.18,38.87,38.87,0,0,1,5.26,1.36,50.39,50.39,0,0,1-10-7.38c-4.65-5.2-10.08-19.69-10.08-19.69s13.79,7,18.44,12.22a40.9,40.9,0,0,1,3.93,6.07,45.32,45.32,0,0,1-1-6.24c-.34-9,5.9-27.86,5.9-27.86M179,847.22l-6.73,20.32a178.89,178.89,0,0,0-4.77,17.63c-4.91-3.17-9.79-5.7-11.24-6.44l-18.34-9.33,7.22,19.26a122.5,122.5,0,0,0,7.15,15.69c-2.4.32-4.08.6-4.24.62l-25.44,4.28L146,920.12c1.2.56,5.29,2.42,9.8,4.06l-.46.53-14.73,17,22.15-3.87c2.53-.44,11.15-2.09,15.79-4.71a33.7,33.7,0,0,0,3.62-2.62,34.62,34.62,0,0,0,3.82,2.34c4.82,2.26,13.54,3.24,16.1,3.49l22.38,2.16-16-15.81-.5-.49c4.37-2,8.3-4.16,9.46-4.8l22.5-12.63-25.7-2.32c-.12,0-1.83-.16-4.27-.3A123.58,123.58,0,0,0,215.87,886l5.72-19.76L204,876.9c-1.4.85-6.07,3.75-10.72,7.28A176.55,176.55,0,0,0,187.2,867L179,847.22Z"/><circle class="e" cx="395.92" cy="785.92" r="104.08"/><path class="f" d="M329.91,823.83h23.52v-75.6H334.72v-8.52c9.36-1.64,16.15-4.14,21.85-7.54h10.11v91.66h21.2v11h-58Z"/><path class="f" d="M404.37,783.13c0-34.43,12.4-52.89,32.9-52.89s32.91,18.52,32.91,52.89-12.4,53.65-32.91,53.65S404.37,817.56,404.37,783.13Zm53,0c0-30.1-8.12-42.22-20.06-42.22s-20,12.12-20,42.22,8.12,43,20,43S457.33,813.23,457.33,783.13Z"/></svg>