<svg xmlns="http://www.w3.org/2000/svg" xmlns:xlink="http://www.w3.org/1999/xlink" width="510" height="900" viewBox="0 0 510 900"><defs><style>.a,.ai,.ap{fill:#5c5b54;}.a,.aa,.ab,.ad,.ae,.af,.ag,.ah,.al,.am,.an,.ao,.b,.c,.e,.f,.j,.k,.l,.m,.n,.o,.p,.q,.r,.s,.t,.u,.v,.w,.x,.y,.z{stroke:#432d1e;}.a,.am,.ao,.ap{stroke-miterlimit:2;}.a,.am,.q{stroke-width:7px;}.ad,.ae,.ag,.al,.am,.b,.c,.e,.j,.l,.n,.o,.p,.q,.t,.w,.y,.z{fill:none;}.aa,.ab,.ad,.ae,.af,.ag,.ah,.b,.c,.l,.m,.n,.t,.u,.v,.w,.x,.y,.z{stroke-linecap:round;}.ag,.ah,.al,.an,.b,.c,.e,.f,.p,.q,.r,.s,.t{stroke-miterlimit:5;}.b,.e,.f,.j,.k,.l,.m,.r,.s,.u{stroke-width:8px;}.al,.c,.n,.o,.v{stroke-width:5px;}.d,.f,.m{fill:#f7a859;}.g{fill:#432d1e;}.h{fill:#56634a;}.i,.k{fill:#79d6e0;}.j,.k,.o{stroke-miterlimit:10;}.aa,.ab,.ad,.ae,.af,.l,.m,.n,.u,.v,.w,.x,.y,.z{stroke-linejoin:round;}.aa,.ad,.p,.y,.z{stroke-width:4px;}.ak,.an,.r{fill:#ffdc82;}.ah,.s{fill:#9980bf;}.af,.ah,.an,.t,.x{stroke-width:6px;}.u,.v,.x{fill:#bd645d;}.ab,.w{stroke-width:3px;}.z{stroke-dasharray:7.7 8.66;}.aa,.ab,.ac,.af,.ao{fill:#fff;}.ad{stroke-dasharray:8 9;}.ae,.ag{stroke-width:2px;}.aj{clip-path:url(#a);}.ao{stroke-width:15px;}.ap{stroke:#5c5b54;stroke-width:12px;}</style><clipPath id="a"><path class="a" d="M347.5,274.39c52.2-20.95,92.22-53.71,109.35-85.69-39-8.5-99.68-2.89-127.69.46a56.35,56.35,0,0,0-27.32,11c-22.56,16.93-70.32,54.87-92.59,87.93C243.73,299.33,295.3,295.33,347.5,274.39Z"/></clipPath></defs><title>110</title><path class="b" d="M323.18-8.94C339.12,77,332.32,169,366.68,250.93"/><path class="c" d="M317.57-23.31C309,1.6,286.18,20.65,263.2,31.82"/><path class="c" d="M323.51-4.11c-9.11,25.25-32.47,44.45-56,55.67"/><path class="c" d="M326,18.6c-9.2,24.57-31.9,43.31-55,54.27"/><path class="c" d="M328.41,39.83c-8.91,23.08-30.06,41.74-52,52.07"/><path class="c" d="M332.29,58c-9.12,24.19-30.54,40.51-52.6,52.22"/><path class="c" d="M334.1,79.31c-8.09,21-26.38,38.83-46.11,48.93"/><path class="c" d="M335.23,106.12c-7.5,19.16-22.38,35.22-39.63,46.08"/><path class="c" d="M338,131.63a91.78,91.78,0,0,1-33.75,42.86"/><path class="c" d="M341.19,155a89.62,89.62,0,0,1-25.69,37.8"/><path class="c" d="M344.64,179.39a94.73,94.73,0,0,1-18.33,32.41"/><path class="c" d="M348.64,206.24s-3.44,12.52-13.7,19.74"/><path class="c" d="M355.12,224.41s-1.64,7.27-9.89,14.47"/><path class="c" d="M323.39-2.18C336,.42,349.2,5.34,358.52,14.54"/><path class="c" d="M326.14,18.57c12.57,2.61,25.66,7.56,34.9,16.76"/><path class="c" d="M328.39,40.09c10,1,22.48,5.16,28.55,13.74"/><path class="c" d="M331.91,62.17s17.9,0,23.4,11.19"/><path class="c" d="M336.41,85.48s17.9,0,23.66,11.15"/><path class="c" d="M335.11,108.86s17.94,0,24.09,11.09"/><path class="c" d="M336.81,134.33s15,2.06,23,10.25"/><path class="c" d="M340.2,160.77s9.32-.53,17.84,7.59"/><path class="c" d="M343.63,183.17s7.82.3,16.57,6.73"/><path class="c" d="M350.56,205.52a30.31,30.31,0,0,1,11.27,4.35"/><path class="c" d="M356.07,224.24a19,19,0,0,1,8.47,3.11"/><path class="b" d="M440.76-11.25c24.43,62.16,53.06,123.55,58.12,190.53"/><path class="c" d="M441.67-8.2C460.8,9.19,487.3,14,512.27,14.36"/><path class="c" d="M449.78,11.64c16.75,15,41.17,22.56,63.33,22.58"/><path class="c" d="M461,36c15.4,13.66,36,21.18,56.27,23"/><path class="c" d="M470.1,60a91.83,91.83,0,0,0,49.56,22.8"/><path class="c" d="M477.92,82.27a89.6,89.6,0,0,0,40.08,22"/><path class="c" d="M486,105.55A95.06,95.06,0,0,0,517,126.07"/><path class="c" d="M494.6,131.28s8.76,9.57,21.19,11.33"/><path class="c" d="M497.11,150.4s4.76,5.73,15.39,8.38"/><path class="c" d="M472.41,61.87S460,70.53,456.57,81.47"/><path class="c" d="M481.42,86.94s-8.53,3.78-12.42,14.88"/><path class="c" d="M488.56,108.45s-6.82,3.83-11.69,13.54"/><path class="c" d="M492.56,131.51a30.27,30.27,0,0,0-8.05,9"/><path class="c" d="M496.18,150.68a19,19,0,0,0-6.12,6.63"/><path class="d" d="M261.32-150.09c-21.17,56.9-33.47,39.69-73.67,97.24-21.07,30.17-41.66,67-65.52,102.29C99,83.67,72.53,116.39,52,148.65,25.4,190.52,6.7,229.75-5.5,255.37-9.24,267.9-17,279.25-21.21,291.77c-4.3,12.92-4.91,26.89-9.16,38.78-4.89,13.69-13.33,25-17.43,35.83-8.42,22.33,5,47.24-13.25,39.5-15.76-6.68-8.58-16.3-19.49-29.5s-14-10.64-24.89-23.83-7.83-15.74-18.73-28.94-19.86-8.23-25.26-24.48c-5.84-17.58,12.22-12.64,24.3-30.21,6.4-9.31,10.48-22.16,18-32.66s18.28-18.33,25.32-27.36c10.36-13.29,16.12-26,21.53-29.58,2.69-10.95,10.28-23.78,19.75-42.22,6-11.68,10.83-27,22.21-41.64,8.49-10.93,21.76-20,34.24-32.6C26,52.75,34.74,39.17,47.87,28,64.38,14,84.93,1.68,103.14-13.9c17.63-15.08,32.91-33.44,50-48.1,19-16.29,39.58-28.71,55.14-42.09C239.39-130.85,273.39-182.54,261.32-150.09Z"/><path class="e" d="M261.32-150.09c-21.17,56.9-33.47,39.69-73.67,97.24-21.07,30.17-41.66,67-65.52,102.29C99,83.67,72.53,116.39,52,148.65,25.4,190.52,6.7,229.75-5.5,255.37-9.24,267.9-17,279.25-21.21,291.77c-4.3,12.92-4.91,26.89-9.16,38.78-4.89,13.69-13.33,25-17.43,35.83-8.42,22.33,5,47.24-13.25,39.5-15.76-6.68-8.58-16.3-19.49-29.5s-14-10.64-24.89-23.83-7.83-15.74-18.73-28.94-19.86-8.23-25.26-24.48c-5.84-17.58,12.22-12.64,24.3-30.21,6.4-9.31,10.48-22.16,18-32.66s18.28-18.33,25.32-27.36c10.36-13.29,16.12-26,21.53-29.58,2.69-10.95,10.28-23.78,19.75-42.22,6-11.68,10.83-27,22.21-41.64,8.49-10.93,21.76-20,34.24-32.6C26,52.75,34.74,39.17,47.87,28,64.38,14,84.93,1.68,103.14-13.9c17.63-15.08,32.91-33.44,50-48.1,19-16.29,39.58-28.71,55.14-42.09C239.39-130.85,273.39-182.54,261.32-150.09Z"/><path class="f" d="M1.52,226C-5,222.17-5.6,211.18.11,201.4c7.12-12.22,19.47-18.3,27.58-13.57a15.31,15.31,0,0,1,5.87,6.34c4.13,8,3,20.56-3.66,32-11.14,19.09-30.43,28.59-43.1,21.2-15.82-9.23-17.37-36.06-3.45-59.93,17.4-29.84,47.55-44.67,67.33-33.13,0,0-10.24,34.34-15.83,40.51"/><path class="g" d="M205.77-104.26C198.71-94.08,191.54-84,184.43-73.84L162.88-43.57,152.19-28.38q-5.34,7.61-11.05,14.93l-5.77,7.28c-2,2.39-3.89,4.82-5.9,7.18-4,4.77-8,9.47-12.28,14a.26.26,0,0,1-.36,0,.26.26,0,0,1,0-.31c3.11-5.4,6.45-10.64,9.86-15.81,1.68-2.61,3.45-5.15,5.18-7.72l5.3-7.64q5.35-7.57,11.09-14.89L159.67-46l22.75-29.37c7.65-9.74,15.25-19.52,23-29.23a.26.26,0,0,1,.35,0A.26.26,0,0,1,205.77-104.26Z"/><path class="g" d="M123.25-33.43C115.34-21.57,107.32-9.79,99.35,2L75.26,37.33l-12,17.72Q57.3,63.9,51,72.5l-6.41,8.55c-2.18,2.82-4.32,5.67-6.55,8.46-4.4,5.61-8.88,11.16-13.58,16.56a.25.25,0,0,1-.36,0,.26.26,0,0,1-.05-.32c3.53-6.22,7.29-12.29,11.13-18.31,1.89-3,3.87-6,5.81-9l5.94-8.89q6-8.85,12.37-17.43L72,35,97.31.58c8.52-11.43,17-22.9,25.53-34.29a.24.24,0,0,1,.35,0A.24.24,0,0,1,123.25-33.43Z"/><path class="g" d="M95.33,41.58c-4,6.38-8,12.68-12.07,19l-6.11,9.45L71,79.46Q67.92,84.19,64.92,89t-6.43,9.24L55,102.63c-1.2,1.45-2.35,2.93-3.59,4.35-2.44,2.87-4.95,5.69-7.69,8.35a.25.25,0,0,1-.36,0,.27.27,0,0,1,0-.28c1.57-3.49,3.35-6.81,5.21-10.09.91-1.65,1.91-3.24,2.86-4.86l3-4.78q3-4.72,6.47-9.2t6.84-9l6.72-9,6.79-9c4.57-5.95,9.08-11.94,13.71-17.86a.24.24,0,0,1,.35,0A.24.24,0,0,1,95.33,41.58Z"/><path class="g" d="M36.58,50.28C29.84,62.94,23,75.53,16.16,88.15L-4.47,125.9l-10.24,18.92q-5.12,9.47-10.62,18.7l-5.58,9.2c-1.9,3-3.76,6.1-5.71,9.12-3.85,6.06-7.78,12.06-12,17.94a.25.25,0,0,1-.35.06.25.25,0,0,1-.09-.31c2.93-6.58,6.09-13,9.34-19.43,1.6-3.22,3.28-6.38,4.93-9.57l5.07-9.49q5.13-9.45,10.66-18.67l11.06-18.45L14,86.91C21.38,74.62,28.71,62.3,36.15,50a.26.26,0,0,1,.34-.08A.24.24,0,0,1,36.58,50.28Z"/><path class="h" d="M99.17-5.62Q96.7,6.76,94.75,19c-14.61,92.21-5.6,188.19-28.64,280.37,45.22-38.05,74.31-85.62,94.44-137.63-4.35,28.59-7,57.33-6.3,86.24a355.22,355.22,0,0,0,37.4,149.75c2.74-101,65.09-184.65,95.6-276.39C300.91,80.32,308,36,302.05-5.62Z"/><path class="b" d="M141-17.49c-19.66,90.58-23.66,187.38-55.21,273.93"/><path class="c" d="M144.13-32.47c5.22,23.24,25.3,42.19,46.41,51.6"/><path class="c" d="M139.58-10.92C145.65,12,164.7,31.37,185.4,41.88"/><path class="c" d="M133.68,8.78c6.51,23.47,26.31,43.15,47.51,54"/><path class="c" d="M130.48,31.51C137.16,54.65,156.7,74.08,177.55,85"/><path class="c" d="M127.21,52.59c6.8,23,25.38,39.62,44.89,52.13"/><path class="c" d="M122.72,70.44c6.61,22.69,25.66,41.83,45.88,53"/><path class="c" d="M119.86,91.25c6.26,20.67,22.56,39,40.56,50.33"/><path class="c" d="M117.34,117.23c6.11,19.69,19.93,35.21,35.39,48.24"/><path class="c" d="M113.48,141.79c5.61,18.16,17.13,32.63,30.72,45.56"/><path class="c" d="M109.56,164.21a101.78,101.78,0,0,0,23.85,40.51"/><path class="c" d="M105.66,187.66c3.74,12.42,9.47,24.84,17.56,35.05"/><path class="c" d="M101.69,213.75s3.47,13.1,13.58,22.28"/><path class="c" d="M95.78,231.08s1.78,7.65,10.07,16.67"/><path class="c" d="M137.55-13.23C125.91-9.24,114.31-3.08,105.89,6"/><path class="c" d="M133.7,10.7c-11.63,3.63-23.31,9.44-31.8,18.33"/><path class="c" d="M130.33,31.5C118.66,34.81,106.87,40.29,98.24,49"/><path class="c" d="M127.22,52.84c-9.56,1.62-20.59,5.59-26.57,13.71"/><path class="c" d="M122.83,74.55s-16.23,0-22,10.61"/><path class="c" d="M117.39,97.18s-16.46-.42-22.55,9.88"/><path class="c" d="M117.3,119.9s-16.69-.87-23.1,9.23"/><path class="c" d="M114.5,144.5s-14.24.87-22.19,7.91"/><path class="c" d="M110.32,169.92a23.4,23.4,0,0,0-17.2,5.41"/><path class="c" d="M106.57,191.5s-7.49-.64-15.95,4.43"/><path class="c" d="M99.84,212.74A25.53,25.53,0,0,0,89,215.36"/><path class="c" d="M94.86,230.74a15.47,15.47,0,0,0-8.07,1.73"/><path class="b" d="M260.23-16.22q.47,4.06.8,8.15c10.1,123.73-72,232.47-74.29,355.37"/><path class="c" d="M257.5-27.67C246.77-11.46,227.71-2.36,209,.91"/><path class="c" d="M260-6c-12.35,18.5-37.6,27.11-58.82,28"/><path class="c" d="M261.75,14.24c-15.26,20.84-42.66,27-66.88,28.93"/><path class="c" d="M260.08,34.35c-16.64,21.44-46.08,26.83-71.51,28"/><path class="c" d="M256.79,55.59C239.11,76.5,209.9,82.17,184,83.45"/><path class="c" d="M252.5,76.58c-17.88,19.33-46.46,27.54-72,28.49"/><path class="c" d="M250.18,96.54c-18.52,19.42-47.65,27.56-73.7,28.33"/><path class="c" d="M243.27,118.3c-18.35,18.77-46.67,26.75-72.21,27.47"/><path class="c" d="M236.93,138.71c-17.46,17.52-44.34,26.06-68.58,26.67"/><path class="c" d="M233.17,156.86c-18.11,18.46-44.29,24.74-69.2,26.55"/><path class="c" d="M226.2,177.14c-15.87,15.93-39.81,24.87-61.93,26.15"/><path class="c" d="M216.42,202.12c-14.6,14.51-34.69,23.19-54.86,26.16"/><path class="c" d="M208.68,226.58a91.86,91.86,0,0,1-48.19,25.6"/><path class="c" d="M202.14,249.26a89.7,89.7,0,0,1-38.76,24.21"/><path class="c" d="M195.45,273a94.9,94.9,0,0,1-29.85,22.26"/><path class="c" d="M188.28,299.14s-8.2,10.05-20.51,12.52"/><path class="c" d="M186.87,318.37s-4.44,6-14.89,9.25"/><path class="c" d="M258.65-25.94c13.34,6.65,26.48,15.61,35.7,27.43"/><path class="c" d="M261.63-2.85c12.1,7.45,23.85,17.09,31.14,29.45"/><path class="c" d="M262.47,16.79c11.82,7.34,23.3,16.9,30.17,29.18"/><path class="c" d="M261.16,36c11.57,7.26,22.83,16.75,29.33,28.95"/><path class="c" d="M258,55.92c11.36,7.18,22.41,16.62,28.6,28.75"/><path class="c" d="M255.78,75.26c10.65,7.53,20.88,17.38,25.89,29.62"/><path class="c" d="M249.3,98.25c10.51,7.48,20.58,17.3,25.39,29.48"/><path class="c" d="M243.43,118.35c10.45,7.46,20.43,17.27,25.17,29.42"/><path class="c" d="M236.81,138.94c8.77,5,18.49,13.8,20.58,24.09"/><path class="c" d="M231.12,160.56s16.39,7.21,16.89,19.69"/><path class="c" d="M225.82,183.71s16.39,7.2,17.15,19.76"/><path class="c" d="M215.21,204.58s16.42,7.21,17.56,19.87"/><path class="c" d="M206.48,228.57s12.92,7.94,16.93,18.67"/><path class="c" d="M198.91,254.12s8.73,3.28,13.25,14.15"/><path class="c" d="M193,276s7,3.44,12.45,12.85"/><path class="c" d="M190.33,299.25a30.43,30.43,0,0,1,8.55,8.53"/><path class="c" d="M187.81,318.6a18.89,18.89,0,0,1,6.49,6.27"/><path class="h" d="M342-8.62l-.27,4.33c29.69,127.48,69.31,251.87,160.55,351.21C461.39,232.1,466.62,110.59,458.42-8.62Z"/><path class="b" d="M418.33-6.67C431.61,93.58,440,195.41,472.11,282.27"/><path class="c" d="M409.29-54.36c-6.51,31-27.39,59.41-53.85,76.28"/><path class="c" d="M413.68-23.65c-6.44,29.45-25.83,56.77-50.86,73.23"/><path class="c" d="M419.33,2.64c-6.3,29.74-26,57.2-51.51,73.42"/><path class="c" d="M423.05,33.52c-6.17,27-22.37,52.66-44.89,68.9"/><path class="c" d="M426.51,72.22c-5.48,24.33-18.78,49.19-38.25,65"/><path class="c" d="M431.62,109.13c-4.72,22.13-15.48,45.16-32.28,60.6"/><path class="c" d="M437,143c-3.91,19.19-11.71,38.33-24.13,53.58"/><path class="c" d="M442.66,178.27c-3,16-8.12,32.25-16.75,46.09"/><path class="c" d="M449.18,217.15c-2,10.24-5.8,20.16-12.91,28"/><path class="c" d="M457.59,243.6a43.41,43.41,0,0,1-9.29,20.5"/><path class="c" d="M419.28,8.7c10.78.69,21.5,6.74,25.81,17"/><path class="c" d="M426,42.49c10.83.7,21.61,6.73,26.09,17"/><path class="c" d="M426.61,76.18c10.92.69,21.8,6.69,26.53,16.88"/><path class="c" d="M430.56,113c9.43,2.5,19.41,7.6,25.33,15.62"/><path class="c" d="M436.38,151.24s9.86-.41,19.59,11.61"/><path class="c" d="M441.91,183.68s8.33.73,18.17,10.32"/><path class="c" d="M451.16,216.18s5.32.95,12.34,6.69"/><path class="c" d="M458.58,243.38s4.07.37,9.27,4.81"/><path class="i" d="M499.82,588.38c-27.86,0-52.39-2.23-70.94-6.44-28.18-6.4-43.44-17.4-46.63-33.62-1.17-5.94-1.49-17.65,9.45-29.31,5.72-6.09,13.91-11.64,25-17a79.82,79.82,0,0,0,9.41-5.22,4,4,0,0,0,.07-6.63C419.3,485.39,405,478,376.31,470c-30.9-8.64-70-15.6-110-19.6-22.93-2.28-45.7-3.49-65.86-3.49-11,0-21.21.35-30.39,1.05-24.82,1.88-37.52,5.84-43.81,8.82a4,4,0,0,0-1.7,5.69c10.61,17.56,6.65,30.64,3.34,36.88-8,15.05-27.37,21.76-62.87,21.76-6.79,0-14.34-.26-22.45-.76-25.68-1.6-49.94-5.34-59.1-6.86l4.68-33.17c8.47,1.38,28.88,4.48,50.68,6.11,9.47.7,18.2,1.06,26,1.06,13.4,0,24.35-1.09,31.65-3.15a4,4,0,0,0,2.33-5.94c-10.9-17.81-4.86-31.89-1.75-37.12,7.29-12.29,22.77-20,48.71-24.25,15.09-2.48,33.6-3.74,55-3.74,6.59,0,13.47.13,20.45.37,58,2,122.75,11.89,168.9,25.72,47.51,14.25,69.31,30.38,70.69,52.31,1.56,24.86-24.57,37.37-33.15,41.48-3.1,1.49-5.91,3-8.35,4.48a4,4,0,0,0-1.91,3.77,4,4,0,0,0,2.55,3.38c9.78,3.75,33.1,10,79.49,10,6.2,0,12.69-.12,19.33-.34L519.88,588C513,588.26,506.31,588.38,499.82,588.38Z"/><path class="g" d="M200.79,417.24c6.55,0,13.38.13,20.32.37,57.71,2,122,11.81,167.89,25.56,24,7.18,41,14.79,52.17,23.25,10.08,7.66,15.07,15.76,15.68,25.47,1.24,19.87-17,31-30.89,37.63-3.21,1.54-6.14,3.1-8.7,4.66a8,8,0,0,0,1.29,14.31c10,3.84,33.89,10.29,80.92,10.29,5,0,10.17-.08,15.46-.22l.82,25.59c-5.43.15-10.76.23-15.93.23-27.57,0-51.79-2.2-70.05-6.34-26.48-6-40.74-16-43.59-30.49-1-5.19-1.29-15.44,8.44-25.8,5.37-5.73,13.17-11,23.85-16.1a83.24,83.24,0,0,0,9.88-5.5,8,8,0,0,0,.15-13.24c-7.17-5-21.86-12.63-51.11-20.81-31.12-8.71-70.42-15.71-110.66-19.73-23.05-2.3-46-3.51-66.25-3.51-11.09,0-21.42.35-30.69,1.06-25.44,1.93-38.64,6.07-45.23,9.2a8,8,0,0,0-3.41,11.37c9.12,15.07,6.79,26.23,3.24,32.93-7.2,13.58-25.5,19.64-59.34,19.64-6.7,0-14.17-.25-22.2-.75C20.42,514.91-1,511.85-12,510.12l3.57-25.26c10,1.56,27.82,4.08,47,5.51,9.57.71,18.4,1.07,26.26,1.07,14,0,25-1.11,32.74-3.3a8,8,0,0,0,4.65-11.88c-9.41-15.37-5.12-27.27-1.72-33,6.64-11.19,21.23-18.29,45.92-22.35,14.66-2.4,33.47-3.68,54.38-3.68m0-8c-21.44,0-40.42,1.29-55.68,3.79-27.2,4.47-43.56,12.78-51.5,26.16-3.54,6-10.22,21.64,1.78,41.25-5.11,1.44-14.38,3-30.57,3-7.13,0-15.61-.3-25.67-1.05-28.19-2.1-53.95-6.68-54.35-6.75h0L-21,516.73a623.33,623.33,0,0,0,63.35,7.56c8.19.51,15.74.77,22.7.77,37.4,0,57.71-7.49,66.41-23.89,3.78-7.13,8.12-21.66-3.46-40.82,5.51-2.62,17.61-6.57,42.4-8.46,9.14-.69,19.26-1,30.08-1,20,0,42.38,1.17,65.46,3.47,39.8,4,78.61,10.89,109.29,19.47,28.61,8,42.37,15.28,48.71,19.68a73.5,73.5,0,0,1-8.93,4.95c-11.58,5.55-20.16,11.38-26.22,17.84-12.17,13-11.78,26.13-10.46,32.82,3.53,17.94,19.78,30,49.67,36.75,19,4.32,43.55,6.54,71.82,6.54q11.69,0,24.18-.51l-1.33-41.58c-8.28.33-16,.49-23.2.49-42.11,0-66.25-5.24-78.06-9.77,2.11-1.27,4.74-2.71,8-4.28,9.19-4.4,37.15-17.78,35.42-45.34-1.5-23.85-24.18-41.09-73.53-55.89-46.46-13.93-111.56-23.85-169.91-25.89q-10.62-.36-20.6-.37Z"/><path class="j" d="M-18.1,495.38s160.82,29.53,129.57-22c-60-99,444.52-16,311.8,42-46,20.11-33.71,61,100.07,56"/><path class="k" d="M515,591.42c-1.74,0-3.49,0-5.25,0C448,591.38,398,609.51,398,631.88s50,40.5,111.75,40.5c1.76,0,3.51,0,5.25,0Z"/><path class="j" d="M515,620.46q-4-.08-8.12-.08c-36.94,0-66.88,5.14-66.88,11.5s29.94,11.5,66.88,11.5c2.75,0,5.46,0,8.12-.09Z"/><path class="j" d="M515,606.44c-1.94,0-3.89-.06-5.86-.06-49.78,0-90.14,11.41-90.14,25.5s40.36,25.5,90.14,25.5c2,0,3.92,0,5.86-.06Z"/><path class="h" d="M-19,920.19c-54.95-14,45-16.6,109.22-37.66C122,872.13,156.67,853,196.36,841.79c35.13-9.89,74.31-11.76,111.86-20.1s73.85-23.26,110.17-28c40.29-5.32,76.79-.77,111.08.86,9.78,8,5.82,9.71,5.12,22.31s-8.68,12.15-9.38,24.75,7.28,13,6.58,25.64-8.68,12.15-9.38,24.75,15.78,26.52,3.48,29.32c-52.95,12-55.18-8-109.48-8.12S362.1,921.06,307.8,921s-54.28-8.11-108.58-8.21S145,915,91,920.5C35.9,926.1,33.64,933.56-19,920.19Z"/><path class="l" d="M-19,920.19c-54.95-14,45-16.6,109.22-37.66C122,872.13,156.67,853,196.36,841.79c35.13-9.89,74.31-11.76,111.86-20.1s73.85-23.26,110.17-28c40.29-5.32,76.79-.77,111.08.86,9.78,8,5.82,9.71,5.12,22.31s-8.68,12.15-9.38,24.75,7.28,13,6.58,25.64-8.68,12.15-9.38,24.75,15.78,26.52,3.48,29.32c-52.95,12-55.18-8-109.48-8.12S362.1,921.06,307.8,921s-54.28-8.11-108.58-8.21S145,915,91,920.5C35.9,926.1,33.64,933.56-19,920.19Z"/><path class="h" d="M78.7,920.37c-45.2-11.48,37.39-13.66,90.21-31,26.12-8.56,54.22-25.68,86.86-34.87,28.9-8.13,61.47-8.29,92.35-15.15s60.49-20.52,90.36-24.46c33.13-4.37,62.79.62,91,2,8,6.56,5.95,7.48,5.37,17.84s-8.56,9.91-9.14,20.27,7.42,10.81,6.84,21.17-8.56,9.91-9.14,20.27,13.85,22.55,3.73,24.85c-43.55,9.89-45.53-8-90.19-8.08s-44.67,7.91-89.32,7.82-44.64-8.08-89.3-8.17-44.49,3.07-88.9,7.8C124,925.49,122,931.38,78.7,920.37Z"/><path class="l" d="M78.7,920.37c-45.2-11.48,37.39-13.66,90.21-31,26.12-8.56,54.22-25.68,86.86-34.87,28.9-8.13,61.47-8.29,92.35-15.15s60.49-20.52,90.36-24.46c33.13-4.37,62.79.62,91,2,8,6.56,5.95,7.48,5.37,17.84s-8.56,9.91-9.14,20.27,7.42,10.81,6.84,21.17-8.56,9.91-9.14,20.27,13.85,22.55,3.73,24.85c-43.55,9.89-45.53-8-90.19-8.08s-44.67,7.91-89.32,7.82-44.64-8.08-89.3-8.17-44.49,3.07-88.9,7.8C124,925.49,122,931.38,78.7,920.37Z"/><path class="h" d="M187.43,920.59c-34.33-8.73,28.94-10.4,69.06-23.55,19.84-6.51,40.63-21.35,65.42-28.33,21.95-6.18,47.16-4.43,70.62-9.65s45.61-17.48,68.3-20.47c25.17-3.32,47.22,2.17,68.64,3.19,6.11,5,6.09,5,5.65,12.86s-8.43,7.42-8.86,15.29,7.55,8.32,7.11,16.19-8.42,7.42-8.86,15.29,11.69,18.12,4,19.87c-33.07,7.51-34.79-8-68.71-8s-33.94,7.94-67.86,7.87S358,913,324.11,913s-33.69,3.95-67.39,7.84C222.08,924.81,220.31,928.94,187.43,920.59Z"/><path class="l" d="M187.43,920.59c-34.33-8.73,28.94-10.4,69.06-23.55,19.84-6.51,40.63-21.35,65.42-28.33,21.95-6.18,47.16-4.43,70.62-9.65s45.61-17.48,68.3-20.47c25.17-3.32,47.22,2.17,68.64,3.19,6.11,5,6.09,5,5.65,12.86s-8.43,7.42-8.86,15.29,7.55,8.32,7.11,16.19-8.42,7.42-8.86,15.29,11.69,18.12,4,19.87c-33.07,7.51-34.79-8-68.71-8s-33.94,7.94-67.86,7.87S358,913,324.11,913s-33.69,3.95-67.39,7.84C222.08,924.81,220.31,928.94,187.43,920.59Z"/><path class="h" d="M305,920.81c-22.58-5.74,19.8-6.86,46.2-15.51,13-4.28,25.92-16.66,42.23-21.25,14.44-4.07,31.69-.26,47.12-3.69S470.08,866.17,485,864.2c16.56-2.19,30.37,3.84,44.46,4.51,4,3.28,6.24,2.3,5.95,7.47s-8.28,4.74-8.56,9.91,7.7,5.62,7.41,10.8-8.28,4.73-8.56,9.91,9.36,13.33,4.3,14.48c-21.76,4.94-23.19-7.95-45.5-8s-22.33,8-44.64,7.91-22.29-8-44.61-8.09-22,4.91-44.1,7.88C328.17,924.07,326.64,926.31,305,920.81Z"/><path class="l" d="M305,920.81c-22.58-5.74,19.8-6.86,46.2-15.51,13-4.28,25.92-16.66,42.23-21.25,14.44-4.07,31.69-.26,47.12-3.69S470.08,866.17,485,864.2c16.56-2.19,30.37,3.84,44.46,4.51,4,3.28,6.24,2.3,5.95,7.47s-8.28,4.74-8.56,9.91,7.7,5.62,7.41,10.8-8.28,4.73-8.56,9.91,9.36,13.33,4.3,14.48c-21.76,4.94-23.19-7.95-45.5-8s-22.33,8-44.64,7.91-22.29-8-44.61-8.09-22,4.91-44.1,7.88C328.17,924.07,326.64,926.31,305,920.81Z"/><rect class="m" x="386.25" y="667.94" width="64" height="284.11" transform="translate(407.71 -101.55) rotate(26.65)"/><line class="n" x1="464.81" y1="674.42" x2="337.38" y2="928.35"/><line class="n" x1="475.85" y1="680.95" x2="348.42" y2="934.89"/><line class="n" x1="487.29" y1="686.69" x2="362.25" y2="935.87"/><line class="n" x1="498.73" y1="692.44" x2="373.69" y2="941.61"/><ellipse class="m" cx="481.74" cy="683.48" rx="15.5" ry="32" transform="translate(-345.2 807.51) rotate(-63.35)"/><rect class="m" x="300.01" y="770.58" width="64" height="284.11" transform="translate(-280.8 159.24) rotate(-19.13)"/><line class="n" x1="267.3" y1="784.72" x2="360.43" y2="1053.14"/><line class="n" x1="279.69" y1="781.36" x2="372.81" y2="1049.78"/><line class="n" x1="291.78" y1="777.17" x2="383.16" y2="1040.55"/><line class="n" x1="303.87" y1="772.97" x2="395.25" y2="1036.36"/><ellipse class="m" cx="285.61" cy="778.9" rx="32" ry="15.5" transform="translate(-239.53 136.65) rotate(-19.13)"/><path class="d" d="M81.68,826c-20.42,0-34.22-11.52-37.86-31.6A69.93,69.93,0,0,1,50.6,751l1-1.95-1.81-1.26a3.47,3.47,0,0,1-.9-4.85l17-24.53a10,10,0,0,1,8.17-4.27A9.84,9.84,0,0,1,79.73,716l24.54,17a3.46,3.46,0,0,1,.85,4.86l-1.25,1.81,1.64,1.46a70,70,0,0,1,21.55,38.23c2.24,12.36-.06,22.77-6.83,30.93C114,817.72,104.4,822.82,92.35,825a60,60,0,0,1-10.67,1Z"/><path class="g" d="M74.09,716.68A7.42,7.42,0,0,1,78.31,718l24.53,17a1,1,0,0,1,.22,1.39L100.57,740l3.27,2.94c10.38,9.32,18.34,23.42,20.76,36.81,2.1,11.6,0,21.32-6.29,28.88-5.81,7-15,11.81-26.41,13.89a57.78,57.78,0,0,1-10.22,1c-11.22,0-30.74-3.84-35.4-29.54-2.42-13.38.08-29.38,6.54-41.75l2-3.9-3.61-2.52a1,1,0,0,1-.27-1.37l17-24.54a7.42,7.42,0,0,1,6.11-3.19m0-5A12.39,12.39,0,0,0,63.87,717l-17,24.54a6,6,0,0,0,1.52,8.32c-6.9,13.24-9.69,30.2-7,45,4.22,23.27,20.65,33.65,40.32,33.65a62.68,62.68,0,0,0,11.11-1c24.35-4.41,41.72-21,36.73-48.59-2.67-14.76-11.23-29.66-22.34-39.64a6,6,0,0,0-1.49-8.33l-24.53-17a12.43,12.43,0,0,0-7.07-2.21Z"/><line class="o" x1="72.42" y1="714.94" x2="92.79" y2="827.46"/><path class="d" d="M121.7,767.81c-3.27,0-7.8-8.47-10.33-15.55,6.38-3.35,9.88-7.68,10.42-12.88.69-6.74-4-13.35-8.3-17.92,8.18,2,19.73,6.32,23,15,2.93,7.72-1.29,17.84-12.54,30.06a3.39,3.39,0,0,1-2.25,1.33Z"/><path class="g" d="M120.49,726.27c5.52,2.16,11.63,5.67,13.66,11,3.2,8.43-4.78,19.6-12,27.48a3.28,3.28,0,0,1-.47.44c-.61-.37-2.55-1.9-5.27-7.51-.74-1.53-1.38-3-1.89-4.34,5.94-3.61,9.23-8.22,9.8-13.74.49-4.78-1.27-9.38-3.79-13.36m-15.28-8.89S134.88,739,108.3,751c0,0,6.06,19.34,13.4,19.34a5.59,5.59,0,0,0,4.09-2.14c41.05-44.57-20.58-50.79-20.58-50.79Z"/><path class="d" d="M118.82,828.85a11.52,11.52,0,0,1-7.48-2.64c-3.16-2.61-4.62-6.6-4.13-11.22s2.81-9.4,6.73-14.13c6.46-7.79,15.66-13.24,22.38-13.24a9.49,9.49,0,0,1,5.42,1.52c5.29,3.57,7.31,8.15,7.47,16.9a42.33,42.33,0,0,1-1.39,12.18c-1.63,5.61-4.17,6.83-6,6.87h0c-2.63,0-4.57-2.14-5.84-6.38l-.2.24C130.47,825.34,124.46,828.85,118.82,828.85Z"/><path class="g" d="M136.32,790.12a7.09,7.09,0,0,1,4,1.09c4.22,2.86,6.22,6.33,6.37,14.88s-2,16.44-5,16.5h0c-2.19,0-3.73-4.34-4.45-10a44.69,44.69,0,0,1-3.44,4.8c-5.07,6.11-10.5,9-15,9a9,9,0,0,1-5.89-2.06c-5-4.11-4.64-12.7,2.93-21.83,6-7.24,14.52-12.34,20.46-12.34m0-5h0c-7.53,0-17.29,5.69-24.31,14.15-4.23,5.1-6.75,10.45-7.29,15.45-.58,5.49,1.2,10.25,5,13.42a14,14,0,0,0,9.08,3.21c5.49,0,11.21-2.83,16.37-8,1.62,2.84,3.8,4.28,6.54,4.28h.12c2.68-.05,6.31-1.6,8.37-8.67A44.94,44.94,0,0,0,151.71,806c-.17-9.57-2.58-14.88-8.57-18.93a12,12,0,0,0-6.82-2Z"/><path class="g" d="M105.39,717.94a5.33,5.33,0,0,1-.81-1.8,5,5,0,0,1-.19-1.84,18.6,18.6,0,0,0,.38-1.89,4.53,4.53,0,0,0-.36-1.83,8.75,8.75,0,0,1-.53-1.82,10.44,10.44,0,0,1-.25-1.84,9.2,9.2,0,0,1,.7-3.76l.2,0a9.43,9.43,0,0,1,1.23,3.63,11.42,11.42,0,0,1,0,1.85,8.79,8.79,0,0,1-.27,1.88,4.69,4.69,0,0,0-.09,1.86c.11.62.47,1.21.64,1.82a4.79,4.79,0,0,1,.08,1.85,5.52,5.52,0,0,1-.54,1.89Z"/><path class="g" d="M94.06,708a5.89,5.89,0,0,1,1.88.72,5.49,5.49,0,0,1,1.47,1.2,18.42,18.42,0,0,0,1.1,1.62,4.89,4.89,0,0,0,1.59,1.07,8.9,8.9,0,0,1,1.69.93,11.44,11.44,0,0,1,1.52,1.15,9.53,9.53,0,0,1,2.24,3.21l-.13.15a9.75,9.75,0,0,1-3.5-1.74,12.2,12.2,0,0,1-1.36-1.33,9.51,9.51,0,0,1-1.18-1.54A4.72,4.72,0,0,0,98.09,712a18,18,0,0,0-1.77-.85,5.33,5.33,0,0,1-1.4-1.28,5.62,5.62,0,0,1-1-1.75Z"/><path class="g" d="M91.12,718.93a5.52,5.52,0,0,1,1.75-.81,4.72,4.72,0,0,1,1.79-.19,17,17,0,0,0,1.83.37,4.5,4.5,0,0,0,1.78-.36,8.28,8.28,0,0,1,1.76-.54,10.88,10.88,0,0,1,1.79-.26,9,9,0,0,1,3.66.69v.2a8.72,8.72,0,0,1-3.51,1.24,9.84,9.84,0,0,1-1.8,0,8.24,8.24,0,0,1-1.83-.26,4.45,4.45,0,0,0-1.81-.09c-.59.11-1.17.48-1.76.65a4.73,4.73,0,0,1-1.8.08,5.12,5.12,0,0,1-1.84-.54Z"/><path class="g" d="M158,809.74a9.18,9.18,0,0,1-.87,2.44,8.91,8.91,0,0,1-1.38,2.09c-.58.61-1.32,1.11-1.84,1.76a8.27,8.27,0,0,0-1.24,2.19,16.52,16.52,0,0,1-1.1,2.28,19.91,19.91,0,0,1-1.33,2.12,15.8,15.8,0,0,1-3.64,3.56l-.17-.11a16.09,16.09,0,0,1,2.06-4.66,19.73,19.73,0,0,1,1.52-2,15.94,15.94,0,0,1,1.76-1.83,8.65,8.65,0,0,0,1.61-1.92c.42-.72.63-1.59,1-2.35a8.86,8.86,0,0,1,1.47-2,9,9,0,0,1,2-1.67Z"/><path class="d" d="M44.18,781.84a4.5,4.5,0,0,1-2-.57C27.41,773.78,19.91,765.79,20,757.52c0-9.23,9.34-17.32,16.28-22.07-2.44,5.8-4.49,13.62-1.48,19.69,2.33,4.69,7.13,7.51,14.28,8.4.08,6.08-.69,14.77-3.35,17.58A1.94,1.94,0,0,1,44.18,781.84Z"/><path class="g" d="M31.37,742.41c-1,4.61-1,9.54,1.14,13.84,2.47,5,7.18,8.14,14,9.44-.1,7-1.4,12.32-2.56,13.61a3.83,3.83,0,0,1-.62-.26c-9.56-4.83-20.95-12.49-20.91-21.5,0-5.74,4.53-11.19,8.92-15.13m11.2-13.68S-13,756.16,41.1,783.5a6.88,6.88,0,0,0,3.08.84c8.53,0,7.27-23.08,7.27-23.08-29.1-1.91-8.88-32.53-8.88-32.53Z"/><path class="d" d="M44.64,842.67c-5.3,0-10.16-9.73-12.19-15.48-2.92-8.25-2.63-13.25,1.07-18.45,2-2.84,5.8-4.35,10.93-4.35,5.94,0,13.13,2.09,19.22,5.58C76.36,817.24,78.5,826.67,75,832.8c-2.19,3.82-6.38,6-11.51,6h0c-4.25,0-9-1.47-13.91-4.25l-.26-.15q.45,6.69-3.25,8A4.24,4.24,0,0,1,44.64,842.67Z"/><path class="g" d="M44.45,806.89c5.37,0,12.09,1.87,18,5.25C72.72,818,76,826,72.83,831.55c-1.74,3-5,4.76-9.35,4.76-3.62,0-8-1.22-12.66-3.92a42.89,42.89,0,0,1-4.91-3.29c1.33,5.62,1.4,10.23-.68,11a1.7,1.7,0,0,1-.59.1c-2.85,0-7.17-6.29-9.83-13.81-2.85-8.06-2.21-12,.74-16.17,1.6-2.25,4.87-3.3,8.9-3.3m0-5c-7.55,0-11.22,2.94-13,5.4C27.29,813.19,26.9,819,30.09,828A46.56,46.56,0,0,0,35.56,839c2.94,4.18,5.91,6.21,9.08,6.21a6.72,6.72,0,0,0,2.26-.39c2.63-.93,4.22-3,4.74-6.34a28.72,28.72,0,0,0,11.84,2.87c6.05,0,11-2.65,13.68-7.27,2.47-4.31,2.47-9.39,0-14.32-2.26-4.5-6.49-8.62-12.25-11.92-6.45-3.7-14.1-5.91-20.46-5.91Z"/><path class="g" d="M42.4,729.37a5.57,5.57,0,0,1-1.17-1.59,4.81,4.81,0,0,1-.58-1.76c0-.63.08-1.31,0-1.92a4.64,4.64,0,0,0-.74-1.71,8.51,8.51,0,0,1-.91-1.67,10.11,10.11,0,0,1-.64-1.74,9.25,9.25,0,0,1-.12-3.83l.19-.06a9.45,9.45,0,0,1,2,3.28,11.14,11.14,0,0,1,.4,1.82,8.37,8.37,0,0,1,.15,1.89,4.41,4.41,0,0,0,.31,1.84,18.93,18.93,0,0,0,1,1.63,5,5,0,0,1,.47,1.79,5.35,5.35,0,0,1-.13,2Z"/><path class="g" d="M49.88,716.09a5.71,5.71,0,0,1-.32,2,5,5,0,0,1-.86,1.69c-.42.5-1,.9-1.36,1.42a4.74,4.74,0,0,0-.71,1.77,9.35,9.35,0,0,1-.57,1.86,11.7,11.7,0,0,1-.8,1.72,9.75,9.75,0,0,1-2.67,2.86l-.18-.1a9.52,9.52,0,0,1,1-3.79,11.63,11.63,0,0,1,1-1.6,9.3,9.3,0,0,1,1.27-1.48,4.78,4.78,0,0,0,1.1-1.55,16.65,16.65,0,0,0,.47-1.91,5.27,5.27,0,0,1,1-1.63A5.8,5.8,0,0,1,49.71,716Z"/><path class="g" d="M56.36,725.43a5.34,5.34,0,0,1-1.54,1.16,5,5,0,0,1-1.72.55,16.65,16.65,0,0,0-1.87,0,4.42,4.42,0,0,0-1.66.71,8.33,8.33,0,0,1-1.62.89,9.59,9.59,0,0,1-1.7.61,8.75,8.75,0,0,1-3.72.08l-.06-.2a8.73,8.73,0,0,1,3.19-1.93,9.51,9.51,0,0,1,1.76-.38,8.59,8.59,0,0,1,1.84-.12,4.27,4.27,0,0,0,1.79-.28c.56-.23,1.05-.7,1.59-1a4.76,4.76,0,0,1,1.74-.45,5.31,5.31,0,0,1,1.92.15Z"/><path class="g" d="M25.68,833.55a9.18,9.18,0,0,1,2.44.87,9.13,9.13,0,0,1,2.09,1.38c.61.58,1.11,1.32,1.76,1.84a8.38,8.38,0,0,0,2.18,1.24,16.1,16.1,0,0,1,2.29,1.1,22.05,22.05,0,0,1,2.12,1.32A16,16,0,0,1,42.12,845l-.11.16a16.25,16.25,0,0,1-4.67-2.05,19.36,19.36,0,0,1-2-1.53,15.07,15.07,0,0,1-1.83-1.75,8.23,8.23,0,0,0-1.93-1.61c-.72-.42-1.58-.63-2.34-1a9.14,9.14,0,0,1-2-1.47,9.24,9.24,0,0,1-1.66-2Z"/><circle class="g" cx="87.38" cy="731.4" r="2.95"/><circle class="g" cx="64.18" cy="735.6" r="2.95"/><path class="p" d="M346.44,271.74,360.57,307"/><path class="p" d="M361.56,266.46a232,232,0,0,1-1,40.49"/><path class="p" d="M331.86,278.38A233.29,233.29,0,0,0,360.56,307"/><path class="p" d="M317.82,286.35c13.4,8.74,27.79,15,42.75,20.6"/><path class="p" d="M377.21,262.51c-3.64,15.59-9.68,30.09-16.64,44.44"/><line class="q" x1="360.2" y1="306.05" x2="456.85" y2="546.89"/><rect class="r" x="334" y="700.38" width="24" height="35"/><rect class="r" x="347" y="714.38" width="24" height="35"/><rect class="r" x="272" y="716.38" width="30" height="35"/><rect class="r" x="263" y="729.38" width="30" height="35"/><path class="s" d="M364.81,724.21c-23.2,0-51.81-23.83-51.81-23.83-1-31,5-74,5-74l66-12s18,58,15,90C399,704.38,379.81,724.21,364.81,724.21Z"/><path class="t" d="M365.1,712.71s-.1-40.33-16.1-98.33"/><path class="s" d="M278,741.38c-23.19,0-47-23-47-23-1-31,8-73,8-73l76-17s13,51,10,83C325,711.38,293,741.38,278,741.38Z"/><path class="t" d="M278,729.38s-6-37-1-97"/><path class="u" d="M306,539.38l19,98s26,21,41,21,33,15,33,15-19-134-24-145S306,539.38,306,539.38Z"/><path class="u" d="M317,547.38s1,28,6,52a228.28,228.28,0,0,1,5,42s-20,16-59,27-40,26-40,26-2-86,16-149S317,547.38,317,547.38Z"/><path class="v" d="M332.47,589.13l7.88-11.06c-10.91-8.57-16.45-17-20.24-30.2l-10,1.52C313.08,566.19,319.67,577.85,332.47,589.13Z"/><path class="v" d="M311.67,599.57,298.32,590c9.16-14.09,12.24-25.87,11.41-42.53l12.06-2.17C325,565.69,321.94,581.63,311.67,599.57Z"/><path class="v" d="M364.48,531.23c-32.68,13.64-65,21-100.51,19.53q-2.22-20-4.55-39.9c32.67,2.12,62.29-3,93-14Q358.67,514,364.48,531.23Z"/><path class="v" d="M263,542.49s56.46.39,99.46-20.61"/><path class="w" d="M163,603.38s2,8,12,8"/><path class="w" d="M160.38,613.62s6.74,4.75,14.31-1.79"/><path class="w" d="M162.38,623.47s9.87-.11,12.66-11.76"/><path class="w" d="M411.82,587.34s-5.93,5.73-14.41.43"/><path class="w" d="M408.63,597.41s-8.24.46-11.2-9.09"/><path class="w" d="M401.72,604.71S393.4,599.4,397.2,588"/><polygon class="x" points="268.5 412.88 302.5 408.88 334.5 508.88 281.5 516.88 268.5 412.88"/><path class="v" d="M302.5,505.88c-3,49-46,136-67,143-17-6-57-29-60-38,13-5,38-36,38-36"/><path class="y" d="M293.28,512.2c-.26,1.29-.54,2.59-.83,3.91"/><path class="z" d="M290.43,524.53c-12.38,47.74-41.79,105.11-57.75,110.74-10.19-3.8-29.12-14.44-42.33-24"/><path class="y" d="M186.89,608.66c-1.11-.85-2.15-1.68-3.12-2.5"/><path class="v" d="M207.5,589.88c14.58-46.67,11.62-68.88,8.95-77.49a30,30,0,0,1-1.07-12.53c2.29-19,6.78-42.28,18.12-58,13-18,40-38,40-38s17.4,79.06,7.19,128.93"/><path class="v" d="M239.5,561.88s43-13,63-56c-36-6-59-51-59-51"/><path class="n" d="M251.5,496.88s7,19,2,39"/><path class="n" d="M253.72,505.22s23.78,5.66,39.78-1.34"/><path class="n" d="M296.5,516.88c-15,13-41.2,9-41.2,9"/><path class="v" d="M385.5,442.88s17,11,8,73-14-68-14-68Z"/><path class="aa" d="M380.5,447.88s10.25-5.45,13-7c11.5-6.5,27.5-4.5,8,13-11.63,10.43-13,17-26,27S380.5,447.88,380.5,447.88Z"/><path class="ab" d="M406.76,437.8l1.74-.92s8,9,5,11a22.18,22.18,0,0,1-13,4"/><path class="ac" d="M415.08,448.83a2.77,2.77,0,0,1-2.73-1.39c-1-2.06,1.32-4.36,4.08-5.73a10.27,10.27,0,0,1,4.3-1.18,2.77,2.77,0,0,1,2.73,1.39c1,2.06-1.31,4.36-4.08,5.73A10.23,10.23,0,0,1,415.08,448.83Z"/><path class="g" d="M420.73,442c.69,0,1.2.18,1.38.56.45.9-1.07,2.57-3.4,3.72a8.74,8.74,0,0,1-3.63,1c-.69,0-1.19-.18-1.38-.56-.45-.9,1.07-2.57,3.4-3.72a8.78,8.78,0,0,1,3.63-1m0-3h0a11.64,11.64,0,0,0-5,1.33,12.75,12.75,0,0,0-3.62,2.62c-2.15,2.35-1.5,4.37-1.13,5.12a4.24,4.24,0,0,0,4.07,2.23,11.64,11.64,0,0,0,5-1.33,12.61,12.61,0,0,0,3.62-2.62c2.15-2.35,1.51-4.37,1.13-5.12a4.22,4.22,0,0,0-4.07-2.23Z"/><path class="ac" d="M413.41,444.28a2.9,2.9,0,0,1-2.86-1.45c-1.07-2.16,1.44-4.61,4.4-6.08a11.13,11.13,0,0,1,4.65-1.27,2.9,2.9,0,0,1,2.86,1.44c1.07,2.16-1.44,4.62-4.4,6.09A11.13,11.13,0,0,1,413.41,444.28Z"/><path class="g" d="M419.6,437c.76,0,1.31.2,1.51.61.49,1-1.17,2.81-3.72,4.07a9.56,9.56,0,0,1-4,1.12c-.76,0-1.31-.2-1.51-.61-.49-1,1.17-2.81,3.72-4.08a9.68,9.68,0,0,1,4-1.11m0-3h0a12.45,12.45,0,0,0-5.31,1.43c-4.37,2.16-6.41,5.42-5.08,8.09a4.35,4.35,0,0,0,4.2,2.28,12.45,12.45,0,0,0,5.31-1.43c4.37-2.17,6.41-5.42,5.08-8.09a4.35,4.35,0,0,0-4.2-2.28Z"/><path class="ac" d="M410.31,441a2.92,2.92,0,0,1-2.89-1.45c-1.12-2.25,1.76-4.93,5.1-6.59a13.16,13.16,0,0,1,5.44-1.52c1.89,0,2.63.9,2.89,1.44s.6,2-1.16,3.84a14.71,14.71,0,0,1-3.94,2.75A13.15,13.15,0,0,1,410.31,441Z"/><path class="g" d="M418,432.94c.78,0,1.35.2,1.55.61.52,1.05-1.46,3.1-4.43,4.58a11.77,11.77,0,0,1-4.77,1.37c-.78,0-1.34-.2-1.55-.61-.52-1.06,1.46-3.11,4.43-4.58a11.61,11.61,0,0,1,4.77-1.37m0-3a14.32,14.32,0,0,0-6.1,1.68,16,16,0,0,0-4.35,3.05c-2.5,2.58-1.84,4.74-1.43,5.55a4.33,4.33,0,0,0,4.23,2.28,14.43,14.43,0,0,0,6.11-1.69c4.9-2.43,7.16-5.8,5.78-8.59-.42-.86-1.54-2.28-4.24-2.28Z"/><path class="ac" d="M407.5,436.7c-2.31,0-3.07-1.06-3.33-1.7s-.43-2.05,1.48-3.73a14.31,14.31,0,0,1,4.14-2.42,13.94,13.94,0,0,1,5-1.11c2.3,0,3.07,1.06,3.32,1.69.93,2.33-2.15,4.77-5.61,6.16A14.2,14.2,0,0,1,407.5,436.7Z"/><path class="g" d="M414.78,429.24c1,0,1.73.24,1.93.75.43,1.09-1.7,3-4.78,4.21a12.75,12.75,0,0,1-4.43,1c-1,0-1.73-.25-1.93-.75-.44-1.1,1.7-3,4.77-4.21a12.53,12.53,0,0,1,4.44-1m0-3h0a15.66,15.66,0,0,0-5.55,1.21,16.43,16.43,0,0,0-4.58,2.69c-2.69,2.38-2.2,4.58-1.87,5.42s1.41,2.64,4.72,2.64A15.47,15.47,0,0,0,413,437a16.05,16.05,0,0,0,4.58-2.69c2.7-2.37,2.21-4.58,1.87-5.42s-1.41-2.63-4.71-2.63Z"/><path class="ab" d="M394.5,441.88s3.33-5.87,3.33-9.33,10.82-8.37,11.8-7.51c.61.53,3.08-.48,4.32-.65a.83.83,0,0,1,1,1c-.7,1.86-2.55,3.77-7.47,5,0,0-1.08,9.66-6,12.75"/><path class="v" d="M396.5,586.88s6-49-7-83-4-61-4-61c-18,7-26,15-26,15-1-11-8-26-16-37s-43-23-43-23l-12,6s23,41,34,102S396.5,586.88,396.5,586.88Z"/><path class="ad" d="M332.5,495.88c9,54,54.48,73.38,54.48,73.38s.44-38.08-9.19-64.5-5-47.41-5-47.41"/><path class="ae" d="M359.5,457.88s-6.5,12.5-5,31"/><path class="ae" d="M367.78,451.15A47.39,47.39,0,0,0,364,479.58"/><path class="ae" d="M359,454.38s-7,5-11,20"/><ellipse class="v" cx="285.38" cy="407.23" rx="23.69" ry="11.83" transform="translate(-65.22 54.59) rotate(-9.81)"/><path class="af" d="M301.25,373.05c3.5,15.35-2.59,32.91-14.44,35.61s-24.95-10.47-28.46-25.81,3.93-27.05,15.77-29.76S297.74,357.71,301.25,373.05Z"/><polyline class="ae" points="278.43 379.32 277.73 389.74 281.1 391.02"/><circle class="g" cx="286.04" cy="379.12" r="2.5"/><line class="ag" x1="286.2" y1="377.55" x2="288.9" y2="375.9"/><circle class="g" cx="270.45" cy="382.68" r="2.5"/><line class="ag" x1="269.62" y1="381.33" x2="266.48" y2="381.02"/><ellipse class="g" cx="273.04" cy="372.17" rx="3" ry="1.5" transform="translate(-115.11 621.96) rotate(-86.5)"/><ellipse class="g" cx="278.7" cy="370.87" rx="1.5" ry="3" transform="translate(-145.62 183.33) rotate(-29.23)"/><path class="g" d="M284.09,394.69a2.92,2.92,0,0,0-1.31.67,3,3,0,0,0-1.48,0c-1.34.31-1.77,3.48-1.77,3.48l2.44-.56a13.52,13.52,0,0,0,1.39-.34c.4-.05.88-.17,1.4-.29l2.43-.56S285.43,394.39,284.09,394.69Z"/><path class="g" d="M286.62,398.73c.19.81-1,1.76-2.59,2.13s-3.07,0-3.26-.79S286.44,397.92,286.62,398.73Z"/><path class="g" d="M296.5,397.88c11-53-47-54-37-13-4,0-36-42,35-42,12,0,19,46,9.5,58.5C299.93,406.73,296.5,397.88,296.5,397.88Z"/><path class="ah" d="M240.54,335.1l10.14,31.36s33.06.52,49.46-17.29c0,0-2.63-31.29-10.22-36.88s-38.13-12.94-60.36,2.41c0,0-13.64,27.54,33.07,20.08"/><path class="ai" d="M347.5,274.39c52.2-20.95,92.22-53.71,109.35-85.69-39-8.5-99.68-2.89-127.69.46a56.35,56.35,0,0,0-27.32,11c-22.56,16.93-70.32,54.87-92.59,87.93C243.73,299.33,295.3,295.33,347.5,274.39Z"/><g class="aj"><path class="ak" d="M443.63,176.71C381.18,240.84,300,273.43,210.51,270.25c.45-7.59.67-11.38,1.11-19,83.76,2.89,159.56-27.52,218.09-87.52Z"/><path class="al" d="M354.43,291.65l-39.66-98.82"/><path class="al" d="M393.84,275.31c-22.13-32.38-47-59.71-79.07-82.48"/><path class="al" d="M432.9,258.08c-34.14-32.91-72.74-52.32-118.13-65.25"/><path class="al" d="M471.6,240c-46.13-32.27-101.93-42-156.83-47.12"/><path class="al" d="M509.94,220.92c-60.27-28.27-130-29.24-195.17-28.09"/><path class="al" d="M314.65,307.09c-6.39-38.7-7.3-75.65.12-114.26"/><path class="al" d="M274.51,321.64c1.92-47.38,16.4-88.09,40.26-128.81"/><path class="al" d="M234,335.29c11-55.21,44.6-100.85,80.76-142.46"/><path class="al" d="M193.16,348c24-62.1,73.7-111,121.61-155.21"/></g><path class="am" d="M347.5,274.39c52.2-20.95,92.22-53.71,109.35-85.69-39-8.5-99.68-2.89-127.69.46a56.35,56.35,0,0,0-27.32,11c-22.56,16.93-70.32,54.87-92.59,87.93C243.73,299.33,295.3,295.33,347.5,274.39Z"/><path class="an" d="M326.55,190a57.06,57.06,0,0,1-22.27,8.94c-.67-4.19-1-6.29-1.66-10.48a55.68,55.68,0,0,1,17.88-7.18Z"/><circle class="ao" cx="395.92" cy="785.92" r="104.08"/><path class="ap" d="M329.91,823.83h23.52v-75.6H334.72v-8.52c9.36-1.65,16.15-4.14,21.85-7.54h10.11v91.66h21.2v11h-58Z"/><path class="ap" d="M409.93,823.83h23.52v-75.6H414.74v-8.52c9.35-1.65,16.15-4.14,21.84-7.54h10.11v91.66h21.2v11h-58Z"/></svg>