<svg xmlns="http://www.w3.org/2000/svg" xmlns:xlink="http://www.w3.org/1999/xlink" width="510" height="900" viewBox="0 0 510 900"><defs><style>.a,.b,.c,.f,.o,.s{fill:none;}.b,.c,.f,.g,.j,.k,.m,.o,.r,.s,.t{stroke:#432d1e;}.b,.c,.j,.k,.o,.r{stroke-linecap:round;}.b,.c,.f,.g{stroke-miterlimit:5;}.b,.f,.g,.j,.k,.o{stroke-width:8px;}.c,.m{stroke-width:5px;}.d{fill:#56634a;}.e,.g,.u{fill:#5c5b54;}.h{fill:#432d1e;}.i,.k,.m{fill:#ffdc82;}.j,.q,.r{fill:#bd645d;}.j,.k,.o,.r{stroke-miterlimit:16;}.l{clip-path:url(#a);}.m{stroke-miterlimit:10;}.n{clip-path:url(#b);}.p{clip-path:url(#c);}.r{stroke-width:4px;}.s,.t,.u{stroke-miterlimit:2;}.s{stroke-width:7px;}.t{fill:#fff;stroke-width:15px;}.u{stroke:#5c5b54;stroke-width:12px;}</style><clipPath id="a"><path class="a" d="M86.32,504c26.77-62.41,66-105.47,87.65-96.19a15.71,15.71,0,0,1,4.17,2.66l7.72-14.8,65.61,35.66,8.23,57.83-85.46,23.58c-2.78,8.14-6,16.46-9.57,24.87-26.78,62.4-100.52,91.9-100.52,91.9S59.55,566.43,86.32,504Z"/></clipPath><clipPath id="b"><path class="a" d="M297.47,451.26l33.58,5.52L356,373.44c8-2.55,16.27-5.5,24.59-8.86,61.78-24.95,92.27-96.67,92.27-96.67S411,262.07,349.25,287s-104.85,62.53-96.2,84a15,15,0,0,0,2.53,4.14l-6.36,7.27"/></clipPath><clipPath id="c"><path class="a" d="M255.29,384.58c-.25-.4-.5-.79-.77-1.19-20.7-31-47.5-41.93-64.26-31.35s-17.14,38.63,3.57,69.64l.81,1.17c4.69,15.88,13,33.52,24.6,50.88,30.22,45.26,71.25,71.52,91.64,58.65s12.42-60-17.8-105.23C281.49,409.78,268.3,395.21,255.29,384.58Z"/></clipPath></defs><title>111</title><path class="b" d="M425.35-14.7c-9.75,59.23-18.52,118.93-45.83,172.63"/><path class="c" d="M462.12-7.51A117.74,117.74,0,0,0,481.19,6"/><path class="c" d="M443.07-4.31C452.36,7,464.31,16.22,476.6,23.94"/><path class="c" d="M424.6-10.83c6.53,21.52,23.47,40.66,42.4,52.18"/><path class="c" d="M421.5,15.82c6.08,19.67,19.74,36.77,36.15,48.87"/><path class="c" d="M416.85,41.06a91.79,91.79,0,0,0,30.52,45.22"/><path class="c" d="M412,64.15a89.53,89.53,0,0,0,22.84,39.57"/><path class="c" d="M406.75,88.21a94.85,94.85,0,0,0,15.9,33.67"/><path class="c" d="M400.78,114.69s2.52,12.73,12.23,20.69"/><path class="c" d="M393,132.34s1.1,7.37,8.8,15.15"/><path class="c" d="M421.42,18.56s-17.89-1.34-24.84,9.3"/><path class="c" d="M417.86,43.84s-15.14.95-23.72,8.53"/><path class="c" d="M412.54,70s-9.25-1.21-18.35,6.26"/><path class="c" d="M407.48,92s-7.82-.26-17,5.51"/><path class="c" d="M398.92,113.83a30.2,30.2,0,0,0-11.55,3.51"/><path class="c" d="M392.06,132.09a19,19,0,0,0-8.68,2.49"/><path class="b" d="M40-4.69A248.51,248.51,0,0,0-1.78,49.47"/><path class="c" d="M37.6-2.33c1.2,13.59,6.86,27.69,16.31,37.67"/><path class="c" d="M26,11.67C27.54,28.81,38,42.1,50.14,53.49"/><path class="c" d="M13.87,27.53c2.85,19,15.53,32.75,30,44.22"/><path class="c" d="M2.73,44C6.58,63.1,20.81,78.7,36.9,88.77"/><path class="c" d="M-1.78,78.43c8.45,14.6,23.46,26.14,38,32.75"/><path class="c" d="M-3.82,105.78c10.21,11.8,24.33,20.63,37.93,27.46"/><path class="c" d="M-2.67,131.35c10.44,9.3,23.21,16.41,35.41,22"/><path class="c" d="M-3.19,155.27C6.63,163.21,18,169.52,29,174.65"/><path class="c" d="M-3.19,179.56A132.12,132.12,0,0,0,24.12,196"/><path class="c" d="M-3.19,202.56a137.29,137.29,0,0,0,23.59,13.3"/><path class="c" d="M-3.2,225.89a135,135,0,0,0,20.75,11.36"/><path class="c" d="M-4.45,247.19a116.37,116.37,0,0,0,17.13,9.25"/><path class="c" d="M-4.07,267.14c4.58,2.78,9.29,5.33,14,7.66"/><path class="c" d="M-4.45,289.64q3.29,1.88,6.65,3.47"/><path class="c" d="M35.3.24C23-.26,10.18,1.14-1.39,5.57"/><path class="c" d="M24.66,13.89A95.7,95.7,0,0,0-2.79,16.5"/><path class="c" d="M11.63,27.27c-4.44.35-8.94.89-13.41,1.67"/><path class="b" d="M239.28-11.89c32.77,88.84,33.45,190.37,81,274.4"/><path class="c" d="M201.8-3.3A161.93,161.93,0,0,1,177,16.16"/><path class="c" d="M224.34-2.71c-9.44,16.33-25.16,29.24-40.56,39.39"/><path class="c" d="M239.28-4.06c-5.57,25.73-26,47.33-47.52,61.13"/><path class="c" d="M247.43,14.31c-6.08,26.14-27,47.95-49.07,61.86"/><path class="c" d="M252.54,36.57c-6.26,25.48-26.6,46.75-48.22,60.35"/><path class="c" d="M257.46,57.36c-6.14,24-24.95,45-45.51,57.82"/><path class="c" d="M263.44,74.91c-6.21,25.1-25.57,43.82-46.1,58"/><path class="c" d="M267.74,95.91c-5.56,21.78-21.64,41.65-40,54"/><path class="c" d="M272,122.39c-5.2,19.92-18.09,37.61-33.95,50.42"/><path class="c" d="M277.79,147.4a91.83,91.83,0,0,1-28.49,46.53"/><path class="c" d="M283.68,170.25a89.6,89.6,0,0,1-21.07,40.55"/><path class="c" d="M290,194.05a94.84,94.84,0,0,1-14.39,34.34"/><path class="c" d="M297.1,220.25s-2,12.83-11.3,21.21"/><path class="c" d="M305.66,237.53s-.77,7.42-8.12,15.53"/><path class="c" d="M265.57-1.73a53.68,53.68,0,0,1,13.22,7.22"/><path class="c" d="M247.54,16.23c12.85,1.1,26.51,4.44,36.85,12.49"/><path class="c" d="M252.71,36.52c12.79,1.12,26.37,4.49,36.62,12.55"/><path class="c" d="M257.47,57.63c10.07-.19,22.93,2.48,30,10.28"/><path class="c" d="M263.56,79.13S281.33,77,288.11,87.5"/><path class="c" d="M270.76,101.76s17.78-2.13,24.81,8.3"/><path class="c" d="M272.22,125.13S290,123,297.45,133.32"/><path class="c" d="M276.9,150.23s15.16.27,24.07,7.47"/><path class="c" d="M283.37,176.08s9.19-1.61,18.61,5.45"/><path class="c" d="M289.41,197.92s7.8-.61,17.24,4.74"/><path class="c" d="M298.92,219.31a30.23,30.23,0,0,1,11.7,3"/><path class="c" d="M306.58,237.25a18.92,18.92,0,0,1,8.78,2.1"/><path class="d" d="M486.38-3.55c-44.85,58.45-67,137.92-79.91,206.13-26.16,138.58-18.39,284.71-74.71,417.68C428.64,526.42,475.46,404.55,512.54,279L511.88-3.55Z"/><path class="b" d="M512.54,33.68C425,187.3,434.45,400.37,365.66,557.48"/><path class="c" d="M505.54,53a87.05,87.05,0,0,0,7,32.77"/><path class="c" d="M492.1,78.41c.69,20.32,8.87,40.07,21.39,56.28"/><path class="c" d="M481.86,105.6c1.28,24.07,13.15,46.9,30,64.22"/><path class="c" d="M472.43,135.25c2.45,28.19,18.48,54.7,40,72.9"/><path class="c" d="M464.05,165.17c4,31.66,23.13,61.71,48.49,80.51"/><path class="c" d="M454.49,192.57c4.41,32.12,24.17,62.47,50.15,81.33"/><path class="c" d="M448.05,225.09c4.69,31.31,23.87,60.91,49.3,79.3"/><path class="c" d="M441.87,255.5c4.71,29.77,22.47,58.18,46.5,76.07"/><path class="c" d="M434.7,281.41c4.54,30.06,22.64,58.62,47.12,76.3"/><path class="c" d="M429.18,312c4.58,27.33,19.25,53.87,40.78,71.41"/><path class="c" d="M423.46,350.45c4.05,24.61,15.88,50.21,34.39,67.17"/><path class="c" d="M416.21,387c3.41,22.36,12.8,46,28.67,62.38"/><path class="c" d="M408.91,420.48c2.78,19.38,9.45,38.95,20.95,54.9"/><path class="c" d="M401.15,455.38c2,16.13,6.22,32.67,14,47"/><path class="c" d="M392.37,493.81c1.38,10.34,4.6,20.46,11.24,28.68"/><path class="c" d="M382.42,519.72a43.42,43.42,0,0,0,8.08,21"/><path class="c" d="M513.9,5.41a92.19,92.19,0,0,0-30.08,11.84"/><path class="c" d="M513.89,28.22c-15.33,1.21-31,5.57-43.81,13.94"/><path class="c" d="M502.21,56.22C486,58.7,469.33,65,456.83,75.81"/><path class="c" d="M490,81.29c-16,2.52-32.28,8.9-44.34,19.83"/><path class="c" d="M479.93,107.1c-15.72,2.55-31.78,9-43.45,20"/><path class="c" d="M471.15,135c-15.5,2.59-31.32,9.14-42.66,20.2"/><path class="c" d="M461.85,161.49c-15.17,3.56-30.34,11.19-40.71,23"/><path class="c" d="M454.3,195.34c-15,3.59-30,11.29-40.18,23.1"/><path class="c" d="M447.87,225.05c-15,3.62-29.85,11.36-39.93,23.16"/><path class="c" d="M441.85,255.87c-12.74,1.74-25.43,8-32.66,19"/><path class="c" d="M434.39,287.46c-10.8.06-21.86,5.47-26.76,15.47"/><path class="c" d="M425.69,320.8c-10.85.06-22,5.45-27,15.41"/><path class="c" d="M423.13,354.39c-10.94.06-22.15,5.42-27.48,15.31"/><path class="c" d="M417,390.91c-9.56,1.95-19.82,6.46-26.2,14.11"/><path class="c" d="M409,428.76s-9.81-1-20.24,10.44"/><path class="c" d="M401.58,460.82s-8.36.24-18.75,9.24"/><path class="c" d="M390.45,492.73s-5.37.63-12.71,5.95"/><path class="c" d="M381.44,519.45s-4.07.13-9.53,4.25"/><path class="d" d="M181.18-4.28c59.59,60,56.87,146.93,31.68,222.66-30.52,91.74-92.87,175.38-95.6,276.39A355.22,355.22,0,0,1,79.86,345c-.7-28.91,1.94-57.65,6.29-86.24C66,310.79,36.94,358.36-8.28,396.41c23-92.18,14-188.16,28.64-280.37C26.76,75.6,37.26,33.68,55.33-4"/><path class="b" d="M91.12-3.48C46.76,108.28,52.88,239.71,11.42,353.44"/><path class="c" d="M122-3.3a56.9,56.9,0,0,0,9,8.14"/><path class="c" d="M101.92-3.48A61.45,61.45,0,0,0,125,23.84"/><path class="c" d="M88.93,3.09c2.89,19.9,17.75,35.84,35.15,44.72"/><path class="c" d="M80.73,22.68c3.6,21.71,21.51,40.23,41.06,48.94"/><path class="c" d="M74.93,42.88c4.36,23,24.26,41.61,45.14,50.35"/><path class="c" d="M69.74,64.53C75,87.77,95,106.72,116.15,116.13"/><path class="c" d="M65.19,86.08C71.26,109,90.31,128.37,111,138.88"/><path class="c" d="M59.29,105.78c6.51,23.47,26.31,43.15,47.5,54"/><path class="c" d="M56.09,128.51c6.67,23.14,26.22,42.57,47.07,53.53"/><path class="c" d="M52.82,149.59c6.8,23,25.38,39.62,44.89,52.13"/><path class="c" d="M48.33,167.44c6.61,22.69,25.66,41.83,45.88,53"/><path class="c" d="M45.47,188.25c6.26,20.67,22.56,39,40.56,50.33"/><path class="c" d="M43,214.23c6.11,19.69,19.93,35.21,35.39,48.24"/><path class="c" d="M39.08,238.79C44.69,257,56.22,271.42,69.8,284.35"/><path class="c" d="M35.17,261.21A101.78,101.78,0,0,0,59,301.72"/><path class="c" d="M31.27,284.66c3.74,12.42,9.47,24.84,17.56,35"/><path class="c" d="M27.3,310.75s3.47,13.1,13.58,22.28"/><path class="c" d="M21.39,328.08s1.78,7.65,10.07,16.67"/><path class="c" d="M68.9-4a80.44,80.44,0,0,0-8.12,5.94"/><path class="c" d="M86.65,5.84c-12.26,4.55-24.3,11.22-33.57,20.54"/><path class="c" d="M79.3,25C67.17,29.26,55.2,35.68,46.07,44.84"/><path class="c" d="M73.53,44.18c-12,4-24,10.15-33,19.15"/><path class="c" d="M68.7,64.49c-12,3.69-23.89,9.56-32.88,18.39"/><path class="c" d="M63.15,83.77C51.51,87.76,39.92,93.92,31.5,103"/><path class="c" d="M59.31,107.7C47.68,111.33,36,117.14,27.51,126"/><path class="c" d="M55.93,128.5c-11.66,3.31-23.45,8.79-32.08,17.48"/><path class="c" d="M52.83,149.84c-9.56,1.62-20.59,5.59-26.57,13.71"/><path class="c" d="M48.43,171.55s-16.23,0-22,10.61"/><path class="c" d="M43,194.18s-16.46-.42-22.55,9.88"/><path class="c" d="M42.91,216.9s-16.69-.87-23.1,9.23"/><path class="c" d="M40.1,241.5s-14.23.87-22.18,7.91"/><path class="c" d="M35.93,266.92a23.4,23.4,0,0,0-17.2,5.41"/><path class="c" d="M32.18,288.5s-7.49-.64-15.95,4.43"/><path class="c" d="M25.45,309.74a25.53,25.53,0,0,0-10.8,2.62"/><path class="c" d="M20.47,327.74a15.47,15.47,0,0,0-8.07,1.73"/><path class="b" d="M156.78-10.3c17,30.31,27.06,65,29.86,99.23,10.09,123.73-72,232.47-74.29,355.37"/><path class="c" d="M158.81-6.15a42.5,42.5,0,0,1-17.72,28.64"/><path class="c" d="M168.25,13.25C162,25.39,151.48,36.32,139,42"/><path class="c" d="M173.77,30.59c-7.91,15.29-22.62,23.67-38.14,29.65"/><path class="c" d="M179,49.84c-9.78,16.5-26.72,24.5-44.46,29.68"/><path class="c" d="M183.11,69.33c-10.73,16.21-29.8,25.31-48.49,28.58"/><path class="c" d="M185.62,91c-12.36,18.5-37.6,27.11-58.82,28"/><path class="c" d="M187.36,111.24c-15.26,20.84-42.66,27-66.89,28.93"/><path class="c" d="M185.69,131.35c-16.64,21.44-46.08,26.83-71.51,28"/><path class="c" d="M182.4,152.59c-17.68,20.91-46.89,26.58-72.8,27.86"/><path class="c" d="M178.11,173.58c-17.88,19.33-46.47,27.54-72,28.49"/><path class="c" d="M175.79,193.54c-18.52,19.42-47.65,27.56-73.7,28.33"/><path class="c" d="M168.87,215.3c-18.34,18.77-46.67,26.75-72.2,27.47"/><path class="c" d="M162.54,235.71C145.08,253.23,118.2,261.77,94,262.38"/><path class="c" d="M158.77,253.86c-18.1,18.46-44.29,24.74-69.19,26.55"/><path class="c" d="M151.81,274.14C135.94,290.07,112,299,89.88,300.29"/><path class="c" d="M142,299.12c-14.6,14.51-34.7,23.19-54.86,26.16"/><path class="c" d="M134.29,323.58a91.9,91.9,0,0,1-48.19,25.6"/><path class="c" d="M127.74,346.26A89.61,89.61,0,0,1,89,370.47"/><path class="c" d="M121.06,370a95,95,0,0,1-29.85,22.26"/><path class="c" d="M113.89,396.14s-8.21,10.05-20.51,12.52"/><path class="c" d="M112.47,415.37s-4.43,6-14.88,9.25"/><path class="c" d="M160.44-2.95C170.53.54,181,6.1,188.12,14.23"/><path class="c" d="M169.42,16.5C182.64,21.24,195.6,28.58,205.14,39"/><path class="c" d="M174.14,33.15c13,4.66,25.77,11.89,35,22.31"/><path class="c" d="M181.18,50.44c13.63,6.84,27,16,36.61,27.92"/><path class="c" d="M184.26,71.06c13.34,6.65,26.48,15.61,35.7,27.43"/><path class="c" d="M187.24,94.15c12.1,7.45,23.85,17.09,31.14,29.45"/><path class="c" d="M188.08,113.79c11.82,7.34,23.3,16.9,30.17,29.18"/><path class="c" d="M186.76,133c11.58,7.26,22.83,16.75,29.34,28.95"/><path class="c" d="M183.59,152.92C195,160.1,206,169.54,212.2,181.67"/><path class="c" d="M181.39,172.26c10.65,7.53,20.88,17.38,25.89,29.62"/><path class="c" d="M174.9,195.25c10.52,7.48,20.58,17.3,25.4,29.48"/><path class="c" d="M169,215.35c10.45,7.46,20.43,17.27,25.17,29.42"/><path class="c" d="M162.42,235.94c8.77,5,18.49,13.8,20.57,24.09"/><path class="c" d="M156.73,257.56s16.38,7.21,16.89,19.69"/><path class="c" d="M151.43,280.71s16.39,7.2,17.15,19.76"/><path class="c" d="M140.81,301.58s16.43,7.21,17.57,19.87"/><path class="c" d="M132.08,325.57S145,333.51,149,344.24"/><path class="c" d="M124.52,351.12s8.73,3.28,13.25,14.15"/><path class="c" d="M118.61,373s7,3.44,12.44,12.85"/><path class="c" d="M115.93,396.25a30.28,30.28,0,0,1,8.55,8.53"/><path class="c" d="M113.41,415.6a19,19,0,0,1,6.5,6.27"/><path class="d" d="M303.19-11c-4.27,72.27-4.42,145.85-37.62,212.55A355.06,355.06,0,0,0,368.92,86.9c17.19-30.49,29.94-63.06,40.81-96.37"/><path class="b" d="M339.44-13.34c-9.74,59.23-18.52,118.93-45.83,172.63"/><path class="c" d="M376.22-6.15A116.87,116.87,0,0,0,395.29,7.32"/><path class="c" d="M357.16-2.95c9.29,11.27,21.25,20.53,33.53,28.25"/><path class="c" d="M338.7-9.47c6.52,21.51,23.46,40.66,42.39,52.18"/><path class="c" d="M335.6,17.17c6.07,19.67,19.73,36.78,36.14,48.88"/><path class="c" d="M330.94,42.41a91.77,91.77,0,0,0,30.52,45.23"/><path class="c" d="M326.07,65.5a89.56,89.56,0,0,0,22.84,39.58"/><path class="c" d="M320.84,89.56a94.94,94.94,0,0,0,15.9,33.67"/><path class="c" d="M314.87,116.05s2.52,12.73,12.23,20.69"/><path class="c" d="M307.08,133.69s1.1,7.38,8.81,15.16"/><path class="c" d="M335.94-3.49S318.09-4.83,311.52,5.9"/><path class="c" d="M335.51,19.92s-17.88-1.34-24.83,9.3"/><path class="c" d="M332,45.2s-15.13.94-23.71,8.53"/><path class="c" d="M326.63,71.31s-9.25-1.2-18.34,6.27"/><path class="c" d="M321.57,93.4s-7.82-.27-17,5.5"/><path class="c" d="M313,115.19a30.2,30.2,0,0,0-11.55,3.51"/><path class="c" d="M306.15,133.45a19,19,0,0,0-8.68,2.49"/><path class="e" d="M527,309.36c-30.37,52.56-16.58,48-35.32,115.66-9.82,35.46-17.4,77-29.4,117.87-11.64,39.64-27.64,78.52-39.43,114.89C407.55,705,396.57,747.48,384.6,773.2c-7.27,10.87-18,20.14-25,31.32-7.23,11.54-10.77,25.09-17.23,35.93C335,853,324.73,862.62,319,872.69c-11.85,20.72-34.28,24.68-16.69,33.81,15.2,7.89,16.2,3.78,33.31,3.78s17.12-4,34.23-4,17.12,4,34.24,4,17.55,2.32,33.51-3.86c17.29-6.71,7.26-12.65,13.1-33.16,3.1-10.86,2.69-24.31,6-36.81s10.26-23.88,12.73-35.06c3.64-16.45,2.1-31.28,1.45-37.76,6.72-9,19.18-20,27.35-39.09,5.18-12.07,6.33-28,10.37-46.1,3-13.5,9.46-28.27,11.19-45.89,1.4-14.19-1.7-30-1.46-47.27.31-21.68,4.68-45.21,5.08-69.18.39-23.19-3.19-46.81-2.78-69.31.46-25,4.91-48.65,5.31-69.17C526.69,336.59,544.33,279.38,527,309.36Z"/><path class="f" d="M527,309.36c-30.37,52.56-16.58,48-35.32,115.66-9.82,35.46-17.4,77-29.4,117.87-11.64,39.64-27.64,78.52-39.43,114.89C407.55,705,396.57,747.48,384.6,773.2c-7.27,10.87-18,20.14-25,31.32-7.23,11.54-10.77,25.09-17.23,35.93C335,853,324.73,862.62,319,872.69c-11.85,20.72-34.28,24.68-16.69,33.81,15.2,7.89,16.2,3.78,33.31,3.78s17.12-4,34.23-4,17.12,4,34.24,4,17.55,2.32,33.51-3.86c17.29-6.71,7.26-12.65,13.1-33.16,3.1-10.86,2.69-24.31,6-36.81s10.26-23.88,12.73-35.06c3.64-16.45,2.1-31.28,1.45-37.76,6.72-9,19.18-20,27.35-39.09,5.18-12.07,6.33-28,10.37-46.1,3-13.5,9.46-28.27,11.19-45.89,1.4-14.19-1.7-30-1.46-47.27.31-21.68,4.68-45.21,5.08-69.18.39-23.19-3.19-46.81-2.78-69.31.46-25,4.91-48.65,5.31-69.17C526.69,336.59,544.33,279.38,527,309.36Z"/><path class="g" d="M399.26,747.18c7,2.59,15.92-3.92,19.82-14.55,4.88-13.28,1.7-26.67-7.11-29.9a15.33,15.33,0,0,0-8.63-.49c-8.83,1.94-17.77,10.78-22.34,23.23-7.62,20.75-2.65,41.67,11.11,46.72,17.2,6.32,38.87-9.59,48.39-35.53,11.91-32.42,4.14-65.11-17.36-73,0,0-19.95,29.78-21.14,38"/><path class="h" d="M524.1,379.48c-2.57,12.12-5.27,24.21-7.9,36.31L508.06,452l-4,18.15q-2,9.07-4.41,18l-2.5,8.95c-.89,3-1.72,5.95-2.66,8.91-1.81,5.92-3.72,11.83-5.9,17.67a.25.25,0,0,1-.48-.12c.78-6.18,1.83-12.3,3-18.39.54-3.06,1.19-6.09,1.78-9.13l1.93-9.09q2-9.06,4.47-18l4.89-17.93,9.6-35.88c3.29-11.95,6.5-23.91,9.85-35.83a.25.25,0,0,1,.31-.18A.25.25,0,0,1,524.1,379.48Z"/><path class="h" d="M522.09,488.23c-3.33,13.86-6.78,27.68-10.17,41.53l-10.41,41.46L496.4,592q-2.55,10.38-5.54,20.64l-3.07,10.24c-1.07,3.4-2.09,6.81-3.21,10.2-2.2,6.79-4.48,13.55-7,20.24a.25.25,0,0,1-.32.15.25.25,0,0,1-.16-.28c1.16-7.06,2.59-14.06,4.11-21,.74-3.49,1.57-7,2.35-10.43l2.5-10.39q2.58-10.38,5.59-20.63l6-20.51,11.86-41.07c4-13.66,8-27.35,12.1-41a.25.25,0,0,1,.48.13Z"/><path class="h" d="M482.07,557.54c-1.62,7.34-3.36,14.64-5,22l-2.59,11-2.68,10.93c-.86,3.65-1.72,7.31-2.54,11s-1.83,7.27-3,10.85l-1.78,5.34c-.64,1.77-1.24,3.55-1.93,5.31-1.34,3.52-2.76,7-4.45,10.44a.26.26,0,0,1-.34.11.25.25,0,0,1-.14-.25c.3-3.8.88-7.53,1.54-11.24.31-1.86.71-3.7,1.07-5.54l1.21-5.5q1.29-5.48,3-10.84c1.18-3.56,2.33-7.14,3.46-10.71l3.32-10.76,3.39-10.73c2.33-7.14,4.58-14.3,7-21.42a.25.25,0,0,1,.49.13Z"/><path class="h" d="M512.78,608.41c-4.71,13.54-9.54,27.05-14.31,40.57l-14.54,40.49-7.17,20.28q-3.58,10.14-7.6,20.12l-4.08,10c-1.41,3.3-2.77,6.62-4.23,9.9-2.87,6.58-5.82,13.12-9,19.57a.25.25,0,0,1-.34.12.25.25,0,0,1-.13-.29c1.87-7,4-13.82,6.21-20.65,1.08-3.42,2.26-6.81,3.39-10.21l3.54-10.16q3.6-10.14,7.64-20.1l8.06-20,15.95-39.95c5.39-13.29,10.72-26.61,16.17-39.87a.25.25,0,0,1,.33-.14A.26.26,0,0,1,512.78,608.41Z"/><path class="h" d="M412.4,819.42c-2.49,7.56-5.12,15.06-7.67,22.6l-7.91,22.51q-2,5.63-3.86,11.29T388.68,887l-2.43,5.45c-.86,1.8-1.67,3.62-2.57,5.4-1.76,3.58-3.61,7.12-5.71,10.57a.26.26,0,0,1-.47-.18c.77-4,1.79-7.83,2.9-11.66.53-1.93,1.16-3.82,1.74-5.72l1.87-5.67q2-5.64,4.33-11.11t4.75-10.95l9.31-22c3.18-7.29,6.3-14.61,9.54-21.88a.25.25,0,0,1,.33-.13A.25.25,0,0,1,412.4,819.42Z"/><path class="h" d="M401.37,779.41c-1.92,5.33-4,10.6-5.94,15.91l-3.06,7.92-3.12,7.89c-1,2.63-2,5.3-3,8a81.29,81.29,0,0,1-3.41,7.77c-1.28,2.52-2.65,5-4.11,7.45a68.77,68.77,0,0,1-4.81,7.15.26.26,0,0,1-.36,0,.27.27,0,0,1-.1-.25,69.39,69.39,0,0,1,2-8.36c.83-2.73,1.74-5.41,2.76-8.06a78.64,78.64,0,0,1,3.45-7.74c1.3-2.52,2.62-5,3.86-7.56l3.74-7.62,3.81-7.59c2.6-5,5.12-10.1,7.78-15.11a.25.25,0,0,1,.45.21Z"/><path class="h" d="M361.45,863.93c-2.11,4.26-4.34,8.45-6.51,12.67l-3.34,6.29-3.39,6.24c-1.14,2.08-2.2,4.21-3.28,6.32a53.76,53.76,0,0,1-3.67,6.09c-1.35,2-2.78,3.85-4.32,5.69a48.4,48.4,0,0,1-5,5.29.26.26,0,0,1-.37,0,.27.27,0,0,1-.06-.24,49.61,49.61,0,0,1,2.4-6.86c.92-2.21,1.95-4.35,3.05-6.45a53.69,53.69,0,0,1,3.71-6.06c1.37-1.94,2.77-3.86,4.09-5.83l4-5.9,4-5.86c2.74-3.87,5.43-7.78,8.22-11.62a.25.25,0,0,1,.35-.06A.23.23,0,0,1,361.45,863.93Z"/><path class="h" d="M454.19,763c-2.85,13.27-5.82,26.5-8.73,39.75l-9,39.69-4.39,19.87q-2.19,9.93-4.82,19.76l-2.71,9.81c-.95,3.25-1.85,6.52-2.86,9.77-2,6.5-4,13-6.31,19.39a.25.25,0,0,1-.48-.12c.92-6.75,2.1-13.44,3.38-20.11.61-3.34,1.32-6.66,2-10l2.14-9.94q2.21-9.93,4.87-19.75l5.3-19.64L443,802.19c3.55-13.09,7-26.19,10.66-39.27a.25.25,0,0,1,.49.12Z"/><path class="i" d="M60.16,629.82C60,627.21,55.8,565,82.65,502.44c11.84-27.6,26.75-52.81,42-71,11.06-13.18,27.49-28.89,43-28.89a19.92,19.92,0,0,1,7.91,1.58c.38.16.75.34,1.12.52l7.54-14.43,71,38.56,9,63.3-86.82,23.95c-2.68,7.72-5.7,15.49-9,23.15-14.2,33.11-41.38,56.92-61.68,71.06-21.91,15.27-40.25,22.68-41,23l-5.08,2Z"/><path class="h" d="M185.86,395.69l65.61,35.66,8.23,57.83-85.46,23.58c-2.78,8.14-6,16.46-9.57,24.87-26.78,62.4-100.52,91.9-100.52,91.9S59.55,566.43,86.32,504c24.33-56.71,59-97.45,81.31-97.45a15.91,15.91,0,0,1,6.34,1.26,15.71,15.71,0,0,1,4.17,2.66l7.72-14.8m-3.32-10.91L178.77,392l-4,7.63a24.32,24.32,0,0,0-7.16-1.05c-17,0-34.44,16.49-46,30.32-15.5,18.46-30.63,44-42.62,72-14.24,33.19-19.68,66.48-21.74,88.57-2.23,24-1.11,40-1.06,40.67L57,641,67.12,637c.79-.32,19.54-7.89,41.82-23.41,20.73-14.45,48.5-38.79,63.08-72.77,3-7.09,5.86-14.28,8.39-21.43l81.41-22.46,6.79-1.87-1-7-8.23-57.83-.57-4-3.53-1.92-65.6-35.65-7.15-3.89Z"/><polygon class="j" points="379.5 656.17 305.57 526.11 287.4 537.57 379.5 656.17"/><polygon class="j" points="400.53 642.9 326.6 512.84 308.43 524.3 400.53 642.9"/><path class="i" d="M298.68,539.65c-24.07,0-57.33-25.6-82.76-63.69C204.61,459,196,441.28,191,424.6l-.47-.69c-13.21-19.79-18.9-40-15.62-55.43,1.85-8.67,6.42-15.53,13.24-19.83a29.89,29.89,0,0,1,16.21-4.54c18,0,38,13.86,53.51,37.06.16.24.31.48.47.71,13.62,11.25,26.79,26.11,38.09,43.05,22.21,33.25,33.45,69.31,28.65,91.87-1.85,8.71-5.9,15.09-12.05,19a26.4,26.4,0,0,1-14.33,3.89Z"/><path class="h" d="M204.34,348.11c15.6,0,34.61,12,50.18,35.28.27.4.52.79.77,1.19,13,10.63,26.2,25.2,37.79,42.57,30.22,45.25,38.19,92.37,17.8,105.23a22.42,22.42,0,0,1-12.2,3.27c-22,0-54.42-24.45-79.44-61.92-11.59-17.36-19.91-35-24.6-50.88l-.81-1.17c-20.71-31-20.33-59.07-3.57-69.64a26,26,0,0,1,14.08-3.93m0-8A33.86,33.86,0,0,0,186,345.27c-7.74,4.89-12.93,12.63-15,22.38-3.56,16.73,2.19,37.5,16.2,58.47l.16.24c5.15,16.88,13.87,34.76,25.25,51.82,26.15,39.16,60.75,65.47,86.09,65.47a30.34,30.34,0,0,0,16.47-4.5c7-4.41,11.77-11.85,13.83-21.52,5.09-23.92-6.12-60.29-29.24-94.93-11.39-17.05-24.65-32.07-38.4-43.5,0-.09-.11-.17-.16-.25-16.24-24.32-37.49-38.84-56.84-38.84Z"/><path class="k" d="M297.47,451.26l33.58,5.52L356,373.44c8-2.55,16.27-5.5,24.59-8.86,61.78-24.95,92.27-96.67,92.27-96.67S411,262.07,349.25,287s-104.85,62.53-96.2,84a15,15,0,0,0,2.53,4.14l-6.36,7.27"/><path class="h" d="M232,440.23a91.19,91.19,0,0,0,17.78,40.14c1,1.32,2.72-.19,2.51-1.46L250,465l-2.74,1.15a36.88,36.88,0,0,0,10.44,10.46,1.51,1.51,0,0,0,2.2-.89,21.08,21.08,0,0,0-2.13-15.79,1.5,1.5,0,0,0-2.59,1.52A18,18,0,0,1,257,474.88l2.21-.9a33.09,33.09,0,0,1-9.37-9.38,1.51,1.51,0,0,0-2.74,1.16l2.25,13.94,2.5-1.46a88.09,88.09,0,0,1-17-38.81c-.33-1.89-3.22-1.09-2.89.8Z"/><g class="l"><path class="m" d="M198.66,462.46c9.49,21.06,4.92,43.65,4.92,43.65s-20-11.55-29.44-32.6-11.69-40.61-4.92-43.66S189.17,441.4,198.66,462.46Z"/><path class="m" d="M175.45,467.51c9.48,21.06,4.91,43.66,4.91,43.66s-20-11.55-29.43-32.61S139.24,438,146,434.91,166,446.46,175.45,467.51Z"/><path class="m" d="M157.34,493.39c11.93,19.78,10.09,42.76,10.09,42.76s-21.18-9.09-33.12-28.86-16.45-38.92-10.09-42.76S145.41,473.62,157.34,493.39Z"/><path class="m" d="M149.12,516.8C160,537.15,157,560,157,560s-20.7-10.14-31.61-30.5S111,489.81,117.5,486.3,138.2,496.45,149.12,516.8Z"/><path class="m" d="M137.3,536.21c8.73,21.38,3.35,43.8,3.35,43.8s-19.52-12.25-28.25-33.64-10.24-41-3.36-43.8S128.57,514.83,137.3,536.21Z"/><path class="m" d="M122.05,550.78c6.86,22.06-.42,43.93-.42,43.93s-18.4-13.89-25.26-35.94-6.67-41.72.42-43.93S115.19,528.73,122.05,550.78Z"/><path class="m" d="M107.05,574.15c7.26,18.45.64,38.33.64,38.33S89.29,602.45,82,584s-7.54-35.61-.63-38.33S99.79,555.7,107.05,574.15Z"/><path class="m" d="M86.18,587.81c5.82,19-2.33,38.26-2.33,38.26S66.28,614.65,60.47,595.7s-4.78-36.09,2.32-38.27S80.36,568.85,86.18,587.81Z"/><path class="m" d="M184,421.72c6.85,18.61-.22,38.33-.22,38.33s-18.17-10.44-25-29-6.74-35.77.23-38.33S177.19,403.12,184,421.72Z"/><path class="m" d="M166.85,429.66c3.81,19.46-6.3,37.82-6.3,37.82s-16.28-13.19-20.09-32.65-1-36.38,6.29-37.81S163,410.21,166.85,429.66Z"/><path class="m" d="M149.43,444.88c3.81,19.46-6.3,37.81-6.3,37.81S126.85,469.51,123,450.05s-1-36.38,6.29-37.81S145.62,425.43,149.43,444.88Z"/><path class="m" d="M133.91,462.19c3.81,19.46-6.29,37.81-6.29,37.81s-16.29-13.18-20.1-32.64-1-36.39,6.3-37.81S130.1,442.73,133.91,462.19Z"/><path class="m" d="M119.44,480.16c3.81,19.45-6.3,37.81-6.3,37.81S96.86,504.78,93,485.33s-1-36.39,6.3-37.82S115.63,460.7,119.44,480.16Z"/><path class="m" d="M105,503.38c3.81,19.45-6.29,37.81-6.29,37.81S82.38,528,78.57,508.55s-1-36.39,6.3-37.81S101.15,483.92,105,503.38Z"/><path class="m" d="M94.7,535.09c3.81,19.46-6.3,37.82-6.3,37.82s-16.28-13.19-20.09-32.65-1-36.38,6.29-37.81S90.89,515.64,94.7,535.09Z"/><path class="m" d="M82.43,562.56c3.82,19.45-6.29,37.81-6.29,37.81S59.85,587.18,56,567.73s-1-36.39,6.3-37.81S78.62,543.1,82.43,562.56Z"/></g><g class="n"><path class="m" d="M295.93,415.29c19.71,10.42,41.76,7.38,41.76,7.38s-9.91-19.93-29.63-30.35-38.41-13.72-41.76-7.38S276.22,404.87,295.93,415.29Z"/><path class="m" d="M304,395c20.27,9.29,42.11,5,42.11,5s-11-19.34-31.28-28.64-39.12-11.55-42.11-5S283.7,385.66,304,395Z"/><path class="m" d="M309,372.58c20.27,9.29,42.11,5,42.11,5s-11-19.34-31.28-28.64-39.12-11.55-42.11-5S288.73,363.28,309,372.58Z"/><path class="m" d="M334.09,355.26c19,11.65,41.21,10,41.21,10s-8.63-20.51-27.64-32.17-37.46-16.14-41.21-10S315.08,343.61,334.09,355.26Z"/><path class="m" d="M356.75,347.47c19.57,10.68,41.66,7.93,41.66,7.93s-9.66-20.06-29.24-30.73-38.23-14.23-41.66-7.93S337.17,336.8,356.75,347.47Z"/><path class="m" d="M375.56,336.18c20.58,8.57,42.26,3.53,42.26,3.53s-11.7-18.94-32.29-27.51-39.5-10.15-42.26-3.52S355,327.61,375.56,336.18Z"/><path class="m" d="M389.73,321.55c21.25,6.77,42.41-.12,42.41-.12s-13.29-17.86-34.54-24.62-40.23-6.71-42.4.12S368.48,314.79,389.73,321.55Z"/><path class="m" d="M412.38,307.22c17.76,7.13,37,.87,37,.87s-9.56-17.84-27.32-25-34.33-7.52-37-.87S394.62,300.09,412.38,307.22Z"/><path class="m" d="M425.71,287.16c18.25,5.74,37-2,37-2s-10.91-17-29.17-22.78-34.81-4.84-36.95,2S407.45,281.42,425.71,287.16Z"/><path class="m" d="M264.73,380.57c17.92,6.73,37,0,37,0s-10-17.61-27.88-24.35-34.49-6.74-37,0S246.81,373.84,264.73,380.57Z"/><path class="m" d="M272.51,364c18.76,3.8,36.54-5.84,36.54-5.84s-12.62-15.81-31.38-19.62-35.12-1.19-36.54,5.84S253.75,360.22,272.51,364Z"/><path class="m" d="M287.31,347.3c18.76,3.81,36.55-5.83,36.55-5.83s-12.63-15.81-31.38-19.62-35.12-1.19-36.55,5.83S268.56,343.5,287.31,347.3Z"/><path class="m" d="M304.12,332.43c18.76,3.81,36.55-5.83,36.55-5.83S328,310.79,309.29,307s-35.12-1.2-36.55,5.83S285.37,328.63,304.12,332.43Z"/><path class="m" d="M321.56,318.57c18.76,3.81,36.55-5.83,36.55-5.83s-12.63-15.81-31.38-19.62-35.12-1.2-36.55,5.83S302.81,314.76,321.56,318.57Z"/><path class="m" d="M344.08,304.74c18.75,3.81,36.54-5.83,36.54-5.83S368,283.1,349.24,279.29s-35.12-1.19-36.55,5.84S325.32,300.94,344.08,304.74Z"/><path class="m" d="M374.76,295c18.76,3.81,36.54-5.83,36.54-5.83s-12.62-15.82-31.38-19.62-35.12-1.2-36.54,5.83S356,291.23,374.76,295Z"/><path class="m" d="M401.35,283.38c18.76,3.8,36.55-5.84,36.55-5.84s-12.63-15.81-31.38-19.62-35.12-1.19-36.55,5.84S382.6,279.57,401.35,283.38Z"/><path class="o" d="M297.47,451.26l33.58,5.52L356,373.44c8-2.55,16.27-5.5,24.59-8.86,61.78-24.95,92.27-96.67,92.27-96.67S411,262.07,349.25,287s-104.85,62.53-96.2,84a15,15,0,0,0,2.53,4.14l-6.36,7.27"/></g><g class="p"><path class="q" d="M247.21,373.56s-6.33,35.32-53.38,48.12S178,342.35,178,342.35,269.8,340.29,247.21,373.56Z"/></g><path class="r" d="M160.26,351.16s12.68,19,19.35,22.13c4.8,2.23,7.78-10,6.08-11.59C181.71,357.94,160.26,351.16,160.26,351.16Z"/><ellipse class="h" cx="212.35" cy="365.93" rx="5.67" ry="7.08" transform="translate(-208.23 411.91) rotate(-66.11)"/><path class="e" d="M-262.5,274.39c52.2-20.95,92.22-53.71,109.35-85.69-38.95-8.5-99.68-2.89-127.69.46a56.35,56.35,0,0,0-27.32,11c-22.56,16.93-70.32,54.87-92.59,87.93C-366.27,299.33-314.7,295.33-262.5,274.39Z"/><path class="s" d="M-262.5,274.39c52.2-20.95,92.22-53.71,109.35-85.69-38.95-8.5-99.68-2.89-127.69.46a56.35,56.35,0,0,0-27.32,11c-22.56,16.93-70.32,54.87-92.59,87.93C-366.27,299.33-314.7,295.33-262.5,274.39Z"/><circle class="t" cx="395.92" cy="785.92" r="104.08"/><path class="u" d="M329.91,823.83h23.52v-75.6H334.72v-8.52c9.36-1.65,16.15-4.14,21.85-7.54h10.11v91.66h21.2v11h-58Z"/><path class="u" d="M409.93,823.83h23.52v-75.6H414.74v-8.52c9.35-1.65,16.15-4.14,21.84-7.54h10.11v91.66h21.2v11h-58Z"/></svg>