<svg xmlns="http://www.w3.org/2000/svg" width="510" height="900" viewBox="0 0 510 900"><defs><style>.a{fill:#ffdc82;}.b{fill:none;stroke-width:8px;}.b,.e,.g{stroke:#432d1e;}.b,.e{stroke-miterlimit:10;}.c,.e,.h{fill:#9980bf;}.d{fill:#432d1e;}.e{stroke-width:6px;}.f{fill:#56634a;}.g{fill:#fff;stroke-width:15px;}.g,.h{stroke-miterlimit:2;}.h{stroke:#9980bf;stroke-width:12px;}</style></defs><title>121</title><rect class="a" x="-6.98" y="594.7" width="530.42" height="315.87"/><path class="b" d="M443.28,287.87c-21.41,42.25-43.9,89.44-65.1,141.11"/><path class="c" d="M446,292.15a8.41,8.41,0,0,1-4.38-1.16c-9.23-5.47-3.1-25.58,3.94-37.45,6-10.14,13.23-15.73,20.3-15.73a12.12,12.12,0,0,1,6.3,1.73c4.1,2.43,6.34,6.82,6.31,12.37,0,5.22-2,11.17-5.87,17.68-6.49,10.94-18,22.56-26.6,22.56Z"/><path class="d" d="M465.88,241.81a8.31,8.31,0,0,1,4.26,1.16c5.57,3.31,6.35,12.27-1,24.58-6.41,10.81-16.92,20.6-23.16,20.6a4.46,4.46,0,0,1-2.34-.6c-5.57-3.3-2-19.66,5.34-32,5.61-9.45,11.78-13.77,16.86-13.77m0-8c-8.54,0-17,6.28-23.74,17.69-7.54,12.71-14.9,35.6-2.54,42.93a12.34,12.34,0,0,0,6.42,1.72c5.09,0,10.76-2.8,16.87-8.31a71.41,71.41,0,0,0,13.17-16.21c4.24-7.13,6.4-13.76,6.43-19.7,0-6.93-3-12.7-8.27-15.84a16.36,16.36,0,0,0-8.34-2.28Z"/><path class="c" d="M397.22,329.1c-9.09,0-18.27-14.75-21.92-24.05-2.49-6.35-3.38-11.95-2.64-16.63.79-5,3.49-8.7,7.59-10.31a11.37,11.37,0,0,1,4.15-.79c7,0,13.52,6.26,17.8,17.18A59,59,0,0,1,406.3,314c.21,10-3.28,13.43-6.24,14.6a7.74,7.74,0,0,1-2.84.52Z"/><path class="d" d="M384.4,281.32c4.8,0,10.17,4.67,14.08,14.64,4.66,11.88,5.49,26.78.12,28.89a3.79,3.79,0,0,1-1.38.25c-5.5,0-13.91-10.59-18.19-21.51-4.67-11.88-2.69-19.65,2.68-21.76a7.34,7.34,0,0,1,2.69-.51m0-8a15.43,15.43,0,0,0-5.61,1.06c-7.92,3.11-14.57,13.4-7.21,32.14a64.91,64.91,0,0,0,9.93,17c5.25,6.34,10.54,9.55,15.71,9.55a11.81,11.81,0,0,0,4.3-.8c12.51-4.91,9.34-26.69,4.41-39.27s-12.77-19.71-21.53-19.71Z"/><path class="c" d="M371,372.89c-9.09,0-18.27-14.75-21.92-24.05-2.49-6.36-3.39-11.95-2.65-16.63.8-5,3.5-8.7,7.6-10.31a11.16,11.16,0,0,1,4.14-.79c7,0,13.53,6.26,17.81,17.17a59.29,59.29,0,0,1,4.1,19.49c.21,10-3.28,13.43-6.25,14.59a7.69,7.69,0,0,1-2.83.53Z"/><path class="d" d="M358.13,325.11c4.8,0,10.17,4.67,14.08,14.64,4.66,11.87,5.49,26.78.11,28.89a3.7,3.7,0,0,1-1.37.25c-5.51,0-13.91-10.59-18.2-21.51-4.66-11.88-2.68-19.65,2.69-21.76a7.26,7.26,0,0,1,2.69-.51m0-8a15.38,15.38,0,0,0-5.6,1.06c-7.93,3.11-14.57,13.39-7.21,32.13a65.06,65.06,0,0,0,9.92,17c5.26,6.34,10.54,9.55,15.72,9.55a11.81,11.81,0,0,0,4.3-.8c7.52-2.95,8.92-11.64,8.78-18.4a63.32,63.32,0,0,0-4.38-20.87c-4.91-12.53-12.76-19.71-21.53-19.71Z"/><path class="c" d="M440.22,405c-5.08,0-21.78-.74-23.26-10.2-.5-3.15.74-7.92,9.43-12.76a59,59,0,0,1,18.88-6.32,46,46,0,0,1,7.17-.6c15.13,0,17.66,8.61,18.07,11.25.69,4.36-1.11,8.54-5.06,11.77-3.66,3-8.94,5.06-15.68,6.12a61.15,61.15,0,0,1-9.55.74Z"/><path class="d" d="M452.44,379.07c8.54,0,13.39,3.25,14.12,7.88.9,5.7-4.81,11.33-17.42,13.31a57.87,57.87,0,0,1-8.92.69c-9.78,0-18.62-2.44-19.31-6.82-.9-5.7,12.38-12.53,25-14.51a42.59,42.59,0,0,1,6.54-.55m0-8a50.4,50.4,0,0,0-7.79.65c-13.34,2.1-33.73,10.37-31.65,23.65C414.36,404,424.28,409,440.22,409a66.79,66.79,0,0,0,10.17-.78c19.88-3.13,25.4-14.06,24.07-22.47-1.11-7.07-7.48-14.63-22-14.63Z"/><path class="c" d="M456.15,354.87c-5.08,0-21.77-.73-23.26-10.19-.5-3.15.74-7.92,9.43-12.77a59.26,59.26,0,0,1,18.89-6.31,46,46,0,0,1,7.16-.6c15.13,0,17.66,8.61,18.08,11.25.68,4.36-1.12,8.54-5.06,11.77-3.67,3-8.94,5.06-15.69,6.12a61.15,61.15,0,0,1-9.55.73Z"/><path class="d" d="M468.37,329c8.54,0,13.4,3.25,14.12,7.87.9,5.7-4.81,11.34-17.41,13.32a58.1,58.1,0,0,1-8.93.69c-9.77,0-18.62-2.45-19.31-6.82-.9-5.71,12.38-12.53,25-14.51a41.56,41.56,0,0,1,6.54-.55m0-8a51.37,51.37,0,0,0-7.78.64,63.57,63.57,0,0,0-20.21,6.78,29.93,29.93,0,0,0-7.75,5.91c-3.81,4.26-4.11,8.32-3.69,11,1.36,8.63,11.28,13.58,27.21,13.58a65.34,65.34,0,0,0,10.17-.79c19.89-3.12,25.4-14,24.08-22.46-1.12-7.07-7.49-14.63-22-14.63Z"/><polyline class="b" points="432.39 344.93 413.61 348.38 400.99 329.69"/><polyline class="b" points="418.83 394.27 392.27 397.42 375.68 373.34"/><path class="b" d="M196.39,113c27.17,75.93,86.6,269.26,91.1,376.66"/><path class="c" d="M194.32,117c-6.56,0-17.47-9-24.75-25.78-4.72-10.84-6.45-25.14,4.19-29.77a12.15,12.15,0,0,1,4.89-1c7.51,0,14.7,6.65,19.75,18.24,5.5,12.66,9.07,33.38-.77,37.65A8.2,8.2,0,0,1,194.32,117Z"/><path class="d" d="M178.65,64.41c5.31,0,11.38,5,16.08,15.84,5.71,13.13,7.24,29.8,1.31,32.39a4.29,4.29,0,0,1-1.72.34c-6.17,0-15.89-11.43-21.09-23.38-5.71-13.13-3.81-21.92,2.13-24.5a8.12,8.12,0,0,1,3.29-.69m0-8h0a16.08,16.08,0,0,0-6.48,1.35c-5.64,2.46-9.35,7.8-10.18,14.68-.72,5.9.6,12.75,3.91,20.35,4.93,11.33,16.56,28.19,28.42,28.19a12.22,12.22,0,0,0,4.91-1c13.17-5.73,8.73-29.36,2.84-42.91-5.71-13.12-14.25-20.65-23.42-20.65Z"/><path class="c" d="M238,159.74a7.84,7.84,0,0,1-3.82-1c-2.8-1.53-5.83-5.41-4.37-15.26a59.18,59.18,0,0,1,6.5-18.82c5.24-9.61,11.76-14.9,18.36-14.9a11.21,11.21,0,0,1,5.47,1.39c9.36,5.1,6.68,17.92,1.54,27.35C256.08,148.82,245.88,159.74,238,159.74Z"/><path class="d" d="M254.68,113.81a7.29,7.29,0,0,1,3.55.9c5.07,2.76,6.06,10.72-.06,21.92-5.42,10-14.61,19.11-20.16,19.11a3.94,3.94,0,0,1-1.91-.46c-5.07-2.76-2.38-17.45,3.73-28.65,4.79-8.79,10.27-12.82,14.85-12.82m0-8h0c-4.71,0-13.81,2.2-21.87,17-6.47,11.86-12.34,33.08-.54,39.51a11.87,11.87,0,0,0,5.74,1.44c11.46,0,22.8-15.23,27.19-23.28,9.64-17.67,4.33-28.7-3.14-32.77a15.2,15.2,0,0,0-7.38-1.88Z"/><path class="c" d="M258.61,206.47a7.88,7.88,0,0,1-3.83-.95c-2.8-1.52-5.83-5.41-4.37-15.26a59.18,59.18,0,0,1,6.5-18.82c5.24-9.61,11.76-14.9,18.36-14.9a11.21,11.21,0,0,1,5.47,1.39c3.87,2.11,6.09,6.08,6.24,11.18.15,4.73-1.43,10.17-4.7,16.17C276.67,195.55,266.47,206.47,258.61,206.47Z"/><path class="d" d="M275.27,160.54a7.26,7.26,0,0,1,3.55.9c5.07,2.76,6.06,10.72-.05,21.92-5.43,9.95-14.62,19.11-20.16,19.11a4,4,0,0,1-1.92-.46c-5.06-2.76-2.38-17.45,3.73-28.65,4.79-8.79,10.27-12.82,14.85-12.82m0-8h0c-4.71,0-13.81,2.2-21.87,17-6.47,11.86-12.34,33.08-.54,39.51a11.91,11.91,0,0,0,5.75,1.44c11.46,0,22.79-15.23,27.18-23.28,9.64-17.67,4.34-28.7-3.14-32.78a15.27,15.27,0,0,0-7.38-1.87Z"/><path class="c" d="M271.34,263.3a7.88,7.88,0,0,1-3.83-.95c-2.8-1.52-5.83-5.41-4.37-15.25a59.24,59.24,0,0,1,6.5-18.83c5.24-9.61,11.77-14.9,18.37-14.9a11.31,11.31,0,0,1,5.46,1.39c9.36,5.11,6.68,17.93,1.54,27.35C289.41,252.38,279.21,263.3,271.34,263.3Z"/><path class="d" d="M288,217.37a7.43,7.43,0,0,1,3.55.9c5.06,2.77,6.05,10.72-.06,21.93-5.43,9.94-14.62,19.1-20.16,19.1a3.91,3.91,0,0,1-1.91-.46c-5.07-2.76-2.39-17.45,3.72-28.65,4.79-8.79,10.27-12.82,14.86-12.82m0-8h0c-4.71,0-13.82,2.21-21.88,17-6.47,11.86-12.34,33.07-.54,39.51a11.9,11.9,0,0,0,5.75,1.43c11.46,0,22.79-15.22,27.18-23.27,9.64-17.68,4.34-28.71-3.13-32.78a15.23,15.23,0,0,0-7.38-1.88Z"/><path class="c" d="M204.29,286.16a61.37,61.37,0,0,1-16.56-2.38c-10.32-3-21.31-10.1-18.35-20.35,1.66-5.74,7.36-9.17,15.24-9.17A40.74,40.74,0,0,1,195.75,256c12,3.47,28.45,13,25.71,22.48C220,283.44,213.93,286.16,204.29,286.16Z"/><path class="d" d="M184.62,258.26a36.52,36.52,0,0,1,10,1.6c12.26,3.54,24.58,12,23,17.52-.94,3.25-6.46,4.78-13.33,4.78a57.3,57.3,0,0,1-15.45-2.23c-12.26-3.54-17.22-9.84-15.62-15.39,1.11-3.82,5.05-6.28,11.4-6.28m0-8h0c-14.47,0-18.26,9.23-19.08,12.06-1.61,5.57,0,11.47,4.49,16.17,3.75,4,9.33,7,16.59,9.13a65.51,65.51,0,0,0,17.67,2.54c6.71,0,18.36-1.37,21-10.56.74-2.58.95-6.64-2.29-11.34a29.75,29.75,0,0,0-7-6.84,63.6,63.6,0,0,0-19.2-9.25,44.59,44.59,0,0,0-12.25-1.91Z"/><path class="c" d="M192,230a61.33,61.33,0,0,1-16.56-2.39c-10.32-3-21.31-10.1-18.35-20.34,1.66-5.75,7.36-9.18,15.24-9.18a40.4,40.4,0,0,1,11.13,1.76,59,59,0,0,1,17.95,8.63c8,5.9,8.65,10.78,7.76,13.84C207.71,227.28,201.61,230,192,230Z"/><path class="d" d="M172.3,202.1a36.52,36.52,0,0,1,10,1.6c12.26,3.55,24.58,12,23,17.52-.94,3.25-6.46,4.79-13.33,4.79a57.7,57.7,0,0,1-15.45-2.23c-12.26-3.55-17.22-9.85-15.62-15.39,1.11-3.83,5-6.29,11.4-6.29m0-8c-14.47,0-18.26,9.24-19.08,12.07-1.61,5.57,0,11.46,4.49,16.17,3.75,4,9.33,7,16.59,9.12A65.13,65.13,0,0,0,192,234c6.71,0,18.36-1.37,21-10.57.74-2.58.95-6.64-2.29-11.34a29.92,29.92,0,0,0-6.95-6.83,63.13,63.13,0,0,0-19.2-9.25,44.63,44.63,0,0,0-12.25-1.92Z"/><path class="c" d="M182.42,178.34A61.39,61.39,0,0,1,165.86,176c-10.31-3-21.31-10.1-18.35-20.34,1.67-5.75,7.36-9.18,15.24-9.18a40.47,40.47,0,0,1,11.14,1.76c12,3.46,28.44,13,25.71,22.47C198.17,175.61,192.07,178.34,182.42,178.34Z"/><path class="d" d="M162.75,150.43a36.59,36.59,0,0,1,10,1.6c12.26,3.54,24.58,12,23,17.52-.94,3.25-6.45,4.79-13.33,4.79A57.7,57.7,0,0,1,167,172.11c-12.26-3.55-17.22-9.85-15.61-15.39,1.1-3.83,5-6.29,11.39-6.29m0-8v0h0c-14.47,0-18.26,9.23-19.08,12.06-1.61,5.57,0,11.47,4.49,16.18,3.76,4,9.34,7,16.59,9.12a65.53,65.53,0,0,0,17.67,2.55c6.71,0,18.36-1.38,21-10.57C207.17,158.86,188,148.1,175,144.34a44.59,44.59,0,0,0-12.25-1.91Z"/><polyline class="b" points="200.06 170.97 218.26 176.75 233.12 159.78"/><polyline class="b" points="207.34 221.63 233.3 228.07 252.78 206.25"/><polyline class="b" points="217.23 278.05 248.76 281.74 267.13 261.17"/><path class="c" d="M242.23,435.7a142.39,142.39,0,0,1-3.29-27.61c-.11-10.33,1.41-22.57,8-29.84-32-9.81-39-35.71-39.29-36.91l-.74-2.92,2.6-1.52c.53-.31,13.18-7.59,28.48-7.59a41.21,41.21,0,0,1,18.86,4.32c-5.86-30.35,13.39-48.17,14.31-49l2-1.84,2.45,1.25c1.09.55,23.31,12.15,30.69,38.42A38,38,0,0,1,322.56,309c9.06-4.11,18.63-5,25.05-5a50.11,50.11,0,0,1,5.08.22l2.92.31.57,2.88a49.4,49.4,0,0,1-1,20c-2.24,9-7.94,21-22.22,30.17,27.72,21,26.14,49.5,26.06,50.77l-.21,3-2.94.64a80.34,80.34,0,0,1-15.23,1.39c-18.25,0-32.54-5.94-41.15-16.91-5,11.47-14.56,21.89-28,30.49a112.67,112.67,0,0,1-24.15,11.68l-4.12,1.3Z"/><path class="d" d="M273.85,287.6s29.09,14.8,30.79,49.2c5.72-26.07,32.14-28.8,43-28.8,2.88,0,4.65.19,4.65.19s6.45,32.21-26.74,49c31.62,20.11,29.54,50.83,29.54,50.83a75.78,75.78,0,0,1-14.38,1.3c-13.67,0-33.43-3.54-42.23-22.26-7.88,33.65-52.32,47.7-52.32,47.7S234,382.88,257.07,376.57c-38-6.76-45.52-36.22-45.52-36.22s12.06-7,26.46-7a36.34,36.34,0,0,1,25.76,10.08c-13-35,10.08-55.79,10.08-55.79M272.58,278l-4.08,3.68a53,53,0,0,0-11.89,17.54A58.87,58.87,0,0,0,252,327.36a47,47,0,0,0-14-2.05c-16.38,0-29.93,7.8-30.5,8.14l-5.21,3,1.49,5.84c.31,1.22,7.08,26.38,36.77,37.94-4.57,8-5.73,18.65-5.63,27.86a146.93,146.93,0,0,0,3.4,28.49l2,8.4,8.24-2.6c1.71-.54,36.57-11.85,51.94-38.92a45.5,45.5,0,0,0,14.18,9.13,67.65,67.65,0,0,0,26,4.72,84,84,0,0,0,16.07-1.48l5.89-1.27.41-6c.08-1.29,1.61-28.95-23.42-50.8a53.79,53.79,0,0,0,20.48-51.16L359,300.87l-5.83-.63c-.22,0-2.29-.24-5.51-.24-6.82,0-17,.93-26.71,5.34a43.53,43.53,0,0,0-13.1,9,70.37,70.37,0,0,0-30.32-33.9l-4.9-2.49Z"/><path class="e" d="M274.35,367s19,12,39.06-6.48"/><line class="e" x1="294.47" y1="368.14" x2="290.88" y2="346.45"/><path class="e" d="M302,366.9a15.81,15.81,0,0,0,1.58-16.18"/><path class="e" d="M287,369.39a15.82,15.82,0,0,1-6.72-14.81"/><path class="b" d="M75.24,334.41c18,33.35,36.76,69.86,55.08,109.3"/><path class="c" d="M73,338.69c-8.58,0-20.15-11.56-26.67-22.43-3.9-6.49-5.91-12.43-6-17.65-.06-5.55,2.16-9.95,6.25-12.41A12.2,12.2,0,0,1,53,284.45c7,0,14.25,5.55,20.3,15.63a66,66,0,0,1,8.1,20.63c2,10.7-1,15-4,16.8A8.47,8.47,0,0,1,73,338.69Z"/><path class="d" d="M53,288.45c5.07,0,11.23,4.29,16.87,13.69,7.37,12.27,11.06,28.61,5.51,31.94a4.54,4.54,0,0,1-2.36.61c-6.25,0-16.79-9.73-23.24-20.49-7.37-12.27-6.64-21.23-1.08-24.57a8.25,8.25,0,0,1,4.3-1.18m0-8h0a16.25,16.25,0,0,0-8.42,2.33c-5.28,3.16-8.26,9-8.19,15.87.06,5.94,2.26,12.56,6.53,19.67a71.36,71.36,0,0,0,13.22,16.12c6.12,5.47,11.8,8.25,16.88,8.25a12.39,12.39,0,0,0,6.48-1.75c7.29-4.38,7.19-13.82,5.83-21A69.88,69.88,0,0,0,76.68,298c-6.8-11.33-15.23-17.57-23.73-17.57Z"/><path class="c" d="M111.09,354.9a7.54,7.54,0,0,1-2.12-.3c-9.47-2.73-8.76-21.74-5.3-33.73,4.9-17,13.65-18.8,17.19-18.8a11.26,11.26,0,0,1,3.15.45c6.41,1.85,12.19,9.86,7.43,26.37C128.32,339.69,119.94,354.9,111.09,354.9Z"/><path class="d" d="M120.86,306.07a7.45,7.45,0,0,1,2,.29c5.55,1.6,8.23,9.16,4.69,21.42-3.33,11.53-11,23.12-16.5,23.12a3.85,3.85,0,0,1-1-.14c-5.55-1.6-6.11-16.52-2.56-28.78,3.11-10.78,8.35-15.91,13.34-15.91m0-8h0c-4.44,0-15.38,2.11-21,21.69a63.34,63.34,0,0,0-2.42,21.18,29.65,29.65,0,0,0,2.08,9.52c2.24,5.25,5.79,7.24,8.37,8a11.66,11.66,0,0,0,3.23.45c5.45,0,10.71-3.59,15.64-10.67A64.48,64.48,0,0,0,135.28,330c2.09-7.26,2.47-13.62,1.13-18.9-1.6-6.29-5.72-10.82-11.29-12.43a15.38,15.38,0,0,0-4.26-.6Z"/><path class="c" d="M49.72,386.26c-1.26,0-2.52,0-3.74-.12-10.72-.67-23-5.24-22.32-15.89.4-6.31,6.1-13.05,20.88-13.05,1.06,0,2.15,0,3.27.1,12.45.79,30.58,6.54,30,16.38-.19,2.94-2.15,7.05-10.44,9.91A56.39,56.39,0,0,1,49.72,386.26Z"/><path class="d" d="M44.54,361.2c1,0,2,0,3,.1,12.74.8,26.59,6.37,26.23,12.13-.33,5.23-12.32,8.83-24.07,8.83-1.16,0-2.33,0-3.48-.11-12.73-.8-18.94-5.88-18.57-11.64.33-5.29,6.09-9.31,16.88-9.31m0-8h0c-6.64,0-12.17,1.27-16.42,3.78-5.11,3-8.11,7.63-8.45,13-.54,8.49,6,18.86,26.06,20.14,1.3.08,2.64.12,4,.12,11.52,0,31.24-3.44,32.05-16.33.85-13.41-20.22-19.77-33.7-20.62-1.2-.07-2.38-.11-3.52-.11Z"/><polyline class="b" points="78.29 373.88 97.31 375.58 108.14 355.8"/><path class="c" d="M211.28,511.05a81.38,81.38,0,0,1-23-7.48c-12.54-6.35-20.83-15.3-24.38-26.2-7.54,7.94-18,13.81-31.12,17.51A116,116,0,0,1,102.87,499c-1.39,0-2.16,0-2.16,0l-4.31-.19.51-4.28A143.52,143.52,0,0,1,103,468.26c4.64-13.5,10.63-22.17,17.88-25.93-26.51-20.09-24.2-46.65-24.08-47.87l.3-3,3-.53a56.37,56.37,0,0,1,9.27-.69c9.44,0,25.08,2,36.08,13.76,4.9-30.35,29-40.44,30.09-40.9l2.55-1,1.88,2c.83.89,17.62,19.29,15.59,46.35,6.47-4.73,14.37-7.18,23.38-7.18a65.53,65.53,0,0,1,26.13,6l2.63,1.3-.44,2.9a49.48,49.48,0,0,1-7.71,18.33c-5.16,7.62-14.59,16.94-31.05,20.63,18.73,29.06,7.54,55.18,7,56.34l-1.22,2.75Z"/><path class="d" d="M177,366.81s22.14,23.75,12,56.48c8-12.54,19.51-16,29.9-16a61.8,61.8,0,0,1,24.37,5.55s-5,32.3-41.72,36.7c22.69,29.59,10.27,57.59,10.27,57.59s-42.81-5.94-45.77-38.9C149.54,493.4,111.92,495,102.87,495c-1.28,0-2,0-2,0s6.13-50.74,28.8-50.74c.42,0,.86,0,1.3.05-33.22-19.29-30.2-49.38-30.2-49.38a53.27,53.27,0,0,1,8.56-.62c11.08,0,30.06,2.9,39.22,21.27-.19-37.12,28.45-48.7,28.45-48.7m2.1-9.48-5.1,2.06a53,53,0,0,0-17.11,12.35A58.69,58.69,0,0,0,143,396.43c-11.26-8.56-24.94-10.19-33.68-10.19a59.71,59.71,0,0,0-10,.75l-5.94,1.07-.6,6c-.12,1.25-2.38,27.07,21.42,48a34.11,34.11,0,0,0-4.9,5.08c-3.89,4.92-7.3,11.58-10.12,19.8a148,148,0,0,0-6.28,27l-1,8.57,8.62.38c.09,0,.93,0,2.34,0,9.83,0,39.33-1.54,59.49-18.67,4.62,9.35,12.75,17.11,24.08,22.85A85.94,85.94,0,0,0,210.73,515l6,.83,2.45-5.51c.52-1.18,11.38-26.5-4.54-55.47A53.52,53.52,0,0,0,251.18,414l.89-5.79-5.26-2.6a70,70,0,0,0-27.9-6.37,44.86,44.86,0,0,0-19.27,4.07,70,70,0,0,0-16.78-42l-3.75-4Z"/><path class="e" d="M150.4,441.14s13.71,17.71,38.73,7.27"/><line class="e" x1="168.81" y1="449.12" x2="172.85" y2="427.61"/><path class="e" d="M176.25,450.52a15.73,15.73,0,0,0,7-14.59"/><path class="e" d="M161.37,447.73a15.74,15.74,0,0,1-1.23-16.14"/><path class="f" d="M101.53,662.48c-3.76,0-7.42-.25-11-.49-3.18-.21-6.19-.42-9.09-.44h-.65c-3.62,0-7.2.16-10.66.32s-6.58.29-9.73.29a56.16,56.16,0,0,1-11.2-.94,110.16,110.16,0,0,0-11.65-1.66c-8.44-.83-11.74-1.62-19.21-11.39S11,635,12.44,626.65A108.25,108.25,0,0,0,13.89,615c.44-6.52,2.59-13.25,4.87-20.37,1.12-3.5,2.28-7.12,3.27-10.83.75-2.8,1.34-5.76,2-8.9,1.47-7.32,3-14.9,6.75-22.23,3.4-6.64,8.47-12.12,13.83-17.93,2.17-2.34,4.41-4.76,6.51-7.25,1.84-2.18,3.6-4.53,5.47-7,4.52-6,9.19-12.24,15.83-17.31,5.32-4.07,11.46-5.83,17.4-7.52,2.2-.63,4.29-1.23,6.27-1.93s4.13-1.58,6.3-2.49c5.71-2.37,11.62-4.82,18.09-5h.64c6.27,0,12.06,2.09,17.66,4.12,2.22.8,4.31,1.55,6.4,2.18s4.21,1.11,6.47,1.64c6,1.41,12.23,2.87,17.66,6.62,5.24,3.61,8.82,8.88,12.28,14,1.29,1.9,2.62,3.86,4,5.67s2.92,3.6,4.41,5.34c4,4.68,8.14,9.52,10.26,15.52,2.19,6.22,2,12.6,1.74,18.77-.08,2.33-.16,4.53-.11,6.68s.23,4.4.43,6.75c.5,6.14,1,12.49-.84,18.74s-5.77,11.26-9.56,16.14c-1.44,1.86-2.8,3.62-4,5.43s-2.32,3.59-3.51,5.55c-3.2,5.28-6.5,10.74-11.83,14.81-6.63,5.07-13.86,8-20.86,10.73-2.89,1.15-5.62,2.23-8.2,3.43-2.95,1.38-5.88,2.9-8.71,4.38-7,3.65-13.63,7.1-20.93,8.64A59.08,59.08,0,0,1,101.53,662.48Z"/><path class="d" d="M121.09,490.22c7.87,0,15.36,3.88,22.92,6.13s16.28,3.08,23,7.72c6.48,4.47,10.33,12.17,15.37,18.77s11.46,12.33,14.07,19.76c2.71,7.7,1.23,16.23,1.41,24.21s2,16.52-.25,24.26-8.43,13.72-13.06,20.43c-4.48,6.48-7.88,14.43-14.48,19.47-8.86,6.77-19.39,9.55-28.32,13.71-10.05,4.67-19.09,10.68-28.77,12.73a55.19,55.19,0,0,1-11.45,1.07c-6.94,0-13.7-.89-20-.93h-.68c-7.17,0-14.06.61-20.38.61A53.43,53.43,0,0,1,50,657.3c-18.32-3.67-18.93.91-28.46-11.56s-4.95-11.85-3.68-30.49c.62-9.13,5-19.22,8-30.44,2.51-9.45,3.33-20.43,8.41-30.34,4.51-8.8,12.68-16,19.83-24.42,6.36-7.53,11.81-17,20.67-23.73,6.6-5,15.16-6.24,22.58-8.86,7.7-2.71,15.16-7,23.15-7.24h.55m0-8h-.74c-7.22.17-13.76,2.89-19.52,5.29-2.12.88-4.12,1.71-6.09,2.41s-3.91,1.24-6,1.85c-6,1.72-12.8,3.66-18.73,8.19-7.07,5.41-12.13,12.14-16.6,18.09-1.83,2.44-3.56,4.74-5.33,6.84-2,2.42-4.25,4.81-6.39,7.12-5.31,5.75-10.8,11.69-14.45,18.81-4,7.83-5.66,16-7.11,23.28-.62,3.07-1.2,6-1.91,8.65-1,3.61-2.11,7.19-3.22,10.64-2.35,7.36-4.58,14.31-5,21.32A104,104,0,0,1,8.49,626c-1.59,9.41-1.42,14,6.71,24.62s12.5,12,22,12.94a106.32,106.32,0,0,1,11.25,1.6,60.3,60.3,0,0,0,12,1c3.24,0,6.48-.15,9.9-.3s7-.31,10.48-.31h.64c2.77,0,5.72.22,8.85.43,3.6.25,7.33.5,11.22.5a62.94,62.94,0,0,0,13.1-1.25c7.83-1.65,15-5.39,22-9,2.79-1.45,5.67-3,8.54-4.29,2.49-1.15,5.17-2.22,8-3.35,6.91-2.74,14.74-5.86,21.81-11.26,5.93-4.53,9.59-10.58,12.82-15.92,1.16-1.91,2.25-3.71,3.38-5.35s2.52-3.43,3.92-5.24c3.83-4.94,8.17-10.53,10.23-17.46s1.5-14,1-20.21c-.18-2.28-.36-4.44-.41-6.51s0-4.18.11-6.44c.22-6.24.47-13.31-2-20.25-2.36-6.71-6.75-11.83-11-16.79-1.52-1.78-3-3.46-4.27-5.17s-2.56-3.55-3.88-5.48c-3.66-5.4-7.45-11-13.31-15-6.05-4.18-12.94-5.8-19-7.22-2.21-.52-4.29-1-6.25-1.59s-4-1.33-6.18-2.11c-5.64-2-12.05-4.35-19-4.35Z"/><path class="d" d="M180,531.85,25.57,641.12,174,523.85a5,5,0,0,1,6.2,7.85Z"/><path class="d" d="M173.65,534.44a50,50,0,0,1,2.64,4.75c.39.81.82,1.63,1.13,2.47s.63,1.68.92,2.53.58,1.7.85,2.56a26.24,26.24,0,0,1,.73,2.59c.41,1.74.77,3.49,1.1,5.25a45.58,45.58,0,0,1,.6,5.32q.09,1.33.12,2.67c0,.89,0,1.78-.06,2.67l-.29,5.33c-.17,1.76-.29,3.53-.41,5.29s-.32,3.52-.48,5.27l-.26,2.63-.34,2.62c-.47,3.49-1.06,7-1.7,10.41A167.07,167.07,0,0,1,173,617.15a.4.4,0,0,1-.5.26.4.4,0,0,1-.27-.44h0c1-6.87,1.6-13.77,2-20.66.18-3.44.34-6.88.35-10.31l.07-2.57v-2.57c0-1.72,0-3.43-.07-5.13s-.16-3.42-.28-5.12-.36-3.39-.53-5.08-.35-3.37-.47-5.06-.13-3.38-.24-5.06c-.14-6.79-.55-13.47-.18-20.74h0a.42.42,0,0,1,.77-.21Z"/><path class="d" d="M154.56,548.7a47.68,47.68,0,0,1,4.38,10c.27.87.53,1.75.78,2.63l.38,1.32.28,1.33c.36,1.78.68,3.57,1,5.37s.37,3.6.47,5.41c0,.91.06,1.81.09,2.72s-.07,1.81-.11,2.71c-.12,1.81-.2,3.61-.37,5.41s-.34,3.58-.49,5.37-.4,3.57-.59,5.35-.44,3.56-.72,5.33c-.53,3.53-1.21,7-1.93,10.54s-1.6,6.95-2.53,10.39-1.94,6.85-3.13,10.21a.34.34,0,0,1-.44.21.34.34,0,0,1-.23-.39h0c1.27-7,2.26-13.94,2.87-20.94.33-3.5.62-7,.76-10.5.12-1.74.21-3.49.24-5.23s.13-3.49.11-5.24-.05-3.48-.11-5.22-.25-3.47-.37-5.2l-.14-2.59c-.07-.86-.15-1.72-.19-2.58-.12-1.72-.09-3.45-.17-5.17-.12-6.92-.56-13.74-.49-21.06v0a.36.36,0,0,1,.36-.36A.36.36,0,0,1,154.56,548.7Z"/><path class="d" d="M137.61,560.05c.67,1.65,1.21,3.36,1.75,5.07.24.86.53,1.73.71,2.6s.33,1.75.5,2.63.33,1.76.46,2.64a22.25,22.25,0,0,1,.34,2.66c.15,1.78.26,3.56.36,5.35.22,7.15-1.14,14.21-2.52,21.13-.3,1.74-.74,3.45-1.1,5.18l-.57,2.58-.65,2.56c-.87,3.42-1.88,6.79-2.92,10.15s-2.25,6.66-3.5,9.94-2.58,6.52-4.07,9.69a.3.3,0,0,1-.4.15.32.32,0,0,1-.16-.36h0c2.06-6.65,3.82-13.39,5.22-20.18.71-3.39,1.38-6.79,1.91-10.2l.45-2.56.36-2.56c.22-1.71.52-3.41.67-5.12s.34-3.43.48-5.14.14-3.43.22-5.15.15-3.41.22-5.12c.06-.85.1-1.7.17-2.55s.17-1.7.18-2.55c.09-1.7.2-3.4.34-5.11s.14-3.42.29-5.14.28-3.46.28-5.19.16-3.49.38-5.29v0a.3.3,0,0,1,.34-.27A.31.31,0,0,1,137.61,560.05Z"/><path class="d" d="M106.19,582.32c0,1.69-.17,3.37-.32,5.06-.09.84-.17,1.69-.29,2.53s-.34,1.65-.51,2.48c-.35,1.66-.74,3.32-1.2,5s-1.07,3.21-1.64,4.81c-2.39,6.35-6.07,12.11-9.9,17.61-.91,1.41-1.93,2.75-2.91,4.1s-2,2.71-3,4c-2.07,2.63-4.26,5.15-6.49,7.64s-4.58,4.85-7,7.15-4.87,4.54-7.48,6.62a.25.25,0,0,1-.33-.37h0a154.06,154.06,0,0,0,12.88-15c2-2.62,3.92-5.27,5.73-8,1-1.33,1.82-2.72,2.69-4.1s1.77-2.75,2.56-4.19,1.6-2.84,2.37-4.27L93.46,609c.76-1.44,1.35-3,2.06-4.4s1.5-2.88,2.12-4.37c2.94-5.8,5.23-11.81,8.06-18h0a.24.24,0,0,1,.33-.12A.24.24,0,0,1,106.19,582.32Z"/><path class="d" d="M121,571.67c.41,1.67.68,3.37,1,5.08.12.86.27,1.72.35,2.58s.08,1.72.13,2.59.07,1.73.08,2.59.07,1.74,0,2.6c-.09,1.72-.22,3.45-.36,5.17-.7,6.89-2.76,13.54-5,20-.5,1.64-1.15,3.23-1.73,4.84l-.89,2.41c-.31.79-.65,1.58-1,2.37-1.29,3.17-2.72,6.27-4.19,9.35s-3.09,6.07-4.77,9-3.43,5.88-5.35,8.69a.24.24,0,0,1-.34.07.24.24,0,0,1-.08-.32h0a175.84,175.84,0,0,0,8.25-18.46c1.2-3.15,2.35-6.3,3.36-9.5.27-.8.55-1.59.8-2.39L112,616c.46-1.6,1-3.19,1.37-4.82l1.18-4.87.91-4.92c.35-1.62.57-3.27.87-4.9l.48-2.44.26-1.22.19-1.22c1.35-6.53,2.1-13.07,3.27-19.88h0a.25.25,0,0,1,.29-.21A.26.26,0,0,1,121,571.67Z"/><path class="d" d="M169.29,529.85c-7.08-1.7-13.38-4-19.85-6-1.58-.58-3.22-1-4.79-1.65s-3.13-1.29-4.72-1.88-3.14-1.32-4.72-1.95-3.22-1.15-4.83-1.71-3.27-1-4.9-1.51l-2.47-.74-2.48-.66c-3.3-1-6.64-1.78-10-2.57q-10.07-2.38-20.37-3.93h0a.4.4,0,0,1-.34-.45.39.39,0,0,1,.38-.34,169.25,169.25,0,0,1,21,.78c3.49.37,7,.78,10.46,1.32l2.61.41,2.59.49c1.73.35,3.48.61,5.19,1s3.46.76,5.2,1.1l5.19,1.22c.86.24,1.73.43,2.58.7s1.69.57,2.53.87a47.22,47.22,0,0,1,4.93,2.08c1.59.82,3.18,1.65,4.73,2.54a24.78,24.78,0,0,1,2.28,1.43q1.13.75,2.22,1.53l2.17,1.6c.71.53,1.37,1.18,2,1.78a51.81,51.81,0,0,1,3.82,3.88.42.42,0,0,1-.42.68Z"/><path class="d" d="M150.27,544.06c-7-2-13.46-4.35-20.06-6.42-1.63-.56-3.3-1-4.92-1.62-.81-.29-1.61-.61-2.42-.91l-2.44-.87c-1.63-.6-3.24-1.26-4.89-1.82s-3.31-1.07-5-1.58-3.36-.91-5-1.37-3.38-.87-5.09-1.26c-3.4-.85-6.83-1.55-10.28-2.23-6.89-1.39-13.88-2.41-20.9-3.16h0a.35.35,0,0,1-.31-.38.35.35,0,0,1,.33-.32q5.34-.27,10.67-.11c3.56.07,7.13.26,10.69.5s7.11.64,10.66,1.13c1.77.23,3.54.49,5.31.81s3.54.57,5.3.94,3.52.72,5.29,1.05,3.53.78,5.29,1.17c.88.23,1.76.43,2.63.67s1.73.55,2.59.85c1.7.61,3.41,1.2,5.06,2s3.27,1.61,4.87,2.46l1.2.64,1.16.73c.77.49,1.54,1,2.29,1.5a47.28,47.28,0,0,1,8.39,7,.36.36,0,0,1,0,.5.33.33,0,0,1-.35.09Z"/><path class="d" d="M134.71,557.06c-1.79-.29-3.49-.72-5.19-1.13s-3.37-.81-5.05-1.2-3.32-.86-5-1.17-3.35-.72-5-1.11c-.82-.23-1.66-.39-2.5-.55s-1.67-.38-2.5-.56c-1.65-.42-3.3-.86-5-1.24s-3.32-.85-5-1.24-3.37-.67-5.06-1-3.41-.53-5.11-.8l-2.56-.38-2.57-.29c-3.43-.46-6.88-.77-10.33-1-6.91-.58-13.87-.8-20.83-.69h0a.3.3,0,0,1-.05-.6q5.2-.8,10.45-1.16c3.5-.28,7-.45,10.52-.55s7-.07,10.55.06l2.65.1,2.64.18c1.75.14,3.52.2,5.28.41,7,.63,14.18,1.31,21,3.55,1.68.59,3.36,1.2,5,1.85a22.3,22.3,0,0,1,2.46,1.07c.81.38,1.61.79,2.41,1.19s1.6.8,2.38,1.23,1.53.94,2.29,1.41c1.49,1,3,2,4.37,3.12a.3.3,0,0,1,.05.43.3.3,0,0,1-.29.11Z"/><path class="d" d="M104.69,580.87c-6.69,1-13.11,1.48-19.5,2.67-1.61.17-3.19.55-4.79.79s-3.21.42-4.8.75l-4.82.8c-1.59.34-3.18.72-4.77,1.07s-3.16.83-4.73,1.27-3.15.89-4.7,1.43c-3.14,1-6.22,2.07-9.3,3.23a155.62,155.62,0,0,0-18,8.12h0a.25.25,0,0,1-.34-.11.25.25,0,0,1,.08-.32c2.73-1.91,5.56-3.67,8.46-5.3s5.84-3.21,8.83-4.69,6.06-2.82,9.17-4.07c1.54-.66,3.12-1.21,4.7-1.78s3.15-1.16,4.76-1.63c6.36-2.13,12.92-4,19.69-4.54,1.69-.09,3.38-.17,5.07-.21s3.4.12,5.09.25c.84.07,1.68.12,2.52.21s1.68.28,2.51.43c1.67.34,3.32.67,4.95,1.12a.26.26,0,0,1,.17.32.25.25,0,0,1-.21.18Z"/><path class="d" d="M119,569.63c-6.87-.79-13.36-1.92-20-2.47L97.76,567l-1.25-.09L94,566.68c-1.65-.17-3.29-.43-5-.55l-5-.51-5-.24c-1.67-.1-3.34,0-5-.06H71.58c-.84,0-1.67.06-2.51.09-3.36.06-6.71.28-10.06.54a178.57,178.57,0,0,0-20,2.7h0a.24.24,0,0,1-.29-.19.25.25,0,0,1,.16-.29q4.88-1.56,9.85-2.67c3.31-.78,6.66-1.44,10-2s6.74-1,10.14-1.38c.85-.09,1.7-.19,2.56-.26l2.56-.18c1.7-.1,3.41-.27,5.13-.28,6.84-.34,13.8-.43,20.61.83,1.69.36,3.38.72,5.06,1.12.84.18,1.66.49,2.49.74s1.65.53,2.47.82,1.63.55,2.44.85,1.58.7,2.37,1.06c1.56.76,3.12,1.51,4.61,2.36a.26.26,0,0,1,.1.35.28.28,0,0,1-.25.13Z"/><path class="f" d="M444,618.79c-4.83,0-9.83-.37-15.13-.76-3.83-.29-7.78-.58-11.78-.74-1.55-.06-3.25-.09-5.33-.09l-4.35,0-4.57,0c-7.06,0-14.65-.27-22.35-2.26-8.46-2.18-16.16-6.5-24.32-11.07-2.85-1.6-5.8-3.26-8.77-4.8-2.68-1.4-5.46-2.7-8.42-4.08-7.94-3.71-16.15-7.55-23.6-13.78-6-5-9.63-11.46-13.19-17.71-1.16-2-2.26-4-3.43-5.84s-2.53-3.88-3.82-5.77c-4.08-6-8.3-12.17-10.12-19.46s-1-14.74-.24-21.9c.26-2.39.51-4.66.66-6.92s.21-4.48.27-6.86c.19-7.21.38-14.66,3.24-21.75,2.77-6.86,7.77-12.39,12.61-17.74,1.57-1.73,3.19-3.53,4.69-5.32s3-3.7,4.41-5.55c4.42-5.71,9-11.61,15.25-15.53,6.48-4.07,13.78-5.57,20.84-7,2.33-.48,4.54-.93,6.71-1.48s4.38-1.18,6.69-1.86c6.18-1.82,12.58-3.7,19.28-3.7.78,0,1.56,0,2.32.08,7.5.51,14.33,3.58,20.94,6.54,2.09.94,4.24,1.9,6.35,2.75s4.13,1.56,6.35,2.35c6.78,2.4,13.79,4.88,19.75,9.87,7.45,6.23,12.67,13.64,17.72,20.81,1.88,2.66,3.65,5.18,5.5,7.57,2,2.65,4.19,5.26,6.26,7.79,5.94,7.22,11.54,14,15.19,22,4,8.69,5.48,17.55,6.93,26.11.56,3.33,1.1,6.48,1.76,9.51.86,3.91,1.85,7.75,2.8,11.47,2.21,8.59,4.29,16.71,4.47,24.38a113,113,0,0,0,1.18,13.76c1.27,9.34,1.27,13.1-7.48,23.55s-12.44,11.11-21.86,11.5a113.28,113.28,0,0,0-13.75,1.25A62.21,62.21,0,0,1,444,618.79Z"/><path class="d" d="M379.19,420.85c.68,0,1.36,0,2.05.07,9.08.62,17.44,5.54,26.06,9,8.32,3.35,17.79,5.51,25,11.58,9.74,8.15,15.77,18.86,22.62,27.75,7.7,10,16.28,18.76,21,29,5.28,11.52,6,23.93,8.42,34.8,2.84,12.92,6.93,24.67,7.18,35.09.49,21.29,6.11,20.94-5.36,34.65S474,610.93,453,614.18a59.83,59.83,0,0,1-9,.61c-8.18,0-17.23-1.13-26.77-1.5-1.79-.07-3.62-.09-5.48-.09-2.92,0-5.9,0-8.93,0-7,0-14.16-.28-21.34-2.13-10.91-2.82-21-9.72-32.24-15.55-10-5.18-21.56-9.23-31.3-17.38-7.25-6.07-11-15-15.8-22.61-4.93-7.87-11.25-15.24-13.45-24.07s-.09-18.41.53-27.58-.24-18.77,3.23-27.39c3.35-8.31,10.59-14.73,16.66-22s11.11-15.5,18.71-20.26c7.88-4.94,17.57-5.8,26.4-8,8.25-2.06,16.54-5.45,25-5.45m0-8v0h0c-7.27,0-13.95,2-20.41,3.86-2.27.66-4.41,1.29-6.53,1.82s-4.26,1-6.55,1.44c-7.06,1.46-15.06,3.1-22.16,7.55-6.86,4.3-11.65,10.49-16.28,16.47-1.47,1.91-2.86,3.7-4.31,5.43s-3,3.42-4.59,5.21C293.28,460.24,288,466,285,473.55c-3.12,7.77-3.34,15.93-3.53,23.14-.06,2.34-.12,4.55-.26,6.7s-.39,4.4-.65,6.76c-.82,7.51-1.67,15.27.34,23.3s6.41,14.47,10.69,20.74c1.33,1.95,2.58,3.78,3.74,5.64s2.2,3.69,3.35,5.7c3.55,6.25,7.58,13.34,14.09,18.79,7.85,6.57,16.68,10.7,24.48,14.34,2.91,1.36,5.66,2.65,8.27,4,2.91,1.51,5.83,3.15,8.65,4.73,8,4.5,16.31,9.15,25.28,11.47,8.13,2.09,16,2.38,23.34,2.38l4.62,0,4.31,0c2,0,3.68,0,5.17.09,3.93.15,7.85.44,11.64.72,5.38.4,10.46.78,15.44.78a67.62,67.62,0,0,0,10.26-.7,108,108,0,0,1,13.31-1.21c10.48-.44,15.33-1.66,24.76-12.93s9.79-16.27,8.37-26.66A108,108,0,0,1,499.53,568c-.19-8.13-2.33-16.46-4.6-25.29-.94-3.68-1.92-7.48-2.76-11.33-.64-2.94-1.17-6-1.73-9.32-1.42-8.41-3-17.93-7.24-27.11-3.86-8.42-9.89-15.76-15.73-22.86-2.05-2.5-4.18-5.09-6.19-7.69-1.79-2.33-3.54-4.81-5.39-7.44-5-7-10.58-15-18.42-21.57-6.51-5.45-14.2-8.17-21-10.57-2.18-.77-4.24-1.5-6.2-2.29s-4.06-1.73-6.2-2.69c-6.93-3.11-14.09-6.32-22.31-6.88-.85-.06-1.72-.09-2.59-.09Z"/><path class="d" d="M319.41,455.65,479.87,599.38l-167-136.13a5,5,0,0,1,6.33-7.75Z"/><path class="d" d="M324.34,461.54c1.48-1.41,3.09-2.67,4.7-3.94.82-.61,1.62-1.27,2.49-1.8s1.72-1.07,2.6-1.59,1.75-1,2.64-1.53,1.78-1,2.71-1.42c1.83-.86,3.69-1.67,5.56-2.47.94-.4,1.89-.74,2.85-1.05s1.93-.62,2.9-.91,1.95-.54,2.93-.81,2-.41,3-.62l6-1.06c2-.27,4-.59,6-.91s4-.54,6-.82l3-.38,3-.3c4-.38,8-.62,11.95-.81s8-.18,12-.12,8,.21,11.93.56a.4.4,0,0,1,.36.44.41.41,0,0,1-.37.36h0c-7.88.58-15.72,1.46-23.48,2.75-3.87.62-7.74,1.28-11.57,2.08l-2.88.56-2.87.64c-1.9.44-3.82.8-5.7,1.32s-3.77,1-5.64,1.54-3.69,1.21-5.54,1.81-3.68,1.19-5.52,1.76c-.93.29-1.85.55-2.79.8s-1.87.47-2.79.76c-7.51,1.93-14.82,4.18-22.86,5.87h0a.42.42,0,0,1-.49-.32A.43.43,0,0,1,324.34,461.54Z"/><path class="d" d="M345,479.19a58.42,58.42,0,0,1,10.16-7.1c.9-.5,1.81-1,2.73-1.48l1.37-.72,1.41-.63q2.83-1.23,5.72-2.37c1.93-.73,3.91-1.29,5.89-1.85,1-.29,2-.53,3-.79s2-.38,3-.57c2-.33,4.05-.71,6.08-1s4.06-.54,6.08-.84,4.05-.47,6.07-.71c1-.11,2-.23,3-.32l3-.24c4.06-.32,8.13-.46,12.18-.57s8.12,0,12.17.13,8.08.38,12.12.81a.36.36,0,0,1,.31.39.35.35,0,0,1-.34.31h0c-8,.25-16.06.85-24,1.85-4,.49-7.94,1-11.87,1.7l-3,.47c-1,.16-2,.36-2.94.55-2,.39-3.92.7-5.86,1.15s-3.87.91-5.79,1.39-3.81,1.11-5.71,1.66l-2.86.79c-.94.29-1.88.59-2.83.85s-1.9.53-2.85.77-1.93.43-2.86.73c-7.67,1.94-15.13,4.25-23.16,6.24h0a.36.36,0,0,1-.43-.26A.34.34,0,0,1,345,479.19Z"/><path class="d" d="M361.79,495.18c1.7-1.1,3.47-2.08,5.25-3.07.91-.46,1.79-1,2.72-1.39s1.87-.77,2.81-1.16,1.87-.78,2.83-1.13,1.9-.73,2.87-1c1.93-.59,3.89-1.14,5.84-1.68,7.88-2,16-2.33,24.05-2.56,2-.12,4-.06,6-.1l3,0,3,.07c4,.09,8,.35,12,.64s7.95.78,11.91,1.32,7.89,1.18,11.8,2a.31.31,0,0,1,.23.36.3.3,0,0,1-.32.24h0c-7.9-.7-15.83-1-23.73-.92-3.95,0-7.89.11-11.83.35l-2.95.13-2.94.23c-2,.17-3.92.25-5.87.5s-3.9.46-5.84.72-3.87.67-5.79,1-3.85.67-5.76,1c-1,.16-1.93.33-2.89.46s-1.94.25-2.89.46c-7.73,1.14-15.29,2.78-23.29,4.12h0a.3.3,0,0,1-.35-.25A.33.33,0,0,1,361.79,495.18Z"/><path class="d" d="M394.38,524.52c1.88-.34,3.79-.56,5.7-.79,1-.09,1.92-.2,2.88-.26s1.91,0,2.87,0c1.92,0,3.86,0,5.78.15l5.73.66c7.63,1.11,14.94,3.67,22,6.53,1.8.64,3.54,1.43,5.29,2.18s3.51,1.49,5.21,2.35c3.44,1.62,6.8,3.41,10.13,5.24,1.64,1,3.29,1.89,4.91,2.88s3.24,2,4.81,3c3.18,2,6.28,4.24,9.25,6.59a.24.24,0,0,1,0,.35.25.25,0,0,1-.32.06h0a173.62,173.62,0,0,0-19.82-10.69c-3.41-1.56-6.83-3.07-10.32-4.42-1.72-.73-3.48-1.35-5.23-2s-3.5-1.29-5.29-1.82-3.56-1.09-5.34-1.6l-5.42-1.31c-.89-.24-1.79-.46-2.7-.63l-2.71-.59c-1.81-.39-3.58-.93-5.4-1.24-7.21-1.79-14.5-2.76-22-4.17h0a.25.25,0,0,1-.2-.3A.26.26,0,0,1,394.38,524.52Z"/><path class="d" d="M378.85,510.71c1.77-.81,3.6-1.51,5.43-2.22.93-.33,1.85-.7,2.79-1s1.89-.49,2.84-.75,1.9-.49,2.86-.71,1.91-.49,2.88-.62l5.83-.86c7.81-.88,15.7-.35,23.44.51,1.94.13,3.87.44,5.8.68l2.89.38c1,.13,1.92.31,2.88.47,3.84.62,7.65,1.42,11.43,2.26s7.53,1.87,11.24,3,7.39,2.3,11,3.69a.25.25,0,0,1-.15.48h0a200.75,200.75,0,0,0-22.56-4.69c-3.79-.56-7.59-1.07-11.4-1.42-.95-.1-1.9-.22-2.85-.29l-2.86-.21c-1.9-.12-3.8-.31-5.71-.33l-5.71-.13-5.7.18c-1.9,0-3.79.17-5.68.24l-2.84.08-1.42,0-1.42.1c-7.59.18-15.07,1.06-22.88,1.64h0a.25.25,0,0,1-.12-.48Z"/><path class="d" d="M320.26,467.47c-.41,8.2-1.5,15.77-2.24,23.49-.14,1-.22,1.92-.32,2.88s-.21,1.92-.35,2.87c-.28,1.91-.62,3.81-.88,5.74s-.64,3.83-.93,5.75-.44,3.87-.64,5.81-.27,3.89-.42,5.84l-.18,2.93-.1,2.93c-.2,3.91-.25,7.83-.26,11.76-.07,7.86.28,15.75.94,23.61v0a.4.4,0,0,1-.37.43.42.42,0,0,1-.42-.3q-1.44-5.81-2.41-11.7c-.68-3.92-1.24-7.87-1.74-11.83s-.82-7.94-1.06-11.94l-.17-3-.09-3c0-2-.16-4-.11-6s0-4,0-6l.11-6.06c.06-1,.05-2,.15-3s.22-2,.35-3,.28-2,.44-3,.35-2,.6-3c.5-2,1-3.94,1.57-5.89.27-1,.62-1.93,1-2.89s.72-1.9,1.1-2.85.76-1.88,1.17-2.82.92-1.83,1.39-2.73c1-1.79,2-3.57,3.16-5.26a.42.42,0,0,1,.58-.1.43.43,0,0,1,.18.36Z"/><path class="d" d="M340.8,485.05c-.72,8.25-1.84,16-2.56,23.85-.15,1-.19,2-.28,2.94s-.21,2-.31,2.94-.27,2-.4,2.92l-.34,2.95c-.24,2-.55,3.92-.74,5.9s-.33,4-.48,5.94-.15,4-.23,6c0,1-.07,2-.08,3v3c-.07,4,0,8,.17,12,.24,8,.9,16,1.91,24h0a.35.35,0,0,1-.69.14q-1.59-5.87-2.69-11.84c-.78-4-1.43-8-2-12s-1-8.06-1.33-12.12l-.24-3c-.07-1-.1-2-.15-3.05-.08-2-.23-4.08-.25-6.12s0-4.08-.12-6.13,0-4.1,0-6.15c0-1,.05-2.06.1-3.08s.18-2,.31-3.07c.25-2.05.49-4.09.91-6.11s.94-4,1.45-6l.4-1.49.5-1.47c.34-1,.69-2,1-2.93a58.77,58.77,0,0,1,5.43-11.13.36.36,0,0,1,.49-.13.37.37,0,0,1,.17.34Z"/><path class="d" d="M359.15,499.1c-.07,8.11-.52,15.83-.45,23.65-.05,1,0,2,0,2.92s0,2,0,2.92c-.05,1.95-.12,3.9-.1,5.85s-.1,3.92-.09,5.88.12,3.92.2,5.88.28,3.92.42,5.88l.23,2.94.33,2.94c.38,3.92.92,7.83,1.5,11.73,1.14,7.82,2.68,15.61,4.6,23.3h0a.29.29,0,0,1-.21.36.31.31,0,0,1-.36-.18q-2.13-5.59-3.82-11.35c-1.15-3.82-2.19-7.67-3.16-11.56s-1.79-7.8-2.5-11.74l-.53-3-.45-3c-.27-2-.64-4-.83-6-1-8-1.95-16.06-1.22-24.15.23-2,.46-4,.75-6,.12-1,.34-2,.55-3s.43-2,.67-3,.46-2,.72-3,.63-1.94.94-2.9c.71-1.92,1.39-3.82,2.23-5.67a.3.3,0,0,1,.4-.15.31.31,0,0,1,.18.28Z"/><path class="d" d="M393.11,526.52c2.57,7.22,4.67,14.27,7.55,21.12.59,1.74,1.4,3.42,2.07,5.14l1,2.58c.31.87.67,1.73,1,2.58l2.13,5.14c.78,1.69,1.61,3.35,2.42,5s1.72,3.3,2.62,4.94,1.79,3.28,2.78,4.86c1.87,3.23,3.9,6.38,6,9.5a172.35,172.35,0,0,0,13.65,17.91h0a.25.25,0,0,1,0,.35.26.26,0,0,1-.34,0c-2.78-2.58-5.42-5.29-7.95-8.12-1.29-1.38-2.49-2.85-3.75-4.27s-2.4-2.94-3.61-4.4c-2.33-3-4.61-6-6.75-9.19-1.11-1.56-2.12-3.17-3.13-4.79s-2.07-3.21-3-4.88c-3.92-6.54-7.59-13.37-9.88-20.73l-1.54-5.56c-.41-1.88-.74-3.78-1-5.68-.15-.95-.32-1.89-.45-2.84s-.13-1.93-.18-2.88c-.08-1.93-.16-3.84-.11-5.75a.25.25,0,0,1,.49-.08Z"/><path class="d" d="M377.06,513.45c.63,7.8.93,15.32,1.93,22.86l.13,1.41.2,1.41.36,2.81c.22,1.88.35,3.77.65,5.65l.71,5.66,1,5.62c.32,1.89.81,3.73,1.22,5.59l.65,2.8c.22.92.49,1.84.73,2.77.94,3.71,2,7.37,3.18,11A198.57,198.57,0,0,0,396,602.61h0a.25.25,0,0,1-.44.23c-2-3.36-3.73-6.79-5.37-10.3s-3.21-7-4.69-10.64-2.8-7.24-4-10.94c-.31-.92-.63-1.84-.92-2.77l-.82-2.8c-.53-1.87-1.14-3.72-1.58-5.62-2-7.52-3.8-15.22-4.14-23.08l-.06-5.89c0-1,.1-2,.16-2.94s.16-2,.26-2.94.18-1.95.3-2.92.36-1.94.54-2.9c.41-1.93.82-3.84,1.35-5.72a.25.25,0,0,1,.31-.18.24.24,0,0,1,.18.22Z"/><path class="f" d="M354.87,741.42a42.07,42.07,0,0,1-9.33-1.44,121.53,121.53,0,0,0-16.46-2.76c-9.39-.92-19.36-4.12-29.91-7.5-3.68-1.18-7.48-2.4-11.34-3.55-3.15-.94-6.38-1.79-9.8-2.68-10.15-2.66-20.65-5.41-30.76-11-9.41-5.17-17.43-12.62-25.92-20.5-2.35-2.18-4.77-4.44-7.22-6.63s-4.75-4.13-7.31-6.29c-8.12-6.87-16.52-14-23.39-23.52-5.48-7.63-8-16.31-10.45-24.7-.65-2.24-1.27-4.36-1.94-6.45s-1.42-4.29-2.15-6.38C166,609.65,163,601,163.07,591.85s3.11-17.72,6.06-26c.76-2.13,1.54-4.32,2.25-6.46s1.37-4.34,2-6.49c2.54-8.41,5.16-17.1,10.64-24.56,5.32-7.24,12.87-12.41,20.17-17.42,1.87-1.29,3.81-2.61,5.66-4s3.73-2.75,5.54-4.11c7.08-5.33,14.39-10.84,22.94-13.57,6.74-2.16,13.58-2.44,18.78-2.44,2.65,0,5.32.09,7.89.17,2.25.07,4.57.14,6.8.15h.83c2,0,4,0,6-.07s4.14-.08,6.21-.08c6.16,0,13.4.31,20.37,2.61,8.68,2.86,15.94,8.45,23,13.85,1.76,1.36,3.58,2.76,5.37,4.07s3.58,2.56,5.49,3.89c7.18,5,14.61,10.15,20.09,17.77C366,538.75,370.08,549,374,558.86c1.24,3.11,2.41,6,3.65,8.93s2.66,6,4,9c4.77,10.55,9.28,20.53,11.19,31.09,2.06,11.36,1.32,22.18.61,32.65-.24,3.53-.46,6.86-.58,10.14-.13,4-.19,8-.24,11.89-.15,11.08-.28,21.54-2.41,30.74a121.2,121.2,0,0,0-2.62,16.48c-1,10.26-2,14.78-14.69,23.93C364.93,739.39,360.21,741.42,354.87,741.42Z"/><path class="d" d="M257.12,490.84c4.91,0,9.84.29,14.66.32h.86c4,0,8.14-.15,12.22-.15,6.52,0,13,.39,19.12,2.41,10.14,3.34,18.44,10.9,27.22,17.35,8.47,6.22,18.24,11.77,24.7,20.77,8.7,12.09,12.87,25.75,18.07,37.83,5.85,13.59,12.56,26.18,14.91,39.18,2.65,14.63.43,28.9,0,41.94-.54,15.5.19,30-2.56,41.87-5.61,24.31,1.27,25.82-15.74,38.06-7.41,5.32-11.45,7-15.69,7-5.51,0-11.38-2.82-25.4-4.19-12.16-1.18-25.64-6.47-40.5-10.9-12.51-3.72-26.75-6.16-39.77-13.32-11.58-6.37-21.38-16.74-32.4-26.61-9.8-8.77-21.43-17.08-30.12-29.17-6.47-9-8.63-20-11.83-30-3.32-10.38-7.84-20.66-7.78-31.32s4.74-21,8.11-31.25,5.63-21.15,12.08-29.93c6.22-8.47,15.94-14,24.94-20.49s17.35-13.92,27.36-17.13a57.47,57.47,0,0,1,17.56-2.24m0-8c-5.49,0-12.73.29-20,2.61-9.2,3-16.79,8.66-24.13,14.19-1.8,1.36-3.65,2.75-5.47,4.06s-3.74,2.63-5.59,3.9c-7.58,5.2-15.42,10.57-21.13,18.35-5.89,8-8.61,17-11.25,25.78-.67,2.22-1.3,4.32-2,6.39s-1.43,4.17-2.22,6.37c-3.06,8.6-6.24,17.49-6.29,27.33s3,18.81,6,27.51c.75,2.17,1.46,4.22,2.12,6.3s1.26,4.13,1.91,6.34c2.42,8.31,5.16,17.74,11.05,25.92,7.15,10,16.13,17.54,24.05,24.24,2.53,2.14,4.93,4.17,7.22,6.22s4.83,4.41,7.17,6.57C227.3,703,235.5,710.6,245.34,716c10.55,5.8,21.77,8.74,31.67,11.34,3.39.88,6.59,1.72,9.67,2.64,3.83,1.14,7.61,2.35,11.27,3.53,10.76,3.45,20.92,6.71,30.75,7.67a118.14,118.14,0,0,1,16,2.68,45.56,45.56,0,0,0,10.21,1.54c7.1,0,13.05-3.25,20.36-8.51,6.87-4.94,10.62-8.67,12.92-12.87,2.45-4.48,2.9-8.84,3.41-13.89a118.43,118.43,0,0,1,2.54-16c2.22-9.62,2.36-20.29,2.51-31.59.05-3.84.11-7.81.24-11.8.11-3.22.34-6.51.57-10,.7-10.21,1.48-21.78-.66-33.63-2-11-6.61-21.24-11.49-32-1.31-2.91-2.66-5.9-3.95-8.89-1.22-2.83-2.37-5.74-3.6-8.83-3.82-9.63-8.16-20.56-15.32-30.51-5.89-8.19-13.94-13.79-21.06-18.73-1.89-1.31-3.67-2.55-5.4-3.82s-3.48-2.62-5.3-4c-7.29-5.61-14.83-11.41-24.15-14.48C299,483.34,291.34,483,284.86,483c-2.12,0-4.24,0-6.29.08s-4,.07-5.93.07h-.81c-2.18,0-4.37-.08-6.69-.15-2.61-.08-5.31-.16-8-.16Z"/><path class="d" d="M223.06,515.15,364.25,724.48,214.88,520.91A5,5,0,1,1,223,515Z"/><path class="d" d="M227.67,522.85c2.12-1.08,4.32-2,6.53-2.87,1.11-.42,2.22-.91,3.35-1.24s2.28-.66,3.42-1,2.29-.62,3.45-.9,2.31-.58,3.47-.77c2.33-.4,4.68-.76,7-1.1,1.17-.18,2.35-.28,3.53-.35s2.36-.14,3.54-.18l3.54-.08c1.19,0,2.36.09,3.54.13l7.06.46c2.35.24,4.69.44,7,.64s4.66.51,7,.75l3.49.4,3.48.51c4.63.68,9.23,1.54,13.81,2.44s9.11,2,13.62,3.21,9,2.45,13.41,4a.4.4,0,0,1-.21.77h0c-9.09-1.74-18.24-3.09-27.42-4-4.59-.46-9.17-.87-13.76-1.11l-3.44-.23-3.43-.13c-2.3-.06-4.58-.23-6.87-.2s-4.58,0-6.87,0-4.56.26-6.84.38-4.54.24-6.81.36c-1.13.05-2.27.08-3.4.1s-2.28,0-3.41.08c-9.11.1-18.1.69-27.63.64h0a.41.41,0,0,1-.41-.41A.39.39,0,0,1,227.67,522.85Z"/><path class="d" d="M246,548.86c2.19-1,4.44-1.84,6.71-2.7l1.71-.6a15.6,15.6,0,0,1,1.72-.55c1.16-.31,2.33-.6,3.5-.89s2.35-.57,3.53-.83l1.77-.4,1.78-.28c2.38-.36,4.77-.67,7.16-1s4.8-.3,7.21-.37c1.2,0,2.4,0,3.6,0s2.4.14,3.6.21c2.39.19,4.79.32,7.17.57s4.75.53,7.13.77,4.73.61,7.1.91c1.18.17,2.36.31,3.54.49l3.52.6c4.7.78,9.36,1.76,14,2.79s9.23,2.25,13.79,3.56,9.08,2.7,13.55,4.32a.36.36,0,0,1,.21.45.35.35,0,0,1-.41.22h0c-9.18-2.15-18.46-3.86-27.77-5.11-4.65-.64-9.3-1.23-14-1.62l-3.5-.35c-1.16-.11-2.33-.17-3.5-.25-2.33-.14-4.66-.36-7-.43s-4.67-.13-7-.16-4.66.12-7,.16l-3.48.06c-1.16,0-2.32.1-3.48.13s-2.31,0-3.47,0-2.32-.05-3.47,0c-9.29.05-18.47.64-28.1.9h0a.36.36,0,0,1-.37-.34A.38.38,0,0,1,246,548.86Z"/><path class="d" d="M260.42,571.91c2.26-.69,4.56-1.23,6.87-1.78,1.16-.24,2.32-.56,3.49-.71s2.34-.3,3.52-.46,2.35-.29,3.53-.4,2.37-.26,3.55-.28c2.36-.08,4.73-.12,7.1-.15,9.49.12,18.83,2,28,4,2.31.44,4.58,1.07,6.87,1.6l3.42.82,3.39.94c4.53,1.23,9,2.66,13.44,4.12s8.83,3.13,13.17,4.87,8.63,3.56,12.84,5.6a.29.29,0,0,1,.14.4.3.3,0,0,1-.37.15h0a274.84,274.84,0,0,0-26.62-8.14c-4.49-1.14-9-2.22-13.53-3.12l-3.39-.73-3.41-.62c-2.27-.38-4.53-.87-6.82-1.17s-4.56-.63-6.85-.92-4.58-.4-6.87-.6c-1.14-.11-2.28-.24-3.42-.32s-2.29-.14-3.43-.24l-3.42-.31c-1.14-.12-2.28-.27-3.42-.3-9.14-.88-18.24-1.1-27.68-1.62h0a.31.31,0,0,1-.29-.32A.33.33,0,0,1,260.42,571.91Z"/><path class="d" d="M288.9,614.68A72.69,72.69,0,0,1,302.14,617c1.1.26,2.17.59,3.24.93s2.15.65,3.21,1c2.11.77,4.22,1.55,6.29,2.43,8.34,3.44,15.83,8.54,23.09,13.71a204.06,204.06,0,0,1,20.63,17q4.84,4.6,9.37,9.48c3,3.25,5.94,6.59,8.65,10.11a.24.24,0,0,1,0,.35.26.26,0,0,1-.34,0h0a219,219,0,0,0-40.5-33.57c-1.84-1.19-3.73-2.28-5.61-3.4s-3.8-2.13-5.75-3.12c-3.85-2-7.7-4-11.59-6s-7.82-3.81-11.8-5.61-8.08-3.38-12.2-5.14h0a.26.26,0,0,1-.14-.33A.26.26,0,0,1,288.9,614.68Z"/><path class="d" d="M275.27,594.49c2.26-.34,4.53-.56,6.82-.79,1.14-.09,2.29-.22,3.43-.25s2.29,0,3.44,0,2.29,0,3.44.06,2.31,0,3.44.17l6.85.76a129.54,129.54,0,0,1,26.43,7.28,238.79,238.79,0,0,1,25.05,10.86c4,2.09,8,4.26,11.92,6.57s7.76,4.7,11.47,7.31a.25.25,0,0,1,.06.35.26.26,0,0,1-.33.07h0a228.7,228.7,0,0,0-24.18-12,232.32,232.32,0,0,0-25.24-9.32l-6.45-1.84-6.53-1.5c-2.16-.56-4.36-.93-6.53-1.4l-3.26-.73-1.62-.39-1.64-.29c-8.72-1.95-17.51-3-26.55-4.4h0a.25.25,0,0,1-.21-.29A.27.27,0,0,1,275.27,594.49Z"/><path class="d" d="M221.24,528.29c-3.17,9-6.76,17.24-9.94,25.79-.45,1-.83,2.11-1.22,3.17s-.81,2.12-1.24,3.17c-.88,2.1-1.81,4.17-2.64,6.29s-1.81,4.2-2.67,6.31-1.59,4.29-2.36,6.45-1.42,4.35-2.14,6.53l-1,3.28-.95,3.31c-1.32,4.4-2.48,8.86-3.6,13.33-2.27,8.93-4.09,18-5.52,27.15h0a.4.4,0,0,1-.8-.07q.12-7,.8-14c.42-4.64,1-9.27,1.59-13.9s1.44-9.24,2.37-13.83l.69-3.44.8-3.42c.56-2.28,1-4.58,1.66-6.84s1.2-4.54,1.76-6.83l2-6.8c.36-1.12.66-2.27,1.07-3.37l1.27-3.31c.44-1.1.9-2.19,1.37-3.27a34.83,34.83,0,0,1,1.52-3.21c1.11-2.1,2.24-4.18,3.41-6.24a35.19,35.19,0,0,1,1.89-3q1-1.49,2-2.94c.68-1,1.37-1.94,2.07-2.89s1.53-1.84,2.3-2.74c1.59-1.78,3.17-3.55,4.9-5.18a.4.4,0,0,1,.58,0,.39.39,0,0,1,.09.41Z"/><path class="d" d="M239.47,554.23c-3.5,9-7.15,17.41-10.34,26.13-.46,1.06-.8,2.18-1.19,3.26s-.81,2.17-1.22,3.26-.87,2.15-1.3,3.22l-1.22,3.26c-.83,2.17-1.73,4.32-2.51,6.52s-1.49,4.42-2.21,6.64-1.3,4.49-2,6.73c-.32,1.13-.65,2.25-1,3.38l-.85,3.41c-1.2,4.52-2.22,9.1-3.19,13.7-2,9.18-3.49,18.49-4.57,27.85v0a.34.34,0,0,1-.39.3.35.35,0,0,1-.31-.34c0-4.75.16-9.49.51-14.22s.76-9.46,1.3-14.18,1.25-9.43,2.1-14.11l.63-3.52c.23-1.17.49-2.33.73-3.5.52-2.33.95-4.68,1.54-7s1.15-4.64,1.69-7,1.25-4.63,1.88-6.94c.34-1.15.66-2.31,1-3.46s.81-2.26,1.25-3.38c.88-2.24,1.73-4.49,2.77-6.66s2.19-4.3,3.33-6.42l.86-1.58,1-1.53c.65-1,1.31-2,2-3s1.34-2,2-3a15.12,15.12,0,0,1,1.09-1.44l1.15-1.41c1.57-1.84,3.12-3.68,4.81-5.4a.35.35,0,0,1,.5,0,.34.34,0,0,1,.08.38Z"/><path class="d" d="M256.23,575.52c-2.7,9.06-5.56,17.7-7.82,26.6-.35,1.09-.6,2.21-.87,3.32l-.86,3.33c-.29,1.1-.62,2.2-.93,3.3s-.58,2.22-.86,3.33c-.58,2.23-1.21,4.44-1.76,6.68s-1,4.5-1.44,6.76-.8,4.54-1.2,6.81l-.57,3.42-.46,3.43c-.69,4.57-1.18,9.18-1.63,13.79a274.26,274.26,0,0,0-1.33,27.81h0a.3.3,0,0,1-.3.3.31.31,0,0,1-.3-.27q-.74-7-.93-14c-.17-4.67-.2-9.35-.14-14s.29-9.36.66-14l.27-3.51.37-3.5c.28-2.33.45-4.68.82-7,1.19-9.32,2.63-18.73,5.72-27.7.82-2.22,1.66-4.44,2.54-6.64.41-1.1.93-2.17,1.45-3.24s1-2.13,1.58-3.19,1-2.12,1.61-3.16,1.23-2,1.85-3c1.3-2,2.59-4,4-5.86a.29.29,0,0,1,.42-.06.29.29,0,0,1,.11.33Z"/><path class="d" d="M286.84,616.54c.26,4.47.37,8.84.72,13.21s.71,8.69,1.3,13,1.09,8.62,1.7,12.93c.27,2.17.63,4.32,1,6.47s.81,4.29,1.3,6.43A220,220,0,0,0,310.79,718h0a.25.25,0,0,1-.11.34.24.24,0,0,1-.32-.09c-2.4-3.74-4.56-7.61-6.6-11.55s-4-8-5.76-12a205.19,205.19,0,0,1-9-25.16c-2.41-8.58-4.68-17.35-5.1-26.36-.13-2.24-.16-4.49-.17-6.74,0-1.12.08-2.25.12-3.37s.08-2.25.21-3.37a72.37,72.37,0,0,1,2.3-13.24.27.27,0,0,1,.31-.18.26.26,0,0,1,.19.23Z"/><path class="d" d="M272.4,597c-1.76,9-3.71,17.61-4.82,26.47l-.28,1.64-.18,1.66-.42,3.31c-.29,2.2-.68,4.4-.88,6.62l-.79,6.65-.45,6.7a234.46,234.46,0,0,0,.25,26.9A230.65,230.65,0,0,0,268,703.8h0a.25.25,0,0,1-.49.11q-1.8-6.57-3-13.26c-.86-4.46-1.55-8.94-2.16-13.45A237.89,237.89,0,0,1,260.58,650a130.06,130.06,0,0,1,2.07-27.34l1.59-6.7c.25-1.11.67-2.2,1-3.29s.72-2.18,1.1-3.26.74-2.17,1.14-3.24.93-2.11,1.4-3.15c1-2.08,2-4.15,3.05-6.15a.25.25,0,0,1,.47.17Z"/><circle class="g" cx="395.92" cy="785.92" r="104.08"/><path class="h" d="M329.91,823.83h23.52v-75.6H334.72v-8.52c9.36-1.65,16.15-4.14,21.85-7.54h10.11v91.66h21.2v11h-58Z"/><path class="h" d="M403.67,827c30.87-30.77,48.32-49.26,48.32-66,0-11.72-6.37-20-19.48-20-8.59,0-16,5.44-21.83,12.31L403,745.84c8.59-9.43,17.85-15.6,31.15-15.6,19,0,30.82,12,30.82,30.23,0,19.27-17.69,38.42-41.92,63.88,5.56-.44,11.95-.88,17.27-.88H470v11.38H403.67Z"/></svg>