<svg xmlns="http://www.w3.org/2000/svg" width="510" height="900" viewBox="0 0 510 900"><defs><style>.a{fill:#432d1e;}.b,.e,.g{fill:#bd645d;}.b,.d,.e,.f{stroke:#432d1e;}.b,.d{stroke-miterlimit:10;}.b,.d,.e{stroke-width:8px;}.c{fill:#ffdc82;}.d{fill:none;}.e,.f,.g{stroke-miterlimit:2;}.f{fill:#fff;stroke-width:15px;}.g{stroke:#bd645d;stroke-width:12px;}</style></defs><title>21</title><path class="a" d="M168.51,784.66c-47.13-28.33-64.4-50-64.4-50A22.26,22.26,0,0,1,97,704h0a22.26,22.26,0,0,1,30.68-7.06s62.05,37.75,84.75,44C236.66,747.47,183.87,793.89,168.51,784.66Z"/><path class="a" d="M388.68,605.57l.3.26c10.23,9.06,19.67,13.35,21.09,9.59l52.74-157.76c1.42-3.76-.85-9.54-11.08-18.6l-.3-.27c-10.23-9.05-14.79-8.75-16.2-5L372.71,582.37C371.3,586.13,378.45,596.51,388.68,605.57Z"/><path class="a" d="M47.67,622.67C62.42,651.52,79.59,688,92.5,723.75c3.1,8.59,16.72,13,28.33,10.23s16.49-11.54,13.72-20.18C124,680.7,110.29,649.67,97.46,624Z"/><path class="b" d="M162.15,397.31q-1.07,0-2.13.06,0-.57,0-1.14c0-19.79-17.33-35.84-38.71-35.84s-38.71,16.05-38.71,35.84q0,.57,0,1.14-1.06-.06-2.13-.06c-21.38,0-38.72,16.05-38.72,35.84S59.15,469,80.53,469A40.77,40.77,0,0,0,101.87,463a41.34,41.34,0,0,0,38.93,0A40.8,40.8,0,0,0,162.15,469c21.38,0,38.71-16.05,38.71-35.84S183.53,397.31,162.15,397.31Z"/><ellipse class="c" cx="121.34" cy="436.05" rx="36.24" ry="20.56"/><path class="a" d="M121.07,459a31.07,31.07,0,0,1-2.43-6.69,47.49,47.49,0,0,1-1.17-6.7,29.93,29.93,0,0,1,0-6.69c.27-2.23.58-4.46.76-6.69l.54-6.69.66-6.69c.49-4.47,1-8.93,1.6-13.39h.8c.63,4.46,1.1,8.92,1.6,13.39l.66,6.69.54,6.69c.17,2.23.48,4.46.76,6.69a31.17,31.17,0,0,1,0,6.69,49,49,0,0,1-1.18,6.7,31.56,31.56,0,0,1-2.42,6.69Z"/><path class="a" d="M104.21,448.46a17.07,17.07,0,0,1-3.91-3.19,22.45,22.45,0,0,1-2.75-3.66,13,13,0,0,1-1.63-4.11c-.32-1.47-.56-3-1-4.39l-1.17-4.31-1.05-4.35c-.66-2.91-1.33-5.83-1.85-8.8l.74-.3c1.69,2.49,3.25,5,4.81,7.6l2.28,3.85,2.17,3.9c.7,1.31,1.57,2.55,2.37,3.82a13.53,13.53,0,0,1,1.7,4.08,22.48,22.48,0,0,1,.58,4.55,17.32,17.32,0,0,1-.58,5Z"/><path class="a" d="M138,448.16a17,17,0,0,1-.59-5,22.48,22.48,0,0,1,.58-4.55,13.53,13.53,0,0,1,1.7-4.08c.8-1.27,1.67-2.51,2.37-3.82l2.17-3.9,2.28-3.85c1.56-2.55,3.12-5.11,4.81-7.6l.74.3c-.52,3-1.19,5.89-1.85,8.8l-1.05,4.35L148,433.11c-.4,1.43-.64,2.92-1,4.39a13,13,0,0,1-1.63,4.11,22.45,22.45,0,0,1-2.75,3.66,17.07,17.07,0,0,1-3.91,3.19Z"/><ellipse class="b" cx="96.8" cy="464.46" rx="23.27" ry="21.54"/><ellipse class="b" cx="145.87" cy="464.46" rx="23.27" ry="21.54"/><path class="a" d="M158.43,900c36.3-101.62,203.6-242.38,319.3-283.9a14.13,14.13,0,0,0,8.4-18.36l-16.54-43.09a14.14,14.14,0,0,0-17.23-8.5C328.55,583.19,119.07,702,0,900Z"/><path class="a" d="M223.16,548.66l-.38.06c-13,2.19-24.94-5.83-26.77-17.89L127.82,37.19c-1.83-12.06,1-21.9,14-24.08l.38-.07c13-2.18,18.76,7.55,20.59,19.62l80.56,490.19C245.14,534.92,236.12,546.47,223.16,548.66Z"/><path class="b" d="M136.45,596.78c-.71,0-1.42,0-2.12.06,0-.38,0-.76,0-1.14,0-19.79-17.34-35.83-38.72-35.83s-38.71,16-38.71,35.83c0,.38,0,.76,0,1.14-.71,0-1.41-.06-2.13-.06-21.38,0-38.71,16.05-38.71,35.84s17.33,35.84,38.71,35.84a40.71,40.71,0,0,0,21.35-6,41.34,41.34,0,0,0,38.93,0,40.68,40.68,0,0,0,21.34,6c21.39,0,38.72-16.05,38.72-35.84S157.84,596.78,136.45,596.78Z"/><ellipse class="c" cx="95.64" cy="635.53" rx="36.24" ry="20.56"/><path class="a" d="M95.37,658.49a31.61,31.61,0,0,1-2.43-6.69,48.71,48.71,0,0,1-1.17-6.7,29.93,29.93,0,0,1,0-6.69c.27-2.23.59-4.46.76-6.69l.54-6.69.66-6.69c.49-4.46,1-8.93,1.6-13.39h.8c.63,4.46,1.11,8.93,1.6,13.39l.66,6.69.54,6.69c.17,2.23.49,4.46.76,6.69a29.93,29.93,0,0,1,0,6.69,50.27,50.27,0,0,1-1.17,6.7,31.61,31.61,0,0,1-2.43,6.69Z"/><path class="a" d="M78.52,647.93a16.67,16.67,0,0,1-3.92-3.19,22,22,0,0,1-2.75-3.66A13.19,13.19,0,0,1,70.22,637c-.31-1.47-.56-3-1-4.39l-1.17-4.3-1-4.35c-.66-2.92-1.32-5.84-1.85-8.81l.74-.3c1.7,2.5,3.25,5,4.82,7.6L73,626.27l2.17,3.9c.71,1.31,1.57,2.55,2.37,3.82a13.28,13.28,0,0,1,1.7,4.08,22.48,22.48,0,0,1,.58,4.55,16.66,16.66,0,0,1-.58,5Z"/><path class="a" d="M112.28,647.63a16.66,16.66,0,0,1-.58-5,22.48,22.48,0,0,1,.58-4.55A13,13,0,0,1,114,634c.79-1.27,1.66-2.51,2.37-3.82l2.16-3.9,2.28-3.85c1.57-2.55,3.12-5.1,4.82-7.6l.74.3c-.53,3-1.2,5.89-1.85,8.81l-1.06,4.35-1.16,4.3c-.41,1.43-.65,2.92-1,4.39a13.44,13.44,0,0,1-1.63,4.11,22.1,22.1,0,0,1-2.76,3.66,16.41,16.41,0,0,1-3.91,3.19Z"/><ellipse class="b" cx="71.11" cy="663.93" rx="23.27" ry="21.54"/><ellipse class="b" cx="120.18" cy="663.93" rx="23.27" ry="21.54"/><path class="b" d="M154.72,64.19c-.72,0-1.42,0-2.13.06,0-.38,0-.76,0-1.14,0-19.79-17.33-35.83-38.71-35.83s-38.72,16-38.72,35.83c0,.38,0,.76,0,1.14-.7,0-1.41-.06-2.12-.06-21.39,0-38.72,16-38.72,35.84s17.33,35.84,38.72,35.84a40.68,40.68,0,0,0,21.34-6,41.34,41.34,0,0,0,38.93,0,40.71,40.71,0,0,0,21.35,6c21.38,0,38.71-16.05,38.71-35.84S176.1,64.19,154.72,64.19Z"/><ellipse class="c" cx="113.91" cy="102.94" rx="36.24" ry="20.56"/><path class="a" d="M113.63,125.9a31.56,31.56,0,0,1-2.42-6.69,48.87,48.87,0,0,1-1.18-6.69,30.63,30.63,0,0,1,0-6.7c.27-2.23.59-4.46.76-6.69l.54-6.69.66-6.69c.49-4.46,1-8.93,1.6-13.39h.8c.64,4.46,1.11,8.93,1.6,13.39l.66,6.69.54,6.69c.17,2.23.49,4.46.76,6.69a30,30,0,0,1,0,6.7,47.36,47.36,0,0,1-1.17,6.69,31.07,31.07,0,0,1-2.43,6.69Z"/><path class="a" d="M96.78,115.34a16.41,16.41,0,0,1-3.91-3.19,22,22,0,0,1-2.75-3.66,13,13,0,0,1-1.63-4.11c-.32-1.47-.56-3-1-4.39l-1.16-4.3L85.3,91.34c-.65-2.92-1.32-5.84-1.84-8.81l.74-.3c1.69,2.5,3.25,5,4.81,7.6l2.28,3.85,2.16,3.9c.71,1.31,1.58,2.55,2.37,3.82a13.3,13.3,0,0,1,1.71,4.08,22.48,22.48,0,0,1,.58,4.55,17,17,0,0,1-.59,5Z"/><path class="a" d="M130.54,115a17.32,17.32,0,0,1-.58-5,22.48,22.48,0,0,1,.58-4.55,13.28,13.28,0,0,1,1.7-4.08c.8-1.27,1.67-2.51,2.37-3.82l2.17-3.9,2.28-3.85c1.56-2.55,3.11-5.1,4.81-7.6l.74.3c-.52,3-1.19,5.89-1.85,8.81l-1,4.35-1.17,4.3c-.4,1.43-.64,2.92-1,4.39a13.19,13.19,0,0,1-1.63,4.11,22,22,0,0,1-2.75,3.66,16.67,16.67,0,0,1-3.92,3.19Z"/><ellipse class="b" cx="89.37" cy="131.34" rx="23.27" ry="21.54"/><ellipse class="b" cx="138.44" cy="131.34" rx="23.27" ry="21.54"/><circle class="b" cx="304.53" cy="423.67" r="27.58"/><path class="d" d="M296.07,397.42s.73,17.44,18,24.81"/><path class="d" d="M325,405.2c-6.3,15.58-22.74,29.46-45.83,29.33"/><path class="a" d="M298.24,661.57l-.22.37c-7.57,12.75-15.36,20.59-17.4,17.53L201.25,548.19c-2-3.06-1.1-9.53,6.47-22.27l.23-.38c7.57-12.74,11.8-14.24,13.83-11.18l86.49,118.58C310.31,636,305.82,648.82,298.24,661.57Z"/><path class="e" d="M297.89,737.92l120-101.76s-152.1-123.49-152.1-481.67l-140.11,18C125.65,605.36,297.89,737.92,297.89,737.92Z"/><path class="a" d="M235.33,233.37c-.12,6.79-3.59,13.08-10.47,19a38.87,38.87,0,0,1-21.62,9.71c.13-.25,2.28-2.21,6.47-5.8,6.39-6.21,15.48-13.68,15.85-23.38.2-5.28-2.89-7.93-9.11-7.63a23.21,23.21,0,0,0-7.68,1.83Q206,232.21,202.38,238c-1.22,1.83-3,4.65-5.24,8.46a9.65,9.65,0,0,0-1.29,4.3,24.69,24.69,0,0,0,.21,2.6,25,25,0,0,1,.22,2.59,10.48,10.48,0,0,1-1.33,4.77l-.29,0c-3,.32-5.36-1-6.92-3.93-3.61,3.13-6.52,4.81-8.76,5l-3.08-.3c-.41-1.08-1.8-2.49-4.1-4.24-2.06-1.56-3.09-3-3.09-4.36,0-3.45,2.23-7.85,6.79-13a65.58,65.58,0,0,1,11.7-10.36c.35-3.87.54-5.8.94-9.67-.53.08-1.83.26-3.79.62a30.1,30.1,0,0,1-3.78.53,9.3,9.3,0,0,1-6.8-2.52l.52-.68q6.61-2.15,9.15-3.25a36.28,36.28,0,0,0,8.55-4.65,41.51,41.51,0,0,1,2.23-8.8,33.41,33.41,0,0,1,3.09-7,11.76,11.76,0,0,1,6.4-4.58l1.23.53c.55.55.95,2,1.23,4.43a9.68,9.68,0,0,0,1.7,5.12c1.46,1.67,4,2.46,7.54,2.38,0,.57.06.86.11,1.44a11.31,11.31,0,0,1-3.28,4.33c-1.42,1.13-7.28,4-17.53,8.9a33.6,33.6,0,0,0-1.61,8,18.51,18.51,0,0,0,0,2.12c3.09-1.69,5.84-3.06,8.26-4.15A3.83,3.83,0,0,0,202,221a2.65,2.65,0,0,0-1.48-2.41c0-.33,0-.49,0-.82a13,13,0,0,1,2.88-1.17,15,15,0,0,1,3.15-.8,5.89,5.89,0,0,1,4.75,2.26c-.21,1.09-.31,1.64-.51,2.73a54.92,54.92,0,0,1,7.76-1c4.89-.21,8.93.89,12,3.28A12,12,0,0,1,235.33,233.37Zm-48.52,16.94c-.24-5.35-.33-8-.47-13.38a44.81,44.81,0,0,0-6.93,6.66c-2.94,3.4-4.39,6-4.38,7.7q0,3.36,5.56,4C182,254.69,184.1,253,186.81,250.31Zm11.38-20.4a39.46,39.46,0,0,0-5.55,3.79,25,25,0,0,0-.48,4.63,29.52,29.52,0,0,0,.43,5.48c.13-.25,1.17-2.56,3.16-6.9A32.37,32.37,0,0,0,198.19,229.91Zm5.94-27.65c-.47-1.82-.71-2.73-1.17-4.55a26,26,0,0,0-3.53,8.42A34.32,34.32,0,0,0,204.13,202.26Z"/><path class="a" d="M240,324a44.51,44.51,0,0,1,.16,9.76c-.42,4.66-1.52,7.72-3.32,9.12a16.91,16.91,0,0,1-5,2.5,20,20,0,0,0-4.48,2l-.66-.3c3.19-11.75,4.6-20.29,3.9-26a15.67,15.67,0,0,0-3.34-8.09,11.06,11.06,0,0,0-8.27-4.34,42,42,0,0,0-8.19.39c-10.38,1.47-18.19,5.34-23.28,11.65s-7,14.1-5.7,23.25c.59,4.05,1.65,6.24,3.12,6.56,4.64-4.24,8.86-10.19,12.65-17.75q5.52-11,6.45-19.77c1.91.31,3,1.72,3.27,4.22.33,3.07-.38,7.29-1.92,12.6a61.14,61.14,0,0,1-4.84,12.38c-4.65,7.55-9.67,17.4-18.53,21.05-1.52-.6-3-2.71-4.32-6.35a42.51,42.51,0,0,1,1.83-32.7A31.72,31.72,0,0,1,192.8,310a51.49,51.49,0,0,1,19.31-6.38c5.82-.79,10.28-.44,13.42,1C234.1,308.63,238.81,315,240,324Z"/><path class="a" d="M248.11,409.73c-2,4.24-8.93,7.94-20.84,11.06.24.72,1,3.19,2.45,7.29,1,2.94,1.83,5.38,2.36,7.31a56.58,56.58,0,0,1,1.49,7.21A53,53,0,0,1,245.2,442c5.72.26,8.87,1.39,9.5,3.44a3.32,3.32,0,0,1-.41,2.41c-1.89,3.83-5.31,7.46-10.32,10.89l-.65-.07a28.35,28.35,0,0,0,3.26-8.93c-4.44-.32-6.69-.49-6.75-.47a35,35,0,0,0-6.92.39c.33,8.08-1.13,13.92-4.66,17.49l-.76.25a12.16,12.16,0,0,1-6.37.55,30.63,30.63,0,0,1-9-3.32c-3.63-2-5.76-4-6.39-6.13-1.54-5.09,16.79-10.1,19.61-14.27.52-.76-.7-5.09-1.44-7.84-1-3.84-2.53-12.14-4.56-13.7-1-.76-5.22-1.19-7.8-2.79l.4-.48a22.48,22.48,0,0,0,5-.9l.88-.24c-.63-2.91-1.25-5.86-1.75-8.79-.89-5.15-.76-8.45.2-9.68a4.62,4.62,0,0,1,2.75-1.52,2.24,2.24,0,0,1,2.79,1c.56,1,1,2.05,1.46,2.9a14.23,14.23,0,0,0,3.16,3.49c2.32,2.08,7,2.18,14,.34a6.78,6.78,0,0,1,4.87.42A4.81,4.81,0,0,1,248.11,409.73Zm-22.22,41c-1.11.27-2.17.57-3.19.89-6.39,2-9.26,4-8.61,6.18.32,1,1.34,1.67,3,1.91a9,9,0,0,0,4.12-.26C224.21,458.49,225.73,455.57,225.89,450.72ZM230,412.44c-3.19-1-5.95-3.5-8.25-7.63A84.13,84.13,0,0,0,225,415.43,29.09,29.09,0,0,0,230,412.44Z"/><path class="a" d="M292,528c2.46,6.71,1.07,13.84-3.81,21.29a37.17,37.17,0,0,1-17.13,14.56c-.74.32-2.7,1-5.87,2.06,6.49-8.5,10.68-14,12.25-16.49,5-8,6.85-14.4,5.12-19.12-1.29-3.53-4.35-4.33-9.2-2.44a40.57,40.57,0,0,0-9.49,6,70.54,70.54,0,0,0-8.29,7.49,46.61,46.61,0,0,0-10,16.18l-.36.15c-.93.46-2,.09-3.08-.95a8.53,8.53,0,0,1-2.07-2.8,7.32,7.32,0,0,1-.1-3.51c.62-2.22,1.52-5.57,2.77-10,.68-2.89,1.71-7.27,3.33-12.92a100.62,100.62,0,0,0,3.08-13,49.14,49.14,0,0,0-4.75,3.06,23.77,23.77,0,0,1-4.83,2.81c-2.33.89-5.86,0-10.63-2.76l.5-.69a10.94,10.94,0,0,0,2.81-.67c3.08-1.16,7.27-4.33,12.65-9.48s8.88-8,10.44-8.53a11.21,11.21,0,0,1,5.46-.32c2.16.33,3.4,1.14,3.76,2.46l.11.35a44.74,44.74,0,0,0-4.43,6.43,19.09,19.09,0,0,0-1.06,2.74c-.92,2.43-2.19,6.13-3.76,11.1s-2.94,10.25-4.11,15.82c7.7-7.38,14.32-12,19.69-14.1.24-.1.6-.27,1.1-.53s.86-.43,1.1-.52a17.16,17.16,0,0,1,11.4-.67A10.81,10.81,0,0,1,292,528Z"/><path class="a" d="M343.8,606.34c1.07,1.73,2.16,5.23,3.24,10.51a43.66,43.66,0,0,1,1,9.17c0,3.8-1.29,8.34-3.53,13.56a58,58,0,0,1-7.3,12.6,29.75,29.75,0,0,1-8.07,7.11,15.89,15.89,0,0,1-12,2.16,17,17,0,0,1-10.38-6.69,74.85,74.85,0,0,1-7-10.67c-.32-.65-1.36-3.25-3.11-7.77a33.34,33.34,0,0,0-3.91-7.57,19.84,19.84,0,0,0-2.13-2.27,18,18,0,0,1-2.08-2.19c-1.19-1.64-1.82-4.5-1.85-8.51,0-5.64,0-8.56-.07-8.83a17.86,17.86,0,0,0-6.37-1.9c0-.35,0-.53,0-.87a11.16,11.16,0,0,1,1.78-1.09,16.35,16.35,0,0,1,7.93-1.58,11.84,11.84,0,0,1,7.71,2.91,4.59,4.59,0,0,1-.86,5.33c-1.45,1.69-3.17,3.38-4.39,5-1.59,2.1-1.88,5.33-1,8.71,5.59,3.76,8.93,6.26,10,7.65a54.83,54.83,0,0,1,4.5,8.33,53.13,53.13,0,0,0,5.12,9.13,25.32,25.32,0,0,0,5.36,5.63,6.46,6.46,0,0,0,7.38.15,19.32,19.32,0,0,0,4.29-4.57,49.07,49.07,0,0,0,3.58-5.32,109.76,109.76,0,0,0,10.54-26A53.92,53.92,0,0,0,343.8,606.34Z"/><path class="a" d="M196.46,271.89a16.68,16.68,0,0,1,5.33,3.42,8.27,8.27,0,0,1,1.67,2.19,17.43,17.43,0,0,0,1.46,2.38A24.14,24.14,0,0,0,206.7,282l1,1,1,.9a13.75,13.75,0,0,0,5,2.61v.6a12.68,12.68,0,0,1-6.4-.57,20.24,20.24,0,0,1-5.71-3.19c-.88-.65-1.76-1.29-2.63-2a7.82,7.82,0,0,1-2-2.51,11.19,11.19,0,0,1-1.05-3.11,9,9,0,0,1,0-3.57Z"/><path class="a" d="M440.68,461.68l.35,0c11.93,1.42,22.2-5.45,23-15.35L488.44,41.58c.74-9.9-2.58-17.85-14.51-19.27l-.35,0c-11.93-1.42-16.46,6.68-17.2,16.58l-36,402.33C419.68,451.08,428.75,460.26,440.68,461.68Z"/><circle class="b" cx="462.58" cy="363.4" r="27.58"/><path class="d" d="M454.12,337.16s.73,17.44,18,24.81"/><path class="d" d="M483.06,344.93c-6.3,15.59-22.74,29.46-45.83,29.34"/><path class="b" d="M461.11,433c-.71,0-1.42,0-2.13.05,0-.38,0-.75,0-1.13,0-19.8-17.33-35.84-38.71-35.84s-38.72,16-38.72,35.84c0,.38,0,.75,0,1.13-.71,0-1.42-.05-2.13-.05-21.38,0-38.72,16-38.72,35.83s17.34,35.84,38.72,35.84a40.76,40.76,0,0,0,21.34-5.94,41.41,41.41,0,0,0,38.93,0,40.8,40.8,0,0,0,21.35,5.94c21.38,0,38.71-16,38.71-35.84S482.49,433,461.11,433Z"/><ellipse class="c" cx="420.3" cy="471.75" rx="36.24" ry="20.56"/><path class="a" d="M420,494.71A31.56,31.56,0,0,1,417.6,488a48.87,48.87,0,0,1-1.18-6.69,31.17,31.17,0,0,1,0-6.69c.28-2.23.59-4.46.76-6.7l.54-6.69.66-6.69c.5-4.46,1-8.92,1.6-13.38h.8c.64,4.46,1.11,8.92,1.6,13.38l.66,6.69.54,6.69c.18,2.24.49,4.47.76,6.7a29.93,29.93,0,0,1,0,6.69,47.36,47.36,0,0,1-1.17,6.69,31.07,31.07,0,0,1-2.43,6.69Z"/><path class="a" d="M403.17,484.16a17.34,17.34,0,0,1-3.91-3.19,22.45,22.45,0,0,1-2.75-3.66,13,13,0,0,1-1.63-4.12c-.32-1.46-.56-3-1-4.39l-1.17-4.3-1.05-4.35c-.66-2.92-1.33-5.83-1.85-8.81l.74-.3c1.69,2.5,3.25,5,4.81,7.6l2.28,3.86,2.17,3.9c.7,1.3,1.57,2.54,2.37,3.81a13.48,13.48,0,0,1,1.7,4.09,22.29,22.29,0,0,1,.58,4.54,17,17,0,0,1-.59,5Z"/><path class="a" d="M436.94,483.85a17,17,0,0,1-.59-5,22.29,22.29,0,0,1,.58-4.54,13.48,13.48,0,0,1,1.7-4.09c.8-1.27,1.67-2.51,2.37-3.81l2.17-3.9,2.28-3.86c1.56-2.55,3.12-5.1,4.81-7.6l.74.3c-.52,3-1.19,5.89-1.85,8.81l-1,4.35-1.17,4.3c-.4,1.43-.64,2.93-1,4.39a13,13,0,0,1-1.63,4.12,22.45,22.45,0,0,1-2.75,3.66,17.34,17.34,0,0,1-3.91,3.19Z"/><ellipse class="b" cx="395.76" cy="500.15" rx="23.27" ry="21.54"/><ellipse class="b" cx="444.83" cy="500.15" rx="23.27" ry="21.54"/><path class="b" d="M424.87,296.26c-.72,0-1.43,0-2.13.05,0-.37,0-.75,0-1.13,0-19.79-17.33-35.84-38.71-35.84s-38.72,16.05-38.72,35.84c0,.38,0,.76,0,1.13-.7,0-1.41-.05-2.12-.05-21.39,0-38.72,16-38.72,35.83s17.33,35.84,38.72,35.84A40.76,40.76,0,0,0,364.59,362a41.41,41.41,0,0,0,38.93,0,40.8,40.8,0,0,0,21.35,5.94c21.38,0,38.71-16,38.71-35.84S446.25,296.26,424.87,296.26Z"/><ellipse class="c" cx="384.06" cy="335" rx="36.24" ry="20.56"/><path class="a" d="M383.78,358a31.56,31.56,0,0,1-2.42-6.69,48.87,48.87,0,0,1-1.18-6.69,29.93,29.93,0,0,1,0-6.69c.27-2.23.59-4.46.76-6.69l.54-6.7.66-6.69c.49-4.46,1-8.92,1.6-13.38h.8c.63,4.46,1.11,8.92,1.6,13.38l.66,6.69.54,6.7c.17,2.23.49,4.46.76,6.69a29.93,29.93,0,0,1,0,6.69,47.36,47.36,0,0,1-1.17,6.69,31.07,31.07,0,0,1-2.43,6.69Z"/><path class="a" d="M366.93,347.41a16.9,16.9,0,0,1-3.91-3.19,23.11,23.11,0,0,1-2.76-3.66,13.22,13.22,0,0,1-1.62-4.12c-.32-1.46-.56-3-1-4.38l-1.16-4.31-1.06-4.35c-.65-2.92-1.32-5.83-1.85-8.8l.75-.31c1.69,2.5,3.24,5.06,4.81,7.61l2.28,3.85,2.16,3.9c.71,1.3,1.58,2.54,2.37,3.81a13.26,13.26,0,0,1,1.71,4.09,23.11,23.11,0,0,1,.58,4.54,17.07,17.07,0,0,1-.59,5Z"/><path class="a" d="M400.69,347.11a17.39,17.39,0,0,1-.58-5,22.38,22.38,0,0,1,.58-4.54,13.23,13.23,0,0,1,1.7-4.09c.8-1.27,1.67-2.51,2.37-3.81l2.17-3.9,2.28-3.85c1.56-2.55,3.11-5.11,4.81-7.61l.74.31c-.52,3-1.19,5.88-1.85,8.8l-1.05,4.35-1.17,4.31c-.4,1.42-.64,2.92-1,4.38a13.24,13.24,0,0,1-1.63,4.12,22.45,22.45,0,0,1-2.75,3.66,17.18,17.18,0,0,1-3.92,3.19Z"/><ellipse class="b" cx="359.52" cy="363.4" rx="23.27" ry="21.54"/><ellipse class="b" cx="408.59" cy="363.4" rx="23.27" ry="21.54"/><circle class="b" cx="443.46" cy="110.59" r="27.58"/><path class="d" d="M435,84.34s.73,17.44,18,24.81"/><path class="d" d="M463.94,92.12c-6.3,15.58-22.74,29.45-45.82,29.33"/><path class="b" d="M430.9,687.11c-5.78-9.55,4.33-26.26,4.33-26.26s19.49-1.22,25.27,8.33,3.85,21.31-4.32,26.26S436.69,696.66,430.9,687.11Z"/><path class="b" d="M18.54,707.55c4.61-10.17,24.1-11.29,24.1-11.29s12,15.38,7.44,25.55S34.69,737,26,733.1,13.94,717.73,18.54,707.55Z"/><path class="b" d="M227.64,833.14c-3.55-10.59,10-24.66,10-24.66s19.28,3.09,22.82,13.68-.93,21.63-10,24.67S231.18,843.73,227.64,833.14Z"/><circle class="b" cx="475.41" cy="231.67" r="27.58"/><path class="d" d="M467,205.42s.73,17.44,18,24.81"/><path class="d" d="M495.89,213.2c-6.3,15.58-22.74,29.46-45.82,29.34"/><path class="b" d="M25.22,184.78c2.71-10.83,21.7-15.4,21.7-15.4s14.58,13,11.86,23.82-12.43,17.72-21.7,15.4S22.5,195.61,25.22,184.78Z"/><path class="b" d="M137.45,550.67c-3.55-10.59,10-24.67,10-24.67s19.28,3.09,22.82,13.68-.92,21.63-10,24.67S141,561.25,137.45,550.67Z"/><path class="b" d="M79.17,290.33c7.08-8.64,26.2-4.68,26.2-4.68s7.65,18,.58,26.6-18.8,10.74-26.2,4.69S72.1,299,79.17,290.33Z"/><circle class="f" cx="395.92" cy="785.92" r="104.08"/><path class="g" d="M353.26,841.25c40.84-40.7,63.93-65.17,63.93-87.25,0-15.51-8.43-26.51-25.77-26.51-11.37,0-21.14,7.2-28.88,16.28l-10.17-9.9c11.36-12.49,23.6-20.65,41.2-20.65,25.11,0,40.78,15.85,40.78,40,0,25.5-23.41,50.83-55.46,84.52,7.36-.58,15.81-1.17,22.85-1.17H441v15.06H353.26Z"/></svg>