<svg xmlns="http://www.w3.org/2000/svg" width="510" height="900" viewBox="0 0 510 900"><defs><style>.a{fill:#432d1e;}.b,.f{fill:#bd645d;}.b,.c,.e{stroke:#432d1e;}.b,.c{stroke-miterlimit:10;stroke-width:8px;}.c{fill:none;}.d{fill:#ffdc82;}.e{fill:#fff;stroke-width:15px;}.e,.f{stroke-miterlimit:2;}.f{stroke:#bd645d;stroke-width:12px;}</style></defs><title>22</title><path class="a" d="M92.66,571.46l.36,0a22.27,22.27,0,0,0,19.62-24.63l-62.37-498c-1.38-12.21-6.4-21-18.62-19.61l-.36,0c-12.22,1.38-15,12.4-13.62,24.62L68,551.84A22.26,22.26,0,0,0,92.66,571.46Z"/><path class="a" d="M518.65,641.93v-49.8c-39.59,15.51-89.64,33.65-139,47.52a18.92,18.92,0,0,0-8.6,5.18,22.27,22.27,0,0,0-6.1,6.71s-33.27,49.7-40.2,68.25a13.32,13.32,0,0,0-.68,5.22c-14.76-7-29.17-13.11-43.09-18.48-3.93-28.17-2-87.76-2-87.76a22.21,22.21,0,0,0-3.28-12.66c92-70.55,158-148,158-148a22.17,22.17,0,0,0,7.13-16.8,22.24,22.24,0,0,0,.84-3.94l21.62-223.08c1.46-12.21-2.26-23.28-14.46-24.74h0c-12.21-1.46-19.29,7.26-20.75,19.47L397.58,431.72c-4.62,4.83-11.79,12.23-20.95,21.45-1.67-73.2-17-194.57-17-194.57a16,16,0,0,0-31.78,3.6s16.91,161.3,14.93,224.22c-30.5,29.26-69.37,64.69-109.19,96-9.67,7.6-9.6,22.43-1.25,31.46a21.74,21.74,0,0,0,2.24,2.08c0,.28,0,.55-.05.83,0,0-5,48.82-4.06,72.61-42.45-12.44-76.81-17.68-96.87-19.86l-16.74-77.2a22.26,22.26,0,0,0-26.47-17h0a22.26,22.26,0,0,0-17,26.48L97.13,711.41a22.27,22.27,0,0,0,19.34,17.41C266.3,777.66,330.71,900,330.71,900H510V859A628.76,628.76,0,0,0,366.23,746.91c8.81-21.55,26.33-53.53,33.71-66.73A1098.18,1098.18,0,0,0,518.65,641.93Z"/><circle class="b" cx="182.23" cy="600.65" r="27.58"/><path class="c" d="M172.58,574.82s1.52,17.38,19.11,24"/><path class="c" d="M201.85,581.27c-5.59,15.86-21.38,30.46-44.45,31.39"/><circle class="b" cx="498.43" cy="581.27" r="27.58"/><path class="c" d="M478.78,561.93s8.72,15.12,27.44,13.66"/><path class="c" d="M508,555.42c1.63,16.73-6.52,36.64-27,47.22"/><circle class="b" cx="39.78" cy="470.82" r="27.58"/><path class="c" d="M21,450.66S29,466.13,47.8,465.46"/><path class="c" d="M50.46,445.39c.92,16.79-8.06,36.33-29,46"/><circle class="b" cx="461.06" cy="300.31" r="27.58"/><path class="c" d="M451.41,274.48s1.52,17.38,19.11,24"/><path class="c" d="M480.68,280.93c-5.59,15.86-21.38,30.46-44.45,31.39"/><path class="b" d="M108.17,519.78c-.72,0-1.43,0-2.13.06,0-.38,0-.75,0-1.14,0-19.79-17.33-35.83-38.72-35.83s-38.71,16-38.71,35.83c0,.39,0,.76,0,1.14-.7,0-1.41-.06-2.13-.06-21.38,0-38.71,16.05-38.71,35.84s17.33,35.84,38.71,35.84a40.8,40.8,0,0,0,21.35-5.94,41.41,41.41,0,0,0,38.93,0,40.8,40.8,0,0,0,21.35,5.94c21.38,0,38.71-16.05,38.71-35.84S129.55,519.78,108.17,519.78Z"/><ellipse class="d" cx="67.35" cy="558.53" rx="36.24" ry="20.56"/><path class="a" d="M67.08,581.49a31.61,31.61,0,0,1-2.43-6.69,48.83,48.83,0,0,1-1.17-6.69,29.93,29.93,0,0,1,0-6.69c.27-2.24.59-4.47.76-6.7l.54-6.69.66-6.69c.49-4.46,1-8.92,1.6-13.39h.8c.63,4.47,1.11,8.93,1.6,13.39l.66,6.69.54,6.69c.17,2.23.49,4.46.76,6.7a29.93,29.93,0,0,1,0,6.69,48.83,48.83,0,0,1-1.17,6.69,31.61,31.61,0,0,1-2.43,6.69Z"/><path class="a" d="M50.23,570.93a16.89,16.89,0,0,1-3.92-3.18,22.45,22.45,0,0,1-2.75-3.66A13.59,13.59,0,0,1,41.93,560c-.31-1.46-.55-3-1-4.39l-1.16-4.3-1.06-4.35c-.65-2.92-1.32-5.84-1.85-8.81l.74-.3c1.7,2.5,3.25,5,4.82,7.6l2.27,3.86,2.17,3.89c.71,1.31,1.58,2.55,2.37,3.82a13,13,0,0,1,1.7,4.09,22.29,22.29,0,0,1,.58,4.54,16.66,16.66,0,0,1-.58,5Z"/><path class="a" d="M84,570.63a16.66,16.66,0,0,1-.58-5,22.29,22.29,0,0,1,.58-4.54,13.23,13.23,0,0,1,1.7-4.09c.79-1.27,1.66-2.51,2.37-3.82l2.17-3.89,2.27-3.86c1.57-2.55,3.12-5.1,4.82-7.6l.74.3c-.53,3-1.19,5.89-1.85,8.81l-1,4.35L94,555.58c-.4,1.43-.65,2.93-1,4.39a13.34,13.34,0,0,1-1.63,4.12,22.45,22.45,0,0,1-2.75,3.66,16.89,16.89,0,0,1-3.92,3.18Z"/><ellipse class="b" cx="42.82" cy="586.93" rx="23.27" ry="21.54"/><ellipse class="b" cx="91.89" cy="586.93" rx="23.27" ry="21.54"/><path class="b" d="M443.22,611.33c-.71,0-1.42,0-2.13,0,0-.37,0-.75,0-1.13,0-19.79-17.34-35.84-38.72-35.84s-38.71,16.05-38.71,35.84c0,.38,0,.76,0,1.13-.71,0-1.42,0-2.13,0-21.38,0-38.71,16-38.71,35.84S340.22,683,361.6,683A40.8,40.8,0,0,0,383,677.06a41.41,41.41,0,0,0,38.93,0A40.76,40.76,0,0,0,443.22,683c21.38,0,38.72-16,38.72-35.83S464.6,611.33,443.22,611.33Z"/><ellipse class="d" cx="402.41" cy="650.07" rx="36.24" ry="20.56"/><path class="a" d="M402.14,673a31.34,31.34,0,0,1-2.43-6.7,47.36,47.36,0,0,1-1.17-6.69,29.93,29.93,0,0,1,0-6.69c.27-2.23.59-4.46.76-6.69l.54-6.69.66-6.7c.49-4.46,1-8.92,1.6-13.38h.8c.63,4.46,1.11,8.92,1.6,13.38l.66,6.7.54,6.69c.17,2.23.49,4.46.76,6.69a30.54,30.54,0,0,1,0,6.69,48.87,48.87,0,0,1-1.18,6.69,31.84,31.84,0,0,1-2.42,6.7Z"/><path class="a" d="M385.29,662.48a17.18,17.18,0,0,1-3.92-3.19,22.45,22.45,0,0,1-2.75-3.66,13.24,13.24,0,0,1-1.63-4.12c-.32-1.46-.56-3-1-4.38l-1.17-4.31-1.05-4.35c-.66-2.92-1.33-5.83-1.85-8.8l.74-.3c1.7,2.49,3.25,5,4.81,7.6l2.28,3.85,2.17,3.9c.7,1.3,1.57,2.54,2.37,3.81a13.23,13.23,0,0,1,1.7,4.09,22.47,22.47,0,0,1,.58,4.54,17.35,17.35,0,0,1-.58,5Z"/><path class="a" d="M419.05,662.18a17,17,0,0,1-.59-5,23.21,23.21,0,0,1,.58-4.54,13.26,13.26,0,0,1,1.71-4.09c.79-1.27,1.66-2.51,2.37-3.81l2.16-3.9,2.28-3.85c1.56-2.55,3.12-5.11,4.81-7.6l.75.3c-.53,3-1.2,5.88-1.85,8.8l-1.06,4.35-1.16,4.31c-.41,1.42-.65,2.92-1,4.38a13.22,13.22,0,0,1-1.62,4.12,23.11,23.11,0,0,1-2.76,3.66,16.9,16.9,0,0,1-3.91,3.19Z"/><ellipse class="b" cx="377.88" cy="678.48" rx="23.27" ry="21.54"/><ellipse class="b" cx="426.95" cy="678.48" rx="23.27" ry="21.54"/><circle class="b" cx="252.23" cy="525.92" r="27.58"/><path class="c" d="M242.58,500.09s1.52,17.38,19.11,24"/><path class="c" d="M271.85,506.54c-5.59,15.86-21.39,30.46-44.45,31.38"/><circle class="b" cx="465.83" cy="713.5" r="27.58"/><path class="c" d="M451.5,689.94s4.76,16.79,23.27,19.95"/><path class="c" d="M481.46,690.78C479,707.4,466.18,724.71,443.7,730"/><path class="b" d="M179.62,622.39c-.72,0-1.43,0-2.13.05,0-.38,0-.75,0-1.13,0-19.8-17.33-35.84-38.71-35.84s-38.72,16-38.72,35.84c0,.38,0,.75,0,1.13-.7,0-1.41-.05-2.13-.05-21.38,0-38.71,16-38.71,35.83S76.61,694.06,98,694.06a40.77,40.77,0,0,0,21.35-5.94,41.41,41.41,0,0,0,38.93,0,40.8,40.8,0,0,0,21.35,5.94c21.38,0,38.71-16,38.71-35.84S201,622.39,179.62,622.39Z"/><ellipse class="d" cx="138.81" cy="661.13" rx="36.24" ry="20.56"/><path class="a" d="M138.53,684.09a31.56,31.56,0,0,1-2.42-6.69,48.87,48.87,0,0,1-1.18-6.69,29.93,29.93,0,0,1,0-6.69c.27-2.23.59-4.46.76-6.69l.54-6.7.66-6.69c.49-4.46,1-8.92,1.6-13.38h.8c.63,4.46,1.11,8.92,1.6,13.38l.66,6.69.54,6.7c.17,2.23.49,4.46.76,6.69a29.93,29.93,0,0,1,0,6.69,47.36,47.36,0,0,1-1.17,6.69,31.07,31.07,0,0,1-2.43,6.69Z"/><path class="a" d="M121.68,673.54a16.9,16.9,0,0,1-3.91-3.19,23.11,23.11,0,0,1-2.76-3.66,13.22,13.22,0,0,1-1.62-4.12c-.32-1.46-.56-3-1-4.39l-1.16-4.3-1.06-4.35c-.65-2.92-1.32-5.83-1.85-8.81l.75-.3c1.69,2.5,3.24,5.05,4.81,7.6l2.28,3.86,2.16,3.9c.71,1.3,1.58,2.54,2.37,3.81a13.26,13.26,0,0,1,1.71,4.09,23,23,0,0,1,.57,4.54,16.72,16.72,0,0,1-.58,5Z"/><path class="a" d="M155.44,673.24a17.39,17.39,0,0,1-.58-5,22.29,22.29,0,0,1,.58-4.54,13.23,13.23,0,0,1,1.7-4.09c.8-1.27,1.67-2.51,2.37-3.81l2.17-3.9L164,648c1.56-2.55,3.11-5.1,4.81-7.6l.74.3c-.52,3-1.19,5.89-1.85,8.81l-1,4.35-1.17,4.3c-.4,1.43-.64,2.93-1,4.39a13.24,13.24,0,0,1-1.63,4.12,22.45,22.45,0,0,1-2.75,3.66,17.18,17.18,0,0,1-3.92,3.19Z"/><ellipse class="b" cx="114.27" cy="689.53" rx="23.27" ry="21.54"/><ellipse class="b" cx="163.34" cy="689.53" rx="23.27" ry="21.54"/><path class="b" d="M340.85,562.57q-1.08,0-2.13.06c0-.38,0-.76,0-1.14,0-19.79-17.33-35.84-38.71-35.84s-38.72,16.05-38.72,35.84c0,.38,0,.76,0,1.14q-1.05-.06-2.13-.06c-21.38,0-38.71,16-38.71,35.84s17.33,35.84,38.71,35.84a40.69,40.69,0,0,0,21.35-6,41.34,41.34,0,0,0,38.93,0,40.71,40.71,0,0,0,21.35,6c21.38,0,38.71-16,38.71-35.84S362.23,562.57,340.85,562.57Z"/><ellipse class="d" cx="300.04" cy="601.32" rx="36.24" ry="20.56"/><path class="a" d="M299.76,624.28a31.56,31.56,0,0,1-2.42-6.69,49,49,0,0,1-1.18-6.7,29.93,29.93,0,0,1,0-6.69c.27-2.23.59-4.46.76-6.69l.54-6.69.66-6.69c.49-4.47,1-8.93,1.6-13.39h.8c.63,4.46,1.11,8.92,1.6,13.39l.66,6.69.54,6.69c.17,2.23.49,4.46.76,6.69a29.93,29.93,0,0,1,0,6.69,47.49,47.49,0,0,1-1.17,6.7,31.07,31.07,0,0,1-2.43,6.69Z"/><path class="a" d="M282.91,613.72a16.65,16.65,0,0,1-3.91-3.19,22.66,22.66,0,0,1-2.76-3.66,13.44,13.44,0,0,1-1.63-4.11c-.31-1.47-.55-3-1-4.39l-1.16-4.31-1.06-4.35c-.65-2.91-1.32-5.83-1.85-8.8l.74-.3c1.7,2.49,3.25,5,4.82,7.6l2.28,3.85,2.16,3.9c.71,1.31,1.58,2.55,2.37,3.82a13.3,13.3,0,0,1,1.71,4.08,23.21,23.21,0,0,1,.57,4.55,16.66,16.66,0,0,1-.58,5Z"/><path class="a" d="M316.67,613.42a17.32,17.32,0,0,1-.58-5,22.48,22.48,0,0,1,.58-4.55,13.28,13.28,0,0,1,1.7-4.08c.8-1.27,1.67-2.51,2.37-3.82l2.17-3.9,2.27-3.85c1.57-2.55,3.12-5.11,4.82-7.6l.74.3c-.52,3-1.19,5.89-1.85,8.8l-1.05,4.35-1.17,4.31c-.4,1.43-.64,2.92-1,4.39a13.19,13.19,0,0,1-1.63,4.11,22,22,0,0,1-2.75,3.66,16.92,16.92,0,0,1-3.92,3.19Z"/><ellipse class="b" cx="275.5" cy="629.72" rx="23.27" ry="21.54"/><ellipse class="b" cx="324.57" cy="629.72" rx="23.27" ry="21.54"/><circle class="b" cx="336.28" cy="360.94" r="27.58"/><path class="c" d="M317.46,340.78s8.07,15.47,26.84,14.8"/><path class="c" d="M347,335.51c.92,16.79-8.06,36.34-29,46"/><circle class="b" cx="446.21" cy="421.32" r="27.58"/><path class="c" d="M436.56,395.48s1.52,17.39,19.11,24"/><path class="c" d="M465.83,401.94c-5.59,15.85-21.38,30.45-44.45,31.38"/><circle class="b" cx="74.48" cy="130.74" r="27.58"/><path class="c" d="M55.66,110.59s8.08,15.47,26.84,14.8"/><path class="c" d="M85.16,105.32c.92,16.78-8,36.33-29,46"/><circle class="b" cx="27.58" cy="244.41" r="27.58"/><path class="c" d="M8.76,224.26s8.07,15.47,26.84,14.8"/><path class="c" d="M38.26,219c.92,16.78-8.06,36.33-29,46"/><circle class="b" cx="98.18" cy="327.48" r="27.58"/><path class="c" d="M79.36,307.32s8.07,15.47,26.84,14.8"/><path class="c" d="M108.86,302.05c.92,16.79-8.06,36.33-29,46"/><path class="b" d="M148.15,362.63q-1.08,0-2.13.06c0-.38,0-.76,0-1.14,0-19.79-17.33-35.84-38.72-35.84s-38.71,16.05-38.71,35.84c0,.38,0,.76,0,1.14q-1.05-.06-2.13-.06c-21.38,0-38.71,16-38.71,35.84S45.14,434.3,66.52,434.3a40.8,40.8,0,0,0,21.35-5.94,41.41,41.41,0,0,0,38.93,0,40.77,40.77,0,0,0,21.35,5.94c21.38,0,38.71-16,38.71-35.83S169.53,362.63,148.15,362.63Z"/><ellipse class="d" cx="107.33" cy="401.37" rx="36.24" ry="20.56"/><path class="a" d="M107.06,424.34a31.49,31.49,0,0,1-2.43-6.7,48.83,48.83,0,0,1-1.17-6.69,29.93,29.93,0,0,1,0-6.69c.27-2.23.59-4.46.76-6.69l.54-6.69.66-6.7c.49-4.46,1-8.92,1.6-13.38h.8c.63,4.46,1.11,8.92,1.6,13.38l.66,6.7.54,6.69c.17,2.23.49,4.46.76,6.69a29.93,29.93,0,0,1,0,6.69,48.83,48.83,0,0,1-1.17,6.69,31.49,31.49,0,0,1-2.43,6.7Z"/><path class="a" d="M90.21,413.78a17.18,17.18,0,0,1-3.92-3.19,22.45,22.45,0,0,1-2.75-3.66,13.24,13.24,0,0,1-1.63-4.12c-.31-1.46-.55-2.95-1-4.38l-1.16-4.31-1.06-4.35c-.66-2.92-1.32-5.83-1.85-8.8l.74-.3c1.7,2.49,3.25,5.05,4.82,7.6l2.27,3.85,2.17,3.9c.71,1.3,1.58,2.54,2.37,3.81a13.23,13.23,0,0,1,1.7,4.09,22.47,22.47,0,0,1,.58,4.54,16.68,16.68,0,0,1-.58,5Z"/><path class="a" d="M124,413.48a16.68,16.68,0,0,1-.58-5,22.47,22.47,0,0,1,.58-4.54,13.23,13.23,0,0,1,1.7-4.09c.79-1.27,1.66-2.51,2.37-3.81l2.17-3.9,2.27-3.85c1.57-2.55,3.12-5.11,4.82-7.6l.74.3c-.53,3-1.19,5.88-1.85,8.8l-1.06,4.35L134,398.43c-.41,1.43-.65,2.92-1,4.38a13.24,13.24,0,0,1-1.63,4.12,22.45,22.45,0,0,1-2.75,3.66,17.18,17.18,0,0,1-3.92,3.19Z"/><ellipse class="b" cx="82.8" cy="429.78" rx="23.27" ry="21.54"/><ellipse class="b" cx="131.87" cy="429.78" rx="23.27" ry="21.54"/><path class="b" d="M283.45,422.12c4.52-10.21,24-11.47,24-11.47s12.15,15.28,7.63,25.49-15.28,15.35-24,11.48S278.93,432.33,283.45,422.12Z"/><path class="b" d="M122,827.61c-5.78-9.55,4.33-26.26,4.33-26.26s19.49-1.22,25.27,8.33,3.85,21.31-4.32,26.26S127.76,837.16,122,827.61Z"/><path class="b" d="M15.79,705.85c4.52-10.21,24-11.48,24-11.48s12.15,15.29,7.63,25.5-15.28,15.34-24,11.47S11.26,716.05,15.79,705.85Z"/><path class="b" d="M131.31,239.56c-5.79-9.55,4.32-26.25,4.32-26.25s19.49-1.23,25.28,8.32,3.85,21.31-4.33,26.26S137.09,249.12,131.31,239.56Z"/><path class="b" d="M455,509.19c-5.79-9.55,4.32-26.26,4.32-26.26s19.49-1.22,25.28,8.33,3.85,21.31-4.33,26.26S460.73,518.74,455,509.19Z"/><path class="b" d="M148.67,496c-5.79-9.55,4.32-26.26,4.32-26.26s19.49-1.22,25.28,8.33,3.85,21.31-4.33,26.26S154.45,505.57,148.67,496Z"/><circle class="e" cx="395.92" cy="785.92" r="104.08"/><path class="f" d="M353.26,841.25c40.84-40.7,63.93-65.17,63.93-87.25,0-15.51-8.43-26.51-25.77-26.51-11.37,0-21.14,7.2-28.88,16.28l-10.17-9.9c11.36-12.49,23.6-20.65,41.2-20.65,25.11,0,40.78,15.85,40.78,40,0,25.5-23.41,50.83-55.46,84.52,7.36-.58,15.81-1.17,22.85-1.17H441v15.06H353.26Z"/></svg>