<svg xmlns="http://www.w3.org/2000/svg" width="510" height="900" viewBox="0 0 510 900"><defs><style>.a,.g{fill:#db85a0;}.b{fill:#432d1e;}.c{fill:#ebaed3;}.d{fill:#aebf7c;}.e{fill:#bd645d;stroke-width:8px;}.e,.f{stroke:#432d1e;}.e,.f,.g{stroke-miterlimit:2;}.f{fill:#fff;stroke-width:15px;}.g{stroke:#db85a0;stroke-width:12px;}</style></defs><title>31</title><path class="a" d="M76.74,750c-.48-.22-9-4.37-14.51-16.55-6.64,15.1-19.51,16-22.61,16-.59,0-.92,0-.92,0l-3.4-.32L35,745.72l-.63-10.33-11.5,4.54-1.15-4.35a22.56,22.56,0,0,1,2.56-16,25.84,25.84,0,0,1,8.18-8.5,29.94,29.94,0,0,1-18.95-24.23l-.41-4,14.44-1.49-8.37-12.46,5.29-1.51a28.58,28.58,0,0,1,7.16-.84,29.94,29.94,0,0,1,20.4,7.83c3.69-23.12,18.3-27,19-27.16l4.08-1,3.17,16.26L91.7,653l1.92,4.64c.23.54,4,10.17-3.47,23.48a43.24,43.24,0,0,1,13.74-2.45c5.88,0,9.19,1.56,9.55,1.74l4.29,2.14-6,8.09,11.29,2.3-2.35,4.67A35.59,35.59,0,0,1,97.06,715a23.12,23.12,0,0,1,4.49,7.09c4.3,10.77-.72,21.89-.94,22.36l-1.89,4.12-14.32-8.9L81.06,752Z"/><path class="b" d="M72,651.12l3.56,18.23,14.35-10.23s6.35,15.33-15.46,34.36c13.21-8.87,23.15-10.86,29.42-10.86a18.89,18.89,0,0,1,7.77,1.32l-7,9.31,12.35,2.51a31.56,31.56,0,0,1-27.55,16,37.71,37.71,0,0,1-5.07-.35C107.25,720.49,97,742.78,97,742.78l-15-9.35-3.5,13s-13.7-6.47-16.5-29c-2.34,26.7-19,28.06-22.33,28.06-.38,0-.59,0-.59,0l-1-15.82-12.44,4.91s-4.88-18.38,20.88-25.19H46c-26,0-28.44-22.94-28.44-22.94l17.09-1.77-9-13.41a24.37,24.37,0,0,1,6.06-.69c6.41,0,16.55,2.17,23.56,14.19.35-29.61,16.8-33.63,16.8-33.63m6.24-9.77-8.15,2c-1.09.26-6.82,1.92-12.36,8.19a39.66,39.66,0,0,0-8.29,15.9,34.37,34.37,0,0,0-17.8-4.88,31.55,31.55,0,0,0-8.25,1l-10.59,3L19,675.72l1.59,2.35-3.84.4-8,.82.83,8a36,36,0,0,0,5.77,15.1,32.8,32.8,0,0,0,9.84,9.57,27.79,27.79,0,0,0-4.31,5.63,26.42,26.42,0,0,0-3,19.05l2.31,8.69,8.36-3.3,2.19-.87.3,4.84.42,6.91,6.9.57c.21,0,.64,0,1.25,0a27.71,27.71,0,0,0,22.52-12,41.78,41.78,0,0,0,3,4A31.81,31.81,0,0,0,75,753.62l8.64,4.08,2.5-9.23.69-2.56,5.89,3.66,7.7,4.79,3.79-8.23c.62-1.34,5.87-13.38,1-25.52a25.59,25.59,0,0,0-1.63-3.36,40.14,40.14,0,0,0,20.57-17.89l4.71-9.35-10.24-2.08,5.13-6.88-8.58-4.27c-1-.51-4.85-2.16-11.33-2.16a41.68,41.68,0,0,0-6.79.58,37.57,37.57,0,0,0,1.15-4.59c1.49-8.12-.52-13.55-.93-14.55l-3.85-9.28-8.19,5.83-4.23,3-1.18-6-1.61-8.23Z"/><path class="a" d="M66.19,712.23a12.13,12.13,0,0,1-2.4-.24C58,710.86,54.05,705.83,55,700.8c.85-4.3,4.93-7.31,9.93-7.31a12.13,12.13,0,0,1,2.4.24A11.7,11.7,0,0,1,74,697.48a8.79,8.79,0,0,1,2.11,7.44C75.27,709.22,71.19,712.23,66.19,712.23Z"/><path class="b" d="M65,697.49a9.18,9.18,0,0,1,1.63.16c3.66.72,6.16,3.63,5.6,6.5-.48,2.44-3,4.08-6,4.08a8.26,8.26,0,0,1-1.63-.16c-3.66-.72-6.16-3.63-5.6-6.5.48-2.44,3-4.08,6-4.08m0-8h0c-6.94,0-12.64,4.34-13.85,10.54C49.7,707.23,55,714.36,63,715.92a16.94,16.94,0,0,0,3.17.31c6.94,0,12.64-4.34,13.85-10.54,1.41-7.2-3.94-14.33-11.91-15.89a16.94,16.94,0,0,0-3.17-.31Z"/><path class="a" d="M66.59,697.65c-.46-5.73,4.55-16.52,4.55-16.52"/><path class="b" d="M62.61,698A17.1,17.1,0,0,1,64,692.79a38.32,38.32,0,0,1,2.12-4.2,72.36,72.36,0,0,1,5-7.46A68.92,68.92,0,0,0,70,689.79a32.14,32.14,0,0,0,0,4.15,9.49,9.49,0,0,0,.67,3.39Z"/><path class="a" d="M72.07,702c6.85-3.27,17.39-2.69,17.39-2.69"/><path class="b" d="M70.35,698.41a30,30,0,0,1,10-.65,53.14,53.14,0,0,1,9.12,1.58,52.13,52.13,0,0,0-8.6,2.38A34.17,34.17,0,0,0,77,703.47a18.36,18.36,0,0,0-3.21,2.17Z"/><path class="a" d="M70.66,706.71c7.17,6,7.57,12.28,7.57,12.28"/><path class="b" d="M73.22,703.64c.42.59.84,1.17,1.23,1.77s.76,1.2,1.09,1.84a27.28,27.28,0,0,1,1.71,3.84,21.81,21.81,0,0,1,1,4,14,14,0,0,1,0,3.93,13.27,13.27,0,0,0-1.88-3.18,19.21,19.21,0,0,0-2.46-2.55,20.41,20.41,0,0,0-2.8-2c-.47-.3-1-.54-1.48-.8s-1-.47-1.52-.69Z"/><path class="a" d="M60.19,705.64c-5.45,3.17-10.08,11.75-10.08,11.75"/><path class="b" d="M62.2,709.1a11.21,11.21,0,0,0-3,1.1,26.24,26.24,0,0,0-3.14,2,44.45,44.45,0,0,0-5.92,5.22,46.49,46.49,0,0,1,2.81-7.74,32,32,0,0,1,2.11-3.8,19.75,19.75,0,0,1,3.15-3.67Z"/><path class="a" d="M59.71,699.87c-5.48-7.09-15.13-9.35-15.13-9.35"/><path class="b" d="M56.55,702.31a17.83,17.83,0,0,0-1.92-3.39,22.7,22.7,0,0,0-2.76-3.18,31.09,31.09,0,0,0-7.29-5.22,33.08,33.08,0,0,1,9.33,1.78,27.85,27.85,0,0,1,4.6,2,25.54,25.54,0,0,1,4.37,3.08Z"/><path class="b" d="M535.69,605.89a70,70,0,0,1-12.89,2.68,110.31,110.31,0,0,1-12.49.77c-4.11,0-8.2-.15-12.23-.56l-3-.3-3-.4-3-.42-3-.54-2.35-.42-2.27-1.63c-.79-.56-1.61-1.1-2.39-1.7l-2.31-1.79c-1.57-1.17-3-2.49-4.52-3.75s-2.9-2.66-4.33-4-2.79-2.8-4.09-4.32a82.31,82.31,0,0,1-7.47-9.61c-.58-.87-1.13-1.77-1.69-2.65s-1.08-1.82-1.59-2.78a46,46,0,0,1-2.8-6.08l-.13-.34a.6.6,0,0,1,.9-.7l9.63,6.69,9.54,6.81c3.18,2.28,6.32,4.6,9.48,6.9s6.32,4.59,9.45,6.93l-.51-.22c7.9,1.64,15.81,3.2,23.69,4.92l11.83,2.56,11.8,2.68a.61.61,0,0,1,.06,1.17Z"/><path class="b" d="M-16,786.18a137.37,137.37,0,0,1,17.64-6.3c5.91-1.71,11.83-3.2,17.77-4.42,3-.62,5.95-1.16,8.92-1.71s6-1,9-1.39,6-.85,9-1.14,6-.67,9-.88l-5,1.5,3.23-1.92c1.09-.63,2.2-1.21,3.3-1.82s2.19-1.22,3.31-1.79l3.37-1.68,1.68-.84,1.72-.78,3.44-1.56L73.78,760l1.75-.72,1.79-.66A125.61,125.61,0,0,1,92,754c2.53-.62,5.11-1.17,7.75-1.61a64.31,64.31,0,0,1,8.15-.89l.3,0a.62.62,0,0,1,.64.59.63.63,0,0,1-.3.56l-12.89,7.75L82.7,768l-13,7.53c-4.35,2.5-8.68,5-13.05,7.49l-.27.15h-.28c-12,.76-24,1.61-36,2.29l-18,1-18,.93a.63.63,0,0,1-.66-.6.65.65,0,0,1,.37-.61Z"/><path class="b" d="M176.08,66.54a44.45,44.45,0,0,1,7.45.88,67.39,67.39,0,0,1,6.79,1.74,72.93,72.93,0,0,1,12.3,5.17,87.74,87.74,0,0,1,20.8,15.32l-6.62-2.23,1.8.23,1.8.32c1.19.22,2.39.42,3.59.72s2.4.54,3.6.91l1.8.5,1.8.59a64.07,64.07,0,0,1,7.19,2.87,45.63,45.63,0,0,1,7.19,4.13l.33.23a.59.59,0,0,1,.14.82.57.57,0,0,1-.47.25c-4.79.14-9.59.35-14.38.4l-7.2.13c-2.4,0-4.79,0-7.19.06a1.15,1.15,0,0,1-.73-.25h0l-10.31-7.77-10.23-7.88c-3.42-2.61-6.77-5.32-10.16-8s-6.7-5.41-10-8.12a.58.58,0,0,1,.38-1Z"/><path class="b" d="M422.63,129.52a59.46,59.46,0,0,1,14.81-.41,84.45,84.45,0,0,1,13.61,2.34c2.22.51,4.34,1.22,6.5,1.87s4.24,1.44,6.29,2.34l3.09,1.28,3,1.42,1.51.72,1.49.78c1,.53,2,1,3,1.58l-4.51-.94,4.17.5,4.17.69,4.17.89c1.39.37,2.78.69,4.18,1.12a79.2,79.2,0,0,1,8.34,3,51.48,51.48,0,0,1,8.34,4.38l.31.21a.6.6,0,0,1,.17.82.57.57,0,0,1-.48.27l-8.34.25c-2.78.09-5.56.12-8.34.17l-8.35.13-8.34.05a1.34,1.34,0,0,1-.49-.1h0c-4.09-1.79-8.21-3.52-12.28-5.36L446.41,142c-4.08-1.82-8.13-3.72-12.19-5.57s-8.08-3.82-12.12-5.73a.6.6,0,0,1-.28-.79.58.58,0,0,1,.43-.33Z"/><path class="b" d="M459.37,119a29.45,29.45,0,0,1,6.1-1,34.39,34.39,0,0,1,5.4.09,34.75,34.75,0,0,1,9.46,2.22,36.53,36.53,0,0,1,8.05,4.41,35.71,35.71,0,0,1,6.77,6.38l3.86,4.74a3.85,3.85,0,0,1,.68,3.63,30.34,30.34,0,0,1-1.43,3.68,18.35,18.35,0,0,1-.9,1.84l-.48.92-.55.92a34,34,0,0,1-2.52,3.68,28.52,28.52,0,0,1-3.46,3.68l-.41.37a.53.53,0,0,1-.75,0,.52.52,0,0,1-.14-.33l-.18-3.68c-.05-1.22-.14-2.45-.16-3.68l-.21-7.36.55,1-7.72-4.92c-2.58-1.62-5.09-3.35-7.64-5s-5.06-3.41-7.57-5.14-5-3.55-7.46-5.32a.53.53,0,0,1-.12-.74.55.55,0,0,1,.29-.21Z"/><path class="c" d="M430,94.71a22.64,22.64,0,0,1-8.24-14A25.87,25.87,0,0,1,422.63,69a28.73,28.73,0,0,1-9.4,1.59,31.66,31.66,0,0,1-20.64-8.18l-2.86-2.81L399.9,49.24,385.51,45l3.12-4.54c.34-.5,8.57-12.24,24.11-12.24.52,0,1,0,1.56,0-11.9-20.16-3.12-32.46-2.69-33l2.5-3.36L426.93,2.34l4.22-15.89,4.44,2.35c.52.27,9.59,5.28,12.3,20.31,8.13-13,17-15.3,17.49-15.42l4.67-1.09.5,10.09,10.17-5.44,1.17,5.1c1.41,6.15,1.06,18.21-7.1,28.47,13.16,1.74,19.84,13.8,21.6,20.41l1.16,4.38-16.7,2.28,5.32,11.66-4.63,1.19a22.87,22.87,0,0,1-5.22.52,38.14,38.14,0,0,1-16.59-4.07c4,14.13-2.55,23.71-7.82,27.39l-2.84,2-9.45-10.07-6,10.83Z"/><path class="b" d="M433.73-7.66s14.67,7.75,10,36.32C451.94,1,466.29-2.41,466.29-2.41l.59,11.6L478,3.24s4.69,20.44-15.14,32.86a28.21,28.21,0,0,1,8.69-1.49c16.29,0,21,17.65,21,17.65L475,54.65l5.57,12.21a18.74,18.74,0,0,1-4.23.4c-5.52,0-15.82-1.71-26.94-12.18,16.95,24.56.24,36.22.24,36.22L438.77,79.73l-6.44,11.72s-15.49-11,0-32.71c-7,5.91-13.51,7.85-19.1,7.85a27.61,27.61,0,0,1-17.84-7l12-12.26-15.5-4.58s7.21-10.5,20.82-10.5a30.75,30.75,0,0,1,10.6,2c-18.61-23-8.52-36.61-8.52-36.61L429.2,9.36l4.53-17m-5.15-11.77L426-9.72l-1.33,5-4.77-3.9-6.49-5.32-5,6.74c-.67.9-4,5.83-4.29,14.19a39.64,39.64,0,0,0,3.76,17.54,35.1,35.1,0,0,0-22.54,13.63l-6.23,9.08,10.56,3.11,2.72.81L389.68,54l-5.61,5.71,5.72,5.6a35.28,35.28,0,0,0,23.44,9.33,32.77,32.77,0,0,0,4.32-.29,28,28,0,0,0,.27,7.09A26.43,26.43,0,0,0,427.68,98l7.32,5.22,4.34-7.87,1.13-2.07,3.31,3.53,4.74,5,5.68-4A27,27,0,0,0,463.42,85a29,29,0,0,0,1.49-11.5,39.72,39.72,0,0,0,11.41,1.76,26.16,26.16,0,0,0,6.21-.65l9.27-2.37-4-8.7-1.1-2.42,6.87-.93,9-1.23-2.33-8.76c-1.72-6.48-7.64-17.57-18.92-21.84a38.73,38.73,0,0,0,4.38-11.8,38.82,38.82,0,0,0,.08-15.1L483.45-8.75l-9.22,4.93-.43-8.57-9.33,2.19c-1.16.27-7.83,2.14-15,10.34a39,39,0,0,0-2-4.27c-4-7.2-9-10.1-10-10.61l-8.88-4.69Z"/><path class="c" d="M441.6,51.22a9,9,0,0,1-8.16-4.53c-2.45-4.51-.22-10.48,5-13.31a12,12,0,0,1,5.73-1.49,9,9,0,0,1,8.15,4.53c2.46,4.5.22,10.47-5,13.31A12.08,12.08,0,0,1,441.6,51.22Z"/><path class="b" d="M444.15,35.89a5.1,5.1,0,0,1,4.64,2.44c1.4,2.57-.11,6.1-3.38,7.88a8.05,8.05,0,0,1-3.81,1A5.1,5.1,0,0,1,437,44.78c-1.4-2.58.12-6.11,3.38-7.89a8,8,0,0,1,3.82-1m0-8h0a16,16,0,0,0-7.64,2c-7.14,3.89-10.09,12.29-6.58,18.73a13,13,0,0,0,11.67,6.62,16.14,16.14,0,0,0,7.64-2c7.13-3.89,10.08-12.29,6.58-18.74a13,13,0,0,0-11.67-6.61Z"/><path class="c" d="M440.33,36.89c-4-4.12-7-15.62-7-15.62"/><path class="b" d="M437.47,39.68a16.84,16.84,0,0,1-2.22-4.89,36.31,36.31,0,0,1-1-4.59,72.08,72.08,0,0,1-.91-8.93,70.07,70.07,0,0,0,4.61,7.42,32.81,32.81,0,0,0,2.61,3.23,9.5,9.5,0,0,0,2.68,2.18Z"/><path class="c" d="M447.34,36.77C450.54,29.89,459,23.61,459,23.61"/><path class="b" d="M443.71,35.08A30.28,30.28,0,0,1,451,28.2a53.81,53.81,0,0,1,8-4.59,52,52,0,0,0-5.1,7.31,35.36,35.36,0,0,0-1.87,3.82A18.62,18.62,0,0,0,451,38.46Z"/><path class="c" d="M449.24,41.27c9.34,0,13.67,4.63,13.67,4.63"/><path class="b" d="M449.26,37.27c.7.19,1.39.37,2.07.58s1.36.44,2,.73a25.89,25.89,0,0,1,3.77,1.86,22.36,22.36,0,0,1,3.27,2.46,14.05,14.05,0,0,1,2.53,3,13.07,13.07,0,0,0-3.48-1.24,18.53,18.53,0,0,0-3.52-.4,21.56,21.56,0,0,0-3.43.25c-.55.07-1.11.22-1.65.33s-1.08.29-1.61.43Z"/><path class="c" d="M440.49,47.13c-2.17,5.92-.27,15.48-.27,15.48"/><path class="b" d="M444.25,48.51a11.58,11.58,0,0,0-1.63,2.78,27.39,27.39,0,0,0-1.16,3.52,45.83,45.83,0,0,0-1.24,7.8,47.07,47.07,0,0,1-2.76-7.75,31.5,31.5,0,0,1-.8-4.28,19.21,19.21,0,0,1,.08-4.83Z"/><path class="c" d="M436.45,43c-8.75-2-17.62,2.45-17.62,2.45"/><path class="b" d="M435.57,46.89a17.3,17.3,0,0,0-3.64-1.39,23.16,23.16,0,0,0-4.16-.69,31.67,31.67,0,0,0-8.94.63,33.65,33.65,0,0,1,8.32-4.58A27.84,27.84,0,0,1,432,39.5a25.77,25.77,0,0,1,5.33-.42Z"/><path class="a" d="M369.35,135.35l-9.11,8.36-2.63-3.65a22.54,22.54,0,0,1-3.34-15.87,25.84,25.84,0,0,1,4.58-10.84h-.1c-18,0-25.92-15.21-26.25-15.86l-1.81-3.57,12.95-6.57-12.28-8.63,4.41-3.3A31.13,31.13,0,0,1,353.15,70,29.14,29.14,0,0,1,364,72.07c-4.82-22.9,7.44-31.75,8-32.16l3.45-2.39,8.78,14,9.08-13.69,3.46,3.64c.4.43,7.38,8.05,5.16,23.13,9.87-8.15,17.8-9,20.63-9,.57,0,.87,0,.87,0l4.67.53-1.2,4.54-1.45,5.1L436.84,64l-.52,5.2c-.63,6.28-4.82,17.59-15.83,24.7a22.77,22.77,0,0,1,6.79,5c7.87,8.52,7.17,20.7,7.13,21.21l-.29,4.53-16.55-3.19,1.31,12.75-4.77-.36c-.53,0-10-.88-19.53-10.31-.76,14.64-10,21.62-16.18,23.42l-3.32,1Z"/><path class="b" d="M374.3,43.2,384.15,59l9.74-14.68s11.42,12-2.13,37.61c14.86-21.11,28.17-22.23,30.83-22.23h.48l-3.16,11.18,12.43-2.08S430.24,89.63,407.48,95c24.55.32,22.94,24.81,22.94,24.81L413,116.5l1.37,13.35s-15.1-1.13-25.77-21.13c8.21,28.69-11.36,34.39-11.36,34.39l-6.57-14.43-9.86,9s-11.14-15.42,10.47-31a34,34,0,0,1-12.57,2.62c-15.74,0-22.69-13.67-22.69-13.67l15.33-7.77-13.22-9.29a27.07,27.07,0,0,1,15-4.63c5.17,0,11.23,1.59,17.51,6.62C360.39,52.85,374.3,43.2,374.3,43.2m18.48-11.73-5.56,8.37-2.87,4.34L381.08,39l-4.45-7.11-6.89,4.78c-.92.64-5.69,4.23-8.61,12.07a39.78,39.78,0,0,0-2.05,17.82,32.46,32.46,0,0,0-5.93-.53,34.85,34.85,0,0,0-19.78,6.23l-8.81,6.61,9,6.33,2.32,1.64-3.44,1.74-7.14,3.62,3.62,7.14c.33.66,7.5,14.39,23.41,17.45a28,28,0,0,0-2,6.8,26.47,26.47,0,0,0,4.05,18.86l5.26,7.28,6.63-6.07L368,142l2,4.41,2.87,6.3,6.65-1.94a27,27,0,0,0,12.86-9.23,29.12,29.12,0,0,0,5.08-10.41,41.29,41.29,0,0,0,4.24,2.66,31.92,31.92,0,0,0,12.11,4l9.53.72-1-9.51-.27-2.64,6.81,1.31,8.9,1.71.59-9c.1-1.47.69-14.59-8.18-24.19a26.57,26.57,0,0,0-2.74-2.57A39.87,39.87,0,0,0,440.3,69.56l1.05-10.41L431,60.87l2.33-8.26-9.54-.91a11.54,11.54,0,0,0-1.24-.05c-2.51,0-8.54.56-16.25,5.07a36.5,36.5,0,0,0-.57-4.71c-1.52-8.12-5.33-12.46-6.08-13.25l-6.91-7.29Z"/><path class="a" d="M386.25,103.18c-5.13,0-9.25-3.09-10-7.51a8.8,8.8,0,0,1,2.26-7.39,11.71,11.71,0,0,1,6.72-3.63,13,13,0,0,1,2.15-.18c5.13,0,9.26,3.08,10,7.5.88,5.06-3.15,10-9,11A13,13,0,0,1,386.25,103.18Z"/><path class="b" d="M387.36,88.47c3.06,0,5.65,1.7,6.09,4.19.5,2.89-2.06,5.75-5.73,6.39a9.2,9.2,0,0,1-1.46.13c-3.07,0-5.65-1.7-6.09-4.2-.5-2.89,2.06-5.74,5.73-6.39a9.08,9.08,0,0,1,1.46-.12m0-8h0a17,17,0,0,0-2.84.24,15.75,15.75,0,0,0-9,4.9,12.76,12.76,0,0,0-3.22,10.75c1.09,6.27,7,10.82,14,10.82a17,17,0,0,0,2.84-.25,15.82,15.82,0,0,0,9-4.89,12.83,12.83,0,0,0,3.22-10.76c-1.1-6.26-7-10.81-14-10.81Z"/><path class="a" d="M385.9,88.59c-2.49-5.18-1.67-17-1.67-17"/><path class="b" d="M382.29,90.32a17,17,0,0,1-.54-5.35,38.63,38.63,0,0,1,.48-4.67,70.65,70.65,0,0,1,2-8.76,66.62,66.62,0,0,0,2,8.5,29.93,29.93,0,0,0,1.44,3.9,9.54,9.54,0,0,0,1.83,2.93Z"/><path class="a" d="M392.57,90.72c5.23-5.5,15.28-8.74,15.28-8.74"/><path class="b" d="M389.67,88a30.35,30.35,0,0,1,9.1-4.19A54.38,54.38,0,0,1,407.85,82a52,52,0,0,0-7.17,5.31,37,37,0,0,0-3,3,19,19,0,0,0-2.21,3.18Z"/><path class="a" d="M392.93,95.59c8.84,3,11.47,8.76,11.47,8.76"/><path class="b" d="M394.23,91.81c.6.4,1.2.79,1.78,1.21s1.14.85,1.67,1.33a25.24,25.24,0,0,1,3,3A22.06,22.06,0,0,1,403,100.7a14.12,14.12,0,0,1,1.43,3.65,13.12,13.12,0,0,0-2.9-2.29,17.94,17.94,0,0,0-3.21-1.5A19.78,19.78,0,0,0,395,99.7c-.55-.11-1.13-.15-1.67-.22s-1.12-.07-1.66-.1Z"/><path class="a" d="M382.77,98.34c-3.95,4.92-5.21,14.58-5.21,14.58"/><path class="b" d="M385.89,100.85a11.49,11.49,0,0,0-2.43,2.11,26.44,26.44,0,0,0-2.23,3,45.38,45.38,0,0,0-3.67,7,47.8,47.8,0,0,1-.14-8.22,31.74,31.74,0,0,1,.62-4.31,19.27,19.27,0,0,1,1.62-4.56Z"/><path class="a" d="M380.26,93.12c-7.66-4.65-17.47-3.31-17.47-3.31"/><path class="b" d="M378.19,96.54a17.68,17.68,0,0,0-3-2.48,22.66,22.66,0,0,0-3.72-2,31.18,31.18,0,0,0-8.67-2.27,33.27,33.27,0,0,1,9.35-1.67,27.56,27.56,0,0,1,5,.25,25,25,0,0,1,5.18,1.32Z"/><path class="d" d="M-1.74,143.38c0-1.25.13-30.76,12.24-42.75,5.94-5.87,12.53-9,19.05-9a20.16,20.16,0,0,1,13.39,5.17c3.84,3.36,6,8.51,6,14.51a30.27,30.27,0,0,1-10.45,22.35C25.51,145,3.57,147.27,2.64,147.36l-4.38.42Z"/><path class="b" d="M29.55,95.65a16.13,16.13,0,0,1,10.76,4.18c7.45,6.51,5.77,21.85-4.49,30.84C23.69,141.3,2.26,143.38,2.26,143.38s0-28.95,11.06-39.9c5.31-5.26,11-7.83,16.23-7.83m0-8h0c-7.6,0-15.16,3.51-21.86,10.14C-5.37,110.72-5.74,140.07-5.74,143.38v8.81L3,151.34c1-.09,24.16-2.46,38.06-14.65a34.31,34.31,0,0,0,11.82-25.36c0-7.17-2.61-13.4-7.34-17.52a24.09,24.09,0,0,0-16-6.16Z"/><path class="d" d="M30.08,106c-9.74,7-13,15-13,15"/><path class="b" d="M30.31,106.34a11.83,11.83,0,0,1-.45,3.41,9.41,9.41,0,0,1-1,2.4,4,4,0,0,1-1.68,1.54,14.56,14.56,0,0,0-2.13,1.16c-.63.47-1.27,1-1.9,1.45s-1.3,1-1.92,1.51a49,49,0,0,0-3.77,3.37l0,0a.41.41,0,0,1-.59,0,.41.41,0,0,1-.12-.32,21.39,21.39,0,0,1,1.2-5.32c.31-.86.66-1.7,1-2.54s.83-1.61,1.29-2.41.83-1.68,1.31-2.49a5.38,5.38,0,0,1,.82-1.12,5.26,5.26,0,0,1,1.12-.79,8.17,8.17,0,0,1,6.34-.51.64.64,0,0,1,.47.61Z"/><path class="d" d="M436.3,206.18c-.86-.36-21.15-9-30.15-23.69A30.28,30.28,0,0,1,402.81,158c1.78-5.73,5.33-10,10-12.09a20.87,20.87,0,0,1,8.49-1.85c8.45,0,16.24,5.51,21.35,15.12,8,15.05-.61,43.26-1,44.46l-1.31,4.2Z"/><path class="b" d="M421.3,148.1c6.77,0,13.25,4.41,17.82,13,7.32,13.75-1.27,41.39-1.27,41.39S418,194.15,409.57,180.4c-7.13-11.63-4.19-26.78,4.86-30.79a16.9,16.9,0,0,1,6.87-1.51m0-8a24.81,24.81,0,0,0-10.11,2.2c-5.74,2.54-10.07,7.71-12.2,14.55a34.34,34.34,0,0,0,3.75,27.73c9.67,15.76,31.1,24.9,32,25.28l8.12,3.42,2.62-8.42c1-3.15,9.33-31.3.7-47.52-5.84-11-14.91-17.24-24.89-17.24Z"/><path class="d" d="M422.37,158.56c7.21,9.61,7.94,18.18,7.94,18.18"/><path class="b" d="M422.69,158.32a8.22,8.22,0,0,1,5.9,2.37,5.15,5.15,0,0,1,.83,1.09,5.81,5.81,0,0,1,.46,1.31c.21.92.26,1.9.5,2.77a27.17,27.17,0,0,1,.52,2.69c.11.91.2,1.81.24,2.72a21.2,21.2,0,0,1-.43,5.44.42.42,0,0,1-.77.11l0,0c-.82-1.52-1.68-3-2.6-4.34-.44-.69-.91-1.36-1.39-2s-.93-1.31-1.39-2a13.85,13.85,0,0,0-1.69-1.74,4,4,0,0,1-1.14-2,10,10,0,0,1-.25-2.59,12,12,0,0,1,.59-3.38v0A.64.64,0,0,1,422.69,158.32Z"/><path class="d" d="M513.34,138.91c-.92-.1-22.84-2.55-35.68-14a30.31,30.31,0,0,1-10.24-22.45c.07-6,2.23-11.13,6.11-14.45a20.17,20.17,0,0,1,13.24-5c6.59,0,13.21,3.17,19.16,9.16,12,12.11,11.85,41.61,11.84,42.86l0,4.41Z"/><path class="b" d="M486.77,87c5.31,0,11,2.62,16.32,8,11,11.06,10.68,40,10.68,40s-21.42-2.27-33.44-13c-10.18-9.09-11.72-24.44-4.2-30.88A16.12,16.12,0,0,1,486.77,87m0-8a24.13,24.13,0,0,0-15.85,6c-4.76,4.09-7.42,10.28-7.5,17.45A34.37,34.37,0,0,0,475,127.88c13.78,12.32,36.94,14.91,37.92,15l8.76.93.09-8.81c0-3.3-.07-32.66-13-45.71-6.71-6.77-14.32-10.35-22-10.35Z"/><path class="d" d="M486.31,97.31c9.67,7.13,12.84,15.13,12.84,15.13"/><path class="b" d="M486.54,97a8.2,8.2,0,0,1,6.33.57,4.36,4.36,0,0,1,1.93,1.93c.47.82.8,1.74,1.28,2.51s.9,1.59,1.28,2.42.71,1.69,1,2.55a21.3,21.3,0,0,1,1.15,5.33.41.41,0,0,1-.39.44.4.4,0,0,1-.32-.12l0,0c-1.22-1.21-2.46-2.36-3.74-3.4-.62-.54-1.26-1-1.91-1.53s-1.26-1-1.89-1.47a14.05,14.05,0,0,0-2.12-1.18,4,4,0,0,1-1.66-1.56,9.86,9.86,0,0,1-1-2.41,12,12,0,0,1-.41-3.41v0A.65.65,0,0,1,486.54,97Z"/><path class="c" d="M318.9,148.32c-.64-.36-12.64-7.28-18.56-26.15-8.89,20.1-24.89,22-30.43,22a18.64,18.64,0,0,1-2.75-.17l-3.42-.52.11-19.39-16.26,5.18-.86-4.41a29,29,0,0,1,4.71-20.32,34.66,34.66,0,0,1,13.94-11.66,39,39,0,0,1-25.26-34.31l-.15-4,20.56-.74L250.17,35.88l5.38-1.15a33.17,33.17,0,0,1,6.5-.56,39,39,0,0,1,30.55,14.1c6.3-32.41,26.61-36.35,27.56-36.51l4.13-.72L327.19,34l19.28-11.87,1.6,4.76c.26.77,4.82,15.12-8.9,33.33a62.83,62.83,0,0,1,19-3.17c9.59,0,14.68,2.81,15.23,3.13l4.14,2.42-9.24,10.78,15.4,4.23L381,82.07c-.48.82-11.57,19.13-35.05,21a29.88,29.88,0,0,1,6.94,11.54c4.63,14.35-2.87,28.38-3.2,29l-2.16,4-18.75-13.49-5.7,16.6Z"/><path class="b" d="M320.85,15.7,324,40.62l20.28-12.49s7.19,21.26-24,45C337,63.45,349.6,61,358.13,61c8.79,0,13.22,2.59,13.22,2.59L361.12,75.52,377.56,80S366.23,99.2,342.09,99.2a50.63,50.63,0,0,1-10-1c29.95,14.33,14.06,43.47,14.06,43.47l-19.43-14-5.9,17.17s-17.89-10-19.62-40.58c-5.15,33.05-24.76,35.88-31.32,35.88a15.85,15.85,0,0,1-2.15-.12l.12-21.45-17.22,5.5S245.74,98.81,281.11,92c-35.84-2-37-33.59-37-33.59l23.22-.83L256.39,38.64a30,30,0,0,1,5.66-.47c8.31,0,23.83,2.73,33.07,21.37,3.18-39.91,25.73-43.84,25.73-43.84m6.88-9.33-8.26,1.45c-1,.17-20.75,4-29.07,32.56a42,42,0,0,0-8.61-5.68,44.69,44.69,0,0,0-19.74-4.53,38.12,38.12,0,0,0-7.33.64L244,33.11l5.51,9.53L253.74,50l-9.91.36-8,.28.29,8a45.49,45.49,0,0,0,6.15,19.8,41.34,41.34,0,0,0,14.64,14.78,35.94,35.94,0,0,0-8.79,9,32.73,32.73,0,0,0-5.32,23.33l1.72,8.82,8.57-2.73,6.73-2.15L259.76,140l-.05,6.92,6.85,1a23.39,23.39,0,0,0,3.35.21,35,35,0,0,0,21-7.18,39.64,39.64,0,0,0,8.81-9.41c6.85,14.32,16.6,19.94,17.2,20.27l8.35,4.66,3.11-9,2.41-7,10.69,7.7,7.36,5.29,4.34-8c.35-.65,8.64-16.15,3.48-32.11a33.43,33.43,0,0,0-3.4-7.38,51.11,51.11,0,0,0,31.15-21.87l5.33-9-10.09-2.78-4.27-1.17,2-2.34,6.24-7.28-8.28-4.84c-1.05-.61-6.83-3.68-17.25-3.68a60,60,0,0,0-10.35.93c8.1-15.8,4.33-27.64,4.08-28.37l-3.21-9.52-8.56,5.27-9.71,6-1.6-12.61-1-8.32Z"/><path class="b" d="M306.37,77.6a11.5,11.5,0,0,1,2.92.39c4.87,1.3,8,5.45,7,9.28-.81,3-4,5-7.73,5a11.5,11.5,0,0,1-2.92-.39c-4.87-1.3-8-5.45-7-9.28.81-3,4-5,7.73-5m0-8h0c-7.51,0-13.72,4.39-15.46,10.92-2.16,8.08,3.51,16.64,12.63,19.07a19.19,19.19,0,0,0,5,.66c7.51,0,13.72-4.39,15.46-10.92a14.49,14.49,0,0,0-2.6-12.45,18.49,18.49,0,0,0-10-6.62,19.63,19.63,0,0,0-5-.66Z"/><path class="b" d="M305.29,78a23.38,23.38,0,0,1,2-6.57A50.82,50.82,0,0,1,310.17,66a97,97,0,0,1,6.77-9.86,95.14,95.14,0,0,0-3,11.31,44.57,44.57,0,0,0-.81,5.59,15.88,15.88,0,0,0,.2,4.92Z"/><path class="b" d="M314.81,80.67a41,41,0,0,1,13.07-.58A74.19,74.19,0,0,1,340,82.35a71.22,71.22,0,0,0-11.86,1.73,50,50,0,0,0-5.53,1.66,28.77,28.77,0,0,0-4.85,2.37Z"/><path class="b" d="M316.72,87.69c.53.78,1.06,1.53,1.56,2.31s1,1.57,1.38,2.41a34.58,34.58,0,0,1,2.17,5,28.54,28.54,0,0,1,1.2,5.22,18.81,18.81,0,0,1,0,5.19,18,18,0,0,0-1.93-4.57,25.57,25.57,0,0,0-2.8-3.9A29.58,29.58,0,0,0,315,96.12c-.58-.5-1.24-.93-1.84-1.4s-1.29-.84-1.92-1.25Z"/><path class="b" d="M301.7,91.77a18.55,18.55,0,0,0-4.24,1.66,36.6,36.6,0,0,0-4.26,2.71,61.24,61.24,0,0,0-7.95,7,64.64,64.64,0,0,1,5-9.7,44.64,44.64,0,0,1,3.37-4.6,25.53,25.53,0,0,1,4.52-4.22Z"/><path class="b" d="M296.49,82.58a26.87,26.87,0,0,0-2.71-4.73A32.18,32.18,0,0,0,290,73.49a44,44,0,0,0-4.57-3.87,43,43,0,0,0-5.18-3.26,41.94,41.94,0,0,1,6.07,1.48,46.81,46.81,0,0,1,5.95,2.35A37.74,37.74,0,0,1,298,73.54a33.15,33.15,0,0,1,5.18,4.58Z"/><path class="a" d="M167.94,72.94c-.49-.19-9.21-3.84-15.48-15.68-6.4,17.16-21.57,17.41-22.37,17.41l-3.61-.09-1.66-13.7-11.21,5.21-1.41-4.27a22.52,22.52,0,0,1,1.61-16.14,25.71,25.71,0,0,1,7.66-9,30,30,0,0,1-20.36-23.06l-.65-3.94,14.33-2.36-9.1-11.93,5.19-1.82a29,29,0,0,1,9-1.33,29.47,29.47,0,0,1,18.91,6.64c2.31-23.28,16.66-28,17.35-28.22l4-1.24,4.14,16L177.1-24.83l2.19,4.52c.26.53,4.62,9.91-2.06,23.63A41.46,41.46,0,0,1,192.7,0a20.71,20.71,0,0,1,7.73,1.23l4.41,1.88-5.55,8.43,11.42,1.63L208.64,18A35.59,35.59,0,0,1,186.15,36.8,22.71,22.71,0,0,1,191,43.61c4.94,10.49.59,21.89.4,22.37l-1.65,4.22-14.81-8-2.6,12.55Z"/><path class="b" d="M157.34-25.49,162-7.5,175.7-18.56S183-3.63,162.31,16.66C176.16,6.11,186.6,4,192.7,4a17.16,17.16,0,0,1,6.17.91l-6.39,9.71L205,16.4a31.58,31.58,0,0,1-28.74,17.66c-.93,0-1.9,0-2.89-.11,23.31,7.71,14.39,30.58,14.39,30.58l-15.57-8.44-2.72,13.14s-14.05-5.64-18.19-27.93c-.8,28.92-20,29.37-21.15,29.37H130l-1.91-15.74L116,60.57s-6-18.06,19.33-26.39c-1,.08-2.05.11-3,.11C108.56,34.29,105.05,13,105.05,13l17-2.78L112.21-2.63a25.49,25.49,0,0,1,7.69-1.1c6.41,0,15.61,2.2,22.68,12.81-1.41-29.57,14.76-34.57,14.76-34.57M163-35.61l-8,2.48c-1.08.33-6.7,2.32-11.85,8.91a39.64,39.64,0,0,0-7.34,16.4,34.63,34.63,0,0,0-26.23-2.36L99.17-6.53l6.68,8.76,1.72,2.25-3.81.63-7.9,1.3,1.3,7.89a35.76,35.76,0,0,0,6.13,14A32.94,32.94,0,0,0,114.2,38a28,28,0,0,0-4,5.87,26.44,26.44,0,0,0-1.84,19.2l2.82,8.53,8.15-3.79,2.14-1,.58,4.8.83,6.82,6.93.21h.24a27.37,27.37,0,0,0,15.47-5.41,29.26,29.26,0,0,0,7.32-7.91,40.87,40.87,0,0,0,3.24,3.82,32.14,32.14,0,0,0,10.33,7.49l8.87,3.56,1.94-9.37.54-2.6,6.1,3.31,8,4.32,3.3-8.44c.53-1.37,5.05-13.71-.51-25.53a26,26,0,0,0-1.82-3.25,40.19,40.19,0,0,0,19.47-19.1L216.45,10,206.1,8.48l4.72-7.17L202-2.44A24.59,24.59,0,0,0,192.7-4a40.23,40.23,0,0,0-8.89,1.05,38,38,0,0,0,.88-4.65c1-8.2-1.32-13.49-1.8-14.47l-4.39-9-7.82,6.3-4.05,3.27-1.54-6L163-35.61Z"/><path class="a" d="M154.43,35.88a11.85,11.85,0,0,1-1.68-.11c-5.87-.79-10.09-5.57-9.4-10.65.61-4.58,4.91-7.91,10.21-7.91a11.83,11.83,0,0,1,1.67.12,11.67,11.67,0,0,1,6.85,3.35,8.79,8.79,0,0,1,2.56,7.3C164,32.56,159.73,35.88,154.43,35.88Z"/><path class="b" d="M153.56,21.21a9,9,0,0,1,1.14.08c3.69.5,6.36,3.25,6,6.16-.35,2.6-3,4.43-6.24,4.43a9,9,0,0,1-1.15-.07c-3.68-.5-6.36-3.26-6-6.16.35-2.6,3-4.44,6.25-4.44m0-8h0c-7.33,0-13.29,4.79-14.18,11.38-1,7.27,4.78,14.06,12.84,15.15a18.09,18.09,0,0,0,2.21.14c7.32,0,13.28-4.78,14.17-11.37A12.81,12.81,0,0,0,165,17.89a15.8,15.8,0,0,0-9.2-4.53,16.26,16.26,0,0,0-2.2-.15Z"/><path class="a" d="M154.7,21.29c-.8-5.7,3.56-16.76,3.56-16.76"/><path class="b" d="M150.74,21.85a17,17,0,0,1,1.1-5.26,37.71,37.71,0,0,1,1.87-4.32,71.11,71.11,0,0,1,4.55-7.74,69.89,69.89,0,0,0-.67,8.71,33,33,0,0,0,.2,4.15,9.46,9.46,0,0,0,.87,3.34Z"/><path class="a" d="M160.42,25.33c6.65-3.66,17.2-3.72,17.2-3.72"/><path class="b" d="M158.49,21.82a30.13,30.13,0,0,1,9.94-1.24,53.31,53.31,0,0,1,9.19,1,52.3,52.3,0,0,0-8.43,2.89,35.17,35.17,0,0,0-3.77,2,19.23,19.23,0,0,0-3.07,2.36Z"/><path class="a" d="M159.29,30.08c7.52,5.56,8.3,11.81,8.3,11.81"/><path class="b" d="M161.67,26.87c.46.57.91,1.12,1.33,1.69s.84,1.16,1.2,1.78a25.37,25.37,0,0,1,1.93,3.73A21.67,21.67,0,0,1,167.32,38a14,14,0,0,1,.27,3.91,12.84,12.84,0,0,0-2.08-3,18.39,18.39,0,0,0-2.6-2.41A20.66,20.66,0,0,0,160,34.62c-.49-.27-1-.48-1.53-.72s-1.05-.4-1.55-.6Z"/><path class="a" d="M148.78,29.64C143.53,33.13,139.41,42,139.41,42"/><path class="b" d="M151,33a11.68,11.68,0,0,0-3,1.28,27.77,27.77,0,0,0-3,2.16,45.2,45.2,0,0,0-5.6,5.56,47.61,47.61,0,0,1,2.35-7.89,32.6,32.6,0,0,1,1.89-3.92,19.19,19.19,0,0,1,2.92-3.85Z"/><path class="a" d="M148,23.91c-5.9-6.75-15.66-8.43-15.66-8.43"/><path class="b" d="M145,26.54a18.19,18.19,0,0,0-2.11-3.28,23.32,23.32,0,0,0-3-3,31.62,31.62,0,0,0-7.58-4.77,33.41,33.41,0,0,1,9.42,1.22,27.52,27.52,0,0,1,4.71,1.76A24.86,24.86,0,0,1,151,21.28Z"/><path class="c" d="M65.63,103.06a22.6,22.6,0,0,1-8.24-14,25.73,25.73,0,0,1,.87-11.73,28.83,28.83,0,0,1-9.41,1.59,31.7,31.7,0,0,1-20.64-8.18L25.36,68,35.53,57.59,21.14,53.34l3.11-4.54c.34-.5,8.57-12.24,24.11-12.24.52,0,1,0,1.57,0C38,16.44,46.81,4.14,47.24,3.56L49.74.2,62.55,10.69,66.78-5.19l4.44,2.34c.52.27,9.59,5.27,12.3,20.31C91.65,4.41,100.5,2.16,101,2L105.67,1,106.18,11,116.35,5.6l1.17,5.1c1.41,6.15,1,18.21-7.11,28.47C123.57,40.91,130.25,53,132,59.58L133.18,64l-16.7,2.28L121.8,77.9l-4.63,1.19a23,23,0,0,1-5.22.52,38.11,38.11,0,0,1-16.59-4.07c4,14.13-2.55,23.71-7.83,27.39l-2.84,2L75.25,94.84l-6,10.83Z"/><path class="b" d="M69.35.69S84,8.44,79.36,37c8.2-27.7,22.56-31.07,22.56-31.07l.58,11.6,11.12-5.94S118.31,32,98.47,44.45A28.21,28.21,0,0,1,107.16,43c16.29,0,21,17.65,21,17.65L110.61,63l5.57,12.21a18.74,18.74,0,0,1-4.23.4c-5.53,0-15.82-1.7-26.95-12.18,17,24.56.24,36.22.24,36.22L74.4,88.08,68,99.8s-15.48-11,0-32.71C61,73,54.44,74.94,48.85,74.94A27.64,27.64,0,0,1,31,67.9L43,55.64,27.55,51.06s7.2-10.5,20.81-10.5a30.76,30.76,0,0,1,10.61,2C40.36,19.54,50.45,6,50.45,6L64.82,17.71l4.53-17M64.2-11.08,61.62-1.37l-1.34,5L55.52-.24,49-5.55,44,1.18c-.68.9-4,5.83-4.3,14.19A39.52,39.52,0,0,0,43.5,32.91,35.14,35.14,0,0,0,21,46.54l-6.23,9.08,10.56,3.12,2.73.8L25.3,62.3,19.7,68l5.72,5.6a35.24,35.24,0,0,0,23.43,9.33,32.77,32.77,0,0,0,4.32-.29,28,28,0,0,0,.27,7.09,26.35,26.35,0,0,0,9.87,16.57l7.32,5.22L75,103.66l1.14-2.07,3.31,3.53,4.73,5,5.68-4a27,27,0,0,0,9.23-12.86,29.18,29.18,0,0,0,1.48-11.5A39.78,39.78,0,0,0,112,83.61a25.68,25.68,0,0,0,6.21-.65l9.26-2.37-4-8.7-1.1-2.41,6.88-.94,9-1.23-2.33-8.75C134.15,52.07,128.24,41,117,36.71a39,39,0,0,0,4.37-11.8,38.82,38.82,0,0,0,.08-15.1L119.07-.39l-9.21,4.92L109.43-4l-9.34,2.19c-1.16.27-7.82,2.14-15,10.34a34.76,34.76,0,0,0-2-4.26c-4-7.21-9-10.11-10-10.62L64.2-11.08Z"/><path class="c" d="M77.22,59.57A9,9,0,0,1,69.07,55a8.83,8.83,0,0,1-.23-7.73,11.71,11.71,0,0,1,5.21-5.58,12,12,0,0,1,5.72-1.49,9,9,0,0,1,8.16,4.53,8.79,8.79,0,0,1,.22,7.73A11.74,11.74,0,0,1,83,58.08,12.15,12.15,0,0,1,77.22,59.57Z"/><path class="b" d="M79.77,44.24a5.11,5.11,0,0,1,4.65,2.44c1.4,2.57-.12,6.1-3.39,7.88a8,8,0,0,1-3.81,1,5.08,5.08,0,0,1-4.64-2.44c-1.4-2.58.11-6.1,3.38-7.89a8,8,0,0,1,3.81-1m0-8h0a16,16,0,0,0-7.64,2,15.65,15.65,0,0,0-7,7.52A12.74,12.74,0,0,0,65.55,57a13,13,0,0,0,11.67,6.62,16,16,0,0,0,7.64-2C92,57.7,95,49.3,91.44,42.85a13,13,0,0,0-11.67-6.61Z"/><path class="c" d="M76,45.24c-4-4.12-7-15.62-7-15.62"/><path class="b" d="M73.09,48a17.23,17.23,0,0,1-2.21-4.9,38.21,38.21,0,0,1-1-4.59,72.08,72.08,0,0,1-.91-8.93A70.14,70.14,0,0,0,73.54,37a32.81,32.81,0,0,0,2.61,3.23,9.37,9.37,0,0,0,2.68,2.18Z"/><path class="c" d="M83,45.12C86.16,38.24,94.64,32,94.64,32"/><path class="b" d="M79.34,43.44a30.1,30.1,0,0,1,7.27-6.89,54.32,54.32,0,0,1,8-4.59,52.22,52.22,0,0,0-5.09,7.32,34.45,34.45,0,0,0-1.88,3.81,19.25,19.25,0,0,0-1.08,3.72Z"/><path class="c" d="M84.86,49.62c9.35,0,13.67,4.63,13.67,4.63"/><path class="b" d="M84.88,45.62c.7.2,1.39.37,2.08.58s1.35.44,2,.73a25.89,25.89,0,0,1,3.77,1.86A21.75,21.75,0,0,1,96,51.25a13.77,13.77,0,0,1,2.53,3A13,13,0,0,0,95.05,53a18.44,18.44,0,0,0-3.52-.4,20.33,20.33,0,0,0-3.42.26c-.55.06-1.11.21-1.65.32s-1.09.29-1.61.43Z"/><path class="c" d="M76.12,55.48C73.94,61.4,75.85,71,75.85,71"/><path class="b" d="M79.87,56.86a11.57,11.57,0,0,0-1.62,2.78,25.94,25.94,0,0,0-1.17,3.52A44.85,44.85,0,0,0,75.85,71a47.09,47.09,0,0,1-2.77-7.75,31.5,31.5,0,0,1-.79-4.28,18.76,18.76,0,0,1,.08-4.83Z"/><path class="c" d="M72.07,51.34c-8.74-2-17.61,2.45-17.61,2.45"/><path class="b" d="M71.2,55.24a18.09,18.09,0,0,0-3.64-1.39,23.16,23.16,0,0,0-4.16-.69,31.65,31.65,0,0,0-8.94.63,33.47,33.47,0,0,1,8.32-4.58,27.59,27.59,0,0,1,4.84-1.36A25.05,25.05,0,0,1,73,47.44Z"/><path class="c" d="M122.45,791.74l-16.26,9.54-1.81-4.11a31.44,31.44,0,0,1,.13-22.62c2.39-6.14,6.65-11.58,12.7-16.26-28.43-3.38-35.87-30.22-35.95-30.51l-1-3.87,22.11-5.83L86.82,701.31l5-2.31a43.21,43.21,0,0,1,16.79-3.28,42,42,0,0,1,26.46,9.33c-1.45-36.72,19.44-45.91,20.41-46.31l3.87-1.62,8.73,24.06L186,663.71l2.61,4.29c.47.76,9,15.36-2.05,38.71,13.72-8.26,24.37-9.82,30.44-9.82a25,25,0,0,1,7,.83l4.57,1.45-7.36,13.91,17.63.81-1.6,5c-.09.28-7.87,23.5-33.06,31a32.56,32.56,0,0,1,10.84,11c8.36,14.11,3.76,30.81,3.55,31.51l-1.23,4.36-23.43-9.94L191.75,806l-4.58-1.35c-.78-.23-15.67-4.85-26.56-24.33-1.61,9.08-5.37,18.11-13.06,24.62a32.37,32.37,0,0,1-17,7.56l-3.45.25Z"/><path class="b" d="M157,662.43l9.41,26,18.72-18.3s12.85,21-14.82,54C192,704,208.67,700.89,217,700.89a20.86,20.86,0,0,1,5.79.65l-8.07,15.25,18.71.86s-9.55,29.66-44.3,30.43c35.57,8.11,25.6,43.19,25.6,43.19L190.47,781l-2.17,19.83s-21.59-6.36-30.85-38.74c3,44.24-27.22,46.43-27.22,46.43l-5-23L108,795.56s-11.38-25.87,24.87-41.76a58.27,58.27,0,0,1-9.66.84c-30.74,0-38.12-27.88-38.12-27.88l24.68-6.52L93.5,702.63a39.33,39.33,0,0,1,15.11-2.91c9.17,0,21.06,3.14,31.46,15.93-6.26-43.54,17-53.22,17-53.22m4.66-10.61-7.74,3.23c-1,.42-21.33,9.33-22.85,42.51a45.62,45.62,0,0,0-22.47-5.84,46.71,46.71,0,0,0-18.47,3.65l-10,4.61,7.48,8.08,7.26,7.85L83.09,719l-7.75,2.05,2,7.74a49.05,49.05,0,0,0,9.07,17,45,45,0,0,0,22.24,14.87,39.44,39.44,0,0,0-7.92,12.47,35.16,35.16,0,0,0-.06,25.68l3.62,8.23,7.75-4.55,7.64-4.48,2.69,12.25L123.9,817l6.91-.5a36,36,0,0,0,19.32-8.5,41,41,0,0,0,12.07-17.94c10.87,14.44,23.1,18.22,23.84,18.44l9.17,2.7,1-9.5,1-9.13,14.3,6.07,8.34,3.55,2.48-8.72c.22-.77,5.27-19.07-4-34.65a36,36,0,0,0-6.14-7.73,55,55,0,0,0,28.72-31l3.21-10-10.45-.48-6.11-.28,2.17-4.1,4.49-8.48-9.14-2.89a28.26,28.26,0,0,0-8.21-1,56.66,56.66,0,0,0-21.36,4.69c-.54.22-1.09.46-1.63.7,5.59-19.48-1.54-31.64-2-32.37l-5.24-8.57-7.18,7L169.72,674l-5.18-14.28-2.86-7.88Z"/><path class="b" d="M159.23,732h.5c5.52.21,9.87,3.91,9.7,8.26s-4.51,7.51-9.81,7.51h-.5c-5.52-.22-9.87-3.91-9.7-8.26s4.51-7.51,9.81-7.51m0-8h0c-9.66,0-17.48,6.68-17.8,15.2-.34,8.75,7.46,16.18,17.39,16.56l.8,0c9.66,0,17.48-6.68,17.81-15.2a15.13,15.13,0,0,0-5.53-12.08A19.46,19.46,0,0,0,160,724l-.8,0Z"/><path class="b" d="M155.84,732.92a25.4,25.4,0,0,1,.46-7.43,56,56,0,0,1,1.65-6.55,108.12,108.12,0,0,1,4.67-12.24,104.75,104.75,0,0,0-.71,12.83,52.26,52.26,0,0,0,.38,6.2,18.63,18.63,0,0,0,1.33,5.33Z"/><path class="b" d="M166.51,733.85a39.39,39.39,0,0,1,6.87-2.56,62.54,62.54,0,0,1,6.83-1.37,81.54,81.54,0,0,1,13.47-.69,78.21,78.21,0,0,0-12.34,4.53,57.56,57.56,0,0,0-5.6,3,32.28,32.28,0,0,0-4.72,3.66Z"/><path class="b" d="M169.83,740.92c.76.69,1.51,1.35,2.24,2.05s1.43,1.41,2.07,2.19a37,37,0,0,1,3.58,4.76,31.08,31.08,0,0,1,2.62,5.22,20.24,20.24,0,0,1,1.36,5.5,19.42,19.42,0,0,0-3.08-4.47,29.13,29.13,0,0,0-3.88-3.59,34.08,34.08,0,0,0-4.37-2.76c-.74-.42-1.55-.74-2.3-1.11s-1.59-.62-2.36-.93Z"/><path class="b" d="M154.67,748.29a21.2,21.2,0,0,0-4.12,2.93,43.39,43.39,0,0,0-3.85,4c-1.23,1.44-2.38,3-3.5,4.57s-2.18,3.23-3.15,4.93c.35-1.94.81-3.86,1.34-5.78s1.13-3.83,1.85-5.73a48.79,48.79,0,0,1,2.55-5.66,29,29,0,0,1,3.84-5.5Z"/><path class="b" d="M147.39,739.72a30.08,30.08,0,0,0-4.17-4.38,37.24,37.24,0,0,0-5.19-3.69,48.17,48.17,0,0,0-12.25-5.09,46.25,46.25,0,0,1,6.85.21,51.94,51.94,0,0,1,6.89,1.17,41.69,41.69,0,0,1,6.82,2.28,36.39,36.39,0,0,1,6.54,3.69Z"/><path class="d" d="M34.66,539.3c0-1.25.13-30.76,12.24-42.75,5.94-5.88,12.53-9,19.05-9a20.16,20.16,0,0,1,13.39,5.17c3.84,3.36,6,8.51,6,14.51A30.31,30.31,0,0,1,74.86,529.6C61.91,541,40,543.19,39,543.28l-4.38.42Z"/><path class="b" d="M66,491.57a16.13,16.13,0,0,1,10.76,4.18c7.45,6.51,5.77,21.85-4.49,30.84C60.09,537.22,38.66,539.3,38.66,539.3s0-28.95,11.06-39.9c5.31-5.26,11-7.83,16.23-7.83m0-8h0c-7.6,0-15.16,3.51-21.86,10.14C31,506.64,30.66,536,30.66,539.3v8.81l8.77-.85c1-.1,24.16-2.46,38.06-14.65a34.31,34.31,0,0,0,11.82-25.36c0-7.17-2.61-13.4-7.34-17.52a24.09,24.09,0,0,0-16-6.16Z"/><path class="d" d="M66.48,501.94c-9.74,7-13,15-13,15"/><path class="b" d="M66.71,502.26a11.76,11.76,0,0,1-.45,3.4,9.26,9.26,0,0,1-1,2.4,3.93,3.93,0,0,1-1.68,1.55,13.68,13.68,0,0,0-2.13,1.16c-.63.47-1.27,1-1.9,1.45s-1.3,1-1.92,1.51a49,49,0,0,0-3.77,3.37l0,0a.41.41,0,0,1-.59,0,.41.41,0,0,1-.12-.32,21.29,21.29,0,0,1,1.2-5.32c.31-.86.66-1.7,1-2.54s.83-1.62,1.29-2.41.83-1.68,1.31-2.49a5.38,5.38,0,0,1,.82-1.12,5.47,5.47,0,0,1,1.13-.8,8.23,8.23,0,0,1,6.33-.51.66.66,0,0,1,.47.62Z"/><path class="b" d="M.17,503a96.43,96.43,0,0,1,11.49-10.29q6-4.59,12.22-8.53c2.08-1.32,4.19-2.56,6.3-3.8s4.24-2.43,6.41-3.52,4.32-2.26,6.52-3.27,4.38-2.11,6.62-3l-4.27,3.06L46.71,472c.44-.5.91-1,1.35-1.45s.9-1,1.38-1.43l1.47-1.35.73-.67.79-.63L54,465.23c.54-.4,1.11-.78,1.67-1.17l.84-.58.89-.54a41.21,41.21,0,0,1,7.71-3.77,40.15,40.15,0,0,1,4.46-1.36,30,30,0,0,1,5.07-.82l.5,0a.56.56,0,0,1,.6.5.57.57,0,0,1-.13.4l-5,6.17-5.09,6.08-5.18,6c-1.73,2-3.43,4-5.21,6l-.21.23-.26.11c-9,3.66-17.93,7.42-26.95,11l-13.5,5.41L.67,504.15a.62.62,0,0,1-.68-1Z"/><path class="a" d="M88.6,478.89a22.63,22.63,0,0,1-11.42-11.52,25.91,25.91,0,0,1-2-11.6,28.73,28.73,0,0,1-15.81,4.73,32.14,32.14,0,0,1-14.94-3.74l-3.46-2,7.32-12.55-15-.58,1.9-5.17c.25-.68,5.71-15,21.88-18.14-16.47-16.61-11-30.69-10.7-31.35l1.6-3.88,15,7,.2-16.43L68,374.85c.57.14,10.59,2.76,16.91,16.67,4.68-14.64,12.71-19,13.17-19.23l4.25-2.21,3,9.65,8.52-7.76,2.39,4.65c2.88,5.62,5.5,17.4.11,29.34a23.74,23.74,0,0,1,2.79-.17c14.82,0,22.82,14.06,23.15,14.66l2.21,4-15.63,6.31,8,10-4.2,2.28c-.53.29-5.42,2.83-13.55,2.83a41.49,41.49,0,0,1-8.45-.89c7.31,12.71,3.34,23.59-.87,28.45L107.54,476l-11.63-7.45-3.12,12Z"/><path class="b" d="M99.94,375.84l3.41,11.1,9.32-8.49s9.56,18.66-6.62,35.56c4.86-3.05,9.23-4.22,13.08-4.22,12.64,0,19.66,12.61,19.66,12.61L122.37,429l8.4,10.47s-4.3,2.34-11.64,2.34c-5.58,0-12.92-1.35-21.48-6.11,22.47,19.64,9.13,35,9.13,35l-13.35-8.55-3.37,12.94s-17.73-6.9-8-31.71C74.65,453.8,66.17,456.5,59.34,456.5a28.08,28.08,0,0,1-12.92-3.19l8.65-14.84-16.15-.63s6-16.15,24.75-16.15a35,35,0,0,1,3.62.19c-23.69-17.75-17.24-33.4-17.24-33.4l16.82,7.88.21-17.62s16.13,3.91,18.62,32.75c1.15-28.86,14.24-35.65,14.24-35.65m4.83-11.52-8.51,4.41c-1.06.55-7.06,4-12,13.7a36.64,36.64,0,0,0-3-3.63C75.58,372.8,70,371.22,69,371L59.2,368.6l-.12,10-.06,5.2-5.58-2.62-7.6-3.55-3.19,7.75c-.43,1-2.48,6.65-.68,14.81A39.79,39.79,0,0,0,49.9,416.3c-13.44,5.55-18.23,18.09-18.48,18.77L27.61,445.4l11,.43,2.84.11-1.94,3.34-4,6.91,6.92,4a36,36,0,0,0,17,4.28,32.65,32.65,0,0,0,12.18-2.33,28.4,28.4,0,0,0,2,6.81,26.49,26.49,0,0,0,13.63,13.64l8.38,3.26,2.27-8.7.59-2.28,4.08,2.61,5.83,3.74,4.53-5.24a27.08,27.08,0,0,0,5.79-14.73,29,29,0,0,0-1.38-11.49c.63,0,1.26,0,1.89,0,8.93,0,14.45-2.76,15.46-3.31L143,442l-6-7.47-1.66-2.07,6.43-2.59,8.41-3.4-4.41-7.91c-.36-.65-8.46-14.88-23.7-16.55a39.8,39.8,0,0,0-2.29-27.16L115,365.48l-7.73,7-2.52-8.2Z"/><path class="a" d="M86.59,434.22a8.65,8.65,0,0,1-6.44-2.72A8.81,8.81,0,0,1,78,424.06a11.74,11.74,0,0,1,3.68-6.68,11.58,11.58,0,0,1,7.75-3.18,8.65,8.65,0,0,1,6.45,2.71C99.4,420.68,98.7,427,94.35,431A11.63,11.63,0,0,1,86.59,434.22Z"/><path class="b" d="M89.46,418.2A4.67,4.67,0,0,1,93,419.63c2,2.15,1.39,5.94-1.34,8.47a7.56,7.56,0,0,1-5,2.12,4.66,4.66,0,0,1-3.51-1.44c-2-2.15-1.39-5.94,1.34-8.47a7.57,7.57,0,0,1,5-2.11m0-8h0A15.45,15.45,0,0,0,79,414.44c-6,5.52-6.76,14.39-1.78,19.78a12.61,12.61,0,0,0,9.38,4A15.46,15.46,0,0,0,97.07,434c6-5.52,6.76-14.39,1.78-19.78a12.64,12.64,0,0,0-9.39-4Z"/><path class="a" d="M84.42,420.31c-4.9-3-10.65-13.42-10.65-13.42"/><path class="b" d="M82.33,423.72a17.08,17.08,0,0,1-3.35-4.2,37.69,37.69,0,0,1-2.14-4.19,71.92,71.92,0,0,1-3.07-8.44A68.89,68.89,0,0,0,80.06,413a31,31,0,0,0,3.33,2.49,9.36,9.36,0,0,0,3.13,1.46Z"/><path class="a" d="M91.18,418.47c1.41-7.46,8.09-15.63,8.09-15.63"/><path class="b" d="M87.25,417.73a30.26,30.26,0,0,1,5.37-8.46,55.89,55.89,0,0,1,6.65-6.43,52.93,52.93,0,0,0-3.14,8.35,35.94,35.94,0,0,0-.88,4.16,19.73,19.73,0,0,0-.14,3.87Z"/><path class="a" d="M94.13,422.37c9.07-2.26,14.39,1.13,14.39,1.13"/><path class="b" d="M93.17,418.49c.73,0,1.44,0,2.15.05s1.42.1,2.13.21a26.56,26.56,0,0,1,4.11.88,21.72,21.72,0,0,1,3.77,1.58,13.92,13.92,0,0,1,3.19,2.29,13.21,13.21,0,0,0-3.68-.35,18.43,18.43,0,0,0-3.51.48,20.79,20.79,0,0,0-3.26,1.09c-.52.2-1,.48-1.52.71l-1.45.82Z"/><path class="a" d="M87.09,430.19c-.65,6.28,3.54,15.08,3.54,15.08"/><path class="b" d="M91.07,430.61a11.51,11.51,0,0,0-.89,3.09,26.11,26.11,0,0,0-.27,3.71,45.24,45.24,0,0,0,.72,7.86,46.87,46.87,0,0,1-4.58-6.84,29.83,29.83,0,0,1-1.82-3.95,19.51,19.51,0,0,1-1.12-4.7Z"/><path class="a" d="M82.15,427.17c-9,.25-16.47,6.71-16.47,6.71"/><path class="b" d="M82.26,431.17a17.68,17.68,0,0,0-3.87-.46,23.37,23.37,0,0,0-4.2.36,31.38,31.38,0,0,0-8.51,2.81,33.31,33.31,0,0,1,6.94-6.48A28.18,28.18,0,0,1,77,424.88,25.73,25.73,0,0,1,82,423.17Z"/><path class="c" d="M136.69,427l-12.6,7.32-1.79-4.12a25.63,25.63,0,0,1,.17-18.4A30,30,0,0,1,131.23,400c-16.83-3-24.87-16.73-26.86-24.39l-1-3.87,16.81-4.36-12-13,5-2.28a34.86,34.86,0,0,1,13.39-2.59,33.63,33.63,0,0,1,20,6.49c-.28-27.89,16-35,16.75-35.27l3.88-1.59,6.61,18.48,13.89-13.46,2.6,4.3c.35.59,6.65,11.45-.62,28.75,9.79-5.35,17.41-6.4,21.9-6.4a19.88,19.88,0,0,1,5.89.72L222,353l-5.67,10.6,13.59.68-1.62,5c-.07.21-6,17.77-24.89,24.17a26.19,26.19,0,0,1,7.24,8c6.69,11.42,2.93,24.84,2.77,25.41l-1.26,4.35L194,423.3l-1.71,14.94-4.58-1.37c-.59-.18-11.58-3.64-20.11-17.64-4.08,17.28-16.52,23.12-24,23.63l-3.46.23Z"/><path class="b" d="M164.85,324.4l7.29,20.39,14.74-14.29s10,16.55-11.81,42.28c17-15.54,30-18,36.53-18a16.81,16.81,0,0,1,4.65.52l-6.38,11.94,14.67.74S217,391.2,189.69,391.69c27.86,6.48,19.92,34,19.92,34l-19-8.15L188.89,433s-16.9-5.06-24-30.49c2.18,34.71-21.51,36.32-21.51,36.32l-3.89-18.07L126,428.63s-8.83-20.32,19.65-32.66a46,46,0,0,1-7.4.63c-24.26,0-30-22-30-22l19.38-5L114.89,355.7a31,31,0,0,1,11.72-2.22c7.21,0,16.6,2.46,24.76,12.6-4.76-34.17,13.48-41.68,13.48-41.68m4.71-10.59L161.8,317c-.8.33-16.64,7.18-18.94,32.1a37.57,37.57,0,0,0-16.24-3.63,38.51,38.51,0,0,0-15.05,2.95l-10,4.57,7.45,8.11,3.72,4.06-6.48,1.68-7.75,2,2,7.75c1.94,7.46,9,20,23.14,25.42a32.12,32.12,0,0,0-4.89,8.33,29.43,29.43,0,0,0-.12,21.46l3.59,8.25,7.77-4.52,3.95-2.29,1.57,7.29,1.45,6.77,6.91-.47a30.11,30.11,0,0,0,16.17-7,33,33,0,0,0,8.92-12c8.33,9.9,17.08,12.64,17.64,12.81l9.16,2.74,1.08-9.5.55-4.84,9.06,3.9,8.33,3.57,2.52-8.7c.46-1.59,4.27-15.88-3.16-28.54a29.65,29.65,0,0,0-3.38-4.68,45,45,0,0,0,21.38-24.19l3.25-9.95L224.94,360l-2.06-.11.43-.8,4.52-8.46-9.13-2.93a23.84,23.84,0,0,0-7.1-.91,44.12,44.12,0,0,0-15.36,3,42.08,42.08,0,0,0,.91-7.49c.29-9.25-2.8-14.85-3.42-15.87l-5.2-8.61-7.21,7-5.83,5.64-3.11-8.69-2.82-7.9Z"/><path class="b" d="M166.29,379h.44c4.33.19,7.73,3.1,7.58,6.52s-3.54,5.85-7.68,5.85h-.43c-4.33-.19-7.73-3.1-7.58-6.52s3.54-5.85,7.67-5.85m0-8h0c-8.47,0-15.35,5.94-15.68,13.51-.33,7.82,6.5,14.48,15.24,14.85l.77,0c8.47,0,15.35-5.94,15.67-13.51.34-7.82-6.5-14.48-15.23-14.85l-.77,0Z"/><path class="b" d="M162.83,379.88a20.33,20.33,0,0,1,.58-6.05,42.1,42.1,0,0,1,1.55-5.17,80.4,80.4,0,0,1,4.13-9.52,79.8,79.8,0,0,0-.18,10.12,39.06,39.06,0,0,0,.5,4.83,12.52,12.52,0,0,0,1.21,4Z"/><path class="b" d="M171.56,379.73A35.53,35.53,0,0,1,182.68,377a63.59,63.59,0,0,1,10.68-.09,61.76,61.76,0,0,0-9.57,3.93,44.58,44.58,0,0,0-4.27,2.55,23,23,0,0,0-3.48,3Z"/><path class="b" d="M175.07,385.26c.59.59,1.17,1.15,1.73,1.74s1.1,1.19,1.59,1.84a29.55,29.55,0,0,1,2.71,4,25,25,0,0,1,1.9,4.28,16.39,16.39,0,0,1,.86,4.43,15.15,15.15,0,0,0-2.58-3.41,22.5,22.5,0,0,0-3.17-2.65,24.81,24.81,0,0,0-3.51-2c-.59-.3-1.23-.51-1.83-.76s-1.25-.42-1.85-.63Z"/><path class="b" d="M163.25,392.4a14.61,14.61,0,0,0-3.27,2,30.17,30.17,0,0,0-3.18,3,52.92,52.92,0,0,0-5.62,7.2,55.07,55.07,0,0,1,2.17-9.23,39.53,39.53,0,0,1,1.88-4.61,23,23,0,0,1,3-4.57Z"/><path class="b" d="M156.43,385.61a22.3,22.3,0,0,0-3-3.53,28.28,28.28,0,0,0-3.88-3.06,37,37,0,0,0-9.42-4.43,36.28,36.28,0,0,1,5.42,0,39.2,39.2,0,0,1,5.51.76,32.82,32.82,0,0,1,5.52,1.66,29.21,29.21,0,0,1,5.37,2.84Z"/><path class="e" d="M196.62,726.92l-120-101.76S228.76,501.67,228.76,143.49l140.1,18C368.86,594.36,196.62,726.92,196.62,726.92Z"/><path class="c" d="M151.12,233.41l-9.91,16-3.52-2.79a31.44,31.44,0,0,1-10.46-20,38.11,38.11,0,0,1,3.62-20.31,42.4,42.4,0,0,1-15.35,2.94c-18.39,0-30.2-12.57-30.7-13.1l-2.71-2.94L98.9,177.7l-21.56-7.57,3.34-4.38c.49-.63,12.17-15.65,32.9-15.65a43.74,43.74,0,0,1,8.15.78c-18.45-31.78-4.28-49.67-3.61-50.48l2.67-3.24,19,17.19,7.63-23.8,4.32,2.56c.76.46,15.14,9.36,16.28,35.16,13.45-22.33,28.12-25.29,28.89-25.43l4.72-.86v15.75l16-7.53.92,5.15c.05.28,4,24.46-14.76,42.82,20.87,1.59,30.44,20.61,32.63,30.87l.94,4.43-25.36,2.16,7.13,18-4.69.95a28.32,28.32,0,0,1-5.18.4c-6.36,0-17.29-1.47-29.67-9.49,2.82,8.78,3.72,18.52,0,27.87A32.39,32.39,0,0,1,168,248L165,249.82Z"/><path class="b" d="M149.65,96.55s21.2,12.6,12.15,54.65c14.24-40.5,35.79-44.42,35.79-44.42V124l16.94-8s5.43,30.68-24.93,47.61a43.42,43.42,0,0,1,11.28-1.59c25.63,0,31.54,27.8,31.54,27.8l-26.2,2.23,7.35,18.54a24.74,24.74,0,0,1-4.39.32c-7.58,0-23.94-2.38-41-20.13,23.33,37.71-2.35,53.76-2.35,53.76l-15.23-18-10.44,16.9S118,226,142.62,195c-10,7.66-19.22,10.26-27.12,10.26-16.85,0-27.76-11.82-27.76-11.82l18.77-17.29-22.65-7.95s10.73-14.07,29.72-14.08a44.76,44.76,0,0,1,17.54,3.81c-25.9-35.56-9.91-55-9.91-55l20.45,18.54,8-24.93m-4.55-12L142,94.11l-4.2,13.1L126.58,97l-6.21-5.64L115,97.86c-.7.84-14.5,18.22-.32,48.26l-1.14,0c-22.68,0-35.55,16.53-36.08,17.23l-6.68,8.75,10.39,3.65,10.09,3.54-9,8.27L76.43,193l5.43,5.88c.55.59,13.52,14.39,33.64,14.39a44.84,44.84,0,0,0,8.92-.9,39.44,39.44,0,0,0-1.17,14.73,35,35,0,0,0,12,22.72l7,5.58,4.73-7.64,4.65-7.53,8.11,9.57,4.47,5.28,5.87-3.67a36,36,0,0,0,13.11-16.55,41,41,0,0,0,2.28-21.47,56,56,0,0,0,23.71,5.6,32.15,32.15,0,0,0,6-.48l9.37-1.9L221,207.69l-3.39-8.53,15.48-1.32,9-.77-1.88-8.87a52,52,0,0,0-7.35-16.7c-5.53-8.21-12.81-13.63-21.4-16a55,55,0,0,0,10.9-40.82l-1.82-10.3-9.47,4.46-5.52,2.61V97.19l-9.43,1.72c-1.25.23-7.91,1.72-16.28,8.78a65.56,65.56,0,0,0-9.26,9.65c-4.17-19.82-16.15-27.23-16.88-27.67l-8.64-5.13Z"/><path class="b" d="M161.33,161.94c3.19,0,6,1.42,7.24,4,1.89,3.92-.62,9-5.6,11.44a12.09,12.09,0,0,1-5.2,1.23c-3.2,0-6-1.42-7.25-4-1.88-3.92.63-9.05,5.61-11.45a12.15,12.15,0,0,1,5.2-1.22m0-8h0a20.13,20.13,0,0,0-8.67,2c-8.95,4.3-13.14,14.23-9.34,22.12,2.52,5.25,8.06,8.52,14.45,8.52a20.05,20.05,0,0,0,8.66-2c8.95-4.3,13.15-14.23,9.35-22.12-2.53-5.25-8.06-8.52-14.45-8.52Z"/><path class="b" d="M153.13,165.81a25.7,25.7,0,0,1-3.07-6.78,56,56,0,0,1-1.6-6.57,107.45,107.45,0,0,1-1.6-13,106,106,0,0,0,5.37,11.68,50.57,50.57,0,0,0,3.24,5.3,18.6,18.6,0,0,0,3.66,4.09Z"/><path class="b" d="M163,161.64a39.3,39.3,0,0,1,4.87-5.48,63,63,0,0,1,5.4-4.4,81.61,81.61,0,0,1,11.58-6.92,79.33,79.33,0,0,0-8.79,9.79,56.58,56.58,0,0,0-3.52,5.3,32.64,32.64,0,0,0-2.47,5.44Z"/><path class="b" d="M169.24,166.33c1,.26,2,.49,2.93.77s1.93.58,2.86,1a37.43,37.43,0,0,1,5.39,2.54,31.26,31.26,0,0,1,4.76,3.39,20.65,20.65,0,0,1,3.78,4.22,19.78,19.78,0,0,0-4.82-2.51,27.74,27.74,0,0,0-5.11-1.35,32.12,32.12,0,0,0-5.16-.4c-.84,0-1.71.07-2.55.1s-1.69.18-2.52.27Z"/><path class="b" d="M159.28,179.93a21.43,21.43,0,0,0-2.26,4.52,42,42,0,0,0-1.53,5.35c-.41,1.86-.71,3.76-1,5.68s-.41,3.87-.48,5.83c-.59-1.87-1.08-3.79-1.52-5.73s-.79-3.92-1-5.93a46.59,46.59,0,0,1-.39-6.2,28.71,28.71,0,0,1,.82-6.65Z"/><path class="b" d="M148.84,175.77a29,29,0,0,0-5.73-1.92,36.18,36.18,0,0,0-6.31-.84,48.35,48.35,0,0,0-6.58.15,45.79,45.79,0,0,0-6.63,1.08,45,45,0,0,1,6.15-3,52,52,0,0,1,6.63-2.19,41.26,41.26,0,0,1,7.1-1.17,36.51,36.51,0,0,1,7.51.2Z"/><path class="c" d="M407.75,405.65c-.61-.35-12.14-7.16-17.74-25.42a37.93,37.93,0,0,1-11.31,14.62,30.3,30.3,0,0,1-18.22,6.21,20.1,20.1,0,0,1-3-.19l-3.42-.56.32-18.81-15.85,4.86-.81-4.42a28.34,28.34,0,0,1,4.81-19.8A33.81,33.81,0,0,1,356.06,351a38,38,0,0,1-24-33.67l-.1-4,19.94-.49L342,295.35l5.4-1.09a31.76,31.76,0,0,1,5.89-.48,38,38,0,0,1,30,13.91c6.55-31.32,26.32-34.94,27.25-35.09l4.13-.67,2.57,22.28,18.86-11.32,1.55,4.78c.24.74,4.5,14.66-8.84,32.16A61.53,61.53,0,0,1,446.43,317c9.7,0,14.82,2.9,15.37,3.23l4.11,2.47-9.08,10.34,14.91,4.28L469,341.83c-.48.79-11.41,18.41-34.18,20.07a29.16,29.16,0,0,1,6.49,11.18c4.37,14.05-3.11,27.66-3.43,28.23l-2.21,4L417.63,392,411.9,408Z"/><path class="b" d="M411.13,276.55l2.79,24.28L433.8,288.9s6.76,20.77-23.82,43.48c16-9,28.16-11.34,36.45-11.34,8.87,0,13.31,2.66,13.31,2.66l-10.07,11.49,15.94,4.57S454.54,358,431.38,358a48.19,48.19,0,0,1-10.17-1.12c29,14.27,13.21,42.45,13.21,42.45l-18.75-13.81-5.93,16.63s-17.29-9.89-18.65-39.69c-5.3,31.69-24,34.57-30.61,34.57a16.29,16.29,0,0,1-2.34-.14l.35-20.86-16.82,5.16s-4.51-24.62,30-30.89C336.8,348,336,317.25,336,317.25l22.59-.56-10.44-18.51a28.39,28.39,0,0,1,5.1-.4c8,0,23.42,2.61,32.36,21.15,3.52-38.79,25.5-42.38,25.5-42.38m7-9.24-8.28,1.35c-1,.15-20.22,3.65-28.71,31.22a43.14,43.14,0,0,0-27.86-10.1,35,35,0,0,0-6.68.56l-10.8,2.17,5.41,9.6,3.9,6.91-9.28.23-8,.2.2,8a44.36,44.36,0,0,0,5.8,19.42,40.36,40.36,0,0,0,13.88,14.45,35.25,35.25,0,0,0-8.44,8.54,32.09,32.09,0,0,0-5.46,22.79l1.62,8.84,8.6-2.63,6.29-1.93-.17,9.85-.12,6.92,6.83,1.11a23.83,23.83,0,0,0,3.63.24c5.21,0,18.92-1.46,28.85-15.58a53.63,53.63,0,0,0,5.12,8.72c5.34,7.38,10.72,10.58,11.32,10.93l8.29,4.74,3.22-9,2.31-6.5,10.09,7.43,7.3,5.38,4.42-7.91c.36-.64,8.63-15.7,3.76-31.38a33.29,33.29,0,0,0-3.1-7,50,50,0,0,0,30.39-21l5.42-9-10.06-2.88L464,331l1.76-2,6.32-7.21-8.22-4.93c-1.06-.64-6.88-3.8-17.43-3.8a59.31,59.31,0,0,0-9.07.72,47.58,47.58,0,0,0,3.73-9.58c2.6-9.82.72-16.51.32-17.75l-3.11-9.56L429.68,282l-9.23,5.54-1.37-11.94-1-8.33Z"/><path class="b" d="M396.26,336.63a11,11,0,0,1,3,.41c4.72,1.31,7.7,5.39,6.67,9.1-.82,2.93-3.89,4.76-7.46,4.76a11.41,11.41,0,0,1-3-.41c-4.72-1.32-7.7-5.39-6.67-9.11.82-2.93,3.89-4.75,7.46-4.75m0-8h0c-7.3,0-13.4,4.26-15.16,10.61-2.22,7.95,3.27,16.46,12.23,18.95a18.85,18.85,0,0,0,5.1.71c7.3,0,13.4-4.27,15.16-10.61,2.22-8-3.27-16.47-12.23-19a18.84,18.84,0,0,0-5.1-.7Z"/><path class="b" d="M395.22,337a22.81,22.81,0,0,1,2-6.4,49.62,49.62,0,0,1,2.89-5.3,94.81,94.81,0,0,1,6.74-9.5,93.5,93.5,0,0,0-3,11,44.06,44.06,0,0,0-.82,5.43,15.27,15.27,0,0,0,.18,4.77Z"/><path class="b" d="M404.52,339.6a40,40,0,0,1,12.76-.38A70.91,70.91,0,0,1,429,341.61a69.68,69.68,0,0,0-11.55,1.6,52.71,52.71,0,0,0-5.39,1.59,28.3,28.3,0,0,0-4.72,2.27Z"/><path class="b" d="M406.41,346.47c.51.77,1,1.51,1.49,2.28s.92,1.55,1.31,2.37a33.4,33.4,0,0,1,2,4.94,28.78,28.78,0,0,1,1.1,5.11,18.54,18.54,0,0,1-.06,5.05,17.5,17.5,0,0,0-1.85-4.45,24.94,24.94,0,0,0-2.71-3.81,28.73,28.73,0,0,0-3.27-3.17c-.56-.5-1.2-.92-1.78-1.37s-1.25-.83-1.86-1.23Z"/><path class="b" d="M391.72,350.45a18.14,18.14,0,0,0-4.13,1.54,38,38,0,0,0-4.19,2.56,61.26,61.26,0,0,0-7.84,6.67,61.9,61.9,0,0,1,4.94-9.42,41.09,41.09,0,0,1,3.31-4.46,25.24,25.24,0,0,1,4.45-4.1Z"/><path class="b" d="M386.62,341.42a25.46,25.46,0,0,0-2.55-4.63,31.53,31.53,0,0,0-3.61-4.3,41.53,41.53,0,0,0-4.39-3.83,40.33,40.33,0,0,0-5-3.25,41.16,41.16,0,0,1,5.91,1.47,46,46,0,0,1,5.78,2.34,37.27,37.27,0,0,1,5.52,3.3,32.67,32.67,0,0,1,5,4.52Z"/><path class="a" d="M377.94,593.41l-7.52,7.72-2.84-3.49a20.41,20.41,0,0,1-3.83-14.15,22.88,22.88,0,0,1,3.1-9.22h-.76c-15.09,0-22.48-12.4-22.78-12.93l-2-3.46,10.8-6.27L341,544.71l4.21-3.55a27.89,27.89,0,0,1,16.79-5.8,26.37,26.37,0,0,1,7.52,1.1c-5-19.63,5.34-28,5.85-28.38l3.3-2.58,8.3,11.73,7.24-12.39,3.66,3.44c.37.35,6.67,6.49,5.93,19.3,8.78-7.75,15.91-8.29,17.71-8.29h.23l4.79.18-1.9,8.52,9.8-2.21-.23,5.23a31.63,31.63,0,0,1-12.24,22.4,20.76,20.76,0,0,1,5.95,4.19c7.17,7.24,7.16,17.89,7.15,18.34l0,4.54-14.63-2,1.78,11.09-4.78-.09c-.46,0-8.5-.27-17.24-7.56-.33,12.52-8,19-13.37,20.86L383.49,604Z"/><path class="b" d="M395.11,511.2s10.66,10,0,33.22c12.86-20.67,25.3-21.13,26.38-21.13h.07l-2.22,10,10.84-2.45s-.8,18.48-20.57,24.38l1.36,0c20.26,0,20.07,20.73,20.07,20.73l-15.47-2.08,1.87,11.68s-13.35-.25-23.73-17.32c8.65,24.85-8.29,30.85-8.29,30.85l-6.51-12.38-8.22,8.45s-10.58-13,7.67-27.81a29,29,0,0,1-12.27,3c-13,0-19.32-10.94-19.32-10.94l13.1-7.6-12.1-7.52A23.81,23.81,0,0,1,362,539.36a24.56,24.56,0,0,1,14.49,5c-10.43-23.94,1.34-33.12,1.34-33.12l9.46,13.37,7.84-13.41m-1.84-12.72-5.07,8.68-1.57,2.69-2.29-3.24-4.85-6.84-6.6,5.16c-.83.64-5,4.21-7.3,11.52a35.29,35.29,0,0,0-1.12,15c-.82-.07-1.66-.1-2.49-.1a31.73,31.73,0,0,0-19.37,6.74l-8.42,7.1,9.35,5.81.79.49-1.58.92-6.92,4,4,6.92a31.71,31.71,0,0,0,21,14.47,26.45,26.45,0,0,0-1.11,5.24,24.27,24.27,0,0,0,4.71,17.09l5.67,7,6.27-6.44.54-.55,1.38,2.62,3.22,6.13,6.53-2.31a24.51,24.51,0,0,0,11.32-9.13,26.32,26.32,0,0,0,3.81-8.46c1,.58,1.94,1.08,2.82,1.49a28.88,28.88,0,0,0,11.26,3l9.56.18-1.52-9.44-.17-1.06,4.81.65,9,1.2L439,576c0-1.3-.12-12.92-8.31-21.19a25.38,25.38,0,0,0-2.12-1.91,36.55,36.55,0,0,0,9.56-21.7l.46-10.45-8.74,2,1.53-6.9-9.55-.51h-.38c-1.63,0-7.05.37-14.06,4.66-.15-.93-.33-1.85-.56-2.75-1.8-7.33-5.55-11.14-6.28-11.83l-7.32-6.89Z"/><path class="a" d="M390.72,563.93c-4.44,0-8.16-2.67-9.05-6.49-1.09-4.66,2.36-9.47,7.7-10.71a11.56,11.56,0,0,1,2.61-.31c4.43,0,8.16,2.67,9,6.49,1.09,4.66-2.37,9.47-7.71,10.72A11.46,11.46,0,0,1,390.72,563.93Z"/><path class="b" d="M392,550.42c2.52,0,4.67,1.34,5.15,3.4.59,2.52-1.52,5.17-4.72,5.91a7.09,7.09,0,0,1-1.69.2c-2.52,0-4.68-1.34-5.16-3.4-.59-2.52,1.53-5.16,4.72-5.91a7.73,7.73,0,0,1,1.7-.2m0-8h0a15.53,15.53,0,0,0-3.52.41,14.88,14.88,0,0,0-8.21,5.09,12.21,12.21,0,0,0-2.48,10.43c1.32,5.64,6.64,9.58,13,9.58a15.44,15.44,0,0,0,3.51-.41c7.49-1.75,12.29-8.71,10.69-15.52-1.31-5.64-6.64-9.58-12.94-9.58Z"/><path class="a" d="M390.28,550.62c-2.44-4.44-2.31-14.93-2.31-14.93"/><path class="b" d="M386.78,552.55a14.92,14.92,0,0,1-.67-4.83,31.41,31.41,0,0,1,.3-4.19,61.79,61.79,0,0,1,1.56-7.84,59.79,59.79,0,0,0,2.41,7.36,27.36,27.36,0,0,0,1.57,3.31,7.29,7.29,0,0,0,1.84,2.33Z"/><path class="a" d="M396.26,552.16c4.34-5.11,13-8.45,13-8.45"/><path class="b" d="M393.22,549.57a26.25,26.25,0,0,1,8-4,46.85,46.85,0,0,1,8-1.82,45.18,45.18,0,0,0-5.92,5.22,31.29,31.29,0,0,0-2.4,2.88,16.26,16.26,0,0,0-1.65,2.94Z"/><path class="a" d="M396.83,556.43c7.93,2.22,10.53,7.14,10.53,7.14"/><path class="b" d="M397.91,552.58a29.44,29.44,0,0,1,3.18,2.2,23.36,23.36,0,0,1,2.75,2.59,19.7,19.7,0,0,1,2.16,3,12.62,12.62,0,0,1,1.36,3.23,11.69,11.69,0,0,0-2.75-1.79,15.67,15.67,0,0,0-2.94-1,18.35,18.35,0,0,0-3-.46,22,22,0,0,0-2.93,0Z"/><path class="a" d="M388,559.36c-3.24,4.52-3.86,13.09-3.86,13.09"/><path class="b" d="M391.27,561.69a9.07,9.07,0,0,0-2.09,1.84,20.93,20.93,0,0,0-1.91,2.65,39.37,39.37,0,0,0-3.11,6.27,41.21,41.21,0,0,1-.76-7.29,26.2,26.2,0,0,1,.23-3.9,16.62,16.62,0,0,1,1.14-4.23Z"/><path class="a" d="M385.55,554.89c-7-3.72-15.55-2-15.55-2"/><path class="b" d="M383.67,558.42A15,15,0,0,0,381,556.3a20,20,0,0,0-3.3-1.66,27.3,27.3,0,0,0-7.72-1.79,29.46,29.46,0,0,1,8.17-2.18,24.07,24.07,0,0,1,4.51-.13,21.91,21.91,0,0,1,4.75.82Z"/><path class="d" d="M507.75,422c-8.9,0-21.55-1.19-31.26-6.85a30.29,30.29,0,0,1-14.52-20c-1.14-5.89,0-11.35,3.1-15.38a20.12,20.12,0,0,1,16.16-8c5.27,0,10.95,1.93,16.41,5.57,14.17,9.47,19.92,38.41,20.16,39.64l.84,4.32-4.39.42c-.11,0-2.63.24-6.5.24Z"/><path class="b" d="M481.23,375.83c4.38,0,9.23,1.59,14.19,4.9,12.94,8.65,18.45,37.07,18.45,37.07s-2.4.22-6.12.22c-7.39,0-20-.9-29.25-6.31-11.78-6.87-16.36-21.61-10.28-29.42a16,16,0,0,1,13-6.46m0-8a24,24,0,0,0-19.32,9.55c-3.85,4.95-5.23,11.55-3.87,18.59a34.32,34.32,0,0,0,16.43,22.65c10.49,6.12,23.89,7.4,33.28,7.4,4,0,6.6-.23,6.88-.26l8.77-.84-1.68-8.65c-.62-3.24-6.58-32-21.86-42.19-6.12-4.09-12.56-6.25-18.63-6.25Z"/><path class="d" d="M479.45,386.42c10.9,5.05,15.6,12.26,15.6,12.26"/><path class="b" d="M479.62,386.05a8.2,8.2,0,0,1,6.31-.7,5.13,5.13,0,0,1,1.26.57,6,6,0,0,1,1,.93c.62.71,1.13,1.55,1.75,2.21s1.2,1.38,1.74,2.12,1,1.51,1.49,2.29a21,21,0,0,1,2.2,5,.41.41,0,0,1-.3.51.41.41,0,0,1-.34-.05l0,0a49.13,49.13,0,0,0-4.34-2.59c-.71-.41-1.44-.78-2.18-1.12s-1.43-.72-2.14-1.06a13.8,13.8,0,0,0-2.31-.73,4.09,4.09,0,0,1-1.95-1.2,10.1,10.1,0,0,1-1.44-2.17,12.07,12.07,0,0,1-1.08-3.25v0A.66.66,0,0,1,479.62,386.05Z"/><path class="d" d="M327.21,647.92c-.23-1.23-5.65-30.23,4-44.28,5.65-8.23,13-12.76,20.74-12.76a20.47,20.47,0,0,1,10.41,2.91c4.4,2.58,7.45,7.24,8.59,13.13a30.3,30.3,0,0,1-6.07,23.92c-10.58,13.58-31.71,19.91-32.6,20.17L328,652.25Z"/><path class="b" d="M351.94,594.88a16.51,16.51,0,0,1,8.39,2.37c8.54,5,9.77,20.37,1.39,31.13-9.92,12.72-30.58,18.79-30.58,18.79s-5.45-28.43,3.36-41.27c5-7.33,11.27-11,17.44-11m0-8h0c-9.09,0-17.62,5.15-24,14.49-10.4,15.16-5.25,44.06-4.63,47.3l1.66,8.66,8.45-2.48c.95-.28,23.27-7,34.64-21.55a34.31,34.31,0,0,0,6.83-27.13c-1.35-7-5.08-12.66-10.49-15.83a24.35,24.35,0,0,0-12.43-3.46Z"/><path class="d" d="M351.44,605.25c-8.24,8.74-9.93,17.18-9.93,17.18"/><path class="b" d="M351.73,605.52a12.08,12.08,0,0,1,.2,3.43,9.43,9.43,0,0,1-.53,2.54,4,4,0,0,1-1.36,1.84,13.26,13.26,0,0,0-1.87,1.53c-.53.59-1.08,1.18-1.6,1.78s-1.09,1.21-1.6,1.85a48.32,48.32,0,0,0-3.07,4l0,0a.43.43,0,0,1-.59.11.45.45,0,0,1-.18-.3,21.15,21.15,0,0,1,.19-5.45c.14-.9.33-1.79.54-2.68a26.32,26.32,0,0,1,.82-2.61c.33-.85.5-1.81.81-2.7a5.54,5.54,0,0,1,.6-1.25,4.94,4.94,0,0,1,.95-1,8.22,8.22,0,0,1,6.13-1.7.65.65,0,0,1,.57.52Z"/><path class="d" d="M71.42,280.55c-2.65,0-4.31-.12-4.38-.12l-4.39-.32.74-4.34c.21-1.23,5.29-30.3,19.24-40.08,5.55-3.9,11.36-6,16.78-6a20.13,20.13,0,0,1,15.84,7.64c3.23,3.95,4.45,9.39,3.45,15.3A30.26,30.26,0,0,1,104.64,273C93.89,279.56,79.21,280.55,71.42,280.55Z"/><path class="b" d="M99.41,233.73a16.05,16.05,0,0,1,12.74,6.16c6.26,7.68,2,22.51-9.6,29.66-10,6.17-24.24,7-31.14,7-2.53,0-4.08-.11-4.08-.11S72.18,247.9,84.93,239c5-3.53,10-5.23,14.48-5.23m0-8h0c-6.25,0-12.85,2.31-19.08,6.68C65.29,243,60,271.84,59.44,275.1L58,283.78l8.78.64c.19,0,1.92.13,4.66.13,8.22,0,23.74-1.06,35.33-8.19a34.34,34.34,0,0,0,15.9-23c1.2-7.07-.32-13.64-4.29-18.5a24.09,24.09,0,0,0-18.94-9.11Z"/><path class="d" d="M101,244.28C90.24,249.58,85.7,256.9,85.7,256.9"/><path class="b" d="M101.2,244.64a12,12,0,0,1-1,3.28,9.68,9.68,0,0,1-1.39,2.19,4,4,0,0,1-1.92,1.25,13.73,13.73,0,0,0-2.29.78c-.7.36-1.41.72-2.12,1.11s-1.45.75-2.15,1.17A48.2,48.2,0,0,0,86,257.11l0,0a.43.43,0,0,1-.59-.11.41.41,0,0,1-.06-.34,21.59,21.59,0,0,1,2.08-5c.45-.79.94-1.56,1.45-2.32s1.09-1.46,1.68-2.16,1.1-1.52,1.7-2.24a5.67,5.67,0,0,1,1-1,5.08,5.08,0,0,1,1.24-.6,8.22,8.22,0,0,1,6.34.56.66.66,0,0,1,.36.69Z"/><path class="c" d="M439.87,576.91,431,585.53,428.27,582a22.58,22.58,0,0,1-3.8-15.77,25.76,25.76,0,0,1,4.27-11l-1,0c-17.38,0-25.47-14.49-25.8-15.11L400,536.61l12.76-6.94-12.52-8.27,4.31-3.43A31.13,31.13,0,0,1,422.63,512a29.45,29.45,0,0,1,10.05,1.78c-5.48-22.76,6.52-31.95,7.1-32.37l3.37-2.49,9.19,13.78,8.68-14,3.57,3.54c.41.41,7.62,7.84,5.82,23,10.32-9,18.66-9.62,20.72-9.62h.51l4.7.39-1.09,4.58L494,505.82l11.31-2.22-.37,5.22c-.45,6.29-4.32,17.72-15.11,25.14a22.74,22.74,0,0,1,7.06,5c8,8.28,7.63,20.35,7.61,20.86l-.17,4.53-16.63-2.71,1.68,12.71-4.78-.22c-.53,0-10-.59-19.82-9.75-.33,14.66-9.37,21.91-15.49,23.89l-3.3,1.06Z"/><path class="b" d="M442.15,484.66l10.31,15.45,9.31-14.95s11.76,11.7-1,37.66c14.74-22.29,28.44-23.12,30.41-23.12h.24L488.54,511l12.37-2.44s-1.5,20.92-24.09,27h.57c24,0,23.07,24.15,23.07,24.15L483,556.81l1.76,13.31s-15.13-.7-26.37-20.39c9,28.45-10.36,34.71-10.36,34.71l-7-14.23-9.59,9.31s-11.58-15.08,9.57-31.28a33.41,33.41,0,0,1-13.27,3c-15.2,0-22.29-13-22.29-13L420.54,530l-13.48-8.91A27.07,27.07,0,0,1,422.63,516c5,0,10.84,1.5,17,6.13-11.06-27.46,2.56-37.5,2.56-37.5m18.13-12.26L455,480.93l-2.74,4.41-3.42-5.12-4.65-7-6.75,5c-.91.66-5.57,4.4-8.26,12.31a39.57,39.57,0,0,0-1.53,17.88,33.23,33.23,0,0,0-5-.38,34.89,34.89,0,0,0-20.55,6.81l-8.62,6.87,9.19,6.07,2.37,1.56-3.39,1.85-7,3.82,3.83,7c.35.64,7.9,14.16,23.9,16.76a28.26,28.26,0,0,0-1.81,6.86,26.49,26.49,0,0,0,4.58,18.74l5.48,7.13,6.44-6.27,1.69-1.64,2.14,4.35,3.05,6.21,6.59-2.13a27,27,0,0,0,12.58-9.6,29,29,0,0,0,4.78-10.55,43,43,0,0,0,4.31,2.54,31.85,31.85,0,0,0,12.23,3.67l9.55.44-1.25-9.48-.35-2.63,6.85,1.11,8.94,1.46.34-9.06c.05-1.45.26-14.46-8.73-23.79a26.61,26.61,0,0,0-3-2.64,39.84,39.84,0,0,0,12.13-24.42l.74-10.44-10.25,2,2-8.12-9.51-.84s-.27,0-.78,0c-2.55,0-8.74.6-16.57,5.49a35.55,35.55,0,0,0-.7-4.64c-1.75-8.07-5.68-12.3-6.45-13.07l-7.13-7.08Z"/><path class="c" d="M455.48,544.27c-5,0-9-3-9.88-7.22a8.8,8.8,0,0,1,2-7.46,11.73,11.73,0,0,1,6.61-3.81,12.49,12.49,0,0,1,2.5-.26c4.95,0,9,3,9.89,7.22a8.8,8.8,0,0,1-2.05,7.46A11.7,11.7,0,0,1,458,544,12.41,12.41,0,0,1,455.48,544.27Z"/><path class="b" d="M456.75,529.52c3,0,5.48,1.61,6,4,.59,2.87-1.89,5.81-5.54,6.55a8.26,8.26,0,0,1-1.7.18c-3,0-5.47-1.61-6-4-.58-2.87,1.9-5.81,5.54-6.55a8.4,8.4,0,0,1,1.7-.18m0-8h0a16.73,16.73,0,0,0-3.3.34c-8,1.63-13.24,8.8-11.77,16,1.25,6.13,6.93,10.42,13.8,10.42a16.9,16.9,0,0,0,3.31-.34,15.75,15.75,0,0,0,8.86-5.15,12.81,12.81,0,0,0,2.91-10.84c-1.26-6.13-6.93-10.42-13.81-10.42Z"/><path class="c" d="M455.05,529.7c-2.63-5.12-2.15-17-2.15-17"/><path class="b" d="M451.5,531.53a16.82,16.82,0,0,1-.69-5.34,39.17,39.17,0,0,1,.34-4.68,71.51,71.51,0,0,1,1.75-8.81,67.42,67.42,0,0,0,2.24,8.44,31.07,31.07,0,0,0,1.55,3.86,9.58,9.58,0,0,0,1.92,2.87Z"/><path class="c" d="M461.79,531.63c5.07-5.65,15-9.17,15-9.17"/><path class="b" d="M458.81,529a30.43,30.43,0,0,1,9-4.45,54,54,0,0,1,9-2,51.81,51.81,0,0,0-7,5.5,36.54,36.54,0,0,0-2.91,3.1,20.13,20.13,0,0,0-2.12,3.24Z"/><path class="c" d="M462.29,536.49c8.92,2.77,11.72,8.42,11.72,8.42"/><path class="b" d="M463.48,532.67c.61.39,1.22.76,1.81,1.16s1.17.82,1.71,1.28a26.24,26.24,0,0,1,3.06,2.89,21.75,21.75,0,0,1,2.41,3.3,14.08,14.08,0,0,1,1.54,3.61,13,13,0,0,0-3-2.2,19,19,0,0,0-3.25-1.42,20.73,20.73,0,0,0-3.35-.75c-.54-.1-1.13-.12-1.67-.18s-1.12,0-1.67-.05Z"/><path class="c" d="M452.21,539.53c-3.81,5-4.78,14.72-4.78,14.72"/><path class="b" d="M455.4,542a11.49,11.49,0,0,0-2.37,2.18,26.76,26.76,0,0,0-2.14,3,44.37,44.37,0,0,0-3.46,7.09,46.42,46.42,0,0,1-.38-8.21,30.07,30.07,0,0,1,.49-4.33,19.19,19.19,0,0,1,1.49-4.6Z"/><path class="c" d="M449.56,534.39c-7.8-4.44-17.57-2.81-17.57-2.81"/><path class="b" d="M447.58,537.86a18.43,18.43,0,0,0-3.08-2.4,22.9,22.9,0,0,0-3.78-1.86,31.09,31.09,0,0,0-8.73-2,33.38,33.38,0,0,1,9.3-1.94,26.59,26.59,0,0,1,5,.11,24.94,24.94,0,0,1,5.21,1.16Z"/><path class="d" d="M420.1,663c-.56-1.12-13.58-27.6-8.08-43.73,4-11.64,12.13-18.59,21.84-18.59a21.81,21.81,0,0,1,5.5.72c4.93,1.3,9.13,5,11.8,10.34a30.26,30.26,0,0,1,.61,24.66c-6.54,15.93-25.18,27.71-26,28.21L422.06,667Z"/><path class="b" d="M433.86,604.7a17.58,17.58,0,0,1,4.48.59c9.58,2.51,14.9,17,9.72,29.62-6.12,14.91-24.38,26.32-24.38,26.32s-12.9-25.91-7.88-40.65c3.53-10.35,10.3-15.88,18.06-15.88m0-8h0c-11.5,0-21.08,8-25.63,21.3-5.93,17.39,6.81,43.84,8.29,46.8l3.92,7.89,7.48-4.67c.83-.52,20.53-13,27.55-30.08a34.37,34.37,0,0,0-.73-28c-3.2-6.42-8.3-10.83-14.37-12.42a26.1,26.1,0,0,0-6.51-.85Z"/><path class="d" d="M431.94,615.39C426.36,626,427,634.62,427,634.62"/><path class="b" d="M432.29,615.58a12.16,12.16,0,0,1,1.12,3.24,9.9,9.9,0,0,1,.17,2.6,4,4,0,0,1-.81,2.13,14.8,14.8,0,0,0-1.4,2c-.35.71-.71,1.42-1.05,2.15s-.73,1.46-1.05,2.21a47.91,47.91,0,0,0-1.87,4.7l0,0a.42.42,0,0,1-.78,0,21.27,21.27,0,0,1-1.29-5.3c-.11-.91-.17-1.82-.2-2.73s0-1.82.08-2.74,0-1.87.06-2.81a5.7,5.7,0,0,1,.24-1.37,5.24,5.24,0,0,1,.65-1.21,8.18,8.18,0,0,1,5.44-3.28.66.66,0,0,1,.7.34Z"/><path class="a" d="M467.76,825.82c-.52-.22-9.91-4.25-16.39-17.22-5.32,14.32-16.52,18.61-23.73,18.61h-.25l-3.43-.14-.41-3.42-1.25-11.22-12,5.43L409,813.58a23.66,23.66,0,0,1,1.87-16.91,27.21,27.21,0,0,1,8.52-9.61,31.59,31.59,0,0,1-21.61-24.61l-.61-4,15.36-2.36-9.55-12.8,5.22-1.77a30.51,30.51,0,0,1,9.14-1.3,31,31,0,0,1,20.5,7.48c2.55-24.88,17.84-29.74,18.57-30l4-1.19,4.24,17.15,13.72-10.84,2.15,4.54c.27.57,4.85,10.71-2.72,25.37a44.36,44.36,0,0,1,16.59-3.55,22.28,22.28,0,0,1,8.42,1.36l4.39,1.93-6,9,12.13,1.85-2.12,4.79c-.32.72-7,15.44-24.29,19.66a24.11,24.11,0,0,1,5.38,7.49c5.07,11.08.37,23,.17,23.53l-1.69,4.2-15.65-8.69-2.91,13.3Z"/><path class="b" d="M457.5,721.63l4.73,19.11,14.65-11.57s7.53,15.89-14.57,37.17c14.58-10.87,25.54-13.07,32.05-13.07a18.5,18.5,0,0,1,6.81,1l-6.87,10.21,13.21,2a33.47,33.47,0,0,1-30.24,18.4c-1.12,0-2.27,0-3.47-.15,24.62,8.43,14.91,32.55,14.91,32.55l-16.4-9.1-3,13.89s-14.83-6.13-19-29.79c-1.16,30.22-20.95,30.88-22.68,30.88h-.11l-1.86-16.7-12.91,5.85s-6.12-19.2,20.78-27.75c-1,.06-1.88.09-2.77.09-25.56,0-29.09-22.86-29.09-22.86l18-2.76-10.24-13.72a26.81,26.81,0,0,1,7.86-1.09c6.8,0,16.71,2.33,24.2,13.83-1.18-31.35,16-36.47,16-36.47m5.76-10.06-8,2.39c-1.12.33-7,2.34-12.42,9.15a41.89,41.89,0,0,0-8,17.72,36.24,36.24,0,0,0-27.95-3.05l-10.43,3.54,6.59,8.83,2.28,3-4.83.75-7.92,1.21,1.22,7.91a37.5,37.5,0,0,0,6.36,14.86,34.21,34.21,0,0,0,11.74,10.38,29.86,29.86,0,0,0-4.61,6.53,27.51,27.51,0,0,0-2.12,20l2.73,8.57,8.19-3.71,2.88-1.3.63,5.75.76,6.8,6.93.31h.38c7.06,0,17.44-3.44,24.14-14.25,6.6,9.19,14,12.35,14.45,12.55l8.83,3.66,2-9.35.74-3.37,7,3.88,7.92,4.4,3.38-8.41c.58-1.42,5.43-14.27-.25-26.68a28.07,28.07,0,0,0-2.15-3.88,42.08,42.08,0,0,0,21.09-20l4.24-9.57-10.35-1.58-.72-.11,5.17-7.7L504.38,747a25.78,25.78,0,0,0-10-1.7,43,43,0,0,0-9.73,1.18,38.63,38.63,0,0,0,1.18-5.63c1.13-8.54-1.22-14.06-1.7-15.08l-4.3-9.08-7.89,6.23L467,726.76l-1.74-7-2-8.14Z"/><path class="b" d="M452.89,771.07a9.47,9.47,0,0,1,1.3.09c3.91.57,6.71,3.52,6.27,6.59-.4,2.73-3.22,4.63-6.58,4.63a9.69,9.69,0,0,1-1.3-.09c-3.9-.57-6.7-3.51-6.26-6.59.4-2.72,3.22-4.63,6.57-4.63m0-8h0c-7.43,0-13.52,4.83-14.49,11.49-1.07,7.43,4.77,14.45,13,15.65a18.19,18.19,0,0,0,2.44.17c7.44,0,13.53-4.83,14.49-11.48a13.07,13.07,0,0,0-3.62-10.9,16.16,16.16,0,0,0-9.41-4.76,18.23,18.23,0,0,0-2.45-.17Z"/><path class="b" d="M450.23,771.68a18.33,18.33,0,0,1,1.17-5.51,39.77,39.77,0,0,1,2-4.54,76.68,76.68,0,0,1,4.79-8.19,74.49,74.49,0,0,0-.92,9.19,33.74,33.74,0,0,0,.11,4.41,10.57,10.57,0,0,0,.82,3.61Z"/><path class="b" d="M458.32,772a31.89,31.89,0,0,1,10.45-1.31,57.26,57.26,0,0,1,9.71,1.08,55.78,55.78,0,0,0-9,2.86,36.12,36.12,0,0,0-4,2,20.54,20.54,0,0,0-3.34,2.43Z"/><path class="b" d="M461.38,777.34c.48.6.95,1.17,1.4,1.78s.88,1.21,1.26,1.86a28,28,0,0,1,2,3.91,23.18,23.18,0,0,1,1.25,4.12,14.8,14.8,0,0,1,.3,4.12,14.06,14.06,0,0,0-2.11-3.28,19.53,19.53,0,0,0-2.69-2.62,21.89,21.89,0,0,0-3-2c-.51-.31-1.08-.55-1.59-.81s-1.11-.46-1.64-.69Z"/><path class="b" d="M450,783.3a12.67,12.67,0,0,0-3.14,1.4,27.67,27.67,0,0,0-3.2,2.31,46.9,46.9,0,0,0-5.89,5.9,50.21,50.21,0,0,1,2.66-8.26,33.41,33.41,0,0,1,2.08-4.08,20.67,20.67,0,0,1,3.13-4Z"/><path class="b" d="M444,776.46a19.6,19.6,0,0,0-2.28-3.48,24.23,24.23,0,0,0-3.15-3.18,33.68,33.68,0,0,0-8-5,35.67,35.67,0,0,1,9.91,1.5,29.49,29.49,0,0,1,4.92,2,26.54,26.54,0,0,1,4.71,3Z"/><path class="b" d="M205.77,806.11a45.25,45.25,0,0,1,10,2.07,65.3,65.3,0,0,1,8.74,3.51,69.21,69.21,0,0,1,7.83,4.54l1.86,1.24,1.77,1.34,1.77,1.34,1.69,1.44-5.85-2.82c1.19.19,2.4.33,3.59.55l3.57.67c2.39.4,4.74,1,7.11,1.52s4.71,1.21,7.06,1.84,4.68,1.39,7,2.24a119.26,119.26,0,0,1,13.79,5.64c1.14.54,2.26,1.14,3.4,1.71s2.25,1.21,3.37,1.88a61.52,61.52,0,0,1,6.63,4.37l.25.18a.62.62,0,0,1,.12.86.61.61,0,0,1-.58.24l-14.39-2.07-14.37-2.21-14.34-2.31c-4.78-.79-9.57-1.53-14.34-2.36l-.38-.07-.27-.24c-4.36-4-8.77-7.91-13.08-12l-6.47-6-6.39-6.14a.58.58,0,0,1,.44-1Z"/><path class="a" d="M317,887.65,309,897.71l-3.17-3.58c-.35-.39-6.52-7.55-6.83-21-6.51,6.06-13.07,7.64-18.13,7.64h0a22.18,22.18,0,0,1-9.79-2.15L268,877.05l4.64-13-12.35-.35.64-4.45c.83-5.68,6-15.75,19.54-18.3a29.92,29.92,0,0,1-7.91-29.74l1.19-3.83,13.87,4.31L284.85,797l5.46.7a30.57,30.57,0,0,1,11.61,4.53,29.37,29.37,0,0,1,11,12.73,42.27,42.27,0,0,1,12.48-13.22,25.4,25.4,0,0,1,13.69-4.41,13.15,13.15,0,0,1,2,.13l4.14.69-3.48,16.19,16.06-3.5-.06,5c0,.59-.31,10.93-12.41,20.2,15,1.21,21,7.72,21.68,8.53l3.1,3.65-8.74,5.06,9.49,6.56-4,3.37a35.92,35.92,0,0,1-21.7,7.44h0a34.18,34.18,0,0,1-6.83-.69,23,23,0,0,1,1.34,8.3c-.29,11.59-9.28,19.84-9.66,20.19l-3.36,3Z"/><path class="b" d="M339.06,801.28a9,9,0,0,1,1.34.08l-3.9,18.16,17.21-3.75s-.18,16.59-27.72,25.5a78,78,0,0,1,14.39-1.45c17.33,0,23.55,7.31,23.55,7.31L353.88,853l10.37,7.16a32,32,0,0,1-19.13,6.5,32.91,32.91,0,0,1-17-5c17.39,17.33-.82,33.78-.82,33.78l-10.14-14.51-8.32,10.54s-10-11.33-3.77-33.11c-8.17,15.25-17.65,18.45-24.19,18.45a18.36,18.36,0,0,1-7.91-1.68l5.33-14.94-13.37-.37s2.26-15.48,22.32-15.48a46.89,46.89,0,0,1,6.78.53c-24.53-10.16-17.61-32.49-17.61-32.49l16.41,5.1-3-15.88s19.24,2.45,21.93,24.06c9.94-22.48,23.14-24.39,27.33-24.39m-59.17-9,2.05,10.82.53,2.79-3.69-1.15-7.64-2.37L268.77,810a35.86,35.86,0,0,0-.6,16.34,32.63,32.63,0,0,0,5.25,12.5c-11.06,4.51-15.58,14.06-16.41,19.81l-1.3,8.9,9,.25,2.35.07-1.63,4.56L263.1,879l6.11,3.24a26.24,26.24,0,0,0,11.66,2.61,28.79,28.79,0,0,0,14.9-4.17,42.28,42.28,0,0,0,1.19,4.81,31.69,31.69,0,0,0,5.89,11.32l6.34,7.16,5.92-7.51,1.65-2.08,4,5.69,5.2,7.42,6.72-6.07c1.09-1,10.66-10,11-23.06a26,26,0,0,0-.17-3.75c.55,0,1.11,0,1.67,0a39.62,39.62,0,0,0,24.28-8.38l8-6.74-8.6-6,7.43-4.3L370,842a24.35,24.35,0,0,0-7.84-5.65,39.87,39.87,0,0,0-8.19-2.94,39.23,39.23,0,0,0,2.86-3.76c4.56-6.88,4.85-12.66,4.86-13.74l.12-10.05L352,808l-5.08,1.11,1.29-6,1.76-8.2-8.28-1.37a16.29,16.29,0,0,0-2.64-.19c-5,0-15.82,1.66-25.83,14.21a33.39,33.39,0,0,0-9.14-8.68,34.43,34.43,0,0,0-13.28-5.13l-10.92-1.39Z"/><path class="a" d="M315.5,856.2a11.88,11.88,0,0,1-6.61-2.11,11.65,11.65,0,0,1-4.63-6.06,8.57,8.57,0,0,1,8.48-11.43,12,12,0,0,1,6.61,2.1,11.67,11.67,0,0,1,4.63,6.07,8.57,8.57,0,0,1-8.48,11.43Z"/><path class="b" d="M312.74,840.6A7.8,7.8,0,0,1,317.1,842c3.08,2.1,4.24,5.76,2.59,8.18a4.91,4.91,0,0,1-4.19,2,7.81,7.81,0,0,1-4.36-1.42c-3.08-2.09-4.24-5.75-2.59-8.17a4.91,4.91,0,0,1,4.19-2m0-8h0a12.8,12.8,0,0,0-10.81,5.51c-4.12,6.06-2,14.72,4.71,19.29a15.73,15.73,0,0,0,8.86,2.8,12.8,12.8,0,0,0,10.81-5.51c4.12-6.07,2-14.72-4.7-19.29a15.76,15.76,0,0,0-8.87-2.8Z"/><path class="a" d="M317.1,842c1.84-5.45,10.69-13.4,10.69-13.4"/><path class="b" d="M313.31,840.74a16.86,16.86,0,0,1,3.35-4.21,35.57,35.57,0,0,1,3.6-3,72.26,72.26,0,0,1,7.53-4.9,69,69,0,0,0-4.49,7.49,30.75,30.75,0,0,0-1.68,3.81,9.34,9.34,0,0,0-.72,3.38Z"/><path class="a" d="M320.42,848.18c7.58-.3,17,4.38,17,4.38"/><path class="b" d="M320.26,844.19a30.09,30.09,0,0,1,9.45,3.33,53.73,53.73,0,0,1,7.75,5,52.09,52.09,0,0,0-8.84-1.19,35.18,35.18,0,0,0-4.25.07,19.14,19.14,0,0,0-3.79.74Z"/><path class="a" d="M317.28,851.93c4.24,8.33,2.13,14.27,2.13,14.27"/><path class="b" d="M320.85,850.12c.15.71.3,1.41.43,2.11s.23,1.41.27,2.12a25.69,25.69,0,0,1,.07,4.2,22,22,0,0,1-.69,4,13.72,13.72,0,0,1-1.52,3.62,13,13,0,0,0-.48-3.66,18.25,18.25,0,0,0-1.26-3.31,20.11,20.11,0,0,0-1.79-2.93c-.31-.46-.7-.89-1-1.32s-.76-.83-1.12-1.23Z"/><path class="a" d="M308.07,846.83c-6.25.77-13.88,6.84-13.88,6.84"/><path class="b" d="M308.56,850.8a11.35,11.35,0,0,0-3.21-.17,26,26,0,0,0-3.67.57,44.35,44.35,0,0,0-7.49,2.47,45.87,45.87,0,0,1,5.62-6,30.14,30.14,0,0,1,3.44-2.66,19.3,19.3,0,0,1,4.34-2.15Z"/><path class="a" d="M309.91,841.34c-2.25-8.68-10.23-14.55-10.23-14.55"/><path class="b" d="M306,842.35a17.6,17.6,0,0,0-.43-3.88,22,22,0,0,0-1.29-4,31.6,31.6,0,0,0-4.64-7.67,33.53,33.53,0,0,1,7.87,5.31,28.71,28.71,0,0,1,3.43,3.68,25.54,25.54,0,0,1,2.8,4.55Z"/><path class="d" d="M229,925.79l2.57-5.65c4.38-9.64,13.52-26.58,25.57-31.73a32.6,32.6,0,0,1,12.8-2.86,20.42,20.42,0,0,1,18.77,11.22c4.46,8.65.37,20.78-9.53,28.22l-1.07.8Z"/><path class="b" d="M269.92,889.55c6.79,0,12.2,3.21,15.21,9.05,3.62,7-.2,17-8.37,23.19H235.19c3.37-7.4,12.3-24.92,23.5-29.71a28.85,28.85,0,0,1,11.23-2.53m0-8a36.7,36.7,0,0,0-14.38,3.18c-13.28,5.68-23,23.59-27.63,33.75l-5.14,11.31h56.66l2.14-1.6c11.43-8.6,16-22.89,10.67-33.26a24.31,24.31,0,0,0-22.32-13.38Z"/><path class="c" d="M390.61,893c-.64-.36-12.64-7.27-18.56-26.15-8.89,20.1-24.88,22-30.43,22a18.79,18.79,0,0,1-2.75-.17l-3.42-.51.11-19.4L319.3,874l-.86-4.41a29,29,0,0,1,4.71-20.32,34.73,34.73,0,0,1,13.94-11.66,39,39,0,0,1-25.26-34.31l-.15-4,20.57-.74L321.88,780.6l5.39-1.15a33,33,0,0,1,6.49-.56A38.93,38.93,0,0,1,364.31,793c6.31-32.42,26.61-36.36,27.56-36.52l4.13-.72,2.9,22.92,19.28-11.87,1.61,4.76c.25.77,4.81,15.12-8.91,33.33a62.84,62.84,0,0,1,19-3.17c9.58,0,14.68,2.81,15.23,3.14l4.13,2.41L440,818.06l15.4,4.23-2.67,4.5c-.48.82-11.57,19.13-35,21a29.88,29.88,0,0,1,6.94,11.54c4.64,14.35-2.87,28.38-3.19,29l-2.17,4L400.5,878.77l-5.71,16.6Z"/><path class="b" d="M392.56,760.42l3.15,24.92L416,772.85s7.18,21.27-24,44.95c16.67-9.63,29.31-12.07,37.84-12.07,8.78,0,13.21,2.59,13.21,2.59l-10.23,11.92,16.44,4.52S438,843.92,413.8,843.92a50.63,50.63,0,0,1-10-1c29.95,14.33,14.07,43.48,14.07,43.48l-19.44-14-5.9,17.17S374.68,879.57,373,849c-5.16,33-24.77,35.88-31.33,35.88a16,16,0,0,1-2.15-.12l.13-21.44-17.23,5.49s-4.92-25.25,30.45-32.09c-35.84-2-37-33.59-37-33.59l23.21-.83L328.1,783.36a30,30,0,0,1,5.66-.47c8.31,0,23.83,2.73,33.08,21.37,3.17-39.91,25.72-43.84,25.72-43.84m6.88-9.33-8.26,1.45c-1,.17-20.75,4-29.07,32.56a42,42,0,0,0-8.61-5.68,44.69,44.69,0,0,0-19.74-4.53,38.23,38.23,0,0,0-7.33.64l-10.77,2.3,5.52,9.54,4.27,7.38-9.91.36-8,.28.29,8a45.64,45.64,0,0,0,6.15,19.8A41.34,41.34,0,0,0,328.62,838a36.11,36.11,0,0,0-8.79,9,32.76,32.76,0,0,0-5.31,23.33l1.71,8.82,8.57-2.73,6.73-2.15-.06,10.43,0,6.92,6.84,1a23.53,23.53,0,0,0,3.35.21,35,35,0,0,0,21-7.18,39.47,39.47,0,0,0,8.82-9.41c6.84,14.32,16.59,19.94,17.19,20.27l8.36,4.66,3.11-9,2.4-7,10.69,7.7,7.36,5.29,4.34-7.95c.35-.66,8.65-16.16,3.49-32.12A33.93,33.93,0,0,0,425,850.7a51.11,51.11,0,0,0,31.16-21.87l5.32-9L451.39,817l-4.27-1.17,2-2.34,6.24-7.28-8.28-4.84c-1-.61-6.82-3.68-17.24-3.68a60.15,60.15,0,0,0-10.36.93c8.1-15.8,4.33-27.64,4.09-28.37l-3.22-9.52L411.8,766l-9.71,6-1.59-12.61-1.06-8.32Z"/><path class="b" d="M378.08,822.32a11.58,11.58,0,0,1,2.93.39c4.86,1.3,8,5.45,6.95,9.28-.81,3-4,5-7.73,5a11.5,11.5,0,0,1-2.92-.39c-4.86-1.3-8-5.45-7-9.28.81-3,4-5,7.73-5m0-8h0c-7.51,0-13.72,4.39-15.46,10.92a14.51,14.51,0,0,0,2.6,12.45,18.49,18.49,0,0,0,10,6.62,19.19,19.19,0,0,0,5,.66c7.51,0,13.72-4.39,15.46-10.92a14.45,14.45,0,0,0-2.6-12.45,18.47,18.47,0,0,0-10-6.62,19.71,19.71,0,0,0-5-.66Z"/><path class="b" d="M377,822.76a23.39,23.39,0,0,1,2-6.57,50.82,50.82,0,0,1,2.88-5.49,97,97,0,0,1,6.77-9.86,95.14,95.14,0,0,0-3,11.31,44.57,44.57,0,0,0-.81,5.59,16.19,16.19,0,0,0,.2,4.92Z"/><path class="b" d="M386.52,825.39a41,41,0,0,1,13.07-.58,74,74,0,0,1,12.11,2.26,72,72,0,0,0-11.85,1.73,52.47,52.47,0,0,0-5.54,1.66,28.77,28.77,0,0,0-4.85,2.37Z"/><path class="b" d="M388.43,832.41c.53.78,1.06,1.53,1.56,2.31s1,1.58,1.38,2.41a34.58,34.58,0,0,1,2.17,5,29.42,29.42,0,0,1,1.21,5.22,19.2,19.2,0,0,1,0,5.19,18.34,18.34,0,0,0-1.92-4.57,26.86,26.86,0,0,0-2.81-3.9,29.58,29.58,0,0,0-3.38-3.25c-.58-.5-1.24-.93-1.84-1.4s-1.29-.84-1.92-1.25Z"/><path class="b" d="M373.41,836.49a18.49,18.49,0,0,0-4.23,1.66,35.88,35.88,0,0,0-4.27,2.71,61.9,61.9,0,0,0-8,7,63.79,63.79,0,0,1,5-9.7,43.09,43.09,0,0,1,3.36-4.6,25.88,25.88,0,0,1,4.52-4.22Z"/><path class="b" d="M368.2,827.3a26.26,26.26,0,0,0-2.71-4.73,33.44,33.44,0,0,0-3.78-4.36,44,44,0,0,0-4.57-3.87,42.26,42.26,0,0,0-5.18-3.26,43.77,43.77,0,0,1,6.08,1.48,46.68,46.68,0,0,1,5.94,2.35,38.34,38.34,0,0,1,5.69,3.35,34.08,34.08,0,0,1,5.17,4.58Z"/><path class="b" d="M273.44,901a12,12,0,0,1-1.66,3,10.12,10.12,0,0,1-1.81,1.87,4.14,4.14,0,0,1-2.14.82,13.69,13.69,0,0,0-2.4.29c-.76.21-1.53.42-2.3.65s-1.57.43-2.35.7a50.42,50.42,0,0,0-4.74,1.75l0,0a.42.42,0,0,1-.55-.23.44.44,0,0,1,0-.34,21.17,21.17,0,0,1,3.08-4.51c.6-.68,1.23-1.33,1.89-2s1.37-1.2,2.09-1.77,1.39-1.26,2.13-1.84a4.3,4.3,0,0,1,2.51-1.07,8.22,8.22,0,0,1,6.08,1.86.64.64,0,0,1,.21.74Z"/><path class="d" d="M481.53,904.66c-.93-.09-22.87-2.33-35.81-13.68a30.28,30.28,0,0,1-10.46-22.35c0-6,2.13-11.15,6-14.51A20.16,20.16,0,0,1,454.62,849c6.52,0,13.11,3.11,19.05,9,12.11,12,12.25,41.5,12.25,42.75v4.4Z"/><path class="b" d="M454.62,853c5.27,0,10.92,2.57,16.23,7.83,11.07,11,11.07,39.9,11.07,39.9S460.48,898.6,448.35,888c-10.26-9-11.94-24.32-4.49-30.84A16.13,16.13,0,0,1,454.62,853m0-8a24.09,24.09,0,0,0-16,6.16c-4.73,4.13-7.33,10.35-7.34,17.52A34.34,34.34,0,0,0,443.08,894c13.9,12.19,37.08,14.56,38.06,14.65l8.77.85v-8.81c0-3.31-.38-32.66-13.44-45.59-6.7-6.63-14.26-10.14-21.86-10.14Z"/><path class="d" d="M454.1,863.32c9.74,7,13,15,13,15"/><path class="b" d="M454.33,863a8.17,8.17,0,0,1,6.34.51,5,5,0,0,1,1.12.8,5.07,5.07,0,0,1,.82,1.11c.48.81.82,1.73,1.31,2.49s.9,1.59,1.29,2.41.73,1.68,1,2.54a21.39,21.39,0,0,1,1.2,5.32.42.42,0,0,1-.39.45.45.45,0,0,1-.32-.12l0,0a49,49,0,0,0-3.77-3.37c-.62-.53-1.27-1-1.92-1.51s-1.27-1-1.9-1.45A14.56,14.56,0,0,0,457,871a4,4,0,0,1-1.68-1.54,9.41,9.41,0,0,1-1-2.4,11.83,11.83,0,0,1-.45-3.41v0A.64.64,0,0,1,454.33,863Z"/><path class="d" d="M49.09,839.36c-2.65,0-4.31-.12-4.38-.12l-4.39-.32.74-4.34c.21-1.24,5.29-30.3,19.24-40.09,5.55-3.89,11.36-6,16.78-6a20.15,20.15,0,0,1,15.84,7.63c3.23,4,4.45,9.39,3.45,15.31a30.29,30.29,0,0,1-14.06,20.28C71.56,838.37,56.88,839.36,49.09,839.36Z"/><path class="b" d="M77.08,792.54a16,16,0,0,1,12.74,6.16c6.26,7.67,2,22.51-9.6,29.65-10,6.18-24.24,7-31.14,7-2.53,0-4.08-.11-4.08-.11s4.85-28.54,17.6-37.48c5-3.53,10-5.23,14.48-5.23m0-8h0c-6.25,0-12.85,2.31-19.08,6.68-15,10.55-20.33,39.43-20.89,42.68l-1.47,8.69,8.78.64c.19,0,1.92.13,4.66.13,8.22,0,23.73-1.07,35.33-8.19a34.34,34.34,0,0,0,15.9-23c1.2-7.07-.33-13.64-4.29-18.5a24.06,24.06,0,0,0-18.94-9.11Z"/><path class="d" d="M78.69,803.09c-10.78,5.3-15.32,12.61-15.32,12.61"/><path class="b" d="M78.87,803.44a11.81,11.81,0,0,1-1,3.28,9.54,9.54,0,0,1-1.39,2.2,3.91,3.91,0,0,1-1.92,1.24,13.76,13.76,0,0,0-2.29.79c-.7.36-1.41.72-2.12,1.11s-1.45.74-2.15,1.16c-1.44.8-2.87,1.71-4.28,2.69l0,0a.43.43,0,0,1-.59-.11.42.42,0,0,1-.06-.34,21.59,21.59,0,0,1,2.08-5c.45-.79.94-1.56,1.45-2.33s1.09-1.45,1.68-2.15,1.1-1.52,1.7-2.25a5.28,5.28,0,0,1,1-1,5.08,5.08,0,0,1,1.24-.6,8.18,8.18,0,0,1,6.34.56.63.63,0,0,1,.35.68Z"/><path class="c" d="M487.38,262.52c-2.94,0-5.7-2.08-8.95-6.75l-.21-.31-.16-.35c-5.41-12.21,0-25.43.23-26l1.46-3.49,3.56,1.26c.57.2,14,5.07,19.42,17.28l.16.35.08.37c1.23,5.32,1,8.67-.76,10.87a5.71,5.71,0,0,1-4.6,2.18,9.4,9.4,0,0,1-4-1.06,9.14,9.14,0,0,1-2.06,3.84,5.76,5.76,0,0,1-4.17,1.8Z"/><path class="b" d="M482,230.67s12.32,4.35,17.1,15.12c1.44,6.27.36,8.15-1.47,8.15-2.76,0-7.21-4.3-7.21-4.3s.28,8.88-3,8.88c-1.28,0-3.09-1.33-5.66-5-4.78-10.77.26-22.82.26-22.82m-4.46-10.07-2.92,7c-.65,1.56-6.2,15.62-.2,29.15l.31.7.44.63c2.74,3.94,6.61,8.46,12.23,8.46a9.78,9.78,0,0,0,7.05-3,11.45,11.45,0,0,0,1.35-1.74,10.33,10.33,0,0,0,1.83.17,9.8,9.8,0,0,0,7.74-3.69c3.31-4.16,2.55-9.81,1.52-14.26l-.17-.75-.31-.69c-6-13.54-20.15-18.87-21.75-19.43l-7.12-2.52Z"/><path class="a" d="M33.16,196.47c-1.5,0-4.47-.62-6.23-5.13a8.92,8.92,0,0,1-4.4,1.39h0a5.72,5.72,0,0,1-4.4-2c-1.79-2.08-2.24-5.34-1.47-10.6l.06-.38.12-.36c4.41-12.6,17.41-18.53,18-18.78l3.45-1.54L40,162.42c.28.54,6.74,13.29,2.33,25.89l-.13.36L42,189C40,192.48,37.14,196.47,33.16,196.47Z"/><path class="b" d="M36.44,164.26s6,11.61,2.1,22.73c-2.35,4-4.09,5.48-5.38,5.48-3.15,0-3.58-8.62-3.58-8.62s-4.3,4.88-7,4.88c-1.71,0-2.82-1.89-1.91-8,3.89-11.13,15.82-16.46,15.82-16.46m3.63-10.39L33.17,157c-1.54.69-15.21,7.14-20.1,21.11l-.26.72-.11.76c-.64,4.38-.95,9.91,2.41,13.8a9.66,9.66,0,0,0,7.42,3.38,10.52,10.52,0,0,0,2.66-.35,9.82,9.82,0,0,0,8,4.09c6.79,0,10.79-6.87,12.3-9.46l.38-.66.25-.72c4.89-14-1.77-27.54-2.54-29l-3.48-6.72Z"/><path class="a" d="M393.88,711.73a5.78,5.78,0,0,1-4.2-1.83,9.27,9.27,0,0,1-2-3.9,9.47,9.47,0,0,1-3.93,1h0a5.77,5.77,0,0,1-4.64-2.21c-1.74-2.23-1.94-5.59-.63-10.92l.09-.37.16-.34c5.57-12.14,19.07-16.82,19.65-17l3.58-1.22,1.41,3.51c.22.56,5.46,13.86-.12,26l-.16.35-.22.31C399.56,709.68,396.79,711.73,393.88,711.73Z"/><path class="b" d="M399.63,679.94s4.88,12.12,0,22.83c-2.61,3.64-4.44,5-5.71,5-3.32,0-2.92-8.93-2.92-8.93s-4.48,4.21-7.24,4.21c-1.85,0-2.93-1.89-1.39-8.17,4.92-10.71,17.3-14.9,17.3-14.9m4.6-10-7.16,2.43c-1.61.54-15.82,5.68-22,19.13l-.32.69-.18.74c-1.09,4.47-1.93,10.13,1.38,14.34a9.79,9.79,0,0,0,7.78,3.74,10.37,10.37,0,0,0,1.69-.15,10.41,10.41,0,0,0,1.38,1.81,9.77,9.77,0,0,0,7.09,3.06c5.56,0,9.44-4.44,12.21-8.3l.44-.62.32-.7c6.19-13.45.83-27.59.2-29.15l-2.82-7Z"/><path class="a" d="M332.91,484.48c-4,0-6.81-4-8.83-7.48l-.19-.33-.13-.37c-4.38-12.61,2.1-25.34,2.38-25.88l1.74-3.35,3.45,1.55c.55.25,13.54,6.21,17.92,18.82l.13.36.06.38c.76,5.25.3,8.52-1.5,10.59a5.7,5.7,0,0,1-4.39,2,9,9,0,0,1-4.41-1.39c-1.76,4.49-4.72,5.11-6.22,5.11Z"/><path class="b" d="M329.69,452.27s11.92,5.35,15.79,16.48c.89,6.13-.22,8-1.93,8-2.75,0-7-4.89-7-4.89s-.44,8.61-3.6,8.61c-1.28,0-3-1.44-5.37-5.49-3.87-11.13,2.15-22.72,2.15-22.72m-3.61-10.4-3.49,6.71c-.78,1.5-7.47,15.06-2.61,29l.25.72.39.66c1.5,2.59,5.49,9.48,12.29,9.48a10,10,0,0,0,7.95-4.06,11.08,11.08,0,0,0,2.69.34,9.65,9.65,0,0,0,7.42-3.37c3.36-3.88,3.06-9.41,2.42-13.79l-.11-.75-.25-.72c-4.86-14-18.52-20.47-20.06-21.16l-6.89-3.1Z"/><path class="a" d="M168,306.86c-4.15,0-6.84-4.26-8.72-8l-.18-.34-.1-.37c-3.67-12.84,3.52-25.18,3.83-25.7l1.93-3.26L168.1,271c.54.27,13.17,7,16.84,19.8l.1.36,0,.38c.46,5.19-.15,8.39-2,10.37a5.72,5.72,0,0,1-4.27,1.88,8.68,8.68,0,0,1-4.7-1.66c-1.19,2.6-3.09,4.77-6.15,4.77Z"/><path class="b" d="M166.26,274.51s11.6,6,14.83,17.35c.53,6-.61,7.89-2.25,7.89-2.74,0-6.88-5.28-6.88-5.28s-.9,8.39-4,8.39c-1.3,0-3-1.5-5.16-5.79-3.23-11.33,3.43-22.56,3.43-22.56m-3-10.59-3.86,6.51c-.86,1.45-8.31,14.61-4.24,28.84l.21.74.35.68c1.41,2.78,5.15,10.17,12.29,10.17a9.91,9.91,0,0,0,7.64-3.62,10.88,10.88,0,0,0,3.21.51,9.67,9.67,0,0,0,7.22-3.18c3.39-3.69,3.38-9.11,3-13.42l-.06-.76-.21-.73c-4.07-14.24-17.34-21.47-18.84-22.25l-6.71-3.49Z"/><path class="c" d="M154.12,521.75c-1.66,0-4.21-.71-6.14-4.47a8.42,8.42,0,0,1-4.87,1.85h0a5.72,5.72,0,0,1-4.17-1.79c-1.83-1.91-2.55-5.05-2.33-10.17v-.38l.09-.37c3.09-13,15.41-20.24,15.93-20.54l3.27-1.89,2.08,3.16c.33.51,8.07,12.52,5,25.51l-.09.37-.15.35C161,517.28,158.4,521.75,154.12,521.75Z"/><path class="b" d="M154.64,489.35s7.17,10.92,4.44,22.39c-2,4.46-3.65,6-5,6-3,0-4.28-8.21-4.28-8.21s-4,5.59-6.73,5.59c-1.59,0-2.76-1.87-2.51-7.78,2.73-11.47,14-18,14-18m2.55-10.71-6.55,3.78c-1.46.84-14.4,8.67-17.82,23.08l-.18.74,0,.76c-.18,4.24,0,9.56,3.44,13.11a9.7,9.7,0,0,0,7.06,3,10.46,10.46,0,0,0,3.66-.67,9.74,9.74,0,0,0,7.35,3.29c7.42,0,10.93-7.79,12.25-10.73l.32-.69.17-.75c3.43-14.4-4.6-27.21-5.53-28.62l-4.14-6.32Z"/><path class="a" d="M150.08,866.57c-1.66,0-4.2-.72-6.13-4.48a8.49,8.49,0,0,1-4.87,1.86h0a5.73,5.73,0,0,1-4.17-1.79c-1.84-1.91-2.56-5-2.34-10.17l0-.38.09-.37c3.08-13,15.4-20.24,15.92-20.54l3.28-1.89L154,832c.33.5,8.07,12.51,5,25.51l-.09.37-.16.35C156.94,862.09,154.37,866.57,150.08,866.57Z"/><path class="b" d="M150.61,834.16s7.16,10.93,4.44,22.39c-2,4.46-3.66,6-5,6-3,0-4.27-8.21-4.27-8.21s-4,5.59-6.73,5.59c-1.59,0-2.76-1.88-2.51-7.79,2.72-11.46,14-18,14-18m2.54-10.71-6.55,3.79c-1.46.84-14.39,8.67-17.81,23.07l-.18.75,0,.76c-.18,4.24,0,9.56,3.44,13.11a9.73,9.73,0,0,0,7.06,3,10.78,10.78,0,0,0,3.66-.67,9.72,9.72,0,0,0,7.34,3.29c7.42,0,10.94-7.8,12.26-10.73l.31-.7.18-.74c3.42-14.4-4.61-27.21-5.53-28.62l-4.15-6.33Z"/><path class="c" d="M357.34,740.07a5.74,5.74,0,0,1-4.33-2,9,9,0,0,1-1.89-4.22,10,10,0,0,1-3.49.74h0a5.81,5.81,0,0,1-4.84-2.38c-1.71-2.35-1.7-5.77,0-11.11l.11-.36.19-.34c6.45-11.69,20.26-15.38,20.84-15.53l3.66-.94,1.15,3.6c.19.57,4.43,14.22-2,25.91l-.18.33-.25.3C362.89,738.23,360.12,740.07,357.34,740.07Z"/><path class="b" d="M365,708.78s4,12.44-1.71,22.76c-2.77,3.32-4.64,4.53-5.92,4.53-3.48,0-2.4-9.12-2.4-9.12s-4.53,3.67-7.31,3.67c-2,0-3.07-1.87-1-8.26,5.69-10.31,18.34-13.58,18.34-13.58m5.32-9.64L363,701c-1.64.42-16.19,4.51-23.34,17.47l-.37.67-.24.72c-1.46,4.5-2.72,10.23.53,14.7a9.85,9.85,0,0,0,8.08,4c.3,0,.6,0,.9,0a10.78,10.78,0,0,0,1.49,2.18,9.71,9.71,0,0,0,7.32,3.31c5.22,0,9.19-4,12.06-7.41l.49-.59.37-.67c7.15-13,2.85-27.45,2.33-29.06l-2.3-7.2Z"/><path class="b" d="M334.72,247.28c-.13,2.49,0,3.74-.74,3.58a.78.78,0,0,1-.5-.47,16,16,0,0,0-2.93-4,15.58,15.58,0,0,0-5.39-3.53A31.43,31.43,0,0,0,322,247a33.63,33.63,0,0,1-3,4.28c-6.84,7.67-18.61,7.65-27.81,8.39l-1.88-.49c10.91-4.19,20.55-11.47,26.51-21.63-10.9-4-21.77-7.87-33.11-10.46-7.8,4.8-13.05,8-16.27,9.81-6,3.3-11.07,5.57-13.82,7-.58-.11-.95-.52-1.19-1.26a6.88,6.88,0,0,1-.21-2.55c0-.31.06-.76.12-1.37s.1-1.06.12-1.36c.07-1.22,0-2.87-.06-4.92s.06-3.36.09-4a24,24,0,0,1,.63-5.76,6.49,6.49,0,0,1,2.77-4c3.23-2,9-2.37,17-1,3.91-3.79,6.83-6.54,8.39-8.21a34.38,34.38,0,0,0,6.84-9.31,102.27,102.27,0,0,0-11.66,1.12c-4.94.64-8.17.79-10.06.5a6.36,6.36,0,0,1-4.55-3.19,9.54,9.54,0,0,1-1.66-5.15c0-1.65.86-3.81,2.93-6.49l.23.46a4.77,4.77,0,0,0,2.52,4.49c2.2-.65,6.69-1.51,14.67-2.49,8.84-1.09,14.73-1.5,16.56-1.23a39.25,39.25,0,0,1,12.14,3.63c.52,1.72.77,2.57,1.28,4.26-4.31,2.19-8.65,6.24-12.55,11.84-3.07,4.42-6.16,8.82-9.26,13.06a187.68,187.68,0,0,1,32.29,9.67c1.2-2.61,2.42-5.27,3.55-7.94a67.2,67.2,0,0,1,3.84-7.91,9.12,9.12,0,0,1,2-.5c.91.14,1.69,1,2.35,2.62a24.56,24.56,0,0,1,1.47,5.53,140.32,140.32,0,0,1,1.74,19.05C334.91,244.27,334.78,246.15,334.72,247.28Zm-68.51-23.39-2.45-.58a15.72,15.72,0,0,0-7.54.47c-2.54.89-3.14,2.31-3.22,4.08a16.19,16.19,0,0,0,.26,3.65,5.93,5.93,0,0,0,1.27,3.18C257.32,232,261.45,228.44,266.21,223.89ZM332,236.3a23.47,23.47,0,0,0-.55-5.75c-.36-1.91-.77-3.89-1.25-5.92-.67,2.17-1.59,5.42-2.89,9.66a33.55,33.55,0,0,1,4.65,2.86C332,236.81,332,236.64,332,236.3Z"/><path class="b" d="M318.35,381.91a13.41,13.41,0,0,1-2.3,5.64,15.72,15.72,0,0,1-4.53,4.46,13.29,13.29,0,0,1-4.32,1.6l-.72-.4a21.73,21.73,0,0,0,6.4-8.85c-2.35-3-6.58-5.34-13.06-7-4.49,9.44-10,14.7-16.8,16.19-1-.13-1.95-.28-2.83-.46a26.82,26.82,0,0,1-12.61-6.8c-5.46-5-8-7.61-8.12-7.71-2.94-3.35-4-6.23-3.61-8.69a5.23,5.23,0,0,1,3.38-4.18c3-1.25,8.23-1.81,16.13-1.68,6.27.11,16.35,2.15,17.61,1.3s2.39-9.39,3.64-14,3.39-8,6.27-10.34c3.43-2.74,8.91-4.64,14.33-6.05a14.88,14.88,0,0,0-8.89-4.64c-12-1.59-24.13,4.7-35.08,9.65a127,127,0,0,0-26.72,18.33c-3.61,3.35-6.17,5-7.68,4.91-1-1.59-.93-3.66-.48-6.37a39.2,39.2,0,0,1,4.29-12,95.24,95.24,0,0,1,7.46-11.59c1.72-2.51,3.36-5,4.81-7.35-8.3-1.7-10.37-4.7-10.66-9.66a4,4,0,0,1,.28-.32,25,25,0,0,0,8.1-1.87,57.82,57.82,0,0,1,11.3-3.05,44.28,44.28,0,0,0,4.31-14.54,19.4,19.4,0,0,0-.3-6.08,12.27,12.27,0,0,1,1.87.06,14,14,0,0,1,7.06,3.19,8.92,8.92,0,0,1,3.51,5.69c-1.41,3.35-2.82,6.61-4.23,9.74l7.21.52a13.18,13.18,0,0,1,6,2.57q2.73,2.06,2.77,4.39c-1.67,2.1-5.39,4.11-10.95,5.76-4.56,1.35-9.11,2.61-13.31,3.9-10.57,9.58-15.18,16.26-16.06,19.68a158.28,158.28,0,0,1,24.72-13c9.42-3.32,19.46-7.42,29.54-7.18a76.43,76.43,0,0,1,9.47.64c4.49.72,7.39,2,9,3.71,2.05,2.19,1.81,5,1.31,8.8-.47,2.08-1,3.08-1.79,2.95a20.6,20.6,0,0,1-2.06-.6,22,22,0,0,0-3-.76,13.29,13.29,0,0,0-8.3,1.57,9.34,9.34,0,0,0-5.18,7c-.3,1.84-.55,4.56-.77,8.14a80.36,80.36,0,0,1-.84,8.12c-.2,1.08-.43,2.11-.7,3.08,6,1.31,10.36,3,12.94,4.8C320.1,375.84,319,378.45,318.35,381.91Zm-32-8.34-1.33-.26a50.84,50.84,0,0,0-9.41-1.08c-4.83-.15-7.39.43-7.65,1.87-.41,2.23,3.23,4.39,11,6.51Q284.29,379.32,286.38,373.57Z"/><path class="b" d="M290.84,481.86a84.67,84.67,0,0,1-5.34,12.84,38.1,38.1,0,0,1-6.27,9.07c-3.12,3.21-8,5.75-16.08,7.05a88.26,88.26,0,0,1-23.65,0,81,81,0,0,1-18.24-4.56c-6.82-2.56-11-5.87-13.06-10s-1.59-8.17.1-12.48a95.32,95.32,0,0,1,5.45-12.07c.38-.67,2-3.1,5.05-7.34a33.92,33.92,0,0,0,4.45-7.86,16.44,16.44,0,0,0,.61-3.07,15.48,15.48,0,0,1,.57-3c.68-2,2.77-4.44,6.9-7.31,5.82-4.06,9.41-6.19,9.69-6.42a19.05,19.05,0,0,0-4.58-6.15l.89-.68a20.28,20.28,0,0,1,3,.48,32.48,32.48,0,0,1,11.24,5c3.82,2.66,5.9,5.63,6,8.45-1.37,2.1-4.12,3.12-8.1,3.08s-8-.27-11.32-.11A15.5,15.5,0,0,0,227.46,452c.82,6.67,1.14,11,.52,12.72s-2.45,4.74-5.34,8.81a47.73,47.73,0,0,0-5.71,9.76c-1.3,3.43-1.9,6.06-1.75,7.95.25,3.11,2.29,5.37,6.62,6.95,1.78.65,5.18,1.25,10.39,1.78,4.53.46,8.29.69,11.09.7,13.59-.46,27.76-.63,39.67-8.14A22,22,0,0,0,290.84,481.86Z"/><path class="b" d="M227.16,638.71a96,96,0,0,1-6.8,8.8c-2.84,3.1-4.36,3.78-5.93,3.27a24.42,24.42,0,0,1-4.72-2.46,33.46,33.46,0,0,0-5.62-2.84l-.49-.77c9.91-4.2,18.56-8.74,24.41-18.14a41.17,41.17,0,0,0,5.67-14.16c1.15-6.2.35-11.81-3-16.56a56.72,56.72,0,0,0-10-10.82c-10.38-8.6-24.43-19.49-38.47-18-11.27,1.17-19.58,13.52-25.63,22.41-3.94,5.79-6.29,9.55-5.85,11.33a184,184,0,0,0,30.53-5.68c9.37-2.73,19.83-6.68,27-14.58,2.22,3.15,2.33,6.57.3,10.11-2.49,4.35-7.51,8.45-14.79,12.19a67.28,67.28,0,0,1-18.89,6.61c-13.59,2.31-27.7,5.31-41.54,5.51.32-1.67,3.11-5.36,7.67-11.31,3.22-4.21,6.45-8.45,9.46-12.6,7.08-9.77,14.1-21.66,23.52-29.13,5.44-4.32,12.21-4.67,22.46-.84,11.43,4.27,21.53,11.22,30.72,18.53,8.08,6.43,12.19,13,13.18,18.92C242.22,613.15,235.37,627.08,227.16,638.71Z"/><circle class="f" cx="395.92" cy="785.92" r="104.08"/><path class="g" d="M352.39,835l8.81-11.43c8.17,8.48,18.78,16,34.69,16,16.5,0,28.21-9.64,28.21-24.89,0-16.15-11.11-27-43.35-27V774.29c28.77,0,38.55-11.08,38.55-25.29,0-13.21-9.07-21.51-23.48-21.51-11.37,0-21,5.72-29,13.77l-9.43-11.12c10.51-9.73,22.95-16.92,39-16.92,23.63,0,40.64,12.55,40.64,34.49,0,16.36-9.93,26.83-24.69,32.28v.85c16.42,3.87,29.49,15.87,29.49,34.53,0,24.21-20,38.81-44.86,38.81C375.23,854.18,361.54,845.05,352.39,835Z"/></svg>