<svg xmlns="http://www.w3.org/2000/svg" width="510" height="900" viewBox="0 0 510 900"><defs><style>.a{fill:#ffdc82;}.a,.b,.c,.d,.e,.f,.g,.h,.i,.j{stroke:#432d1e;}.a,.b,.c,.d,.e{stroke-linejoin:round;}.a,.b,.d,.e,.f,.i{stroke-width:8px;}.b{fill:#56634a;}.c,.e,.g{fill:none;}.c,.g{stroke-width:5px;}.d,.k{fill:#9980bf;}.f{fill:#79d6e0;}.f,.g,.h,.i{stroke-miterlimit:10;}.h{fill:#bd645d;stroke-linecap:round;stroke-width:6px;}.i{fill:#f7a859;}.j{fill:#fff;stroke-width:15px;}.j,.k{stroke-miterlimit:2;}.k{stroke:#9980bf;stroke-width:12px;}</style></defs><title>50</title><path class="a" d="M718.18,637.56c80.07,299.2,19.91,580.34-147.07,802.58L510,1344.84C692.47,1160.34,757.89,907.57,718.18,637.56Z"/><path class="a" d="M221.25,274c80.06,299.21,19.9,580.35-147.08,802.58l-61.1-95.3C195.54,796.75,261,544,221.25,274Z"/><path class="b" d="M11.78,117.88c140.33,211.1,206.93,467.88,202,722.4-20.62-17.29-39.2-5.42-59.82-22.71C179.18,587.35,122.73,322.42,11.78,117.88Z"/><path class="c" d="M10.34,117.26C140.53,332.35,203,586.6,187.26,837.54"/><path class="b" d="M-54.81,268.13C114.76,418.8,169.29,619.33,120,829.85L38.39,797.36C113.29,603.5,73,418.27-54.81,268.13Z"/><path class="c" d="M-56.8,267.85C97.32,423.5,146.23,622.63,81.77,832"/><path class="b" d="M474.77,265.05c-189.52,177.79-264.57,402.71-233,631.54l87.46-41.41C269.65,646.47,328.51,439.4,474.77,265.05Z"/><path class="c" d="M476.86,264.61c-174,182.22-243.09,405.21-195.76,631.72"/><path class="b" d="M528.41,358C332.48,497.74,269.47,683.75,326.47,879l94.25-30.14C334.18,669.07,380.7,497.24,528.41,358Z"/><path class="c" d="M530.72,357.71C352.63,502.1,296.11,686.81,370.6,881"/><path class="b" d="M-100.94,420.78C55.16,508.57,129,653.81,123.13,824L54.25,812.54C82.72,650.93,22.42,515.09-100.94,420.78Z"/><path class="c" d="M-102.55,420.9C42.24,515.08,111.47,660.18,93.57,832"/><path class="b" d="M-124,613.5C8.78,622,80.82,699.61,91.33,824.41L29.2,844.61c9.16-126-48.65-202.18-153.42-227.48"/><path class="c" d="M-127.48,615.58C-2.71,632.24,65.36,711.88,65.9,842.86"/><path class="b" d="M26,472.8c156.11,87.79,230,233,224.07,403.22l-68.87-11.45C209.65,703,149.36,567.11,26,472.8Z"/><path class="c" d="M24.39,472.92C169.18,567.1,238.41,712.21,220.51,884"/><path class="b" d="M489.26,524.5c-82.05,81-112.3,181.36-94.89,282.09l38.45-19.41C403.2,695.69,426.48,603.42,489.26,524.5Z"/><path class="c" d="M490.19,524.28C415.14,607,387.51,706.47,411.93,806"/><path class="d" d="M264.17,146.5c6.23,12.15,6.92,29.78,7.14,44.61.05,4-4,3.69-5.6.08a219.8,219.8,0,0,0-19.22-33.37c-3.67-5.37-6.23-16-1.53-21.49C252.37,127.68,261.55,141.39,264.17,146.5Z"/><path class="e" d="M239.21,270.48c3.67,21,20.16,35.72,20.16,35.72s10.55-19.4,6.89-40.43-20.17-35.72-20.17-35.72S235.54,249.46,239.21,270.48Z"/><path class="e" d="M269.16,233.12c6.3,20.39,24.52,32.88,24.52,32.88s8-20.58,1.72-41-24.52-32.88-24.52-32.88S262.87,212.72,269.16,233.12Z"/><path class="e" d="M218.46,272.87c-3.67,21-20.16,35.72-20.16,35.72s-10.55-19.41-6.88-40.44,20.16-35.72,20.16-35.72S222.13,251.84,218.46,272.87Z"/><path class="e" d="M184,245.57c-6.29,20.4-24.51,32.88-24.51,32.88s-8-20.58-1.72-41,24.51-32.88,24.51-32.88S190.25,225.17,184,245.57Z"/><path class="d" d="M292,319.87c0,54.58-63.14,98.17-63.14,98.17s-63.14-43.59-63.14-98.17,63.14-59.2,63.14,6C228.85,260.67,292,265.29,292,319.87Z"/><path class="d" d="M242.41,301.87c0,13.21-13.56,110.13-13.56,110.13s-13.56-96.92-13.56-110.13S221.36,278,228.85,278,242.41,288.66,242.41,301.87Z"/><path class="d" d="M150,307.36c-30.91,17.52-62.34,35-94,51.25C46.2,316.1,55.6,263.44,96.3,240.22c11.86-6.76,50.87-19.14,59.88-.3,7.51,15.7-30,31.81-38.81,37.33,12.91-7.21,51-22.28,61.95-2.39C187.34,289.43,158.67,302.43,150,307.36Z"/><path class="d" d="M146.89,272.37C109.37,287.45,75,313.32,58.12,352,68.79,312,98.35,271.2,136,257.63c8.64-3.11,28.13-6.52,31.76-.25C170.53,262.12,151.77,270.4,146.89,272.37Z"/><path class="d" d="M300.1,295c30.9,17.52,62.33,35,94,51.25,9.79-42.51.39-95.17-40.32-118.39-11.86-6.76-50.86-19.14-59.87-.3-7.51,15.7,30,31.81,38.8,37.33-12.91-7.21-51-22.28-61.94-2.39C262.71,277.09,291.39,290.09,300.1,295Z"/><path class="d" d="M303.16,260c37.52,15.08,71.91,41,88.77,79.58-10.66-39.95-40.22-80.75-77.91-94.32-8.63-3.11-28.13-6.52-31.76-.25C279.52,249.78,298.29,258.07,303.16,260Z"/><path class="d" d="M192.45,157.6c-7.12,11.65-9.13,29.18-10.46,44-.35,3.95,3.69,4,5.58.5a220.51,220.51,0,0,1,21.66-31.84c4.07-5.07,7.42-15.48,3.14-21.3C205.63,139.72,195.45,152.7,192.45,157.6Z"/><path class="d" d="M209.47,206c-4.28,6.73-4,17.79-3.43,27.14a2.3,2.3,0,0,0,4.37.91,90.67,90.67,0,0,1,13.38-18.16c2.61-2.83,4.1-9.17.17-13.37C217.77,195.93,211.27,203.19,209.47,206Z"/><path class="d" d="M256.48,204.38c1.66,7.8-2.49,18.06-6.25,26.63a2.31,2.31,0,0,1-4.42-.66,90.37,90.37,0,0,0-6.2-21.7c-1.46-3.56-.64-10,4.5-12.58C252.22,192,255.78,201.1,256.48,204.38Z"/><polygon class="f" points="521.05 706.64 305.49 706.64 205.98 766.08 69.72 706.64 -5.69 706.64 -5.69 912 521.05 912 521.05 706.64"/><line class="g" x1="-5.69" y1="728.29" x2="516.12" y2="728.29"/><line class="g" x1="-5.69" y1="751.52" x2="516.12" y2="751.52"/><line class="g" x1="-5.69" y1="774.76" x2="516.12" y2="774.76"/><line class="g" x1="-5.69" y1="797.99" x2="516.12" y2="797.99"/><line class="g" x1="-5.69" y1="821.22" x2="516.12" y2="821.22"/><line class="g" x1="-5.69" y1="844.45" x2="516.12" y2="844.45"/><line class="g" x1="-5.69" y1="867.69" x2="516.12" y2="867.69"/><line class="g" x1="-5.69" y1="890.92" x2="516.12" y2="890.92"/><path class="h" d="M356.06,36.82c-3.6,0-6.52,2.31-6.52,5.16,0,4.07,4.17,7.37,9.31,7.37,7.35,0,13.3-4.71,13.3-10.53,0-8.3-8.51-15-19-15-15,0-27.15,18.77-27.15,35.49C326,76.22,343.37,76,364.78,76H518V-14.9s-69.18-4.91-84.75,21c-27-3.13-57.23,3.86-68.2,17.7"/><path class="h" d="M351.86,112.89c-3.6,0-6.52,2.31-6.52,5.15,0,4.07,4.17,7.37,9.32,7.37,7.34,0,13.3-4.71,13.3-10.52,0-8.31-8.51-15-19-15-15,0-27.14,18.77-27.14,35.48,0,16.95,17.36,16.69,38.78,16.69H513.84V31.16s-72-9.7-72,36.56c-39.53,0-76.3,15-80.94,32.13"/><path class="h" d="M421.54,140c-3.6,0-6.51,2.31-6.51,5.15,0,4.07,4.16,7.37,9.31,7.37,7.34,0,13.3-4.71,13.3-10.52,0-8.31-8.51-15-19-15-15,0-27.15,18.77-27.15,35.48,0,17,17.36,16.69,38.78,16.69h84.25V108.25"/><path class="h" d="M478,97.16c-2.45,0-4.44,1.58-4.44,3.52,0,2.77,2.84,5,6.35,5,5,0,9.06-3.21,9.06-7.17,0-5.66-5.8-10.25-12.95-10.25-10.22,0-18.5,12.79-18.5,24.18,0,11.55,11.83,11.38,26.43,11.38h29.48V75.54s-29.27-3.24-29.27,12.74"/><path class="h" d="M462.56,188.83c-3.6,0-6.52,2.3-6.52,5.15,0,4.07,4.17,7.37,9.31,7.37,7.35,0,13.31-4.71,13.31-10.52,0-8.31-8.51-15-19-15-15,0-27.14,18.77-27.14,35.48,0,16.95,17.36,16.69,38.78,16.69h43.25V157.1s-42.94-4.75-42.94,18.69"/><path class="h" d="M48.84,23.4c3.6,0,6.51,2.31,6.51,5.16,0,4.07-4.17,7.37-9.31,7.37-7.34,0-13.3-4.71-13.3-10.53,0-8.3,8.51-15,19-15,15,0,27.15,18.77,27.15,35.49,0,16.95-17.36,16.69-38.78,16.69H-3.15V-8.32S39.8-13.07,39.8,10.36"/><rect class="i" x="185.59" y="685.3" width="75.38" height="85.98"/><ellipse class="i" cx="223.28" cy="685.3" rx="38.19" ry="19.56"/><polygon class="a" points="203.76 849.42 -100.94 736.16 -35.87 655.96 268.83 769.22 203.76 849.42"/><line class="a" x1="-68.41" y1="696.06" x2="236.3" y2="809.32"/><rect class="i" x="24.89" y="776.11" width="75.38" height="85.98"/><ellipse class="i" cx="62.58" cy="776.11" rx="38.19" ry="19.56"/><polygon class="a" points="334.13 662.93 -26.51 896.33 90.84 939.19 451.48 705.79 334.13 662.93"/><line class="a" x1="32.16" y1="917.76" x2="392.8" y2="684.36"/><rect class="i" x="292.23" y="799.41" width="75.38" height="108.57"/><ellipse class="i" cx="329.93" cy="799.41" rx="38.19" ry="19.56"/><path class="b" d="M591.32,722.18C488.6,774.54,429.4,861,415.5,962.32L458,955.45C457.48,859.29,507.59,778.39,591.32,722.18Z"/><path class="c" d="M592.27,722.25c-96.58,56.16-153,142.57-159.84,244.8"/><path class="b" d="M588.57,803.59c-82.89,25.31-136.64,81.77-157.85,155.24l32.75.53C473.26,887.79,519.57,834.29,588.57,803.59Z"/><path class="c" d="M589.28,803.77C510.61,832.71,459,889.48,443,964.59"/><circle class="j" cx="395.92" cy="785.92" r="104.08"/><path class="k" d="M349,843.55l8.65-11.43c8.1,8,18.28,15.47,34.27,15.47,16.54,0,29.71-12,29.71-30.93,0-18.77-11.44-29.85-28.82-29.85-9.39,0-15.23,2.9-23.32,8.28l-9.3-5.92,4.49-65.4h68v15.06h-52.6l-3.59,40.33a40.74,40.74,0,0,1,20.85-5.63c23.16,0,42.11,13.2,42.11,42.55s-22.16,46.1-45.74,46.1C371.81,862.18,358.47,853,349,843.55Z"/></svg>