<svg xmlns="http://www.w3.org/2000/svg" width="510" height="900" viewBox="0 0 510 900"><defs><style>.a{fill:#56634a;}.a,.b,.c,.d,.e,.f,.g{stroke:#432d1e;}.a,.b,.c,.d,.e{stroke-linejoin:round;}.a,.c,.d,.e,.f{stroke-width:8px;}.b{fill:none;stroke-width:5px;}.c{fill:#ffdc82;}.d,.h{fill:#9980bf;}.e,.g{fill:#fff;}.f{fill:#db85a0;}.f,.g,.h{stroke-miterlimit:2;}.g{stroke-width:15px;}.h{stroke:#9980bf;stroke-width:12px;}</style></defs><title>51</title><path class="a" d="M527.92,98.42C337.62,333.56,260,628,287.93,925.67c29.08-18.52,57.52-3.15,86.59-21.67C318.56,633.09,380.51,328.28,527.92,98.42Z"/><path class="b" d="M530,97.8C355,338.44,283.32,630.29,326.91,924.61"/><path class="a" d="M534.6,348.13C365,498.8,310.5,699.33,359.83,909.85l81.57-32.49C366.51,683.5,406.77,498.27,534.6,348.13Z"/><path class="b" d="M536.59,347.85C382.48,503.5,333.56,702.63,398,912"/><path class="a" d="M-48.62,438c195.93,139.77,259,325.78,202,521.06L59.08,928.89C145.61,749.07,99.09,577.24-48.62,438Z"/><path class="b" d="M-50.92,437.71C127.16,582.1,183.68,766.81,109.2,961"/><path class="a" d="M-28.7,206.62C191.21,424.74,280.89,697.89,248.61,974l-100.8-51.53C212.48,671.15,141.64,419.85-28.7,206.62Z"/><path class="b" d="M-31.09,206.05c202.2,223.21,285,493.94,234.67,767"/><path class="a" d="M-2.44,641.56C105,722.14,155.37,830.89,150.09,953.6L70.51,943C93.67,837.43,66,743.73-2.18,667"/><path class="b" d="M-11.19,645.54C87.52,728.84,132,837.49,115.94,961"/><path class="a" d="M580.74,500.78c-156.1,87.79-229.95,233-224.07,403.22l68.88-11.46C397.08,730.93,457.37,595.09,580.74,500.78Z"/><path class="b" d="M582.34,500.9C437.55,595.08,368.33,740.18,386.23,912"/><path class="a" d="M603.84,693.5C471,702,399,779.61,388.47,904.41l62.13,20.2c-9.16-126,48.65-202.18,153.41-227.48"/><path class="b" d="M607.28,695.58c-124.78,16.66-192.84,96.3-193.39,227.28"/><path class="a" d="M453.8,552.8C297.7,640.59,223.86,785.84,229.73,956l68.88-11.45C270.14,783,330.44,647.11,453.8,552.8Z"/><path class="b" d="M455.41,552.92C310.62,647.1,241.39,792.21,259.29,964"/><path class="c" d="M108.18,637.56c80.07,299.2,19.91,580.34-147.07,802.58l-61.11-95.3C82.47,1160.34,147.89,907.57,108.18,637.56Z"/><path class="d" d="M380,219.92c6.23,12.14,6.92,29.78,7.13,44.61.06,4-4,3.69-5.59.08a218.83,218.83,0,0,0-19.22-33.37c-3.67-5.37-6.23-16-1.53-21.49C368.24,201.1,377.42,214.81,380,219.92Z"/><path class="e" d="M355.08,343.9c3.67,21,20.16,35.72,20.16,35.72s10.55-19.4,6.88-40.43S362,303.47,362,303.47,351.41,322.87,355.08,343.9Z"/><path class="e" d="M385,306.54c6.3,20.39,24.52,32.88,24.52,32.88s8-20.58,1.72-41-24.52-32.88-24.52-32.88S378.74,286.14,385,306.54Z"/><path class="e" d="M334.33,346.29c-3.67,21-20.16,35.71-20.16,35.71s-10.55-19.4-6.88-40.43,20.16-35.72,20.16-35.72S338,325.26,334.33,346.29Z"/><path class="e" d="M299.82,319c-6.3,20.4-24.51,32.88-24.51,32.88s-8-20.58-1.72-41S298.1,278,298.1,278,306.12,298.59,299.82,319Z"/><path class="d" d="M407.86,393.29c0,54.57-63.14,98.16-63.14,98.16s-63.14-43.59-63.14-98.16,63.14-59.21,63.14,6C344.72,334.08,407.86,338.71,407.86,393.29Z"/><path class="d" d="M358.28,375.28c0,13.21-13.56,110.13-13.56,110.13s-13.56-96.92-13.56-110.13,6.07-23.91,13.56-23.91S358.28,362.07,358.28,375.28Z"/><path class="d" d="M265.83,380.78c-30.91,17.51-62.34,35-94,51.25-9.79-42.51-.39-95.17,40.31-118.39,11.86-6.77,50.87-19.14,59.88-.3,7.51,15.7-30,31.81-38.81,37.33,12.91-7.21,51-22.28,61.95-2.39C303.21,362.85,274.54,375.84,265.83,380.78Z"/><path class="d" d="M262.76,345.79c-37.52,15.08-71.9,40.95-88.77,79.58,10.67-39.95,40.23-80.75,77.91-94.32,8.63-3.11,28.13-6.52,31.76-.25C286.4,335.53,267.64,343.82,262.76,345.79Z"/><path class="d" d="M416,368.44c30.9,17.51,62.33,35,94,51.25,9.78-42.51.38-95.17-40.32-118.39-11.86-6.77-50.87-19.14-59.88-.3-7.51,15.7,30,31.81,38.81,37.33-12.91-7.21-51-22.28-61.95-2.39C378.58,350.51,407.26,363.5,416,368.44Z"/><path class="d" d="M419,333.45c37.52,15.08,71.91,40.95,88.77,79.58-10.67-39.95-40.22-80.75-77.91-94.32-8.63-3.11-28.13-6.52-31.76-.25C395.39,323.19,414.15,331.48,419,333.45Z"/><path class="d" d="M308.32,231c-7.13,11.65-9.13,29.18-10.46,44-.35,3.95,3.69,4,5.58.5a219.16,219.16,0,0,1,21.66-31.84c4.07-5.07,7.42-15.48,3.14-21.31C321.5,213.14,311.32,226.12,308.32,231Z"/><path class="d" d="M325.34,279.44c-4.28,6.73-4,17.78-3.43,27.14a2.3,2.3,0,0,0,4.37.91,91,91,0,0,1,13.38-18.17c2.61-2.83,4.1-9.16.17-13.36C333.64,269.35,327.14,276.61,325.34,279.44Z"/><path class="d" d="M372.35,277.8c1.66,7.8-2.49,18.06-6.25,26.63a2.31,2.31,0,0,1-4.42-.67,90.89,90.89,0,0,0-6.2-21.69c-1.46-3.56-.64-10,4.5-12.58C368.09,265.45,371.65,274.52,372.35,277.8Z"/><path class="f" d="M308.54,730.33l120-101.77s-152.1-123.48-152.1-481.67l-140.11,18C136.3,597.76,308.54,730.33,308.54,730.33Z"/><path class="d" d="M146.51,481.15c6.23,12.15,6.92,29.79,7.13,44.62.06,4-4,3.69-5.59.08a219.42,219.42,0,0,0-19.22-33.38c-3.67-5.36-6.23-16-1.53-21.48C134.71,462.34,143.89,476,146.51,481.15Z"/><path class="e" d="M121.55,605.14c3.67,21,20.16,35.72,20.16,35.72s10.55-19.41,6.88-40.44-20.16-35.71-20.16-35.71S117.88,584.11,121.55,605.14Z"/><path class="e" d="M151.5,567.77c6.3,20.4,24.52,32.89,24.52,32.89s8-20.59,1.72-41-24.52-32.89-24.52-32.89S145.21,547.38,151.5,567.77Z"/><path class="e" d="M100.8,607.52c-3.67,21-20.16,35.72-20.16,35.72s-10.55-19.4-6.88-40.43,20.16-35.72,20.16-35.72S104.47,586.49,100.8,607.52Z"/><path class="e" d="M66.29,580.23c-6.3,20.39-24.51,32.88-24.51,32.88s-8-20.58-1.72-41,24.51-32.88,24.51-32.88S72.59,559.83,66.29,580.23Z"/><path class="d" d="M174.33,654.52c0,54.58-63.14,98.17-63.14,98.17S48.05,709.1,48.05,654.52s63.14-59.2,63.14,6C111.19,595.32,174.33,600,174.33,654.52Z"/><path class="d" d="M124.75,636.52c0,13.21-13.56,110.13-13.56,110.13S97.63,649.73,97.63,636.52s6.07-23.92,13.56-23.92S124.75,623.31,124.75,636.52Z"/><path class="d" d="M32.3,642c-30.91,17.51-62.34,35-94,51.24-9.79-42.5-.39-95.17,40.31-118.38,11.86-6.77,50.87-19.14,59.88-.3,7.51,15.7-30,31.8-38.81,37.33,12.91-7.21,51-22.29,62-2.39C69.68,624.09,41,637.08,32.3,642Z"/><path class="d" d="M29.23,607c-37.52,15.09-71.9,41-88.77,79.58,10.67-40,40.23-80.75,77.91-94.31,8.63-3.11,28.13-6.52,31.76-.25C52.87,596.77,34.11,605.06,29.23,607Z"/><path class="d" d="M182.44,629.68c30.9,17.51,62.33,35,94,51.24,9.78-42.5.38-95.17-40.32-118.38-11.86-6.77-50.87-19.14-59.88-.3-7.51,15.7,30,31.8,38.81,37.33-12.91-7.21-51-22.29-62-2.39C145.05,611.75,173.73,624.74,182.44,629.68Z"/><path class="d" d="M185.5,594.68c37.52,15.09,71.91,41,88.77,79.58-10.67-40-40.22-80.75-77.91-94.31-8.63-3.11-28.13-6.52-31.76-.25C161.86,584.43,180.62,592.72,185.5,594.68Z"/><path class="d" d="M74.79,492.26c-7.13,11.64-9.13,29.18-10.46,44-.35,3.95,3.69,4,5.58.5a218.61,218.61,0,0,1,21.66-31.84c4.07-5.08,7.42-15.48,3.14-21.31C88,474.38,77.79,487.36,74.79,492.26Z"/><path class="d" d="M91.81,540.67c-4.28,6.73-4,17.79-3.43,27.14a2.3,2.3,0,0,0,4.37.92,90.73,90.73,0,0,1,13.38-18.17c2.61-2.83,4.1-9.16.17-13.36C100.11,530.58,93.61,537.84,91.81,540.67Z"/><path class="d" d="M138.82,539c1.66,7.8-2.49,18.05-6.25,26.63a2.31,2.31,0,0,1-4.42-.67,90.76,90.76,0,0,0-6.2-21.69c-1.46-3.56-.64-10,4.5-12.58C134.56,526.69,138.12,535.76,138.82,539Z"/><path class="a" d="M-6.74,781.42c79.09,31,123.07,90.86,131.65,172.57L53.12,972.73c6.31-69.81-15-123.13-58.9-159.75"/><path class="b" d="M-6.74,794.43C59.77,829.86,95.11,889.82,95.53,971.1"/><circle class="g" cx="395.92" cy="785.92" r="104.08"/><path class="h" d="M349,843.55l8.65-11.43c8.1,8,18.28,15.47,34.27,15.47,16.54,0,29.71-12,29.71-30.93,0-18.77-11.44-29.85-28.82-29.85-9.39,0-15.23,2.9-23.32,8.28l-9.3-5.92,4.49-65.4h68v15.06h-52.6l-3.59,40.33a40.74,40.74,0,0,1,20.85-5.63c23.16,0,42.11,13.2,42.11,42.55s-22.16,46.1-45.74,46.1C371.81,862.18,358.47,853,349,843.55Z"/></svg>