<svg xmlns="http://www.w3.org/2000/svg" width="510" height="900" viewBox="0 0 510 900"><defs><style>.a,.c{fill:#56634a;}.a,.c,.d,.e,.f{stroke:#432d1e;}.a,.c,.d,.e{stroke-miterlimit:10;}.a,.c,.d{stroke-width:8px;}.b{fill:#432d1e;}.c{stroke-linecap:round;}.d,.e,.g{fill:#bd645d;}.e{stroke-width:5px;}.f{fill:#fff;stroke-width:15px;}.f,.g{stroke-miterlimit:2;}.g{stroke:#bd645d;stroke-width:12px;}</style></defs><title>62</title><path class="a" d="M181.75,156.77C202.16,182.83,222.81,181,222.81,181s-12.44-44.1-32.85-70.16S148.9,86.61,148.9,86.61,161.34,130.71,181.75,156.77Z"/><path class="a" d="M322.32,512.53l70.8,78.82s43-1.35,74.91-51.69c0,0-19.08,8.09-32,2.35a49.49,49.49,0,0,0,18.81-10.58c20.38-18.32,30.61-94.21,30.61-94.21s-76.55,2.07-96.93,20.38A49.4,49.4,0,0,0,376,475.17c-4.32-13.49,5.76-31.59,5.76-31.59C328.25,469.94,322.32,512.53,322.32,512.53Z"/><path class="b" d="M366.44,543.64c3.31-4.33,6.89-8.36,10.53-12.32s7.41-7.76,11.26-11.49,7.84-7.3,12-10.71,8.31-6.77,12.39-10.24l12.26-10.38,12.34-10.3c8.28-6.8,16.49-13.68,24.83-20.42a.35.35,0,0,1,.49.05.35.35,0,0,1,0,.47c-7.59,7.57-15.3,15-23,22.5L428,492l-11.63,11.08c-3.88,3.69-7.67,7.47-11.5,11.23S397,521.61,392.91,525s-8.33,6.75-12.63,10-8.71,6.33-13.37,9.16a.36.36,0,0,1-.49-.12A.36.36,0,0,1,366.44,543.64Z"/><path class="b" d="M374.08,537.06a32.54,32.54,0,0,1-4.09-5.4,50.44,50.44,0,0,1-3.06-5.75,31.29,31.29,0,0,1-2.06-6.1c-.47-2.1-.9-4.22-1.46-6.3l-1.64-6.24L360.23,501c-1-4.2-2-8.39-2.86-12.63a.36.36,0,0,1,.28-.42.34.34,0,0,1,.38.19c1.92,3.88,3.71,7.8,5.51,11.72l2.63,5.9,2.54,5.93c.84,2,1.8,3.92,2.72,5.87a32,32,0,0,1,2.12,6.08,52,52,0,0,1,1.12,6.41,32.57,32.57,0,0,1,.08,6.78.39.39,0,0,1-.43.34A.41.41,0,0,1,374.08,537.06Z"/><path class="b" d="M398.33,515.27a19.49,19.49,0,0,1-3.54-3.77,28.29,28.29,0,0,1-2.5-4.12,17.19,17.19,0,0,1-1.5-4.47c-.28-1.57-.53-3.14-.9-4.68l-1.08-4.61-1-4.65c-.61-3.11-1.24-6.22-1.73-9.37a.36.36,0,0,1,.29-.41.38.38,0,0,1,.37.18c1.54,2.8,3,5.63,4.38,8.47l2.08,4.27,2,4.3c.65,1.44,1.42,2.84,2.16,4.25a17.06,17.06,0,0,1,1.56,4.45,27.76,27.76,0,0,1,.56,4.79,19.36,19.36,0,0,1-.48,5.15.4.4,0,0,1-.5.3A.35.35,0,0,1,398.33,515.27Z"/><path class="b" d="M418.58,497.08a19.49,19.49,0,0,1-3.54-3.77,28.83,28.83,0,0,1-2.5-4.12,17.31,17.31,0,0,1-1.5-4.47c-.28-1.57-.53-3.15-.9-4.68l-1.08-4.61-1-4.65c-.62-3.11-1.24-6.22-1.74-9.37a.35.35,0,0,1,.66-.23c1.54,2.79,3,5.63,4.39,8.46l2.07,4.28,2,4.3c.65,1.44,1.43,2.84,2.16,4.25a17.12,17.12,0,0,1,1.56,4.44,28,28,0,0,1,.56,4.8,19.65,19.65,0,0,1-.47,5.14.42.42,0,0,1-.51.31A.35.35,0,0,1,418.58,497.08Z"/><path class="b" d="M438.83,478.89a13.08,13.08,0,0,1-3.15-2.64,16.43,16.43,0,0,1-2.11-3,9.61,9.61,0,0,1-1.11-3.34c-.16-1.19-.27-2.39-.51-3.54l-.7-3.49-.59-3.51c-.36-2.36-.72-4.71-1-7.11a.35.35,0,0,1,.32-.39.35.35,0,0,1,.34.16c1.28,2,2.44,4.12,3.61,6.2l1.69,3.14,1.58,3.18c.53,1.06,1.17,2.08,1.78,3.11a9.62,9.62,0,0,1,1.17,3.32,16.36,16.36,0,0,1,.17,3.66,13.21,13.21,0,0,1-.86,4,.47.47,0,0,1-.6.26Z"/><path class="b" d="M374.91,537a31.87,31.87,0,0,1,6.73.81,50,50,0,0,1,6.26,1.8,32.24,32.24,0,0,1,5.82,2.75c1.84,1.13,3.66,2.29,5.54,3.33l5.63,3.16,5.58,3.25c3.71,2.21,7.42,4.4,11.07,6.72a.36.36,0,0,1,.11.49.35.35,0,0,1-.41.14c-4.12-1.31-8.18-2.75-12.25-4.18l-6.07-2.21-6-2.29c-2-.78-4.07-1.43-6.11-2.13a31.85,31.85,0,0,1-5.84-2.69,51.77,51.77,0,0,1-5.4-3.66,31.55,31.55,0,0,1-4.92-4.65.39.39,0,0,1,0-.55A.4.4,0,0,1,374.91,537Z"/><path class="b" d="M399.16,515.23a19.31,19.31,0,0,1,5.17.08,27.8,27.8,0,0,1,4.71,1.06,17.3,17.3,0,0,1,4.25,2c1.32.89,2.63,1.8,4,2.6l4.07,2.43,4,2.52c2.66,1.72,5.33,3.43,7.94,5.27a.35.35,0,0,1,.09.49.34.34,0,0,1-.38.14c-3.08-.83-6.11-1.78-9.14-2.73l-4.51-1.47-4.47-1.57c-1.49-.53-3-1-4.56-1.4a17,17,0,0,1-4.28-2,28.61,28.61,0,0,1-3.84-2.92,19.75,19.75,0,0,1-3.37-3.92.43.43,0,0,1,.13-.58A.49.49,0,0,1,399.16,515.23Z"/><path class="b" d="M419.41,497a19.74,19.74,0,0,1,5.17.07,28.81,28.81,0,0,1,4.71,1.07,17.3,17.3,0,0,1,4.25,2c1.33.88,2.63,1.8,4,2.6l4.07,2.43,4,2.52c2.66,1.72,5.33,3.43,7.94,5.26a.37.37,0,0,1,.09.5.36.36,0,0,1-.38.14c-3.08-.83-6.11-1.79-9.14-2.73l-4.51-1.47-4.47-1.58c-1.49-.53-3-.94-4.55-1.39a16.86,16.86,0,0,1-4.29-2,27.87,27.87,0,0,1-3.84-2.93,19.47,19.47,0,0,1-3.37-3.92.42.42,0,0,1,.13-.57A.49.49,0,0,1,419.41,497Z"/><path class="b" d="M439.66,478.85a13.32,13.32,0,0,1,4.09-.44,16.3,16.3,0,0,1,3.62.57,9.48,9.48,0,0,1,3.17,1.52c1,.71,1.91,1.46,2.91,2.09l3,1.92,2.94,2c1.95,1.39,3.89,2.76,5.78,4.25a.36.36,0,0,1,.06.51.35.35,0,0,1-.35.13c-2.36-.49-4.66-1.11-7-1.72l-3.43-1-3.39-1.07c-1.12-.36-2.3-.6-3.47-.88a10,10,0,0,1-3.2-1.46,17.73,17.73,0,0,1-2.75-2.42,13.07,13.07,0,0,1-2.28-3.42.46.46,0,0,1,.22-.61Z"/><path class="a" d="M90.19,575.35l73.69-70.08s-2.47-41.21-51.64-70.47c0,0,8.29,18.09,3.14,30.67a47.46,47.46,0,0,0-10.68-17.76C86.58,428.65,13.48,420.9,13.48,420.9s4.07,73.4,22.2,92.46a47.36,47.36,0,0,0,17.19,11.55c-12.82,4.52-30.47-4.67-30.47-4.67C49.15,570.82,90.19,575.35,90.19,575.35Z"/><path class="b" d="M118.82,532.18c-4.27-3-8.25-6.34-12.16-9.71S99,515.59,95.29,512s-7.22-7.32-10.6-11.2S78,493,74.55,489.18L64.27,477.69,54.06,466.12c-6.74-7.77-13.55-15.48-20.23-23.31a.35.35,0,0,1,0-.49.35.35,0,0,1,.47,0c7.49,7.06,14.84,14.25,22.26,21.38l11,10.77,11,10.84c3.65,3.62,7.39,7.16,11.1,10.72s7.26,7.28,10.65,11.14,6.69,7.82,9.88,11.88,6.28,8.22,9.09,12.64a.37.37,0,0,1-.11.49A.36.36,0,0,1,118.82,532.18Z"/><path class="b" d="M112.31,525a30.35,30.35,0,0,1-5,4.16,47.63,47.63,0,0,1-5.43,3.13,29.57,29.57,0,0,1-5.79,2.14c-2,.5-4,1-6,1.54l-6,1.73-6,1.63c-4,1-8,2.1-12.06,3a.35.35,0,0,1-.42-.27.36.36,0,0,1,.18-.39c3.66-2,7.36-3.8,11.07-5.65l5.58-2.71,5.62-2.61c1.87-.86,3.7-1.85,5.54-2.79a29.23,29.23,0,0,1,5.77-2.21,47.77,47.77,0,0,1,6.15-1.21,30.68,30.68,0,0,1,6.53-.18.39.39,0,0,1,.35.43A.38.38,0,0,1,112.31,525Z"/><path class="b" d="M90.75,502.35a18.3,18.3,0,0,1-3.49,3.58,25.66,25.66,0,0,1-3.88,2.55A15.61,15.61,0,0,1,79.13,510c-1.49.31-3,.58-4.47,1l-4.4,1.15-4.44,1.05c-3,.66-5.95,1.32-9,1.87a.36.36,0,0,1-.41-.29.35.35,0,0,1,.17-.37c2.63-1.58,5.31-3,8-4.49l4-2.13,4.08-2c1.36-.67,2.67-1.46,4-2.22a15.68,15.68,0,0,1,4.22-1.62,26.68,26.68,0,0,1,4.6-.63,18.36,18.36,0,0,1,5,.4.42.42,0,0,1,.32.5A.35.35,0,0,1,90.75,502.35Z"/><path class="b" d="M72.74,483.42A18.3,18.3,0,0,1,69.25,487a26.36,26.36,0,0,1-3.87,2.55,16.07,16.07,0,0,1-4.25,1.56c-1.5.3-3,.57-4.48,1l-4.4,1.15-4.44,1c-3,.66-6,1.33-9,1.87a.35.35,0,0,1-.25-.65c2.63-1.58,5.31-3,8-4.5l4-2.13,4.07-2c1.36-.67,2.67-1.46,4-2.21A15.62,15.62,0,0,1,62.92,483a25.5,25.5,0,0,1,4.59-.63,18.44,18.44,0,0,1,5,.39.43.43,0,0,1,.31.51A.41.41,0,0,1,72.74,483.42Z"/><path class="b" d="M54.74,464.48a12.72,12.72,0,0,1-2.42,3.18,15.6,15.6,0,0,1-2.8,2.15A8.75,8.75,0,0,1,46.34,471c-1.13.17-2.28.31-3.39.56l-3.33.75-3.36.64c-2.26.39-4.52.79-6.82,1.07a.36.36,0,0,1-.24-.66c1.91-1.31,3.87-2.49,5.83-3.68l3-1.73,3-1.63c1-.53,2-1.19,2.93-1.81a8.72,8.72,0,0,1,3.15-1.22,15.65,15.65,0,0,1,3.52-.22,12.28,12.28,0,0,1,3.91.8.47.47,0,0,1,.27.6Z"/><path class="b" d="M112.23,524.22a30.14,30.14,0,0,1,.51-6.52,46.84,46.84,0,0,1,1.52-6.07,29.32,29.32,0,0,1,2.49-5.65c1-1.8,2.11-3.58,3.07-5.41l2.89-5.47,3-5.44c2-3.61,4.06-7.22,6.2-10.78a.36.36,0,0,1,.65.28c-1.13,4-2.39,7.94-3.63,11.89L127,497l-2,5.85c-.68,1.95-1.24,3.95-1.84,5.93a29.71,29.71,0,0,1-2.43,5.68,46.18,46.18,0,0,1-3.4,5.26,30.07,30.07,0,0,1-4.41,4.82.37.37,0,0,1-.54,0A.43.43,0,0,1,112.23,524.22Z"/><path class="b" d="M90.67,501.54a18.37,18.37,0,0,1-.15-5,26.84,26.84,0,0,1,.86-4.56,16,16,0,0,1,1.83-4.14c.82-1.29,1.68-2.57,2.42-3.89l2.23-4,2.33-3.93c1.59-2.59,3.18-5.2,4.89-7.74a.35.35,0,0,1,.49-.1.36.36,0,0,1,.15.38c-.69,3-1.51,5.92-2.32,8.86l-1.27,4.38-1.37,4.34c-.46,1.44-.81,2.94-1.19,4.41a15.36,15.36,0,0,1-1.77,4.17,26.13,26.13,0,0,1-2.74,3.74,18.13,18.13,0,0,1-3.75,3.31.42.42,0,0,1-.58-.12A.44.44,0,0,1,90.67,501.54Z"/><path class="b" d="M72.66,482.61a18.46,18.46,0,0,1-.15-5,27,27,0,0,1,.86-4.56,15.83,15.83,0,0,1,1.84-4.14c.81-1.29,1.67-2.56,2.41-3.89l2.23-4,2.33-3.92c1.6-2.6,3.18-5.2,4.89-7.75a.36.36,0,0,1,.49-.1.36.36,0,0,1,.15.38c-.69,3-1.51,5.92-2.32,8.86l-1.27,4.38-1.37,4.34c-.46,1.45-.8,2.94-1.19,4.42a15.93,15.93,0,0,1-1.76,4.17,26.2,26.2,0,0,1-2.75,3.74,18.73,18.73,0,0,1-3.75,3.31.42.42,0,0,1-.58-.13A.47.47,0,0,1,72.66,482.61Z"/><path class="b" d="M54.65,463.67a12.52,12.52,0,0,1-.6-3.94,15.41,15.41,0,0,1,.4-3.51,8.82,8.82,0,0,1,1.38-3.08c.66-.94,1.37-1.86,2-2.84l1.78-2.91,1.87-2.86c1.29-1.9,2.57-3.8,4-5.64a.36.36,0,0,1,.65.28c-.39,2.28-.9,4.51-1.41,6.75l-.81,3.33-.91,3.28c-.31,1.09-.5,2.24-.74,3.37A8.82,8.82,0,0,1,60.87,459a15.43,15.43,0,0,1-2.28,2.69A12.68,12.68,0,0,1,55.3,464a.47.47,0,0,1-.63-.23A.17.17,0,0,0,54.65,463.67Z"/><path class="a" d="M224.56,469.15l71.54,28s27.4-14.89,31.65-57.9c0,0-9.71,11.47-20,12a35.73,35.73,0,0,0,8.72-13c7.23-18.51-10.89-71-10.89-71S256.72,393.5,249.49,412a35.78,35.78,0,0,0-2.39,15.46c-7.2-7.32-6.57-22.33-6.57-22.33C214.51,439.63,224.56,469.15,224.56,469.15Z"/><path class="b" d="M263.18,474.87a94.32,94.32,0,0,1,2.26-11.62q1.44-5.69,3.28-11.22A105.84,105.84,0,0,1,273,441.2c1.63-3.53,3.3-7,4.85-10.6l4.68-10.67,4.77-10.64c3.27-7.06,6.43-14.15,9.78-21.18a.35.35,0,0,1,.47-.16.34.34,0,0,1,.18.42c-2.3,7.43-4.78,14.79-7.17,22.2l-3.7,11.05-3.79,11c-1.27,3.67-2.43,7.38-3.62,11.08a105,105,0,0,1-4.2,10.86q-2.4,5.31-5.19,10.47a95.16,95.16,0,0,1-6.22,10.07.35.35,0,0,1-.5.08A.36.36,0,0,1,263.18,474.87Z"/><path class="b" d="M266,468.22a19.06,19.06,0,0,1-4.82-1.74,27.69,27.69,0,0,1-4.06-2.52,16.64,16.64,0,0,1-3.31-3.29c-.95-1.25-1.87-2.54-2.87-3.73l-3-3.6L245,449.67c-1.93-2.48-3.86-5-5.7-7.52a.36.36,0,0,1,.49-.51c2.61,1.78,5.13,3.66,7.65,5.52l3.74,2.85,3.67,2.92c1.22,1,2.52,1.87,3.8,2.78A16.65,16.65,0,0,1,262,459a27.47,27.47,0,0,1,2.62,4,19.83,19.83,0,0,1,1.86,4.78.42.42,0,0,1-.32.5Z"/><path class="b" d="M274.6,446.21a12.63,12.63,0,0,1-3.92-.87,15.83,15.83,0,0,1-3.17-1.65,9.13,9.13,0,0,1-2.42-2.42c-.65-1-1.27-2-2-2.86L261,435.68l-2.05-2.8c-1.33-1.9-2.66-3.79-3.91-5.78a.36.36,0,0,1,.49-.5c2,1.2,3.94,2.49,5.87,3.78l2.85,2,2.77,2c.92.69,1.93,1.29,2.91,1.92a8.82,8.82,0,0,1,2.47,2.36,15.17,15.17,0,0,1,1.73,3.12,12.53,12.53,0,0,1,1,3.91.46.46,0,0,1-.43.5Z"/><path class="b" d="M281.78,427.83a12.63,12.63,0,0,1-3.92-.87,15.86,15.86,0,0,1-3.17-1.66,9,9,0,0,1-2.42-2.41c-.65-1-1.27-2-2-2.86l-2.11-2.73-2-2.8c-1.33-1.9-2.67-3.79-3.92-5.78a.37.37,0,0,1,.12-.5.35.35,0,0,1,.37,0c2,1.2,3.94,2.49,5.87,3.78l2.85,2,2.78,2c.91.69,1.92,1.29,2.9,1.91a8.86,8.86,0,0,1,2.47,2.37,15.17,15.17,0,0,1,1.73,3.12,12.39,12.39,0,0,1,1,3.91.47.47,0,0,1-.43.5Z"/><path class="b" d="M289,409.45a9.74,9.74,0,0,1-3.31-.27,9.35,9.35,0,0,1-2.54-1.05,5,5,0,0,1-1.8-1.8c-.46-.76-.85-1.57-1.36-2.26l-1.5-2.12-1.42-2.2c-.92-1.49-1.84-3-2.67-4.56a.37.37,0,0,1,.15-.5.4.4,0,0,1,.34,0c1.6.79,3.11,1.68,4.63,2.56l2.22,1.37,2.16,1.44a24.31,24.31,0,0,0,2.29,1.31,5.11,5.11,0,0,1,1.85,1.76,9.54,9.54,0,0,1,1.1,2.51,9.34,9.34,0,0,1,.34,3.3A.55.55,0,0,1,289,409.45Z"/><path class="b" d="M266.59,467.76a19.39,19.39,0,0,1,4.6-2.26,27.87,27.87,0,0,1,4.64-1.16,16.92,16.92,0,0,1,4.66-.1c1.56.19,3.12.43,4.68.53l4.68.34,4.68.44c3.12.34,6.24.67,9.37,1.13a.37.37,0,0,1,.3.41.36.36,0,0,1-.28.29c-3.1.64-6.19,1.15-9.29,1.67l-4.65.71-4.64.61c-1.55.19-3.1.52-4.65.8a16.93,16.93,0,0,1-4.66.17,27.85,27.85,0,0,1-4.69-.89,19.44,19.44,0,0,1-4.73-2,.42.42,0,0,1-.14-.57A.38.38,0,0,1,266.59,467.76Z"/><path class="b" d="M275.19,445.75a12.44,12.44,0,0,1,3.36-2.22,15.8,15.8,0,0,1,3.38-1.13,9.15,9.15,0,0,1,3.42-.06c1.15.2,2.29.45,3.44.56l3.43.38,3.43.48c2.29.36,4.58.71,6.87,1.2a.36.36,0,0,1,.28.43.37.37,0,0,1-.26.27c-2.26.62-4.52,1.1-6.79,1.59l-3.4.68-3.4.57c-1.14.18-2.27.5-3.4.76a9.15,9.15,0,0,1-3.42.14,15.86,15.86,0,0,1-3.44-.93,12.82,12.82,0,0,1-3.48-2,.47.47,0,0,1-.06-.66Z"/><path class="b" d="M282.37,427.36a12.93,12.93,0,0,1,3.36-2.22,15.76,15.76,0,0,1,3.38-1.12,9,9,0,0,1,3.42-.06c1.15.2,2.29.44,3.44.56l3.43.37,3.43.48c2.29.37,4.58.72,6.87,1.21a.35.35,0,0,1,.28.42.37.37,0,0,1-.26.28c-2.26.61-4.52,1.1-6.79,1.59l-3.4.68-3.4.57c-1.14.18-2.27.49-3.4.76a9.11,9.11,0,0,1-3.41.14,16.37,16.37,0,0,1-3.45-.93,12.87,12.87,0,0,1-3.48-2,.46.46,0,0,1-.06-.65Z"/><path class="b" d="M289.55,409a9.46,9.46,0,0,1,2.49-2.19,9.86,9.86,0,0,1,2.52-1.1,5,5,0,0,1,2.55,0c.86.2,1.71.47,2.57.59l2.56.4,2.57.5c1.71.38,3.42.75,5.14,1.25a.39.39,0,0,1,.25.46.39.39,0,0,1-.23.24c-1.69.61-3.37,1.07-5.06,1.55l-2.53.65-2.54.55c-.85.16-1.69.49-2.53.73a5,5,0,0,1-2.55.11,9.89,9.89,0,0,1-2.58-.95,9.47,9.47,0,0,1-2.61-2.05A.54.54,0,0,1,289.55,409Z"/><path class="a" d="M255,179.05c-31.8,9.19-47.46-4.39-47.46-4.39s35.89-28.48,67.69-37.67,47.47,4.39,47.47,4.39S286.75,169.86,255,179.05Z"/><path class="a" d="M192,720.36,97.42,649.5s-46.73,10.8-70.73,72.79c0,0,19.11-13,34.52-9.52a55.14,55.14,0,0,0-18.27,15.66c-18.33,24.45-13.06,109.7-13.06,109.7s83.29-18.87,101.62-43.32a55.18,55.18,0,0,0,9.91-21.94c7.65,13.82.54,35.81.54,35.81C194.72,768.25,192,720.36,192,720.36Z"/><path class="b" d="M136.93,695.88c-2.78,5.38-5.87,10.52-9.05,15.61s-6.5,10-9.92,14.94-7,9.67-10.77,14.31S99.62,750,95.92,754.68L84.8,768.73l-11.2,14C66.06,792,58.6,801.32,51,810.54a.35.35,0,0,1-.56-.42c6.72-9.89,13.58-19.67,20.37-29.51l10.28-14.67,10.36-14.62c3.46-4.87,6.82-9.81,10.21-14.73s7-9.7,10.71-14.35,7.6-9.24,11.57-13.72,8-8.89,12.44-13.06a.35.35,0,0,1,.5,0A.37.37,0,0,1,136.93,695.88Z"/><path class="b" d="M130,704.78a38.1,38.1,0,0,1,5.44,5.14,62.41,62.41,0,0,1,4.5,5.69,39.91,39.91,0,0,1,3.57,6.22c1,2.19,2,4.39,3,6.54l3.2,6.44,3.1,6.49c2,4.36,4.08,8.7,6,13.12a.34.34,0,0,1-.18.46.34.34,0,0,1-.42-.11c-2.88-3.86-5.65-7.79-8.42-11.71l-4.11-5.91-4-6c-1.33-2-2.78-3.92-4.18-5.87a38.78,38.78,0,0,1-3.64-6.19,66,66,0,0,1-2.72-6.72,39.2,39.2,0,0,1-1.76-7.27.37.37,0,0,1,.32-.42A.34.34,0,0,1,130,704.78Z"/><path class="b" d="M108.19,733.87a23.33,23.33,0,0,1,4.48,3.48,35.12,35.12,0,0,1,3.53,4,21.46,21.46,0,0,1,2.61,4.56c.67,1.64,1.31,3.29,2.06,4.88l2.24,4.79,2.14,4.83c1.39,3.25,2.79,6.49,4.07,9.8a.36.36,0,0,1-.2.46.34.34,0,0,1-.4-.11c-2.24-2.75-4.37-5.57-6.5-8.39L119.08,758l-3-4.31c-1-1.44-2.13-2.82-3.22-4.22a21.42,21.42,0,0,1-2.67-4.52,35.23,35.23,0,0,1-1.75-5.07,23.21,23.21,0,0,1-.81-5.61.42.42,0,0,1,.4-.41A.37.37,0,0,1,108.19,733.87Z"/><path class="b" d="M90,758.16a23.33,23.33,0,0,1,4.48,3.48,35.12,35.12,0,0,1,3.53,4,21.53,21.53,0,0,1,2.61,4.57c.67,1.63,1.31,3.29,2.06,4.88l2.24,4.78,2.14,4.84c1.39,3.25,2.79,6.49,4.07,9.8a.35.35,0,0,1-.6.35c-2.24-2.76-4.36-5.58-6.5-8.39l-3.14-4.26-3.05-4.31c-1-1.44-2.13-2.81-3.21-4.21a21.11,21.11,0,0,1-2.68-4.53,35.1,35.1,0,0,1-1.75-5.06,23.36,23.36,0,0,1-.81-5.61.4.4,0,0,1,.4-.41A.46.46,0,0,1,90,758.16Z"/><path class="b" d="M71.77,782.46a14.77,14.77,0,0,1,3.81,2.32,20.47,20.47,0,0,1,2.86,2.88,12.14,12.14,0,0,1,1.94,3.41c.45,1.25.87,2.52,1.39,3.73l1.57,3.63,1.47,3.68c.94,2.48,1.89,4.95,2.73,7.49a.36.36,0,0,1-.6.35c-1.8-2-3.47-4-5.16-6.08l-2.47-3.1-2.38-3.16c-.78-1.06-1.68-2.05-2.54-3.06a11.91,11.91,0,0,1-2-3.37,20.67,20.67,0,0,1-1.08-3.91,15.24,15.24,0,0,1-.13-4.46.44.44,0,0,1,.49-.38A.2.2,0,0,1,71.77,782.46Z"/><path class="b" d="M129.14,705a39.47,39.47,0,0,1-7.48.34,63.55,63.55,0,0,1-7.21-.72,39.88,39.88,0,0,1-7-1.76c-2.27-.8-4.52-1.64-6.81-2.36l-6.85-2.18L87,696c-4.54-1.56-9.09-3.11-13.6-4.8a.35.35,0,0,1,.17-.68c4.78.61,9.52,1.35,14.27,2.08l7.1,1.16L102,695c2.36.43,4.75.73,7.13,1.07a39.9,39.9,0,0,1,7,1.69,62.16,62.16,0,0,1,6.72,2.72,39.11,39.11,0,0,1,6.46,3.78.38.38,0,0,1,.07.53A.41.41,0,0,1,129.14,705Z"/><path class="b" d="M107.34,734a23.58,23.58,0,0,1-5.62.8,33.83,33.83,0,0,1-5.35-.27,21,21,0,0,1-5.1-1.29c-1.64-.65-3.28-1.34-4.94-1.9l-5-1.72-5-1.82c-3.3-1.26-6.6-2.51-9.88-3.88a.36.36,0,0,1-.18-.47.35.35,0,0,1,.35-.21c3.54.3,7,.74,10.55,1.16l5.24.7,5.22.8c1.74.27,3.51.42,5.26.61a21.37,21.37,0,0,1,5.12,1.23,35.43,35.43,0,0,1,4.86,2.25,23,23,0,0,1,4.59,3.33.4.4,0,0,1,0,.57A.49.49,0,0,1,107.34,734Z"/><path class="b" d="M89.13,758.33a23.44,23.44,0,0,1-5.62.8,35.13,35.13,0,0,1-5.35-.26,21.73,21.73,0,0,1-5.09-1.29c-1.65-.65-3.28-1.35-4.95-1.91l-5-1.72-5-1.82c-3.3-1.26-6.6-2.5-9.87-3.88a.35.35,0,0,1-.19-.46.35.35,0,0,1,.35-.22c3.54.31,7,.74,10.55,1.16l5.24.7,5.22.8c1.74.28,3.51.43,5.27.62a21.39,21.39,0,0,1,5.11,1.22,35.5,35.5,0,0,1,4.86,2.26,23.72,23.72,0,0,1,4.6,3.32.41.41,0,0,1,0,.57A.49.49,0,0,1,89.13,758.33Z"/><path class="b" d="M70.92,782.62a15,15,0,0,1-4.32,1.13,19.65,19.65,0,0,1-4,0,11.89,11.89,0,0,1-3.8-1c-1.22-.54-2.42-1.13-3.65-1.59l-3.7-1.4-3.67-1.5c-2.44-1-4.88-2.07-7.29-3.23a.36.36,0,0,1-.16-.48.35.35,0,0,1,.33-.2c2.67.09,5.31.31,8,.52l3.94.38,3.93.48c1.3.16,2.64.21,4,.29a11.93,11.93,0,0,1,3.81.91,20.68,20.68,0,0,1,3.57,1.93,15.07,15.07,0,0,1,3.3,3,.44.44,0,0,1-.07.62Z"/><path class="c" d="M209.21,457.12l-18.32,10.14s-34.25-113.18,12.7-301.52L225.83,168C178.51,364.51,209.21,457.12,209.21,457.12Z"/><path class="a" d="M196.94,124.32l-.53,1.76c-4.45,14.71.22,42.78,15.08,47.27h0c14.86,4.49,34.29-16.29,38.73-31l.53-1.75Z"/><ellipse class="d" cx="242.78" cy="74.07" rx="18.74" ry="30.1" transform="translate(129.81 301.37) rotate(-80.54)"/><path class="d" d="M223,96.9c-3.07,18.1,4.94,47,20.44,49.63s35.69-40.12,38.77-58.22S270.08,83.62,254.58,81,226.08,78.81,223,96.9Z"/><path class="d" d="M245,112.37c-7.38,16.81-29.95,36.54-44.35,30.23s-7.78-53.13-.4-69.94,12.71,2.74,27.11,9S252.38,95.55,245,112.37Z"/><path class="a" d="M389.85,634.89l-77.11,89.52s7.6,47.37,67.82,75.51c0,0-11.66-19.95-7.15-35.08a55,55,0,0,0,14.38,19.29c23.16,20,108.56,20.47,108.56,20.47S483.18,720.22,460,700.27a55.15,55.15,0,0,0-21.21-11.37c14.3-6.7,35.76,1.88,35.76,1.88C437.82,635.4,389.85,634.89,389.85,634.89Z"/><path class="b" d="M361.69,688.15c5.18,3.13,10.1,6.57,15,10.08s9.58,7.17,14.24,10.91,9.17,7.65,13.55,11.72,8.71,8.18,13.13,12.19l13.27,12.05L444,757.22c8.74,8.15,17.55,16.23,26.23,24.44a.36.36,0,0,1,0,.5.35.35,0,0,1-.47,0c-9.41-7.37-18.7-14.88-28.05-22.32L427.8,748.62l-13.88-11.33c-4.62-3.78-9.33-7.47-14-11.18s-9.2-7.62-13.59-11.67-8.69-8.2-12.9-12.46-8.32-8.64-12.18-13.3a.35.35,0,0,1,.45-.53Z"/><path class="b" d="M370.1,695.67a38.48,38.48,0,0,1,5.5-5.08,64.6,64.6,0,0,1,6-4.1,40,40,0,0,1,6.45-3.14c2.25-.85,4.52-1.65,6.73-2.58L401.4,678l6.69-2.66c4.48-1.73,9-3.48,13.49-5.1a.35.35,0,0,1,.45.22.34.34,0,0,1-.14.41c-4,2.61-8.15,5.11-12.25,7.61l-6.18,3.69-6.22,3.6c-2.08,1.19-4.11,2.5-6.15,3.77a38.48,38.48,0,0,1-6.42,3.21,60.84,60.84,0,0,1-6.88,2.26,39,39,0,0,1-7.38,1.27.38.38,0,0,1-.4-.36A.37.37,0,0,1,370.1,695.67Z"/><path class="b" d="M397.64,719.4a22.87,22.87,0,0,1,3.78-4.23,34.29,34.29,0,0,1,4.26-3.25,21.78,21.78,0,0,1,4.73-2.3c1.68-.56,3.37-1.09,5-1.73l4.93-1.9,5-1.81c3.33-1.17,6.66-2.35,10.05-3.4a.36.36,0,0,1,.44.23.36.36,0,0,1-.13.4c-2.9,2-5.86,4-8.81,5.91l-4.46,2.84-4.51,2.75c-1.51.91-2.95,1.94-4.42,2.93a21.78,21.78,0,0,1-4.7,2.36,34.79,34.79,0,0,1-5.17,1.4A23.11,23.11,0,0,1,398,720a.4.4,0,0,1-.37-.43A.39.39,0,0,1,397.64,719.4Z"/><path class="b" d="M420.65,739.21a23.49,23.49,0,0,1,3.77-4.23,35.29,35.29,0,0,1,4.26-3.25,21.16,21.16,0,0,1,4.74-2.29c1.67-.57,3.37-1.09,5-1.73l4.93-1.91,5-1.81c3.33-1.16,6.66-2.34,10.05-3.4a.35.35,0,0,1,.44.24.35.35,0,0,1-.13.39c-2.9,2-5.86,4-8.81,5.91L445.41,730l-4.51,2.75c-1.5.91-2.95,1.93-4.42,2.92a21.12,21.12,0,0,1-4.7,2.36,34.81,34.81,0,0,1-5.17,1.41,23.58,23.58,0,0,1-5.65.42.41.41,0,0,1-.38-.43A.37.37,0,0,1,420.65,739.21Z"/><path class="b" d="M443.65,759a15,15,0,0,1,2.58-3.64,20,20,0,0,1,3.06-2.66,12,12,0,0,1,3.54-1.71c1.28-.36,2.57-.69,3.81-1.14l3.73-1.31,3.77-1.22c2.54-.77,5.07-1.55,7.66-2.22a.36.36,0,0,1,.43.26.34.34,0,0,1-.12.37c-2.1,1.66-4.26,3.19-6.42,4.73l-3.26,2.25-3.31,2.16c-1.11.72-2.16,1.55-3.22,2.34a12.2,12.2,0,0,1-3.51,1.77,20.24,20.24,0,0,1-4,.81,15.11,15.11,0,0,1-4.46-.17.44.44,0,0,1-.35-.51S443.64,759.06,443.65,759Z"/><path class="b" d="M370.21,696.53A38.8,38.8,0,0,1,370,704a60.45,60.45,0,0,1-1.21,7.14,39.19,39.19,0,0,1-2.22,6.83c-.95,2.2-1.95,4.4-2.82,6.63l-2.64,6.69L358.42,738c-1.87,4.42-3.73,8.85-5.71,13.24a.36.36,0,0,1-.47.18.36.36,0,0,1-.2-.39c.93-4.73,2-9.41,3-14.1l1.64-7,1.74-7c.58-2.32,1.05-4.69,1.55-7a40,40,0,0,1,2.16-6.84,62.06,62.06,0,0,1,3.16-6.52,39.11,39.11,0,0,1,4.21-6.19.38.38,0,0,1,.54,0A.36.36,0,0,1,370.21,696.53Z"/><path class="b" d="M397.75,720.26a23,23,0,0,1,.42,5.65,34.65,34.65,0,0,1-.62,5.33,21.46,21.46,0,0,1-1.64,5c-.76,1.6-1.56,3.18-2.24,4.81l-2.05,4.86-2.15,4.83c-1.48,3.21-3,6.42-4.54,9.59a.36.36,0,0,1-.67-.21c.54-3.51,1.21-7,1.87-10.44l1.06-5.19,1.15-5.15c.39-1.71.66-3.47,1-5.21a21.52,21.52,0,0,1,1.57-5,34.17,34.17,0,0,1,2.58-4.69,22.84,22.84,0,0,1,3.63-4.36.41.41,0,0,1,.57,0A.37.37,0,0,1,397.75,720.26Z"/><path class="b" d="M420.76,740.07a23.57,23.57,0,0,1,.42,5.66,34.37,34.37,0,0,1-.63,5.32,21.08,21.08,0,0,1-1.64,5c-.76,1.59-1.56,3.18-2.23,4.8l-2.06,4.87-2.15,4.83c-1.48,3.21-2.94,6.42-4.54,9.59a.35.35,0,0,1-.47.15.34.34,0,0,1-.19-.37c.54-3.5,1.21-7,1.87-10.44l1.05-5.18,1.15-5.16c.4-1.71.67-3.46,1-5.21a21.44,21.44,0,0,1,1.57-5,35.38,35.38,0,0,1,2.58-4.7,23.22,23.22,0,0,1,3.63-4.36.41.41,0,0,1,.57,0A.58.58,0,0,1,420.76,740.07Z"/><path class="b" d="M443.76,759.89a15,15,0,0,1,.83,4.38,20.78,20.78,0,0,1-.22,4.05,12,12,0,0,1-1.23,3.73c-.63,1.17-1.29,2.33-1.83,3.53l-1.65,3.59-1.74,3.56c-1.21,2.37-2.4,4.73-3.73,7a.37.37,0,0,1-.49.14.4.4,0,0,1-.18-.35c.28-2.66.67-5.28,1.06-7.9l.65-3.91.75-3.89c.25-1.29.39-2.62.56-3.94a11.71,11.71,0,0,1,1.16-3.74,20,20,0,0,1,2.18-3.43,15.07,15.07,0,0,1,3.21-3.09.46.46,0,0,1,.62.11A.54.54,0,0,1,443.76,759.89Z"/><ellipse class="d" cx="242.24" cy="594.05" rx="56.39" ry="38.33"/><line class="e" x1="234.07" y1="554.84" x2="234.07" y2="630.82"/><line class="e" x1="217.73" y1="554.84" x2="217.73" y2="630.82"/><line class="e" x1="201.39" y1="554.84" x2="201.39" y2="630.82"/><line class="e" x1="250.42" y1="554.84" x2="250.42" y2="630.82"/><line class="e" x1="266.76" y1="554.84" x2="266.76" y2="630.82"/><line class="e" x1="283.1" y1="554.84" x2="283.1" y2="630.82"/><path class="d" d="M91.24,624.66c26.27-37.42,41.05,3.25,76.86,28.39s79.09,25.21,52.82,62.63-104.56,11.09-104.56,11.09S65,662.09,91.24,624.66Z"/><path class="d" d="M393.25,624.66c-26.27-37.42-41.05,3.25-76.86,28.39s-79.09,25.21-52.82,62.63,104.56,11.09,104.56,11.09S419.51,662.09,393.25,624.66Z"/><path class="d" d="M125.59,497.51c39.76-.34,18.47,31.91,18.81,71.47s22.18,71.45-17.58,71.79-60.75-71.11-60.75-71.11S85.82,497.85,125.59,497.51Z"/><path class="d" d="M358.9,640.77c-39.76.34-18.47-31.91-18.81-71.48s-22.18-71.44,17.58-71.78,60.74,71.11,60.74,71.11S398.66,640.43,358.9,640.77Z"/><path class="d" d="M249.23,459c-22.13,33,16.52,33,49.38,55s47.5,57.79,69.64,24.76-26-89.83-26-89.83S271.37,426,249.23,459Z"/><path class="d" d="M235.25,459c22.14,33-16.51,33-49.37,55s-47.51,57.79-69.64,24.76,26-89.83,26-89.83S213.12,426,235.25,459Z"/><path class="d" d="M163,677.59c-.39-45.73,35.29-21.23,79-21.61s79-25.48,79.39,20.25-78.62,69.82-78.62,69.82S163.43,723.31,163,677.59Z"/><path class="d" d="M298.36,519.69c.28,33.25-26.69,15.45-59.78,15.73s-59.75,18.55-60-14.7S238,469.92,238,469.92,298.07,486.44,298.36,519.69Z"/><path class="d" d="M178.84,513.28c30.1,9.78,6.7,26.26-2,53.14s.51,54-29.58,44.18-29.7-63.45-29.7-63.45S148.75,503.5,178.84,513.28Z"/><path class="d" d="M332.32,619.77c-22.54-31-29.06-.57-52.19,16.23s-58.66,17.51-31.56,44.61c17.66,17.66,79.57,6.81,79.57,6.81S354.85,650.78,332.32,619.77Z"/><path class="d" d="M145.13,619.77c22.53-31,29.06-.57,52.18,16.23s58.67,17.51,31.56,44.61c-17.65,17.66-79.56,6.81-79.56,6.81S122.6,650.78,145.13,619.77Z"/><path class="d" d="M298.06,513.28c-30.1,9.78-6.7,26.26,2,53.14s-.51,54,29.58,44.18,29.7-63.45,29.7-63.45S328.15,503.5,298.06,513.28Z"/><path class="d" d="M315.74,595.07c-15.81,21.09-24.25-3.1-45.23-18.83s-46.58-17-30.77-38.14,61.91-3.41,61.91-3.41S331.56,574,315.74,595.07Z"/><path class="d" d="M161.16,595.07c15.81,21.09,24.25-3.1,45.23-18.83s46.58-17,30.77-38.14-61.91-3.41-61.91-3.41S145.34,574,161.16,595.07Z"/><path class="d" d="M315.74,586.19c-15.81-21.1-24.25,3.1-45.23,18.83s-46.58,17.05-30.77,38.14,61.91,3.41,61.91,3.41S331.56,607.28,315.74,586.19Z"/><path class="d" d="M161.16,586.19c15.81-21.1,24.25,3.1,45.23,18.83s46.58,17.05,30.77,38.14-61.91,3.41-61.91,3.41S145.34,607.28,161.16,586.19Z"/><path class="a" d="M156.65,326.17C173.26,354.8,194,355.82,194,355.82s-6.24-45.4-22.85-74-37.33-29.66-37.33-29.66S140,297.54,156.65,326.17Z"/><circle class="f" cx="395.92" cy="785.92" r="104.08"/><path class="g" d="M349.23,789.8c0-54.64,24.69-75.65,51.77-75.65a43.29,43.29,0,0,1,32.75,14.35l-9.75,11a29.66,29.66,0,0,0-22.33-10.72c-19.52,0-35.9,15.5-35.9,61.06,0,33.39,10.84,51.51,30.32,51.51,13.32,0,23.64-11.87,23.64-29.78,0-17.7-8.32-28.84-25.15-28.84-8.81,0-19.85,5.29-29.19,19.24l-.63-13.85c8.54-11.41,21.24-18.57,32.76-18.57,23.54,0,38.74,14.13,38.74,42,0,26-18.34,43.58-40.13,43.58C369.34,855.11,349.23,833.41,349.23,789.8Z"/></svg>