<svg xmlns="http://www.w3.org/2000/svg" width="510" height="900" viewBox="0 0 510 900"><defs><style>.a{fill:#bd645d;}.b,.e{fill:#56634a;}.b,.c,.d{stroke:#432d1e;}.b,.c{stroke-miterlimit:10;stroke-width:8px;}.c,.d{fill:#fff;}.d,.e{stroke-miterlimit:2;}.d{stroke-width:15px;}.e{stroke:#56634a;stroke-width:12px;}</style></defs><title>80</title><rect class="a" width="510" height="594.44"/><path class="b" d="M510,594.44c-68-43.8-157.28-70.36-255-70.36S68,550.64,0,594.44V900H510Z"/><path class="b" d="M90.6,591.85A523.44,523.44,0,0,0,0,599.67V900H475.48A211.15,211.15,0,0,0,477,874.76C477,718.51,304,591.85,90.6,591.85Z"/><path class="b" d="M510,617.16c-2.9,0-5.8-.08-8.72-.08-213.4,0-386.39,126.67-386.39,282.92H510Z"/><path class="b" d="M0,680V900H266.15C240.49,795.45,136.36,710.84,0,680Z"/><path class="b" d="M510,900V709.89C418.85,751.35,353,819.81,333.32,900Z"/><path class="b" d="M510,900V814.33a513,513,0,0,0-135.94-18c-120.5,0-228.11,40.39-299,103.68Z"/><circle class="c" cx="224.62" cy="267.69" r="182.31"/><circle class="d" cx="395.92" cy="785.92" r="104.08"/><path class="e" d="M352.46,816.85c0-17.65,12.88-29.71,25.65-36.53v-.85c-10.11-7-19-17.09-19-31.41,0-20.9,16.59-34.84,38.42-34.84,23.79,0,38.41,15,38.41,36.14,0,14.24-10.37,26.46-18.74,32.77V783c12.13,7.16,23.62,16.74,23.62,34.9,0,20.38-17.52,36.3-43.76,36.3C371.37,854.18,352.46,838.46,352.46,816.85Zm71.63.56c0-17.61-17.18-23.86-36.79-31.76-10.91,7.11-19,17.16-19,29.63,0,15,12.48,25.88,29.12,25.88C413.32,841.16,424.09,831.4,424.09,817.41Zm-3.24-67.11c0-13.41-8.61-24.06-23.59-24.06-12.66,0-22.05,8.68-22.05,21.82,0,16.21,15.05,23.05,31.33,29.51C415.76,769.34,420.85,760.3,420.85,750.3Z"/></svg>