<svg xmlns="http://www.w3.org/2000/svg" width="510" height="900" viewBox="0 0 510 900"><defs><style>.a,.c{fill:#56634a;}.a,.b{stroke:#432d1e;}.a{stroke-miterlimit:10;stroke-width:8px;}.b{fill:#fff;stroke-width:15px;}.b,.c{stroke-miterlimit:2;}.c{stroke:#56634a;stroke-width:12px;}</style></defs><title>83</title><path class="a" d="M0,594.44c68-43.8,157.28-70.36,255-70.36s187,26.56,255,70.36V900H0Z"/><path class="a" d="M419.4,591.85a523.44,523.44,0,0,1,90.6,7.82V900H34.52A211.15,211.15,0,0,1,33,874.76C33,718.51,206,591.85,419.4,591.85Z"/><path class="a" d="M0,617.16c2.9,0,5.8-.08,8.72-.08,213.4,0,386.39,126.67,386.39,282.92H0Z"/><path class="a" d="M510,680V900H243.85C269.51,795.45,373.64,710.84,510,680Z"/><path class="a" d="M0,900V709.89C91.15,751.35,157,819.81,176.68,900Z"/><path class="a" d="M0,900V814.33a513,513,0,0,1,135.94-18c120.5,0,228.11,40.39,299,103.68Z"/><circle class="b" cx="395.92" cy="785.92" r="104.08"/><path class="c" d="M352.46,816.85c0-17.65,12.88-29.72,25.66-36.53v-.85c-10.12-7-19-17.09-19-31.41,0-20.9,16.59-34.84,38.42-34.84,23.79,0,38.41,15,38.41,36.14,0,14.24-10.36,26.46-18.74,32.77V783c12.13,7.16,23.62,16.74,23.62,34.9,0,20.38-17.52,36.3-43.76,36.3C371.38,854.18,352.46,838.46,352.46,816.85Zm71.63.56c0-17.61-17.18-23.87-36.79-31.76-10.91,7.11-19,17.16-19,29.63,0,15,12.48,25.88,29.13,25.88C413.32,841.16,424.09,831.4,424.09,817.41Zm-3.24-67.11c0-13.41-8.61-24.07-23.59-24.07-12.66,0-22.05,8.69-22.05,21.83,0,16.21,15.05,23.05,31.33,29.51C415.76,769.34,420.85,760.3,420.85,750.3Z"/></svg>