<svg xmlns="http://www.w3.org/2000/svg" width="510" height="900" viewBox="0 0 510 900"><defs><style>.a,.d{fill:#56634a;}.a,.b,.c,.e,.f,.j,.k,.l{stroke:#432d1e;}.a,.e,.f,.j,.k{stroke-miterlimit:10;}.a,.b,.c,.e,.k{stroke-width:8px;}.b,.i{fill:#ffdc82;}.b,.c,.f,.j{stroke-linecap:round;}.b,.c{stroke-linejoin:round;}.c,.g,.m{fill:#e37f49;}.e,.f{fill:none;}.f{stroke-width:5px;}.h{fill:#432d1e;}.j,.k{fill:#bd645d;}.j{stroke-width:6px;}.l{fill:#fff;stroke-width:15px;}.l,.m{stroke-miterlimit:2;}.m{stroke:#e37f49;stroke-width:12px;}</style></defs><title>90</title><path class="a" d="M117.54,562.76a11.72,11.72,0,0,0-.71,2.43L91,627.67a20.05,20.05,0,0,1-4,8.85L66.2,663a25.73,25.73,0,0,1-8.77,7.14L5.83,713l2.62-17a20.9,20.9,0,0,1,4.14-9.63l30.92-66a12.54,12.54,0,0,0,1.43-2.34c24,5.69-23-13.4-23-13.4l-29.4,72.58-13.93,61,1.76,36.07,25-3.33-1.56-26.3c-.19-.63-.35-1.27-.49-1.91A11.69,11.69,0,0,0,8.69,741l67.8-57.59,32.43-47.62L140,570.3v0C161.73,570.65,99.69,549.77,117.54,562.76Z"/><path class="a" d="M164.45,154l69.12,17.1c3.83.94,4.78,5,1.49,6.31,0,0-15.74,14.75-33.91,15.72a9.66,9.66,0,0,1-.6,2L190.36,250a16.48,16.48,0,0,0-1.22,7.91l-1.47,63.52a21.21,21.21,0,0,0,2.86,8.86l16.2,81.15c7.87,13.49-2.65,12.87-2.65,12.87a9.79,9.79,0,0,1-14.67-3.7l-18-89.65,2.95-83.36,7.92-59.25v0c-15.2-9.49-22.05-29.36-22.05-29.36C157.89,156.23,160.63,153.09,164.45,154Z"/><path class="b" d="M101.18,178.92c8.53-23.66,29.86-38.56,62.71-39.81l13,15.81C143.41,150.94,116,158.53,101.18,178.92Z"/><path class="b" d="M163,114.79c16.9,18.16,21.27,41.57,21.27,41.57s-23-6-39.94-24.19S123,90.6,123,90.6,146.07,96.63,163,114.79Z"/><path class="c" d="M157.4,125c21,13.25,31.17,34.77,31.17,34.77s-23.81,0-44.79-13.21-31.17-34.77-31.17-34.77S136.42,111.79,157.4,125Z"/><path class="c" d="M278.61,222.81c3.49-24.9-8.44-48-36.92-64.45l-18.86,7.93C254.3,178.38,275,197.87,278.61,222.81Z"/><path class="c" d="M253.84,137.27c-23.42,8.18-38.2,26.86-38.2,26.86s23.19,5.4,46.61-2.78,38.21-26.86,38.21-26.86S277.26,129.09,253.84,137.27Z"/><path class="b" d="M254,148.93c-24.74,1.94-43.79,16.23-43.79,16.23s21,11.14,45.78,9.2,43.79-16.23,43.79-16.23S278.73,147,254,148.93Z"/><path class="c" d="M179.44,57.08c-21.77,31.71-22,65,4.17,93.55L213.93,145C180.82,121.29,167,90.61,179.44,57.08Z"/><path class="b" d="M151.42,65.67c-10.43,30.19-1.17,62,30.41,89.41l25.51-5.26C171,127,149.82,97.64,151.42,65.67Z"/><path class="b" d="M208.3,66.17C180.47,87.6,171,116.44,185.74,148.69l28,3.63C191.52,122.4,188.05,91.81,208.3,66.17Z"/><path class="b" d="M266.18,78.53c4.47,38.21-10.81,67.74-47.3,80.82L194.7,140.2C235,134.7,261.59,114,266.18,78.53Z"/><path class="c" d="M287,99.21c-4.84,31.56-27.84,55.34-68.58,64.91l-20.12-16.54C241.07,144.37,273.48,128.24,287,99.21Z"/><path class="b" d="M236.41,73.13C251,105.06,246,135,217.9,156.65l-26.44-9.83C225,130.69,242.38,105.25,236.41,73.13Z"/><path class="c" d="M221.43,72s8.23,77.39-10,90.6c-5,3.63-20.77-.27-23.49-5.81C178.07,136.59,221.43,72,221.43,72Z"/><path class="d" d="M54.85,261.14c-1.84,3.89-12,4.52-16,9.44-3.45,4.3-1.22,13.87-4.74,17.7-5.55,6.06-16.13,5.35-17.22,6.49s0,11.76-5.89,17.68c-3.72,3.73-13.43,2-17.66,5.69-4.74,4.16-4.87,14.35-8.81,16.54-9.15,5.1-21.59,1-31.29,2.63C-57.3,339.1-68,346.7-77.3,344.51c-10.65-2.52-15.77-14-21.88-21.54-4.76-5.85-14.26-9.88-14.51-16.86-.25-6.71,9-12,12.55-18.7,3.06-5.84-.07-13.08,5.57-18.2-6.43-6.74-4.19-16-8.1-23-4.73-8.43-15-14.49-15.64-22.18-.78-9.35,8.51-15.28,14.53-21.57S-93.09,186-82.65,185.28c8.42-.6,17.07,8.38,26.89,11.15,8.47,2.39,17.92-1.84,26.53,2.92,5-6.06,13.27-3.57,19.58-7.24,6.78-3.94,11.68-13.83,19-14.54,7.56-.74,13.85,8,20.88,11.22,8.84,4.06,20.84,5.42,25.27,13.91,4.19,8-1.26,19.25-1.54,29.21C53.7,240.9,59.14,252.1,54.85,261.14Z"/><path class="e" d="M54.85,261.14c-1.84,3.89-12,4.52-16,9.44-3.45,4.3-1.22,13.87-4.74,17.7-5.55,6.06-16.13,5.35-17.22,6.49s0,11.76-5.89,17.68c-3.72,3.73-13.43,2-17.66,5.69-4.74,4.16-4.87,14.35-8.81,16.54-9.15,5.1-21.59,1-31.29,2.63C-57.3,339.1-68,346.7-77.3,344.51c-10.65-2.52-15.77-14-21.88-21.54-4.76-5.85-14.26-9.88-14.51-16.86-.25-6.71,9-12,12.55-18.7,3.06-5.84-.07-13.08,5.57-18.2-6.43-6.74-4.19-16-8.1-23-4.73-8.43-15-14.49-15.64-22.18-.78-9.35,8.51-15.28,14.53-21.57S-93.09,186-82.65,185.28c8.42-.6,17.07,8.38,26.89,11.15,8.47,2.39,17.92-1.84,26.53,2.92,5-6.06,13.27-3.57,19.58-7.24,6.78-3.94,11.68-13.83,19-14.54,7.56-.74,13.85,8,20.88,11.22,8.84,4.06,20.84,5.42,25.27,13.91,4.19,8-1.26,19.25-1.54,29.21C53.7,240.9,59.14,252.1,54.85,261.14Z"/><line class="f" x1="1.14" y1="283.19" x2="26.24" y2="206.89"/><path class="f" d="M19.26,228.38s-11.09-8-15-20.35"/><path class="f" d="M19.25,228.39s13.43.75,23.69-6.59"/><path class="f" d="M13,247.62s-14.88-10.7-20.12-27.31"/><path class="f" d="M13,247.64s18,1,31.79-8.85"/><path class="d" d="M208.81,302.8c.18,4.87-6.26,12.66-4.35,19.54,1.67,6,11.35,9.87,13.29,15.42,3.07,8.79-1.64,18.57-1,20.24s10.64,6.08,14.15,14.89c2.21,5.53-2.52,14.88.22,20.63,3.07,6.44,13.11,8.22,16.23,12.26,7.25,9.38,10.65,23,20,29.08,10.21,6.58,24,3.7,34.71,5.57,12.2,2.14,25.14,8.42,34.86,3.31,7.56-4,7.57-15.12,10.95-22.27,3.26-6.87,12.17-13.5,11.5-22.07-.58-7.44-10.2-16.79-13.77-24.64,9.69-4.14,24.27-4.11,31.45-9.62,8.68-6.66,9.36-19.16,13.45-26.87,5-9.38,13.49-18.68,10-27.91s-16.72-11.79-27.25-17.23c-8.49-4.38-16.47-14.94-27.93-16.44-9.88-1.29-23,6-34.1,7.14-2.52-8.54-1.28-22.21-6.2-28.83-5.31-7.14-16.94-7.05-24.23-11.06-7.53-4.14-14.08-13.86-22.84-13.64-11,.28-18.49,11.48-26.89,18.33-7.94,6.48-20.59,10.84-24.75,21.33C202.6,279.42,208.39,291.47,208.81,302.8Z"/><path class="e" d="M208.81,302.8c.18,4.87-6.26,12.66-4.35,19.54,1.67,6,11.35,9.87,13.29,15.42,3.07,8.79-1.64,18.57-1,20.24s10.64,6.08,14.15,14.89c2.21,5.53-2.52,14.88.22,20.63,3.07,6.44,13.11,8.22,16.23,12.26,7.25,9.38,10.65,23,20,29.08,10.21,6.58,24,3.7,34.71,5.57,12.2,2.14,25.14,8.42,34.86,3.31,7.56-4,7.57-15.12,10.95-22.27,3.26-6.87,12.17-13.5,11.5-22.07-.58-7.44-10.2-16.79-13.77-24.64,9.69-4.14,24.27-4.11,31.45-9.62,8.68-6.66,9.36-19.16,13.45-26.87,5-9.38,13.49-18.68,10-27.91s-16.72-11.79-27.25-17.23c-8.49-4.38-16.47-14.94-27.93-16.44-9.88-1.29-23,6-34.1,7.14-2.52-8.54-1.28-22.21-6.2-28.83-5.31-7.14-16.94-7.05-24.23-11.06-7.53-4.14-14.08-13.86-22.84-13.64-11,.28-18.49,11.48-26.89,18.33-7.94,6.48-20.59,10.84-24.75,21.33C202.6,279.42,208.39,291.47,208.81,302.8Z"/><line class="f" x1="246.33" y1="350.03" x2="374.19" y2="317.51"/><path class="f" d="M338.22,326.56A60.62,60.62,0,0,0,369,343.22"/><path class="f" d="M338.2,326.57a44.54,44.54,0,0,1,14.35-27.94"/><path class="f" d="M306,334.72s15.08,16.94,41.26,22.37"/><path class="f" d="M306,334.74a59.76,59.76,0,0,1,19.26-37.5"/><path class="f" d="M280.54,341.13s20.19,25.64,53,35.19"/><path class="f" d="M280.5,341.16s-.51-30.55,20.35-53.47"/><line class="f" x1="246.33" y1="350.03" x2="314.73" y2="421.2"/><path class="f" d="M295.42,401.24s14.77-4.25,30.29.5"/><path class="f" d="M295.42,401.22s-8.26,10.95-6,24.48"/><path class="f" d="M278.16,383.31s19.81-5.7,40.65.68"/><path class="f" d="M278.15,383.29S267.06,398,270,416.15"/><line class="f" x1="246.33" y1="350.03" x2="254.27" y2="259.44"/><path class="f" d="M251.94,284.91s15.1-3.35,24.68-14.48"/><path class="f" d="M252,284.92s-14.3-5.21-21.71-17.42"/><path class="f" d="M249.91,307.74s20.26-4.49,33.13-19.44"/><path class="f" d="M249.92,307.76s-19.2-7-29.14-23.39"/><path class="d" d="M132.79,448.56c-4.91-4.11-7.63-15.1-15.41-19.31-7-3.77-18-.24-24.77-3.34-10.73-5-16.32-15.9-18.37-16.8s-13.67,2.57-24.28-1.8c-6.72-2.76-11.48-13.2-18.76-15.66-8.39-2.84-18.06,2.73-24,2.17-13.65-1.27-27.49-7.37-38.83-3.39-12.76,4.49-19.12,18.21-26.84,27.76-8,9.87-19.78,19.43-19.93,32.89-.12,10.82,10.23,19.49,15.38,29.09,4.93,9.2,5.94,22.55,14.56,29.54,8.11,6.58,23.66,7,34.08,10.68-1.16,13.78-8.26,29.62-6.48,42,2,14.21,13.42,24.74,18.87,35.47,6.73,13.24,10.72,28.62,21.85,33.47s22.62-3.23,33.77-8.63c9.36-4.53,23.26-6.27,31.25-16.68,6.52-8.51,7.44-24.8,12.27-36.5,9.3,4.82,19.75,15.42,28.54,16.69,10.41,1.51,19.18-7.12,27.5-10.61C162,572,174.3,571,179.05,561.79c6.12-11.88-.19-27.75-3.18-43.27-2.54-13.19-.77-29.78-8.86-42.69C159.6,464,144.1,458,132.79,448.56Z"/><path class="e" d="M132.79,448.56c-4.91-4.11-7.63-15.1-15.41-19.31-7-3.77-18-.24-24.77-3.34-10.73-5-16.32-15.9-18.37-16.8s-13.67,2.57-24.28-1.8c-6.72-2.76-11.48-13.2-18.76-15.66-8.39-2.84-18.06,2.73-24,2.17-13.65-1.27-27.49-7.37-38.83-3.39-12.76,4.49-19.12,18.21-26.84,27.76-8,9.87-19.78,19.43-19.93,32.89-.12,10.82,10.23,19.49,15.38,29.09,4.93,9.2,5.94,22.55,14.56,29.54,8.11,6.58,23.66,7,34.08,10.68-1.16,13.78-8.26,29.62-6.48,42,2,14.21,13.42,24.74,18.87,35.47,6.73,13.24,10.72,28.62,21.85,33.47s22.62-3.23,33.77-8.63c9.36-4.53,23.26-6.27,31.25-16.68,6.52-8.51,7.44-24.8,12.27-36.5,9.3,4.82,19.75,15.42,28.54,16.69,10.41,1.51,19.18-7.12,27.5-10.61C162,572,174.3,571,179.05,561.79c6.12-11.88-.19-27.75-3.18-43.27-2.54-13.19-.77-29.78-8.86-42.69C159.6,464,144.1,458,132.79,448.56Z"/><line class="f" x1="65.14" y1="444.3" x2="28.04" y2="600.15"/><path class="f" d="M38.58,556.39A49.34,49.34,0,0,0,5,571.86"/><path class="f" d="M38.58,556.36a82.47,82.47,0,0,1,20.35,39.32"/><path class="f" d="M48,517.14s-25.35-.28-45.14,20.76"/><path class="f" d="M48,517.1s20.57,20,27.32,52.78"/><path class="f" d="M55.42,486.17S18.5,483.12-9.09,507.05"/><path class="f" d="M55.41,486.11s31.1,26.94,42.83,68.2"/><line class="f" x1="65.14" y1="444.3" x2="-44.09" y2="448.06"/><path class="f" d="M14.15,445.89s-5.08,24.75-22.9,39.65"/><path class="f" d="M14.18,445.91s-8.77-24.19-28.73-37.57"/><line class="f" x1="65.14" y1="444.3" x2="152.22" y2="533.57"/><path class="f" d="M127.79,508.38a74.45,74.45,0,0,0,1.12,37.46"/><path class="f" d="M127.77,508.37s13.08-9.48,29.46-5.83"/><path class="f" d="M105.86,485.84s-6.55,24.11,1.5,50.28"/><path class="f" d="M105.83,485.83s17.56-12.72,39.54-7.83"/><path class="g" d="M98.84,479.57c-12.79,0-20.73-22-20.73-57.5,0-34.05,16.43-68.19,17.13-69.63l3.6-7.38,3.59,7.38c.7,1.44,17.14,35.58,17.14,69.63C119.57,457.53,111.63,479.57,98.84,479.57Z"/><path class="h" d="M98.84,354.19s16.73,34.36,16.73,67.88-7.49,53.5-16.73,53.5-16.73-20-16.73-53.5,16.73-67.88,16.73-67.88m0-18.27-7.19,14.77c-.72,1.47-17.54,36.42-17.54,71.38,0,38.51,9.24,61.5,24.73,61.5s24.73-23,24.73-61.5c0-35-16.82-69.91-17.54-71.38l-7.19-14.77Z"/><path class="g" d="M95.24,337.93c-.53-1.1-13-27.09-13-53,0-27.4,6.37-44.42,16.64-44.42s16.64,17,16.64,44.42c0,25.94-12.51,51.93-13,53l-3.59,7.38Z"/><path class="h" d="M98.84,244.48c7,0,12.64,15.1,12.64,40.42s-12.64,51.28-12.64,51.28-12.64-26-12.64-51.28,5.66-40.42,12.64-40.42m0-8c-5.11,0-12.12,2.81-16.54,16.21-2.68,8.15-4.1,19.28-4.1,32.21,0,26.85,12.9,53.65,13.45,54.78l7.19,14.77L106,339.68c.55-1.13,13.45-27.93,13.45-54.78,0-12.93-1.42-24.06-4.11-32.21-4.41-13.4-11.43-16.21-16.53-16.21Z"/><path class="g" d="M-24.48,425.66c-6.79,0-10-2.85-11.55-5.24C-42,411-31.34,396-8.17,381.26c22-14,51.55-16.27,52.8-16.36l7.38-.52-3.6,6.46c-.61,1.09-15.15,26.9-37.17,40.92-14.08,9-26.76,13.9-35.72,13.9Z"/><path class="h" d="M44.91,368.89s-14.4,25.86-35.82,39.49c-14.12,9-25.95,13.28-33.57,13.28-3.94,0-6.75-1.15-8.18-3.38-4.17-6.56,5.22-20,26.64-33.64s50.93-15.75,50.93-15.75m14.19-9-14.75,1.05c-1.29.1-31.8,2.42-54.67,17-11,7-19.64,14.39-25,21.36-9,11.77-6.44,19.66-4.11,23.32,3.92,6.17,11,7.09,14.92,7.09,9.71,0,23.15-5.16,37.87-14.53,22.86-14.56,37.89-41.21,38.51-42.34l7.2-12.93Z"/><path class="g" d="M-29.15,389c-19,0-23.36-7-24.24-11.19-.83-3.94.27-9.94,10.25-16.18,7-4.4,17.28-8.1,29.59-10.7a91.2,91.2,0,0,1,18.72-1.81,142.93,142.93,0,0,1,36.46,5l7.1,2.1L43.09,361c-1,.81-23.63,19.86-49.18,25.25A113.74,113.74,0,0,1-29.15,389Z"/><path class="h" d="M5.18,353.07A139.68,139.68,0,0,1,40.5,358S17.93,377.09-6.91,382.33A109.52,109.52,0,0,1-29.15,385c-12,0-19.27-3-20.33-8-1.6-7.61,11.91-16.9,36.76-22.14a87.76,87.76,0,0,1,17.9-1.72m0-8A95.75,95.75,0,0,0-14.38,347c-12.76,2.7-23.44,6.58-30.88,11.23-12.56,7.86-12.94,16.15-12,20.39C-56.17,384-51,393-29.15,393a116.91,116.91,0,0,0,23.89-2.79c26.52-5.59,49.95-25.28,50.93-26.11L57,354.48l-14.19-4.2a146.65,146.65,0,0,0-37.59-5.21Z"/><path class="i" d="M9.13,452.48c-4.44,0-7.78-2.06-9.17-5.66C-4.13,436.25,1.39,424.53,19,406.38c18.3-18.85,47.8-25.84,49.05-26.13L75,378.64l-2.24,6.76c-.39,1.19-9.83,29.26-28.83,47.16C30.7,445,17.69,452.48,9.13,452.48Z"/><path class="h" d="M69,384.14s-9.29,28.1-27.77,45.51C28,442.09,16,448.48,9.13,448.48c-2.74,0-4.64-1-5.44-3.1C1.44,439.57,1,430.67,21.88,409.16,39.57,391,69,384.14,69,384.14m12.07-11-13.87,3.21c-1.3.3-31.9,7.56-51,27.24C-2.75,423.05-8.52,436-3.77,448.27c2,5.14,6.81,8.21,12.9,8.21,9.69,0,23.38-7.66,37.54-21,19.73-18.58,29.48-47.59,29.89-48.81L81,373.14Z"/><path class="i" d="M-.69,352.93H-2.1c-12.58-.24-23.32-2-31.07-5-11-4.25-13.18-9.94-13.11-14,.21-10.64,16.29-17.25,42-17.25l2.9,0c26.1.49,52,15,53,15.56L58.07,336l-6.57,3.4c-1.07.55-26.54,13.55-52.19,13.55Z"/><path class="h" d="M-4.31,320.75l2.82,0c25.39.49,51.15,15.05,51.15,15.05S24.28,348.93-.69,348.93H-2c-25.39-.48-40.4-7.07-40.26-14.84.14-7.48,14.28-13.33,38-13.33m0-8c-28.53,0-45.71,7.91-46,21.17-.08,4.34,1.85,12.41,15.66,17.77,8.18,3.17,19.4,5,32.45,5.23H-.69c26.61,0,52.91-13.43,54-14l13.15-6.79L53.6,328.86c-1.12-.64-27.83-15.57-54.93-16.08l-3,0Z"/><path class="i" d="M56.63,338.84c-1.25,0-30.86-.62-53.63-13.38C-21,312-32.46,297.64-27,287.92c1.52-2.7,5-5.92,12.71-5.92,8.84,0,21.26,4.24,35,11.93,22.77,12.76,38.73,37.71,39.39,38.77L64,339Z"/><path class="h" d="M-14.3,286c7.64,0,19.19,3.65,33,11.41,22.15,12.41,38,37.42,38,37.42S27.11,334.39,5,322s-32.28-25.32-28.48-32.1c1.43-2.54,4.62-3.86,9.22-3.86m0-8c-10.21,0-14.53,5-16.19,7.95-2.12,3.78-4.24,11.81,5.41,23.06C-19.37,315.68-10.34,322.57,1,329c23.65,13.25,54.24,13.87,55.53,13.89l14.8.22-7.92-12.5c-.69-1.09-17.17-26.87-40.82-40.12C8.13,282.3-4.65,278-14.3,278Z"/><path class="i" d="M83.64,339.29c-.79-1-19.32-24.08-24.13-49.74-5.06-27-1.4-45,9.56-47.1a10.32,10.32,0,0,1,1.84-.16c10.19,0,19.44,15.56,24.13,40.61,4.81,25.65-4.11,53.9-4.49,55.09L88.29,345Z"/><path class="h" d="M70.91,246.29c7.38,0,15.74,13.57,20.2,37.34,4.67,25-4.37,53.14-4.37,53.14s-18.62-23-23.3-47.95-1.27-41,6.37-42.43a5.77,5.77,0,0,1,1.1-.1m0-8a14.71,14.71,0,0,0-2.57.23c-4.27.8-11.78,4.32-14.22,18.94-1.45,8.65-.95,20,1.46,32.83,5,26.64,24.14,50.51,25,51.51l9.31,11.5,4.52-14.09c.4-1.23,9.6-30.41,4.61-57-5.22-27.88-15.45-43.87-28.06-43.87Z"/><path class="i" d="M57.89,474.52a10.24,10.24,0,0,1-3.16-.5c-3.81-1.26-8.44-5.24-8.82-17-.26-8.3,1.69-19,5.64-30.95,8.2-24.79,29.65-45.21,30.56-46.07l5.39-5.07,1.29,7.28c.22,1.23,5.28,30.42-2.92,55.2-7.68,23.24-18.14,37.11-28,37.11Z"/><path class="h" d="M84.86,382.92s5.19,29.13-2.78,53.24c-7.31,22.11-17,34.36-24.19,34.36a6.09,6.09,0,0,1-1.9-.3c-7.38-2.44-8.61-18.79-.64-42.9s29.51-44.4,29.51-44.4m5.28-16L79.37,377.09c-.94.89-23.11,22-31.62,47.72-4.09,12.39-6.11,23.57-5.83,32.34.46,14.81,7.44,19.31,11.56,20.67a14,14,0,0,0,4.41.7c16.79,0,27.82-27.87,31.78-39.85,8.51-25.74,3.29-55.89,3.06-57.16L90.14,367Z"/><path class="g" d="M79.69,329.76c-1.19-.39-29.29-9.73-47.26-28.67-8.66-9.13-15-18-18.27-25.62-4.67-10.8-2.18-16.36.74-19.13a11.16,11.16,0,0,1,7.86-2.89c9.1,0,22.18,8.3,35.9,22.76,18,18.94,25.81,47.5,26.14,48.71l1.92,7.14Z"/><path class="h" d="M22.76,257.45c7.36,0,19.43,7.21,33,21.51,17.47,18.43,25.17,47,25.17,47s-28.12-9.2-45.6-27.63S12,264.59,17.66,259.24a7.12,7.12,0,0,1,5.1-1.79m0-8a15.06,15.06,0,0,0-10.61,4c-3.15,3-7.55,10-1.67,23.62,3.49,8.05,10.07,17.31,19.05,26.78,18.65,19.67,47.69,29.32,48.92,29.72l14.06,4.6-3.85-14.28c-.34-1.25-8.44-30.76-27.1-50.42-8.5-9-24.85-24-38.8-24Z"/><path class="i" d="M222.15,425.66c-9,0-21.64-4.94-35.72-13.9-22-14-36.56-39.83-37.16-40.92l-3.6-6.46,7.38.52c1.24.09,30.78,2.34,52.8,16.36,10.61,6.76,18.89,13.82,23.94,20.42,7.15,9.35,6.07,15.35,3.92,18.74C232.19,422.81,229,425.66,222.15,425.66Z"/><path class="h" d="M152.76,368.89s29.52,2.11,50.94,15.75,30.81,27.08,26.63,33.64c-1.42,2.23-4.24,3.38-8.18,3.38-7.62,0-19.45-4.29-33.57-13.28-21.42-13.63-35.82-39.49-35.82-39.49m-14.19-9,7.2,12.93c.63,1.13,15.65,27.78,38.52,42.34,14.71,9.37,28.16,14.53,37.86,14.53,3.89,0,11-.92,14.93-7.09,2.33-3.66,4.89-11.55-4.11-23.32-5.33-7-14-14.36-25-21.36-22.86-14.56-53.37-16.88-54.66-17l-14.76-1.05Z"/><path class="i" d="M226.83,389a113.83,113.83,0,0,1-23.07-2.7c-25.54-5.39-48.22-24.44-49.17-25.25L149,356.21l7.09-2.1a143,143,0,0,1,36.46-5,91.06,91.06,0,0,1,18.72,1.81c12.32,2.6,22.55,6.3,29.59,10.7,10,6.24,11.09,12.24,10.26,16.18C250.18,381.94,245.86,389,226.83,389Z"/><path class="h" d="M192.5,353.07a87.76,87.76,0,0,1,17.9,1.72c24.84,5.24,38.36,14.53,36.75,22.14-1.05,5-8.37,8-20.32,8a109.52,109.52,0,0,1-22.24-2.62C179.74,377.09,157.18,358,157.18,358a139.68,139.68,0,0,1,35.32-4.88m0-8h0a146.65,146.65,0,0,0-37.59,5.21l-14.19,4.2L152,364.05c1,.83,24.42,20.52,50.94,26.11A116.83,116.83,0,0,0,226.83,393c21.85,0,27-9,28.15-14.37.89-4.24.52-12.53-12-20.39-7.44-4.65-18.12-8.53-30.89-11.23a95.72,95.72,0,0,0-19.55-1.89Z"/><path class="i" d="M188.55,452.48c-8.56,0-21.57-7.45-34.81-19.92-19-17.9-28.43-46-28.82-47.16l-2.24-6.76,6.93,1.61c1.25.29,30.75,7.28,49,26.13,17.63,18.15,23.15,29.87,19.05,40.44C196.32,450.42,193,452.48,188.55,452.48Z"/><path class="h" d="M128.71,384.14s29.39,6.81,47.08,25c20.89,21.51,20.45,30.41,18.19,36.22-.8,2.07-2.7,3.1-5.43,3.1-6.83,0-18.87-6.39-32.06-18.83-18.48-17.41-27.78-45.51-27.78-45.51m-12.06-11,4.47,13.52c.4,1.22,10.15,30.23,29.88,48.81,14.17,13.35,27.85,21,37.55,21,6.08,0,10.9-3.07,12.89-8.21,4.76-12.27-1-25.22-19.91-44.68-19.11-19.68-49.72-26.94-51-27.24l-13.87-3.21Z"/><path class="g" d="M198.37,352.93c-25.65,0-51.12-13-52.19-13.55L139.6,336l6.44-3.64c1.09-.61,27-15.07,53-15.56l2.91,0c25.68,0,41.76,6.61,42,17.25.21,11.15-16.72,18.4-44.18,18.92Z"/><path class="h" d="M202,320.75c23.69,0,37.82,5.85,38,13.33.15,7.77-14.87,14.36-40.25,14.84h-1.33c-25,0-50.36-13.11-50.36-13.11s25.76-14.56,51.15-15.05l2.83,0m0-8v0l-3,0c-27.1.51-53.81,15.44-54.93,16.08l-12.88,7.28,13.14,6.79c1.11.57,27.42,14,54,14h1.48c13-.25,24.26-2.06,32.44-5.23,13.82-5.36,15.74-13.43,15.66-17.77-.25-13.26-17.43-21.17-46-21.17Z"/><path class="g" d="M137.6,332.7c.67-1.06,16.63-26,39.4-38.77,13.71-7.69,26.13-11.93,35-11.93,7.76,0,11.19,3.22,12.7,5.92,2,3.5,2.7,9.56-5,18.49-5.41,6.31-14.07,12.89-25.05,19-22.77,12.76-52.38,13.36-53.63,13.38l-7.4.11Z"/><path class="h" d="M212,286c4.6,0,7.78,1.32,9.21,3.86,3.8,6.78-6.32,19.68-28.47,32.1S141,334.84,141,334.84s15.82-25,38-37.42c13.84-7.76,25.38-11.41,33-11.41m0-8h0c-9.66,0-22.43,4.29-36.94,12.43-23.64,13.25-40.13,39-40.82,40.12l-7.91,12.5,14.79-.22c1.29,0,31.89-.64,55.53-13.89,11.38-6.38,20.42-13.27,26.13-19.93,9.65-11.25,7.53-19.28,5.41-23.06-1.67-3-6-7.95-16.19-7.95Z"/><path class="g" d="M107.12,338c-.38-1.19-9.29-29.44-4.48-55.09,4.69-25,13.94-40.61,24.13-40.61a10.2,10.2,0,0,1,1.83.16c11,2.06,14.62,20.11,9.57,47.1-4.81,25.66-23.34,48.77-24.13,49.74L109.38,345Z"/><path class="h" d="M126.77,246.29a5.85,5.85,0,0,1,1.1.1c7.64,1.43,11,17.47,6.36,42.43s-23.3,47.95-23.3,47.95-9-28.18-4.36-53.14c4.45-23.77,12.81-37.34,20.2-37.34m0-8h0c-12.61,0-22.84,16-28.07,43.87-5,26.64,4.22,55.82,4.61,57l4.52,14.09,9.32-11.5c.81-1,20-24.87,24.95-51.51,2.4-12.82,2.91-24.18,1.46-32.83-2.44-14.62-10-18.14-14.22-18.94a14.79,14.79,0,0,0-2.57-.23Z"/><path class="g" d="M139.78,474.52c-9.83,0-20.29-13.87-28-37.11-8.19-24.78-3.14-54-2.92-55.2l1.3-7.28,5.38,5.07c.91.86,22.37,21.28,30.56,46.07,3.95,11.94,5.9,22.65,5.64,30.95-.37,11.76-5,15.74-8.82,17A10.14,10.14,0,0,1,139.78,474.52Z"/><path class="h" d="M112.82,382.92s21.53,20.29,29.51,44.4,6.74,40.46-.64,42.9a6.15,6.15,0,0,1-1.91.3c-7.24,0-16.87-12.25-24.18-34.36-8-24.11-2.78-53.24-2.78-53.24m-5.28-16-2.6,14.56c-.22,1.27-5.44,31.42,3.06,57.16,4,12,15,39.85,31.78,39.85a14,14,0,0,0,4.42-.7c4.11-1.36,11.09-5.86,11.56-20.67.28-8.77-1.74-19.95-5.84-32.34-8.51-25.74-30.67-46.83-31.61-47.72L107.54,367Z"/><path class="i" d="M112.88,324.92c.32-1.21,8.17-29.77,26.13-48.71,13.72-14.46,26.81-22.76,35.91-22.76a11.14,11.14,0,0,1,7.85,2.89c2.92,2.77,5.42,8.33.75,19.13-3.3,7.63-9.62,16.49-18.28,25.62-18,18.94-46.07,28.28-47.26,28.67l-7,2.3Z"/><path class="h" d="M174.92,257.45a7.13,7.13,0,0,1,5.1,1.79c5.64,5.35-.21,20.67-17.68,39.09S116.74,326,116.74,326s7.7-28.57,25.18-47c13.57-14.3,25.64-21.51,33-21.51m0-8h0c-14,0-30.3,15-38.81,24-18.65,19.66-26.76,49.17-27.09,50.42l-3.85,14.28,14.06-4.6c1.23-.4,30.26-10.05,48.91-29.72,9-9.47,15.57-18.73,19.05-26.78,5.88-13.6,1.48-20.64-1.67-23.62a15,15,0,0,0-10.6-4Z"/><path class="g" d="M73,347.66c-10,0-35.7-.77-57.69-7.91C-10.34,331.44-20.94,328-23.4,321.93a7.07,7.07,0,0,1,.4-6.15c2.9-5.51,12-8.93,23.78-8.93a90.83,90.83,0,0,1,27.74,4.9c27.6,9,50,28,51,28.83l7.8,6.68L77,347.61C77,347.61,75.51,347.66,73,347.66Z"/><path class="h" d="M.78,310.85c7.15,0,16,1.3,26.5,4.7,27.16,8.82,49.62,28.06,49.62,28.06s-1.43.05-4,.05c-9.59,0-34.92-.72-56.44-7.71-27.17-8.82-38.95-12.67-36-18.3,1.83-3.47,8.82-6.8,20.25-6.8m0-8v0h0c-13.45,0-23.66,4.13-27.32,11.06a11.08,11.08,0,0,0-.56,9.52c3.16,7.79,13.5,11.15,41.13,20.13,22.53,7.31,48.71,8.1,58.92,8.1,2.62,0,4.16-.05,4.23-.05l20.51-.71L82.1,337.54c-1-.83-24-20.39-52.35-29.6a94.68,94.68,0,0,0-29-5.09Z"/><path class="i" d="M-14.56,399.28c-5.14,0-7.43-2.29-8.44-4.21-.88-1.66-1.57-4.5.11-8.63,3.21-7.92,15.13-19.82,38.16-27.3,22-7.14,47.67-7.91,57.69-7.91,2.55,0,4,0,4.08,0l10.26.36-7.8,6.67c-.94.81-23.38,19.87-51,28.83-4,1.31-7.8,2.57-11.35,3.74C2,395.94-8.1,399.28-14.56,399.28Z"/><path class="h" d="M73,355.23c2.52,0,4,0,4,0s-22.46,19.24-49.62,28.06C7.07,389.9-7.3,395.28-14.55,395.28c-2.5,0-4.16-.64-4.92-2.08-3-5.63,8.81-21.44,36-30.26C38,356,63.36,355.23,73,355.23m0-8h0c-10.21,0-36.39.79-58.92,8.1-20,6.51-36,18.13-40.63,29.61-2.25,5.55-1.21,9.59.06,12s4.47,6.35,12,6.35c7.1,0,17.4-3.42,33-8.6,3.59-1.2,7.31-2.43,11.31-3.73,28.36-9.21,51.39-28.77,52.35-29.6L97.69,348l-20.51-.71c-.07,0-1.6,0-4.23,0Z"/><path class="g" d="M58.73,441.34a17.26,17.26,0,0,1-5.32-.87c-4.08-1.33-6.85-3.73-8.23-7.13-2.5-6.16-.37-15,6.89-28.8,11.56-21.87,36-39.54,37-40.28L95,360l.41,7.27c.07,1.11,1.41,27.42-10.23,49.45C76.29,433.52,67.89,441.34,58.73,441.34Z"/><path class="h" d="M91.4,367.51s1.47,26.05-9.78,47.35C72.43,432.27,65,437.34,58.73,437.34a13.09,13.09,0,0,1-4.09-.68c-7.18-2.33-10.28-9,1-30.25s35.79-38.9,35.79-38.9m7.17-15L86.74,361c-1.07.76-26.21,19-38.2,41.66-7.87,14.9-10,24.82-7.07,32.17,1.27,3.13,4.16,7.3,10.7,9.43a21.29,21.29,0,0,0,6.56,1.07c14.2,0,23.9-15.26,30-26.74,12.15-23,10.75-50.39,10.69-51.54l-.82-14.54Z"/><path class="i" d="M139,441.34c-9.17,0-17.57-7.82-26.44-24.61-11.63-22-10.29-48.34-10.23-49.45l.41-7.27,5.92,4.25c1,.74,25.44,18.41,37,40.28,7.27,13.76,9.39,22.64,6.9,28.8-1.39,3.4-4.15,5.8-8.23,7.13A17.26,17.26,0,0,1,139,441.34Z"/><path class="h" d="M106.27,367.51s24.55,17.6,35.8,38.9,8.15,27.92,1,30.25a13,13,0,0,1-4.08.68c-6.32,0-13.7-5.07-22.9-22.48-11.25-21.3-9.78-47.35-9.78-47.35m-7.16-15-.82,14.54c-.07,1.15-1.46,28.54,10.69,51.54,12.66,24,23.17,26.74,30,26.74a21.22,21.22,0,0,0,6.55-1.07c6.55-2.13,9.43-6.3,10.7-9.43,3-7.35.81-17.27-7.06-32.17-12-22.7-37.14-40.9-38.2-41.66l-11.83-8.49Z"/><path class="g" d="M212.23,399.28c-6.46,0-16.51-3.34-31.73-8.4-3.54-1.18-7.33-2.43-11.34-3.74-27.61-9-50-28-51-28.83l-7.79-6.68,10.26-.35c.06,0,1.53,0,4.08,0,10,0,35.7.77,57.68,7.91,23,7.48,34.95,19.38,38.17,27.3,1.67,4.13,1,7,.11,8.63C219.67,397,217.38,399.28,212.23,399.28Z"/><path class="h" d="M124.72,355.23c9.59,0,34.93.72,56.45,7.71,27.16,8.82,39,24.63,36,30.26-.76,1.44-2.41,2.08-4.91,2.08-7.26,0-21.63-5.38-41.84-11.94-27.16-8.82-49.61-28.06-49.61-28.06s1.43,0,3.94,0m0-8h0c-2.62,0-4.16,0-4.22,0L100,348l15.59,13.36c1,.83,24,20.39,52.35,29.6,4,1.3,7.72,2.53,11.32,3.73,15.59,5.18,25.88,8.6,33,8.6,7.52,0,10.74-4,12-6.35s2.31-6.44.06-12c-4.66-11.48-20.61-23.1-40.64-29.61-22.53-7.31-48.71-8.1-58.92-8.1Z"/><path class="g" d="M124.72,347.66c-2.55,0-4-.05-4.08-.05l-10.26-.36,7.79-6.67c1-.81,23.38-19.87,51-28.83a90.78,90.78,0,0,1,27.74-4.9c11.76,0,20.87,3.42,23.78,8.93a7.06,7.06,0,0,1,.39,6.15c-2.46,6.06-13.06,9.51-38.67,17.82C160.42,346.89,134.74,347.66,124.72,347.66Z"/><path class="h" d="M196.9,310.85c11.43,0,18.41,3.33,20.24,6.8,3,5.63-8.81,9.48-36,18.3-21.52,7-46.86,7.71-56.45,7.71-2.51,0-3.94-.05-3.94-.05s22.45-19.24,49.61-28.06c10.46-3.4,19.35-4.7,26.51-4.7m0-8h0a94.79,94.79,0,0,0-29,5.09c-28.35,9.21-51.38,28.77-52.35,29.6L100,350.9l20.52.71c.06,0,1.6.05,4.22.05,10.21,0,36.39-.79,58.92-8.1,27.64-9,38-12.34,41.14-20.13a11.15,11.15,0,0,0-.56-9.52c-3.66-6.93-13.87-11.06-27.32-11.06Z"/><path class="g" d="M103.29,332.37c-.12-.92-2.76-22.6,8.18-40.08,9.43-15.07,21.11-24.43,30.48-24.43a12.91,12.91,0,0,1,3.81.56,10.69,10.69,0,0,1,7,6.67c2.55,6.85-.28,17.38-8,29.65-10.75,17.17-34.63,30.1-35.64,30.64L104,338.12Z"/><path class="h" d="M142,271.86a8.87,8.87,0,0,1,2.62.38c7.33,2.26,7.13,13.91-3.18,30.38s-34.14,29.23-34.14,29.23-2.7-21,7.61-37.44c9.16-14.62,19.71-22.55,27.09-22.55m0-8c-10.89,0-23.56,9.84-33.87,26.31-11.69,18.67-8.89,41.73-8.76,42.71l1.48,11.51L111,338.9c1-.56,25.84-14,37.14-32,5.91-9.44,12.15-22.86,8.32-33.16a14.63,14.63,0,0,0-9.55-9.1,16.83,16.83,0,0,0-5-.74Z"/><path class="i" d="M89,335.38c-1-.54-24.89-13.47-35.64-30.64-7.68-12.27-10.51-22.8-8-29.65a10.68,10.68,0,0,1,7-6.67,12.79,12.79,0,0,1,3.8-.56c9.37,0,21,9.36,30.48,24.43,10.94,17.48,8.3,39.16,8.19,40.08l-.74,5.75Z"/><path class="h" d="M56.17,271.86c7.38,0,17.94,7.93,27.09,22.55,10.31,16.47,7.61,37.44,7.61,37.44S67,319.08,56.73,302.62s-10.51-28.12-3.18-30.38a8.87,8.87,0,0,1,2.62-.38m0-8h0a16.83,16.83,0,0,0-5,.74,14.63,14.63,0,0,0-9.55,9.1c-2.11,5.69-2.39,16.06,8.32,33.16,11.31,18.06,36.09,31.48,37.14,32l10.23,5.49,1.48-11.51c.13-1,2.93-24-8.76-42.71-10.31-16.47-23-26.31-33.87-26.31Z"/><path class="g" d="M78.22,332.29c-.92-.18-22.74-4.55-36.92-14.29C33.41,312.57,24,304.58,24,297.32a7.37,7.37,0,0,1,3.28-6.24,11.34,11.34,0,0,1,6.54-1.76c7,0,17,4.15,27.55,11.4,14.46,9.94,21,25.45,21.31,26.11l2.87,6.9Z"/><path class="h" d="M33.83,293.32c5.7,0,14.91,3.56,25.29,10.7C72.77,313.4,79,328.36,79,328.36s-21.77-4.28-35.42-13.66-18.31-17.37-14-20.32a7.51,7.51,0,0,1,4.28-1.06m0-8h0A15.21,15.21,0,0,0,25,287.79a11.39,11.39,0,0,0-5,9.53c0,7.23,6.4,15.29,19,24C53.89,331.5,76.5,336,77.45,336.21l14.67,2.88-5.74-13.8c-.29-.7-7.31-17.27-22.73-27.87-11.36-7.8-21.95-12.1-29.82-12.1Z"/><path class="g" d="M95.65,325.22c-.49-.6-11.89-14.87-11.89-29.39,0-17.4,7.53-25.18,15-25.18s15,7.78,15,25.18c0,14.52-11.4,28.79-11.88,29.39l-3.11,3.85Z"/><path class="h" d="M98.76,274.65c6.07,0,11,7.91,11,21.18s-11,26.87-11,26.87-11-13.6-11-26.87,4.93-21.18,11-21.18m0-8c-9.46,0-19,9-19,29.18,0,15.65,11.47,30.28,12.77,31.9l6.23,7.7,6.22-7.7c1.31-1.62,12.77-16.25,12.77-31.9,0-20.16-9.54-29.18-19-29.18Z"/><path class="i" d="M29.58,353.52c-9.79,0-16.57,0-21.51-.56-3.05-.32-11.15-1.18-11.15-7.53,0-8.28,15.62-15,34.82-15,19.81,0,39.69,7.5,40.52,7.82L82.05,342l-9.79,3.73c-.83.32-20.71,7.82-40.52,7.82Z"/><path class="h" d="M31.74,334.41c19.3,0,39.1,7.56,39.1,7.56s-19.8,7.55-39.1,7.55H29.57c-18,0-28.65-.07-28.65-4.09,0-4.17,11.51-11,30.82-11m0-8c-22.14,0-38.82,8.18-38.82,19,0,4.17,2.49,7.77,6.68,9.64a26.6,26.6,0,0,0,8.05,1.87c5.13.54,12,.58,21.92.58h2.17c20.54,0,41.09-7.75,42-8.08L93.27,342l-19.58-7.48c-.86-.33-21.41-8.08-41.95-8.08Z"/><path class="g" d="M32.94,396.12a9.68,9.68,0,0,1-5.58-1.56,7.62,7.62,0,0,1-3.28-6.48c0-6.44,6.47-14.72,17.3-22.16,14.17-9.74,36-14.11,36.92-14.29l7.33-1.44-2.87,6.9c-.27.65-6.84,16.16-21.3,26.1C52.88,389.09,41,396.12,32.94,396.12Z"/><path class="h" d="M79.07,355.55s-6.22,15-19.88,24.35c-11,7.55-20.65,12.22-26.25,12.22a5.81,5.81,0,0,1-3.31-.85c-4.3-3,.36-12.67,14-22.06s35.42-13.66,35.42-13.66M92.2,344.82,77.53,347.7c-1,.19-23.57,4.72-38.41,14.92-12.1,8.31-19,17.59-19,25.46a11.65,11.65,0,0,0,5,9.78,13.55,13.55,0,0,0,7.84,2.26c7.27,0,17.63-4.59,30.78-13.63,15.43-10.6,22.44-27.17,22.74-27.87l5.74-13.8Z"/><path class="i" d="M98.87,415C89.8,415,82.14,402.62,82.14,388s13.24-29,13.8-29.61l2.93-3.12,2.92,3.12c.56.61,13.8,14.93,13.8,29.61S107.93,415,98.87,415Z"/><path class="h" d="M98.87,361.16s12.72,13.6,12.72,26.87S104.94,411,98.87,411,86.14,401.3,86.14,388s12.73-26.87,12.73-26.87m0-11.71L93,355.69C91.5,357.32,78.14,372.06,78.14,388c0,17.05,9.3,30.92,20.73,30.92s20.72-13.87,20.72-30.92c0-16-13.36-30.71-14.88-32.34l-5.84-6.24Z"/><path class="g" d="M164.76,396.06c-8,0-19.94-7-28.52-12.92-14.46-9.94-21-25.45-21.3-26.1l-2.87-6.91,7.33,1.44c.92.18,22.75,4.55,36.92,14.29,10.83,7.45,17.3,15.73,17.3,22.16a7.62,7.62,0,0,1-3.28,6.49A9.67,9.67,0,0,1,164.76,396.06Z"/><path class="h" d="M118.63,355.5s21.77,4.28,35.42,13.66,18.31,19.1,14,22a5.75,5.75,0,0,1-3.31.85c-5.6,0-15.27-4.67-26.25-12.22-13.66-9.38-19.88-24.34-19.88-24.34M105.5,344.77l5.74,13.8c.29.7,7.31,17.27,22.73,27.87,13.16,9,23.52,13.62,30.79,13.62a13.62,13.62,0,0,0,7.84-2.25,11.66,11.66,0,0,0,5-9.79c0-7.86-6.94-17.14-19-25.45-14.84-10.21-37.45-14.73-38.41-14.92l-14.67-2.88Z"/><path class="i" d="M165.89,353.45c-19.82,0-39.69-7.5-40.53-7.82l-9.79-3.74,9.79-3.73c.83-.32,20.71-7.82,40.53-7.82,19.2,0,34.82,6.74,34.82,15,0,6.34-8.1,7.2-11.15,7.53-4.94.52-11.71.56-21.49.56Z"/><path class="h" d="M165.89,334.34c19.31,0,30.82,6.85,30.82,11,0,4-10.66,4.09-28.66,4.09h-2.16c-19.31,0-39.1-7.56-39.1-7.56s19.79-7.55,39.1-7.55m0-8c-20.55,0-41.09,7.75-42,8.08l-19.58,7.47,19.58,7.48c.87.33,21.41,8.08,42,8.08h2.16c9.91,0,16.79,0,21.92-.59A26.64,26.64,0,0,0,198,355c4.19-1.87,6.69-5.48,6.69-9.64,0-10.85-16.69-19-38.82-19Z"/><path class="i" d="M114.86,326.77c.27-.65,6.84-16.16,21.3-26.1,10.55-7.25,20.59-11.4,27.56-11.4a11.34,11.34,0,0,1,6.54,1.76,7.36,7.36,0,0,1,3.28,6.24c0,7.26-9.41,15.25-17.3,20.68-14.17,9.73-36,14.1-36.92,14.28L112,333.67Z"/><path class="h" d="M163.72,293.27a7.51,7.51,0,0,1,4.28,1.06c4.29,2.95-.37,10.93-14,20.32s-35.43,13.66-35.43,13.66,6.23-15,19.88-24.35c10.38-7.13,19.59-10.69,25.29-10.69m0-8h0c-7.88,0-18.47,4.3-29.82,12.1-15.42,10.6-22.44,27.17-22.73,27.87L105.43,339l14.67-2.88c1-.19,23.56-4.72,38.41-14.92,12.63-8.68,19-16.75,19-24a11.44,11.44,0,0,0-5-9.54,15.33,15.33,0,0,0-8.81-2.46Z"/><path class="i" d="M98.81,358c-14.84,0-26-6.55-26-15.23s11.19-15.24,26-15.24,26,6.55,26,15.24S113.65,358,98.81,358Z"/><path class="h" d="M98.81,331.56c12.17,0,22,5,22,11.24S111,354,98.81,354s-22-5-22-11.23,9.86-11.24,22-11.24m0-8a43.08,43.08,0,0,0-19.21,4.17c-6.88,3.5-10.82,9-10.82,15.07s3.94,11.56,10.82,15.07A43.21,43.21,0,0,0,98.81,362,43.18,43.18,0,0,0,118,357.87c6.88-3.51,10.82-9,10.82-15.07S124.9,331.23,118,327.73a43,43,0,0,0-19.21-4.17Z"/><path class="j" d="M72.46-6.18c-3.6,0-6.52,2.31-6.52,5.16,0,4.07,4.17,7.37,9.31,7.37,7.34,0,13.3-4.71,13.3-10.53,0-8.3-8.51-15-19-15-15,0-27.15,18.77-27.15,35.49C42.4,33.22,59.76,33,81.18,33H454.44V-67.9s-314.28-.37-319.65,37.63C107-40.56,84.65-26.48,81.49-19.22"/><path class="j" d="M202.09,3.8c-3.6,0-6.51,2.31-6.51,5.16,0,4.07,4.16,7.37,9.31,7.37,7.34,0,13.3-4.71,13.3-10.53,0-8.3-8.51-15-19-15-15,0-27.15,18.77-27.15,35.49,0,17,17.36,16.69,38.78,16.69H399.07V-37.92S219-34.63,211.13-9.24"/><path class="j" d="M267.59,22.43c-3.6,0-6.52,2.31-6.52,5.16,0,4.07,4.17,7.37,9.31,7.37,7.35,0,13.3-4.72,13.3-10.53,0-8.31-8.5-15-19-15-15,0-27.14,18.77-27.14,35.49,0,16.95,17.36,16.69,38.78,16.69H409.57V-9.29"/><path class="j" d="M356.06-13.18c-3.6,0-6.52,2.31-6.52,5.16,0,4.07,4.17,7.37,9.31,7.37,7.35,0,13.3-4.71,13.3-10.53,0-8.3-8.51-15-19-15-15,0-27.15,18.77-27.15,35.49,0,17,17.37,16.69,38.78,16.69H518V-64.9s-69.18-4.91-84.75,21c-27-3.13-57.23,3.86-68.2,17.7"/><path class="j" d="M351.86,62.89c-3.6,0-6.52,2.31-6.52,5.15,0,4.07,4.17,7.37,9.32,7.37,7.34,0,13.3-4.71,13.3-10.52,0-8.31-8.51-15-19-15-15,0-27.14,18.77-27.14,35.48,0,17,17.36,16.69,38.78,16.69H513.84V-18.84s-72-9.7-72,36.56c-39.53,0-76.3,15-80.94,32.13"/><path class="j" d="M421.54,90c-3.6,0-6.51,2.31-6.51,5.15,0,4.07,4.16,7.37,9.31,7.37,7.34,0,13.3-4.71,13.3-10.52,0-8.31-8.51-15-19-15-15,0-27.15,18.77-27.15,35.48,0,17,17.36,16.69,38.78,16.69h84.25V58.25"/><path class="j" d="M478,47.16c-2.45,0-4.44,1.58-4.44,3.52,0,2.77,2.84,5,6.35,5,5,0,9.06-3.21,9.06-7.17,0-5.66-5.8-10.25-12.95-10.25-10.22,0-18.5,12.79-18.5,24.18,0,11.55,11.83,11.38,26.43,11.38h29.48V25.54s-29.27-3.24-29.27,12.74"/><path class="k" d="M230.13,486.76,199.36,509c9.33,32.06,26.92,72.6,59.77,103.21s74.53,45.3,107.16,52.34l20-32.26Z"/><path class="k" d="M401.13,459.45c80.46,75,88.56,197.06,88.56,197.06s-122.36.53-202.82-74.44S198.32,385,198.32,385,320.67,384.48,401.13,459.45Z"/><path class="e" d="M198.32,385s18.43,83.77,114.53,170.33c101,91,176.84,101.17,176.84,101.17"/><path class="h" d="M353.09,461.66a86.47,86.47,0,0,0-21.4,24.48c-.26-.28-.55-.55-.87-.84l-8.63-7.64a32.25,32.25,0,0,0-2.9-7.31c-2.24-4.08-7.28-9.75-12.78-10.63a4.5,4.5,0,0,0-3.78.79l-8.07-7.14a35.51,35.51,0,0,0-4.59-6.49,15.53,15.53,0,0,0-8.21-5c-1.08-1-2.15-1.93-3.22-2.91l-7-6.37a100,100,0,0,1,5.74-16.68c2.16-5.22-11-14.22-14.54-10a33.06,33.06,0,0,0-6.25,12.81l-3.17-2.9c-5.94-5.4-15.75-12.52-19.93-9.09-1.47,1.21,1.66,4.37,4.28,4.43,3,.08,8.91,7.28,11,9.33s4.14,4.07,6.23,6.09a58.32,58.32,0,0,0-.61,7.6c0,1.69.19,3.47.24,5.18a22,22,0,0,1-.33,2.4,1.12,1.12,0,0,0,0,.26,1.34,1.34,0,0,0-.46-.11c-2.44-.19-3.65,1.57-1.33,4.2,4.62,5.25,12.72,7.63,15.78,5.62,2.75-1.81,2.26-6.5,2.25-10.32,1.81,1.7,3.63,3.39,5.46,5.09-.43,1.63-.65,3.39-1.05,4.83a67.49,67.49,0,0,0-2.35,12.35c-.62,7.17-.76,15.84,6.6,25.63,6.82,9.06,22.13,18.29,27.61,13.24.77-.72-1.41-2.79-2.49-2.24-3.46,1.77-10.72-1-15.94-5.73a28.43,28.43,0,0,1-9-14.09c-2.11-8.57-.11-15.78,1.75-22.36.51-1.79,1.07-3.55,1.65-5.3,0,0,0,0,0-.07q4.62,4.21,9.27,8.38c3.29,7.65,4.74,14.79,4.49,21.09-.12,3.15,7.06,6.76,7.55,3.84.68-4.05,1.51-8,2.55-11.87a1.21,1.21,0,0,0,.05-.18q4.94,4.25,10,8.43c.61,4,1.07,7.88,1.53,11.78,1,8.67,1.69,17.2,2.25,25.67q-.24,1.66-.42,3.36a119.12,119.12,0,0,0-.68,13.1c0,3.48-1.39,8.64,2.75,13.3,3.66,4.13,9.74,5.11,8.8,1.27-.21-.88-.52-1.76-.8-2.64v-.49l0-3.47q0-3.23.21-6.37a111.12,111.12,0,0,1,1.25-11.31,90.5,90.5,0,0,1,6.2-21.52,85.37,85.37,0,0,1,26-33.91C367.51,468.39,356.81,458.71,353.09,461.66Zm-41.45,6.06a18.49,18.49,0,0,1,1.13,1.64l-3.49-3.08C309.67,465.86,310.34,466,311.64,467.72Zm13.91,31.66a.3.3,0,0,0,0,.1q-.63-5.42-1.42-10.89l.3.24a13.57,13.57,0,0,0,4.54,2.52A79.45,79.45,0,0,0,325.55,499.38Z"/><path class="h" d="M309.58,436.18c-5.11-1.16-11.85-1.36-11.34,2.75a4.51,4.51,0,0,0,2.39,2.71,39,39,0,0,0,7.9,2.7c1.54.43,3.09.84,4.66,1.32.7.22,1.6.7,2,.83.16.17.22.22.05,0h0a15.47,15.47,0,0,0,4.27,3.8c3.91,2.31,7,1.85,6.93-.39C326.3,444.55,315.93,437.62,309.58,436.18Z"/><path class="h" d="M380.21,490.64c-8.6-2.84-11.26.64-13.17,4.16A29.13,29.13,0,0,0,364,506.68c0,.37,0,.75-.05,1.13-5.44-3.26-10.4-5.31-12.73-3.95-3.48,2-3.11,8.08-2.93,12.76.38,10.13,4.15,24.23,16.17,40.06.73,1,2.2,1.56,1.88.75-3.71-9.5-8.89-19.56-10.81-28.13a43.61,43.61,0,0,1-1.16-10.9c.09-3-.55-10.19,3.76-9.87a14.9,14.9,0,0,1,5.82,2.46c.33,8.22,3,18,7.8,28.7,3.7,8.28,14,29.55,31.36,35.06,7.06,2.24,8.31-1.91,8.72-5.56.46-4.05-.79-9.26-3.71-15.25-5-10.32-15.58-24-29.72-35.72,0-.26,0-.53,0-.78a26.22,26.22,0,0,1,1.89-8.84c1.05-2.58,1.62-7,5.86-6.85,3.86.12,11,5.15,16,9.51,6.91,6.1,12.07,12.73,16.55,18.67,19.49,25.85,29.23,48.77,19.21,58.49-1.6,1.56,6.25,7.74,8.59,7,18.9-5.65,3.38-36.81-19.87-66.71C415.73,514.79,397.64,496.41,380.21,490.64ZM380,524.07a96.29,96.29,0,0,1,15.15,18.72c5.53,9.25,8.18,18.87,3.55,21.93-3.13,2.08-7.47-5.94-9-8.86a133.25,133.25,0,0,1-6.85-15,66.08,66.08,0,0,1-4.35-18.28Z"/><ellipse class="i" cx="303.13" cy="791.57" rx="78.88" ry="155.66" transform="translate(-536.96 678.79) rotate(-61.4)"/><path class="f" d="M192.42,746.93c17.32-17.28,43.5-21.56,67.91-23.25,14.05-1,28.55-1.3,41.76,3.56,17,6.27,29.75,20.29,42.84,32.86s28.61,24.69,46.73,25.37"/><path class="f" d="M195.31,784c9.79-7.75,23-9.16,35.52-9.84,10.37-.56,21-.81,30.93,2.17,10.84,3.24,20.18,10.06,29.52,16.44s19.29,12.57,30.48,14.23,24-2.35,29.43-12.25"/><path class="f" d="M220.06,825.46c10.59-3.66,21.89-4.63,33.07-5.29,9.83-.58,19.73-.95,29.49.37,20.29,2.72,38.91,12.51,58.75,17.55,8.64,2.2,17.71,3.49,26.46,1.82s17.2-6.67,21.36-14.56"/><path class="f" d="M226,753.8l42.94-.13c6.05,0,12.51.09,17.52,3.47,4.13,2.79,6.67,7.44,10.66,10.41s11,3.23,12.84-1.39"/><path class="f" d="M257.39,855.77c28.07-1.79,57.07-3.45,83.56,6,12.21,4.38,23.7,11.07,36.46,13.4s27.93-1.1,34.26-12.43"/><path class="f" d="M158.94,740.43c5.19-11.53,16.31-19.24,27.62-24.89,26.59-13.28,58.09-18.27,86.5-9.53,11.7,3.6,23.92,9.5,35.61,5.85"/><path class="f" d="M194.66,764c17.89-9.53,39-10.36,59.23-11,13.3-.4,26.84-.78,39.64,2.82,13.69,3.85,25.68,12,38.26,18.61s26.83,11.87,40.8,9.2"/><path class="f" d="M224.23,805.94a187.47,187.47,0,0,1,93-3.31c16.51,3.62,32.7,9.52,49.59,10s35.42-5.76,43.53-20.59"/><path class="d" d="M299.49,921.46c29.62-19.32-10.45-29.92-26.64-61.35s-23.31-27.77-39.5-59.2,3.06-48.92-26.66-68.07c-27.4-17.65-34.77,7.36-67.36,7.36s-32.6-8-65.2-8-35.71-10.46-63,7.35c-28.1,18.34-19.9,25.43-34,55.88s-6.82,33.82-20.91,64.27-62.17,44.42-34,62.59c52.86,34.06,65.1-6.38,128-5.4s63.08-1.1,125,9.9C238.47,938,246.82,955.82,299.49,921.46Z"/><path class="e" d="M299.49,921.46c29.62-19.32-10.45-29.92-26.64-61.35s-23.31-27.77-39.5-59.2,3.06-48.92-26.66-68.07c-27.4-17.65-34.77,7.36-67.36,7.36s-32.6-8-65.2-8-35.71-10.46-63,7.35c-28.1,18.34-19.9,25.43-34,55.88s-6.82,33.82-20.91,64.27-62.17,44.42-34,62.59c52.86,34.06,65.1-6.38,128-5.4s63.08-1.1,125,9.9C238.47,938,246.82,955.82,299.49,921.46Z"/><path class="d" d="M255.5,926.52c38.85-28.44,2.41-37.9-17.67-81.66S214.25,804,175.24,775.77c-32.77-23.69-31.64-27.16-72.08-27.16s-39.37,3.22-72,27.1c-37,27.09-40.2,24.58-57.67,67S-75.94,894.15-38.79,921C24.42,966.72,29,938.07,106,950.7,181.8,963.15,192.57,972.6,255.5,926.52Z"/><path class="e" d="M255.5,926.52c38.85-28.44,2.41-37.9-17.67-81.66S214.25,804,175.24,775.77c-32.77-23.69-31.64-27.16-72.08-27.16s-39.37,3.22-72,27.1c-37,27.09-40.2,24.58-57.67,67S-75.94,894.15-38.79,921C24.42,966.72,29,938.07,106,950.7,181.8,963.15,192.57,972.6,255.5,926.52Z"/><path class="d" d="M233.21,913.84c27.16-14.71-16.29-26.25-32.57-52.5s-5.34-37.93-32.57-52.5c-28.91-15.46-32.79,0-65.57,0s-36.74-15.61-65.57,0c-25.6,13.87-14.16,25.43-28.33,50.87s-54,37.13-28.33,50.86c55.76,29.83,64.11-8.91,126.47,1.64C171.07,923.09,177.6,944,233.21,913.84Z"/><path class="e" d="M233.21,913.84c27.16-14.71-16.29-26.25-32.57-52.5s-5.34-37.93-32.57-52.5c-28.91-15.46-32.79,0-65.57,0s-36.74-15.61-65.57,0c-25.6,13.87-14.16,25.43-28.33,50.87s-54,37.13-28.33,50.86c55.76,29.83,64.11-8.91,126.47,1.64C171.07,923.09,177.6,944,233.21,913.84Z"/><circle class="l" cx="395.92" cy="785.92" r="104.08"/><path class="m" d="M357.73,847.83l9.75-11a29.66,29.66,0,0,0,22.33,10.72c19.6,0,35.9-15.5,35.9-61.06,0-33.39-10.84-51.51-30.32-51.51-13.32,0-23.64,11.88-23.64,29.78,0,17.7,8.32,28.84,25.15,28.84,8.81,0,19.85-5.29,29.19-19.24l.63,13.85c-8.54,11.41-21.24,18.57-32.76,18.57-23.54,0-38.74-14.13-38.74-42,0-26,18.34-43.58,40.13-43.58,26.79,0,46.9,21.7,46.9,65.31,0,54.64-24.69,75.65-51.77,75.65A43.08,43.08,0,0,1,357.73,847.83Z"/></svg>