<svg xmlns="http://www.w3.org/2000/svg" width="510" height="900" viewBox="0 0 510 900"><defs><style>.a,.e{fill:#56634a;}.b,.h{fill:#432d1e;}.c{fill:#ffdc82;}.d{fill:#bd645d;}.e,.f,.g,.h,.i,.j,.k{stroke:#432d1e;}.e{stroke-miterlimit:10;}.e,.f,.g,.h,.i{stroke-width:8px;}.f,.g,.l{fill:#f7a859;}.g,.j{stroke-linecap:round;}.i,.j{fill:none;}.j{stroke-width:3px;}.k{fill:#fff;stroke-width:15px;}.k,.l{stroke-miterlimit:2;}.l{stroke:#f7a859;stroke-width:12px;}</style></defs><title>100</title><path class="a" d="M471.07,416.85c0-1.15.3-26.88,4.63-40.31-16.64,7.25-47.66,11.75-49.08,11.95L416,390l7-8.09c.94-1.08,21.49-24.75,36.59-34.83-13.64-3.61-35.44-17.29-36.42-17.9l-8.7-5.48,10.12-1.84c.77-.14,19-3.42,33-3.42a52.35,52.35,0,0,1,9.6.74,45.23,45.23,0,0,1,6,1.83c-5.78-10-11.26-24-11.55-24.78l-4.68-12,10.66,7.26c.81.55,19.84,13.57,26.85,22.36.28.36.64.86,1.06,1.48a151.42,151.42,0,0,1,4.88-18.87L504,285.77l4,10.5c.68,1.77,6.63,17.57,6.83,26.14a66.94,66.94,0,0,1-2.38,14.91,66.77,66.77,0,0,1,13.83,6.07c7.11,4.8,17.18,18.34,18.3,19.87l6.66,9.06-10.88-2.81a151.82,151.82,0,0,1-18.52-6.1c.3.69.52,1.26.67,1.69,3.62,10.65,4.27,33.7,4.3,34.68l.34,12.89-7.58-10.43c-.46-.64-9.28-12.82-14.6-23.11a46.61,46.61,0,0,1-1.73,6.06c-5,12.63-24.48,33.54-25.3,34.43l-7,7.52Z"/><path class="b" d="M465.48,294.79s19.26,13.12,26,21.54a94.91,94.91,0,0,1,9.45,17.15,61,61,0,0,1-2-10.7c-.19-8.13,5.4-25.08,5.4-25.08s6.38,16.67,6.57,24.8c.06,2.69-1.45,13.7-3.79,17.78,4.69.23,14.78,4.92,17,6.42,6.74,4.56,17.32,18.93,17.32,18.93s-17.29-4.46-24-9a61.38,61.38,0,0,1-7.93-7.45,94.29,94.29,0,0,1,9.31,17.22c3.46,10.2,4.09,33.5,4.09,33.5s-13.7-18.86-17.16-29.06a76.84,76.84,0,0,1-2.1-9.92c-.3,8.4-2.78,19.69-4,22.8-4.83,12.08-24.52,33.18-24.52,33.18s.27-28.86,5.09-40.94A78.89,78.89,0,0,1,487,364.33a82.1,82.1,0,0,1-9.57,6.91c-14.74,8.05-51.41,13.29-51.41,13.29s24.24-28,39-36.06a83.2,83.2,0,0,1,11-4.32c-1.3.05-2.58.07-3.82.07a63.07,63.07,0,0,1-9.66-.56c-12.77-2.47-37.19-17.85-37.19-17.85s18.47-3.36,32.32-3.36a48.13,48.13,0,0,1,8.84.67c3.29.64,14.13,4.65,21.36,8.95a77.91,77.91,0,0,1-7.22-7.14c-6.7-8.42-15.16-30.14-15.16-30.14m-16.82-21.14,9.36,24c.54,1.38,3.61,9.16,7.52,17.19a62.92,62.92,0,0,0-7.88-.43c-14.4,0-33,3.34-33.75,3.49l-20.24,3.67,17.4,11c2.07,1.3,17,10.61,30.06,15.83a205.62,205.62,0,0,0-16.81,15.49c-8,8.1-14.06,15.11-14.31,15.4l-14,16.18,21.19-3c.38-.05,9.56-1.37,20.69-3.72A203.59,203.59,0,0,0,470,383c-2.65,13.78-2.9,31.4-2.93,33.84l-.18,20.58,14-15c2-2.15,18.79-20.34,25.08-33.38,4.64,7.63,9.52,14.42,10.39,15.62l15.16,20.87-.69-25.79c-.05-2.1-.55-18.11-2.91-29.73,5.59,1.9,10.49,3.19,11.47,3.44L561.19,379l-13.33-18.11c-1.16-1.58-11.62-15.64-19.28-20.82a66.71,66.71,0,0,0-11.3-5.35,66,66,0,0,0,1.6-12.4c-.21-9.25-6.38-25.64-7.09-27.48l-8-21-7,21.35c-.31,1-1.88,5.79-3.31,11.51-8.49-8.27-21.69-17.34-23.43-18.52l-21.32-14.53Z"/><line class="a" x1="441.1" y1="376.32" x2="504.8" y2="341.54"/><path class="b" d="M441.1,376.32c5-3.45,10.17-6.63,15.37-9.72,2.58-1.57,5.22-3.05,7.84-4.57l7.92-4.42,8-4.28c2.69-1.37,5.36-2.8,8.08-4.13,5.42-2.7,10.88-5.31,16.49-7.66-5,3.44-10.16,6.63-15.37,9.72-2.58,1.57-5.22,3-7.84,4.57l-7.92,4.41-8,4.28c-2.7,1.38-5.36,2.8-8.09,4.13C452.17,371.35,446.71,374,441.1,376.32Z"/><line class="a" x1="505.2" y1="316.77" x2="506.39" y2="340.64"/><path class="b" d="M505.2,316.77a32.32,32.32,0,0,1,1.47,5.91,55.89,55.89,0,0,1,.6,11.94,32.28,32.28,0,0,1-.88,6,31.56,31.56,0,0,1-1.48-5.91,55.88,55.88,0,0,1-.58-11.94A32.26,32.26,0,0,1,505.2,316.77Z"/><line class="a" x1="476.97" y1="307.67" x2="506.39" y2="340.64"/><path class="b" d="M477,307.67a104.1,104.1,0,0,1,8.22,7.46c2.63,2.59,5.15,5.28,7.6,8s4.84,5.55,7.11,8.46a102.66,102.66,0,0,1,6.49,9,100.82,100.82,0,0,1-8.23-7.46c-2.63-2.59-5.15-5.28-7.6-8s-4.84-5.56-7.11-8.46A102,102,0,0,1,477,307.67Z"/><line class="a" x1="446.03" y1="329.59" x2="506.39" y2="340.64"/><path class="b" d="M446,329.59c5.14.31,10.23.92,15.3,1.62,2.54.32,5.06.75,7.59,1.13l7.56,1.3L484,335.1c2.5.55,5,1,7.5,1.63,5,1.14,10,2.38,14.88,3.91-5.15-.3-10.24-.9-15.3-1.61-2.54-.32-5.06-.76-7.59-1.13l-7.56-1.31-7.53-1.46c-2.5-.54-5-1-7.5-1.63C455.92,332.37,451,331.13,446,329.59Z"/><line class="a" x1="525.82" y1="354.55" x2="506.37" y2="340.65"/><path class="b" d="M525.82,354.55a32,32,0,0,1-5.54-2.52,55.38,55.38,0,0,1-5.06-3.21,53.85,53.85,0,0,1-4.67-3.74,31.47,31.47,0,0,1-4.18-4.43,31.78,31.78,0,0,1,5.55,2.52,51.92,51.92,0,0,1,5.05,3.21,53.85,53.85,0,0,1,4.67,3.74A32.61,32.61,0,0,1,525.82,354.55Z"/><line class="a" x1="518.21" y1="383.23" x2="506.37" y2="340.65"/><path class="b" d="M518.21,383.23a105.63,105.63,0,0,1-4.08-10.34c-1.22-3.48-2.29-7-3.28-10.55s-1.89-7.12-2.65-10.73a105.26,105.26,0,0,1-1.83-11A102.15,102.15,0,0,1,510.46,351c1.22,3.48,2.29,7,3.28,10.56s1.88,7.12,2.63,10.73A102.27,102.27,0,0,1,518.21,383.23Z"/><line class="a" x1="483.04" y1="397.4" x2="506.37" y2="340.65"/><path class="b" d="M483,397.4c1.37-5,3-9.82,4.75-14.63.85-2.42,1.79-4.8,2.69-7.19l2.84-7.13,3-7.06c1.05-2.33,2.05-4.69,3.15-7,2.14-4.64,4.39-9.25,6.91-13.74-1.36,5-3,9.82-4.75,14.63-.84,2.42-1.79,4.79-2.68,7.19l-2.85,7.12-3,7.07c-1.05,2.33-2.05,4.68-3.15,7C487.8,388.3,485.56,392.91,483,397.4Z"/><path class="c" d="M426.39,756c-.95-.45-9.4-4.44-12.9-7.89a35.49,35.49,0,0,1-4.09-5.53,36.1,36.1,0,0,1-6.52,2.23,20.9,20.9,0,0,1-3.64.27,82.86,82.86,0,0,1-11.45-1.1L376.7,742.1l9.78-5.55c.49-.28,3.09-1.74,6.14-3.16A106.66,106.66,0,0,1,380,722.77l-9.22-9L383.52,716c.8.14,5.52,1,10.33,2.28-2.6-7.21-2.92-21-3-22.64l-.19-10.29,7.09,7.46a115.32,115.32,0,0,1,11.74,14.51c4.53-8.87,12.73-19.48,13.15-20l6.55-8.45.6,10.68c0,.69.77,14.08-.54,24a114.77,114.77,0,0,1,17.91-5.29L457.28,706l-6,8.36c-.93,1.31-9,12.51-15.27,17,4.68,1.67,9.05,3.65,9.79,4l11.73,5.38-12.71,2.2a115,115,0,0,1-15.8,1.6h-.6c1.71,2.9,3,5.58,3.27,6.09l4.89,10.12Z"/><path class="b" d="M425.85,689.71s1.11,19.84-1.56,28.44a44.34,44.34,0,0,1-2.63,5.76,42.19,42.19,0,0,1,5.38-4.84c5.85-3.81,21-7,21-7s-9,12.58-14.86,16.39A50.35,50.35,0,0,1,421.61,733c.92,0,1.8-.05,2.6-.05a26.43,26.43,0,0,1,2.84.11c5.73.74,17.09,6,17.09,6A110.85,110.85,0,0,1,429,740.54a23.57,23.57,0,0,1-2.94-.16,51.14,51.14,0,0,1-10-3.08,33.69,33.69,0,0,1,4.75,3.38c3.11,3.07,7.28,11.68,7.28,11.68s-8.68-4-11.79-7.11c-1-1-4.55-5.81-5.17-8.26-1.89,1.66-7.52,3.62-8.94,3.87a17.15,17.15,0,0,1-2.95.21,79.31,79.31,0,0,1-10.79-1s8.33-4.73,12.62-5.49a22.58,22.58,0,0,1,3.21-.17c.84,0,1.74,0,2.62.08a50.28,50.28,0,0,1-10-3.16c-5.13-2.64-14.07-11.38-14.07-11.38s12.32,2.16,17.45,4.79a42,42,0,0,1,4.51,3,50.27,50.27,0,0,1-6.95-10.28c-2.65-6.45-2.93-21.93-2.93-21.93s10.66,11.22,13.31,17.67a43.36,43.36,0,0,1,1.68,7A44.58,44.58,0,0,1,411,714c2.68-8.59,14.85-24.3,14.85-24.3m6.79-21.81-13.11,16.91a177.93,177.93,0,0,0-10.39,15c-3.57-4.63-7.32-8.65-8.44-9.83l-14.18-14.91.38,20.57a125,125,0,0,0,1.5,17.16c-2-.41-3.51-.69-4.19-.81l-25.42-4.45,18.44,18c.95.92,4.18,4,7.88,7.1l-.61.34L365,744.17l22.17,3.74a84.31,84.31,0,0,0,12.12,1.16,25,25,0,0,0,4.34-.33,33.42,33.42,0,0,0,4.29-1.27,31.87,31.87,0,0,0,2.82,3.48c3.79,3.74,11.69,7.58,14,8.66l20.38,9.5-9.79-20.23-.32-.64c5.3-.46,10.25-1.31,10.53-1.36l25.42-4.4-23.45-10.76c-.63-.29-2.05-.93-3.92-1.71a123.53,123.53,0,0,0,11-13.28l12-16.72-20.13,4.23c-1.6.34-7,1.52-12.53,3.3a176.59,176.59,0,0,0,0-18.27l-1.2-21.37Z"/><path class="d" d="M412.24,267.26c-.37-1.36-8.88-33-7.54-49.23-16.07,13.88-52,29.83-53.6,30.53l-9.79,4.33,4.56-9.69c.74-1.57,17.53-37.12,31.78-52.86-.8,0-1.66.07-2.55.07-16.72,0-45.28-8.41-46.49-8.77l-9.86-2.92,9.25-4.51c1.28-.63,31.75-15.4,47.75-16.73.56,0,1.25-.07,2.05-.07,1.84,0,4.46.13,7.47.4-10.17-9.52-22.1-25.3-22.69-26.09l-7.76-10.3,12.23,4.11c1.1.36,27,9.12,37.78,16.88.73.52,1.82,1.43,3.14,2.6-1.34-10.48-.75-24.32-.72-25l.51-11.22,6.7,9c.54.72,13.13,17.73,16.13,27.54a79.13,79.13,0,0,1,2,18.39c6.36,0,15.37,1.48,18.35,2.47,9.74,3.23,26.45,16.22,27.15,16.77l8.86,6.91-11.23.24s-1.14,0-3,0a160.67,160.67,0,0,1-22-1.32c1.14,1.34,2,2.45,2.52,3.19,7.51,11,15.65,37.06,16,38.16l3.81,12.32-10.12-8c-.76-.6-16.25-12.88-25.53-23.28a63.93,63.93,0,0,1,.09,9.52c-1.7,16-17.18,46.07-17.84,47.35l-4.72,9.14Z"/><path class="b" d="M411.25,120.14s12.68,17.07,15.52,26.33c.93,3.06,2.75,16.17,1.38,21.6a20.77,20.77,0,0,1,4.42-.38A75.86,75.86,0,0,1,449.71,170c9.19,3.06,26,16.13,26,16.13s-1.1,0-2.92,0c-6.15,0-20.43-.27-27.52-2.63a72.12,72.12,0,0,1-11.49-6A113.15,113.15,0,0,1,450,194.24c7.26,10.58,15.47,37.09,15.47,37.09s-21.77-17.21-29-27.79a90.38,90.38,0,0,1-5.61-10.7c2.37,9.73,3.16,23.47,2.73,27.44-1.64,15.4-17.42,45.93-17.42,45.93s-9-33.17-7.35-48.57c.27-2.55,1.88-8.91,4.14-15.53a98.15,98.15,0,0,1-8.74,11c-14.3,14-54.66,31.8-54.66,31.8S368.26,205,382.56,191a97.47,97.47,0,0,1,11.2-8.48,95.33,95.33,0,0,1-15.62,3.78c-.95.07-2,.11-3,.11-16.33,0-45.35-8.6-45.35-8.6s30.89-15.06,46.33-16.34c.45,0,1-.06,1.72-.06a119.61,119.61,0,0,1,25.64,3.44A92.2,92.2,0,0,1,392.88,159c-10.4-7.5-27.1-29.67-27.1-29.67s26.31,8.83,36.71,16.33a113.72,113.72,0,0,1,16.37,16.62,72.23,72.23,0,0,1-5.72-11.63c-2.84-9.26-1.89-30.5-1.89-30.5m-7-22.81-1,22.46c-.06,1.34-.36,8.81,0,16.86-12.16-7.16-32.43-14.07-34.94-14.92l-24.46-8.21,15.52,20.61c1.15,1.53,8.21,10.82,16,19.36h0C359,154.86,329.54,169,326.24,170.62l-18.49,9,19.72,5.85c1.11.32,24.63,7.25,41.95,8.68-13.21,17.79-26.51,45.93-27.17,47.34l-9.11,19.37,19.58-8.65c1.43-.63,29.88-13.26,48-26.05,1,16.88,6.89,39.19,7.69,42.14l5.39,19.85,9.44-18.27c1.69-3.27,16.52-32.34,18.27-48.77h0c8.36,8,17.48,15.31,19,16.49l20.25,16L473.07,229c-.79-2.54-7.22-23-14.09-35.28,4.75.33,9.58.43,13.76.43,1.92,0,3.09,0,3.09,0l22.46-.48-17.71-13.82c-1.82-1.43-18.14-14-28.35-17.42a80.36,80.36,0,0,0-15.64-2.52,79,79,0,0,0-2.17-15.72c-3.15-10.28-15.37-26.89-16.75-28.75l-13.41-18Z"/><line class="d" x1="364.09" y1="230.64" x2="425.91" y2="170.25"/><path class="b" d="M364.09,230.64c4.72-5.48,9.64-10.74,14.64-15.93,2.48-2.62,5-5.16,7.56-7.73l7.67-7.61,7.78-7.49c2.63-2.46,5.23-4.95,7.9-7.37,5.31-4.88,10.69-9.68,16.27-14.26-4.71,5.48-9.64,10.74-14.63,15.93-2.48,2.62-5,5.16-7.56,7.73l-7.67,7.61L388.26,209c-2.63,2.45-5.23,5-7.9,7.37C375.06,221.25,369.68,226.05,364.09,230.64Z"/><line class="d" x1="418.41" y1="141.72" x2="427.45" y2="168.71"/><path class="b" d="M418.41,141.72a46.31,46.31,0,0,1,3.37,6.37c1,2.18,1.81,4.4,2.57,6.65s1.41,4.53,2,6.85a46.35,46.35,0,0,1,1.14,7.12,45.32,45.32,0,0,1-3.38-6.37c-1-2.18-1.81-4.4-2.57-6.65s-1.4-4.53-1.95-6.85A45,45,0,0,1,418.41,141.72Z"/><line class="d" x1="383.1" y1="140.38" x2="427.45" y2="168.71"/><path class="b" d="M383.1,140.38c4,1.84,7.9,3.93,11.71,6.1,1.93,1.07,3.79,2.22,5.68,3.33l5.59,3.47q5.55,3.54,10.91,7.36c3.58,2.55,7.1,5.19,10.46,8.07-4-1.83-7.91-3.92-11.72-6.09s-7.57-4.44-11.26-6.81L399,152.2c-1.81-1.25-3.64-2.46-5.41-3.75C390,145.9,386.46,143.27,383.1,140.38Z"/><line class="d" x1="354.69" y1="175.49" x2="427.45" y2="168.71"/><path class="b" d="M354.69,175.49c6-1.19,12-2.07,18.08-2.86,3-.42,6.05-.73,9.07-1.09l9.09-.93,9.1-.77c3-.2,6.08-.46,9.12-.6,6.08-.34,12.18-.58,18.3-.53-6,1.19-12,2.08-18.08,2.86-3,.42-6.05.73-9.07,1.1l-9.09.92-9.1.77c-3,.2-6.08.45-9.12.59C366.91,175.3,360.81,175.54,354.69,175.49Z"/><line class="d" x1="454.21" y1="178.4" x2="427.44" y2="168.73"/><path class="b" d="M454.21,178.4a46,46,0,0,1-7.09-1.31c-2.31-.6-4.57-1.31-6.81-2.12s-4.42-1.7-6.58-2.72a45.34,45.34,0,0,1-6.29-3.52,44.78,44.78,0,0,1,7.09,1.3c2.31.6,4.57,1.31,6.8,2.12s4.43,1.71,6.59,2.72A46,46,0,0,1,454.21,178.4Z"/><line class="d" x1="454.72" y1="213.73" x2="427.44" y2="168.73"/><path class="b" d="M454.72,213.73c-2.8-3.43-5.36-7-7.82-10.65-1.25-1.8-2.42-3.66-3.62-5.49L439.8,192c-2.29-3.74-4.46-7.55-6.54-11.42s-4.08-7.78-5.82-11.85c2.8,3.42,5.36,7,7.82,10.64s4.83,7.32,7.1,11.08l3.34,5.67c1.07,1.91,2.18,3.81,3.2,5.75C451,205.74,453,209.65,454.72,213.73Z"/><line class="d" x1="418.96" y1="241.3" x2="427.44" y2="168.73"/><path class="b" d="M419,241.3c.09-6.12.47-12.2,1-18.28.22-3,.54-6.06.81-9.1l1-9.08,1.14-9.06c.43-3,.81-6,1.3-9.05.93-6,2-12,3.29-18-.09,6.12-.47,12.2-1,18.28-.21,3-.54,6.06-.81,9.1l-1,9.08-1.14,9.06c-.44,3-.82,6-1.31,9C421.31,229.32,420.28,235.33,419,241.3Z"/><path class="e" d="M511.12,856.39c-52-25.88-147.22-43.21-256.12-43.21-108.11,0-202.77,17.08-255,42.64v48H511.12Z"/><path class="f" d="M511.12,903.83,510,0H429.26S655.87,475.21,325.18,903.83"/><path class="b" d="M368.32,903.83a32.61,32.61,0,0,1-1.7-7.68q-.21-1.92-.27-3.84a21.46,21.46,0,0,1,.14-3.84c.32-2.57,1.12-5.13,1.27-7.69a30.61,30.61,0,0,0-.56-7.68,56,56,0,0,1-1-7.69,73,73,0,0,1-.31-7.68,68.7,68.7,0,0,1,.7-7.68,46.19,46.19,0,0,1,1.72-7.69h.5a47.25,47.25,0,0,1,1.73,7.69,71.12,71.12,0,0,1,.69,7.68,73,73,0,0,1-.31,7.68,54.48,54.48,0,0,1-1,7.69,30.61,30.61,0,0,0-.56,7.68c.15,2.56.95,5.12,1.28,7.69a22.42,22.42,0,0,1,.13,3.84c0,1.28-.13,2.56-.27,3.84a32.61,32.61,0,0,1-1.7,7.68Z"/><path class="b" d="M406.06,903.83c-.49-2.65-.81-5.3-1.08-8s-.47-5.29-.61-7.94-.24-5.3-.28-8,0-5.3.14-8c.32-5.3,1.13-10.6,1.28-15.9a134.13,134.13,0,0,0-.56-15.9c-.21-2.65-.49-5.3-.64-8s-.26-5.29-.36-7.94c-.18-5.3-.38-10.6-.31-15.9s.32-10.6.71-15.9.86-10.6,1.71-15.9h.5c.86,5.3,1.33,10.6,1.72,15.9s.61,10.6.7,15.9-.12,10.6-.3,15.9c-.1,2.65-.19,5.3-.36,7.94s-.43,5.3-.64,8a134.13,134.13,0,0,0-.56,15.9c.15,5.3,1,10.6,1.28,15.9.16,2.65.2,5.3.14,8s-.13,5.3-.28,8-.33,5.29-.61,7.94-.59,5.3-1.09,8Z"/><path class="b" d="M447.78,903.83c-.95-9-1.37-18.05-1.69-27.07l-.18-6.77-.09-6.77c-.09-4.51,0-9,.13-13.54.32-9,1.13-18,1.28-27.07s-.1-18.05-.57-27.08c-.21-4.51-.48-9-.63-13.54s-.27-9-.36-13.53c-.18-9-.39-18.05-.31-27.08s.32-18,.7-27.07.87-18,1.72-27.08h.5c.85,9,1.33,18,1.72,27.08s.61,18.05.7,27.07-.12,18-.31,27.08c-.09,4.51-.18,9-.35,13.53s-.43,9-.64,13.54c-.47,9-.72,18.05-.56,27.08s1,18,1.27,27.07c.16,4.52.22,9,.14,13.54l-.09,6.77-.19,6.77c-.31,9-.73,18-1.69,27.07Z"/><line class="c" x1="482.93" y1="905.64" x2="484.93" y2="576.49"/><path class="b" d="M482.68,905.64c-.87-13.72-1.21-27.44-1.44-41.16l-.12-10.28,0-10.29c0-6.86.07-13.71.26-20.57.4-13.71,1.3-27.42,1.52-41.14q.17-10.28.09-20.57c0-6.86-.27-13.72-.4-20.57s-.4-13.72-.51-20.58-.18-13.72-.23-20.57c-.12-13.72-.18-27.43-.06-41.15s.47-27.43.95-41.14,1.08-27.42,2-41.13h.5c.73,13.72,1.18,27.44,1.47,41.16s.41,27.43.45,41.14-.27,27.43-.56,41.15c-.13,6.85-.26,13.71-.48,20.56s-.51,13.72-.76,20.57-.53,13.71-.64,20.57-.2,13.72-.17,20.57c.06,13.72.79,27.44,1,41.15q.17,10.29,0,20.58l-.15,10.28-.25,10.29c-.4,13.71-.9,27.42-1.94,41.13Z"/><path class="a" d="M400.7,157c-.91-1.41-22.25-34.66-26-53,0-.24-.1-.51-.15-.8-12.15,21.11-48.17,53.06-49.73,54.45l-8,7.08,1.4-10.6c.27-2.07,6.68-49.8,17.41-71.66l-.74.32c-17.27,7.11-56.78,8-58.45,8l-10.28.2,7.44-7.1c1.21-1.15,29.87-28.36,47.14-35.47a88.22,88.22,0,0,1,12.6-3.41C318.46,38.38,298,23.91,297,23.21l-10.52-7.46,12.9.2c1.35,0,33.26.6,47.93,5.41a62.91,62.91,0,0,1,6.07,2.54C347.88,12.71,343.2-4.52,343-5.37l-2.92-10.86,9.12,6.57C350-9,370,5.4,376.77,15.18c1.88,2.71,6.75,12.57,8.89,20.29a93.57,93.57,0,0,1,21.63-3.95h.17c11.9.15,35,8.68,36,9L454,44.46l-10.64,3.63c-.83.29-17.75,6-30.12,7.68a64.64,64.64,0,0,1,5.5,3.61C430.94,68.86,449.23,95,450,96.14l7.37,10.58-12.07-4.56c-1.11-.42-24.54-9.31-38.38-17.92a87.8,87.8,0,0,1,4.2,12.37c3.74,18.29-2.83,57.25-3.11,58.9l-1.74,10.14Z"/><path class="b" d="M346.83-6.41S367,8.13,373.48,17.45c2.13,3.08,8.81,17.07,9.2,23.62,5.6-3.29,20.67-5.55,24.61-5.55h.12c11.34.15,34.68,8.79,34.68,8.79s-23.13,7.9-34.59,7.9h-.3a84.91,84.91,0,0,1-14.94-2.61c8.9,3.45,20.91,10.49,24,12.93,11.84,9.23,30.42,35.89,30.42,35.89s-30.4-11.48-42.25-20.7a107.89,107.89,0,0,1-10.05-10c6.1,10,11.85,25.06,12.78,29.64,3.64,17.77-3.14,57.43-3.14,57.43s-21.8-33.82-25.43-51.59c-.6-2.93-1.07-10.61-.89-18.79a114.05,114.05,0,0,1-5.85,15.37c-11,20.66-49.71,54.87-49.71,54.87S329,103.49,340,82.83a115.29,115.29,0,0,1,9.49-13.44c-6.69,4.72-13.32,8.61-16.09,9.75-16.77,6.91-57,7.7-57,7.7s29.13-27.76,45.9-34.67c4.32-1.77,20-5.4,31.73-5.94a106.93,106.93,0,0,1-13.87-2.78C325.85,38.77,299.35,20,299.35,20s32.49.53,46.76,5.21c3.77,1.24,16.32,7.27,24.15,12.73A85.18,85.18,0,0,1,359.76,27c-6.45-9.33-12.93-33.36-12.93-33.36M333.26-26l5.85,21.71c.44,1.64,3.15,11.51,6.87,21.11-16.06-4.28-45.2-4.8-46.5-4.83l-25.79-.41,21,14.94c.79.56,14.14,10,27.3,17.3-1.12.36-2.07.69-2.82,1-17.95,7.4-47.14,35.1-48.37,36.28L255.94,95.24l20.57-.4c1.48,0,32.27-.7,52-5.77-8.89,24.31-14.05,62.72-14.29,64.58l-2.81,21.22,16-14.18c1.41-1.24,30.4-27,45.61-47.91,6.82,19.23,23.45,45.15,24.26,46.4l11.14,17.29L412,156.19c.29-1.68,7-41.36,3.09-60.38-.16-.79-.41-1.77-.75-2.89,13.4,6.84,28.7,12.64,29.6,13L468,115,453.28,93.85c-.74-1.07-17.44-24.95-29.95-35.88,10-2.28,19.75-5.54,21.35-6.09L466,44.62l-21.08-7.81c-2.52-.94-25-9.13-37.36-9.29h-.22a95.57,95.57,0,0,0-19,3,94.3,94.3,0,0,0-8.24-17.62c-7-10.17-26.37-24.24-28.55-25.81L333.26-26Z"/><line class="a" x1="333.41" y1="133.6" x2="380.97" y2="44.29"/><path class="b" d="M333.41,133.6c3.42-7.73,7.09-15.33,10.86-22.87,1.86-3.79,3.81-7.53,5.72-11.29l5.88-11.2,6-11.13c2.05-3.68,4.06-7.39,6.16-11,4.16-7.34,8.41-14.63,12.93-21.78-3.42,7.74-7.09,15.33-10.86,22.88-1.86,3.79-3.82,7.52-5.72,11.28l-5.88,11.2-6,11.13c-2.05,3.68-4.06,7.39-6.16,11C342.17,119.16,337.92,126.45,333.41,133.6Z"/><line class="a" x1="362.47" y1="15.12" x2="382.13" y2="42.03"/><path class="b" d="M362.47,15.12a62.91,62.91,0,0,1,5.86,6c1.82,2.11,3.54,4.29,5.18,6.53s3.2,4.55,4.66,6.92a60.44,60.44,0,0,1,4,7.42,63,63,0,0,1-5.87-6q-2.72-3.16-5.17-6.54c-1.64-2.24-3.19-4.54-4.65-6.92A60.5,60.5,0,0,1,362.47,15.12Z"/><line class="a" x1="322.6" y1="26.15" x2="382.13" y2="42.03"/><path class="b" d="M322.6,26.15c5.12.73,10.17,1.74,15.18,2.85,2.52.53,5,1.16,7.51,1.74l7.46,1.91,7.42,2.06c2.46.74,4.94,1.43,7.38,2.22,4.91,1.54,9.78,3.18,14.58,5.1C377,41.31,372,40.31,367,39.19c-2.52-.52-5-1.16-7.51-1.74L352,35.54l-7.42-2.06c-2.46-.74-4.93-1.43-7.38-2.23C332.28,29.71,327.4,28.08,322.6,26.15Z"/><line class="a" x1="303.36" y1="75.4" x2="382.13" y2="42.03"/><path class="b" d="M303.36,75.4C309.68,72.05,316.12,69,322.6,66c3.23-1.51,6.5-2.93,9.75-4.4l9.81-4.25L352,53.24c3.31-1.32,6.61-2.68,9.94-3.94,6.65-2.58,13.35-5.06,20.15-7.27-6.32,3.36-12.75,6.44-19.23,9.42-3.23,1.52-6.5,2.94-9.75,4.4l-9.82,4.25-9.88,4.09c-3.31,1.32-6.61,2.68-9.94,3.94C316.86,70.71,310.17,73.19,303.36,75.4Z"/><line class="a" x1="415.43" y1="43.35" x2="382.12" y2="42.05"/><path class="b" d="M415.43,43.35a62.81,62.81,0,0,1-8.37.85c-2.79.11-5.57.1-8.34,0s-5.55-.32-8.32-.65a59.77,59.77,0,0,1-8.28-1.5,61.18,61.18,0,0,1,8.38-.85c2.78-.12,5.56-.11,8.33,0s5.55.32,8.32.65A59.77,59.77,0,0,1,415.43,43.35Z"/><line class="a" x1="428.53" y1="82.58" x2="382.12" y2="42.05"/><path class="b" d="M428.53,82.58c-4.28-2.91-8.36-6-12.37-9.25-2-1.59-4-3.25-6-4.88l-5.86-5-5.75-5.13c-1.88-1.75-3.79-3.46-5.63-5.25-3.73-3.55-7.38-7.17-10.84-11,4.28,2.91,8.36,6,12.38,9.25,2,1.59,4,3.25,6,4.88l5.85,5,5.75,5.13c1.88,1.75,3.79,3.46,5.64,5.25C421.42,75.11,425.07,78.74,428.53,82.58Z"/><line class="a" x1="398.41" y1="126.04" x2="382.12" y2="42.05"/><path class="b" d="M398.41,126c-2-6.89-3.64-13.82-5.21-20.78-.82-3.47-1.53-7-2.29-10.45L388.8,84.33l-2-10.51c-.6-3.52-1.25-7-1.79-10.55-1.14-7-2.18-14.1-2.93-21.22,2,6.88,3.65,13.82,5.23,20.77.81,3.48,1.52,7,2.28,10.45l2.11,10.49,2,10.51c.59,3.52,1.24,7,1.79,10.55C396.63,111.86,397.67,118.92,398.41,126Z"/><path class="d" d="M210.47,184.8c-.39-2.05-9.4-49.35-6.13-73.49-.21.2-.41.39-.61.55-14.13,12.2-51.34,25.5-52.92,26.06l-9.69,3.44,4.82-9.09c.78-1.48,19.37-36.34,33.51-48.54a86.24,86.24,0,0,1,10.88-7.22c-16.22-1.64-40.2-8.91-41.34-9.26l-12.34-3.77L149,59.61c1.28-.41,31.74-10,47.18-10,1.37,0,3.7.18,6.57.51-8.8-8.86-18.69-23.74-19.17-24.48l-6.21-9.37,10.73,3.34c1,.31,24.53,7.7,34,14.84,2.63,2,10.38,9.8,14.85,16.44,6.41-4.8,16.3-9.63,19.43-10.63,7.51-2.4,20.67-2.9,30.39-2.9,3.92,0,6.53.09,6.64.09l11.23.37L295.7,44.6c-.7.54-14.93,11.33-26.15,16.8a63.32,63.32,0,0,1,6.35,1.69c14.56,5.15,40.18,24.19,41.26,25L327.5,95.8l-12.89-.51c-1.19,0-26.23-1.08-42.08-4.87a86.25,86.25,0,0,1,7.89,10.4C289.76,117,295.83,156,296.08,157.7l1.57,10.16-8-6.44c-1.31-1-32.07-25.85-41.4-42l-.39-.72c-4.86,23.86-28.94,65.57-30,67.38l-5.37,9.25Z"/><path class="b" d="M186.87,23.4s23.76,7.41,32.83,14.22c3,2.25,13.75,13.41,16.19,19.5C240.2,52.18,254,45.18,257.6,44c7.3-2.33,21-2.71,29.18-2.71,3.89,0,6.5.09,6.5.09s-19.81,15.07-30.61,18.52a86,86,0,0,1-15,2.25c9.53.46,23.15,3.34,26.9,4.67,14.15,5,40.2,24.44,40.2,24.44S282.3,90,268.15,85a107,107,0,0,1-12.69-6.26c9,7.57,19.17,20,21.5,24.08,9.06,15.71,15.17,55.48,15.17,55.48s-31.37-25.19-40.43-40.9c-1.5-2.6-4.37-9.73-6.79-17.56a114.07,114.07,0,0,1-.69,16.44c-3.91,23.08-29.82,67.77-29.82,67.77s-9.76-50.73-5.85-73.81a114.49,114.49,0,0,1,4.75-15.75c-4.85,6.6-9.91,12.39-12.18,14.34-13.73,11.85-51.65,25.32-51.65,25.32s18.86-35.55,32.59-47.4c3.54-3,17.29-11.45,28.23-15.66a105.58,105.58,0,0,1-14,1.74h-.16c-15.08,0-45.93-9.41-45.93-9.41s31-9.77,46-9.84h.07c4.05,0,17.76,1.76,26.87,4.45A85.81,85.81,0,0,1,209.68,51c-9.07-6.81-22.81-27.57-22.81-27.57M167.79,9.07,180.2,27.82c.94,1.42,6.63,9.93,13.19,17.86-16.58,1-44.4,9.72-45.64,10.11l-24.6,7.76,24.67,7.52c.93.29,16.59,5,31.37,7.8-.95.69-1.75,1.3-2.35,1.83-14.7,12.68-33.63,48.19-34.43,49.7l-9.65,18.17,19.39-6.88c1.4-.5,30.39-10.86,47.54-21.91-.3,9.63.5,22,2.38,37,2,15.65,4.37,28.24,4.47,28.77l4,21,10.74-18.52c.27-.46,6.69-11.56,13.69-25.69,6.71-13.54,11.54-25,14.44-34.17C262,144.29,286,163.61,287.12,164.54l16,12.88L300,157.09c-.26-1.69-6.45-41.45-16.15-58.27-.4-.69-.95-1.54-1.62-2.5,14.87,2.26,31.22,2.93,32.18,3l25.78,1L319.55,84.88c-1-.78-24.43-18.16-39.76-24.57,8.8-5.33,17-11.49,18.33-12.53L316,34.17l-22.47-.75c-.11,0-2.78-.09-6.76-.09-10,0-23.62.54-31.61,3.09a93.3,93.3,0,0,0-17.28,8.92A93.84,93.84,0,0,0,224.5,31.23c-9.88-7.43-32.68-14.67-35.25-15.47L167.79,9.07Z"/><line class="d" x1="218.39" y1="160.48" x2="235.28" y2="60.72"/><path class="b" d="M218.39,160.48c.79-8.42,1.88-16.78,3.07-25.13.57-4.18,1.24-8.35,1.87-12.52l2-12.48,2.19-12.46c.78-4.14,1.51-8.29,2.35-12.43,1.63-8.27,3.36-16.53,5.38-24.74-.79,8.42-1.88,16.78-3.07,25.13-.56,4.18-1.24,8.35-1.86,12.52l-2,12.48-2.19,12.46c-.78,4.14-1.52,8.29-2.36,12.43C222.14,144,220.41,152.27,218.39,160.48Z"/><line class="d" x1="208.51" y1="38.89" x2="235.67" y2="58.21"/><path class="b" d="M208.51,38.89A62,62,0,0,1,216,42.76c2.39,1.43,4.72,3,7,4.57s4.47,3.3,6.61,5.09a61.54,61.54,0,0,1,6.1,5.79,61.3,61.3,0,0,1-7.47-3.87c-2.39-1.43-4.71-3-7-4.57s-4.46-3.3-6.6-5.09A62.83,62.83,0,0,1,208.51,38.89Z"/><line class="d" x1="174.17" y1="61.96" x2="235.67" y2="58.21"/><path class="b" d="M174.17,62c5.09-.93,10.2-1.57,15.31-2.1,2.55-.3,5.11-.48,7.67-.72l7.68-.55,7.7-.39c2.56-.08,5.13-.21,7.7-.22,5.14-.1,10.28-.08,15.44.23-5.08.93-10.19,1.57-15.3,2.1-2.55.3-5.11.48-7.67.72l-7.68.55-7.7.39c-2.56.07-5.13.2-7.7.21C184.48,62.28,179.34,62.26,174.17,62Z"/><line class="d" x1="171.48" y1="114.76" x2="235.67" y2="58.21"/><path class="b" d="M171.48,114.76c4.94-5.18,10.08-10.14,15.28-15,2.58-2.46,5.24-4.84,7.86-7.26l8-7.13,8.07-7c2.73-2.29,5.43-4.63,8.19-6.88,5.5-4.55,11.06-9,16.82-13.26-4.93,5.18-10.07,10.14-15.27,15-2.58,2.46-5.24,4.84-7.86,7.26l-8,7.13-8.08,7c-2.73,2.3-5.42,4.63-8.19,6.89C182.81,106,177.24,110.51,171.48,114.76Z"/><line class="d" x1="267.68" y1="48.93" x2="235.67" y2="58.23"/><path class="b" d="M267.68,48.93A61,61,0,0,1,260,52.38c-2.6,1-5.24,1.86-7.91,2.64s-5.36,1.45-8.09,2a61.88,61.88,0,0,1-8.33,1.19,60.34,60.34,0,0,1,7.67-3.46c2.61-1,5.25-1.86,7.92-2.63s5.36-1.45,8.09-2A61.89,61.89,0,0,1,267.68,48.93Z"/><line class="d" x1="292.51" y1="82.02" x2="235.67" y2="58.23"/><path class="b" d="M292.51,82c-5-1.41-9.84-3.1-14.66-4.88-2.42-.86-4.8-1.82-7.2-2.74l-7.14-2.9-7.07-3c-2.34-1.07-4.7-2.09-7-3.21-4.65-2.18-9.26-4.46-13.76-7,5,1.4,9.84,3.09,14.66,4.86,2.42.87,4.8,1.83,7.2,2.75l7.14,2.9,7.07,3.05c2.34,1.06,4.69,2.08,7,3.2C283.4,77.18,288,79.46,292.51,82Z"/><line class="d" x1="277.67" y1="132.76" x2="235.67" y2="58.23"/><path class="b" d="M277.67,132.76c-4-5.91-7.83-12-11.52-18.06-1.87-3-3.64-6.13-5.47-9.19l-5.32-9.28-5.18-9.36c-1.67-3.14-3.4-6.26-5-9.43-3.31-6.32-6.52-12.69-9.48-19.21,4,5.9,7.83,12,11.52,18.06,1.87,3,3.64,6.13,5.47,9.19L258,94.76l5.17,9.35c1.68,3.15,3.4,6.27,5,9.44C271.49,119.87,274.71,126.24,277.67,132.76Z"/><path class="c" d="M117.79,137.25c-1.18-1.21-27.63-28.42-37.22-46.79C75.75,105.65,56.79,130.88,56,132l-6.2,8.22-1-10.24c-.14-1.39-3.21-34.21,1.05-49.27a61.34,61.34,0,0,1,3.4-8.29C41.09,78.35,22.93,83.75,22,84L9.65,87.67l8.13-10c.71-.88,17.54-21.52,28.3-28.69.68-.46,1.79-1.09,3.2-1.84-10-2.39-22.17-7.56-22.81-7.83L16.13,34.89l10.8-3.12c.76-.22,18.68-5.35,29-5.35.58,0,1.14,0,1.66,0A77,77,0,0,1,75,30.84a76.32,76.32,0,0,1,8.48-15.79C89.71,7.27,107.26-3.54,108-4l9.58-5.88L113.87.74c-.23.66-4.63,13.15-9.59,22.13a36.6,36.6,0,0,1,3.52-1.12c5.26-1.31,13.54-2,24.59-2,8.48,0,15.38.39,15.67.41l12.88.74-11,6.67c-.81.49-17,10.27-29.65,15.23a61.61,61.61,0,0,1,8.42,3.07c14,7,36.15,31.4,37.09,32.44l6.9,7.63-10.24-1c-1.36-.13-32.77-3.14-47.23-9.82,7.1,19.47,9.36,57.35,9.46,59l.61,10.68Z"/><path class="b" d="M110.1-.58s-6.84,19.52-12.76,26.85A70.63,70.63,0,0,1,88,34.7a110,110,0,0,1,20.8-9.07c5.95-1.48,15.48-1.85,23.63-1.85,8.46,0,15.44.4,15.44.4s-23.11,14-35.22,17A87.28,87.28,0,0,1,101,42.61c9.67,1.16,22.46,5.13,25.93,6.87C140.36,56.23,162.79,81,162.79,81S129.5,77.9,116,71.15a91.2,91.2,0,0,1-12.73-9.07,96.84,96.84,0,0,1,7,11.72c7.85,17.8,10.32,60.66,10.32,60.66s-30-30.73-37.83-48.52a94.43,94.43,0,0,1-3.91-13.11A91,91,0,0,1,77,88.36c-4.1,14.5-24.24,41.2-24.24,41.2s-3.19-33.29.92-47.8C54.75,78,60.44,65.91,66.11,58a89.93,89.93,0,0,1-8.94,7.63C46.79,72.53,20.89,80.18,20.89,80.18s17-21,27.41-27.88A109.32,109.32,0,0,1,69,43.06,78.27,78.27,0,0,1,57.2,44.32l-.73,0C47.07,43.73,28,35.62,28,35.62s18-5.2,27.86-5.2c.5,0,1,0,1.42,0,3.1.19,15.67,3,20.15,6.11.73-5.4,7.12-16.58,9.08-19C92.46,10.23,110.1-.58,110.1-.58m15-18.57L105.92-7.4c-1.93,1.18-19,11.77-25.6,19.94a77.38,77.38,0,0,0-7.6,13.26,77.78,77.78,0,0,0-14.91-3.33c-.61,0-1.25,0-1.91,0-10.66,0-28.12,4.94-30.08,5.51L4.22,34.16,24.9,43c1.18.5,7.69,3.24,15,5.62C29.27,57.31,16.29,73.15,14.68,75.14l-16.27,20,24.74-7.31c1.77-.52,12.39-3.71,22.74-7.86-4.23,15.64-1.41,46.8-1.08,50.33l2,20.48,12.39-16.43c1.78-2.35,15-20.1,22.08-34.95C93,117.49,113.87,139,114.93,140.05l14.94,15.31L128.64,134c-.09-1.51-1.87-31.41-7.29-52.27,15.72,4.8,37.76,7,40.7,7.26l20.48,1.92-13.8-15.25C166.35,73,145.24,50,130.84,42.52,140.88,37.68,150.4,32,152,31l22.08-13.35-25.76-1.49c-.29,0-7.31-.41-15.9-.41a149.74,149.74,0,0,0-20.71,1.16c3.18-7,5.54-13.67,6-14.88l7.43-21.21Z"/><line class="c" x1="112.64" y1="116.28" x2="78.7" y2="39.35"/><path class="b" d="M112.64,116.28c-3.4-6.16-6.53-12.44-9.56-18.76-1.54-3.15-3-6.34-4.47-9.52L94.3,78.42l-4.18-9.65c-1.33-3.24-2.72-6.45-4-9.72-2.63-6.5-5.16-13-7.41-19.7,3.4,6.16,6.52,12.44,9.55,18.76,1.54,3.15,3,6.34,4.47,9.52L97,77.21l4.16,9.65c1.34,3.24,2.73,6.46,4,9.72C107.84,103.08,110.38,109.62,112.64,116.28Z"/><line class="c" x1="50.14" y1="36.46" x2="77.82" y2="37.43"/><path class="b" d="M50.14,36.46a42.91,42.91,0,0,1,7-.94q3.48-.2,6.93-.08c2.31.08,4.61.26,6.91.57a41.64,41.64,0,0,1,6.88,1.42,42.88,42.88,0,0,1-7,.93c-2.32.14-4.63.16-6.93.08s-4.61-.27-6.91-.57A43.76,43.76,0,0,1,50.14,36.46Z"/><line class="c" x1="36.87" y1="68.17" x2="77.82" y2="37.43"/><path class="b" d="M36.87,68.17c3-3.06,6.26-5.88,9.54-8.62,1.62-1.39,3.31-2.69,5-4l5.07-3.91c3.4-2.57,6.89-5,10.43-7.42S74,39.49,77.82,37.43c-3,3.06-6.25,5.88-9.53,8.62s-6.62,5.39-10,8l-5.17,3.78c-1.75,1.21-3.48,2.47-5.27,3.64C44.27,63.8,40.66,66.11,36.87,68.17Z"/><line class="c" x1="59.17" y1="106.03" x2="77.82" y2="37.43"/><path class="b" d="M59.17,106c1-5.88,2.2-11.68,3.54-17.45.64-2.9,1.39-5.77,2.09-8.65l2.25-8.59,2.41-8.56c.85-2.84,1.66-5.69,2.57-8.51C73.8,48.61,75.66,43,77.82,37.43c-.95,5.88-2.19,11.68-3.53,17.45-.64,2.9-1.4,5.77-2.09,8.65l-2.26,8.59-2.41,8.56c-.85,2.83-1.66,5.69-2.57,8.51C63.19,94.85,61.32,100.48,59.17,106Z"/><line class="c" x1="95.78" y1="16.34" x2="77.83" y2="37.44"/><path class="b" d="M95.78,16.34a42.24,42.24,0,0,1-3.6,6,68.39,68.39,0,0,1-4.24,5.48,68.55,68.55,0,0,1-4.73,5.07,42,42,0,0,1-5.38,4.51,41.82,41.82,0,0,1,3.59-6c1.32-1.9,2.74-3.72,4.24-5.48s3.07-3.45,4.73-5.06A43,43,0,0,1,95.78,16.34Z"/><line class="c" x1="128.14" y1="27.93" x2="77.83" y2="37.44"/><path class="b" d="M128.14,27.93c-4.08,1.4-8.21,2.52-12.36,3.52-2.07.54-4.16,1-6.24,1.44l-6.28,1.27c-4.19.8-8.4,1.47-12.64,2.05s-8.48,1-12.79,1.23C81.9,36,86,34.92,90.19,33.91s8.32-1.91,12.52-2.7l6.3-1.1c2.11-.32,4.22-.69,6.34-.95C119.58,28.59,123.83,28.11,128.14,27.93Z"/><line class="c" x1="141.07" y1="69.92" x2="77.83" y2="37.44"/><path class="b" d="M141.07,69.92c-5.55-2.15-11-4.57-16.34-7.08-2.7-1.23-5.35-2.56-8-3.84l-7.95-4-7.86-4.13c-2.6-1.43-5.22-2.81-7.8-4.29-5.17-2.9-10.29-5.9-15.27-9.16,5.55,2.15,11,4.57,16.34,7.08,2.7,1.23,5.35,2.56,8,3.84l7.94,4L118,56.48c2.6,1.43,5.22,2.81,7.79,4.29C131,63.67,136.08,66.66,141.07,69.92Z"/><path class="d" d="M363,885.25c.3-.83,6.5-17.57,13-28.22a64,64,0,0,1-6.26,2c-5.5,1.27-13.82,1.92-24.71,1.92-12.14,0-23.06-.79-23.52-.83l-12.87-.94,11.15-6.5c1-.6,22.69-13.19,38.1-18.51a87.2,87.2,0,0,1-12.25-4.53C329.11,821,303,791.35,301.9,790.09l-6.78-7.74,10.22,1.12c1.67.19,40.94,4.57,57.5,13.2l.72.39c-8.73-22.74-10.84-70.85-10.93-72.93l-.45-10.69,7.35,7.77c1.44,1.52,34.45,36.57,44.67,58.68q.1-.42.21-.78C409.78,761.22,434,730,435,728.69l6.33-8.11.81,10.25c.14,1.67,3.2,41.07-2.17,58.95a87.48,87.48,0,0,1-5.29,11.94c14.56-7.34,38.69-14.09,39.84-14.41L487,783.85l-8.29,9.88c-.87,1-21.42,25.46-34.4,33.82a65.7,65.7,0,0,1-5.8,3.1c12.18,2.75,28.5,10,29.31,10.34l10.27,4.57-10.85,2.94c-.88.24-21.76,5.87-34.11,5.87h0c-.91,0-1.78,0-2.57-.09-3.28-.25-14-2.69-21.35-5.88-2.83,7.49-8.57,16.88-10.68,19.41-7.61,9.14-28.81,21.74-29.71,22.27l-9.68,5.72Z"/><path class="b" d="M356.63,724s35.49,37.54,44.59,59.1a114.1,114.1,0,0,1,4.46,15.84c.55-8.18,1.71-15.78,2.57-18.64,5.2-17.38,29.95-49.11,29.95-49.11s3.19,40.11-2,57.48c-1.34,4.48-8.41,19-15.38,28.38a107.06,107.06,0,0,1,10.9-9c12.62-8.13,43.93-16.84,43.93-16.84s-20.89,24.9-33.51,33c-3.34,2.15-15.93,8.09-25.1,10.73a97.07,97.07,0,0,1,13.82-1.3c.51,0,1,0,1.29,0,11.31.87,34.05,11,34.05,11s-21.11,5.73-33.07,5.73c-.79,0-1.55,0-2.26-.08-3.73-.29-18.8-3.92-24.13-7.73-1,6.48-8.88,19.81-11.28,22.69-7.26,8.71-28.68,21.38-28.68,21.38s8.6-23.35,15.86-32.06a85.24,85.24,0,0,1,11.44-10c-8.29,4.73-21.32,9.62-25.19,10.52-6.07,1.4-15.21,1.81-23.81,1.81-12.14,0-23.23-.82-23.23-.82s28.07-16.37,42.7-19.75a107.35,107.35,0,0,1,14.06-1.53c-11.62-1.58-26.93-6.6-31.07-8.76-16.09-8.37-42.61-38.63-42.61-38.63s40,4.39,56.08,12.77c2.66,1.38,8.91,5.85,15.16,11.15a113.47,113.47,0,0,1-8.25-14.24C358.79,775.58,356.63,724,356.63,724m-8.89-21.05.89,21.39c.08,1.88,1.78,40.59,8.46,65.6-19.22-6.82-49.83-10.24-51.31-10.4l-20.45-2.25,13.56,15.47c1.13,1.29,27.72,31.49,44.94,40.46.71.37,1.62.79,2.71,1.24-13.76,6.09-27.9,14.31-28.74,14.79l-22.29,13,25.73,1.89c.47,0,11.53.84,23.82.84A140.79,140.79,0,0,0,368,863.46c-4.56,9.22-8.14,18.81-8.73,20.41L351.49,905l19.34-11.45c2.32-1.37,22.84-13.65,30.76-23.15a94.15,94.15,0,0,0,9.78-16.81,93.64,93.64,0,0,0,18.87,4.71c.89.07,1.86.1,2.87.1,12.88,0,34.26-5.76,35.16-6l21.7-5.89-20.54-9.14c-1.56-.69-10.93-4.81-20.72-8,13.44-9.76,32.21-32.06,33.05-33.06l16.58-19.76-24.86,6.91c-.93.26-16.68,4.67-30.64,10.29.44-1.09.78-2,1-2.81,5.57-18.6,2.46-58.72,2.32-60.42L444.54,710l-12.65,16.22c-.92,1.17-19.81,25.5-28.32,44-13.27-22.23-39.84-50.44-41.13-51.81l-14.7-15.55Z"/><line class="d" x1="365.93" y1="745.98" x2="405.3" y2="839.19"/><path class="b" d="M365.93,746c3.85,7.53,7.43,15.17,10.91,22.85,1.77,3.83,3.44,7.7,5.15,11.55L387,792l4.85,11.68c1.56,3.92,3.18,7.81,4.69,11.75,3.08,7.85,6.06,15.75,8.77,23.76-3.86-7.52-7.44-15.17-10.92-22.85-1.77-3.83-3.44-7.7-5.16-11.55l-5-11.62-4.84-11.69c-1.57-3.91-3.18-7.81-4.7-11.74C371.62,761.88,368.64,754,365.93,746Z"/><line class="d" x1="439.6" y1="843.21" x2="406.31" y2="841.52"/><path class="b" d="M439.6,843.21a62.56,62.56,0,0,1-8.38.75c-2.78.08-5.56,0-8.34-.1s-5.54-.38-8.3-.74a61.23,61.23,0,0,1-8.27-1.6,61.26,61.26,0,0,1,8.39-.76q4.17-.12,8.33.11c2.78.14,5.55.38,8.31.74A61.09,61.09,0,0,1,439.6,843.21Z"/><line class="d" x1="456.16" y1="805.3" x2="406.31" y2="841.52"/><path class="b" d="M456.16,805.3c-3.79,3.52-7.75,6.8-11.77,10-2,1.62-4.06,3.15-6.09,4.73l-6.18,4.59-6.28,4.47c-2.12,1.44-4.22,2.93-6.38,4.32-4.28,2.84-8.62,5.6-13.15,8.11,3.79-3.52,7.75-6.81,11.78-10,2-1.62,4.05-3.15,6.08-4.73l6.19-4.59,6.28-4.46c2.12-1.45,4.22-2.93,6.38-4.33C447.3,810.57,451.64,807.82,456.16,805.3Z"/><line class="d" x1="430.06" y1="759.33" x2="406.31" y2="841.52"/><path class="b" d="M430.06,759.33c-1.39,7-3.05,14-4.82,20.87-.86,3.46-1.82,6.9-2.73,10.34l-2.88,10.3-3.05,10.25c-1.07,3.4-2.08,6.82-3.21,10.21-2.18,6.78-4.48,13.54-7.06,20.22,1.38-7,3.05-14,4.82-20.87.85-3.47,1.81-6.9,2.72-10.35l2.9-10.29,3-10.25c1.07-3.41,2.09-6.82,3.21-10.21C425.19,772.76,427.48,766,430.06,759.33Z"/><line class="d" x1="384.31" y1="866.54" x2="406.31" y2="841.5"/><path class="b" d="M384.31,866.54a61.32,61.32,0,0,1,4.62-7c1.67-2.24,3.42-4.39,5.25-6.48s3.74-4.11,5.74-6a60.23,60.23,0,0,1,6.39-5.48,61,61,0,0,1-4.62,7c-1.66,2.23-3.42,4.38-5.25,6.47s-3.75,4.1-5.75,6A61.12,61.12,0,0,1,384.31,866.54Z"/><line class="d" x1="345.59" y1="851.99" x2="406.31" y2="841.5"/><path class="b" d="M345.59,852c5-1.49,10-2.68,15-3.77,2.51-.58,5-1,7.55-1.56l7.57-1.39L383.3,844c2.54-.35,5.08-.76,7.63-1.06,5.1-.66,10.21-1.21,15.38-1.47-5,1.49-10,2.68-15,3.77-2.51.58-5,1-7.55,1.56l-7.58,1.39-7.6,1.23c-2.54.36-5.08.76-7.63,1.06C355.87,851.17,350.76,851.72,345.59,852Z"/><line class="d" x1="330.83" y1="801.22" x2="406.31" y2="841.5"/><path class="b" d="M330.83,801.22c6.59,2.81,13,5.88,19.42,9,3.21,1.56,6.37,3.21,9.55,4.81l9.48,5,9.39,5.1c3.11,1.75,6.24,3.46,9.32,5.26,6.19,3.55,12.32,7.19,18.32,11.1-6.59-2.81-13-5.88-19.42-9-3.21-1.55-6.37-3.21-9.55-4.81l-9.48-5-9.39-5.11c-3.11-1.75-6.24-3.45-9.32-5.25C343,808.77,336.83,805.12,330.83,801.22Z"/><path class="c" d="M283.59,265.41a114.44,114.44,0,0,1-7.78-17c-6.59,7.48-17.16,15.73-17.7,16.16l-8.44,6.57,2.06-10.5c.13-.68,2.74-13.83,6.45-23.07a93.52,93.52,0,0,1-13.35.78c-3.06,0-5.22-.09-5.31-.09l-10.28-.44,7.88-6.62c1.23-1,11.87-9.88,19-12.66-4.13-2.78-7.87-5.77-8.51-6.29l-10-8.11,12.86,1a107,107,0,0,1,16.28,2.51c-.93-3.23-1.54-6.15-1.65-6.71l-2.25-11,8.7,7.12c.81.67,8,6.63,10.55,10.83a36.24,36.24,0,0,1,2.6,6.38,42.78,42.78,0,0,1,6.08-.58c.31,0,.58,0,.78,0,4.9.37,13.46,4.11,14.42,4.54l10.28,4.55-10.84,3c-.52.14-3.42.92-6.73,1.55a106.24,106.24,0,0,1,9.57,13.4l6.7,11-11.76-5.3c-.75-.34-5.11-2.32-9.45-4.76.73,7.62-2.37,21.11-2.74,22.67l-2.36,10Z"/><path class="b" d="M269,200.19s7.4,6.06,9.65,9.8c.75,1.23,3,6.76,3,9.28,2.05-1,7.17-1.55,9.14-1.55l.48,0c4.35.32,13.1,4.2,13.1,4.2s-8.14,2.23-12.73,2.23c-.3,0-.58,0-.85,0a32.63,32.63,0,0,1-5.67-1.36,51.43,51.43,0,0,1,8.92,5.54c4.32,3.82,10.81,14.51,10.81,14.51s-11.39-5.14-15.72-9a42.34,42.34,0,0,1-3.62-4.07,50.57,50.57,0,0,1,4.2,11.69c1,6.91-2.59,22-2.59,22s-7.55-13.51-8.52-20.41a41.93,41.93,0,0,1,.11-7.24,43.5,43.5,0,0,1-2.62,5.76c-4.72,7.67-20.4,19.87-20.4,19.87s3.83-19.5,8.55-27.16a42.87,42.87,0,0,1,4-4.93,43.3,43.3,0,0,1-6.41,3.36c-4.16,1.41-11.82,1.67-16.93,1.67-3,0-5.14-.09-5.14-.09s11.85-10,18.45-12.2A50.46,50.46,0,0,1,270,220.56h.5a41.72,41.72,0,0,1-5.26-1.4c-5.36-2.14-15.08-10-15.08-10s12.46,1,17.82,3.12a50.69,50.69,0,0,1,9,5.46,31.57,31.57,0,0,1-3.77-4.45c-2.26-3.73-4.16-13.11-4.16-13.11m-12.33-20.44,4.49,22c0,.2.08.43.14.69-4.74-.79-9.21-1.17-10.53-1.28l-25.73-2,20.07,16.22c.54.44,1.76,1.41,3.37,2.63a123.42,123.42,0,0,0-13.93,10.15L218.8,241.4l20.55.88c.09,0,2.33.1,5.48.1,2.71,0,5.2-.06,7.48-.2a176.56,176.56,0,0,0-4.51,17.72l-4.12,21,16.89-13.15a177.46,177.46,0,0,0,13.78-12c2.31,5.36,5,10.18,5.75,11.61l10,17.95,4.72-20a124,124,0,0,0,2.79-17c1.81.89,3.23,1.54,3.86,1.83l23.53,10.6-13.4-22.05c-.69-1.13-3-4.95-5.89-8.83l.68-.18,21.69-5.92-20.55-9.11c-2.35-1-10.43-4.47-15.75-4.87-.33,0-.68,0-1.08,0,0,0-1.43,0-3.39.2a32.09,32.09,0,0,0-1.87-4.06c-2.75-4.57-9.45-10.23-11.44-11.86l-17.39-14.25Z"/><path class="b" d="M454.87,0a59.13,59.13,0,0,1,1,8.22c.09,1.37.14,2.74.17,4.11a40.27,40.27,0,0,1-.08,4.11c-.19,2.74-.68,5.49-.77,8.23a61.1,61.1,0,0,0,.34,8.22c.3,2.74.52,5.48.6,8.22s.23,5.48.18,8.22a110.21,110.21,0,0,1-1.45,16.45h-.3a110.21,110.21,0,0,1-1.45-16.45c-.05-2.74.07-5.48.18-8.22s.3-5.48.6-8.22a61.1,61.1,0,0,0,.34-8.22c-.09-2.74-.58-5.49-.77-8.23a40.27,40.27,0,0,1-.08-4.11c0-1.37.08-2.74.17-4.11a60.69,60.69,0,0,1,1-8.22Z"/><path class="b" d="M475.81,0c.58,5.43.83,10.86,1,16.29s.26,10.87.08,16.3-.68,10.86-.76,16.29.05,10.86.33,16.29.52,10.87.6,16.3.21,10.86.18,16.29c-.14,10.86-.48,21.72-1.45,32.59h-.3c-1-10.87-1.31-21.73-1.45-32.59,0-5.43.06-10.86.19-16.29s.3-10.87.59-16.3.44-10.86.34-16.29-.58-10.86-.77-16.29-.08-10.87.09-16.3.44-10.86,1-16.29Z"/><path class="b" d="M494.55,0c.54,9.86.84,19.73,1,29.59s.26,19.73.09,29.59L495.23,74c-.15,4.93-.3,9.86-.35,14.8-.11,9.86.08,19.72.34,29.59s.5,19.73.59,29.59.23,19.73.19,29.59c-.13,19.73-.51,39.46-1.45,59.19h-.3c-.95-19.73-1.32-39.46-1.45-59.19,0-9.86.08-19.73.19-29.59s.3-19.73.59-29.59.45-19.73.33-29.59c-.05-4.94-.19-9.87-.35-14.8l-.41-14.8c-.17-9.86-.08-19.72.09-29.59s.47-19.73,1-29.59Z"/><path class="g" d="M98.81,265.45s-34.92-24.34-9.57-59.4c27,26.37,24.22,46.72,24.22,46.72"/><path class="g" d="M103,241.71A105.24,105.24,0,0,1,64.93,217.9c31.28-46.44,6.49-76.42.11-39.38A93.92,93.92,0,0,1,55.26,207,94,94,0,0,1,42,183c-16.92-45.16-43,23.73,56.35,72.37S103,241.71,103,241.71Z"/><path class="f" d="M352.44,599.47a59.65,59.65,0,0,1,14-60.42c42.3-42.82,33.43-73.4,30.6-82.12-9.87-30.48-62.93-51.86-91.54-42.58s-34.66,28.15-45.68,58.23c-4.69,12.78-14.77,58.83,19.49,85.4,23.88,18.51,52.41,108.79,52.41,108.79L287.35,818.46h24.16L376.87,658.9c2.87-7.81-3.89-16.38-11.65-12.09C363.57,644.49,361.79,628.18,352.44,599.47Z"/><path class="g" d="M85.57,240.49a113.47,113.47,0,0,1-44.19-19.81c26.54-54.21-4.35-82.57-5.69-42.07a101.26,101.26,0,0,1-6.25,31.85,101.09,101.09,0,0,1-17.7-23.67c-24.74-45.74-42.43,31.69,70.87,69S85.57,240.49,85.57,240.49Z"/><path class="f" d="M173.69,535.79c0-56.44-16.16-76.19-36.1-76.19s-47-5.06-36.1,76.19c6.17,46.13,11,104.32,26,126l5,156.7h22.15l-.56-169.12C165.73,620.91,173.69,575.38,173.69,535.79Z"/><path class="f" d="M452.85,423.54c-21.26,7.46-84.92-10.74-84.92-10.74-29.75-13.23-69.39-21.3-112.93-21.3-14.33,0-45.94,3.09-48.12,3.41C147.2,400.43,142.49,326,142.49,326s46.87-16.32,81.71-82.87l-8.88-25.61a11.07,11.07,0,0,0-13.27-7.07L102,236.86a49.67,49.67,0,0,0-37,48c0,5.87,2.89,16.73,2.89,16.73s-1.85,13.1,6.81,29.13,9.87,44.64.62,89.32c-5,24.17,4.43,50.35,16.58,70.09,3.24,7.09,8.38,13.82,15.17,20.08,5.56,5.9,10.73,9.84,14.44,11.06h0c30.51,19.63,79,32.33,133.58,32.33,80.94,0,148.43-27.9,163.84-65h0C449.37,440.21,452.85,423.54,452.85,423.54Z"/><path class="g" d="M277.76,484c-3.85,19.21-4.73,52.78,22.59,74,23.88,18.51,52.41,108.79,52.41,108.79L308.35,818.46h24.16L397.87,658.9c2.87-7.81-3.89-16.38-11.65-12.09-1.65-2.32-3.43-18.63-12.78-47.34a59.65,59.65,0,0,1,14-60.42c31.72-32.12,34.67-57.35,33-71.63"/><path class="g" d="M131.86,498.13c-1.13,10-.79,22.4,1.63,37.66,7.3,46,9.53,104.32,22.57,126v156.7h23.55l-.48-169.12c10.09-28.43,9.75-74.62,17-113.55a155.63,155.63,0,0,0,3-30.5"/><path class="h" d="M196.2,212.43s-.9,16.19,18.21,9.1C214.41,221.53,216.65,205.8,196.2,212.43Z"/><path class="g" d="M76.63,290.41s-42.24,5.26-46.85-37.75C67.49,254.19,79,271.19,79,271.19"/><ellipse class="b" cx="119.91" cy="265.45" rx="11.98" ry="10.78"/><path class="b" d="M104.08,261.11a20.17,20.17,0,0,1,3-3.76,21.37,21.37,0,0,1,3.83-3.08,15.51,15.51,0,0,1,4.72-2,11.23,11.23,0,0,1,2.74-.32,21.38,21.38,0,0,1,2.54.17,20.11,20.11,0,0,1,9.3,3.74,19.11,19.11,0,0,1,3.59,3.42,14.63,14.63,0,0,1,2.46,4.21,44.06,44.06,0,0,0-7.74-4.85,29.19,29.19,0,0,0-8.17-2.58c-.7-.1-1.43-.2-2.11-.25a9.68,9.68,0,0,0-1.93.06,17.44,17.44,0,0,0-4,1.09A57.18,57.18,0,0,0,104.08,261.11Z"/><line class="i" x1="131.24" y1="794.87" x2="182.02" y2="789.75"/><path class="b" d="M68.65,307.31H83.3a1.5,1.5,0,0,0,0-3H68.65a1.5,1.5,0,0,0,0,3Z"/><path class="b" d="M69.63,318.05H84.27a1.5,1.5,0,0,0,0-3H69.63a1.5,1.5,0,0,0,0,3Z"/><path class="b" d="M75.49,329.28H89.64a1.5,1.5,0,0,0,0-3H75.49a1.5,1.5,0,0,0,0,3Z"/><path class="b" d="M80.85,344.41h9.28a1.5,1.5,0,0,0,0-3H80.85a1.5,1.5,0,1,0,0,3Z"/><path class="b" d="M83.78,357.59h8.79a1.5,1.5,0,0,0,0-3H83.78a1.5,1.5,0,0,0,0,3Z"/><path class="b" d="M82.81,368.32h8.78a1.5,1.5,0,0,0,0-3H82.81a1.5,1.5,0,0,0,0,3Z"/><path class="b" d="M83.78,382h7.81a1.5,1.5,0,1,0,0-3H83.78a1.5,1.5,0,1,0,0,3Z"/><path class="b" d="M80.37,394.19h8.29a1.5,1.5,0,1,0,0-3H80.37a1.5,1.5,0,0,0,0,3Z"/><path class="j" d="M201,440.7a14.22,14.22,0,0,0-6.62-1,14,14,0,0,0-6.67,2.13"/><path class="j" d="M202.7,431.41a19.4,19.4,0,0,0-9-1.31,19,19,0,0,0-9.1,2.9"/><path class="j" d="M206.15,423a28.08,28.08,0,0,0-13.09-1.89,27.53,27.53,0,0,0-13.17,4.19"/><path class="j" d="M208.46,414.58a34.26,34.26,0,0,0-16-2.3,33.62,33.62,0,0,0-16.12,5.13"/><path class="j" d="M210,407a38.83,38.83,0,0,0-18.08-2.6c-7.28.56-13.72,2.74-18.2,5.8"/><path class="j" d="M363.51,460.54a14.15,14.15,0,0,0-6.05-2.85,13.91,13.91,0,0,0-7,.07"/><path class="j" d="M367.9,452.17a19.39,19.39,0,0,0-8.26-3.9,19.08,19.08,0,0,0-9.55.1"/><path class="j" d="M373.65,445.15a28.08,28.08,0,0,0-11.95-5.64,27.57,27.57,0,0,0-13.82.14"/><path class="j" d="M378.34,437.78a34.34,34.34,0,0,0-14.63-6.91,33.63,33.63,0,0,0-16.92.18"/><path class="j" d="M382,431a38.72,38.72,0,0,0-16.52-7.8c-7.12-1.6-13.92-1.41-19.1.2"/><path class="j" d="M312.75,444.67a14.17,14.17,0,0,0-6.29-2.28,13.87,13.87,0,0,0-7,.73"/><path class="j" d="M316.33,435.92a19.31,19.31,0,0,0-8.59-3.11,19,19,0,0,0-9.5,1"/><path class="j" d="M321.41,428.39A28,28,0,0,0,309,423.9a27.45,27.45,0,0,0-13.75,1.43"/><path class="j" d="M325.38,420.61a34.31,34.31,0,0,0-15.21-5.5,33.61,33.61,0,0,0-16.83,1.76"/><path class="j" d="M328.4,413.49a38.91,38.91,0,0,0-17.18-6.22c-7.24-.93-14-.1-19,2"/><path class="j" d="M260.31,438a14.22,14.22,0,0,0-6.58-1.21,13.86,13.86,0,0,0-6.75,1.87"/><path class="j" d="M262.39,428.76a19.25,19.25,0,0,0-9-1.64,19,19,0,0,0-9.21,2.54"/><path class="j" d="M266.15,420.5a28.06,28.06,0,0,0-13-2.38,27.56,27.56,0,0,0-13.32,3.68"/><path class="j" d="M268.79,412.17a34.37,34.37,0,0,0-15.91-2.92,33.69,33.69,0,0,0-16.31,4.52"/><path class="j" d="M270.59,404.64a38.84,38.84,0,0,0-18-3.29c-7.3.28-13.82,2.22-18.41,5.1"/><circle class="k" cx="395.92" cy="785.92" r="104.08"/><path class="l" d="M329.91,823.83h23.52v-75.6H334.72v-8.52c9.36-1.64,16.15-4.14,21.85-7.54h10.11v91.66h21.2v11h-58Z"/><path class="l" d="M404.37,783.13c0-34.43,12.4-52.89,32.9-52.89s32.91,18.52,32.91,52.89-12.4,53.65-32.91,53.65S404.37,817.56,404.37,783.13Zm53,0c0-30.1-8.12-42.22-20.06-42.22s-20,12.12-20,42.22,8.12,43,20,43S457.33,813.23,457.33,783.13Z"/></svg>