<svg xmlns="http://www.w3.org/2000/svg" width="510" height="900" viewBox="0 0 510 900"><defs><style>.a{fill:#56634a;}.b{fill:#432d1e;}.c{fill:#bd645d;}.d{fill:#ffdc82;}.e{fill:#fff;stroke:#432d1e;stroke-width:15px;}.e,.f{stroke-miterlimit:2;}.f{fill:#f7a859;stroke:#f7a859;stroke-width:12px;}</style></defs><title>103</title><path class="a" d="M362.13,817.05c-.69-.5-17.09-12.52-22.66-20.68a75.85,75.85,0,0,1-7.08-16.17,77.8,77.8,0,0,1-17.16,2.93H315c-9.87-.2-28.9-7.35-29.7-7.65l-10.52-4,10.66-3.56c.64-.21,12.94-4.29,22.9-5.87-1.26-.81-2.26-1.5-2.87-2-10-7.91-24.92-29.53-25.55-30.45L272.6,719l12,4.63c.87.34,18.16,7,29.65,13.84a59.29,59.29,0,0,1-2.63-8.29c-3-15.14,2.63-47.16,2.87-48.52l1.8-10.13,5.51,8.68c.72,1.14,17.27,27.3,20.86,42.64,10.94-17.3,39-41.85,40.24-42.94l8.07-7-1.47,10.6c-.23,1.65-5.44,38.56-13.93,57.18,14.81-5.38,45.75-5.85,47.1-5.86l10.28-.14-7.49,7.05c-1,.94-24.73,23.17-39.05,28.95a59,59,0,0,1-8.37,2.33c12,5.89,27.05,16.7,27.8,17.25l10.47,7.54-12.9-.3c-1.11,0-27.37-.67-39.47-4.72-.74-.25-1.87-.71-3.24-1.33a170.1,170.1,0,0,1,7.62,22.39l2.85,10.87Z"/><path class="b" d="M318.47,681.36s17.68,27.83,20.56,42.42a89,89,0,0,1,.62,15.4,92.36,92.36,0,0,1,4.89-12.56c9.12-16.87,41-44.7,41-44.7s-5.83,41.93-15,58.8a93.17,93.17,0,0,1-7.85,11A89.94,89.94,0,0,1,376,743.78c13.79-5.57,46.76-6,46.76-6s-24,22.59-37.81,28.15c-3.54,1.44-16.43,4.33-26,4.7A87.42,87.42,0,0,1,370.27,773c11.66,3.91,33.27,19.47,33.27,19.47s-26.62-.61-38.29-4.52a108.51,108.51,0,0,1-19.72-10.56,69.22,69.22,0,0,1,8.55,9c5.23,7.68,10.41,27.41,10.41,27.41s-16.48-12-21.71-19.7c-1.73-2.54-7.12-14-7.41-19.4-4.58,2.65-16.82,4.41-20.14,4.41h-.16c-9.29-.18-28.37-7.39-28.37-7.39s18.82-6.29,28.25-6.29h.39a69.94,69.94,0,0,1,12.23,2.22,107.9,107.9,0,0,1-19.63-10.73c-9.66-7.62-24.74-29.58-24.74-29.58s24.85,9.58,34.51,17.2a87.48,87.48,0,0,1,8.19,8.21c-4.95-8.24-9.58-20.61-10.32-24.36-2.88-14.58,2.89-47,2.89-47m-4.28-21.66L310.59,680c-.61,3.43-5.8,33.58-3,49.37-9.78-4.86-19.85-8.78-21.53-9.43L262,710.62l14.61,21.27c1.42,2.07,12.82,18.52,22.57,28-7.32,1.76-13.84,3.9-15,4.3l-21.32,7.12,21,8c2.09.79,20.67,7.7,31.05,7.91h.31A81.21,81.21,0,0,0,329.77,785a75.79,75.79,0,0,0,6.4,13.58C342,807.2,358,819,359.77,820.28l18.16,13.26-5.7-21.75c-.32-1.21-2.09-7.83-4.62-14.91,13.23,3,33.24,3.53,35.75,3.59l25.8.59L408.22,786c-1.46-1.05-10.26-7.33-19.68-12.86,14.76-6.28,37.16-27.12,39.7-29.51l15-14.09-20.57.27c-2.9,0-24.58.43-40.41,3.87,6.94-20.09,11-49.17,11.25-50.64l2.95-21.19-16.13,14.06c-1.12,1-23.22,20.32-36.23,37.12-5.78-15.13-17.32-33.49-18.87-35.94l-11-17.37Z"/><line class="a" x1="376.25" y1="699.15" x2="336.79" y2="772.08"/><path class="b" d="M376.25,699.15c-2.74,6.37-5.74,12.61-8.84,18.79-1.52,3.1-3.14,6.16-4.71,9.23l-4.86,9.16-5,9.08c-1.72,3-3.39,6-5.15,9-3.49,6-7.06,11.89-10.9,17.67,2.74-6.37,5.74-12.6,8.84-18.79,1.52-3.1,3.14-6.15,4.71-9.23l4.86-9.16,5-9.07c1.71-3,3.39-6,5.15-9C368.84,710.86,372.42,704.93,376.25,699.15Z"/><line class="a" x1="308.49" y1="772.66" x2="335.78" y2="773.9"/><path class="b" d="M308.49,772.66a41.61,41.61,0,0,1,6.88-.86c2.28-.12,4.56-.12,6.83,0s4.55.31,6.81.63a43,43,0,0,1,6.77,1.49,40.6,40.6,0,0,1-6.88.87,67.65,67.65,0,0,1-6.83,0c-2.28-.11-4.55-.31-6.81-.63A43,43,0,0,1,308.49,772.66Z"/><line class="a" x1="297.97" y1="740.43" x2="335.78" y2="773.9"/><path class="b" d="M298,740.43c3.56,2.33,6.93,4.87,10.22,7.5,1.67,1.29,3.27,2.66,4.9,4l4.78,4.13c3.15,2.78,6.22,5.66,9.23,8.61s5.94,6,8.68,9.24c-3.57-2.32-6.93-4.86-10.23-7.49s-6.53-5.32-9.67-8.12l-4.67-4.24c-1.52-1.46-3.08-2.88-4.56-4.38C303.64,746.72,300.71,743.69,298,740.43Z"/><line class="a" x1="322.89" y1="704.99" x2="335.78" y2="773.9"/><path class="b" d="M322.89,705c1.68,5.63,3.07,11.31,4.37,17,.67,2.85,1.24,5.71,1.85,8.57l1.7,8.6,1.53,8.63c.45,2.89,1,5.76,1.37,8.66.85,5.78,1.61,11.59,2.07,17.44-1.69-5.63-3.09-11.31-4.38-17-.67-2.85-1.23-5.71-1.85-8.57l-1.69-8.6-1.53-8.63c-.46-2.89-1-5.76-1.37-8.66C324.11,716.65,323.35,710.84,322.89,705Z"/><line class="a" x1="351.76" y1="796.05" x2="335.79" y2="773.89"/><path class="b" d="M351.76,796.05a42.07,42.07,0,0,1-4.95-4.85c-1.51-1.72-2.92-3.51-4.26-5.35s-2.58-3.76-3.73-5.73a41.73,41.73,0,0,1-3-6.23,42.06,42.06,0,0,1,4.95,4.85q2.25,2.58,4.25,5.35t3.73,5.73A43.82,43.82,0,0,1,351.76,796.05Z"/><line class="a" x1="384.49" y1="787.23" x2="335.79" y2="773.89"/><path class="b" d="M384.49,787.23c-4.22-.52-8.37-1.32-12.49-2.21-2.06-.43-4.1-.95-6.15-1.43L359.74,782c-4.06-1.1-8.09-2.33-12.09-3.65s-8-2.75-11.86-4.46c4.22.51,8.36,1.3,12.48,2.2s8.21,1.9,12.26,3l6.07,1.75c2,.63,4,1.22,6,1.91C376.62,784.09,380.59,785.52,384.49,787.23Z"/><line class="a" x1="400.53" y1="746.97" x2="335.79" y2="773.89"/><path class="b" d="M400.53,747c-5.16,2.82-10.43,5.36-15.74,7.81-2.65,1.25-5.33,2.4-8,3.59l-8.06,3.45-8.12,3.29c-2.73,1-5.44,2.14-8.19,3.13-5.48,2-11,4-16.63,5.65,5.15-2.82,10.42-5.37,15.73-7.81,2.65-1.25,5.33-2.4,8-3.6l8.06-3.43,8.12-3.29c2.73-1,5.44-2.14,8.19-3.13C389.37,750.59,394.89,748.64,400.53,747Z"/><path class="a" d="M428.94,189.44c-.65-.47-16.07-11.77-21.31-19.45a71.32,71.32,0,0,1-6.6-15,71.57,71.57,0,0,1-15.93,2.68h-.22c-9.3-.19-27.19-6.91-27.95-7.19l-10.51-4L357.08,143A163,163,0,0,1,378,137.54c-.94-.62-1.69-1.14-2.18-1.53-9.42-7.44-23.42-27.75-24-28.61l-7.3-10.64,12,4.64c.8.31,16.45,6.37,27.24,12.64a51.28,51.28,0,0,1-2.24-7.15c-2.82-14.25,2.46-44.33,2.69-45.6L386,51.16l5.51,8.69c.67,1,15.81,25,19.46,39.49,10.5-16.23,36.31-38.82,37.47-39.84l8.06-7L455,63.07c-.21,1.53-5,35.49-12.84,53.16,14.13-4.88,42.45-5.31,43.7-5.32l10.28-.14-7.49,7c-.94.89-23.23,21.76-36.69,27.2a52.71,52.71,0,0,1-7.21,2c11.15,5.6,24.78,15.38,25.48,15.89l10.47,7.54-12.9-.3c-1,0-25.7-.63-37.09-4.44-.59-.2-1.44-.54-2.47-1a163.07,163.07,0,0,1,6.9,20.44L438,196.07Z"/><path class="b" d="M388.14,62s16.58,26.1,19.28,39.78a84.2,84.2,0,0,1,.59,14.45,86.79,86.79,0,0,1,4.58-11.79c8.55-15.82,38.48-41.91,38.48-41.91s-5.47,39.32-14,55.14a86.28,86.28,0,0,1-7.36,10.28,85,85,0,0,1,12.41-7.41c12.93-5.22,43.85-5.62,43.85-5.62s-22.53,21.18-35.45,26.4c-3.33,1.35-15.41,4.06-24.42,4.4a81.89,81.89,0,0,1,10.65,2.22c10.94,3.67,31.2,18.26,31.2,18.26S443,165.62,432,162a101.79,101.79,0,0,1-18.49-9.9,65,65,0,0,1,8,8.46c4.91,7.2,9.77,25.7,9.77,25.7s-15.45-11.27-20.36-18.48c-1.62-2.37-6.68-13.16-6.95-18.19-4.29,2.49-15.78,4.14-18.89,4.14H385c-8.71-.17-26.6-6.94-26.6-6.94s17.64-5.89,26.49-5.89h.36a66.43,66.43,0,0,1,11.47,2.08,102,102,0,0,1-18.41-10.06c-9.05-7.15-23.19-27.74-23.19-27.74s23.3,9,32.36,16.13a81.87,81.87,0,0,1,7.67,7.7c-4.63-7.73-9-19.33-9.67-22.85C382.73,92.44,388.14,62,388.14,62m-4.28-21.65-3.6,20.25c-.56,3.16-5.25,30.39-2.95,45.52-8.92-4.37-17.84-7.85-19.37-8.44l-24.07-9.28,14.6,21.27c1.31,1.9,11.56,16.69,20.59,25.67-6.52,1.61-12.19,3.47-13.25,3.83l-21.32,7.12,21,7.95c2,.74,19.47,7.25,29.28,7.45h.3a74.34,74.34,0,0,0,13.33-1.86,71.56,71.56,0,0,0,5.9,12.42c5.53,8.11,20.56,19.2,22.25,20.43l18.16,13.26L439,184.18c-.29-1.09-1.83-6.84-4.05-13.18,12.46,2.65,30.44,3.14,32.75,3.19l25.79.59L472.6,159.7c-1.33-1-9.12-6.52-17.66-11.59,13.92-6.35,34.15-25.18,36.48-27.38l15-14.09-20.57.27c-2.67,0-22.32.39-37.14,3.46C455.06,91.51,458.8,65,459,63.62l2.95-21.2L445.81,56.49c-1,.9-21.19,18.55-33.5,34.19-5.54-14.08-16-30.72-17.42-33l-11-17.36Z"/><line class="a" x1="442.33" y1="78.67" x2="405.32" y2="147.07"/><path class="b" d="M442.33,78.67c-2.54,6-5.34,11.85-8.23,17.66-1.42,2.91-2.93,5.78-4.4,8.67l-4.56,8.59-4.69,8.51c-1.62,2.81-3.18,5.65-4.85,8.43-3.27,5.59-6.64,11.14-10.28,16.54,2.54-6,5.33-11.85,8.22-17.66,1.42-2.91,2.94-5.77,4.41-8.66l4.56-8.59,4.7-8.51c1.61-2.81,3.18-5.65,4.84-8.43C435.33,89.62,438.7,84.08,442.33,78.67Z"/><line class="a" x1="378.78" y1="147.61" x2="404.37" y2="148.78"/><path class="b" d="M378.78,147.61a36.88,36.88,0,0,1,6.45-.88,62.51,62.51,0,0,1,6.42,0,59.6,59.6,0,0,1,6.38.61,35.89,35.89,0,0,1,6.34,1.47,36.88,36.88,0,0,1-6.45.88,59.61,59.61,0,0,1-6.41,0q-3.19-.15-6.38-.61A38.09,38.09,0,0,1,378.78,147.61Z"/><line class="a" x1="368.91" y1="117.39" x2="404.37" y2="148.78"/><path class="b" d="M368.91,117.39a117.62,117.62,0,0,1,9.64,7c1.57,1.21,3.07,2.49,4.6,3.74l4.49,3.86c3,2.61,5.83,5.32,8.64,8.09a115.6,115.6,0,0,1,8.09,8.73,117.62,117.62,0,0,1-9.64-7c-3.1-2.46-6.13-5-9.08-7.6l-4.38-4c-1.42-1.37-2.88-2.7-4.26-4.11C374.2,123.33,371.46,120.47,368.91,117.39Z"/><line class="a" x1="392.28" y1="84.15" x2="404.37" y2="148.78"/><path class="b" d="M392.28,84.15c1.62,5.27,3,10.6,4.17,15.94.64,2.67,1.17,5.36,1.76,8l1.59,8.07,1.43,8.09c.43,2.71.9,5.41,1.27,8.12.79,5.43,1.48,10.88,1.87,16.38-1.62-5.27-2.95-10.6-4.17-15.94-.64-2.67-1.17-5.36-1.76-8l-1.59-8.06-1.43-8.1c-.42-2.7-.89-5.4-1.26-8.12C393.37,95.09,392.68,89.65,392.28,84.15Z"/><line class="a" x1="419.36" y1="169.55" x2="404.38" y2="148.76"/><path class="b" d="M419.36,169.55a37.26,37.26,0,0,1-4.7-4.51,63.73,63.73,0,0,1-4-5,61.76,61.76,0,0,1-3.48-5.38,36.59,36.59,0,0,1-2.79-5.89,37.26,37.26,0,0,1,4.7,4.51,58.14,58.14,0,0,1,4,5,61.86,61.86,0,0,1,3.49,5.38A38.38,38.38,0,0,1,419.36,169.55Z"/><line class="a" x1="450.05" y1="161.27" x2="404.38" y2="148.76"/><path class="b" d="M450.05,161.27a117,117,0,0,1-11.72-2c-1.94-.39-3.85-.88-5.78-1.32l-5.73-1.49c-3.81-1-7.58-2.19-11.33-3.44a114.38,114.38,0,0,1-11.11-4.26,117.7,117.7,0,0,1,11.73,2q5.79,1.25,11.5,2.81l5.69,1.64c1.88.6,3.78,1.15,5.64,1.81A117,117,0,0,1,450.05,161.27Z"/><line class="a" x1="465.09" y1="123.52" x2="404.38" y2="148.76"/><path class="b" d="M465.09,123.52c-4.82,2.68-9.75,5.08-14.73,7.39-2.48,1.18-5,2.26-7.49,3.39l-7.56,3.23-7.62,3.08c-2.56,1-5.1,2-7.68,2.92-5.15,1.9-10.33,3.71-15.63,5.23,4.82-2.68,9.75-5.08,14.73-7.39,2.47-1.18,5-2.25,7.49-3.38l7.56-3.23,7.62-3.08c2.56-1,5.1-2,7.69-2.92C454.61,126.86,459.79,125.05,465.09,123.52Z"/><path class="c" d="M263,242.61c.49-.74,10.31-15.65,19.07-24.55a63.88,63.88,0,0,1-6.54.52c-15.45,0-45.95-9.44-47.24-9.84L216,204.91l12.32-3.81c1.14-.36,25.09-7.72,41.31-9.42a87.59,87.59,0,0,1-10.91-7.17c-14.18-12.15-32.91-46.95-33.7-48.43L220.12,127l9.71,3.4c1.57.56,38.83,13.71,53,25.86q.28.24.6.54c-3.36-24.12,5.47-71.46,5.86-73.51l2-10.52,5.4,9.24c1.05,1.8,25.29,43.42,30.23,67.26l.39-.71c9.27-16.21,39.94-41.13,41.24-42.19l8-6.47L375,110.1c-.24,1.65-6.17,40.72-15.44,56.93a87.83,87.83,0,0,1-7.86,10.43c15.84-3.85,40.87-5,42.06-5l12.89-.56-10.31,7.75c-1.08.82-26.63,19.95-41.16,25.16a64.91,64.91,0,0,1-6.35,1.71c11.24,5.43,25.51,16.17,26.21,16.7l9,6.78-11.23.41c-.13,0-3.18.12-7.63.12-9.38,0-22.1-.49-29.41-2.79-3.14-1-13-5.78-19.47-10.56-4.45,6.66-12.16,14.51-14.79,16.5-9.48,7.17-33,14.65-34,15L256.8,252Z"/><path class="b" d="M293.24,84.05s26.08,44.59,30.07,67.65a114.25,114.25,0,0,1,.76,16.44c2.39-7.84,5.23-15,6.72-17.58,9-15.74,40.28-41.06,40.28-41.06s-6,39.8-15,55.54c-2.31,4.05-12.48,16.56-21.4,24.16a106.62,106.62,0,0,1,12.66-6.31c14.13-5.06,46.6-6.46,46.6-6.46S368,196,353.85,201c-3.74,1.34-17.35,4.28-26.88,4.78A84.48,84.48,0,0,1,342,208c10.82,3.4,30.68,18.4,30.68,18.4s-3,.12-7.48.12c-8.22,0-21.18-.39-28.21-2.6-3.57-1.13-17.42-8.07-21.75-13-2.42,6.1-13.14,17.3-16.12,19.56-9,6.84-32.77,14.34-32.77,14.34S280,224,289,217.15A84.29,84.29,0,0,1,302.41,210c-9.13,2.73-22.92,4.54-26.9,4.54h0c-15,0-46-9.66-46-9.66s31-9.58,46-9.58h0A106.37,106.37,0,0,1,289.56,197c-11-4.16-24.74-12.52-28.29-15.55-13.77-11.8-32.77-47.27-32.77-47.27s38,13.32,51.74,25.12c2.28,1.94,7.36,7.71,12.24,14.29a113.75,113.75,0,0,1-4.81-15.73c-4-23.06,5.57-73.83,5.57-73.83m-3.9-22.51-4,21c-.1.53-2.47,13.13-4.37,28.78-1.82,15-2.57,27.4-2.24,37-17.19-11-46.22-21.24-47.62-21.73l-19.41-6.81L221.45,138c.8,1.51,19.87,36.94,34.62,49.57.61.53,1.41,1.14,2.36,1.82-14.79,2.83-30.42,7.63-31.34,7.92l-24.65,7.61,24.64,7.67c1.24.38,29.08,9,45.67,9.94-6.53,8-12.19,16.49-13.12,17.91L247.29,259.2l21.44-6.77c2.56-.81,25.33-8.13,35.19-15.6a93.21,93.21,0,0,0,13.33-14.16,93.66,93.66,0,0,0,17.31,8.86c6.26,2,16.56,3,30.61,3,4.53,0,7.65-.12,7.78-.12l22.46-.83L377.47,220c-1.36-1-9.55-7.16-18.38-12.45,15.31-6.47,38.63-24,39.67-24.73l20.63-15.5-25.78,1.11c-1,0-17.31.78-32.17,3.09.67-1,1.21-1.81,1.61-2.51,9.64-16.85,15.68-56.64,15.93-58.32l3-20.35-16,13c-1.15.93-25,20.35-37.53,36.48-2.93-9.18-7.81-20.6-14.57-34.12-7.05-14.1-13.52-25.17-13.79-25.64l-10.8-18.47Z"/><line class="c" x1="297.32" y1="107.6" x2="314.58" y2="207.3"/><path class="b" d="M297.32,107.6c2.05,8.21,3.81,16.46,5.46,24.73.86,4.13,1.61,8.28,2.41,12.42l2.24,12.45,2.08,12.47c.64,4.17,1.33,8.33,1.91,12.51,1.22,8.34,2.34,16.71,3.16,25.12-2.05-8.2-3.81-16.45-5.47-24.72-.85-4.13-1.6-8.28-2.4-12.42l-2.24-12.45-2.07-12.48c-.64-4.17-1.33-8.33-1.92-12.5C299.26,124.38,298.14,116,297.32,107.6Z"/><line class="c" x1="287.9" y1="229.23" x2="314.99" y2="209.81"/><path class="b" d="M287.9,229.23a60.58,60.58,0,0,1,6.09-5.81c2.12-1.8,4.32-3.5,6.58-5.12s4.57-3.15,7-4.59a59.9,59.9,0,0,1,7.46-3.9,60.58,60.58,0,0,1-6.09,5.81c-2.13,1.8-4.32,3.5-6.58,5.12s-4.58,3.15-7,4.59A62.78,62.78,0,0,1,287.9,229.23Z"/><line class="c" x1="253.47" y1="206.29" x2="314.99" y2="209.81"/><path class="b" d="M253.47,206.29c5.16-.32,10.31-.35,15.45-.28,2.57,0,5.13.12,7.7.19l7.7.36,7.68.51c2.56.23,5.12.41,7.68.69,5.11.52,10.22,1.13,15.31,2.05-5.16.33-10.31.36-15.45.29-2.57,0-5.13-.13-7.7-.19l-7.7-.36-7.68-.52c-2.56-.23-5.12-.41-7.67-.69C263.67,207.82,258.56,207.21,253.47,206.29Z"/><line class="c" x1="250.58" y1="153.5" x2="314.99" y2="209.81"/><path class="b" d="M250.58,153.5c5.78,4.23,11.36,8.68,16.87,13.2,2.78,2.24,5.48,4.57,8.22,6.85l8.1,7,8,7.1c2.63,2.41,5.29,4.77,7.89,7.22,5.22,4.86,10.37,9.8,15.33,15-5.78-4.22-11.36-8.67-16.87-13.19-2.78-2.25-5.48-4.57-8.22-6.86l-8.1-7-8-7.11c-2.63-2.4-5.29-4.77-7.88-7.22C260.69,163.6,255.54,158.66,250.58,153.5Z"/><line class="c" x1="347.03" y1="218.97" x2="314.98" y2="209.79"/><path class="b" d="M347,219a62,62,0,0,1-8.34-1.17c-2.73-.55-5.43-1.22-8.1-2s-5.31-1.62-7.92-2.6a60.38,60.38,0,0,1-7.69-3.43,62,62,0,0,1,8.34,1.16c2.73.55,5.43,1.22,8.1,2s5.31,1.63,7.92,2.6A62.49,62.49,0,0,1,347,219Z"/><line class="c" x1="371.73" y1="185.79" x2="314.98" y2="209.79"/><path class="b" d="M371.73,185.79c-4.49,2.57-9.09,4.87-13.73,7.07-2.31,1.13-4.66,2.16-7,3.23l-7.06,3.08-7.12,2.93c-2.4.92-4.77,1.9-7.19,2.77-4.82,1.8-9.67,3.5-14.65,4.92,4.49-2.57,9.09-4.87,13.73-7.08,2.31-1.13,4.67-2.15,7-3.23l7.06-3.07,7.13-2.92c2.4-.93,4.77-1.9,7.19-2.77C361.9,188.92,366.76,187.22,371.73,185.79Z"/><line class="c" x1="356.7" y1="135.1" x2="314.98" y2="209.79"/><path class="b" d="M356.7,135.1c-2.93,6.53-6.13,12.91-9.41,19.24-1.62,3.18-3.33,6.31-5,9.46l-5.14,9.38-5.28,9.3c-1.81,3.07-3.58,6.17-5.44,9.21-3.66,6.12-7.42,12.18-11.45,18.1,2.93-6.53,6.13-12.91,9.41-19.24,1.62-3.18,3.33-6.31,5-9.46l5.14-9.37,5.29-9.3c1.81-3.07,3.57-6.17,5.43-9.21C348.92,147.09,352.68,141,356.7,135.1Z"/><path class="d" d="M353.1,490.14c0-.72.09-14.48,1.92-24.84-1.35,1.09-2.47,1.93-3.21,2.41-11.09,7.2-37.28,14.65-38.39,15L301,486.18l8.25-9.92c.63-.75,13.22-15.82,23.79-24.81-1.56.07-3,.1-4.37.1a40.43,40.43,0,0,1-5.06-.24c-15.85-2.09-45.43-18.27-46.68-19l-9-5,10-2.44c1.1-.26,27-6.53,43.81-6.53a50.84,50.84,0,0,1,5.35.26c-13.4-16.36-28.36-52.48-29-54.09L294,354.71l9.56,4.79c1.55.78,36.47,18.37,51.79,32.95-.52-16.22,9.47-47.22,9.9-48.56l3.17-9.78,4.27,9.36c.6,1.3,14.53,32,15.45,48a64.58,64.58,0,0,1-.55,9.41c9.74-9.88,25.7-21.31,26.49-21.88l10.5-7.5-4.41,12.13c-.4,1.08-9.76,26.65-17.76,37.18-.54.7-1.46,1.75-2.64,3,3.24-.33,7.12-.49,11.59-.49,7.08,0,13.06.41,13.31.43l11.21.78L426.67,431c-.73.51-18,12.62-27.83,15.36a78.68,78.68,0,0,1-15.9,1.62c-.87,0-1.69,0-2.46,0a79.18,79.18,0,0,1-2.9,18.17c-3.47,9.62-16.82,25.92-17.39,26.61l-7.13,8.69Z"/><path class="b" d="M369,345.13s14.21,31.13,15.1,46.53c.22,4-1.23,17.59-4.06,27.15a90.12,90.12,0,0,1,6.1-10.37c7.73-10.17,30.22-26.22,30.22-26.22s-9.46,26-17.19,36.12a112.07,112.07,0,0,1-16.95,15.87A71.67,71.67,0,0,1,394,428.82c4.33-1.21,11.24-1.53,17.37-1.53,7,0,13,.42,13,.42s-17.3,12.19-26.59,14.78A75.27,75.27,0,0,1,382.94,444a26.86,26.86,0,0,1-6.71-.65c1.1,5.47-1.34,18.42-2.42,21.42-3.27,9.07-16.71,25.42-16.71,25.42s.09-21.16,3.36-30.24a72.73,72.73,0,0,1,6.25-11.28,112.8,112.8,0,0,1-17.08,15.73c-10.71,6.95-37.3,14.46-37.3,14.46s17.68-21.24,28.39-28.19a89.59,89.59,0,0,1,10.79-5.31,120.94,120.94,0,0,1-22.84,2.23,38.68,38.68,0,0,1-4.54-.2c-15.29-2-45.28-18.5-45.28-18.5s26.28-6.42,42.86-6.42a42.93,42.93,0,0,1,5.68.33,93.49,93.49,0,0,1,15.35,4.51,96.6,96.6,0,0,1-10.73-9c-13.54-14.59-30.27-55.21-30.27-55.21s39.27,19.69,52.82,34.28a97.53,97.53,0,0,1,8.16,11.36,93.4,93.4,0,0,1-3.37-15.64c-.88-15.4,9.67-47.95,9.67-47.95m-1.26-22-6.35,19.57c-.93,2.89-7.89,24.74-9.69,41.48-17.38-13.6-45-27.52-46.39-28.21l-19.13-9.59,8.14,19.79c.59,1.43,12.43,30,24.69,48.35-17.24.58-41,6.34-42.08,6.6L257,426l18,9.9c3.2,1.76,31.71,17.23,48,19.41-8.19,8.1-15.63,17-16.85,18.43l-16.51,19.83,24.83-7c2.54-.72,23-6.59,35.43-13.11-.76,8-.82,15.38-.83,16.71L349,512.6l14.27-17.37c1.47-1.78,14.42-17.71,18.06-27.79A78.5,78.5,0,0,0,384.26,452a80.21,80.21,0,0,0,15.66-1.76c10.32-2.87,27.16-14.61,29.05-15.94l18.38-12.95-22.43-1.57c-.26,0-6.37-.44-13.59-.44-1.08,0-2.12,0-3.13,0,7.42-11.93,14.79-31.88,15.69-34.36l8.84-24.24-21,15c-1.55,1.1-10.94,7.87-19.63,15.43-1-16.43-14.28-46-15.8-49.33l-8.54-18.72Z"/><line class="d" x1="315.57" y1="377.98" x2="374.12" y2="441.04"/><path class="b" d="M315.57,378c5.34,4.83,10.45,9.86,15.49,15,2.54,2.53,5,5.14,7.5,7.71l7.38,7.83,7.26,7.93c2.38,2.69,4.8,5.33,7.14,8.06,4.72,5.4,9.36,10.88,13.78,16.56-5.34-4.83-10.46-9.87-15.5-15-2.54-2.53-5-5.14-7.5-7.71l-7.37-7.83-7.26-7.94c-2.38-2.69-4.8-5.33-7.14-8C324.64,389.13,320,383.65,315.57,378Z"/><line class="d" x1="365.27" y1="469.04" x2="375.57" y2="442.64"/><path class="b" d="M365.27,469a44.31,44.31,0,0,1,1.48-7c.65-2.28,1.41-4.51,2.27-6.71s1.81-4.37,2.88-6.49a44.17,44.17,0,0,1,3.67-6.17,44.08,44.08,0,0,1-1.48,7q-1,3.42-2.28,6.72c-.86,2.2-1.81,4.36-2.87,6.48A46.2,46.2,0,0,1,365.27,469Z"/><line class="d" x1="330.09" y1="468.66" x2="375.57" y2="442.64"/><path class="b" d="M330.09,468.66c3.48-2.71,7.11-5.16,10.79-7.52,1.83-1.2,3.71-2.31,5.56-3.47l5.64-3.32c3.79-2.18,7.64-4.24,11.54-6.22s7.85-3.87,11.95-5.49c-3.48,2.71-7.11,5.16-10.79,7.52s-7.41,4.63-11.21,6.79l-5.72,3.18c-1.94,1-3.85,2.07-5.81,3C338.14,465.14,334.19,467,330.09,468.66Z"/><line class="d" x1="303.54" y1="432.37" x2="375.57" y2="442.64"/><path class="b" d="M303.54,432.37c6.09.24,12.14.77,18.18,1.41,3,.29,6,.69,9,1l9,1.2,9,1.36c3,.51,6,1,9,1.53,6,1.08,11.93,2.25,17.84,3.73-6.09-.24-12.14-.77-18.17-1.41-3-.29-6-.69-9-1l-9-1.2-9-1.37c-3-.51-6-1-9-1.53C315.42,435,309.46,433.84,303.54,432.37Z"/><line class="d" x1="402.65" y1="434.31" x2="375.56" y2="442.63"/><path class="b" d="M402.65,434.31a44.77,44.77,0,0,1-6.43,3.2c-2.19.9-4.42,1.69-6.67,2.39s-4.55,1.29-6.87,1.77a45.18,45.18,0,0,1-7.12,1,43.81,43.81,0,0,1,6.43-3.21q3.28-1.35,6.68-2.39t6.87-1.77A44.89,44.89,0,0,1,402.65,434.31Z"/><line class="d" x1="404.88" y1="399.2" x2="375.56" y2="442.63"/><path class="b" d="M404.88,399.2c-1.93,4-4.11,7.77-6.37,11.51-1.1,1.88-2.3,3.71-3.45,5.57l-3.6,5.47q-3.66,5.43-7.6,10.67c-2.63,3.5-5.34,6.94-8.3,10.21,1.92-4,4.1-7.77,6.36-11.52s4.6-7.42,7.06-11l3.73-5.38c1.29-1.76,2.54-3.56,3.87-5.29C399.21,405.91,401.92,402.47,404.88,399.2Z"/><line class="d" x1="370.66" y1="370.04" x2="375.56" y2="442.63"/><path class="b" d="M370.66,370c1,6,1.76,12,2.38,18.07.35,3,.58,6,.87,9.05l.69,9.07.54,9.08c.12,3,.3,6.06.36,9.09.19,6.06.27,12.13.06,18.23-1-6-1.77-12-2.4-18.07-.34-3-.57-6-.86-9.06l-.69-9.07-.53-9.08c-.12-3-.3-6.05-.36-9.09C370.53,382.2,370.44,376.13,370.66,370Z"/><path class="d" d="M23.7,103.67a162.9,162.9,0,0,1,13-17.23c-1.12.1-2,.16-2.66.16-12.13,0-35.6-7.15-36.6-7.46l-12.33-3.78L-2.6,71.5c.81-.26,16.83-5.25,29.19-7a53.37,53.37,0,0,1-6.21-4.21C9.32,50.84-5.26,24-5.88,22.87l-4.89-9L-1,17.19C.13,17.6,26.88,26.92,38.75,36,36.87,16.76,43-17,43.3-18.5L45.24-29l5.44,9.21c.79,1.33,18.17,30.9,23,49.61,8-12.62,29.94-30.57,30.9-31.36l8-6.5L111.09,2.12c-.19,1.28-4.64,31.49-11.8,44.12a53.06,53.06,0,0,1-4.38,6.09c12.22-2.56,29-3.38,29.83-3.42l12.89-.61-10.28,7.79c-.83.63-20.52,15.5-31.8,19.6-.59.21-1.47.47-2.55.76a165.57,165.57,0,0,1,18.12,11.71l9,6.74-11.23.46c-.11,0-2.85.12-6.73.12-7,0-16.49-.37-22.05-2.09a71.21,71.21,0,0,1-14.5-7.63,71.35,71.35,0,0,1-11,12.15c-7.39,5.64-25.58,11.51-26.35,11.75l-10.7,3.43Z"/><path class="b" d="M47.24-17.78s20.18,34.19,23.32,51.9a87.53,87.53,0,0,1,.64,12.63,85.48,85.48,0,0,1,5.1-13.53C83.17,21.1,107.13,1.54,107.13,1.54s-4.45,30.6-11.32,42.73C94,47.39,86.26,57,79.43,62.91A81.91,81.91,0,0,1,89.14,58c10.85-3.94,35.79-5.12,35.79-5.12S105,68,94.19,71.93a102.2,102.2,0,0,1-20.65,3.75,64.48,64.48,0,0,1,11.54,1.64c8.33,2.58,23.64,14,23.64,14s-2.73.12-6.57.12c-6.33,0-15.69-.31-20.87-1.91-2.75-.86-13.42-6.15-16.76-9.92-1.84,4.69-10,13.33-12.33,15.08-6.92,5.29-25.14,11.12-25.14,11.12s10.43-16,17.36-21.32A65.19,65.19,0,0,1,54.68,79,101.78,101.78,0,0,1,34,82.6h-.09c-11.57,0-35.33-7.28-35.33-7.28S22.42,67.85,34,67.81h0a82.86,82.86,0,0,1,10.77,1.25c-8.44-3.17-19-9.54-21.79-11.87C12.35,48.17-2.36,21-2.36,21S26.86,31.09,37.49,40.11a85.41,85.41,0,0,1,9.45,11A86.21,86.21,0,0,1,43.19,39C40,21.27,47.24-17.78,47.24-17.78m-4-22.49L39.37-19.22c-.25,1.35-5,27.7-5,47.61C21.32,20.81,2.78,14.28.26,13.41L-19.18,6.68-9.4,24.77c1.53,2.82,14.8,27.06,26,37.47C6.91,64.37-2.23,67.19-3.8,67.68L-28.42,75.4-3.75,83c2.2.67,19.43,5.87,32.09,7.28-4.11,5.32-7.38,10.29-8,11.24L8.08,120.33l21.41-6.86c2-.64,19.76-6.43,27.56-12.39a70.62,70.62,0,0,0,9.51-9.94,71,71,0,0,0,12.35,6.07c4.85,1.5,12.67,2.27,23.24,2.27,4,0,6.78-.12,6.9-.12l22.46-.92L113.51,85c-.9-.68-5.68-4.22-11.37-7.8,11.4-5.68,25.79-16.49,27.63-17.88l20.56-15.59-25.78,1.22c-1.63.08-11.19.57-21,1.91,6.94-13.63,11.07-40.95,11.53-44.13l3-20.35-15.94,13C100-3,84.85,9.54,75.16,21.16c-6.76-18.72-20.34-41.82-21-43L43.24-40.27Z"/><line class="d" x1="50.44" y1="0.31" x2="64.03" y2="76.88"/><path class="b" d="M50.44.31c1.75,6.28,3.2,12.6,4.55,18.94.7,3.17,1.3,6.35,1.94,9.53l1.78,9.56,1.62,9.58c.49,3.21,1,6.4,1.46,9.62C62.7,64,63.51,70.39,64,76.88c-1.75-6.27-3.2-12.59-4.55-18.94-.7-3.16-1.3-6.35-1.94-9.52l-1.78-9.56-1.62-9.59c-.48-3.2-1-6.4-1.45-9.61C51.78,13.24,51,6.8,50.44.31Z"/><line class="d" x1="43.59" y1="93.82" x2="64.35" y2="78.81"/><path class="b" d="M43.59,93.82a37.25,37.25,0,0,1,4.5-4.71,63.82,63.82,0,0,1,10.38-7.5,36.53,36.53,0,0,1,5.88-2.8,37.25,37.25,0,0,1-4.5,4.71,61.79,61.79,0,0,1-5,4A61.86,61.86,0,0,1,49.47,91,38.75,38.75,0,0,1,43.59,93.82Z"/><line class="d" x1="17.06" y1="76.3" x2="64.35" y2="78.81"/><path class="b" d="M17.06,76.3a118.32,118.32,0,0,1,11.88-.54c2,0,3.95,0,5.93.07l5.91.23c3.94.2,7.88.53,11.81,1a118.49,118.49,0,0,1,11.76,1.8,118.52,118.52,0,0,1-11.89.54c-4,0-7.9-.08-11.84-.3l-5.9-.4c-2-.18-3.94-.32-5.9-.56A118.45,118.45,0,0,1,17.06,76.3Z"/><line class="d" x1="14.67" y1="35.74" x2="64.35" y2="78.81"/><path class="b" d="M14.67,35.74c4.55,3.12,8.9,6.46,13.18,9.88,2.16,1.69,4.25,3.46,6.38,5.2l6.26,5.32,6.16,5.44c2,1.86,4.07,3.68,6,5.58,4,3.75,7.93,7.59,11.66,11.65-4.55-3.12-8.91-6.46-13.19-9.88-2.16-1.69-4.25-3.47-6.37-5.2l-6.26-5.32L32.37,53c-2-1.86-4.06-3.68-6-5.58C22.33,43.63,18.4,39.79,14.67,35.74Z"/><line class="d" x1="89" y1="85.75" x2="64.34" y2="78.79"/><path class="b" d="M89,85.75a37.36,37.36,0,0,1-6.48-.61,63.06,63.06,0,0,1-6.26-1.43,60.09,60.09,0,0,1-6.07-2,36.87,36.87,0,0,1-5.85-2.88,37.47,37.47,0,0,1,6.49.61,58.26,58.26,0,0,1,6.25,1.43,62.76,62.76,0,0,1,6.07,2A36.81,36.81,0,0,1,89,85.75Z"/><line class="d" x1="107.88" y1="60.17" x2="64.34" y2="78.79"/><path class="b" d="M107.88,60.17c-3.38,2.12-6.88,4-10.42,5.73-1.76.9-3.57,1.7-5.35,2.56l-5.41,2.4c-3.62,1.56-7.3,3-11,4.35a115.08,115.08,0,0,1-11.35,3.58c3.39-2.12,6.89-4,10.43-5.73s7.12-3.41,10.75-5L91,65.85c1.84-.7,3.67-1.45,5.54-2.1A117.62,117.62,0,0,1,107.88,60.17Z"/><line class="d" x1="96.17" y1="21.26" x2="64.34" y2="78.79"/><path class="b" d="M96.17,21.26c-2.11,5.1-4.48,10-6.94,15-1.2,2.46-2.5,4.87-3.76,7.31l-3.9,7.23-4,7.16c-1.4,2.35-2.75,4.74-4.2,7.07-2.84,4.69-5.78,9.32-9,13.81,2.11-5.09,4.48-10.05,6.94-15,1.2-2.46,2.5-4.87,3.76-7.31L79,49.3l4-7.15c1.39-2.36,2.75-4.74,4.19-7.07C90,30.39,93,25.75,96.17,21.26Z"/><path class="c" d="M380.53,557.83c.49-.74,10.48-15.54,19.33-24.34-2.74.3-5,.45-6.34.45h-.22c-15.44-.18-45.83-9.94-47.11-10.35l-12.28-4L346.28,516c1.13-.34,25.18-7.45,41.4-9a87,87,0,0,1-10.83-7.3c-14.05-12.3-32.39-47.3-33.17-48.78l-4.76-9.12,9.67,3.51c1.58.57,38.69,14.13,52.74,26.43.19.16.39.35.6.55-3.1-24.16,6.24-71.4,6.65-73.45l2.09-10.49,5.31,9.29c1,1.82,24.81,43.69,29.5,67.59.14-.26.27-.5.4-.71,9.45-16.11,40.38-40.7,41.69-41.74l8.07-6.38L494,426.53c-.26,1.66-6.61,40.66-16.06,56.77a87.22,87.22,0,0,1-8,10.34c15.88-3.68,40.93-4.53,42.12-4.57l12.89-.42-10.39,7.64c-1.09.8-26.84,19.66-41.43,24.71-1.27.43-3.54,1-6.37,1.64,11.18,5.55,25.33,16.44,26,17l8.9,6.87-11.24.3s-1.85.05-4.76.05c-8.48,0-23.94-.41-32.25-3.12-3.13-1-13-5.93-19.35-10.77-4.52,6.61-12.32,14.37-15,16.33-9.56,7.08-33.14,14.3-34.14,14.6l-10.75,3.28Z"/><path class="b" d="M412.5,399.61s25.6,44.87,29.35,68a115.68,115.68,0,0,1,.58,16.44c2.47-7.81,5.39-14.92,6.9-17.5,9.18-15.65,40.72-40.62,40.72-40.62s-6.38,39.73-15.56,55.37c-2.36,4-12.66,16.42-21.66,23.93A106.18,106.18,0,0,1,465.55,499c14.19-4.91,46.67-6,46.67-6S486,512.31,471.85,517.22c-3.76,1.3-17.4,4.08-26.93,4.48a85.39,85.39,0,0,1,15,2.35c10.78,3.53,30.48,18.74,30.48,18.74s-1.81.05-4.66.05c-7.73,0-23.13-.35-31-2.92-3.56-1.17-17.34-8.26-21.62-13.23-2.48,6.07-13.32,17.15-16.33,19.38-9.11,6.74-32.92,14-32.92,14s13.88-20.66,23-27.41a84.73,84.73,0,0,1,13.47-7,133.49,133.49,0,0,1-26.8,4.25h-.17c-15-.17-45.93-10.16-45.93-10.16s30.56-9.09,45.73-9.09h.43a108.7,108.7,0,0,1,14,1.84c-10.91-4.28-24.6-12.78-28.11-15.86-13.65-11.94-32.26-47.62-32.26-47.62s37.82,13.73,51.47,25.68c2.25,2,7.27,7.79,12.08,14.42a115,115,0,0,1-4.65-15.78c-3.74-23.1,6.37-73.76,6.37-73.76m-3.65-22.56-4.19,21c-.11.53-2.61,13.1-4.68,28.73-2,15-2.86,27.37-2.64,37-17.07-11.18-46-21.74-47.38-22.25l-19.34-7,9.52,18.24c.78,1.51,19.47,37.15,34.08,49.94.6.53,1.39,1.15,2.34,1.85-14.81,2.66-30.5,7.3-31.42,7.57l-24.73,7.35L345,527.39c1.24.4,29,9.31,45.56,10.44-6.61,7.88-12.36,16.35-13.31,17.76l-12.54,18.66,21.51-6.54c2.57-.78,25.41-7.86,35.35-15.21a93.49,93.49,0,0,0,13.48-14,93.24,93.24,0,0,0,17.22,9c8.39,2.74,22.84,3.32,33.49,3.32,2.92,0,4.79-.05,4.87-.05l22.47-.59-17.79-13.74c-1.35-1-9.48-7.26-18.25-12.65,15.37-6.31,38.89-23.53,39.94-24.3l20.79-15.28-25.79.84c-1,0-17.32.59-32.21,2.74.68-1,1.24-1.8,1.64-2.49,9.82-16.75,16.29-56.47,16.56-58.15l3.27-20.31-16.13,12.77c-1.17.92-25.27,20.07-37.93,36.07-2.83-9.21-7.58-20.68-14.2-34.27-6.9-14.18-13.24-25.32-13.51-25.79l-10.6-18.59Z"/><line class="c" x1="416.33" y1="423.2" x2="432.52" y2="523.08"/><path class="b" d="M416.33,423.2c2,8.23,3.63,16.5,5.2,24.79.81,4.13,1.51,8.29,2.27,12.44l2.1,12.47,2,12.5c.59,4.17,1.24,8.34,1.78,12.52,1.13,8.36,2.16,16.74,2.89,25.16-2-8.22-3.64-16.49-5.21-24.78-.81-4.14-1.51-8.3-2.27-12.45l-2.1-12.47L421,460.88c-.59-4.17-1.24-8.34-1.78-12.52C418.09,440,417.06,431.62,416.33,423.2Z"/><line class="c" x1="405.6" y1="544.72" x2="432.89" y2="525.6"/><path class="b" d="M405.6,544.72a60.42,60.42,0,0,1,6.15-5.74c2.14-1.78,4.36-3.46,6.63-5.05s4.61-3.11,7-4.52a60,60,0,0,1,7.5-3.81,62.58,62.58,0,0,1-6.14,5.74c-2.15,1.78-4.37,3.45-6.64,5s-4.61,3.1-7,4.51A62.14,62.14,0,0,1,405.6,544.72Z"/><line class="c" x1="371.42" y1="521.41" x2="432.89" y2="525.6"/><path class="b" d="M371.42,521.41c5.17-.27,10.31-.24,15.45-.12,2.57,0,5.13.18,7.7.28l7.69.44,7.68.6c2.55.26,5.11.46,7.66.77,5.11.57,10.21,1.24,15.29,2.22-5.16.27-10.31.25-15.44.12-2.57,0-5.14-.19-7.7-.28l-7.69-.44-7.68-.61c-2.56-.25-5.12-.46-7.67-.77C381.6,523.05,376.5,522.38,371.42,521.41Z"/><line class="c" x1="369.1" y1="468.59" x2="432.89" y2="525.6"/><path class="b" d="M369.1,468.59c5.73,4.29,11.26,8.8,16.73,13.38,2.75,2.28,5.42,4.63,8.14,6.94l8,7.07,7.92,7.18c2.6,2.44,5.24,4.83,7.81,7.31,5.16,4.92,10.26,9.91,15.16,15.13-5.73-4.29-11.26-8.8-16.72-13.38-2.76-2.27-5.43-4.63-8.15-6.94l-8-7.07L392.08,491c-2.6-2.44-5.24-4.84-7.81-7.32C379.1,478.8,374,473.81,369.1,468.59Z"/><line class="c" x1="464.83" y1="535.1" x2="432.89" y2="525.58"/><path class="b" d="M464.83,535.1a61.81,61.81,0,0,1-8.32-1.26c-2.72-.58-5.42-1.28-8.08-2.07s-5.29-1.68-7.89-2.68a62.67,62.67,0,0,1-7.65-3.51,60.24,60.24,0,0,1,8.32,1.25q4.1.87,8.08,2.07t7.89,2.69A59.79,59.79,0,0,1,464.83,535.1Z"/><line class="c" x1="489.89" y1="502.19" x2="432.89" y2="525.58"/><path class="b" d="M489.89,502.19c-4.51,2.52-9.14,4.77-13.8,6.92-2.33,1.11-4.69,2.11-7,3.16l-7.09,3-7.15,2.85c-2.41.9-4.8,1.85-7.22,2.69-4.84,1.75-9.71,3.39-14.7,4.77,4.51-2.53,9.14-4.78,13.81-6.93,2.32-1.11,4.68-2.11,7-3.16l7.09-3,7.16-2.84c2.41-.9,4.79-1.85,7.22-2.69C480,505.21,484.91,503.56,489.89,502.19Z"/><line class="c" x1="475.41" y1="451.34" x2="432.89" y2="525.58"/><path class="b" d="M475.41,451.34c-3,6.5-6.27,12.84-9.62,19.14-1.65,3.16-3.39,6.27-5.1,9.4l-5.24,9.32-5.38,9.24c-1.85,3.05-3.64,6.13-5.53,9.16-3.74,6.08-7.56,12.1-11.65,18,3-6.5,6.26-12.85,9.61-19.15,1.66-3.16,3.4-6.26,5.1-9.4l5.25-9.32,5.39-9.24c1.84-3.05,3.64-6.13,5.53-9.15C467.5,463.24,471.33,457.22,475.41,451.34Z"/><path class="a" d="M104.38,346c-1-.31-24.55-7.61-34.09-14.72-2.63-2-10.41-9.77-14.9-16.39-6.39,4.82-16.26,9.69-19.4,10.7-7.69,2.48-21.26,3-31.3,3h0c-3.41,0-5.62-.06-5.71-.06l-11.24-.34,8.92-6.84c.7-.54,14.89-11.37,26.1-16.89a62,62,0,0,1-6.36-1.66C1.82,297.73-23.86,278.77-24.95,278l-10.37-7.68,12.9.47c1.19,0,26.23,1,42.1,4.72a87.67,87.67,0,0,1-7.94-10.37C2.36,249-3.85,209.94-4.11,208.29l-1.6-10.16,8,6.41c1.31,1.05,32.15,25.74,41.54,41.89.13.21.26.45.4.71C49,223.26,73,181.47,74,179.66l5.33-9.27,2.06,10.5c.4,2.05,9.57,49.32,6.38,73.47.21-.2.41-.39.6-.55,14.1-12.25,51.26-25.67,52.84-26.24l9.68-3.48-4.79,9.11c-.78,1.48-19.25,36.41-33.34,48.66a88.91,88.91,0,0,1-10.86,7.26c16.22,1.58,40.24,8.77,41.37,9.11L155.64,302l-12.29,3.92c-1.28.41-31.71,10.06-47.15,10.19h-.15c-1.35,0-3.63-.16-6.4-.47,8.82,8.83,18.75,23.66,19.24,24.4l6.24,9.35Z"/><path class="b" d="M77.48,181.66s9.93,50.69,6.11,73.78a114.66,114.66,0,0,1-4.71,15.77c4.84-6.61,9.88-12.42,12.14-14.38,13.69-11.9,51.56-25.5,51.56-25.5s-18.74,35.61-32.43,47.51C106.63,281.9,92.91,290.36,82,294.6a106.23,106.23,0,0,1,14-1.79h.29c15.12,0,45.84,9.25,45.84,9.25s-31,9.88-46,10h-.12c-4.11,0-17.75-1.71-26.83-4.35a84.08,84.08,0,0,1,13.44,7c9.09,6.78,22.9,27.49,22.9,27.49s-23.78-7.33-32.87-14.11c-3-2.24-13.8-13.36-16.26-19.44-4.3,5-18.1,12-21.66,13.15-7.58,2.45-22.1,2.81-30.08,2.81-3.39,0-5.6-.06-5.6-.06s19.76-15.14,30.55-18.63a85.59,85.59,0,0,1,15-2.3c-9.54-.43-23.16-3.26-26.91-4.58-14.17-5-40.29-24.29-40.29-24.29s32.48,1.17,46.65,6.13a104.92,104.92,0,0,1,12.7,6.22c-9-7.55-19.23-20-21.58-24C6.08,247.42-.16,207.67-.16,207.67s31.46,25.09,40.57,40.77c1.51,2.59,4.4,9.71,6.85,17.53a111.88,111.88,0,0,1,.64-16.45c3.82-23.08,29.58-67.86,29.58-67.86m3.74-22.54L70.55,177.67c-.27.46-6.65,11.58-13.61,25.73-6.66,13.57-11.45,25-14.32,34.22C30,221.58,6,202.34,4.83,201.42l-16.09-12.83,3.19,20.32c.27,1.69,6.59,41.43,16.35,58.21.41.69,1,1.54,1.64,2.5-14.89-2.21-31.23-2.82-32.2-2.86l-25.78-.93,20.73,15.36c1,.77,24.5,18.08,39.85,24.43C3.73,311-4.42,317.17-5.77,318.21l-17.84,13.68,22.47.66c.09,0,2.37.07,5.83.07,10.32,0,24.35-.55,32.53-3.19a93.92,93.92,0,0,0,17.25-9A94.11,94.11,0,0,0,67.9,334.51c9.92,7.4,32.74,14.55,35.31,15.34l21.48,6.62-12.47-18.7c-1-1.42-6.67-9.91-13.25-17.81,16.58-1.07,44.36-9.88,45.6-10.28l24.58-7.84-24.71-7.44c-.92-.28-16.59-5-31.39-7.69,1-.69,1.74-1.31,2.35-1.83,14.65-12.74,33.46-48.31,34.26-49.82l9.58-18.21-19.36,7c-1.4.51-30.36,11-47.46,22.08.25-9.63-.59-22-2.52-37-2-15.64-4.46-28.22-4.57-28.75l-4.11-21Z"/><line class="a" x1="73.57" y1="205.24" x2="57.02" y2="305.06"/><path class="b" d="M73.57,205.24c-.76,8.42-1.82,16.79-3,25.14-.56,4.19-1.22,8.35-1.83,12.52l-2,12.49-2.15,12.47c-.77,4.14-1.49,8.3-2.31,12.43-1.6,8.29-3.3,16.55-5.3,24.77.77-8.42,1.82-16.79,3-25.15.55-4.18,1.21-8.34,1.82-12.52l2-12.49L66,242.44c.77-4.15,1.49-8.3,2.32-12.44C69.88,221.72,71.58,213.45,73.57,205.24Z"/><line class="a" x1="24.6" y1="316.97" x2="56.58" y2="307.56"/><path class="b" d="M24.6,317a60.47,60.47,0,0,1,7.67-3.48c2.6-1,5.23-1.88,7.9-2.66s5.35-1.48,8.08-2.05a60.35,60.35,0,0,1,8.33-1.22A61,61,0,0,1,48.92,311c-2.61,1-5.24,1.88-7.91,2.66s-5.35,1.47-8.08,2A61.92,61.92,0,0,1,24.6,317Z"/><line class="a" x1="-0.34" y1="283.97" x2="56.58" y2="307.56"/><path class="b" d="M-.34,284c5,1.39,9.85,3.06,14.68,4.82,2.42.85,4.8,1.81,7.21,2.72l7.14,2.87,7.09,3c2.34,1.06,4.7,2.07,7,3.18,4.66,2.17,9.27,4.44,13.78,7-5-1.39-9.85-3.05-14.68-4.82-2.43-.85-4.81-1.81-7.21-2.71l-7.15-2.88-7.08-3c-2.34-1.05-4.7-2.07-7-3.18C8.78,288.77,4.16,286.51-.34,284Z"/><line class="a" x1="14.32" y1="233.17" x2="56.58" y2="307.56"/><path class="b" d="M14.32,233.17c4.07,5.9,7.87,11.93,11.58,18,1.88,3,3.67,6.12,5.5,9.18l5.35,9.26L42,279c1.69,3.14,3.42,6.26,5.06,9.43,3.33,6.3,6.57,12.66,9.55,19.17-4.07-5.89-7.87-11.93-11.58-18-1.89-3-3.67-6.11-5.5-9.17l-5.35-9.26-5.21-9.34c-1.69-3.14-3.43-6.26-5.07-9.42C20.54,246,17.31,239.68,14.32,233.17Z"/><line class="a" x1="83.81" y1="326.76" x2="56.58" y2="307.54"/><path class="b" d="M83.81,326.76a62.84,62.84,0,0,1-7.49-3.84q-3.58-2.15-7-4.54t-6.62-5.07a61.62,61.62,0,0,1-6.13-5.77,61.39,61.39,0,0,1,7.49,3.84q3.59,2.13,7,4.55T77.68,321A61.51,61.51,0,0,1,83.81,326.76Z"/><line class="a" x1="118.07" y1="303.58" x2="56.58" y2="307.54"/><path class="b" d="M118.07,303.58c-5.09.95-10.19,1.6-15.3,2.15-2.55.31-5.11.5-7.67.75l-7.68.58-7.69.41c-2.57.08-5.13.22-7.7.25-5.14.11-10.28.11-15.45-.18,5.08-1,10.19-1.61,15.3-2.16,2.55-.3,5.11-.49,7.67-.74l7.68-.58,7.69-.41c2.57-.08,5.13-.22,7.7-.24C107.76,303.3,112.9,303.29,118.07,303.58Z"/><line class="a" x1="120.58" y1="250.77" x2="56.58" y2="307.54"/><path class="b" d="M120.58,250.77c-4.92,5.19-10,10.17-15.23,15.06-2.57,2.47-5.22,4.86-7.83,7.29l-8,7.16-8,7c-2.72,2.31-5.4,4.65-8.16,6.91-5.48,4.57-11,9.06-16.78,13.32,4.92-5.2,10-10.17,15.22-15.07,2.58-2.47,5.23-4.85,7.84-7.28l8-7.16,8-7c2.72-2.31,5.41-4.65,8.17-6.91C109.29,259.52,114.83,255,120.58,250.77Z"/><path class="c" d="M100.28,682c.46-.75,9.84-15.95,18.33-25.1a63.49,63.49,0,0,1-6.54.72l-1.24,0c-15.75,0-45-8.11-46.25-8.45l-12.43-3.46,12.2-4.18c1.13-.38,24.86-8.46,41-10.64a88.46,88.46,0,0,1-11.12-6.85C79.7,612.38,60,578.16,59.11,576.71L54,567.79l9.8,3.11c1.6.51,39.23,12.54,53.77,24.26.2.16.41.33.63.53-4.08-24,3.32-71.6,3.65-73.66l1.66-10.57,5.68,9.07c1.11,1.77,26.57,42.64,32.23,66.33.13-.26.25-.51.37-.73,8.78-16.48,38.69-42.3,40-43.39l7.8-6.71-1.22,10.21c-.2,1.66-5,40.89-13.74,57.37A87.45,87.45,0,0,1,187,614.27c15.71-4.32,40.7-6.2,41.89-6.28l12.87-1-10.08,8.06c-1.05.84-26,20.74-40.39,26.38-1.24.48-3.49,1.16-6.29,1.89,11.4,5.1,26,15.4,26.7,15.92l9.17,6.5-11.21.75c-.28,0-6.92.46-14.93.46-10,0-17.44-.68-22.18-2-3.17-.9-13.21-5.4-19.78-10-4.24,6.79-11.72,14.87-14.28,16.94-9.27,7.45-32.54,15.63-33.52,16L94.4,691.62Z"/><path class="b" d="M125.79,522.65s27.4,43.8,32.09,66.73a115.29,115.29,0,0,1,1.24,16.4c2.15-7.9,4.78-15.13,6.19-17.77,8.53-16,39-42.24,39-42.24s-4.77,40-13.3,56c-2.19,4.12-12,16.92-20.67,24.79a108.46,108.46,0,0,1,12.46-6.69c14-5.48,46.39-7.85,46.39-7.85s-25.38,20.29-39.36,25.77c-3.7,1.45-17.21,4.79-26.72,5.58a84.62,84.62,0,0,1,15.06,1.74c10.92,3.08,31.22,17.48,31.22,17.48s-6.69.45-14.66.45c-7.37,0-15.84-.39-21.09-1.87-3.6-1-17.66-7.55-22.14-12.34-2.23,6.16-12.61,17.68-15.52,20-8.83,7.11-32.33,15.32-32.33,15.32s13-21.21,21.86-28.32a85,85,0,0,1,13.18-7.51c-9.06,3-22.8,5.24-26.77,5.35l-1.13,0c-15.38,0-45.18-8.3-45.18-8.3s30.74-10.52,45.75-11h.49a114.27,114.27,0,0,1,13.6,1.28c-11.08-3.84-25.1-11.78-28.74-14.71-14.12-11.38-34.17-46.27-34.17-46.27s38.35,12.18,52.47,23.57c2.33,1.87,7.59,7.49,12.66,13.92a115.52,115.52,0,0,1-5.28-15.59c-4.68-22.93,3.36-74,3.36-74m-4.57-22.38-3.33,21.14c-.3,1.86-6.25,40.15-4.63,66C95.75,576.92,66.42,567.54,65,567.09l-19.6-6.23L55.65,578.7c.84,1.48,21,36.33,36.08,48.51.62.51,1.44,1.1,2.42,1.75-14.69,3.26-30.18,8.53-31.09,8.85l-24.41,8.35,24.85,6.92c1.23.34,29.41,8.15,46,8.58C103.16,669.8,97.76,678.5,96.87,680L85.1,699.1l21.23-7.41c2.53-.89,25.07-8.88,34.71-16.64a94.25,94.25,0,0,0,12.89-14.55,93.89,93.89,0,0,0,17.58,8.33c5.09,1.44,12.92,2.17,23.26,2.17,8.14,0,14.91-.45,15.19-.47l22.43-1.5-18.33-13c-1.39-1-9.77-6.87-18.75-11.9,15.1-6.92,37.9-25.08,38.91-25.9l20.15-16.11L228.64,604c-1,.07-17.28,1.29-32.07,4,.64-1,1.16-1.85,1.54-2.56,9.13-17.13,14-57.08,14.18-58.77l2.44-20.43-15.6,13.41c-1.13,1-24.44,21.1-36.44,37.6-8.63-24.41-29.12-57.3-30.12-58.89l-11.35-18.14Z"/><line class="c" x1="130.57" y1="546.07" x2="150.81" y2="645.21"/><path class="b" d="M130.57,546.07c2.3,8.14,4.3,16.34,6.2,24.56,1,4.1,1.86,8.22,2.78,12.34l2.61,12.37,2.45,12.41c.77,4.15,1.58,8.28,2.29,12.44,1.47,8.31,2.84,16.64,3.91,25-2.29-8.13-4.3-16.33-6.2-24.55-1-4.1-1.85-8.23-2.78-12.34l-2.61-12.38-2.45-12.41c-.76-4.14-1.57-8.28-2.28-12.44C133,562.79,131.65,554.46,130.57,546.07Z"/><line class="c" x1="124.8" y1="667.93" x2="151.29" y2="647.71"/><path class="b" d="M124.8,667.93a59.72,59.72,0,0,1,5.91-6c2.07-1.86,4.22-3.63,6.42-5.31s4.48-3.29,6.82-4.8a59.63,59.63,0,0,1,7.34-4.12,60.81,60.81,0,0,1-5.91,6c-2.07,1.86-4.22,3.63-6.43,5.31s-4.48,3.29-6.82,4.8A63,63,0,0,1,124.8,667.93Z"/><line class="c" x1="89.7" y1="646.03" x2="151.29" y2="647.71"/><path class="b" d="M89.7,646c5.15-.48,10.29-.66,15.43-.75,2.57-.06,5.14,0,7.71,0l7.7.13,7.69.29c2.57.15,5.13.25,7.7.46,5.12.36,10.25.82,15.36,1.59-5.15.48-10.29.67-15.43.75-2.57.07-5.14,0-7.7,0l-7.71-.13-7.69-.29c-2.57-.16-5.13-.26-7.69-.46C99.94,647.26,94.82,646.79,89.7,646Z"/><line class="c" x1="85.23" y1="593.35" x2="151.29" y2="647.71"/><path class="b" d="M85.23,593.35c5.9,4,11.61,8.33,17.26,12.69,2.84,2.16,5.61,4.4,8.41,6.6l8.31,6.73,8.21,6.86c2.7,2.33,5.44,4.61,8.1,7,5.37,4.7,10.66,9.49,15.77,14.5-5.9-4.05-11.61-8.33-17.26-12.69-2.84-2.15-5.61-4.4-8.41-6.6l-8.31-6.73-8.21-6.86c-2.7-2.33-5.43-4.62-8.1-7C95.64,603.14,90.34,598.36,85.23,593.35Z"/><line class="c" x1="183.59" y1="655.9" x2="151.29" y2="647.69"/><path class="b" d="M183.59,655.9a62.47,62.47,0,0,1-8.37-.91c-2.74-.47-5.46-1.06-8.15-1.74s-5.36-1.47-8-2.37a60.58,60.58,0,0,1-7.78-3.19,59.38,59.38,0,0,1,8.36.91q4.13.71,8.16,1.74c2.69.69,5.36,1.47,8,2.37A62.18,62.18,0,0,1,183.59,655.9Z"/><line class="c" x1="207.29" y1="622" x2="151.29" y2="647.69"/><path class="b" d="M207.29,622c-4.41,2.7-8.94,5.14-13.51,7.48-2.28,1.2-4.6,2.3-6.9,3.44l-7,3.29-7,3.14c-2.37,1-4.71,2-7.1,3-4.76,1.94-9.57,3.78-14.49,5.36,4.4-2.71,8.93-5.15,13.51-7.49,2.28-1.2,4.6-2.29,6.9-3.44l7-3.28,7-3.13c2.37-1,4.71-2,7.1-3C197.56,625.42,202.37,623.58,207.29,622Z"/><line class="c" x1="190.75" y1="571.78" x2="151.29" y2="647.69"/><path class="b" d="M190.75,571.78c-2.74,6.62-5.74,13.09-8.83,19.52-1.52,3.22-3.14,6.4-4.71,9.6l-4.86,9.53-5,9.45c-1.72,3.12-3.39,6.27-5.16,9.37-3.48,6.23-7.06,12.4-10.9,18.44,2.73-6.62,5.73-13.09,8.82-19.52,1.53-3.22,3.15-6.4,4.72-9.6l4.86-9.53,5-9.45c1.71-3.12,3.38-6.27,5.15-9.37C183.33,584,186.91,577.82,190.75,571.78Z"/><path class="d" d="M455.41,874.32c-.85-.62-20.74-15.19-27.44-25-1.85-2.72-6.66-12.62-8.75-20.34a93.55,93.55,0,0,1-21.56,3.8h-.27c-11.89-.23-35-8.91-36-9.28l-10.51-4,10.66-3.56c.83-.28,17.79-5.91,30.17-7.48a63.22,63.22,0,0,1-5.47-3.64c-12.12-9.57-30.23-35.85-31-37L348,757.22l12,4.64c1.11.43,24.48,9.47,38.27,18.17a87.27,87.27,0,0,1-4.13-12.39c-3.62-18.32,3.22-57.23,3.51-58.88l1.8-10.13,5.52,8.68c.89,1.41,22,34.81,25.63,53.13.05.25.1.51.15.8,12.29-21,48.52-52.74,50.09-54.11l8.07-7-1.48,10.59c-.28,2.07-7,49.75-17.88,71.55l.75-.33c17.31-7,56.82-7.58,58.49-7.6l10.29-.13-7.49,7c-1.22,1.15-30.06,28.16-47.37,35.16a87.81,87.81,0,0,1-12.63,3.32c14.82,6.78,35.18,21.39,36.15,22.09l10.47,7.54-12.9-.29c-1.35,0-33.26-.82-47.9-5.72a65.58,65.58,0,0,1-6.05-2.59c5.47,11.22,10,28.49,10.26,29.34L464.49,881Z"/><path class="b" d="M401.61,709.46s21.57,34,25.09,51.75c.58,2.94,1,10.62.76,18.81a113.76,113.76,0,0,1,6-15.34c11.14-20.59,50.07-54.54,50.07-54.54s-7.11,51.17-18.25,71.75a113.47,113.47,0,0,1-9.58,13.38c6.72-4.68,13.38-8.53,16.16-9.65,16.81-6.79,57.05-7.31,57.05-7.31s-29.31,27.56-46.13,34.36c-4.33,1.75-20.05,5.27-31.77,5.72a107.55,107.55,0,0,1,13.85,2.88c14.23,4.78,40.6,23.77,40.6,23.77s-32.49-.74-46.72-5.52c-3.77-1.26-16.27-7.38-24.07-12.89a84.73,84.73,0,0,1,10.43,11c6.39,9.37,12.71,33.45,12.71,33.45S437.66,856.41,431.28,847c-2.11-3.09-8.7-17.12-9-23.67-5.58,3.24-20.52,5.39-24.57,5.39h-.19c-11.34-.22-34.62-9-34.62-9s23-7.67,34.47-7.67h.47a84.4,84.4,0,0,1,14.93,2.7c-8.88-3.51-20.84-10.63-24-13.09-11.78-9.3-30.18-36.09-30.18-36.09s30.33,11.68,42.11,21a106,106,0,0,1,10,10c-6-10.05-11.68-25.14-12.58-29.72-3.52-17.8,3.52-57.41,3.52-57.41m-4.28-21.66-3.6,20.26c-.3,1.68-7.25,41.31-3.49,60.36.15.79.4,1.76.73,2.89-13.36-6.93-28.61-12.84-29.51-13.18l-24.08-9.28L352,770.12c.73,1.07,17.27,25.07,29.71,36.08-10.05,2.21-19.79,5.41-21.39,5.95L339,819.27l21,8c2.51.95,24.93,9.29,37.29,9.53h.35a98.19,98.19,0,0,0,18.89-2.87,93.26,93.26,0,0,0,8.12,17.66c7,10.22,26.21,24.41,28.38,26l18.16,13.25-5.7-21.74c-.44-1.65-3.08-11.54-6.73-21.16,16,4.39,45.16,5.11,46.46,5.14l25.79.59L510.1,838.55c-.79-.57-14.08-10.11-27.19-17.49,1.13-.35,2.08-.67,2.82-1,18-7.28,47.38-34.79,48.62-36l15-14.1-20.57.27c-1.48,0-32.28.48-52.07,5.42,9.05-24.25,14.47-62.62,14.73-64.49l2.94-21.19-16.13,14.06c-1.41,1.24-30.57,26.76-45.92,47.61-6.69-19.27-23.15-45.3-23.95-46.55l-11-17.37Z"/><line class="d" x1="472.12" y1="731.17" x2="423.97" y2="820.16"/><path class="b" d="M472.12,731.17c-3.47,7.71-7.19,15.28-11,22.8-1.89,3.77-3.87,7.5-5.8,11.24l-5.95,11.17-6.09,11.08c-2.07,3.67-4.1,7.37-6.23,11-4.21,7.31-8.51,14.57-13.07,21.69,3.46-7.71,7.19-15.29,11-22.81,1.88-3.77,3.86-7.49,5.8-11.24l6-11.16,6.09-11.09c2.07-3.67,4.11-7.36,6.24-11C463.26,745.55,467.56,738.29,472.12,731.17Z"/><line class="d" x1="389.44" y1="820.86" x2="422.73" y2="822.38"/><path class="b" d="M389.44,820.86a61,61,0,0,1,8.38-.79c2.78-.1,5.56-.07,8.33,0s5.55.36,8.31.7a60.79,60.79,0,0,1,8.27,1.56,61.07,61.07,0,0,1-8.37.8q-4.19.14-8.34-.06t-8.31-.7A62.37,62.37,0,0,1,389.44,820.86Z"/><line class="d" x1="376.6" y1="781.54" x2="422.73" y2="822.38"/><path class="b" d="M376.6,781.54c4.25,2.94,8.31,6.1,12.3,9.34,2,1.59,4,3.27,5.94,4.91l5.82,5.05,5.71,5.16c1.87,1.76,3.78,3.49,5.6,5.29,3.7,3.57,7.33,7.22,10.76,11.09-4.26-2.94-8.32-6.1-12.31-9.33-2-1.6-3.95-3.28-5.93-4.92l-5.82-5L393,797.91c-1.87-1.76-3.77-3.48-5.6-5.29C383.66,789.05,380,785.41,376.6,781.54Z"/><line class="d" x1="407" y1="738.29" x2="422.73" y2="822.38"/><path class="b" d="M407,738.29c1.92,6.89,3.55,13.84,5.08,20.81.79,3.47,1.48,7,2.21,10.46l2,10.5,1.89,10.52c.57,3.52,1.2,7,1.72,10.56,1.1,7.05,2.09,14.12,2.78,21.24-1.92-6.89-3.55-13.84-5.08-20.81-.79-3.48-1.47-7-2.21-10.46l-2.05-10.5-1.88-10.53c-.58-3.52-1.2-7-1.72-10.56C408.69,752.48,407.7,745.41,407,738.29Z"/><line class="d" x1="442.23" y1="849.4" x2="422.74" y2="822.36"/><path class="b" d="M442.23,849.4a62.87,62.87,0,0,1-5.83-6.07q-2.7-3.2-5.13-6.57t-4.61-7a62,62,0,0,1-3.92-7.45,61.69,61.69,0,0,1,5.83,6.07q2.7,3.2,5.13,6.57c1.62,2.26,3.17,4.57,4.61,7A62.77,62.77,0,0,1,442.23,849.4Z"/><line class="d" x1="482.17" y1="838.63" x2="422.74" y2="822.36"/><path class="b" d="M482.17,838.63c-5.12-.75-10.16-1.8-15.17-2.94-2.51-.54-5-1.19-7.49-1.79l-7.45-2-7.41-2.11c-2.45-.76-4.92-1.46-7.36-2.27-4.89-1.57-9.76-3.24-14.55-5.2,5.12.75,10.16,1.8,15.17,2.94,2.51.54,5,1.2,7.49,1.79l7.45,2,7.41,2.12c2.45.75,4.92,1.46,7.36,2.27C472.51,835,477.38,836.68,482.17,838.63Z"/><line class="d" x1="501.74" y1="789.52" x2="422.74" y2="822.36"/><path class="b" d="M501.74,789.52c-6.35,3.31-12.81,6.35-19.3,9.29-3.24,1.49-6.52,2.89-9.78,4.33l-9.84,4.18-9.91,4c-3.32,1.29-6.62,2.63-10,3.87-6.67,2.54-13.37,5-20.2,7.13,6.35-3.31,12.8-6.35,19.3-9.29,3.24-1.5,6.52-2.89,9.78-4.34l9.84-4.17,9.91-4c3.32-1.3,6.63-2.64,10-3.88C488.21,794.12,494.92,791.68,501.74,789.52Z"/><path class="a" d="M166.36,955.27c-1-.28-24.75-6.95-34.47-13.8-2.69-1.9-10.67-9.48-15.34-16-6.26,5-16,10.13-19.1,11.22-10.83,3.82-34.19,3.93-36.82,3.93l-11.35,0L58,933.53c.69-.56,14.59-11.78,25.64-17.59-2.85-.55-5.14-1.09-6.41-1.49-14.7-4.71-40.89-23-42-23.74l-10.57-7.39,12.9.11c1.19,0,26.25.28,42.21,3.59a88,88,0,0,1-8.21-10.15C61.76,861,54.5,822.14,54.2,820.5l-1.87-10.12,8.21,6.2c1.34,1,32.84,24.86,42.65,40.75l.42.7c4.13-24,26.93-66.42,27.92-68.25l5.08-9.42L139,790.8c.46,2,10.89,49.05,8.36,73.27.2-.2.4-.39.59-.56,13.76-12.63,50.55-27,52.1-27.65l9.59-3.74-4.54,9.23c-.74,1.5-18.27,36.92-32,49.54a86.9,86.9,0,0,1-10.65,7.55c16.25,1.14,40.48,7.69,41.6,8l12.45,3.39-12.18,4.24c-1.28.45-31.43,10.92-46.87,11.46h-.76c-1.44,0-3.45-.11-5.8-.31,9.06,8.6,19.38,23.15,19.89,23.88l6.49,9.18Z"/><path class="b" d="M135.05,791.68s11.29,50.41,8.08,73.59a114.21,114.21,0,0,1-4.27,15.89c4.65-6.74,9.54-12.68,11.74-14.71,13.37-12.26,50.86-26.87,50.86-26.87s-17.78,36.1-31.14,48.37c-3.44,3.15-16.93,12-27.74,16.51a106.71,106.71,0,0,1,14-2.17l1.39,0c15.46,0,45,8,45,8s-30.68,10.7-45.69,11.23h-.62a136,136,0,0,1-26.43-3.64,86.3,86.3,0,0,1,13.63,6.65c9.27,6.54,23.63,26.86,23.63,26.86s-24-6.68-33.25-13.21c-3.06-2.16-14.14-13-16.77-19-4.16,5.07-17.77,12.49-21.3,13.73-10.32,3.64-33.84,3.7-35.49,3.7h-.1s19.34-15.66,30-19.44a84.81,84.81,0,0,1,14.92-2.7c-9.54-.17-23.24-2.64-27-3.85-14.29-4.58-40.92-23.21-40.92-23.21s32.49.3,46.79,4.88a107.28,107.28,0,0,1,12.87,5.87C88,890.88,77.43,878.74,75,874.76c-9.54-15.42-16.85-55-16.85-55S90.25,844,99.79,859.43c1.57,2.55,4.66,9.59,7.31,17.34a113.15,113.15,0,0,1,.2-16.45c3.2-23.19,27.75-68.64,27.75-68.64M138.18,769,128,787.87c-.26.48-6.34,11.76-12.91,26.1-6.3,13.74-10.78,25.32-13.39,34.59-13-15.69-37.57-34.28-38.76-35.18L46.53,801l3.73,20.23C50.57,822.9,58,862.46,68.17,879c.43.68,1,1.51,1.7,2.45-14.93-1.8-31.29-2-32.26-2l-25.8-.23L33,894c1.07.74,25,17.41,40.49,23.36-8.64,5.59-16.62,12-17.94,13.07L38,944.57l22.48.06h.12c4.4,0,26.93-.2,38.15-4.15a94.23,94.23,0,0,0,17-9.44,93.63,93.63,0,0,0,13.81,13.7c10.1,7.12,33.11,13.66,35.7,14.38l21.65,6L174,946.8c-1-1.39-6.93-9.73-13.72-17.45,16.54-1.51,44.08-11.07,45.3-11.5l24.37-8.5L205,902.58c-.91-.25-16.73-4.53-31.59-6.85.93-.71,1.71-1.35,2.3-1.89,14.3-13.13,32.15-49.19,32.9-50.72l9.09-18.46-19.17,7.47c-1.38.54-30,11.77-46.85,23.34,0-9.63-1.17-22-3.5-36.93-2.44-15.58-5.23-28.09-5.35-28.61L138.18,769Z"/><line class="a" x1="131.77" y1="815.35" x2="117.92" y2="915.58"/><path class="b" d="M131.77,815.35c-.54,8.44-1.37,16.84-2.3,25.22-.45,4.2-1,8.38-1.49,12.56l-1.65,12.54-1.81,12.52c-.66,4.17-1.26,8.34-2,12.5-1.37,8.32-2.85,16.63-4.62,24.89.53-8.43,1.37-16.83,2.3-25.21.44-4.2,1-8.38,1.49-12.57l1.65-12.54,1.82-12.51c.65-4.17,1.26-8.34,2-12.5C128.53,831.93,130,823.62,131.77,815.35Z"/><line class="a" x1="60.01" y1="896.04" x2="117.54" y2="918.1"/><path class="b" d="M60,896c5,1.26,9.92,2.8,14.8,4.43,2.44.79,4.85,1.68,7.28,2.52l7.22,2.68,7.16,2.83c2.37,1,4.76,1.94,7.1,3,4.72,2,9.4,4.19,14,6.61-5-1.26-9.93-2.79-14.8-4.42-2.45-.79-4.86-1.69-7.28-2.53l-7.22-2.68-7.17-2.83c-2.36-1-4.75-1.95-7.1-3C69.26,900.6,64.58,898.46,60,896Z"/><line class="a" x1="73.3" y1="844.87" x2="117.54" y2="918.1"/><path class="b" d="M73.3,844.87c4.22,5.78,8.18,11.72,12.06,17.71,2,3,3.83,6,5.74,9l5.6,9.11,5.46,9.19c1.78,3.1,3.6,6.16,5.32,9.29,3.5,6.21,6.91,12.48,10.06,18.91-4.22-5.78-8.19-11.72-12.06-17.7-2-3-3.83-6-5.75-9l-5.59-9.11-5.46-9.2c-1.78-3.09-3.59-6.16-5.32-9.28C79.86,857.57,76.45,851.3,73.3,844.87Z"/><line class="a" x1="179.99" y1="859.6" x2="117.54" y2="918.08"/><path class="b" d="M180,859.6c-4.78,5.33-9.76,10.44-14.82,15.47-2.5,2.54-5.09,5-7.63,7.49l-7.75,7.37-7.86,7.26c-2.66,2.37-5.28,4.79-8,7.12-5.35,4.71-10.78,9.35-16.41,13.77,4.78-5.33,9.76-10.44,14.81-15.48,2.51-2.53,5.09-5,7.64-7.49l7.75-7.36,7.86-7.25c2.66-2.38,5.28-4.79,8-7.13C168.93,868.66,174.36,864,180,859.6Z"/><path class="a" d="M146.28,467.16c.28-.49,1.78-3.07,3.68-5.84-6.52-.36-15.82-2.64-16.24-2.74l-12.53-3.09L133.27,451c.77-.29,5.26-2,10-3.29-5.89-4.89-13.2-16.63-14-18l-5.39-8.76,9.9,2.82a114.52,114.52,0,0,1,17.48,6.53c-.6-9.94,1.06-23.25,1.15-23.93l1.35-10.62,5.94,8.9c.39.57,7.82,11.73,11.72,20.9a115,115,0,0,1,12.73-13.66l7.59-6.93-.91,10.24c-.14,1.6-1.44,15.38-4.53,22.38,4.88-.95,9.65-1.46,10.46-1.55l12.83-1.33L199.77,443a107,107,0,0,1-13.31,9.71c2.94,1.63,5.43,3.27,5.9,3.58l9.37,6.23-11.19,1.08c-.17,0-4.1.4-8.15.4a30,30,0,0,1-7-.63,35.45,35.45,0,0,1-6.34-2.68,35.67,35.67,0,0,1-4.48,5.23c-3.73,3.19-12.44,6.58-13.42,7l-10.5,4Z"/><path class="b" d="M156.38,406.82s11,16.52,13.1,25.28a42.17,42.17,0,0,1,.67,6.29,42.66,42.66,0,0,1,2.18-6.9c3.09-6.25,14.52-16.69,14.52-16.69s-1.37,15.41-4.47,21.66a50,50,0,0,1-7.66,9.77,42.62,42.62,0,0,1,4.71-2.71c5.31-2.27,17.75-3.56,17.75-3.56s-9.53,8.1-14.84,10.37a50.7,50.7,0,0,1-10.21,2.45,33.26,33.26,0,0,1,5.82.49c4.23,1.06,12.2,6.36,12.2,6.36s-3.86.38-7.76.38a27,27,0,0,1-6-.51c-1.4-.35-6.88-2.7-8.65-4.49-.79,2.4-4.65,6.95-5.74,7.88-3.31,2.84-12.25,6.27-12.25,6.27s4.76-8.31,8.08-11.14a31.76,31.76,0,0,1,5-3,50.94,50.94,0,0,1-10.23,2.36c-.32,0-.64,0-1,0-6.05,0-16.91-2.68-16.91-2.68s11.69-4.4,17.46-4.74h.53a47.38,47.38,0,0,1,4.9.34A50.94,50.94,0,0,1,146.35,445c-5.56-4.22-13.67-17.4-13.67-17.4s14.88,4.24,20.44,8.45a42.31,42.31,0,0,1,5,5.21,44.5,44.5,0,0,1-2.21-5.93c-2.06-8.76.44-28.47.44-28.47m-5.24-22.24-2.7,21.23a178.54,178.54,0,0,0-1.3,18.23c-5.42-2.17-10.7-3.72-12.27-4.17l-19.78-5.64,10.78,17.53a123.35,123.35,0,0,0,10,14c-1.91.65-3.38,1.19-4,1.44l-24.15,9.08,25,6.17c.77.19,5.39,1.31,10.4,2.1l-.35.61-11.19,19.5,21-8c2.4-.92,10.54-4.19,14.59-7.66a32.69,32.69,0,0,0,3.06-3.27,32.39,32.39,0,0,0,4.19,1.56,33.73,33.73,0,0,0,7.94.75c4.24,0,8.36-.4,8.53-.41l22.38-2.18L194.58,453l-.59-.38c3.91-2.79,7.36-5.67,8.37-6.53L222,429.35,196.35,432c-.69.08-2.24.25-4.24.52a124.14,124.14,0,0,0,2.7-17l1.83-20.5-15.19,13.88c-1.21,1.1-5.23,4.85-9.12,9.21a176.92,176.92,0,0,0-9.3-15.73l-11.89-17.79Z"/><path class="d" d="M475.17,304.72c-.95-.46-9.33-4.59-12.77-8.09a34.78,34.78,0,0,1-4-5.6,35.85,35.85,0,0,1-6.55,2.13,20.37,20.37,0,0,1-3.13.21h0a80.74,80.74,0,0,1-11.95-1.27l-11.06-2.05,9.86-5.4c.5-.27,3.12-1.69,6.19-3.06a107.33,107.33,0,0,1-12.42-10.81l-9.08-9.17L432.92,264c.81.16,5.51,1.08,10.3,2.44-2.48-7.24-2.59-21.08-2.6-22.68l0-10.29,7,7.57a114.5,114.5,0,0,1,11.52,14.69c4.67-8.8,13-19.28,13.46-19.82l6.69-8.35.43,10.69c0,.69.54,14.09-.91,23.94a114.14,114.14,0,0,1,18-5l10.1-2-6.12,8.27c-1,1.28-9.25,12.36-15.54,16.72,4.65,1.74,9,3.79,9.73,4.14L506.54,290l-12.75,2a116.93,116.93,0,0,1-15.12,1.36h-1.29c1.66,2.92,2.93,5.62,3.16,6.13l4.74,10.2Z"/><path class="b" d="M475.66,238.44s.8,19.86-2,28.41a42.69,42.69,0,0,1-2.71,5.71,42.46,42.46,0,0,1,5.46-4.75c5.9-3.72,21.09-6.67,21.09-6.67s-9.21,12.44-15.11,16.16a50.32,50.32,0,0,1-11.63,4.34c.57,0,1.13,0,1.67,0a31.63,31.63,0,0,1,3.76.16c5.72.84,17,6.22,17,6.22a115.58,115.58,0,0,1-14.51,1.31,27,27,0,0,1-3.56-.2,50.91,50.91,0,0,1-10-3.24,31.9,31.9,0,0,1,4.69,3.46c3.06,3.11,7.1,11.79,7.1,11.79s-8.61-4.18-11.67-7.29c-1-1-4.46-5.89-5-8.35-1.92,1.64-7.59,3.5-9,3.73a15.47,15.47,0,0,1-2.49.16,77,77,0,0,1-11.23-1.21s8.4-4.59,12.71-5.29a20.57,20.57,0,0,1,2.56-.12c1,0,2.15,0,3.27.13a50.58,50.58,0,0,1-10-3.32c-5.1-2.72-13.89-11.6-13.89-11.6s12.28,2.35,17.37,5.07a40.68,40.68,0,0,1,4.46,3.11,51.25,51.25,0,0,1-6.79-10.39c-2.55-6.5-2.59-22-2.59-22s10.49,11.38,13,17.87a42.1,42.1,0,0,1,1.58,7.07,45.44,45.44,0,0,1,1.2-6.22c2.81-8.55,15.23-24.06,15.23-24.06m7.13-21.7-13.37,16.7a175.4,175.4,0,0,0-10.62,14.87c-3.5-4.68-7.19-8.76-8.29-9.95l-13.94-15.13.05,20.57A125.45,125.45,0,0,0,437.86,261c-2-.44-3.5-.75-4.19-.88l-25.34-4.85,18.15,18.34c.94.94,4.12,4.11,7.78,7.22l-.62.34-19.72,10.79L436,296a82.23,82.23,0,0,0,12.68,1.34,23.35,23.35,0,0,0,3.76-.26,31.15,31.15,0,0,0,4.31-1.2,32.21,32.21,0,0,0,2.76,3.52c3.74,3.8,11.57,7.76,13.88,8.88l20.23,9.82-9.48-20.38c-.08-.19-.18-.4-.3-.65,5.3-.38,10.27-1.15,10.55-1.19l25.48-4-23.28-11.13c-.62-.3-2-1-3.89-1.77a124.53,124.53,0,0,0,11.19-13.1l12.25-16.54L496,253.29c-1.6.31-7,1.41-12.58,3.1a180.32,180.32,0,0,0,.27-18.27l-.87-21.38Z"/><path class="c" d="M1.33,771c.28-.49,1.78-3.07,3.68-5.84a110.07,110.07,0,0,1-16.24-2.75l-12.52-3.08,12.07-4.54c.77-.29,5.26-2,10.05-3.3-5.89-4.88-13.2-16.63-14-18l-5.4-8.76,9.9,2.81A116.05,116.05,0,0,1,6.32,734c-.61-9.94,1.06-23.25,1.14-23.93L8.81,699.5l5.94,8.89c.39.57,7.82,11.74,11.72,20.9A114.67,114.67,0,0,1,39.2,715.64l7.59-6.94L45.88,719c-.14,1.59-1.44,15.37-4.53,22.37,4.88-.94,9.65-1.46,10.47-1.54l12.83-1.33-9.83,8.36a107.3,107.3,0,0,1-13.31,9.7c2.94,1.63,5.43,3.27,5.91,3.59l9.36,6.22-11.19,1.09c-.17,0-4.1.39-8.15.39a30.08,30.08,0,0,1-7-.62,35.24,35.24,0,0,1-6.34-2.69,35.9,35.9,0,0,1-4.48,5.24c-3.73,3.19-12.44,6.58-13.42,7l-10.49,4Z"/><path class="b" d="M11.43,710.62s11,16.51,13.11,25.28a44.73,44.73,0,0,1,.67,6.29,41.56,41.56,0,0,1,2.17-6.9c3.09-6.26,14.52-16.7,14.52-16.7S40.53,734,37.43,740.26A50.29,50.29,0,0,1,29.77,750a38.63,38.63,0,0,1,4.72-2.71c5.31-2.27,17.74-3.56,17.74-3.56s-9.52,8.09-14.83,10.36a51.06,51.06,0,0,1-10.21,2.45,33,33,0,0,1,5.81.5c4.23,1.06,12.2,6.36,12.2,6.36s-3.86.37-7.76.37a27.67,27.67,0,0,1-6-.5c-1.4-.35-6.87-2.7-8.65-4.49-.79,2.4-4.64,6.94-5.74,7.88C13.74,769.53,4.8,773,4.8,773s4.76-8.3,8.08-11.14a33.39,33.39,0,0,1,5-3,51.11,51.11,0,0,1-10.23,2.37q-.46,0-1,0c-6,0-16.91-2.68-16.91-2.68s11.7-4.4,17.46-4.74h.53c1.07,0,2.92.11,4.9.33A50,50,0,0,1,1.4,748.75c-5.56-4.21-13.67-17.39-13.67-17.39s14.89,4.24,20.45,8.45a42.43,42.43,0,0,1,5,5.21A45,45,0,0,1,11,739.09c-2.06-8.76.44-28.47.44-28.47M6.19,688.38l-2.7,21.23a181.13,181.13,0,0,0-1.3,18.22c-5.42-2.16-10.7-3.72-12.27-4.16L-29.86,718l10.78,17.52a123.19,123.19,0,0,0,10,14c-1.91.65-3.38,1.19-4,1.43l-24.15,9.08,25.05,6.18c.77.19,5.39,1.3,10.41,2.1l-.36.61-11.19,19.5,21-8.05c2.4-.92,10.55-4.19,14.59-7.65a33.91,33.91,0,0,0,3.06-3.27,32.39,32.39,0,0,0,4.19,1.56,33.8,33.8,0,0,0,7.94.74c4.24,0,8.36-.39,8.53-.41l22.38-2.17L49.63,756.77l-.59-.39c3.91-2.78,7.36-5.67,8.37-6.53l19.66-16.71L51.4,735.8c-.69.07-2.24.24-4.24.52a124.72,124.72,0,0,0,2.71-17l1.82-20.49L36.5,712.69c-1.2,1.1-5.23,4.84-9.12,9.21a174.35,174.35,0,0,0-9.3-15.73L6.19,688.38Z"/><path class="c" d="M348.71,934.53c-1-.18-10.23-1.83-14.5-4.25a35.32,35.32,0,0,1-5.4-4.28,36.46,36.46,0,0,1-5.71,3.86c-4.45,2.08-13.75,3-14.79,3.13l-11.19,1.08,8-7.91c.4-.4,2.53-2.48,5.11-4.65a106.37,106.37,0,0,1-14.93-7L284,908.23l12.85-1.16c.22,0,5.32-.48,10.57-.49-4.38-6.28-8.3-19.55-8.75-21.1l-2.86-9.88,8.79,5.36a114.34,114.34,0,0,1,15.11,10.95c2.07-9.74,7.22-22.13,7.48-22.76l4.13-9.87,3.36,10.15c.22.66,4.4,13.4,5.72,23.27a116,116,0,0,1,15.91-9.77l9.17-4.66-3.61,9.63c-.56,1.5-5.49,14.44-10.33,20.36,5.2.42,10.22,1.26,10.5,1.3l12.72,2.14-11.7,5.43A106.65,106.65,0,0,1,347.69,923c2.4,2.35,4.36,4.59,4.73,5l7.37,8.5Z"/><path class="b" d="M330.92,870.69s6.24,18.86,5.9,27.86a43.57,43.57,0,0,1-1,6.24,42.94,42.94,0,0,1,3.93-6.07c4.65-5.2,18.44-12.22,18.44-12.22s-5.42,14.49-10.07,19.69a50.83,50.83,0,0,1-10,7.38,40.52,40.52,0,0,1,5.27-1.36,24.17,24.17,0,0,1,3.11-.17,112.32,112.32,0,0,1,14.93,1.47s-11.33,5.26-17.05,6a27.42,27.42,0,0,1-3.12.13,52.27,52.27,0,0,1-7.38-.48,32.67,32.67,0,0,1,5.47,2c3.8,2.15,10.07,9.38,10.07,9.38S340,929,336.17,926.8c-1.25-.71-5.91-4.43-7.14-6.63-1.4,2.1-6.33,5.45-7.63,6.07-3.95,1.85-13.48,2.77-13.48,2.77s6.81-6.74,10.76-8.59a32.66,32.66,0,0,1,5.61-1.6c-.88.07-1.85.1-2.84.1a49.49,49.49,0,0,1-7.65-.54c-5.65-1.21-16.55-7.33-16.55-7.33s5.27-.47,10.5-.47a39.13,39.13,0,0,1,7.59.56,40.81,40.81,0,0,1,5.15,1.75,50.49,50.49,0,0,1-9.39-8.11c-4.24-5.54-8.55-20.41-8.55-20.41s13.22,8,17.46,13.59a42.83,42.83,0,0,1,3.46,6.36,42.46,42.46,0,0,1-.55-6.3c.34-9,8-27.33,8-27.33m.88-22.83-8.26,19.75a175.49,175.49,0,0,0-6.11,17.22c-4.65-3.54-9.32-6.44-10.71-7.29l-17.57-10.7,5.72,19.76a123.58,123.58,0,0,0,5.93,16.19c-2.43.13-4.14.28-4.27.29l-25.7,2.32L293.33,918c1.16.65,5.1,2.82,9.47,4.8l-.5.49-16,15.81L308.69,937c2.56-.25,11.28-1.23,16.11-3.49a32.62,32.62,0,0,0,3.81-2.34,32.09,32.09,0,0,0,3.63,2.62c4.63,2.63,13.25,4.27,15.78,4.71l22.15,3.87-14.72-17-.47-.52c4.51-1.65,8.6-3.51,9.81-4.07l23.4-10.87-25.45-4.27c-.16,0-1.84-.31-4.23-.63a124.82,124.82,0,0,0,7.15-15.69L372.87,870l-18.33,9.33c-1.46.74-6.34,3.28-11.24,6.44a177.79,177.79,0,0,0-4.78-17.63l-6.72-20.32Z"/><circle class="e" cx="395.92" cy="785.92" r="104.08"/><path class="f" d="M329.91,823.83h23.52v-75.6H334.72v-8.52c9.36-1.64,16.15-4.14,21.85-7.54h10.11v91.66h21.2v11h-58Z"/><path class="f" d="M404.37,783.13c0-34.43,12.4-52.89,32.9-52.89s32.91,18.52,32.91,52.89-12.4,53.65-32.91,53.65S404.37,817.56,404.37,783.13Zm53,0c0-30.1-8.12-42.22-20.06-42.22s-20,12.12-20,42.22,8.12,43,20,43S457.33,813.23,457.33,783.13Z"/></svg>