<svg xmlns="http://www.w3.org/2000/svg" width="510" height="900" viewBox="0 0 510 900"><defs><style>.a,.b,.f,.i{fill:none;}.a,.b,.d,.f,.g,.i,.j{stroke:#432d1e;}.a,.b{stroke-linecap:round;}.a,.b,.f,.g{stroke-miterlimit:5;}.a,.d,.f,.g{stroke-width:8px;}.b{stroke-width:5px;}.c{fill:#56634a;}.d{fill:#db85a0;}.d,.i,.j,.k{stroke-miterlimit:2;}.e,.g,.k{fill:#5c5b54;}.h{fill:#432d1e;}.i{stroke-width:7px;}.j{fill:#fff;stroke-width:15px;}.k{stroke:#5c5b54;stroke-width:12px;}</style></defs><title>112</title><path class="a" d="M84.65-14.7c9.75,59.23,18.53,118.93,45.83,172.63"/><path class="b" d="M47.88-7.51A117.74,117.74,0,0,1,28.81,6"/><path class="b" d="M66.93-4.31C57.64,7,45.69,16.22,33.4,23.94"/><path class="b" d="M85.4-10.83C78.87,10.69,61.94,29.83,43,41.35"/><path class="b" d="M88.5,15.82C82.42,35.49,68.76,52.59,52.35,64.69"/><path class="b" d="M93.15,41.06A91.79,91.79,0,0,1,62.63,86.28"/><path class="b" d="M98,64.15a89.64,89.64,0,0,1-22.85,39.57"/><path class="b" d="M103.25,88.21a95,95,0,0,1-15.89,33.67"/><path class="b" d="M109.22,114.69S106.7,127.42,97,135.38"/><path class="b" d="M117,132.34s-1.1,7.37-8.8,15.15"/><path class="b" d="M88.58,18.56s17.89-1.34,24.84,9.3"/><path class="b" d="M92.14,43.84s15.14.95,23.72,8.53"/><path class="b" d="M97.46,70s9.26-1.21,18.35,6.26"/><path class="b" d="M102.53,92s7.81-.26,17,5.51"/><path class="b" d="M111.08,113.83a30.26,30.26,0,0,1,11.56,3.51"/><path class="b" d="M117.94,132.09a19,19,0,0,1,8.68,2.49"/><path class="a" d="M470-4.69a248.77,248.77,0,0,1,41.77,54.16"/><path class="b" d="M472.4-2.33c-1.19,13.59-6.86,27.69-16.31,37.67"/><path class="b" d="M484,11.67c-1.57,17.14-12,30.43-24.17,41.82"/><path class="b" d="M496.13,27.53c-2.85,19-15.53,32.75-30,44.22"/><path class="b" d="M507.27,44C503.42,63.1,489.19,78.7,473.1,88.77"/><path class="b" d="M511.78,78.43c-8.45,14.6-23.46,26.14-38,32.75"/><path class="b" d="M513.82,105.78c-10.21,11.8-24.33,20.63-37.93,27.46"/><path class="b" d="M512.67,131.35c-10.43,9.3-23.21,16.41-35.4,22"/><path class="b" d="M513.19,155.27c-9.82,7.94-21.17,14.25-32.21,19.38"/><path class="b" d="M513.19,179.56A132,132,0,0,1,485.89,196"/><path class="b" d="M513.2,202.56a137.75,137.75,0,0,1-23.6,13.3"/><path class="b" d="M513.2,225.89a135,135,0,0,1-20.75,11.36"/><path class="b" d="M514.45,247.19a115.87,115.87,0,0,1-17.13,9.25"/><path class="b" d="M514.07,267.14c-4.58,2.78-9.29,5.33-14,7.66"/><path class="b" d="M514.45,289.64q-3.29,1.88-6.65,3.47"/><path class="b" d="M474.7.24c12.28-.5,25.12.9,36.69,5.33"/><path class="b" d="M485.34,13.89a95.7,95.7,0,0,1,27.45,2.61"/><path class="b" d="M498.37,27.27c4.44.35,8.94.89,13.41,1.67"/><path class="a" d="M293.58-2.91a250,250,0,0,0-36.83,54c-17.38,34.44-26,70.88-30.86,108.21"/><path class="b" d="M302.26-12.12c1.19,13.59,6.86,27.69,16.31,37.67"/><path class="b" d="M290.63,1.88c1.57,17.14,12,30.44,24.17,41.82"/><path class="b" d="M278.53,17.74c2.85,19,15.53,32.75,30,44.23"/><path class="b" d="M267.39,34.25c3.84,19.06,18.08,34.66,34.17,44.73"/><path class="b" d="M256.92,53.34c4.49,21.79,24.64,39.27,44,48.05"/><path class="b" d="M247.68,71.48c6.3,25,29.37,41.06,51.09,52"/><path class="b" d="M241.67,90.74c7.34,26.13,32.59,42.2,55.72,52.83"/><path class="b" d="M236.72,111.65c8.51,26,33.44,42.28,57,53.22"/><path class="b" d="M232.8,132.72c9.28,24.63,32.68,43,56,53.49"/><path class="b" d="M289.32,4.1c-13.79-.56-28.35,1.32-40.8,7.51"/><path class="b" d="M276.29,17.48c-15.21,1.21-31,4.64-44.43,12.08"/><path class="b" d="M265.67,35.42c-14.86,1.14-30.41,4.5-43.4,12"/><path class="b" d="M254.23,55.69c-14,2.35-28.53,6.86-39.94,15.57"/><path class="b" d="M246.06,73.57c-13.71,2.36-27.95,6.9-38.94,15.68"/><path class="b" d="M240.05,91.86c-13.46,2.36-27.46,6.93-38.07,15.78"/><path class="b" d="M235.49,111.51c-13.23,2.38-27,7-37.32,15.87"/><path class="b" d="M230.25,130.26c-12.7,3-25.88,8.24-35.14,17.71"/><path class="c" d="M23.63-3.55c44.85,58.45,67,137.92,79.9,206.13,26.16,138.58,18.39,284.71,74.72,417.68C81.36,526.42,34.54,404.55-2.54,279L-1.87-3.55Z"/><path class="a" d="M-2.54,33.68C85,187.3,75.56,400.37,144.34,557.48"/><path class="b" d="M4.46,53a87.05,87.05,0,0,1-7,32.77"/><path class="b" d="M17.9,78.41C17.22,98.73,9,118.48-3.49,134.69"/><path class="b" d="M28.14,105.6c-1.28,24.07-13.15,46.9-30,64.22"/><path class="b" d="M37.57,135.25c-2.45,28.19-18.48,54.7-40,72.9"/><path class="b" d="M46,165.17c-4,31.66-23.13,61.71-48.49,80.51"/><path class="b" d="M55.51,192.57C51.1,224.69,31.34,255,5.36,273.9"/><path class="b" d="M62,225.09c-4.69,31.31-23.87,60.91-49.3,79.3"/><path class="b" d="M68.13,255.5c-4.71,29.77-22.47,58.18-46.5,76.07"/><path class="b" d="M75.31,281.41c-4.55,30.06-22.65,58.62-47.13,76.3"/><path class="b" d="M80.82,312C76.24,339.35,61.57,365.89,40,383.43"/><path class="b" d="M86.54,350.45c-4.05,24.61-15.88,50.21-34.39,67.17"/><path class="b" d="M93.79,387c-3.41,22.36-12.8,46-28.67,62.38"/><path class="b" d="M101.09,420.48c-2.78,19.38-9.45,38.95-21,54.9"/><path class="b" d="M108.86,455.38c-2,16.13-6.22,32.67-14,47"/><path class="b" d="M117.64,493.81c-1.39,10.34-4.61,20.46-11.25,28.68"/><path class="b" d="M127.58,519.72a43.42,43.42,0,0,1-8.08,21"/><path class="b" d="M-3.89,5.41A92.14,92.14,0,0,1,26.18,17.25"/><path class="b" d="M-3.89,28.22c15.33,1.21,31,5.57,43.81,13.94"/><path class="b" d="M7.79,56.22C24,58.7,40.67,65,53.17,75.81"/><path class="b" d="M20,81.29c16,2.52,32.28,8.9,44.34,19.83"/><path class="b" d="M30.07,107.1c15.72,2.55,31.78,9,43.45,20"/><path class="b" d="M38.85,135c15.51,2.59,31.32,9.14,42.66,20.2"/><path class="b" d="M48.15,161.49c15.17,3.56,30.34,11.19,40.71,23"/><path class="b" d="M55.71,195.34c15,3.59,30,11.29,40.17,23.1"/><path class="b" d="M62.13,225.05c15,3.62,29.85,11.36,39.93,23.16"/><path class="b" d="M68.15,255.87c12.74,1.74,25.43,8,32.67,19"/><path class="b" d="M75.61,287.46c10.8.06,21.86,5.47,26.76,15.47"/><path class="b" d="M84.31,320.8c10.86.06,22,5.45,27,15.41"/><path class="b" d="M86.87,354.39c10.94.06,22.15,5.42,27.48,15.31"/><path class="b" d="M93,390.91c9.57,1.95,19.82,6.46,26.2,14.11"/><path class="b" d="M101,428.76s9.81-1,20.24,10.44"/><path class="b" d="M108.42,460.82s8.36.24,18.75,9.24"/><path class="b" d="M119.56,492.73s5.36.63,12.71,5.95"/><path class="b" d="M128.56,519.45s4.08.13,9.53,4.25"/><path class="c" d="M328.82-4.28c-59.59,60-56.87,146.93-31.68,222.66,30.52,91.74,92.87,175.38,95.6,276.39A355.22,355.22,0,0,0,430.14,345c.71-28.91-1.94-57.65-6.29-86.24,20.12,52,49.21,99.58,94.43,137.63-23-92.18-14-188.16-28.63-280.37C483.24,75.6,472.74,33.68,454.68-4"/><path class="a" d="M418.88-3.48c44.36,111.76,38.25,243.19,79.7,356.92"/><path class="b" d="M388-3.3a56.9,56.9,0,0,1-9,8.14"/><path class="b" d="M408.08-3.48A61.45,61.45,0,0,1,385,23.84"/><path class="b" d="M421.07,3.09c-2.89,19.9-17.75,35.84-35.15,44.72"/><path class="b" d="M429.28,22.68c-3.6,21.71-21.52,40.23-41.07,48.94"/><path class="b" d="M435.07,42.88c-4.36,23-24.26,41.61-45.14,50.35"/><path class="b" d="M440.26,64.53c-5.22,23.24-25.3,42.19-46.41,51.6"/><path class="b" d="M444.81,86.08c-6.07,22.91-25.12,42.29-45.81,52.8"/><path class="b" d="M450.71,105.78c-6.5,23.47-26.31,43.15-47.5,54"/><path class="b" d="M453.92,128.51c-6.68,23.14-26.23,42.57-47.07,53.53"/><path class="b" d="M457.18,149.59c-6.8,23-25.38,39.62-44.88,52.13"/><path class="b" d="M461.67,167.44c-6.61,22.69-25.66,41.83-45.87,53"/><path class="b" d="M464.53,188.25c-6.25,20.67-22.56,39-40.56,50.33"/><path class="b" d="M467.06,214.23c-6.12,19.69-19.94,35.21-35.4,48.24"/><path class="b" d="M470.92,238.79c-5.61,18.16-17.14,32.63-30.72,45.56"/><path class="b" d="M474.83,261.21A101.66,101.66,0,0,1,451,301.72"/><path class="b" d="M478.73,284.66c-3.74,12.42-9.47,24.84-17.56,35"/><path class="b" d="M482.7,310.75s-3.47,13.1-13.58,22.28"/><path class="b" d="M488.61,328.08s-1.78,7.65-10.07,16.67"/><path class="b" d="M441.1-4a80.44,80.44,0,0,1,8.12,5.94"/><path class="b" d="M423.35,5.84c12.26,4.55,24.3,11.22,33.57,20.54"/><path class="b" d="M430.7,25c12.13,4.27,24.1,10.69,33.23,19.85"/><path class="b" d="M436.48,44.18c12,4,24,10.15,33,19.15"/><path class="b" d="M441.3,64.49c12,3.69,23.89,9.56,32.88,18.39"/><path class="b" d="M446.85,83.77c11.64,4,23.23,10.15,31.66,19.26"/><path class="b" d="M450.69,107.7c11.63,3.63,23.31,9.44,31.8,18.33"/><path class="b" d="M454.07,128.5c11.66,3.31,23.46,8.79,32.08,17.48"/><path class="b" d="M457.18,149.84c9.55,1.62,20.59,5.59,26.56,13.71"/><path class="b" d="M461.57,171.55s16.23,0,22,10.61"/><path class="b" d="M467,194.18s16.46-.42,22.55,9.88"/><path class="b" d="M467.09,216.9s16.69-.87,23.1,9.23"/><path class="b" d="M469.9,241.5s14.23.87,22.18,7.91"/><path class="b" d="M474.07,266.92a23.4,23.4,0,0,1,17.2,5.41"/><path class="b" d="M477.83,288.5s7.48-.64,15.95,4.43"/><path class="b" d="M484.55,309.74a25.5,25.5,0,0,1,10.8,2.62"/><path class="b" d="M489.53,327.74a15.51,15.51,0,0,1,8.08,1.73"/><path class="a" d="M353.22-10.3c-17,30.31-27.06,65-29.86,99.23-10.09,123.73,72,232.47,74.29,355.37"/><path class="b" d="M351.19-6.15a42.5,42.5,0,0,0,17.72,28.64"/><path class="b" d="M341.75,13.25C348,25.39,358.52,36.32,371,42"/><path class="b" d="M336.24,30.59c7.9,15.29,22.61,23.67,38.13,29.65"/><path class="b" d="M331,49.84c9.78,16.5,26.71,24.5,44.45,29.68"/><path class="b" d="M326.89,69.33c10.73,16.21,29.8,25.31,48.49,28.58"/><path class="b" d="M324.38,91c12.36,18.5,37.6,27.11,58.83,28"/><path class="b" d="M322.64,111.24c15.26,20.84,42.67,27,66.89,28.93"/><path class="b" d="M324.32,131.35c16.63,21.44,46.07,26.83,71.51,28"/><path class="b" d="M327.6,152.59c17.68,20.91,46.9,26.58,72.8,27.86"/><path class="b" d="M331.89,173.58c17.88,19.33,46.47,27.54,72,28.49"/><path class="b" d="M334.21,193.54c18.52,19.42,47.65,27.56,73.71,28.33"/><path class="b" d="M341.13,215.3c18.34,18.77,46.67,26.75,72.2,27.47"/><path class="b" d="M347.46,235.71c17.47,17.52,44.35,26.06,68.58,26.67"/><path class="b" d="M351.23,253.86c18.1,18.46,44.29,24.74,69.2,26.55"/><path class="b" d="M358.19,274.14C374.06,290.07,398,299,420.13,300.29"/><path class="b" d="M368,299.12c14.6,14.51,34.7,23.19,54.86,26.16"/><path class="b" d="M375.72,323.58a91.83,91.83,0,0,0,48.18,25.6"/><path class="b" d="M382.26,346.26A89.59,89.59,0,0,0,421,370.47"/><path class="b" d="M388.94,370a95,95,0,0,0,29.85,22.26"/><path class="b" d="M396.12,396.14s8.2,10.05,20.51,12.52"/><path class="b" d="M397.53,415.37s4.43,6,14.88,9.25"/><path class="b" d="M349.56-2.95C339.47.54,329,6.1,321.88,14.23"/><path class="b" d="M340.58,16.5C327.36,21.24,314.4,28.58,304.86,39"/><path class="b" d="M335.86,33.15c-13,4.66-25.77,11.89-35,22.31"/><path class="b" d="M328.82,50.44c-13.63,6.84-27,16-36.61,27.92"/><path class="b" d="M325.74,71.06C312.4,77.71,299.26,86.67,290,98.49"/><path class="b" d="M322.76,94.15c-12.1,7.45-23.84,17.09-31.14,29.45"/><path class="b" d="M321.92,113.79c-11.81,7.34-23.3,16.9-30.17,29.18"/><path class="b" d="M323.24,133c-11.58,7.26-22.83,16.75-29.34,28.95"/><path class="b" d="M326.41,152.92C315,160.1,304,169.54,297.8,181.67"/><path class="b" d="M328.61,172.26c-10.65,7.53-20.87,17.38-25.89,29.62"/><path class="b" d="M335.1,195.25c-10.52,7.48-20.58,17.3-25.4,29.48"/><path class="b" d="M341,215.35c-10.45,7.46-20.43,17.27-25.17,29.42"/><path class="b" d="M347.58,235.94c-8.77,5-18.49,13.8-20.57,24.09"/><path class="b" d="M353.27,257.56s-16.38,7.21-16.89,19.69"/><path class="b" d="M358.57,280.71s-16.39,7.2-17.15,19.76"/><path class="b" d="M369.19,301.58s-16.43,7.21-17.56,19.87"/><path class="b" d="M377.92,325.57S365,333.51,361,344.24"/><path class="b" d="M385.48,351.12s-8.73,3.28-13.25,14.15"/><path class="b" d="M391.39,373s-7,3.44-12.44,12.85"/><path class="b" d="M394.07,396.25a30.28,30.28,0,0,0-8.55,8.53"/><path class="b" d="M396.59,415.6a18.89,18.89,0,0,0-6.49,6.27"/><path class="c" d="M206.81-11c4.27,72.27,4.42,145.85,37.62,212.55A355.17,355.17,0,0,1,141.08,86.9C123.9,56.41,111.15,23.84,100.27-9.47"/><path class="a" d="M170.56-13.34c9.74,59.23,18.52,118.93,45.83,172.63"/><path class="b" d="M133.79-6.15A117.74,117.74,0,0,1,114.72,7.32"/><path class="b" d="M152.84-2.95c-9.29,11.27-21.25,20.53-33.53,28.25"/><path class="b" d="M171.31-9.47c-6.53,21.51-23.47,40.66-42.4,52.18"/><path class="b" d="M174.41,17.17C168.33,36.84,154.67,54,138.26,66.05"/><path class="b" d="M179.06,42.41a91.77,91.77,0,0,1-30.52,45.23"/><path class="b" d="M183.93,65.5a89.56,89.56,0,0,1-22.84,39.58"/><path class="b" d="M189.16,89.56a94.94,94.94,0,0,1-15.9,33.67"/><path class="b" d="M195.13,116.05s-2.52,12.73-12.23,20.69"/><path class="b" d="M202.92,133.69s-1.1,7.38-8.81,15.16"/><path class="b" d="M174.06-3.49s17.85-1.34,24.42,9.39"/><path class="b" d="M174.49,19.92s17.89-1.34,24.84,9.3"/><path class="b" d="M178.05,45.2s15.14.94,23.71,8.53"/><path class="b" d="M183.37,71.31s9.25-1.2,18.35,6.27"/><path class="b" d="M188.43,93.4s7.82-.27,17,5.5"/><path class="b" d="M197,115.19a30.2,30.2,0,0,1,11.55,3.51"/><path class="b" d="M203.85,133.45a19,19,0,0,1,8.68,2.49"/><path class="d" d="M308.54,730.33l120-101.77s-152.1-123.48-152.1-481.67l-140.11,18C136.3,597.76,308.54,730.33,308.54,730.33Z"/><path class="e" d="M-13.55,307.35c30.37,52.57,9.26,51.08,28,118.74,9.82,35.46,25.09,74.79,37.09,115.67,11.64,39.64,20,80.89,31.79,117.25,15.3,47.19,33.63,86.61,45.6,112.33,7.27,10.86,11.05,24.12,18,35.3,7.23,11.54,17.6,20.92,24.06,31.77,7.44,12.49,10.76,26.19,16.51,36.26,11.84,20.73,39.59,26.25,22,35.39-15.19,7.88-18-3.78-35.15-3.78s-17.12,4-34.23,4-17.12-4-34.24-4-19,10.05-35,3.86c-17.28-6.7-2-17.47-7.81-38C60.07,861.3,52.76,850,49.47,837.47s-2.48-25.77-4.95-37c-3.65-16.44-9.73-28.95-9.08-35.44-6.73-9-11.79-23.07-20-42.12-5.17-12.07-13.9-25.54-17.94-43.64-3-13.51-1.58-29.54-3.31-47.16C-7.17,618-12,602.57-12.29,585.34-12.59,563.66-9,540-9.37,516c-.39-23.2-4.81-46.68-5.22-69.18-.46-25,3.09-48.8,2.69-69.31C-12.69,336.51-30.86,277.37-13.55,307.35Z"/><path class="f" d="M-13.55,307.35c30.37,52.57,9.26,51.08,28,118.74,9.82,35.46,25.09,74.79,37.09,115.67,11.64,39.64,20,80.89,31.79,117.25,15.3,47.19,33.63,86.61,45.6,112.33,7.27,10.86,11.05,24.12,18,35.3,7.23,11.54,17.6,20.92,24.06,31.77,7.44,12.49,10.76,26.19,16.51,36.26,11.84,20.73,39.59,26.25,22,35.39-15.19,7.88-18-3.78-35.15-3.78s-17.12,4-34.23,4-17.12-4-34.24-4-19,10.05-35,3.86c-17.28-6.7-2-17.47-7.81-38C60.07,861.3,52.76,850,49.47,837.47s-2.48-25.77-4.95-37c-3.65-16.44-9.73-28.95-9.08-35.44-6.73-9-11.79-23.07-20-42.12-5.17-12.07-13.9-25.54-17.94-43.64-3-13.51-1.58-29.54-3.31-47.16C-7.17,618-12,602.57-12.29,585.34-12.59,563.66-9,540-9.37,516c-.39-23.2-4.81-46.68-5.22-69.18-.46-25,3.09-48.8,2.69-69.31C-12.69,336.51-30.86,277.37-13.55,307.35Z"/><path class="g" d="M110.74,747.18c-7,2.59-15.92-3.92-19.82-14.55C86,719.35,89.23,706,98,702.73a15.33,15.33,0,0,1,8.63-.49c8.83,1.94,17.77,10.78,22.34,23.23,7.63,20.75,2.65,41.67-11.11,46.72-17.2,6.32-38.87-9.59-48.39-35.53-11.91-32.42-4.14-65.11,17.36-73,0,0,20,29.78,21.14,38"/><path class="h" d="M-13.62,379.37c3.35,11.92,6.56,23.88,9.85,35.83l9.6,35.88L10.73,469q2.44,9,4.46,18l1.93,9.09c.6,3,1.24,6.07,1.78,9.13,1.15,6.09,2.19,12.21,3,18.39a.26.26,0,0,1-.22.28.24.24,0,0,1-.27-.16c-2.17-5.84-4.08-11.75-5.9-17.67-.93-3-1.77-5.94-2.65-8.91l-2.51-8.95q-2.43-9-4.41-18L1.94,452-6.2,415.79c-2.63-12.1-5.33-24.19-7.9-36.31a.24.24,0,0,1,.19-.29A.24.24,0,0,1-13.62,379.37Z"/><path class="h" d="M-11.61,488.1c4.1,13.65,8.07,27.34,12.1,41l11.86,41.07,6,20.51q3,10.26,5.59,20.63l2.5,10.39c.78,3.48,1.62,6.94,2.35,10.43,1.52,7,2.95,14,4.11,21a.25.25,0,0,1-.21.29.24.24,0,0,1-.27-.16c-2.55-6.69-4.83-13.45-7-20.24-1.13-3.39-2.15-6.8-3.22-10.2l-3.07-10.24q-3-10.26-5.54-20.64L8.49,571.22-1.92,529.76c-3.39-13.85-6.84-27.67-10.17-41.53a.25.25,0,0,1,.19-.3A.24.24,0,0,1-11.61,488.1Z"/><path class="h" d="M28.42,557.41c2.38,7.12,4.63,14.28,7,21.42l3.39,10.73,3.32,10.76c1.14,3.57,2.28,7.15,3.46,10.71s2.16,7.19,3,10.84l1.22,5.5c.35,1.84.76,3.68,1.06,5.54.67,3.71,1.24,7.44,1.55,11.24a.26.26,0,0,1-.49.14c-1.69-3.43-3.11-6.92-4.45-10.44-.69-1.76-1.28-3.54-1.93-5.31l-1.78-5.34q-1.71-5.37-3-10.85t-2.54-11l-2.67-10.93-2.6-11c-1.68-7.32-3.42-14.62-5-22a.24.24,0,0,1,.19-.29A.25.25,0,0,1,28.42,557.41Z"/><path class="h" d="M-2.31,608.23c5.45,13.26,10.78,26.58,16.18,39.87l15.94,39.95,8.06,20q4,10,7.65,20.1l3.53,10.16c1.13,3.4,2.31,6.79,3.39,10.21,2.22,6.83,4.34,13.69,6.21,20.65a.24.24,0,0,1-.18.3.24.24,0,0,1-.29-.13c-3.21-6.45-6.16-13-9-19.57-1.45-3.28-2.82-6.6-4.23-9.9l-4.08-10q-4-10-7.6-20.12l-7.17-20.28L11.53,649c-4.77-13.52-9.6-27-14.31-40.57a.26.26,0,0,1,.16-.32A.24.24,0,0,1-2.31,608.23Z"/><path class="h" d="M98.06,819.24c3.25,7.27,6.36,14.59,9.55,21.88l9.3,22c1.57,3.66,3.14,7.31,4.75,10.95s3,7.35,4.33,11.11l1.88,5.67c.58,1.9,1.2,3.79,1.73,5.72,1.11,3.83,2.13,7.69,2.9,11.66a.27.27,0,0,1-.2.3.26.26,0,0,1-.27-.12c-2.1-3.45-3.95-7-5.71-10.57-.9-1.78-1.71-3.6-2.57-5.4L121.33,887Q119,881.46,117,875.82t-3.86-11.29L105.27,842c-2.55-7.54-5.18-15-7.67-22.6a.25.25,0,0,1,.16-.32A.24.24,0,0,1,98.06,819.24Z"/><path class="h" d="M109.09,779.2c2.65,5,5.18,10.08,7.77,15.11l3.81,7.59,3.74,7.62c1.24,2.54,2.56,5,3.86,7.56a81.15,81.15,0,0,1,3.46,7.74c1,2.65,1.92,5.33,2.75,8.06a69.39,69.39,0,0,1,2.05,8.36.26.26,0,0,1-.21.3.26.26,0,0,1-.25-.09,68.77,68.77,0,0,1-4.81-7.15c-1.46-2.44-2.83-4.93-4.11-7.45a78.77,78.77,0,0,1-3.4-7.77c-1-2.65-2-5.32-3-8l-3.12-7.89-3.06-7.92c-2-5.31-4-10.58-5.94-15.91a.24.24,0,0,1,.15-.32A.25.25,0,0,1,109.09,779.2Z"/><path class="h" d="M149,863.68c2.8,3.84,5.48,7.75,8.22,11.62l4,5.86,4,5.9c1.32,2,2.72,3.89,4.1,5.83A55.1,55.1,0,0,1,173,899c1.1,2.1,2.14,4.24,3.05,6.45a49.61,49.61,0,0,1,2.4,6.86.27.27,0,0,1-.19.32.29.29,0,0,1-.24-.06,48.4,48.4,0,0,1-5-5.29c-1.54-1.84-3-3.74-4.32-5.69a56.85,56.85,0,0,1-3.67-6.09c-1.08-2.11-2.14-4.24-3.28-6.32l-3.39-6.24-3.33-6.29c-2.17-4.22-4.4-8.41-6.52-12.67a.25.25,0,0,1,.11-.33A.25.25,0,0,1,149,863.68Z"/><path class="h" d="M56.3,762.92C59.92,776,63.41,789.1,67,802.19l10.42,39.34,5.31,19.64q2.65,9.81,4.87,19.75l2.13,9.94c.67,3.33,1.38,6.65,2,10,1.28,6.67,2.46,13.36,3.38,20.11a.25.25,0,0,1-.21.29.26.26,0,0,1-.27-.17c-2.31-6.41-4.36-12.89-6.31-19.39-1-3.25-1.91-6.52-2.86-9.77l-2.71-9.81q-2.64-9.83-4.82-19.76L73.5,842.48l-9-39.69c-2.91-13.25-5.88-26.48-8.72-39.75a.25.25,0,0,1,.48-.12Z"/><path class="e" d="M-872.5,274.39c52.2-20.95,92.22-53.71,109.35-85.69-39-8.5-99.68-2.89-127.69.46a56.35,56.35,0,0,0-27.32,11c-22.56,16.93-70.32,54.87-92.59,87.93C-976.27,299.33-924.7,295.33-872.5,274.39Z"/><path class="i" d="M-872.5,274.39c52.2-20.95,92.22-53.71,109.35-85.69-39-8.5-99.68-2.89-127.69.46a56.35,56.35,0,0,0-27.32,11c-22.56,16.93-70.32,54.87-92.59,87.93C-976.27,299.33-924.7,295.33-872.5,274.39Z"/><circle class="j" cx="395.92" cy="785.92" r="104.08"/><path class="k" d="M329.91,823.83h23.52v-75.6H334.72v-8.52c9.36-1.65,16.15-4.14,21.85-7.54h10.11v91.66h21.2v11h-58Z"/><path class="k" d="M409.93,823.83h23.52v-75.6H414.74v-8.52c9.35-1.65,16.15-4.14,21.84-7.54h10.11v91.66h21.2v11h-58Z"/></svg>