<svg xmlns="http://www.w3.org/2000/svg" width="510" height="900" viewBox="0 0 510 900"><defs><style>.a,.e{fill:#56634a;}.a,.b,.c,.d{stroke:#432d1e;}.a,.b,.c,.d,.e{stroke-miterlimit:2;}.a,.b,.c{stroke-width:8px;}.b{fill:#ffdc82;}.c{fill:none;}.d{fill:#fff;stroke-width:15px;}.e{stroke:#56634a;stroke-width:12px;}</style></defs><title>13</title><path class="a" d="M-23.6,438.74c35.68-180.66,96-339.9,96-339.9S190.81,411.13,194,657.22C280.13,591,347.21,548.4,347.21,548.4S296.12,725.67,210.35,898.34c5.57,6.72-155.27,8.42-233.95,5.1Z"/><path class="a" d="M-12,816.74V789.39c23.74,30.3,48.26,61.73,72.66,93.16-.52-33.25-.8-76.32-.8-132.09,0-247.54,12.56-651.62,12.56-651.62S85,502.92,85,750.46c0,55.68-.29,98.68-.81,131.92,129.79-167.2,263-334,263-334S214.68,737.28,85.87,915.08c2.67,3.46-29.68,3.46-27,0C35.09,882.26,11.18,849.06-12,816.74Z"/><rect class="b" x="56.7" y="87.92" width="31.46" height="69.87" transform="translate(144.86 245.71) rotate(-180)"/><path class="c" d="M75.31,359.62c34.52,0,69-35.2,69-35.2"/><path class="c" d="M77.33,328.83c29.4,0,58.8-30,58.8-30"/><path class="c" d="M74.52,301.32c28.1,0,56.19-28.65,56.19-28.65"/><path class="c" d="M75.06,271.12c23.41,0,46.82-23.87,46.82-23.87"/><path class="c" d="M74.91,239.58c19.56,0,39.11-19.94,39.11-19.94"/><path class="c" d="M75.1,208.68c15.58,0,31.16-15.89,31.16-15.89"/><path class="c" d="M77.82,390.61c36.54,0,73.08-37.25,73.08-37.25"/><path class="c" d="M78.64,452.14c42,0,84-42.81,84-42.81"/><path class="c" d="M78.89,421.37c39.29,0,78.58-40.06,78.58-40.06"/><path class="c" d="M81.48,634.3C135.75,634.3,190,579,190,579"/><path class="c" d="M81.82,602.81c52.45,0,104.89-53.47,104.89-53.47"/><path class="c" d="M81.79,575.56c50.86,0,101.72-51.85,101.72-51.85"/><path class="c" d="M80.66,544.68c48.81,0,97.63-49.77,97.63-49.77"/><path class="c" d="M80.87,513.84c46.49,0,93-47.4,93-47.4"/><path class="c" d="M79.75,483c44.29,0,88.58-45.15,88.58-45.15"/><path class="c" d="M81.41,665.42c55,0,110-56.07,110-56.07"/><path class="c" d="M82.72,696.65c55.12,0,110.24-54.88,110.24-54.88"/><path class="c" d="M69.42,359.62c-34.52,0-69-35.2-69-35.2"/><path class="c" d="M67.4,328.83c-29.4,0-58.8-30-58.8-30"/><path class="c" d="M70.21,301.32c-28.1,0-56.19-28.65-56.19-28.65"/><path class="c" d="M69.67,271.12c-23.41,0-46.82-23.87-46.82-23.87"/><path class="c" d="M69.82,239.58c-19.56,0-39.11-19.94-39.11-19.94"/><path class="c" d="M69.63,208.68c-15.58,0-31.16-15.89-31.16-15.89"/><path class="c" d="M66.91,390.61c-36.54,0-73.07-37.25-73.07-37.25"/><path class="c" d="M66.09,452.14c-28,0-55.95-19-71.51-31.68"/><path class="c" d="M65.84,421.37c-27.87,0-55.75-20.16-69.59-31.88"/><path class="c" d="M63.25,634.3c-25.77,0-51.54-12.48-71.5-25.59"/><path class="c" d="M62.91,602.81c-25.25,0-50.51-12.4-69.91-25.25"/><path class="c" d="M62.94,575.56c-25.43,0-50.86-13-69.93-25.93"/><path class="c" d="M64.07,544.68c-26.79,0-53.59-15-72.32-28.53"/><path class="c" d="M63.86,513.84c-27.11,0-54.21-16.11-72.11-29.55"/><path class="c" d="M65,483c-26.7,0-53.4-16.41-70.4-29.45"/><path class="c" d="M63.32,665.42c-24.56,0-49.13-11.19-68.79-23.57"/><path class="c" d="M62,696.65c-24.64,0-49.29-11.23-69-23.66"/><path class="c" d="M39.58,885.6c-13.3,10-30.23,15.08-46.5,17.54"/><path class="c" d="M22,860.23c-8.49,6.36-18.54,10.64-28.9,13.49"/><path class="c" d="M-3.83,752.48C10,723.36,14.34,685.16,14.34,685.16"/><path class="c" d="M14.42,827.35C48,802.18,59.93,729.53,59.93,729.53"/><path class="c" d="M-3.83,802.58C27.61,779,39,694.35,39,694.35"/><path class="c" d="M33.8,851.37c11.08-8.3,19.51-20.12,25.87-32.46"/><rect class="b" x="317.08" y="532.68" width="31.46" height="69.87" transform="translate(258.86 1221.44) rotate(-143.16)"/><path class="c" d="M193.16,758.83c27.63,20.7,76.36,13.23,76.36,13.23"/><path class="c" d="M213.24,735.4c23.53,17.63,65,11.27,65,11.27"/><path class="c" d="M227.49,711.7c22.48,16.84,62.14,10.76,62.14,10.76"/><path class="c" d="M246,687.85c18.74,14,51.79,9,51.79,9"/><path class="c" d="M264.82,662.52c15.65,11.72,43.25,7.49,43.25,7.49"/><path class="c" d="M283.49,637.9c12.47,9.34,34.46,6,34.46,6"/><path class="c" d="M176.59,785.14c29.24,21.91,80.82,14,80.82,14"/><path class="c" d="M140.36,834.88C174,860.06,233.24,851,233.24,851"/><path class="c" d="M159,810.4c31.45,23.56,86.91,15.05,86.91,15.05"/><path class="c" d="M105.15,885.6C142.36,913.47,208,903.41,208,903.41"/><path class="c" d="M122.76,860.23c35.44,26.55,98,17,98,17"/><path class="c" d="M188.45,755.3c-27.63-20.7-36.8-82.77-36.8-82.77"/><path class="c" d="M205.29,729.45c-23.53-17.63-33-72.45-33-72.45"/><path class="c" d="M224,709.11c-22.48-16.84-27.79-56.61-27.79-56.61"/><path class="c" d="M241.71,684.62c-18.74-14-23.17-47.17-23.17-47.17"/><path class="c" d="M260.74,659.47c-15.65-11.73-19.35-39.41-19.35-39.41"/><path class="c" d="M279.12,634.63c-12.47-9.34-15.42-31.4-15.42-31.4"/><path class="c" d="M167.86,778.6c-29.24-21.9-37.47-93.44-37.47-93.44"/><path class="c" d="M130.31,827.35C96.7,802.18,84.8,729.53,84.8,729.53"/><path class="c" d="M148.56,802.58C117.12,779,105.72,694.35,105.72,694.35"/><path class="c" d="M110.93,851.37c-11.07-8.3-19.51-20.12-25.87-32.46"/><path class="a" d="M518.05,908.28H380.41c-41.56-94.49-65.6-177.93-65.6-177.93s44.2,28.06,100.95,71.71c2.07-162,80-367.65,80-367.65s10.77,28.41,24.41,72.42Z"/><path class="a" d="M455.29,908.28H441.12c-67.78-94.5-126.31-177.93-126.31-177.93S381.54,813.89,455.29,908.28Z"/><path class="a" d="M487.62,908.28c-.07-13.38-.11-28.28-.11-44.91,0-163,8.27-429,8.27-429s8.27,266,8.27,429c0,16.63,0,31.53-.11,44.91Z"/><rect class="b" x="485.42" y="427.22" width="20.71" height="45.99" transform="translate(991.56 900.43) rotate(-180)"/><path class="c" d="M497.68,606.08c7.65,0,15.29-2.63,22.08-6.11"/><path class="c" d="M499,585.81c7.25,0,14.51-2.77,20.75-6.24"/><path class="c" d="M497.16,567.7c8.21,0,16.43-3.72,23-7.86"/><path class="c" d="M497.51,547.82c8.39,0,16.77-4.65,22.68-8.9"/><path class="c" d="M497.41,527.05c9.12,0,18.23-6.58,22.78-10.42"/><path class="c" d="M497.53,506.71c10.26,0,20.52-10.45,20.52-10.45"/><path class="c" d="M499.33,626.48c7,0,14-2.08,20.43-5"/><path class="c" d="M499.87,667a54,54,0,0,0,19.89-4.24"/><path class="c" d="M500,646.73a51.41,51.41,0,0,0,19.73-4.42"/><path class="c" d="M501.74,786.9a63,63,0,0,0,17.18-2.55"/><path class="c" d="M502,766.17a61.29,61.29,0,0,0,16.95-2.56"/><path class="c" d="M501.94,748.24a59.67,59.67,0,0,0,17-2.65"/><path class="c" d="M501.2,727.9a58.3,58.3,0,0,0,17.82-3"/><path class="c" d="M501.34,707.6a56.79,56.79,0,0,0,18.42-3.35"/><path class="c" d="M500.6,687.29a55.49,55.49,0,0,0,19.16-3.77"/><path class="c" d="M501.69,807.39a64.13,64.13,0,0,0,17.23-2.53"/><path class="c" d="M502.55,828A63.81,63.81,0,0,0,517.7,826"/><path class="c" d="M493.8,606.08c-22.73,0-45.45-23.17-45.45-23.17"/><path class="c" d="M492.47,585.81c-19.35,0-38.71-19.73-38.71-19.73"/><path class="c" d="M494.32,567.7c-18.5,0-37-18.86-37-18.86"/><path class="c" d="M494,547.82c-15.41,0-30.82-15.71-30.82-15.71"/><path class="c" d="M494.06,527.05c-12.87,0-25.74-13.12-25.74-13.12"/><path class="c" d="M493.94,506.71c-10.26,0-20.51-10.45-20.51-10.45"/><path class="c" d="M492.15,626.48C468.09,626.48,444,602,444,602"/><path class="c" d="M491.61,667c-27.65,0-55.29-28.19-55.29-28.19"/><path class="c" d="M491.44,646.73c-25.86,0-51.73-26.37-51.73-26.37"/><path class="c" d="M489.74,786.9c-35.73,0-71.45-36.42-71.45-36.42"/><path class="c" d="M489.51,766.17c-34.52,0-69.05-35.2-69.05-35.2"/><path class="c" d="M489.53,748.24c-33.48,0-67-34.14-67-34.14"/><path class="c" d="M490.28,727.9c-32.14,0-64.27-32.76-64.27-32.76"/><path class="c" d="M490.14,707.6c-30.61,0-61.21-31.2-61.21-31.2"/><path class="c" d="M490.87,687.29c-29.15,0-58.31-29.73-58.31-29.73"/><path class="c" d="M489.78,807.39c-36.2,0-72.4-36.91-72.4-36.91"/><path class="c" d="M488.92,828c-36.29,0-72.57-37-72.57-37"/><rect class="b" x="313.93" y="720.01" width="20.71" height="45.99" transform="translate(-380.72 342.77) rotate(-36.84)"/><path class="c" d="M416.21,868.88C398,882.51,366,877.59,366,877.59"/><path class="c" d="M403,853.46c-15.49,11.6-42.81,7.41-42.81,7.41"/><path class="c" d="M393.62,837.86c-14.8,11.08-40.91,7.08-40.91,7.08"/><path class="c" d="M381.42,822.16c-12.34,9.24-34.09,5.9-34.09,5.9"/><path class="c" d="M369,805.48c-10.3,7.72-28.47,4.93-28.47,4.93"/><path class="c" d="M356.75,789.27c-8.2,6.15-22.68,3.93-22.68,3.93"/><path class="c" d="M427.13,886.2c-19.26,14.43-53.21,9.22-53.21,9.22"/><path class="c" d="M419.32,866.56c18.19-13.63,24.22-54.49,24.22-54.49"/><path class="c" d="M408.23,849.54c15.49-11.6,21.76-47.69,21.76-47.69"/><path class="c" d="M395.89,836.15c14.8-11.09,18.3-37.27,18.3-37.27"/><path class="c" d="M384.26,820c12.33-9.24,15.25-31.06,15.25-31.06"/><path class="c" d="M371.73,803.47c10.3-7.72,12.74-25.94,12.74-25.94"/><path class="c" d="M359.63,787.12c8.21-6.15,10.15-20.67,10.15-20.67"/><path class="c" d="M432.87,881.9c19.25-14.42,24.67-61.51,24.67-61.51"/><path class="c" d="M457.59,914c22.12-16.57,30-64.4,30-64.4"/><path class="c" d="M445.58,897.68c20.7-15.5,28.2-71.25,28.2-71.25"/><path class="c" d="M518.12,893.69c-10.24-19.93-14.2-44.1-14.2-44.1"/><circle class="d" cx="395.92" cy="785.92" r="104.08"/><path class="e" d="M361.54,837h31.12V737H367.91V725.75c12.37-2.18,21.36-5.47,28.89-10h13.38V837h28.05v14.58H361.54Z"/></svg>