<svg xmlns="http://www.w3.org/2000/svg" width="510" height="900" viewBox="0 0 510 900"><defs><style>.a,.i{fill:#db85a0;}.b{fill:#432d1e;}.c{fill:#aebf7c;}.d{fill:#ebaed3;}.e{fill:#968acf;}.f{fill:#ffdc82;}.g{fill:none;stroke-linecap:square;stroke-width:24px;}.g,.h{stroke:#432d1e;}.g,.h,.i{stroke-miterlimit:2;}.h{fill:#fff;stroke-width:15px;}.i{stroke:#db85a0;stroke-width:12px;}</style></defs><title>30</title><path class="a" d="M164.55,85.65c-.49-.2-9.21-3.84-15.48-15.68-6.41,17.16-21.58,17.4-22.37,17.4l-3.61-.08-1.67-13.71-11.2,5.21-1.41-4.26a22.55,22.55,0,0,1,1.61-16.15,25.75,25.75,0,0,1,7.65-9A30.1,30.1,0,0,1,97.71,26.36l-.65-3.95,14.33-2.35L102.3,8.13l5.19-1.83a30.59,30.59,0,0,1,27.92,5.32,42.92,42.92,0,0,1,4.92-16.81l1.15-2h18l1.4,5.43,6.74-5.43h8.71L177-4.06C177.91.16,178.17,7.2,173.87,16a41.43,41.43,0,0,1,15.44-3.29A20.53,20.53,0,0,1,197,14l4.41,1.87-5.55,8.44,11.41,1.62-2.07,4.81A35.52,35.52,0,0,1,182.75,49.5a22.87,22.87,0,0,1,4.9,6.81c4.93,10.5.59,21.9.4,22.38l-1.65,4.22-14.81-8L169,87.43Z"/><path class="b" d="M173.11-3.24c1.08,5.13,1.32,17.35-14.19,32.6,13.85-10.55,24.29-12.64,30.39-12.64a17.13,17.13,0,0,1,6.16.91l-6.38,9.7,12.48,1.77a31.58,31.58,0,0,1-28.74,17.66c-.94,0-1.9,0-2.89-.1,23.31,7.71,14.38,30.57,14.38,30.57l-15.56-8.44L166,81.94S152,76.29,147.85,54c-.81,28.92-20,29.36-21.15,29.36h-.06l-1.91-15.74-12.12,5.64s-6-18.06,19.33-26.38c-1,.07-2.05.11-3,.11-23.75,0-27.26-21.29-27.26-21.29l17-2.78-9.79-12.85A25.46,25.46,0,0,1,116.5,9c6.42,0,15.62,2.2,22.69,12.81-.57-11.9,1.71-19.81,4.63-25h12.59l2.18,8.44,10.47-8.44h4.05m6.49-8H166.23L164-9.46l-.8.64-.63-2.42H139.14l-2.3,4.09a42.83,42.83,0,0,0-4.42,12A33.58,33.58,0,0,0,116.5,1a32.92,32.92,0,0,0-10.33,1.55L95.78,6.17l6.67,8.76,1.73,2.26-3.82.62-7.9,1.3L93.77,27A35.82,35.82,0,0,0,99.9,41a32.93,32.93,0,0,0,10.91,9.67,28.73,28.73,0,0,0-4,5.87A26.41,26.41,0,0,0,105,75.78l2.82,8.54,8.15-3.8,2.14-1,.58,4.81.83,6.81,6.93.22h.24A27.41,27.41,0,0,0,142.17,86a29.31,29.31,0,0,0,7.32-7.92,41.11,41.11,0,0,0,3.23,3.82,31.66,31.66,0,0,0,10.34,7.49l8.87,3.56,1.94-9.36.54-2.6,6.1,3.3,8,4.32,3.3-8.44c.53-1.37,5.05-13.7-.51-25.53a25.89,25.89,0,0,0-1.82-3.24,40.23,40.23,0,0,0,19.47-19.1l4.14-9.61-10.35-1.47L207.43,14l-8.83-3.75a24.61,24.61,0,0,0-9.29-1.54,39.92,39.92,0,0,0-8.87,1,32.05,32.05,0,0,0,.5-14.64l-1.34-6.36Z"/><path class="c" d="M481.44,342.41c-9.18,0-16.41-4.61-19.83-12.65-2-4.69-1.67-10.25.93-15.66a30.32,30.32,0,0,1,19.12-15.59A45.2,45.2,0,0,1,493.61,297a82.39,82.39,0,0,1,21.94,3.35l2.9.83v12.73l-.57.95c-5.79,9.66-14.9,21.92-25.4,25.53A34,34,0,0,1,481.44,342.41Z"/><path class="b" d="M493.61,301a78.78,78.78,0,0,1,20.84,3.2v8.6c-4.86,8.11-13.6,20.49-23.27,23.81a30.28,30.28,0,0,1-9.74,1.77c-7.58,0-13.37-3.68-16.15-10.21-3.89-9.11,4.3-22.19,17.44-25.83A40.86,40.86,0,0,1,493.61,301m0-8a48.52,48.52,0,0,0-13,1.63,34.37,34.37,0,0,0-21.67,17.71c-3.11,6.46-3.46,13.19-1,19,4,9.44,12.81,15.08,23.51,15.08a38.11,38.11,0,0,0,12.34-2.21c11.64-4,21.4-17,27.53-27.25l1.14-1.9V298.2l-5.79-1.66a86.08,86.08,0,0,0-23-3.51Z"/><path class="c" d="M260.19,34.34c-9.86,0-20.07-7-24.81-17.13-4.24-9-4.7-20.13-4.33-27.87l.18-3.81h28.48l1,.58c6.85,4.16,11.63,8.65,14.21,13.37,7.07,12.94,5,25.6-5.3,32.23a17.24,17.24,0,0,1-9.38,2.63Z"/><path class="b" d="M258.59-10.47c5.34,3.25,10.23,7.23,12.77,11.87,6.23,11.41,4.36,21.59-4,27a13.2,13.2,0,0,1-7.21,2c-7.78,0-16.85-5.6-21.19-14.83-3.87-8.23-4.31-18.54-4-26h23.55m2.23-8h-33.4l-.37,7.62c-.39,8.19.12,20,4.71,29.76,5.38,11.44,17.07,19.43,28.43,19.43a21.16,21.16,0,0,0,11.54-3.27,24.14,24.14,0,0,0,11-16.68c1-6.53-.48-13.73-4.37-20.83-2.92-5.34-8.18-10.34-15.63-14.87l-1.92-1.16Z"/><path class="b" d="M69.81,453.61a96.25,96.25,0,0,1,11.48-10.28q6-4.6,12.22-8.53c2.08-1.32,4.19-2.56,6.3-3.81s4.24-2.43,6.42-3.51,4.31-2.27,6.52-3.28,4.38-2.1,6.61-3l-4.27,3.06,1.26-1.53c.43-.5.9-1,1.35-1.45s.89-1,1.37-1.43l1.47-1.35.74-.68.78-.63,1.57-1.25c.55-.4,1.12-.78,1.67-1.17l.84-.59.89-.53a41.65,41.65,0,0,1,7.72-3.78,40,40,0,0,1,4.45-1.36,30.18,30.18,0,0,1,5.07-.82l.5,0a.56.56,0,0,1,.6.51.57.57,0,0,1-.12.39l-5,6.18-5.09,6.08-5.17,6c-1.74,2-3.44,4-5.22,6l-.21.24-.26.1c-9,3.67-17.93,7.42-26.94,11l-13.51,5.42-13.55,5.3a.62.62,0,0,1-.81-.35.64.64,0,0,1,.12-.65Z"/><path class="b" d="M181.37,439A134.51,134.51,0,0,1,199,432.56c5.89-1.75,11.8-3.22,17.72-4.48s11.87-2.31,17.82-3.12l4.47-.63,4.47-.51,4.48-.5,4.48-.38-4.84,1.44c.84-.48,1.67-1,2.53-1.46l2.6-1.37c1.7-.95,3.51-1.73,5.28-2.57s3.61-1.53,5.44-2.27,3.7-1.38,5.63-1.94a82.81,82.81,0,0,1,11.84-2.83c1-.17,2.07-.29,3.11-.44s2.1-.23,3.19-.29a45,45,0,0,1,6.68,0l.37,0a.6.6,0,0,1,.27,1.11l-10.08,6-10.15,5.87c-3.38,1.95-6.8,3.84-10.2,5.77s-6.79,3.86-10.22,5.74l-.26.14-.28,0c-12,.79-23.93,1.67-35.91,2.38l-18,1.1-18,1a.62.62,0,0,1-.66-.6.61.61,0,0,1,.36-.6Z"/><path class="a" d="M158.24,429.56A22.6,22.6,0,0,1,146.82,418a25.75,25.75,0,0,1-2-11.6A28.75,28.75,0,0,1,129,411.17,32.17,32.17,0,0,1,114,407.43l-3.46-2,7.31-12.55-15-.59,1.9-5.16c.26-.68,5.71-15,21.89-18.14-16.48-16.62-11-30.69-10.71-31.36l1.6-3.88,15,7,.19-16.44,4.88,1.19c.57.14,10.59,2.76,16.91,16.67,4.68-14.65,12.71-19,13.17-19.24l4.26-2.21,3,9.66,8.52-7.77,2.38,4.66c2.88,5.61,5.5,17.39.11,29.34a23.74,23.74,0,0,1,2.79-.17c14.82,0,22.82,14.06,23.15,14.66l2.21,4-15.63,6.3,8,10-4.2,2.29c-.53.29-5.42,2.82-13.54,2.82a41.56,41.56,0,0,1-8.46-.88c7.31,12.71,3.34,23.59-.87,28.45l-2.27,2.61-11.63-7.44-3.12,12Z"/><path class="b" d="M169.57,326.5,173,337.6l9.31-8.49s9.57,18.66-6.61,35.57c4.85-3.05,9.22-4.22,13.07-4.22,12.64,0,19.66,12.6,19.66,12.6L192,379.68l8.4,10.47s-4.29,2.34-11.63,2.34c-5.58,0-12.93-1.35-21.48-6.1,22.46,19.64,9.12,35.05,9.12,35.05l-13.35-8.55-3.37,12.94s-17.72-6.9-8-31.71c-7.38,10.35-15.85,13-22.69,13A28.13,28.13,0,0,1,116.05,404l8.65-14.84-16.14-.63a26.41,26.41,0,0,1,24.75-16.15,35.31,35.31,0,0,1,3.62.19c-23.7-17.74-17.25-33.4-17.25-33.4L136.5,347l.21-17.61s16.13,3.91,18.63,32.75c1.14-28.87,14.23-35.66,14.23-35.66M174.4,315l-8.51,4.42c-1.06.55-7.06,4-12,13.7a36.77,36.77,0,0,0-3-3.64c-5.68-6-11.24-7.57-12.29-7.83l-9.77-2.37-.12,10.05-.06,5.2-5.58-2.61-7.59-3.56-3.2,7.76c-.43,1-2.47,6.64-.68,14.81a39.65,39.65,0,0,0,7.94,16c-13.45,5.55-18.24,18.09-18.49,18.77l-3.81,10.34,11,.42,2.84.12-1.94,3.33-4,6.92,6.92,4A36.08,36.08,0,0,0,129,415.16a32.65,32.65,0,0,0,12.18-2.33,28.58,28.58,0,0,0,2,6.81,26.45,26.45,0,0,0,13.63,13.64l8.38,3.26,2.27-8.69.59-2.28,4.08,2.61,5.83,3.73,4.53-5.23a27.05,27.05,0,0,0,5.79-14.74,29.05,29.05,0,0,0-1.38-11.49c.63,0,1.27,0,1.9,0,8.92,0,14.44-2.76,15.45-3.31l8.4-4.57-6-7.46L205,383.08l6.43-2.6,8.41-3.39-4.41-7.92c-.36-.64-8.46-14.87-23.7-16.55a39.8,39.8,0,0,0-2.29-27.16l-4.77-9.31-7.73,7L174.4,315Z"/><path class="a" d="M156.23,384.88a8.65,8.65,0,0,1-6.45-2.71,8.83,8.83,0,0,1-2.12-7.44,11.76,11.76,0,0,1,3.68-6.69,11.63,11.63,0,0,1,7.76-3.18,8.65,8.65,0,0,1,6.44,2.72,8.8,8.8,0,0,1,2.12,7.43,12,12,0,0,1-11.43,9.87Z"/><path class="b" d="M159.1,368.86a4.69,4.69,0,0,1,3.51,1.43c2,2.15,1.39,5.95-1.35,8.47a7.56,7.56,0,0,1-5,2.12,4.71,4.71,0,0,1-3.52-1.43c-2-2.15-1.38-5.95,1.35-8.47a7.56,7.56,0,0,1,5-2.12m0-8h0a15.46,15.46,0,0,0-10.48,4.25,15.76,15.76,0,0,0-4.91,9,12.81,12.81,0,0,0,3.13,10.78,12.61,12.61,0,0,0,9.39,4,15.5,15.5,0,0,0,10.47-4.24,15.76,15.76,0,0,0,4.91-9,12.82,12.82,0,0,0-3.13-10.78,12.61,12.61,0,0,0-9.38-4Z"/><path class="a" d="M154.06,371c-4.9-3-10.66-13.42-10.66-13.42"/><path class="b" d="M152,374.39a17.3,17.3,0,0,1-3.35-4.21,36.73,36.73,0,0,1-2.13-4.19,70.72,70.72,0,0,1-3.08-8.43,70.08,70.08,0,0,0,6.29,6.05,32.5,32.5,0,0,0,3.33,2.5,9.56,9.56,0,0,0,3.13,1.46Z"/><path class="a" d="M160.82,369.14c1.41-7.46,8.09-15.63,8.09-15.63"/><path class="b" d="M156.89,368.39a30.16,30.16,0,0,1,5.36-8.46,54.37,54.37,0,0,1,6.66-6.42,52.28,52.28,0,0,0-3.15,8.34,36.38,36.38,0,0,0-.88,4.16,19,19,0,0,0-.13,3.87Z"/><path class="a" d="M163.77,373c9.06-2.25,14.38,1.13,14.38,1.13"/><path class="b" d="M162.8,369.15c.73,0,1.44,0,2.15.06s1.42.09,2.13.2a26.32,26.32,0,0,1,4.11.89,21.4,21.4,0,0,1,3.77,1.58,14,14,0,0,1,3.19,2.28,13.21,13.21,0,0,0-3.68-.35,19.27,19.27,0,0,0-3.51.48,21.76,21.76,0,0,0-3.25,1.09c-.52.2-1,.49-1.53.72s-1,.55-1.45.82Z"/><path class="a" d="M156.73,380.86c-.66,6.27,3.53,15.07,3.53,15.07"/><path class="b" d="M160.7,381.28a11.3,11.3,0,0,0-.89,3.09,25.89,25.89,0,0,0-.26,3.7,45.13,45.13,0,0,0,.71,7.86,47.86,47.86,0,0,1-4.58-6.83,31.06,31.06,0,0,1-1.82-4,19.14,19.14,0,0,1-1.11-4.71Z"/><path class="a" d="M151.79,377.84c-9,.24-16.48,6.7-16.48,6.7"/><path class="b" d="M151.9,381.84a17.78,17.78,0,0,0-3.88-.46,22.49,22.49,0,0,0-4.2.36,31.46,31.46,0,0,0-8.51,2.8,33.31,33.31,0,0,1,6.94-6.48,28.13,28.13,0,0,1,4.36-2.51,24.57,24.57,0,0,1,5.07-1.71Z"/><path class="a" d="M341.27,436.66l-7.94,10.06-3.17-3.57c-.35-.4-6.52-7.56-6.83-21-6.51,6.07-13.07,7.65-18.14,7.65a22.18,22.18,0,0,1-9.79-2.15l-3.06-1.62,4.65-13-12.36-.35.65-4.45c.83-5.67,6-15.74,19.54-18.29a29.89,29.89,0,0,1-7.91-29.75l1.18-3.82L312,360.71,309.16,346l5.46.7a30.72,30.72,0,0,1,11.62,4.53,29.37,29.37,0,0,1,11,12.73,42.27,42.27,0,0,1,12.48-13.22,25.47,25.47,0,0,1,13.69-4.41,12.53,12.53,0,0,1,2,.14l4.13.68L366,363.31l16.06-3.51-.06,5c0,.58-.31,10.92-12.41,20.2,15,1.21,21,7.72,21.67,8.53l3.11,3.65-8.74,5.06,9.48,6.56-4,3.37a36.05,36.05,0,0,1-21.7,7.43h0a34.18,34.18,0,0,1-6.83-.69,22.85,22.85,0,0,1,1.34,8.31c-.28,11.59-9.27,19.84-9.65,20.18l-3.36,3Z"/><path class="b" d="M363.38,350.29a9,9,0,0,1,1.33.08l-3.89,18.17L378,364.78s-.18,16.6-27.73,25.51a77.37,77.37,0,0,1,14.4-1.46c17.32,0,23.55,7.32,23.55,7.32L378.2,402l10.36,7.17a32,32,0,0,1-19.12,6.49,32.92,32.92,0,0,1-17-4.94c17.4,17.32-.81,33.78-.81,33.78L341.46,430l-8.31,10.53s-10-11.33-3.77-33.11c-8.17,15.25-17.66,18.46-24.19,18.46a18.35,18.35,0,0,1-7.92-1.69l5.34-14.93-13.37-.38s2.25-15.47,22.32-15.47a46.9,46.9,0,0,1,6.78.52c-24.53-10.15-17.61-32.49-17.61-32.49l16.4,5.1-3-15.87s19.24,2.45,21.92,24.06c9.94-22.49,23.14-24.4,27.34-24.4m-59.17-9,2.05,10.82.53,2.79-3.69-1.15-7.64-2.37L293.09,359a35.89,35.89,0,0,0-.61,16.33,32.76,32.76,0,0,0,5.26,12.5c-11.06,4.51-15.58,14.07-16.42,19.82L280,416.58l9,.26,2.36.06-1.63,4.56L287.41,428l6.12,3.24a26,26,0,0,0,11.66,2.62,28.74,28.74,0,0,0,14.9-4.18,42.08,42.08,0,0,0,1.18,4.82,31.9,31.9,0,0,0,5.89,11.32L333.5,453l5.93-7.5,1.65-2.09,4,5.69,5.19,7.43L357,450.4c1.09-1,10.65-10,11-23.06a26.19,26.19,0,0,0-.18-3.75c.56,0,1.12,0,1.68,0a39.71,39.71,0,0,0,24.28-8.37l8-6.75-8.59-5.94,7.42-4.3L394.34,391a25,25,0,0,0-7.84-5.65,41.31,41.31,0,0,0-8.19-2.94,36.44,36.44,0,0,0,2.85-3.76c4.57-6.88,4.86-12.65,4.87-13.74l.11-10.05L376.32,357l-5.08,1.1,1.3-6,1.75-8.2L366,342.48a16.4,16.4,0,0,0-2.64-.19c-5,0-15.82,1.67-25.83,14.22a33.52,33.52,0,0,0-9.14-8.68,34.59,34.59,0,0,0-13.28-5.14l-10.92-1.39Z"/><path class="a" d="M339.82,405.21a12,12,0,0,1-6.62-2.1c-4.89-3.33-6.53-9.5-3.64-13.74a8.83,8.83,0,0,1,7.49-3.76,11.89,11.89,0,0,1,6.62,2.11,11.7,11.7,0,0,1,4.63,6.06,8.57,8.57,0,0,1-8.48,11.43Z"/><path class="b" d="M337.05,389.61a7.84,7.84,0,0,1,4.37,1.42c3.08,2.09,4.24,5.75,2.59,8.17a4.91,4.91,0,0,1-4.19,2,7.83,7.83,0,0,1-4.37-1.41c-3.07-2.09-4.23-5.76-2.59-8.18a4.92,4.92,0,0,1,4.19-2m0-8h0a12.79,12.79,0,0,0-10.8,5.51c-4.13,6.07-2,14.72,4.7,19.29a15.76,15.76,0,0,0,8.87,2.8,12.57,12.57,0,0,0,12.29-16.63,16.11,16.11,0,0,0-15.06-11Z"/><path class="a" d="M341.42,391c1.83-5.46,10.68-13.4,10.68-13.4"/><path class="b" d="M337.63,389.75a17.26,17.26,0,0,1,3.34-4.21,38.16,38.16,0,0,1,3.6-3,71.59,71.59,0,0,1,7.53-4.89,68.68,68.68,0,0,0-4.49,7.49,32.93,32.93,0,0,0-1.68,3.8,9.6,9.6,0,0,0-.72,3.38Z"/><path class="a" d="M344.73,397.2c7.59-.3,17,4.37,17,4.37"/><path class="b" d="M344.57,393.2a30,30,0,0,1,9.45,3.33,54.39,54.39,0,0,1,7.76,5,52.23,52.23,0,0,0-8.84-1.19,37.32,37.32,0,0,0-4.25.08,18.7,18.7,0,0,0-3.8.73Z"/><path class="a" d="M341.6,401c4.23,8.32,2.13,14.27,2.13,14.27"/><path class="b" d="M345.16,399.13c.15.72.31,1.41.43,2.12s.23,1.4.28,2.12a24.6,24.6,0,0,1,.06,4.2,21.49,21.49,0,0,1-.69,4,14,14,0,0,1-1.51,3.62,12.64,12.64,0,0,0-.49-3.66,18.32,18.32,0,0,0-1.25-3.32,20.91,20.91,0,0,0-1.79-2.92c-.32-.47-.71-.9-1-1.33s-.76-.83-1.13-1.23Z"/><path class="a" d="M332.39,395.85c-6.26.77-13.89,6.83-13.89,6.83"/><path class="b" d="M332.88,399.82a11.35,11.35,0,0,0-3.21-.18,24.28,24.28,0,0,0-3.67.58,44.7,44.7,0,0,0-7.5,2.46,47.31,47.31,0,0,1,5.63-6,30.14,30.14,0,0,1,3.44-2.66,19,19,0,0,1,4.33-2.14Z"/><path class="a" d="M334.23,390.35C332,381.68,324,375.81,324,375.81"/><path class="b" d="M330.35,391.36a17.7,17.7,0,0,0-.42-3.88,23.33,23.33,0,0,0-1.29-4,31.28,31.28,0,0,0-4.65-7.66,33.54,33.54,0,0,1,7.88,5.3,28.16,28.16,0,0,1,3.43,3.69,25.41,25.41,0,0,1,2.8,4.55Z"/><path class="d" d="M414.93,441.05c-.64-.35-12.64-7.27-18.56-26.15-8.89,20.1-24.89,22-30.43,22a21.39,21.39,0,0,1-2.75-.16l-3.43-.52.12-19.4L343.62,422l-.86-4.41a29,29,0,0,1,4.7-20.32,34.7,34.7,0,0,1,14-11.67,39,39,0,0,1-25.26-34.31l-.15-4,20.56-.74L346.2,328.61l5.38-1.15a33.17,33.17,0,0,1,6.5-.56A38.94,38.94,0,0,1,388.63,341c6.3-32.42,26.61-36.35,27.56-36.52l4.13-.72,2.89,22.92,19.29-11.86,1.6,4.76c.26.76,4.82,15.11-8.9,33.32a63.12,63.12,0,0,1,19-3.16c9.59,0,14.68,2.81,15.23,3.13l4.14,2.42-9.24,10.77,15.4,4.23L477,374.81c-.48.81-11.57,19.12-35,21a29.77,29.77,0,0,1,6.94,11.53c4.63,14.35-2.87,28.38-3.2,29l-2.17,4-18.74-13.48-5.7,16.59Z"/><path class="b" d="M416.88,308.43,420,333.35l20.29-12.48s7.19,21.26-24,44.95c16.67-9.63,29.3-12.07,37.83-12.07,8.79,0,13.21,2.58,13.21,2.58l-10.22,11.93,16.44,4.51s-11.33,19.17-35.47,19.17a49.94,49.94,0,0,1-10-1c30,14.34,14.06,43.48,14.06,43.48l-19.43-14-5.9,17.16S399,427.59,397.26,397c-5.16,33-24.76,35.88-31.32,35.88a15.85,15.85,0,0,1-2.15-.12l.12-21.44-17.23,5.49s-4.91-25.25,30.46-32.08c-35.84-2-37-33.6-37-33.6l23.22-.83-10.94-18.91a29.93,29.93,0,0,1,5.65-.47c8.32,0,23.84,2.73,33.08,21.38,3.18-39.91,25.73-43.85,25.73-43.85m6.88-9.32-8.26,1.44c-1,.17-20.75,4-29.07,32.57a41.59,41.59,0,0,0-8.61-5.69,44.83,44.83,0,0,0-19.74-4.53,36.82,36.82,0,0,0-7.33.65L340,325.85l5.51,9.53,4.28,7.39-9.91.35-8,.29.29,8a45.5,45.5,0,0,0,6.15,19.79A41.34,41.34,0,0,0,352.94,386a36.15,36.15,0,0,0-8.79,9,32.71,32.71,0,0,0-5.32,23.32l1.72,8.82,8.56-2.73,6.74-2.14-.06,10.42-.05,6.93,6.85,1a23.39,23.39,0,0,0,3.35.21,35,35,0,0,0,21-7.17,39.49,39.49,0,0,0,8.81-9.42c6.85,14.33,16.6,19.94,17.2,20.28l8.35,4.65,3.11-9,2.41-7,10.69,7.69,7.36,5.3,4.34-8c.35-.65,8.64-16.15,3.48-32.12a33.57,33.57,0,0,0-3.4-7.37,51.11,51.11,0,0,0,31.15-21.88l5.33-9-10.1-2.77-4.26-1.17,2-2.35,6.24-7.28-8.28-4.83c-1.05-.62-6.83-3.68-17.25-3.68a61,61,0,0,0-10.35.92c8.1-15.79,4.33-27.63,4.08-28.36l-3.21-9.52-8.56,5.26-9.71,6-1.6-12.6-1.05-8.32Z"/><path class="b" d="M402.4,370.34a11.07,11.07,0,0,1,2.92.39c4.87,1.29,8,5.45,7,9.28-.81,3.05-4,5-7.73,5a11,11,0,0,1-2.92-.39c-4.87-1.29-8-5.45-7-9.28.81-3.05,4-5,7.73-5m0-8h0c-7.51,0-13.72,4.38-15.46,10.91-2.16,8.09,3.51,16.64,12.63,19.07a19.14,19.14,0,0,0,5,.66c7.51,0,13.72-4.38,15.46-10.91,2.16-8.09-3.51-16.64-12.63-19.07a19.19,19.19,0,0,0-5-.66Z"/><path class="b" d="M401.32,370.78a23.13,23.13,0,0,1,2-6.58,50.66,50.66,0,0,1,2.88-5.48,99.83,99.83,0,0,1,6.76-9.87,97.56,97.56,0,0,0-3,11.31,44.84,44.84,0,0,0-.81,5.59,16,16,0,0,0,.2,4.93Z"/><path class="b" d="M410.84,373.41a41,41,0,0,1,13.07-.59A74.19,74.19,0,0,1,436,375.08a73.37,73.37,0,0,0-11.86,1.73,52.49,52.49,0,0,0-5.54,1.67,29,29,0,0,0-4.84,2.36Z"/><path class="b" d="M412.75,380.42c.53.78,1.06,1.54,1.56,2.32s1,1.57,1.38,2.4a34.22,34.22,0,0,1,2.17,5,28.43,28.43,0,0,1,1.2,5.21,18.81,18.81,0,0,1,0,5.19,17.93,17.93,0,0,0-1.93-4.56,25.08,25.08,0,0,0-2.8-3.9,28.75,28.75,0,0,0-3.38-3.25c-.58-.51-1.24-.94-1.84-1.4s-1.29-.84-1.92-1.26Z"/><path class="b" d="M397.73,384.5a18.16,18.16,0,0,0-4.24,1.67,37.87,37.87,0,0,0-4.26,2.7,62,62,0,0,0-8,7,65.12,65.12,0,0,1,5-9.7,43.2,43.2,0,0,1,3.37-4.6,25.91,25.91,0,0,1,4.52-4.22Z"/><path class="b" d="M392.52,375.32a27,27,0,0,0-2.71-4.74,33.44,33.44,0,0,0-3.78-4.36,41.89,41.89,0,0,0-4.58-3.86,40.38,40.38,0,0,0-5.18-3.26,41.72,41.72,0,0,1,6.08,1.47,47.47,47.47,0,0,1,5.95,2.36,37.4,37.4,0,0,1,5.68,3.35,33.09,33.09,0,0,1,5.18,4.58Z"/><path class="c" d="M278.84,481A88.28,88.28,0,0,1,257,478l-4.23-1.22,1.61-4.1c.46-1.16,11.42-28.56,27.09-35.26a32.68,32.68,0,0,1,12.81-2.86A20.41,20.41,0,0,1,313,445.78c2.35,4.54,2.42,10.11.23,15.69a30.28,30.28,0,0,1-17.93,16.95A48.91,48.91,0,0,1,278.84,481Z"/><path class="b" d="M294.24,438.56c6.79,0,12.19,3.21,15.21,9.06,4.54,8.8-2.66,22.44-15.5,27A45.55,45.55,0,0,1,278.84,477a84.66,84.66,0,0,1-20.78-2.8s10.63-26.93,24.95-33a28.7,28.7,0,0,1,11.23-2.54m0-8h0a36.67,36.67,0,0,0-14.38,3.18c-16.9,7.23-28,34.4-29.24,37.47l-3.23,8.2,8.47,2.43a92.46,92.46,0,0,0,23,3.11,52.94,52.94,0,0,0,17.8-2.76A34.34,34.34,0,0,0,317,462.94c2.63-6.67,2.49-13.42-.39-19a24.3,24.3,0,0,0-22.32-13.39Z"/><path class="c" d="M297.66,449.62c-11.65,3-17.59,9.19-17.59,9.19"/><path class="b" d="M297.76,450a12.09,12.09,0,0,1-1.67,3,9.73,9.73,0,0,1-1.81,1.86,3.92,3.92,0,0,1-2.13.82,14.58,14.58,0,0,0-2.4.29c-.76.22-1.54.42-2.31.65s-1.57.44-2.34.71a50.32,50.32,0,0,0-4.74,1.74l0,0a.42.42,0,0,1-.54-.57,21.06,21.06,0,0,1,3.07-4.5c.6-.69,1.24-1.34,1.9-2s1.37-1.2,2.09-1.77,1.39-1.26,2.12-1.84a5.38,5.38,0,0,1,1.18-.73,5,5,0,0,1,1.34-.33,8.21,8.21,0,0,1,6.08,1.85.66.66,0,0,1,.21.75Z"/><path class="d" d="M206.32,377.7,193.73,385l-1.79-4.12a25.48,25.48,0,0,1,.17-18.39,29.76,29.76,0,0,1,8.76-11.84C184,347.62,176,333.92,174,326.27l-1-3.88L189.8,318l-11.94-13,5-2.28a34.78,34.78,0,0,1,13.38-2.59,33.65,33.65,0,0,1,20,6.5c-.28-27.9,16-34.95,16.75-35.27l3.88-1.6,6.61,18.49,13.89-13.46,2.6,4.3c.36.59,6.65,11.44-.62,28.74,9.79-5.34,17.42-6.4,21.91-6.4a20.17,20.17,0,0,1,5.88.72l4.56,1.47L286,314.22l13.6.69-1.63,5c-.07.22-6,17.78-24.89,24.18a25.72,25.72,0,0,1,7.24,8c6.7,11.41,2.93,24.84,2.77,25.4l-1.26,4.36L263.66,374,262,388.91l-4.58-1.38c-.6-.17-11.59-3.63-20.11-17.63-4.09,17.27-16.53,23.11-24,23.62l-3.45.24Z"/><path class="b" d="M234.48,275.07l7.29,20.38,14.75-14.28s10,16.55-11.82,42.28c17-15.55,30-18,36.53-18a16.51,16.51,0,0,1,4.65.53L279.5,317.9l14.67.74s-7.59,23.23-34.85,23.71c27.87,6.49,19.92,34,19.92,34l-18.94-8.14-1.78,15.53s-16.9-5.06-24-30.48c2.19,34.7-21.51,36.31-21.51,36.31l-3.88-18.06L195.6,379.3s-8.83-20.33,19.65-32.66a46,46,0,0,1-7.4.62c-24.25,0-30-22-30-22l19.37-5-12.72-13.87a30.77,30.77,0,0,1,11.72-2.23c7.2,0,16.59,2.47,24.76,12.6-4.77-34.16,13.47-41.67,13.47-41.67m4.71-10.59-7.75,3.19c-.81.33-16.64,7.19-18.95,32.1a37.71,37.71,0,0,0-16.24-3.63,38.69,38.69,0,0,0-15,2.95l-10,4.57,7.44,8.12,3.73,4.06-6.49,1.68-7.75,2,2,7.74c1.94,7.46,9,20.05,23.14,25.43a31.49,31.49,0,0,0-4.88,8.33,29.38,29.38,0,0,0-.12,21.46l3.58,8.24,7.77-4.52,3.95-2.29,1.57,7.29,1.45,6.77,6.91-.47a30,30,0,0,0,16.18-7,33,33,0,0,0,8.91-12c8.33,9.9,17.08,12.65,17.64,12.82l9.16,2.74,1.08-9.5.55-4.84,9.07,3.89,8.32,3.58,2.52-8.71c.46-1.59,4.27-15.87-3.15-28.54a30.35,30.35,0,0,0-3.39-4.68,44.92,44.92,0,0,0,21.38-24.19l3.26-9.94-10.46-.53-2.06-.1.43-.81,4.52-8.45-9.13-2.94a24.14,24.14,0,0,0-7.1-.91,44.43,44.43,0,0,0-15.36,2.95,42,42,0,0,0,.92-7.48c.28-9.25-2.81-14.85-3.43-15.88l-5.19-8.6-7.22,7-5.83,5.64-3.1-8.69-2.83-7.89Z"/><path class="b" d="M235.93,329.62h.43c4.33.18,7.73,3.1,7.58,6.51S240.4,342,236.26,342h-.43c-4.33-.18-7.73-3.1-7.58-6.51s3.54-5.85,7.68-5.85m0-8h0c-8.47,0-15.35,5.93-15.67,13.51-.34,7.81,6.5,14.47,15.23,14.84.26,0,.52,0,.77,0,8.47,0,15.35-5.93,15.67-13.51A13.54,13.54,0,0,0,247,325.61a16.92,16.92,0,0,0-10.34-4c-.26,0-.52,0-.77,0Z"/><path class="b" d="M232.47,330.54a19.69,19.69,0,0,1,.58-6.05,41.4,41.4,0,0,1,1.54-5.17,83.6,83.6,0,0,1,4.13-9.52,81.87,81.87,0,0,0-.18,10.13,38.9,38.9,0,0,0,.5,4.82,12.7,12.7,0,0,0,1.21,4Z"/><path class="b" d="M241.19,330.4a35.29,35.29,0,0,1,11.12-2.74,63.69,63.69,0,0,1,10.69-.08,60.52,60.52,0,0,0-9.58,3.93,43.16,43.16,0,0,0-4.26,2.54,24.26,24.26,0,0,0-3.49,3Z"/><path class="b" d="M244.7,335.93c.59.58,1.17,1.14,1.73,1.73s1.1,1.19,1.6,1.85a29.13,29.13,0,0,1,2.7,4,24.53,24.53,0,0,1,1.9,4.27,16.48,16.48,0,0,1,.87,4.43,16,16,0,0,0-2.59-3.41,21.87,21.87,0,0,0-3.17-2.64,24.88,24.88,0,0,0-3.51-2c-.58-.29-1.23-.51-1.82-.76s-1.25-.42-1.86-.62Z"/><path class="b" d="M232.88,343.06a15,15,0,0,0-3.27,2,32.36,32.36,0,0,0-3.17,3,53.08,53.08,0,0,0-5.63,7.21A55.83,55.83,0,0,1,223,346a37.3,37.3,0,0,1,1.89-4.61,22.14,22.14,0,0,1,3-4.57Z"/><path class="b" d="M226.06,336.27a21.65,21.65,0,0,0-3-3.52,27,27,0,0,0-3.88-3.06,36.57,36.57,0,0,0-9.42-4.44,36.3,36.3,0,0,1,5.42,0,40.48,40.48,0,0,1,5.51.75,32.55,32.55,0,0,1,5.52,1.66,28.67,28.67,0,0,1,5.37,2.85Z"/><path class="c" d="M505.85,453.67c-.93-.09-22.87-2.33-35.82-13.67a30.29,30.29,0,0,1-10.45-22.36c0-6,2.12-11.15,6-14.51A20.16,20.16,0,0,1,478.94,398c6.52,0,13.11,3.11,19,9,12.12,12,12.25,41.49,12.25,42.74v4.41Z"/><path class="b" d="M478.94,402c5.26,0,10.92,2.57,16.23,7.83,11.06,10.95,11.06,39.9,11.06,39.9s-21.43-2.07-33.56-12.7c-10.26-9-11.95-24.33-4.49-30.85A16.13,16.13,0,0,1,478.94,402m0-8a24.1,24.1,0,0,0-16,6.16c-4.72,4.13-7.33,10.35-7.33,17.52A34.31,34.31,0,0,0,467.4,443c13.9,12.19,37.08,14.56,38.06,14.65l8.77.85v-8.81c0-3.3-.37-32.66-13.43-45.58-6.7-6.64-14.26-10.15-21.86-10.15Z"/><path class="c" d="M478.41,412.33c9.74,7,13,15,13,15"/><path class="b" d="M478.65,412a8.19,8.19,0,0,1,6.33.51,5.26,5.26,0,0,1,1.13.8,5.32,5.32,0,0,1,.82,1.11c.47.82.82,1.73,1.3,2.5s.91,1.58,1.3,2.41.73,1.68,1,2.53a21.39,21.39,0,0,1,1.2,5.32.42.42,0,0,1-.39.45.41.41,0,0,1-.32-.12l0,0c-1.23-1.2-2.48-2.34-3.77-3.37-.62-.53-1.27-1-1.92-1.51s-1.28-1-1.9-1.45A13.29,13.29,0,0,0,481.3,420a4.12,4.12,0,0,1-1.68-1.55,10.19,10.19,0,0,1-1-2.4,12.16,12.16,0,0,1-.44-3.4v0A.64.64,0,0,1,478.65,412Z"/><path class="c" d="M477.19,327.07c11.83-2.11,18.22-7.88,18.22-7.88"/><path class="b" d="M477.12,326.67A12.28,12.28,0,0,1,479,323.8a9.83,9.83,0,0,1,1.95-1.72,4,4,0,0,1,2.18-.67,13.88,13.88,0,0,0,2.42-.11l2.35-.48c.79-.15,1.59-.32,2.39-.53a48,48,0,0,0,4.85-1.4h0a.42.42,0,0,1,.53.27.41.41,0,0,1,0,.34,21.29,21.29,0,0,1-3.4,4.27c-.65.63-1.33,1.24-2,1.83s-1.45,1.09-2.21,1.61-1.48,1.15-2.26,1.68a5.54,5.54,0,0,1-1.23.64,5.1,5.1,0,0,1-1.36.23,8.16,8.16,0,0,1-5.93-2.29.66.66,0,0,1-.15-.76Z"/><path class="a" d="M67.93,341.06a5.74,5.74,0,0,1-4.2-1.84,9,9,0,0,1-2-3.93,9.44,9.44,0,0,1-3.9,1h0a5.76,5.76,0,0,1-4.65-2.22c-1.74-2.24-1.92-5.61-.58-10.94l.1-.37.16-.34C58.5,310.3,72,305.71,72.61,305.52l3.59-1.19,1.38,3.52c.22.56,5.37,13.89-.29,26l-.17.34-.22.31C73.6,339,70.84,341.06,67.93,341.06Z"/><path class="b" d="M73.86,309.32s4.8,12.15-.2,22.82c-2.62,3.61-4.45,4.92-5.73,4.92-3.33,0-2.87-8.94-2.87-8.94s-4.48,4.15-7.25,4.15c-1.86,0-2.94-1.88-1.35-8.18,5-10.67,17.4-14.77,17.4-14.77m4.67-10-7.18,2.37c-1.6.53-15.86,5.57-22.13,19l-.33.69-.18.74c-1.13,4.47-2,10.14,1.29,14.38a9.82,9.82,0,0,0,7.81,3.76,10.26,10.26,0,0,0,1.62-.13,10.76,10.76,0,0,0,1.4,1.84,9.7,9.7,0,0,0,7.1,3.08c5.53,0,9.43-4.39,12.21-8.22l.44-.62.33-.69c6.27-13.41,1-27.58.39-29.15l-2.77-7Z"/><path class="b" d="M276.91,187.35a73.88,73.88,0,0,1,11.1-3.49c3.67-.86,7.33-1.51,11-2,1.82-.23,3.63-.44,5.45-.63s3.62-.32,5.43-.39,3.61-.2,5.41-.2,3.6-.05,5.39,0l-5.07.71c2.57-1.15,5.11-2.37,7.72-3.39,1.31-.52,2.59-1.08,3.91-1.57l4-1.45c1.31-.5,2.65-.93,4-1.36s2.67-.89,4-1.28c2.71-.77,5.42-1.56,8.18-2.19a134.09,134.09,0,0,1,16.92-3,86,86,0,0,1,18-.25l.3,0a.62.62,0,0,1,.55.67.65.65,0,0,1-.38.51c-5.2,2.14-10.37,4.32-15.58,6.42l-15.64,6.28-15.68,6.15C330.62,189,325.36,191,320.12,193h0a1.36,1.36,0,0,1-.56.08l-10.7-1L298.16,191c-3.56-.37-7.13-.71-10.68-1.12l-10.68-1.2a.63.63,0,0,1-.55-.68.62.62,0,0,1,.38-.5Z"/><path class="b" d="M172.69,79.24a44.43,44.43,0,0,1,7.45.89,68.08,68.08,0,0,1,6.79,1.73A74,74,0,0,1,199.22,87a85.26,85.26,0,0,1,11,6.9,82.67,82.67,0,0,1,9.82,8.42l-6.61-2.23,1.79.24,1.8.32c1.2.21,2.4.42,3.6.72s2.4.54,3.6.9l1.8.51,1.79.59a61.56,61.56,0,0,1,7.2,2.86,46.17,46.17,0,0,1,7.19,4.14l.32.23a.59.59,0,0,1,.15.82.62.62,0,0,1-.47.25c-4.8.13-9.59.34-14.39.39l-7.19.13c-2.4,0-4.8,0-7.19.06a1.26,1.26,0,0,1-.74-.24h0l-10.31-7.78-10.23-7.88c-3.43-2.61-6.77-5.32-10.16-8s-6.7-5.42-10.05-8.12a.59.59,0,0,1,.38-1Z"/><path class="b" d="M419.23,142.23a59.08,59.08,0,0,1,14.82-.41,84.63,84.63,0,0,1,13.61,2.33c2.21.52,4.34,1.23,6.5,1.87s4.24,1.45,6.28,2.34l3.1,1.29,3,1.42,1.52.71,1.48.79c1,.53,2,1,3,1.58l-4.51-1,4.17.5,4.17.69,4.17.89c1.39.38,2.78.7,4.17,1.12a79.2,79.2,0,0,1,8.34,3,51.23,51.23,0,0,1,8.35,4.39l.31.2a.61.61,0,0,1,.17.83.61.61,0,0,1-.48.27l-8.35.24c-2.78.1-5.56.12-8.34.17l-8.34.14-8.34,0a1.16,1.16,0,0,1-.49-.1h0c-4.09-1.79-8.21-3.52-12.28-5.36L443,154.72c-4.07-1.83-8.12-3.72-12.18-5.58s-8.08-3.82-12.12-5.72a.6.6,0,0,1-.28-.8.58.58,0,0,1,.43-.33Z"/><path class="b" d="M456,131.67a30.08,30.08,0,0,1,6.1-1,33.1,33.1,0,0,1,5.39.09,34.45,34.45,0,0,1,9.47,2.22,36.53,36.53,0,0,1,8.05,4.41,36,36,0,0,1,6.77,6.37l3.86,4.74a3.9,3.9,0,0,1,.68,3.64,34.86,34.86,0,0,1-1.43,3.68c-.26.61-.57,1.23-.9,1.84l-.48.92-.55.92a35.09,35.09,0,0,1-2.53,3.68,28.36,28.36,0,0,1-3.45,3.68l-.41.37a.53.53,0,0,1-.75,0,.54.54,0,0,1-.14-.33l-.18-3.68c-.05-1.23-.14-2.45-.17-3.68l-.2-7.36.55,1-7.72-4.91c-2.58-1.63-5.09-3.36-7.64-5s-5.07-3.4-7.57-5.14-5-3.54-7.46-5.32a.53.53,0,0,1,.17-.94Z"/><path class="d" d="M426.61,107.41a22.64,22.64,0,0,1-8.24-14,25.73,25.73,0,0,1,.87-11.73,29.09,29.09,0,0,1-9.41,1.58,31.66,31.66,0,0,1-20.63-8.18l-2.86-2.8,10.17-10.37-14.39-4.25,3.11-4.54c.35-.5,8.58-12.23,24.12-12.23.51,0,1,0,1.56,0-11.91-20.17-3.12-32.46-2.69-33l2.5-3.37L423.54,15,427.76-.84,432.2,1.5c.52.28,9.59,5.28,12.3,20.31,8.13-13,17-15.29,17.49-15.41l4.66-1.1.51,10.09L477.33,10l1.17,5.1c1.41,6.16,1.06,18.22-7.1,28.48,13.15,1.73,19.84,13.8,21.59,20.41l1.17,4.38-16.7,2.27,5.32,11.67-4.63,1.18a22.32,22.32,0,0,1-5.22.52,38.21,38.21,0,0,1-16.59-4.06c4,14.12-2.55,23.7-7.82,27.39l-2.84,2-9.45-10.08-6,10.83Z"/><path class="b" d="M430.33,5s14.68,7.75,10,36.32c8.2-27.7,22.55-31.07,22.55-31.07l.59,11.6L474.6,16s4.69,20.44-15.14,32.85a28.07,28.07,0,0,1,8.69-1.48c16.28,0,21,17.65,21,17.65l-17.54,2.39,5.57,12.21a19.2,19.2,0,0,1-4.23.39c-5.53,0-15.82-1.7-26.95-12.18,17,24.56.25,36.23.25,36.23L435.38,92.44l-6.45,11.71s-15.48-11,0-32.71c-7,5.91-13.51,7.85-19.11,7.85a27.6,27.6,0,0,1-17.83-7L404,60l-15.5-4.57s7.21-10.5,20.82-10.5a30.72,30.72,0,0,1,10.6,2c-18.61-23-8.52-36.61-8.52-36.61l14.38,11.77,4.52-17M425.18-6.72,422.6,3l-1.33,5-4.77-3.9L410-1.2l-5,6.73c-.67.9-4,5.83-4.3,14.19a39.84,39.84,0,0,0,3.77,17.55,35.18,35.18,0,0,0-22.55,13.62L375.7,60l10.57,3.12,2.72.8-2.7,2.76-5.61,5.72L386.4,78a35.3,35.3,0,0,0,23.43,9.32,32.77,32.77,0,0,0,4.32-.29,28.52,28.52,0,0,0,.28,7.1,26.43,26.43,0,0,0,9.86,16.57l7.32,5.22,4.33-7.88,1.14-2.06,3.31,3.53,4.74,5,5.67-4A27.09,27.09,0,0,0,460,97.71a29.24,29.24,0,0,0,1.49-11.5A39.6,39.6,0,0,0,472.93,88a26.41,26.41,0,0,0,6.21-.64L488.4,85l-4-8.7-1.11-2.42,6.88-.94,9-1.22-2.33-8.76c-1.73-6.49-7.64-17.58-18.92-21.85a39.75,39.75,0,0,0,4.46-26.9L480.06,4l-9.22,4.93L470.41.31,461.07,2.5c-1.16.28-7.82,2.14-15,10.35a38.1,38.1,0,0,0-2-4.27c-4-7.21-9-10.1-10-10.61l-8.89-4.69Z"/><path class="d" d="M438.2,63.92a9,9,0,0,1-8.15-4.53,8.81,8.81,0,0,1-.23-7.72A11.67,11.67,0,0,1,435,46.09a12,12,0,0,1,5.72-1.5,9,9,0,0,1,8.16,4.53,8.83,8.83,0,0,1,.23,7.73,11.76,11.76,0,0,1-5.21,5.58A12,12,0,0,1,438.2,63.92Z"/><path class="b" d="M440.75,48.59A5.1,5.1,0,0,1,445.4,51c1.4,2.58-.11,6.11-3.38,7.89a8,8,0,0,1-3.82,1,5.1,5.1,0,0,1-4.64-2.44c-1.4-2.57.11-6.1,3.38-7.88a8.05,8.05,0,0,1,3.81-1m0-8h0a16.1,16.1,0,0,0-7.63,2,15.76,15.76,0,0,0-7,7.52,12.82,12.82,0,0,0,.38,11.22,13,13,0,0,0,11.67,6.61,16,16,0,0,0,7.64-2,15.69,15.69,0,0,0,7-7.51,12.79,12.79,0,0,0-.39-11.22,13,13,0,0,0-11.67-6.62Z"/><path class="d" d="M436.94,49.6c-4-4.12-7-15.63-7-15.63"/><path class="b" d="M434.08,52.39a17,17,0,0,1-2.22-4.9,36.17,36.17,0,0,1-1-4.58,70.36,70.36,0,0,1-.91-8.94,67.52,67.52,0,0,0,4.61,7.42,30.61,30.61,0,0,0,2.61,3.23,9.42,9.42,0,0,0,2.68,2.19Z"/><path class="d" d="M444,49.47c3.19-6.88,11.68-13.16,11.68-13.16"/><path class="b" d="M440.32,47.79a30.1,30.1,0,0,1,7.28-6.88,53.38,53.38,0,0,1,8-4.6,52,52,0,0,0-5.1,7.32,37.44,37.44,0,0,0-1.88,3.82,19.16,19.16,0,0,0-1.08,3.71Z"/><path class="d" d="M445.85,54c9.34,0,13.67,4.62,13.67,4.62"/><path class="b" d="M445.86,50c.71.19,1.4.37,2.08.58s1.35.44,2,.72a25.94,25.94,0,0,1,3.77,1.87A21.62,21.62,0,0,1,457,55.6a14.05,14.05,0,0,1,2.53,3A13.19,13.19,0,0,0,456,57.36a19.48,19.48,0,0,0-3.52-.4,20.45,20.45,0,0,0-3.43.26c-.55.07-1.11.22-1.65.32s-1.08.29-1.61.44Z"/><path class="d" d="M437.1,59.83c-2.17,5.92-.27,15.48-.27,15.48"/><path class="b" d="M440.86,61.21A11.45,11.45,0,0,0,439.23,64a24.33,24.33,0,0,0-1.16,3.53,44.74,44.74,0,0,0-1.24,7.79,46.16,46.16,0,0,1-2.76-7.75,31.06,31.06,0,0,1-.8-4.27,19.29,19.29,0,0,1,.08-4.84Z"/><path class="d" d="M433.06,55.69c-8.75-2-17.62,2.46-17.62,2.46"/><path class="b" d="M432.18,59.59a18.09,18.09,0,0,0-3.64-1.39,22.3,22.3,0,0,0-4.16-.68,31.31,31.31,0,0,0-8.94.63,33,33,0,0,1,8.32-4.58,27.85,27.85,0,0,1,4.84-1.37,25.1,25.1,0,0,1,5.33-.41Z"/><path class="a" d="M366,148.06l-9.11,8.35-2.63-3.64a22.57,22.57,0,0,1-3.34-15.88,25.82,25.82,0,0,1,4.58-10.84h-.1c-18,0-25.93-15.21-26.25-15.86l-1.82-3.57,13-6.56L328,91.43l4.41-3.31a31.13,31.13,0,0,1,17.38-5.43,29.34,29.34,0,0,1,10.84,2.08c-4.82-22.9,7.44-31.74,8-32.15l3.44-2.39,8.79,14,9.08-13.7,3.46,3.65c.4.42,7.38,8,5.16,23.12,9.87-8.14,17.8-9,20.63-9,.57,0,.86,0,.86,0l4.68.54-1.21,4.53-1.44,5.11,11.37-1.9-.52,5.21c-.63,6.28-4.83,17.58-15.83,24.69a22.8,22.8,0,0,1,6.79,5c7.87,8.51,7.16,20.69,7.13,21.21l-.3,4.52-16.54-3.19,1.3,12.76-4.76-.36c-.53,0-10-.89-19.54-10.32-.75,14.65-10,21.63-16.17,23.43l-3.32,1Z"/><path class="b" d="M370.91,55.91l9.85,15.74L390.5,57s11.42,12-2.14,37.62c14.87-21.12,28.17-22.24,30.83-22.24a4.34,4.34,0,0,1,.48,0l-3.15,11.17L429,81.47s-2.1,20.86-24.86,26.28c24.55.31,22.94,24.81,22.94,24.81l-17.38-3.35L411,142.56s-15.1-1.14-25.77-21.14c8.21,28.69-11.36,34.4-11.36,34.4l-6.57-14.43-9.86,9s-11.14-15.41,10.47-31a33.84,33.84,0,0,1-12.57,2.62c-15.75,0-22.69-13.67-22.69-13.67L348,100.61l-13.21-9.29a27.07,27.07,0,0,1,15-4.63c5.16,0,11.23,1.59,17.5,6.63-10.26-27.77,3.65-37.41,3.65-37.41m18.47-11.74-5.55,8.38L381,56.88l-3.27-5.22-4.45-7.11-6.89,4.78c-.93.64-5.69,4.24-8.61,12.07a39.78,39.78,0,0,0-2.05,17.82,33.45,33.45,0,0,0-5.93-.53A34.85,34.85,0,0,0,330,84.92l-8.81,6.61,9,6.34,2.32,1.63-3.45,1.75-7.14,3.62,3.63,7.14c.33.65,7.49,14.38,23.4,17.44a28.64,28.64,0,0,0-2,6.8A26.4,26.4,0,0,0,351,155.11l5.26,7.29,6.63-6.08,1.73-1.59,2,4.4,2.87,6.3,6.65-1.93A27.08,27.08,0,0,0,389,154.27a29.06,29.06,0,0,0,5.09-10.41,42.11,42.11,0,0,0,4.23,2.65,31.85,31.85,0,0,0,12.12,4l9.53.71-1-9.51-.27-2.64,6.82,1.31,8.9,1.72.59-9c.1-1.46.69-14.59-8.18-24.19a26.7,26.7,0,0,0-2.75-2.56,39.81,39.81,0,0,0,12.83-24.06l1-10.42-10.3,1.72L430,65.32l-9.54-.92c-.25,0-.67-.05-1.25-.05-2.5,0-8.53.56-16.24,5.07a36.35,36.35,0,0,0-.57-4.7c-1.52-8.12-5.33-12.47-6.08-13.26l-6.92-7.29Z"/><path class="a" d="M382.86,115.88c-5.13,0-9.25-3.09-10-7.51A8.78,8.78,0,0,1,375.1,101a11.7,11.7,0,0,1,6.71-3.62,12.13,12.13,0,0,1,2.16-.19c5.13,0,9.25,3.09,10,7.51a8.82,8.82,0,0,1-2.27,7.39,11.67,11.67,0,0,1-6.71,3.62A12.13,12.13,0,0,1,382.86,115.88Z"/><path class="b" d="M384,101.17c3.06,0,5.65,1.7,6.09,4.2.5,2.88-2.06,5.74-5.73,6.38a8.27,8.27,0,0,1-1.47.13c-3.06,0-5.65-1.7-6.08-4.19-.51-2.89,2.06-5.75,5.72-6.39a8.27,8.27,0,0,1,1.47-.13m0-8h0a16,16,0,0,0-2.84.25,15.7,15.7,0,0,0-9,4.89,12.78,12.78,0,0,0-3.22,10.75c1.09,6.27,7,10.82,14,10.82a16.06,16.06,0,0,0,2.85-.25c8-1.4,13.49-8.41,12.23-15.64-1.1-6.27-7-10.82-14-10.82Z"/><path class="a" d="M382.5,101.3c-2.48-5.19-1.66-17-1.66-17"/><path class="b" d="M378.89,103a17.34,17.34,0,0,1-.53-5.35,36.69,36.69,0,0,1,.48-4.68,70.91,70.91,0,0,1,2-8.75,68.76,68.76,0,0,0,2,8.5,33.15,33.15,0,0,0,1.44,3.9,9.48,9.48,0,0,0,1.84,2.92Z"/><path class="a" d="M389.18,103.42c5.23-5.5,15.28-8.73,15.28-8.73"/><path class="b" d="M386.28,100.66a30.24,30.24,0,0,1,9.1-4.19,55.17,55.17,0,0,1,9.08-1.78,51.93,51.93,0,0,0-7.17,5.3,34.15,34.15,0,0,0-3,3,18,18,0,0,0-2.21,3.17Z"/><path class="a" d="M389.54,108.3c8.84,3,11.47,8.75,11.47,8.75"/><path class="b" d="M390.84,104.51c.6.41,1.2.8,1.78,1.22s1.14.85,1.67,1.33a25.24,25.24,0,0,1,3,3,20.78,20.78,0,0,1,2.31,3.37,13.94,13.94,0,0,1,1.44,3.65,13.42,13.42,0,0,0-2.9-2.29,19,19,0,0,0-3.21-1.5,21,21,0,0,0-3.32-.85c-.55-.12-1.13-.15-1.67-.23s-1.12-.07-1.67-.1Z"/><path class="a" d="M379.38,111.05c-4,4.91-5.21,14.58-5.21,14.58"/><path class="b" d="M382.5,113.56a11.21,11.21,0,0,0-2.43,2.11,24.79,24.79,0,0,0-2.24,3,44.89,44.89,0,0,0-3.66,7,46.93,46.93,0,0,1-.14-8.23,31.38,31.38,0,0,1,.62-4.3,19.07,19.07,0,0,1,1.61-4.56Z"/><path class="a" d="M376.87,105.83c-7.66-4.66-17.47-3.31-17.47-3.31"/><path class="b" d="M374.79,109.25a17.72,17.72,0,0,0-3-2.49,23.08,23.08,0,0,0-3.72-2,31.52,31.52,0,0,0-8.67-2.26,33.27,33.27,0,0,1,9.34-1.68,27.69,27.69,0,0,1,5,.26,25.08,25.08,0,0,1,5.18,1.31Z"/><path class="c" d="M308,285.14c-.93-.09-22.87-2.32-35.81-13.67a30.3,30.3,0,0,1-10.46-22.36c0-6,2.13-11.15,6-14.51a20.16,20.16,0,0,1,13.39-5.17c6.52,0,13.11,3.11,19.05,9,12.11,12,12.25,41.49,12.25,42.74v4.41Z"/><path class="b" d="M281.11,233.43c5.27,0,10.92,2.57,16.23,7.83,11.07,11,11.07,39.9,11.07,39.9s-21.44-2.07-33.57-12.7c-10.26-9-11.94-24.33-4.49-30.84a16.09,16.09,0,0,1,10.76-4.19m0-8a24.09,24.09,0,0,0-16,6.16c-4.73,4.13-7.33,10.35-7.34,17.52a34.34,34.34,0,0,0,11.82,25.36c13.9,12.19,37.09,14.56,38.07,14.66l8.77.84v-8.81c0-3.3-.38-32.66-13.44-45.58-6.7-6.64-14.26-10.15-21.86-10.15Z"/><path class="c" d="M280.59,243.8c9.74,7,13,15,13,15"/><path class="b" d="M280.82,243.48a8.22,8.22,0,0,1,6.34.51,5.3,5.3,0,0,1,1.12.8,5.59,5.59,0,0,1,.82,1.11c.48.82.82,1.73,1.31,2.5s.91,1.58,1.29,2.41.73,1.68,1,2.53a21.49,21.49,0,0,1,1.2,5.32.42.42,0,0,1-.39.45.43.43,0,0,1-.32-.12l0,0c-1.23-1.2-2.48-2.33-3.77-3.37-.62-.53-1.27-1-1.92-1.51s-1.27-1-1.9-1.45a13.63,13.63,0,0,0-2.13-1.15,4.06,4.06,0,0,1-1.68-1.55,9.41,9.41,0,0,1-1-2.4,11.76,11.76,0,0,1-.45-3.4v0A.66.66,0,0,1,280.82,243.48Z"/><path class="c" d="M-5.14,156.08c0-1.25.14-30.75,12.25-42.74,5.94-5.88,12.53-9,19.05-9a20.16,20.16,0,0,1,13.39,5.17c3.84,3.36,6,8.52,6,14.52a30.33,30.33,0,0,1-10.46,22.35C22.12,157.73.18,160-.75,160.06l-4.39.43Z"/><path class="b" d="M26.16,108.35a16.09,16.09,0,0,1,10.76,4.19c7.45,6.51,5.77,21.85-4.49,30.84C20.3,154-1.14,156.08-1.14,156.08s0-29,11.07-39.9c5.31-5.26,11-7.83,16.23-7.83m0-8h0c-7.6,0-15.16,3.51-21.86,10.15C-8.76,123.42-9.14,152.78-9.14,156.08v8.81l8.77-.84c1-.1,24.17-2.47,38.07-14.66A34.34,34.34,0,0,0,49.52,124c0-7.17-2.61-13.39-7.34-17.52a24.09,24.09,0,0,0-16-6.16Z"/><path class="c" d="M26.68,118.72c-9.74,7-13,15-13,15"/><path class="b" d="M26.92,119.05a12.12,12.12,0,0,1-.45,3.4,9.79,9.79,0,0,1-1,2.4,4.12,4.12,0,0,1-1.68,1.55,13.63,13.63,0,0,0-2.13,1.15c-.63.48-1.27,1-1.9,1.45s-1.3,1-1.92,1.51a47.37,47.37,0,0,0-3.77,3.37l0,0a.43.43,0,0,1-.6,0,.44.44,0,0,1-.11-.33,21.49,21.49,0,0,1,1.2-5.32c.31-.85.66-1.69,1-2.53s.83-1.62,1.29-2.41.83-1.68,1.3-2.5a5.74,5.74,0,0,1,.83-1.11,5.3,5.3,0,0,1,1.12-.8,8.22,8.22,0,0,1,6.34-.51.66.66,0,0,1,.47.62Z"/><path class="c" d="M432.9,218.88c-.85-.36-21.14-9-30.14-23.69a30.3,30.3,0,0,1-3.35-24.44c1.79-5.73,5.34-10,10-12.09a20.84,20.84,0,0,1,8.49-1.85c8.45,0,16.24,5.51,21.35,15.12,8,15-.62,43.26-1,44.45l-1.3,4.21Z"/><path class="b" d="M417.91,160.81c6.76,0,13.25,4.41,17.82,13,7.32,13.74-1.28,41.38-1.28,41.38s-19.85-8.34-28.28-22.09C399,181.47,402,166.32,411,162.32a16.9,16.9,0,0,1,6.87-1.51m0-8A24.79,24.79,0,0,0,407.8,155c-5.74,2.54-10.07,7.71-12.21,14.56a34.36,34.36,0,0,0,3.76,27.72c9.66,15.77,31.1,24.91,32,25.29l8.13,3.41,2.61-8.41c1-3.16,9.34-31.3.7-47.52-5.83-11-14.9-17.24-24.88-17.24Z"/><path class="c" d="M419,171.26c7.22,9.62,7.95,18.19,7.95,18.19"/><path class="b" d="M419.29,171a8.2,8.2,0,0,1,5.9,2.37,4.94,4.94,0,0,1,.84,1.1,5.73,5.73,0,0,1,.46,1.3c.21.92.26,1.9.5,2.77s.4,1.79.52,2.69.2,1.82.24,2.73a21.2,21.2,0,0,1-.43,5.44.42.42,0,0,1-.5.31.43.43,0,0,1-.28-.21l0,0a47.24,47.24,0,0,0-2.6-4.33c-.43-.7-.9-1.37-1.38-2s-.93-1.31-1.39-1.95a14.51,14.51,0,0,0-1.69-1.73,4,4,0,0,1-1.15-2,10.38,10.38,0,0,1-.24-2.59,12.25,12.25,0,0,1,.58-3.38v0A.65.65,0,0,1,419.29,171Z"/><path class="c" d="M510,151.62c-.92-.1-22.84-2.55-35.68-14A30.3,30.3,0,0,1,464,115.15c.06-6,2.23-11.13,6.11-14.46a20.18,20.18,0,0,1,13.24-5c6.59,0,13.21,3.17,19.16,9.17,12,12.1,11.85,41.61,11.84,42.86l0,4.4Z"/><path class="b" d="M483.38,99.65c5.31,0,11,2.62,16.31,8,11,11.06,10.69,40,10.69,40s-21.42-2.28-33.44-13c-10.18-9.1-11.72-24.45-4.2-30.89a16.17,16.17,0,0,1,10.64-4.08m0-8a24.15,24.15,0,0,0-15.85,6c-4.76,4.08-7.43,10.28-7.5,17.45a34.32,34.32,0,0,0,11.57,25.47c13.79,12.32,36.95,14.91,37.93,15l8.76.94.09-8.81c0-3.31-.07-32.67-13-45.72-6.71-6.77-14.32-10.35-22-10.35Z"/><path class="c" d="M482.91,110c9.68,7.13,12.85,15.13,12.85,15.13"/><path class="b" d="M483.15,109.7a8.16,8.16,0,0,1,6.33.57,5,5,0,0,1,1.12.81,5.72,5.72,0,0,1,.81,1.12c.47.81.8,1.74,1.28,2.5s.89,1.6,1.27,2.43.71,1.68,1,2.54a21.06,21.06,0,0,1,1.16,5.33.43.43,0,0,1-.39.45.48.48,0,0,1-.33-.12l0,0a49.26,49.26,0,0,0-3.74-3.41c-.62-.54-1.26-1-1.91-1.53s-1.26-1-1.89-1.47a13.18,13.18,0,0,0-2.12-1.17,4,4,0,0,1-1.66-1.57,9.7,9.7,0,0,1-1-2.41,11.91,11.91,0,0,1-.41-3.4v0A.62.62,0,0,1,483.15,109.7Z"/><path class="d" d="M315.51,161c-.64-.35-12.65-7.27-18.56-26.15-8.89,20.1-24.89,22-30.43,22a21.39,21.39,0,0,1-2.75-.16l-3.43-.52.12-19.4-16.26,5.19-.86-4.41a29,29,0,0,1,4.7-20.32,34.7,34.7,0,0,1,14-11.67,39,39,0,0,1-25.27-34.31l-.14-4,20.56-.73L246.78,48.58l5.38-1.15a33.12,33.12,0,0,1,6.49-.56A39,39,0,0,1,289.21,61c6.3-32.42,26.61-36.36,27.56-36.52l4.13-.72,2.89,22.92L343.07,34.8l1.61,4.76c.26.76,4.82,15.11-8.9,33.32a63.12,63.12,0,0,1,19-3.16c9.59,0,14.68,2.81,15.23,3.13l4.14,2.42L364.87,86l15.4,4.23-2.66,4.51c-.49.81-11.57,19.12-35.05,21a29.73,29.73,0,0,1,6.93,11.54c4.64,14.35-2.87,28.38-3.19,29l-2.17,4-18.74-13.48-5.71,16.59Z"/><path class="b" d="M317.45,28.4l3.15,24.92,20.29-12.48s7.18,21.26-24,45c16.67-9.63,29.31-12.07,37.84-12.07,8.78,0,13.21,2.58,13.21,2.58L357.73,88.23l16.43,4.51s-11.32,19.17-35.46,19.17a49.94,49.94,0,0,1-10-1c29.95,14.34,14.06,43.48,14.06,43.48l-19.43-14-5.9,17.16s-17.89-10-19.62-40.58c-5.16,33.05-24.76,35.88-31.32,35.88a16.12,16.12,0,0,1-2.16-.12l.13-21.44-17.23,5.49s-4.91-25.25,30.46-32.08c-35.84-2-37-33.6-37-33.6l23.22-.83L253,51.34a29.79,29.79,0,0,1,5.65-.47c8.31,0,23.83,2.73,33.08,21.38,3.17-39.91,25.72-43.85,25.72-43.85m6.89-9.32-8.26,1.44c-1,.17-20.75,4-29.07,32.57a41.59,41.59,0,0,0-8.61-5.69,44.83,44.83,0,0,0-19.74-4.53,36.82,36.82,0,0,0-7.33.65l-10.78,2.3,5.52,9.53,4.27,7.39-9.9.35-8,.29.3,8a45.34,45.34,0,0,0,6.15,19.79A41.26,41.26,0,0,0,253.52,106a36.15,36.15,0,0,0-8.79,9,32.71,32.71,0,0,0-5.32,23.32l1.72,8.82,8.56-2.73,6.74-2.14-.07,10.42,0,6.93,6.85,1a23.25,23.25,0,0,0,3.35.21,35,35,0,0,0,21-7.17,39.49,39.49,0,0,0,8.81-9.42c6.85,14.33,16.6,19.94,17.2,20.28l8.35,4.65,3.11-9,2.4-7,10.7,7.69,7.36,5.3,4.33-8c.36-.65,8.65-16.15,3.49-32.12a33.15,33.15,0,0,0-3.41-7.37,51.15,51.15,0,0,0,31.16-21.88l5.33-9L376.28,85,372,83.85l2-2.34,6.24-7.28L372,69.4c-1.05-.62-6.83-3.68-17.25-3.68a61,61,0,0,0-10.35.92c8.1-15.79,4.33-27.63,4.08-28.36l-3.21-9.52L336.7,34,327,40l-1.59-12.6-1.05-8.32Z"/><path class="b" d="M303,90.31a11.07,11.07,0,0,1,2.92.39c4.86,1.29,8,5.45,7,9.28-.81,3-4,5-7.73,5a11.15,11.15,0,0,1-2.93-.39c-4.86-1.29-8-5.45-6.95-9.28.81-3,4-5,7.73-5m0-8h0c-7.51,0-13.72,4.38-15.46,10.91a14.45,14.45,0,0,0,2.6,12.45,18.38,18.38,0,0,0,10,6.62,19.27,19.27,0,0,0,5,.66c7.51,0,13.72-4.38,15.46-10.91A14.51,14.51,0,0,0,318,89.59,18.44,18.44,0,0,0,308,83a19.25,19.25,0,0,0-5-.66Z"/><path class="b" d="M301.9,90.75a23.13,23.13,0,0,1,2-6.58,50.66,50.66,0,0,1,2.88-5.48,98.14,98.14,0,0,1,6.76-9.87,95.59,95.59,0,0,0-3,11.31,46.84,46.84,0,0,0-.82,5.59,16.25,16.25,0,0,0,.21,4.93Z"/><path class="b" d="M311.42,93.38a40.72,40.72,0,0,1,13.07-.59,74.19,74.19,0,0,1,12.11,2.26,73.37,73.37,0,0,0-11.86,1.73,52.49,52.49,0,0,0-5.54,1.67,29,29,0,0,0-4.84,2.36Z"/><path class="b" d="M313.33,100.39c.53.78,1.06,1.54,1.56,2.32s1,1.57,1.38,2.4a34.22,34.22,0,0,1,2.17,5,28.43,28.43,0,0,1,1.2,5.21,18.42,18.42,0,0,1,0,5.19,17.56,17.56,0,0,0-1.92-4.56,25.08,25.08,0,0,0-2.8-3.9,28.75,28.75,0,0,0-3.38-3.25c-.58-.51-1.24-.94-1.84-1.4s-1.29-.84-1.92-1.26Z"/><path class="b" d="M298.3,104.47a18.27,18.27,0,0,0-4.23,1.67,37.87,37.87,0,0,0-4.26,2.7,62,62,0,0,0-7.95,7,65.12,65.12,0,0,1,5-9.7,43.09,43.09,0,0,1,3.36-4.6,26.35,26.35,0,0,1,4.53-4.22Z"/><path class="b" d="M293.09,95.29a26.27,26.27,0,0,0-2.7-4.74,32.79,32.79,0,0,0-3.79-4.36A41.77,41.77,0,0,0,282,82.33a40.38,40.38,0,0,0-5.18-3.26,42.35,42.35,0,0,1,6.08,1.47,46.74,46.74,0,0,1,5.94,2.36,37.49,37.49,0,0,1,5.69,3.35,33.09,33.09,0,0,1,5.18,4.58Z"/><path class="a" d="M238.06,228.51c-.43-.3-8.1-5.86-11.47-18.85-7.25,10.82-16.79,12.28-21.39,12.28a19.12,19.12,0,0,1-4.52-.48l-3.35-.87,1.53-13.73-12.1,2.5-.4-4.48a22.57,22.57,0,0,1,5.28-15.34,25.69,25.69,0,0,1,9.51-7,29.92,29.92,0,0,1-14.52-27.12l.27-4,14.49,1-6.11-13.71,5.47-.58c.13,0,.81-.08,1.89-.08,4.05,0,15.86,1,24.07,11.68,7.6-22.14,22.65-23.44,23.37-23.49l4.19-.29.34,16.56,14.82-7.1,1.1,4.9c.13.57,2.21,10.7-7.43,22.52a48.73,48.73,0,0,1,7.39-.58c10.07,0,15.12,3.49,15.66,3.89L290,169,282.68,176l10.73,4.2-3.12,4.2a35.7,35.7,0,0,1-26.22,13.13,22.65,22.65,0,0,1,3.21,7.77c2.39,11.34-4.46,21.44-4.75,21.86L260,230.86l-12.58-11.22L242,231.26Z"/><path class="b" d="M250.35,130.28l.39,18.57,15.89-7.61s3.63,16.19-21.12,31.2c10.62-4.73,18.89-6.14,25-6.14,9.05,0,13.29,3.11,13.29,3.11l-8.44,8L287.08,182a31.72,31.72,0,0,1-24.15,11.53,35.45,35.45,0,0,1-10.67-1.71c20.92,12.86,7,33.06,7,33.06L246,213.08l-5.67,12.16s-12.38-8.72-11.28-31.36c-5.65,21.27-17.86,24.06-23.88,24.06a15.48,15.48,0,0,1-3.51-.35l1.75-15.76-13.09,2.7s-1.66-18.94,24.88-21.23c-26.2-4.24-24.61-27.57-24.61-27.57l17.14,1.19-6.58-14.76a14.41,14.41,0,0,1,1.46-.06c4.64,0,19.09,1.42,25.4,18.43,5.43-29.1,22.31-30.25,22.31-30.25m7.83-8.55-8.37.57c-1.12.07-7.05.72-13.58,6a39.67,39.67,0,0,0-10.88,14.21,35.23,35.23,0,0,0-22.71-8.36,20.26,20.26,0,0,0-2.31.11l-11,1.15,4.49,10.06L195,148l-3.86-.27-8-.55-.55,8a36.06,36.06,0,0,0,3.17,16,32.58,32.58,0,0,0,8,10.94,28.08,28.08,0,0,0-5.21,4.81,26.37,26.37,0,0,0-6.2,18.26l.78,9,8.81-1.82,2.3-.48-.53,4.81-.77,6.88,6.7,1.75a23.21,23.21,0,0,0,5.53.61,28.51,28.51,0,0,0,20-8.25,41.18,41.18,0,0,0,2.26,4.43,31.71,31.71,0,0,0,8.34,9.66l7.81,5.51,4-8.67,1.13-2.41,5.17,4.62,6.77,6,5.14-7.46c.84-1.21,8.07-12.18,5.38-25a26.49,26.49,0,0,0-1-3.6,40.24,40.24,0,0,0,23.34-14.09l6.24-8.4L290,174.54l6.24-5.9L288.52,163c-1-.77-6.76-4.57-17.58-4.67a37.47,37.47,0,0,0,1.92-4.32c2.86-7.75,1.81-13.43,1.57-14.5l-2.2-9.8L263.17,134l-4.69,2.25-.13-6.16-.17-8.38Z"/><path class="a" d="M236.18,189.66a12,12,0,0,1-4.36-.82c-5.53-2.11-8.54-7.73-6.71-12.52a9.34,9.34,0,0,1,9-5.68,12.21,12.21,0,0,1,4.36.82,11.71,11.71,0,0,1,5.91,4.84,8.81,8.81,0,0,1,.8,7.69A9.33,9.33,0,0,1,236.18,189.66Z"/><path class="b" d="M234.1,174.64a8.22,8.22,0,0,1,2.94.56c3.47,1.33,5.44,4.62,4.4,7.36-.75,2-2.85,3.1-5.26,3.1a8.12,8.12,0,0,1-2.93-.55c-3.48-1.33-5.45-4.63-4.4-7.36.75-2,2.84-3.11,5.25-3.11m0-8h0c-5.82,0-10.81,3.24-12.73,8.25-2.62,6.85,1.43,14.79,9,17.69a16.14,16.14,0,0,0,5.79,1.08c5.82,0,10.81-3.23,12.73-8.24,2.62-6.85-1.42-14.79-9-17.69a16.07,16.07,0,0,0-5.79-1.09Z"/><path class="a" d="M237,175.2c.53-5.73,7.31-15.5,7.31-15.5"/><path class="b" d="M233.05,174.83a17.23,17.23,0,0,1,2.29-4.87,36.78,36.78,0,0,1,2.81-3.76,69.58,69.58,0,0,1,6.2-6.5A69.67,69.67,0,0,0,241.7,168a33.17,33.17,0,0,0-.76,4.09,9.7,9.7,0,0,0,.08,3.46Z"/><path class="a" d="M241.68,180.44c7.31-2,17.59.34,17.59.34"/><path class="b" d="M240.6,176.59a30.09,30.09,0,0,1,10,1.07,53.73,53.73,0,0,1,8.7,3.12,51.68,51.68,0,0,0-8.87.87,34.47,34.47,0,0,0-4.12,1.06,17.93,17.93,0,0,0-3.53,1.59Z"/><path class="a" d="M239.49,184.81c6,7.13,5.36,13.4,5.36,13.4"/><path class="b" d="M242.54,182.23c.31.66.63,1.3.91,2s.54,1.32.76,2a25.9,25.9,0,0,1,1,4.08,21.68,21.68,0,0,1,.26,4.08,14.06,14.06,0,0,1-.64,3.87,13,13,0,0,0-1.32-3.45,18.9,18.9,0,0,0-2-2.94,21.36,21.36,0,0,0-2.42-2.43c-.41-.38-.89-.71-1.32-1s-.92-.64-1.37-.94Z"/><path class="a" d="M229.36,182c-5.92,2.19-12,9.84-12,9.84"/><path class="b" d="M230.75,185.72a11.15,11.15,0,0,0-3.17.57,25.36,25.36,0,0,0-3.44,1.4,44.68,44.68,0,0,0-6.73,4.12,47,47,0,0,1,4.1-7.13,31.33,31.33,0,0,1,2.73-3.38,19.08,19.08,0,0,1,3.73-3.08Z"/><path class="a" d="M229.88,176.2c-4.19-7.93-13.31-11.8-13.31-11.8"/><path class="b" d="M226.34,178.07a17.82,17.82,0,0,0-1.3-3.68,22.87,22.87,0,0,0-2.18-3.6,31.17,31.17,0,0,0-6.29-6.39,33.43,33.43,0,0,1,8.89,3.35,29,29,0,0,1,4.18,2.79,25.56,25.56,0,0,1,3.78,3.79Z"/><path class="a" d="M151,48.59a11.87,11.87,0,0,1-1.68-.12,11.61,11.61,0,0,1-6.85-3.35,8.75,8.75,0,0,1-2.55-7.3c.61-4.58,4.9-7.9,10.2-7.9a13.54,13.54,0,0,1,1.68.11c5.87.79,10.09,5.57,9.4,10.65C160.63,45.26,156.33,48.59,151,48.59Z"/><path class="b" d="M150.16,33.92a9,9,0,0,1,1.15.07c3.68.5,6.36,3.26,6,6.16-.35,2.6-3,4.44-6.25,4.44a9,9,0,0,1-1.14-.08c-3.69-.49-6.36-3.25-6-6.15.35-2.61,3-4.44,6.24-4.44m0-8h0c-7.32,0-13.28,4.78-14.17,11.37a12.81,12.81,0,0,0,3.64,10.62,15.8,15.8,0,0,0,9.2,4.53,16.26,16.26,0,0,0,2.2.15c7.33,0,13.29-4.78,14.18-11.37a12.81,12.81,0,0,0-3.65-10.62,15.63,15.63,0,0,0-9.19-4.53,16.3,16.3,0,0,0-2.21-.15Z"/><path class="a" d="M151.31,34c-.81-5.69,3.55-16.76,3.55-16.76"/><path class="b" d="M147.34,34.55a17.3,17.3,0,0,1,1.11-5.26A35.87,35.87,0,0,1,150.32,25a71.19,71.19,0,0,1,4.54-7.75,70,70,0,0,0-.66,8.71,31.2,31.2,0,0,0,.2,4.15,9.31,9.31,0,0,0,.87,3.35Z"/><path class="a" d="M157,38c6.65-3.66,17.2-3.71,17.2-3.71"/><path class="b" d="M155.1,34.53A30.15,30.15,0,0,1,165,33.28a54.31,54.31,0,0,1,9.19,1,51.46,51.46,0,0,0-8.44,2.89,36,36,0,0,0-3.76,2A18.66,18.66,0,0,0,159,41.54Z"/><path class="a" d="M155.9,42.79c7.52,5.55,8.29,11.81,8.29,11.81"/><path class="b" d="M158.28,39.57c.45.57.91,1.12,1.33,1.7s.83,1.15,1.2,1.77a25.88,25.88,0,0,1,1.93,3.73,21.92,21.92,0,0,1,1.19,3.91,13.73,13.73,0,0,1,.26,3.92,12.77,12.77,0,0,0-2.07-3.06,18.92,18.92,0,0,0-2.6-2.4,20.83,20.83,0,0,0-2.92-1.82c-.48-.27-1-.48-1.52-.71s-1.05-.41-1.55-.6Z"/><path class="a" d="M145.39,42.35C140.13,45.84,136,54.67,136,54.67"/><path class="b" d="M147.6,45.68A11.19,11.19,0,0,0,144.65,47a25.52,25.52,0,0,0-3,2.15,46.63,46.63,0,0,0-5.6,5.56,47.51,47.51,0,0,1,2.35-7.88,29.88,29.88,0,0,1,1.89-3.92A19.55,19.55,0,0,1,143.17,39Z"/><path class="a" d="M144.57,36.61c-5.9-6.75-15.66-8.43-15.66-8.43"/><path class="b" d="M141.56,39.24A17.66,17.66,0,0,0,139.44,36a22.6,22.6,0,0,0-2.95-3,31.34,31.34,0,0,0-7.58-4.78,33.82,33.82,0,0,1,9.42,1.22A29.31,29.31,0,0,1,143,31.16,25.42,25.42,0,0,1,147.58,34Z"/><path class="d" d="M62.24,115.76a22.47,22.47,0,0,1-8.24-14,25.73,25.73,0,0,1,.87-11.73,29.09,29.09,0,0,1-9.41,1.58,31.61,31.61,0,0,1-20.64-8.18L22,80.66,32.13,70.29,17.74,66l3.12-4.54C21.2,61,29.43,49.27,45,49.27c.52,0,1,0,1.56,0-11.9-20.16-3.12-32.46-2.68-33l2.5-3.37L59.16,23.39,63.38,7.51l4.45,2.35c.51.27,9.58,5.27,12.3,20.3,8.12-13,17-15.29,17.48-15.41l4.67-1.09.51,10.08L113,18.3l1.17,5.11c1.42,6.15,1.06,18.21-7.1,28.47,13.16,1.73,19.84,13.8,21.6,20.41l1.16,4.38-16.69,2.27,5.32,11.67-4.64,1.18a21.85,21.85,0,0,1-5.21.53A38.29,38.29,0,0,1,92,88.25c4,14.12-2.54,23.7-7.82,27.39l-2.84,2-9.45-10.08L65.9,118.37Z"/><path class="b" d="M66,13.39s14.67,7.75,10,36.32C84.17,22,98.53,18.64,98.53,18.64l.58,11.6,11.11-5.94s4.7,20.44-15.14,32.85a28.17,28.17,0,0,1,8.69-1.48c16.29,0,21,17.65,21,17.65l-17.54,2.39,5.57,12.21a18.7,18.7,0,0,1-4.22.4c-5.53,0-15.82-1.71-26.95-12.18,17,24.55.24,36.22.24,36.22L71,100.79,64.56,112.5s-15.49-11,0-32.71c-7,5.91-13.51,7.85-19.1,7.85a27.61,27.61,0,0,1-17.84-7l12-12.26L24.16,63.77s7.2-10.5,20.81-10.5a30.73,30.73,0,0,1,10.61,2c-18.62-23-8.52-36.61-8.52-36.61L61.43,30.42l4.53-17M60.81,1.63l-2.58,9.71-1.34,5-4.77-3.9L45.63,7.15l-5,6.73c-.67.91-4,5.84-4.29,14.19A39.68,39.68,0,0,0,40.1,45.62,35.11,35.11,0,0,0,17.56,59.24l-6.23,9.08,10.56,3.12,2.73.8L21.91,75,16.3,80.72,22,86.32a35.37,35.37,0,0,0,23.44,9.32,31.14,31.14,0,0,0,4.32-.29,28.05,28.05,0,0,0,.27,7.1A26.42,26.42,0,0,0,59.92,119l7.31,5.22,4.34-7.88,1.13-2.06L76,117.83l4.74,5,5.68-4a27,27,0,0,0,9.22-12.86,29.06,29.06,0,0,0,1.49-11.5,39.78,39.78,0,0,0,11.42,1.76,26,26,0,0,0,6.2-.65L124,93.3l-4-8.7L119,82.18l6.87-.94,9-1.22-2.33-8.76c-1.72-6.49-7.64-17.58-18.91-21.85a39,39,0,0,0,4.37-11.8,38.82,38.82,0,0,0,.08-15.1l-2.34-10.2-9.21,4.93L106,8.67,96.7,10.86c-1.16.27-7.82,2.13-15,10.34a34.9,34.9,0,0,0-2-4.27c-4-7.21-9-10.1-10-10.61L60.81,1.63Z"/><path class="d" d="M73.83,72.28a9.06,9.06,0,0,1-8.16-4.53c-2.45-4.51-.22-10.48,5-13.31a12,12,0,0,1,5.73-1.5,9.06,9.06,0,0,1,8.16,4.53,8.83,8.83,0,0,1,.22,7.73,11.74,11.74,0,0,1-5.2,5.58A12,12,0,0,1,73.83,72.28Z"/><path class="b" d="M76.38,56.94A5.09,5.09,0,0,1,81,59.39c1.4,2.57-.11,6.1-3.38,7.88a8,8,0,0,1-3.81,1,5.09,5.09,0,0,1-4.64-2.45c-1.41-2.57.11-6.1,3.38-7.88a8,8,0,0,1,3.81-1m0-8h0a16.11,16.11,0,0,0-7.64,2,15.8,15.8,0,0,0-7,7.52,12.79,12.79,0,0,0,.39,11.22,13,13,0,0,0,11.67,6.62,16,16,0,0,0,7.64-2,15.74,15.74,0,0,0,7-7.51,12.79,12.79,0,0,0-.39-11.22,13,13,0,0,0-11.67-6.62Z"/><path class="d" d="M72.57,58c-4-4.12-7-15.62-7-15.62"/><path class="b" d="M69.7,60.74a17.28,17.28,0,0,1-2.22-4.9,38,38,0,0,1-1-4.58,72.27,72.27,0,0,1-.91-8.93,69.92,69.92,0,0,0,4.61,7.41A30.58,30.58,0,0,0,72.76,53a9.52,9.52,0,0,0,2.67,2.18Z"/><path class="d" d="M79.57,57.83c3.2-6.89,11.68-13.17,11.68-13.17"/><path class="b" d="M75.94,56.14a30.47,30.47,0,0,1,7.28-6.88,54.77,54.77,0,0,1,8-4.6A52,52,0,0,0,86.15,52a37.32,37.32,0,0,0-1.87,3.82,19.16,19.16,0,0,0-1.08,3.71Z"/><path class="d" d="M81.47,62.33c9.34,0,13.67,4.62,13.67,4.62"/><path class="b" d="M81.49,58.33c.7.19,1.39.37,2.07.58s1.36.44,2,.72a25.33,25.33,0,0,1,3.76,1.87A21.13,21.13,0,0,1,92.61,64a14.05,14.05,0,0,1,2.53,3,13.3,13.3,0,0,0-3.48-1.24,19.38,19.38,0,0,0-3.52-.4,20.33,20.33,0,0,0-3.42.26c-.56.07-1.12.22-1.65.32s-1.09.3-1.61.44Z"/><path class="d" d="M72.73,68.18c-2.18,5.92-.27,15.48-.27,15.48"/><path class="b" d="M76.48,69.56a11.77,11.77,0,0,0-1.62,2.78,25.62,25.62,0,0,0-1.17,3.53,44.74,44.74,0,0,0-1.23,7.79,47.31,47.31,0,0,1-2.77-7.74,30,30,0,0,1-.79-4.28A19.27,19.27,0,0,1,69,66.8Z"/><path class="d" d="M68.68,64c-8.75-2-17.61,2.46-17.61,2.46"/><path class="b" d="M67.81,68a17.4,17.4,0,0,0-3.65-1.4A22.87,22.87,0,0,0,60,65.87a31.24,31.24,0,0,0-8.93.63,32.78,32.78,0,0,1,8.31-4.58,27.72,27.72,0,0,1,4.85-1.37,25.05,25.05,0,0,1,5.33-.41Z"/><path class="d" d="M147.73,246.11l-9.91,16-3.52-2.79a31.41,31.41,0,0,1-10.46-20.05A38,38,0,0,1,127.46,219,42.43,42.43,0,0,1,112.1,222c-18.38,0-30.19-12.57-30.69-13.11L78.7,205.9l16.81-15.5L74,182.84l3.34-4.38c.48-.64,12.17-15.65,32.89-15.65a44.69,44.69,0,0,1,8.16.77c-18.45-31.78-4.28-49.66-3.61-50.48l2.67-3.23,19,17.18,7.63-23.8,4.32,2.57c.76.45,15.13,9.36,16.28,35.15,13.44-22.33,28.12-25.28,28.89-25.42l4.72-.86v15.74l16-7.53.91,5.15c.05.29,4,24.46-14.75,42.83,20.86,1.59,30.44,20.6,32.62,30.86l.95,4.43-25.36,2.17,7.13,18-4.69.94a26.76,26.76,0,0,1-5.18.41c-6.36,0-17.29-1.48-29.67-9.5,2.82,8.79,3.72,18.52,0,27.88a32.28,32.28,0,0,1-11.51,14.64l-2.93,1.84Z"/><path class="b" d="M146.26,109.26s21.2,12.59,12.15,54.64c14.23-40.49,35.79-44.42,35.79-44.42v17.26l16.94-8s5.43,30.68-24.93,47.62a43.33,43.33,0,0,1,11.27-1.6c25.64,0,31.55,27.8,31.55,27.8l-26.2,2.24,7.35,18.53a24,24,0,0,1-4.39.33c-7.58,0-23.94-2.39-41-20.14,23.33,37.71-2.35,53.77-2.35,53.77l-15.23-18-10.44,16.91s-22.16-17.55,2.45-48.54C129.23,215.34,120,218,112.1,218c-16.84,0-27.75-11.82-27.75-11.82l18.77-17.3-22.65-8s10.73-14.07,29.71-14.07a44.74,44.74,0,0,1,17.55,3.8c-25.9-35.55-9.91-55-9.91-55l20.45,18.53,8-24.92m-4.55-12-3.07,9.56-4.2,13.11-11.25-10.2L117,104.09l-5.33,6.47c-.7.84-14.5,18.23-.32,48.26h-1.15c-22.68,0-35.54,16.52-36.07,17.22l-6.68,8.76,10.39,3.64L87.91,192l-9,8.28L73,205.67l5.43,5.88C79,212.14,92,226,112.1,226a44.87,44.87,0,0,0,8.93-.9,39.18,39.18,0,0,0-1.17,14.72,35.14,35.14,0,0,0,12,22.73l7.05,5.58,4.73-7.65,4.65-7.53,8.11,9.57,4.47,5.28,5.87-3.67a36.06,36.06,0,0,0,13.11-16.54,41,41,0,0,0,2.28-21.48,55.87,55.87,0,0,0,23.71,5.61,30.74,30.74,0,0,0,6-.49l9.37-1.9-3.53-8.88-3.38-8.54,15.48-1.32,9-.77-1.88-8.86a52,52,0,0,0-7.35-16.71c-5.53-8.2-12.81-13.63-21.41-16A55,55,0,0,0,219,127.36l-1.82-10.31-9.47,4.47-5.52,2.6V109.89l-9.44,1.72c-1.24.23-7.9,1.72-16.28,8.78a66,66,0,0,0-9.25,9.65c-4.17-19.82-16.15-27.23-16.88-27.66l-8.64-5.13Z"/><path class="b" d="M157.94,174.65c3.19,0,6,1.41,7.24,4,1.89,3.93-.62,9.05-5.61,11.45a12.14,12.14,0,0,1-5.19,1.22c-3.2,0-6-1.42-7.25-4-1.89-3.92.63-9,5.61-11.44a12,12,0,0,1,5.2-1.22m0-8h0a20.12,20.12,0,0,0-8.67,2c-9,4.31-13.14,14.23-9.35,22.12,2.53,5.26,8.07,8.52,14.46,8.52a20.22,20.22,0,0,0,8.66-2,19.57,19.57,0,0,0,9.1-8.84,15.15,15.15,0,0,0,.25-13.29c-2.53-5.25-8.07-8.51-14.45-8.51Z"/><path class="b" d="M149.74,178.51a25.56,25.56,0,0,1-3.07-6.78,55.54,55.54,0,0,1-1.6-6.57,105.57,105.57,0,0,1-1.6-13,104.85,104.85,0,0,0,5.37,11.67,49.55,49.55,0,0,0,3.24,5.3,18.44,18.44,0,0,0,3.66,4.1Z"/><path class="b" d="M159.6,174.34a40,40,0,0,1,4.88-5.48,63,63,0,0,1,5.4-4.4,81.54,81.54,0,0,1,11.58-6.91,78.45,78.45,0,0,0-8.79,9.78,55.92,55.92,0,0,0-3.52,5.3,31.85,31.85,0,0,0-2.47,5.44Z"/><path class="b" d="M165.84,179c1,.25,2,.48,2.94.76s1.92.58,2.86,1A37.38,37.38,0,0,1,177,183.3a31.17,31.17,0,0,1,4.75,3.39,20.41,20.41,0,0,1,3.78,4.23,19.41,19.41,0,0,0-4.81-2.52,29.43,29.43,0,0,0-5.11-1.35,32.11,32.11,0,0,0-5.16-.39c-.85,0-1.71.06-2.55.09s-1.69.19-2.52.27Z"/><path class="b" d="M155.89,192.64a21.2,21.2,0,0,0-2.27,4.52,40.42,40.42,0,0,0-1.52,5.35c-.41,1.85-.72,3.75-1,5.68s-.42,3.87-.48,5.83c-.6-1.88-1.09-3.79-1.52-5.74s-.79-3.91-1-5.93a46.49,46.49,0,0,1-.39-6.2,28.71,28.71,0,0,1,.82-6.65Z"/><path class="b" d="M145.45,188.47a29.9,29.9,0,0,0-5.73-1.92,36.17,36.17,0,0,0-6.32-.83,46.83,46.83,0,0,0-6.58.14,47.44,47.44,0,0,0-6.63,1.08,48.7,48.7,0,0,1,6.15-3,50.57,50.57,0,0,1,6.64-2.18,42.26,42.26,0,0,1,7.1-1.18,36.52,36.52,0,0,1,7.51.21Z"/><path class="c" d="M63.08,274.5a88.28,88.28,0,0,1-21.88-2.95L37,270.33l1.61-4.09C39,265.07,50,237.68,65.67,231a32.68,32.68,0,0,1,12.81-2.86,20.44,20.44,0,0,1,18.77,11.22c2.34,4.53,2.42,10.11.22,15.69a30.31,30.31,0,0,1-17.93,17A49.18,49.18,0,0,1,63.08,274.5Z"/><path class="b" d="M78.48,232.12a16.32,16.32,0,0,1,15.21,9c4.54,8.8-2.66,22.45-15.5,27a45.3,45.3,0,0,1-15.11,2.29,84.94,84.94,0,0,1-20.78-2.79s10.63-26.93,25-33.06a28.85,28.85,0,0,1,11.23-2.53m0-8h0A36.67,36.67,0,0,0,64.1,227.3c-16.9,7.23-28,34.39-29.24,37.47L31.63,273l8.47,2.43a92.46,92.46,0,0,0,23,3.11,53,53,0,0,0,17.8-2.75,34.33,34.33,0,0,0,20.31-19.26c2.63-6.67,2.49-13.41-.39-19-4.39-8.51-12.53-13.38-22.32-13.38Z"/><path class="c" d="M81.9,243.17c-11.64,3-17.59,9.19-17.59,9.19"/><path class="b" d="M82,243.56a11.73,11.73,0,0,1-1.67,3,9.52,9.52,0,0,1-1.81,1.87,4.08,4.08,0,0,1-2.13.82,13.69,13.69,0,0,0-2.4.29c-.76.21-1.54.42-2.3.65s-1.58.43-2.35.7a47.77,47.77,0,0,0-4.74,1.75l0,0a.42.42,0,0,1-.55-.23.4.4,0,0,1,0-.34,21.12,21.12,0,0,1,3.07-4.51c.6-.68,1.24-1.33,1.9-2s1.37-1.2,2.09-1.77,1.39-1.26,2.13-1.84a5.13,5.13,0,0,1,1.17-.74,5.37,5.37,0,0,1,1.34-.33,8.18,8.18,0,0,1,6.08,1.86.64.64,0,0,1,.21.74Z"/><path class="a" d="M501.41,229.7c-2.19,0-4.81-.95-8.25-3l-.33-.19-.29-.26c-10-8.86-10.54-23.14-10.56-23.75l-.11-3.77,3.76-.33c.09,0,.88-.08,2.15-.08,4.2,0,14.81.76,22.68,7.75l.29.25.23.31c2.55,3.32,5.24,7.62,3.39,11.37-.63,1.28-2.32,3.43-6.52,3.43h-.41a8.29,8.29,0,0,1-.86,5.53,5.9,5.9,0,0,1-5.17,2.74Z"/><path class="b" d="M487.78,202.33c3.87,0,13.21.69,20,6.74,5.19,6.77,3.13,8.37,0,8.37a23.41,23.41,0,0,1-6.35-1.27s4.71,9.53-.09,9.53c-1.29,0-3.27-.68-6.21-2.43-8.81-7.82-9.22-20.88-9.22-20.88s.67-.06,1.8-.06m0-8c-1.41,0-2.33.08-2.5.09l-7.53.66.24,7.56c.05,1.69.83,16.79,11.9,26.61l.57.51.66.39c4.14,2.46,7.31,3.55,10.29,3.55a9.82,9.82,0,0,0,8.57-4.63,10.41,10.41,0,0,0,1.45-4.08,10,10,0,0,0,6.53-5.21c3.19-6.46-1.89-13.09-3.8-15.58l-.47-.6-.57-.51c-8.9-7.91-20.69-8.76-25.34-8.76Z"/><path class="d" d="M383,276.74c-2.94,0-5.7-2.08-8.95-6.75l-.22-.31-.15-.35c-5.42-12.21,0-25.43.23-26l1.46-3.49,3.56,1.26c.57.2,14,5.07,19.42,17.28l.15.35.09.37c1.23,5.31,1,8.67-.76,10.87a5.73,5.73,0,0,1-4.6,2.18,9.45,9.45,0,0,1-4-1.06,9.24,9.24,0,0,1-2.05,3.84,5.78,5.78,0,0,1-4.17,1.8Z"/><path class="b" d="M377.6,244.88s12.32,4.36,17.09,15.13c1.45,6.26.37,8.15-1.46,8.15-2.76,0-7.22-4.3-7.22-4.3s.28,8.88-3,8.88c-1.28,0-3.09-1.33-5.67-5-4.77-10.77.27-22.83.27-22.83m-4.47-10.06-2.91,7c-.66,1.56-6.2,15.62-.2,29.15l.31.7.44.63c2.74,3.94,6.61,8.46,12.23,8.46a9.74,9.74,0,0,0,7-3A10.86,10.86,0,0,0,391.4,276a10.33,10.33,0,0,0,1.83.17,9.78,9.78,0,0,0,7.73-3.69c3.32-4.16,2.56-9.81,1.53-14.26l-.17-.75-.31-.7c-6-13.53-20.15-18.86-21.75-19.42l-7.13-2.52Z"/><path class="c" d="M264.28,16.8C260.21,5.5,253.45.17,253.45.17"/><path class="b" d="M263.9,16.94a11.8,11.8,0,0,1-3.14-1.37,9.82,9.82,0,0,1-2-1.62,4,4,0,0,1-1-2,14.41,14.41,0,0,0-.53-2.36c-.28-.74-.56-1.49-.86-2.23s-.59-1.52-.93-2.27A48.45,48.45,0,0,0,253.2.49l0,0a.43.43,0,0,1,.17-.57.45.45,0,0,1,.34,0,21.15,21.15,0,0,1,4.78,2.63c.74.53,1.45,1.1,2.15,1.69s1.33,1.25,2,1.91,1.39,1.27,2,1.95a5.94,5.94,0,0,1,.84,1.1,5.15,5.15,0,0,1,.46,1.3,8.22,8.22,0,0,1-1.26,6.23.67.67,0,0,1-.73.28Z"/><path class="b" d="M-5.14,904V694.67l6.5-3.13c44.78,35.73,116.51,79.6,196.8,120.36,78.9,40.06,153.23,70.76,203.93,84.23l-1,7.87Z"/><path class="b" d="M-1.14,694.67C94.55,771,295.73,872,401.06,900H-1.14V694.67m5-6.25-13,6.25V908h410.2l2.05-15.73c-50.43-13.4-124.48-44-203.14-83.93C119.91,767.69,48.43,724,3.85,688.42Z"/><path class="a" d="M510,903.64C223.61,903.64,120.56,822-4,697.5l-1.17-1.17V534.67l6.5-3.13C154.29,653.56,297.17,701.1,511,701.1h4l-1,202.54Z"/><path class="b" d="M-1.14,534.67C154.67,659,298.5,705.1,511,705.1l-1,194.54c-286.57,0-388.52-82.35-511.14-205v-160m5-6.25-13,6.25V698l2.35,2.35c57.56,57.56,115.89,112.35,196.35,150,83.35,39.07,185.17,57.26,320.44,57.26h8l0-8,1-194.54,0-8h-8c-108.55,0-195.87-12.14-274.8-38.19C156.14,632.48,82.31,591,3.85,528.42Z"/><path class="e" d="M510.49,709.1C294.92,709,150.78,661-3.63,537.8l-1.51-1.2V391L1,387.64C80.12,437.55,154.15,471,234,492.78c81.56,22.29,169.58,32.67,277,32.67h4l-.51,183.65Z"/><path class="b" d="M-1.14,391C152.74,488.1,298.5,529.45,511,529.45l-.49,175.65C298.28,705,154.55,658.89-1.14,534.67V391m4.27-6.77L-9.14,391V538.52l3,2.4C149.07,664.75,293.92,713,510.49,713.1h8l0-8L519,529.48l0-8h-8c-107,0-194.72-10.33-275.93-32.53C155.6,467.21,81.91,434,3.13,384.26Z"/><path class="f" d="M422.52,546.93H422c-5.22-.21-9.9-3.25-13.18-8.55a31.2,31.2,0,0,1-4.2-17.5l1.11-27.18,36.81,1.51-1.1,27.17C440.82,536.14,432.53,546.93,422.52,546.93Z"/><path class="b" d="M409.52,497.85,438.34,499l-.95,23.18c-.47,11.56-7.09,20.72-14.87,20.72h-.41c-8-.33-14-10.13-13.54-21.9l.95-23.18m-7.67-8.32-.33,8-.94,23.17a35.17,35.17,0,0,0,4.79,19.78c3.94,6.37,9.92,10.17,16.41,10.44h.74c6.32,0,12.39-3.41,16.67-9.35a35.36,35.36,0,0,0,6.19-19.05l.95-23.17.32-8-8-.32-28.82-1.18-8-.33Z"/><path class="f" d="M328.32,537.88c-.51,0-1,0-1.54-.08-10.26-1.15-17.08-13.1-15.51-27.21l3-27,36.62,4.07-3,27C346.42,527.9,338,537.88,328.32,537.88Z"/><path class="b" d="M317.81,488l28.66,3.18-2.56,23.06c-1.24,11.16-8.09,19.66-15.59,19.66a10.14,10.14,0,0,1-1.1-.06h0c-7.91-.88-13.28-11.08-12-22.79l2.56-23m-7.07-8.84-.88,8-2.57,23c-1.81,16.34,6.55,30.23,19,31.62a18.62,18.62,0,0,0,2,.11c11.72,0,21.85-11.51,23.54-26.78l2.56-23.05.89-7.95-7.95-.89L318.69,480l-7.95-.89Z"/><path class="f" d="M36,437.67A14.28,14.28,0,0,1,29.17,436c-9.12-4.86-11-18.48-4.35-31L37.6,381l32.52,17.32-12.79,24C52.37,431.65,44,437.67,36,437.67Z"/><path class="b" d="M39.25,386.41,64.71,400,53.8,420.44C49.46,428.6,42.25,433.67,36,433.67a10.29,10.29,0,0,1-4.9-1.19c-7-3.74-8.24-15.2-2.7-25.6l10.9-20.47M36,375.59l-3.76,7.06-10.9,20.47c-7.73,14.52-5.1,30.52,6,36.43A18.25,18.25,0,0,0,36,441.67c9.48,0,19.26-6.85,24.92-17.47l10.9-20.47,3.76-7.06-7.06-3.76L43,379.35,36,375.59Z"/><path class="f" d="M128.3,483.53a14.27,14.27,0,0,1-6.07-1.33c-9.35-4.38-12-17.89-5.93-30.75l11.54-24.62,33.36,15.63-11.54,24.62C145.05,476.92,136.47,483.53,128.3,483.53Z"/><path class="b" d="M129.77,432.15l26.11,12.24-9.84,21c-4,8.63-11.3,14.14-17.74,14.14a10.3,10.3,0,0,1-4.37-.95c-7.21-3.38-9-14.77-4-25.43l9.85-21m-3.85-10.64-3.4,7.24-9.84,21c-7,14.89-3.53,30.74,7.86,36.07a18.06,18.06,0,0,0,7.76,1.71c9.84,0,19.65-7.36,25-18.75l9.85-21,3.39-7.24-7.24-3.4L133.16,424.9l-7.24-3.39Z"/><path class="f" d="M228.73,516.93a14,14,0,0,1-3.54-.45c-10-2.62-15-15.43-11.41-29.17L220.66,461l35.64,9.33-6.88,26.31C246.34,508.4,237.64,516.93,228.73,516.93Z"/><path class="b" d="M223.52,465.88l27.9,7.31-5.87,22.43c-2.66,10.16-9.84,17.31-16.82,17.31a10.32,10.32,0,0,1-2.53-.32h0c-7.71-2-11.54-12.89-8.55-24.29l5.87-22.44m-5.72-9.76-2,7.74-5.87,22.44c-4.17,15.91,2.1,30.86,14.26,34.05a18.45,18.45,0,0,0,4.56.58c10.87,0,21-9.57,24.56-23.28l5.87-22.44,2-7.74-7.73-2-27.91-7.3-7.74-2Z"/><path class="f" d="M506.37,549.44c-10.27,0-18.4-11.06-18.5-25.19l-.19-27.2,36.84-.26.19,27.19c.11,14.2-7.91,25.39-18.24,25.46Z"/><path class="b" d="M520.55,500.82l.16,23.19c.09,11.78-6.3,21.37-14.26,21.43h-.08c-7.93,0-14.41-9.48-14.5-21.22L491.7,501l28.85-.21m7.94-8.06-8,.06-28.84.21-8,.05.05,8,.17,23.2c.12,16.35,10,29.16,22.5,29.16h.13c12.58-.09,22.33-13,22.21-29.49l-.16-23.19-.06-8Z"/><path class="g" d="M0,347.38C165.63,462.61,341.78,488.92,511,488.92"/><path class="a" d="M435.32,511.92c-2.94,0-5.7-2.09-8.95-6.75l-.22-.32-.15-.35c-5.42-12.2,0-25.43.23-26l1.46-3.48,3.56,1.26c.57.2,14,5.06,19.42,17.27l.16.35.08.37c1.23,5.32,1,8.67-.76,10.88a5.75,5.75,0,0,1-4.6,2.17,9.45,9.45,0,0,1-4-1.06,9.16,9.16,0,0,1-2.05,3.85,5.78,5.78,0,0,1-4.17,1.8Z"/><path class="b" d="M429.92,480.06s12.32,4.35,17.09,15.12c1.45,6.27.37,8.15-1.46,8.15-2.76,0-7.21-4.3-7.21-4.3s.28,8.89-3,8.89c-1.28,0-3.09-1.34-5.66-5-4.78-10.77.26-22.82.26-22.82M425.46,470l-2.92,7c-.65,1.56-6.2,15.62-.2,29.16l.31.69.44.63c2.74,3.94,6.61,8.47,12.23,8.47a9.75,9.75,0,0,0,7-3,10,10,0,0,0,1.36-1.74,10.33,10.33,0,0,0,1.83.17,9.8,9.8,0,0,0,7.73-3.68c3.32-4.17,2.56-9.82,1.53-14.27l-.17-.74-.31-.7c-6-13.54-20.15-18.86-21.75-19.43L425.46,470Z"/><path class="d" d="M146.69,521.69c-3.19,0-5.07-2.29-6.19-5a8.8,8.8,0,0,1-4.53,1.51h0a5.72,5.72,0,0,1-4.35-2c-1.8-2-2.31-5.28-1.67-10.51l.05-.38.12-.36c4.12-12.7,17-18.94,17.52-19.2l3.42-1.62,1.81,3.32c.29.53,7,13.12,2.92,25.83l-.12.36-.18.33C153.52,517.59,150.74,521.69,146.69,521.69Z"/><path class="b" d="M149.36,489.41s6.26,11.46,2.63,22.67c-2.29,4.14-4,5.61-5.3,5.61-3.12,0-3.73-8.54-3.73-8.54s-4.25,5-7,5c-1.68,0-2.8-1.89-2.05-8,3.64-11.21,15.44-16.81,15.44-16.81m3.39-10.47-6.82,3.24c-1.53.73-15.05,7.49-19.62,21.57l-.23.73-.1.76c-.54,4.35-.72,9.84,2.65,13.65a9.65,9.65,0,0,0,7.34,3.3,10.86,10.86,0,0,0,2.9-.41,9.65,9.65,0,0,0,7.82,3.91c6.93,0,10.83-7.08,12.3-9.74l.37-.67.24-.73c4.56-14.08-2.41-27.5-3.22-29l-3.63-6.63Z"/><path class="a" d="M379,632.42c-2.94,0-5.7-2.08-8.95-6.75l-.22-.31-.15-.35c-5.42-12.21,0-25.44.23-26l1.45-3.49,3.57,1.26c.57.2,14,5.07,19.42,17.27l.15.35.09.37c1.23,5.32,1,8.68-.76,10.88a5.75,5.75,0,0,1-4.6,2.17,9.3,9.3,0,0,1-4-1.06,9.28,9.28,0,0,1-2.05,3.85,5.8,5.8,0,0,1-4.17,1.8Z"/><path class="b" d="M373.56,600.56s12.31,4.35,17.09,15.12c1.45,6.27.37,8.15-1.46,8.15-2.76,0-7.22-4.3-7.22-4.3s.28,8.89-3,8.89c-1.28,0-3.09-1.33-5.67-5-4.78-10.77.27-22.82.27-22.82m-4.47-10.06-2.91,7c-.66,1.56-6.2,15.63-.2,29.16l.31.7.44.62c2.74,3.95,6.61,8.47,12.23,8.47a9.71,9.71,0,0,0,7-3,10.87,10.87,0,0,0,1.36-1.73,11.13,11.13,0,0,0,1.83.16,9.8,9.8,0,0,0,7.73-3.68c3.31-4.17,2.56-9.81,1.53-14.27l-.17-.74-.31-.7c-6-13.53-20.16-18.86-21.75-19.42l-7.13-2.52Z"/><path class="d" d="M243.55,762.47a5.7,5.7,0,0,1-4.58-2.21,8.67,8.67,0,0,1-1.61-4.7,10.7,10.7,0,0,1-2.64.37h0a5.94,5.94,0,0,1-5.25-2.69c-2.09-3.26-.47-7.76,1.17-11.32l.16-.35.22-.31c7.78-10.86,21.92-12.9,22.52-13l3.74-.51.73,3.71c.11.6,2.73,14.64-5.05,25.5l-.22.31-.28.26C248.86,761,246.12,762.47,243.55,762.47Z"/><path class="b" d="M254.07,732.25s2.49,12.82-4.37,22.4c-2.93,2.78-4.88,3.82-6.15,3.82-3.82,0-1.57-9.35-1.57-9.35s-4.45,2.81-7.27,2.81c-2.25,0-3.45-1.81-.45-8.34,6.86-9.58,19.81-11.34,19.81-11.34m6.41-9-7.49,1c-1.68.23-16.61,2.58-25.23,14.61l-.45.62-.32.69c-2.06,4.49-4,10.27-.9,15.16a9.93,9.93,0,0,0,8.16,4.52,10.46,10.46,0,0,0,1.58,2.82,9.77,9.77,0,0,0,7.72,3.73c4.7,0,8.7-3.21,11.65-6l.56-.53.44-.62c8.62-12,6-26.93,5.72-28.59l-1.44-7.42Z"/><path class="a" d="M84.3,797.77c-2.94,0-5.7-2.08-8.94-6.74l-.22-.32-.16-.35c-5.41-12.2,0-25.43.23-26l1.46-3.49,3.57,1.26c.56.21,14,5.07,19.42,17.28l.15.35.09.37c1.23,5.32,1,8.67-.76,10.88a5.76,5.76,0,0,1-4.6,2.17,9.41,9.41,0,0,1-4-1.06,9.24,9.24,0,0,1-2,3.84,5.76,5.76,0,0,1-4.18,1.8Z"/><path class="b" d="M78.9,765.92S91.22,770.27,96,781c1.45,6.27.36,8.15-1.46,8.15-2.76,0-7.22-4.3-7.22-4.3s.28,8.88-3,8.88c-1.27,0-3.09-1.33-5.66-5-4.78-10.77.26-22.82.26-22.82m-4.46-10.07-2.92,7c-.65,1.56-6.2,15.62-.19,29.15l.31.7.43.63c2.74,3.94,6.61,8.46,12.23,8.46a9.78,9.78,0,0,0,7-3A11,11,0,0,0,92.71,797a10.25,10.25,0,0,0,1.83.17,9.8,9.8,0,0,0,7.73-3.68c3.31-4.17,2.55-9.82,1.52-14.27l-.17-.75-.31-.69c-6-13.54-20.15-18.86-21.74-19.43l-7.13-2.52Z"/><circle class="h" cx="395.92" cy="785.92" r="104.08"/><path class="i" d="M352.39,835l8.81-11.43c8.17,8.48,18.78,16,34.69,16,16.5,0,28.21-9.64,28.21-24.89,0-16.15-11.11-27-43.35-27V774.29c28.77,0,38.55-11.08,38.55-25.29,0-13.21-9.07-21.51-23.48-21.51-11.37,0-21,5.72-29,13.77l-9.43-11.12c10.51-9.73,22.95-16.92,39-16.92,23.62,0,40.64,12.55,40.64,34.49,0,16.36-9.93,26.83-24.69,32.28v.85c16.42,3.88,29.49,15.87,29.49,34.53,0,24.21-20,38.81-44.86,38.81C375.23,854.18,361.54,845.05,352.39,835Z"/></svg>