<svg xmlns="http://www.w3.org/2000/svg" width="510" height="900" viewBox="0 0 510 900"><defs><style>.a,.e{fill:#432d1e;}.b{fill:#ebaed3;}.c,.g{fill:#db85a0;}.d{fill:#aebf7c;}.e,.f{stroke:#432d1e;}.e{stroke-linejoin:round;stroke-width:8px;}.f{fill:#fff;stroke-width:15px;}.f,.g{stroke-miterlimit:2;}.g{stroke:#db85a0;stroke-width:12px;}</style></defs><title>32</title><path class="a" d="M321.35,148.07a66,66,0,0,1,15.75,1.48,98.78,98.78,0,0,1,14.31,4.1c2.32.81,4.53,1.8,6.78,2.73s4.41,2,6.53,3.17l3.2,1.69,3.13,1.83,1.57.92,1.53,1c1,.66,2,1.31,3,2l-5.45-1.4,7.17.48,7.16.68,7.16.88c2.39.37,4.77.68,7.16,1.1q7.17,1.2,14.33,2.93A120.93,120.93,0,0,1,429.05,176l.21.08a.63.63,0,0,1,.37.81.65.65,0,0,1-.58.41l-14.32.27c-4.77.1-9.55.14-14.32.2l-14.32.16-14.32.08a1.21,1.21,0,0,1-.6-.15h0c-4.23-2.33-8.49-4.61-12.7-7l-12.65-7.09c-4.21-2.37-8.39-4.8-12.58-7.2s-8.34-4.9-12.51-7.35a.6.6,0,0,1-.22-.82.63.63,0,0,1,.5-.3Z"/><path class="b" d="M321.66,107.37l-7.61,9.74-3.2-3.17A22.59,22.59,0,0,1,305,98.83a25.86,25.86,0,0,1,2.74-11.44,30.19,30.19,0,0,1-5,.42c-14.79,0-23.25-11.26-23.61-11.74l-2.37-3.22,11.7-8.61-13.53-6.5,3.81-4a30.85,30.85,0,0,1,21-8.6,29.8,29.8,0,0,1,6.28.67c-8.52-21.8,2.12-32.54,2.64-33l3-2.92,11,12.4,6.71-15,4,3c.47.35,8.62,6.74,8.89,22C352.33,20.74,361.43,19.94,362,19.9l4.78-.33-1.11,10,10.9-3.74.34,5.22c.41,6.3-1.87,18.15-11.57,27,12.59,3.77,17.33,16.4,18,23.61l.45,4.51-16.85-.42,3.37,12.3-4.75.49s-.38,0-1.1,0c-2.87,0-10.85-.66-19.86-7,1.66,14.57-6.31,23-12.11,25.76l-3.12,1.5Z"/><path class="a" d="M330.92,13.49S344.16,23.49,335,51c12.54-26,27.24-27.06,27.24-27.06l-1.28,11.55,11.93-4.09s1.35,20.92-20.21,30a32.11,32.11,0,0,1,4.82-.38c19.78,0,21.88,21.09,21.88,21.09l-17.7-.45,3.54,12.94a7.19,7.19,0,0,1-.74,0c-3.19,0-16.15-1-28.14-16.65,12.8,27-5.56,35.79-5.56,35.79l-8.86-13.15-8.23,10.53s-13.52-13.38,5.24-32.29c-6.07,3.66-11.5,5-16.21,5-12.94,0-20.39-10.11-20.39-10.11l13.84-10.18-14.56-7a26.87,26.87,0,0,1,18.12-7.36,28.81,28.81,0,0,1,14.25,4c-14.68-25.71-2.54-37.5-2.54-37.5l12.3,13.91,7.2-16.08m-3.2-12.44-4.1,9.18L321.49,15l-4.08-4.61-5.55-6.28-6,5.84c-.8.78-4.91,5.11-6.51,13.32a39.64,39.64,0,0,0,.91,17.92h-.53A34.54,34.54,0,0,0,275.8,51l-7.6,8,9.92,4.77L280.69,65l-3.12,2.29L271.12,72l4.75,6.44c.4.54,9.71,12.93,25.95,13.36a28.24,28.24,0,0,0-.87,7A26.42,26.42,0,0,0,308,116.79l6.39,6.32L320,116l1.45-1.85,2.7,4,3.87,5.75,6.24-3a27,27,0,0,0,11.16-11.21,29,29,0,0,0,3.31-11.1,37,37,0,0,0,15.76,4c.73,0,1.23,0,1.46-.06l9.52-.85-2.52-9.23-.7-2.56,6.94.18,9.06.23-.9-9a37.58,37.58,0,0,0-4.53-13.71,28.53,28.53,0,0,0-10.65-10.89,38.7,38.7,0,0,0,6.21-11,38.68,38.68,0,0,0,2.5-14.89l-.68-10.44-9.88,3.39.94-8.53-9.56.66c-1.19.08-8.07.86-16.43,7.81a38.25,38.25,0,0,0-1.33-4.54c-2.83-7.75-7.3-11.42-8.17-12.07l-8-6.06Z"/><path class="b" d="M331.08,73c-4.29,0-7.88-2.32-9.15-5.92-1.7-4.84,1.46-10.38,7.05-12.34a12.18,12.18,0,0,1,4.07-.7c4.29,0,7.88,2.32,9.15,5.92a8.8,8.8,0,0,1-1,7.66,11.68,11.68,0,0,1-6,4.68A12.18,12.18,0,0,1,331.08,73Z"/><path class="a" d="M333.05,58.06c2.49,0,4.66,1.21,5.37,3.25,1,2.76-1.08,6-4.6,7.23a8.12,8.12,0,0,1-2.74.48c-2.49,0-4.66-1.21-5.37-3.25-1-2.76,1.08-6,4.6-7.24a8.36,8.36,0,0,1,2.74-.47m0-8h0a16.18,16.18,0,0,0-5.4.93,15.68,15.68,0,0,0-8.08,6.3,12.78,12.78,0,0,0-1.41,11.13c1.83,5.23,6.91,8.6,12.92,8.6a16.18,16.18,0,0,0,5.4-.93,15.73,15.73,0,0,0,8.08-6.3A12.79,12.79,0,0,0,346,58.65c-1.83-5.22-6.91-8.59-12.92-8.59Z"/><path class="b" d="M330.31,58.53C327,53.82,325.86,42,325.86,42"/><path class="a" d="M327,60.83a17,17,0,0,1-1.4-5.19,36,36,0,0,1-.3-4.69,73.63,73.63,0,0,1,.53-9A68.94,68.94,0,0,0,329.23,50a29.8,29.8,0,0,0,2.06,3.61,9.53,9.53,0,0,0,2.29,2.59Z"/><path class="b" d="M337.24,59.53c4.26-6.28,13.64-11.12,13.64-11.12"/><path class="a" d="M333.93,57.29a29.94,29.94,0,0,1,8.29-5.63,54.49,54.49,0,0,1,8.66-3.25,51.35,51.35,0,0,0-6.21,6.41,37.17,37.17,0,0,0-2.46,3.46,18.71,18.71,0,0,0-1.66,3.5Z"/><path class="b" d="M338.4,64.28c9.21,1.54,12.75,6.76,12.75,6.76"/><path class="a" d="M339.05,60.34c.67.3,1.32.58,2,.9s1.26.65,1.87,1a26.4,26.4,0,0,1,3.42,2.44,21.83,21.83,0,0,1,2.83,3,14,14,0,0,1,2,3.37,12.56,12.56,0,0,0-3.24-1.78,17.74,17.74,0,0,0-3.41-1,21,21,0,0,0-3.42-.3c-.56,0-1.14,0-1.68,0s-1.12.12-1.66.18Z"/><path class="b" d="M328.83,68.66c-3.1,5.5-2.75,15.24-2.75,15.24"/><path class="a" d="M332.31,70.63a11.19,11.19,0,0,0-2.05,2.48,25.45,25.45,0,0,0-1.71,3.29,45.14,45.14,0,0,0-2.47,7.5,47.2,47.2,0,0,1-1.49-8.09,31.27,31.27,0,0,1-.1-4.35,19.37,19.37,0,0,1,.85-4.76Z"/><path class="b" d="M325.49,63.93c-8.32-3.34-17.78-.4-17.78-.4"/><path class="a" d="M324,67.64a17.61,17.61,0,0,0-3.38-2,22.52,22.52,0,0,0-4-1.34,31.32,31.32,0,0,0-8.93-.81,33.18,33.18,0,0,1,9-3.19,27.92,27.92,0,0,1,5-.57,25,25,0,0,1,5.32.44Z"/><path class="c" d="M261.75,159.75l-8.82,8.67-2.75-3.55a22.52,22.52,0,0,1-3.89-15.75,25.72,25.72,0,0,1,4.19-11l-1.18,0c-17.25,0-25.37-14.34-25.71-15l-1.94-3.5,12.72-7-12.57-8.19,4.29-3.46a31.05,31.05,0,0,1,18.2-6,29.25,29.25,0,0,1,9.89,1.72c-5.63-22.73,6.32-32,6.9-32.42l3.36-2.51,9.27,13.72,8.59-14L285.89,65c.41.41,7.66,7.79,6,22.95,10.31-9.11,18.66-9.73,20.73-9.73H313l4.71.35-1.07,4.59-1.26,5.15L326.7,86l-.34,5.22c-.41,6.3-4.21,17.75-14.95,25.23a23,23,0,0,1,7.13,5c8,8.23,7.71,20.26,7.69,20.77l-.14,4.53-16.64-2.61,1.75,12.7-4.78-.19c-.53,0-10-.54-19.88-9.63-.24,14.66-9.24,22-15.35,24l-3.28,1.08Z"/><path class="a" d="M263.47,67.48l10.4,15.4,9.21-15s11.84,11.63-.82,37.67C297,83,310.76,82.23,312.58,82.23h.2L310,93.51,322.37,91s-1.37,20.93-23.93,27.13h.79c23.74,0,23,24,23,24l-17.48-2.74,1.83,13.29s-15.13-.61-26.49-20.22c9.21,28.39-10.15,34.77-10.15,34.77L262.87,153l-9.54,9.37s-11.67-15,9.38-31.33a33.3,33.3,0,0,1-13.41,3.07c-15.09,0-22.21-12.89-22.21-12.89l15-8.29-13.53-8.83A27,27,0,0,1,244.29,99c5,0,10.76,1.48,16.84,6-11.23-27.39,2.34-37.52,2.34-37.52m18-12.37-5.25,8.57-2.73,4.43L270.1,63l-4.7-6.95-6.72,5c-.9.68-5.53,4.44-8.18,12.37a39.63,39.63,0,0,0-1.42,17.88,33.24,33.24,0,0,0-4.79-.34,34.89,34.89,0,0,0-20.72,6.93L215,104.83l9.23,6,2.38,1.55-3.38,1.87-7,3.87,3.87,7c.35.63,8,14.1,24,16.61a27.8,27.8,0,0,0-1.77,6.87,26.37,26.37,0,0,0,4.7,18.7l5.51,7.1,6.41-6.3,1.68-1.65,2.16,4.33,3.09,6.2,6.58-2.17A27.1,27.1,0,0,0,285,165.15a29,29,0,0,0,4.72-10.58,40.42,40.42,0,0,0,4.33,2.51,32,32,0,0,0,12.24,3.6l9.55.38-1.3-9.47-.37-2.63L321,150l8.95,1.4.28-9.06c0-1.44.18-14.4-8.82-23.67a26.09,26.09,0,0,0-3-2.69,39.77,39.77,0,0,0,12-24.49L331,81.08l-10.24,2.08,2-8.15-9.53-.77h-.68c-2,0-7.25.4-14.16,4.18-.82.45-1.65.93-2.46,1.45a37.55,37.55,0,0,0-.73-4.67c-1.8-8.06-5.76-12.27-6.54-13l-7.17-7Z"/><path class="c" d="M277.08,127c-4.91,0-9-2.94-9.85-7.16a8.85,8.85,0,0,1,2-7.47,11.78,11.78,0,0,1,6.59-3.85,12.47,12.47,0,0,1,2.57-.27c4.91,0,9,2.94,9.86,7.16,1.06,5-2.8,10.1-8.59,11.32A12.49,12.49,0,0,1,277.08,127Z"/><path class="a" d="M278.39,112.26c2.94,0,5.44,1.58,5.94,4,.61,2.87-1.85,5.82-5.5,6.59a8.72,8.72,0,0,1-1.74.18c-2.94,0-5.44-1.58-5.95-4-.6-2.87,1.86-5.82,5.5-6.59a8.89,8.89,0,0,1,1.75-.18m0-8h0a16.3,16.3,0,0,0-3.4.36c-7.95,1.67-13.19,8.88-11.67,16.06,1.28,6.08,6.94,10.33,13.77,10.33a16.37,16.37,0,0,0,3.4-.36,15.71,15.71,0,0,0,8.83-5.2,12.8,12.8,0,0,0,2.84-10.86c-1.28-6.08-6.94-10.33-13.77-10.33Z"/><path class="c" d="M276.64,112.44c-2.66-5.1-2.26-17-2.26-17"/><path class="a" d="M273.1,114.3a16.85,16.85,0,0,1-.72-5.33,37.44,37.44,0,0,1,.31-4.69,73.91,73.91,0,0,1,1.69-8.82,71,71,0,0,0,2.29,8.43,31.76,31.76,0,0,0,1.58,3.84,9.41,9.41,0,0,0,1.94,2.86Z"/><path class="c" d="M283.39,114.33c5-5.68,15-9.26,15-9.26"/><path class="a" d="M280.4,111.68a30,30,0,0,1,8.94-4.51,54.34,54.34,0,0,1,9-2.1,51.72,51.72,0,0,0-7,5.55,36.46,36.46,0,0,0-2.89,3.12,19,19,0,0,0-2.1,3.25Z"/><path class="c" d="M283.92,119.19c8.94,2.72,11.77,8.35,11.77,8.35"/><path class="a" d="M285.08,115.36c.62.39,1.23.76,1.82,1.16s1.18.8,1.73,1.27a26.92,26.92,0,0,1,3.07,2.86,22.32,22.32,0,0,1,2.43,3.29,14.08,14.08,0,0,1,1.56,3.6,13,13,0,0,0-3-2.18,18.2,18.2,0,0,0-3.26-1.4,21.14,21.14,0,0,0-3.35-.73c-.55-.1-1.13-.11-1.68-.17s-1.12,0-1.66,0Z"/><path class="c" d="M273.86,122.3c-3.78,5-4.69,14.75-4.69,14.75"/><path class="a" d="M277.06,124.69a11.59,11.59,0,0,0-2.35,2.2,26.84,26.84,0,0,0-2.13,3,45.38,45.38,0,0,0-3.41,7.12,47.41,47.41,0,0,1-.43-8.22,32.89,32.89,0,0,1,.46-4.32,19.42,19.42,0,0,1,1.46-4.61Z"/><path class="c" d="M271.17,117.17c-7.81-4.39-17.58-2.7-17.58-2.7"/><path class="a" d="M269.22,120.66a17.81,17.81,0,0,0-3.09-2.38,23,23,0,0,0-3.79-1.85,31.34,31.34,0,0,0-8.75-2,33.28,33.28,0,0,1,9.29-2,27.39,27.39,0,0,1,5,.08,24.92,24.92,0,0,1,5.22,1.13Z"/><path class="d" d="M182.44,213.48c.05-1.25,1.38-30.73,14-42.22C202.3,165.89,208.72,163,215,163a20.05,20.05,0,0,1,14,5.73c3.71,3.51,5.62,8.75,5.38,14.74A30.28,30.28,0,0,1,223,205.42c-13.4,10.81-35.41,12.16-36.34,12.21l-4.4.25Z"/><path class="a" d="M215,167a16.08,16.08,0,0,1,11.24,4.63c7.19,6.81,4.88,22.07-5.74,30.64-12.54,10.13-34,11.33-34,11.33s1.17-28.93,12.67-39.42c5.29-4.83,10.8-7.18,15.88-7.18m0-8h0c-7.27,0-14.63,3.21-21.27,9.27-13.57,12.39-15.14,41.7-15.27,45l-.36,8.81,8.8-.49c1-.06,24.24-1.48,38.63-13.1a34.32,34.32,0,0,0,12.83-24.86c.29-7.17-2.06-13.49-6.61-17.8A24,24,0,0,0,215,159Z"/><path class="d" d="M215.75,177.44c-10,6.64-13.59,14.47-13.59,14.47"/><path class="a" d="M216,177.77a12.11,12.11,0,0,1-.59,3.38,9.73,9.73,0,0,1-1.09,2.36,4.07,4.07,0,0,1-1.75,1.48,12.87,12.87,0,0,0-2.17,1.07c-.65.45-1.31.89-2,1.37s-1.34.92-2,1.43a50.37,50.37,0,0,0-3.91,3.21l0,0a.41.41,0,0,1-.59,0,.4.4,0,0,1-.1-.33,20.68,20.68,0,0,1,1.42-5.26c.34-.85.72-1.67,1.13-2.49s.9-1.59,1.4-2.36.89-1.65,1.4-2.44a5.72,5.72,0,0,1,.87-1.08,5,5,0,0,1,1.15-.75,8.2,8.2,0,0,1,6.35-.25.65.65,0,0,1,.45.63Z"/><path class="d" d="M383.45,154.48a45.72,45.72,0,0,1-13-1.72,30.25,30.25,0,0,1-18.84-15.93c-2.5-5.46-2.73-11-.65-15.68,3.5-7.81,10.63-12.28,19.57-12.28a33.58,33.58,0,0,1,11.5,2.19c16,5.83,28.47,32.57,29,33.71l1.84,4-4.16,1.45a86.27,86.27,0,0,1-25.25,4.26Z"/><path class="a" d="M370.53,112.87a29.75,29.75,0,0,1,10.13,1.95c14.63,5.32,26.72,31.62,26.72,31.62a82.57,82.57,0,0,1-23.93,4,42.2,42.2,0,0,1-11.87-1.55c-13.07-3.88-21-17.11-17-26.15,2.85-6.35,8.54-9.91,15.92-9.91m0-8c-10.58,0-19,5.34-23.22,14.64-2.56,5.73-2.33,12.47.66,19a34.35,34.35,0,0,0,21.34,18.1,50.1,50.1,0,0,0,14.14,1.88A90.74,90.74,0,0,0,410,154l8.32-2.9-3.68-8c-1.38-3-14-29.52-31.25-35.8a37.88,37.88,0,0,0-12.87-2.43Z"/><path class="d" d="M366.5,124.13c11.79,2.33,18.07,8.21,18.07,8.21"/><path class="a" d="M366.57,123.74a8.25,8.25,0,0,1,6-2.19,5.12,5.12,0,0,1,1.36.26,5,5,0,0,1,1.21.67c.77.54,1.47,1.23,2.23,1.72s1.49,1.06,2.19,1.65,1.36,1.22,2,1.87a20.93,20.93,0,0,1,3.32,4.33.41.41,0,0,1-.51.59h0a50.58,50.58,0,0,0-4.84-1.49c-.78-.22-1.58-.41-2.38-.57s-1.56-.35-2.33-.52a13.87,13.87,0,0,0-2.42-.16,4,4,0,0,1-2.17-.7,9.67,9.67,0,0,1-1.91-1.76,11.81,11.81,0,0,1-1.83-2.91v0A.66.66,0,0,1,366.57,123.74Z"/><path class="d" d="M303.47,228.38c-5.26,0-23.41-.63-35.67-8.75a30.26,30.26,0,0,1-13.38-20.73c-.8-6,.6-11.34,4-15.19a19.93,19.93,0,0,1,15.37-7.11c5.64,0,11.62,2.25,17.29,6.52,13.61,10.24,17.73,39.46,17.9,40.7l.59,4.36-4.4.18S304.53,228.38,303.47,228.38Z"/><path class="a" d="M273.75,180.6c4.64,0,9.75,1.86,14.88,5.72,12.44,9.36,16.34,38,16.34,38s-.53,0-1.49,0c-5.11,0-22.15-.59-33.48-8.08s-15.11-22.5-8.61-30a16,16,0,0,1,12.36-5.74m0-8a24.13,24.13,0,0,0-18.38,8.48c-4.13,4.73-5.87,11.25-4.91,18.35A34.34,34.34,0,0,0,265.59,223c4.28,2.83,16.53,9.41,37.89,9.41,1.06,0,1.69,0,1.8,0l8.81-.34-1.19-8.73c-.45-3.27-4.78-32.31-19.46-43.36-6.37-4.79-13.18-7.32-19.69-7.32Z"/><path class="d" d="M272.37,191.1c10.6,5.66,14.89,13.12,14.89,13.12"/><path class="a" d="M272.56,190.74a8.21,8.21,0,0,1,6.34-.35,5.66,5.66,0,0,1,1.22.64,5.12,5.12,0,0,1,1,1c.58.74,1,1.6,1.63,2.29s1.11,1.45,1.61,2.22.95,1.56,1.37,2.37a21.38,21.38,0,0,1,1.91,5.11.42.42,0,0,1-.33.49.38.38,0,0,1-.33-.07l0,0c-1.38-1-2.78-2-4.19-2.83-.69-.44-1.4-.85-2.11-1.23s-1.4-.8-2.08-1.18a12.94,12.94,0,0,0-2.27-.86A4.07,4.07,0,0,1,274.4,197a9.6,9.6,0,0,1-1.32-2.24,11.85,11.85,0,0,1-.9-3.31v0A.65.65,0,0,1,272.56,190.74Z"/><path class="b" d="M180,144.27l-12.42,7.49-1.86-4.09a25.57,25.57,0,0,1-.13-18.34,29.78,29.78,0,0,1,8.51-11.91c-16.82-2.77-25-16.32-27.13-23.86l-1.07-3.85,16.65-4.61L150.41,72.33l5-2.37a34.85,34.85,0,0,1,13.87-2.8,33.52,33.52,0,0,1,19.39,6.13c-.73-27.76,15.34-35.06,16.11-35.38l3.85-1.66,6.88,18.29L229.1,40.91l2.67,4.26c.37.58,6.8,11.27-.12,28.59,9.89-5.6,17.62-6.71,22.16-6.71a19.18,19.18,0,0,1,5.39.63l4.59,1.39-5.47,10.64,13.54.46-1.54,5c-.07.21-5.72,17.79-24.37,24.48a26,26,0,0,1,7.32,7.8c6.86,11.26,3.32,24.7,3.17,25.26l-1.19,4.38L237,139.61l-1.46,14.9-4.6-1.29c-.6-.17-11.58-3.43-20.3-17.21-3.8,17.25-16.09,23.27-23.56,23.9l-3.44.29Z"/><path class="a" d="M206.34,41.58l7.6,20.18,14.44-14.47s10.23,16.32-11.07,42.3c17-16.11,30.14-18.54,36.5-18.54a16.09,16.09,0,0,1,4.23.45l-6.16,12,14.62.5s-7.18,23.25-34.32,24.18c27.86,6,20.4,33.5,20.4,33.5l-19-7.8-1.51,15.5s-16.92-4.77-24.46-30c2.75,34.53-20.82,36.52-20.82,36.52L182.62,138l-13.28,8s-9.13-20.09,19-32.85a45.06,45.06,0,0,1-8,.76c-23.62,0-29.57-21.43-29.57-21.43L170,87.18l-12.9-13.61a30.87,30.87,0,0,1,12.15-2.41c7.11,0,16.24,2.42,24.34,12.14-5.3-33.94,12.74-41.72,12.74-41.72m4.54-10.67-7.71,3.32c-.8.35-16.45,7.43-18.35,32.27a37.42,37.42,0,0,0-15.56-3.34,38.56,38.56,0,0,0-15.59,3.19l-9.95,4.73,7.58,8L155,83l-6.38,1.76-7.72,2.14,2.14,7.71c2,7.35,9.26,19.8,23.44,25a31.27,31.27,0,0,0-4.7,8.35,29.28,29.28,0,0,0,.23,21.39l3.72,8.19,7.7-4.65,3.85-2.32,1.68,7.19,1.56,6.75,6.9-.59a30,30,0,0,0,16-7.24,32.85,32.85,0,0,0,8.67-12c8.46,9.69,17.2,12.28,17.76,12.44l9.2,2.59.93-9.52.47-4.79,9,3.72,8.39,3.44,2.37-8.75c.43-1.59,4-15.89-3.61-28.39a30.5,30.5,0,0,0-3.42-4.58,44.84,44.84,0,0,0,20.87-24.44l3.09-10L266.77,76l-2-.06.39-.77,4.38-8.53-9.17-2.78a23.23,23.23,0,0,0-6.55-.8,43.36,43.36,0,0,0-15.76,3.22,42.4,42.4,0,0,0,.79-7.46c.13-9.22-3-14.75-3.68-15.77l-5.34-8.51-7.1,7.11-5.67,5.68-3.22-8.56-3-7.85Z"/><path class="a" d="M205.23,96.86a19.83,19.83,0,0,1,.48-6,43.75,43.75,0,0,1,1.46-5.18,82.07,82.07,0,0,1,4-9.54,80.88,80.88,0,0,0,0,10.09,38.25,38.25,0,0,0,.58,4.79A12.35,12.35,0,0,0,213,94.9Z"/><path class="a" d="M213.92,96.55a35.1,35.1,0,0,1,11-2.89,63.32,63.32,0,0,1,10.64-.26,61.7,61.7,0,0,0-9.47,4.08,42.56,42.56,0,0,0-4.2,2.61,23.16,23.16,0,0,0-3.42,3Z"/><path class="a" d="M217.52,102c.6.58,1.19,1.13,1.76,1.71s1.11,1.17,1.62,1.81a29.85,29.85,0,0,1,2.75,3.9,24.47,24.47,0,0,1,2,4.23,16.32,16.32,0,0,1,.93,4.4,15,15,0,0,0-2.63-3.35,22.26,22.26,0,0,0-3.21-2.58,25,25,0,0,0-3.52-1.9c-.59-.28-1.24-.48-1.83-.72s-1.26-.4-1.86-.59Z"/><path class="a" d="M205.87,109.33a14.39,14.39,0,0,0-3.22,2,32.31,32.31,0,0,0-3.12,3,53.46,53.46,0,0,0-5.49,7.27,54.67,54.67,0,0,1,2-9.23,37.41,37.41,0,0,1,1.8-4.63,22,22,0,0,1,2.91-4.6Z"/><path class="a" d="M199,102.68a21.73,21.73,0,0,0-3-3.46,27.44,27.44,0,0,0-3.91-3A36.6,36.6,0,0,0,182.54,92a37.37,37.37,0,0,1,5.4-.12,40,40,0,0,1,5.5.66A32.47,32.47,0,0,1,199,94.06a28.3,28.3,0,0,1,5.4,2.74Z"/><path class="b" d="M208.75,111.24c-5.7,0-10.22-3.72-10.52-8.66-.31-5.12,4.25-9.58,10.16-9.94l.77,0c5.69,0,10.21,3.72,10.51,8.66.31,5.12-4.24,9.58-10.16,9.94Z"/><path class="a" d="M209.16,96.62c3.48,0,6.35,2.12,6.52,4.9.18,2.93-2.69,5.48-6.41,5.71h-.52c-3.48,0-6.36-2.12-6.52-4.9-.18-2.93,2.69-5.48,6.4-5.71h.53m0-8c-.34,0-.67,0-1,0-8.11.49-14.35,6.85-13.91,14.17.43,7.08,6.67,12.42,14.51,12.42l1,0c8.11-.49,14.35-6.85,13.91-14.17C223.24,94,217,88.62,209.16,88.62Z"/><polygon class="e" points="538.57 799.47 470.55 612.47 487.3 192.47 411.22 -21.57 453.28 192.47 399.85 633.25 442.73 899.31 538.57 898.63 538.57 799.47"/><path class="a" d="M235,426.77a89.84,89.84,0,0,1,15,4.38c4.71,1.8,9.2,3.83,13.57,6s8.55,4.59,12.62,7.11,8,5.22,11.82,8l-10.81-4a183.56,183.56,0,0,1,21.36-.53,175,175,0,0,1,21.35,2,147.82,147.82,0,0,1,21.35,4.92,99.67,99.67,0,0,1,21.36,9.15l.43.26a.88.88,0,0,1,.31,1.21.9.9,0,0,1-.74.43c-7.12.17-14.24.42-21.36.53s-14.23.24-21.35.29l-21.35.1c-7.12.07-14.24,0-21.36,0h0a1.76,1.76,0,0,1-1.18-.45l-10.66-9.36-10.58-9.46c-3.52-3.16-7.06-6.29-10.53-9.5l-10.47-9.58a.89.89,0,0,1,.76-1.53Z"/><path class="a" d="M130.21,318.73a44.45,44.45,0,0,1,7.45.88,68.08,68.08,0,0,1,6.79,1.73,72.51,72.51,0,0,1,12.29,5.18,84.9,84.9,0,0,1,11,6.89,83.46,83.46,0,0,1,9.81,8.43l-6.61-2.24,1.8.24,1.79.32c1.2.21,2.4.42,3.6.72s2.4.54,3.6.9l1.8.51,1.79.59a65.28,65.28,0,0,1,7.2,2.86,45.71,45.71,0,0,1,7.19,4.14l.33.23a.59.59,0,0,1-.33,1.07c-4.79.13-9.59.34-14.39.4l-7.19.12c-2.4.05-4.79,0-7.19.06a1.26,1.26,0,0,1-.74-.24h0l-10.31-7.77-10.23-7.89c-3.43-2.61-6.77-5.32-10.16-8s-6.7-5.42-10-8.12a.58.58,0,0,1-.09-.83.59.59,0,0,1,.47-.22Z"/><path class="b" d="M384.13,346.89a22.57,22.57,0,0,1-8.24-14,25.73,25.73,0,0,1,.87-11.73,29.07,29.07,0,0,1-9.4,1.58,31.61,31.61,0,0,1-20.64-8.18l-2.86-2.8L354,301.42l-14.39-4.24,3.11-4.54c.35-.5,8.58-12.24,24.12-12.24.51,0,1,0,1.56,0-11.91-20.16-3.12-32.46-2.69-33l2.5-3.37,12.82,10.49,4.22-15.88,4.44,2.35c.52.27,9.59,5.27,12.3,20.3,8.13-13,17-15.29,17.49-15.41l4.67-1.09.5,10.08,10.17-5.43,1.17,5.1c1.41,6.15,1.06,18.21-7.1,28.47,13.16,1.73,19.84,13.8,21.59,20.41l1.17,4.38L435,310.07l5.32,11.67-4.63,1.18a21.89,21.89,0,0,1-5.22.53,38.28,38.28,0,0,1-16.59-4.07c4,14.13-2.55,23.7-7.82,27.39l-2.84,2-9.45-10.08-6,10.83Z"/><path class="a" d="M387.85,244.52s14.68,7.75,10,36.33c8.2-27.71,22.55-31.07,22.55-31.07l.59,11.6,11.11-5.95s4.69,20.44-15.14,32.85a28.42,28.42,0,0,1,8.69-1.48c16.29,0,21,17.65,21,17.65l-17.54,2.39,5.57,12.21a18.74,18.74,0,0,1-4.23.4c-5.53,0-15.82-1.71-26.95-12.18,17,24.55.25,36.22.25,36.22L392.9,331.92l-6.44,11.72s-15.49-11.05,0-32.72c-7,5.91-13.51,7.85-19.1,7.85a27.63,27.63,0,0,1-17.84-7l12-12.27-15.5-4.57s7.21-10.5,20.82-10.5a30.52,30.52,0,0,1,10.6,2c-18.61-23-8.52-36.62-8.52-36.62l14.38,11.77,4.52-17m-5.15-11.76-2.58,9.71-1.33,5-4.77-3.9-6.49-5.31-5,6.73c-.67.91-4,5.84-4.29,14.2A39.67,39.67,0,0,0,362,276.75a35.11,35.11,0,0,0-22.54,13.62l-6.23,9.08,10.56,3.12,2.72.81-2.7,2.75-5.61,5.72,5.72,5.6a35.34,35.34,0,0,0,23.44,9.32,32.76,32.76,0,0,0,4.32-.28,28,28,0,0,0,.27,7.09,26.43,26.43,0,0,0,9.86,16.57l7.32,5.22,4.33-7.88,1.14-2.06,3.31,3.53,4.74,5.05,5.67-4a27.09,27.09,0,0,0,9.23-12.86,29.06,29.06,0,0,0,1.49-11.5,39.67,39.67,0,0,0,11.41,1.76,26.16,26.16,0,0,0,6.21-.65l9.27-2.37-4-8.7-1.11-2.42,6.88-.94,9-1.22-2.33-8.76c-1.72-6.49-7.64-17.58-18.92-21.85a39.75,39.75,0,0,0,4.46-26.9l-2.34-10.2-9.22,4.93-.43-8.57L418.59,242c-1.15.27-7.82,2.14-15,10.34a38.1,38.1,0,0,0-2-4.27c-4-7.2-9-10.1-10-10.61l-8.89-4.69Z"/><path class="b" d="M395.72,303.41a9,9,0,0,1-8.15-4.53,8.83,8.83,0,0,1-.23-7.73,11.76,11.76,0,0,1,5.21-5.58,12,12,0,0,1,5.73-1.5,9,9,0,0,1,8.15,4.53c2.46,4.51.22,10.48-5,13.31A12,12,0,0,1,395.72,303.41Z"/><path class="a" d="M398.28,288.07a5.1,5.1,0,0,1,4.64,2.45c1.4,2.57-.11,6.1-3.38,7.88a8.05,8.05,0,0,1-3.81,1,5.11,5.11,0,0,1-4.65-2.45c-1.4-2.57.11-6.1,3.38-7.88a8.06,8.06,0,0,1,3.82-1m0-8h0a16,16,0,0,0-7.64,2c-7.14,3.88-10.09,12.29-6.58,18.73a13,13,0,0,0,11.67,6.62,16.1,16.1,0,0,0,7.63-2c7.14-3.89,10.09-12.3,6.58-18.74a13,13,0,0,0-11.66-6.62Z"/><path class="b" d="M394.46,289.08c-4-4.12-7-15.62-7-15.62"/><path class="a" d="M391.6,291.87a17,17,0,0,1-2.22-4.9,35.78,35.78,0,0,1-1-4.58,70.39,70.39,0,0,1-.91-8.93,68.92,68.92,0,0,0,4.61,7.41,31.82,31.82,0,0,0,2.61,3.24,9.54,9.54,0,0,0,2.68,2.18Z"/><path class="b" d="M401.47,289c3.2-6.89,11.68-13.17,11.68-13.17"/><path class="a" d="M397.84,287.27a30.1,30.1,0,0,1,7.28-6.88,54.77,54.77,0,0,1,8-4.6,52,52,0,0,0-5.1,7.32,35.36,35.36,0,0,0-1.87,3.82,18.54,18.54,0,0,0-1.09,3.71Z"/><path class="b" d="M403.37,293.46c9.34,0,13.67,4.62,13.67,4.62"/><path class="a" d="M403.39,289.46c.7.19,1.39.37,2.07.58s1.35.44,2,.72a27,27,0,0,1,3.77,1.87,21.62,21.62,0,0,1,3.27,2.45,14.05,14.05,0,0,1,2.53,3,13.43,13.43,0,0,0-3.48-1.24,18.51,18.51,0,0,0-3.52-.39,21.56,21.56,0,0,0-3.43.25c-.55.07-1.11.22-1.65.32s-1.08.3-1.61.44Z"/><path class="b" d="M394.62,299.32c-2.17,5.92-.27,15.47-.27,15.47"/><path class="a" d="M398.38,300.7a11.51,11.51,0,0,0-1.63,2.77,25.16,25.16,0,0,0-1.16,3.53,45.71,45.71,0,0,0-1.24,7.79,47.28,47.28,0,0,1-2.76-7.74,31.5,31.5,0,0,1-.8-4.28,19.21,19.21,0,0,1,.08-4.83Z"/><path class="b" d="M390.58,295.17c-8.75-2-17.62,2.46-17.62,2.46"/><path class="a" d="M389.7,299.08a17.53,17.53,0,0,0-3.64-1.4,23.16,23.16,0,0,0-4.16-.68,31.31,31.31,0,0,0-8.94.63,33.65,33.65,0,0,1,8.32-4.58,27.85,27.85,0,0,1,4.84-1.37,25.1,25.1,0,0,1,5.33-.41Z"/><path class="c" d="M323.48,387.54l-9.11,8.35-2.63-3.64a22.55,22.55,0,0,1-3.34-15.88A26,26,0,0,1,313,365.53h-.1c-18,0-25.92-15.21-26.25-15.85l-1.82-3.57,13-6.57-12.28-8.63,4.41-3.31a31.13,31.13,0,0,1,17.38-5.43,29.15,29.15,0,0,1,10.84,2.09c-4.82-22.91,7.44-31.75,8-32.16l3.44-2.39,8.79,14,9.08-13.69,3.46,3.64c.4.42,7.38,8.05,5.16,23.12,9.87-8.14,17.8-9,20.63-9a7.34,7.34,0,0,1,.87,0l4.67.53L381,312.94,379.6,318l11.37-1.9-.52,5.21c-.63,6.28-4.82,17.59-15.83,24.69a23,23,0,0,1,6.79,5c7.87,8.52,7.17,20.7,7.13,21.21l-.29,4.52-16.55-3.18,1.3,12.75-4.76-.36c-.53,0-10-.88-19.53-10.32-.76,14.65-10,21.63-16.18,23.43l-3.32,1Z"/><path class="a" d="M328.43,295.39l9.85,15.75L348,296.45s11.42,12-2.14,37.62c14.87-21.12,28.18-22.24,30.83-22.24a4.34,4.34,0,0,1,.48,0L374,323,386.47,321s-2.1,20.86-24.86,26.28c24.55.32,22.94,24.81,22.94,24.81l-17.38-3.35L368.54,382s-15.1-1.14-25.77-21.14c8.21,28.7-11.36,34.4-11.36,34.4l-6.57-14.43-9.86,9s-11.14-15.42,10.47-31a34,34,0,0,1-12.57,2.61c-15.74,0-22.69-13.67-22.69-13.67l15.32-7.76-13.21-9.3a27.16,27.16,0,0,1,15-4.63c5.16,0,11.23,1.59,17.51,6.63-10.27-27.77,3.64-37.41,3.64-37.41m18.47-11.73L341.35,292l-2.87,4.34-3.27-5.23L330.76,284l-6.89,4.78c-.93.64-5.69,4.24-8.61,12.08a39.73,39.73,0,0,0-2.05,17.81,33.45,33.45,0,0,0-5.93-.53,35,35,0,0,0-19.78,6.23L278.69,331l9,6.34L290,339l-3.44,1.75-7.15,3.62,3.63,7.14c.33.65,7.5,14.39,23.4,17.44a28.58,28.58,0,0,0-2,6.81,26.37,26.37,0,0,0,4.05,18.85l5.26,7.29,6.63-6.08,1.73-1.59,2,4.41,2.87,6.3,6.65-1.94a27,27,0,0,0,12.85-9.23,29.06,29.06,0,0,0,5.09-10.41,43.09,43.09,0,0,0,4.24,2.66,31.92,31.92,0,0,0,12.11,4l9.53.72-1-9.51-.28-2.65,6.82,1.31,8.9,1.72.59-9.05c.1-1.46.69-14.59-8.18-24.18a27.63,27.63,0,0,0-2.74-2.57,39.26,39.26,0,0,0,7.91-9.78,38.77,38.77,0,0,0,4.91-14.28l1-10.41-10.3,1.72,2.33-8.26-9.54-.92c-.25,0-.67-.05-1.25-.05-2.5,0-8.53.57-16.24,5.07a36.56,36.56,0,0,0-.57-4.7c-1.52-8.12-5.33-12.47-6.08-13.25l-6.92-7.29Z"/><path class="c" d="M340.38,355.36c-5.13,0-9.25-3.08-10-7.5a8.83,8.83,0,0,1,2.26-7.4,11.7,11.7,0,0,1,6.72-3.62,13,13,0,0,1,2.15-.19c5.13,0,9.26,3.09,10,7.51a8.8,8.8,0,0,1-2.26,7.39,11.73,11.73,0,0,1-6.72,3.62A12,12,0,0,1,340.38,355.36Z"/><path class="a" d="M341.49,340.65c3.06,0,5.65,1.7,6.09,4.2.5,2.88-2.06,5.74-5.73,6.38a8.27,8.27,0,0,1-1.47.13c-3.06,0-5.65-1.7-6.08-4.19-.51-2.89,2.06-5.75,5.72-6.39a8.27,8.27,0,0,1,1.47-.13m0-8h0a16.94,16.94,0,0,0-2.84.25c-8,1.4-13.5,8.42-12.23,15.65,1.09,6.26,7,10.81,14,10.81a17,17,0,0,0,2.85-.24c8-1.4,13.49-8.42,12.23-15.65-1.1-6.27-7-10.82-14-10.82Z"/><path class="c" d="M340,340.78c-2.48-5.19-1.66-17-1.66-17"/><path class="a" d="M336.42,342.51a17,17,0,0,1-.54-5.35,38.59,38.59,0,0,1,.48-4.68,70.91,70.91,0,0,1,2-8.75,68.76,68.76,0,0,0,2,8.5,33.15,33.15,0,0,0,1.44,3.9,9.73,9.73,0,0,0,1.84,2.93Z"/><path class="c" d="M346.7,342.9c5.23-5.49,15.28-8.73,15.28-8.73"/><path class="a" d="M343.8,340.15a30,30,0,0,1,9.1-4.19,54.18,54.18,0,0,1,9.08-1.79,51.93,51.93,0,0,0-7.17,5.3,35.57,35.57,0,0,0-3,3,18.41,18.41,0,0,0-2.21,3.17Z"/><path class="c" d="M347.06,347.78c8.84,3,11.47,8.75,11.47,8.75"/><path class="a" d="M348.36,344c.6.41,1.2.8,1.78,1.22s1.14.85,1.67,1.33a26,26,0,0,1,3,3,21.22,21.22,0,0,1,2.31,3.37,13.94,13.94,0,0,1,1.44,3.65,13.07,13.07,0,0,0-2.9-2.28,18.72,18.72,0,0,0-3.21-1.51,20.75,20.75,0,0,0-3.32-.85c-.55-.11-1.13-.15-1.67-.23l-1.67-.1Z"/><path class="c" d="M336.9,350.53c-3.95,4.91-5.21,14.58-5.21,14.58"/><path class="a" d="M340,353a11.49,11.49,0,0,0-2.43,2.11,26.8,26.8,0,0,0-2.24,3,44.89,44.89,0,0,0-3.66,7,47.92,47.92,0,0,1-.14-8.23,31.83,31.83,0,0,1,.62-4.3,18.69,18.69,0,0,1,1.62-4.56Z"/><path class="c" d="M334.39,345.31c-7.66-4.66-17.47-3.31-17.47-3.31"/><path class="a" d="M332.31,348.73a17.72,17.72,0,0,0-3-2.49,23,23,0,0,0-3.72-2,31.18,31.18,0,0,0-8.67-2.27,33.64,33.64,0,0,1,9.34-1.68,28.62,28.62,0,0,1,5,.26,25.08,25.08,0,0,1,5.18,1.31Z"/><path class="d" d="M265.54,524.63c-.93-.09-22.87-2.33-35.81-13.68a30.32,30.32,0,0,1-10.46-22.35c0-6,2.13-11.16,6-14.51a20.11,20.11,0,0,1,13.39-5.17c6.52,0,13.11,3.1,19.05,9,12.11,12,12.25,41.5,12.25,42.75v4.4Z"/><path class="a" d="M238.63,472.92c5.27,0,10.92,2.57,16.24,7.82,11.06,11,11.06,39.91,11.06,39.91s-21.44-2.08-33.57-12.71c-10.26-9-11.94-24.33-4.49-30.84a16.15,16.15,0,0,1,10.76-4.18m0-8a24.13,24.13,0,0,0-16,6.15c-4.73,4.13-7.33,10.35-7.34,17.52A34.36,34.36,0,0,0,227.09,514c13.9,12.19,37.09,14.55,38.07,14.65l8.77.85v-8.81c0-3.31-.38-32.66-13.44-45.59-6.7-6.64-14.26-10.14-21.86-10.14Z"/><path class="d" d="M238.11,483.29c9.74,7,13,15,13,15"/><path class="a" d="M238.34,483a8.26,8.26,0,0,1,6.34.51,5.68,5.68,0,0,1,1.12.8,5.81,5.81,0,0,1,.83,1.12c.47.81.81,1.73,1.3,2.49s.91,1.58,1.3,2.41.72,1.68,1,2.53a22,22,0,0,1,1.21,5.32.42.42,0,0,1-.39.45.43.43,0,0,1-.33-.11l0,0a45.49,45.49,0,0,0-3.77-3.37c-.62-.53-1.26-1-1.92-1.52s-1.27-1-1.9-1.44A13.68,13.68,0,0,0,241,491a4,4,0,0,1-1.68-1.55,10.19,10.19,0,0,1-1-2.4,12.12,12.12,0,0,1-.45-3.4v0A.67.67,0,0,1,238.34,483Z"/><path class="d" d="M390.42,458.36c-.85-.36-21.14-9-30.14-23.69a30.29,30.29,0,0,1-3.35-24.44c1.79-5.73,5.34-10,10-12.09a20.84,20.84,0,0,1,8.49-1.85c8.45,0,16.24,5.51,21.35,15.12,8,15-.61,43.26-1,44.45l-1.3,4.21Z"/><path class="a" d="M375.43,400.29c6.76,0,13.25,4.41,17.82,13C400.57,427,392,454.68,392,454.68s-19.85-8.35-28.28-22.1c-7.12-11.63-4.18-26.77,4.87-30.78a16.9,16.9,0,0,1,6.87-1.51m0-8a25,25,0,0,0-10.11,2.19c-5.74,2.54-10.07,7.71-12.2,14.56a34.31,34.31,0,0,0,3.75,27.72c9.66,15.77,31.1,24.91,32,25.29l8.12,3.41,2.61-8.41c1-3.15,9.34-31.3.7-47.52-5.83-11-14.9-17.24-24.88-17.24Z"/><path class="d" d="M376.49,410.75c7.22,9.61,7.95,18.18,7.95,18.18"/><path class="a" d="M376.81,410.51a8.19,8.19,0,0,1,5.9,2.36,5.18,5.18,0,0,1,.84,1.1,5.81,5.81,0,0,1,.46,1.31c.21.91.26,1.89.5,2.77s.4,1.78.52,2.68.2,1.82.24,2.73a21.2,21.2,0,0,1-.43,5.44.42.42,0,0,1-.5.31.46.46,0,0,1-.28-.21l0,0a47.42,47.42,0,0,0-2.6-4.34c-.43-.69-.9-1.36-1.38-2s-.93-1.3-1.39-1.94a13.88,13.88,0,0,0-1.69-1.74,4.08,4.08,0,0,1-1.15-2,10.47,10.47,0,0,1-.24-2.59,12.19,12.19,0,0,1,.58-3.38v0A.65.65,0,0,1,376.81,410.51Z"/><path class="d" d="M467.47,391.1c-.92-.1-22.84-2.55-35.68-14a30.3,30.3,0,0,1-10.24-22.45c.06-6,2.23-11.13,6.11-14.45a20.14,20.14,0,0,1,13.24-5.05c6.59,0,13.21,3.17,19.16,9.17,12,12.1,11.85,41.61,11.84,42.86l0,4.4Z"/><path class="a" d="M440.9,339.13c5.31,0,11,2.63,16.32,8,11,11.05,10.68,40,10.68,40s-21.42-2.28-33.44-13c-10.18-9.09-11.72-24.44-4.2-30.89a16.17,16.17,0,0,1,10.64-4.08m0-8a24.15,24.15,0,0,0-15.85,6c-4.76,4.08-7.42,10.28-7.5,17.45a34.33,34.33,0,0,0,11.58,25.47c13.78,12.32,36.94,14.91,37.92,15l8.76.93.09-8.81c0-3.31-.07-32.66-13-45.72-6.71-6.77-14.32-10.35-22-10.35Z"/><path class="d" d="M440.43,349.5c9.68,7.13,12.85,15.13,12.85,15.13"/><path class="a" d="M440.67,349.18a8.16,8.16,0,0,1,6.33.57,5,5,0,0,1,1.12.81,5.34,5.34,0,0,1,.81,1.12c.47.82.8,1.74,1.28,2.51s.89,1.59,1.28,2.42.7,1.68,1,2.54a21.49,21.49,0,0,1,1.15,5.33.42.42,0,0,1-.39.45.4.4,0,0,1-.32-.12l0,0c-1.22-1.22-2.46-2.36-3.74-3.41-.62-.53-1.26-1-1.91-1.53s-1.26-1-1.89-1.46a13.23,13.23,0,0,0-2.12-1.18,4,4,0,0,1-1.66-1.56,10,10,0,0,1-1-2.41,12,12,0,0,1-.41-3.41v0A.63.63,0,0,1,440.67,349.18Z"/><path class="b" d="M273,400.51c-.64-.36-12.64-7.28-18.56-26.16-8.89,20.11-24.89,22-30.43,22a18.64,18.64,0,0,1-2.75-.17l-3.43-.52.12-19.39-16.26,5.18-.86-4.41a29,29,0,0,1,4.7-20.32A34.68,34.68,0,0,1,219.51,345a39,39,0,0,1-25.26-34.32l-.15-4,20.56-.73L204.3,288.06l5.38-1.15a34.06,34.06,0,0,1,6.49-.56,39,39,0,0,1,30.56,14.11c6.3-32.41,26.61-36.35,27.56-36.52l4.13-.72,2.89,22.93,19.28-11.87L302.2,279c.26.76,4.82,15.11-8.9,33.32a63.12,63.12,0,0,1,19-3.16c9.59,0,14.68,2.81,15.23,3.13l4.14,2.42-9.24,10.77,15.4,4.23-2.66,4.51c-.48.82-11.57,19.12-35.05,21A29.84,29.84,0,0,1,307,366.77c4.63,14.35-2.87,28.39-3.2,29l-2.17,4-18.74-13.49-5.7,16.59Z"/><path class="a" d="M275,267.88l3.14,24.93,20.29-12.49s7.19,21.26-24,44.95c16.67-9.63,29.3-12.07,37.83-12.07,8.78,0,13.21,2.59,13.21,2.59l-10.22,11.92,16.44,4.51s-11.33,19.17-35.47,19.17a49.94,49.94,0,0,1-10-1c29.95,14.34,14.06,43.48,14.06,43.48l-19.43-14L275,397s-17.89-10-19.62-40.57c-5.16,33.05-24.76,35.87-31.32,35.87a16.12,16.12,0,0,1-2.16-.12l.13-21.44-17.23,5.49s-4.91-25.24,30.46-32.08c-35.84-2-37-33.59-37-33.59l23.22-.83-10.94-18.92a29.79,29.79,0,0,1,5.65-.47c8.31,0,23.84,2.74,33.08,21.38,3.18-39.91,25.73-43.85,25.73-43.85m6.88-9.32L273.6,260c-1,.17-20.75,4-29.07,32.57a41.54,41.54,0,0,0-8.61-5.68,44.73,44.73,0,0,0-19.74-4.54,36.82,36.82,0,0,0-7.33.65l-10.77,2.3,5.51,9.53,4.28,7.39-9.91.35-8,.29.29,8a45.52,45.52,0,0,0,6.15,19.8A41.25,41.25,0,0,0,211,345.43a36.15,36.15,0,0,0-8.79,9,32.71,32.71,0,0,0-5.32,23.32l1.72,8.83,8.56-2.73,6.74-2.15-.07,10.43,0,6.92,6.85,1a23.39,23.39,0,0,0,3.35.21,35,35,0,0,0,21-7.17,39.64,39.64,0,0,0,8.81-9.41c6.85,14.32,16.6,19.93,17.2,20.27l8.35,4.66,3.11-9.05,2.4-7,10.7,7.7,7.36,5.29,4.34-8c.35-.65,8.64-16.15,3.48-32.12a33.15,33.15,0,0,0-3.41-7.37,51.15,51.15,0,0,0,31.16-21.88l5.33-9-10.1-2.77-4.26-1.17,2-2.35,6.24-7.27-8.28-4.84c-1.05-.62-6.83-3.68-17.25-3.68a60,60,0,0,0-10.35.93c8.1-15.8,4.33-27.64,4.08-28.37l-3.21-9.52-8.56,5.27-9.72,6-1.59-12.61-1.05-8.32Z"/><path class="a" d="M260.5,329.79a11.5,11.5,0,0,1,2.92.39c4.87,1.3,8,5.45,7,9.28-.81,3.05-4,5-7.73,5a11.43,11.43,0,0,1-2.92-.38c-4.87-1.3-8-5.46-7-9.28.81-3.06,4-5,7.73-5m0-8h0c-7.51,0-13.72,4.39-15.46,10.91-2.16,8.09,3.51,16.65,12.63,19.08a19.56,19.56,0,0,0,5,.65c7.51,0,13.72-4.38,15.46-10.91,2.16-8.08-3.51-16.64-12.63-19.07a19.19,19.19,0,0,0-5-.66Z"/><path class="a" d="M259.42,330.23a23.23,23.23,0,0,1,2-6.58,50.66,50.66,0,0,1,2.88-5.48,98.52,98.52,0,0,1,6.76-9.86,96.5,96.5,0,0,0-3,11.31,44.42,44.42,0,0,0-.81,5.58,15.93,15.93,0,0,0,.2,4.93Z"/><path class="a" d="M268.94,332.86a41.3,41.3,0,0,1,13.07-.59,74.2,74.2,0,0,1,12.11,2.27,71.22,71.22,0,0,0-11.86,1.73,50.21,50.21,0,0,0-5.54,1.66,29,29,0,0,0-4.84,2.37Z"/><path class="a" d="M270.85,339.87c.53.78,1.06,1.54,1.56,2.32s1,1.57,1.38,2.41a34.58,34.58,0,0,1,2.17,5,28.35,28.35,0,0,1,1.2,5.22,18.35,18.35,0,0,1,0,5.18,17.56,17.56,0,0,0-1.92-4.56,25.57,25.57,0,0,0-2.8-3.9,28.75,28.75,0,0,0-3.38-3.25c-.58-.5-1.24-.94-1.84-1.4s-1.29-.84-1.92-1.26Z"/><path class="a" d="M255.82,344a18.67,18.67,0,0,0-4.23,1.66,36.6,36.6,0,0,0-4.26,2.71,61.91,61.91,0,0,0-8,7,65,65,0,0,1,5-9.69,41.17,41.17,0,0,1,3.36-4.6,26.39,26.39,0,0,1,4.53-4.23Z"/><path class="a" d="M250.62,334.77a26.87,26.87,0,0,0-2.71-4.73,32.87,32.87,0,0,0-3.78-4.37,43,43,0,0,0-4.58-3.86,41.51,41.51,0,0,0-5.18-3.26,43.05,43.05,0,0,1,6.08,1.47,47.47,47.47,0,0,1,6,2.36,37.4,37.4,0,0,1,5.68,3.35,33.61,33.61,0,0,1,5.18,4.58Z"/><path class="c" d="M117.58,331.49c-.47-.23-8.9-4.51-14.27-16.78-6.81,14.8-19.52,15.73-22.58,15.73a11,11,0,0,1-1.17-.05l-3.4-.38L76,326.6l-.48-10.34-11.56,4.36-1.09-4.36a22.59,22.59,0,0,1,2.8-16,25.91,25.91,0,0,1,8.3-8.38,29.94,29.94,0,0,1-18.59-24.5l-.35-4,14.46-1.28-8.18-12.58,5.31-1.43a28.19,28.19,0,0,1,6.69-.74A30,30,0,0,1,94,255.52c4-23.06,18.7-26.71,19.41-26.87l4.08-.94,2.94,16.3L134,234.67l1.86,4.67c.22.55,3.87,10.23-3.82,23.42a43.74,43.74,0,0,1,13.27-2.24c6.19,0,9.65,1.69,10,1.88l4.26,2.2-6.16,8,11.26,2.47-2.42,4.64a35.62,35.62,0,0,1-23.84,17.08A22.83,22.83,0,0,1,142.8,304c4.14,10.83-1,21.87-1.26,22.34l-2,4.08-14.18-9.1-3.53,12.32Z"/><path class="a" d="M114.32,232.55l3.3,18.28,14.49-10s6.13,15.42-16,34.13c13-8.48,22.85-10.43,29.13-10.43,5.4,0,8.19,1.44,8.19,1.44l-7.08,9.2,12.31,2.7a31.57,31.57,0,0,1-27.26,15.57,38.12,38.12,0,0,1-5.59-.42c22.68,9.42,12.08,31.56,12.08,31.56L123,315l-3.69,12.9s-13.59-6.67-16.06-29.2c-2.69,26.19-18.79,27.74-22.55,27.74-.5,0-.78,0-.78,0l-.74-15.84L66.7,315.29s-4.61-18.45,21.24-24.87c-26.54-.08-28.62-23.37-28.62-23.37l17.11-1.52L67.61,252a23.83,23.83,0,0,1,5.65-.61c6.38,0,16.79,2.15,23.77,14.54.79-29.6,17.29-33.38,17.29-33.38m6.39-9.67-8.18,1.87c-1.09.25-6.85,1.82-12.48,8a39.7,39.7,0,0,0-8.52,15.76,34.45,34.45,0,0,0-18.27-5.13,31.23,31.23,0,0,0-7.72.88L54.9,247.13l6,9.23,1.55,2.38-3.85.34-8,.71.71,8A36,36,0,0,0,57,283.1a32.75,32.75,0,0,0,9.6,9.56,28.2,28.2,0,0,0-4.39,5.57,26.36,26.36,0,0,0-3.26,19L61.12,326l8.41-3.18,2.2-.83.23,4.83.32,6.92,6.89.67a14.32,14.32,0,0,0,1.56.07,28,28,0,0,0,16.51-5.67,30.25,30.25,0,0,0,5.9-5.95,40,40,0,0,0,2.93,4,31.63,31.63,0,0,0,9.75,8.23l8.58,4.22,2.63-9.2.74-2.55,5.83,3.75,7.63,4.9,3.91-8.18c.64-1.32,6.06-13.29,1.39-25.49a25.2,25.2,0,0,0-1.58-3.39,40.23,40.23,0,0,0,20.84-17.58l4.84-9.28L160.42,270l5.24-6.8-8.52-4.39c-1.06-.55-5-2.33-11.86-2.33A42,42,0,0,0,139,257a36.33,36.33,0,0,0,1.22-4.57c1.61-8.1-.31-13.55-.71-14.57l-3.72-9.33-8.26,5.71-4.28,2.95-1.1-6.06-1.48-8.25Z"/><path class="c" d="M107.77,293.57a12.4,12.4,0,0,1-2.57-.27c-5.8-1.23-9.65-6.31-8.59-11.33.89-4.21,4.94-7.15,9.85-7.15a12.49,12.49,0,0,1,2.58.27c5.79,1.22,9.64,6.3,8.58,11.32C116.73,290.62,112.68,293.57,107.77,293.57Z"/><path class="a" d="M106.46,278.82a8.81,8.81,0,0,1,1.75.18c3.64.77,6.11,3.72,5.5,6.58-.51,2.4-3,4-5.94,4a8.15,8.15,0,0,1-1.75-.19c-3.64-.77-6.1-3.71-5.5-6.58.51-2.4,3-4,5.94-4m0-8h0c-6.82,0-12.48,4.25-13.77,10.33-1.51,7.18,3.73,14.38,11.68,16.06a16.3,16.3,0,0,0,3.4.36c6.82,0,12.48-4.25,13.77-10.34,1.51-7.18-3.73-14.38-11.68-16.06a16.91,16.91,0,0,0-3.4-.35Z"/><path class="c" d="M108.21,279c-.37-5.74,4.79-16.45,4.79-16.45"/><path class="a" d="M104.22,279.26a16.82,16.82,0,0,1,1.49-5.16,38.12,38.12,0,0,1,2.19-4.17,70.89,70.89,0,0,1,5.1-7.38,68.72,68.72,0,0,0-1.3,8.63,32.58,32.58,0,0,0-.12,4.16,9.51,9.51,0,0,0,.62,3.4Z"/><path class="c" d="M113.62,283.45c6.9-3.16,17.43-2.43,17.43-2.43"/><path class="a" d="M112,279.82a29.92,29.92,0,0,1,10-.51,53.88,53.88,0,0,1,9.09,1.71,53.56,53.56,0,0,0-8.63,2.26,34.45,34.45,0,0,0-3.9,1.69,19.31,19.31,0,0,0-3.24,2.12Z"/><path class="c" d="M112.14,288.11c7.08,6.1,7.39,12.39,7.39,12.39"/><path class="a" d="M114.75,285.08c.41.6.82,1.19,1.2,1.79s.75,1.21,1.06,1.86a26.57,26.57,0,0,1,1.66,3.86,21.81,21.81,0,0,1,.89,4,13.89,13.89,0,0,1,0,3.92,12.82,12.82,0,0,0-1.84-3.2,18.62,18.62,0,0,0-2.41-2.59,20.78,20.78,0,0,0-2.78-2c-.46-.3-1-.55-1.46-.82s-1-.48-1.51-.72Z"/><path class="c" d="M101.69,286.89c-5.5,3.09-10.26,11.6-10.26,11.6"/><path class="a" d="M103.65,290.38a11.72,11.72,0,0,0-3,1.05,25.46,25.46,0,0,0-3.18,1.93,45.55,45.55,0,0,0-6,5.13,46.84,46.84,0,0,1,2.93-7.69A31.46,31.46,0,0,1,96.53,287a19.3,19.3,0,0,1,3.2-3.63Z"/><path class="c" d="M101.3,281.11c-5.38-7.17-15-9.57-15-9.57"/><path class="a" d="M98.1,283.51a18.22,18.22,0,0,0-1.86-3.42,22.73,22.73,0,0,0-2.73-3.22,31,31,0,0,0-7.2-5.33,33.52,33.52,0,0,1,9.3,1.92,27.92,27.92,0,0,1,4.57,2.1,25.84,25.84,0,0,1,4.32,3.15Z"/><path class="c" d="M195.58,468c-.43-.3-8.1-5.86-11.47-18.84-7.25,10.82-16.79,12.28-21.39,12.28a18.85,18.85,0,0,1-4.52-.49l-3.35-.87,1.53-13.73-12.1,2.5-.39-4.47A22.51,22.51,0,0,1,149.16,429a25.71,25.71,0,0,1,9.51-7,29.92,29.92,0,0,1-14.52-27.12l.28-4,14.48,1-6.11-13.7,5.48-.58a16.6,16.6,0,0,1,1.88-.08c4.05,0,15.86,1,24.07,11.67,7.6-22.14,22.65-23.44,23.37-23.49l4.19-.28.34,16.55,14.82-7.1,1.1,4.9c.13.58,2.22,10.7-7.43,22.52a48.73,48.73,0,0,1,7.39-.58c10.07,0,15.12,3.49,15.66,3.89l3.87,2.84-7.34,6.94,10.73,4.2-3.12,4.2A35.64,35.64,0,0,1,221.59,437a22.73,22.73,0,0,1,3.21,7.77c2.4,11.35-4.45,21.44-4.75,21.87l-2.57,3.73L204.9,459.13l-5.41,11.62Z"/><path class="a" d="M207.88,369.76l.38,18.57,15.89-7.61s3.64,16.19-21.12,31.2c10.62-4.73,18.89-6.14,25-6.14,9.05,0,13.29,3.12,13.29,3.12l-8.44,8,11.74,4.6A31.72,31.72,0,0,1,220.45,433a35.53,35.53,0,0,1-10.67-1.72c20.92,12.86,7,33.06,7,33.06l-13.21-11.78-5.67,12.16S185.5,456,186.6,433.37c-5.65,21.26-17.86,24.06-23.88,24.06a15.07,15.07,0,0,1-3.51-.36L161,441.31,147.87,444s-1.66-18.95,24.88-21.24c-26.2-4.24-24.61-27.57-24.61-27.57l17.14,1.19-6.58-14.76s.53-.05,1.46-.05c4.64,0,19.09,1.41,25.41,18.43,5.42-29.11,22.31-30.26,22.31-30.26m7.82-8.55-8.37.57c-1.12.08-7.05.72-13.58,6A39.71,39.71,0,0,0,182.87,382a35.23,35.23,0,0,0-22.71-8.36,21,21,0,0,0-2.3.1l-11,1.16,4.49,10,1.16,2.6-3.85-.27-8-.55-.55,8a36,36,0,0,0,3.17,16,32.85,32.85,0,0,0,8,10.95,28,28,0,0,0-5.21,4.8,26.45,26.45,0,0,0-6.2,18.27l.79,8.95,8.8-1.82,2.31-.47-.54,4.81-.77,6.88,6.7,1.74a22.52,22.52,0,0,0,5.53.62,28.53,28.53,0,0,0,20-8.26,41.18,41.18,0,0,0,2.26,4.43,31.86,31.86,0,0,0,8.34,9.66l7.81,5.51,4-8.67,1.13-2.41,5.17,4.62,6.77,6,5.14-7.46c.84-1.21,8.07-12.18,5.38-25a26.91,26.91,0,0,0-1-3.6A40.18,40.18,0,0,0,251,426.23l6.24-8.4L247.53,414l6.24-5.89L246,402.45c-1-.77-6.76-4.57-17.58-4.67a36,36,0,0,0,1.92-4.32c2.86-7.75,1.81-13.43,1.57-14.49l-2.2-9.81-9.06,4.35L216,375.75l-.13-6.16-.17-8.38Z"/><path class="c" d="M193.7,429.15a12.25,12.25,0,0,1-4.36-.82c-5.53-2.12-8.54-7.74-6.71-12.53a9.34,9.34,0,0,1,9-5.68,12.3,12.3,0,0,1,4.37.82,11.77,11.77,0,0,1,5.9,4.84,8.82,8.82,0,0,1,.8,7.69A9.33,9.33,0,0,1,193.7,429.15Z"/><path class="a" d="M191.62,414.12a8.22,8.22,0,0,1,2.94.56C198,416,200,419.31,199,422a5.38,5.38,0,0,1-5.26,3.11,8.13,8.13,0,0,1-2.93-.56c-3.48-1.33-5.45-4.63-4.4-7.36a5.36,5.36,0,0,1,5.25-3.11m0-8h0a13.31,13.31,0,0,0-12.73,8.25c-2.62,6.85,1.43,14.79,9,17.69a16.15,16.15,0,0,0,5.79,1.09c5.82,0,10.81-3.24,12.73-8.25a12.77,12.77,0,0,0-1.11-11.17,15.74,15.74,0,0,0-7.9-6.52,16.17,16.17,0,0,0-5.8-1.09Z"/><path class="c" d="M194.56,414.68c.53-5.73,7.31-15.5,7.31-15.5"/><path class="a" d="M190.57,414.31a17.16,17.16,0,0,1,2.29-4.86,36.93,36.93,0,0,1,2.81-3.77,70.9,70.9,0,0,1,6.2-6.5,67.43,67.43,0,0,0-2.64,8.33,31,31,0,0,0-.77,4.08,9.7,9.7,0,0,0,.08,3.46Z"/><path class="c" d="M199.2,419.93c7.31-2,17.59.33,17.59.33"/><path class="a" d="M198.13,416.07a30.32,30.32,0,0,1,10,1.07,53.73,53.73,0,0,1,8.7,3.12,51.68,51.68,0,0,0-8.87.88,34.46,34.46,0,0,0-4.12,1.05,18.53,18.53,0,0,0-3.53,1.59Z"/><path class="c" d="M197,424.3c6,7.13,5.36,13.39,5.36,13.39"/><path class="a" d="M200.06,421.71c.31.66.63,1.3.91,2s.54,1.31.76,2a25.51,25.51,0,0,1,1,4.07,21.73,21.73,0,0,1,.26,4.08,14.06,14.06,0,0,1-.64,3.87,13,13,0,0,0-1.32-3.45,18.34,18.34,0,0,0-2-2.93,20.67,20.67,0,0,0-2.42-2.44c-.41-.38-.89-.71-1.31-1.05s-.93-.63-1.38-.94Z"/><path class="c" d="M186.88,421.45c-5.92,2.19-11.95,9.84-11.95,9.84"/><path class="a" d="M188.27,425.2a11.15,11.15,0,0,0-3.17.57,25.36,25.36,0,0,0-3.44,1.4,45.51,45.51,0,0,0-6.73,4.12,47,47,0,0,1,4.1-7.13,31.33,31.33,0,0,1,2.73-3.38,19.08,19.08,0,0,1,3.73-3.08Z"/><path class="c" d="M187.4,415.68c-4.19-7.93-13.3-11.8-13.3-11.8"/><path class="a" d="M183.86,417.55a17.54,17.54,0,0,0-1.3-3.67,23.42,23.42,0,0,0-2.18-3.61,31.63,31.63,0,0,0-6.28-6.39,33.49,33.49,0,0,1,8.88,3.35,28.24,28.24,0,0,1,4.18,2.8,25.48,25.48,0,0,1,3.78,3.78Z"/><path class="b" d="M19.76,355.24a22.47,22.47,0,0,1-8.24-14,25.73,25.73,0,0,1,.87-11.73A29.09,29.09,0,0,1,3,331.12a31.61,31.61,0,0,1-20.64-8.18l-2.86-2.8,10.18-10.36-14.4-4.25,3.12-4.54c.34-.5,8.57-12.24,24.11-12.24.52,0,1,0,1.56,0-11.9-20.16-3.11-32.46-2.68-33l2.5-3.37,12.81,10.49L20.9,247l4.45,2.35c.51.27,9.59,5.27,12.3,20.31,8.13-13,17-15.3,17.48-15.42l4.67-1.09.51,10.08,10.16-5.43,1.17,5.1c1.42,6.15,1.06,18.21-7.1,28.47,13.16,1.73,19.84,13.8,21.6,20.41l1.16,4.38-16.69,2.28,5.32,11.66-4.64,1.18a21.85,21.85,0,0,1-5.21.53,38.14,38.14,0,0,1-16.6-4.07c4,14.13-2.54,23.71-7.82,27.39l-2.84,2L29.38,347l-6,10.82Z"/><path class="a" d="M23.48,252.88s14.67,7.75,10,36.32c8.2-27.71,22.56-31.07,22.56-31.07l.58,11.6,11.12-6s4.69,20.44-15.15,32.85a28.47,28.47,0,0,1,8.69-1.48c16.29,0,21,17.65,21,17.65l-17.53,2.39L70.3,327.4a18.59,18.59,0,0,1-4.22.4c-5.53,0-15.82-1.71-26.95-12.18,17,24.56.24,36.22.24,36.22L28.53,340.27,22.08,352s-15.49-11,0-32.71c-7,5.9-13.52,7.84-19.11,7.84a27.66,27.66,0,0,1-17.84-7l12-12.27-15.49-4.57s7.2-10.5,20.81-10.5a30.76,30.76,0,0,1,10.61,2c-18.62-23-8.52-36.62-8.52-36.62L19,269.9l4.53-17m-5.15-11.77-2.58,9.71-1.34,5-4.77-3.91-6.48-5.31-5,6.73c-.67.91-4,5.84-4.29,14.2A39.64,39.64,0,0,0-2.38,285.1a35.15,35.15,0,0,0-22.54,13.62l-6.23,9.08,10.56,3.12,2.73.81-2.71,2.75-5.6,5.72,5.71,5.6A35.32,35.32,0,0,0,3,335.12a32.76,32.76,0,0,0,4.32-.28,28,28,0,0,0,.27,7.09,26.42,26.42,0,0,0,9.87,16.57l7.32,5.22,4.33-7.88,1.14-2.06,3.31,3.53,4.73,5.05,5.68-4a27,27,0,0,0,9.22-12.86A29,29,0,0,0,54.66,334a39.78,39.78,0,0,0,11.42,1.76,26.25,26.25,0,0,0,6.21-.65l9.26-2.37-4-8.7-1.1-2.42,6.88-.93,9-1.23L90,310.74c-1.73-6.49-7.65-17.58-18.92-21.85A39.83,39.83,0,0,0,75.54,262l-2.34-10.2L64,256.72l-.44-8.57-9.33,2.19c-1.16.27-7.82,2.14-15,10.34a35.61,35.61,0,0,0-2-4.27c-4-7.2-9-10.1-10-10.61l-8.88-4.69Z"/><path class="b" d="M31.35,311.76a9.06,9.06,0,0,1-8.16-4.53c-2.45-4.51-.22-10.48,5-13.31a12,12,0,0,1,5.73-1.5A9,9,0,0,1,42.06,297a8.77,8.77,0,0,1,.22,7.72,11.69,11.69,0,0,1-5.2,5.58A12,12,0,0,1,31.35,311.76Z"/><path class="a" d="M33.9,296.43a5.07,5.07,0,0,1,4.64,2.44c1.41,2.57-.11,6.1-3.38,7.88a8,8,0,0,1-3.81,1,5.09,5.09,0,0,1-4.64-2.45c-1.4-2.57.11-6.1,3.38-7.88a8,8,0,0,1,3.81-1m0-8h0a16,16,0,0,0-7.64,2c-7.14,3.88-10.09,12.29-6.58,18.73a13,13,0,0,0,11.67,6.62,16.11,16.11,0,0,0,7.64-2c7.14-3.89,10.09-12.3,6.58-18.74a13,13,0,0,0-11.67-6.61Z"/><path class="b" d="M30.09,297.43c-4-4.12-7-15.62-7-15.62"/><path class="a" d="M27.22,300.22a16.84,16.84,0,0,1-2.21-4.9A35.85,35.85,0,0,1,24,290.74a72.27,72.27,0,0,1-.91-8.93,68.92,68.92,0,0,0,4.61,7.41,31.88,31.88,0,0,0,2.62,3.24A9.66,9.66,0,0,0,33,294.64Z"/><path class="b" d="M37.09,297.31c3.2-6.89,11.68-13.17,11.68-13.17"/><path class="a" d="M33.46,295.62a30.47,30.47,0,0,1,7.28-6.88,54.77,54.77,0,0,1,8-4.6,53.77,53.77,0,0,0-5.1,7.32,37.32,37.32,0,0,0-1.87,3.82A19.16,19.16,0,0,0,40.72,299Z"/><path class="b" d="M39,301.81c9.35,0,13.67,4.63,13.67,4.63"/><path class="a" d="M39,297.81c.7.19,1.39.37,2.08.58s1.35.44,2,.72A26.34,26.34,0,0,1,46.86,301a21.18,21.18,0,0,1,3.27,2.46,13.54,13.54,0,0,1,2.53,3,12.61,12.61,0,0,0-3.48-1.24,17.75,17.75,0,0,0-3.52-.4,21.43,21.43,0,0,0-3.42.25c-.55.07-1.12.22-1.65.32s-1.09.3-1.61.44Z"/><path class="b" d="M30.25,307.67c-2.18,5.92-.27,15.48-.27,15.48"/><path class="a" d="M34,309.05a11.38,11.38,0,0,0-1.62,2.78,25.94,25.94,0,0,0-1.17,3.52,44.7,44.7,0,0,0-1.23,7.8,47.42,47.42,0,0,1-2.77-7.75,31.5,31.5,0,0,1-.79-4.28,19.19,19.19,0,0,1,.07-4.83Z"/><path class="b" d="M26.2,303.52c-8.75-2-17.61,2.46-17.61,2.46"/><path class="a" d="M25.33,307.43a18,18,0,0,0-3.65-1.4,22.9,22.9,0,0,0-4.15-.68,31.28,31.28,0,0,0-8.94.63,33.41,33.41,0,0,1,8.31-4.58A27.72,27.72,0,0,1,21.75,300a25.05,25.05,0,0,1,5.33-.41Z"/><path class="b" d="M105.25,485.59l-9.91,16-3.52-2.79a31.4,31.4,0,0,1-10.46-20A38.07,38.07,0,0,1,85,458.48a42.43,42.43,0,0,1-15.36,2.95c-18.38,0-30.19-12.57-30.69-13.11l-2.71-2.94L53,429.88l-21.56-7.56,3.34-4.38c.49-.64,12.17-15.65,32.9-15.65a44.58,44.58,0,0,1,8.15.77c-18.45-31.77-4.28-49.66-3.61-50.47l2.67-3.24,19,17.18,7.63-23.8,4.32,2.57c.76.46,15.13,9.36,16.28,35.15C135.55,358.13,150.23,355.17,151,355l4.72-.86v15.74l16-7.53.91,5.16c.06.28,4,24.45-14.75,42.82,20.87,1.59,30.44,20.6,32.63,30.86l.94,4.43-25.36,2.17,7.13,18-4.69.95a28.32,28.32,0,0,1-5.18.4c-6.36,0-17.29-1.48-29.67-9.49,2.82,8.78,3.72,18.52,0,27.87a32.28,32.28,0,0,1-11.51,14.64L119.16,502Z"/><path class="a" d="M103.78,348.74s21.2,12.6,12.15,54.65c14.23-40.5,35.79-44.42,35.79-44.42v17.25l16.94-8s5.43,30.68-24.93,47.62a43.33,43.33,0,0,1,11.27-1.6c25.64,0,31.55,27.8,31.55,27.8l-26.2,2.24,7.35,18.54a24.74,24.74,0,0,1-4.39.32c-7.58,0-23.94-2.39-41-20.14,23.33,37.71-2.35,53.77-2.35,53.77l-15.23-18L94.3,495.71s-22.16-17.54,2.45-48.54c-10,7.65-19.22,10.26-27.13,10.26-16.84,0-27.75-11.82-27.75-11.82l18.77-17.3L38,420.37s10.73-14.08,29.72-14.08a44.58,44.58,0,0,1,17.54,3.81c-25.9-35.56-9.91-55-9.91-55l20.45,18.54,8-24.93m-4.55-12-3.07,9.57L92,359.4,80.71,349.2l-6.21-5.63L69.17,350c-.7.85-14.5,18.23-.32,48.27l-1.14,0c-22.69,0-35.55,16.52-36.08,17.23L25,424.27l10.39,3.65,10.09,3.53-9,8.28-5.89,5.42L36,451c.55.58,13.52,14.39,33.64,14.39a44.84,44.84,0,0,0,8.92-.9,39.4,39.4,0,0,0-1.17,14.72,35.14,35.14,0,0,0,12,22.73l7,5.58,4.73-7.65,4.65-7.53,8.11,9.57,4.47,5.29,5.87-3.68A36,36,0,0,0,137.32,487a41,41,0,0,0,2.28-21.47,56,56,0,0,0,23.71,5.6,32.15,32.15,0,0,0,6-.48l9.37-1.9-3.53-8.89-3.38-8.53L187.23,450l9-.78-1.88-8.86A52,52,0,0,0,187,423.68c-5.53-8.2-12.81-13.62-21.41-16a55,55,0,0,0,10.91-40.82l-1.82-10.31L165.24,361l-5.52,2.6V349.38l-9.43,1.71c-1.25.23-7.91,1.72-16.28,8.78a66.56,66.56,0,0,0-9.26,9.65c-4.17-19.82-16.15-27.22-16.88-27.66l-8.64-5.13Z"/><path class="a" d="M115.46,414.13c3.19,0,6,1.42,7.24,4,1.89,3.93-.62,9.05-5.61,11.45a12,12,0,0,1-5.19,1.22c-3.2,0-6-1.42-7.25-4-1.88-3.93.63-9.05,5.61-11.45a12,12,0,0,1,5.2-1.22m0-8h0a20.26,20.26,0,0,0-8.67,2c-9,4.31-13.14,14.23-9.35,22.12,2.53,5.26,8.07,8.52,14.46,8.52a20.07,20.07,0,0,0,8.66-2,19.52,19.52,0,0,0,9.1-8.84,15.13,15.13,0,0,0,.25-13.28c-2.53-5.26-8.06-8.52-14.45-8.52Z"/><path class="a" d="M107.26,418a25.56,25.56,0,0,1-3.07-6.78,55.54,55.54,0,0,1-1.6-6.57,105.57,105.57,0,0,1-1.6-13,105.84,105.84,0,0,0,5.37,11.67,50.72,50.72,0,0,0,3.24,5.31,18.6,18.6,0,0,0,3.66,4.09Z"/><path class="a" d="M117.12,413.82a40.6,40.6,0,0,1,4.88-5.48,61,61,0,0,1,5.4-4.39A80.69,80.69,0,0,1,139,397a78.45,78.45,0,0,0-8.79,9.78,54.8,54.8,0,0,0-3.52,5.31,31.51,31.51,0,0,0-2.47,5.44Z"/><path class="a" d="M123.37,418.52c1,.25,2,.49,2.93.76s1.92.59,2.86,1a37.38,37.38,0,0,1,5.39,2.53,32.62,32.62,0,0,1,4.75,3.39,20.41,20.41,0,0,1,3.78,4.23,19.58,19.58,0,0,0-4.81-2.52,29.43,29.43,0,0,0-5.11-1.35,33.3,33.3,0,0,0-5.16-.39c-.84,0-1.71.07-2.55.09s-1.69.19-2.52.28Z"/><path class="a" d="M113.41,432.12a21.93,21.93,0,0,0-2.27,4.52,43.71,43.71,0,0,0-1.52,5.35c-.41,1.85-.71,3.76-1,5.68s-.41,3.87-.48,5.83c-.6-1.88-1.08-3.79-1.52-5.73s-.79-3.92-1-5.94a46.44,46.44,0,0,1-.39-6.19,28.64,28.64,0,0,1,.82-6.65Z"/><path class="a" d="M103,428A29.24,29.24,0,0,0,97.24,426a36.17,36.17,0,0,0-6.32-.83,46.85,46.85,0,0,0-6.58.15,44.33,44.33,0,0,0-6.62,1.08,46.68,46.68,0,0,1,6.14-3,50.57,50.57,0,0,1,6.64-2.18A42.26,42.26,0,0,1,97.6,420a36.52,36.52,0,0,1,7.51.21Z"/><path class="d" d="M20.6,514a88,88,0,0,1-21.88-3l-4.23-1.21,1.62-4.1c.45-1.16,11.42-28.56,27.08-35.26A32.68,32.68,0,0,1,36,467.6a20.44,20.44,0,0,1,18.77,11.22c2.34,4.54,2.42,10.11.22,15.69a30.28,30.28,0,0,1-17.93,16.95A48.91,48.91,0,0,1,20.6,514Z"/><path class="a" d="M36,471.6c6.79,0,12.19,3.21,15.21,9.06,4.54,8.79-2.66,22.44-15.5,27A45.51,45.51,0,0,1,20.6,510a84.53,84.53,0,0,1-20.77-2.8s10.62-26.93,24.94-33.05A28.7,28.7,0,0,1,36,471.6m0-8h0a36.7,36.7,0,0,0-14.38,3.18C4.73,474-6.4,501.18-7.62,504.25l-3.23,8.2,8.47,2.43a93,93,0,0,0,23,3.11,53,53,0,0,0,17.81-2.76A34.35,34.35,0,0,0,58.71,496c2.63-6.68,2.49-13.42-.39-19A24.3,24.3,0,0,0,36,463.6Z"/><path class="d" d="M39.42,482.66c-11.64,3-17.59,9.19-17.59,9.19"/><path class="a" d="M39.52,483a12,12,0,0,1-1.66,3A9.84,9.84,0,0,1,36,487.91a4.08,4.08,0,0,1-2.13.82,13.69,13.69,0,0,0-2.4.29c-.76.21-1.54.42-2.3.65s-1.58.44-2.35.7a50.42,50.42,0,0,0-4.74,1.75l0,0a.42.42,0,0,1-.55-.23.4.4,0,0,1,0-.34,21.76,21.76,0,0,1,3.07-4.51c.61-.68,1.24-1.33,1.9-2s1.37-1.2,2.09-1.77,1.39-1.26,2.13-1.84a5.31,5.31,0,0,1,1.17-.73,5.16,5.16,0,0,1,1.34-.33,8.17,8.17,0,0,1,6.08,1.85.64.64,0,0,1,.21.74Z"/><path class="c" d="M458.93,469.19c-2.19,0-4.81-1-8.25-3l-.33-.19-.28-.25c-10-8.87-10.55-23.15-10.57-23.75l-.11-3.78,3.76-.33c.09,0,.88-.08,2.15-.08,4.2,0,14.81.76,22.69,7.75l.28.26.23.3c2.55,3.32,5.25,7.62,3.4,11.37-.64,1.28-2.32,3.43-6.53,3.43H465a8.27,8.27,0,0,1-.86,5.54,5.92,5.92,0,0,1-5.17,2.74Z"/><path class="a" d="M445.3,441.81c3.87,0,13.21.69,20,6.74,5.19,6.78,3.13,8.37,0,8.37a23.3,23.3,0,0,1-6.34-1.27s4.7,9.54-.1,9.54c-1.29,0-3.27-.69-6.21-2.44-8.81-7.82-9.22-20.88-9.22-20.88s.67-.06,1.8-.06m0-8c-1.41,0-2.33.08-2.5.09l-7.53.66.24,7.56c.05,1.69.83,16.79,11.9,26.62l.57.5.66.39c4.14,2.46,7.31,3.56,10.29,3.56a9.84,9.84,0,0,0,8.57-4.63,10.53,10.53,0,0,0,1.45-4.08,10,10,0,0,0,6.53-5.22c3.19-6.46-1.89-13.08-3.8-15.58l-.47-.6-.57-.51c-8.9-7.9-20.69-8.76-25.34-8.76Z"/><path class="b" d="M348.55,545c-2.94,0-5.7-2.08-8.94-6.75l-.22-.31-.16-.35c-5.41-12.21,0-25.44.23-26l1.46-3.49,3.57,1.26c.56.2,14,5.07,19.42,17.27l.15.35.09.38c1.23,5.31,1,8.67-.76,10.87a5.77,5.77,0,0,1-4.6,2.18,9.28,9.28,0,0,1-4-1.07,9.28,9.28,0,0,1-2,3.85,5.8,5.8,0,0,1-4.18,1.8Z"/><path class="a" d="M343.15,513.11s12.32,4.35,17.1,15.13c1.45,6.26.36,8.15-1.46,8.15-2.76,0-7.22-4.3-7.22-4.3s.28,8.88-3,8.88c-1.27,0-3.09-1.33-5.66-5-4.78-10.78.26-22.83.26-22.83m-4.46-10.06-2.92,7c-.65,1.56-6.2,15.63-.19,29.16l.31.7.43.63c2.74,3.94,6.61,8.46,12.23,8.46a9.75,9.75,0,0,0,7.05-3,10.87,10.87,0,0,0,1.36-1.73,11.28,11.28,0,0,0,1.83.17,9.81,9.81,0,0,0,7.73-3.69c3.31-4.16,2.55-9.81,1.52-14.27l-.17-.74-.31-.7c-6-13.53-20.15-18.86-21.74-19.42l-7.13-2.52Z"/><path class="b" d="M137.38,665.12c-.49-.23-9.19-4.42-14.9-16.86a28.24,28.24,0,0,1-8.9,11.71,23.85,23.85,0,0,1-14.07,4.87c-.53,0-.83,0-.83,0l-3.4-.3L95,661.1l-.72-10.59-11.68,4.7-1.18-4.34a22.91,22.91,0,0,1,2.49-16.25,26.09,26.09,0,0,1,8.35-8.74,30.39,30.39,0,0,1-19.51-24.5l-.44-4L87,595.78l-8.61-12.62,5.28-1.55a28.88,28.88,0,0,1,7.47-.9,30.35,30.35,0,0,1,20.62,7.9c3.56-23.61,18.4-27.64,19.11-27.82l4.07-1,3.35,16.54,13.56-9.8,2,4.63c.23.55,4.17,10.36-3.45,24a44,44,0,0,1,14.32-2.63,22.83,22.83,0,0,1,9.47,1.7l4.3,2.11-6.1,8.29,11.52,2.26-2.32,4.69a36.13,36.13,0,0,1-23.93,17.88,23,23,0,0,1,4.68,7.25c4.44,10.89-.58,22.21-.79,22.68l-1.87,4.13-14.62-9-3.32,12.62Z"/><path class="a" d="M131.88,564.67l3.75,18.51,14.52-10.49s6.56,15.54-15.49,35c13.52-9.21,23.68-11.25,30-11.25a18.92,18.92,0,0,1,7.71,1.3l-7,9.5L178,609.76a32.1,32.1,0,0,1-28.14,16.43,40.49,40.49,0,0,1-4.92-.31c23.26,9.08,13,31.81,13,31.81l-15.34-9.4-3.48,13.2s-14-6.49-17-29.34c-2.22,27.4-19.38,28.69-22.59,28.69H99l-1.1-16.09-12.61,5.08s-5.09-18.66,21-25.75h-.84c-26.2,0-28.77-23.14-28.77-23.14L94.08,599l-9.25-13.57a25,25,0,0,1,6.34-.74c6.53,0,16.73,2.21,23.86,14.26.16-30.1,16.85-34.3,16.85-34.3m6.18-9.81-8.13,2c-1.11.28-6.89,2-12.45,8.37a40.37,40.37,0,0,0-8.34,16.34,34.78,34.78,0,0,0-18-4.91,32.88,32.88,0,0,0-8.59,1.06L72,580.86l6.21,9.1L80,592.53l-4.12.46-8,.87.88,8A36.36,36.36,0,0,0,74.66,617a33,33,0,0,0,10.22,9.8,28.7,28.7,0,0,0-4.44,5.84,26.71,26.71,0,0,0-2.88,19.29l2.37,8.68,8.34-3.36,2.39-1,.35,5.09.47,6.91,6.9.52c.18,0,.57,0,1.13,0A27.94,27.94,0,0,0,116,663.16a30.25,30.25,0,0,0,6.5-6.71,43.36,43.36,0,0,0,3.16,4.17,32.09,32.09,0,0,0,10,8.12l8.67,4,2.43-9.25.73-2.78,6.17,3.78,7.73,4.73,3.74-8.26c.61-1.35,5.85-13.58.86-25.84a26.69,26.69,0,0,0-1.75-3.52,40.77,40.77,0,0,0,20.87-18.32l4.64-9.39-10.27-2-.19,0,5.21-7.07-8.62-4.21c-1-.5-4.81-2.11-11.22-2.11a42,42,0,0,0-7.35.67,37.05,37.05,0,0,0,1.2-4.86c1.45-8.24-.61-13.7-1-14.72l-3.91-9.25-8.15,5.88L141,569.42l-1.29-6.34-1.66-8.22Z"/><path class="a" d="M125.08,611.87a8.83,8.83,0,0,1,1.6.15c3.72.7,6.29,3.64,5.74,6.57-.47,2.5-3.07,4.18-6.13,4.18a8.94,8.94,0,0,1-1.61-.15c-3.72-.7-6.28-3.64-5.73-6.57.47-2.5,3.07-4.18,6.13-4.18m0-8h0c-7,0-12.8,4.4-14,10.7a12.86,12.86,0,0,0,3.1,10.86,15.82,15.82,0,0,0,9,5.05,16.09,16.09,0,0,0,3.09.29c7,0,12.8-4.4,14-10.7,1.37-7.25-4.07-14.39-12.11-15.91a16.93,16.93,0,0,0-3.09-.29Z"/><path class="a" d="M122.7,612.37a17.44,17.44,0,0,1,1.39-5.27,35.48,35.48,0,0,1,2.11-4.28,72.16,72.16,0,0,1,5-7.63A70.83,70.83,0,0,0,130,604a33.32,33.32,0,0,0,0,4.23,9.86,9.86,0,0,0,.69,3.45Z"/><path class="a" d="M130.53,612.83a30.81,30.81,0,0,1,10.14-.77,55,55,0,0,1,9.27,1.52,52.4,52.4,0,0,0-8.72,2.45,36.44,36.44,0,0,0-3.94,1.78A19.37,19.37,0,0,0,134,620Z"/><path class="a" d="M133.42,618.11c.43.6.86,1.18,1.26,1.78s.79,1.21,1.13,1.86a25.48,25.48,0,0,1,1.77,3.88,22.33,22.33,0,0,1,1,4,14,14,0,0,1,.07,4,13.14,13.14,0,0,0-1.92-3.22,19.2,19.2,0,0,0-2.5-2.59,21.19,21.19,0,0,0-2.86-2c-.47-.3-1-.55-1.5-.82s-1-.47-1.55-.7Z"/><path class="a" d="M122.26,623.63a11.49,11.49,0,0,0-3.07,1.16,25.39,25.39,0,0,0-3.18,2,46.62,46.62,0,0,0-6,5.36,48.2,48.2,0,0,1,2.84-7.86,31.45,31.45,0,0,1,2.13-3.86,19.18,19.18,0,0,1,3.17-3.73Z"/><path class="a" d="M116.56,616.78a18.23,18.23,0,0,0-2-3.43,23.76,23.76,0,0,0-2.86-3.21,32.1,32.1,0,0,0-7.45-5.23,34.09,34.09,0,0,1,9.47,1.78,28.68,28.68,0,0,1,4.68,2,25.84,25.84,0,0,1,4.44,3.11Z"/><path class="c" d="M335.87,675.2l-7.52,7.72-2.84-3.49a20.44,20.44,0,0,1-3.83-14.16,23,23,0,0,1,3.1-9.21H324c-15.09,0-22.47-12.4-22.78-12.93l-2-3.46,10.8-6.27-11.12-6.91,4.21-3.55a27.89,27.89,0,0,1,16.79-5.8,26.49,26.49,0,0,1,7.53,1.1c-5-19.64,5.33-28,5.84-28.38l3.3-2.58,8.3,11.73,7.24-12.39,3.66,3.44c.37.35,6.67,6.49,5.93,19.29,8.78-7.74,15.91-8.28,17.71-8.28h.23l4.79.19-1.89,8.52,9.79-2.21-.23,5.23a31.65,31.65,0,0,1-12.24,22.4,20.76,20.76,0,0,1,5.95,4.19c7.17,7.24,7.16,17.89,7.15,18.34l0,4.53-14.62-2,1.77,11.09-4.78-.09c-.46,0-8.5-.27-17.23-7.56-.34,12.52-8.05,19-13.38,20.86l-3.27,1.15Z"/><path class="a" d="M353,593s10.66,10,0,33.23c12.86-20.67,25.3-21.13,26.38-21.13h.07l-2.22,10,10.84-2.45s-.8,18.48-20.57,24.38l1.36,0C389.16,637,389,657.7,389,657.7l-15.47-2.07,1.88,11.68S362,667.06,351.64,650c8.66,24.85-8.29,30.84-8.29,30.84l-6.51-12.37-8.22,8.45s-10.58-13,7.67-27.81a29.11,29.11,0,0,1-12.27,3c-13,0-19.32-10.94-19.32-10.94l13.1-7.6L305.7,626a23.81,23.81,0,0,1,14.21-4.86,24.59,24.59,0,0,1,14.49,5C324,602.21,335.74,593,335.74,593l9.46,13.38L353,593m-1.84-12.71L346.13,589l-1.57,2.69-2.29-3.24-4.84-6.84-6.61,5.16c-.82.64-5,4.21-7.3,11.52a35.29,35.29,0,0,0-1.12,15c-.82-.07-1.65-.1-2.49-.1a31.73,31.73,0,0,0-19.37,6.74l-8.42,7.1,9.36,5.81.79.49-1.59.92-6.92,4,4,6.92a31.71,31.71,0,0,0,21,14.47,26.15,26.15,0,0,0-1.11,5.24A24.3,24.3,0,0,0,322.41,682l5.67,7,6.27-6.44.54-.56,1.38,2.63,3.22,6.13,6.53-2.31a24.51,24.51,0,0,0,11.32-9.13,26.42,26.42,0,0,0,3.81-8.46c1,.58,2,1.07,2.83,1.49a29.21,29.21,0,0,0,11.25,3l9.56.18-1.51-9.44-.17-1.06,4.8.64,9,1.21.08-9.06c0-1.3-.12-12.93-8.31-21.2a25.43,25.43,0,0,0-2.12-1.9,36.59,36.59,0,0,0,9.57-21.7l.45-10.46-8.74,2,1.53-6.9-9.55-.51h-.38c-1.63,0-7.05.37-14.06,4.65-.15-.93-.33-1.84-.56-2.75-1.8-7.33-5.54-11.13-6.28-11.82l-7.32-6.89Z"/><path class="c" d="M348.65,645.72c-4.44,0-8.16-2.67-9-6.49-1.09-4.66,2.37-9.47,7.7-10.72a11.55,11.55,0,0,1,2.61-.3c4.43,0,8.16,2.67,9,6.49,1.09,4.66-2.37,9.47-7.71,10.72A11.46,11.46,0,0,1,348.65,645.72Z"/><path class="a" d="M349.91,632.21c2.52,0,4.67,1.34,5.16,3.4.58,2.52-1.53,5.16-4.73,5.91a7.64,7.64,0,0,1-1.69.2c-2.52,0-4.68-1.34-5.16-3.4-.59-2.52,1.53-5.16,4.72-5.91a7.23,7.23,0,0,1,1.7-.2m0-8h0a15.53,15.53,0,0,0-3.52.41,14.87,14.87,0,0,0-8.21,5.08,12.24,12.24,0,0,0-2.48,10.44c1.32,5.64,6.64,9.58,12.95,9.58a15.44,15.44,0,0,0,3.51-.41,14.76,14.76,0,0,0,8.21-5.09,12.21,12.21,0,0,0,2.49-10.43c-1.32-5.64-6.65-9.58-12.95-9.58Z"/><path class="c" d="M348.21,632.41c-2.44-4.45-2.31-14.93-2.31-14.93"/><path class="a" d="M344.71,634.34a15,15,0,0,1-.67-4.83,33.34,33.34,0,0,1,.3-4.2,61.63,61.63,0,0,1,1.56-7.83,59.79,59.79,0,0,0,2.41,7.36,26.53,26.53,0,0,0,1.58,3.3,7.32,7.32,0,0,0,1.83,2.34Z"/><path class="c" d="M354.2,633.94c4.33-5.1,13-8.45,13-8.45"/><path class="a" d="M351.15,631.36a26.25,26.25,0,0,1,8-4,47.85,47.85,0,0,1,8-1.83,46,46,0,0,0-5.92,5.23,28.48,28.48,0,0,0-2.39,2.88,15.36,15.36,0,0,0-1.65,2.93Z"/><path class="c" d="M354.76,638.22c7.93,2.22,10.53,7.13,10.53,7.13"/><path class="a" d="M355.84,634.37a27.52,27.52,0,0,1,3.18,2.19,23.44,23.44,0,0,1,2.75,2.6,19.7,19.7,0,0,1,2.16,3,11.89,11.89,0,0,1,1.36,3.22,11.1,11.1,0,0,0-2.74-1.78,16,16,0,0,0-2.95-1.05,18.35,18.35,0,0,0-3-.46,20.46,20.46,0,0,0-2.93,0Z"/><path class="c" d="M346,641.15c-3.24,4.52-3.86,13.09-3.86,13.09"/><path class="a" d="M349.2,643.48a9.47,9.47,0,0,0-2.09,1.83A21.8,21.8,0,0,0,345.2,648a39,39,0,0,0-3.11,6.27,41.21,41.21,0,0,1-.76-7.29,27.53,27.53,0,0,1,.23-3.9,17,17,0,0,1,1.14-4.23Z"/><path class="c" d="M343.48,636.68c-7-3.72-15.55-2-15.55-2"/><path class="a" d="M341.6,640.21a15.32,15.32,0,0,0-2.64-2.12,20.47,20.47,0,0,0-3.31-1.66,27.65,27.65,0,0,0-7.72-1.8,29.55,29.55,0,0,1,8.17-2.17,24.94,24.94,0,0,1,4.51-.14,22.57,22.57,0,0,1,4.75.83Z"/><path class="d" d="M285.14,729.71c-.23-1.23-5.65-30.23,4-44.29,5.64-8.22,13-12.75,20.73-12.75a20.47,20.47,0,0,1,10.41,2.91c4.4,2.58,7.45,7.24,8.59,13.13a30.3,30.3,0,0,1-6.07,23.92c-10.58,13.58-31.71,19.9-32.6,20.17L286,734Z"/><path class="a" d="M309.87,676.67a16.5,16.5,0,0,1,8.39,2.36c8.55,5,9.77,20.38,1.39,31.14C309.74,722.89,289.07,729,289.07,729s-5.44-28.43,3.36-41.27c5-7.34,11.27-11,17.44-11m0-8h0c-9.08,0-17.62,5.14-24,14.49-10.4,15.15-5.25,44.06-4.63,47.3l1.66,8.66,8.45-2.49c.95-.27,23.27-7,34.64-21.54A34.31,34.31,0,0,0,332.79,688c-1.35-7.05-5.08-12.67-10.49-15.83a24.35,24.35,0,0,0-12.43-3.46Z"/><path class="d" d="M309.37,687c-8.24,8.74-9.93,17.18-9.93,17.18"/><path class="a" d="M309.66,687.31a12,12,0,0,1,.2,3.42,9.42,9.42,0,0,1-.53,2.55,3.92,3.92,0,0,1-1.36,1.83,14.73,14.73,0,0,0-1.87,1.54c-.53.59-1.07,1.17-1.6,1.78s-1.09,1.21-1.6,1.85a46.72,46.72,0,0,0-3.07,4l0,0a.42.42,0,0,1-.59.1.45.45,0,0,1-.18-.29,21.15,21.15,0,0,1,.19-5.45c.14-.9.33-1.79.54-2.68a27.36,27.36,0,0,1,.82-2.62c.33-.84.5-1.8.81-2.69a5.34,5.34,0,0,1,.6-1.25,5.61,5.61,0,0,1,.95-1,8.21,8.21,0,0,1,6.13-1.69.67.67,0,0,1,.58.52Z"/><path class="b" d="M397.8,658.7l-8.86,8.61-2.74-3.56A22.58,22.58,0,0,1,382.4,648a25.84,25.84,0,0,1,4.27-11h-1c-17.38,0-25.48-14.49-25.81-15.1L358,618.4l12.76-6.94-12.52-8.27,4.31-3.43a31.13,31.13,0,0,1,18.06-5.94,29.46,29.46,0,0,1,10.06,1.78c-5.49-22.76,6.51-32,7.09-32.38l3.38-2.48,9.18,13.78,8.69-14,3.56,3.55c.41.41,7.62,7.84,5.82,23,10.32-9,18.66-9.63,20.72-9.63a4.9,4.9,0,0,1,.51,0l4.7.39-1.09,4.58-1.29,5.14,11.31-2.22-.37,5.22c-.45,6.29-4.31,17.71-15.11,25.14a22.74,22.74,0,0,1,7.06,5c8,8.28,7.63,20.35,7.61,20.86l-.16,4.53-16.64-2.71,1.68,12.71-4.78-.22c-.53,0-10-.6-19.82-9.75-.33,14.66-9.37,21.91-15.49,23.89l-3.29,1.06Z"/><path class="a" d="M400.08,566.44l10.31,15.46,9.31-15s11.76,11.71-1.05,37.67c14.74-22.29,28.44-23.13,30.41-23.13h.25l-2.84,11.26,12.37-2.43s-1.49,20.92-24.09,27h.58c24,0,23.07,24.14,23.07,24.14l-17.48-2.84,1.76,13.3s-15.13-.7-26.37-20.38c9,28.44-10.36,34.71-10.36,34.71L399,652l-9.59,9.32s-11.58-15.09,9.57-31.28a33.41,33.41,0,0,1-13.27,3c-15.2,0-22.29-13-22.29-13l15.09-8.2L365,602.89a27.07,27.07,0,0,1,15.57-5.07c5,0,10.85,1.5,17,6.13-11.06-27.46,2.56-37.51,2.56-37.51m18.13-12.25-5.3,8.53-2.75,4.41L406.74,562l-4.65-7-6.75,5c-.91.67-5.56,4.4-8.26,12.32a39.54,39.54,0,0,0-1.53,17.87,33.23,33.23,0,0,0-5-.37A34.82,34.82,0,0,0,360,596.63l-8.62,6.86,9.19,6.07,2.37,1.57L359.56,613l-7,3.82,3.83,7c.35.63,7.9,14.16,23.9,16.76a28.14,28.14,0,0,0-1.81,6.86A26.36,26.36,0,0,0,383,666.18l5.47,7.13,6.45-6.26,1.69-1.64,2.13,4.34,3.05,6.22,6.59-2.13a27,27,0,0,0,12.58-9.6,29.19,29.19,0,0,0,4.79-10.55,40.91,40.91,0,0,0,4.31,2.54,32,32,0,0,0,12.22,3.67l9.55.44-1.25-9.48-.35-2.64,6.85,1.12,8.95,1.45.33-9c.05-1.45.26-14.46-8.73-23.79a25.74,25.74,0,0,0-3-2.64,39.84,39.84,0,0,0,12.13-24.42l.74-10.44-10.25,2,2-8.13-9.51-.83s-.27,0-.78,0c-2.55,0-8.73.61-16.56,5.5a37.33,37.33,0,0,0-.7-4.64c-1.76-8.07-5.69-12.3-6.46-13.07l-7.13-7.08Z"/><path class="b" d="M413.41,626.05c-5,0-9-3-9.88-7.21-1-5,2.85-10.09,8.65-11.27a12.49,12.49,0,0,1,2.5-.26c4.95,0,9,3,9.89,7.22,1,5-2.85,10.08-8.65,11.27A12.5,12.5,0,0,1,413.41,626.05Z"/><path class="a" d="M414.69,611.31c2.95,0,5.47,1.6,6,4,.59,2.87-1.89,5.8-5.54,6.55a8.24,8.24,0,0,1-1.7.17c-3,0-5.47-1.6-6-4-.59-2.87,1.89-5.8,5.54-6.55a9,9,0,0,1,1.7-.17m0-8h0a16,16,0,0,0-3.31.34c-8,1.63-13.24,8.8-11.77,16,1.25,6.13,6.93,10.41,13.8,10.41a16.81,16.81,0,0,0,3.31-.33c8-1.63,13.24-8.8,11.77-16-1.26-6.14-6.93-10.42-13.8-10.42Z"/><path class="b" d="M413,611.48c-2.64-5.11-2.16-17-2.16-17"/><path class="a" d="M409.43,613.31a17.35,17.35,0,0,1-.69-5.33,37.17,37.17,0,0,1,.35-4.68,69.69,69.69,0,0,1,1.74-8.81,69.68,69.68,0,0,0,2.24,8.44,30.31,30.31,0,0,0,1.55,3.85,9.64,9.64,0,0,0,1.92,2.87Z"/><path class="b" d="M419.72,613.41c5.07-5.64,15-9.17,15-9.17"/><path class="a" d="M416.74,610.74a30.06,30.06,0,0,1,9-4.45,55.28,55.28,0,0,1,9-2,53.32,53.32,0,0,0-7,5.51,34.86,34.86,0,0,0-2.9,3.1,18.13,18.13,0,0,0-2.12,3.24Z"/><path class="b" d="M420.22,618.28c8.92,2.77,11.72,8.42,11.72,8.42"/><path class="a" d="M421.41,614.46c.61.39,1.22.76,1.81,1.16s1.17.81,1.71,1.28a26.24,26.24,0,0,1,3.06,2.89,21.75,21.75,0,0,1,2.41,3.3,14.08,14.08,0,0,1,1.54,3.61,13.51,13.51,0,0,0-3-2.21,19.61,19.61,0,0,0-3.25-1.41,21.22,21.22,0,0,0-3.35-.75c-.55-.1-1.13-.12-1.68-.18s-1.12,0-1.66,0Z"/><path class="b" d="M410.15,621.32c-3.82,5-4.79,14.72-4.79,14.72"/><path class="a" d="M413.33,623.74a11.49,11.49,0,0,0-2.37,2.18,25.89,25.89,0,0,0-2.14,3,45.23,45.23,0,0,0-3.46,7.09,47.46,47.46,0,0,1-.38-8.22,33.24,33.24,0,0,1,.49-4.32,19,19,0,0,1,1.49-4.6Z"/><path class="b" d="M407.49,616.17c-7.79-4.43-17.56-2.8-17.56-2.8"/><path class="a" d="M405.51,619.65a18,18,0,0,0-3.08-2.4,23.23,23.23,0,0,0-3.77-1.87,31.6,31.6,0,0,0-8.73-2,33.25,33.25,0,0,1,9.29-2,28.35,28.35,0,0,1,5,.11,25.06,25.06,0,0,1,5.22,1.17Z"/><path class="d" d="M378,744.8c-.56-1.12-13.58-27.59-8.08-43.72,4-11.64,12.13-18.59,21.84-18.59a21.81,21.81,0,0,1,5.5.72c4.94,1.29,9.13,5,11.81,10.33a30.33,30.33,0,0,1,.6,24.67c-6.54,15.93-25.18,27.71-26,28.2L380,748.75Z"/><path class="a" d="M391.79,686.48a17.6,17.6,0,0,1,4.48.6c9.58,2.51,14.9,17,9.73,29.61C399.88,731.61,381.61,743,381.61,743s-12.9-25.91-7.88-40.65c3.54-10.35,10.3-15.88,18.06-15.89m0-8h0c-11.5,0-21.08,8-25.63,21.31-5.93,17.39,6.82,43.84,8.29,46.8l3.93,7.88,7.47-4.66c.83-.52,20.53-13,27.55-30.08a34.33,34.33,0,0,0-.72-28c-3.2-6.42-8.31-10.83-14.38-12.42a25.66,25.66,0,0,0-6.51-.86Z"/><path class="d" d="M389.87,697.18c-5.58,10.64-4.94,19.22-4.94,19.22"/><path class="a" d="M390.22,697.37a12.16,12.16,0,0,1,1.12,3.24,9.85,9.85,0,0,1,.17,2.6,4,4,0,0,1-.81,2.13,13.33,13.33,0,0,0-1.39,2c-.36.71-.72,1.42-1.06,2.15s-.73,1.46-1.05,2.21c-.69,1.5-1.31,3.07-1.87,4.69v0a.42.42,0,0,1-.79,0,21.06,21.06,0,0,1-1.29-5.3c-.1-.9-.17-1.81-.2-2.72s0-1.83.08-2.74,0-1.88.06-2.82a5.71,5.71,0,0,1,.24-1.36,5.24,5.24,0,0,1,.65-1.21,8.19,8.19,0,0,1,5.45-3.29.66.66,0,0,1,.69.35Z"/><path class="c" d="M156.45,718.3l-11.21,10-2.57-3.68a26.15,26.15,0,0,1-3.56-18.47,30.67,30.67,0,0,1,6.51-13.82l-1.13,0c-21.46,0-30.61-18.26-31-19l-1.76-3.6,16.09-7.84-14.7-10.69,4.45-3.23a36.36,36.36,0,0,1,19.88-6A34.3,34.3,0,0,1,152,645.13c-6.07-28.1,8.87-38.52,9.58-39l3.48-2.34,10.45,17.3,11.26-16.4,3.4,3.7c.48.52,9.07,10.21,5.15,29.22,12.37-10.51,22.29-11.57,25.75-11.57.65,0,1.06,0,1.21.05l4.76.53-3.55,11.86,13.84-2.08-.6,5.19c0,.23-2.47,19.2-20.25,29.43a26.59,26.59,0,0,1,9.07,6.6c9,10.08,8,24.32,7.93,24.92l-.37,4.51-19.9-4.16,1.33,15.4-4.76-.43c-.64-.06-12.49-1.31-23.94-13.81-.49,18.33-11.84,26.79-19.3,28.84l-3.34.91Z"/><path class="a" d="M163.83,609.46l11.49,19,11.92-17.38s13.44,14.61-3.27,45c17.85-24.52,33.53-26,37.12-26a7.41,7.41,0,0,1,.76,0l-4,13.31,14.91-2.25s-2.9,24.92-30.23,31c29.36.84,27,30.11,27,30.11l-20.73-4.33,1.38,16s-18-1.64-30.42-25.77C189,722.59,165.5,729,165.5,729l-7.59-17.39-12,10.63s-13-18.66,13.11-36.88a41,41,0,0,1-14.57,2.9c-19.2,0-27.4-16.79-27.4-16.79l18.48-9-15.64-11.37a32.4,32.4,0,0,1,17.53-5.25c6.28,0,13.7,2,21.3,8.26-11.76-33.42,5.07-44.69,5.07-44.69m2.51-11.31-7,4.66c-.74.5-15.29,10.63-12.39,36.27a38.38,38.38,0,0,0-9.52-1.19,40.13,40.13,0,0,0-22.23,6.78l-8.91,6.47,8.91,6.47,4.86,3.54-6.5,3.17-7.2,3.51L109.9,675c.39.79,8.94,17.84,28.59,20.83a32.51,32.51,0,0,0-3.32,9.55,29.91,29.91,0,0,0,4.22,21.46l5.15,7.37,6.72-6L155,725l3.18,7.29,2.77,6.35,6.68-1.84a30.62,30.62,0,0,0,14.74-10.26,33.78,33.78,0,0,0,6.56-14.09,49.4,49.4,0,0,0,6.74,4.61c7.19,4.07,12.74,4.75,13.78,4.84l9.52.87-.83-9.53-.45-5.27,10.19,2.13,8.88,1.86.73-9c.14-1.68,1.06-16.75-8.93-27.91A30.81,30.81,0,0,0,224,670.8a45.2,45.2,0,0,0,10.79-12.36,44.74,44.74,0,0,0,5.93-16.37l1.21-10.4-10.35,1.56-2.43.37.37-1.23,2.75-9.18-9.53-1.06a14.92,14.92,0,0,0-1.65-.08c-2.93,0-9,.61-16.91,4.72-1.28.67-2.56,1.4-3.82,2.19a43.3,43.3,0,0,0-.6-8.1c-1.59-9.3-5.8-14.27-6.63-15.17l-6.8-7.4-5.68,8.29-4.91,7.14-5.07-8.4-4.33-7.17Z"/><path class="a" d="M178.44,663.86c3.73,0,6.87,2.1,7.35,5.13.55,3.46-2.57,6.84-7,7.53a9.68,9.68,0,0,1-1.6.13c-3.73,0-6.87-2.1-7.35-5.13-.55-3.47,2.57-6.84,7-7.54a10.87,10.87,0,0,1,1.6-.12m0-8h0a18.37,18.37,0,0,0-2.86.22,17.27,17.27,0,0,0-10,5.2A13.74,13.74,0,0,0,162,672.77c1.1,6.88,7.51,11.88,15.26,11.88a19.67,19.67,0,0,0,2.86-.22,17.3,17.3,0,0,0,10-5.2,13.77,13.77,0,0,0,3.66-11.49c-1.1-6.89-7.51-11.88-15.26-11.88Z"/><path class="a" d="M173.2,665.65a20.63,20.63,0,0,1-.67-6.17A44.62,44.62,0,0,1,173,654a86.26,86.26,0,0,1,2.16-10.42A85,85,0,0,0,177,653.78a39.48,39.48,0,0,0,1.46,4.76,13.43,13.43,0,0,0,2,3.78Z"/><path class="a" d="M181.93,663.85a36.13,36.13,0,0,1,10.58-5.05,66.13,66.13,0,0,1,10.71-2.31,63.82,63.82,0,0,0-8.86,5.86,44.69,44.69,0,0,0-3.79,3.41,24.16,24.16,0,0,0-2.93,3.69Z"/><path class="a" d="M186.48,668.72c.71.47,1.41.91,2.09,1.38s1.35,1,2,1.52a30.83,30.83,0,0,1,3.54,3.4,24.85,24.85,0,0,1,2.79,3.9,16.67,16.67,0,0,1,1.8,4.26,15.59,15.59,0,0,0-3.28-2.92,22.63,22.63,0,0,0-3.72-2,26,26,0,0,0-3.92-1.29c-.65-.18-1.35-.27-2-.41s-1.35-.17-2-.26Z"/><path class="a" d="M176,678.15a15.07,15.07,0,0,0-2.87,2.72,32.28,32.28,0,0,0-2.57,3.64,54.41,54.41,0,0,0-4.14,8.42,56.86,56.86,0,0,1,.36-9.72,38.28,38.28,0,0,1,1-5,22.92,22.92,0,0,1,2.1-5.18Z"/><path class="a" d="M167.88,672.68a22.79,22.79,0,0,0-3.76-2.92,28,28,0,0,0-4.55-2.27,38.22,38.22,0,0,0-10.4-2.49,39.55,39.55,0,0,1,5.45-1.1,41.12,41.12,0,0,1,5.69-.34,33.06,33.06,0,0,1,5.88.57,29.34,29.34,0,0,1,6,1.78Z"/><path class="b" d="M126.51,798.29c-.82-.38-16.67-8-25.25-31.77-9.19,29.37-31.86,31.1-37,31.1-.74,0-1.14,0-1.14,0l-3.42-.29-.27-3.42L58,773.36l-19.45,7.83-1.18-4.34a34.35,34.35,0,0,1,3.8-24.4c3.73-6.53,9.54-11.9,17.33-16.07a45.14,45.14,0,0,1-27-18.65,50.14,50.14,0,0,1-8-20.51l-.44-4,25.43-2.8-14.32-21,5.29-1.54a43.81,43.81,0,0,1,11.38-1.37,46.7,46.7,0,0,1,35.15,15.63c4.09-41,28.55-47.62,29.68-47.9l4.06-1,5.66,28,22.51-16.27,2,4.63c.38.91,7.49,18.64-9.34,42.79,12.42-5.37,22.27-6.77,29.18-6.77,8.85,0,13.69,2.24,14.22,2.5l4.3,2.1-10.42,14.15L197,708.12l-2.32,4.69c-.54,1.09-12.66,24.88-41.83,28.37a35.73,35.73,0,0,1,10.65,14.27c6.78,16.64-.92,34-1.25,34.73l-1.87,4.13-24.08-14.76-5.46,20.75Z"/><path class="a" d="M116.59,638.15l6,29.92,23.47-17s10.62,25.13-25,56.64c21.85-14.87,38.28-18.17,48.56-18.17,8.18,0,12.46,2.09,12.46,2.09L170.78,707l20.33,4s-13.16,26.57-45.5,26.57a61.34,61.34,0,0,1-7.94-.52c37.59,14.69,21,51.44,21,51.44l-24.81-15.2-5.61,21.33s-22.58-10.48-27.43-47.42c-3.58,44.29-31.33,46.38-36.52,46.38-.54,0-.84,0-.84,0l-1.77-26L41.25,775.8s-8.23-30.16,34-41.63H73.93c-42.36,0-46.51-37.4-46.51-37.4l28.06-3.09-15-21.94a40.07,40.07,0,0,1,10.26-1.21c10.55,0,27,3.58,38.57,23.07.26-48.67,27.24-55.46,27.24-55.46m6.17-9.81-8.13,2c-1.16.29-24.95,6.76-31.58,43.5a50.75,50.75,0,0,0-32.27-11.35,47.65,47.65,0,0,0-12.51,1.53L27.7,667.16l6.21,9.1,7.46,10.93-14.83,1.64-8,.88.89,7.95A53.29,53.29,0,0,0,28.16,720,48.6,48.6,0,0,0,49.32,737.5a42.82,42.82,0,0,0-11.61,13,38,38,0,0,0-4.18,27.43l2.37,8.68,8.34-3.36,10.17-4.09,1,15,.47,6.91,6.9.52c.18,0,.68,0,1.45,0a40.2,40.2,0,0,0,23.68-8.19,46.1,46.1,0,0,0,13.49-16.58c9.46,18.37,22.63,24.71,23.41,25.07l8.67,4,2.43-9.24,2.88-10.93,15.63,9.58,7.73,4.74,3.73-8.26c.36-.8,8.73-19.67,1.32-37.88a39.06,39.06,0,0,0-6.13-10.24c25.72-6.57,36.65-28.05,37.19-29.13l4.64-9.38-10.27-2-8-1.57,3.84-5.21,5.69-7.72-8.62-4.21c-1-.48-6.42-2.9-16-2.9a69.67,69.67,0,0,0-20.07,3.17c10.28-21,4.28-35.88,3.91-36.75l-3.91-9.26-8.14,5.89L128,654.32l-3.59-17.76-1.67-8.22Z"/><path class="a" d="M105.59,714.45a14.43,14.43,0,0,1,2.59.24c6,1.14,10.16,5.89,9.27,10.63-.76,4-5,6.76-9.91,6.76a13.6,13.6,0,0,1-2.59-.25c-6-1.13-10.16-5.89-9.27-10.62.76-4,5-6.76,9.91-6.76m0-8h0c-9,0-16.3,5.46-17.77,13.28-1.71,9.06,5.31,18,15.65,20a21.42,21.42,0,0,0,4.07.39c9,0,16.3-5.46,17.77-13.28,1.71-9.06-5.31-18-15.65-20a22.26,22.26,0,0,0-4.07-.38Z"/><path class="a" d="M104.2,715a28.37,28.37,0,0,1,1.6-8,62.87,62.87,0,0,1,2.78-6.9c1-2.21,2.12-4.37,3.27-6.48s2.36-4.18,3.63-6.21a117.44,117.44,0,0,0-3.08,13.86,56.21,56.21,0,0,0-.7,6.85,21.28,21.28,0,0,0,.47,6.15Z"/><path class="a" d="M115.48,718.22a44.7,44.7,0,0,1,7.84-1.76A68.39,68.39,0,0,1,131,716c2.52,0,5,.11,7.48.31s4.92.5,7.34.92A87.34,87.34,0,0,0,131.51,720a63.1,63.1,0,0,0-6.67,2.32,35.89,35.89,0,0,0-5.87,3.15Z"/><path class="a" d="M117.51,726.44c.71.86,1.44,1.69,2.12,2.55s1.35,1.74,1.94,2.68a41,41,0,0,1,3.19,5.7,34.49,34.49,0,0,1,2.09,6.06,23,23,0,0,1,.7,6.2,21.84,21.84,0,0,0-2.55-5.44,31.37,31.37,0,0,0-3.58-4.63,36,36,0,0,0-4.28-3.83c-.73-.6-1.55-1.1-2.31-1.65s-1.62-1-2.41-1.47Z"/><path class="a" d="M99.77,731.33a24.63,24.63,0,0,0-5,2.68A47.54,47.54,0,0,0,90,737.87c-1.56,1.41-3,2.93-4.5,4.5s-2.85,3.22-4.17,4.94c.73-2,1.58-4,2.5-6s1.92-4,3-5.9a51.74,51.74,0,0,1,3.77-5.68,32.24,32.24,0,0,1,5.1-5.25Z"/><path class="a" d="M93.75,720.88a33.4,33.4,0,0,0-4-5.46,40.23,40.23,0,0,0-5.17-4.82,52.8,52.8,0,0,0-6-4.1,50.13,50.13,0,0,0-6.65-3.29,52,52,0,0,1,7.42,1.44,58.46,58.46,0,0,1,7.28,2.49,45.78,45.78,0,0,1,7,3.67,40.2,40.2,0,0,1,6.43,5.13Z"/><path class="b" d="M94.44,30.84A5.69,5.69,0,0,1,90,28.74a8.84,8.84,0,0,1-1.73-4.52,10.44,10.44,0,0,1-3,.51h0a5.89,5.89,0,0,1-5.07-2.56c-2.13-3.15-.74-7.67.7-11.25l.15-.35.2-.32C88.45-1,102.48-3.68,103.08-3.79l3.71-.69.9,3.67c.14.59,3.43,14.5-3.82,25.71l-.21.32-.26.28C99.85,29.2,97.09,30.84,94.44,30.84Z"/><path class="a" d="M103.81.14s3.1,12.69-3.3,22.59c-2.88,3-4.8,4.11-6.07,4.11-3.67,0-1.9-9.27-1.9-9.27S88,20.73,85.22,20.73c-2.13,0-3.27-1.83-.66-8.31C91,2.52,103.81.14,103.81.14m6-9.24-7.43,1.38c-1.66.3-16.47,3.36-24.51,15.8l-.41.64-.29.71c-1.81,4.5-3.49,10.27-.31,15a9.92,9.92,0,0,0,8.39,4.32h.11a10.52,10.52,0,0,0,1.56,2.56,9.76,9.76,0,0,0,7.55,3.55c4.91,0,8.91-3.51,11.85-6.57l.52-.56.42-.64c8-12.43,4.75-27.18,4.35-28.83l-1.8-7.34Z"/><path class="c" d="M5,89.49c-3.79,0-6.77-3.65-8.94-6.82l-.22-.32L-4.33,82c-5.31-12.25.21-25.43.45-26l1.48-3.48,3.56,1.29c.57.21,14,5.18,19.27,17.44l.15.35.09.37c1.18,5.31.92,8.66-.84,10.85A5.73,5.73,0,0,1,15.25,85,9.38,9.38,0,0,1,11.2,83.9a9.22,9.22,0,0,1-2.07,3.81A5.77,5.77,0,0,1,5,89.49Z"/><path class="a" d="M-.21,57.59s12.28,4.45,17,15.27c1.39,6.25.31,8.13-1.51,8.13-2.75,0-7.2-4.36-7.2-4.36S8.26,85.49,5,85.49c-1.28,0-3.09-1.34-5.64-5.08-4.69-10.81.45-22.82.45-22.82m-4.38-10.1-3,6.95C-8.23,56-13.89,70-8,83.59l.3.7.43.64c2.73,4,6.59,8.56,12.25,8.56a9.77,9.77,0,0,0,7-3,10.8,10.8,0,0,0,1.33-1.68,11.32,11.32,0,0,0,1.92.17A9.79,9.79,0,0,0,23,85.34c3.32-4.13,2.61-9.77,1.62-14.22l-.16-.75-.31-.7c-5.89-13.58-20-19-21.58-19.6l-7.11-2.58Z"/><path class="b" d="M77.51,194.44a5.73,5.73,0,0,1-4.62-2.25,8.68,8.68,0,0,1-1.55-4.79,10.82,10.82,0,0,1-2.48.32h0A6,6,0,0,1,63.52,185c-2.06-3.3-.35-7.8,1.37-11.35l.17-.34.23-.31c8-10.69,22.18-12.44,22.78-12.51l3.75-.43.65,3.73c.1.59,2.43,14.69-5.57,25.38l-.23.31-.28.26C82.79,193,80.05,194.44,77.51,194.44Z"/><path class="a" d="M88.53,164.44s2.22,12.87-4.84,22.31c-3,2.68-4.9,3.69-6.18,3.69-3.88,0-1.42-9.38-1.42-9.38s-4.41,2.66-7.23,2.66c-2.31,0-3.55-1.8-.37-8.35,7.06-9.44,20-10.93,20-10.93m6.59-8.81-7.51.86c-1.68.19-16.66,2.23-25.53,14.09l-.45.61-.34.69c-2.17,4.47-4.27,10.25-1.16,15.21a9.94,9.94,0,0,0,8,4.61,10.57,10.57,0,0,0,1.59,2.93,9.75,9.75,0,0,0,7.78,3.81c3.61,0,7.18-1.78,11.57-5.77l.56-.52.46-.61c8.87-11.85,6.6-26.8,6.31-28.47l-1.29-7.44Z"/><path class="d" d="M203.38,852.45c-.9-.24-22.18-6-33.11-19.32a30.27,30.27,0,0,1-6.68-23.75c1-5.92,3.91-10.66,8.25-13.35a20.29,20.29,0,0,1,10.83-3.19c7.54,0,14.84,4.34,20.56,12.23,10,13.8,5.33,42.93,5.13,44.17l-.72,4.34Z"/><path class="a" d="M182.67,796.84c6.05,0,12.21,3.53,17.32,10.58,9.13,12.6,4.42,41.17,4.42,41.17s-20.81-5.54-31-18c-8.66-10.54-7.83-26,.59-31.16a16.39,16.39,0,0,1,8.72-2.59m0-8a24.32,24.32,0,0,0-12.94,3.79c-5.33,3.3-8.91,9-10.08,16.09a34.32,34.32,0,0,0,7.53,26.95c11.74,14.29,34.22,20.39,35.17,20.65l8.52,2.26,1.43-8.69c.54-3.26,4.95-32.29-5.83-47.17-6.49-9-14.94-13.88-23.8-13.88Z"/><path class="d" d="M183,807.2c8.46,8.53,10.37,16.92,10.37,16.92"/><path class="a" d="M183.32,806.92a8.2,8.2,0,0,1,6.17,1.53,5.63,5.63,0,0,1,1,1,5.56,5.56,0,0,1,.63,1.24c.34.88.52,1.84.88,2.67s.64,1.71.89,2.59.44,1.77.61,2.67a21.51,21.51,0,0,1,.32,5.44.42.42,0,0,1-.46.38.37.37,0,0,1-.29-.17l0,0a47.86,47.86,0,0,0-3.17-3.94q-.79-.93-1.65-1.8c-.54-.6-1.1-1.17-1.64-1.74a13.47,13.47,0,0,0-1.92-1.49,4,4,0,0,1-1.4-1.8,9.59,9.59,0,0,1-.6-2.53,12.37,12.37,0,0,1,.11-3.43v0A.65.65,0,0,1,183.32,806.92Z"/><path class="d" d="M219.48,782.75a42.48,42.48,0,0,1-8.52-.82,30.27,30.27,0,0,1-20.09-14.32c-3-5.22-3.64-10.75-2-15.57,3.08-8.74,10.86-14,20.82-14a35.84,35.84,0,0,1,9.3,1.32c16.44,4.48,31.08,30.1,31.69,31.19l2.17,3.84-4,1.78c-.6.27-14.88,6.54-29.39,6.54Z"/><path class="a" d="M209.74,742.08a31.87,31.87,0,0,1,8.25,1.18c15,4.09,29.26,29.3,29.26,29.3s-13.95,6.19-27.78,6.19a37.84,37.84,0,0,1-7.69-.74c-13.36-2.78-22.37-15.3-19.09-24.64,2.52-7.16,8.66-11.29,17.05-11.29m0-8c-11.74,0-20.93,6.22-24.59,16.64-2.08,5.91-1.29,12.61,2.23,18.86a34.32,34.32,0,0,0,22.77,16.26,45.34,45.34,0,0,0,9.32.91c15.35,0,30.39-6.6,31-6.88l8.05-3.58-4.34-7.67c-1.62-2.87-16.39-28.25-34.12-33.07a39.22,39.22,0,0,0-10.35-1.47Z"/><path class="d" d="M204.65,753.72c11.94,1.34,18.69,6.68,18.69,6.68"/><path class="a" d="M204.69,753.33a8.21,8.21,0,0,1,5.77-2.68,4.8,4.8,0,0,1,1.37.15,5.29,5.29,0,0,1,1.27.56c.81.47,1.56,1.1,2.36,1.53s1.57.93,2.31,1.46,1.46,1.1,2.15,1.7a21.39,21.39,0,0,1,3.67,4,.42.42,0,0,1-.12.58.41.41,0,0,1-.34.05h0c-1.66-.44-3.31-.81-4.94-1.08-.8-.15-1.61-.27-2.42-.37s-1.58-.22-2.37-.32a13.08,13.08,0,0,0-2.42,0,4.07,4.07,0,0,1-2.22-.52,9.7,9.7,0,0,1-2.05-1.6,11.87,11.87,0,0,1-2.07-2.74v0A.65.65,0,0,1,204.69,753.33Z"/><path class="d" d="M25,649.38a88.25,88.25,0,0,1-21.87-3l-4.24-1.22,1.62-4.1C1,640,12,612.56,27.62,605.85A32.78,32.78,0,0,1,40.42,603a20.41,20.41,0,0,1,18.77,11.23c2.34,4.53,2.42,10.1.22,15.69a30.31,30.31,0,0,1-17.93,17A49.18,49.18,0,0,1,25,649.38Z"/><path class="a" d="M40.42,607a16.35,16.35,0,0,1,15.22,9.06c4.54,8.8-2.66,22.44-15.51,27A45.26,45.26,0,0,1,25,645.38a84.63,84.63,0,0,1-20.77-2.8s10.63-26.92,24.94-33.05A28.7,28.7,0,0,1,40.42,607m0-8h0A36.55,36.55,0,0,0,26,602.18C9.15,609.41-2,636.57-3.19,639.65l-3.24,8.19L2,650.27a92.46,92.46,0,0,0,23,3.11,53,53,0,0,0,17.81-2.76,34.32,34.32,0,0,0,20.3-19.25c2.63-6.67,2.49-13.41-.39-19C58.35,603.87,50.22,599,40.42,599Z"/><path class="d" d="M43.84,618.05c-11.64,3-17.59,9.19-17.59,9.19"/><path class="a" d="M43.94,618.44a12.42,12.42,0,0,1-1.66,3,10,10,0,0,1-1.81,1.86,4,4,0,0,1-2.13.82,13.69,13.69,0,0,0-2.41.3c-.76.21-1.53.41-2.3.65s-1.57.43-2.35.7a49.7,49.7,0,0,0-4.74,1.75h0a.42.42,0,0,1-.55-.22.43.43,0,0,1,0-.35,21.35,21.35,0,0,1,3.08-4.5q.9-1,1.89-2c.67-.62,1.37-1.2,2.09-1.76s1.39-1.26,2.13-1.85a5.78,5.78,0,0,1,1.18-.73,5.4,5.4,0,0,1,1.33-.33,8.23,8.23,0,0,1,6.09,1.85.66.66,0,0,1,.2.75Z"/><polygon class="a" points="347.15 900.96 235.98 823.86 226.85 803.26 480.12 881.59 484.3 900.96 347.15 900.96"/><path class="a" d="M234.07,809.68l242.63,75L479.34,897H348.4L239.18,821.21l-5.11-11.53m-14.44-12.84,13.14,29.66L345.9,905H489.25l-5.71-26.5L219.63,796.84Z"/><path class="b" d="M45.42,879.62c-1.5,0-4.47-.62-6.23-5.12a8.92,8.92,0,0,1-4.4,1.39h0a5.73,5.73,0,0,1-4.4-2c-1.79-2.08-2.25-5.35-1.48-10.6l.06-.38.12-.36C33.49,850,46.48,844,47,843.76l3.44-1.55,1.74,3.36c.28.53,6.75,13.27,2.36,25.88l-.13.36-.19.33C52.24,875.63,49.41,879.62,45.42,879.62Z"/><path class="a" d="M48.67,847.41s6,11.6,2.13,22.73c-2.35,4-4.09,5.48-5.38,5.48-3.15,0-3.59-8.61-3.59-8.61s-4.29,4.88-7,4.88c-1.71,0-2.82-1.89-1.92-8,3.88-11.13,15.8-16.47,15.8-16.47M52.3,837l-6.9,3.09c-1.54.69-15.21,7.16-20.09,21.13l-.25.73-.11.75c-.64,4.38-.94,9.91,2.42,13.79a9.66,9.66,0,0,0,7.42,3.38,10.59,10.59,0,0,0,2.67-.35,9.82,9.82,0,0,0,8,4.08c6.8,0,10.79-6.88,12.3-9.47l.38-.66.25-.72c4.88-14-1.8-27.54-2.58-29L52.3,837Z"/><path class="c" d="M125,917.26c-3.79,0-6.77-3.65-8.94-6.82l-.22-.32-.15-.35c-5.31-12.25.21-25.43.45-26l1.48-3.47,3.56,1.29c.57.2,14,5.18,19.27,17.43l.16.35.08.38c1.18,5.31.92,8.66-.84,10.85a5.73,5.73,0,0,1-4.57,2.15,9.38,9.38,0,0,1-4.06-1.09,9.22,9.22,0,0,1-2.07,3.81,5.77,5.77,0,0,1-4.15,1.78Z"/><path class="a" d="M119.76,885.36s12.29,4.45,17,15.26c1.39,6.26.31,8.14-1.5,8.14-2.76,0-7.21-4.36-7.21-4.36s.21,8.86-3.07,8.86c-1.28,0-3.09-1.34-5.64-5.08-4.69-10.81.45-22.82.45-22.82m-4.37-10.1-3,7c-.67,1.55-6.33,15.57-.44,29.15l.3.7.44.63c2.72,4,6.58,8.57,12.24,8.57a9.77,9.77,0,0,0,7-3,10.42,10.42,0,0,0,1.33-1.69,10.42,10.42,0,0,0,1.93.18,9.79,9.79,0,0,0,7.69-3.65c3.32-4.14,2.61-9.77,1.62-14.22l-.16-.75-.31-.7c-5.89-13.58-20-19-21.58-19.6l-7.1-2.58Z"/><path class="b" d="M457.65,717c-2.81,0-5.58-1.89-9-6.12l-.24-.3-.17-.33c-6.26-11.8-1.79-25.37-1.6-25.95l1.21-3.58,3.64,1c.58.16,14.33,4.07,20.59,15.87l.18.33.11.37c1.64,5.34,1.6,8.75-.11,11.07a5.81,5.81,0,0,1-4.8,2.34,9.8,9.8,0,0,1-3.59-.8,9.15,9.15,0,0,1-1.93,4.16,5.76,5.76,0,0,1-4.3,1.93Z"/><path class="a" d="M450.44,685.6s12.59,3.48,18.11,13.89c2,6.37.87,8.24-1.08,8.24-2.78,0-7.3-3.79-7.3-3.79s.92,9.08-2.52,9.08c-1.27,0-3.14-1.24-5.87-4.63-5.52-10.41-1.34-22.79-1.34-22.79m-5.16-9.72L442.86,683c-.54,1.6-5.09,16,1.85,29.1l.36.68.48.59c2.85,3.54,6.81,7.61,12.1,7.61a9.72,9.72,0,0,0,7.27-3.25,11.5,11.5,0,0,0,1.47-2.09c.36,0,.72.05,1.08.05a9.82,9.82,0,0,0,8-4c3.26-4.41,2.1-10.13.72-14.62l-.22-.73-.36-.68c-6.94-13.08-21.42-17.4-23.05-17.85l-7.29-2Z"/><path class="c" d="M332.14,805.66a5.71,5.71,0,0,1-4.62-2.25,8.6,8.6,0,0,1-1.56-4.79,10.82,10.82,0,0,1-2.48.32h0a6,6,0,0,1-5.34-2.75c-2.06-3.3-.35-7.8,1.37-11.34l.17-.35.23-.3c8-10.7,22.18-12.44,22.78-12.51l3.76-.44.64,3.73c.1.59,2.43,14.69-5.57,25.39l-.23.3-.28.26C337.41,804.2,334.67,805.66,332.14,805.66Z"/><path class="a" d="M343.15,775.66s2.23,12.87-4.83,22.31c-2.95,2.68-4.91,3.69-6.18,3.69-3.88,0-1.43-9.38-1.43-9.38s-4.41,2.66-7.23,2.66c-2.31,0-3.55-1.8-.37-8.35,7.06-9.43,20-10.93,20-10.93m6.59-8.81-7.51.86c-1.68.2-16.66,2.24-25.52,14.09l-.46.61-.34.69c-2.17,4.47-4.27,10.25-1.16,15.22a9.94,9.94,0,0,0,8,4.6,10.89,10.89,0,0,0,1.59,2.94,9.75,9.75,0,0,0,7.79,3.8c3.6,0,7.17-1.78,11.56-5.77l.56-.52.46-.61c8.87-11.85,6.6-26.8,6.31-28.46l-1.29-7.45Z"/><path class="c" d="M174.94,537.7c-3,0-4.88-2.08-6.12-4.61a8.58,8.58,0,0,1-4.82,1.79h0a5.73,5.73,0,0,1-4.21-1.82c-1.83-1.95-2.5-5.11-2.19-10.26l0-.38.1-.37c3.33-12.93,15.77-19.95,16.3-20.24l3.31-1.83,2,3.2c.33.51,7.85,12.66,4.52,25.6l-.09.37-.17.34C181.79,533.31,179.17,537.7,174.94,537.7Z"/><path class="a" d="M176,505.31s7,11.06,4,22.47c-2.08,4.39-3.74,5.92-5.05,5.92-3,0-4.15-8.29-4.15-8.29s-4,5.47-6.79,5.47c-1.61,0-2.77-1.88-2.41-7.83,2.94-11.41,14.37-17.74,14.37-17.74m2.74-10.66-6.61,3.66c-1.48.82-14.56,8.41-18.24,22.75l-.19.74,0,.76c-.26,4.27-.13,9.63,3.26,13.24a9.68,9.68,0,0,0,7.13,3.08,10.74,10.74,0,0,0,3.48-.6,10,10,0,0,0,7.46,3.42c7.31,0,10.92-7.63,12.28-10.5l.32-.69.19-.74c3.69-14.34-4.1-27.29-5-28.72l-4-6.4Z"/><circle class="f" cx="395.92" cy="785.92" r="104.08"/><path class="g" d="M352.39,835l8.81-11.43c8.17,8.48,18.78,16,34.69,16,16.5,0,28.21-9.64,28.21-24.89,0-16.15-11.11-27-43.35-27V774.29c28.77,0,38.55-11.08,38.55-25.29,0-13.21-9.07-21.51-23.48-21.51-11.37,0-21,5.72-29,13.77l-9.43-11.12c10.51-9.73,22.95-16.92,39-16.92,23.63,0,40.64,12.55,40.64,34.49,0,16.36-9.93,26.83-24.69,32.28v.85c16.42,3.88,29.49,15.87,29.49,34.53,0,24.21-20,38.81-44.86,38.81C375.23,854.18,361.54,845.05,352.39,835Z"/></svg>