<svg xmlns="http://www.w3.org/2000/svg" width="510" height="900" viewBox="0 0 510 900"><defs><style>.a,.g{fill:#8c76d6;}.b{fill:#432d1e;}.c{fill:none;}.c,.d,.e,.f{stroke:#432d1e;}.c,.d{stroke-miterlimit:10;}.c,.d,.e{stroke-width:8px;}.d{fill:#56634a;}.e{fill:#db85a0;}.e,.f,.g{stroke-miterlimit:2;}.f{fill:#fff;stroke-width:15px;}.g{stroke:#8c76d6;stroke-width:12px;}</style></defs><title>41</title><path class="a" d="M33.71,391c-7.75,0-18.47-9.81-24.63-19-6-8.92-9.78-21.45-.91-27.38a11.54,11.54,0,0,1,6.4-1.92c6.25,0,12.84,4.71,18.54,13.26,6.93,10.38,13.36,28.28,5.17,33.75A8.07,8.07,0,0,1,33.71,391Z"/><path class="b" d="M14.57,346.7c4.44,0,10,3.59,15.22,11.48,7.08,10.61,11.06,25,6.26,28.21a4.14,4.14,0,0,1-2.34.65c-5.6,0-15.19-8.1-21.3-17.26-7.09-10.61-6.82-18.62-2-21.83a7.42,7.42,0,0,1,4.18-1.25m0-8A15.44,15.44,0,0,0,6,341.3c-4.82,3.22-7.37,8.78-7,15.25.31,5.45,2.6,11.4,6.79,17.68,6.69,10,18.29,20.81,28,20.81a12.14,12.14,0,0,0,6.79-2c6.72-4.48,6.24-13.27,4.66-19.85a63.25,63.25,0,0,0-8.72-19.45c-6.47-9.7-14.24-15-21.87-15Z"/><path class="a" d="M99.43,408c-9.43,0-12.74-3.43-13.85-6.3-3.58-9.19,12-20.16,23.6-24.68a37.28,37.28,0,0,1,13.27-2.85c6.73,0,11.71,2.88,13.66,7.89,1.59,4.11.73,8.58-2.44,12.58-2.94,3.71-7.66,6.85-14,9.32a59.19,59.19,0,0,1-20.22,4Z"/><path class="b" d="M122.45,378.15c5.21,0,8.64,2,9.93,5.34,2.09,5.38-2.29,12.1-14.18,16.72A55,55,0,0,1,99.43,404c-5.16,0-9.12-1.17-10.13-3.75-2.09-5.38,9.43-14.87,21.33-19.5a33.35,33.35,0,0,1,11.82-2.58m0-8a41,41,0,0,0-14.72,3.13,63.11,63.11,0,0,0-18.3,10.92c-5.08,4.48-10.51,11.4-7.58,18.93C84.69,410.44,93,412,99.43,412a62.48,62.48,0,0,0,21.67-4.31c18.76-7.29,21.82-19.15,18.74-27.08-2.54-6.53-9-10.44-17.39-10.44Z"/><polyline class="c" points="89.76 400.87 58.68 407.36 38.55 388.5"/><path class="a" d="M33.76,449.1c-7.74,0-18.47-9.8-24.62-19-3.8-5.68-5.86-10.95-6.13-15.68-.3-5.1,1.55-9.25,5.22-11.7a11.51,11.51,0,0,1,6.39-1.92c6.26,0,12.84,4.71,18.55,13.26a59.09,59.09,0,0,1,8.15,18.16c2.33,9.68-.34,13.82-3,15.59a8,8,0,0,1-4.56,1.32Z"/><path class="b" d="M14.62,404.77c4.45,0,10,3.58,15.22,11.48,7.09,10.61,11.07,25,6.27,28.21a4.14,4.14,0,0,1-2.35.64c-5.6,0-15.19-8.1-21.3-17.25-7.08-10.61-6.81-18.63-2-21.83a7.41,7.41,0,0,1,4.17-1.25m0-8A15.5,15.5,0,0,0,6,399.36c-4.82,3.22-7.37,8.79-7,15.26.32,5.45,2.61,11.39,6.8,17.67,6.69,10,18.29,20.81,28,20.81a12.18,12.18,0,0,0,6.79-2c6.72-4.49,6.25-13.27,4.66-19.85a63.22,63.22,0,0,0-8.71-19.45c-6.48-9.7-14.24-15-21.88-15Z"/><path class="a" d="M99.49,466c-9.43,0-12.74-3.42-13.86-6.29s-1-7.9,6.5-14.48a59.08,59.08,0,0,1,17.11-10.2,37.23,37.23,0,0,1,13.27-2.85c6.73,0,11.71,2.87,13.65,7.89,1.6,4.1.74,8.57-2.43,12.57-2.94,3.72-7.66,6.85-14,9.33a59.07,59.07,0,0,1-20.21,4Z"/><path class="b" d="M122.51,436.22c5.21,0,8.64,2,9.93,5.34,2.09,5.38-2.29,12.1-14.18,16.72A55,55,0,0,1,99.49,462c-5.17,0-9.13-1.16-10.13-3.74-2.09-5.38,9.43-14.88,21.32-19.5a33.44,33.44,0,0,1,11.83-2.58m0-8a41.18,41.18,0,0,0-14.72,3.12,63.54,63.54,0,0,0-18.31,10.93c-5.07,4.48-10.5,11.4-7.58,18.93C84.75,468.51,93,470,99.49,470a62.59,62.59,0,0,0,21.66-4.3c7-2.74,12.33-6.3,15.71-10.57,4-5.09,5.13-11.11,3-16.51-2.54-6.54-9-10.44-17.38-10.44Z"/><polyline class="c" points="89.81 458.94 58.74 465.42 38.6 446.57"/><path class="a" d="M35.67,508.59c-7.74,0-18.47-9.8-24.62-19-3.8-5.68-5.86-11-6.13-15.68-.3-5.1,1.55-9.25,5.22-11.7a11.43,11.43,0,0,1,6.39-1.92c6.26,0,12.84,4.71,18.55,13.26a59,59,0,0,1,8.15,18.16c2.33,9.68-.34,13.82-3,15.59a8,8,0,0,1-4.57,1.32Z"/><path class="b" d="M16.53,464.26c4.45,0,10,3.58,15.22,11.48,7.09,10.61,11.07,25,6.27,28.2a4.07,4.07,0,0,1-2.35.65c-5.6,0-15.19-8.1-21.3-17.25-7.08-10.61-6.81-18.63-2-21.83a7.41,7.41,0,0,1,4.17-1.25m0-8a15.5,15.5,0,0,0-8.61,2.59c-4.82,3.22-7.37,8.78-7,15.26.32,5.45,2.61,11.39,6.8,17.67,6.69,10,18.29,20.81,28,20.81a12.18,12.18,0,0,0,6.79-2c6.72-4.49,6.25-13.27,4.66-19.85a63.37,63.37,0,0,0-8.71-19.46c-6.48-9.69-14.24-15-21.88-15Z"/><path class="a" d="M101.4,525.53c-9.43,0-12.74-3.42-13.86-6.29-3.57-9.19,12-20.16,23.61-24.68a37.23,37.23,0,0,1,13.27-2.85c6.73,0,11.71,2.87,13.65,7.89,3.87,9.94-6.45,18-16.46,21.9a59.31,59.31,0,0,1-20.21,4Z"/><path class="b" d="M124.42,495.71c5.21,0,8.64,2,9.93,5.34,2.09,5.37-2.29,12.09-14.18,16.72a55,55,0,0,1-18.77,3.76c-5.17,0-9.13-1.16-10.13-3.74-2.09-5.38,9.43-14.88,21.32-19.5a33.44,33.44,0,0,1,11.83-2.58m0-8a41.18,41.18,0,0,0-14.72,3.12,63.54,63.54,0,0,0-18.31,10.93c-5.07,4.48-10.5,11.39-7.58,18.92,2.85,7.32,11.13,8.85,17.59,8.85a62.38,62.38,0,0,0,21.66-4.31c7-2.73,12.33-6.29,15.71-10.56,4-5.09,5.13-11.11,3-16.51-2.54-6.54-9-10.44-17.38-10.44Z"/><polyline class="c" points="91.72 518.42 60.65 524.91 40.52 506.06"/><path class="a" d="M33.76,330.19c-7.74,0-18.47-9.8-24.62-19-6-8.92-9.78-21.45-.91-27.38a11.51,11.51,0,0,1,6.39-1.92c6.26,0,12.84,4.71,18.55,13.26,6.93,10.38,13.36,28.28,5.16,33.75a8,8,0,0,1-4.57,1.32Z"/><path class="b" d="M14.62,285.86c4.45,0,10,3.59,15.22,11.48,7.09,10.61,11.07,25,6.27,28.21a4.14,4.14,0,0,1-2.35.64c-5.6,0-15.19-8.09-21.3-17.25-7.08-10.61-6.81-18.63-2-21.83a7.41,7.41,0,0,1,4.17-1.25m0-8A15.43,15.43,0,0,0,6,280.46c-4.82,3.22-7.37,8.78-7,15.25.32,5.45,2.61,11.4,6.8,17.68,6.69,10,18.29,20.8,28,20.8a12.11,12.11,0,0,0,6.79-2c6.72-4.48,6.25-13.27,4.66-19.85A63.22,63.22,0,0,0,36.5,292.9c-6.48-9.7-14.24-15-21.88-15Z"/><path class="a" d="M99.49,347.14c-9.43,0-12.74-3.43-13.86-6.3s-1-7.89,6.5-14.48a59.3,59.3,0,0,1,17.11-10.2,37.23,37.23,0,0,1,13.27-2.85c6.73,0,11.71,2.88,13.65,7.89,3.87,9.94-6.45,18-16.46,21.9a59.09,59.09,0,0,1-20.21,4Z"/><path class="b" d="M122.51,317.31c5.21,0,8.64,2,9.93,5.34,2.09,5.38-2.29,12.1-14.18,16.72a55,55,0,0,1-18.77,3.77c-5.17,0-9.13-1.17-10.13-3.75-2.09-5.38,9.43-14.88,21.32-19.5a33.44,33.44,0,0,1,11.83-2.58m0-8a41.18,41.18,0,0,0-14.72,3.12,63.54,63.54,0,0,0-18.31,10.93c-5.07,4.48-10.5,11.4-7.58,18.93,2.85,7.31,11.13,8.85,17.59,8.85a62.38,62.38,0,0,0,21.66-4.31c18.77-7.3,21.83-19.15,18.74-27.08-2.54-6.54-9-10.44-17.38-10.44Z"/><polyline class="c" points="89.81 340.03 58.74 346.51 38.6 327.66"/><path class="a" d="M62.82,604.05c-7.35,0-15.49-6.56-16.25-25a65.73,65.73,0,0,1,2.78-22c3.33-10.37,8.11-12.71,11.52-12.85h.33c10.51,0,16.23,20,16.79,33.55.49,11.81-3.06,25.77-14.65,26.25h-.52Z"/><path class="b" d="M61.2,548.24c6.4,0,12.21,15.53,12.79,29.72S69.64,599.78,63.18,600h-.36c-6.31,0-11.67-7.08-12.25-21.13-.59-14.3,4-30.41,10.47-30.67h.16m0-8h-.5c-8.49.35-12.93,8.69-15.16,15.62a70.11,70.11,0,0,0-3,23.38c.33,8.13,2.08,14.77,5.18,19.74,3.65,5.84,9,9.06,15.06,9.06h.69c9.09-.38,19.38-8.57,18.48-30.41-.6-14.46-6.77-37.39-20.79-37.39Z"/><path class="c" d="M74,251.71C49,335.2,61.31,548.23,61.31,548.23"/><line class="d" x1="155.17" y1="206.84" x2="102.63" y2="165.41"/><path class="d" d="M195,179.74c-12.48-11.42-8.26-36.32-8.26-36.32s24.43-6.38,36.91,5,8.26,36.33,8.26,36.33S207.45,191.17,195,179.74Z"/><line class="d" x1="186.72" y1="143.42" x2="133.23" y2="94.44"/><path class="d" d="M233,108.31c-12.08-11.84-7-36.59-7-36.59s24.64-5.55,36.72,6.29,7,36.58,7,36.58S245.12,120.15,233,108.31Z"/><line class="d" x1="226" y1="71.72" x2="171.33" y2="18.17"/><path class="d" d="M-1.7,163.62c16.61-3.2,34.1,15,34.1,15S23,202.07,6.34,205.27s-34.09-15-34.09-15S-18.3,166.83-1.7,163.62Z"/><line class="d" x1="32.4" y1="178.64" x2="102.67" y2="165.08"/><path class="d" d="M28.87,93C45.48,89.78,63,108,63,108s-9.45,23.43-26.05,26.63-34.1-15-34.1-15S12.26,96.19,28.87,93Z"/><line class="d" x1="62.96" y1="108" x2="133.23" y2="94.44"/><path class="d" d="M66.91,16.7c16.61-3.21,34.09,15,34.09,15S91.56,55.15,75,58.35s-34.09-15-34.09-15S50.3,19.91,66.91,16.7Z"/><line class="d" x1="101" y1="31.72" x2="171.28" y2="18.16"/><path class="c" d="M74,251.71C97.91,169.19,137.36,78.39,186.71-6.39"/><path class="d" d="M44.54,274.46C49.67,258.34,74,251.71,74,251.71s16,19.51,10.91,35.62-29.5,22.75-29.5,22.75S39.4,290.58,44.54,274.46Z"/><path class="d" d="M379.6,180.63c14.59-8.56,15.69-33.79,15.69-33.79s-22.56-11.35-37.15-2.79-15.69,33.79-15.69,33.79S365,189.19,379.6,180.63Z"/><line class="d" x1="395.29" y1="146.84" x2="453" y2="112.99"/><path class="d" d="M359.56,114.55c13.92-9.61,13.16-34.85,13.16-34.85s-23.33-9.66-37.25,0-13.16,34.85-13.16,34.85S345.64,124.16,359.56,114.55Z"/><line class="d" x1="372.72" y1="79.7" x2="432.4" y2="38.5"/><path class="d" d="M331.64,38.58c13.59-10.07,12-35.27,12-35.27S320-5.57,306.38,4.51s-12,35.28-12,35.28S318.05,48.66,331.64,38.58Z"/><line class="d" x1="520.77" y1="135.7" x2="453.01" y2="112.66"/><path class="d" d="M536,51.33c-16-5.45-35.82,10.22-35.82,10.22S506.31,86,522.32,91.49s35.83-10.22,35.83-10.22S552,56.78,536,51.33Z"/><line class="d" x1="500.16" y1="61.55" x2="432.4" y2="38.5"/><path class="d" d="M508.73-29.44c-16-5.44-35.82,10.22-35.82,10.22s6.15,24.5,22.16,29.94S530.9.51,530.9.51,524.75-24,508.73-29.44Z"/><path class="c" d="M469.52,202.39c-9.69-66.64-28.15-139.61-53.64-211.75"/><path class="d" d="M495.63,229c-2.88-16.67-26.11-26.57-26.11-26.57s-18.57,17.13-15.68,33.8S480,262.75,480,262.75,498.52,245.63,495.63,229Z"/><path class="d" d="M345.12,67.23c-16.64-3-26.33-26.36-26.33-26.36s17.29-18.4,33.93-15.37,26.33,26.35,26.33,26.35S361.76,70.26,345.12,67.23Z"/><line class="d" x1="318.79" y1="40.87" x2="252.96" y2="28.88"/><path class="d" d="M160,76.18c13.18-10.61,37.16-2.7,37.16-2.7s2.63,25.12-10.54,35.73-37.16,2.7-37.16,2.7S146.78,86.79,160,76.18Z"/><line class="d" x1="197.11" y1="73.48" x2="252.84" y2="28.58"/><path class="c" d="M268.14,118.53A1051.67,1051.67,0,0,1,250.23-6.39"/><path class="d" d="M252.73,152.44c-3-16.64,15.41-33.91,15.41-33.91s23.31,9.71,26.33,26.35-15.42,33.92-15.42,33.92S255.74,169.09,252.73,152.44Z"/><path class="c" d="M373.16,186.56c33.43,86.23,76.45,217.17,97.18,336.53"/><path class="a" d="M423.13,257.72a7.76,7.76,0,0,1-3.62-.85c-2.84-1.45-6-5.25-4.77-15.14a59,59,0,0,1,6-19c5.08-9.92,11.57-15.39,18.27-15.39a11.27,11.27,0,0,1,5.19,1.26c3.93,2,6.25,5.92,6.54,11,.27,4.73-1.17,10.21-4.28,16.29C441.06,246.49,431,257.72,423.13,257.72Z"/><path class="b" d="M439,211.36a7.29,7.29,0,0,1,3.37.82c5.14,2.63,6.33,10.56.52,21.92-5.2,10.16-14.26,19.62-19.78,19.62a3.85,3.85,0,0,1-1.8-.41c-5.14-2.63-2.84-17.38,3-28.74,4.62-9,10.09-13.21,14.71-13.21m0-8h0c-4.8,0-14,2.29-21.83,17.56-6.16,12-11.47,33.39.49,39.51a11.77,11.77,0,0,0,5.45,1.29c4.91,0,10.19-2.82,15.69-8.37A64.5,64.5,0,0,0,450,237.74c3.44-6.72,5-12.89,4.71-18.34-.37-6.47-3.54-11.7-8.7-14.34a15.16,15.16,0,0,0-7-1.7Z"/><path class="a" d="M444.93,303.9a7.91,7.91,0,0,1-3.62-.85c-2.83-1.45-6-5.26-4.76-15.14a59.3,59.3,0,0,1,6-19c5.08-9.92,11.57-15.38,18.28-15.38a11.29,11.29,0,0,1,5.19,1.25c3.93,2,6.25,5.92,6.54,11,.27,4.72-1.17,10.2-4.28,16.28C462.87,292.66,452.84,303.9,444.93,303.9Z"/><path class="b" d="M460.83,257.54a7.28,7.28,0,0,1,3.37.81c5.14,2.63,6.33,10.56.52,21.92-5.21,10.16-14.26,19.63-19.79,19.63a4,4,0,0,1-1.79-.41c-5.14-2.63-2.84-17.38,3-28.74,4.63-9,10.09-13.21,14.72-13.21m0-8h0c-4.8,0-14,2.28-21.84,17.56-6.15,12-11.46,33.38.5,39.51a11.88,11.88,0,0,0,5.44,1.29c4.91,0,10.19-2.82,15.7-8.37a64.7,64.7,0,0,0,11.21-15.61c9.17-17.92,3.58-28.81-4-32.69a15.33,15.33,0,0,0-7-1.69Z"/><path class="a" d="M459.15,360.38a7.91,7.91,0,0,1-3.62-.85c-8.77-4.49-4.45-23,1.24-34.13,5.08-9.92,11.57-15.38,18.28-15.38a11.29,11.29,0,0,1,5.19,1.25c3.92,2,6.24,5.92,6.54,11,.27,4.73-1.17,10.21-4.29,16.28C477.08,349.14,467.06,360.38,459.15,360.38Z"/><path class="b" d="M475.05,314a7.31,7.31,0,0,1,3.37.81c5.13,2.63,6.33,10.56.51,21.92-5.2,10.16-14.25,19.63-19.78,19.63a3.9,3.9,0,0,1-1.8-.41c-5.13-2.63-2.84-17.38,3-28.74,4.63-9,10.09-13.21,14.72-13.21m0-8h0c-4.8,0-14,2.28-21.84,17.56a63.49,63.49,0,0,0-6.42,20.33c-.81,6.72-.27,15.5,6.92,19.18a11.88,11.88,0,0,0,5.44,1.29c4.91,0,10.19-2.82,15.7-8.37a64.39,64.39,0,0,0,11.2-15.61c9.18-17.92,3.59-28.81-4-32.69a15.26,15.26,0,0,0-7-1.69Z"/><path class="a" d="M391.59,385a62.24,62.24,0,0,1-15.25-2c-10.39-2.71-21.57-9.54-18.87-19.86,1.56-6,7.45-9.58,15.76-9.58a41.58,41.58,0,0,1,10.4,1.48,59.17,59.17,0,0,1,18.17,8.16c8.17,5.68,8.93,10.55,8.12,13.63C408.55,382.11,402,385,391.59,385Z"/><path class="b" d="M373.23,357.59a37.79,37.79,0,0,1,9.39,1.35c12.35,3.22,24.89,11.33,23.43,16.91-.9,3.47-7,5.15-14.46,5.15a57.86,57.86,0,0,1-14.24-1.84c-12.35-3.22-17.47-9.39-16-15,1-4,5.14-6.59,11.89-6.59m0-8h0c-15.18,0-18.87,9.63-19.63,12.57-2.15,8.24,2.25,19.66,21.73,24.74a66.06,66.06,0,0,0,16.26,2.1c7.21,0,19.68-1.44,22.2-11.13.68-2.6.78-6.66-2.58-11.28a29.82,29.82,0,0,0-7.13-6.65,63.24,63.24,0,0,0-19.44-8.74,45.38,45.38,0,0,0-11.41-1.61Z"/><path class="a" d="M377.81,329.19a62.26,62.26,0,0,1-15.26-2c-6.61-1.73-11.65-4.3-15-7.65-3.61-3.61-5-7.95-3.87-12.21,1.57-6,7.46-9.58,15.76-9.58a41.66,41.66,0,0,1,10.41,1.48A59,59,0,0,1,388,307.41c8.18,5.69,8.93,10.55,8.13,13.64C394.77,326.3,388.26,329.19,377.81,329.19Z"/><path class="b" d="M359.44,301.78a37.33,37.33,0,0,1,9.4,1.35c12.35,3.22,24.89,11.32,23.43,16.91-.91,3.47-7,5.15-14.46,5.15a57.94,57.94,0,0,1-14.25-1.84c-12.35-3.22-17.47-9.4-16-15,1-4,5.14-6.59,11.89-6.59m0-8h0c-15.17,0-18.86,9.62-19.63,12.57-2.15,8.24,2.25,19.66,21.73,24.74a66.56,66.56,0,0,0,16.27,2.1c7.21,0,19.67-1.45,22.2-11.13,3.39-13-16.08-23.26-29.15-26.67a45.39,45.39,0,0,0-11.42-1.61Z"/><path class="a" d="M366.91,277.79a61.78,61.78,0,0,1-15.25-2c-10.39-2.71-21.57-9.53-18.88-19.85,1.57-6,7.46-9.58,15.76-9.58A41.55,41.55,0,0,1,359,247.85c12.08,3.15,28.78,12.26,26.29,21.79C383.87,274.89,377.36,277.79,366.91,277.79Z"/><path class="b" d="M348.54,250.38a37.74,37.74,0,0,1,9.4,1.34c12.35,3.22,24.89,11.33,23.43,16.91-.9,3.48-7,5.16-14.46,5.16a57.88,57.88,0,0,1-14.24-1.85c-12.35-3.22-17.47-9.39-16-15,1-4,5.15-6.59,11.89-6.59m0-8h0c-15.18,0-18.87,9.62-19.64,12.57-2.15,8.23,2.26,19.65,21.74,24.73a66,66,0,0,0,16.26,2.11c7.21,0,19.68-1.45,22.2-11.14.68-2.59.78-6.66-2.58-11.27a29.81,29.81,0,0,0-7.13-6.65A63.13,63.13,0,0,0,360,244a45.8,45.8,0,0,0-11.41-1.6Z"/><polyline class="c" points="385.71 269.94 404.06 275.24 418.47 257.89"/><polyline class="c" points="394.32 320.39 420.44 326.15 439.34 303.83"/><polyline class="c" points="405.68 376.54 437.29 379.4 455.12 358.35"/><path class="a" d="M473.73,417.14a7.78,7.78,0,0,1-3.62-.85c-2.84-1.45-6-5.25-4.77-15.13a59.17,59.17,0,0,1,6-19c5.08-9.92,11.57-15.38,18.28-15.38a11.29,11.29,0,0,1,5.19,1.25c9.49,4.86,7.15,17.74,2.25,27.3C491.66,405.91,481.64,417.14,473.73,417.14Z"/><path class="b" d="M489.63,370.79a7.31,7.31,0,0,1,3.37.81c5.13,2.63,6.33,10.56.51,21.92-5.2,10.16-14.25,19.62-19.78,19.62a3.9,3.9,0,0,1-1.8-.41c-5.13-2.63-2.84-17.38,3-28.74,4.63-9,10.09-13.2,14.72-13.2m0-8h0c-4.8,0-14,2.28-21.84,17.56-6.16,12-11.47,33.38.5,39.5a11.76,11.76,0,0,0,5.44,1.29c4.91,0,10.19-2.81,15.69-8.37a64.23,64.23,0,0,0,11.21-15.61c3.44-6.72,5-12.89,4.72-18.34-.37-6.47-3.55-11.7-8.71-14.34a15.14,15.14,0,0,0-7-1.69Z"/><path class="a" d="M406.17,441.77a62.24,62.24,0,0,1-15.25-2c-6.61-1.73-11.66-4.3-15-7.65-3.61-3.61-5-7.95-3.88-12.21,1.57-6,7.46-9.58,15.77-9.58a42,42,0,0,1,10.4,1.47c12.08,3.16,28.78,12.26,26.29,21.8C423.13,438.88,416.62,441.77,406.17,441.77Z"/><path class="b" d="M387.81,414.36a37.32,37.32,0,0,1,9.39,1.35c12.35,3.22,24.89,11.32,23.43,16.91-.9,3.47-7,5.15-14.46,5.15a57.86,57.86,0,0,1-14.24-1.84c-12.35-3.22-17.47-9.4-16-15,1-4,5.14-6.59,11.89-6.59m0-8h0c-15.18,0-18.87,9.62-19.64,12.57-1.46,5.61.33,11.46,4.92,16.05,3.85,3.86,9.51,6.78,16.82,8.69a66.54,66.54,0,0,0,16.26,2.1c7.21,0,19.68-1.45,22.2-11.13.68-2.6.78-6.67-2.58-11.28a29.82,29.82,0,0,0-7.13-6.65A63.26,63.26,0,0,0,399.22,408a45.8,45.8,0,0,0-11.41-1.6Z"/><polyline class="c" points="420.25 433.3 451.87 436.17 469.7 415.12"/><path class="a" d="M488.62,475.3a7.9,7.9,0,0,1-3.62-.84c-2.84-1.46-6-5.26-4.77-15.14a58.93,58.93,0,0,1,6-19c5.08-9.92,11.57-15.38,18.27-15.38a11.33,11.33,0,0,1,5.2,1.25c9.49,4.86,7.14,17.74,2.25,27.3C506.55,464.07,496.53,475.3,488.62,475.3Z"/><path class="b" d="M504.51,429a7.28,7.28,0,0,1,3.37.81c5.14,2.63,6.34,10.56.52,21.92-5.2,10.16-14.25,19.62-19.78,19.62a3.87,3.87,0,0,1-1.8-.41c-5.14-2.63-2.84-17.38,3-28.74,4.63-9,10.09-13.2,14.71-13.2m0-8h0c-4.79,0-14,2.28-21.83,17.56a63.36,63.36,0,0,0-6.42,20.32c-.81,6.72-.28,15.5,6.92,19.19a11.84,11.84,0,0,0,5.44,1.28c4.91,0,10.19-2.81,15.69-8.37a64.5,64.5,0,0,0,11.21-15.61c3.44-6.72,5-12.89,4.72-18.33-.38-6.48-3.55-11.71-8.71-14.35a15.26,15.26,0,0,0-7-1.69Z"/><path class="a" d="M421.06,499.93a62.24,62.24,0,0,1-15.25-2c-10.39-2.71-21.57-9.54-18.88-19.86,1.57-6,7.46-9.58,15.77-9.58A41.58,41.58,0,0,1,413.1,470c12.08,3.15,28.78,12.25,26.29,21.79C438,497,431.51,499.93,421.06,499.93Z"/><path class="b" d="M402.69,472.52a37.33,37.33,0,0,1,9.4,1.35c12.35,3.22,24.89,11.32,23.43,16.91-.9,3.47-7,5.15-14.46,5.15a57.86,57.86,0,0,1-14.24-1.84c-12.35-3.22-17.47-9.39-16-15,1-4,5.15-6.59,11.89-6.59m0-8h0c-15.18,0-18.87,9.62-19.64,12.57-1.46,5.61.33,11.46,4.91,16.05,3.86,3.86,9.52,6.78,16.83,8.69a66.48,66.48,0,0,0,16.26,2.1c7.21,0,19.68-1.45,22.2-11.13,3.4-13-16.08-23.26-29.15-26.67a45.38,45.38,0,0,0-11.41-1.61Z"/><polyline class="c" points="435.14 491.46 466.76 494.33 484.59 473.28"/><path class="a" d="M474.69,573c-10.44,0-15.82-12.07-17.37-23.37a65.78,65.78,0,0,1,.68-22.15c2.33-10.64,6.86-13.42,10.25-13.89a9.79,9.79,0,0,1,1.08-.07c4.59,0,9,3.87,12.79,11.19a66.42,66.42,0,0,1,6.35,20.65c1.61,11.71-.6,25.94-12.09,27.52A12,12,0,0,1,474.69,573Z"/><path class="b" d="M469.33,517.53c6.28,0,13.29,14.6,15.18,28.39,1.94,14.18-2.27,22.13-8.68,23a8.74,8.74,0,0,1-1.14.08c-6,0-11.58-6.57-13.41-19.91-1.94-14.18,1.1-30.65,7.51-31.53a3.27,3.27,0,0,1,.54,0m0-8a12.75,12.75,0,0,0-1.63.11c-8.42,1.16-12.05,9.88-13.61,17a69.93,69.93,0,0,0-.73,23.56c1.05,7.69,3.26,13.93,6.57,18.53,3.83,5.34,9.08,8.29,14.76,8.29a15.21,15.21,0,0,0,2.23-.16c9-1.23,18.48-10.36,15.51-32-1.94-14.19-9.7-35.3-23.1-35.3Z"/><path class="c" d="M211.57,560.74C200.23,630.59,191.18,708,189.36,780.16"/><path class="a" d="M195.88,510.84c-7.79,0-18.42-9.18-24.9-18.25-6.24-8.74-10.44-21.14-1.76-27.34a11.5,11.5,0,0,1,6.72-2.13c6.13,0,12.73,4.5,18.56,12.68a59.29,59.29,0,0,1,8.72,17.9c2.63,9.6.09,13.82-2.5,15.67a8.11,8.11,0,0,1-4.84,1.47Z"/><path class="b" d="M175.94,467.12c4.4,0,9.9,3.43,15.31,11,7.41,10.39,11.84,24.65,7.14,28a4.24,4.24,0,0,1-2.51.72c-5.63,0-15.32-7.72-21.64-16.58-7.42-10.38-7.4-18.4-2.7-21.76a7.49,7.49,0,0,1,4.4-1.38m0-8a15.53,15.53,0,0,0-9.05,2.87c-6.92,4.95-10.86,16.54.83,32.92,6.86,9.6,18.59,19.93,28.16,19.93a12.2,12.2,0,0,0,7.16-2.21c10.94-7.81,2.57-28.16-5.28-39.16-4.68-6.54-12.26-14.35-21.82-14.35Z"/><path class="a" d="M181.06,559.71c-7.79,0-18.42-9.18-24.9-18.25-4-5.56-6.19-10.77-6.62-15.49-.45-5.08,1.27-9.29,4.86-11.85a11.47,11.47,0,0,1,6.71-2.13c6.14,0,12.74,4.5,18.57,12.67,7.25,10.16,14.24,27.85,6.22,33.58a8.11,8.11,0,0,1-4.84,1.47Z"/><path class="b" d="M161.11,516c4.41,0,9.91,3.43,15.31,11,7.42,10.39,11.85,24.64,7.15,28a4.24,4.24,0,0,1-2.51.72c-5.63,0-15.32-7.72-21.64-16.58-7.42-10.39-7.4-18.41-2.7-21.76a7.41,7.41,0,0,1,4.39-1.38m0-8a15.45,15.45,0,0,0-9,2.87c-4.72,3.37-7.09,9-6.51,15.47.49,5.43,3,11.3,7.34,17.45,6.86,9.6,18.59,19.93,28.16,19.93a12.27,12.27,0,0,0,7.16-2.21c10.94-7.81,2.56-28.16-5.28-39.16-4.68-6.55-12.26-14.35-21.83-14.35Z"/><path class="a" d="M175.25,617.66c-7.79,0-18.42-9.18-24.89-18.25-6.24-8.74-10.45-21.14-1.77-27.34a11.5,11.5,0,0,1,6.72-2.13c6.14,0,12.73,4.5,18.57,12.68a59,59,0,0,1,8.71,17.9c2.64,9.6.1,13.82-2.5,15.67a8.08,8.08,0,0,1-4.83,1.47Z"/><path class="b" d="M155.31,573.94c4.4,0,9.91,3.43,15.31,11,7.42,10.39,11.85,24.65,7.15,28a4.24,4.24,0,0,1-2.51.72c-5.63,0-15.32-7.72-21.65-16.58-7.41-10.38-7.39-18.4-2.69-21.76a7.46,7.46,0,0,1,4.39-1.38m0-8a15.52,15.52,0,0,0-9,2.87c-4.72,3.37-7.09,9-6.52,15.47.49,5.44,3,11.31,7.35,17.45,6.85,9.6,18.59,19.93,28.16,19.93a12.22,12.22,0,0,0,7.16-2.21c10.94-7.81,2.56-28.16-5.29-39.16-4.67-6.54-12.25-14.35-21.82-14.35Z"/><path class="a" d="M240.65,632.55c-8.6,0-11.77-3.2-12.91-5.88-1.24-2.93-1.21-7.86,6-14.67a59.23,59.23,0,0,1,16.77-10.73A36.16,36.16,0,0,1,264.47,598c6.35,0,11.15,2.72,13.17,7.47,1.72,4.06,1,8.55-2.05,12.65-2.82,3.8-7.43,7.08-13.72,9.75a57.5,57.5,0,0,1-21.22,4.69Z"/><path class="b" d="M264.47,602c4.88,0,8.15,1.9,9.49,5,2.25,5.31-1.91,12.16-13.65,17.15a53.75,53.75,0,0,1-19.66,4.37c-4.67,0-8.21-1.06-9.22-3.44-2.26-5.31,8.95-15.17,20.7-20.16a32.45,32.45,0,0,1,12.34-3m0-8a40.06,40.06,0,0,0-15.47,3.6,63.06,63.06,0,0,0-17.95,11.49c-4.93,4.64-10.15,11.72-7,19.16,1.62,3.79,5.8,8.31,16.59,8.31a61.94,61.94,0,0,0,22.79-5c18.52-7.88,21.21-19.82,17.88-27.65-2.64-6.21-8.94-9.91-16.85-9.91Z"/><polyline class="c" points="217.62 575.11 209.93 578.04 187.97 558.73"/><polyline class="c" points="231.9 625.73 201.04 633.19 180.33 614.97"/><path class="a" d="M169.13,676c-7.79,0-18.42-9.19-24.9-18.25-6.23-8.74-10.44-21.15-1.76-27.34a11.5,11.5,0,0,1,6.72-2.13c6.14,0,12.73,4.5,18.57,12.67a59.07,59.07,0,0,1,8.71,17.91c2.63,9.6.09,13.82-2.5,15.67a8.08,8.08,0,0,1-4.83,1.47Z"/><path class="b" d="M149.19,632.23c4.4,0,9.9,3.43,15.31,11,7.41,10.39,11.84,24.64,7.15,28a4.25,4.25,0,0,1-2.52.72c-5.62,0-15.32-7.72-21.64-16.58C140.08,645,140.1,637,144.8,633.61a7.39,7.39,0,0,1,4.39-1.38m0-8a15.43,15.43,0,0,0-9,2.87c-4.72,3.37-7.1,9-6.52,15.47.49,5.43,3,11.3,7.35,17.45,6.85,9.6,18.59,19.93,28.15,19.93a12.3,12.3,0,0,0,7.17-2.21c6.57-4.7,5.82-13.46,4-20A63.27,63.27,0,0,0,171,638.58c-4.67-6.55-12.25-14.35-21.82-14.35Z"/><path class="a" d="M234.53,690.84c-8.6,0-11.77-3.2-12.91-5.88-3.85-9.07,11.34-20.52,22.82-25.4a36.16,36.16,0,0,1,13.91-3.28c6.35,0,11.15,2.72,13.17,7.47,1.72,4,1,8.54-2,12.64-2.82,3.81-7.44,7.09-13.72,9.76a57.5,57.5,0,0,1-21.22,4.69Z"/><path class="b" d="M258.35,660.28c4.88,0,8.15,1.9,9.48,5,2.26,5.31-1.9,12.17-13.65,17.16a53.66,53.66,0,0,1-19.65,4.37c-4.67,0-8.21-1.07-9.23-3.45-2.25-5.31,9-15.16,20.71-20.15a32.26,32.26,0,0,1,12.34-3m0-8a40.06,40.06,0,0,0-15.47,3.6c-12.43,5.28-30.2,18.28-24.94,30.64,1.61,3.8,5.8,8.32,16.59,8.32a61.66,61.66,0,0,0,22.78-5c6.95-3,12.12-6.67,15.38-11.05,3.86-5.21,4.78-11.26,2.51-16.6-2.64-6.2-8.94-9.9-16.85-9.9Z"/><polyline class="c" points="225.78 684.02 194.92 691.47 174.21 673.26"/><path class="a" d="M162.91,735.66c-7.79,0-18.42-9.18-24.9-18.25-4-5.56-6.19-10.77-6.62-15.49-.45-5.08,1.27-9.29,4.86-11.85a11.5,11.5,0,0,1,6.72-2.13c6.14,0,12.73,4.5,18.56,12.68,7.25,10.15,14.24,27.85,6.22,33.58a8.18,8.18,0,0,1-4.84,1.46Z"/><path class="b" d="M143,691.94c4.4,0,9.9,3.43,15.31,11,7.41,10.39,11.84,24.65,7.14,28a4.24,4.24,0,0,1-2.51.72c-5.63,0-15.32-7.72-21.64-16.58-7.42-10.38-7.39-18.4-2.7-21.76a7.51,7.51,0,0,1,4.4-1.38m0-8a15.5,15.5,0,0,0-9,2.87c-4.72,3.37-7.1,9-6.52,15.47.49,5.44,3,11.31,7.35,17.45,6.85,9.6,18.58,19.93,28.15,19.93a12.18,12.18,0,0,0,7.16-2.21c10.94-7.81,2.57-28.16-5.28-39.16-4.68-6.54-12.25-14.35-21.82-14.35Z"/><path class="a" d="M228.3,750.55c-8.6,0-11.76-3.2-12.9-5.88-1.25-2.93-1.21-7.86,6-14.67a59.29,59.29,0,0,1,16.78-10.73A36.08,36.08,0,0,1,252.13,716c6.35,0,11.14,2.72,13.16,7.47,4.18,9.82-5.88,18.2-15.76,22.4a57.55,57.55,0,0,1-21.23,4.69Z"/><path class="b" d="M252.13,720c4.87,0,8.15,1.9,9.48,5,2.26,5.31-1.9,12.16-13.65,17.15a53.67,53.67,0,0,1-19.66,4.37c-4.66,0-8.21-1.06-9.22-3.44-2.26-5.31,9-15.17,20.7-20.16a32.53,32.53,0,0,1,12.35-3m0-8a40.1,40.1,0,0,0-15.48,3.6c-12.43,5.28-30.19,18.28-24.93,30.65,1.61,3.79,5.8,8.31,16.58,8.31a61.85,61.85,0,0,0,22.79-5c7-3,12.12-6.68,15.37-11.06,3.87-5.21,4.78-11.26,2.51-16.59-2.63-6.21-8.93-9.91-16.84-9.91Z"/><polyline class="c" points="219.56 743.73 188.7 751.19 167.98 732.97"/><path class="a" d="M190.54,830.31c-11.5,0-15.73-13.71-15.86-25.45-.14-13.8,4.64-34.27,15.36-34.39s15.94,20.32,16.09,34.06c.12,11.81-3.85,25.66-15.45,25.78Z"/><path class="b" d="M190.13,774.47c6.45,0,11.85,15.81,12,30.1s-5,21.67-11.5,21.74h-.09c-6.43,0-11.71-7.25-11.86-21.5s4.93-30.27,11.41-30.34h0m0-8H190c-8.5.09-13.19,8.29-15.64,15.15a70.19,70.19,0,0,0-3.68,23.28c.09,8.25,1.67,15,4.71,20.1,3.52,5.92,9.05,9.31,15.15,9.31h.18c9.09-.09,19.64-8,19.41-29.83-.16-14.69-5.73-38-20-38Z"/><path class="e" d="M315.74,726.92l120-101.76S283.61,501.67,283.61,143.49l-140.11,18C143.5,594.35,315.74,726.92,315.74,726.92Z"/><circle class="f" cx="395.92" cy="785.92" r="104.08"/><path class="g" d="M408.52,768.58c0-7.14.58-18.89,1-26h-.85c-3.41,6.48-7.25,12.42-11.08,19.17l-31.74,46.43h77.76v14H347.51V810.55l58.12-86.78H425.1V859.62H408.52Z"/></svg>