<svg xmlns="http://www.w3.org/2000/svg" width="510" height="900" viewBox="0 0 510 900"><defs><style>.a,.f{fill:#8c76d6;}.b{fill:#432d1e;}.c{fill:none;}.c,.d,.e{stroke:#432d1e;}.c,.d{stroke-miterlimit:10;stroke-width:8px;}.d{fill:#56634a;}.e{fill:#fff;stroke-width:15px;}.e,.f{stroke-miterlimit:2;}.f{stroke:#8c76d6;stroke-width:12px;}</style></defs><title>42</title><path class="a" d="M28.33,389.19c-7.75,0-18.47-9.81-24.63-19-3.79-5.68-5.86-11-6.13-15.69-.3-5.09,1.56-9.25,5.22-11.69a11.44,11.44,0,0,1,6.4-1.93c6.25,0,12.84,4.71,18.54,13.26,6.93,10.38,13.36,28.28,5.16,33.76a8.08,8.08,0,0,1-4.56,1.32Z"/><path class="b" d="M9.19,344.86c4.44,0,10,3.58,15.22,11.47,7.08,10.62,11.06,25,6.26,28.21a4.14,4.14,0,0,1-2.34.65c-5.6,0-15.19-8.1-21.3-17.26C-.06,357.32.21,349.31,5,346.1a7.41,7.41,0,0,1,4.18-1.24m0-8a15.43,15.43,0,0,0-8.62,2.59c-4.82,3.22-7.37,8.78-7,15.25.31,5.45,2.6,11.4,6.79,17.68,6.69,10,18.29,20.81,28,20.81a12.16,12.16,0,0,0,6.79-2c6.72-4.48,6.24-13.27,4.66-19.85a63.25,63.25,0,0,0-8.72-19.45c-6.47-9.7-14.24-15-21.87-15Z"/><path class="a" d="M94.05,406.13c-9.43,0-12.74-3.43-13.86-6.3-3.57-9.19,12-20.16,23.61-24.68a37.28,37.28,0,0,1,13.27-2.85c6.73,0,11.71,2.88,13.66,7.89,1.59,4.11.73,8.58-2.44,12.58-2.94,3.71-7.66,6.85-14,9.32a59.15,59.15,0,0,1-20.22,4Z"/><path class="b" d="M117.07,376.3c5.21,0,8.64,2,9.93,5.34,2.09,5.38-2.29,12.1-14.18,16.72a54.71,54.71,0,0,1-18.77,3.77c-5.16,0-9.12-1.17-10.13-3.75-2.09-5.38,9.43-14.87,21.33-19.5a33.35,33.35,0,0,1,11.82-2.58m0-8a41,41,0,0,0-14.72,3.13c-12.59,4.89-30.75,17.32-25.88,29.85,2.84,7.31,11.13,8.85,17.58,8.85a62.48,62.48,0,0,0,21.67-4.31c7-2.74,12.32-6.29,15.71-10.57,4-5.09,5.13-11.1,3-16.51-2.54-6.53-9-10.44-17.39-10.44Z"/><polyline class="c" points="84.38 399.02 53.3 405.51 33.17 386.65"/><path class="a" d="M28.38,447.25c-7.74,0-18.47-9.8-24.63-19-3.79-5.68-5.85-11-6.12-15.68-.3-5.1,1.55-9.25,5.22-11.7a11.51,11.51,0,0,1,6.39-1.92c6.26,0,12.84,4.71,18.55,13.26a59.09,59.09,0,0,1,8.15,18.16c2.33,9.68-.34,13.82-3,15.59a8,8,0,0,1-4.57,1.32Z"/><path class="b" d="M9.24,402.92c4.45,0,10,3.58,15.22,11.48,7.09,10.61,11.07,25,6.27,28.21a4.14,4.14,0,0,1-2.35.64c-5.6,0-15.19-8.1-21.3-17.25C0,415.39.27,407.37,5.07,404.17a7.41,7.41,0,0,1,4.17-1.25m0-8a15.43,15.43,0,0,0-8.61,2.6c-4.82,3.21-7.37,8.78-7,15.25.32,5.45,2.61,11.39,6.8,17.67,6.69,10,18.29,20.81,28,20.81a12.18,12.18,0,0,0,6.79-2c6.72-4.49,6.24-13.27,4.66-19.85A63.22,63.22,0,0,0,31.12,410c-6.48-9.7-14.24-15-21.88-15Z"/><path class="a" d="M94.11,464.2c-9.43,0-12.74-3.43-13.86-6.3s-1-7.9,6.5-14.48a59.08,59.08,0,0,1,17.11-10.2,37.23,37.23,0,0,1,13.27-2.85c6.73,0,11.71,2.88,13.65,7.89,1.6,4.11.73,8.57-2.43,12.57-2.94,3.72-7.66,6.85-14,9.33a59.09,59.09,0,0,1-20.21,4Z"/><path class="b" d="M117.13,434.37c5.21,0,8.64,2,9.93,5.34,2.09,5.38-2.29,12.1-14.18,16.72a55,55,0,0,1-18.77,3.77C88.94,460.2,85,459,84,456.45c-2.09-5.38,9.43-14.88,21.32-19.5a33.44,33.44,0,0,1,11.83-2.58m0-8a41.18,41.18,0,0,0-14.72,3.12A63.4,63.4,0,0,0,84.1,440.42c-5.07,4.48-10.5,11.4-7.58,18.93,2.85,7.31,11.13,8.85,17.59,8.85a62.61,62.61,0,0,0,21.66-4.31c7-2.74,12.33-6.3,15.71-10.57,4-5.09,5.13-11.11,3-16.51-2.54-6.54-9-10.44-17.38-10.44Z"/><polyline class="c" points="84.43 457.09 53.36 463.57 33.22 444.72"/><path class="a" d="M30.29,506.74c-7.74,0-18.47-9.8-24.62-19C1.87,482-.19,476.75-.46,472c-.3-5.1,1.55-9.25,5.22-11.7a11.51,11.51,0,0,1,6.39-1.92c6.26,0,12.84,4.71,18.55,13.26a59,59,0,0,1,8.15,18.16c2.33,9.68-.34,13.82-3,15.59a8,8,0,0,1-4.57,1.32Z"/><path class="b" d="M11.15,462.41c4.45,0,10,3.58,15.22,11.48,7.09,10.61,11.07,25,6.27,28.2a4.07,4.07,0,0,1-2.35.65c-5.6,0-15.19-8.1-21.3-17.25-7.08-10.61-6.81-18.63-2-21.83a7.41,7.41,0,0,1,4.17-1.25m0-8A15.5,15.5,0,0,0,2.54,457c-4.82,3.22-7.37,8.78-7,15.26.32,5.45,2.61,11.39,6.8,17.67,6.69,10,18.29,20.81,28,20.81a12.18,12.18,0,0,0,6.79-2c11.18-7.46,3.45-28.07-4-39.3-6.48-9.7-14.24-15-21.88-15Z"/><path class="a" d="M96,523.68c-9.43,0-12.74-3.42-13.86-6.29-3.57-9.19,12-20.16,23.61-24.68A37.23,37.23,0,0,1,119,489.86c6.73,0,11.71,2.87,13.65,7.89,1.6,4.1.73,8.57-2.43,12.57-2.94,3.72-7.66,6.85-14,9.33a59.31,59.31,0,0,1-20.21,4Z"/><path class="b" d="M119,493.86c5.21,0,8.64,2,9.93,5.34,2.09,5.38-2.29,12.1-14.18,16.72A55,55,0,0,1,96,519.68c-5.17,0-9.13-1.16-10.13-3.74-2.09-5.38,9.43-14.88,21.32-19.5A33.44,33.44,0,0,1,119,493.86m0-8A41.18,41.18,0,0,0,104.32,489c-12.59,4.9-30.76,17.33-25.89,29.86,2.85,7.31,11.13,8.84,17.59,8.84a62.38,62.38,0,0,0,21.66-4.31c7-2.73,12.33-6.29,15.71-10.56,4-5.09,5.13-11.11,3-16.51-2.54-6.54-9-10.44-17.38-10.44Z"/><polyline class="c" points="86.34 516.58 55.27 523.06 35.13 504.2"/><path class="a" d="M28.38,328.34c-7.74,0-18.47-9.8-24.63-19C0,303.63-2.1,298.36-2.37,293.63c-.3-5.09,1.55-9.25,5.22-11.7A11.51,11.51,0,0,1,9.24,280c6.26,0,12.84,4.71,18.55,13.26C34.72,303.65,41.15,321.55,33,327a8,8,0,0,1-4.57,1.32Z"/><path class="b" d="M9.24,284c4.45,0,10,3.59,15.22,11.48,7.09,10.61,11.07,25,6.27,28.21a4.14,4.14,0,0,1-2.35.64c-5.6,0-15.19-8.09-21.3-17.25C0,296.48.27,288.47,5.07,285.26A7.41,7.41,0,0,1,9.24,284m0-8a15.43,15.43,0,0,0-8.61,2.6c-4.82,3.22-7.37,8.78-7,15.25.32,5.45,2.61,11.4,6.8,17.68,6.69,10,18.29,20.8,28,20.8a12.11,12.11,0,0,0,6.79-2c6.72-4.48,6.25-13.27,4.66-19.85a63.22,63.22,0,0,0-8.71-19.45c-6.48-9.7-14.24-15-21.88-15Z"/><path class="a" d="M94.11,345.29c-9.43,0-12.74-3.43-13.86-6.3s-1-7.89,6.5-14.48a59.3,59.3,0,0,1,17.11-10.2,37.23,37.23,0,0,1,13.27-2.85c6.73,0,11.71,2.88,13.65,7.89,1.6,4.11.73,8.57-2.43,12.58-2.94,3.71-7.66,6.85-14,9.32a59.09,59.09,0,0,1-20.21,4Z"/><path class="b" d="M117.13,315.46c5.21,0,8.64,2,9.93,5.34,2.09,5.38-2.29,12.1-14.19,16.72a54.89,54.89,0,0,1-18.76,3.77c-5.17,0-9.13-1.17-10.13-3.75-2.09-5.38,9.43-14.88,21.32-19.5a33.44,33.44,0,0,1,11.83-2.58m0-8a41,41,0,0,0-14.72,3.13A63.16,63.16,0,0,0,84.1,321.51C79,326,73.6,332.91,76.52,340.44c2.85,7.31,11.13,8.85,17.59,8.85A62.38,62.38,0,0,0,115.77,345c7-2.74,12.33-6.29,15.71-10.57,4-5.09,5.13-11.1,3-16.51-2.54-6.53-9-10.44-17.38-10.44Z"/><polyline class="c" points="84.43 338.18 53.36 344.67 33.22 325.81"/><path class="a" d="M57.44,602.2c-7.35,0-15.48-6.56-16.25-25a65.73,65.73,0,0,1,2.78-22c3.33-10.37,8.11-12.71,11.52-12.85h.33c10.51,0,16.23,20,16.79,33.55.49,11.81-3.06,25.77-14.65,26.25Z"/><path class="b" d="M55.82,546.39c6.4,0,12.21,15.53,12.79,29.72s-4.35,21.82-10.81,22.08h-.36c-6.31,0-11.67-7.08-12.25-21.13-.59-14.3,4-30.41,10.47-30.67h.16m0-8h-.5c-14.35.6-18.73,24.24-18.12,39,.33,8.13,2.08,14.77,5.18,19.74,3.65,5.84,9,9.06,15.06,9.06h.69c9.09-.38,19.38-8.57,18.48-30.41-.6-14.46-6.77-37.39-20.79-37.39Z"/><path class="c" d="M68.66,249.86C43.57,333.35,55.93,546.38,55.93,546.38"/><path class="c" d="M254.24,162.25C265.08,182,280,514.76,270,635.5"/><path class="a" d="M293.63,367.09a8.53,8.53,0,0,1-5.82-2c-2.38-2.11-4.45-6.58-.8-15.85a59.19,59.19,0,0,1,10.59-16.86c6.22-7,12.59-10.68,18.43-10.68a11.6,11.6,0,0,1,7.84,2.9c3.29,2.93,4.55,7.31,3.55,12.31-.92,4.64-3.7,9.59-8.24,14.69C312.31,359.28,301.32,367.09,293.63,367.09Z"/><path class="b" d="M316,325.66a7.58,7.58,0,0,1,5.18,1.89c4.31,3.84,3.47,11.82-5,21.35-6.93,7.78-16.82,14.19-22.56,14.19a4.62,4.62,0,0,1-3.16-1c-4.31-3.84,1.63-17.54,10.12-27.07,5.74-6.46,11.19-9.34,15.44-9.34m0-8h0c-7,0-14.42,4.15-21.42,12-9,10.09-19.49,29.42-9.46,38.36a12.47,12.47,0,0,0,8.48,3c4.37,0,9.46-1.82,15.13-5.42a66.13,66.13,0,0,0,13.41-11.45c13.39-15,10.71-27,4.36-32.64a15.5,15.5,0,0,0-10.5-3.92Z"/><path class="a" d="M303.12,417.27a8.53,8.53,0,0,1-5.82-2c-7.36-6.55,1.49-23.4,9.79-32.72,6.22-7,12.59-10.68,18.43-10.68a11.61,11.61,0,0,1,7.84,2.91c3.29,2.93,4.55,7.3,3.55,12.31-.92,4.64-3.7,9.58-8.24,14.68C321.8,409.45,310.81,417.27,303.12,417.27Z"/><path class="b" d="M325.52,375.83a7.58,7.58,0,0,1,5.18,1.9c4.31,3.84,3.47,11.81-5,21.34-6.93,7.79-16.82,14.2-22.56,14.2a4.58,4.58,0,0,1-3.16-1c-4.31-3.84,1.63-17.53,10.12-27.07,5.74-6.45,11.19-9.34,15.44-9.34m0-8h0c-7,0-14.42,4.16-21.42,12-9,10.09-19.49,29.43-9.46,38.37a12.47,12.47,0,0,0,8.48,3c4.37,0,9.46-1.83,15.13-5.43a65.82,65.82,0,0,0,13.41-11.45c13.39-15,10.71-27,4.36-32.64a15.55,15.55,0,0,0-10.5-3.92Z"/><path class="a" d="M302.67,475.51a8.53,8.53,0,0,1-5.82-2c-2.38-2.12-4.45-6.59-.8-15.85a59.19,59.19,0,0,1,10.59-16.86c6.22-7,12.59-10.69,18.43-10.69a11.61,11.61,0,0,1,7.84,2.91c8,7.09,2.45,19-4.69,27C321.35,467.69,310.36,475.51,302.67,475.51Z"/><path class="b" d="M325.07,434.07a7.58,7.58,0,0,1,5.18,1.9c4.31,3.84,3.47,11.81-5,21.34-6.93,7.79-16.82,14.2-22.56,14.2a4.58,4.58,0,0,1-3.16-1c-4.31-3.83,1.63-17.53,10.12-27.06,5.74-6.46,11.19-9.35,15.44-9.35m0-8h0c-7,0-14.42,4.16-21.42,12a63.43,63.43,0,0,0-11.32,18.06c-2.48,6.3-4.17,14.94,1.86,20.31a12.47,12.47,0,0,0,8.48,3.05c4.37,0,9.46-1.83,15.13-5.43a65.82,65.82,0,0,0,13.41-11.45c5-5.64,8.11-11.21,9.17-16.56,1.27-6.36-.48-12.22-4.81-16.08a15.55,15.55,0,0,0-10.5-3.92Z"/><path class="a" d="M238,483.41c-6.69,0-16-2.79-23.74-7.11-6-3.34-10.2-7.09-12.6-11.18-2.58-4.4-2.82-8.94-.67-12.79s6.34-6.14,11.64-6.14c4.64,0,9.93,1.64,15.72,4.88a59.12,59.12,0,0,1,15.53,12.46c6.48,7.56,6,12.46,4.43,15.24C247.17,480.89,244.42,483.41,238,483.41Z"/><path class="b" d="M212.67,450.19c3.69,0,8.36,1.34,13.77,4.37,11.14,6.22,21.24,17.22,18.42,22.26-1,1.8-3.51,2.59-6.82,2.59-6,0-14.62-2.6-21.79-6.61-11.14-6.22-14.55-13.48-11.73-18.52,1.44-2.59,4.25-4.09,8.15-4.09m0-8h0c-6.71,0-12.23,3-15.14,8.19-4.15,7.43-2.76,19.59,14.82,29.41,8.41,4.7,18.26,7.62,25.69,7.62,8.32,0,12.1-3.63,13.81-6.69,6.55-11.73-9.71-26.55-21.51-33.14C224,444,218,442.19,212.67,442.19Z"/><path class="a" d="M238.74,425.93c-6.69,0-16-2.8-23.74-7.12-6-3.33-10.2-7.09-12.6-11.18-2.59-4.4-2.82-8.94-.68-12.79s6.35-6.13,11.65-6.13c4.64,0,9.93,1.64,15.72,4.87a59.15,59.15,0,0,1,15.53,12.47c6.48,7.55,6,12.46,4.43,15.24C247.87,423.4,245.12,425.93,238.74,425.93Z"/><path class="b" d="M213.37,392.71c3.69,0,8.35,1.34,13.77,4.36,11.14,6.23,21.24,17.23,18.42,22.27-1,1.79-3.51,2.59-6.82,2.59-6,0-14.62-2.6-21.79-6.61-11.14-6.23-14.55-13.49-11.73-18.53,1.44-2.59,4.25-4.08,8.15-4.08m0-8h0c-6.71,0-12.23,3-15.14,8.18-4.15,7.43-2.76,19.59,14.81,29.41,8.42,4.7,18.27,7.63,25.7,7.63,8.32,0,12.1-3.64,13.8-6.69,4-7.05-.48-14.66-4.88-19.8A63.36,63.36,0,0,0,231,390.09c-6.39-3.57-12.34-5.38-17.67-5.38Z"/><path class="a" d="M241.13,373.43c-6.69,0-16-2.79-23.75-7.11-9.37-5.24-18.47-14.66-13.27-24,2.21-4,6.35-6.14,11.65-6.14,4.64,0,9.93,1.64,15.72,4.88,10.89,6.09,24.77,19.1,20,27.7C250.26,370.91,247.51,373.43,241.13,373.43Z"/><path class="b" d="M215.76,340.21c3.68,0,8.35,1.34,13.77,4.37,11.14,6.23,21.23,17.23,18.42,22.26-1,1.8-3.51,2.59-6.82,2.59-6,0-14.63-2.6-21.8-6.6-11.14-6.23-14.54-13.49-11.73-18.53,1.45-2.59,4.26-4.09,8.16-4.09m0-8h0c-6.72,0-12.24,3-15.14,8.19-4.15,7.43-2.76,19.59,14.81,29.41,8.42,4.7,18.26,7.62,25.7,7.62,8.32,0,12.1-3.63,13.8-6.68,6.56-11.74-9.71-26.56-21.5-33.15-6.39-3.57-12.34-5.39-17.67-5.39Z"/><polyline class="c" points="251.82 369.2 268.25 378.94 286.55 365.78"/><polyline class="c" points="247.46 420.19 271.29 432.34 295.19 415.49"/><polyline class="c" points="244.32 477.39 274.2 488.12 296.75 472.23"/><path class="a" d="M302.5,534.12a8.53,8.53,0,0,1-5.82-2c-7.36-6.56,1.49-23.4,9.79-32.72,6.22-7,12.59-10.68,18.43-10.68a11.61,11.61,0,0,1,7.84,2.91c3.29,2.93,4.55,7.3,3.55,12.31-.92,4.64-3.7,9.58-8.24,14.68C321.18,526.3,310.19,534.12,302.5,534.12Z"/><path class="b" d="M324.9,492.68a7.58,7.58,0,0,1,5.18,1.9c4.31,3.83,3.47,11.81-5,21.34-6.93,7.78-16.82,14.2-22.56,14.2a4.63,4.63,0,0,1-3.16-1C295,525.25,301,511.55,309.46,502c5.74-6.45,11.19-9.34,15.44-9.34m0-8h0c-7,0-14.42,4.16-21.42,12-9,10.09-19.49,29.43-9.46,38.37a12.47,12.47,0,0,0,8.48,3c4.37,0,9.46-1.83,15.13-5.43A65.82,65.82,0,0,0,331,521.24c5-5.64,8.11-11.21,9.17-16.56,1.27-6.36-.48-12.22-4.81-16.08a15.55,15.55,0,0,0-10.5-3.92Z"/><path class="a" d="M237.87,542c-6.69,0-16-2.79-23.74-7.12-6-3.33-10.2-7.09-12.6-11.17-2.58-4.4-2.82-9-.67-12.79s6.34-6.14,11.64-6.14c4.64,0,9.93,1.64,15.72,4.88a59.12,59.12,0,0,1,15.53,12.46c6.48,7.56,6,12.46,4.43,15.24C247,539.5,244.25,542,237.87,542Z"/><path class="b" d="M212.5,508.8c3.69,0,8.35,1.34,13.77,4.37,11.14,6.22,21.24,17.22,18.42,22.26-1,1.79-3.51,2.59-6.82,2.59-6,0-14.62-2.6-21.79-6.61-11.14-6.22-14.55-13.48-11.73-18.52,1.44-2.59,4.25-4.09,8.15-4.09m0-8h0c-6.71,0-12.23,3-15.14,8.19-2.82,5.06-2.56,11.17.72,16.76,2.76,4.71,7.5,9,14.1,12.65,8.41,4.7,18.26,7.62,25.69,7.62,8.32,0,12.1-3.64,13.81-6.69,6.55-11.73-9.71-26.56-21.51-33.15-6.39-3.57-12.34-5.38-17.67-5.38Z"/><polyline class="c" points="244.15 536 274.03 546.73 296.58 530.84"/><path class="a" d="M302.28,594.15a8.51,8.51,0,0,1-5.82-2c-2.38-2.11-4.45-6.58-.8-15.85a59.19,59.19,0,0,1,10.59-16.86c6.22-7,12.59-10.68,18.43-10.68a11.6,11.6,0,0,1,7.84,2.9c8,7.1,2.45,19-4.69,27C321,586.34,310,594.15,302.28,594.15Z"/><path class="b" d="M324.68,552.72a7.6,7.6,0,0,1,5.18,1.89c4.31,3.84,3.47,11.82-5,21.35-6.93,7.78-16.82,14.19-22.56,14.19a4.62,4.62,0,0,1-3.16-1c-4.31-3.84,1.63-17.54,10.11-27.07,5.75-6.46,11.19-9.34,15.45-9.34m0-8h0c-7,0-14.42,4.15-21.42,12-9,10.09-19.5,29.42-9.46,38.36a12.47,12.47,0,0,0,8.48,3c4.37,0,9.45-1.82,15.12-5.42a65.92,65.92,0,0,0,13.42-11.45c5-5.64,8.1-11.21,9.17-16.56,1.27-6.37-.48-12.23-4.81-16.08a15.5,15.5,0,0,0-10.5-3.92Z"/><path class="a" d="M237.65,602.06c-6.69,0-16-2.8-23.75-7.12-9.37-5.24-18.47-14.66-13.27-24,2.21-4,6.35-6.13,11.65-6.13,4.64,0,9.93,1.64,15.72,4.87,10.89,6.09,24.77,19.1,20,27.71C246.78,599.53,244,602.06,237.65,602.06Z"/><path class="b" d="M212.28,568.84c3.69,0,8.35,1.34,13.77,4.36,11.14,6.23,21.23,17.23,18.42,22.27-1,1.79-3.51,2.59-6.82,2.59-6,0-14.62-2.6-21.79-6.61-11.15-6.23-14.55-13.49-11.73-18.53,1.44-2.58,4.25-4.08,8.15-4.08m0-8h0c-6.71,0-12.23,3-15.14,8.18-4.15,7.43-2.76,19.59,14.81,29.41,8.42,4.7,18.27,7.63,25.7,7.63,8.32,0,12.1-3.64,13.8-6.69,6.56-11.74-9.71-26.56-21.5-33.15-6.39-3.57-12.34-5.38-17.67-5.38Z"/><polyline class="c" points="243.93 596.03 273.81 606.76 296.36 590.87"/><path class="a" d="M293.84,311a8.48,8.48,0,0,1-5.81-2c-2.38-2.12-4.46-6.59-.81-15.85a59.19,59.19,0,0,1,10.59-16.86c6.22-7,12.6-10.68,18.43-10.68a11.6,11.6,0,0,1,7.84,2.9c8,7.1,2.45,19-4.69,27C312.52,303.21,301.53,311,293.84,311Z"/><path class="b" d="M316.24,269.59a7.58,7.58,0,0,1,5.18,1.89c4.31,3.84,3.47,11.81-5,21.35-6.94,7.78-16.82,14.19-22.57,14.19a4.61,4.61,0,0,1-3.15-1c-4.31-3.84,1.62-17.54,10.11-27.07,5.74-6.46,11.19-9.34,15.44-9.34m0-8h0c-7,0-14.42,4.15-21.42,12-9,10.09-19.49,29.42-9.45,38.36a12.42,12.42,0,0,0,8.47,3c4.37,0,9.46-1.82,15.13-5.42a65.86,65.86,0,0,0,13.41-11.45c5-5.64,8.11-11.22,9.18-16.57,1.27-6.36-.49-12.22-4.82-16.07a15.5,15.5,0,0,0-10.5-3.92Z"/><path class="a" d="M241.34,317.36c-6.69,0-16-2.79-23.75-7.11-9.37-5.24-18.47-14.66-13.27-24,2.21-4,6.35-6.14,11.65-6.14,4.64,0,9.93,1.64,15.72,4.88,10.89,6.08,24.77,19.1,20,27.7C250.47,314.84,247.72,317.36,241.34,317.36Z"/><path class="b" d="M216,284.14c3.69,0,8.35,1.34,13.77,4.37,11.14,6.23,21.23,17.22,18.42,22.26-1,1.8-3.51,2.59-6.82,2.59-6,0-14.62-2.6-21.8-6.61-11.14-6.22-14.54-13.48-11.73-18.52,1.45-2.59,4.26-4.09,8.16-4.09m0-8h0c-6.72,0-12.23,3-15.14,8.19s-2.57,11.17.72,16.77c2.76,4.7,7.5,9,14.09,12.64,8.42,4.7,18.26,7.62,25.7,7.62,8.32,0,12.1-3.63,13.8-6.69,6.56-11.73-9.71-26.55-21.5-33.14-6.39-3.58-12.34-5.39-17.67-5.39Z"/><polyline class="c" points="252.03 313.13 268.46 322.87 286.76 309.71"/><path class="a" d="M291.18,253.86a8.53,8.53,0,0,1-5.82-2c-2.38-2.12-4.45-6.59-.8-15.86a59.19,59.19,0,0,1,10.59-16.86c6.22-7,12.59-10.68,18.43-10.68a11.6,11.6,0,0,1,7.84,2.9c8,7.1,2.45,19-4.69,27C309.85,246.05,298.87,253.86,291.18,253.86Z"/><path class="b" d="M313.58,212.43a7.6,7.6,0,0,1,5.18,1.89c4.31,3.84,3.47,11.82-5,21.35-6.93,7.78-16.82,14.19-22.56,14.19a4.62,4.62,0,0,1-3.16-1c-4.31-3.84,1.63-17.54,10.11-27.07,5.75-6.45,11.19-9.34,15.45-9.34m0-8h0c-7,0-14.42,4.16-21.42,12-9,10.09-19.5,29.42-9.46,38.36a12.47,12.47,0,0,0,8.48,3.05c4.37,0,9.46-1.82,15.12-5.42A65.6,65.6,0,0,0,319.72,241c5-5.64,8.11-11.21,9.17-16.56,1.27-6.37-.48-12.23-4.81-16.08a15.5,15.5,0,0,0-10.5-3.92Z"/><path class="a" d="M238.67,260.2c-6.68,0-16-2.79-23.74-7.11-9.37-5.24-18.47-14.66-13.27-24,2.21-4,6.34-6.13,11.64-6.13,4.65,0,9.94,1.64,15.72,4.87,10.9,6.09,24.77,19.1,20,27.71C247.8,257.68,245.05,260.2,238.67,260.2Z"/><path class="b" d="M213.3,227c3.69,0,8.36,1.34,13.77,4.36,11.14,6.23,21.24,17.23,18.42,22.26-1,1.8-3.5,2.59-6.82,2.59-6,0-14.62-2.6-21.79-6.6-11.14-6.23-14.54-13.49-11.73-18.53,1.45-2.59,4.25-4.08,8.15-4.08m0-8h0c-6.71,0-12.23,3-15.13,8.18s-2.57,11.17.71,16.77c2.76,4.7,7.51,9,14.1,12.64,8.42,4.7,18.26,7.62,25.69,7.62,8.32,0,12.1-3.63,13.81-6.68C259,245.78,242.77,231,231,224.37c-6.4-3.57-12.34-5.38-17.68-5.38Z"/><polyline class="c" points="249.37 255.97 265.79 265.72 284.1 252.55"/><path class="a" d="M264.81,685.3a12,12,0,0,1-1.46-.09c-11.52-1.36-14-15.55-12.59-27.29a66.21,66.21,0,0,1,6-20.83c3.67-7.43,8.06-11.35,12.69-11.35a7.3,7.3,0,0,1,.94,0c10.65,1.26,13.21,22.13,11.58,35.83C280.62,673.07,275.4,685.3,264.81,685.3Z"/><path class="b" d="M269.46,629.74a3.7,3.7,0,0,1,.47,0c6.43.77,9.77,17.18,8.08,31.39-1.6,13.49-7.14,20.15-13.2,20.15a8.22,8.22,0,0,1-1-.06c-6.43-.76-10.78-8.63-9.09-22.85,1.65-13.87,8.43-28.65,14.73-28.65m0-8h0c-7.9,0-13.21,7.38-16.28,13.57a70.5,70.5,0,0,0-6.39,22.14c-1,8.23-.27,15.17,2.11,20.62,2.78,6.34,7.87,10.39,14,11.12a17.84,17.84,0,0,0,1.93.11c8.66,0,18.76-7.15,21.14-27.2a69.82,69.82,0,0,0-1.16-23.55c-1.69-7.08-5.48-15.73-13.92-16.73a11,11,0,0,0-1.41-.08Z"/><path class="d" d="M160.71,240.61C147.43,230.14,149.79,205,149.79,205s23.9-8.16,37.18,2.31,10.92,35.62,10.92,35.62S174,251.09,160.71,240.61Z"/><line class="d" x1="149.79" y1="204.99" x2="97.25" y2="163.56"/><path class="d" d="M189.6,177.89c-12.48-11.42-8.27-36.32-8.27-36.32s24.44-6.38,36.92,5,8.26,36.33,8.26,36.33S202.07,189.32,189.6,177.89Z"/><line class="d" x1="181.33" y1="141.57" x2="127.85" y2="92.59"/><path class="d" d="M227.65,106.46c-12.08-11.84-7-36.59-7-36.59s24.64-5.55,36.72,6.29,7,36.58,7,36.58S239.74,118.3,227.65,106.46Z"/><line class="d" x1="220.62" y1="69.87" x2="165.95" y2="16.32"/><path class="d" d="M-7.08,161.77c16.61-3.2,34.1,15,34.1,15S17.57,200.22,1,203.42s-34.09-15-34.09-15S-23.68,165-7.08,161.77Z"/><line class="d" x1="27.02" y1="176.79" x2="97.29" y2="163.23"/><path class="d" d="M23.49,91.13c16.61-3.2,34.09,15,34.09,15s-9.45,23.43-26.06,26.63-34.09-15-34.09-15S6.88,94.34,23.49,91.13Z"/><line class="d" x1="57.58" y1="106.15" x2="127.85" y2="92.59"/><path class="d" d="M61.53,14.85c16.61-3.2,34.09,15,34.09,15S86.18,53.3,69.57,56.5s-34.09-15-34.09-15S44.92,18.06,61.53,14.85Z"/><line class="d" x1="95.62" y1="29.87" x2="165.9" y2="16.31"/><path class="c" d="M68.66,249.86C92.53,167.34,132,76.54,181.33-8.24"/><path class="d" d="M39.16,272.61c5.13-16.12,29.5-22.75,29.5-22.75s16,19.51,10.91,35.62-29.5,22.75-29.5,22.75S34,288.73,39.16,272.61Z"/><path class="d" d="M374.22,178.78c14.59-8.55,15.69-33.79,15.69-33.79s-22.56-11.35-37.15-2.79S337.07,176,337.07,176,359.63,187.34,374.22,178.78Z"/><line class="d" x1="389.91" y1="144.99" x2="447.62" y2="111.14"/><path class="d" d="M354.18,112.71c13.92-9.62,13.16-34.86,13.16-34.86s-23.33-9.66-37.25,0-13.16,34.85-13.16,34.85S340.26,122.32,354.18,112.71Z"/><line class="d" x1="367.34" y1="77.85" x2="427.02" y2="36.65"/><path class="d" d="M326.26,36.73c13.59-10.07,12-35.27,12-35.27S314.59-7.42,301,2.66s-12,35.28-12,35.28S312.67,46.81,326.26,36.73Z"/><line class="d" x1="515.39" y1="133.86" x2="447.63" y2="110.81"/><path class="d" d="M530.6,49.48c-16-5.45-35.82,10.22-35.82,10.22s6.15,24.49,22.16,29.94,35.83-10.22,35.83-10.22S546.62,54.93,530.6,49.48Z"/><line class="d" x1="494.78" y1="59.7" x2="427.02" y2="36.65"/><path class="d" d="M503.35-31.29c-16-5.44-35.82,10.22-35.82,10.22s6.15,24.5,22.16,29.94S525.52-1.34,525.52-1.34,519.37-25.84,503.35-31.29Z"/><path class="c" d="M464.14,200.54C454.45,133.91,436,60.93,410.5-11.21"/><path class="d" d="M490.25,227.11c-2.88-16.67-26.11-26.57-26.11-26.57s-18.57,17.13-15.68,33.8,26.11,26.56,26.11,26.56S493.14,243.78,490.25,227.11Z"/><path class="d" d="M339.74,65.38C323.1,62.35,313.41,39,313.41,39s17.29-18.4,33.93-15.37S373.67,50,373.67,50,356.38,68.41,339.74,65.38Z"/><line class="d" x1="313.41" y1="39.02" x2="247.58" y2="27.04"/><path class="d" d="M154.57,74.33c13.18-10.61,37.16-2.7,37.16-2.7s2.63,25.12-10.54,35.73-37.16,2.7-37.16,2.7S141.4,84.94,154.57,74.33Z"/><line class="d" x1="191.73" y1="71.63" x2="247.46" y2="26.73"/><path class="c" d="M262.76,116.68A1051.67,1051.67,0,0,1,244.85-8.24"/><path class="d" d="M247.35,150.59c-3-16.64,15.41-33.91,15.41-33.91s23.31,9.71,26.33,26.35S273.67,177,273.67,177,250.36,167.24,247.35,150.59Z"/><path class="c" d="M367.78,184.71c33.43,86.23,76.45,217.17,97.18,336.53"/><path class="a" d="M417.75,255.87a7.76,7.76,0,0,1-3.62-.85c-2.84-1.45-6-5.25-4.77-15.14a59,59,0,0,1,6-19c5.08-9.92,11.57-15.39,18.27-15.39a11.27,11.27,0,0,1,5.19,1.26c3.93,2,6.25,5.92,6.54,11,.27,4.73-1.17,10.21-4.28,16.29C435.68,244.64,425.66,255.87,417.75,255.87Z"/><path class="b" d="M433.64,209.51a7.29,7.29,0,0,1,3.37.82c5.14,2.63,6.33,10.56.52,21.92-5.2,10.16-14.26,19.62-19.78,19.62a3.85,3.85,0,0,1-1.8-.41c-5.14-2.63-2.84-17.38,3-28.74,4.62-9,10.09-13.21,14.71-13.21m0-8h0c-4.8,0-14,2.29-21.83,17.57a63.11,63.11,0,0,0-6.42,20.32c-.82,6.72-.28,15.5,6.91,19.18a11.77,11.77,0,0,0,5.45,1.29c4.9,0,10.19-2.81,15.69-8.37a64.5,64.5,0,0,0,11.21-15.61c3.44-6.72,5-12.89,4.71-18.34-.37-6.47-3.54-11.7-8.7-14.34a15.16,15.16,0,0,0-7-1.7Z"/><path class="a" d="M439.55,302.05a7.91,7.91,0,0,1-3.62-.85c-2.83-1.45-6-5.26-4.76-15.14a59.3,59.3,0,0,1,6-19c5.08-9.92,11.57-15.38,18.28-15.38a11.29,11.29,0,0,1,5.19,1.25c3.92,2,6.25,5.92,6.54,11,.27,4.72-1.17,10.2-4.28,16.28C457.49,290.81,447.47,302.05,439.55,302.05Z"/><path class="b" d="M455.45,255.69a7.28,7.28,0,0,1,3.37.81c5.14,2.63,6.33,10.56.52,21.92-5.21,10.16-14.26,19.63-19.79,19.63a3.83,3.83,0,0,1-1.79-.41c-5.14-2.63-2.84-17.38,3-28.74,4.63-9,10.09-13.21,14.72-13.21m0-8h0c-4.8,0-14,2.28-21.84,17.56a63.21,63.21,0,0,0-6.41,20.33c-.82,6.72-.28,15.5,6.91,19.18a11.88,11.88,0,0,0,5.44,1.29c4.91,0,10.19-2.82,15.7-8.37a64.7,64.7,0,0,0,11.21-15.61c3.44-6.72,5-12.89,4.71-18.34-.37-6.48-3.54-11.71-8.7-14.35a15.33,15.33,0,0,0-7-1.69Z"/><path class="a" d="M453.77,358.53a7.91,7.91,0,0,1-3.62-.85c-2.84-1.45-6-5.26-4.77-15.14a59.58,59.58,0,0,1,6-19c5.08-9.92,11.57-15.38,18.28-15.38a11.29,11.29,0,0,1,5.19,1.25c3.92,2,6.24,5.92,6.54,11,.27,4.73-1.17,10.21-4.29,16.28C471.7,347.29,461.68,358.53,453.77,358.53Z"/><path class="b" d="M469.67,312.17A7.31,7.31,0,0,1,473,313c5.13,2.63,6.33,10.56.51,21.92-5.2,10.16-14.25,19.63-19.78,19.63a3.9,3.9,0,0,1-1.8-.41c-5.13-2.63-2.84-17.38,3-28.74,4.63-9,10.09-13.21,14.72-13.21m0-8h0c-4.8,0-14,2.28-21.84,17.56a63.49,63.49,0,0,0-6.42,20.33c-.81,6.72-.27,15.5,6.92,19.18a11.88,11.88,0,0,0,5.44,1.29c4.91,0,10.19-2.82,15.69-8.37a64.16,64.16,0,0,0,11.21-15.61c9.18-17.92,3.59-28.81-4-32.69a15.26,15.26,0,0,0-7-1.69Z"/><path class="a" d="M386.22,383.15a62.26,62.26,0,0,1-15.26-2c-6.61-1.72-11.66-4.29-15-7.64-3.61-3.61-5-8-3.87-12.22,1.56-6,7.45-9.58,15.76-9.58a41.58,41.58,0,0,1,10.4,1.48c12.08,3.15,28.78,12.25,26.29,21.79C403.17,380.26,396.66,383.15,386.22,383.15Z"/><path class="b" d="M367.85,355.74a37.79,37.79,0,0,1,9.39,1.35c12.35,3.22,24.89,11.33,23.43,16.91-.9,3.47-7,5.15-14.46,5.15A57.86,57.86,0,0,1,372,377.31c-12.35-3.22-17.47-9.39-16-15,1-4,5.14-6.6,11.89-6.6m0-8h0c-15.18,0-18.87,9.63-19.64,12.58-2.14,8.23,2.26,19.65,21.74,24.73a66.06,66.06,0,0,0,16.26,2.1c7.21,0,19.68-1.44,22.2-11.13,3.4-13-16.07-23.26-29.15-26.67a45.38,45.38,0,0,0-11.41-1.61Z"/><path class="a" d="M372.43,327.34a62.26,62.26,0,0,1-15.26-2c-10.39-2.71-21.56-9.54-18.87-19.86,1.57-6,7.46-9.58,15.76-9.58a41.66,41.66,0,0,1,10.41,1.48c12.07,3.15,28.78,12.25,26.29,21.79C389.39,324.45,382.88,327.34,372.43,327.34Z"/><path class="b" d="M354.06,299.93a37.33,37.33,0,0,1,9.4,1.35c12.35,3.22,24.88,11.32,23.43,16.91-.91,3.47-7,5.15-14.46,5.15a57.94,57.94,0,0,1-14.25-1.84c-12.35-3.22-17.47-9.39-16-15,1-4,5.14-6.59,11.89-6.59m0-8h0c-15.17,0-18.86,9.62-19.63,12.57-1.46,5.61.33,11.46,4.91,16.05,3.86,3.86,9.52,6.78,16.82,8.69a66.56,66.56,0,0,0,16.27,2.1c7.21,0,19.67-1.45,22.2-11.13.68-2.6.78-6.66-2.59-11.28a29.75,29.75,0,0,0-7.12-6.65,63.35,63.35,0,0,0-19.44-8.74,45.39,45.39,0,0,0-11.42-1.61Z"/><path class="a" d="M361.53,275.94a62.24,62.24,0,0,1-15.25-2c-10.39-2.72-21.57-9.54-18.88-19.86,1.57-6,7.46-9.58,15.76-9.58A41.55,41.55,0,0,1,353.57,246c12.08,3.15,28.78,12.26,26.29,21.79C378.49,273,372,275.94,361.53,275.94Z"/><path class="b" d="M343.16,248.53a37.74,37.74,0,0,1,9.4,1.34c12.35,3.22,24.89,11.33,23.43,16.91-.9,3.48-7,5.16-14.46,5.16a57.88,57.88,0,0,1-14.24-1.85c-12.35-3.22-17.47-9.39-16-15,1-4,5.15-6.59,11.89-6.59m0-8h0c-15.17,0-18.86,9.62-19.63,12.57-1.46,5.61.33,11.46,4.91,16,3.86,3.86,9.52,6.78,16.83,8.69a66.48,66.48,0,0,0,16.26,2.1c7.21,0,19.68-1.45,22.2-11.14.68-2.59.78-6.66-2.58-11.27a29.81,29.81,0,0,0-7.13-6.65,63.13,63.13,0,0,0-19.44-8.75,45.8,45.8,0,0,0-11.41-1.6Z"/><polyline class="c" points="380.33 268.09 398.68 273.39 413.09 256.04"/><polyline class="c" points="388.94 318.54 415.06 324.3 433.96 301.98"/><polyline class="c" points="400.3 374.69 431.91 377.55 449.74 356.5"/><path class="a" d="M468.35,415.29a7.78,7.78,0,0,1-3.62-.85c-2.84-1.45-6-5.25-4.77-15.14a59.2,59.2,0,0,1,6-19c5.08-9.92,11.57-15.38,18.28-15.38a11.29,11.29,0,0,1,5.19,1.25c3.92,2,6.24,5.92,6.53,11,.28,4.73-1.17,10.21-4.28,16.29C486.28,404.06,476.26,415.29,468.35,415.29Z"/><path class="b" d="M484.25,368.94a7.24,7.24,0,0,1,3.36.81c5.14,2.63,6.34,10.56.52,21.92-5.2,10.16-14.25,19.62-19.78,19.62a3.87,3.87,0,0,1-1.8-.41c-5.13-2.63-2.84-17.38,3-28.74,4.63-9,10.09-13.2,14.72-13.2m0-8h0c-4.8,0-14,2.28-21.84,17.56-6.16,12-11.47,33.38.5,39.5a11.76,11.76,0,0,0,5.44,1.29c4.91,0,10.19-2.81,15.69-8.37a64.5,64.5,0,0,0,11.21-15.61c3.44-6.72,5-12.89,4.72-18.33-.37-6.48-3.55-11.71-8.71-14.35a15.14,15.14,0,0,0-7-1.69Z"/><path class="a" d="M400.79,439.92a62.24,62.24,0,0,1-15.25-2c-10.39-2.71-21.57-9.54-18.88-19.86,1.57-6,7.46-9.58,15.77-9.58a41.58,41.58,0,0,1,10.4,1.48A59.15,59.15,0,0,1,411,418.14c8.17,5.69,8.93,10.55,8.12,13.64C417.75,437,411.24,439.92,400.79,439.92Z"/><path class="b" d="M382.43,412.51a37.32,37.32,0,0,1,9.39,1.35c12.35,3.22,24.89,11.32,23.43,16.91-.9,3.47-7,5.15-14.46,5.15a57.86,57.86,0,0,1-14.24-1.84c-12.35-3.22-17.47-9.4-16-15,1-4,5.14-6.59,11.89-6.59m0-8h0c-15.18,0-18.87,9.62-19.64,12.57-1.46,5.61.33,11.46,4.92,16.05,3.85,3.86,9.51,6.78,16.82,8.69a66.54,66.54,0,0,0,16.26,2.1c7.21,0,19.68-1.45,22.2-11.13.68-2.6.78-6.66-2.58-11.28a29.82,29.82,0,0,0-7.13-6.65,63.26,63.26,0,0,0-19.44-8.75,45.8,45.8,0,0,0-11.41-1.6Z"/><polyline class="c" points="414.87 431.45 446.49 434.32 464.32 413.27"/><path class="a" d="M483.24,473.45a7.9,7.9,0,0,1-3.62-.84c-2.84-1.46-6-5.26-4.77-15.14a59,59,0,0,1,6-19c5.08-9.92,11.57-15.38,18.27-15.38a11.33,11.33,0,0,1,5.2,1.25c3.92,2,6.24,5.92,6.53,11,.27,4.72-1.17,10.2-4.28,16.28C501.17,462.22,491.15,473.45,483.24,473.45Z"/><path class="b" d="M499.13,427.1a7.28,7.28,0,0,1,3.37.81c5.14,2.63,6.34,10.56.52,21.92-5.2,10.16-14.25,19.62-19.78,19.62a4,4,0,0,1-1.8-.4c-5.14-2.63-2.84-17.39,3-28.75,4.63-9,10.09-13.2,14.71-13.2m0-8h0c-4.79,0-14,2.28-21.83,17.56-6.16,12-11.47,33.38.5,39.51a11.84,11.84,0,0,0,5.44,1.28c4.91,0,10.19-2.81,15.69-8.37a64.5,64.5,0,0,0,11.21-15.61c9.18-17.92,3.58-28.8-4-32.68a15.27,15.27,0,0,0-7-1.69Z"/><path class="a" d="M415.68,498.08a62.18,62.18,0,0,1-15.25-2c-10.39-2.71-21.57-9.54-18.88-19.86,1.57-6,7.46-9.58,15.76-9.58a41.6,41.6,0,0,1,10.41,1.48,59.15,59.15,0,0,1,18.17,8.15c8.17,5.69,8.93,10.56,8.12,13.64C432.64,495.19,426.13,498.08,415.68,498.08Z"/><path class="b" d="M397.31,470.67a37.33,37.33,0,0,1,9.4,1.35c12.35,3.22,24.89,11.33,23.43,16.91-.9,3.47-7,5.15-14.46,5.15a57.86,57.86,0,0,1-14.24-1.84c-12.35-3.22-17.47-9.39-16-15,1-4,5.15-6.59,11.89-6.59m0-8h0c-15.18,0-18.87,9.62-19.64,12.57-2.15,8.24,2.26,19.66,21.74,24.74a66.48,66.48,0,0,0,16.26,2.1c7.21,0,19.68-1.45,22.2-11.13.68-2.6.78-6.66-2.58-11.28a30,30,0,0,0-7.13-6.65,63.35,63.35,0,0,0-19.44-8.74,45.38,45.38,0,0,0-11.41-1.61Z"/><polyline class="c" points="429.76 489.62 461.38 492.48 479.21 471.43"/><path class="a" d="M469.31,571.16c-10.44,0-15.82-12.07-17.37-23.37a65.78,65.78,0,0,1,.68-22.15c2.33-10.64,6.86-13.42,10.25-13.88a7.85,7.85,0,0,1,1.08-.08c4.59,0,9,3.87,12.79,11.19a66.42,66.42,0,0,1,6.35,20.65c1,7.51.53,13.75-1.47,18.58-2.13,5.12-5.91,8.29-10.63,8.94A11.76,11.76,0,0,1,469.31,571.16Z"/><path class="b" d="M464,515.68c6.28,0,13.29,14.6,15.18,28.39,1.94,14.18-2.27,22.13-8.68,23a8.74,8.74,0,0,1-1.14.08c-6,0-11.58-6.57-13.41-19.91-1.94-14.18,1.1-30.65,7.51-31.53a3.27,3.27,0,0,1,.54,0m0-8a12.75,12.75,0,0,0-1.63.11c-8.42,1.16-12.05,9.88-13.61,17a69.93,69.93,0,0,0-.73,23.56c1,7.69,3.26,13.93,6.57,18.53,3.83,5.34,9.07,8.29,14.76,8.29a15.21,15.21,0,0,0,2.23-.16c6.09-.83,11.11-5,13.77-11.37,2.28-5.48,2.87-12.43,1.74-20.65-1.94-14.19-9.7-35.3-23.1-35.3Z"/><circle class="e" cx="395.92" cy="785.92" r="104.08"/><path class="f" d="M408.52,768.58c0-7.14.58-18.89,1-26h-.85c-3.41,6.48-7.25,12.42-11.08,19.17l-31.74,46.43h77.76v14H347.51V810.55l58.12-86.78H425.1V859.62H408.52Z"/></svg>