<svg xmlns="http://www.w3.org/2000/svg" width="510" height="900" viewBox="0 0 510 900"><defs><style>.a,.f{fill:#8c76d6;}.b{fill:#432d1e;}.c{fill:none;}.c,.d,.e{stroke:#432d1e;}.c,.d{stroke-miterlimit:10;stroke-width:8px;}.d{fill:#56634a;}.e{fill:#fff;stroke-width:15px;}.e,.f{stroke-miterlimit:2;}.f{stroke:#8c76d6;stroke-width:12px;}</style></defs><title>43</title><path class="a" d="M480.77,389.13a8.12,8.12,0,0,1-4.57-1.32c-2.65-1.77-5.32-5.91-3-15.59a59,59,0,0,1,8.15-18.17c5.71-8.54,12.29-13.25,18.55-13.25a11.43,11.43,0,0,1,6.39,1.92c3.67,2.44,5.52,6.6,5.22,11.69-.27,4.73-2.33,10-6.12,15.69C499.24,379.32,488.51,389.13,480.77,389.13Z"/><path class="b" d="M499.91,344.8a7.4,7.4,0,0,1,4.17,1.24c4.8,3.21,5.07,11.22-2,21.84-6.11,9.15-15.7,17.25-21.3,17.25a4.15,4.15,0,0,1-2.35-.65c-4.8-3.2-.82-17.59,6.27-28.21,5.27-7.89,10.77-11.47,15.22-11.47m0-8h0c-7.64,0-15.4,5.34-21.88,15a63.43,63.43,0,0,0-8.71,19.45c-1.58,6.58-2.06,15.37,4.66,19.85a12.11,12.11,0,0,0,6.79,2c9.66,0,21.26-10.79,28-20.81,4.19-6.28,6.48-12.23,6.8-17.67.37-6.48-2.18-12-7-15.26a15.42,15.42,0,0,0-8.61-2.59Z"/><path class="a" d="M415,406.07a59.09,59.09,0,0,1-20.21-4c-10-3.89-20.33-11.95-16.46-21.9,1.94-5,6.92-7.88,13.65-7.88a37.33,37.33,0,0,1,13.28,2.85,59.14,59.14,0,0,1,17.1,10.19c7.46,6.59,7.65,11.51,6.5,14.48S424.47,406.07,415,406.07Z"/><path class="b" d="M392,376.25a33.22,33.22,0,0,1,11.83,2.58c11.89,4.62,23.41,14.11,21.32,19.49-1,2.59-5,3.75-10.13,3.75a54.66,54.66,0,0,1-18.76-3.77c-11.9-4.62-16.28-11.34-14.19-16.72,1.29-3.3,4.72-5.33,9.93-5.33m0-8h0c-8.34,0-14.84,3.9-17.38,10.43-3.09,7.94,0,19.79,18.74,27.08A62.38,62.38,0,0,0,415,410.07c6.46,0,14.74-1.53,17.59-8.85,4.87-12.53-13.3-25-25.89-29.85A41.18,41.18,0,0,0,392,368.25Z"/><polyline class="c" points="424.72 398.96 455.79 405.45 475.93 386.59"/><path class="a" d="M480.71,447.2a8.14,8.14,0,0,1-4.57-1.32c-2.65-1.77-5.32-5.91-3-15.59a59.27,59.27,0,0,1,8.15-18.17c5.71-8.55,12.3-13.26,18.55-13.26a11.49,11.49,0,0,1,6.4,1.93c3.66,2.44,5.51,6.6,5.22,11.69-.28,4.73-2.34,10-6.13,15.69C499.18,437.39,488.45,447.2,480.71,447.2Z"/><path class="b" d="M499.85,402.86a7.39,7.39,0,0,1,4.17,1.25c4.8,3.21,5.08,11.22-2,21.83-6.11,9.16-15.7,17.26-21.3,17.26a4.17,4.17,0,0,1-2.35-.65c-4.8-3.21-.82-17.6,6.27-28.21,5.27-7.89,10.77-11.48,15.22-11.48m0-8h0c-7.63,0-15.4,5.34-21.87,15a63.25,63.25,0,0,0-8.72,19.45c-1.58,6.58-2.06,15.37,4.66,19.85a12.11,12.11,0,0,0,6.79,2c9.66,0,21.26-10.79,28-20.81,4.19-6.28,6.47-12.23,6.79-17.68.38-6.47-2.17-12-7-15.25a15.46,15.46,0,0,0-8.62-2.6Z"/><path class="a" d="M415,464.14a59.15,59.15,0,0,1-20.22-4c-6.37-2.47-11.08-5.61-14-9.32-3.17-4-4-8.47-2.44-12.58,1.95-5,6.93-7.89,13.66-7.89a37.28,37.28,0,0,1,13.27,2.85c11.63,4.52,27.17,15.49,23.6,24.68C427.73,460.71,424.42,464.14,415,464.14Z"/><path class="b" d="M392,434.31a33.35,33.35,0,0,1,11.82,2.58c11.89,4.63,23.41,14.12,21.32,19.5-1,2.58-5,3.75-10.12,3.75a55,55,0,0,1-18.77-3.77C384.32,451.75,380,445,382,439.65c1.28-3.31,4.71-5.34,9.93-5.34m0-8h0c-8.35,0-14.85,3.91-17.39,10.44-3.08,7.93,0,19.79,18.74,27.08A62.43,62.43,0,0,0,415,468.14c6.45,0,14.74-1.54,17.58-8.85,4.87-12.53-13.29-25-25.88-29.85A41,41,0,0,0,392,426.31Z"/><polyline class="c" points="424.66 457.03 455.74 463.51 475.87 444.66"/><path class="a" d="M478.8,506.68a8.06,8.06,0,0,1-4.57-1.32c-8.2-5.47-1.76-23.37,5.16-33.75,5.71-8.55,12.3-13.26,18.55-13.26a11.51,11.51,0,0,1,6.39,1.92c8.87,5.93,5.06,18.45-.9,27.38C497.27,496.88,486.55,506.68,478.8,506.68Z"/><path class="b" d="M497.94,462.35a7.39,7.39,0,0,1,4.17,1.25c4.8,3.2,5.08,11.22-2,21.83-6.11,9.16-15.7,17.25-21.3,17.25a4.16,4.16,0,0,1-2.35-.64c-4.8-3.21-.82-17.6,6.27-28.21,5.27-7.89,10.77-11.48,15.22-11.48m0-8h0c-7.63,0-15.4,5.34-21.87,15a63.25,63.25,0,0,0-8.72,19.45c-1.58,6.58-2.06,15.36,4.66,19.85a12.18,12.18,0,0,0,6.79,2c9.66,0,21.26-10.78,28-20.8,4.19-6.28,6.47-12.23,6.79-17.68.38-6.47-2.17-12-7-15.25a15.46,15.46,0,0,0-8.62-2.6Z"/><path class="a" d="M413.08,523.63a59.15,59.15,0,0,1-20.22-4c-6.37-2.48-11.08-5.61-14-9.32-3.17-4-4-8.47-2.44-12.58,2-5,6.92-7.89,13.66-7.89a37.28,37.28,0,0,1,13.27,2.85c11.63,4.52,27.17,15.49,23.6,24.68C425.82,520.2,422.51,523.63,413.08,523.63Z"/><path class="b" d="M390.06,493.8a33.35,33.35,0,0,1,11.82,2.58c11.89,4.62,23.41,14.12,21.32,19.5-1,2.58-5,3.75-10.12,3.75a55,55,0,0,1-18.77-3.77c-11.9-4.62-16.27-11.34-14.18-16.72,1.28-3.31,4.71-5.34,9.93-5.34m0-8h0c-8.35,0-14.85,3.9-17.39,10.44-3.08,7.93,0,19.78,18.74,27.08a62.43,62.43,0,0,0,21.67,4.31c6.45,0,14.74-1.54,17.58-8.85,4.87-12.53-13.29-25-25.88-29.86a41.23,41.23,0,0,0-14.72-3.12Z"/><polyline class="c" points="422.75 516.52 453.83 523 473.96 504.15"/><path class="a" d="M480.71,328.29a8.14,8.14,0,0,1-4.57-1.32c-8.2-5.48-1.76-23.38,5.16-33.76C487,284.66,493.6,280,499.85,280a11.43,11.43,0,0,1,6.39,1.92c8.87,5.92,5.06,18.45-.9,27.38C499.18,318.48,488.46,328.29,480.71,328.29Z"/><path class="b" d="M499.85,284A7.38,7.38,0,0,1,504,285.2c4.8,3.21,5.08,11.22-2,21.84-6.11,9.15-15.7,17.25-21.3,17.25a4.17,4.17,0,0,1-2.35-.65c-4.8-3.2-.82-17.59,6.27-28.21C489.9,287.54,495.4,284,499.85,284m0-8h0c-7.63,0-15.4,5.34-21.87,15a63.46,63.46,0,0,0-8.72,19.45c-1.58,6.58-2.06,15.37,4.66,19.85a12.11,12.11,0,0,0,6.79,2c9.66,0,21.26-10.79,28-20.81,4.19-6.28,6.47-12.23,6.79-17.67.38-6.48-2.17-12-7-15.26a15.45,15.45,0,0,0-8.62-2.59Z"/><path class="a" d="M415,345.23a59.1,59.1,0,0,1-20.22-4c-6.37-2.47-11.08-5.61-14-9.32-3.17-4-4-8.47-2.44-12.58,1.95-5,6.92-7.88,13.66-7.88a37.06,37.06,0,0,1,13.27,2.85c11.63,4.52,27.17,15.48,23.6,24.67C427.73,341.81,424.42,345.23,415,345.23Z"/><path class="b" d="M392,315.41A33.31,33.31,0,0,1,403.79,318c11.89,4.63,23.41,14.12,21.32,19.5-1,2.59-5,3.75-10.12,3.75a54.71,54.71,0,0,1-18.77-3.77c-11.9-4.62-16.27-11.34-14.18-16.72,1.28-3.3,4.71-5.33,9.93-5.33m0-8h0c-8.35,0-14.85,3.9-17.39,10.43-3.08,7.94,0,19.79,18.74,27.08A62.43,62.43,0,0,0,415,349.23c6.45,0,14.74-1.54,17.58-8.85,4.87-12.53-13.29-25-25.88-29.85A41.23,41.23,0,0,0,392,307.41Z"/><polyline class="c" points="424.66 338.12 455.74 344.61 475.87 325.75"/><path class="a" d="M451.65,602.14h-.52c-4.76-.19-8.81-3-11.42-7.89-2.45-4.62-3.54-10.79-3.23-18.36.56-13.53,6.28-33.54,16.79-33.54h.33c10.72.44,14.87,21,14.3,34.84C467.14,595.59,459,602.14,451.65,602.14Z"/><path class="b" d="M453.27,546.34h.17c6.47.27,11.05,16.37,10.46,30.68-.58,14-5.93,21.12-12.25,21.12h-.35c-6.47-.27-11.41-7.79-10.82-22.09s6.39-29.71,12.79-29.71m0-8h0c-14,0-20.19,22.93-20.78,37.38-.91,21.84,9.39,30,18.48,30.41h.68c6.07,0,11.42-3.22,15.06-9.06,3.11-5,4.85-11.61,5.19-19.73.61-14.77-3.78-38.41-18.13-39Z"/><path class="c" d="M440.43,249.81c25.1,83.48,12.74,296.51,12.74,296.51"/><path class="c" d="M254.85,162.2C244,181.92,229.08,514.7,239.06,635.44"/><path class="a" d="M215.46,367c-7.69,0-18.67-7.82-25.55-15.54-4.54-5.1-7.31-10-8.24-14.69-1-5,.26-9.37,3.56-12.3a11.52,11.52,0,0,1,7.83-2.91c5.84,0,12.21,3.69,18.44,10.68,8.29,9.32,17.14,26.16,9.78,32.72a8.51,8.51,0,0,1-5.82,2Z"/><path class="b" d="M193.06,325.6c4.26,0,9.7,2.89,15.45,9.34,8.48,9.53,14.42,23.23,10.11,27.07a4.63,4.63,0,0,1-3.16,1c-5.74,0-15.63-6.42-22.56-14.2-8.49-9.53-9.32-17.51-5-21.35a7.6,7.6,0,0,1,5.17-1.89m0-8a15.49,15.49,0,0,0-10.49,3.92c-6.36,5.66-9,17.6,4.36,32.64a65.29,65.29,0,0,0,13.41,11.45c5.67,3.6,10.75,5.43,15.12,5.43a12.38,12.38,0,0,0,8.48-3.06c10-8.93-.47-28.27-9.46-38.36-7-7.86-14.41-12-21.42-12Z"/><path class="a" d="M206,417.21c-7.69,0-18.67-7.81-25.55-15.53-7.14-8-12.65-19.9-4.68-27a11.57,11.57,0,0,1,7.83-2.91c5.84,0,12.21,3.7,18.44,10.69,8.29,9.31,17.14,26.16,9.78,32.71a8.51,8.51,0,0,1-5.82,2Z"/><path class="b" d="M183.57,375.78c4.26,0,9.7,2.88,15.45,9.34,8.48,9.53,14.42,23.23,10.11,27.07a4.62,4.62,0,0,1-3.16,1c-5.74,0-15.63-6.41-22.56-14.2-8.49-9.53-9.32-17.5-5-21.34a7.55,7.55,0,0,1,5.17-1.89m0-8a15.49,15.49,0,0,0-10.49,3.92c-6.36,5.66-9,17.6,4.36,32.63a65.34,65.34,0,0,0,13.41,11.46c5.67,3.6,10.75,5.42,15.12,5.42a12.43,12.43,0,0,0,8.48-3c10-8.94-.47-28.27-9.46-38.36-7-7.87-14.41-12-21.42-12Z"/><path class="a" d="M206.42,475.45c-7.69,0-18.67-7.81-25.55-15.53-4.54-5.11-7.31-10.05-8.24-14.69-1-5,.26-9.38,3.56-12.31A11.56,11.56,0,0,1,184,430c5.84,0,12.21,3.69,18.44,10.68,8.29,9.32,17.14,26.16,9.78,32.71a8.51,8.51,0,0,1-5.82,2Z"/><path class="b" d="M184,434c4.26,0,9.7,2.88,15.45,9.34,8.48,9.53,14.42,23.23,10.11,27.07a4.62,4.62,0,0,1-3.16,1c-5.74,0-15.63-6.41-22.56-14.19-8.49-9.54-9.32-17.51-5-21.35A7.55,7.55,0,0,1,184,434m0-8a15.49,15.49,0,0,0-10.49,3.92c-6.36,5.66-9,17.6,4.36,32.64A65.6,65.6,0,0,0,191.3,474c5.67,3.6,10.75,5.42,15.12,5.42a12.43,12.43,0,0,0,8.48-3.05c10-8.94-.47-28.27-9.46-38.36-7-7.87-14.41-12-21.42-12Z"/><path class="a" d="M271.05,483.36c-6.38,0-9.13-2.53-10.31-4.64-4.81-8.61,9.07-21.62,20-27.71,5.79-3.23,11.08-4.87,15.72-4.87,5.3,0,9.44,2.17,11.65,6.13,5.2,9.31-3.9,18.73-13.27,24-7.74,4.32-17.06,7.12-23.75,7.12Z"/><path class="b" d="M296.42,450.14c3.9,0,6.71,1.49,8.16,4.08,2.81,5-.59,12.3-11.73,18.53-7.18,4-15.81,6.61-21.8,6.61-3.31,0-5.82-.8-6.82-2.59-2.81-5,7.28-16,18.42-22.27,5.42-3,10.08-4.36,13.77-4.36m0-8c-5.33,0-11.28,1.81-17.67,5.38a63.31,63.31,0,0,0-16.61,13.35c-4.41,5.14-8.83,12.74-4.89,19.8,1.7,3.05,5.48,6.69,13.8,6.69,7.44,0,17.28-2.93,25.7-7.63,6.59-3.68,11.33-7.94,14.09-12.64,3.29-5.6,3.55-11.71.72-16.77s-8.42-8.18-15.14-8.18Z"/><path class="a" d="M270.35,425.87c-6.38,0-9.13-2.52-10.31-4.64-1.55-2.78-2.05-7.68,4.43-15.24A59.15,59.15,0,0,1,280,393.52c5.79-3.23,11.08-4.87,15.72-4.87,5.3,0,9.44,2.18,11.65,6.13,5.2,9.32-3.9,18.73-13.27,24-7.74,4.33-17.06,7.12-23.74,7.12Z"/><path class="b" d="M295.72,392.65c3.9,0,6.71,1.5,8.16,4.09,2.81,5-.59,12.29-11.73,18.52-7.18,4-15.81,6.61-21.8,6.61-3.31,0-5.81-.8-6.82-2.59-2.81-5,7.28-16,18.42-22.26,5.42-3,10.09-4.37,13.77-4.37m0-8c-5.33,0-11.28,1.81-17.67,5.38a63.14,63.14,0,0,0-16.61,13.36c-4.41,5.13-8.83,12.74-4.89,19.79,1.7,3.05,5.48,6.69,13.8,6.69,7.44,0,17.28-2.92,25.7-7.63,17.57-9.82,19-22,14.81-29.41-2.91-5.2-8.42-8.18-15.14-8.18Z"/><path class="a" d="M268,373.38c-6.38,0-9.13-2.53-10.31-4.64-1.56-2.78-2.05-7.69,4.43-15.24A59.15,59.15,0,0,1,277.62,341c5.79-3.23,11.08-4.87,15.72-4.87,5.3,0,9.43,2.18,11.64,6.13s1.91,8.39-.67,12.8c-2.4,4.08-6.63,7.84-12.6,11.17-7.73,4.32-17,7.12-23.74,7.12Z"/><path class="b" d="M293.34,340.16c3.9,0,6.71,1.49,8.15,4.08,2.82,5-.59,12.3-11.73,18.53-7.17,4-15.8,6.61-21.79,6.61-3.31,0-5.82-.8-6.82-2.59-2.82-5,7.28-16,18.42-22.27,5.41-3,10.08-4.36,13.77-4.36m0-8c-5.34,0-11.28,1.81-17.67,5.38-11.8,6.59-28.06,21.41-21.51,33.15,1.71,3.05,5.49,6.69,13.81,6.69,7.43,0,17.28-2.93,25.69-7.63,6.6-3.68,11.34-7.93,14.1-12.64,3.28-5.59,3.54-11.71.72-16.77s-8.43-8.18-15.14-8.18Z"/><polyline class="c" points="257.28 369.14 240.85 378.89 222.54 365.72"/><polyline class="c" points="261.64 420.13 237.81 432.28 213.9 415.43"/><polyline class="c" points="264.77 477.33 234.89 488.06 212.34 472.17"/><path class="a" d="M206.59,534.06c-7.69,0-18.67-7.82-25.55-15.54-7.14-8-12.65-19.9-4.68-27a11.57,11.57,0,0,1,7.83-2.91c5.84,0,12.21,3.7,18.44,10.69,8.29,9.31,17.14,26.16,9.78,32.71a8.51,8.51,0,0,1-5.82,2Z"/><path class="b" d="M184.19,492.62c4.26,0,9.7,2.89,15.45,9.34,8.48,9.54,14.42,23.24,10.11,27.07a4.58,4.58,0,0,1-3.16,1c-5.74,0-15.63-6.41-22.56-14.2-8.49-9.53-9.32-17.5-5-21.34a7.56,7.56,0,0,1,5.17-1.9m0-8a15.54,15.54,0,0,0-10.49,3.92c-6.36,5.66-9,17.61,4.36,32.64a65.29,65.29,0,0,0,13.41,11.45c5.67,3.6,10.75,5.43,15.12,5.43a12.43,12.43,0,0,0,8.48-3c10-8.94-.47-28.28-9.46-38.37-7-7.86-14.41-12-21.42-12Z"/><path class="a" d="M271.22,542c-6.38,0-9.13-2.52-10.31-4.64-4.81-8.6,9.07-21.62,20-27.7,5.79-3.24,11.08-4.88,15.72-4.88,5.3,0,9.44,2.18,11.65,6.14,5.2,9.31-3.9,18.73-13.27,24-7.74,4.32-17.06,7.11-23.75,7.11Z"/><path class="b" d="M296.59,508.74c3.9,0,6.71,1.5,8.16,4.09,2.81,5-.59,12.3-11.73,18.52-7.18,4-15.81,6.61-21.8,6.61-3.31,0-5.82-.79-6.82-2.59-2.81-5,7.28-16,18.42-22.26,5.42-3,10.08-4.37,13.77-4.37m0-8c-5.33,0-11.28,1.81-17.67,5.39-11.79,6.59-28.06,21.41-21.5,33.14,1.7,3.06,5.48,6.69,13.8,6.69,7.44,0,17.28-2.92,25.7-7.62,6.59-3.69,11.33-7.94,14.09-12.64,3.29-5.6,3.55-11.71.72-16.77s-8.42-8.19-15.14-8.19Z"/><polyline class="c" points="264.94 535.94 235.06 546.67 212.51 530.78"/><path class="a" d="M206.81,594.1c-7.69,0-18.67-7.82-25.55-15.54-4.54-5.1-7.31-10-8.24-14.69-1-5,.27-9.37,3.56-12.3a11.61,11.61,0,0,1,7.84-2.91c5.83,0,12.21,3.69,18.43,10.68a59.24,59.24,0,0,1,10.59,16.87c3.64,9.26,1.57,13.73-.81,15.85a8.48,8.48,0,0,1-5.82,2Z"/><path class="b" d="M184.42,552.66c4.25,0,9.69,2.89,15.44,9.34,8.49,9.53,14.42,23.23,10.11,27.07a4.63,4.63,0,0,1-3.16,1c-5.74,0-15.63-6.42-22.56-14.2-8.48-9.53-9.32-17.51-5-21.35a7.63,7.63,0,0,1,5.18-1.89m0-8a15.55,15.55,0,0,0-10.5,3.92c-4.33,3.86-6.09,9.72-4.82,16.08,1.07,5.35,4.16,10.92,9.18,16.56a65.55,65.55,0,0,0,13.41,11.45c5.67,3.6,10.76,5.43,15.12,5.43a12.38,12.38,0,0,0,8.48-3.06c6-5.37,4.35-14,1.87-20.3a63.33,63.33,0,0,0-11.33-18.06c-7-7.86-14.4-12-21.41-12Z"/><path class="a" d="M271.45,602c-6.39,0-9.14-2.52-10.32-4.64-1.55-2.78-2-7.68,4.43-15.24a59.51,59.51,0,0,1,15.53-12.47c5.79-3.23,11.08-4.87,15.72-4.87,5.3,0,9.44,2.18,11.65,6.14s1.91,8.39-.67,12.79c-2.4,4.08-6.64,7.84-12.6,11.17-7.74,4.33-17.06,7.12-23.74,7.12Z"/><path class="b" d="M296.82,568.78c3.89,0,6.7,1.5,8.15,4.09,2.81,5-.59,12.3-11.73,18.52-7.17,4-15.81,6.61-21.79,6.61-3.32,0-5.82-.8-6.83-2.59-2.81-5,7.28-16,18.42-22.26,5.42-3,10.09-4.37,13.78-4.37m0-8c-5.34,0-11.28,1.81-17.68,5.38a63.14,63.14,0,0,0-16.61,13.36c-4.41,5.13-8.83,12.74-4.89,19.79,1.71,3.05,5.48,6.69,13.81,6.69,7.43,0,17.27-2.92,25.69-7.63,6.59-3.68,11.33-7.93,14.1-12.64,3.28-5.59,3.54-11.7.71-16.77s-8.42-8.18-15.13-8.18Z"/><polyline class="c" points="265.16 595.98 235.28 606.7 212.73 590.82"/><path class="a" d="M215.25,311c-7.69,0-18.67-7.82-25.55-15.54-7.14-8-12.65-19.9-4.69-27a11.56,11.56,0,0,1,7.84-2.91c5.84,0,12.21,3.69,18.43,10.68a59.19,59.19,0,0,1,10.59,16.86c3.65,9.27,1.58,13.74-.8,15.86a8.51,8.51,0,0,1-5.82,2Z"/><path class="b" d="M192.85,269.53c4.26,0,9.7,2.89,15.45,9.34,8.48,9.53,14.42,23.23,10.11,27.07a4.63,4.63,0,0,1-3.16,1c-5.74,0-15.63-6.42-22.56-14.2-8.49-9.53-9.33-17.51-5-21.35a7.6,7.6,0,0,1,5.18-1.89m0-8a15.5,15.5,0,0,0-10.5,3.92c-4.33,3.86-6.08,9.72-4.81,16.08,1.07,5.35,4.15,10.92,9.17,16.56a65.6,65.6,0,0,0,13.42,11.45c5.67,3.6,10.75,5.43,15.12,5.43a12.42,12.42,0,0,0,8.48-3.06c10-8.93-.48-28.27-9.46-38.36-7-7.86-14.41-12-21.42-12Z"/><path class="a" d="M267.76,317.31c-6.38,0-9.13-2.53-10.32-4.64-1.55-2.78-2-7.69,4.44-15.24A59.15,59.15,0,0,1,277.41,285c5.78-3.23,11.07-4.87,15.72-4.87,5.3,0,9.43,2.17,11.64,6.13,5.2,9.31-3.9,18.73-13.27,24-7.74,4.32-17.06,7.12-23.74,7.12Z"/><path class="b" d="M293.13,284.09c3.9,0,6.7,1.49,8.15,4.08,2.82,5-.59,12.3-11.73,18.53-7.17,4-15.8,6.61-21.79,6.61-3.32,0-5.82-.8-6.82-2.59-2.82-5,7.28-16,18.42-22.27,5.41-3,10.08-4.36,13.77-4.36m0-8c-5.34,0-11.28,1.81-17.68,5.38-11.79,6.59-28,21.41-21.5,33.15,1.71,3.05,5.49,6.69,13.81,6.69,7.43,0,17.27-2.93,25.69-7.63,6.59-3.68,11.34-7.94,14.1-12.64,3.28-5.6,3.54-11.71.71-16.77s-8.42-8.18-15.13-8.18Z"/><polyline class="c" points="257.06 313.07 240.64 322.82 222.33 309.65"/><path class="a" d="M217.91,253.81c-7.69,0-18.67-7.82-25.55-15.54-4.54-5.1-7.31-10-8.24-14.68-1-5,.27-9.38,3.56-12.31a11.57,11.57,0,0,1,7.83-2.91c5.84,0,12.21,3.69,18.44,10.68a59.24,59.24,0,0,1,10.59,16.87c3.64,9.26,1.57,13.73-.81,15.85a8.48,8.48,0,0,1-5.82,2Z"/><path class="b" d="M195.52,212.37c4.25,0,9.69,2.89,15.44,9.34,8.49,9.53,14.42,23.23,10.11,27.07a4.63,4.63,0,0,1-3.16,1c-5.74,0-15.63-6.42-22.56-14.2-8.48-9.53-9.32-17.51-5-21.34a7.58,7.58,0,0,1,5.18-1.9m0-8a15.55,15.55,0,0,0-10.5,3.92c-4.33,3.86-6.09,9.72-4.82,16.08,1.07,5.35,4.16,10.92,9.18,16.56a65.29,65.29,0,0,0,13.41,11.45c5.67,3.6,10.76,5.43,15.12,5.43a12.43,12.43,0,0,0,8.48-3.05c6-5.38,4.35-14,1.87-20.31a63.33,63.33,0,0,0-11.33-18.06c-7-7.86-14.41-12-21.41-12Z"/><path class="a" d="M270.42,260.15c-6.38,0-9.13-2.53-10.31-4.64-4.81-8.61,9.07-21.62,20-27.71,5.79-3.23,11.08-4.87,15.72-4.87,5.3,0,9.43,2.18,11.64,6.13,5.21,9.31-3.89,18.73-13.26,24-7.74,4.32-17.06,7.12-23.75,7.12Z"/><path class="b" d="M295.79,226.93c3.9,0,6.71,1.5,8.15,4.08,2.82,5-.59,12.3-11.73,18.53-7.17,4-15.8,6.61-21.79,6.61-3.31,0-5.82-.8-6.82-2.59-2.82-5,7.28-16,18.42-22.27,5.42-3,10.08-4.36,13.77-4.36m0-8c-5.33,0-11.28,1.81-17.67,5.38-11.79,6.59-28.06,21.42-21.5,33.15,1.7,3.05,5.48,6.69,13.8,6.69,7.43,0,17.28-2.92,25.7-7.63,17.57-9.82,19-22,14.81-29.41-2.91-5.2-8.43-8.18-15.14-8.18Z"/><polyline class="c" points="259.73 255.91 243.3 265.66 224.99 252.49"/><path class="a" d="M244.28,685.24c-10.59,0-15.81-12.23-17.17-23.67a65.9,65.9,0,0,1,1.08-22.14c2.53-10.59,7.11-13.29,10.5-13.7.32,0,.63-.05.94-.05,4.63,0,9,3.92,12.7,11.35a66.82,66.82,0,0,1,6,20.83c.89,7.52.28,13.76-1.82,18.55-2.22,5.08-6,8.19-10.78,8.75a14.28,14.28,0,0,1-1.46.08Z"/><path class="b" d="M239.63,629.68c6.3,0,13.09,14.78,14.73,28.65,1.69,14.22-2.66,22.09-9.09,22.86-.33,0-.66,0-1,0-6.05,0-11.6-6.66-13.2-20.14-1.68-14.22,1.65-30.63,8.08-31.39l.47,0m0-8a13.33,13.33,0,0,0-1.41.08C224,623.45,221.4,647.36,223.14,662c.92,7.78,3.05,14.09,6.32,18.77,3.8,5.44,9.06,8.43,14.82,8.43a15.61,15.61,0,0,0,1.93-.11c6.11-.72,11.2-4.78,14-11.12,2.38-5.44,3.09-12.38,2.12-20.62a70.77,70.77,0,0,0-6.4-22.14c-3.07-6.19-8.38-13.57-16.28-13.57Z"/><path class="d" d="M348.39,240.55c13.28-10.47,10.91-35.62,10.91-35.62s-23.9-8.16-37.18,2.32-10.92,35.61-10.92,35.61S335.1,251,348.39,240.55Z"/><line class="d" x1="359.3" y1="204.93" x2="411.84" y2="163.5"/><path class="d" d="M319.5,177.84c12.47-11.43,8.26-36.33,8.26-36.33s-24.44-6.38-36.91,5-8.27,36.33-8.27,36.33S307,189.26,319.5,177.84Z"/><line class="d" x1="327.76" y1="141.51" x2="381.24" y2="92.53"/><path class="d" d="M281.44,106.4c12.08-11.84,7-36.58,7-36.58s-24.64-5.56-36.73,6.28-7,36.58-7,36.58S269.36,118.24,281.44,106.4Z"/><line class="d" x1="288.48" y1="69.82" x2="343.14" y2="16.26"/><path class="d" d="M516.17,161.71c-16.61-3.2-34.09,15-34.09,15s9.44,23.43,26.05,26.63,34.09-15,34.09-15S532.78,164.92,516.17,161.71Z"/><line class="d" x1="482.08" y1="176.73" x2="411.8" y2="163.17"/><path class="d" d="M485.61,91.07c-16.61-3.2-34.1,15-34.1,15s9.45,23.43,26.06,26.63,34.09-15,34.09-15S502.22,94.28,485.61,91.07Z"/><line class="d" x1="451.51" y1="106.09" x2="381.24" y2="92.53"/><path class="d" d="M447.56,14.79c-16.61-3.2-34.09,15-34.09,15s9.45,23.43,26.06,26.63,34.09-15,34.09-15S464.17,18,447.56,14.79Z"/><line class="d" x1="413.47" y1="29.81" x2="343.2" y2="16.25"/><path class="c" d="M440.43,249.81C416.56,167.28,377.12,76.48,327.76-8.3"/><path class="d" d="M469.94,272.55c-5.14-16.12-29.51-22.74-29.51-22.74s-16,19.5-10.91,35.62S459,308.17,459,308.17,475.07,288.67,469.94,272.55Z"/><path class="d" d="M134.87,178.73c-14.59-8.56-15.69-33.79-15.69-33.79s22.56-11.36,37.15-2.8S172,175.93,172,175.93,149.46,187.29,134.87,178.73Z"/><line class="d" x1="119.18" y1="144.94" x2="61.47" y2="111.08"/><path class="d" d="M154.91,112.65C141,103,141.75,77.79,141.75,77.79s23.34-9.66,37.26-.05,13.15,34.85,13.15,34.85S168.83,122.26,154.91,112.65Z"/><line class="d" x1="141.75" y1="77.79" x2="82.07" y2="36.59"/><path class="d" d="M182.83,36.68c-13.58-10.08-12-35.28-12-35.28s23.65-8.87,37.23,1.2,12,35.28,12,35.28S196.42,46.75,182.83,36.68Z"/><line class="d" x1="-6.3" y1="133.8" x2="61.46" y2="110.75"/><path class="d" d="M-21.51,49.42C-5.5,44,14.32,59.64,14.32,59.64S8.16,84.14-7.85,89.58-43.68,79.37-43.68,79.37-37.52,54.87-21.51,49.42Z"/><line class="d" x1="14.32" y1="59.64" x2="82.07" y2="36.59"/><path class="d" d="M5.74-31.34c16-5.45,35.83,10.21,35.83,10.21s-6.15,24.5-22.17,30S-16.43-1.4-16.43-1.4-10.27-25.9,5.74-31.34Z"/><path class="c" d="M45,200.48C54.64,133.85,73.11,60.87,98.6-11.26"/><path class="d" d="M18.84,227.05C21.72,210.38,45,200.48,45,200.48s18.56,17.13,15.68,33.8-26.12,26.57-26.12,26.57S16,243.72,18.84,227.05Z"/><path class="d" d="M169.35,65.32C186,62.29,195.68,39,195.68,39s-17.29-18.41-33.93-15.38-26.33,26.35-26.33,26.35S152.71,68.35,169.35,65.32Z"/><line class="d" x1="195.68" y1="38.97" x2="261.51" y2="26.98"/><path class="d" d="M354.52,74.27c-13.17-10.61-37.16-2.7-37.16-2.7s-2.63,25.12,10.55,35.73S365.06,110,365.06,110,367.69,84.89,354.52,74.27Z"/><line class="d" x1="317.36" y1="71.57" x2="261.63" y2="26.67"/><path class="c" d="M246.34,116.62A1051.71,1051.71,0,0,0,264.24-8.3"/><path class="d" d="M261.75,150.54c3-16.65-15.41-33.92-15.41-33.92S223,126.33,220,143s15.41,33.91,15.41,33.91S258.73,167.18,261.75,150.54Z"/><path class="c" d="M141.31,184.66c-33.42,86.22-76.45,217.16-97.17,336.52"/><path class="a" d="M91.35,255.81c-7.91,0-17.93-11.23-23.35-21.8-4.89-9.56-7.23-22.44,2.26-27.3a11.29,11.29,0,0,1,5.19-1.25c6.71,0,13.2,5.46,18.28,15.38C99.41,232,103.74,250.47,95,255a7.9,7.9,0,0,1-3.62.84Z"/><path class="b" d="M75.45,209.46c4.63,0,10.09,4.16,14.72,13.2,5.81,11.36,8.11,26.12,3,28.75a4,4,0,0,1-1.79.4c-5.53,0-14.58-9.46-19.78-19.62-5.82-11.36-4.62-19.29.51-21.92a7.28,7.28,0,0,1,3.37-.81m0-8a15.26,15.26,0,0,0-7,1.69c-7.58,3.88-13.17,14.76-4,32.68,4.25,8.3,15.34,24,26.91,24a11.87,11.87,0,0,0,5.44-1.28c12-6.13,6.65-27.49.5-39.51-7.82-15.28-17-17.56-21.84-17.56Z"/><path class="a" d="M69.54,302c-7.91,0-17.93-11.24-23.34-21.8-4.9-9.56-7.24-22.45,2.25-27.31a11.29,11.29,0,0,1,5.19-1.25c6.71,0,13.2,5.47,18.28,15.39,5.69,11.1,10,29.63,1.24,34.12a7.91,7.91,0,0,1-3.62.85Z"/><path class="b" d="M53.64,255.63c4.63,0,10.09,4.17,14.72,13.21,5.82,11.36,8.11,26.11,3,28.74a3.9,3.9,0,0,1-1.8.41C64,298,55,288.52,49.76,278.36c-5.82-11.36-4.62-19.29.51-21.92a7.44,7.44,0,0,1,3.37-.81m0-8a15.26,15.26,0,0,0-7,1.69c-7.58,3.88-13.17,14.77-4,32.69,4.24,8.29,15.33,24,26.9,24A11.76,11.76,0,0,0,75,304.7c7.19-3.68,7.73-12.46,6.92-19.18a63.49,63.49,0,0,0-6.42-20.33c-7.82-15.28-17-17.56-21.84-17.56Z"/><path class="a" d="M55.32,358.47c-7.91,0-17.93-11.23-23.34-21.8-4.89-9.56-7.24-22.45,2.26-27.31a11.26,11.26,0,0,1,5.19-1.25c6.7,0,13.19,5.47,18.27,15.39a59,59,0,0,1,6,19c1.2,9.88-1.93,13.69-4.77,15.14a7.88,7.88,0,0,1-3.62.85Z"/><path class="b" d="M39.43,312.11c4.62,0,10.09,4.17,14.71,13.21,5.82,11.36,8.12,26.11,3,28.74a3.85,3.85,0,0,1-1.8.41c-5.52,0-14.58-9.46-19.78-19.63-5.81-11.36-4.62-19.29.52-21.92a7.41,7.41,0,0,1,3.37-.81m0-8a15.27,15.27,0,0,0-7,1.69c-5.16,2.65-8.33,7.88-8.7,14.35-.32,5.45,1.27,11.62,4.71,18.34,4.25,8.29,15.34,24,26.9,24a11.77,11.77,0,0,0,5.45-1.29C68,357.5,68.5,348.72,67.68,342a63.24,63.24,0,0,0-6.42-20.33c-7.82-15.28-17-17.56-21.83-17.56Z"/><path class="a" d="M122.88,383.1c-10.45,0-17-2.9-18.33-8.14-2.49-9.54,14.22-18.65,26.29-21.8a41.55,41.55,0,0,1,10.41-1.47c8.3,0,14.19,3.58,15.76,9.58,1.68,6.45-2.25,15.52-18.87,19.86a62.32,62.32,0,0,1-15.26,2Z"/><path class="b" d="M141.25,355.69c6.74,0,10.85,2.61,11.89,6.59,1.46,5.58-3.67,11.75-16,15a58,58,0,0,1-14.25,1.85c-7.45,0-13.55-1.68-14.46-5.15-1.46-5.59,11.08-13.7,23.43-16.92a37.74,37.74,0,0,1,9.4-1.34m0-8a45.81,45.81,0,0,0-11.42,1.6C116.76,352.7,97.29,363,100.68,376c2.53,9.68,15,11.13,22.2,11.13a66.62,66.62,0,0,0,16.27-2.1c7.3-1.91,13-4.83,16.82-8.69,4.58-4.59,6.37-10.44,4.91-16.05-.77-2.95-4.46-12.57-19.63-12.57Z"/><path class="a" d="M136.66,327.28c-10.45,0-17-2.89-18.32-8.14-.81-3.08,0-7.95,8.12-13.63a59.17,59.17,0,0,1,18.17-8.16,41.58,41.58,0,0,1,10.4-1.48c8.31,0,14.2,3.58,15.76,9.58,1.69,6.45-2.25,15.52-18.87,19.86a62.24,62.24,0,0,1-15.25,2Z"/><path class="b" d="M155,299.87c6.75,0,10.85,2.61,11.89,6.59,1.46,5.59-3.66,11.76-16,15a57.88,57.88,0,0,1-14.25,1.84c-7.45,0-13.55-1.68-14.45-5.15-1.46-5.58,11.08-13.69,23.42-16.91a37.46,37.46,0,0,1,9.4-1.35m0-8a45.52,45.52,0,0,0-11.42,1.61,63.45,63.45,0,0,0-19.44,8.74,30,30,0,0,0-7.12,6.65c-3.36,4.62-3.26,8.68-2.59,11.28,2.53,9.69,15,11.13,22.2,11.13a66.08,66.08,0,0,0,16.27-2.1c19.48-5.08,23.88-16.5,21.73-24.74-.77-2.95-4.45-12.57-19.63-12.57Z"/><path class="a" d="M147.56,275.88c-10.45,0-17-2.89-18.33-8.14-2.49-9.54,14.22-18.65,26.29-21.8a42.08,42.08,0,0,1,10.41-1.47c8.3,0,14.2,3.58,15.76,9.58,1.68,6.45-2.25,15.52-18.87,19.86a62.26,62.26,0,0,1-15.26,2Z"/><path class="b" d="M165.93,248.47c6.75,0,10.85,2.61,11.89,6.59,1.46,5.58-3.66,11.75-16,15a57.94,57.94,0,0,1-14.25,1.84c-7.45,0-13.55-1.68-14.46-5.15-1.45-5.59,11.08-13.69,23.43-16.91a37.4,37.4,0,0,1,9.4-1.35m0-8a45.87,45.87,0,0,0-11.42,1.6,63.47,63.47,0,0,0-19.44,8.75,29.75,29.75,0,0,0-7.12,6.65c-3.37,4.61-3.27,8.68-2.59,11.28,2.53,9.68,15,11.13,22.2,11.13a66.56,66.56,0,0,0,16.27-2.1c19.48-5.09,23.88-16.51,21.73-24.74-.77-2.95-4.46-12.57-19.63-12.57Z"/><polyline class="c" points="128.76 268.03 110.41 273.33 96.01 255.98"/><polyline class="c" points="120.16 318.48 94.04 324.24 75.14 301.92"/><polyline class="c" points="108.8 374.63 77.18 377.5 59.35 356.44"/><path class="a" d="M40.74,415.24c-7.91,0-17.93-11.24-23.34-21.81-3.11-6.08-4.55-11.56-4.28-16.28.29-5.1,2.61-9,6.54-11a11.26,11.26,0,0,1,5.19-1.25c6.7,0,13.2,5.46,18.27,15.38a59.08,59.08,0,0,1,6,19c1.2,9.88-1.93,13.68-4.77,15.14a7.87,7.87,0,0,1-3.61.85Z"/><path class="b" d="M24.85,368.88c4.62,0,10.09,4.17,14.71,13.2,5.82,11.36,8.12,26.12,3,28.75a4,4,0,0,1-1.8.41c-5.52,0-14.58-9.47-19.78-19.63-5.81-11.36-4.62-19.29.52-21.92a7.28,7.28,0,0,1,3.37-.81m0-8a15.27,15.27,0,0,0-7,1.69c-7.57,3.88-13.16,14.77-4,32.69,4.25,8.29,15.34,24,26.9,24A11.89,11.89,0,0,0,46.19,418c7.19-3.68,7.73-12.47,6.91-19.18a63.46,63.46,0,0,0-6.41-20.33c-7.83-15.28-17-17.56-21.84-17.56Z"/><path class="a" d="M108.3,439.86c-10.45,0-17-2.89-18.33-8.14-.8-3.08,0-8,8.12-13.64a59.39,59.39,0,0,1,18.17-8.15,41.6,41.6,0,0,1,10.41-1.48c8.3,0,14.19,3.58,15.76,9.58,1.11,4.27-.26,8.6-3.87,12.22-3.35,3.34-8.4,5.92-15,7.64a62.26,62.26,0,0,1-15.26,2Z"/><path class="b" d="M126.67,412.45c6.75,0,10.85,2.61,11.89,6.59,1.46,5.59-3.67,11.76-16,15a57.94,57.94,0,0,1-14.25,1.84c-7.45,0-13.55-1.68-14.46-5.15-1.46-5.58,11.08-13.69,23.43-16.91a37.33,37.33,0,0,1,9.4-1.35m0-8a45.39,45.39,0,0,0-11.42,1.61c-13.07,3.41-32.54,13.67-29.15,26.67,2.53,9.69,15,11.13,22.2,11.13a66.14,66.14,0,0,0,16.27-2.1c19.48-5.08,23.88-16.5,21.73-24.74-.77-2.95-4.46-12.57-19.63-12.57Z"/><polyline class="c" points="94.22 431.4 62.6 434.26 44.77 413.21"/><path class="a" d="M25.86,473.4c-7.92,0-17.94-11.24-23.35-21.81-4.89-9.55-7.24-22.44,2.26-27.3A11.29,11.29,0,0,1,10,423c6.71,0,13.2,5.46,18.28,15.38a59.3,59.3,0,0,1,6,19c1.2,9.88-1.93,13.69-4.77,15.14a7.84,7.84,0,0,1-3.61.85Z"/><path class="b" d="M10,427c4.63,0,10.09,4.17,14.72,13.21,5.81,11.36,8.11,26.11,3,28.74a3.83,3.83,0,0,1-1.79.41c-5.53,0-14.58-9.47-19.79-19.63-5.81-11.36-4.62-19.29.52-21.92A7.28,7.28,0,0,1,10,427m0-8a15.33,15.33,0,0,0-7,1.69c-5.16,2.64-8.33,7.87-8.7,14.35-.31,5.45,1.27,11.62,4.71,18.34,4.25,8.29,15.34,24,26.91,24a11.88,11.88,0,0,0,5.44-1.29c12-6.13,6.65-27.49.5-39.51C24,421.32,14.76,419,10,419Z"/><path class="a" d="M93.41,498c-10.45,0-17-2.89-18.33-8.14-.8-3.08,0-7.95,8.13-13.63a59,59,0,0,1,18.16-8.16,41.66,41.66,0,0,1,10.41-1.48c8.3,0,14.2,3.58,15.76,9.58,1.11,4.27-.26,8.61-3.87,12.22-3.35,3.35-8.39,5.92-15,7.64a62.26,62.26,0,0,1-15.26,2Z"/><path class="b" d="M111.78,470.61c6.75,0,10.85,2.61,11.89,6.59,1.46,5.59-3.66,11.76-16,15A57.94,57.94,0,0,1,93.41,494C86,494,79.86,492.34,79,488.87,77.5,483.29,90,475.18,102.38,472a37.8,37.8,0,0,1,9.4-1.35m0-8a45.45,45.45,0,0,0-11.42,1.61A63.35,63.35,0,0,0,80.92,473a29.75,29.75,0,0,0-7.12,6.65c-3.37,4.62-3.27,8.68-2.59,11.28,2.53,9.69,15,11.13,22.2,11.13a66.08,66.08,0,0,0,16.27-2.1c7.3-1.9,13-4.83,16.82-8.69,4.59-4.59,6.38-10.43,4.91-16.05-.77-2.94-4.46-12.57-19.63-12.57Z"/><polyline class="c" points="79.33 489.56 47.71 492.42 29.89 471.37"/><path class="a" d="M39.78,571.1A11.87,11.87,0,0,1,38.1,571c-4.72-.64-8.49-3.82-10.62-8.94C25.47,557.22,25,551,26,543.47a66.66,66.66,0,0,1,6.35-20.66c3.78-7.32,8.2-11.19,12.79-11.19a8,8,0,0,1,1.09.08c3.38.46,7.91,3.25,10.25,13.88a65.78,65.78,0,0,1,.67,22.15C55.61,559,50.23,571.1,39.78,571.1Z"/><path class="b" d="M45.14,515.62a4.9,4.9,0,0,1,.54,0c6.42.88,9.46,17.35,7.51,31.53-1.83,13.34-7.41,19.91-13.41,19.91a8.74,8.74,0,0,1-1.14-.08c-6.41-.88-10.62-8.83-8.67-23,1.89-13.79,8.89-28.39,15.17-28.39m0-8c-4.31,0-10.65,2.32-16.34,13.36A70.55,70.55,0,0,0,22,542.92c-1.13,8.22-.54,15.17,1.74,20.66C26.44,570,31.46,574.11,37.56,575a16.45,16.45,0,0,0,2.22.15c5.69,0,10.93-2.94,14.77-8.29,3.3-4.6,5.51-10.84,6.57-18.53,2-14.64-.12-38.59-14.35-40.55a12.75,12.75,0,0,0-1.63-.11Z"/><circle class="e" cx="395.92" cy="785.92" r="104.08"/><path class="f" d="M408.52,768.58c0-7.14.58-18.89,1-26h-.85c-3.41,6.48-7.25,12.42-11.08,19.17l-31.74,46.43h77.76v14H347.51V810.55l58.12-86.78H425.1V859.62H408.52Z"/></svg>