<svg xmlns="http://www.w3.org/2000/svg" width="510" height="900" viewBox="0 0 510 900"><defs><style>.a{fill:#56634a;}.a,.b,.e,.f{stroke:#432d1e;}.a,.b{stroke-miterlimit:10;}.a,.b,.e{stroke-width:8px;}.b{fill:none;}.c,.g{fill:#bd645d;}.d{fill:#432d1e;}.e{fill:#db85a0;}.e,.f,.g{stroke-miterlimit:2;}.f{fill:#fff;stroke-width:15px;}.g{stroke:#bd645d;stroke-width:12px;}</style></defs><title>71</title><path class="a" d="M335.84,747.2c16.14,5,35.56-11.1,35.56-11.1s-6.75-24.34-22.9-29.39-35.56,11.1-35.56,11.1S319.69,742.14,335.84,747.2Z"/><line class="a" x1="371.4" y1="736.1" x2="439.7" y2="757.47"/><path class="b" d="M58.15,200.46c19.7,119.23,67.19,468.26,351,491.75"/><path class="c" d="M58.05,204c-10.4,0-16.51-19.79-17.37-33.16C39.93,159,43.16,145,54.74,144.25c.26,0,.53,0,.79,0,7.23,0,15.37,6.46,16.53,24.59a65.83,65.83,0,0,1-2.28,22.05C66.68,201.3,62,203.75,58.55,204Z"/><path class="d" d="M55.53,148.22c6.24,0,11.65,7,12.54,20.85C69,183.36,64.76,199.56,58.3,200h-.25c-6.37,0-12.48-15.32-13.38-29.41-.91-14.29,3.86-21.92,10.32-22.33l.54,0m0-8c-.35,0-.7,0-1.05,0-6.14.39-11.44,4.16-14.56,10.34-2.67,5.31-3.76,12.2-3.23,20.48A70.41,70.41,0,0,0,42,193.75C47.09,205.51,53.54,208,58.05,208c.25,0,.5,0,.76,0,8.48-.54,12.74-9,14.81-16a70.19,70.19,0,0,0,2.43-23.44c-1.33-20.89-11.47-28.34-20.52-28.34Z"/><path class="c" d="M36.66,262.26c-6.77,0-16.8-3.72-24.94-9.26-5.64-3.84-9.54-7.95-11.57-12.23-2.19-4.61-2-9.16.45-12.8,2.27-3.33,6-5.17,10.55-5.17,4.94,0,10.76,2.18,16.82,6.31a59,59,0,0,1,14.38,13.78c5.79,8.09,4.87,12.93,3.08,15.57-1.18,1.73-3.66,3.8-8.77,3.8Z"/><path class="d" d="M11.15,226.8c3.88,0,8.85,1.72,14.58,5.62,10.55,7.17,19.64,19,16.39,23.79-1,1.42-2.91,2.05-5.46,2.05-6,0-15.28-3.52-22.69-8.56C3.42,242.52.66,235,3.91,230.22c1.49-2.19,4-3.42,7.24-3.42m0-8c-5.9,0-10.82,2.46-13.85,6.92-3.27,4.79-3.54,10.9-.76,16.76,2.34,4.93,6.69,9.59,12.93,13.83,8.89,6.05,19.56,9.95,27.19,9.95,6.86,0,10.36-3,12.08-5.55,7.56-11.12-7.35-27.31-18.52-34.91-6.82-4.64-13.24-7-19.07-7Z"/><path class="c" d="M39.68,313.24c-6.78,0-16.8-3.72-24.94-9.26-5.65-3.84-9.54-8-11.57-12.23-2.19-4.62-2-9.16.45-12.81,2.26-3.33,6-5.16,10.55-5.16,4.94,0,10.76,2.18,16.82,6.3a59.19,59.19,0,0,1,14.38,13.78c5.79,8.1,4.87,12.94,3.08,15.57-1.18,1.74-3.66,3.81-8.77,3.81Z"/><path class="d" d="M14.17,277.78c3.87,0,8.85,1.72,14.57,5.61,10.55,7.18,19.65,19,16.4,23.79-1,1.42-2.92,2.06-5.46,2.06-6,0-15.28-3.53-22.69-8.57C6.44,293.5,3.68,286,6.93,281.19c1.48-2.18,4-3.41,7.24-3.41m0-8c-5.9,0-10.83,2.46-13.86,6.91-4.78,7-4.47,19.28,12.18,30.6,8.89,6,19.56,9.95,27.19,9.95,6.86,0,10.35-3,12.08-5.56,4.54-6.68.8-14.64-3.14-20.15a63.37,63.37,0,0,0-15.38-14.75c-6.83-4.65-13.24-7-19.07-7Z"/><path class="c" d="M54.3,369.62c-6.78,0-16.8-3.72-24.94-9.26-8.88-6-17.12-16.22-11.12-25,2.26-3.33,6-5.16,10.55-5.16,4.94,0,10.76,2.18,16.82,6.3,10.32,7,23,21.2,17.46,29.35-1.18,1.74-3.66,3.81-8.77,3.81Z"/><path class="d" d="M28.79,334.16c3.88,0,8.85,1.72,14.57,5.61,10.55,7.18,19.65,19,16.4,23.79-1,1.42-2.92,2.06-5.46,2.06-6,0-15.28-3.53-22.69-8.57-10.55-7.18-13.31-14.71-10.06-19.48,1.48-2.19,4-3.41,7.24-3.41m0-8c-5.9,0-10.83,2.45-13.86,6.91-3.26,4.8-3.53,10.91-.75,16.77,2.33,4.93,6.69,9.58,12.93,13.83,8.89,6,19.56,9.95,27.19,9.95,6.86,0,10.35-3,12.08-5.56C73.94,357,59,340.75,47.86,333.15c-6.83-4.64-13.24-7-19.07-7Z"/><path class="c" d="M118.12,361.73a8.83,8.83,0,0,1-6.72-2.59c-2.18-2.32-3.86-6.95.59-15.86a59.08,59.08,0,0,1,12-15.87c6.31-5.94,12.56-9.08,18.08-9.08a11.71,11.71,0,0,1,8.77,3.64c7.32,7.76.78,19.11-7,26.47-6.79,6.4-17.74,13.29-25.71,13.29Z"/><path class="d" d="M142.09,322.33a7.75,7.75,0,0,1,5.86,2.38c4,4.2,2.43,12.07-6.86,20.82-7.27,6.85-17.12,12.2-23,12.2a5.06,5.06,0,0,1-3.81-1.33c-4-4.2,3.16-17.33,12.45-26.08,5.87-5.53,11.2-8,15.33-8m0-8c-6.56,0-13.76,3.52-20.82,10.17-9.83,9.26-22,27.6-12.78,37.38a12.69,12.69,0,0,0,9.63,3.85c9.11,0,20.86-7.22,28.45-14.38,14.66-13.8,13-25.93,7.2-32.13a15.84,15.84,0,0,0-11.68-4.89Z"/><path class="c" d="M103.44,306.14a8.83,8.83,0,0,1-6.72-2.58c-2.18-2.32-3.85-7,.59-15.87a59.44,59.44,0,0,1,12-15.87c6.31-5.94,12.56-9.08,18.09-9.08a11.7,11.7,0,0,1,8.76,3.64c7.32,7.76.79,19.12-7,26.48-6.79,6.4-17.73,13.28-25.71,13.28Z"/><path class="d" d="M127.42,266.74a7.78,7.78,0,0,1,5.85,2.38c4,4.2,2.43,12.08-6.86,20.83-7.27,6.84-17.12,12.19-23,12.19a5,5,0,0,1-3.81-1.33c-3.95-4.2,3.16-17.33,12.45-26.08,5.87-5.53,11.2-8,15.34-8m0-8c-6.57,0-13.77,3.52-20.83,10.17-9.83,9.26-22,27.6-12.78,37.39a12.74,12.74,0,0,0,9.63,3.84c9.11,0,20.86-7.22,28.45-14.37,14.66-13.81,13-25.94,7.21-32.13a15.83,15.83,0,0,0-11.68-4.9Z"/><path class="c" d="M88.34,255.81a8.83,8.83,0,0,1-6.72-2.59c-2.18-2.31-3.85-6.95.59-15.86a59.28,59.28,0,0,1,12-15.87c6.3-5.94,12.55-9.08,18.08-9.08a11.72,11.72,0,0,1,8.77,3.64c3,3.21,3.89,7.67,2.46,12.57-1.33,4.55-4.53,9.22-9.5,13.91-6.79,6.4-17.73,13.28-25.71,13.28Z"/><path class="d" d="M112.32,216.41a7.78,7.78,0,0,1,5.85,2.38c4,4.2,2.43,12.07-6.86,20.83-7.26,6.84-17.12,12.19-23,12.19a5,5,0,0,1-3.8-1.33c-4-4.2,3.15-17.33,12.44-26.08,5.87-5.53,11.21-8,15.34-8m0-8c-6.57,0-13.77,3.52-20.83,10.17-9.83,9.26-22,27.6-12.78,37.39a12.76,12.76,0,0,0,9.63,3.84c9.12,0,20.86-7.22,28.46-14.37,5.49-5.18,9.06-10.46,10.59-15.7,1.82-6.22.58-12.21-3.39-16.43a15.81,15.81,0,0,0-11.68-4.9Z"/><polyline class="b" points="81.35 253.71 67.79 267.16 46.83 258.85"/><polyline class="b" points="98 302.1 77.85 319.69 50.56 309.17"/><polyline class="b" points="114.97 356.82 92.84 376.13 62.87 364.58"/><path class="a" d="M162.58,366.05c-12.71,11.16-9,36.15-9,36.15s24.3,6.88,37-4.28,9-36.15,9-36.15S175.29,354.88,162.58,366.05Z"/><line class="a" x1="153.57" y1="402.2" x2="112.97" y2="437.87"/><line class="a" x1="189.25" y1="452.44" x2="138.99" y2="496.6"/><path class="a" d="M9.56,422.61c15.48,5.65,35.3-9.69,35.3-9.69s-5.27-24.51-20.75-30.16-35.3,9.7-35.3,9.7S-5.92,417,9.56,422.61Z"/><line class="a" x1="44.86" y1="412.92" x2="110.36" y2="436.82"/><path class="a" d="M33.74,481.16c15.89,5.8,36-9.42,36-9.42s-5.61-24.63-21.5-30.43-36,9.43-36,9.43S17.85,475.36,33.74,481.16Z"/><line class="a" x1="69.78" y1="471.74" x2="137.02" y2="496.28"/><path class="a" d="M67.75,535.65c15.89,5.8,36.05-9.42,36.05-9.42S98.19,501.6,82.3,495.8s-36,9.43-36,9.43S51.86,529.85,67.75,535.65Z"/><line class="a" x1="103.8" y1="526.23" x2="171.03" y2="550.77"/><path class="b" d="M330.67,425.45c25.7,145.09,77.8,304.86,184,456.34"/><path class="c" d="M351,335.58c-4.48,0-6.81-1.82-8-3.35-6-7.83,5.91-22.68,15.82-30.26,6.21-4.73,12.21-7.24,17.36-7.24a12.1,12.1,0,0,1,9.91,4.6c6.47,8.48-1.19,19.1-9.73,25.61-8.33,6.37-18.53,10.64-25.38,10.64Z"/><path class="d" d="M376.21,298.73a8.08,8.08,0,0,1,6.73,3c3.51,4.59,1.17,12.26-9,20-7.43,5.68-17,9.82-22.95,9.82-2.17,0-3.86-.55-4.8-1.77-3.5-4.59,4.93-16.91,15.07-24.66,5.83-4.45,11-6.42,14.93-6.42m0-8c-6,0-12.87,2.79-19.78,8.06C345.69,307,331.7,324,339.85,334.66c1.72,2.25,5,4.92,11.16,4.92,8.84,0,20.34-5.75,27.81-11.46,16-12.21,15.65-24.45,10.48-31.21a16,16,0,0,0-13.09-6.18Z"/><path class="c" d="M342.15,278.78c-4.48,0-6.81-1.82-8-3.35-1.93-2.53-3.12-7.31,2.22-15.72A59.62,59.62,0,0,1,350,245.17c6.21-4.74,12.21-7.24,17.36-7.24a12.07,12.07,0,0,1,9.91,4.6c2.68,3.5,3.09,8,1.15,12.76-1.79,4.38-5.45,8.7-10.88,12.85-8.33,6.36-18.53,10.64-25.38,10.64Z"/><path class="d" d="M367.35,241.93a8.08,8.08,0,0,1,6.73,3c3.51,4.58,1.17,12.25-9,20-7.43,5.68-17,9.82-23,9.82-2.17,0-3.86-.55-4.8-1.78-3.5-4.58,4.93-16.91,15.07-24.65,5.83-4.45,11-6.42,14.93-6.42m0-8c-6,0-12.87,2.79-19.78,8.06-10.74,8.2-24.73,25.18-16.58,35.87,1.72,2.24,5,4.92,11.16,4.92,8.84,0,20.34-5.76,27.81-11.46,16-12.22,15.65-24.45,10.48-31.22a16,16,0,0,0-13.09-6.17Z"/><path class="c" d="M359.5,393.57c-4.48,0-6.81-1.82-8-3.35-1.94-2.53-3.12-7.31,2.22-15.71A59.09,59.09,0,0,1,367.35,360c6.21-4.73,12.21-7.24,17.36-7.24a12.1,12.1,0,0,1,9.91,4.6c2.67,3.51,3.08,8,1.15,12.76-1.79,4.38-5.45,8.71-10.88,12.85-8.34,6.36-18.54,10.64-25.39,10.64Z"/><path class="d" d="M384.71,356.72a8.09,8.09,0,0,1,6.73,3c3.5,4.59,1.16,12.26-9,20-7.44,5.68-17,9.82-23,9.82-2.17,0-3.86-.55-4.79-1.77-3.51-4.59,4.92-16.91,15.07-24.66,5.83-4.45,11-6.42,14.93-6.42m0-8c-6,0-12.88,2.79-19.79,8.06-10.73,8.2-24.73,25.19-16.57,35.87,1.71,2.24,5,4.92,11.15,4.92,8.85,0,20.34-5.76,27.82-11.46,16-12.22,15.64-24.45,10.48-31.22a16,16,0,0,0-13.09-6.17Z"/><path class="c" d="M368.25,453c-4.48,0-6.81-1.82-8-3.35-6-7.84,5.9-22.69,15.82-30.26,6.21-4.74,12.21-7.24,17.36-7.24a12.1,12.1,0,0,1,9.91,4.6c6.47,8.48-1.2,19.09-9.73,25.61C385.3,448.69,375.1,453,368.25,453Z"/><path class="d" d="M393.46,416.12a8.06,8.06,0,0,1,6.73,3c3.5,4.58,1.16,12.25-9,20-7.43,5.68-17,9.82-23,9.82-2.17,0-3.86-.55-4.79-1.78-3.51-4.59,4.92-16.91,15.07-24.65,5.83-4.45,11-6.42,14.93-6.42m0-8c-6,0-12.88,2.78-19.79,8.06-10.73,8.2-24.73,25.18-16.57,35.87,1.71,2.24,5,4.92,11.15,4.92,8.85,0,20.35-5.76,27.82-11.46,6-4.59,10.09-9.47,12.15-14.52,2.46-6,1.85-12.09-1.67-16.7a16,16,0,0,0-13.09-6.17Z"/><polyline class="b" points="364.07 447.68 336.02 462.54 311.44 450.02"/><path class="a" d="M289.68,538.72c-10.36,13.38-2,37.2-2,37.2s25.16,2.14,35.52-11.24,2-37.21,2-37.21S300,525.34,289.68,538.72Z"/><path class="a" d="M421.77,451.21c-14.38,8.91-14.85,34.16-14.85,34.16s22.83,10.8,37.2,1.88S459,453.09,459,453.09,436.14,442.29,421.77,451.21Z"/><line class="a" x1="406.92" y1="485.37" x2="350.06" y2="520.64"/><path class="a" d="M443.43,516.77c-13.68,10-12.3,35.17-12.3,35.17s23.57,9.09,37.25-.86,12.29-35.17,12.29-35.17S457.11,506.82,443.43,516.77Z"/><line class="a" x1="431.13" y1="551.94" x2="372.49" y2="594.6"/><path class="a" d="M473.21,592c-13.33,10.41-11.1,35.56-11.1,35.56s23.86,8.29,37.2-2.11,11.1-35.57,11.1-35.57S486.55,581.63,473.21,592Z"/><line class="a" x1="462.11" y1="627.59" x2="401.77" y2="674.67"/><path class="a" d="M514.7,663.66c-12.73,11.14-9.09,36.13-9.09,36.13s24.29,6.94,37-4.2,9.09-36.13,9.09-36.13S527.43,652.52,514.7,663.66Z"/><line class="a" x1="505.61" y1="699.79" x2="437.55" y2="759.34"/><path class="a" d="M341.62,575.19c-9.44,14,.53,37.25.53,37.25s25.25.44,34.68-13.6-.53-37.25-.53-37.25S351.05,561.14,341.62,575.19Z"/><line class="a" x1="342.15" y1="612.44" x2="304.84" y2="667.98"/><line class="a" x1="234.36" y1="666.87" x2="305.91" y2="668.37"/><path class="e" d="M196.62,726.92l-120-101.76S228.76,501.67,228.76,143.49l140.1,18C368.86,594.35,196.62,726.92,196.62,726.92Z"/><path class="b" d="M372.33,58.78c17.86,72.1,53,230,143.64,341.12"/><path class="c" d="M371.87,62.32c-4.57,0-9-3.85-12.82-11.13a66.36,66.36,0,0,1-6.47-20.59C350.89,18.9,353,4.66,364.49,3a13.12,13.12,0,0,1,1.76-.12c10.4,0,15.83,12,17.45,23.25a66,66,0,0,1-.53,22.16c-2.27,10.64-6.78,13.46-10.16,14a8.62,8.62,0,0,1-1.14.08Z"/><path class="d" d="M366.25,6.88c6,0,11.58,6.53,13.49,19.82,2,14.17-.89,30.65-7.3,31.58a5.46,5.46,0,0,1-.57,0c-6.27,0-13.36-14.53-15.33-28.29-2-14.17,2.11-22.15,8.52-23.07a9.64,9.64,0,0,1,1.19-.08m0-8a16.59,16.59,0,0,0-2.33.16c-6.09.88-11.08,5.06-13.69,11.47C348,16,347.44,23,348.62,31.17c2,14.13,9.9,35.15,23.25,35.15a10.85,10.85,0,0,0,1.71-.13c8.41-1.21,12-9.95,13.5-17.07a69.8,69.8,0,0,0,.58-23.56c-1.1-7.66-3.34-13.87-6.66-18.45-3.85-5.31-9.08-8.23-14.75-8.23Z"/><path class="c" d="M354.09,122.14c-6.71,0-16.09-2.88-23.9-7.33-5.93-3.38-10.13-7.17-12.5-11.28-2.54-4.42-2.74-9-.56-12.8s6.32-6,11.53-6c4.69,0,10,1.69,15.85,5,10.84,6.18,24.6,19.32,19.72,27.88-1.19,2.08-3.91,4.55-10.14,4.55Z"/><path class="d" d="M328.66,88.7c3.71,0,8.42,1.38,13.87,4.49,11.08,6.32,21.08,17.41,18.22,22.42-1,1.75-3.44,2.53-6.66,2.53-6,0-14.71-2.69-21.91-6.8-11.09-6.32-14.43-13.61-11.57-18.63,1.45-2.54,4.22-4,8.05-4m0-8c-6.61,0-12.08,2.93-15,8s-2.67,11.15.57,16.78c2.72,4.72,7.42,9,14,12.76,8.49,4.84,18.41,7.85,25.88,7.85,8.16,0,11.9-3.57,13.61-6.57,4-7-.35-14.66-4.71-19.84a63.22,63.22,0,0,0-16.5-13.49c-6.44-3.68-12.44-5.54-17.83-5.54Z"/><path class="c" d="M361.12,172.72c-6.72,0-16.09-2.88-23.9-7.33-5.93-3.38-10.14-7.17-12.5-11.28-2.54-4.42-2.74-9-.56-12.8s6.32-6,11.53-6c4.69,0,10,1.68,15.85,5A59.21,59.21,0,0,1,367,152.89c6.41,7.61,5.88,12.51,4.3,15.28-1.19,2.08-3.91,4.55-10.14,4.55Z"/><path class="d" d="M335.69,139.28c3.71,0,8.41,1.38,13.87,4.49,11.08,6.32,21.08,17.41,18.22,22.42-1,1.75-3.44,2.53-6.66,2.53-6,0-14.71-2.69-21.92-6.8-11.08-6.32-14.42-13.61-11.56-18.63,1.45-2.54,4.22-4,8.05-4m0-8c-6.61,0-12.08,2.93-15,8.05-4.22,7.39-2.94,19.57,14.55,29.54,8.49,4.84,18.41,7.85,25.88,7.85,8.15,0,11.9-3.57,13.61-6.57,4-7-.35-14.66-4.71-19.84a63.22,63.22,0,0,0-16.5-13.49c-6.44-3.68-12.44-5.54-17.83-5.54Z"/><path class="c" d="M380.14,227.77c-6.71,0-16.09-2.88-23.89-7.33-5.94-3.38-10.14-7.18-12.5-11.28-2.55-4.43-2.75-9-.56-12.8s6.31-6,11.53-6c4.68,0,10,1.68,15.84,5,10.84,6.18,24.6,19.32,19.72,27.88-1.18,2.07-3.9,4.55-10.14,4.55Z"/><path class="d" d="M354.72,194.33c3.71,0,8.41,1.37,13.86,4.48,11.09,6.33,21.09,17.41,18.23,22.43-1,1.75-3.44,2.53-6.67,2.53-6,0-14.7-2.69-21.91-6.8-11.09-6.32-14.43-13.61-11.57-18.63,1.45-2.55,4.23-4,8.06-4m0-8c-6.62,0-12.09,2.93-15,8s-2.66,11.15.57,16.77c2.72,4.73,7.43,9,14,12.77,8.49,4.84,18.4,7.85,25.87,7.85,8.16,0,11.91-3.57,13.62-6.57,4-7-.36-14.66-4.72-19.84a63.28,63.28,0,0,0-16.5-13.5c-6.44-3.67-12.44-5.53-17.82-5.53Z"/><path class="c" d="M443.84,214.85a8.48,8.48,0,0,1-5.9-2.1c-7.31-6.61,1.69-23.38,10.07-32.62,6.23-6.89,12.6-10.52,18.4-10.52a11.58,11.58,0,0,1,7.93,3c7.91,7.16,2.29,19-4.92,26.95-6.9,7.61-17.9,15.32-25.58,15.32Z"/><path class="d" d="M466.41,173.61a7.6,7.6,0,0,1,5.25,1.94c4.27,3.87,3.37,11.84-5.2,21.3-7,7.69-16.87,14-22.62,14a4.67,4.67,0,0,1-3.22-1.06c-4.27-3.87,1.78-17.52,10.35-27,5.77-6.36,11.2-9.2,15.44-9.2m0-8c-7,0-14.35,4.09-21.37,11.83a63.4,63.4,0,0,0-11.48,18c-2.53,6.28-4.3,14.89,1.69,20.32a12.43,12.43,0,0,0,8.59,3.13c4.35,0,9.43-1.8,15.09-5.33a65.58,65.58,0,0,0,13.45-11.3c5.07-5.6,8.21-11.14,9.32-16.48,1.33-6.35-.37-12.23-4.67-16.12a15.52,15.52,0,0,0-10.62-4Z"/><path class="c" d="M424.82,160.59a8.53,8.53,0,0,1-5.9-2.09c-7.31-6.62,1.69-23.38,10.07-32.63,6.23-6.88,12.6-10.52,18.4-10.52a11.59,11.59,0,0,1,7.93,3c7.91,7.16,2.29,19-4.92,27-6.9,7.61-17.9,15.31-25.58,15.31Z"/><path class="d" d="M447.39,119.35a7.6,7.6,0,0,1,5.25,1.94c4.27,3.88,3.37,11.85-5.2,21.3-7,7.69-16.87,14-22.62,14a4.66,4.66,0,0,1-3.22-1.05c-4.27-3.88,1.78-17.53,10.35-27,5.77-6.36,11.2-9.21,15.44-9.21m0-8c-7,0-14.35,4.09-21.37,11.84-9.07,10-19.75,29.25-9.79,38.28a12.5,12.5,0,0,0,8.59,3.12c4.35,0,9.43-1.79,15.09-5.33A65.27,65.27,0,0,0,453.36,148c5.07-5.59,8.21-11.14,9.33-16.48,1.32-6.35-.38-12.22-4.68-16.12a15.57,15.57,0,0,0-10.62-4Z"/><path class="c" d="M405.8,111.61a8.58,8.58,0,0,1-5.91-2.09c-7.3-6.62,1.69-23.38,10.07-32.63,6.24-6.88,12.61-10.52,18.41-10.52a11.59,11.59,0,0,1,7.93,3c3.27,3,4.49,7.34,3.45,12.33-1,4.64-3.79,9.55-8.37,14.62-6.9,7.61-17.9,15.31-25.58,15.31Z"/><path class="d" d="M428.37,70.37a7.57,7.57,0,0,1,5.24,1.94c4.28,3.88,3.37,11.84-5.2,21.3-7,7.69-16.86,14-22.61,14a4.66,4.66,0,0,1-3.22-1c-4.28-3.88,1.78-17.53,10.35-27,5.76-6.37,11.2-9.21,15.44-9.21m0-8c-7,0-14.35,4.09-21.37,11.83-9.07,10-19.75,29.26-9.79,38.28a12.43,12.43,0,0,0,8.59,3.13c4.35,0,9.42-1.79,15.09-5.33A65.58,65.58,0,0,0,434.34,99c5.07-5.59,8.21-11.14,9.32-16.48,1.33-6.35-.38-12.22-4.67-16.12a15.57,15.57,0,0,0-10.62-4Z"/><polyline class="b" points="399.66 110.02 387.21 124.5 365.66 117.87"/><polyline class="b" points="420.08 156.95 401.38 176.07 373.34 167.74"/><polyline class="b" points="441.31 210.16 420.77 231.16 389.98 222.01"/><path class="a" d="M489.5,215.6c-11.78,12.14-6.13,36.75-6.13,36.75s24.77,4.94,36.56-7.19,6.13-36.75,6.13-36.75S501.29,203.47,489.5,215.6Z"/><line class="a" x1="483.37" y1="252.35" x2="445.72" y2="291.11"/><line class="a" x1="522.91" y1="299.62" x2="476.29" y2="347.61"/><path class="a" d="M355.16,789.77c-4.06,16.43,13.25,34.82,13.25,34.82s23.88-8.23,27.93-24.65-13.25-34.82-13.25-34.82S359.21,773.35,355.16,789.77Z"/><path class="b" d="M59.83,665.77c45.54,51.82,176.42,193.89,330,235.16"/><path class="c" d="M56.52,670.25c-8.52,0-20.52-9.47-28-18.83-4.71-5.93-7.48-11.56-8.21-16.73-.78-5.49.84-10.15,4.57-13.11a12.43,12.43,0,0,1,7.83-2.69c6.53,0,13.78,4.61,20.42,13a66,66,0,0,1,10.73,19.4c3.41,10.33.94,15-1.74,17.17a8.85,8.85,0,0,1-5.63,1.83Z"/><path class="d" d="M32.75,622.89c4.86,0,11,3.55,17.29,11.45,8.91,11.2,14.7,26.92,9.63,30.95a4.93,4.93,0,0,1-3.15,1c-6.37,0-17.38-8-24.83-17.32-8.91-11.21-9.35-20.19-4.28-24.22a8.4,8.4,0,0,1,5.34-1.82m0-8a16.36,16.36,0,0,0-10.32,3.56c-7.12,5.66-10.61,18.35,3,35.46,7.79,9.8,20.84,20.34,31.09,20.34a12.86,12.86,0,0,0,8.13-2.7c11.25-8.94.85-30.63-8.35-42.19-9.51-12-18-14.47-23.55-14.47Z"/><path class="c" d="M51.14,735.42c-10.46,0-22.72-3.72-22.84-14.2,0-4.41,2.34-8.28,6.72-10.91,4-2.44,9.57-3.72,16.4-3.79H52c12.6,0,30.38,4.38,30.49,14.12s-18.31,14.64-30.79,14.78Z"/><path class="d" d="M52,710.52c12.61,0,26.43,4.47,26.49,10.16s-14.07,10.6-26.83,10.74h-.55c-12.4,0-18.78-4.56-18.84-10.25s6.4-10.51,19.17-10.65H52m0-8h-.65c-20.13.22-27.17,10.23-27.08,18.74s7.18,18.16,26.84,18.16h.64a63.44,63.44,0,0,0,21-3.78c6.33-2.4,13.85-7,13.77-15-.15-13.26-20.71-18.07-34.49-18.07Z"/><path class="c" d="M82.73,775.54c-10.46,0-22.72-3.72-22.83-14.2,0-4.41,2.33-8.28,6.71-10.91,4.06-2.44,9.58-3.72,16.41-3.79h.6c12.6,0,30.38,4.38,30.49,14.12,0,3.18-1.88,7.72-11.18,11.26a59.49,59.49,0,0,1-19.6,3.52Z"/><path class="d" d="M83.62,750.64c12.62,0,26.43,4.47,26.49,10.16S96,771.4,83.28,771.54h-.55c-12.4,0-18.77-4.56-18.83-10.25s6.4-10.51,19.16-10.65h.56m0-8H83c-20.13.21-27.16,10.23-27.07,18.74s7.17,18.16,26.83,18.16h.64a63.54,63.54,0,0,0,21-3.78c6.32-2.41,13.85-7,13.76-15-.14-13.26-20.7-18.07-34.49-18.07Z"/><path class="c" d="M126.94,813.46c-10.47,0-22.73-3.72-22.84-14.2,0-4.4,2.34-8.28,6.71-10.91,4.06-2.44,9.58-3.71,16.41-3.79h.61c12.59,0,30.38,4.38,30.48,14.12s-18.3,14.65-30.78,14.78Z"/><path class="d" d="M127.83,788.56c12.61,0,26.42,4.48,26.48,10.16s-14.06,10.6-26.82,10.74h-.55c-12.4,0-18.78-4.55-18.84-10.24s6.4-10.52,19.16-10.66h.57m0-8h-.65c-20.13.22-27.17,10.23-27.08,18.74s7.17,18.16,26.84,18.16h.63a63.24,63.24,0,0,0,21-3.78c6.33-2.4,13.85-7,13.76-15-.14-13.27-20.7-18.08-34.48-18.08Z"/><path class="c" d="M195.74,765.76a7.47,7.47,0,0,1-1.57-.16c-3.11-.66-7.13-3.5-8.57-13.35a59.29,59.29,0,0,1,.8-19.9C189,719.79,195.24,712.3,203,712.3a10.91,10.91,0,0,1,2.35.25c4.31.9,7.58,4.07,9.2,8.91,1.51,4.49,1.56,10.15.15,16.84-2.4,11.4-9.86,27.46-18.94,27.46Z"/><path class="d" d="M203,716.3a7.23,7.23,0,0,1,1.53.16c5.65,1.19,8.88,8.52,6.26,21-2.52,11.95-9.49,24.29-15,24.29a3.64,3.64,0,0,1-.74-.07c-5.65-1.19-7.31-16-4.68-28.52,2.39-11.37,7.51-16.87,12.66-16.87m0-8c-3.66,0-16,1.67-20.49,23.23-2.78,13.22-2.29,35.22,10.86,38a11.21,11.21,0,0,0,2.39.25c5.69,0,10.91-3.88,15.51-11.54a64.52,64.52,0,0,0,7.35-19.1c4.14-19.7-4.12-28.74-12.45-30.49a15.37,15.37,0,0,0-3.17-.33Z"/><path class="c" d="M151.94,728.52a7.37,7.37,0,0,1-1.56-.16c-9.65-2-10.35-21-7.78-33.25,2.64-12.56,8.84-20.05,16.59-20.05a11.54,11.54,0,0,1,2.34.24c6.53,1.38,12.89,8.94,9.35,25.76-2.4,11.4-9.86,27.46-18.94,27.46Z"/><path class="d" d="M159.19,679.06a7.21,7.21,0,0,1,1.52.16c5.65,1.19,8.88,8.52,6.26,21-2.51,11.95-9.49,24.29-15,24.29a3.05,3.05,0,0,1-.74-.08c-5.65-1.18-7.31-16-4.68-28.51,2.39-11.37,7.51-16.87,12.67-16.87m0-8c-3.67,0-16,1.67-20.5,23.22a63.16,63.16,0,0,0-.85,21.3,29.85,29.85,0,0,0,2.77,9.35c2.63,5.07,6.32,6.79,8.94,7.34a11.28,11.28,0,0,0,2.39.25c5.69,0,10.91-3.88,15.51-11.54a64.24,64.24,0,0,0,7.35-19.1c1.55-7.39,1.46-13.76-.27-18.93-2.06-6.15-6.5-10.37-12.17-11.56a15.51,15.51,0,0,0-3.17-.33Z"/><path class="c" d="M110.8,695.83a7.47,7.47,0,0,1-1.57-.16c-3.11-.65-7.13-3.5-8.57-13.35a59.29,59.29,0,0,1,.8-19.9c2.64-12.55,8.84-20,16.58-20a10.91,10.91,0,0,1,2.35.25c4.31.9,7.58,4.07,9.2,8.91,1.51,4.49,1.56,10.15.15,16.84-2.4,11.4-9.86,27.46-18.94,27.46Z"/><path class="d" d="M118,646.37a7.23,7.23,0,0,1,1.53.16c5.65,1.19,8.88,8.53,6.26,21-2.52,12-9.49,24.29-15,24.29a3.64,3.64,0,0,1-.74-.07c-5.65-1.19-7.31-16-4.68-28.52,2.39-11.37,7.51-16.87,12.66-16.87m0-8c-3.66,0-16,1.68-20.49,23.23-2.78,13.22-2.29,35.22,10.86,38a11.89,11.89,0,0,0,2.39.24c5.69,0,10.91-3.88,15.51-11.54a64.52,64.52,0,0,0,7.35-19.1c1.55-7.39,1.46-13.76-.27-18.93-2.06-6.15-6.5-10.36-12.18-11.56a15.37,15.37,0,0,0-3.17-.33Z"/><polyline class="b" points="109.29 696.22 105.84 715.01 83.89 720.16"/><polyline class="b" points="150.6 726.44 144.1 752.38 115.69 759.34"/><polyline class="b" points="195.78 761.65 188.64 790.15 157.44 797.79"/><path class="a" d="M240.13,742c-4,16.42,13.25,34.82,13.25,34.82s23.88-8.24,27.93-24.66-13.25-34.82-13.25-34.82S244.18,725.61,240.13,742Z"/><line class="a" x1="253.38" y1="776.86" x2="240.43" y2="829.32"/><path class="a" d="M298.12,762.9c-4.05,16.42,13.25,34.81,13.25,34.81s23.88-8.23,27.93-24.65-13.25-34.82-13.25-34.82S302.17,746.47,298.12,762.9Z"/><line class="a" x1="311.37" y1="797.71" x2="295.34" y2="862.67"/><line class="a" x1="369.39" y1="820.86" x2="352.6" y2="888.89"/><path class="a" d="M147.6,875.66c16.36-4.31,24.21-28.32,24.21-28.32s-18.67-17-35-12.69S112.58,863,112.58,863,131.25,880,147.6,875.66Z"/><line class="a" x1="171.81" y1="847.34" x2="241.01" y2="829.08"/><path class="a" d="M200.13,910.11c16.35-4.31,24.2-28.32,24.2-28.32s-18.67-17-35-12.69-24.2,28.32-24.2,28.32S183.77,914.43,200.13,910.11Z"/><line class="a" x1="224.33" y1="881.79" x2="293.53" y2="863.53"/><path class="a" d="M259.17,935.41c16.36-4.31,24.2-28.32,24.2-28.32s-18.67-17-35-12.69-24.2,28.32-24.2,28.32S242.82,939.73,259.17,935.41Z"/><line class="a" x1="283.37" y1="907.09" x2="352.58" y2="888.83"/><circle class="f" cx="395.92" cy="785.92" r="104.08"/><path class="g" d="M420.79,738.83H353.16V723.77h87.55V734.5c-32.18,41.14-38.82,72.11-41.1,125.12H381.55C383.83,808.41,394,776.11,420.79,738.83Z"/></svg>