<svg xmlns="http://www.w3.org/2000/svg" width="510" height="900" viewBox="0 0 510 900"><defs><style>.a{fill:#56634a;}.a,.b,.e{stroke:#432d1e;}.a,.b{stroke-miterlimit:10;stroke-width:8px;}.b{fill:none;}.c,.f{fill:#bd645d;}.d{fill:#432d1e;}.e{fill:#fff;stroke-width:15px;}.e,.f{stroke-miterlimit:2;}.f{stroke:#bd645d;stroke-width:12px;}</style></defs><title>72</title><path class="a" d="M178.81,745c-16.14,5.05-35.56-11.1-35.56-11.1s6.75-24.33,22.9-29.38,35.56,11.09,35.56,11.09S195,740,178.81,745Z"/><line class="a" x1="143.25" y1="733.92" x2="74.94" y2="755.3"/><path class="b" d="M444.13,302.83c-42,113.3-132.06,396.78-338.45,386.83"/><path class="c" d="M445.1,306.45a7.77,7.77,0,0,1-2-.26c-3.3-.86-7.47-4.16-8.53-15a65.91,65.91,0,0,1,2-22.08c3.47-13.29,10.42-21.22,18.58-21.22a12.49,12.49,0,0,1,3.1.4c11.23,2.93,11.73,17.33,8.75,28.76C463.73,289.26,454.86,306.45,445.1,306.45Z"/><path class="d" d="M455.07,251.89a8.21,8.21,0,0,1,2.09.27c6.27,1.64,9.5,10,5.89,23.88-3.43,13.11-11.76,26.41-17.95,26.41a4,4,0,0,1-1-.13c-6.26-1.63-7.32-18.35-3.71-32.2,3.22-12.32,9.05-18.23,14.71-18.23m0-8h0c-10.1,0-18.49,9.05-22.45,24.21-3.73,14.3-4.47,38.34,9.43,42a12,12,0,0,0,3.05.39c5.86,0,11.47-4,16.68-11.87a71.53,71.53,0,0,0,9-20.52c5.52-21.15-2.8-31.34-11.61-33.64a16.32,16.32,0,0,0-4.11-.53Z"/><path class="c" d="M458.37,368c-8.5,0-11.65-3.17-12.79-5.83-1.26-2.92-1.24-7.85,6-14.7a59.51,59.51,0,0,1,16.74-10.79,36.08,36.08,0,0,1,14-3.33c6.3,0,11.07,2.71,13.1,7.42,1.74,4.05,1,8.54-2,12.65-2.81,3.82-7.42,7.12-13.69,9.81A57.35,57.35,0,0,1,458.37,368Z"/><path class="d" d="M482.29,337.36c4.83,0,8.09,1.88,9.42,5,2.28,5.3-1.85,12.17-13.58,17.21A53.6,53.6,0,0,1,458.37,364c-4.6,0-8.1-1.05-9.12-3.41-2.27-5.3,8.9-15.19,20.63-20.23a32.24,32.24,0,0,1,12.41-3m0-8h0A40,40,0,0,0,466.72,333c-12.41,5.33-30.12,18.39-24.82,30.74,1.62,3.77,5.79,8.25,16.47,8.25a61.57,61.57,0,0,0,22.92-5.09c18.5-7.95,21.13-19.9,17.77-27.72-2.68-6.25-8.8-9.84-16.77-9.84Z"/><path class="c" d="M445.71,417.48c-8.5,0-11.65-3.17-12.79-5.83-3.89-9,11.26-20.56,22.72-25.49a36.08,36.08,0,0,1,14-3.33c6.3,0,11.07,2.71,13.1,7.42,4.21,9.8-5.82,18.23-15.68,22.47A57.53,57.53,0,0,1,445.71,417.48Z"/><path class="d" d="M469.63,386.83c4.83,0,8.09,1.88,9.42,5,2.28,5.3-1.85,12.17-13.58,17.21a53.6,53.6,0,0,1-19.76,4.44c-4.6,0-8.1-1.05-9.12-3.4-2.27-5.31,8.9-15.2,20.63-20.24a32.24,32.24,0,0,1,12.41-3m0-8h0a40,40,0,0,0-15.56,3.66,63.37,63.37,0,0,0-17.91,11.56c-4.91,4.66-10.1,11.76-6.91,19.18,1.62,3.77,5.79,8.25,16.47,8.25a61.57,61.57,0,0,0,22.92-5.09c6.94-3,12.09-6.72,15.33-11.11,3.84-5.23,4.73-11.28,2.44-16.61-2.68-6.25-8.8-9.84-16.77-9.84Z"/><path class="c" d="M420.63,470.05c-8.5,0-11.65-3.17-12.79-5.83-3.89-9.06,11.26-20.56,22.72-25.49a36.08,36.08,0,0,1,14-3.33c6.3,0,11.07,2.7,13.1,7.42,1.74,4.05,1,8.54-2,12.65-2.81,3.82-7.42,7.12-13.69,9.81A57.35,57.35,0,0,1,420.63,470.05Z"/><path class="d" d="M444.54,439.4c4.84,0,8.1,1.88,9.43,5,2.28,5.3-1.85,12.17-13.58,17.21a53.6,53.6,0,0,1-19.76,4.44c-4.6,0-8.1-1.05-9.12-3.41-2.27-5.3,8.9-15.2,20.63-20.23a32.24,32.24,0,0,1,12.4-3m0-8h0A39.91,39.91,0,0,0,429,435.06a63.37,63.37,0,0,0-17.91,11.56c-4.91,4.65-10.1,11.76-6.91,19.18,1.62,3.76,5.79,8.25,16.47,8.25A61.57,61.57,0,0,0,443.55,469c18.5-7.95,21.13-19.9,17.77-27.72-2.68-6.25-8.8-9.84-16.77-9.84Z"/><path class="c" d="M356.79,450c-7.79,0-18.44-9.13-24.93-18.15-4-5.55-6.24-10.75-6.68-15.46-.47-5.09,1.23-9.3,4.81-11.88a11.55,11.55,0,0,1,6.76-2.15c6.12,0,12.72,4.48,18.56,12.6a59.15,59.15,0,0,1,8.79,17.87c2.67,9.59.14,13.83-2.44,15.69A8.19,8.19,0,0,1,356.79,450Z"/><path class="d" d="M336.75,406.32c4.4,0,9.89,3.41,15.32,10.94,7.45,10.36,11.94,24.6,7.25,28a4.22,4.22,0,0,1-2.53.73c-5.63,0-15.34-7.67-21.69-16.49-7.45-10.36-7.46-18.38-2.77-21.75a7.41,7.41,0,0,1,4.42-1.4m0-8h0a15.49,15.49,0,0,0-9.1,2.91c-6.9,5-10.8,16.57,1,32.91,6.87,9.55,18.62,19.82,28.18,19.82a12.17,12.17,0,0,0,7.2-2.24c10.91-7.85,2.46-28.17-5.43-39.13-4.68-6.51-12.27-14.27-21.81-14.27Z"/><path class="c" d="M381.78,398.19c-7.79,0-18.44-9.14-24.94-18.16-6.27-8.72-10.52-21.1-1.86-27.33a11.45,11.45,0,0,1,6.75-2.16c6.13,0,12.72,4.48,18.57,12.61,7.29,10.12,14.34,27.79,6.35,33.55A8.15,8.15,0,0,1,381.78,398.19Z"/><path class="d" d="M361.73,354.54c4.4,0,9.9,3.41,15.32,10.94,7.46,10.36,11.94,24.6,7.26,28a4.26,4.26,0,0,1-2.54.74c-5.63,0-15.33-7.68-21.68-16.5-7.45-10.36-7.46-18.38-2.78-21.75a7.43,7.43,0,0,1,4.42-1.4m0-8h0a15.46,15.46,0,0,0-9.09,2.91c-6.91,5-10.8,16.57,1,32.91,6.87,9.55,18.62,19.83,28.17,19.83A12.27,12.27,0,0,0,389,400c10.91-7.85,2.46-28.18-5.43-39.14-4.69-6.51-12.27-14.27-21.82-14.27Z"/><path class="c" d="M406.17,351.65c-7.79,0-18.43-9.14-24.93-18.16-6.27-8.72-10.52-21.1-1.87-27.33a11.5,11.5,0,0,1,6.76-2.15c6.13,0,12.72,4.47,18.57,12.6a59.12,59.12,0,0,1,8.78,17.87c2.67,9.59.15,13.82-2.44,15.68A8.13,8.13,0,0,1,406.17,351.65Z"/><path class="d" d="M386.13,308c4.4,0,9.9,3.4,15.32,10.93,7.46,10.36,11.94,24.6,7.26,28a4.28,4.28,0,0,1-2.54.74c-5.63,0-15.33-7.68-21.68-16.5-7.46-10.36-7.46-18.38-2.78-21.75a7.42,7.42,0,0,1,4.42-1.39m0-8h0a15.45,15.45,0,0,0-9.09,2.9c-4.71,3.39-7.06,9-6.46,15.49.51,5.44,3,11.3,7.42,17.43,6.87,9.54,18.61,19.82,28.17,19.82a12.29,12.29,0,0,0,7.21-2.24c10.91-7.85,2.46-28.17-5.44-39.14-4.68-6.51-12.26-14.26-21.81-14.26Z"/><polyline class="b" points="411.22 350.69 421.97 366.48 444.13 362.3"/><polyline class="b" points="385.66 395.03 402.1 416.13 430.89 411"/><polyline class="b" points="358.59 445.52 376.65 468.69 408.27 463.05"/><path class="a" d="M310.1,445.52c10.35,13.38,2,37.21,2,37.21s-25.17,2.13-35.52-11.25-2-37.2-2-37.2S299.75,432.14,310.1,445.52Z"/><line class="a" x1="312.07" y1="482.73" x2="345.13" y2="525.47"/><path class="a" d="M265.51,488.06c10.35,13.38,2,37.2,2,37.2S242.31,527.39,232,514s-2-37.21-2-37.21S255.16,474.68,265.51,488.06Z"/><line class="a" x1="267.47" y1="525.26" x2="308.42" y2="578.18"/><line class="a" x1="223.79" y1="569.91" x2="266.66" y2="625.32"/><path class="a" d="M449.56,530.16c-16.27,2.6-32.81-16.23-32.81-16.23s9.84-23,26.11-25.65,32.81,16.23,32.81,16.23S465.83,527.56,449.56,530.16Z"/><line class="a" x1="416.75" y1="513.93" x2="347.9" y2="524.94"/><path class="a" d="M414.68,583c-16.7,2.67-33.59-16.1-33.59-16.1s10.19-23.11,26.9-25.78,33.59,16.11,33.59,16.11S431.39,580.37,414.68,583Z"/><line class="a" x1="381.09" y1="566.94" x2="310.42" y2="578.23"/><path class="a" d="M370.92,630.07c-16.7,2.67-33.59-16.11-33.59-16.11s10.19-23.11,26.9-25.78,33.59,16.11,33.59,16.11S387.63,627.4,370.92,630.07Z"/><line class="a" x1="337.33" y1="613.96" x2="266.66" y2="625.26"/><path class="b" d="M454.82,663.6C409.28,715.42,278.4,857.48,124.87,898.75"/><path class="c" d="M458.12,668.08a8.83,8.83,0,0,1-5.64-1.84c-2.67-2.13-5.14-6.83-1.73-17.17a66,66,0,0,1,10.73-19.4c6.64-8.35,13.89-12.95,20.41-12.95a12.49,12.49,0,0,1,7.84,2.68c3.73,3,5.35,7.63,4.57,13.12-.74,5.17-3.5,10.79-8.21,16.72C478.65,658.6,466.65,668.08,458.12,668.08Z"/><path class="d" d="M481.89,620.72a8.42,8.42,0,0,1,5.35,1.81c5.07,4,4.63,13-4.28,24.22-7.45,9.37-18.47,17.33-24.84,17.33a4.93,4.93,0,0,1-3.15-1c-5.06-4,.73-19.74,9.64-31,6.28-7.89,12.43-11.44,17.28-11.44m0-8h0c-5.49,0-14,2.51-23.54,14.46A70.07,70.07,0,0,0,447,647.82c-2.28,6.91-3.61,16.26,3.05,21.55a12.86,12.86,0,0,0,8.12,2.71c10.25,0,23.31-10.55,31.1-20.35,13.61-17.11,10.12-29.8,3-35.46a16.42,16.42,0,0,0-10.33-3.55Z"/><path class="c" d="M462.92,733.24a58.93,58.93,0,0,1-19.6-3.52c-9.31-3.53-11.22-8.07-11.19-11.26.11-9.74,17.89-14.12,30.49-14.12h.6c10.74.12,23.24,4,23.12,14.7-.11,10.48-12.37,14.2-22.83,14.2Z"/><path class="d" d="M462.62,708.34h.56c12.76.14,19.23,4.89,19.16,10.66s-6.43,10.24-18.83,10.24H463c-12.76-.14-26.89-5-26.83-10.74s13.88-10.16,26.49-10.16m0-8h0c-13.79,0-34.35,4.82-34.49,18.08-.14,13.44,21.23,18.68,34.74,18.82h.64c19.66,0,26.74-9.78,26.83-18.16.07-5.79-3.09-11-8.65-14.38-4.67-2.81-10.87-4.28-18.42-4.36Z"/><path class="c" d="M431.32,773.36c-12.47-.13-30.89-4.92-30.78-14.78s17.89-14.12,30.48-14.12h.61c6.83.08,12.35,1.35,16.41,3.79,4.37,2.63,6.76,6.5,6.71,10.91-.11,10.48-12.37,14.2-22.84,14.2Z"/><path class="d" d="M431,748.46h.57c12.76.14,19.22,4.89,19.16,10.66s-6.44,10.24-18.84,10.24h-.54c-12.77-.14-26.89-5-26.83-10.74s13.87-10.16,26.48-10.16m0-8h0c-13.78,0-34.34,4.82-34.48,18.08-.14,13.44,21.23,18.68,34.74,18.82h.63c19.67,0,26.75-9.78,26.84-18.16.06-5.79-3.09-11-8.65-14.38-4.68-2.81-10.88-4.28-18.43-4.36Z"/><path class="c" d="M387.12,811.28c-12.48-.13-30.89-4.92-30.78-14.78s17.88-14.12,30.48-14.12h.61c10.73.11,23.23,4,23.12,14.69-.12,10.49-12.37,14.21-22.84,14.21Z"/><path class="d" d="M386.82,786.38h.57c12.76.13,19.22,4.88,19.16,10.65s-6.44,10.25-18.84,10.25h-.55c-12.76-.13-26.89-5-26.82-10.73s13.87-10.17,26.48-10.17m0-8h0c-13.78,0-34.34,4.82-34.48,18.08-.15,13.44,21.23,18.68,34.74,18.82h.63c19.67,0,26.75-9.79,26.84-18.16.06-5.8-3.09-11-8.65-14.38-4.68-2.82-10.88-4.28-18.43-4.36Z"/><path class="c" d="M318.91,763.59c-9.08,0-16.55-16.07-18.94-27.47-1.41-6.68-1.36-12.35.14-16.84,1.63-4.84,4.89-8,9.21-8.91a11.56,11.56,0,0,1,2.34-.25c7.75,0,13.95,7.5,16.59,20,2.56,12.21,1.87,31.23-7.78,33.25A7.38,7.38,0,0,1,318.91,763.59Z"/><path class="d" d="M311.66,714.12c5.16,0,10.28,5.51,12.67,16.88,2.63,12.48,1,27.32-4.68,28.51a3.65,3.65,0,0,1-.74.08c-5.54,0-12.52-12.34-15-24.29-2.63-12.49.61-19.83,6.26-21a7.93,7.93,0,0,1,1.52-.16m0-8h0a15.46,15.46,0,0,0-3.17.34c-5.67,1.19-10.11,5.4-12.17,11.55-1.73,5.17-1.82,11.54-.27,18.93A64,64,0,0,0,303.4,756c4.6,7.66,9.82,11.55,15.51,11.55a12,12,0,0,0,2.39-.25c2.62-.55,6.31-2.28,8.94-7.35a29.78,29.78,0,0,0,2.77-9.34,63.16,63.16,0,0,0-.85-21.3c-4.53-21.55-16.83-23.23-20.5-23.23Z"/><path class="c" d="M362.71,726.34c-9.08,0-16.55-16.06-18.95-27.46-2.21-10.51-1.08-23.56,9.36-25.75a11.56,11.56,0,0,1,2.34-.25c7.75,0,13.94,7.5,16.59,20,2.56,12.21,1.87,31.22-7.78,33.25A7.37,7.37,0,0,1,362.71,726.34Z"/><path class="d" d="M355.46,676.88c5.16,0,10.28,5.51,12.67,16.88,2.63,12.48,1,27.32-4.68,28.51a3.64,3.64,0,0,1-.74.07c-5.55,0-12.52-12.33-15-24.28-2.63-12.49.61-19.83,6.26-21a7.77,7.77,0,0,1,1.52-.16m0-8h0a15.44,15.44,0,0,0-3.17.33C344,671,335.71,680,339.85,699.7a64,64,0,0,0,7.35,19.1c4.6,7.66,9.82,11.54,15.51,11.54a12,12,0,0,0,2.39-.24c13.15-2.77,13.64-24.77,10.86-38-4.53-21.55-16.83-23.23-20.5-23.23Z"/><path class="c" d="M403.85,693.66c-9.08,0-16.55-16.06-18.94-27.47-2.21-10.51-1.09-23.55,9.35-25.75a11.54,11.54,0,0,1,2.34-.24c7.75,0,13.95,7.49,16.59,20a59.31,59.31,0,0,1,.8,19.9c-1.44,9.85-5.46,12.7-8.58,13.35A7.38,7.38,0,0,1,403.85,693.66Z"/><path class="d" d="M396.6,644.19c5.16,0,10.28,5.51,12.67,16.88,2.63,12.49,1,27.32-4.68,28.51a3.65,3.65,0,0,1-.74.08c-5.54,0-12.52-12.34-15-24.29-2.63-12.49.61-19.83,6.26-21a7.93,7.93,0,0,1,1.52-.16m0-8h0a15.46,15.46,0,0,0-3.17.34C385.1,638.28,376.85,647.31,381,667a64,64,0,0,0,7.35,19.1c4.6,7.66,9.82,11.55,15.51,11.55a12,12,0,0,0,2.39-.25c13.15-2.77,13.64-24.77,10.86-38-4.53-21.55-16.83-23.23-20.5-23.23Z"/><polyline class="b" points="405.36 694.05 408.8 712.84 430.76 717.99"/><polyline class="b" points="364.05 724.26 370.55 750.2 398.95 757.16"/><polyline class="b" points="318.87 759.48 326 787.97 357.2 795.61"/><path class="a" d="M274.52,739.86c4.05,16.42-13.25,34.82-13.25,34.82s-23.88-8.23-27.94-24.65,13.26-34.82,13.26-34.82S270.46,723.44,274.52,739.86Z"/><line class="a" x1="261.27" y1="774.68" x2="274.21" y2="827.14"/><path class="a" d="M216.53,760.72c4.05,16.42-13.25,34.82-13.25,34.82s-23.88-8.23-27.93-24.66,13.25-34.81,13.25-34.81S212.48,744.3,216.53,760.72Z"/><line class="a" x1="203.28" y1="795.54" x2="219.31" y2="860.5"/><line class="a" x1="145.26" y1="818.69" x2="162.05" y2="886.71"/><path class="a" d="M367,873.49c-16.35-4.32-24.2-28.33-24.2-28.33s18.67-17,35-12.69,24.2,28.32,24.2,28.32S383.4,877.8,367,873.49Z"/><line class="a" x1="342.84" y1="845.16" x2="273.64" y2="826.9"/><path class="a" d="M314.52,907.94c-16.36-4.32-24.2-28.32-24.2-28.32s18.67-17,35-12.7,24.21,28.33,24.21,28.33S330.88,912.25,314.52,907.94Z"/><line class="a" x1="290.32" y1="879.62" x2="221.12" y2="861.35"/><path class="a" d="M255.48,933.24c-16.36-4.32-24.21-28.32-24.21-28.32s18.67-17,35-12.7,24.2,28.33,24.2,28.33S271.83,937.55,255.48,933.24Z"/><line class="a" x1="231.27" y1="904.92" x2="162.07" y2="886.65"/><path class="b" d="M208.2,166.73C203,358.58,174.73,630.33,0,879.62"/><path class="c" d="M207.84,170.26c-10.52,0-16.21-20-16.75-33.57-.47-11.81,3.1-25.77,14.7-26.23h.49c7.37,0,15.5,6.57,16.23,25a66,66,0,0,1-2.81,22c-3.35,10.36-8.13,12.69-11.55,12.83Z"/><path class="d" d="M206.28,114.45c6.32,0,11.68,7.09,12.23,21.15.57,14.3-4,30.4-10.51,30.66h-.16c-6.41,0-12.19-15.54-12.75-29.73s4.39-21.81,10.85-22.07h.34m0-8h0l-.65,0c-6.15.24-11.54,3.88-14.81,10-2.8,5.25-4,12.11-3.73,20.4.58,14.46,6.72,37.41,20.75,37.41h.47c8.5-.33,12.95-8.66,15.19-15.59a70,70,0,0,0,3-23.38c-.33-8.13-2.06-14.77-5.16-19.75-3.64-5.85-9-9.08-15.07-9.08Z"/><path class="c" d="M234.19,226.07c-4,0-6.21-1.61-7.36-3-2.05-2.44-3.47-7.15,1.46-15.81a59.1,59.1,0,0,1,12.88-15.18c6.28-5.3,12.41-8.1,17.74-8.1a12,12,0,0,1,9.37,4.13c6.87,8.16-.27,19.13-8.48,26.06S241,226.07,234.19,226.07Z"/><path class="d" d="M258.91,188a7.94,7.94,0,0,1,6.31,2.71c3.72,4.41,1.76,12.19-8,20.42-7.39,6.23-17.12,10.93-23,10.93a5.39,5.39,0,0,1-4.3-1.55c-3.72-4.41,4.1-17.13,13.86-25.36,5.87-4.95,11.11-7.15,15.16-7.15m0-8h0c-6.29,0-13.31,3.13-20.32,9a63.24,63.24,0,0,0-13.78,16.27c-3.34,5.88-6.24,14.18-1,20.36,1.69,2,4.87,4.39,10.41,4.39,9,0,20.62-6.44,28.19-12.82,5.77-4.87,9.62-9.94,11.44-15.09,2.16-6.11,1.25-12.16-2.49-16.6A15.91,15.91,0,0,0,258.91,180Z"/><path class="c" d="M236.45,277.09c-4,0-6.21-1.62-7.35-3-6.36-7.54,4.8-23,14.33-31,6.28-5.29,12.42-8.09,17.74-8.09a12,12,0,0,1,9.37,4.13c6.88,8.15-.27,19.13-8.47,26S243.24,277.09,236.45,277.09Z"/><path class="d" d="M261.17,239a7.9,7.9,0,0,1,6.31,2.71c3.72,4.41,1.76,12.18-8,20.41-7.39,6.24-17.13,10.94-23,10.94a5.38,5.38,0,0,1-4.29-1.55c-3.72-4.42,4.1-17.13,13.85-25.36,5.88-5,11.11-7.15,15.16-7.15m0-8h0c-6.28,0-13.31,3.12-20.32,9-10.32,8.71-23.47,26.36-14.81,36.63,1.69,2,4.87,4.4,10.41,4.4,9,0,20.63-6.44,28.19-12.82,5.78-4.87,9.62-9.95,11.44-15.09,2.16-6.12,1.26-12.17-2.48-16.6A15.93,15.93,0,0,0,261.17,231Z"/><path class="c" d="M227.73,334.68c-4,0-6.21-1.62-7.35-3-6.36-7.53,4.79-22.95,14.33-31,6.28-5.3,12.41-8.1,17.74-8.1a12,12,0,0,1,9.37,4.14c6.87,8.15-.27,19.12-8.48,26.05S234.52,334.68,227.73,334.68Z"/><path class="d" d="M252.45,296.61a7.93,7.93,0,0,1,6.31,2.71c3.72,4.42,1.76,12.19-8,20.42-7.39,6.23-17.13,10.94-23,10.94a5.38,5.38,0,0,1-4.29-1.56c-3.73-4.41,4.1-17.13,13.85-25.36,5.88-4.95,11.11-7.15,15.16-7.15m0-8h0c-6.28,0-13.31,3.13-20.32,9a63.17,63.17,0,0,0-13.77,16.27c-3.35,5.88-6.25,14.18-1,20.36,1.69,2,4.87,4.4,10.41,4.4,9,0,20.63-6.44,28.19-12.83,5.77-4.86,9.62-9.94,11.44-15.09,2.16-6.11,1.26-12.16-2.48-16.59a15.92,15.92,0,0,0-12.43-5.56Z"/><path class="c" d="M163.64,333.41c-6.85,0-17-4.28-25.38-10.64-8.54-6.52-16.21-17.14-9.73-25.61a12.07,12.07,0,0,1,9.91-4.6c5.15,0,11.15,2.5,17.35,7.24,9.92,7.57,21.81,22.42,15.83,30.26C170.45,331.59,168.12,333.41,163.64,333.41Z"/><path class="d" d="M138.44,296.56c4,0,9.1,2,14.93,6.42,10.14,7.74,18.57,20.06,15.07,24.65-.94,1.23-2.63,1.78-4.8,1.78-6,0-15.52-4.15-23-9.82-10.14-7.75-12.48-15.42-9-20a8.07,8.07,0,0,1,6.74-3m0-8h0a16,16,0,0,0-13.09,6.17c-5.17,6.76-5.52,19,10.48,31.22,7.47,5.7,19,11.46,27.81,11.46,6.12,0,9.44-2.68,11.16-4.92,8.15-10.69-5.84-27.67-16.58-35.87-6.91-5.28-13.75-8.06-19.78-8.06Z"/><path class="c" d="M172.5,276.6c-6.85,0-17.05-4.27-25.38-10.64-8.54-6.51-16.21-17.13-9.73-25.61a12.1,12.1,0,0,1,9.91-4.6c5.15,0,11.15,2.51,17.35,7.24a59.09,59.09,0,0,1,13.6,14.55c5.34,8.4,4.16,13.18,2.23,15.71C179.31,274.78,177,276.6,172.5,276.6Z"/><path class="d" d="M147.3,239.75c4,0,9.1,2,14.93,6.42,10.14,7.75,18.57,20.07,15.07,24.66-.94,1.22-2.63,1.77-4.8,1.77-6,0-15.52-4.14-23-9.82-10.14-7.74-12.48-15.41-9-20a8.1,8.1,0,0,1,6.74-3m0-8h0a16,16,0,0,0-13.09,6.18c-5.17,6.76-5.52,19,10.48,31.21,7.47,5.71,19,11.46,27.81,11.46,6.12,0,9.44-2.67,11.16-4.92,8.15-10.68-5.84-27.67-16.58-35.87-6.91-5.27-13.75-8.06-19.78-8.06Z"/><path class="c" d="M182.32,225c-6.85,0-17-4.27-25.38-10.64-8.54-6.51-16.21-17.13-9.74-25.61a12.13,12.13,0,0,1,9.92-4.6c5.15,0,11.15,2.51,17.35,7.24,9.92,7.57,21.81,22.43,15.83,30.26C189.13,223.16,186.8,225,182.32,225Z"/><path class="d" d="M157.12,188.13c4,0,9.1,2,14.93,6.42,10.14,7.75,18.57,20.07,15.07,24.66-.94,1.22-2.63,1.77-4.8,1.77-6,0-15.52-4.14-23-9.82-10.14-7.74-12.48-15.41-9-20a8.1,8.1,0,0,1,6.74-3m0-8h0A16,16,0,0,0,144,186.31c-5.17,6.76-5.52,19,10.48,31.21,7.47,5.71,19,11.46,27.81,11.46,6.12,0,9.44-2.67,11.16-4.92,8.15-10.68-5.84-27.67-16.58-35.87-6.91-5.27-13.75-8.06-19.78-8.06Z"/><polyline class="b" points="190.61 222.09 205.49 234.07 225.48 223.64"/><polyline class="b" points="179.05 271.94 200.91 287.35 226.97 274.07"/><polyline class="b" points="167.82 328.12 195.88 342.98 220.45 330.46"/><path class="c" d="M219.24,392.66c-4,0-6.21-1.61-7.36-3-2-2.44-3.47-7.15,1.46-15.81a59.1,59.1,0,0,1,12.88-15.18c6.27-5.3,12.41-8.1,17.74-8.1a12,12,0,0,1,9.36,4.13c6.88,8.16-.26,19.13-8.47,26.06S226,392.66,219.24,392.66Z"/><path class="d" d="M244,354.6a7.94,7.94,0,0,1,6.31,2.71c3.72,4.41,1.75,12.19-8,20.42-7.39,6.23-17.13,10.93-23,10.93a5.39,5.39,0,0,1-4.3-1.55c-3.72-4.41,4.1-17.13,13.85-25.36,5.88-4.95,11.12-7.15,15.17-7.15m0-8h0c-6.29,0-13.31,3.13-20.32,9-10.33,8.71-23.48,26.36-14.82,36.63,1.7,2,4.88,4.39,10.42,4.39,9,0,20.62-6.44,28.19-12.82,15.39-13,14.44-25.18,8.95-31.69A15.91,15.91,0,0,0,244,346.6Z"/><path class="c" d="M155.14,391.39c-6.84,0-17-4.27-25.38-10.63-8.53-6.52-16.2-17.14-9.73-25.61a12.11,12.11,0,0,1,9.91-4.61c5.15,0,11.15,2.51,17.36,7.25,9.91,7.57,21.8,22.42,15.82,30.26C162,389.57,159.62,391.39,155.14,391.39Z"/><path class="d" d="M129.94,354.54c4,0,9.1,2,14.93,6.43,10.14,7.74,18.57,20.06,15.07,24.65-.93,1.22-2.63,1.77-4.8,1.77-5.95,0-15.52-4.14-22.95-9.81-10.15-7.75-12.48-15.42-9-20a8.08,8.08,0,0,1,6.73-3m0-8h0a16,16,0,0,0-13.09,6.18c-5.16,6.76-5.52,19,10.48,31.21,7.47,5.71,19,11.46,27.81,11.46,6.12,0,9.45-2.67,11.16-4.92,4.9-6.42,1.6-14.57-2-20.28a63.28,63.28,0,0,0-14.54-15.58c-6.91-5.28-13.75-8.07-19.79-8.07Z"/><polyline class="b" points="159.33 386.11 187.38 400.97 211.96 388.44"/><path class="c" d="M210.49,452.06c-4,0-6.21-1.62-7.36-3-6.35-7.53,4.8-22.94,14.34-31,6.27-5.29,12.41-8.09,17.74-8.09a12,12,0,0,1,9.36,4.13c6.88,8.15-.26,19.13-8.47,26.05S217.28,452.06,210.49,452.06Z"/><path class="d" d="M235.21,414a7.91,7.91,0,0,1,6.31,2.71c3.72,4.41,1.75,12.19-8,20.41-7.39,6.24-17.13,10.94-23,10.94a5.39,5.39,0,0,1-4.3-1.55c-3.72-4.42,4.1-17.13,13.85-25.36,5.88-5,11.12-7.15,15.17-7.15m0-8h0c-6.28,0-13.31,3.12-20.31,9-10.33,8.71-23.48,26.36-14.82,36.63,1.7,2,4.88,4.4,10.42,4.4,9,0,20.62-6.44,28.19-12.82,5.77-4.87,9.62-9.95,11.43-15.09,2.16-6.12,1.26-12.17-2.48-16.6A15.91,15.91,0,0,0,235.21,406Z"/><path class="c" d="M146.39,450.79c-6.84,0-17-4.28-25.38-10.64-8.53-6.51-16.2-17.13-9.73-25.61a12.11,12.11,0,0,1,9.91-4.6c5.15,0,11.15,2.5,17.36,7.24,9.91,7.57,21.8,22.43,15.82,30.26C153.2,449,150.87,450.79,146.39,450.79Z"/><path class="d" d="M121.19,413.94c4,0,9.1,2,14.93,6.42,10.14,7.75,18.57,20.07,15.07,24.66-.93,1.22-2.63,1.77-4.8,1.77-5.95,0-15.52-4.14-22.95-9.82-10.15-7.74-12.48-15.41-9-20a8.08,8.08,0,0,1,6.73-3m0-8h0a16,16,0,0,0-13.09,6.17c-5.16,6.77-5.52,19,10.48,31.22,7.47,5.7,19,11.46,27.81,11.46,6.12,0,9.45-2.68,11.16-4.92,8.16-10.68-5.84-27.67-16.58-35.87-6.9-5.27-13.74-8.06-19.78-8.06Z"/><polyline class="b" points="150.58 445.5 178.63 460.37 203.21 447.84"/><path class="a" d="M225,536.54c10.35,13.38,2,37.21,2,37.21s-25.17,2.13-35.52-11.25-2-37.2-2-37.2S214.62,523.17,225,536.54Z"/><path class="a" d="M159.49,787.6c4,16.42-13.25,34.81-13.25,34.81s-23.88-8.23-27.93-24.65,13.25-34.82,13.25-34.82S155.44,771.17,159.49,787.6Z"/><path class="a" d="M92.88,449c14.38,8.91,14.85,34.17,14.85,34.17S84.9,494,70.52,485.08s-14.85-34.17-14.85-34.17S78.51,440.11,92.88,449Z"/><line class="a" x1="107.73" y1="483.2" x2="164.59" y2="518.46"/><path class="a" d="M71.22,514.59c13.68,9.95,12.29,35.17,12.29,35.17S60,558.85,46.27,548.9,34,513.73,34,513.73,57.54,504.64,71.22,514.59Z"/><line class="a" x1="83.51" y1="549.76" x2="142.16" y2="592.42"/><path class="a" d="M41.43,589.85c13.34,10.41,11.11,35.57,11.11,35.57s-23.86,8.28-37.2-2.12-11.1-35.56-11.1-35.56S28.1,579.45,41.43,589.85Z"/><line class="a" x1="52.54" y1="625.42" x2="112.88" y2="672.49"/><path class="a" d="M0,661.49C12.68,672.62,9,697.62,9,697.62s-24.29,6.93-37-4.21-9.09-36.13-9.09-36.13S-12.78,650.35,0,661.49Z"/><line class="a" x1="9.04" y1="697.62" x2="77.1" y2="757.16"/><path class="a" d="M173,573c9.43,14-.53,37.25-.53,37.25s-25.25.44-34.68-13.6.53-37.25.53-37.25S163.6,559,173,573Z"/><line class="a" x1="172.5" y1="610.26" x2="209.81" y2="665.81"/><path class="a" d="M311.36,685.25c-16.92.36-31.07-20.56-31.07-20.56s13.26-21.49,30.18-21.85,31.06,20.57,31.06,20.57S328.27,684.9,311.36,685.25Z"/><line class="a" x1="280.29" y1="664.69" x2="208.73" y2="666.19"/><circle class="e" cx="395.92" cy="785.92" r="104.08"/><path class="f" d="M420.79,738.83H353.16V723.77h87.55V734.5c-32.18,41.14-38.82,72.11-41.1,125.12H381.55C383.83,808.41,394,776.11,420.79,738.83Z"/></svg>