<svg xmlns="http://www.w3.org/2000/svg" width="510" height="900" viewBox="0 0 510 900"><defs><style>.a{fill:#56634a;}.a,.b,.e{stroke:#432d1e;}.a,.b{stroke-miterlimit:10;stroke-width:8px;}.b{fill:none;}.c,.f{fill:#bd645d;}.d{fill:#432d1e;}.e{fill:#fff;stroke-width:15px;}.e,.f{stroke-miterlimit:2;}.f{stroke:#bd645d;stroke-width:12px;}</style></defs><title>73</title><path class="a" d="M331.57,746c16.14,5,35.56-11.1,35.56-11.1s-6.75-24.33-22.89-29.39-35.57,11.1-35.57,11.1S315.43,741,331.57,746Z"/><line class="a" x1="367.13" y1="734.9" x2="435.44" y2="756.27"/><path class="b" d="M55.56,664.58c45.54,51.81,176.42,193.88,330,235.15"/><path class="c" d="M52.26,669.05c-8.53,0-20.52-9.47-28-18.83s-12.72-22.62-3.64-29.84a12.43,12.43,0,0,1,7.84-2.68c6.52,0,13.77,4.6,20.41,12.95a66,66,0,0,1,10.73,19.4c3.42,10.33.94,15-1.73,17.17a8.8,8.8,0,0,1-5.64,1.83Z"/><path class="d" d="M28.49,621.7c4.86,0,11,3.55,17.28,11.44,8.91,11.2,14.7,26.92,9.64,31a4.93,4.93,0,0,1-3.15,1c-6.37,0-17.39-7.95-24.84-17.32-8.91-11.2-9.35-20.19-4.28-24.22a8.42,8.42,0,0,1,5.35-1.81m0-8a16.46,16.46,0,0,0-10.33,3.55c-7.12,5.66-10.61,18.35,3,35.46,7.79,9.8,20.85,20.34,31.1,20.34a12.9,12.9,0,0,0,8.13-2.7c11.24-8.94.84-30.62-8.36-42.19C42.53,616.21,34,613.7,28.49,613.7Z"/><path class="c" d="M46.87,734.22c-10.46,0-22.72-3.72-22.83-14.2-.12-10.67,12.38-14.58,23.12-14.7h.6c12.6,0,30.39,4.38,30.49,14.12,0,3.19-1.88,7.73-11.18,11.26a59.23,59.23,0,0,1-19.6,3.52Z"/><path class="d" d="M47.76,709.32c12.62,0,26.43,4.48,26.49,10.16s-14.07,10.6-26.83,10.74h-.55c-12.4,0-18.77-4.56-18.83-10.24s6.4-10.52,19.16-10.66h.56m0-8h-.65C27,701.54,20,711.55,20,720.06s7.17,18.16,26.83,18.16h.64c13.51-.15,34.88-5.38,34.74-18.82-.14-13.27-20.7-18.08-34.49-18.08Z"/><path class="c" d="M78.47,774.34c-10.47,0-22.73-3.72-22.84-14.2-.11-10.67,12.38-14.58,23.12-14.7h.61c12.59,0,30.38,4.38,30.48,14.12s-18.3,14.64-30.78,14.78Z"/><path class="d" d="M79.36,749.44c12.61,0,26.42,4.48,26.48,10.16S91.78,770.2,79,770.34h-.55c-12.4,0-18.78-4.56-18.84-10.24s6.4-10.52,19.16-10.66h.57m0-8h-.65c-20.13.22-27.17,10.23-27.08,18.74s7.17,18.16,26.84,18.16h.63c13.51-.15,34.89-5.38,34.74-18.82-.14-13.27-20.7-18.08-34.48-18.08Z"/><path class="c" d="M122.67,812.27c-10.46,0-22.72-3.72-22.84-14.21-.11-10.66,12.39-14.58,23.12-14.7h.61c12.6,0,30.38,4.38,30.49,14.12,0,3.19-1.88,7.73-11.19,11.27a59.18,59.18,0,0,1-19.6,3.51Z"/><path class="d" d="M123.56,787.36c12.61,0,26.43,4.48,26.49,10.17s-14.07,10.6-26.83,10.73h-.55c-12.4,0-18.77-4.56-18.84-10.25s6.41-10.52,19.17-10.66h.56m0-8h-.65c-20.13.21-27.17,10.22-27.08,18.74s7.18,18.16,26.84,18.16h.64c13.5-.14,34.88-5.38,34.74-18.82-.15-13.26-20.7-18.08-34.49-18.08Z"/><path class="c" d="M191.47,764.56a7.37,7.37,0,0,1-1.56-.16c-9.65-2-10.34-21-7.77-33.25,2.64-12.55,8.83-20,16.58-20a11,11,0,0,1,2.35.25c4.31.9,7.58,4.07,9.2,8.91,1.5,4.49,1.55,10.15.15,16.84-2.4,11.4-9.87,27.46-18.95,27.46Z"/><path class="d" d="M198.72,715.1a7.77,7.77,0,0,1,1.52.16c5.65,1.19,8.89,8.53,6.26,21-2.51,12-9.48,24.29-15,24.29a3.64,3.64,0,0,1-.74-.07c-5.65-1.19-7.31-16-4.68-28.52,2.39-11.37,7.51-16.87,12.67-16.87m0-8c-3.66,0-16,1.68-20.5,23.23-2.78,13.22-2.29,35.22,10.87,38a11.86,11.86,0,0,0,2.38.24c5.69,0,10.91-3.88,15.51-11.54a64.14,64.14,0,0,0,7.35-19.1c1.55-7.39,1.46-13.76-.27-18.93-2.06-6.15-6.5-10.36-12.17-11.56a15.44,15.44,0,0,0-3.17-.33Z"/><path class="c" d="M147.67,727.32a7.37,7.37,0,0,1-1.56-.16c-3.12-.66-7.14-3.5-8.58-13.35a59,59,0,0,1,.81-19.9c2.64-12.55,8.84-20,16.58-20a11,11,0,0,1,2.35.25c6.52,1.37,12.88,8.94,9.35,25.75-2.4,11.4-9.87,27.46-19,27.46Z"/><path class="d" d="M154.92,677.86a7.07,7.07,0,0,1,1.52.16c5.65,1.19,8.89,8.52,6.26,21-2.51,12-9.48,24.29-15,24.29a3.71,3.71,0,0,1-.74-.07c-5.65-1.19-7.31-16-4.68-28.52,2.39-11.37,7.51-16.87,12.67-16.87m0-8c-3.66,0-16,1.68-20.5,23.23a63.67,63.67,0,0,0-.85,21.3,29.78,29.78,0,0,0,2.78,9.34c2.63,5.07,6.31,6.79,8.94,7.34a11.19,11.19,0,0,0,2.38.25c5.69,0,10.91-3.88,15.51-11.54a64.24,64.24,0,0,0,7.35-19.1c1.55-7.39,1.46-13.76-.27-18.93-2.06-6.15-6.5-10.36-12.17-11.56a15.44,15.44,0,0,0-3.17-.33Z"/><path class="c" d="M106.53,694.63a7.37,7.37,0,0,1-1.56-.16c-3.12-.65-7.14-3.5-8.58-13.35a59.05,59.05,0,0,1,.81-19.9c2.64-12.55,8.83-20.05,16.58-20.05a11.73,11.73,0,0,1,2.35.25c6.52,1.37,12.88,8.94,9.35,25.75-2.4,11.4-9.87,27.46-19,27.46Z"/><path class="d" d="M113.78,645.17a7.77,7.77,0,0,1,1.52.16c5.65,1.19,8.89,8.53,6.26,21-2.51,11.95-9.48,24.28-15,24.28a3.64,3.64,0,0,1-.74-.07c-5.65-1.19-7.31-16-4.68-28.52,2.39-11.36,7.51-16.87,12.67-16.87m0-8c-3.66,0-16,1.68-20.5,23.23a63.41,63.41,0,0,0-.85,21.3A29.78,29.78,0,0,0,95.21,691c2.62,5.07,6.31,6.79,8.93,7.35a12,12,0,0,0,2.39.24c5.69,0,10.91-3.88,15.51-11.54a64.14,64.14,0,0,0,7.35-19.1c4.14-19.7-4.11-28.73-12.44-30.49a15.44,15.44,0,0,0-3.17-.33Z"/><polyline class="b" points="105.02 695.02 101.58 713.81 79.63 718.96"/><polyline class="b" points="146.33 725.24 139.83 751.18 111.43 758.14"/><polyline class="b" points="191.51 760.46 184.38 788.95 153.18 796.59"/><path class="a" d="M235.86,740.84c-4.05,16.42,13.26,34.82,13.26,34.82S273,767.43,277.05,751s-13.26-34.81-13.26-34.81S239.92,724.42,235.86,740.84Z"/><line class="a" x1="249.12" y1="775.66" x2="236.17" y2="828.12"/><path class="a" d="M293.85,761.7c-4.05,16.42,13.26,34.81,13.26,34.81S331,788.28,335,771.86,321.78,737,321.78,737,297.91,745.27,293.85,761.7Z"/><line class="a" x1="307.11" y1="796.51" x2="291.07" y2="861.47"/><line class="a" x1="365.12" y1="819.67" x2="348.33" y2="887.69"/><path class="a" d="M143.34,874.46c16.35-4.31,24.2-28.32,24.2-28.32s-18.67-17-35-12.69-24.2,28.32-24.2,28.32S127,878.78,143.34,874.46Z"/><line class="a" x1="167.54" y1="846.14" x2="236.74" y2="827.88"/><path class="a" d="M195.86,908.92c16.36-4.32,24.2-28.33,24.2-28.33s-18.67-17-35-12.69-24.2,28.32-24.2,28.32S179.51,913.23,195.86,908.92Z"/><line class="a" x1="220.06" y1="880.59" x2="289.27" y2="862.33"/><path class="a" d="M254.91,934.22c16.35-4.32,24.2-28.33,24.2-28.33s-18.67-17-35-12.69-24.2,28.32-24.2,28.32S238.55,938.53,254.91,934.22Z"/><line class="a" x1="279.11" y1="905.89" x2="348.31" y2="887.63"/><path class="b" d="M302.18,167.71c5.19,191.85,33.47,463.6,208.2,712.88"/><path class="c" d="M302.23,171.24c-3.42-.14-8.2-2.48-11.55-12.83a66,66,0,0,1-2.81-22c.73-18.42,8.86-25,16.23-25h.5c4.76.19,8.82,3,11.43,7.88,2.46,4.6,3.56,10.78,3.26,18.34-.54,13.55-6.23,33.58-16.75,33.58Z"/><path class="d" d="M304.1,115.43h.34c6.47.25,11.42,7.76,10.85,22.07s-6.34,29.73-12.75,29.73h-.16c-6.46-.26-11.08-16.36-10.51-30.66.56-14.06,5.91-21.15,12.23-21.15m0-8c-6.07,0-11.43,3.22-15.07,9.08-3.1,5-4.83,11.62-5.15,19.75a69.81,69.81,0,0,0,3,23.38c2.24,6.93,6.69,15.26,15.19,15.59h.47c14,0,20.17-23,20.75-37.42.33-8.28-.93-15.15-3.73-20.39-3.26-6.1-8.66-9.74-14.81-10Z"/><path class="c" d="M276.19,227.05c-6.79,0-17.32-4.88-25.61-11.88-5.22-4.4-8.67-8.9-10.24-13.36-1.7-4.81-1.07-9.32,1.77-12.69a12,12,0,0,1,9.36-4.13c5.33,0,11.47,2.8,17.74,8.09,9.54,8,20.69,23.46,14.34,31-1.15,1.35-3.35,3-7.35,3Z"/><path class="d" d="M251.47,189c4.05,0,9.29,2.2,15.16,7.15,9.76,8.23,17.58,21,13.86,25.36a5.39,5.39,0,0,1-4.3,1.55c-5.9,0-15.64-4.7-23-10.93-9.75-8.23-11.72-16-8-20.42a7.94,7.94,0,0,1,6.31-2.71m0-8a15.91,15.91,0,0,0-12.42,5.55c-5.49,6.51-6.44,18.71,8.95,31.69,7.57,6.38,19.22,12.82,28.19,12.82,5.54,0,8.72-2.39,10.41-4.39,5.21-6.18,2.32-14.49-1-20.37A63.37,63.37,0,0,0,271.79,190c-7-5.92-14-9-20.32-9Z"/><path class="c" d="M273.93,278.07c-6.79,0-17.32-4.89-25.61-11.88s-15.35-17.9-8.48-26.05a12,12,0,0,1,9.37-4.14c5.33,0,11.46,2.8,17.74,8.1a59.17,59.17,0,0,1,12.88,15.19c4.92,8.65,3.51,13.37,1.45,15.8-1.14,1.36-3.35,3-7.35,3Z"/><path class="d" d="M249.21,240c4,0,9.29,2.2,15.16,7.16,9.76,8.22,17.58,20.94,13.86,25.35a5.42,5.42,0,0,1-4.3,1.56c-5.91,0-15.65-4.71-23-10.94-9.76-8.23-11.72-16-8-20.41a7.9,7.9,0,0,1,6.31-2.72m0-8a16,16,0,0,0-12.43,5.56c-3.73,4.43-4.64,10.48-2.48,16.6,1.82,5.14,5.67,10.22,11.44,15.09,7.56,6.38,19.21,12.82,28.19,12.82,5.54,0,8.72-2.39,10.41-4.4,5.21-6.17,2.31-14.48-1-20.36A63.33,63.33,0,0,0,269.53,241c-7-5.91-14-9-20.32-9Z"/><path class="c" d="M282.65,335.65c-6.79,0-17.32-4.88-25.61-11.88-5.22-4.4-8.67-8.9-10.25-13.36-1.7-4.81-1.07-9.32,1.77-12.69a12,12,0,0,1,9.37-4.13c5.33,0,11.46,2.8,17.74,8.09a59.34,59.34,0,0,1,12.88,15.19c4.92,8.65,3.51,13.37,1.45,15.81-1.14,1.36-3.35,3-7.35,3Z"/><path class="d" d="M257.93,297.59c4.05,0,9.29,2.2,15.16,7.15,9.76,8.23,17.58,20.95,13.86,25.36a5.41,5.41,0,0,1-4.3,1.55c-5.91,0-15.65-4.7-23-10.93-9.76-8.23-11.72-16-8-20.42a7.94,7.94,0,0,1,6.31-2.71m0-8a15.91,15.91,0,0,0-12.42,5.55c-3.74,4.44-4.65,10.49-2.49,16.6,1.82,5.15,5.67,10.22,11.44,15.09,7.56,6.38,19.22,12.82,28.19,12.82,5.54,0,8.72-2.39,10.41-4.39,5.21-6.18,2.31-14.48-1-20.37a63.13,63.13,0,0,0-13.77-16.26c-7-5.92-14-9-20.32-9Z"/><path class="c" d="M346.74,334.38c-4.48,0-6.81-1.82-8-3.34-6-7.84,5.9-22.69,15.82-30.26,6.2-4.74,12.2-7.25,17.35-7.25a12.11,12.11,0,0,1,9.92,4.61c2.67,3.5,3.08,8,1.15,12.75-1.8,4.39-5.46,8.71-10.88,12.85-8.34,6.37-18.54,10.64-25.39,10.64Z"/><path class="d" d="M371.94,297.53a8.1,8.1,0,0,1,6.74,3c3.5,4.59,1.16,12.26-9,20-7.44,5.67-17,9.81-23,9.81-2.17,0-3.86-.55-4.8-1.77C338.44,324,346.87,311.7,357,304c5.83-4.45,11-6.42,14.92-6.42m0-8c-6,0-12.87,2.79-19.78,8.07a63.32,63.32,0,0,0-14.55,15.58c-3.63,5.71-6.93,13.86-2,20.28,1.71,2.25,5,4.92,11.15,4.92,8.85,0,20.34-5.75,27.81-11.46,16-12.21,15.65-24.45,10.49-31.21a16,16,0,0,0-13.1-6.18Z"/><path class="c" d="M337.88,277.58c-4.48,0-6.81-1.82-8-3.35-6-7.83,5.9-22.69,15.82-30.26,6.2-4.74,12.2-7.24,17.35-7.24a12.11,12.11,0,0,1,9.92,4.6c6.47,8.48-1.2,19.09-9.73,25.61-8.34,6.36-18.54,10.64-25.39,10.64Z"/><path class="d" d="M363.08,240.73a8.1,8.1,0,0,1,6.74,3c3.5,4.59,1.16,12.26-9,20-7.44,5.68-17,9.82-23,9.82-2.17,0-3.86-.55-4.8-1.78-3.5-4.58,4.93-16.9,15.08-24.65,5.83-4.45,10.95-6.42,14.92-6.42m0-8c-6,0-12.87,2.79-19.78,8.06a63.32,63.32,0,0,0-14.55,15.58c-3.63,5.71-6.93,13.87-2,20.29,1.71,2.24,5,4.92,11.15,4.92,8.85,0,20.34-5.76,27.81-11.46,16-12.22,15.65-24.45,10.49-31.22a16,16,0,0,0-13.1-6.17Z"/><path class="c" d="M328.06,226c-4.48,0-6.81-1.82-8-3.35-6-7.83,5.9-22.69,15.82-30.26,6.2-4.74,12.2-7.24,17.35-7.24a12.11,12.11,0,0,1,9.92,4.6c2.67,3.5,3.08,8,1.15,12.76-1.8,4.38-5.46,8.71-10.88,12.85-8.34,6.36-18.54,10.64-25.39,10.64Z"/><path class="d" d="M353.26,189.11a8.1,8.1,0,0,1,6.74,3c3.5,4.58,1.16,12.26-9,20-7.44,5.68-17,9.82-23,9.82-2.17,0-3.86-.55-4.79-1.78-3.51-4.58,4.92-16.91,15.07-24.65,5.83-4.45,11-6.42,14.92-6.42m0-8c-6,0-12.87,2.79-19.78,8.06a63.32,63.32,0,0,0-14.55,15.58c-3.63,5.71-6.93,13.87-2,20.29,1.71,2.24,5,4.92,11.15,4.92,8.85,0,20.34-5.76,27.81-11.46C361.87,213.92,366,209,368,204c2.45-6,1.84-12.09-1.67-16.7a16,16,0,0,0-13.1-6.17Z"/><polyline class="b" points="319.77 223.06 304.89 235.05 284.9 224.62"/><polyline class="b" points="331.33 272.92 309.47 288.33 283.41 275.05"/><polyline class="b" points="342.56 329.1 314.5 343.96 289.93 331.43"/><path class="c" d="M291.15,393.64c-6.79,0-17.33-4.88-25.62-11.88s-15.35-17.9-8.47-26.05a12,12,0,0,1,9.37-4.13c5.32,0,11.46,2.8,17.74,8.09A59.29,59.29,0,0,1,297,374.86c4.93,8.65,3.51,13.37,1.46,15.81-1.15,1.35-3.35,3-7.35,3Z"/><path class="d" d="M266.43,355.58c4,0,9.28,2.2,15.16,7.15,9.75,8.23,17.57,20.95,13.85,25.36a5.38,5.38,0,0,1-4.29,1.55c-5.91,0-15.65-4.7-23-10.93-9.75-8.23-11.71-16-8-20.42a7.93,7.93,0,0,1,6.31-2.71m0-8A15.91,15.91,0,0,0,254,353.13c-5.49,6.51-6.43,18.71,8.95,31.69,7.57,6.38,19.22,12.82,28.2,12.82,5.54,0,8.72-2.39,10.41-4.39,5.21-6.18,2.31-14.49-1-20.37a63.32,63.32,0,0,0-13.77-16.26c-7-5.92-14-9-20.32-9Z"/><path class="c" d="M355.24,392.37c-4.48,0-6.81-1.82-8-3.35-1.93-2.53-3.12-7.31,2.22-15.71a59.28,59.28,0,0,1,13.6-14.55c6.21-4.73,12.21-7.24,17.36-7.24a12.1,12.1,0,0,1,9.91,4.6c6.47,8.48-1.2,19.1-9.73,25.61-8.33,6.37-18.53,10.64-25.38,10.64Z"/><path class="d" d="M380.44,355.52a8.08,8.08,0,0,1,6.73,3c3.5,4.59,1.17,12.26-9,20-7.43,5.68-17,9.82-22.95,9.82-2.17,0-3.86-.55-4.8-1.77-3.5-4.59,4.93-16.91,15.07-24.66,5.83-4.45,11-6.42,14.93-6.42m0-8c-6,0-12.88,2.79-19.78,8.07-10.74,8.19-24.73,25.18-16.58,35.86,1.72,2.25,5,4.92,11.16,4.92,8.84,0,20.34-5.75,27.81-11.46,16-12.21,15.65-24.45,10.48-31.21a16,16,0,0,0-13.09-6.18Z"/><polyline class="b" points="351.06 387.08 323 401.95 298.42 389.42"/><path class="c" d="M299.9,453c-6.79,0-17.33-4.89-25.62-11.88-5.22-4.41-8.66-8.9-10.24-13.37-1.7-4.81-1.07-9.32,1.77-12.68a12,12,0,0,1,9.37-4.14c5.32,0,11.46,2.8,17.74,8.1,9.53,8,20.68,23.46,14.33,31-1.15,1.36-3.35,3-7.35,3Z"/><path class="d" d="M275.18,415c4,0,9.28,2.2,15.16,7.16,9.75,8.23,17.57,20.94,13.85,25.35A5.38,5.38,0,0,1,299.9,449c-5.91,0-15.65-4.71-23-10.94-9.75-8.23-11.71-16-8-20.41a7.9,7.9,0,0,1,6.31-2.72m0-8a15.94,15.94,0,0,0-12.43,5.56c-3.74,4.43-4.64,10.48-2.48,16.6,1.81,5.14,5.66,10.22,11.43,15.09,7.57,6.38,19.22,12.82,28.2,12.82,5.54,0,8.72-2.39,10.41-4.4,5.21-6.17,2.31-14.48-1-20.36A63.53,63.53,0,0,0,295.5,416c-7-5.91-14-9-20.32-9Z"/><path class="c" d="M364,451.77c-4.48,0-6.81-1.82-8-3.35-1.93-2.53-3.12-7.31,2.22-15.72a59.42,59.42,0,0,1,13.6-14.54c6.21-4.74,12.21-7.24,17.36-7.24a12.07,12.07,0,0,1,9.91,4.6c2.68,3.5,3.09,8,1.15,12.76-1.79,4.38-5.45,8.7-10.88,12.85-8.33,6.36-18.53,10.64-25.38,10.64Z"/><path class="d" d="M389.19,414.92a8.08,8.08,0,0,1,6.73,3c3.51,4.58,1.17,12.25-9,20-7.43,5.68-17,9.82-22.95,9.82-2.17,0-3.86-.55-4.8-1.78-3.5-4.58,4.93-16.91,15.07-24.65,5.83-4.45,11-6.42,14.93-6.42m0-8c-6,0-12.87,2.79-19.78,8.06-10.74,8.2-24.73,25.19-16.58,35.87,1.72,2.24,5,4.92,11.16,4.92,8.84,0,20.34-5.76,27.81-11.46,16-12.22,15.65-24.45,10.48-31.22a16,16,0,0,0-13.09-6.17Z"/><polyline class="b" points="359.81 446.48 331.75 461.34 307.17 448.82"/><path class="a" d="M350.89,788.57c-4.05,16.43,13.25,34.82,13.25,34.82s23.88-8.23,27.93-24.65-13.25-34.82-13.25-34.82S354.94,772.15,350.89,788.57Z"/><path class="a" d="M417.5,450c-14.38,8.91-14.85,34.16-14.85,34.16s22.83,10.8,37.21,1.89,14.85-34.17,14.85-34.17S431.88,441.09,417.5,450Z"/><line class="a" x1="402.65" y1="484.17" x2="345.79" y2="519.44"/><path class="a" d="M439.16,515.57c-13.68,9.95-12.29,35.17-12.29,35.17s23.56,9.09,37.24-.86,12.3-35.17,12.3-35.17S452.84,505.62,439.16,515.57Z"/><line class="a" x1="426.87" y1="550.74" x2="368.22" y2="593.4"/><path class="a" d="M469,590.83c-13.34,10.41-11.11,35.56-11.11,35.56s23.86,8.29,37.2-2.11,11.1-35.56,11.1-35.56S482.28,580.43,469,590.83Z"/><line class="a" x1="457.84" y1="626.39" x2="397.5" y2="673.47"/><path class="a" d="M510.43,662.46c-12.73,11.14-9.08,36.13-9.08,36.13s24.28,6.94,37-4.2,9.09-36.13,9.09-36.13S523.16,651.33,510.43,662.46Z"/><line class="a" x1="501.35" y1="698.59" x2="433.28" y2="758.14"/><path class="b" d="M66.25,303.81c42,113.3,132.07,396.78,338.45,386.82"/><path class="c" d="M65.28,307.43c-9.75,0-18.63-17.19-21.81-29.4-1.92-7.33-2.17-13.59-.75-18.62,1.51-5.34,4.88-8.94,9.49-10.14a12.1,12.1,0,0,1,3.1-.4c8.17,0,15.11,7.93,18.58,21.22s3.81,34.37-6.57,37.08a8.21,8.21,0,0,1-2,.26Z"/><path class="d" d="M55.31,252.87c5.66,0,11.49,5.9,14.71,18.23,3.61,13.85,2.55,30.57-3.71,32.2a4,4,0,0,1-1,.13c-6.19,0-14.52-13.3-17.94-26.41-3.62-13.85-.39-22.25,5.88-23.88a8.27,8.27,0,0,1,2.09-.27m0-8a16.38,16.38,0,0,0-4.11.53c-6,1.55-10.45,6.26-12.33,12.92C37.26,264,37.5,271,39.6,279c3.39,13,13,32.39,25.68,32.39a12,12,0,0,0,3-.39c8.22-2.15,10.79-11.23,11.5-18.48a70,70,0,0,0-2.07-23.48c-4-15.16-12.35-24.21-22.45-24.21Z"/><path class="c" d="M52,369a57.35,57.35,0,0,1-21.34-4.77c-6.27-2.69-10.88-6-13.68-9.81-3-4.11-3.74-8.6-2-12.65,2-4.72,6.8-7.42,13.11-7.42a36.08,36.08,0,0,1,14,3.33,59.29,59.29,0,0,1,16.74,10.79c7.22,6.85,7.24,11.77,6,14.7C63.66,365.82,60.51,369,52,369Z"/><path class="d" d="M28.1,338.34a32.2,32.2,0,0,1,12.4,3c11.73,5,22.91,14.93,20.63,20.23-1,2.36-4.51,3.41-9.12,3.41a53.6,53.6,0,0,1-19.76-4.44c-11.72-5-15.86-11.91-13.58-17.21,1.34-3.12,4.59-5,9.43-5m0-8c-8,0-14.1,3.59-16.78,9.84C8,348,10.6,360,29.09,367.9A61.61,61.61,0,0,0,52,373c10.68,0,14.85-4.49,16.47-8.25,5.3-12.35-12.41-25.41-24.82-30.74a39.91,39.91,0,0,0-15.56-3.66Z"/><path class="c" d="M64.67,418.46a57.35,57.35,0,0,1-21.34-4.77c-9.86-4.24-19.89-12.66-15.68-22.46,2-4.71,6.8-7.42,13.11-7.42a36.08,36.08,0,0,1,14,3.33c11.46,4.93,26.61,16.44,22.72,25.49-1.14,2.66-4.29,5.83-12.79,5.83Z"/><path class="d" d="M40.76,387.81a32.2,32.2,0,0,1,12.4,3c11.73,5,22.91,14.93,20.63,20.23-1,2.36-4.51,3.41-9.12,3.41A53.6,53.6,0,0,1,44.91,410c-11.72-5-15.86-11.91-13.58-17.21,1.34-3.12,4.59-5,9.43-5m0-8c-8,0-14.1,3.59-16.78,9.84-3.36,7.82-.72,19.77,17.77,27.72a61.61,61.61,0,0,0,22.92,5.09c10.68,0,14.85-4.48,16.47-8.25,5.3-12.35-12.41-25.41-24.82-30.74a39.91,39.91,0,0,0-15.56-3.66Z"/><path class="c" d="M89.75,471a57.35,57.35,0,0,1-21.34-4.77c-9.86-4.24-19.89-12.67-15.68-22.47,2-4.71,6.8-7.41,13.11-7.41a36.08,36.08,0,0,1,14,3.33c11.47,4.92,26.61,16.43,22.72,25.49-1.14,2.66-4.29,5.83-12.79,5.83Z"/><path class="d" d="M65.84,440.38a32.35,32.35,0,0,1,12.4,3c11.73,5,22.91,14.94,20.63,20.24-1,2.36-4.51,3.41-9.12,3.41A53.67,53.67,0,0,1,70,462.58c-11.72-5-15.86-11.9-13.58-17.21,1.34-3.11,4.59-5,9.43-5m0-8c-8,0-14.1,3.58-16.78,9.84C45.7,450,48.34,462,66.83,469.93A61.63,61.63,0,0,0,89.75,475c10.68,0,14.85-4.49,16.47-8.25,5.3-12.35-12.41-25.41-24.82-30.75a40.06,40.06,0,0,0-15.56-3.65Z"/><path class="c" d="M153.59,450.94a8.13,8.13,0,0,1-4.87-1.49c-8-5.75-.94-23.42,6.35-33.55,5.85-8.12,12.44-12.6,18.56-12.6a11.45,11.45,0,0,1,6.76,2.15c8.66,6.23,4.41,18.62-1.87,27.33-6.49,9-17.14,18.16-24.93,18.16Z"/><path class="d" d="M173.63,407.3a7.46,7.46,0,0,1,4.43,1.4c4.68,3.37,4.67,11.39-2.78,21.75-6.35,8.82-16.05,16.49-21.69,16.49a4.22,4.22,0,0,1-2.53-.73c-4.68-3.37-.2-17.61,7.25-28,5.43-7.54,10.93-10.94,15.32-10.94m0-8c-9.54,0-17.12,7.76-21.81,14.27-7.89,11-16.34,31.28-5.43,39.13a12.17,12.17,0,0,0,7.2,2.24c9.56,0,21.31-10.27,28.18-19.82,4.41-6.13,6.91-12,7.41-17.42.61-6.46-1.74-12.11-6.45-15.5a15.48,15.48,0,0,0-9.1-2.9Z"/><path class="c" d="M128.61,399.16a8.17,8.17,0,0,1-4.87-1.48c-2.59-1.86-5.11-6.1-2.44-15.69a59.35,59.35,0,0,1,8.78-17.87c5.85-8.12,12.44-12.6,18.57-12.6a11.52,11.52,0,0,1,6.75,2.15c8.66,6.23,4.41,18.62-1.86,27.34-6.5,9-17.15,18.15-24.93,18.15Z"/><path class="d" d="M148.65,355.52a7.43,7.43,0,0,1,4.42,1.4c4.68,3.37,4.68,11.39-2.78,21.75-6.35,8.82-16,16.49-21.68,16.49a4.27,4.27,0,0,1-2.54-.73c-4.68-3.37-.2-17.61,7.26-28,5.42-7.53,10.92-10.94,15.32-10.94m0-8c-9.55,0-17.13,7.76-21.82,14.27-7.89,11-16.34,31.28-5.43,39.13a12.22,12.22,0,0,0,7.21,2.24c9.56,0,21.3-10.27,28.17-19.82,11.76-16.34,7.87-27.94,1-32.91a15.46,15.46,0,0,0-9.09-2.91Z"/><path class="c" d="M104.21,352.63a8.2,8.2,0,0,1-4.87-1.49c-2.59-1.86-5.11-6.09-2.44-15.68a59.12,59.12,0,0,1,8.78-17.87c5.85-8.13,12.45-12.61,18.57-12.61a11.48,11.48,0,0,1,6.76,2.16c3.57,2.57,5.28,6.79,4.81,11.87-.44,4.71-2.69,9.91-6.68,15.46-6.49,9-17.14,18.16-24.93,18.16Z"/><path class="d" d="M124.25,309a7.43,7.43,0,0,1,4.42,1.4c4.68,3.37,4.68,11.39-2.78,21.75-6.35,8.82-16,16.5-21.68,16.5a4.28,4.28,0,0,1-2.54-.74c-4.68-3.37-.19-17.61,7.26-28,5.42-7.53,10.92-10.94,15.32-10.94m0-8c-9.54,0-17.13,7.76-21.81,14.27-7.89,11-16.35,31.28-5.44,39.14a12.29,12.29,0,0,0,7.21,2.24c9.56,0,21.31-10.28,28.18-19.83,11.76-16.34,7.86-27.94,1-32.91a15.46,15.46,0,0,0-9.09-2.91Z"/><polyline class="b" points="99.17 351.67 88.41 367.45 66.25 363.28"/><polyline class="b" points="124.72 396.01 108.28 417.11 79.49 411.97"/><polyline class="b" points="151.79 446.5 133.73 469.67 102.11 464.03"/><path class="a" d="M200.28,446.5c-10.35,13.38-2,37.2-2,37.2s25.16,2.14,35.51-11.24,2-37.21,2-37.21S210.63,433.12,200.28,446.5Z"/><line class="a" x1="198.32" y1="483.7" x2="165.25" y2="526.44"/><path class="a" d="M244.87,489c-10.35,13.38-2,37.2-2,37.2s25.16,2.13,35.51-11.25,2-37.2,2-37.2S255.23,475.66,244.87,489Z"/><line class="a" x1="242.91" y1="526.24" x2="201.96" y2="579.16"/><line class="a" x1="286.6" y1="570.88" x2="243.72" y2="626.3"/><path class="a" d="M60.82,531.14c16.27,2.6,32.81-16.23,32.81-16.23s-9.84-23.06-26.11-25.66-32.81,16.24-32.81,16.24S44.55,528.54,60.82,531.14Z"/><line class="a" x1="93.63" y1="514.91" x2="162.48" y2="525.91"/><path class="a" d="M95.7,584c16.7,2.67,33.59-16.11,33.59-16.11s-10.19-23.11-26.9-25.78S68.8,558.24,68.8,558.24,79,581.35,95.7,584Z"/><line class="a" x1="129.29" y1="567.91" x2="199.96" y2="579.21"/><path class="a" d="M139.46,631.05c16.7,2.67,33.59-16.11,33.59-16.11s-10.19-23.11-26.9-25.78-33.59,16.11-33.59,16.11S122.75,628.38,139.46,631.05Z"/><line class="a" x1="173.05" y1="614.94" x2="243.72" y2="626.24"/><path class="a" d="M285.41,537.52c-10.35,13.38-2,37.2-2,37.2s25.17,2.14,35.52-11.24,2-37.2,2-37.2S295.76,524.14,285.41,537.52Z"/><path class="a" d="M337.35,574c-9.43,14,.53,37.25.53,37.25s25.25.44,34.68-13.6-.53-37.25-.53-37.25S346.78,560,337.35,574Z"/><line class="a" x1="337.88" y1="611.24" x2="300.57" y2="666.78"/><path class="a" d="M199,686.23c16.91.36,31.06-20.56,31.06-20.56s-13.26-21.49-30.17-21.85-31.07,20.56-31.07,20.56S182.11,685.88,199,686.23Z"/><line class="a" x1="230.09" y1="665.67" x2="301.65" y2="667.17"/><circle class="e" cx="395.92" cy="785.92" r="104.08"/><path class="f" d="M420.79,738.83H353.16V723.77h87.55V734.5c-32.18,41.14-38.82,72.11-41.1,125.12H381.55C383.83,808.41,394,776.11,420.79,738.83Z"/></svg>