<svg xmlns="http://www.w3.org/2000/svg" width="510" height="900" viewBox="0 0 510 900"><defs><style>.a,.d{fill:#56634a;}.b,.c,.g{fill:none;}.b,.c,.d,.e,.f,.g,.k,.l{stroke:#432d1e;}.b,.c,.d,.g{stroke-miterlimit:10;}.b,.d,.e,.f,.k{stroke-width:8px;}.c,.e,.f,.g{stroke-linecap:round;}.c{stroke-width:4px;}.e,.j{fill:#ffdc82;}.e,.f{stroke-linejoin:round;}.f,.h,.m{fill:#e37f49;}.g{stroke-width:5px;}.i{fill:#432d1e;}.k{fill:#968acf;}.k,.l,.m{stroke-miterlimit:2;}.l{fill:#fff;stroke-width:15px;}.m{stroke:#e37f49;stroke-width:12px;}</style></defs><title>91</title><path class="a" d="M299,83.83c-10.81-9.21-11.14-.78-26.22,6.28-7.61,3.56-14.08,11.68-22.43,17.78-7.27,5.3-17.14,8.76-23.51,16.34-6.66,7.93-8,18.83-11.43,27.82-3.78,10-9.73,19.14-10.84,28.08-2.12,17-9.68,19.74,2.46,28.49,11,7.91,9.65-1.61,22.92-11.15,6.4-4.59,11.12-13.38,18.52-20.14,6.28-5.73,15.56-9.47,21.66-16.73,6.31-7.52,8.08-17.73,12.16-25.64,4.71-9.14,11.77-16.65,14.18-24.59C301.25,94.51,309.69,92.94,299,83.83Z"/><path class="b" d="M299,83.83c-10.81-9.21-11.14-.78-26.22,6.28-7.61,3.56-14.08,11.68-22.43,17.78-7.27,5.3-17.14,8.76-23.51,16.34-6.66,7.93-8,18.83-11.43,27.82-3.78,10-9.73,19.14-10.84,28.08-2.12,17-9.68,19.74,2.46,28.49,11,7.91,9.65-1.61,22.92-11.15,6.4-4.59,11.12-13.38,18.52-20.14,6.28-5.73,15.56-9.47,21.66-16.73,6.31-7.52,8.08-17.73,12.16-25.64,4.71-9.14,11.77-16.65,14.18-24.59C301.25,94.51,309.69,92.94,299,83.83Z"/><path class="c" d="M214.65,194s18.12-45.15,70.23-96.22"/><path class="c" d="M242.29,147s11-2.6,25.3-11.83"/><path class="c" d="M242.35,147.06s-1.18-9.28,2.82-22.74"/><path class="c" d="M222.76,175.69s-1-7,1-17.37"/><path class="c" d="M261.82,122.43s8.36-1.5,19.48-7.87"/><path class="c" d="M261.82,122.43s.52-7,4.81-16.73"/><path class="c" d="M223,175.88s8-1.34,18.62-7.29"/><path class="a" d="M29.58,228c-1.75-14.09,11.54-6.81,25.73-15.53,7.15-4.39,14-12.48,23.69-16.11,8.43-3.15,18.61-1.77,28.44-2.92,10.28-1.21,20.56-4.23,29.94-2.12,10.43,2.34,18.68,9.89,26.76,13.87,15.39,7.6,27.58-1,28.21,14,.56,13.53-12.08,3.61-27.34,9.45-7.36,2.81-14.88,9.53-24.59,12-8.25,2.09-17.92-.06-27.34,1-9.75,1.14-19.21,5-28.06,4-10.22-1.09-18.81-7.13-26.77-9.49C42.36,231.47,31.31,242,29.58,228Z"/><path class="b" d="M29.58,228c-1.75-14.09,11.54-6.81,25.73-15.53,7.15-4.39,14-12.48,23.69-16.11,8.43-3.15,18.61-1.77,28.44-2.92,10.28-1.21,20.56-4.23,29.94-2.12,10.43,2.34,18.68,9.89,26.76,13.87,15.39,7.6,27.58-1,28.21,14,.56,13.53-12.08,3.61-27.34,9.45-7.36,2.81-14.88,9.53-24.59,12-8.25,2.09-17.92-.06-27.34,1-9.75,1.14-19.21,5-28.06,4-10.22-1.09-18.81-7.13-26.77-9.49C42.36,231.47,31.31,242,29.58,228Z"/><path class="c" d="M172,217.71s-47.68-9.7-119,5.74"/><path class="c" d="M117.51,214.93s-8.22,7.76-23.8,14.63"/><path class="c" d="M117.51,215S110.4,208.92,97,204.86"/><path class="c" d="M152.19,214.39s-5.24-4.69-15.07-8.7"/><path class="c" d="M86.22,217.73s-5.85,6.16-17.28,11.94"/><path class="c" d="M86.22,217.73s-6.14-3.43-16.61-5.18"/><path class="c" d="M152.21,214.71s-5.51,5.92-16.33,11.54"/><path class="d" d="M184.37,105.09,118.19,147c-3.66,2.32-3.25,6.88.65,7.1,0,0,21.55,9.93,40.84,4.62a10.58,10.58,0,0,0,1.33,1.89l29.68,53.62a18.2,18.2,0,0,1,4,7.83l23.63,65.76a23.48,23.48,0,0,1,.09,10.25l11.31,90.31c-3.51,16.81,7.24,12.5,7.24,12.5a10.78,10.78,0,0,0,14-9l-12.35-99.83-32.07-85.95L177.72,147v0c12.56-15.18,12.8-38.3,12.8-38.3C192,105.11,188,102.78,184.37,105.09Z"/><path class="e" d="M259,109.06c-17.12-21.72-44.56-29.86-79.28-19.74q-4,10.52-8,21C205.25,94.55,236.51,92.92,259,109.06Z"/><path class="e" d="M172.26,63.63c-11.32,24.83-7.74,50.78-7.74,50.78s21.94-14.31,33.26-39.14,7.75-50.78,7.75-50.78S183.59,38.8,172.26,63.63Z"/><path class="f" d="M181.64,72.38c-17.28,21.12-20.43,47.12-20.43,47.12s24.86-8.23,42.14-29.35S223.79,43,223.79,43,198.92,51.26,181.64,72.38Z"/><path class="f" d="M89.16,216.55c-12.29-24.77-7.9-53.05,16.11-80.09l22.44,1.72C99.08,161.73,84.23,189.28,89.16,216.55Z"/><path class="f" d="M85.26,118.68c27.29.39,49.21,14.74,49.21,14.74s-22.33,13.71-49.61,13.31S35.65,132,35.65,132,58,118.28,85.26,118.68Z"/><path class="e" d="M89.16,130.91c26.48-6.58,51.33,1.7,51.33,1.7s-18.09,18.95-44.57,25.52-51.34-1.7-51.34-1.7S62.67,137.48,89.16,130.91Z"/><path class="f" d="M135,9.13c33.74,25.52,45.56,60.13,28.18,99.07l-33.61,4.62C155.9,76.61,159.69,39.78,135,9.13Z"/><path class="e" d="M167.24,8.36c21.38,27.86,22.77,64.22-.64,103.86l-28.45,3.39C168.18,79.18,180,41.16,167.24,8.36Z"/><path class="e" d="M108.06,28.66c36.49,12.68,56.46,39.46,52.24,78.26l-27.93,13.51C145.12,81.49,138.11,48.36,108.06,28.66Z"/><path class="e" d="M52,61.68c8.62,41.43,34.83,66.92,77.47,67.89L148,101.17C104,109.45,69.09,97.11,52,61.68Z"/><path class="f" d="M37.47,90.48c16,31.25,48.29,48.07,94.13,43.88l15.24-24.25C101.06,121.65,61.63,116.08,37.47,90.48Z"/><path class="e" d="M81.14,45.69C77,84.1,92.63,113.6,129.51,126.4L153.68,107C113,101.8,86.09,81.28,81.14,45.69Z"/><path class="f" d="M96.38,39.27s18.32,83.62,41.88,91.08c6.47,2.05,21.58-7.51,22.5-14.23C164.1,91.63,96.38,39.27,96.38,39.27Z"/><path class="a" d="M30,855.71c5-2.8,15.71,1.43,23.69-1.44,7-2.51,11.86-12.5,18.53-14.55,10.56-3.26,21.54,2,23.57,1.42s8.51-10.95,19.25-13.91c6.76-1.86,16.29,3.93,23.57,2.29,8.27-1.87,15-11.2,20.85-11.57,11.89-.74,22.7,7.92,32.91,9.89,12.27,2.37,25.92-.77,34.12,4.67,10.75,7.13,11,19.91,11.19,30.53.14,8.33,3.3,19.05-3.4,26.22-5.39,5.77-17.37,4.65-26,8.94-7.37,3.65-10.58,12.37-19.65,14.53,1.28,10.21-6.59,17-8.89,26-2.51,9.89-.17,22.38-6.44,29.49-6.42,7.28-18.78,6.25-28.55,9.09s-20.11,10.49-30.13,7.88C105.06,982.73,99.32,971,91,964.39c-7.71-6.14-18.59-7-24.13-16-9,3.11-16.88-2.56-25.41-1.66-9.8,1-19.54,8.47-27.58,6.56C4.1,951,.15,940.11-5,933.4c-6.6-8.59-14.4-18.33-10.46-29.62,3.1-8.91,15.79-13.94,24.4-22.5C16,874.29,19.89,861.39,30,855.71Z"/><path class="b" d="M30,855.71c5-2.8,15.71,1.43,23.69-1.44,7-2.51,11.86-12.5,18.53-14.55,10.56-3.26,21.54,2,23.57,1.42s8.51-10.95,19.25-13.91c6.76-1.86,16.29,3.93,23.57,2.29,8.27-1.87,15-11.2,20.85-11.57,11.89-.74,22.7,7.92,32.91,9.89,12.27,2.37,25.92-.77,34.12,4.67,10.75,7.13,11,19.91,11.19,30.53.14,8.33,3.3,19.05-3.4,26.22-5.39,5.77-17.37,4.65-26,8.94-7.37,3.65-10.58,12.37-19.65,14.53,1.28,10.21-6.59,17-8.89,26-2.51,9.89-.17,22.38-6.44,29.49-6.42,7.28-18.78,6.25-28.55,9.09s-20.11,10.49-30.13,7.88C105.06,982.73,99.32,971,91,964.39c-7.71-6.14-18.59-7-24.13-16-9,3.11-16.88-2.56-25.41-1.66-9.8,1-19.54,8.47-27.58,6.56C4.1,951,.15,940.11-5,933.4c-6.6-8.59-14.4-18.33-10.46-29.62,3.1-8.91,15.79-13.94,24.4-22.5C16,874.29,19.89,861.39,30,855.71Z"/><line class="g" x1="102.18" y1="858.4" x2="139.28" y2="962.74"/><path class="g" d="M111.9,886.43s36.92-2,64.51,14"/><path class="g" d="M111.91,886.39s-31.1,18-42.83,45.67"/><line class="g" x1="102.18" y1="858.4" x2="211.41" y2="860.92"/><path class="g" d="M180.7,860.13a37.75,37.75,0,0,0,17.07,19.78"/><path class="g" d="M180.68,860.14a48.23,48.23,0,0,1,21.41-18.74"/><path class="g" d="M153.17,859.47A50.65,50.65,0,0,0,176.08,886"/><path class="g" d="M153.14,859.48a64.74,64.74,0,0,1,28.73-25.15"/><line class="g" x1="102.18" y1="858.4" x2="15.1" y2="918.17"/><path class="g" d="M39.53,901.3a34.07,34.07,0,0,1-1.12,25.08"/><path class="g" d="M39.55,901.3a55.14,55.14,0,0,0-29.45-3.91"/><path class="g" d="M61.46,886.22A45.72,45.72,0,0,1,60,919.88"/><path class="g" d="M61.49,886.21A74,74,0,0,0,22,881"/><path class="a" d="M29.08,661.77c5.2,2.17,10.61,11.51,18.76,12.84,7.12,1.16,15.7-5.9,22.47-5.25,10.72,1,18.81,9.47,20.87,9.62s11.46-7,22.41-6.4c6.88.36,14.43,8.6,21.8,8.51,8.25-.11,15.12-8.55,20.88-9.87,13.36-3.07,28.88-1.16,39.76-8.08,11.85-7.54,16.37-22.59,23.5-32.87,8.16-11.78,19.88-22.66,19.22-35.34-.51-9.86-11.11-15.7-17-22.71-5.65-6.75-9-18.33-18.32-21.78-8.09-3-21.86,1.61-31.83,1.56.35-12.19,6.33-27,4-37.17-2.79-12.34-14.48-19.62-20.59-27.65-7.44-9.78-13.64-22.21-25-23.05s-20.82,10.73-31.63,19.15c-8.71,6.8-22.75,10.9-29.87,22.21-6.14,9.74-5.72,26.26-9.92,38.42-10.19-1.48-23.44-8.29-32.78-6.33C15.8,539.7,9.75,550.85,2,556.56c-8,5.9-20.44,8.82-24.44,18.12-5,11.7,1.91,24.9,5,37,3,11.48,2.47,26.29,11.47,35.74C2.22,656,17,656.73,29.08,661.77Z"/><path class="b" d="M29.08,661.77c5.2,2.17,10.61,11.51,18.76,12.84,7.12,1.16,15.7-5.9,22.47-5.25,10.72,1,18.81,9.47,20.87,9.62s11.46-7,22.41-6.4c6.88.36,14.43,8.6,21.8,8.51,8.25-.11,15.12-8.55,20.88-9.87,13.36-3.07,28.88-1.16,39.76-8.08,11.85-7.54,16.37-22.59,23.5-32.87,8.16-11.78,19.88-22.66,19.22-35.34-.51-9.86-11.11-15.7-17-22.71-5.65-6.75-9-18.33-18.32-21.78-8.09-3-21.86,1.61-31.83,1.56.35-12.19,6.33-27,4-37.17-2.79-12.34-14.48-19.62-20.59-27.65-7.44-9.78-13.64-22.21-25-23.05s-20.82,10.73-31.63,19.15c-8.71,6.8-22.75,10.9-29.87,22.21-6.14,9.74-5.72,26.26-9.92,38.42-10.19-1.48-23.44-8.29-32.78-6.33C15.8,539.7,9.75,550.85,2,556.56c-8,5.9-20.44,8.82-24.44,18.12-5,11.7,1.91,24.9,5,37,3,11.48,2.47,26.29,11.47,35.74C2.22,656,17,656.73,29.08,661.77Z"/><line class="g" x1="97.09" y1="644.66" x2="124.86" y2="494.63"/><path class="g" d="M116.94,536.79a70.09,70.09,0,0,0,32.39-24.22"/><path class="g" d="M117,536.82a51.52,51.52,0,0,1-22.4-28.6"/><path class="g" d="M109.91,574.59s25.09-7.65,43.47-32.51"/><path class="g" d="M109.91,574.63s-21.49-11.37-30-38.39"/><path class="g" d="M104.31,604.43s36.71-8.79,62.63-38.65"/><path class="g" d="M104.32,604.48S72,590.23,58,557.22"/><line class="g" x1="97.09" y1="644.66" x2="204.97" y2="607.29"/><path class="g" d="M174.65,617.9s2.68-17.56,15.19-31.56"/><path class="g" d="M174.63,617.9s7.5,14,22.78,18.2"/><path class="g" d="M147.46,627.36s3.61-23.57,20.39-42.37"/><path class="g" d="M147.43,627.35S157.5,646.11,178,651.78"/><line class="g" x1="97.09" y1="644.66" x2="5.8" y2="592.46"/><path class="g" d="M31.42,607.24s3.8-17.48-3.26-32.94"/><path class="g" d="M31.44,607.24S19,619.73,2.63,621.6"/><path class="g" d="M54.41,620.43S59.51,597,50,576.22"/><path class="g" d="M54.44,620.43S37.8,637.2,15.77,639.7"/><path class="h" d="M89,888.51c-12.79,0-20.73-22-20.73-57.49,0-34,16.43-68.19,17.13-69.63L89,754l3.6,7.38c.7,1.44,17.13,35.58,17.13,69.63C109.68,866.48,101.74,888.51,89,888.51Z"/><path class="i" d="M89,763.14S105.68,797.5,105.68,831,98.19,884.51,89,884.51s-16.73-20-16.73-53.49S89,763.14,89,763.14m0-18.27-7.19,14.77C81,761.11,64.22,796.06,64.22,831c0,38.5,9.24,61.49,24.73,61.49s24.73-23,24.73-61.49c0-35-16.82-69.91-17.54-71.38L89,744.87Z"/><path class="h" d="M85.35,746.87c-.53-1.09-13-27.08-13-53,0-27.4,6.38-44.42,16.64-44.42s16.64,17,16.64,44.42c0,25.94-12.51,51.93-13,53L89,754.26Z"/><path class="i" d="M89,653.43c7,0,12.64,15.1,12.64,40.42S89,745.12,89,745.12s-12.64-26-12.64-51.27S82,653.43,89,653.43m0-8c-5.11,0-12.12,2.81-16.54,16.21-2.68,8.14-4.1,19.28-4.1,32.21,0,26.85,12.9,53.65,13.45,54.78L89,763.4l7.19-14.77c.55-1.13,13.45-27.93,13.45-54.78,0-12.93-1.42-24.07-4.1-32.21-4.42-13.4-11.43-16.21-16.54-16.21Z"/><path class="h" d="M212.27,834.6c-9,0-21.64-4.93-35.72-13.9-22-14-36.56-39.82-37.17-40.91l-3.6-6.46,7.38.52c1.24.09,30.78,2.34,52.8,16.36C219.13,805,229.81,820,223.82,829.37,222.3,831.76,219.06,834.6,212.27,834.6Z"/><path class="i" d="M142.87,777.84s29.52,2.11,50.94,15.74,30.81,27.09,26.63,33.64c-1.42,2.24-4.23,3.38-8.17,3.38-7.62,0-19.46-4.28-33.58-13.27-21.42-13.64-35.82-39.49-35.82-39.49m-14.19-9,7.2,12.93c.63,1.12,15.65,27.78,38.52,42.34,14.71,9.37,28.16,14.52,37.87,14.52,3.89,0,11-.92,14.92-7.08,2.33-3.66,4.89-11.55-4.11-23.32-5.33-7-14-14.36-25-21.36-22.87-14.56-53.38-16.89-54.67-17l-14.76-1.05Z"/><path class="h" d="M216.94,797.9a113.74,113.74,0,0,1-23.06-2.7c-25.55-5.39-48.22-24.45-49.18-25.25l-5.64-4.79,7.09-2.1a143.12,143.12,0,0,1,36.46-5,91.23,91.23,0,0,1,18.73,1.81c12.31,2.59,22.54,6.29,29.59,10.7,10,6.24,11.08,12.24,10.25,16.17C240.3,790.89,236,797.9,216.94,797.9Z"/><path class="i" d="M182.61,762a87.06,87.06,0,0,1,17.9,1.72c24.85,5.24,38.36,14.53,36.75,22.14-1,5-8.37,8-20.32,8a109.52,109.52,0,0,1-22.24-2.62c-24.84-5.24-47.41-24.38-47.41-24.38A139.68,139.68,0,0,1,182.61,762m0-8h0A146.65,146.65,0,0,0,145,759.23l-14.19,4.19L142.11,773c1,.83,24.42,20.51,50.94,26.11a117.54,117.54,0,0,0,23.89,2.79c21.86,0,27-9,28.15-14.37.9-4.24.52-12.53-12-20.39-7.44-4.65-18.12-8.53-30.89-11.23A95.58,95.58,0,0,0,182.61,754Z"/><path class="j" d="M178.66,861.43c-8.56,0-21.57-7.45-34.8-19.92-19-17.9-28.44-46-28.83-47.16l-2.24-6.76,6.94,1.61c1.24.28,30.74,7.28,49,26.13,17.63,18.15,23.15,29.87,19.06,40.44C186.43,859.37,183.09,861.43,178.66,861.43Z"/><path class="i" d="M118.83,793.09s29.38,6.81,47.07,25c20.89,21.51,20.45,30.4,18.2,36.22-.81,2.07-2.71,3.1-5.44,3.1-6.83,0-18.86-6.4-32.06-18.83-18.48-17.41-27.77-45.51-27.77-45.51m-12.07-11,4.47,13.51c.41,1.23,10.16,30.23,29.88,48.82,14.17,13.35,27.86,21,37.55,21,6.08,0,10.91-3.07,12.9-8.21,4.75-12.28-1-25.22-19.92-44.68-19.11-19.68-49.72-26.94-51-27.24l-13.87-3.21Z"/><path class="j" d="M188.48,761.88c-25.65,0-51.12-13-52.19-13.55l-6.57-3.4,6.44-3.64c1.09-.62,26.94-15.07,53-15.57l2.9,0c25.68,0,41.76,6.61,42,17.25.08,4-2.13,9.71-13.1,14-7.75,3-18.49,4.72-31.08,5Z"/><path class="i" d="M192.1,729.7c23.69,0,37.82,5.84,38,13.32.15,7.78-14.86,14.36-40.25,14.85h-1.33c-25,0-50.35-13.11-50.35-13.11s25.76-14.57,51.14-15c1,0,1.9,0,2.83,0m0-8v0c-1,0-2,0-3,0-27.1.52-53.81,15.45-54.93,16.09l-12.88,7.28,13.15,6.79c1.1.57,27.41,14,54,14l1.48,0c13-.24,24.26-2.05,32.44-5.22,13.82-5.36,15.75-13.43,15.66-17.77-.25-13.26-17.43-21.17-46-21.17Z"/><path class="j" d="M127.71,741.65c.67-1.06,16.63-26,39.4-38.78,13.71-7.68,26.14-11.92,35-11.92,7.76,0,11.19,3.22,12.7,5.91,5.45,9.73-6,24.11-30,37.55-22.77,12.76-52.39,13.36-53.64,13.38l-7.39.11Z"/><path class="i" d="M202.09,695c4.6,0,7.79,1.32,9.21,3.87,3.81,6.78-6.32,19.68-28.47,32.1s-51.74,12.87-51.74,12.87,15.83-25,38-37.43c13.83-7.75,25.38-11.41,33-11.41m0-8h0c-9.66,0-22.43,4.3-36.94,12.44-23.64,13.25-40.13,39-40.82,40.12L116.42,752l14.8-.22c1.29,0,31.88-.64,55.52-13.89,11.38-6.38,20.42-13.28,26.13-19.94,9.65-11.24,7.53-19.27,5.41-23.05-1.66-3-6-8-16.19-8Z"/><path class="j" d="M97.24,746.94c-.39-1.19-9.3-29.44-4.49-55.1,4.69-25.05,13.94-40.61,24.13-40.61a10.33,10.33,0,0,1,1.84.17c4,.74,9.07,4.06,11,15.67,1.37,8.19.87,19.06-1.45,31.43-4.81,25.66-23.34,48.76-24.13,49.73L99.5,754Z"/><path class="i" d="M116.88,655.23a5.78,5.78,0,0,1,1.1.11c7.64,1.43,11,17.47,6.37,42.42s-23.31,48-23.31,48-9-28.18-4.36-53.14c4.45-23.77,12.81-37.35,20.2-37.35m0-8h0c-12.61,0-22.84,16-28.06,43.88-5,26.64,4.21,55.82,4.61,57L98,762.25l9.31-11.5c.81-1,20-24.87,25-51.51,2.4-12.83,2.91-24.18,1.46-32.83-2.44-14.62-10-18.14-14.22-18.94a13.81,13.81,0,0,0-2.57-.24Z"/><path class="j" d="M129.9,883.47c-9.84,0-20.3-13.87-28-37.11-8.19-24.78-3.13-54-2.92-55.2l1.3-7.28,5.39,5.07c.91.86,22.36,21.28,30.56,46.06,8.62,26.08,7.4,44.46-3.18,48A10.24,10.24,0,0,1,129.9,883.47Z"/><path class="i" d="M102.93,791.86s21.54,20.3,29.51,44.41,6.74,40.46-.64,42.9a6.09,6.09,0,0,1-1.9.3c-7.24,0-16.88-12.25-24.19-34.36-8-24.11-2.78-53.25-2.78-53.25m-5.28-16-2.59,14.57c-.23,1.27-5.45,31.42,3.06,57.16,4,12,15,39.85,31.78,39.85a14.28,14.28,0,0,0,4.41-.7c4.12-1.37,11.09-5.86,11.56-20.67.28-8.77-1.74-20-5.84-32.34C131.52,808,109.36,786.93,108.42,786L97.65,775.89Z"/><path class="h" d="M103,733.87c.33-1.21,8.17-29.77,26.14-48.71,13.72-14.47,26.8-22.76,35.9-22.76a11.16,11.16,0,0,1,7.86,2.89C181,673,174.26,690.1,155.36,710c-18,19-46.07,28.29-47.26,28.68l-7,2.3Z"/><path class="i" d="M165,666.4a7.12,7.12,0,0,1,5.1,1.79c5.64,5.35-.2,20.67-17.68,39.09s-45.6,27.63-45.6,27.63,7.71-28.57,25.18-47c13.57-14.31,25.64-21.51,33-21.51m0-8h0c-13.95,0-30.3,15-38.81,24-18.65,19.66-26.75,49.17-27.09,50.42l-3.85,14.28,14.06-4.6c1.23-.4,30.27-10.06,48.92-29.72,9-9.47,15.56-18.73,19-26.78,5.88-13.61,1.48-20.64-1.66-23.63a15.1,15.1,0,0,0-10.61-4Z"/><path class="j" d="M-34.37,834.6c-6.79,0-10-2.84-11.55-5.23-6-9.4,4.69-24.41,27.86-39.16,22-14,51.56-16.27,52.8-16.36l7.38-.52-3.6,6.46c-.61,1.09-15.15,26.9-37.17,40.91-14.08,9-26.76,13.9-35.71,13.9Z"/><path class="i" d="M35,777.84S20.63,803.69-.79,817.33c-14.12,9-25.95,13.27-33.57,13.27-3.94,0-6.76-1.14-8.18-3.38-4.18-6.55,5.21-20,26.63-33.64S35,777.84,35,777.84m14.19-9-14.76,1.05c-1.29.09-31.8,2.42-54.67,17-11,7-19.64,14.39-25,21.36-9,11.77-6.44,19.66-4.11,23.32,3.92,6.16,11,7.08,14.93,7.08,9.7,0,23.15-5.15,37.86-14.52C26.37,809.52,41.39,782.86,42,781.74l7.2-12.93Z"/><path class="j" d="M-39,797.9c-19,0-23.36-7-24.24-11.2-.83-3.93.28-9.93,10.25-16.17,7.05-4.41,17.28-8.11,29.59-10.7A91.23,91.23,0,0,1-4.71,758a143,143,0,0,1,36.46,5l7.09,2.1L33.2,770c-1,.8-23.63,19.86-49.17,25.25A113.91,113.91,0,0,1-39,797.9Z"/><path class="i" d="M-4.71,762a139.68,139.68,0,0,1,35.32,4.88S8.05,786-16.8,791.28A109.52,109.52,0,0,1-39,793.9c-12,0-19.27-3-20.32-8-1.61-7.61,11.9-16.9,36.75-22.14A87.06,87.06,0,0,1-4.71,762m0-8a95.65,95.65,0,0,0-19.55,1.89c-12.77,2.7-23.45,6.58-30.89,11.23-12.56,7.86-12.94,16.15-12,20.39C-66.06,792.9-60.9,801.9-39,801.9a117.54,117.54,0,0,0,23.89-2.79c26.52-5.6,49.95-25.28,50.94-26.11l11.28-9.58-14.19-4.19A146.65,146.65,0,0,0-4.71,754Z"/><path class="j" d="M-.76,861.43c-4.43,0-7.77-2.06-9.17-5.66C-14,845.2-8.5,833.48,9.13,815.33c18.3-18.85,47.8-25.85,49-26.13l6.94-1.61-2.24,6.76C62.48,795.53,53,823.61,34,841.51,20.81,854,7.8,861.43-.76,861.43Z"/><path class="i" d="M59.08,793.09s-9.3,28.1-27.78,45.51C18.1,851,6.07,857.43-.76,857.43c-2.73,0-4.63-1-5.44-3.1-2.25-5.82-2.69-14.71,18.2-36.22,17.69-18.21,47.08-25,47.08-25m12.06-11L57.27,785.3c-1.29.3-31.9,7.56-51,27.24-18.9,19.46-24.67,32.4-19.92,44.68,2,5.14,6.82,8.21,12.9,8.21,9.69,0,23.38-7.66,37.55-21,19.72-18.59,29.48-47.59,29.88-48.82l4.47-13.51Z"/><path class="h" d="M-10.58,761.88H-12c-27.47-.53-44.4-7.78-44.18-18.92.2-10.64,16.28-17.25,42-17.25l2.9,0c26.1.5,52,14.95,53,15.57l6.44,3.64-6.57,3.4c-1.07.55-26.54,13.55-52.18,13.55Z"/><path class="i" d="M-14.2,729.7c.93,0,1.87,0,2.83,0,25.39.48,51.14,15,51.14,15s-25.38,13.11-50.35,13.11h-1.33c-25.39-.49-40.4-7.07-40.25-14.85.14-7.48,14.27-13.32,38-13.32m0-8c-28.53,0-45.71,7.91-46,21.17-.09,4.34,1.84,12.41,15.66,17.77,8.18,3.17,19.4,5,32.44,5.22l1.48,0c26.61,0,52.92-13.43,54-14l13.15-6.79-12.88-7.28c-1.12-.64-27.83-15.57-54.93-16.09-1,0-2,0-3,0Z"/><path class="h" d="M46.75,747.79c-1.25,0-30.87-.62-53.64-13.38-24-13.44-35.45-27.82-30-37.55,1.51-2.69,4.94-5.91,12.7-5.91,8.84,0,21.27,4.24,35,11.92,22.77,12.77,38.73,37.72,39.4,38.78l4,6.25Z"/><path class="i" d="M-24.19,695c7.64,0,19.19,3.66,33,11.41,22.15,12.42,38,37.43,38,37.43s-29.59-.46-51.74-12.87S-37.2,705.6-33.4,698.82c1.42-2.55,4.61-3.87,9.21-3.87m0-8c-10.21,0-14.53,5-16.19,8C-42.5,698.69-44.62,706.72-35,718c5.71,6.66,14.75,13.56,26.13,19.94,23.64,13.25,54.23,13.87,55.53,13.89l14.79.22-7.91-12.5c-.69-1.09-17.18-26.87-40.82-40.12C-1.76,691.25-14.53,687-24.19,687Z"/><path class="h" d="M73.75,748.23c-.79-1-19.32-24.07-24.13-49.73-2.32-12.37-2.82-23.24-1.45-31.43,1.94-11.61,7.06-14.93,11-15.67a10.21,10.21,0,0,1,1.83-.17c10.19,0,19.44,15.56,24.13,40.61,4.81,25.66-4.1,53.91-4.48,55.1l-2.26,7Z"/><path class="i" d="M61,655.23c7.39,0,15.75,13.58,20.2,37.35,4.68,25-4.36,53.14-4.36,53.14s-18.63-23-23.31-48-1.27-41,6.37-42.42a5.86,5.86,0,0,1,1.1-.11m0-8a13.81,13.81,0,0,0-2.57.24c-4.26.8-11.78,4.32-14.22,18.94-1.45,8.65-.94,20,1.46,32.83,5,26.64,24.14,50.51,25,51.51L80,762.25l4.52-14.09c.4-1.23,9.61-30.41,4.61-57C83.86,663.22,73.63,647.23,61,647.23Z"/><path class="h" d="M48,883.47a10.13,10.13,0,0,1-3.15-.5c-10.59-3.5-11.81-21.88-3.19-48,8.2-24.78,29.66-45.2,30.57-46.06l5.38-5.07,1.3,7.28c.22,1.23,5.27,30.42-2.92,55.2-7.69,23.24-18.15,37.11-28,37.11Z"/><path class="i" d="M75,791.86s5.19,29.14-2.78,53.25C64.88,867.22,55.24,879.47,48,879.47a6.09,6.09,0,0,1-1.9-.3c-7.38-2.44-8.61-18.79-.64-42.9S75,791.86,75,791.86m5.28-16L69.48,786c-.94.89-23.1,22-31.61,47.72-4.1,12.39-6.12,23.57-5.84,32.34.47,14.81,7.44,19.3,11.56,20.67a14.28,14.28,0,0,0,4.41.7c16.79,0,27.82-27.87,31.78-39.85,8.51-25.74,3.29-55.89,3.06-57.16l-2.59-14.57Z"/><path class="j" d="M69.8,738.71C68.61,738.32,40.51,729,22.55,710,3.64,690.1-3.07,673,5,665.29a11.14,11.14,0,0,1,7.85-2.89c9.1,0,22.19,8.29,35.9,22.76,18,18.94,25.81,47.5,26.14,48.71L76.83,741Z"/><path class="i" d="M12.87,666.4c7.36,0,19.43,7.2,33,21.51,17.48,18.43,25.18,47,25.18,47s-28.13-9.2-45.6-27.63S2.13,673.54,7.77,668.19a7.12,7.12,0,0,1,5.1-1.79m0-8a15.1,15.1,0,0,0-10.61,4c-3.14,3-7.54,10-1.66,23.63,3.48,8,10.06,17.31,19,26.78,18.66,19.66,47.69,29.32,48.92,29.72l14.06,4.6-3.85-14.28c-.34-1.25-8.44-30.76-27.09-50.42-8.51-9-24.86-24-38.81-24Z"/><path class="h" d="M114.83,756.61c-2.55,0-4-.05-4.08-.05l-10.26-.36,7.8-6.67c.94-.81,23.38-19.87,51-28.84A90.79,90.79,0,0,1,187,715.8c11.76,0,20.87,3.42,23.78,8.93a7.11,7.11,0,0,1,.4,6.15c-2.46,6.06-13.06,9.5-38.67,17.82-22,7.14-47.66,7.91-57.69,7.91Z"/><path class="i" d="M187,719.8c11.43,0,18.42,3.33,20.25,6.79,3,5.64-8.82,9.49-36,18.31-21.52,7-46.85,7.71-56.44,7.71-2.52,0-4-.05-4-.05s22.46-19.24,49.62-28.06c10.45-3.4,19.35-4.7,26.5-4.7m0-8a94.68,94.68,0,0,0-29,5.09c-28.36,9.21-51.39,28.77-52.36,29.6L90.1,759.84l20.51.72c.07,0,1.6.05,4.23.05,10.21,0,36.38-.79,58.91-8.1,27.64-9,38-12.34,41.14-20.13a11.15,11.15,0,0,0-.56-9.52c-3.66-6.93-13.87-11.06-27.32-11.06Z"/><path class="j" d="M202.34,808.22c-6.46,0-16.51-3.34-31.73-8.39-3.54-1.18-7.33-2.43-11.34-3.74-27.6-9-50-28-51-28.83l-7.8-6.68,10.26-.35c.06,0,1.53-.06,4.09-.06,10,0,35.69.78,57.68,7.91,23,7.48,34.95,19.39,38.16,27.31,1.68,4.13,1,7,.11,8.62-1,1.92-3.3,4.21-8.45,4.21Z"/><path class="i" d="M114.84,764.17c9.59,0,34.92.73,56.44,7.72,27.16,8.82,38.95,24.62,36,30.26-.77,1.44-2.42,2.07-4.92,2.07-7.26,0-21.63-5.37-41.83-11.93-27.16-8.82-49.62-28.07-49.62-28.07s1.43-.05,4-.05m0-8c-2.63,0-4.17.06-4.23.06l-20.51.71,15.58,13.36c1,.83,24,20.39,52.36,29.6,4,1.3,7.71,2.53,11.31,3.73,15.59,5.17,25.89,8.59,33,8.59,7.52,0,10.74-4,12-6.34s2.31-6.44.06-12c-4.66-11.48-20.61-23.1-40.64-29.61-22.53-7.32-48.7-8.11-58.91-8.11Z"/><path class="h" d="M129.06,850.29c-9.16,0-17.56-7.82-26.43-24.61-11.64-22-10.3-48.34-10.24-49.45L92.8,769l5.92,4.25c1,.74,25.44,18.4,37,40.28,7.26,13.76,9.39,22.64,6.89,28.8-1.38,3.4-4.15,5.8-8.23,7.12a17.28,17.28,0,0,1-5.32.88Z"/><path class="i" d="M96.39,776.46s24.54,17.6,35.79,38.9,8.15,27.92,1,30.25a13,13,0,0,1-4.08.68c-6.31,0-13.7-5.08-22.9-22.48-11.25-21.3-9.77-47.35-9.77-47.35m-7.17-15L88.4,776c-.07,1.16-1.46,28.55,10.69,51.55,12.66,24,23.17,26.74,30,26.74a21.29,21.29,0,0,0,6.56-1.07c6.54-2.13,9.43-6.3,10.69-9.43,3-7.35.81-17.27-7.06-32.17-12-22.7-37.13-40.9-38.2-41.66l-11.83-8.49Z"/><path class="j" d="M48.84,850.29a17.28,17.28,0,0,1-5.32-.88c-4.08-1.32-6.85-3.72-8.23-7.12-2.5-6.16-.37-15,6.9-28.8,11.55-21.88,36-39.54,37-40.28L85.1,769l.41,7.27c.06,1.11,1.4,27.42-10.24,49.45C66.4,842.47,58,850.29,48.84,850.29Z"/><path class="i" d="M81.51,776.46s1.48,26-9.77,47.35c-9.2,17.4-16.59,22.48-22.9,22.48a13.32,13.32,0,0,1-4.08-.68c-7.19-2.33-10.29-9,1-30.25s35.79-38.9,35.79-38.9m7.17-15L76.85,770c-1.06.76-26.21,19-38.2,41.66-7.87,14.9-10,24.82-7.06,32.17,1.26,3.13,4.15,7.3,10.69,9.43a21.29,21.29,0,0,0,6.56,1.07c14.2,0,23.91-15.26,30-26.74C91,804.55,89.57,777.16,89.5,776l-.82-14.53Z"/><path class="h" d="M-24.44,808.22c-5.15,0-7.44-2.29-8.45-4.21-.88-1.65-1.57-4.49.11-8.62,3.21-7.92,15.14-19.83,38.16-27.31,22-7.13,47.66-7.91,57.68-7.91,2.56,0,4,.05,4.09.06l10.26.35-7.8,6.68c-.94.81-23.38,19.87-51,28.83-4,1.31-7.8,2.56-11.34,3.74-15.22,5-25.27,8.39-31.73,8.39Z"/><path class="i" d="M63.07,764.17c2.51,0,3.94.05,3.94.05s-22.45,19.25-49.62,28.07c-20.21,6.56-34.57,11.93-41.83,11.93-2.5,0-4.15-.63-4.92-2.07-3-5.64,8.82-21.44,36-30.26,21.52-7,46.86-7.72,56.45-7.72m0-8c-10.21,0-36.39.79-58.92,8.11-20,6.51-36,18.13-40.64,29.61-2.25,5.55-1.21,9.59.06,12s4.47,6.34,12,6.34c7.1,0,17.4-3.42,33-8.59,3.6-1.2,7.32-2.43,11.32-3.73,28.35-9.21,51.38-28.77,52.35-29.6l15.59-13.36-20.52-.71c-.06,0-1.6-.06-4.22-.06Z"/><path class="h" d="M63.07,756.61c-10,0-35.7-.77-57.69-7.91-25.61-8.32-36.21-11.76-38.66-17.82a7.06,7.06,0,0,1,.39-6.15c2.91-5.51,12-8.93,23.78-8.93a90.79,90.79,0,0,1,27.74,4.89c27.6,9,50,28,51,28.84l7.8,6.67-10.26.36c-.06,0-1.53.05-4.08.05Z"/><path class="i" d="M-9.11,719.8c7.15,0,16.05,1.3,26.5,4.7C44.56,733.32,67,752.56,67,752.56s-1.43.05-3.94.05c-9.6,0-34.93-.72-56.45-7.71-27.16-8.82-38.95-12.67-36-18.31,1.83-3.46,8.82-6.79,20.25-6.79m0-8c-13.45,0-23.66,4.13-27.32,11.06a11.15,11.15,0,0,0-.56,9.52c3.16,7.79,13.5,11.15,41.14,20.13,22.53,7.31,48.71,8.1,58.92,8.1,2.62,0,4.16-.05,4.22-.05l20.51-.72L72.22,746.49c-1-.83-24-20.39-52.35-29.6a94.79,94.79,0,0,0-29-5.09Z"/><path class="h" d="M78.64,744.33c-1-.54-24.88-13.48-35.63-30.64-7.68-12.27-10.51-22.8-8-29.65a10.69,10.69,0,0,1,7-6.67,12.89,12.89,0,0,1,3.8-.56c9.37,0,21,9.36,30.49,24.43,10.94,17.47,8.3,39.16,8.18,40.07l-.74,5.76Z"/><path class="i" d="M45.84,680.81c7.37,0,17.93,7.93,27.09,22.55,10.3,16.47,7.61,37.44,7.61,37.44S56.71,728,46.4,711.56s-10.51-28.11-3.19-30.37a8.67,8.67,0,0,1,2.63-.38m0-8h0a17.09,17.09,0,0,0-5,.73,14.62,14.62,0,0,0-9.55,9.11c-2.12,5.68-2.39,16.06,8.32,33.16,11.3,18.06,36.09,31.48,37.14,32L87,753.34l1.48-11.52c.13-1,2.93-24-8.76-42.7-10.31-16.48-23-26.31-33.87-26.31Z"/><path class="j" d="M93,741.31c-.12-.91-2.75-22.6,8.19-40.07,9.43-15.07,21.11-24.43,30.48-24.43a12.79,12.79,0,0,1,3.8.56,10.68,10.68,0,0,1,7,6.67c2.54,6.85-.28,17.38-8,29.65-10.75,17.16-34.63,30.1-35.64,30.64l-5.12,2.74Z"/><path class="i" d="M131.62,680.81a8.6,8.6,0,0,1,2.62.38c7.33,2.26,7.12,13.91-3.19,30.37S96.92,740.8,96.92,740.8s-2.7-21,7.61-37.44c9.15-14.62,19.71-22.55,27.09-22.55m0-8c-10.9,0-23.56,9.83-33.87,26.31-11.7,18.67-8.89,41.73-8.77,42.7l1.49,11.52,10.23-5.49c1-.56,25.83-14,37.14-32,5.91-9.44,12.15-22.86,8.32-33.16a14.66,14.66,0,0,0-9.56-9.11,17,17,0,0,0-5-.73Z"/><path class="h" d="M105.1,735.77c.27-.65,6.85-16.16,21.31-26.1C137,702.42,147,698.27,154,698.27A11.34,11.34,0,0,1,160.5,700a7.36,7.36,0,0,1,3.28,6.24c0,7.26-9.41,15.25-17.3,20.68-14.17,9.74-36,14.1-36.91,14.28l-7.34,1.45Z"/><path class="i" d="M154,702.27a7.51,7.51,0,0,1,4.28,1.06c4.29,2.95-.37,10.93-14,20.32s-35.42,13.66-35.42,13.66,6.22-15,19.87-24.35c10.38-7.13,19.59-10.69,25.29-10.69m0-8c-7.87,0-18.46,4.3-29.82,12.1-15.42,10.6-22.44,27.17-22.73,27.87L95.67,748l14.67-2.88c1-.19,23.56-4.71,38.41-14.92,12.63-8.68,19-16.74,19-24a11.41,11.41,0,0,0-5-9.53,15.23,15.23,0,0,0-8.81-2.47Z"/><path class="h" d="M85.92,734.16C85.43,733.57,74,719.29,74,704.78c0-17.4,7.53-25.19,15-25.19s15,7.79,15,25.19c0,14.51-11.39,28.79-11.88,29.38L89,738Z"/><path class="i" d="M89,683.59c6.07,0,11,7.92,11,21.19s-11,26.87-11,26.87-11-13.6-11-26.87S83,683.59,89,683.59m0-8c-9.45,0-19,9-19,29.19,0,15.64,11.46,30.28,12.77,31.9l6.22,7.7,6.22-7.7c1.31-1.62,12.77-16.26,12.77-31.9,0-20.16-9.54-29.19-19-29.19Z"/><path class="j" d="M156.05,762.47c-19.82,0-39.69-7.5-40.53-7.82l-9.79-3.74,9.79-3.73c.84-.32,20.71-7.82,40.53-7.82,19.2,0,34.82,6.74,34.82,15,0,6.35-8.1,7.2-11.16,7.53-4.93.52-11.71.56-21.49.56Z"/><path class="i" d="M156.05,743.36c19.31,0,30.82,6.85,30.82,11,0,4-10.65,4.09-28.65,4.09h-2.17c-19.31,0-39.1-7.55-39.1-7.55s19.79-7.56,39.1-7.56m0-8c-20.54,0-41.09,7.75-42,8.08l-19.58,7.48,19.58,7.47c.86.33,21.41,8.08,42,8.08h2.17c9.91,0,16.79,0,21.92-.58a26.68,26.68,0,0,0,8.05-1.87c4.18-1.87,6.68-5.47,6.68-9.64,0-10.84-16.69-19-38.82-19Z"/><path class="h" d="M154.84,805.07c-8,0-19.93-7-28.51-12.93-14.46-9.94-21-25.45-21.3-26.1l-2.87-6.91,7.33,1.45c.92.18,22.74,4.54,36.92,14.28,10.83,7.45,17.29,15.73,17.29,22.16a7.61,7.61,0,0,1-3.27,6.49,9.69,9.69,0,0,1-5.59,1.56Z"/><path class="i" d="M108.72,764.5s21.77,4.28,35.42,13.66,18.31,19.1,14,22.05a5.76,5.76,0,0,1-3.32.86c-5.59,0-15.26-4.68-26.24-12.22-13.66-9.39-19.88-24.35-19.88-24.35M95.59,753.77l5.74,13.8c.29.7,7.31,17.27,22.73,27.87,13.16,9,23.52,13.63,30.78,13.63a13.56,13.56,0,0,0,7.85-2.26,11.65,11.65,0,0,0,5-9.79c0-7.86-6.93-17.14-19-25.45-14.84-10.21-37.45-14.73-38.41-14.92l-14.67-2.88Z"/><path class="j" d="M88.92,823.89c-9.06,0-16.72-12.32-16.72-26.91S85.44,768,86,767.37l2.92-3.12,2.92,3.12c.57.6,13.81,14.93,13.81,29.61S98,823.89,88.92,823.89Z"/><path class="i" d="M88.92,770.1s12.73,13.61,12.73,26.88S95,819.89,88.92,819.89,76.2,810.25,76.2,797,88.92,770.1,88.92,770.1m0-11.71-5.84,6.25C81.56,766.27,68.2,781,68.2,797c0,17,9.29,30.91,20.72,30.91S109.65,814,109.65,797c0-16-13.36-30.71-14.88-32.34l-5.85-6.25Z"/><path class="h" d="M23,805a9.67,9.67,0,0,1-5.58-1.55A7.64,7.64,0,0,1,14.17,797c0-6.43,6.47-14.71,17.3-22.16,14.17-9.74,36-14.11,36.92-14.29l7.33-1.44L72.85,766c-.27.66-6.84,16.17-21.3,26.11C43,798,31.06,805,23,805Z"/><path class="i" d="M69.16,764.45s-6.23,15-19.88,24.34C38.3,796.34,28.63,801,23,801a5.71,5.71,0,0,1-3.31-.85c-4.3-2.95.36-12.67,14-22s35.42-13.66,35.42-13.66m13.13-10.74L67.62,756.6c-1,.18-23.57,4.71-38.42,14.91-12.09,8.32-19,17.6-19,25.46a11.66,11.66,0,0,0,5,9.78A13.61,13.61,0,0,0,23,809c7.27,0,17.63-4.58,30.78-13.62,15.43-10.6,22.44-27.17,22.73-27.87l5.75-13.81Z"/><path class="j" d="M19.74,762.4c-9.78,0-16.57,0-21.5-.57-3-.32-11.16-1.18-11.16-7.52,0-8.29,15.62-15,34.82-15,19.82,0,39.69,7.49,40.53,7.81l9.79,3.74-9.79,3.74c-.84.32-20.71,7.82-40.53,7.82Z"/><path class="i" d="M21.9,743.29c19.31,0,39.1,7.55,39.1,7.55s-19.79,7.56-39.1,7.56H19.73c-18,0-28.65-.08-28.65-4.09,0-4.18,11.51-11,30.82-11m0-8c-22.13,0-38.82,8.17-38.82,19,0,4.16,2.5,7.76,6.68,9.63a26.46,26.46,0,0,0,8.05,1.87c5.13.55,12,.59,21.92.59H21.9c20.55,0,41.09-7.75,42-8.08l19.58-7.48-19.58-7.47c-.87-.33-21.41-8.08-42-8.08Z"/><path class="j" d="M68.46,741.18c-.92-.18-22.74-4.55-36.91-14.29-7.89-5.42-17.3-13.41-17.3-20.68A7.35,7.35,0,0,1,17.53,700a11.34,11.34,0,0,1,6.54-1.77c7,0,17,4.16,27.55,11.4,14.46,9.94,21,25.46,21.31,26.11l2.87,6.9Z"/><path class="i" d="M24.07,702.21c5.7,0,14.91,3.57,25.29,10.7,13.65,9.38,19.87,24.35,19.87,24.35S47.47,733,33.81,723.6s-18.31-17.37-14-20.32a7.51,7.51,0,0,1,4.28-1.07m0-8a15.31,15.31,0,0,0-8.81,2.47,11.43,11.43,0,0,0-5,9.53c0,7.23,6.4,15.3,19,24,14.85,10.2,37.46,14.73,38.41,14.92L82.36,748l-5.74-13.81c-.29-.7-7.31-17.26-22.73-27.86-11.36-7.81-21.95-12.11-29.82-12.11Z"/><path class="j" d="M89,767c-14.84,0-26-6.55-26-15.24s11.19-15.23,26-15.23,26,6.55,26,15.23S103.82,767,89,767Z"/><path class="i" d="M89,740.51c12.16,0,22,5,22,11.23S101.14,763,89,763s-22-5-22-11.24,9.86-11.23,22-11.23m0-8a43.26,43.26,0,0,0-19.22,4.16c-6.87,3.51-10.81,9-10.81,15.07s3.94,11.57,10.81,15.08A43.26,43.26,0,0,0,89,771a43.24,43.24,0,0,0,19.21-4.16c6.87-3.51,10.82-9,10.82-15.08s-4-11.56-10.82-15.07A43.24,43.24,0,0,0,89,732.51Z"/><path class="a" d="M511,607.93c3.33-14.57-4.86-10.71-18.79-21.36-7-5.37-17.64-7.63-27.39-12.47-8.49-4.2-16.59-11.54-26.76-13.79-10.64-2.37-21.48,1.45-31.52,2.65-11.18,1.34-22.55.44-31.44,3.75-16.92,6.3-23.28.45-25.53,16-2,14.11,6.35,8.15,21.7,15.9,7.4,3.73,17.82,4.06,27.73,7.68,8.4,3.08,16.46,9.72,26.21,11.88,10.09,2.24,20.46-.87,29.83-.91,10.82,0,21.24,2.68,29.82,1.07C502,615.12,507.65,622.37,511,607.93Z"/><path class="b" d="M511,607.93c3.33-14.57-4.86-10.71-18.79-21.36-7-5.37-17.64-7.63-27.39-12.47-8.49-4.2-16.59-11.54-26.76-13.79-10.64-2.37-21.48,1.45-31.52,2.65-11.18,1.34-22.55.44-31.44,3.75-16.92,6.3-23.28.45-25.53,16-2,14.11,6.35,8.15,21.7,15.9,7.4,3.73,17.82,4.06,27.73,7.68,8.4,3.08,16.46,9.72,26.21,11.88,10.09,2.24,20.46-.87,29.83-.91,10.82,0,21.24,2.68,29.82,1.07C502,615.12,507.65,622.37,511,607.93Z"/><path class="c" d="M367,582.79s51-5,124,18.76"/><path class="c" d="M424.29,585.73s7.77,9,23.35,17.86"/><path class="c" d="M424.28,585.8s8.1-5.61,22.6-8.43"/><path class="c" d="M388,581.44s6-4.35,16.71-7.49"/><path class="c" d="M456.75,592s5.46,7.08,16.81,14.35"/><path class="c" d="M456.75,592s6.8-2.93,17.95-3.65"/><path class="c" d="M388,581.77s5.13,6.8,15.86,13.84"/><path class="a" d="M245.27,426.66c12.31-8.49,12,7.28,27,16.28,7.59,4.54,18.34,7.17,26.44,14.45,7,6.33,10.86,16.37,16.72,25,6.13,9,13.75,17.22,16.35,27,2.89,10.87.06,22.22.27,31.7.4,18.06,14.18,25.18.53,33-12.36,7.11-9.26-9.35-22.13-20.76-6.21-5.5-16-9.4-23-17.26-6-6.68-8.82-16.63-14.43-24.89-5.81-8.55-13.78-15.63-17.21-24.35-4-10.07-2.69-21-4.36-29.53C248.11,440.19,233.08,435.06,245.27,426.66Z"/><path class="b" d="M245.27,426.66c12.31-8.49,12,7.28,27,16.28,7.59,4.54,18.34,7.17,26.44,14.45,7,6.33,10.86,16.37,16.72,25,6.13,9,13.75,17.22,16.35,27,2.89,10.87.06,22.22.27,31.7.4,18.06,14.18,25.18.53,33-12.36,7.11-9.26-9.35-22.13-20.76-6.21-5.5-16-9.4-23-17.26-6-6.68-8.82-16.63-14.43-24.89-5.81-8.55-13.78-15.63-17.21-24.35-4-10.07-2.69-21-4.36-29.53C248.11,440.19,233.08,435.06,245.27,426.66Z"/><path class="c" d="M324.1,554.47S310,505.25,260.87,446.18"/><path class="c" d="M300.2,502.28S289,498.38,275,487.18"/><path class="c" d="M300.13,502.32s2.22-9.6-.51-24.12"/><path class="c" d="M317.58,534.39s1.83-7.18.79-18.3"/><path class="c" d="M282.38,474.44s-8.6-2.47-19.55-10.33"/><path class="c" d="M282.38,474.44s.21-7.41-3.25-18"/><path class="c" d="M317.29,534.56s-8.21-2.26-18.72-9.62"/><path class="d" d="M435.26,511.27,364,469.86c-3.94-2.29-8,.32-6.31,4.06,0,0,1.22,24.95,15.56,40.38a10.69,10.69,0,0,0-1.12,2.15l-35.61,53.79a19.11,19.11,0,0,1-5.36,7.56l-49.9,54a24.67,24.67,0,0,1-9.51,5.07l-78.8,54.49c-17.41,4.89-8.15,12.84-8.15,12.84A11.32,11.32,0,0,0,200,713l87.17-60.07,64.64-71.75,41.1-55.68,0,0c20.28,4.34,42-6.67,42-6.67C438.94,518.38,439.2,513.56,435.26,511.27Z"/><path class="h" d="M376.9,533.55a9.9,9.9,0,0,1-5.6-1.63c-3.39-2.26-6.7-7.55-3.27-19.89,2.42-8.72,7.8-19.45,15.53-31,16.05-24,43.71-40.29,44.88-41l7.1-4.14L434.42,444c-.18,1.34-4.69,33.13-20.74,57.12C399.9,521.75,386.5,533.55,376.9,533.55Z"/><path class="i" d="M430.46,443.49s-4.39,31.94-20.11,55.44c-13.4,20-26,30.62-33.45,30.62a6,6,0,0,1-3.38-.95c-6.48-4.34-2.36-21.86,13.37-45.36s43.57-39.75,43.57-39.75m10.16-15.19-14.19,8.28c-1.2.7-29.63,17.46-46.19,42.21-8,11.91-13.53,23-16.07,32.17-2.24,8.08-3.22,18.85,4.91,24.29a14,14,0,0,0,7.82,2.3c6.44,0,20.21-4.44,40.1-34.17,16.56-24.75,21.2-57.42,21.39-58.8l2.23-16.28Z"/><path class="h" d="M435,430.31c.14-1,3.58-25.25,15.83-43.56,10.59-15.83,21-24.91,28.6-24.91a8.41,8.41,0,0,1,4.77,1.4c2.83,1.89,5.62,6.22,2.87,16.1-1.86,6.69-6,14.89-11.86,23.72-12.26,18.31-33.34,30.73-34.23,31.25l-7.1,4.14Z"/><path class="i" d="M479.38,365.84a4.53,4.53,0,0,1,2.55.72c4.89,3.28,1.78,16.52-10.1,34.27s-32.92,30-32.92,30,3.32-24.13,15.19-41.89c10.13-15.13,19.65-23.13,25.28-23.13m0-8h0c-12.25,0-25.26,16.72-31.93,26.68-12.75,19.07-16.32,44.19-16.46,45.25L428.75,446l14.19-8.27c.93-.54,22.78-13.42,35.54-32.49,6.14-9.17,10.42-17.77,12.4-24.87,3.56-12.83-1.29-18.35-4.51-20.5a12.53,12.53,0,0,0-7-2.07Z"/><path class="h" d="M343.46,443.4H342c-10.68-.25-19.82-1.74-26.41-4.32-10.09-4-11.48-9.48-11.41-12.42.21-9.27,13.86-15,35.62-15l2.92,0c22.18.5,44.07,12.85,45,13.38l6.42,3.66-6.58,3.37c-.91.47-22.41,11.34-44.12,11.34Z"/><path class="i" d="M339.82,415.62l2.83,0c21.42.48,43.1,12.85,43.1,12.85s-21.3,10.9-42.29,10.9h-1.35c-21.42-.49-34.06-6.09-33.91-12.65.14-6.26,11.9-11.12,31.62-11.12m0-8c-10.37,0-19.34,1.28-25.92,3.7-11.72,4.32-13.61,11.4-13.7,15.24s1.6,11.39,13.95,16.23c7,2.75,16.63,4.34,27.78,4.6h1.53c22.66,0,45-11.29,45.94-11.77l13.17-6.74-12.85-7.33c-1-.55-23.71-13.38-46.89-13.91l-3,0Z"/><path class="h" d="M377.07,423.25c-9.45,0-23.26-1-35.45-5.92-21.87-8.78-33.18-19.88-29.54-29,1.28-3.17,4.78-6.94,14.24-6.94,7.25,0,16.63,2.22,27.12,6.44,20.59,8.26,36.75,27.51,37.43,28.33l4.73,5.69-7.35.84a107.52,107.52,0,0,1-11.18.52Z"/><path class="i" d="M326.32,385.43c6.34,0,15.15,1.94,25.63,6.15,19.88,8,35.84,27.18,35.84,27.18a104.23,104.23,0,0,1-10.72.49c-9.05,0-22.35-1-34-5.63-19.88-8-29.76-17.68-27.31-23.76,1.15-2.88,4.85-4.43,10.52-4.43m0-8c-12.31,0-16.53,5.92-17.95,9.45-1.48,3.7-2.5,11.23,7.36,20.09,5.61,5,14,9.92,24.4,14.07,12.78,5.13,27.14,6.21,36.94,6.21a108,108,0,0,0,11.63-.55L403.4,425l-9.46-11.38c-.7-.84-17.5-20.85-39-29.49-11-4.4-20.85-6.72-28.61-6.72Z"/><path class="j" d="M339.41,474.73c-7.24,0-16.72-1.05-20.75-6.08a7.87,7.87,0,0,1-1.6-6.73c2.16-9.61,11.66-15.38,32.82-19.89a64.31,64.31,0,0,1,13.46-1.34,105.46,105.46,0,0,1,33.54,6.05l6.66,2.52-5.62,4.37c-.84.66-20.75,16-42.62,19.67a96.74,96.74,0,0,1-15.89,1.43Z"/><path class="i" d="M363.34,444.69c16.85,0,32.12,5.79,32.12,5.79s-19.69,15.34-40.82,18.88a93.65,93.65,0,0,1-15.23,1.37c-12.26,0-19.49-3.24-18.44-7.93,1.15-5.14,5-11.58,29.74-16.86a60.72,60.72,0,0,1,12.63-1.25m0-8a69,69,0,0,0-14.3,1.42c-22.93,4.9-33.33,11.55-35.88,22.94a11.78,11.78,0,0,0,2.38,10.1c4,5,12.06,7.58,23.87,7.58A101.43,101.43,0,0,0,356,477.25c22.86-3.83,43.55-19.78,44.42-20.46L411.61,448l-13.31-5a110,110,0,0,0-35-6.31Z"/><path class="j" d="M404.14,411.52c-1.05-.12-26-3.08-44.21-15.76-8.77-6.11-15.56-12.41-19.62-18.21-6.22-8.87-4.32-14.24-2.64-16.65,1.36-2,4.14-4.29,9.62-4.29,7.73,0,18.66,4.65,30.79,13.1,18.19,12.69,29.61,35.09,30.09,36l3.33,6.61Z"/><path class="i" d="M347.29,360.61c6.4,0,16.5,4,28.5,12.39,17.58,12.24,28.81,34.54,28.81,34.54s-24.81-2.81-42.39-15.06-25-23.91-21.26-29.29c1.19-1.71,3.36-2.58,6.34-2.58m0-8c-7.59,0-11.34,3.76-12.91,6-2.27,3.27-5,10.38,2.65,21.24,4.33,6.18,11.46,12.82,20.61,19.19,19,13.26,45,16.33,46.05,16.45l14.71,1.67-6.66-13.22c-.5-1-12.36-24.25-31.38-37.51-12.79-8.91-24.53-13.82-33.07-13.82Z"/><path class="j" d="M407.71,413.44c-.87-.6-21.48-15-31.53-34.77-10.67-21-11.88-36.81-3.15-41.24a9.17,9.17,0,0,1,4.22-1c8.31,0,18.24,10.15,27.23,27.84,10,19.78,9.53,44.91,9.51,46l-.19,7.4Z"/><path class="i" d="M377.25,340.44c6.07,0,15.18,9,23.67,25.66,9.7,19.09,9.07,44,9.07,44s-20.54-14.2-30.24-33.29S369,344,374.84,341a5.27,5.27,0,0,1,2.41-.55m0-8a13.32,13.32,0,0,0-6,1.42c-3.55,1.81-9.27,6.8-7.69,20,.9,7.49,4,16.71,9.1,26.65,10.5,20.66,31.91,35.62,32.82,36.25l12.17,8.42.38-14.8c0-1.1.56-27.21-9.94-47.88-13.28-26.13-25-30-30.8-30Z"/><path class="j" d="M426.17,426c-.1-1-2.27-26.1,6.46-46.49,7.93-18.53,17.65-29.6,26-29.6a9.25,9.25,0,0,1,3.62.73c2.71,1.16,7.15,4.72,6.58,15.53-.38,7.07-2.81,16-7,25.83-8.73,20.39-28.35,36.12-29.18,36.77l-5.79,4.6Z"/><path class="i" d="M458.63,353.87a5.25,5.25,0,0,1,2.05.41c6,2.58,5.89,16.41-2.54,36.11s-28,35.21-28,35.21-2.27-24.86,6.16-44.56c7.53-17.59,16.24-27.17,22.32-27.17m0-8c-6,0-17.75,4.16-29.68,32-9.12,21.31-6.86,47.33-6.76,48.43l1.35,14.73,11.59-9.19c.86-.69,21.24-17,30.36-38.33,4.39-10.26,6.93-19.66,7.33-27.2.71-13.24-5.33-17.85-9-19.41a13.18,13.18,0,0,0-5.2-1.06Z"/><path class="j" d="M351.69,511c-4.88,0-7.51-2.07-8.86-3.8-1.81-2.32-4-7.59,1.75-16.77,3.75-6,10.19-12.66,18.62-19.23,17.5-13.63,42.27-17.91,43.32-18.08l7.3-1.23-3,6.78c-.43,1-10.64,23.95-28.14,37.58-12.2,9.51-23.22,14.75-31,14.75Z"/><path class="i" d="M407.18,457.07s-10,22.87-26.92,36C368.25,502.45,358,507,351.69,507c-2.59,0-4.54-.76-5.71-2.26-4-5.17,2.78-17.22,19.68-30.38s41.52-17.3,41.52-17.3m13.27-10.33-14.59,2.44c-1.09.19-26.83,4.63-45.11,18.88-8.8,6.85-15.56,13.86-19.56,20.26-7,11.25-4,18.2-1.52,21.35,2.69,3.44,7,5.34,12,5.34,11.72,0,26-9.77,33.48-15.6,18.29-14.24,28.9-38.12,29.34-39.12l5.94-13.55Z"/><path class="h" d="M428,417.76c-.65-.83-16.07-20.69-19.81-42.55-4-23.22-.44-38.67,9.21-40.33a9.86,9.86,0,0,1,1.53-.12c9.11,0,16.8,13.12,20.56,35.1s-4.21,45.71-4.55,46.72l-2.37,7Z"/><path class="i" d="M418.93,338.76c6.25,0,13.16,11.57,16.61,31.77,3.61,21.12-4.39,44.77-4.39,44.77s-15.4-19.65-19-40.77-.53-34.6,5.94-35.7a4.8,4.8,0,0,1,.85-.07m0-8a13.42,13.42,0,0,0-2.2.18c-3.93.67-10.87,3.75-13.27,16.79-1.36,7.42-1.09,17.16.79,28.15,3.91,22.85,19.93,43.48,20.6,44.35L434,431.88l4.75-14c.35-1,8.61-25.83,4.7-48.68-4.17-24.42-13.11-38.42-24.5-38.42Z"/><path class="j" d="M490.5,554.54c-8.32,0-18.11-11-26.19-29.34-8.93-20.3-7-45.37-6.92-46.43l.6-7.37,5.84,4.54c.84.65,20.61,16.18,29.54,36.48,9.48,21.57,9.8,37.41.84,41.35A9.17,9.17,0,0,1,490.5,554.54Z"/><path class="i" d="M461.37,479.1s19.71,15.32,28.34,34.93,8.89,33.44,2.89,36.08a5.13,5.13,0,0,1-2.1.43c-6.07,0-14.85-9.48-22.53-26.95-8.62-19.61-6.6-44.49-6.6-44.49m-6.77-15.4-1.2,14.75c-.09,1.09-2.09,27.14,7.25,48.36,12.14,27.61,23.91,31.73,29.85,31.73a13,13,0,0,0,5.32-1.11c3.65-1.6,9.64-6.27,8.8-19.5-.48-7.54-3.1-16.91-7.59-27.12-9.33-21.22-29.88-37.35-30.75-38L454.6,463.7Z"/><path class="j" d="M519.37,534.58c-7.83,0-19.06-6.91-30.82-19-15.49-15.88-22.5-40-22.79-41l-2-7.12,7.07,2.2c1,.32,25,7.91,40.47,23.78,16.45,16.86,22.32,31.58,15.32,38.42A10.06,10.06,0,0,1,519.37,534.58Z"/><path class="i" d="M469.61,473.49s23.83,7.42,38.8,22.76,20.07,28.18,15.38,32.76a6.08,6.08,0,0,1-4.42,1.57c-6.22,0-16.42-5.93-28-17.75-15-15.33-21.8-39.34-21.8-39.34m-11.75-12,4.05,14.23c.3,1.06,7.59,26.15,23.78,42.74,7.35,7.53,21.49,20.16,33.68,20.16a13.9,13.9,0,0,0,10-3.85c2.85-2.78,6.82-9.25,1.39-21.35-3.1-6.88-8.85-14.74-16.64-22.72C497.94,474.07,473,466.18,472,465.85l-14.12-4.4Z"/><path class="j" d="M452.22,556.77c-9.74,0-17.2-17.47-20.63-32.43-5-21.62,1.63-45.88,1.91-46.9l1.9-6.86,4.88,5.19c.74.79,18.26,19.67,22.29,41.65,3.89,21.28,2.19,32.26-5.87,37.92A7.77,7.77,0,0,1,452.22,556.77Z"/><path class="i" d="M437.36,478.51s17.41,18.55,21.27,39.63c4.56,24.88.08,30.9-4.23,33.92a3.71,3.71,0,0,1-2.18.71c-5.34,0-12.55-11.08-16.73-29.32-4.79-20.88,1.87-44.94,1.87-44.94m-3.91-15.86-3.8,13.72c-.3,1.06-7.14,26.27-2,48.87,1.91,8.33,9.33,35.53,24.53,35.53a11.67,11.67,0,0,0,6.77-2.16c9.56-6.7,11.74-18.84,7.51-41.91S444,473.86,443.19,473l-9.74-10.38Z"/><path class="h" d="M532,502.41c-7.68,0-18.51-4.24-30.5-11.94-18.67-12-30.93-33.93-31.44-34.86l-3.58-6.47,7.38.55c1.06.08,26.12,2.08,44.78,14.06,19.83,12.73,28.86,25.75,23.57,34C540.85,499.87,538,502.41,532,502.41Z"/><path class="i" d="M473.56,453.68s24.9,1.87,42.92,13.44,25.91,22.94,22.37,28.46c-1.2,1.87-3.56,2.83-6.85,2.83-6.43,0-16.42-3.65-28.34-11.3-18-11.58-30.1-33.43-30.1-33.43m-14.16-9.09,7.16,13c.53,1,13.27,23.77,32.78,36.29C512,502,523.57,506.41,532,506.41c8.18,0,12-4.08,13.58-6.51,2.15-3.35,4.57-10.55-3.45-21.12-4.57-6-11.94-12.37-21.33-18.39-19.5-12.52-45.54-14.61-46.64-14.69l-14.76-1.11Z"/><path class="h" d="M520.31,469.3c-2.93,0-6-.12-9.22-.38-22.11-1.74-43.28-15.3-44.17-15.87l-6.21-4,6.76-3c.83-.36,20.46-9,40.86-9,1.79,0,3.56.07,5.26.21,23.48,1.85,37.59,9.06,36.83,18.82C550.1,460.07,546.54,469.3,520.31,469.3Z"/><path class="i" d="M508.33,441.07c1.65,0,3.3.06,4.94.19,21.36,1.69,33.67,8,33.16,14.53-.44,5.57-10.06,9.51-26.12,9.51q-4.17,0-8.9-.36c-21.36-1.69-42.32-15.25-42.32-15.25s19.45-8.62,39.24-8.62m0-8v0c-21.24,0-41.63,8.93-42.49,9.31l-13.53,6,12.42,8c.93.59,22.93,14.68,46,16.5,3.29.26,6.5.39,9.53.39,8.82,0,16.13-1.07,21.74-3.18,10.11-3.81,12.08-10.22,12.35-13.7.32-4-1-11.47-13-17-6.86-3.14-16.36-5.27-27.48-6.14-1.8-.14-3.67-.22-5.56-.22Z"/><path class="h" d="M443.27,435.84c.29-1,7.34-25.15,22.85-41,11.77-12,23-18.91,30.83-18.91a10.09,10.09,0,0,1,7.24,2.73c7,6.85,1.1,21.56-15.38,38.39-15.52,15.85-39.5,23.4-40.51,23.72L441.23,443Z"/><path class="i" d="M497,379.93a6.1,6.1,0,0,1,4.44,1.59c4.68,4.58-.45,17.43-15.44,32.73S447.11,437,447.11,437,454,413,469,397.64c11.54-11.79,21.75-17.7,28-17.71m0-8h0c-12.18,0-26.33,12.6-33.69,20.11-16.21,16.57-23.53,41.64-23.84,42.7L435.35,449l14.13-4.38c1-.33,26-8.18,42.19-24.74,7.8-8,13.56-15.81,16.67-22.69,5.45-12.09,1.49-18.57-1.36-21.36a13.91,13.91,0,0,0-10-3.87Z"/><path class="h" d="M407.43,549.13a9.35,9.35,0,0,1-2.42-.32c-2.84-.79-7.72-3.72-8.59-14.51-.57-7.06.64-16.24,3.49-26.54,5.92-21.37,23.26-39.58,24-40.34l5.13-5.33,1.65,7.21c.24,1,5.74,25.56-.19,46.94C424.8,536.84,416.17,549.13,407.43,549.13Z"/><path class="i" d="M426.79,470.19s5.58,24.33-.14,45c-5.32,19.2-13.08,30-19.22,30a5.11,5.11,0,0,1-1.35-.18c-6.32-1.75-8-15.48-2.32-36.12s23-38.64,23-38.64M431.28,454,421,464.64c-.76.8-18.78,19.71-25,42.05-3,10.75-4.23,20.41-3.62,27.93,1.07,13.22,7.67,17,11.51,18a13.23,13.23,0,0,0,3.49.47c10.8,0,20.62-13.06,26.93-35.82,6.19-22.34.47-47.83.23-48.91L431.28,454Z"/><path class="j" d="M484.77,439.79a121.09,121.09,0,0,1-29.59-3.85l-7.12-2,5.57-4.87c.8-.7,19.81-17.14,41.45-22a93.89,93.89,0,0,1,20.44-2.59c15.77,0,19.5,6.05,20.31,9.65,2.16,9.55-10.78,18.71-33.76,23.9A78.74,78.74,0,0,1,484.77,439.79Z"/><path class="i" d="M515.52,408.46c9.59,0,15.48,2.45,16.41,6.53,1.44,6.4-9.84,14.4-30.74,19.12a74.75,74.75,0,0,1-16.42,1.68,118.18,118.18,0,0,1-28.51-3.7S475.06,415.67,496,411a90.28,90.28,0,0,1,19.56-2.49m0-8v0a98.3,98.3,0,0,0-21.33,2.69c-22.61,5.1-42.36,22.19-43.19,22.92l-11.15,9.73,14.25,4a126.18,126.18,0,0,0,30.67,4A83.26,83.26,0,0,0,503,441.92c10.87-2.46,20-5.93,26.32-10,11.14-7.19,11.33-14.78,10.45-18.67-1.08-4.77-5.65-12.77-24.21-12.77Z"/><path class="h" d="M417.93,429.18c-1-.62-24.62-15.37-39.78-34.63-14.19-18-20.06-25.46-18.88-31.15a6.6,6.6,0,0,1,3.48-4.55,10.7,10.7,0,0,1,5.17-1.17c7.63,0,20.47,6,33.64,22.67,15.22,19.34,22.05,43.34,22.33,44.35l2.77,9.89Z"/><path class="i" d="M367.92,361.68c6.39,0,18.17,5.51,30.49,21.15C413.32,401.75,420,425.78,420,425.78S396.2,411,381.29,392.08s-21.37-27.16-16.64-29.71a6.84,6.84,0,0,1,3.27-.69m0-8h0a14.62,14.62,0,0,0-7.07,1.65,10.62,10.62,0,0,0-5.5,7.26C353.8,370.1,359.57,377.43,375,397c15.6,19.8,39.8,34.92,40.83,35.55l17.44,10.82-5.53-19.77c-.29-1.05-7.33-25.8-23-45.75-17.69-22.46-32.62-24.2-36.78-24.2Z"/><path class="j" d="M400.66,438.62c-8.91,0-22.23-.76-35.14-4.41-3.42-1-6.66-1.86-9.7-2.7-20.92-5.76-31.42-8.66-30.59-16.58.68-6.52,10.11-10.9,23.47-10.9a77.46,77.46,0,0,1,21,3.13c23.59,6.67,46.24,22.87,47.2,23.55l8.32,6L415,437.93A132.61,132.61,0,0,1,400.66,438.62Z"/><path class="i" d="M348.7,408a74,74,0,0,1,19.93,3c23.18,6.56,45.94,23,45.94,23a129,129,0,0,1-13.91.67c-9.24,0-21.86-.82-34.05-4.27-23.18-6.55-38-9.67-37.4-15,.37-3.61,7.65-7.31,19.49-7.31m0-8c-15.76,0-26.53,5.68-27.45,14.49-.95,9.12,8.87,13,12.1,14.31,5.2,2.07,12.35,4,21.41,6.54,3.08.85,6.27,1.73,9.68,2.69,13.34,3.77,27.06,4.57,36.22,4.57a135.84,135.84,0,0,0,14.86-.73l20.38-2.43-16.65-12c-1-.7-24.19-17.3-48.45-24.16A81.48,81.48,0,0,0,348.7,400Z"/><path class="h" d="M369.85,488.77a14.78,14.78,0,0,1-12.21-5.71,11.07,11.07,0,0,1-2.54-9.37c1.17-5.69,6.93-11.05,18.65-17.38,18.5-10,44-10.93,45.12-11l7.27-.24-3.7,6.27c-.48.82-12,20-30.61,30.11C382.74,486.38,375.55,488.77,369.85,488.77Z"/><path class="i" d="M419,449.34s-11.19,19-29.07,28.62c-9.13,4.92-15.5,6.81-20.08,6.81a10.73,10.73,0,0,1-9.06-4.18c-4-5-3-11.11,14.86-20.76S419,449.34,419,449.34m14.29-8.47-14.55.47c-1.12,0-27.57,1-46.89,11.45-12.86,6.94-19.23,13.14-20.67,20.09-.63,3.05-.57,7.72,3.32,12.66a18.85,18.85,0,0,0,15.35,7.23c6.38,0,14.19-2.54,23.88-7.77,19.61-10.6,31.66-30.74,32.16-31.6l7.4-12.53Z"/><path class="j" d="M425.44,526.46a13.82,13.82,0,0,1-3.76-.56c-13-3.68-12.84-20.14-11.59-32.21,2.19-21.07,15.58-39,16.15-39.78l4.38-5.81,2.55,6.81c.38,1,9.26,25,7.08,45.89C439,512.75,436.21,526.46,425.44,526.46Z"/><path class="i" d="M429.43,456.32s8.95,23.85,6.85,44.07c-1.79,17.2-5.88,22.07-10.84,22.07a9.86,9.86,0,0,1-2.68-.41c-6.13-1.73-10.79-7.73-8.69-27.94s15.36-37.79,15.36-37.79m2.38-16.44L423,451.5c-.59.79-14.62,19.61-16.93,41.78-1.11,10.73-.53,18.79,1.78,24.66a18.9,18.9,0,0,0,12.7,11.81,17.85,17.85,0,0,0,4.85.71c3.28,0,9.41-1.13,13.6-8.71,2.57-4.63,4.22-11.16,5.19-20.54,2.27-21.83-6.92-46.66-7.31-47.7l-5.11-13.63Z"/><path class="h" d="M493.79,530.67c-6.09,0-12-7.61-23.78-22.76q-2.89-3.74-6.19-7.94c-15.23-19.33-22.05-43.34-22.34-44.35l-2.76-9.88,8.72,5.4c1,.62,24.62,15.37,39.79,34.63C500,502,502.79,516.14,501.3,523.34c-.81,3.91-2.77,5.71-4.28,6.52A6.7,6.7,0,0,1,493.79,530.67Z"/><path class="i" d="M445.34,454.54s23.84,14.78,38.75,33.71,15.76,35.54,11,38.09a2.76,2.76,0,0,1-1.33.33c-4.93,0-13.22-11.9-26.83-29.17-14.9-18.93-21.62-43-21.62-43M432.1,436.93l5.53,19.77c.29,1,7.33,25.79,23.05,45.75,2.19,2.78,4.22,5.39,6.18,7.91,13,16.69,18.88,24.31,26.93,24.31a10.65,10.65,0,0,0,5.13-1.29c2.25-1.22,5.18-3.81,6.3-9.23,2.19-10.58-3.64-26.62-14.85-40.85-15.6-19.81-39.8-34.92-40.82-35.56L432.1,436.93Z"/><path class="h" d="M526,480.16c-5.63,0-14.94-2.63-30.37-7-23.59-6.67-46.24-22.87-47.19-23.56l-8.33-6,10.19-1.22a136.34,136.34,0,0,1,14.39-.69c8.9,0,22.23.77,35.13,4.41,23.7,6.71,35.56,19.26,34.69,27.67C534.34,475.7,533.11,480.16,526,480.16Z"/><path class="i" d="M464.72,445.7c9.23,0,21.86.82,34,4.26,23.19,6.56,32.36,18.06,31.8,23.4-.2,1.94-1.65,2.8-4.53,2.8-5.06,0-14.5-2.66-29.28-6.84-23.18-6.56-45.94-23-45.94-23a130.73,130.73,0,0,1,13.91-.66m0-8v0a137.57,137.57,0,0,0-14.86.72l-20.39,2.43,16.66,12c1,.7,24.18,17.3,48.44,24.16,15.76,4.45,25.27,7.14,31.46,7.14a13.87,13.87,0,0,0,7.45-1.85,10.57,10.57,0,0,0,5-8.12c.6-5.83-2.86-12.28-9.77-18.16s-16.4-10.54-27.81-13.77c-13.34-3.77-27.06-4.56-36.22-4.56Z"/><path class="h" d="M455.72,436.13c-5.41,0-9.11-.36-9.27-.37l-5.78-.57,2.59-5.2c.35-.7,8.77-17.34,24.84-24.55,8.13-3.65,15.87-5.57,22.39-5.57,6.19,0,10.89,1.76,13.59,5.09a9.64,9.64,0,0,1,1.89,8.5c-1.47,6.19-8.52,12.4-19.84,17.48C476.57,435.23,464.32,436.13,455.72,436.13Z"/><path class="i" d="M490.49,403.87c4.9,0,8.58,1.26,10.49,3.61,4.07,5-1.54,13.1-16.49,19.81-9,4-20.79,4.84-28.77,4.84-5.28,0-8.88-.35-8.88-.35s8-16,22.9-22.69c8-3.57,15.15-5.22,20.75-5.22m0-8c-7.08,0-15.39,2.05-24,5.92-17.36,7.79-26.41,25.66-26.78,26.42l-5.17,10.4,11.55,1.13c.16,0,4.06.39,9.66.39,9,0,21.84-1,32-5.54,12.66-5.69,20.3-12.67,22.09-20.21a13.56,13.56,0,0,0-2.67-11.94c-2.43-3-7.3-6.57-16.7-6.57Z"/><path class="j" d="M431.82,426c-.46-.86-11.21-21.27-10.69-38.52.51-16.86,5.87-26.93,14.33-26.93a9.92,9.92,0,0,1,2.83.43c8.61,2.56,13.83,15.69,13.29,33.44s-12.7,31.74-13.21,32.33l-3.82,4.37Z"/><path class="i" d="M435.46,364.52a5.94,5.94,0,0,1,1.69.26c6.2,1.85,10.93,13.11,10.43,29.49s-12.23,29.82-12.23,29.82S424.64,404,425.13,387.57c.45-14.86,4.88-23.05,10.33-23.05m0-8h0c-4.08,0-17.46,2.23-18.32,30.81-.56,18.29,10.67,39.62,11.15,40.52l5.45,10.25,7.64-8.75c.56-.64,13.62-15.82,14.2-34.84.6-19.92-5.59-34.25-16.15-37.4a13.89,13.89,0,0,0-4-.59Z"/><path class="h" d="M425.84,418.9c-.57-.56-13.91-13.95-19.32-27.55-3-7.64-5.93-17.87-2.37-23.19a6.82,6.82,0,0,1,5.74-3.11c7.95,0,15.52,11.95,20,23.14,5.55,13.93,2.84,28.06,2.73,28.66l-1.45,7.33Z"/><path class="i" d="M410,369.05c4.4,0,11,7.69,16.17,20.62s2.51,26.4,2.51,26.4-13.25-13.21-18.43-26.2-4.69-20.77-.29-20.82h0m0-8h-.15a10.83,10.83,0,0,0-9,4.89c-3.64,5.43-3,14.48,2,26.89,5.72,14.36,19.63,28.32,20.22,28.91l10.59,10.55,2.9-14.67c.13-.64,3.05-15.9-2.93-30.91-3.07-7.71-11.53-25.66-23.6-25.66Z"/><path class="h" d="M441.19,421.73c-.06-.65-1.37-16.22,5.56-26.58,5.3-7.93,11.7-12.47,17.55-12.47a10.1,10.1,0,0,1,5.64,1.67c3.4,2.27,5,6.27,4.58,11.27-.39,4.35-2.36,9.29-5.7,14.29C461.88,420.27,447,425,446.36,425.19l-4.72,1.47Z"/><path class="i" d="M464.3,386.68a6,6,0,0,1,3.42,1c4.26,2.84,4,10.7-2.23,20s-20.31,13.68-20.31,13.68-1.33-14.69,4.9-24c4.76-7.12,10.08-10.69,14.22-10.69m0-8h0c-7.21,0-14.82,5.19-20.87,14.24-7.58,11.33-6.38,27.38-6.22,29.17l.89,9.86,9.45-2.94c1.72-.53,17-5.55,24.59-16.88,9.94-14.85,7.17-26.32,0-31.1a14.08,14.08,0,0,0-7.87-2.35Z"/><path class="j" d="M415.67,425.68c-.74-.17-18.3-4.26-32.29-13.62l-.78-.52c-6.65-4.45-11.91-8-15.4-10.84-2.17-1.79-7.94-6.55-4.62-11.51,1-1.53,3.27-3.35,8.19-3.35,6.82,0,15.62,3.28,24.14,9,14,9.36,24.48,24,24.92,24.65l6.06,8.55Z"/><path class="i" d="M370.77,389.84c4.93,0,12.93,2.29,21.92,8.3,13.54,9.06,23.87,23.64,23.87,23.64s-17.42-4-31-13-21.65-14.4-19.69-17.33c.66-1,2.37-1.57,4.86-1.57m0-8h0c-6.68,0-9.95,2.79-11.51,5.12-2.27,3.39-2.18,7.65.23,11.4a24.62,24.62,0,0,0,5.17,5.43c3.64,3,9,6.57,15.72,11.08l.77.52c14.6,9.76,32.86,14,33.63,14.19l20.43,4.68-12.12-17.1c-.46-.65-11.36-15.9-25.95-25.67-9.17-6.13-18.78-9.65-26.37-9.65Z"/><path class="h" d="M388.92,446.93c-16.42,0-25.87-2.84-28.1-8.43a7,7,0,0,1,.81-6.67c3.13-4.68,11.74-7.56,23-7.7h.55c14.52,0,31.56,7.05,32.28,7.35l6.9,2.88-6.22,4.14c-.51.34-12.54,8.23-27.53,8.42Z"/><path class="i" d="M385.22,428.13c13.88,0,30.74,7,30.74,7s-11.38,7.57-25.36,7.75h-1.67c-13.13,0-22.83-2-24.39-5.91-1.63-4.08,6.2-8.71,20.18-8.89h.5m0-8h-.61c-12.79.16-22.38,3.62-26.31,9.48A11.07,11.07,0,0,0,357.11,440c3,7.47,13.08,10.95,31.82,10.95h1.77c16.16-.21,29.15-8.73,29.69-9.09l12.45-8.28L419,427.79c-.74-.31-18.51-7.66-33.82-7.66Z"/><path class="j" d="M407.35,488.25a10.16,10.16,0,0,1-5.72-1.63c-6.75-4.51-6.42-16.89.73-27.58,7-10.5,23.26-14.39,23.94-14.55l4.17-1,.69,4.22c.11.7,2.72,17.19-4.31,27.69C421.64,483.21,414,488.25,407.35,488.25Z"/><path class="i" d="M427.21,448.39s2.54,15.51-3.68,24.81c-4.84,7.23-11.47,11.05-16.18,11.05a6.22,6.22,0,0,1-3.49-.95c-4.26-2.85-4.4-12.73,1.82-22s21.53-12.87,21.53-12.87m6.52-9.74-8.33,2c-1.89.44-18.61,4.62-26.37,16.21-8.38,12.53-8.21,27.39.38,33.14a14.2,14.2,0,0,0,7.94,2.3c7.93,0,16.9-5.73,22.83-14.6,7.76-11.6,5.24-28.65,4.93-30.56l-1.38-8.44Z"/><path class="h" d="M461.6,505.93c-6.22,0-12.64-8.2-19.07-24.36-5.55-13.93-2.85-28.06-2.73-28.65l1.45-7.34,5.3,5.28c.56.56,13.91,13.95,19.32,27.55,4.18,10.49,4.81,19.55,1.67,24.23a7,7,0,0,1-5.85,3.29Z"/><path class="i" d="M443.73,453.69s13.25,13.21,18.43,26.2,3.88,22-.52,22h0c-4.39,0-10.2-8.9-15.36-21.84s-2.51-26.4-2.51-26.4m-5-16.22-2.9,14.67c-.13.64-3.05,15.9,2.93,30.91a89.78,89.78,0,0,0,8.81,17.35c1.62,2.36,6.56,9.53,14,9.53h.14a11.06,11.06,0,0,0,9.13-5.07c3.92-5.86,3.45-16-1.28-27.93-5.72-14.36-19.63-28.32-20.22-28.9l-10.59-10.56Z"/><path class="j" d="M501.53,488c-4.35,0-10.29-3.85-23.29-12.55l-.76-.51c-14-9.36-24.48-24-24.92-24.65l-6.06-8.55,10.22,2.34c.74.17,18.3,4.26,32.29,13.62,8.27,5.53,12.8,10.95,15.15,14.52,3.59,5.46,4.44,10.15,2.4,13.21A5.84,5.84,0,0,1,501.53,488Z"/><path class="i" d="M455.83,448s17.42,4,31,13,18.4,19.26,16.44,22.19a1.89,1.89,0,0,1-1.7.79c-3.4,0-10.78-5-21.83-12.38C466.16,462.56,455.83,448,455.83,448M437.18,435.5l12.12,17.1c.46.65,11.36,15.9,25.95,25.67l.77.51c14.06,9.4,20,13.22,25.51,13.22a9.85,9.85,0,0,0,8.35-4.34c1.74-2.6,3.74-8.35-2.37-17.64-2.56-3.88-7.45-9.74-16.27-15.65-14.6-9.76-32.86-14-33.63-14.19l-20.43-4.68Z"/><path class="j" d="M487.17,445.63c-14.52,0-31.57-7.05-32.28-7.35L448,435.4l6.22-4.14c.51-.34,12.54-8.23,27.53-8.42h1.14c15.05,0,25.47,3.6,27.87,9.64a6.81,6.81,0,0,1-.68,6.48c-3.56,5.33-14.12,6.56-22.35,6.67Z"/><path class="i" d="M482.87,426.84c13.39,0,22.58,3.14,24.17,7.12s-5.39,7.49-19.37,7.67h-.5c-13.88,0-30.74-7-30.74-7s11.38-7.57,25.36-7.75h1.08m0-8v0h-1.18c-16.16.21-29.15,8.73-29.69,9.09l-12.45,8.28L453.34,442c.75.32,18.52,7.66,33.83,7.66h.6c13.37-.17,22-3,25.62-8.44A10.85,10.85,0,0,0,514.47,431c-4.37-11-23.55-12.16-31.59-12.16Z"/><path class="j" d="M444.89,452.48c-5,0-11.09-2.11-16.6-5.79-10.7-7.16-15.55-17.37-11.27-23.76,1.91-2.86,5.34-4.44,9.67-4.44,5,0,11.09,2.11,16.59,5.8,10.7,7.15,15.55,17.37,11.28,23.76C452.65,450.91,449.21,452.48,444.89,452.48Z"/><path class="i" d="M426.69,422.49c4.08,0,9.35,1.77,14.37,5.12,8.53,5.71,13.09,13.86,10.18,18.21-1.2,1.8-3.48,2.66-6.35,2.66-4.09,0-9.36-1.76-14.37-5.11-8.53-5.71-13.09-13.87-10.18-18.22,1.2-1.79,3.48-2.66,6.35-2.66m0-8c-5.7,0-10.32,2.21-13,6.21-3.12,4.67-2.95,10.84.46,16.95A37.61,37.61,0,0,0,426.07,450c6.14,4.12,13,6.47,18.82,6.47s10.32-2.2,13-6.21c3.11-4.66,2.95-10.84-.47-16.95A37.67,37.67,0,0,0,445.51,421c-6.15-4.11-13-6.47-18.82-6.47Z"/><path class="k" d="M195.69,726.92l-120-101.76s152.1-123.49,152.1-481.67l140.11,18C367.93,594.36,195.69,726.92,195.69,726.92Z"/><circle class="l" cx="395.92" cy="785.92" r="104.08"/><path class="m" d="M357.73,847.83l9.75-11a29.66,29.66,0,0,0,22.33,10.72c19.6,0,35.9-15.5,35.9-61.06,0-33.39-10.84-51.51-30.32-51.51-13.32,0-23.64,11.88-23.64,29.78,0,17.7,8.32,28.84,25.15,28.84,8.81,0,19.85-5.29,29.19-19.24l.63,13.85c-8.54,11.41-21.24,18.57-32.76,18.57-23.54,0-38.74-14.13-38.74-42,0-26,18.34-43.58,40.13-43.58,26.79,0,46.9,21.7,46.9,65.31,0,54.64-24.69,75.65-51.77,75.65A43.08,43.08,0,0,1,357.73,847.83Z"/></svg>