<?xml version="1.0" encoding="utf-8"?>
<!-- Generator: Adobe Illustrator 23.1.1, SVG Export Plug-In . SVG Version: 6.00 Build 0)  -->
<svg version="1.1" id="Layer_1" xmlns="http://www.w3.org/2000/svg" xmlns:xlink="http://www.w3.org/1999/xlink" x="0px" y="0px"
	 viewBox="0 0 182.3 255.7" style="enable-background:new 0 0 182.3 255.7;" xml:space="preserve">
<style type="text/css">
	.st0{fill:#BD645D;}
	.st1{clip-path:url(#SVGID_2_);}
	.st2{fill:none;stroke:#E0BD88;}
	.st3{fill:#E0BD88;stroke:#E0BD88;}
	.st4{fill:none;}
	.st5{clip-path:url(#SVGID_4_);}
	.st6{clip-path:url(#SVGID_6_);}
	.st7{clip-path:url(#SVGID_8_);}
	.st8{clip-path:url(#SVGID_10_);}
	.st9{clip-path:url(#SVGID_12_);}
	.st10{fill:#FFFFFF;}
	.st11{fill:none;stroke:#020202;}
	.st12{fill:#76CFE7;stroke:#020202;}
	.st13{fill:none;stroke:#020202;stroke-width:0.75;stroke-linecap:square;stroke-miterlimit:1;}
</style>
<g>
	<rect y="47.9" class="st0" width="182.3" height="182.3"/>
</g>
<g id="Layer_4">
	<g>
		<g>
			<defs>
				<rect id="SVGID_1_" y="47.9" width="182.3" height="182.3"/>
			</defs>
			<clipPath id="SVGID_2_">
				<use xlink:href="#SVGID_1_"  style="overflow:visible;"/>
			</clipPath>
			<g class="st1">
				<path class="st2" d="M16.2,193.1c0,11.9-4,17.3-4,17.3s-4-5.5-4-17.3c0-2.2,1.8-7.1,4-7.1C14.4,186,16.2,190.9,16.2,193.1z"/>
				<path class="st2" d="M-1,196.9c8.4,8.4,9.4,15.1,9.4,15.1s-6.7-1-15.1-9.4c-1.6-1.6-3.7-6.3-2.1-7.8
					C-7.3,193.2-2.6,195.3-1,196.9z"/>
				<path class="st2" d="M-10.6,211.8c11.9,0,17.3,4,17.3,4s-5.4,4-17.3,4c-2.2,0-7.1-1.8-7.1-4S-12.8,211.8-10.6,211.8z"/>
				<path class="st2" d="M-6.7,229.1c8.4-8.4,15.1-9.4,15.1-9.4s-1,6.7-9.4,15.1c-1.6,1.6-6.3,3.7-7.8,2.1
					C-10.4,235.4-8.3,230.6-6.7,229.1z"/>
				<path class="st2" d="M8.2,238.6c0-11.9,4-17.3,4-17.3s4,5.5,4,17.3c0,2.2-1.8,7.1-4,7.1S8.2,240.8,8.2,238.6z"/>
				<path class="st2" d="M25.5,234.8c-8.4-8.4-9.4-15.1-9.4-15.1s6.7,1,15.1,9.4c1.6,1.6,3.7,6.3,2.1,7.8S27,236.3,25.5,234.8z"/>
				<path class="st2" d="M35,219.9c-11.9,0-17.3-4-17.3-4s5.5-4,17.3-4c2.2,0,7.1,1.8,7.1,4S37.2,219.9,35,219.9z"/>
				<path class="st2" d="M31.2,202.6c-8.4,8.4-15.1,9.4-15.1,9.4s1-6.7,9.4-15.1c1.6-1.6,6.3-3.7,7.8-2.1S32.7,201,31.2,202.6z"/>
				<path class="st3" d="M7.2,193.3c4.6,11,2.9,17.6,2.9,17.6s-5.8-3.5-10.4-14.5c-0.9-2-1-7.2,1-8.1S6.4,191.2,7.2,193.3z"/>
				<path class="st3" d="M-7.3,203.4c11,4.5,14.5,10.4,14.5,10.4s-6.6,1.6-17.6-2.9c-2.1-0.9-5.8-4.4-5-6.4S-9.3,202.6-7.3,203.4z"
					/>
				<path class="st3" d="M-10.4,220.8c11-4.5,17.6-2.9,17.6-2.9s-3.5,5.8-14.5,10.4c-2.1,0.9-7.2,1-8.1-1S-12.4,221.7-10.4,220.8z"
					/>
				<path class="st3" d="M-0.2,235.3c4.6-11,10.4-14.5,10.4-14.5s1.6,6.6-2.9,17.6c-0.9,2-4.4,5.8-6.4,5S-1.1,237.4-0.2,235.3z"/>
				<path class="st3" d="M17.2,238.4c-4.6-11-2.9-17.6-2.9-17.6s5.8,3.5,10.4,14.5c0.9,2,1,7.2-1,8.1S18.1,240.4,17.2,238.4z"/>
				<path class="st3" d="M31.7,228.3c-11-4.5-14.5-10.4-14.5-10.4s6.6-1.6,17.6,2.9c2,0.9,5.8,4.4,5,6.4S33.8,229.1,31.7,228.3z"/>
				<path class="st3" d="M34.8,210.8c-11,4.5-17.6,2.9-17.6,2.9s3.5-5.8,14.5-10.4c2-0.9,7.2-1,8.1,1
					C40.6,206.5,36.8,210,34.8,210.8z"/>
				<path class="st3" d="M24.7,196.3c-4.5,11-10.4,14.5-10.4,14.5s-1.6-6.6,2.9-17.6c0.9-2,4.4-5.8,6.4-5
					C25.7,189.1,25.5,194.3,24.7,196.3z"/>
				<path class="st4" d="M12.2,215.8"/>
			</g>
		</g>
		<g>
			<defs>
				<rect id="SVGID_3_" y="47.9" width="182.3" height="182.3"/>
			</defs>
			<clipPath id="SVGID_4_">
				<use xlink:href="#SVGID_3_"  style="overflow:visible;"/>
			</clipPath>
			<g class="st5">
				<path class="st2" d="M8.6,149.7c0,7.6-2.6,11.1-2.6,11.1s-2.6-3.5-2.6-11.1c0-1.4,1.1-4.5,2.6-4.5S8.6,148.3,8.6,149.7z"/>
				<path class="st2" d="M-2.4,152.2c5.4,5.4,6,9.6,6,9.6s-4.3-0.6-9.6-6c-1-1-2.4-4-1.4-5S-3.4,151.2-2.4,152.2z"/>
				<path class="st2" d="M-8.5,161.7c7.6,0,11.1,2.6,11.1,2.6s-3.5,2.6-11.1,2.6c-1.4,0-4.5-1.1-4.5-2.6
					C-13,162.9-9.9,161.7-8.5,161.7z"/>
				<path class="st2" d="M-6.1,172.8c5.4-5.4,9.6-6,9.6-6s-0.6,4.3-6,9.6c-1,1-4,2.4-5,1.4S-7.1,173.7-6.1,172.8z"/>
				<path class="st2" d="M3.5,178.8c0-7.6,2.6-11.1,2.6-11.1s2.6,3.5,2.6,11.1c0,1.4-1.1,4.5-2.6,4.5C4.6,183.3,3.5,180.2,3.5,178.8
					z"/>
				<path class="st2" d="M14.5,176.4c-5.4-5.4-6-9.6-6-9.6s4.3,0.6,9.6,6c1,1,2.4,4,1.4,5C18.5,178.8,15.5,177.4,14.5,176.4z"/>
				<path class="st2" d="M20.6,166.9c-7.6,0-11.1-2.6-11.1-2.6s3.5-2.6,11.1-2.6c1.4,0,4.5,1.1,4.5,2.6
					C25.1,165.7,22,166.9,20.6,166.9z"/>
				<path class="st2" d="M18.1,155.8c-5.4,5.4-9.6,6-9.6,6s0.6-4.3,6-9.6c1-1,4-2.4,5-1.4S19.1,154.8,18.1,155.8z"/>
				<path class="st3" d="M2.9,149.9c2.9,7,1.9,11.2,1.9,11.2s-3.7-2.2-6.6-9.2c-0.5-1.3-0.7-4.6,0.6-5.1
					C0.1,146.1,2.3,148.6,2.9,149.9z"/>
				<path class="st3" d="M-6.4,156.3c7,2.9,9.2,6.6,9.2,6.6s-4.2,1-11.2-1.9c-1.3-0.5-3.7-2.8-3.2-4.1
					C-11,155.7-7.7,155.8-6.4,156.3z"/>
				<path class="st3" d="M-8.4,167.5c7-2.9,11.2-1.9,11.2-1.9s-2.2,3.7-9.2,6.6c-1.3,0.5-4.6,0.7-5.1-0.6
					C-12.1,170.3-9.7,168-8.4,167.5z"/>
				<path class="st3" d="M-1.9,176.7c2.9-7,6.6-9.2,6.6-9.2s1,4.2-1.9,11.2c-0.5,1.3-2.8,3.7-4.1,3.2S-2.4,178-1.9,176.7z"/>
				<path class="st3" d="M9.2,178.7c-2.9-7-1.9-11.2-1.9-11.2s3.7,2.2,6.6,9.2c0.5,1.3,0.7,4.6-0.6,5.1C12,182.4,9.8,180,9.2,178.7z
					"/>
				<path class="st3" d="M18.5,172.2c-7-2.9-9.2-6.6-9.2-6.6s4.2-1,11.2,1.9c1.3,0.5,3.7,2.8,3.2,4.1
					C23.1,172.9,19.8,172.8,18.5,172.2z"/>
				<path class="st3" d="M20.5,161.1c-7,2.9-11.2,1.9-11.2,1.9s2.2-3.7,9.2-6.6c1.3-0.5,4.6-0.7,5.1,0.6
					C24.2,158.3,21.8,160.6,20.5,161.1z"/>
				<path class="st3" d="M14,151.8c-2.9,7-6.6,9.2-6.6,9.2s-1-4.2,1.9-11.2c0.5-1.3,2.8-3.7,4.1-3.2S14.5,150.5,14,151.8z"/>
				<path class="st4" d="M6,164.3"/>
			</g>
		</g>
		<g>
			<defs>
				<rect id="SVGID_5_" y="47.9" width="182.3" height="182.3"/>
			</defs>
			<clipPath id="SVGID_6_">
				<use xlink:href="#SVGID_5_"  style="overflow:visible;"/>
			</clipPath>
			<g class="st6">
				<path class="st2" d="M169.2,41.3c0,7.6-2.6,11.1-2.6,11.1s-2.6-3.5-2.6-11.1c0-1.4,1.1-4.5,2.6-4.5S169.2,39.9,169.2,41.3z"/>
				<path class="st2" d="M158.1,43.7c5.4,5.4,6,9.6,6,9.6s-4.3-0.6-9.6-6c-1-1-2.4-4-1.4-5S157.2,42.7,158.1,43.7z"/>
				<path class="st2" d="M152.1,53.2c7.6,0,11.1,2.6,11.1,2.6s-3.5,2.6-11.1,2.6c-1.4,0-4.5-1.1-4.5-2.6
					C147.6,54.4,150.7,53.2,152.1,53.2z"/>
				<path class="st2" d="M154.5,64.3c5.4-5.4,9.6-6,9.6-6s-0.6,4.3-6,9.6c-1,1-4,2.4-5,1.4S153.5,65.3,154.5,64.3z"/>
				<path class="st2" d="M164,70.4c0-7.6,2.6-11.1,2.6-11.1s2.6,3.5,2.6,11.1c0,1.4-1.1,4.5-2.6,4.5C165.2,74.9,164,71.8,164,70.4z"
					/>
				<path class="st2" d="M175.1,67.9c-5.4-5.4-6-9.6-6-9.6s4.3,0.6,9.6,6c1,1,2.4,4,1.4,5S176.1,68.9,175.1,67.9z"/>
				<path class="st2" d="M181.2,58.4c-7.6,0-11.1-2.6-11.1-2.6s3.5-2.6,11.1-2.6c1.4,0,4.5,1.1,4.5,2.6S182.6,58.4,181.2,58.4z"/>
				<path class="st2" d="M178.7,47.4c-5.4,5.4-9.6,6-9.6,6s0.6-4.3,6-9.6c1-1,4-2.4,5-1.4S179.7,46.4,178.7,47.4z"/>
				<path class="st3" d="M163.4,41.4c2.9,7,1.9,11.2,1.9,11.2s-3.7-2.2-6.6-9.2c-0.5-1.3-0.7-4.6,0.6-5.1
					C160.6,37.7,162.9,40.1,163.4,41.4z"/>
				<path class="st3" d="M154.2,47.9c7,2.9,9.2,6.6,9.2,6.6s-4.2,1-11.2-1.9c-1.3-0.5-3.7-2.8-3.2-4.1
					C149.6,47.2,152.9,47.3,154.2,47.9z"/>
				<path class="st3" d="M152.2,59c7-2.9,11.2-1.9,11.2-1.9s-2.2,3.7-9.2,6.6c-1.3,0.5-4.6,0.7-5.1-0.6
					C148.5,61.8,150.9,59.5,152.2,59z"/>
				<path class="st3" d="M158.7,68.3c2.9-7,6.6-9.2,6.6-9.2s1,4.2-1.9,11.2c-0.5,1.3-2.8,3.7-4.1,3.2
					C158,72.9,158.1,69.6,158.7,68.3z"/>
				<path class="st3" d="M169.8,70.2c-2.9-7-1.9-11.2-1.9-11.2s3.7,2.2,6.6,9.2c0.5,1.3,0.7,4.6-0.6,5.1S170.4,71.5,169.8,70.2z"/>
				<path class="st3" d="M179.1,63.8c-7-2.9-9.2-6.6-9.2-6.6s4.2-1,11.2,1.9c1.3,0.5,3.7,2.8,3.2,4.1
					C183.7,64.4,180.4,64.3,179.1,63.8z"/>
				<path class="st3" d="M181,52.6c-7,2.9-11.2,1.9-11.2,1.9s2.2-3.7,9.2-6.6c1.3-0.5,4.6-0.7,5.1,0.6
					C184.8,49.8,182.3,52.1,181,52.6z"/>
				<path class="st3" d="M174.6,43.4c-2.9,7-6.6,9.2-6.6,9.2s-1-4.2,1.9-11.2c0.5-1.3,2.8-3.7,4.1-3.2
					C175.2,38.8,175.1,42.1,174.6,43.4z"/>
				<path class="st4" d="M166.6,55.8"/>
			</g>
		</g>
		<g>
			<defs>
				<rect id="SVGID_7_" y="47.9" width="182.3" height="182.3"/>
			</defs>
			<clipPath id="SVGID_8_">
				<use xlink:href="#SVGID_7_"  style="overflow:visible;"/>
			</clipPath>
			<g class="st7">
				<path class="st2" d="M174.2,89.1c0,11.9-4,17.3-4,17.3s-4-5.5-4-17.3c0-2.2,1.8-7.1,4-7.1S174.2,86.9,174.2,89.1z"/>
				<path class="st2" d="M157,92.9c8.4,8.4,9.4,15.1,9.4,15.1s-6.7-1-15.1-9.4c-1.6-1.6-3.7-6.3-2.1-7.8
					C150.7,89.2,155.4,91.3,157,92.9z"/>
				<path class="st2" d="M147.4,107.8c11.9,0,17.3,4,17.3,4s-5.5,4-17.3,4c-2.2,0-7.1-1.8-7.1-4S145.2,107.8,147.4,107.8z"/>
				<path class="st2" d="M151.3,125.1c8.4-8.4,15.1-9.4,15.1-9.4s-1,6.7-9.4,15.1c-1.6,1.6-6.3,3.7-7.8,2.1
					C147.5,131.4,149.7,126.6,151.3,125.1z"/>
				<path class="st2" d="M166.2,134.6c0-11.9,4-17.3,4-17.3s4,5.5,4,17.3c0,2.2-1.8,7.1-4,7.1S166.2,136.8,166.2,134.6z"/>
				<path class="st2" d="M183.5,130.8c-8.4-8.4-9.4-15.1-9.4-15.1s6.7,1,15.1,9.4c1.6,1.6,3.7,6.3,2.1,7.8S185,132.3,183.5,130.8z"
					/>
				<path class="st2" d="M193,115.9c-11.9,0-17.3-4-17.3-4s5.5-4,17.3-4c2.2,0,7.1,1.8,7.1,4S195.2,115.9,193,115.9z"/>
				<path class="st2" d="M189.2,98.6c-8.4,8.4-15.1,9.4-15.1,9.4s1-6.7,9.4-15.1c1.6-1.6,6.3-3.7,7.8-2.1S190.7,97,189.2,98.6z"/>
				<path class="st3" d="M165.2,89.3c4.5,11,2.9,17.6,2.9,17.6s-5.8-3.5-10.4-14.5c-0.9-2-1-7.2,1-8.1S164.4,87.2,165.2,89.3z"/>
				<path class="st3" d="M150.7,99.4c11,4.5,14.5,10.4,14.5,10.4s-6.6,1.6-17.6-2.9c-2-0.9-5.8-4.4-5-6.4S148.7,98.6,150.7,99.4z"/>
				<path class="st3" d="M147.6,116.8c11-4.5,17.6-2.9,17.6-2.9s-3.5,5.8-14.5,10.4c-2,0.9-7.2,1-8.1-1
					C141.8,121.2,145.6,117.7,147.6,116.8z"/>
				<path class="st3" d="M157.8,131.3c4.5-11,10.4-14.5,10.4-14.5s1.6,6.6-2.9,17.6c-0.9,2-4.4,5.8-6.4,5
					C156.8,138.6,157,133.4,157.8,131.3z"/>
				<path class="st3" d="M175.2,134.4c-4.5-11-2.9-17.6-2.9-17.6s5.8,3.5,10.4,14.5c0.9,2,1,7.2-1,8.1S176.1,136.4,175.2,134.4z"/>
				<path class="st3" d="M189.7,124.3c-11-4.5-14.5-10.4-14.5-10.4s6.6-1.6,17.6,2.9c2,0.9,5.8,4.4,5,6.4S191.8,125.1,189.7,124.3z"
					/>
				<path class="st3" d="M192.8,106.8c-11,4.5-17.6,2.9-17.6,2.9s3.5-5.8,14.5-10.4c2-0.9,7.2-1,8.1,1
					C198.6,102.5,194.8,106,192.8,106.8z"/>
				<path class="st3" d="M182.7,92.3c-4.5,11-10.4,14.5-10.4,14.5s-1.6-6.6,2.9-17.6c0.9-2,4.4-5.8,6.4-5
					C183.7,85.1,183.5,90.3,182.7,92.3z"/>
				<path class="st4" d="M170.2,111.8"/>
			</g>
		</g>
		<g>
			<defs>
				<rect id="SVGID_9_" y="47.9" width="182.3" height="182.3"/>
			</defs>
			<clipPath id="SVGID_10_">
				<use xlink:href="#SVGID_9_"  style="overflow:visible;"/>
			</clipPath>
			<g class="st8">
				<path class="st2" d="M44.7,165.7c0,5.4-1.8,7.9-1.8,7.9s-1.8-2.5-1.8-7.9c0-1,0.8-3.2,1.8-3.2S44.7,164.7,44.7,165.7z"/>
				<path class="st2" d="M36.8,167.4c3.8,3.8,4.3,6.9,4.3,6.9s-3.1-0.5-6.9-4.3c-0.7-0.7-1.7-2.9-1-3.6S36.1,166.7,36.8,167.4z"/>
				<path class="st2" d="M32.5,174.2c5.4,0,7.9,1.8,7.9,1.8s-2.5,1.8-7.9,1.8c-1,0-3.2-0.8-3.2-1.8S31.5,174.2,32.5,174.2z"/>
				<path class="st2" d="M34.2,182.1c3.8-3.8,6.9-4.3,6.9-4.3s-0.5,3.1-4.3,6.9c-0.7,0.7-2.9,1.7-3.6,1S33.5,182.8,34.2,182.1z"/>
				<path class="st2" d="M41.1,186.5c0-5.4,1.8-7.9,1.8-7.9s1.8,2.5,1.8,7.9c0,1-0.8,3.2-1.8,3.2S41.1,187.5,41.1,186.5z"/>
				<path class="st2" d="M49,184.7c-3.8-3.8-4.3-6.9-4.3-6.9s3.1,0.5,6.9,4.3c0.7,0.7,1.7,2.9,1,3.6S49.7,185.4,49,184.7z"/>
				<path class="st2" d="M53.3,177.9c-5.4,0-7.9-1.8-7.9-1.8s2.5-1.8,7.9-1.8c1,0,3.2,0.8,3.2,1.8S54.3,177.9,53.3,177.9z"/>
				<path class="st2" d="M51.5,170c-3.8,3.8-6.9,4.3-6.9,4.3s0.5-3.1,4.3-6.9c0.7-0.7,2.9-1.7,3.6-1S52.3,169.3,51.5,170z"/>
				<path class="st3" d="M40.6,165.8c2.1,5,1.3,8,1.3,8s-2.6-1.6-4.7-6.6c-0.4-0.9-0.5-3.3,0.5-3.7
					C38.6,163.1,40.2,164.8,40.6,165.8z"/>
				<path class="st3" d="M34,170.4c5,2.1,6.6,4.7,6.6,4.7s-3,0.8-8-1.3c-0.9-0.4-2.7-2-2.3-2.9C30.7,169.9,33.1,170,34,170.4z"/>
				<path class="st3" d="M32.6,178.4c5-2.1,8-1.3,8-1.3s-1.6,2.6-6.6,4.7c-0.9,0.4-3.3,0.5-3.7-0.5
					C29.9,180.3,31.7,178.7,32.6,178.4z"/>
				<path class="st3" d="M37.2,185c2.1-5,4.7-6.6,4.7-6.6s0.8,3-1.3,8c-0.4,0.9-2,2.7-2.9,2.3C36.8,188.3,36.8,185.9,37.2,185z"/>
				<path class="st3" d="M45.2,186.4c-2.1-5-1.3-8-1.3-8s2.6,1.6,4.7,6.6c0.4,0.9,0.5,3.3-0.5,3.7C47.2,189,45.6,187.3,45.2,186.4z"
					/>
				<path class="st3" d="M51.8,181.7c-5-2.1-6.6-4.7-6.6-4.7s3-0.8,8,1.3c0.9,0.4,2.7,2,2.3,2.9C55.1,182.2,52.7,182.1,51.8,181.7z"
					/>
				<path class="st3" d="M53.2,173.8c-5,2.1-8,1.3-8,1.3s1.6-2.6,6.6-4.7c0.9-0.4,3.3-0.5,3.7,0.5C55.9,171.8,54.1,173.4,53.2,173.8
					z"/>
				<path class="st3" d="M48.6,167.2c-2.1,5-4.7,6.6-4.7,6.6s-0.8-3,1.3-8c0.4-0.9,2-2.7,2.9-2.3C49,163.9,49,166.2,48.6,167.2z"/>
				<path class="st4" d="M42.9,176.1"/>
			</g>
		</g>
		<g>
			<defs>
				<rect id="SVGID_11_" y="47.9" width="182.3" height="182.3"/>
			</defs>
			<clipPath id="SVGID_12_">
				<use xlink:href="#SVGID_11_"  style="overflow:visible;"/>
			</clipPath>
			<g class="st9">
				<path class="st2" d="M138.6,65.4c0,6-2,8.7-2,8.7s-2-2.7-2-8.7c0-1.1,0.9-3.5,2-3.5S138.6,64.3,138.6,65.4z"/>
				<path class="st2" d="M129.9,67.4c4.2,4.2,4.7,7.6,4.7,7.6s-3.4-0.5-7.6-4.7c-0.8-0.8-1.9-3.1-1.1-3.9
					C126.8,65.5,129.1,66.6,129.9,67.4z"/>
				<path class="st2" d="M125.1,74.9c6,0,8.7,2,8.7,2s-2.7,2-8.7,2c-1.1,0-3.5-0.9-3.5-2C121.6,75.8,124,74.9,125.1,74.9z"/>
				<path class="st2" d="M127,83.5c4.2-4.2,7.6-4.7,7.6-4.7s-0.5,3.4-4.7,7.6c-0.8,0.8-3.1,1.9-3.9,1.1
					C125.2,86.7,126.3,84.3,127,83.5z"/>
				<path class="st2" d="M134.5,88.3c0-6,2-8.7,2-8.7s2,2.7,2,8.7c0,1.1-0.9,3.5-2,3.5S134.5,89.4,134.5,88.3z"/>
				<path class="st2" d="M143.2,86.4c-4.2-4.2-4.7-7.6-4.7-7.6s3.4,0.5,7.6,4.7c0.8,0.8,1.9,3.1,1.1,3.9
					C146.4,88.2,144,87.2,143.2,86.4z"/>
				<path class="st2" d="M148,78.9c-6,0-8.7-2-8.7-2s2.7-2,8.7-2c1.1,0,3.5,0.9,3.5,2C151.5,78,149.1,78.9,148,78.9z"/>
				<path class="st2" d="M146.1,70.2c-4.2,4.2-7.6,4.7-7.6,4.7s0.5-3.4,4.7-7.6c0.8-0.8,3.1-1.9,3.9-1.1
					C147.9,67.1,146.8,69.4,146.1,70.2z"/>
				<path class="st3" d="M134,65.5c2.3,5.5,1.5,8.8,1.5,8.8s-2.9-1.8-5.2-7.3c-0.4-1-0.5-3.6,0.5-4C131.9,62.6,133.6,64.5,134,65.5z
					"/>
				<path class="st3" d="M126.8,70.6c5.5,2.3,7.3,5.2,7.3,5.2s-3.3,0.8-8.8-1.5c-1-0.4-2.9-2.2-2.5-3.2
					C123.1,70.1,125.8,70.2,126.8,70.6z"/>
				<path class="st3" d="M125.2,79.4c5.5-2.3,8.8-1.5,8.8-1.5s-1.8,2.9-7.3,5.2c-1,0.4-3.6,0.5-4-0.5
					C122.3,81.6,124.2,79.8,125.2,79.4z"/>
				<path class="st3" d="M130.3,86.7c2.3-5.5,5.2-7.3,5.2-7.3s0.8,3.3-1.5,8.8c-0.4,1-2.2,2.9-3.2,2.5
					C129.8,90.3,129.9,87.7,130.3,86.7z"/>
				<path class="st3" d="M139.1,88.2c-2.3-5.5-1.5-8.8-1.5-8.8s2.9,1.8,5.2,7.3c0.4,1,0.5,3.6-0.5,4
					C141.2,91.1,139.5,89.2,139.1,88.2z"/>
				<path class="st3" d="M146.3,83.1c-5.5-2.3-7.3-5.2-7.3-5.2s3.3-0.8,8.8,1.5c1,0.4,2.9,2.2,2.5,3.2
					C150,83.6,147.4,83.5,146.3,83.1z"/>
				<path class="st3" d="M147.9,74.4c-5.5,2.3-8.8,1.5-8.8,1.5s1.8-2.9,7.3-5.2c1-0.4,3.6-0.5,4,0.5
					C150.8,72.2,148.9,73.9,147.9,74.4z"/>
				<path class="st3" d="M142.8,67.1c-2.3,5.5-5.2,7.3-5.2,7.3s-0.8-3.3,1.5-8.8c0.4-1,2.2-2.9,3.2-2.5
					C143.3,63.5,143.2,66.1,142.8,67.1z"/>
				<path class="st4" d="M136.5,76.9"/>
			</g>
		</g>
	</g>
</g>
<g id="Layer_3">
	<path class="st10" d="M52.3,132.6L47,97.2l-23.4,20.5l2,22.2l15.2,13C41.2,151.7,44.8,143,52.3,132.6L52.3,132.6L52.3,132.6z"/>
	<path class="st11" d="M53.3,139"/>
	<path class="st10" d="M61.8,195.2l-8.5-56c-7.6,10.7-11,19.4-11,19.4L61.8,195.2z"/>
	<path class="st12" d="M23.5,117.7"/>
	<path class="st12" d="M23.2,113.9"/>
	<path class="st12" d="M40.8,152.9"/>
	<polygon class="st10" points="10,125.4 44.1,95.5 44.1,83.6 	"/>
	<path class="st13" d="M23.5,117.7"/>
	<polygon class="st10" points="56,79.1 46.2,76.9 23.6,106.5 44.1,81.4 	"/>
	<path class="st10" d="M14.8,18.9l7.7,87.2l23.3-31.3l5.4,1.2l-8.9-16.6l13,17.6l5,1.1c0,0,5.4,12.3,9.5,19.2
		c2.9,4.7,6.4,8.3,8.3,10c1.4-1,2.9-1.9,4.4-2.8c2.8-1.6,15.4,0.7,21.6,2.1l2.6-29.8L14.8,18.9z"/>
	<path class="st10" d="M69.6,141.6c0.6-2,5.5-9.4,8-13.1L59.8,79.8L45,82.7l21.8,70.9C67.6,149.1,68.6,144.8,69.6,141.6z"/>
	<g>
		<path class="st10" d="M112.8,101.7c0,3.4,1.4,6.6,3.5,9.4c7.4,3.5,12,7.1,12,7.1l2.4,2.6L113.1,0l-0.6,9.4L112.8,101.7z"/>
		<path class="st10" d="M109.5,97c0.9-16.3,1.9-53.8,2.5-78.2l-5.2,88.5c0.1,0,0.3,0.1,0.4,0.1C108.2,103.9,109.3,99.9,109.5,97z"/>
	</g>
	<path class="st10" d="M71.3,181.6c1-2.6,5.7-9.8,5.7-9.8s20.7-13.7,28.2-17c7-3,29.2-8.5,29.2-8.5s13.2,2.1,17.7,3.1l-22.8-25
		c0,0-8.4-6.5-20.7-10.7c-1.2-0.4-21.3-5-24.9-2.9c-3.4,2-6.6,4.1-9.5,6.4l4.5,9.7l2.2-0.7c0,0-8.6,12.5-9.4,15.3
		c-3,10.1-6,29.3-6,37c0,4.5,1.4,15,2.2,21.1C68.5,194.4,69.9,185.3,71.3,181.6z"/>
	<path class="st10" d="M169.3,157.4c0,0-10.8-3-14.4-3.8c-4.4-1-17.9-3.1-17.9-3.1s-7.4,1.8-15,3.9c-1.3,1-2.7,2-3.7,2.7
		c-1.2,0.9-4.8,4.5-4.8,4.5s12.7,18.9,16.5,25.5c6.5,11.5,23.7,47.4,23.7,47.4s-20.3-33.7-27.9-44.5c-4.5-6.5-19.5-24.9-19.5-24.9
		s-5.2,0.6-8,1.4c-1.8,0.5-5,1.5-7.9,2.4c-5.9,3.7-10.7,6.9-10.7,6.9s-4.7,7.1-5.7,9.8c-1.9,5.3-4,22.1-4,22.1l102.9,47.9
		L169.3,157.4z"/>
</g>
</svg>
