<svg xmlns="http://www.w3.org/2000/svg" width="510" height="900" viewBox="0 0 510 900"><defs><style>.a{fill:#59624a;}.b{fill:#432d1e;}.c,.d{fill:#927ba0;}.d,.e{stroke:#432d1e;stroke-miterlimit:10;}.d{stroke-width:7px;}.e{fill:none;stroke-linecap:round;stroke-width:5px;}</style></defs><title>help</title><path class="a" d="M349.94,254.45a42.12,42.12,0,0,1-8.41-1.18,51,51,0,0,0-7.54-1.19l-.94,0a47.62,47.62,0,0,0-5.08.38,58.23,58.23,0,0,1-6.32.44,23.12,23.12,0,0,1-6.15-.76c-3.83-1.06-7.05-3.44-10.15-5.75a49.5,49.5,0,0,0-5.71-3.83,39.37,39.37,0,0,0-5.56-2.27c-3.61-1.27-7.71-2.72-11.13-5.68-2.86-2.47-4.15-5.88-5.29-8.88a26.38,26.38,0,0,0-1.83-4.13,27.81,27.81,0,0,0-2.93-3.73c-2.09-2.38-4.46-5.08-5.29-8.63s.11-7.05.93-10.12a26.92,26.92,0,0,0,1-4.59,27.66,27.66,0,0,0-.2-4.61c-.3-3.18-.65-6.79.8-10.21s4.15-5.55,6.6-7.53a28.26,28.26,0,0,0,3.59-3.25,28.22,28.22,0,0,0,2.7-4c1.61-2.7,3.43-5.77,6.5-7.62s6.8-2.1,10-2.26a26.87,26.87,0,0,0,4.59-.46,28,28,0,0,0,4.4-1.63c2.63-1.14,5.61-2.42,8.86-2.42.34,0,.68,0,1,0,3.63.3,6.64,2.26,9.3,4a29.34,29.34,0,0,0,4.11,2.37,27.69,27.69,0,0,0,4.36,1.21c3.14.69,6.69,1.48,9.55,3.95,3.42,3,5.44,6.81,7.23,10.2a39.36,39.36,0,0,0,3,5.18,48.74,48.74,0,0,0,4.62,5.08c2.73,2.74,5.55,5.58,7.15,9.22,1.81,4.12,2,8.46,2.11,12.3a38.54,38.54,0,0,0,.52,6,50.77,50.77,0,0,0,2.26,7.29c1.3,3.58,2.54,7,2.56,10.48,0,2,.08,3.55.13,4.83.26,6.49-.07,8-5.22,13.92s-6.57,6.51-13,7.18c-1.27.14-2.86.3-4.8.57A17.13,17.13,0,0,1,349.94,254.45Z"/><path class="b" d="M317.35,154c.25,0,.49,0,.73,0,4.45.37,8.14,4.31,12.34,6.08s9.47,1.56,13,4.59c4.71,4.07,6.46,10.41,9.75,14.82,3.7,5,9.15,8.56,11.37,13.62,2.5,5.69,1.33,12.23,2.41,17.58,1.29,6.36,4.72,12,4.75,17.11.08,10.43,1.49,9.81-4.24,16.44s-5.32,5.14-15.66,6.57a13.87,13.87,0,0,1-1.84.12c-4.66,0-10.05-2-15.76-2.36-.37,0-.75,0-1.13,0-3.58,0-7.49.82-11.4.82a19.29,19.29,0,0,1-5.22-.64c-5.33-1.46-9.68-6.34-15.12-9.28-4.84-2.62-11.36-3.44-16.07-7.52-3.51-3-4.14-8.41-6.41-12.17s-6.79-7-7.81-11.34,1.61-9.13,2-13.62-1.44-9.57.33-13.76,6.59-6.35,9.62-9.85,4.6-8.67,8.36-10.94,9.22-1.31,13.57-2.32c4.15-1,8.23-3.95,12.46-3.95m0-7h0c-4,0-7.45,1.5-10.25,2.7a25.75,25.75,0,0,1-3.8,1.44,27,27,0,0,1-4,.38c-3.43.17-7.69.38-11.63,2.76s-6,5.92-7.7,8.82a26.67,26.67,0,0,1-2.33,3.53,26.57,26.57,0,0,1-3.16,2.82c-2.62,2.13-5.89,4.78-7.62,8.89s-1.38,8.49-1.05,11.91a25.31,25.31,0,0,1,.19,4,25.21,25.21,0,0,1-.87,4c-.88,3.3-2,7.4-1,11.83s3.81,7.58,6.06,10.14a26.47,26.47,0,0,1,2.57,3.23,25.15,25.15,0,0,1,1.55,3.56c1.22,3.23,2.74,7.24,6.27,10.29,3.92,3.39,8.35,4.95,12.26,6.33a38.34,38.34,0,0,1,5.06,2.05,45.1,45.1,0,0,1,5.28,3.57c3.21,2.38,6.84,5.07,11.31,6.3a26.29,26.29,0,0,0,7.08.89,61.89,61.89,0,0,0,6.7-.46,45,45,0,0,1,4.7-.36c.25,0,.5,0,.74,0a47.72,47.72,0,0,1,7,1.11,44.54,44.54,0,0,0,9.12,1.26,21,21,0,0,0,2.8-.19c1.89-.26,3.37-.42,4.68-.55,7.2-.76,9.47-1.62,15.31-8.38s6.37-9.12,6.08-16.35c-.05-1.32-.11-2.81-.13-4.71,0-4.13-1.42-8-2.77-11.66a47.86,47.86,0,0,1-2.12-6.79,37.49,37.49,0,0,1-.45-5.43c-.16-4.15-.33-8.85-2.41-13.58-1.86-4.24-5.05-7.45-7.87-10.28a46.75,46.75,0,0,1-4.3-4.71,38,38,0,0,1-2.75-4.71c-1.93-3.67-4.11-7.83-8-11.22-3.53-3-7.72-4-11.08-4.72a23.85,23.85,0,0,1-3.76-1,25.72,25.72,0,0,1-3.56-2.07c-2.86-1.86-6.41-4.16-10.91-4.54-.44,0-.88,0-1.31,0Z"/><line class="a" x1="289.45" y1="176.81" x2="336.41" y2="217.42"/><path class="b" d="M289.45,176.81A92.62,92.62,0,0,1,303,184.88q6.38,4.5,12.23,9.58t11.26,10.72a91.53,91.53,0,0,1,9.94,12.24,91.67,91.67,0,0,1-13.54-8.07q-6.37-4.5-12.23-9.59c-3.91-3.39-7.67-6.95-11.25-10.73A92,92,0,0,1,289.45,176.81Z"/><path class="b" d="M322.19,242.31a11.65,11.65,0,0,1-3.57-5.61,17.1,17.1,0,0,1-.56-3.31,12.29,12.29,0,0,1,.17-3.32,57.84,57.84,0,0,1,2.09-6.16c.67-2,1.09-4,1.62-6.2l1.33-5.42.75,6a27.64,27.64,0,0,0,.61,2.82c.23,1,.47,1.91.74,2.86.54,1.9,1.28,3.73,1.9,5.62l1.91,5.73c.32,1,.67,1.94.95,3a31.33,31.33,0,0,1,.88,3.07l0,.21-.22.14-.16-.13a26.29,26.29,0,0,1-2.32-2.28c-.69-.82-1.37-1.66-2-2.54a29,29,0,0,1-3.1-5.68,26.85,26.85,0,0,1-1.6-6.33,17.8,17.8,0,0,1,.17-6.69l2.09.57a14.85,14.85,0,0,0-2.36,5.61,24.9,24.9,0,0,0,0,6.1c.12,2,0,3.87.13,5.8.12.94.14,1.93.31,2.9s.39,1.95.53,3.07l0,.22-.21.13Z"/><path class="b" d="M297,233.84a13.32,13.32,0,0,1,.12-7.35,18.78,18.78,0,0,1,1.45-3.42,14.07,14.07,0,0,1,2.1-3,59.49,59.49,0,0,1,5.53-4.63c.89-.77,1.76-1.55,2.63-2.35s1.67-1.65,2.6-2.48l4.08-3.68-2.63,5.28a30,30,0,0,0-1.17,3c-.37,1-.71,2.09-1,3.15-.63,2.12-1.05,4.3-1.58,6.46s-1,4.35-1.55,6.57c-.26,1.11-.48,2.24-.79,3.37s-.53,2.27-.91,3.42l-.06.2h-.28l-.06-.2a32.36,32.36,0,0,1-.74-3.52c-.14-1.18-.26-2.37-.3-3.56a33,33,0,0,1,.08-3.59,28.9,28.9,0,0,1,.43-3.58,32,32,0,0,1,2.22-6.89,20.11,20.11,0,0,1,4-6.21l1.46,1.6a17.78,17.78,0,0,0-5.54,3.93,28.65,28.65,0,0,0-3.74,5.69c-1.09,1.93-2.31,3.69-3.34,5.6-.44,1-1,1.94-1.38,3s-.74,2.09-1.23,3.23l-.09.2h-.25Z"/><path class="b" d="M279.64,214.06a13.25,13.25,0,0,1,4.72-5.67,18.58,18.58,0,0,1,3.28-1.77,10,10,0,0,1,1.73-.64,14.18,14.18,0,0,1,1.8-.41c2.43-.38,4.89-.11,7.23-.25,1.18-.06,2.35-.15,3.53-.26s2.34-.3,3.59-.4l5.79-.49-5.62,2.69a31.71,31.71,0,0,0-2.78,1.63c-.93.57-1.85,1.17-2.75,1.79-1.81,1.25-3.49,2.67-5.24,4s-3.5,2.74-5.29,4.12c-.9.7-1.76,1.43-2.7,2.11s-1.82,1.44-2.83,2.1l-.18.11-.22-.17.09-.19a30.65,30.65,0,0,1,1.6-3.19c.63-1,1.27-2,2-3a33.22,33.22,0,0,1,2.29-2.74,28.67,28.67,0,0,1,2.55-2.5,30.6,30.6,0,0,1,6-4,20.36,20.36,0,0,1,7-2.34l.17,2.21a18.38,18.38,0,0,0-6.82-.3,28.43,28.43,0,0,0-6.5,2.19c-2.06.85-4.13,1.45-6.13,2.33-1,.48-2,.88-2.95,1.45s-1.9,1.16-3,1.75l-.19.1-.2-.15Z"/><path class="b" d="M274.72,190.89a10,10,0,0,1,5.43-2.52,13.78,13.78,0,0,1,3-.07,10.2,10.2,0,0,1,2.9.61,55.29,55.29,0,0,1,5.12,2.79,52.25,52.25,0,0,0,5.26,2.23l5,2h-5.88c-.75,0-1.69.12-2.54.21l-2.59.29c-1.72.25-3.42.66-5.15.94s-3.49.58-5.29.82c-.9.13-1.8.29-2.74.38a23.57,23.57,0,0,1-2.85.26h-.22l-.1-.23.16-.15a21.81,21.81,0,0,1,2.28-1.81,26.91,26.91,0,0,1,2.49-1.45,24.13,24.13,0,0,1,5.41-2,22.62,22.62,0,0,1,5.82-.52,15.15,15.15,0,0,1,5.89,1.16l-.89,2a12.07,12.07,0,0,0-4.56-2.87,21,21,0,0,0-5.37-.73c-.87,0-1.71-.21-2.55-.32s-1.67-.22-2.51-.36c-1.7-.16-3.37-.2-5.36-.23h-.21l-.1-.21Z"/><path class="b" d="M344.71,243.24a11.63,11.63,0,0,1-1.49-.38l-.73-.25c-.23-.11-.45-.24-.68-.36a11.93,11.93,0,0,1-1.33-.79c-.41-.32-.81-.65-1.2-1a9.44,9.44,0,0,1-1.07-1.12,10,10,0,0,1-.94-1.23,13.54,13.54,0,0,1-.79-1.32,14.75,14.75,0,0,1-.58-1.43,41.79,41.79,0,0,1-.91-5.93c-.15-1-.35-1.9-.55-2.85s-.47-1.88-.67-2.92L333,220l2.83,3.28c.19.22.52.61.82.9l1,.93c.65.61,1.28,1.24,2,1.83,1.35,1.2,2.8,2.29,4.19,3.47s2.78,2.41,4.15,3.72c.7.62,1.39,1.28,2.07,2a23.2,23.2,0,0,1,2,2.16l.13.17-.12.22-.21,0a24.72,24.72,0,0,1-5.64-1.86,27.65,27.65,0,0,1-5.07-3,24.52,24.52,0,0,1-4.26-4.2,17.6,17.6,0,0,1-1.76-2.48,11.56,11.56,0,0,1-.7-1.41,13.45,13.45,0,0,1-.57-1.58l2.1-.4a11.77,11.77,0,0,0,.31,5.49,20,20,0,0,0,2.69,4.82c1,1.5,1.74,3,2.7,4.47s2.06,2.82,3.27,4.46l.13.18-.12.21Z"/><path class="b" d="M358.83,200.12c-1.13,0-2.1-.13-3.11-.07s-2,.09-2.92.1c-1.93.17-3.79.54-5.76.71a25.14,25.14,0,0,0-6,.89,14.88,14.88,0,0,0-5.2,3.15l-.87-2a17.67,17.67,0,0,1,6.6-1.14,26.6,26.6,0,0,1,6.49.67,28.81,28.81,0,0,1,6.06,2.24,32.32,32.32,0,0,1,2.81,1.6,25.5,25.5,0,0,1,2.58,2l.16.13-.11.25-.21,0a31.48,31.48,0,0,1-3.17-.42c-1-.14-2.05-.34-3.06-.52l-5.95-1.05c-1.95-.35-3.88-.81-5.83-1.08-1-.13-2-.23-2.94-.32a26.74,26.74,0,0,0-2.88-.19l-6,.12,5.17-2.1c2.06-.84,4-1.54,5.9-2.5a57.29,57.29,0,0,1,5.8-3,12.33,12.33,0,0,1,3.25-.64,17.16,17.16,0,0,1,3.36.08,11.59,11.59,0,0,1,6.07,2.72l.16.14-.1.22Z"/><path class="b" d="M347,176.44c-1.06.65-2.09,1.05-3,1.68s-1.84,1.22-2.74,1.79c-1.75,1.3-3.31,2.76-5.06,4.11a29.82,29.82,0,0,0-5.09,4.53,17.72,17.72,0,0,0-3.09,6l-1.79-1.21a20.14,20.14,0,0,1,5.56-4.9,31.32,31.32,0,0,1,6.5-3.18,26.34,26.34,0,0,1,3.48-.95,32.49,32.49,0,0,1,3.53-.59c1.19-.14,2.39-.19,3.58-.22a31,31,0,0,1,3.59.22l.2,0,0,.27-.18.1a35.19,35.19,0,0,1-3.27,1.39c-1.07.47-2.15.85-3.21,1.27-2.12.85-4.23,1.63-6.28,2.49s-4.16,1.56-6.17,2.49c-1,.47-2,1-3,1.48a27.77,27.77,0,0,0-2.82,1.6L323,198.24l3.05-4.56c.7-1,1.41-2,2.08-2.94s1.32-1.94,1.95-2.93a59.6,59.6,0,0,1,3.79-6.15,14.2,14.2,0,0,1,2.68-2.51,19.3,19.3,0,0,1,3.17-1.93A13.36,13.36,0,0,1,347,176l.21,0,0,.25Z"/><path class="b" d="M325.19,162c-.43,1.17-1,2.13-1.31,3.22s-.67,2.11-1,3.13c-.57,2.11-.87,4.24-1.42,6.4a28.21,28.21,0,0,0-1.22,6.75,18.23,18.23,0,0,0,1.28,6.71l-2.21.14a20.35,20.35,0,0,1,1.31-7.23,30.74,30.74,0,0,1,3.06-6.51,28.48,28.48,0,0,1,2.11-2.89,31.34,31.34,0,0,1,2.37-2.65c.83-.84,1.74-1.62,2.64-2.39a31.79,31.79,0,0,1,2.92-2.05l.18-.11.2.19-.08.2c-.51,1.09-1.09,2.1-1.67,3.1s-1.14,2-1.7,3c-1.11,2-2.25,3.88-3.31,5.82s-2.24,3.8-3.22,5.77c-.48,1-.94,2-1.37,3a28.84,28.84,0,0,0-1.21,3l-1.85,5.95-.36-5.81c-.07-1.25-.07-2.42-.12-3.61s-.14-2.35-.24-3.52c-.21-2.34-.83-4.74-.8-7.2a14.09,14.09,0,0,1,.14-1.83,11.2,11.2,0,0,1,.38-1.81,19.06,19.06,0,0,1,1.28-3.5,13.26,13.26,0,0,1,4.94-5.49l.18-.11.18.18Z"/><path class="b" d="M301.64,160.31c.31,2,.6,3.61,1,5.27.26.82.43,1.63.71,2.44s.53,1.61.69,2.47a21.61,21.61,0,0,0,1.49,5.21,12.27,12.27,0,0,0,3.5,4.1L307.21,181a15.5,15.5,0,0,1-2-5.67,22.88,22.88,0,0,1-.32-5.83,24.25,24.25,0,0,1,1.22-5.65,25.69,25.69,0,0,1,1.08-2.67,22,22,0,0,1,1.46-2.52l.12-.17.24.06,0,.21a25.63,25.63,0,0,1,.15,2.86c.05.94,0,1.86,0,2.77,0,1.82,0,3.59,0,5.35S309,173.2,309,175l.08,2.6c0,.85.05,1.8.16,2.54l.84,5.82-2.66-4.65a51.42,51.42,0,0,0-3-4.88,54.54,54.54,0,0,1-3.49-4.67,9.8,9.8,0,0,1-1-2.78,14.31,14.31,0,0,1-.37-3,10,10,0,0,1,1.72-5.73l.12-.17.23.06Z"/><path class="b" d="M362.84,222.16c-1.8-1-3.26-1.89-4.88-2.6s-3.19-1.29-4.81-2a20.4,20.4,0,0,0-5.17-2,11.78,11.78,0,0,0-5.48.49l.1-2.13a10.92,10.92,0,0,1,1.65.33,15.21,15.21,0,0,1,1.49.48,19.76,19.76,0,0,1,2.71,1.39,24.72,24.72,0,0,1,4.77,3.61,27.72,27.72,0,0,1,3.71,4.59,24.55,24.55,0,0,1,2.65,5.3l.07.21-.2.15-.18-.11a24.23,24.23,0,0,1-2.43-1.68q-1.17-.85-2.25-1.77c-1.49-1.16-2.89-2.38-4.28-3.56s-2.66-2.49-4-3.65c-.68-.59-1.4-1.12-2.09-1.68l-1.06-.81c-.33-.26-.76-.53-1-.69l-3.65-2.32,3.74.19c1.06.05,2,.17,3,.24s1.92.12,2.89.13a41.69,41.69,0,0,1,6,.05c.5.1,1,.22,1.49.36a13.73,13.73,0,0,1,1.42.6,9,9,0,0,1,1.36.75,10.08,10.08,0,0,1,1.27.9c.39.33.78.68,1.15,1a11.16,11.16,0,0,1,1,1.2c.15.21.31.41.45.62s.24.47.36.69a13.31,13.31,0,0,1,.59,1.42l.07.2-.19.15Z"/><path class="a" d="M201.67,251.68a46.82,46.82,0,0,1-9.3-1.19c-1.61-.31-3.13-.62-4.49-.76a19.55,19.55,0,0,0-2.13-.12,22,22,0,0,0-5.17.68,17.79,17.79,0,0,1-3.84.55c-3,0-5.44-1.36-8-4.41-4.57-5.45-3.06-9.1-1.73-12.33a20.68,20.68,0,0,0,1.83-7.09c.09-1.37.06-2.91,0-4.55-.08-3.88-.18-8.28,1.31-12.77,1.3-3.92,3.89-7.29,6.39-10.55,1-1.34,2.1-2.73,3.06-4.14.79-1.16,1.54-2.46,2.34-3.83,2-3.4,4.21-7.26,7.86-10.32,3-2.55,6.7-3.4,9.94-4.15,1.15-.27,2.24-.52,3.22-.83s2.12-.75,3.25-1.2c2.75-1.08,5.87-2.31,9.21-2.31a11.85,11.85,0,0,1,1.19.06c3.81.33,7,2.3,9.84,4,1,.64,2,1.24,3,1.75s1.94.92,3,1.38c3.05,1.31,6.51,2.79,9.06,5.83s3.39,6.7,4.15,9.93c.27,1.15.52,2.24.83,3.23s.75,2.11,1.2,3.25c1.21,3.09,2.58,6.58,2.25,10.39s-2.3,7-4,9.84c-.64,1-1.24,2-1.74,3s-.92,2-1.39,3c-1.3,3.05-2.78,6.51-5.82,9.06-3.65,3.06-7.84,4.59-11.54,5.94-1.49.54-2.9,1.06-4.18,1.63-1.55.7-3.11,1.51-4.61,2.29-3.64,1.9-7.41,3.85-11.5,4.45A24.91,24.91,0,0,1,201.67,251.68Z"/><path class="b" d="M215.46,175.86c.3,0,.59,0,.88,0,4.18.37,7.74,3.43,11.52,5.4s8.22,3,11,6.35,3.1,8,4.33,12,3.67,8.1,3.3,12.28-3.43,7.74-5.4,11.52-3,8.22-6.35,11c-4.54,3.8-10.27,5-14.9,7.06-5.37,2.42-10.14,5.73-15.18,6.46a20.5,20.5,0,0,1-3,.21c-4.87,0-9.43-1.51-13.42-1.93a22.56,22.56,0,0,0-2.5-.14c-4.26,0-6.76,1.23-9,1.23-1.7,0-3.26-.7-5.31-3.16-5.28-6.29.24-7.33.91-16.93.34-4.81-.73-10.72,1.17-16.47,1.6-4.83,5.7-8.95,9-13.81,2.87-4.2,5-9.63,9.56-13.44,3.35-2.8,8-3.09,12-4.32s7.54-3.35,11.41-3.35m0-7h0c-4,0-7.45,1.36-10.49,2.55-1.07.43-2.09.83-3,1.12s-1.89.51-3,.76c-3.43.8-7.71,1.79-11.39,4.88-4.11,3.45-6.52,7.59-8.64,11.24-.76,1.32-1.48,2.56-2.2,3.61-.91,1.33-1.9,2.62-2.95,4-2.68,3.49-5.45,7.1-6.93,11.58-1.68,5.06-1.57,10-1.49,13.94,0,1.56.06,3,0,4.24a17.54,17.54,0,0,1-1.57,6c-1.85,4.47-3.19,9.38,2.27,15.91,2,2.43,5.36,5.66,10.68,5.66a21.29,21.29,0,0,0,4.59-.63,19,19,0,0,1,4.42-.6,15.33,15.33,0,0,1,1.76.1c1.2.13,2.65.41,4.17.72a50.53,50.53,0,0,0,10,1.25,27.54,27.54,0,0,0,4-.28c4.67-.68,8.71-2.77,12.62-4.8,1.52-.8,3-1.55,4.43-2.21,1.16-.52,2.51-1,3.94-1.53,4-1.45,8.47-3.1,12.59-6.55,3.67-3.08,5.4-7.12,6.79-10.36.44-1,.85-2,1.27-2.79s1-1.79,1.63-2.78c1.84-3,4.13-6.73,4.54-11.36s-1.2-8.71-2.49-12c-.42-1.08-.82-2.09-1.11-3s-.51-1.89-.76-3c-.8-3.44-1.8-7.71-4.88-11.39s-7.12-5.41-10.36-6.8c-1-.43-2-.85-2.8-1.27s-1.79-1-2.77-1.62c-3-1.84-6.74-4.13-11.36-4.54-.5,0-1-.07-1.5-.07Z"/><line class="a" x1="232.33" y1="193.15" x2="196.64" y2="223.06"/><path class="b" d="M232.33,193.15a73,73,0,0,1-7.67,9c-2.73,2.77-5.6,5.39-8.57,7.89s-6.06,4.85-9.26,7.07a73.91,73.91,0,0,1-10.19,6,71.6,71.6,0,0,1,7.66-9q4.11-4.15,8.58-7.88t9.27-7.07A73.21,73.21,0,0,1,232.33,193.15Z"/><path class="b" d="M199.18,185.63a8.34,8.34,0,0,1,3.89,1.92,11.15,11.15,0,0,1,2.64,3.47A35,35,0,0,1,207,195.1c.4,1.35.88,2.63,1.33,4l.92,2.83-1.94-2.49A16.13,16.13,0,0,0,206,198c-.47-.46-1-.91-1.46-1.35-1-.88-2.09-1.65-3.16-2.46s-2.16-1.59-3.27-2.4c-.55-.4-1.12-.77-1.68-1.2s-1.14-.79-1.69-1.25l-.08-.06.06-.14.1,0a19.9,19.9,0,0,1,4.06,1.26,21.31,21.31,0,0,1,3.75,2,19.74,19.74,0,0,1,3.23,2.83,12.59,12.59,0,0,1,2.46,3.62l-1,.35a11.93,11.93,0,0,0-.86-4,18.63,18.63,0,0,0-2.13-3.48c-.78-1.08-1.47-2.18-2.29-3.2a23.32,23.32,0,0,0-2.87-2.83l-.08-.07.06-.13Z"/><path class="b" d="M220.48,179.81a8.37,8.37,0,0,1,.88,4.25,11.23,11.23,0,0,1-1.11,4.21,34.38,34.38,0,0,1-2.43,3.53c-.81,1.15-1.53,2.32-2.34,3.53l-1.67,2.46.76-3.06a16.23,16.23,0,0,0,.3-1.93c.07-.66.12-1.32.17-2,.07-1.33,0-2.66,0-4s-.08-2.69-.13-4.05c0-.69-.08-1.37-.09-2.07s-.07-1.38-.05-2.1v-.1l.14,0,0,.09a19.67,19.67,0,0,1,1.51,4,22.17,22.17,0,0,1,.7,4.21,20,20,0,0,1-.24,4.3,12.6,12.6,0,0,1-1.35,4.16l-.9-.59a12,12,0,0,0,2.61-3.14,18.48,18.48,0,0,0,1.43-3.81c.37-1.28.81-2.5,1.11-3.78a25,25,0,0,0,.47-4v-.1l.14,0Z"/><path class="b" d="M185.75,199.07a8.41,8.41,0,0,1,4.28-.73,11.36,11.36,0,0,1,4.16,1.26,32.94,32.94,0,0,1,3.44,2.55c1.12.85,2.27,1.61,3.45,2.47l2.4,1.75-3-.87a14.2,14.2,0,0,0-1.92-.36q-1-.15-2-.24c-1.33-.12-2.66-.1-4-.13s-2.69,0-4.06,0c-.68,0-1.36,0-2.06,0s-1.39,0-2.1,0h-.11l0-.14.09,0a20.37,20.37,0,0,1,4-1.37,22.17,22.17,0,0,1,4.23-.55,20,20,0,0,1,4.28.4,12.48,12.48,0,0,1,4.11,1.48l-.62.88a12,12,0,0,0-3-2.71,18.41,18.41,0,0,0-3.77-1.56c-1.26-.42-2.46-.9-3.73-1.25a24.56,24.56,0,0,0-4-.6h-.11l0-.14Z"/><path class="b" d="M178.24,217.14a8.3,8.3,0,0,1,3.29-2.83,11,11,0,0,1,4.21-1.08,34.91,34.91,0,0,1,4.27.4c1.4.15,2.77.21,4.22.34l3,.26-3,.82a14.09,14.09,0,0,0-1.83.68c-.62.26-1.22.53-1.82.82-1.2.58-2.34,1.29-3.5,1.95s-2.3,1.38-3.48,2.08c-.58.36-1.15.73-1.76,1.08s-1.17.74-1.81,1.07l-.09.05-.1-.11.06-.08a19.76,19.76,0,0,1,2.73-3.25,22,22,0,0,1,3.34-2.66,19.73,19.73,0,0,1,3.87-1.87,12.29,12.29,0,0,1,4.3-.85L194,215a11.78,11.78,0,0,0-4-.75,18.08,18.08,0,0,0-4,.6c-1.3.3-2.58.51-3.84.87a24.15,24.15,0,0,0-3.72,1.53l-.1.05-.1-.1Z"/><path class="b" d="M233.27,227.66a23.6,23.6,0,0,0-2.2-3.37c-.83-1-1.77-1.91-2.67-2.89a19.21,19.21,0,0,0-3-2.78,11.93,11.93,0,0,0-3.73-1.64l.54-.94a12.48,12.48,0,0,1,3.06,3.14,19.43,19.43,0,0,1,2.13,3.73,22.61,22.61,0,0,1,1.25,4.08,20,20,0,0,1,.41,4.23v.1l-.14,0-.05-.09c-.33-.63-.62-1.27-.89-1.91s-.56-1.26-.84-1.88c-.57-1.24-1.1-2.48-1.69-3.69s-1.12-2.42-1.78-3.58c-.33-.58-.67-1.15-1-1.71a15.08,15.08,0,0,0-1.12-1.6l-2-2.4,2.59,1.47c1.27.71,2.43,1.44,3.67,2.11a33.65,33.65,0,0,1,3.74,2.08,11,11,0,0,1,2.87,3.27,8.38,8.38,0,0,1,1.11,4.2v.1l-.14,0Z"/><path class="b" d="M243.34,208.1a24.49,24.49,0,0,0-4-.34c-1.32,0-2.6.22-3.92.33a17.91,17.91,0,0,0-4,.64,11.64,11.64,0,0,0-3.59,1.93l-.4-1a12.47,12.47,0,0,1,4.35-.48,19.55,19.55,0,0,1,4.25.62,21.53,21.53,0,0,1,4,1.53,19.42,19.42,0,0,1,3.59,2.27l.08.06-.06.14-.1,0c-.71-.13-1.38-.3-2-.48s-1.34-.33-2-.5c-1.33-.31-2.64-.66-4-.93s-2.6-.61-3.92-.81c-.66-.09-1.32-.17-2-.23a14.56,14.56,0,0,0-2-.1l-3.16.14,2.75-1.14c1.35-.56,2.64-1,3.93-1.6a33,33,0,0,1,3.94-1.66,11.16,11.16,0,0,1,4.35-.25,8.36,8.36,0,0,1,4,1.71l.08.07-.07.13Z"/><path class="b" d="M217.42,238a25.4,25.4,0,0,0,.21-4c-.09-1.31-.32-2.58-.48-3.9a18.56,18.56,0,0,0-.77-4,12.07,12.07,0,0,0-2.06-3.52l1-.43a12.47,12.47,0,0,1,.64,4.33,19.67,19.67,0,0,1-.47,4.27,21.91,21.91,0,0,1-1.39,4,19.83,19.83,0,0,1-2.15,3.66l-.06.08-.13,0v-.11c.1-.71.25-1.39.41-2.06s.28-1.35.42-2c.27-1.34.57-2.66.8-4s.52-2.62.67-3.94c.07-.66.12-1.33.16-2a14.22,14.22,0,0,0,0-2l-.25-3.15,1.24,2.71c.61,1.32,1.12,2.6,1.73,3.86a34.59,34.59,0,0,1,1.81,3.89,11.07,11.07,0,0,1,.39,4.33,8.37,8.37,0,0,1-1.57,4l-.06.08-.13-.06Z"/><path class="b" d="M198.29,241.67a24.77,24.77,0,0,0,2.25-3.34c.6-1.16,1.06-2.37,1.61-3.59a17.88,17.88,0,0,0,1.4-3.83,11.84,11.84,0,0,0,.06-4.07l1.08.14a12.28,12.28,0,0,1-1.7,4,19.34,19.34,0,0,1-2.61,3.42,21.89,21.89,0,0,1-3.27,2.74,19.52,19.52,0,0,1-3.73,2l-.1,0-.08-.12.06-.08c.46-.56.94-1.07,1.42-1.56s.94-1,1.41-1.51c.92-1,1.85-2,2.73-3s1.8-2,2.61-3c.4-.53.8-1.07,1.17-1.61a15,15,0,0,0,1-1.66l1.42-2.83-.34,3c-.17,1.45-.39,2.81-.52,4.21a32.65,32.65,0,0,1-.46,4.25,11.21,11.21,0,0,1-1.89,3.92,8.42,8.42,0,0,1-3.44,2.66l-.1,0-.08-.12Z"/><path class="c" d="M197.37,74.59c-2.32,0-6.81-1.12-10.81-8.62-3.2-6-6.12-16.64-.37-19.7a5.48,5.48,0,0,1,2.63-.65c5.27,0,11,7.13,13.54,11.92a18.41,18.41,0,0,1,2.54,9.18,8,8,0,0,1-4.06,7A7.35,7.35,0,0,1,197.37,74.59Z"/><path class="b" d="M188.82,49.12c2.89,0,7.66,4.84,10.45,10.07,3.13,5.88,2.58,10-.08,11.44a3.81,3.81,0,0,1-1.82.46c-2.4,0-5.25-2.13-7.72-6.77-3.14-5.87-4.47-13.55-1.81-15a2.11,2.11,0,0,1,1-.23m0-7h0a9,9,0,0,0-4.28,1.06c-2.33,1.24-6.06,4.58-4.9,13a36.11,36.11,0,0,0,3.83,11.49c4.86,9.11,10.8,10.47,13.9,10.47a10.74,10.74,0,0,0,5.12-1.28,11.41,11.41,0,0,0,5.91-9.94,21.79,21.79,0,0,0-3-11c-2.73-5.12-9.31-13.78-16.63-13.78Z"/><path class="d" d="M199.19,70.63s28.72,38.57,28.72,53.82"/><path class="c" d="M185.24,105.63a26.42,26.42,0,0,1-3.56-.26,32.43,32.43,0,0,1-10.39-3.27c-5.3-2.83-6.07-5.92-5.78-8,.87-6.28,11-6.77,14.05-6.77a34.27,34.27,0,0,1,4.57.31A18.37,18.37,0,0,1,193.06,91a8,8,0,0,1,3.28,7.39C195.85,101.87,192.68,105.63,185.24,105.63Z"/><path class="b" d="M179.56,90.82a29.38,29.38,0,0,1,4.09.28c6.6.91,9.63,3.8,9.22,6.78-.34,2.48-3,4.25-7.63,4.25a21.63,21.63,0,0,1-3.08-.23c-6.6-.91-13.59-4.35-13.18-7.33.33-2.37,5.25-3.75,10.58-3.75m0-7h0c-10.12,0-16.67,3.66-17.52,9.79-.36,2.62.15,7.6,7.6,11.58a36.49,36.49,0,0,0,11.56,3.65,30.24,30.24,0,0,0,4,.29,17.56,17.56,0,0,0,9-2.16,11.09,11.09,0,0,0,5.58-8.13,11.38,11.38,0,0,0-4.57-10.62,21.85,21.85,0,0,0-10.62-4.06,38.13,38.13,0,0,0-5.05-.34Z"/><path class="d" d="M193,98.63s20.36,4.92,24.91.67"/><path class="c" d="M227.21,80.31a7.93,7.93,0,0,1-1-.06c-4.1-.55-8.41-4.71-7.08-14.63.84-6.29,4.43-16.27,10.49-16.27a5.49,5.49,0,0,1,.7,0c6.47.86,7.45,11.86,6.56,18.59C235.68,77.07,231.09,80.31,227.21,80.31Z"/><path class="b" d="M229.64,52.85l.24,0c3,.4,4.43,8.06,3.55,14.66-.83,6.22-3.43,9.28-6.22,9.28a4.41,4.41,0,0,1-.52,0c-3-.4-5-4.09-4.08-10.7.86-6.42,4.1-13.23,7-13.23m0-7h0c-9,0-13.06,12.63-13.95,19.31a21.72,21.72,0,0,0,1.07,11.31,11.4,11.4,0,0,0,9,7.25,11.76,11.76,0,0,0,1.45.09c5.37,0,11.64-4,13.15-15.36a35.56,35.56,0,0,0-.43-12.1c-1.84-8.25-6.51-10.07-9.12-10.42a9.2,9.2,0,0,0-1.17-.08Z"/><path class="d" d="M225.91,81.06s-1.94,17.57-8,18.24"/><path class="c" d="M204.22,214.09c-.29-4.37-1.9-36.58,11.37-49.54-25.55-13.79-27.87-37.16-28-38.26l-.32-3.76,3.52-1.34A58.39,58.39,0,0,1,209.78,118a41.36,41.36,0,0,1,22.13,5.89c.56-26.42,19.43-38.85,20.35-39.44l2.9-1.85,2.77,2c.86.64,17.78,13.38,21.53,36.33,6.9-6.18,16.36-9.46,27.75-9.46a61,61,0,0,1,14.9,1.82l3.53,1,.13,3.66c0,.31.6,28.26-26.67,41.17,20.19,22.6,14.73,47.07,14.47,48.18L312.7,211l-3.76.19s-.6,0-1.66,0c-6,0-33.44-1.12-45.73-20.56-16.34,22.8-50,27.88-51.63,28.1l-5.35.77Z"/><path class="b" d="M255,88.63s23.37,17.22,19.86,47.65c6.57-16.43,21.36-19.81,32.39-19.81a55.76,55.76,0,0,1,13.56,1.64s1,29.2-30.6,39.13c24.82,22.25,18.53,48.9,18.53,48.9s-.51,0-1.42,0c-7,0-38.1-1.45-45.22-26.66-11.81,28.39-52.85,34.25-52.85,34.25s-3.1-47.32,18.08-49.5c-32.37-11.46-34.68-38.4-34.68-38.4A53.44,53.44,0,0,1,209.78,123c9.22,0,20.28,2.67,28.21,13.15-6.29-32.59,17-47.49,17-47.49m.39-12.13-5.78,3.71a54,54,0,0,0-22,35.9A49,49,0,0,0,209.79,113a63,63,0,0,0-20.74,3.54L182,119.2l.65,7.51c.09,1.15,2.35,23.92,25.45,39.18-3.35,5.11-6.11,12.32-7.68,22.41a135.3,135.3,0,0,0-1.19,26.12l.71,10.77,10.68-1.53c1.57-.22,32.26-4.85,50.8-25,11.33,12.64,29.69,17.51,45.86,17.51,1.09,0,1.77,0,1.9,0l7.52-.36,1.73-7.33c.27-1.15,5.54-24.71-11.64-47.82a50.63,50.63,0,0,0,24-42.85l-.24-7.32-7.06-2a64.86,64.86,0,0,0-16.25-2c-9.48,0-17.78,2-24.61,6a66,66,0,0,0-21.71-31.87l-5.54-4.08Z"/><path class="b" d="M243.85,158.34a68.45,68.45,0,0,0,9,2.21,43.06,43.06,0,0,0,8.49.67c.7.05,1.4-.09,2.1-.11l1.06,0c.36,0,.7-.11,1.06-.14l2.14-.24c.7-.16,1.42-.29,2.15-.41.37-.07.74-.11,1.11-.17s.72-.19,1.09-.27c.73-.17,1.49-.32,2.26-.47,1.52-.35,3-.8,4.75-1a22.41,22.41,0,0,1-1.62,1.91,16.51,16.51,0,0,1-1.8,1.75c-.67.5-1.35,1-2,1.47-.34.25-.7.47-1.06.7s-.75.39-1.13.57c-.77.37-1.55.73-2.34,1.06s-1.64.49-2.47.72c-.42.12-.84.23-1.26.31l-1.29.18a22.77,22.77,0,0,1-2.6.21A22,22,0,0,1,251.37,165,17.16,17.16,0,0,1,243.85,158.34Z"/><line class="e" x1="261.34" y1="162.31" x2="261.34" y2="142.75"/><path class="e" d="M268.1,162.31a14.08,14.08,0,0,0,3.75-14"/><path class="e" d="M254.57,162.31a14.08,14.08,0,0,1-3.75-14"/></svg>