<svg xmlns="http://www.w3.org/2000/svg" width="510" height="900" viewBox="0 0 510 900"><defs><style>.a{fill:#59624a;}.b{fill:#fff;}.c,.e{fill:none;stroke-miterlimit:10;stroke-width:6px;}.c{stroke:#432d1e;}.d{fill:#927ba0;}.e{stroke:#fff;}</style></defs><title>help_white</title><path class="a" d="M349.94,254a41.34,41.34,0,0,1-8.31-1.17,51.42,51.42,0,0,0-7.62-1.2l-1,0a48.31,48.31,0,0,0-5.13.38,57.47,57.47,0,0,1-6.27.44,22.51,22.51,0,0,1-6-.74c-3.74-1-6.92-3.39-10-5.67a47.92,47.92,0,0,0-5.76-3.87,39.67,39.67,0,0,0-5.63-2.3c-3.58-1.26-7.63-2.69-11-5.59-2.77-2.39-4-5.73-5.15-8.67a27,27,0,0,0-1.87-4.22,29,29,0,0,0-3-3.8c-2.06-2.34-4.38-5-5.18-8.41s.12-6.87.93-9.88a28.4,28.4,0,0,0,1-4.67,27.53,27.53,0,0,0-.2-4.7c-.3-3.13-.64-6.67.76-10s3.94-5.29,6.45-7.33a20.22,20.22,0,0,0,6.41-7.41c1.66-2.79,3.37-5.66,6.32-7.45s6.63-2,9.77-2.19a27.28,27.28,0,0,0,4.68-.48,28.53,28.53,0,0,0,4.48-1.65c2.71-1.17,5.52-2.38,8.66-2.38.33,0,.65,0,1,0,3.5.29,6.46,2.21,9.07,3.9a27.86,27.86,0,0,0,4.19,2.41,28.21,28.21,0,0,0,4.44,1.24c3.08.68,6.57,1.45,9.33,3.84,3.35,2.89,5.35,6.7,7.11,10.05a41,41,0,0,0,3.09,5.24,48.92,48.92,0,0,0,4.66,5.15c2.7,2.7,5.49,5.51,7,9.06,1.77,4,1.93,8.33,2.07,12.12a38.56,38.56,0,0,0,.53,6.08,52.64,52.64,0,0,0,2.28,7.36c1.29,3.54,2.51,6.88,2.53,10.32,0,2,.08,3.56.13,4.84.26,6.41,0,7.72-5.1,13.58s-6.32,6.34-12.7,7c-1.28.13-2.87.3-4.81.57A16.39,16.39,0,0,1,349.94,254Z"/><path class="b" d="M317.35,154c.25,0,.49,0,.73,0,4.45.37,8.14,4.31,12.34,6.08s9.47,1.56,13,4.59c4.71,4.07,6.46,10.41,9.75,14.82,3.7,5,9.15,8.56,11.37,13.62,2.5,5.69,1.33,12.23,2.41,17.58,1.29,6.36,4.72,12,4.75,17.11.08,10.43,1.49,9.81-4.24,16.44s-5.32,5.14-15.66,6.57a13.87,13.87,0,0,1-1.84.12c-4.66,0-10.05-2-15.76-2.36-.37,0-.75,0-1.13,0-3.58,0-7.49.82-11.4.82a19.29,19.29,0,0,1-5.22-.64c-5.33-1.46-9.68-6.34-15.12-9.28-4.84-2.62-11.36-3.44-16.07-7.52-3.51-3-4.14-8.41-6.41-12.17s-6.79-7-7.81-11.34,1.61-9.13,2-13.62-1.44-9.57.33-13.76,6.59-6.35,9.62-9.85,4.6-8.67,8.36-10.94,9.22-1.31,13.57-2.32c4.15-1,8.23-3.95,12.46-3.95m0-6h0c-3.76,0-7,1.39-9.85,2.62a16.18,16.18,0,0,1-8.12,1.9c-3.32.16-7.44.36-11.17,2.61s-5.59,5.53-7.35,8.48a26.82,26.82,0,0,1-2.44,3.67,26.8,26.8,0,0,1-3.28,2.95c-2.67,2.17-5.69,4.62-7.33,8.5s-1.29,8.12-1,11.42a26.22,26.22,0,0,1,.2,4.16,26.18,26.18,0,0,1-.9,4.15c-.86,3.19-1.92,7.15-.95,11.34s3.56,7.11,5.84,9.71a26.54,26.54,0,0,1,2.67,3.37,24.57,24.57,0,0,1,1.63,3.73c1.18,3.12,2.66,7,6,9.88,3.78,3.27,8.12,4.8,11.94,6.15a38.24,38.24,0,0,1,5.21,2.11,48.32,48.32,0,0,1,5.4,3.64c3.29,2.44,6.69,5,11,6.15a25.63,25.63,0,0,0,6.82.85,59.45,59.45,0,0,0,6.59-.46c1.74-.18,3.38-.36,4.81-.36.27,0,.54,0,.8,0a49.2,49.2,0,0,1,7.17,1.14,44.56,44.56,0,0,0,8.92,1.23,19.2,19.2,0,0,0,2.67-.18c1.9-.26,3.39-.42,4.71-.56,7-.73,9-1.5,14.66-8s6.11-8.64,5.83-15.66c-.05-1.33-.11-2.83-.13-4.74,0-4-1.39-7.7-2.71-11.32a48.6,48.6,0,0,1-2.16-6.94,37.37,37.37,0,0,1-.47-5.6c-.15-4-.32-8.65-2.32-13.2-1.79-4.07-4.78-7.08-7.67-10a46.75,46.75,0,0,1-4.39-4.82,38,38,0,0,1-2.83-4.85c-1.89-3.59-4-7.65-7.81-10.92-3.33-2.89-7.38-3.78-10.64-4.5a24.64,24.64,0,0,1-3.93-1.08,27.11,27.11,0,0,1-3.72-2.15c-2.9-1.89-6.2-4-10.45-4.38-.4,0-.81,0-1.22,0Z"/><path class="a" d="M201.67,251.18a46.2,46.2,0,0,1-9.21-1.18c-1.61-.32-3.14-.62-4.53-.77a20.32,20.32,0,0,0-2.18-.12,23.28,23.28,0,0,0-5.28.69,17.05,17.05,0,0,1-3.73.54c-2.81,0-5.16-1.31-7.61-4.23-4.37-5.21-3-8.57-1.65-11.82a21,21,0,0,0,1.87-7.25c.1-1.39.06-2.94,0-4.59-.08-3.84-.17-8.19,1.29-12.61,1.27-3.84,3.83-7.17,6.3-10.4,1-1.35,2.11-2.74,3.08-4.16.8-1.17,1.56-2.48,2.36-3.86,2-3.37,4.17-7.19,7.75-10.19,3-2.47,6.55-3.3,9.73-4,1.16-.28,2.26-.53,3.26-.85s2.15-.76,3.29-1.2c2.84-1.12,5.77-2.28,9-2.28.38,0,.76,0,1.14,0,3.69.33,6.85,2.26,9.63,4,1,.64,2,1.25,3,1.76s2,.93,3.06,1.4c3,1.29,6.4,2.74,8.87,5.69s3.31,6.55,4,9.73c.27,1.16.53,2.25.84,3.26s.76,2.14,1.21,3.28c1.19,3,2.55,6.48,2.22,10.17s-2.26,6.84-4,9.62c-.65,1.05-1.25,2-1.77,3s-.93,2-1.4,3.07c-1.28,3-2.74,6.4-5.68,8.87-3.58,3-7.73,4.51-11.39,5.85-1.5.55-2.92,1.06-4.21,1.65-1.57.7-3.13,1.51-4.64,2.3-3.61,1.87-7.34,3.81-11.34,4.39A24,24,0,0,1,201.67,251.18Z"/><path class="b" d="M215.46,175.86c.3,0,.59,0,.88,0,4.18.37,7.74,3.43,11.52,5.4s8.22,3,11,6.35,3.1,8,4.33,12,3.67,8.1,3.3,12.28-3.43,7.74-5.4,11.52-3,8.22-6.35,11c-4.54,3.81-10.27,5-14.9,7.06-5.37,2.42-10.14,5.73-15.18,6.46a20.5,20.5,0,0,1-3,.21c-4.87,0-9.43-1.51-13.42-1.93a22.56,22.56,0,0,0-2.5-.14c-4.26,0-6.76,1.23-9,1.23-1.7,0-3.26-.7-5.31-3.16-5.28-6.29.24-7.33.91-16.93.34-4.81-.73-10.72,1.17-16.47,1.6-4.83,5.7-8.95,9-13.81,2.87-4.2,5-9.63,9.56-13.44,3.35-2.8,8-3.09,12-4.32s7.54-3.35,11.41-3.35m0-6c-3.82,0-7.16,1.32-10.12,2.48-1.09.43-2.12.84-3.08,1.14s-1.94.53-3,.78c-3.33.78-7.48,1.74-11,4.67-4,3.34-6.34,7.4-8.42,11-.78,1.33-1.51,2.59-2.25,3.67-.92,1.35-2,2.71-3,4-2.63,3.42-5.35,7-6.78,11.28-1.62,4.9-1.52,9.73-1.44,13.61,0,1.58.06,3.07,0,4.33a18.11,18.11,0,0,1-1.65,6.31c-1.8,4.36-3,8.79,2.12,14.89,1.91,2.27,5,5.3,9.91,5.3a19.69,19.69,0,0,0,4.37-.61,20,20,0,0,1,4.64-.62,17.26,17.26,0,0,1,1.87.1c1.25.14,2.71.43,4.26.74a49,49,0,0,0,9.79,1.23,27,27,0,0,0,3.87-.27c4.5-.65,8.46-2.71,12.3-4.7,1.47-.76,3-1.56,4.48-2.23,1.2-.54,2.56-1,4-1.56,3.89-1.42,8.3-3,12.28-6.37,3.5-2.93,5.18-6.85,6.52-10,.45-1.05.87-2,1.3-2.86s1-1.84,1.66-2.84c1.88-3.06,4-6.53,4.4-10.93s-1.1-8.18-2.42-11.53c-.43-1.09-.83-2.12-1.14-3.08s-.52-1.94-.78-3c-.77-3.34-1.74-7.48-4.67-11s-6.84-5.17-10-6.52c-1-.44-2-.86-2.86-1.3s-1.84-1-2.84-1.66c-3.06-1.88-6.53-4-10.92-4.39a13.18,13.18,0,0,0-1.41-.07Z"/><path class="c" d="M199.19,70.63s28.72,38.57,28.72,53.82"/><path class="d" d="M197.66,75.09c-4.85,0-9.86-3.75-14.1-10.55-5-8.08-9.52-21.88-3.15-25.85a6.09,6.09,0,0,1,3.26-.89c5.93,0,14,7.78,18.55,15.11,2.75,4.43,4.2,8.5,4.29,12.11.11,3.88-1.4,7-4.24,8.76A8.6,8.6,0,0,1,197.66,75.09Z"/><path class="b" d="M183.67,40.8c4.26,0,11.5,6.48,16,13.7,5.16,8.28,4.76,14.4,1,16.73a5.59,5.59,0,0,1-3,.86c-3.44,0-7.64-2.86-11.56-9.14-5.16-8.29-7.85-19.38-4.11-21.71a3.12,3.12,0,0,1,1.68-.44m0-6h0a9.16,9.16,0,0,0-4.85,1.34c-2.86,1.79-5.88,5.83-4,14.94a48.53,48.53,0,0,0,6.18,15c4.81,7.72,10.72,12,16.65,12a11.71,11.71,0,0,0,6.19-1.76c3.73-2.32,5.79-6.48,5.66-11.39-.11-4.15-1.71-8.73-4.75-13.61-5-8-13.67-16.53-21.09-16.53Z"/><path class="c" d="M193,98.63s20.36,4.92,24.91.67"/><path class="c" d="M225.91,81.06s-1.94,17.57-8,18.24"/><path class="d" d="M184.6,108.05a34.35,34.35,0,0,1-4.51-.33,41.57,41.57,0,0,1-13.24-4.16c-6.19-3.31-7.12-6.7-6.81-9,.77-5.57,9.29-7.56,17-7.56a43.21,43.21,0,0,1,5.85.4c11.95,1.65,15.43,7.7,14.78,12.38C197.13,103.8,193.4,108.05,184.6,108.05Z"/><path class="b" d="M177.05,90a39.31,39.31,0,0,1,5.43.37c8.76,1.21,12.78,5,12.23,9-.45,3.29-3.93,5.63-10.12,5.63a29,29,0,0,1-4.09-.3c-8.76-1.21-18-5.77-17.49-9.72.44-3.16,7-5,14-5m0-6h0c-11.63,0-19.1,3.8-20,10.15-.44,3.21.65,7.89,8.37,12a44.44,44.44,0,0,0,14.23,4.49,37.32,37.32,0,0,0,4.92.35c10.74,0,15.34-5.58,16.06-10.81.58-4.14-1.19-8.17-4.85-11.06-3-2.39-7.23-4-12.49-4.7a44.47,44.47,0,0,0-6.26-.43Z"/><path class="d" d="M227.42,82.83a7,7,0,0,1-1-.07,8.32,8.32,0,0,1-6.55-5.43c-1.18-2.82-1.49-6.44-.91-10.76,1-7.67,5.23-18.48,11.39-18.48a5.34,5.34,0,0,1,.69,0c2.14.28,5,2,6.4,8.32a37.58,37.58,0,0,1,.43,12.63C236.5,79.22,231.58,82.83,227.42,82.83Z"/><path class="b" d="M230.33,51.09l.3,0c3.58.48,5.31,9.66,4.25,17.58-1,7.46-4.11,11.14-7.46,11.14-.21,0-.41,0-.62,0-3.58-.48-5.94-4.91-4.89-12.83,1-7.7,4.92-15.87,8.42-15.87m0-6h0c-2.84,0-7,1.45-10.48,8.31A41.16,41.16,0,0,0,216,66.17c-.65,4.86-.28,9,1.12,12.32A11.29,11.29,0,0,0,226,85.73a9.55,9.55,0,0,0,1.41.1c5.43,0,11.8-4.3,13.41-16.34a40.72,40.72,0,0,0-.48-13.69c-.81-3.63-3.06-9.85-8.93-10.64a9.81,9.81,0,0,0-1.09-.07Z"/><path class="d" d="M206.22,214c-.12-1.79-2.34-38.89,13-49.79-27.15-13-29.53-37-29.62-38l-.19-2.26,2.11-.8A56,56,0,0,1,209.78,120c9.47,0,17.69,2.66,24.2,7.79a49.15,49.15,0,0,1,7.62-29.23A43.85,43.85,0,0,1,253.34,86.1L255.08,85l1.66,1.22c.88.66,19.09,14.37,21.24,39,5.55-6.46,14.57-11.75,29.23-11.75a58.67,58.67,0,0,1,14.37,1.75l2.12.59.07,2.2c0,.3.6,28.61-28,40.41,21.72,22.37,16.16,47.31,15.9,48.41l-.52,2.2-2.26.11s-.56,0-1.56,0a71.85,71.85,0,0,1-23.61-4.06c-10.27-3.78-17.75-10.05-22-18.34-5.95,9.6-15.95,17.57-29.3,23.27a99.79,99.79,0,0,1-22.76,6.69l-3.2.46Z"/><path class="b" d="M255,88.63s23.37,17.22,19.86,47.65c6.57-16.43,21.36-19.81,32.39-19.81a55.76,55.76,0,0,1,13.56,1.64s1,29.2-30.6,39.13c24.82,22.25,18.53,48.9,18.53,48.9s-.51,0-1.42,0c-7,0-38.1-1.45-45.22-26.66-11.81,28.39-52.85,34.25-52.85,34.25s-3.1-47.32,18.08-49.5c-32.37-11.46-34.68-38.4-34.68-38.4A53.44,53.44,0,0,1,209.78,123c9.22,0,20.28,2.67,28.21,13.15-6.29-32.59,17-47.49,17-47.49m.24-7.28-3.48,2.23A46.34,46.34,0,0,0,239.07,96.9,51.5,51.5,0,0,0,231,122.16,42.81,42.81,0,0,0,209.79,117a59.85,59.85,0,0,0-19.32,3.28l-4.22,1.61.38,4.51c.1,1.11,2.4,24.33,27.37,38.45-5.62,6.2-8.33,15.72-9.62,24.09a130.5,130.5,0,0,0-1.16,25.25l.43,6.46,6.41-.92a102.67,102.67,0,0,0,23.51-6.9c12.07-5.16,21.54-12.13,27.94-20.49,10,14.43,29.11,19.86,45.77,19.86,1,0,1.64,0,1.71,0l4.51-.21,1-4.4c.27-1.12,5.68-25.38-13.83-48.09a46.19,46.19,0,0,0,22.11-23.09,46.85,46.85,0,0,0,3.95-18.43l-.15-4.4-4.24-1.18a61.53,61.53,0,0,0-15.17-1.86c-10.94,0-20.14,3-27.08,8.56-4.36-22.25-20.75-34.6-21.61-35.23l-3.32-2.45Z"/><path class="e" d="M243.85,158.34s15,13.29,35.22,0"/><line class="e" x1="261.34" y1="162.31" x2="261.34" y2="142.75"/><path class="e" d="M268.1,162.31a14.08,14.08,0,0,0,3.75-14"/><path class="e" d="M254.57,162.31a14.08,14.08,0,0,1-3.75-14"/></svg>