<svg xmlns="http://www.w3.org/2000/svg" width="510" height="900" viewBox="0 0 510 900"><defs><style>.a,.h{fill:none;}.a,.f,.g,.h{stroke:#432d1e;stroke-miterlimit:10;}.a{stroke-width:8px;}.b{fill:#a88ad1;}.c{fill:#432d1e;}.d{fill:#8c9c73;}.e,.f,.g{fill:#c7b0d5;}.f,.h{stroke-width:6px;}.g{stroke-width:5px;}</style></defs><title>help_large</title><path class="a" d="M305-10.1s14.77,45.76,9.87,60.2"/><path class="a" d="M290.1,14.4s17.69,11.22,23.37,8.66"/><path class="a" d="M326.93,8.37s-7.49,16-13.46,14.69"/><path class="b" d="M285.49,22.79a24.86,24.86,0,0,1-11-3,42.18,42.18,0,0,1-11.47-8.41c-5.2-5.54-4.9-9.48-3.73-11.8,1-1.92,3.29-4.22,8.9-4.22,4.77,0,11,1.67,16.38,4.35,11.45,5.75,12.79,13.19,10.46,17.83C293.37,20.86,289.88,22.79,285.49,22.79Z"/><path class="c" d="M268.22-.68c4.1,0,9.78,1.51,14.59,3.93,7.9,4,10.47,8.88,8.68,12.45-1,1.94-3.05,3.09-6,3.09a21.12,21.12,0,0,1-9.18-2.61c-7.89-4-15.21-11.27-13.42-14.84.7-1.4,2.69-2,5.33-2m0-8h0c-8.05,0-11.27,4-12.48,6.43C254.32.58,253,6.47,260.13,14.08a46.55,46.55,0,0,0,12.59,9.25,29,29,0,0,0,12.77,3.46c6,0,10.76-2.73,13.15-7.5,2.2-4.39,1.79-9.5-1.14-14-2.3-3.54-6-6.63-11.1-9.17-5.95-3-12.75-4.78-18.18-4.78Z"/><path class="b" d="M330.24,11.94a8.62,8.62,0,0,1-3.83-.9C322.05,8.88,318.84,2.58,324.1-8,327-13.93,333.66-22.7,340-22.7a6.49,6.49,0,0,1,2.87.65c2.21,1.1,4.69,3.89,3.93,10.94A38.62,38.62,0,0,1,343,1.33C338.41,10.56,333,11.94,330.24,11.94Z"/><path class="c" d="M340-18.7a2.35,2.35,0,0,1,1.09.24c3.24,1.6,1.92,10.85-1.63,18-2.85,5.74-6.26,8.39-9.17,8.39a4.55,4.55,0,0,1-2.05-.49c-3.24-1.6-4.05-6.55-.5-13.71,3.18-6.43,8.8-12.44,12.26-12.44m0-8h0c-8.73,0-16.32,10.61-19.43,16.88-2.34,4.72-3.38,9.11-3.11,13.06a13.29,13.29,0,0,0,7.22,11.38,12.57,12.57,0,0,0,5.61,1.32c3.72,0,10.8-1.67,16.33-12.84a42.74,42.74,0,0,0,4.15-13.78c1.07-9.84-3.38-13.59-6.13-14.95A10.37,10.37,0,0,0,340-26.7Z"/><path class="a" d="M237.58,762.6s-15.21,54.3-8.71,106.31"/><path class="b" d="M237.65,767.8a9.56,9.56,0,0,1-2.19-.25c-5.39-1.26-10.56-7.51-7.42-21,1.93-8.28,7.92-21.4,15.74-21.4a6.59,6.59,0,0,1,1.53.17c2.67.62,6.05,3.06,7.06,11.16a46.42,46.42,0,0,1-1,15.53c-2.31,9.87-7.45,15.77-13.75,15.77Z"/><path class="c" d="M243.78,729.16a2.57,2.57,0,0,1,.62.08c4.3,1,5.32,12.37,3.1,21.87-2,8.57-5.94,12.69-9.85,12.69a5.53,5.53,0,0,1-1.28-.15c-4.3-1-6.65-6.67-4.43-16.17,2.11-9.05,7.6-18.32,11.84-18.32m0-8c-11,0-17.65,16-19.63,24.5-3.82,16.35,3.21,24.11,10.4,25.78a13.53,13.53,0,0,0,3.1.36c8.29,0,14.88-7,17.64-18.87,2.62-11.19,2.36-28.82-9.07-31.48a10.57,10.57,0,0,0-2.44-.29Z"/><path class="a" d="M252.48,787.11s-17.7,11.22-23.38,8.65"/><path class="a" d="M215.64,781.08s7.49,16,13.46,14.68"/><path class="b" d="M257.09,795.49c-4.4,0-7.89-1.93-9.58-5.29-2.32-4.63-1-12.08,10.46-17.82,5.34-2.69,11.62-4.35,16.39-4.35,5.6,0,7.93,2.29,8.9,4.22,1.16,2.32,1.46,6.25-3.73,11.8a42.39,42.39,0,0,1-11.47,8.41,25,25,0,0,1-11,3Z"/><path class="c" d="M274.36,772c2.63,0,4.62.62,5.32,2,1.8,3.57-5.52,10.87-13.42,14.84a21.12,21.12,0,0,1-9.17,2.61c-3,0-5-1.14-6-3.08-1.8-3.58.78-8.49,8.68-12.46,4.81-2.42,10.48-3.92,14.59-3.92m0-8c-5.44,0-12.23,1.78-18.18,4.77-5.07,2.55-8.81,5.63-11.1,9.18-2.93,4.52-3.35,9.63-1.14,14,2.39,4.76,7.18,7.49,13.15,7.49A28.78,28.78,0,0,0,269.85,796c9.58-4.81,22-15.59,17-25.58-1.2-2.4-4.42-6.42-12.47-6.42Z"/><path class="b" d="M212.33,784.64c-2.79,0-8.17-1.38-12.75-10.61a38.86,38.86,0,0,1-3.75-12.43c-.76-7.06,1.72-9.85,3.93-10.94a6.33,6.33,0,0,1,2.86-.66c6.3,0,12.93,8.77,15.85,14.67,2,4.07,2.93,7.77,2.7,11a9.38,9.38,0,0,1-5,8.08,8.53,8.53,0,0,1-3.84.9Z"/><path class="c" d="M202.63,754c3.45,0,9.07,6,12.26,12.44,3.55,7.16,2.74,12.11-.5,13.72a4.54,4.54,0,0,1-2,.48c-2.91,0-6.33-2.65-9.17-8.39-3.55-7.15-4.87-16.4-1.63-18a2.45,2.45,0,0,1,1.09-.24m0-8a10.41,10.41,0,0,0-4.65,1.07c-2.74,1.37-7.19,5.12-6.13,15A42.82,42.82,0,0,0,196,775.81c5.54,11.16,12.61,12.83,16.34,12.83a12.4,12.4,0,0,0,5.6-1.32,13.26,13.26,0,0,0,7.22-11.38c.28-3.94-.77-8.33-3.1-13.05-3.12-6.27-10.71-16.89-19.43-16.89Z"/><path class="a" d="M253.23,826s-20.73,8.23-27.38,6.35"/><path class="a" d="M210.08,821.6s8.78,11.75,15.77,10.78"/><path class="b" d="M258.63,833.25c-5.89,0-8.77-2-10.15-3.77a6.58,6.58,0,0,1-1.22-6.12c1.16-3.83,5.52-6.89,13.31-9.34a65.9,65.9,0,0,1,18.3-3.06c4.75,0,7.73.95,9.35,3a5.46,5.46,0,0,1,.95,5.09c-2.05,6.74-16.9,11.59-18.59,12.12a40.64,40.64,0,0,1-11.95,2.1Z"/><path class="c" d="M278.87,815c3.08,0,5.41.45,6.23,1.48,2.1,2.62-6.47,8-15.72,10.89a36.7,36.7,0,0,1-10.75,1.92c-3.46,0-5.88-.84-7-2.27-2.1-2.62.92-6.23,10.17-9.14a62.13,62.13,0,0,1,17.1-2.88m0-8a70,70,0,0,0-19.5,3.25c-9.15,2.88-14.36,6.8-15.94,12a10.56,10.56,0,0,0,1.93,9.79c1.92,2.4,5.79,5.27,13.27,5.27A44.34,44.34,0,0,0,271.78,835,61.29,61.29,0,0,0,284,829.64c5.07-3,7.93-6,9-9.45a9.41,9.41,0,0,0-1.64-8.75c-3.22-4-8.67-4.48-12.48-4.48Z"/><path class="b" d="M206.21,825.28c-5,0-10-2.8-13.88-7.67-3-3.83-6-10-4.54-14.88a6.81,6.81,0,0,1,4.58-4.65,8.5,8.5,0,0,1,2.46-.35c5.68,0,13.36,5.41,17.5,10.65,3.93,5,3.92,8.7,3.23,11a8.31,8.31,0,0,1-5.76,5.41,12.23,12.23,0,0,1-3.59.53Z"/><path class="c" d="M194.83,801.73c4,0,10.63,4.41,14.37,9.13,4.16,5.25,3.2,8.89-.59,10.07a8.19,8.19,0,0,1-2.4.35c-3.41,0-7.41-1.94-10.74-6.15-4.16-5.26-5.71-12-1.91-13.22a4.24,4.24,0,0,1,1.27-.18m0-8a12.21,12.21,0,0,0-3.65.54,10.83,10.83,0,0,0-7.21,7.28c-2,6.33,1.41,13.73,5.23,18.54,4.62,5.84,10.82,9.19,17,9.19a16.27,16.27,0,0,0,4.78-.71,12.35,12.35,0,0,0,8.39-8.05c1-3.18,1.1-8.3-3.91-14.62-4.79-6-13.41-12.17-20.64-12.17Z"/><path class="d" d="M153.31,916.11l-1.2,0c-4.06-.25-7.74-1.93-11.3-3.56A48.67,48.67,0,0,0,134.5,910a38.91,38.91,0,0,0-5.83-1c-3.85-.51-8.21-1.08-12.25-3.3-3.42-1.89-5.43-5-7.2-7.76a26.54,26.54,0,0,0-2.59-3.59,28.38,28.38,0,0,0-3.58-3c-2.58-1.93-5.52-4.12-7.11-7.53s-1.42-7.1-1.25-10.33a27.18,27.18,0,0,0,0-4.6,28.09,28.09,0,0,0-1.13-4.38c-1-3.11-2.09-6.63-1.36-10.4s3-6.47,5-9a28,28,0,0,0,2.79-3.85,28.64,28.64,0,0,0,1.77-4.42c1-3,2.2-6.48,4.9-9s6.37-3.57,9.52-4.4a27.69,27.69,0,0,0,4.31-1.39,26.8,26.8,0,0,0,3.89-2.46c2.64-1.87,5.63-4,9.39-4.47a14,14,0,0,1,1.59-.1,24.15,24.15,0,0,1,8.58,2.09,27.29,27.29,0,0,0,4.43,1.44,27,27,0,0,0,4.42.27c3.27,0,7,.06,10.4,1.94,4,2.23,6.85,5.61,9.33,8.59a39.75,39.75,0,0,0,4,4.38,48.49,48.49,0,0,0,5.52,4c3.28,2.14,6.67,4.35,9,7.66,2.68,3.73,3.76,8,4.71,11.76a38,38,0,0,0,1.72,5.68,51,51,0,0,0,3.7,6.6c1.95,3.12,4,6.35,4.75,9.88.42,1.9.81,3.44,1.12,4.68,1.63,6.36,1.6,8-2.26,15.07s-5.29,7.93-11.53,10c-1.22.4-2.73.89-4.56,1.55-3.4,1.23-7.2,1.24-10.88,1.26a51.2,51.2,0,0,0-7.55.4,38.46,38.46,0,0,0-5.73,1.58C161.22,914.87,157.42,916.11,153.31,916.11Z"/><path class="c" d="M135.36,819c4.07,0,8.15,2.67,12.25,3.46,4.32.83,9.59-.45,13.65,1.79,5.45,3,8.49,8.83,12.62,12.46,4.65,4.09,10.73,6.47,14,11,3.63,5.05,3.84,11.7,6,16.7,2.58,6,7.11,10.75,8.21,15.75,2.24,10.19,3.49,9.29-.73,17s-4.14,6.13-13.95,9.68c-4.81,1.74-11.28.47-17.69,1.47-5.11.8-10.53,3.87-16.37,3.87l-1,0c-5.51-.32-10.78-4.19-16.72-5.94-5.27-1.55-11.82-1-17.28-4-4.06-2.23-5.79-7.37-8.8-10.58s-8.1-5.42-10-9.46-.33-9.27-.89-13.74-3.4-9.05-2.54-13.53c.83-4.32,5.13-7.57,7.37-11.63s2.69-9.43,5.9-12.44,8.75-3.19,12.79-5.09,7.61-6,12.08-6.58a8.08,8.08,0,0,1,1.09-.07m0-8a18.18,18.18,0,0,0-2.09.13c-4.76.6-8.33,3.14-11.21,5.18a24.64,24.64,0,0,1-3.27,2.1,24.73,24.73,0,0,1-3.63,1.14c-3.43.91-7.69,2-11.24,5.35s-4.83,7.34-6,10.64a25.54,25.54,0,0,1-1.48,3.78,26.08,26.08,0,0,1-2.4,3.27c-2.2,2.71-4.93,6.09-5.81,10.71-.92,4.77.41,9,1.47,12.36a14.41,14.41,0,0,1,1,7.57c-.19,3.52-.42,7.89,1.61,12.24s5.53,6.94,8.35,9a24.83,24.83,0,0,1,3,2.5,24.72,24.72,0,0,1,2.15,3c1.93,3,4.32,6.72,8.63,9.09,4.7,2.59,9.67,3.24,13.66,3.76a36.6,36.6,0,0,1,5.22.92,44.94,44.94,0,0,1,5.78,2.34c3.71,1.7,7.92,3.62,12.73,3.91.47,0,1,0,1.43,0,4.75,0,8.87-1.35,12.5-2.54a37.43,37.43,0,0,1,5.1-1.43,48.25,48.25,0,0,1,7-.35c4,0,8.18,0,12.23-1.5,1.77-.64,3.18-1.1,4.43-1.5,7.54-2.45,9.6-4.22,13.8-11.84s4.6-10.31,2.64-18c-.33-1.27-.69-2.71-1.1-4.55-.92-4.2-3.13-7.73-5.26-11.14a47.72,47.72,0,0,1-3.42-6.07,36.9,36.9,0,0,1-1.52-5.07c-1-3.91-2.21-8.77-5.33-13.12-2.81-3.91-6.68-6.44-10.1-8.67a44,44,0,0,1-5.07-3.63,36.07,36.07,0,0,1-3.56-3.92c-2.57-3.1-5.78-6.95-10.48-9.54-4.31-2.37-8.74-2.41-12.29-2.44a23,23,0,0,1-3.71-.2,25,25,0,0,1-3.75-1.24,27.7,27.7,0,0,0-10-2.36Z"/><path class="e" d="M274.74,948.21c-1.23-.36-27.2-8.19-37.48-28-6.46,7.52-16.77,11.57-29.87,11.57a55.46,55.46,0,0,1-9.79-.8l-3-.57-.26-3c-.08-.91-1.59-20.8,16.87-36.31A36.45,36.45,0,0,1,195,855.61l.52-2.88,2.91-.38a38.27,38.27,0,0,1,4.75-.25c14.73,0,23.15,5.32,28,11.14a47.75,47.75,0,0,1,21.11-26.17l2.42-1.3,2.09,1.8a39,39,0,0,1,11.55,33.35,31,31,0,0,1,12.52-2.5,45.56,45.56,0,0,1,20.12,5.11l2.64,1.47-.69,2.93c-.2.86-4.69,19-26.41,27,3,3.9,5.19,10.24,5.29,20.45a102.81,102.81,0,0,1-2,19.85l-.9,4.22Z"/><path class="c" d="M254.09,840.6s16.62,14.38,8,39.34a25.81,25.81,0,0,1,18.74-7.52A41.7,41.7,0,0,1,299,877s-4.89,21-31.69,26.3c16.43,4.12,8.59,41,8.59,41s-31.66-9.3-37.73-33c-6.2,13.93-21,16.38-30.74,16.38a52.21,52.21,0,0,1-9-.73s-1.91-21.7,20.18-36.4c-23.75-11.43-19.65-34.31-19.65-34.31a35.46,35.46,0,0,1,4.24-.22c8.17,0,25.63,2.13,29.88,19.77.71-24.38,21.08-35.27,21.08-35.27m1.07-9.65-4.85,2.59a52.64,52.64,0,0,0-20.76,22.67c-6.65-5.24-15.7-8.11-26.42-8.11a44,44,0,0,0-5.27.28l-5.81.75-1,5.78a40.22,40.22,0,0,0,1.08,16.38A39.52,39.52,0,0,0,205,891.4c-16.15,16.25-14.69,35.41-14.61,36.34l.53,6,5.92,1.15a59.87,59.87,0,0,0,10.55.87c12,0,21.94-3.18,29.08-9.15,12.32,18,35.93,25.09,37.14,25.44l8.29,2.44,1.79-8.45a106.86,106.86,0,0,0,2-20.72c-.08-8.11-1.43-14.1-3.48-18.5,19.92-9.41,24.29-27.09,24.5-28l1.37-5.87L302.85,870a49.09,49.09,0,0,0-22.07-5.62,36.67,36.67,0,0,0-8.2.91,43,43,0,0,0-13.26-30.78l-4.16-3.6Z"/><path class="f" d="M254.9,896.77s-13.3,8.77-27.75-4"/><line class="g" x1="240.67" y1="897.91" x2="242.9" y2="882.5"/><path class="g" d="M235.34,897.14A11.21,11.21,0,0,1,234,885.7"/><path class="g" d="M246,898.68a11.19,11.19,0,0,0,4.54-10.58"/><path class="d" d="M410.82,108.42a35,35,0,0,1-9.52-1.67,28.44,28.44,0,0,0-5-1.1c-.42,0-.82-.05-1.21-.05a16.26,16.26,0,0,0-5.92,1.21,14.4,14.4,0,0,1-4.88,1.07h0c-2.65,0-5-1.15-7.46-3.63-5-5.13-3.47-9.32-2.33-12.38a15.82,15.82,0,0,0,1.29-7.12,28.7,28.7,0,0,0-1-5c-.9-3.5-1.92-7.46-1.32-11.83.51-3.64,2.31-6.82,4.06-9.9a38.71,38.71,0,0,0,2.87-5.72,32.23,32.23,0,0,0,1.22-5.3c.62-3.54,1.33-7.55,3.67-11.14,2-3.11,5-5.2,8-7.21a37.51,37.51,0,0,0,5-3.91,22.79,22.79,0,0,0,2.64-3.46c1.66-2.47,3.54-5.26,6.66-6.82a14.74,14.74,0,0,1,6.64-1.34c1,0,2.05.05,3,.11s1.74.1,2.53.1a12.16,12.16,0,0,0,1.6-.09,22.3,22.3,0,0,0,4-1.22A22.24,22.24,0,0,1,433,10.2a12,12,0,0,1,1.91.16c3.49.58,6.13,2.73,8.45,4.62a22.66,22.66,0,0,0,3.45,2.48,20.85,20.85,0,0,0,3.82,1.32c2.92.82,6.24,1.75,8.81,4.37s3.44,6,4.2,8.89a21.7,21.7,0,0,0,1.24,3.84,22.84,22.84,0,0,0,2.42,3.49c1.85,2.36,3.95,5,4.47,8.54s-.72,6.7-1.8,9.5a20.78,20.78,0,0,0-1.29,4,21.25,21.25,0,0,0-.08,4.13c.12,3,.26,6.45-1.41,9.65s-4.44,4.92-6.94,6.53a23.2,23.2,0,0,0-3.5,2.57,38.62,38.62,0,0,0-4,5c-2.07,2.88-4.21,5.85-7.36,7.83-3.63,2.27-7.66,2.9-11.21,3.46a33.23,33.23,0,0,0-5.32,1.12,38.67,38.67,0,0,0-5.77,2.76c-3.11,1.69-6.32,3.44-10,3.87A19,19,0,0,1,410.82,108.42Z"/><path class="c" d="M433,14.2a7.44,7.44,0,0,1,1.25.1c4,.68,7,4.78,10.71,6.71s8.66,1.92,11.62,4.94,2.93,8.12,4.72,11.71,5.91,6.8,6.51,10.83-2.4,8.19-3.08,12.25.84,8.9-1.09,12.59-6.67,5.13-9.7,8.1c-4.06,4-6.42,9.59-10.68,12.26-4.8,3-10.94,2.54-15.71,4.18-5.37,1.85-10,5.86-14.92,6.45a15.81,15.81,0,0,1-1.81.1c-5.2,0-10.06-2.45-14.24-2.76-.53,0-1-.06-1.51-.06-5.42,0-8.09,2.28-10.8,2.28-1.39,0-2.8-.6-4.6-2.44-5.61-5.71.63-7.39.1-16.91-.26-4.66-3.17-10.23-2.36-16.1.68-4.94,4.77-9.46,6.72-14.8,1.73-4.74,1.39-10.89,4.48-15.62,2.74-4.21,8.4-6.47,12.46-10.46,3-3,4.68-7.75,8.27-9.55a10.87,10.87,0,0,1,4.86-.92c1.84,0,3.74.21,5.56.21a14.31,14.31,0,0,0,2.19-.14c3.65-.54,7.39-2.95,11.05-2.95m0-8h0a25.51,25.51,0,0,0-9,2,21.32,21.32,0,0,1-3.23,1,6.87,6.87,0,0,1-1,0c-.67,0-1.46,0-2.29-.09-1-.06-2.11-.12-3.27-.12a18.62,18.62,0,0,0-8.42,1.76c-4.07,2-6.36,5.43-8.2,8.16a19.84,19.84,0,0,1-2.12,2.84,34.82,34.82,0,0,1-4.52,3.48c-3.08,2.13-6.57,4.54-9,8.32-2.79,4.27-3.6,8.91-4.26,12.63a30.13,30.13,0,0,1-1,4.62A36.68,36.68,0,0,1,374,56c-1.85,3.24-3.94,6.92-4.55,11.33-.71,5.15.47,9.7,1.41,13.37a26.8,26.8,0,0,1,.89,4.27,11.92,11.92,0,0,1-1,5.49c-1.25,3.37-3.58,9.64,3.23,16.58,3.19,3.25,6.57,4.83,10.31,4.83a18.09,18.09,0,0,0,6.2-1.3,12.6,12.6,0,0,1,4.6-1c.3,0,.6,0,.92,0a26.28,26.28,0,0,1,4.25,1,38.91,38.91,0,0,0,10.58,1.81,22.58,22.58,0,0,0,2.75-.16c4.42-.52,8.14-2.54,11.42-4.33a35.38,35.38,0,0,1,5.17-2.49,29.84,29.84,0,0,1,4.63-1c3.74-.59,8.38-1.32,12.71-4,3.82-2.39,6.3-5.84,8.49-8.88a34.79,34.79,0,0,1,3.56-4.45,19.84,19.84,0,0,1,2.87-2.07c2.77-1.79,6.22-4,8.32-8s2-8.49,1.86-11.66a20.85,20.85,0,0,1,0-3.31,20.88,20.88,0,0,1,1.07-3.2c1.21-3.1,2.71-7,2-11.54s-3.22-7.8-5.26-10.42a20.43,20.43,0,0,1-2-2.8,19.6,19.6,0,0,1-1-3.07c-.8-3.08-1.9-7.31-5.22-10.69s-7.52-4.55-10.58-5.42a19.41,19.41,0,0,1-3-1,20.32,20.32,0,0,1-2.77-2.05c-2.58-2.09-5.78-4.7-10.32-5.46A15.55,15.55,0,0,0,433,6.2Z"/><path class="d" d="M508.29,94.61a36.28,36.28,0,0,1-8.21-1.3c-1.66-.39-3.38-.8-5.06-1-1.2-.18-2.57-.24-4-.31-3.38-.15-7.21-.32-11-2-3.22-1.47-5.7-4-8.09-6.38-1.14-1.15-2.31-2.33-3.53-3.36-.76-.64-1.65-1.26-2.6-1.91-2.36-1.61-5-3.44-6.58-6.44s-1.53-6.37-1.47-9.24a28.24,28.24,0,0,0,0-3.08c-.08-.92-.28-1.95-.48-3-.55-2.82-1.16-6-.11-9.36s3.35-5.47,5.41-7.46c.82-.8,1.6-1.55,2.24-2.31s1.26-1.66,1.91-2.61c1.61-2.35,3.44-5,6.44-6.57a16,16,0,0,1,7.53-1.5l1.72,0,1.53,0c.62,0,1.11,0,1.54-.05.92-.08,1.95-.28,3-.49a28.58,28.58,0,0,1,5.45-.68,12.66,12.66,0,0,1,3.91.58c3.22,1,5.47,3.35,7.46,5.4a32,32,0,0,0,2.31,2.25c1.22,1,2.58,2,3.91,2.91,2.78,1.95,5.65,4,7.64,6.91C521.49,47,522.31,50.71,523,54c.31,1.42.6,2.75,1,3.91.53,1.62,1.22,3.24,1.89,4.81,1.29,3.05,2.63,6.2,2.85,9.48.11,1.7.26,3,.4,4.14.6,5.23.3,7.09-3.87,12s-6,5.55-11.21,5.83c-1.15.06-2.45.13-4.15.3a14.11,14.11,0,0,1-1.61.08Z"/><path class="c" d="M493.94,29.49a8.87,8.87,0,0,1,2.7.39c3.33,1.06,5.56,4.5,8.4,6.89,3.86,3.26,8.39,5.43,10.82,9,2.81,4.14,3,9.27,4.33,13.39,1.6,4.9,4.29,9.22,4.56,13.31.54,8.17,2,8-2.54,13.34s-4.57,3.89-12.71,4.73a9.55,9.55,0,0,1-1.2.06c-3.8,0-8.09-1.63-12.7-2.31-4.28-.64-9.37,0-13.92-2-3.94-1.8-6.84-5.9-10.7-9.16-2.84-2.39-6.6-4-8.2-7.13s-.77-7.26-1.07-10.82-1.86-7.39-.76-10.84,4.49-5.57,6.89-8.41,4-6.6,7.13-8.21a12.25,12.25,0,0,1,5.69-1.05c1.08,0,2.18.05,3.25.05.64,0,1.27,0,1.88-.07,2.65-.22,5.46-1.15,8.15-1.15m0-8h0a32.19,32.19,0,0,0-6.21.75c-1,.19-1.9.37-2.61.43-.32,0-.72,0-1.21,0l-1.45,0c-.6,0-1.2,0-1.8,0a20,20,0,0,0-9.36,1.94c-3.9,2-6.12,5.26-7.91,7.87-.59.87-1.15,1.68-1.66,2.29s-1.23,1.29-2,2c-2.27,2.2-5.1,4.94-6.43,9.12s-.58,8.36,0,11.33c.19,1,.36,1.91.42,2.62s0,1.65,0,2.65c-.06,3-.15,7.16,1.92,11.16s5.26,6.13,7.87,7.91c.86.6,1.68,1.15,2.28,1.67,1.08.91,2.14,2,3.27,3.11,2.52,2.55,5.38,5.43,9.28,7.21,4.47,2,8.89,2.23,12.45,2.39,1.34.06,2.61.12,3.61.26,1.51.23,3.07.6,4.73,1a38.78,38.78,0,0,0,9.14,1.41,19,19,0,0,0,2-.1c1.6-.16,2.85-.23,3.95-.29,6.24-.33,9.14-1.42,14.06-7.24s5.5-8.88,4.78-15.08c-.13-1.1-.27-2.34-.38-3.94-.26-4-1.74-7.43-3.16-10.78-.67-1.57-1.3-3-1.77-4.49-.31-1-.58-2.2-.87-3.52-.75-3.48-1.69-7.81-4.45-11.88-2.4-3.54-5.72-5.87-8.66-7.93-1.3-.92-2.54-1.79-3.62-2.7-.6-.51-1.29-1.22-2-2-2.2-2.27-4.94-5.1-9.12-6.43a16.78,16.78,0,0,0-5.12-.77Z"/><path class="d" d="M393.92,202.77c-.71,0-1.51,0-2.46-.05-1.26,0-2.7-.08-4.51-.08h-.3c-3.63,0-7.21-1.26-10.67-2.49a50.48,50.48,0,0,0-7.24-2.16,37.74,37.74,0,0,0-5.92-.45c-3.88-.11-8.28-.23-12.5-2-3.75-1.6-6.64-4.43-9.45-7.16a46.81,46.81,0,0,0-5.08-4.53,39.54,39.54,0,0,0-5.13-2.95c-3.46-1.77-7.37-3.78-10.42-7.24-2.59-2.93-3.42-6.54-4.16-9.72a26.35,26.35,0,0,0-1.23-4.26,28.11,28.11,0,0,0-2.36-4c-1.78-2.69-3.81-5.74-4.16-9.49S309.4,139,310.65,136a27.33,27.33,0,0,0,1.56-4.33,28.1,28.1,0,0,0,.41-4.5c.13-3.26.27-6.94,2.23-10.25s5-5.08,7.72-6.75a28.27,28.27,0,0,0,3.93-2.68,28.54,28.54,0,0,0,3.15-3.57c2-2.51,4.26-5.35,7.66-6.82a15.39,15.39,0,0,1,6.33-1.17c1.41,0,2.79.12,4.12.23s2.33.21,3.37.21c.42,0,.8,0,1.15-.05a27.88,27.88,0,0,0,4.49-1A27.44,27.44,0,0,1,364.22,94a13.64,13.64,0,0,1,2.9.3c3.68.82,6.45,3.21,8.9,5.31a28.49,28.49,0,0,0,3.68,2.85,26.45,26.45,0,0,0,4.08,1.74c3.07,1.13,6.55,2.41,9.13,5.34,3,3.46,4.56,7.59,5.89,11.24a39.91,39.91,0,0,0,2.28,5.47,49.32,49.32,0,0,0,3.86,5.6c2.36,3.12,4.81,6.35,5.93,10.26,1.26,4.41.83,8.79.46,12.65a39.21,39.21,0,0,0-.3,5.94,51.63,51.63,0,0,0,1.25,7.46c.79,3.6,1.6,7.32,1.14,10.9-.25,1.93-.4,3.51-.52,4.78-.62,6.54-1.21,8.13-7.21,13.42C401,201.34,399,202.77,393.92,202.77Z"/><path class="c" d="M364.22,98a9.36,9.36,0,0,1,2,.21c4.35,1,7.49,5.37,11.41,7.69s9.17,2.82,12.24,6.29c4.12,4.67,5,11.18,7.67,16,3,5.42,7.92,9.72,9.44,15,1.71,6-.33,12.3,0,17.75.42,6.47,3.06,12.52,2.41,17.59-1.32,10.34.16,9.92-6.41,15.72-4.44,3.91-5.6,4.53-9.12,4.53-1.63,0-3.76-.13-7-.13h-.34c-5.1,0-10.76-3.36-17.11-4.58-5.36-1-11.9.21-17.61-2.23-5.09-2.17-8.74-7.59-13.74-11.24-4.44-3.24-10.79-4.93-14.91-9.6-3.07-3.48-3-8.9-4.72-12.93-1.81-4.18-5.79-7.84-6.21-12.29s2.82-8.83,3.8-13.23-.14-9.67,2.18-13.59,7.38-5.4,10.86-8.46,5.71-8,9.75-9.72a11.83,11.83,0,0,1,4.74-.84c2.47,0,5.05.44,7.49.44.51,0,1,0,1.52-.07,3.81-.36,7.77-2.33,11.57-2.33m0-8h0a31,31,0,0,0-8.53,1.49,24.73,24.73,0,0,1-3.78.87c-.23,0-.49,0-.78,0-.87,0-1.92-.09-3-.19-1.35-.12-2.87-.25-4.46-.25a19.5,19.5,0,0,0-7.92,1.5c-4.32,1.87-7,5.27-9.2,8a25.23,25.23,0,0,1-2.67,3.06,26.53,26.53,0,0,1-3.36,2.27c-3,1.81-6.69,4.07-9.09,8.12s-2.64,8.59-2.78,12.13a24.77,24.77,0,0,1-.32,3.8,24.92,24.92,0,0,1-1.34,3.64c-1.36,3.25-3.06,7.3-2.61,12.07s2.86,8.4,4.8,11.33a24.65,24.65,0,0,1,2,3.39,22.78,22.78,0,0,1,1,3.57c.81,3.47,1.81,7.78,5.06,11.47,3.55,4,8,6.31,11.59,8.15a39.18,39.18,0,0,1,4.61,2.62,46.06,46.06,0,0,1,4.64,4.16c2.92,2.85,6.23,6.08,10.66,8,4.93,2.11,9.94,2.24,14,2.36a36,36,0,0,1,5.28.37,47.49,47.49,0,0,1,6.66,2c3.78,1.33,7.68,2.71,12,2.71H387c1.75,0,3.15,0,4.39.08,1,0,1.78.05,2.58.05,6.34,0,9.26-2,14.41-6.54,6.53-5.75,7.8-8.15,8.55-16,.13-1.31.27-2.78.51-4.65.55-4.27-.34-8.34-1.2-12.27a48.07,48.07,0,0,1-1.17-6.86,35.81,35.81,0,0,1,.29-5.29c.39-4,.87-9-.6-14.14-1.32-4.63-4.12-8.32-6.58-11.58a45.38,45.38,0,0,1-3.55-5.12,37.39,37.39,0,0,1-2-4.9c-1.37-3.78-3.09-8.49-6.64-12.51-3.25-3.69-7.41-5.22-10.75-6.45A24,24,0,0,1,381.74,99a24.73,24.73,0,0,1-3.11-2.43c-2.67-2.29-6-5.15-10.64-6.18a17.22,17.22,0,0,0-3.77-.4Z"/><path class="d" d="M282.16,146.44a36.48,36.48,0,0,1-8.24-1.19,34.19,34.19,0,0,0-3.9-.75,14.85,14.85,0,0,0-1.6-.09,17.24,17.24,0,0,0-4.33.63,15.4,15.4,0,0,1-3.69.57c-3.66,0-6-2.3-7.46-4-4.29-5.12-2.65-8.86-1.46-11.59a15.59,15.59,0,0,0,1.57-5.74,36,36,0,0,0-.05-4c-.17-3.34-.35-7.13.95-11.07,1.13-3.41,3.38-6.18,5.55-8.86,1-1.22,2-2.48,2.88-3.75.68-1,1.33-2.2,2-3.46,1.61-3,3.44-6.32,6.63-9,2.73-2.3,5.94-2.94,8.78-3.5a27.17,27.17,0,0,0,2.9-.68,28.6,28.6,0,0,0,2.91-1.15,20.39,20.39,0,0,1,8.05-2.16c.34,0,.67,0,1,0,3.43.3,6.15,2.1,8.55,3.68.94.61,1.82,1.2,2.66,1.63s1.74.78,2.74,1.18c2.7,1,5.75,2.24,8,5s2.93,5.94,3.5,8.78a27.17,27.17,0,0,0,.68,2.9,30.92,30.92,0,0,0,1.14,2.91c1.14,2.64,2.43,5.63,2.12,9.06s-2.09,6.15-3.67,8.55c-.62.94-1.2,1.82-1.64,2.66a29.29,29.29,0,0,0-1.17,2.74c-1.05,2.7-2.24,5.75-5,8-3.18,2.67-6.81,3.88-10,4.95-1.37.46-2.65.89-3.76,1.39-1.4.63-2.82,1.42-4.2,2.18-3,1.67-6.14,3.4-9.69,3.91A20.31,20.31,0,0,1,282.16,146.44Z"/><path class="c" d="M293.67,80.66q.33,0,.66,0c3.56.31,6.5,3.2,9.72,4.87s7.17,2.33,9.56,5.18,2.37,7,3.42,10.31,3.41,6.87,3.1,10.42-3.2,6.5-4.87,9.72-2.33,7.17-5.18,9.56c-3.86,3.23-8.89,4-12.83,5.75-4.57,2.06-8.54,5.16-12.83,5.78a15.72,15.72,0,0,1-2.26.16c-4.25,0-8.24-1.55-11.72-1.92a18.18,18.18,0,0,0-2-.11c-3.8,0-6,1.2-8,1.2-1.4,0-2.71-.59-4.4-2.6-4.48-5.36.47-6.32,1-14.49.29-4.09-.91-9.17.71-14.06,1.36-4.12,5.11-7.49,7.93-11.62,2.44-3.57,4.05-8.39,7.92-11.63,2.84-2.39,7-2.37,10.31-3.42s6.44-3.13,9.76-3.13m0-8h0A23.87,23.87,0,0,0,284,75.15c-.93.4-1.81.78-2.53,1a23.76,23.76,0,0,1-2.48.56c-3,.6-7,1.41-10.57,4.36-3.77,3.15-5.88,7-7.57,10.13-.64,1.18-1.24,2.28-1.81,3.12-.78,1.14-1.71,2.28-2.69,3.49-2.29,2.82-4.88,6-6.23,10.13-1.54,4.65-1.33,9-1.16,12.52a30.53,30.53,0,0,1,.06,3.5,11.87,11.87,0,0,1-1.24,4.41c-1.34,3.06-3.83,8.74,2.05,15.77,1.13,1.35,4.58,5.46,10.53,5.46a18.88,18.88,0,0,0,4.63-.68,13.38,13.38,0,0,1,3.39-.52c.37,0,.77,0,1.17.06a33.74,33.74,0,0,1,3.44.68,40.66,40.66,0,0,0,9.13,1.29,23.81,23.81,0,0,0,3.41-.24c4.27-.62,7.88-2.61,11.06-4.37,1.36-.75,2.65-1.47,3.9-2,.93-.42,2.12-.82,3.39-1.24,3.36-1.13,7.54-2.53,11.3-5.68,3.52-2.95,5-6.82,6.14-9.65.35-.9.68-1.75,1-2.35s.87-1.46,1.43-2.31c1.75-2.66,3.93-6,4.32-10.4s-1.18-8.07-2.43-11a25,25,0,0,1-1-2.53c-.2-.63-.38-1.53-.57-2.48-.59-3-1.4-7-4.35-10.57s-6.82-5-9.65-6.14c-.9-.35-1.75-.68-2.35-1s-1.46-.88-2.31-1.44c-2.66-1.74-6-3.92-10.4-4.31-.45,0-.9-.06-1.36-.06Z"/><path class="d" d="M41.9,160.92a12.3,12.3,0,0,1-5.31-1.38c-6.48-3.1-6.45-7.57-6.43-10.83a15.88,15.88,0,0,0-1.22-7.13,28.2,28.2,0,0,0-2.68-4.39c-2-3-4.35-6.36-5.29-10.66-.77-3.6-.16-7.21.43-10.7a38.43,38.43,0,0,0,.73-6.36,32.21,32.21,0,0,0-.66-5.39c-.63-3.54-1.34-7.55-.37-11.72.84-3.63,3-6.62,5-9.51a37.34,37.34,0,0,0,3.4-5.4A22.62,22.62,0,0,0,30.8,73.3c.72-2.89,1.53-6.16,3.93-8.68S40.5,61,43.39,60.15a22,22,0,0,0,3.88-1.41,21.58,21.58,0,0,0,3.36-2.52c2.3-1.94,4.9-4.14,8.41-4.79a12.2,12.2,0,0,1,2.12-.19,22.7,22.7,0,0,1,7.4,1.64A22.78,22.78,0,0,0,72.64,54a11.73,11.73,0,0,0,1.28.07c.84,0,1.78-.07,2.76-.15s2.27-.17,3.46-.17a14.26,14.26,0,0,1,6.32,1.26c3.31,1.58,5.27,4.42,7,6.92a22,22,0,0,0,2.48,3.18A23.44,23.44,0,0,0,99.4,67.6c2.55,1.59,5.43,3.38,7.12,6.49s1.62,6.55,1.56,9.55a22.19,22.19,0,0,0,.15,4.19,22.56,22.56,0,0,0,1.35,3.91c1.15,2.79,2.45,6,2,9.55s-2.48,6.14-4.28,8.51a22.63,22.63,0,0,0-2.41,3.61,37.32,37.32,0,0,0-2.06,6c-1,3.41-2,6.94-4.25,9.87-2.63,3.38-6.2,5.35-9.34,7.09a32.57,32.57,0,0,0-4.61,2.87,39.76,39.76,0,0,0-4.49,4.57c-2.34,2.65-4.76,5.4-8,7-3.94,2-8,2.31-11.61,2.6a28.31,28.31,0,0,0-5.1.68,15.86,15.86,0,0,0-6.31,3.53c-1.83,1.5-3.9,3.2-7.15,3.2Z"/><path class="c" d="M61.16,55.24c3.58,0,7.31,2.28,11,2.76a13.19,13.19,0,0,0,1.8.11c2,0,4.15-.32,6.22-.32a10.47,10.47,0,0,1,4.59.87c3.82,1.82,5.54,6.63,8.45,9.39s7.88,4.36,9.82,8,.55,8.52,1.3,12.56,3.83,8.08,3.29,12.2-4.52,7.11-6.34,10.93c-2.45,5.14-2.76,11.22-5.85,15.18-3.48,4.46-9.4,6.13-13.32,9.31-4.41,3.58-7.36,8.92-11.82,11.16-5.28,2.67-11.49,1.73-16,3-7.32,2.06-8.53,6.58-12.38,6.58a8.41,8.41,0,0,1-3.59-1c-7.22-3.45-1.94-7.17-5.7-15.93-1.84-4.29-6.47-8.53-7.73-14.32-1.05-4.87,1.25-10.52,1.25-16.2,0-5-2.41-10.71-1.13-16.22,1.13-4.89,5.67-9,8.12-14.09,1.82-3.82,1.74-8.89,4.51-11.8s8-3.17,11.55-5.11,6.54-6.14,10.59-6.89a7.19,7.19,0,0,1,1.39-.13m0-8a15.74,15.74,0,0,0-2.85.26c-4.55.85-7.72,3.52-10.26,5.67a20.71,20.71,0,0,1-2.68,2,20.2,20.2,0,0,1-3.12,1.09c-3,.91-7.2,2.16-10.42,5.55s-4.12,7.28-4.91,10.48a20.7,20.7,0,0,1-1,3.39,35.44,35.44,0,0,1-3.06,4.81c-2.16,3.06-4.62,6.52-5.64,10.91-1.15,5-.33,9.6.33,13.33a29.46,29.46,0,0,1,.6,4.69,36.12,36.12,0,0,1-.68,5.7c-.62,3.68-1.32,7.85-.39,12.2,1.1,5.08,3.76,9,5.9,12.08a25.56,25.56,0,0,1,2.3,3.71,12,12,0,0,1,.9,5.52c0,3.59-.07,10.28,8.7,14.47a16.26,16.26,0,0,0,7,1.77c4.68,0,7.69-2.47,9.69-4.11A12,12,0,0,1,56.45,158a27.16,27.16,0,0,1,4.32-.55c3.77-.29,8.46-.66,13.1-3,4-2,6.77-5.18,9.24-8a35.05,35.05,0,0,1,4-4.11,29.93,29.93,0,0,1,4-2.48c3.31-1.83,7.43-4.11,10.57-8.13,2.77-3.55,3.92-7.64,4.94-11.25a34.39,34.39,0,0,1,1.82-5.4,20.61,20.61,0,0,1,2-2.93c2-2.63,4.47-5.9,5.06-10.4s-1-8.66-2.24-11.59a19.12,19.12,0,0,1-1.11-3.12,19.36,19.36,0,0,1-.09-3.37c.07-3.33.16-7.47-2-11.54s-5.69-6.23-8.51-8a21.31,21.31,0,0,1-2.83-2,19.14,19.14,0,0,1-2-2.56c-1.81-2.62-4.29-6.21-8.56-8.25a18.33,18.33,0,0,0-8-1.65c-1.35,0-2.63.1-3.76.18-.91.07-1.77.14-2.46.14a5.2,5.2,0,0,1-.75,0,21.49,21.49,0,0,1-3.3-1,26.26,26.26,0,0,0-8.71-1.86Z"/><path class="d" d="M137,111.34c-.47,0-.94,0-1.42-.06-3.53-.27-6.71-1.77-9.78-3.22-1.46-.69-3-1.4-4.47-2-.93-.34-2-.61-3.09-.9-2.77-.71-5.91-1.51-8.39-3.8s-3.62-5.46-4.55-8.18a28.33,28.33,0,0,0-1.08-2.88,30.47,30.47,0,0,0-1.5-2.69c-1.47-2.47-3.15-5.27-3.29-8.76s1.27-6.29,2.52-8.86c.5-1,1-2,1.32-2.94a31.47,31.47,0,0,0,.89-3.1c.71-2.76,1.52-5.9,3.81-8.39s5.46-3.61,8.18-4.54c1-.36,2-.7,2.88-1.08a30.47,30.47,0,0,0,2.69-1.5c2.47-1.48,5.27-3.15,8.76-3.3h.46c3.18,0,5.95,1.35,8.4,2.53A30.31,30.31,0,0,0,142.27,49c1.49.55,3.1,1,4.66,1.4,3.28.89,6.68,1.8,9.55,3.87,3.36,2.43,5.4,5.67,7.21,8.54a40,40,0,0,0,2.25,3.33c1.05,1.34,2.26,2.63,3.42,3.88,2.27,2.42,4.6,4.92,5.93,7.93.69,1.56,1.27,2.72,1.79,3.75,2.36,4.7,2.72,6.56.49,12.64s-3.7,7.25-8.54,9.31c-1.06.45-2.26,1-3.79,1.71-3,1.44-6.36,1.83-9.66,2.22-1.69.19-3.45.4-5.11.74a38.31,38.31,0,0,0-3.88,1.09,31.59,31.59,0,0,1-9.6,1.9Z"/><path class="c" d="M130.93,49.18c3.38,0,6.57,2.36,10,3.61,4.73,1.73,9.74,2.22,13.25,4.76,4.06,2.93,6,7.68,8.65,11.09,3.18,4,7.19,7.2,8.84,11,3.3,7.49,4.59,6.84,2.18,13.4s-3,5.23-10.32,8.8c-3.69,1.79-8.78,1.61-13.83,2.64-3.93.81-8.11,2.91-12.67,2.91-.37,0-.73,0-1.11,0-4.31-.34-8.44-3.21-13.18-4.94-3.49-1.28-7.58-1.52-10.15-3.89s-3.21-6.56-4.71-9.8-4.28-6.31-4.43-9.93S105.73,72,107,68.48s1.52-7.58,3.89-10.15,6.56-3.21,9.8-4.71,6.31-4.28,9.93-4.43h.3m0-8h-.63c-4.5.19-8.05,2.32-10.65,3.87-.85.51-1.66,1-2.31,1.3s-1.54.6-2.49.92c-2.86,1-6.77,2.31-9.83,5.62s-4,7-4.74,10.11c-.26,1-.51,2-.78,2.71a27.86,27.86,0,0,1-1.16,2.58c-1.38,2.84-3.1,6.38-2.92,10.77s2.31,8.05,3.86,10.64a26.25,26.25,0,0,1,1.3,2.32c.3.65.6,1.54.93,2.49,1,2.86,2.3,6.77,5.62,9.83s7,4,10.1,4.74c1,.26,2,.5,2.72.78,1.32.48,2.69,1.13,4.13,1.81,3.24,1.53,6.92,3.26,11.18,3.59.57,0,1.15.07,1.73.07a35.28,35.28,0,0,0,10.8-2.09c1.28-.4,2.49-.78,3.48-1,1.5-.31,3.09-.49,4.78-.69,3.62-.42,7.37-.86,10.94-2.59,1.44-.7,2.59-1.19,3.61-1.63,5.74-2.44,8.1-4.46,10.72-11.62s2.14-10.22-.67-15.8c-.49-1-1.05-2.1-1.7-3.57-1.6-3.63-4.17-6.39-6.66-9.05-1.16-1.24-2.26-2.41-3.2-3.61-.62-.8-1.3-1.87-2-3-1.9-3-4.26-6.76-8.25-9.64-3.46-2.5-7.39-3.56-10.85-4.49-1.54-.42-3-.81-4.32-1.29-.75-.28-1.64-.71-2.58-1.17-2.69-1.3-6-2.93-10.14-2.93Z"/><path class="a" d="M202.82,5.41s-15.21,54.3-8.71,106.3"/><path class="b" d="M202.89,10.61a9.57,9.57,0,0,1-2.19-.26c-3.62-.84-6.31-3.55-7.57-7.61-1.13-3.62-1.07-8.11.15-13.36C195.22-18.9,201.2-32,209-32a7.1,7.1,0,0,1,1.53.17C218.61-30,219-15.12,216.64-5.17s-7.45,15.78-13.75,15.78Z"/><path class="c" d="M209-28a2.56,2.56,0,0,1,.62.07c4.3,1,5.32,12.38,3.1,21.88-2,8.56-5.94,12.69-9.85,12.69a5.53,5.53,0,0,1-1.28-.15c-4.3-1-6.65-6.67-4.43-16.18C199.29-18.76,204.79-28,209-28m0-8c-11,0-17.65,16-19.63,24.5-3.82,16.34,3.22,24.1,10.4,25.78a14.11,14.11,0,0,0,3.1.36c8.29,0,14.88-7.06,17.64-18.87a50.28,50.28,0,0,0,1.05-16.93C221-25.88,218.91-34,211.46-35.75A10.5,10.5,0,0,0,209-36Z"/><path class="a" d="M217.72,29.91S200,41.13,194.34,38.57"/><path class="a" d="M180.89,23.88s7.48,16,13.45,14.69"/><path class="b" d="M222.33,38.3c-4.4,0-7.89-1.93-9.58-5.29-2.32-4.64-1-12.09,10.46-17.83,5.34-2.68,11.62-4.35,16.39-4.35,5.61,0,7.93,2.3,8.9,4.22,1.17,2.32,1.47,6.25-3.73,11.8a42.39,42.39,0,0,1-11.47,8.41,25,25,0,0,1-11,3Z"/><path class="c" d="M239.6,14.83c2.64,0,4.63.62,5.33,2,1.79,3.57-5.53,10.87-13.43,14.83a21.15,21.15,0,0,1-9.17,2.62c-3,0-5-1.15-6-3.09-1.8-3.57.78-8.49,8.68-12.46,4.81-2.41,10.48-3.92,14.59-3.92m0-8c-5.43,0-12.23,1.79-18.18,4.77-5.07,2.55-8.8,5.64-11.1,9.18-2.93,4.52-3.34,9.63-1.14,14,2.39,4.76,7.18,7.5,13.15,7.5a28.8,28.8,0,0,0,12.76-3.47c9.58-4.8,22-15.59,17-25.57-1.21-2.4-4.43-6.43-12.48-6.43Z"/><path class="b" d="M177.58,27.44c-2.8,0-8.18-1.38-12.75-10.61A38.49,38.49,0,0,1,161.07,4.4c-.76-7,1.72-9.84,3.93-10.94a6.34,6.34,0,0,1,2.87-.66c6.29,0,12.92,8.77,15.84,14.67,5.27,10.62,2,16.91-2.3,19.07a8.49,8.49,0,0,1-3.83.9Z"/><path class="c" d="M167.87-3.2c3.45,0,9.07,6,12.26,12.45,3.55,7.15,2.74,12.11-.5,13.71a4.54,4.54,0,0,1-2,.48c-2.91,0-6.33-2.65-9.17-8.38-3.55-7.16-4.87-16.41-1.63-18a2.45,2.45,0,0,1,1.09-.24m0-8a10.28,10.28,0,0,0-4.65,1.08C160.48-8.76,156-5,157.1,4.83a42.47,42.47,0,0,0,4.14,13.78c5.54,11.17,12.61,12.83,16.34,12.83a12.49,12.49,0,0,0,5.6-1.31,13.32,13.32,0,0,0,7.23-11.38c.27-3.95-.77-8.34-3.11-13.06C184.19-.58,176.59-11.2,167.87-11.2Z"/><path class="a" d="M218.48,68.83s-20.74,8.24-27.39,6.35"/><path class="a" d="M175.32,64.4s8.78,11.76,15.77,10.78"/><path class="b" d="M223.87,76.05c-5.89,0-8.77-2-10.15-3.76a6.63,6.63,0,0,1-1.22-6.13c1.16-3.83,5.52-6.88,13.31-9.33a66.05,66.05,0,0,1,18.3-3.07c4.75,0,7.73,1,9.36,3a5.49,5.49,0,0,1,.94,5.09c-2,6.74-16.9,11.59-18.59,12.12a40.64,40.64,0,0,1-11.95,2.1Z"/><path class="c" d="M244.11,57.76c3.08,0,5.41.46,6.24,1.48,2.1,2.62-6.48,8-15.73,10.89a36.7,36.7,0,0,1-10.75,1.92c-3.46,0-5.88-.84-7-2.27-2.1-2.62.92-6.23,10.17-9.14a62.51,62.51,0,0,1,17.1-2.88m0-8A70.43,70.43,0,0,0,224.61,53c-9.15,2.88-14.36,6.8-15.94,12a10.56,10.56,0,0,0,1.93,9.79c1.93,2.4,5.79,5.26,13.27,5.26A44.34,44.34,0,0,0,237,77.76a61.29,61.29,0,0,0,12.23-5.32c5.08-3,7.93-6,9-9.45a9.45,9.45,0,0,0-1.65-8.75c-3.22-4-8.67-4.48-12.48-4.48Z"/><path class="b" d="M171.45,68.08c-5,0-10-2.79-13.88-7.67-3-3.83-6-10-4.54-14.87a6.83,6.83,0,0,1,4.58-4.65,8.17,8.17,0,0,1,2.46-.36c5.68,0,13.36,5.42,17.51,10.65,3.92,5,3.92,8.7,3.22,11A8.29,8.29,0,0,1,175,67.55a12.23,12.23,0,0,1-3.59.53Z"/><path class="c" d="M160.07,44.53c4.05,0,10.64,4.42,14.37,9.13,4.16,5.26,3.21,8.89-.59,10.07a8.19,8.19,0,0,1-2.4.35c-3.41,0-7.41-1.94-10.74-6.15-4.16-5.25-5.7-12-1.91-13.22a4.24,4.24,0,0,1,1.27-.18m0-8a12.21,12.21,0,0,0-3.65.54,10.83,10.83,0,0,0-7.21,7.28c-2,6.33,1.42,13.73,5.23,18.55,4.62,5.84,10.82,9.18,17,9.18a16.22,16.22,0,0,0,4.78-.71,12.31,12.31,0,0,0,8.39-8.05c1-3.18,1.1-8.29-3.91-14.62-4.78-6.05-13.41-12.17-20.64-12.17Z"/><path class="d" d="M255.42,253.65l-1.19,0c-4.06-.25-7.74-1.93-11.3-3.56a49.25,49.25,0,0,0-6.31-2.54,39.15,39.15,0,0,0-5.83-1c-3.85-.51-8.21-1.08-12.25-3.3-3.42-1.89-5.43-5-7.2-7.76a26.54,26.54,0,0,0-2.59-3.59,29.11,29.11,0,0,0-3.58-3c-2.59-1.93-5.52-4.12-7.12-7.53s-1.41-7.1-1.24-10.33a27.18,27.18,0,0,0,0-4.6,27.12,27.12,0,0,0-1.14-4.38c-1-3.11-2.08-6.63-1.36-10.4s3-6.46,5-9a28,28,0,0,0,2.79-3.85,29.25,29.25,0,0,0,1.77-4.42c1-3,2.2-6.47,4.9-9s6.37-3.57,9.52-4.4a18.07,18.07,0,0,0,8.19-3.85c2.64-1.87,5.64-4,9.4-4.47a14,14,0,0,1,1.59-.1,24,24,0,0,1,8.58,2.1,28.19,28.19,0,0,0,4.43,1.43,25.88,25.88,0,0,0,4.42.27c3.27,0,7,.06,10.4,1.94,4,2.23,6.85,5.61,9.33,8.59a39.75,39.75,0,0,0,4,4.38,47.62,47.62,0,0,0,5.52,4c3.28,2.14,6.67,4.35,9,7.66,2.68,3.73,3.76,8,4.7,11.76a39.19,39.19,0,0,0,1.73,5.68,50.91,50.91,0,0,0,3.69,6.6c2,3.12,4,6.35,4.75,9.88.42,1.9.81,3.44,1.13,4.68,1.62,6.36,1.6,8-2.26,15.07s-5.29,7.93-11.54,10c-1.21.4-2.72.89-4.55,1.55-3.4,1.23-7.21,1.24-10.89,1.26a51.14,51.14,0,0,0-7.54.4,38.14,38.14,0,0,0-5.73,1.58C263.34,252.41,259.54,253.65,255.42,253.65Z"/><path class="c" d="M237.48,156.55c4.07,0,8.14,2.67,12.25,3.46,4.32.83,9.59-.45,13.65,1.79,5.45,3,8.48,8.83,12.62,12.46,4.65,4.09,10.73,6.47,13.95,11,3.63,5.05,3.84,11.7,6,16.7,2.58,6,7.11,10.75,8.21,15.75,2.24,10.19,3.49,9.29-.74,17s-4.13,6.13-13.94,9.68c-4.81,1.74-11.28.47-17.69,1.47-5.12.8-10.54,3.87-16.38,3.87l-.95,0c-5.52-.32-10.78-4.19-16.72-5.94-5.28-1.55-11.83-1-17.28-4-4.06-2.23-5.8-7.37-8.8-10.58s-8.1-5.42-10-9.46-.33-9.27-.9-13.74-3.39-9-2.53-13.53c.83-4.32,5.13-7.57,7.36-11.63s2.7-9.43,5.9-12.44,8.75-3.19,12.79-5.08,7.62-6,12.09-6.59a8,8,0,0,1,1.09-.07m0-8a18,18,0,0,0-2.09.13c-4.76.6-8.34,3.14-11.21,5.18a25.31,25.31,0,0,1-3.27,2.1,24.73,24.73,0,0,1-3.63,1.14c-3.43.91-7.7,2-11.24,5.35s-4.83,7.34-5.95,10.64a26.69,26.69,0,0,1-1.48,3.78,27.13,27.13,0,0,1-2.4,3.27c-2.2,2.71-4.93,6.09-5.82,10.71-.91,4.77.41,9,1.48,12.36a24.46,24.46,0,0,1,1,3.68,25.52,25.52,0,0,1,0,3.89c-.19,3.52-.42,7.9,1.61,12.24s5.53,6.94,8.35,9a24.65,24.65,0,0,1,3.05,2.51,23.75,23.75,0,0,1,2.15,3c1.92,3,4.32,6.72,8.63,9.09,4.7,2.59,9.67,3.24,13.66,3.76a36.86,36.86,0,0,1,5.22.92,44.27,44.27,0,0,1,5.77,2.34c3.72,1.7,7.93,3.62,12.73,3.91.47,0,1,0,1.43,0,4.76,0,8.88-1.35,12.51-2.54a35.85,35.85,0,0,1,5.1-1.42,46.66,46.66,0,0,1,7-.36c4,0,8.18,0,12.23-1.5,1.77-.64,3.18-1.1,4.43-1.5,7.54-2.45,9.6-4.22,13.8-11.84s4.59-10.31,2.64-18c-.33-1.27-.69-2.71-1.1-4.55-.92-4.2-3.13-7.73-5.27-11.14a47.6,47.6,0,0,1-3.41-6.07,36.9,36.9,0,0,1-1.52-5.07c-1-3.91-2.21-8.77-5.33-13.11-2.81-3.92-6.69-6.45-10.11-8.68a43.83,43.83,0,0,1-5.06-3.63,36.07,36.07,0,0,1-3.56-3.92c-2.58-3.1-5.78-7-10.48-9.54-4.31-2.37-8.74-2.41-12.3-2.44a22.78,22.78,0,0,1-3.7-.2,25,25,0,0,1-3.75-1.24,27.7,27.7,0,0,0-10-2.36Z"/><path class="d" d="M145.05,240a36.47,36.47,0,0,1-8.25-1.2,38.15,38.15,0,0,0-3.9-.75c-.54,0-1.08-.08-1.6-.08a17.15,17.15,0,0,0-4.32.63,15.56,15.56,0,0,1-3.69.57c-3.67,0-6-2.3-7.47-4-4.29-5.13-2.65-8.86-1.45-11.59a15.85,15.85,0,0,0,1.57-5.75,36.07,36.07,0,0,0-.06-4c-.16-3.34-.35-7.13,1-11.07,1.12-3.41,3.37-6.18,5.54-8.87,1-1.22,2-2.48,2.88-3.75.69-1,1.34-2.19,2-3.45,1.61-3,3.44-6.32,6.62-9,2.74-2.29,6-2.93,8.78-3.5,1.06-.21,2.06-.41,2.91-.67s1.88-.71,2.91-1.15a20.39,20.39,0,0,1,8-2.16c.34,0,.68,0,1,0,3.43.3,6.14,2.09,8.54,3.67.94.62,1.83,1.2,2.67,1.64a27.17,27.17,0,0,0,2.74,1.17c2.69,1.06,5.74,2.25,8,5s2.93,5.95,3.49,8.78a28,28,0,0,0,.68,2.91,28.6,28.6,0,0,0,1.15,2.91C186,199,187.3,202,187,205.4s-2.09,6.15-3.67,8.54c-.62.94-1.2,1.83-1.64,2.67s-.78,1.74-1.18,2.74c-1,2.7-2.24,5.75-5,8-3.18,2.67-6.8,3.88-10,5-1.36.46-2.65.89-3.76,1.39-1.4.63-2.82,1.42-4.19,2.18-3,1.67-6.15,3.39-9.7,3.91A20.16,20.16,0,0,1,145.05,240Z"/><path class="c" d="M156.55,174.24c.22,0,.44,0,.67,0,3.55.32,6.5,3.2,9.71,4.88s7.17,2.33,9.56,5.17,2.37,7,3.42,10.32,3.42,6.86,3.1,10.42-3.2,6.5-4.87,9.71-2.33,7.18-5.17,9.56c-3.87,3.24-8.89,4-12.84,5.76-4.56,2.06-8.53,5.16-12.82,5.78a15.82,15.82,0,0,1-2.26.16c-4.26,0-8.25-1.55-11.72-1.92a18.49,18.49,0,0,0-2-.11c-3.79,0-6,1.2-8,1.2-1.41,0-2.72-.59-4.4-2.6-4.49-5.36.47-6.32,1-14.49.28-4.09-.91-9.18.7-14.06,1.37-4.12,5.11-7.49,7.94-11.62,2.44-3.58,4.05-8.39,7.91-11.63,2.85-2.39,7-2.38,10.32-3.43s6.44-3.12,9.75-3.12m0-8h0a23.77,23.77,0,0,0-9.62,2.49c-.94.4-1.82.78-2.53,1s-1.54.38-2.49.57c-3,.59-7,1.41-10.57,4.36-3.76,3.15-5.87,7-7.57,10.13-.64,1.17-1.24,2.28-1.81,3.12-.78,1.13-1.7,2.28-2.68,3.49-2.29,2.82-4.88,6-6.24,10.12-1.54,4.65-1.33,9-1.16,12.52a33.35,33.35,0,0,1,.07,3.5A11.87,11.87,0,0,1,110.7,222c-1.34,3.06-3.83,8.74,2.06,15.76,1.13,1.36,4.57,5.47,10.53,5.47a18.92,18.92,0,0,0,4.63-.69,13.29,13.29,0,0,1,3.38-.51c.38,0,.77,0,1.18.06.91.1,2.13.38,3.43.67a40.15,40.15,0,0,0,9.14,1.3,23.77,23.77,0,0,0,3.4-.24c4.28-.62,7.88-2.62,11.06-4.37,1.37-.76,2.65-1.47,3.91-2,.92-.41,2.12-.81,3.38-1.24,3.36-1.12,7.54-2.52,11.3-5.68,3.52-2.95,5-6.82,6.14-9.64.35-.9.69-1.76,1-2.35s.88-1.46,1.44-2.31c1.75-2.66,3.92-6,4.31-10.4s-1.17-8.07-2.43-11c-.4-.94-.78-1.82-1-2.53a24.36,24.36,0,0,1-.57-2.49c-.6-3-1.41-7.05-4.36-10.57s-6.82-5-9.64-6.13a24.38,24.38,0,0,1-2.35-1c-.66-.34-1.47-.87-2.32-1.43-2.65-1.75-6-3.92-10.39-4.32-.45,0-.91,0-1.37,0Z"/><path class="d" d="M275.72,990.17c-2.5,0-4.86-1-7.45-3.19-5.82-4.89-4.74-9.26-3.86-12.77a18.27,18.27,0,0,0,.57-8,34.77,34.77,0,0,0-1.54-5.43c-1.25-3.7-2.68-7.9-2.49-12.65.16-4,1.71-7.63,3.21-11.19a47.59,47.59,0,0,0,2.4-6.52,39.39,39.39,0,0,0,.86-5.85c.39-3.89.83-8.3,3-12.39,1.85-3.55,4.84-6.19,7.74-8.75a46.81,46.81,0,0,0,5-4.84,27.26,27.26,0,0,0,2.58-4c1.6-2.78,3.41-5.93,6.55-7.89s6.95-2.27,10.2-2.48a26,26,0,0,0,4.49-.52,28.11,28.11,0,0,0,4.29-1.66c2.71-1.22,5.78-2.6,9.22-2.6l.87,0c3.75.26,6.85,2.2,9.59,3.92a27.76,27.76,0,0,0,4.06,2.26,24.64,24.64,0,0,0,4.29,1.12c3.2.66,6.83,1.41,9.83,3.92s4.35,6,5.56,9a25.46,25.46,0,0,0,1.85,4,27.67,27.67,0,0,0,2.93,3.61c2.17,2.4,4.62,5.11,5.53,8.77s0,7.24-.78,10.37a27.09,27.09,0,0,0-.9,4.52,26.1,26.1,0,0,0,.27,4.51c.35,3.24.76,6.91-.68,10.47s-4.18,5.77-6.63,7.82a29.34,29.34,0,0,0-3.49,3.24,46.85,46.85,0,0,0-3.9,5.74c-2,3.3-4.1,6.7-7.27,9.14-3.67,2.82-7.93,4-11.69,5.07a40.07,40.07,0,0,0-5.61,1.86,48.7,48.7,0,0,0-6,3.5c-3.24,2.09-6.59,4.25-10.46,5.1a24.14,24.14,0,0,1-5.07.51,51.53,51.53,0,0,1-7.82-.77,37.62,37.62,0,0,0-5.34-.58h-.27a18.12,18.12,0,0,0-7.77,2,14,14,0,0,1-5.8,1.59Z"/><path class="c" d="M320.44,883.46c.19,0,.39,0,.59,0,4.45.31,8.21,4.19,12.43,5.9s9.5,1.42,13,4.4,4.26,8.35,6.59,12.08,6.9,6.89,8,11.22-1.47,9.15-1.78,13.65,1.58,9.54-.13,13.76-6.49,6.44-9.47,10c-4,4.77-6.19,10.93-10.55,14.28-4.91,3.77-11.5,4.17-16.53,6.46-5.65,2.58-10.33,7.17-15.66,8.33a19.68,19.68,0,0,1-4.22.42c-4.72,0-9.27-1.35-13.16-1.35h-.35c-7.36.16-10.14,3.55-13.49,3.55-1.4,0-2.9-.59-4.88-2.25-6.71-5.63-.32-8-1.9-18.31-.78-5.05-4.25-10.83-4-17.31.22-5.45,3.92-10.85,5.49-16.87,1.38-5.35.63-11.91,3.5-17.39,2.54-4.88,8.23-8.09,12.23-12.86,3-3.55,4.47-8.74,8.19-11.07s9.21-1.44,13.54-2.51,8.26-4.14,12.54-4.14m0-8c-4.29,0-7.93,1.63-10.86,2.95a26.1,26.1,0,0,1-3.61,1.43,24.48,24.48,0,0,1-3.79.41c-3.53.23-7.94.51-12.06,3.08s-6.15,6.26-7.89,9.28A25.64,25.64,0,0,1,280,896a42.93,42.93,0,0,1-4.56,4.41c-3,2.67-6.44,5.69-8.64,9.89-2.49,4.79-3,9.81-3.4,13.85a36.53,36.53,0,0,1-.75,5.24,45.83,45.83,0,0,1-2.21,6c-1.56,3.7-3.33,7.89-3.52,12.58-.22,5.49,1.39,10.26,2.69,14.1a32.73,32.73,0,0,1,1.38,4.75,14.3,14.3,0,0,1-.51,6.42c-.95,3.85-2.56,10.3,5.18,16.8,3.3,2.77,6.58,4.12,10,4.12a17.62,17.62,0,0,0,7.42-1.94,14.52,14.52,0,0,1,6.24-1.61h.18a36.52,36.52,0,0,1,4.74.53,53.52,53.52,0,0,0,8.42.82,26.88,26.88,0,0,0,5.92-.61c4.58-1,8.41-3.46,11.78-5.64a45.91,45.91,0,0,1,5.51-3.22,38.09,38.09,0,0,1,5-1.65c3.91-1.09,8.77-2.46,13-5.75,3.77-2.89,6.15-6.78,8.25-10.22a44.74,44.74,0,0,1,3.55-5.25,26.4,26.4,0,0,1,3-2.75c2.68-2.24,6-5,7.78-9.39s1.33-8.88.94-12.41a14.38,14.38,0,0,1,.53-7.6c.87-3.42,1.94-7.67.79-12.33s-4.08-7.87-6.44-10.48a25.3,25.3,0,0,1-2.51-3,24,24,0,0,1-1.52-3.38c-1.31-3.31-2.94-7.43-6.71-10.59s-8.11-4.06-11.59-4.77a24.84,24.84,0,0,1-3.6-.91,26.68,26.68,0,0,1-3.44-2c-3-1.87-6.68-4.19-11.44-4.52-.38,0-.76,0-1.14,0Z"/><path class="e" d="M148.78,212.7A126.47,126.47,0,0,1,146.35,188c.08-9,1.61-19.68,7.33-26.18-27.95-9.53-33.65-32.58-33.9-33.65l-.69-2.94,2.64-1.46a56.12,56.12,0,0,1,24.78-6.29,37.51,37.51,0,0,1,17,3.84c-4.17-26.81,13.08-42.14,13.91-42.85l2.08-1.8,2.43,1.29c.95.52,20.22,11.08,26.59,34.2,5.65-7.7,16.13-15.19,35.54-15.19a47,47,0,0,1,5.85.31l2.9.37.52,2.89c0,.3,4.66,28-21.21,44.29,23.93,19.26,22,44.48,21.92,45.62l-.27,3-3,.57a69.3,69.3,0,0,1-12.1,1c-16.83,0-29.91-5.4-37.75-15.4-4.77,9.92-13.4,18.84-25.36,26.13a100.65,100.65,0,0,1-21.79,10l-4.15,1.22Z"/><path class="c" d="M180.05,81.47s25.59,13.69,26.48,44.32c5.34-22.17,27.28-24.84,37.54-24.84a45.77,45.77,0,0,1,5.33.27s5.15,28.76-24.68,43.11c27.75,18.47,25.34,45.75,25.34,45.75a66.05,66.05,0,0,1-11.34.91c-12.18,0-30.83-3.08-38.63-20.59-7.62,29.79-47.4,41.47-47.4,41.47s-9.85-46.4,10.8-51.58c-33.67-6.72-39.82-33-39.82-33a52.46,52.46,0,0,1,22.84-5.78,32.44,32.44,0,0,1,23.55,9.44c-10.9-31.35,10-49.43,10-49.43M179,71.82l-4.16,3.6A48.42,48.42,0,0,0,163.69,91.1,53.35,53.35,0,0,0,159,115.24a43.15,43.15,0,0,0-12.44-1.78,60.85,60.85,0,0,0-26.74,6.79l-5.27,2.94,1.37,5.87c.26,1.1,5.79,23.5,31.6,34.63-3,5.4-5,13.15-5.13,24.25a132,132,0,0,0,2.51,25.59l1.8,8.44,8.28-2.43c1.53-.45,32.24-9.72,46.85-33.12,8.69,8.19,21.34,12.57,36.93,12.57a74.32,74.32,0,0,0,12.86-1.06l5.92-1.15.53-6c.1-1.16,2-25.56-19.4-45.62a48.7,48.7,0,0,0,18.65-45.35l-1-5.77-5.81-.75a51.55,51.55,0,0,0-6.36-.34c-6.16,0-15.31.84-24,4.85a39.59,39.59,0,0,0-10,6.57,63.59,63.59,0,0,0-26.26-29.95L179,71.82Z"/><path class="f" d="M179,152.05s16.71,11,34.86-5.05"/><line class="f" x1="196.91" y1="154.48" x2="194.11" y2="135.12"/><path class="f" d="M203.6,153.51a14.06,14.06,0,0,0,1.71-14.36"/><path class="f" d="M190.21,155.45a14.08,14.08,0,0,1-5.71-13.29"/><path class="e" d="M356.83,136a63.36,63.36,0,0,1-17.25-7.72c-8.78-5.69-14.39-12.91-16.54-21.17-7.16,5.58-19.23,11.27-38.66,11.28a78.3,78.3,0,0,1-10.88-.68l-4.27-.65,1-4.21C271,109.34,277.74,82,292.05,75,274.2,57.34,278.1,37.47,278.3,36.54l.62-2.95,3-.22c.07,0,.78,0,2,0,5.46,0,21.39,1.07,31.26,12.68C322,24.18,340.7,18.59,341.61,18.34l2.64-.76,1.65,2.2c.56.74,11.43,15.57,8.58,35.52a30,30,0,0,1,13.36-3c12.55,0,23.37,6.76,23.82,7.05l2.48,1.57-.75,2.83c-.07.25-6.52,23.43-32.27,27.09,11.21,23.62.63,42.44.14,43.29l-1.51,2.61Z"/><path class="c" d="M342.7,22.18s15,19.94,4.54,44.1a25.27,25.27,0,0,1,20.6-10c11.54,0,21.68,6.43,21.68,6.43S383.09,87,354.67,87.32c14.9,24.44,3.13,44.8,3.13,44.8s-32.2-8-31.76-33.44c-11,13.4-29.94,15.71-41.66,15.71a75.68,75.68,0,0,1-10.28-.63S282.52,77.31,299,77.31a11.16,11.16,0,0,1,2.2.22c-23.78-17.45-19-40.17-19-40.17s.61,0,1.68,0c6,0,26.29,1.38,33.1,19.72,2.9-28.36,25.71-34.86,25.71-34.86m3.1-9.2-5.29,1.51a45.79,45.79,0,0,0-26.93,24.45,39.79,39.79,0,0,0-10.51-6.08,53.84,53.84,0,0,0-19.18-3.54c-1.29,0-2.1.05-2.25.06l-6,.43-1.24,5.91c-.2,1-4,20.28,11.48,38.46q-7.11,5.71-12.76,18A116.22,116.22,0,0,0,266.3,112l-1.94,8.42,8.54,1.29a82.51,82.51,0,0,0,11.48.73c9.16,0,24.11-1.38,36.62-9,3.11,7,8.63,13.17,16.4,18.22a67.73,67.73,0,0,0,18.46,8.24l5.85,1.46,3-5.22c.5-.87,10.71-19,2-42.31a43,43,0,0,0,30.53-29l1.51-5.67-5-3.14c-.49-.31-12.26-7.67-26-7.67a35.52,35.52,0,0,0-8.9,1.1,56,56,0,0,0-9.84-32L345.8,13Z"/><path class="f" d="M316.31,76.75s9,14.64,29,8.72"/><line class="f" x1="329.7" y1="85.35" x2="334.55" y2="69.26"/><path class="f" d="M335.26,87a12.08,12.08,0,0,0,6.55-10.56"/><path class="f" d="M324.14,83.67a12.07,12.07,0,0,1,.38-12.41"/><path class="e" d="M42.4,97c-.49-.85-11.07-19.67.14-43.29A38.68,38.68,0,0,1,17.85,40.32a39.17,39.17,0,0,1-7.58-13.73l-.75-2.83L12,22.19c.45-.29,11.27-7,23.82-7a30,30,0,0,1,13.36,3c-2.85-19.95,8-34.78,8.58-35.52l1.65-2.2,2.64.75A41.83,41.83,0,0,1,88.51,8.85c9.87-11.61,25.8-12.69,31.26-12.69,1.18,0,1.89,0,2,.06l3,.21.62,3c.2.92,4.09,20.8-13.75,38.44,14.31,7.06,21,34.35,21.85,37.87l1,4.21-4.27.65a79.37,79.37,0,0,1-10.88.67c-19.43,0-31.5-5.7-38.66-11.27-2.15,8.26-7.76,15.47-16.54,21.17a63.36,63.36,0,0,1-17.25,7.72l-2.92.73Z"/><path class="c" d="M61-15s22.81,6.5,25.71,34.85C93.48,1.55,113.79.16,119.77.16c1.07,0,1.68,0,1.68,0s4.77,22.72-19,40.16a12,12,0,0,1,2.2-.21c16.5,0,24.92,36.44,24.92,36.44a75.68,75.68,0,0,1-10.28.63c-11.72,0-30.67-2.3-41.66-15.7C78.06,86.93,45.86,95,45.86,95S34.09,74.61,49,50.17c-28.42-.35-34.85-24.6-34.85-24.6s10.14-6.43,21.68-6.43a25.27,25.27,0,0,1,20.6,10C46,5,61-15,61-15m-3.1-9.2-3.3,4.4a56,56,0,0,0-9.84,32,35.52,35.52,0,0,0-8.9-1.1c-13.7,0-25.47,7.36-26,7.67L4.9,22l1.51,5.67A42.48,42.48,0,0,0,14.8,42.9,42.14,42.14,0,0,0,36.94,56.66c-8.72,23.28,1.49,41.44,2,42.31l3,5.22,5.85-1.46a67.73,67.73,0,0,0,18.46-8.24c7.77-5,13.3-11.21,16.4-18.23,12.51,7.6,27.46,9,36.62,9a83.55,83.55,0,0,0,11.48-.72l8.54-1.29-1.94-8.42a116.22,116.22,0,0,0-6.8-19.74q-5.62-12.31-12.76-18C133.27,18.84,129.48-.48,129.28-1.44L128-7.34l-6-.43c-.15,0-1-.07-2.25-.07a53.94,53.94,0,0,0-19.18,3.55A39.79,39.79,0,0,0,90.08,1.79,45.79,45.79,0,0,0,63.15-22.66l-5.29-1.51Z"/><path class="h" d="M87.35,39.6s-9,14.64-29,8.72"/><line class="h" x1="73.96" y1="47.2" x2="69.11" y2="31.11"/><path class="h" d="M68.4,48.87a12.06,12.06,0,0,1-6.54-10.56"/><path class="h" d="M79.52,45.52a12.07,12.07,0,0,0-.38-12.41"/><path class="d" d="M429.34,964.61l-1.19,0c-4.06-.24-7.74-1.93-11.3-3.55a48.77,48.77,0,0,0-6.31-2.55,40.48,40.48,0,0,0-5.83-1c-3.85-.5-8.21-1.07-12.25-3.3-3.42-1.89-5.43-5-7.2-7.75a26.06,26.06,0,0,0-2.59-3.6,27.53,27.53,0,0,0-3.58-3c-2.59-1.94-5.52-4.13-7.12-7.53s-1.41-7.11-1.24-10.34a27.18,27.18,0,0,0,0-4.6,28.09,28.09,0,0,0-1.13-4.38c-1-3.1-2.09-6.62-1.37-10.4s3-6.46,5-9a19.49,19.49,0,0,0,4.56-8.28c1-3,2.2-6.47,4.9-9s6.37-3.57,9.52-4.4a25.72,25.72,0,0,0,4.31-1.39,26.09,26.09,0,0,0,3.88-2.45c2.64-1.88,5.64-4,9.4-4.48a14,14,0,0,1,1.59-.09,24.15,24.15,0,0,1,8.58,2.09,28.19,28.19,0,0,0,4.43,1.43,25,25,0,0,0,4.42.27c3.27,0,7,.06,10.4,2,4,2.22,6.85,5.6,9.33,8.59a39.6,39.6,0,0,0,4,4.37,47.62,47.62,0,0,0,5.52,4c3.28,2.14,6.67,4.36,9,7.66,2.68,3.73,3.76,8,4.7,11.76a39.19,39.19,0,0,0,1.73,5.68,52.12,52.12,0,0,0,3.69,6.6c2,3.13,4,6.35,4.76,9.88.41,1.91.81,3.44,1.12,4.68,1.62,6.36,1.6,8.06-2.26,15.07s-5.29,7.94-11.54,10c-1.21.39-2.72.88-4.55,1.54-3.4,1.23-7.2,1.25-10.88,1.26a49.87,49.87,0,0,0-7.55.41,38,38,0,0,0-5.73,1.57C437.26,963.37,433.46,964.61,429.34,964.61Z"/><path class="c" d="M411.4,867.52c4.07,0,8.15,2.66,12.25,3.45,4.32.83,9.59-.45,13.65,1.79,5.45,3,8.49,8.84,12.62,12.47,4.65,4.08,10.73,6.47,13.95,10.95,3.63,5.05,3.84,11.7,6,16.71,2.58,6,7.11,10.75,8.21,15.74,2.24,10.19,3.49,9.29-.73,17s-4.14,6.13-13.95,9.68c-4.81,1.74-11.28.48-17.69,1.47-5.12.8-10.54,3.87-16.38,3.87l-.95,0c-5.52-.33-10.78-4.2-16.72-5.94-5.28-1.56-11.83-1-17.28-4-4.06-2.24-5.8-7.38-8.8-10.58s-8.1-5.43-10-9.47-.33-9.27-.89-13.74-3.4-9.05-2.54-13.53c.83-4.31,5.13-7.57,7.36-11.63s2.7-9.43,5.9-12.44,8.76-3.19,12.8-5.08,7.61-6,12.08-6.59a10.09,10.09,0,0,1,1.09-.06m0-8a16.18,16.18,0,0,0-2.09.13c-4.76.6-8.34,3.13-11.21,5.17a24.27,24.27,0,0,1-3.27,2.1,23.57,23.57,0,0,1-3.63,1.14c-3.43.91-7.7,2-11.24,5.36s-4.83,7.33-5.95,10.63a25.1,25.1,0,0,1-1.48,3.78,25.64,25.64,0,0,1-2.4,3.27c-2.2,2.72-4.93,6.1-5.82,10.72s.41,9,1.48,12.35a24.77,24.77,0,0,1,1,3.68,25.52,25.52,0,0,1,0,3.89c-.19,3.52-.42,7.9,1.61,12.24s5.53,6.94,8.35,9a24.8,24.8,0,0,1,3.05,2.51,23.75,23.75,0,0,1,2.15,3c1.92,3,4.32,6.72,8.63,9.09,4.7,2.59,9.67,3.24,13.66,3.77a35.59,35.59,0,0,1,5.22.91,46.44,46.44,0,0,1,5.78,2.34c3.71,1.7,7.92,3.63,12.73,3.91.47,0,.95,0,1.42,0,4.76,0,8.88-1.35,12.51-2.54a35.85,35.85,0,0,1,5.1-1.42,46.81,46.81,0,0,1,6.95-.36c4,0,8.18,0,12.23-1.5,1.77-.64,3.18-1.09,4.43-1.5,7.54-2.45,9.6-4.22,13.8-11.84s4.59-10.31,2.64-18c-.33-1.27-.69-2.71-1.1-4.55-.92-4.2-3.13-7.73-5.26-11.14a47,47,0,0,1-3.42-6.07,36.9,36.9,0,0,1-1.52-5.07c-1-3.9-2.21-8.76-5.33-13.11-2.81-3.92-6.69-6.44-10.1-8.68a44.32,44.32,0,0,1-5.07-3.62,37.24,37.24,0,0,1-3.56-3.93c-2.58-3.09-5.78-6.95-10.48-9.54-4.31-2.37-8.74-2.41-12.3-2.44a22.93,22.93,0,0,1-3.7-.2,25,25,0,0,1-3.75-1.24,27.71,27.71,0,0,0-10-2.35Z"/><path class="d" d="M42.93,902.48a36.37,36.37,0,0,1-8.24-1.2,39.21,39.21,0,0,0-3.9-.75,14.83,14.83,0,0,0-1.61-.08,17.15,17.15,0,0,0-4.32.63,15.48,15.48,0,0,1-3.69.57c-3.66,0-6-2.3-7.46-4-4.29-5.13-2.66-8.86-1.46-11.59a15.85,15.85,0,0,0,1.57-5.75,36,36,0,0,0-.06-4c-.16-3.34-.34-7.13,1-11.07,1.13-3.41,3.37-6.18,5.55-8.87,1-1.22,2-2.48,2.88-3.75.68-1,1.33-2.19,2-3.45,1.61-3,3.44-6.32,6.62-9,2.74-2.29,6-2.93,8.78-3.5,1.06-.21,2.06-.41,2.91-.67s1.88-.71,2.91-1.15a20.39,20.39,0,0,1,8-2.16c.33,0,.67,0,1,0,3.43.3,6.15,2.09,8.55,3.67a30.68,30.68,0,0,0,2.66,1.64,29.29,29.29,0,0,0,2.74,1.17c2.69,1.06,5.75,2.25,8,5s2.93,5.95,3.5,8.79c.21,1.06.41,2.06.67,2.9s.71,1.88,1.15,2.91c1.14,2.64,2.42,5.63,2.12,9.06s-2.09,6.15-3.67,8.55a30.68,30.68,0,0,0-1.64,2.66,29.29,29.29,0,0,0-1.17,2.74c-1.06,2.69-2.25,5.75-5,8-3.19,2.67-6.81,3.88-10,4.95-1.36.46-2.65.89-3.75,1.39-1.41.63-2.83,1.42-4.2,2.18-3,1.67-6.15,3.39-9.7,3.91A20.06,20.06,0,0,1,42.93,902.48Z"/><path class="c" d="M54.44,836.69l.66,0c3.55.32,6.5,3.2,9.71,4.88s7.18,2.32,9.56,5.17,2.38,7,3.43,10.32,3.41,6.86,3.1,10.42S77.7,874,76,877.22s-2.32,7.18-5.17,9.56C67,890,62,890.76,58,892.54c-4.56,2.06-8.53,5.16-12.82,5.78a15.82,15.82,0,0,1-2.26.16c-4.26,0-8.25-1.55-11.72-1.92a18.36,18.36,0,0,0-2-.11c-3.79,0-6,1.2-8,1.2-1.41,0-2.71-.59-4.4-2.6-4.49-5.36.47-6.32,1-14.49.29-4.09-.91-9.18.71-14.07,1.36-4.11,5.11-7.48,7.93-11.61,2.44-3.58,4.05-8.39,7.91-11.63,2.85-2.39,7-2.38,10.32-3.43s6.44-3.12,9.76-3.13m0-8h0a24,24,0,0,0-9.63,2.5c-.94.4-1.82.78-2.53,1s-1.54.38-2.49.57c-3,.59-7,1.41-10.57,4.36-3.76,3.15-5.87,7-7.56,10.13-.64,1.17-1.25,2.28-1.82,3.12-.77,1.13-1.7,2.28-2.68,3.49-2.29,2.82-4.88,6-6.24,10.12-1.54,4.65-1.32,9-1.15,12.52.06,1.33.12,2.59.06,3.5a11.87,11.87,0,0,1-1.24,4.42c-1.34,3.05-3.84,8.74,2.05,15.76,1.13,1.36,4.58,5.47,10.53,5.47A18.92,18.92,0,0,0,25.8,905a13.29,13.29,0,0,1,3.38-.51c.38,0,.78,0,1.18.06.91.1,2.14.38,3.44.67a40,40,0,0,0,9.13,1.3,23.91,23.91,0,0,0,3.41-.24c4.27-.62,7.88-2.62,11.06-4.37,1.36-.76,2.65-1.47,3.9-2,.92-.41,2.12-.81,3.39-1.24,3.35-1.12,7.53-2.52,11.3-5.68,3.52-2.95,5-6.82,6.13-9.64a25.52,25.52,0,0,1,1-2.35c.34-.66.87-1.46,1.43-2.31,1.75-2.66,3.93-6,4.32-10.4s-1.18-8.07-2.44-11c-.4-.94-.78-1.82-1-2.53s-.38-1.54-.57-2.49c-.59-3-1.41-7.05-4.36-10.57s-6.82-5-9.64-6.13a25.52,25.52,0,0,1-2.35-1c-.66-.34-1.46-.87-2.31-1.43-2.66-1.75-6-3.92-10.4-4.32-.45,0-.91-.06-1.36-.06Z"/><path class="e" d="M490.42,56c-1.14-.25-24.9-5.57-35.76-22.62-8.44,11-23.52,12.32-30.43,12.32a44.68,44.68,0,0,1-4.83-.23l-3-.36-.48-3c-.14-.82-2.81-18.67,12.65-34C413.72-.51,410.91-15.56,411.69-23l.31-2.91,2.87-.59a42.14,42.14,0,0,1,7.77-.67c9.53,0,17.2,2.75,22.49,7.94a43.83,43.83,0,0,1,17.39-24.63l2.32-1.47,2.21,1.64A35.84,35.84,0,0,1,479.9-14.53a29.52,29.52,0,0,1,13.26-3,42.42,42.42,0,0,1,16.26,3.42l2.74,1.27-.47,3c-.13.79-3,17.47-21.89,26.26,8.62,10.37,5.86,33.11,5.43,36.23L494.64,57Z"/><path class="c" d="M464.66-40.49s16,11.94,9.81,35.13C480-11.7,487-13.49,493.16-13.49a38.49,38.49,0,0,1,14.58,3.05s-3.05,19.31-27,25.93c15.17,2.65,10.51,36.64,10.51,36.64S462,45.8,454.88,24.71c-5.46,15.16-22.54,17-30.65,17a41.27,41.27,0,0,1-4.36-.2S416.7,22,435.75,7.2c-22.28-8.78-20.08-29.79-20.08-29.79a38.35,38.35,0,0,1,7-.59c8.08,0,20.86,2.31,25.25,16.05-1-22.14,16.77-33.36,16.77-33.36M465-50.2l-4.65,3a48.48,48.48,0,0,0-17.26,21.4c-5.53-3.48-12.47-5.33-20.48-5.33a45.73,45.73,0,0,0-8.57.75l-5.75,1.17-.61,5.84c-.8,7.66,1.72,22.44,14.77,32.33A45.05,45.05,0,0,0,412,42.82l1,6,6,.71a47,47,0,0,0,5.3.26c12.66,0,23-3.55,30.08-10.05,12.61,15.19,34.15,20,35.27,20.26L498,61.77l1.17-8.56a97.74,97.74,0,0,0,.48-19.07c-.59-7.06-2.09-12.32-4.12-16.2,17.18-10,20-26.31,20.09-27.14l.94-6-5.47-2.54a46.06,46.06,0,0,0-17.95-3.79,35.49,35.49,0,0,0-9.46,1.24,39.89,39.89,0,0,0-14.26-26.66L465-50.2Z"/><path class="f" d="M469.11,10.36s-11.47,8.83-25.42-1.8"/><line class="f" x1="456.29" y1="12.34" x2="457.29" y2="-1.78"/><path class="a" d="M328.62,728.48s21.82,52,21.82,104.41"/><path class="b" d="M328,733.72c-5.87,0-11.12-5.11-14.41-14a46.28,46.28,0,0,1-2.89-15.28c0-8.16,3.05-11,5.62-11.95a7,7,0,0,1,2.38-.42c7.46,0,14.63,11.87,17.39,19.35,1.87,5.06,2.47,9.52,1.81,13.25-.75,4.18-3.08,7.2-6.57,8.48A9.56,9.56,0,0,1,328,733.72Z"/><path class="c" d="M318.71,696c4.2,0,10.51,8.27,13.64,16.74,3.38,9.15,1.74,15.06-2.4,16.59a5.63,5.63,0,0,1-1.94.35c-3.7,0-7.79-3.65-10.66-11.41-3.38-9.16-3.78-20.57.36-22.09a2.81,2.81,0,0,1,1-.18m0-8h0a10.91,10.91,0,0,0-3.76.67c-11,4.06-9.07,21.58-5.09,32.37,3.9,10.58,10.52,16.64,18.16,16.64a13.56,13.56,0,0,0,4.71-.84c4.81-1.78,8.13-6,9.12-11.54.8-4.44.13-9.6-2-15.33-2.8-7.6-10.83-22-21.14-22Z"/><path class="a" d="M316.87,754.64s18.95,8.94,24.27,5.69"/><path class="a" d="M352.68,744.09s-5.45,16.82-11.54,16.24"/><path class="b" d="M311.23,763.66a27.69,27.69,0,0,1-9.15-1.78c-8.87-3.15-20.19-10.87-17.59-18.17.88-2.5,3.59-5.47,11.44-5.47a42.88,42.88,0,0,1,13.67,2.46c12.06,4.29,14.32,11.51,12.58,16.4C320.72,761.21,316.63,763.66,311.23,763.66Z"/><path class="c" d="M295.93,742.24a38.69,38.69,0,0,1,12.33,2.23c8.32,3,11.49,7.52,10.15,11.29-.85,2.4-3.33,3.9-7.18,3.9a23.85,23.85,0,0,1-7.82-1.55c-8.32-3-16.49-9.3-15.15-13.06.68-1.93,3.74-2.81,7.67-2.81m0-8h0c-10.72,0-14.13,5.09-15.21,8.13-3.74,10.54,9.92,19.69,20,23.28a31.79,31.79,0,0,0,10.49,2c7.17,0,12.67-3.45,14.72-9.23,1.65-4.62.6-9.64-2.87-13.77-2.71-3.23-6.8-5.83-12.15-7.73a46.82,46.82,0,0,0-15-2.69Z"/><path class="b" d="M355.32,747.29a8.6,8.6,0,0,1-2.83-.49,9.36,9.36,0,0,1-6-7.39c-.63-3.18-.18-7,1.32-11.25,2.32-6.66,8.17-16.57,14.74-16.57a6.41,6.41,0,0,1,2.09.35c2.33.82,5.14,3.28,5.25,10.37a38.53,38.53,0,0,1-2.18,12.8C365,742.85,360.51,747.29,355.32,747.29Z"/><path class="c" d="M362.58,715.59a2.22,2.22,0,0,1,.77.13c3.41,1.19,3.25,10.53.61,18.07-2.25,6.45-5.58,9.5-8.63,9.5a4.62,4.62,0,0,1-1.52-.26c-3.41-1.2-4.83-6-2.2-13.55,2.45-7,7.53-13.89,11-13.89m0-8h0c-9.31,0-16,12.1-18.52,19.25-1.74,5-2.23,9.46-1.47,13.34a13.3,13.3,0,0,0,8.58,10.4,12.54,12.54,0,0,0,4.16.71c3.3,0,11.5-1.45,16.18-14.86a42.62,42.62,0,0,0,2.41-14.19c-.16-9.89-5-13.06-7.93-14.08a10.34,10.34,0,0,0-3.41-.57Z"/><path class="a" d="M320.94,793.36s21.6,5.6,28,2.91"/><path class="a" d="M363.22,783.62s-7.26,12.74-14.31,12.65"/><path class="b" d="M312.74,801.41a46.72,46.72,0,0,1-8.37-.83c-1.74-.31-17.08-3.29-19.95-9.72a5.45,5.45,0,0,1,.31-5.17c1.17-1.91,4-4.45,15-4.45a71.26,71.26,0,0,1,12.45,1.11c8,1.47,12.73,4,14.36,7.62a6.59,6.59,0,0,1-.45,6.23C324,799.61,319.38,801.41,312.74,801.41Z"/><path class="c" d="M299.73,785.24a67.57,67.57,0,0,1,11.73,1c9.54,1.74,13,5,11.22,7.81-1.23,2-4.69,3.31-9.94,3.31a43.19,43.19,0,0,1-7.66-.76c-9.54-1.74-18.71-6-16.95-8.86,1.06-1.73,5.86-2.55,11.6-2.55m0-8h0c-10,0-15.71,2-18.41,6.36a9.38,9.38,0,0,0-.55,8.89c1.47,3.31,4.68,5.93,10.09,8.26a61.37,61.37,0,0,0,12.79,3.77,51,51,0,0,0,9.09.89c10.23,0,14.76-3.87,16.75-7.12a10.52,10.52,0,0,0,.71-9.95c-2.21-5-7.87-8.2-17.3-9.92a75.62,75.62,0,0,0-13.17-1.18Z"/><path class="b" d="M366,786.88a11.8,11.8,0,0,1-2.07-.18,8.28,8.28,0,0,1-6.39-4.65c-1-2.16-1.44-5.86,1.84-11.27S370,758,376.5,758a7.87,7.87,0,0,1,1.38.12,6.82,6.82,0,0,1,5.12,4c2.09,4.63-.13,11.15-2.67,15.33C376.75,783.36,371.38,786.88,366,786.88Z"/><path class="c" d="M376.5,762a3.63,3.63,0,0,1,.67.06c3.91.69,3.22,7.62-.26,13.35-3.08,5.08-7.31,7.51-11,7.51a7.67,7.67,0,0,1-1.37-.12c-3.91-.7-5.3-4.19-1.83-9.92C366,767.44,372.5,762,376.5,762m0-8h0c-3.82,0-7.92,1.75-12.17,5.19a38.11,38.11,0,0,0-8.41,9.54c-4.18,6.9-3.43,12-2.06,15a12.31,12.31,0,0,0,9.32,6.95,16.06,16.06,0,0,0,2.78.25c6.83,0,13.48-4.25,17.79-11.36,3.19-5.25,5.62-13,2.9-19a10.85,10.85,0,0,0-8.07-6.34,11.92,11.92,0,0,0-2.08-.18Z"/><path class="e" d="M318.05,932.84a128.09,128.09,0,0,1-2.43-24.71c.09-9,1.61-19.68,7.34-26.18-27.95-9.53-33.66-32.58-33.91-33.65l-.68-2.94L291,843.9a56.24,56.24,0,0,1,24.79-6.29,37.41,37.41,0,0,1,17,3.84c-4.18-26.81,13.08-42.14,13.91-42.86l2.08-1.8,2.42,1.3c1,.51,20.22,11.08,26.59,34.19,5.65-7.69,16.14-15.18,35.55-15.18a50.56,50.56,0,0,1,5.84.3l2.91.38.52,2.89c.05.29,4.66,28-21.21,44.28,23.93,19.27,22,44.49,21.91,45.63l-.26,3-3,.57a69.44,69.44,0,0,1-12.1,1c-16.83,0-29.92-5.41-37.75-15.41-4.78,9.93-13.4,18.85-25.36,26.14a100.37,100.37,0,0,1-21.8,10L319,937.07Z"/><path class="c" d="M349.33,801.62s25.59,13.69,26.48,44.32c5.34-22.17,27.28-24.84,37.54-24.84a45.77,45.77,0,0,1,5.33.27s5.15,28.76-24.69,43.11c27.76,18.47,25.35,45.74,25.35,45.74a65.36,65.36,0,0,1-11.34.92c-12.18,0-30.84-3.09-38.63-20.59C361.75,920.34,322,932,322,932s-9.84-46.39,10.81-51.57C299.09,873.72,293,847.39,293,847.39a52.46,52.46,0,0,1,22.84-5.78,32.43,32.43,0,0,1,23.54,9.44c-10.89-31.35,10-49.43,10-49.43M348.25,792l-4.16,3.6A48.25,48.25,0,0,0,333,811.25a53.08,53.08,0,0,0-4.73,24.14,43.17,43.17,0,0,0-12.45-1.78,60.63,60.63,0,0,0-26.73,6.79l-5.27,2.93,1.37,5.88c.25,1.1,5.79,23.49,31.6,34.63-3,5.4-5,13.15-5.14,24.25a132.42,132.42,0,0,0,2.52,25.59l1.79,8.44,8.29-2.43c1.53-.45,32.24-9.72,46.84-33.12,8.7,8.19,21.35,12.57,36.94,12.57a74.32,74.32,0,0,0,12.86-1.06l5.92-1.15.53-6c.1-1.16,2-25.56-19.4-45.62A48.71,48.71,0,0,0,426.55,820l-1-5.77-5.82-.75a51.11,51.11,0,0,0-6.35-.34c-6.16,0-15.32.84-24,4.85a39.14,39.14,0,0,0-10,6.57,63.59,63.59,0,0,0-26.26-29.95l-4.85-2.6Z"/><path class="f" d="M348.31,872.2s16.71,11,34.86-5.05"/><line class="f" x1="366.18" y1="874.63" x2="363.38" y2="855.26"/><path class="f" d="M372.88,873.66a14.08,14.08,0,0,0,1.71-14.36"/><path class="f" d="M359.49,875.6a14.08,14.08,0,0,1-5.71-13.29"/><path class="e" d="M131.34,870.81c-1.35-.09-30-2.23-39.42-23-6.35,7.17-15.59,12.68-27.2,16.15a89.26,89.26,0,0,1-20.95,3.65l-4.32.13.21-4.32a113.06,113.06,0,0,1,3.46-21.65c2.06-7.57,5.64-16.15,11.77-20.64-21.35-14.52-21-35.35-21-36.32l.09-3,2.92-.75a49.43,49.43,0,0,1,11.24-1.23c7.49,0,17,1.59,24.71,8,2.83-23.39,20.77-32.48,21.64-32.91l2.46-1.21,2,1.87c.7.65,14.45,13.68,15.14,34.42,5.43-4.07,12.23-6.17,20.17-6.17a53.62,53.62,0,0,1,18.21,3.37l2.72,1.11-.24,2.92c0,.27-2.3,24.89-27.72,33.24,15.73,21.81,8.48,42.79,8.14,43.74l-1,2.83Z"/><path class="c" d="M96.23,758.47s18.76,17.42,12.65,43.74c6.19-11.5,16.51-14.42,25.38-14.42a49.42,49.42,0,0,1,16.7,3.08s-2.05,25.69-30.72,31.24c19.54,22,11.37,44.71,11.37,44.71s-34-2.24-38.22-28c-13.18,23.7-49.74,24.74-49.74,24.74S45.64,822,64.29,822h.14c-27.22-13.27-26.56-37.11-26.56-37.11a45.35,45.35,0,0,1,10.25-1.11c8.84,0,21.29,2.45,28.5,14.63-2.26-29.19,19.61-39.93,19.61-39.93m1.41-9.61-4.94,2.43A46.77,46.77,0,0,0,70,781.07a44.37,44.37,0,0,0-21.88-5.3,52.74,52.74,0,0,0-12.23,1.36L30,778.63l-.17,6c0,1-.32,21.25,18.76,36.76-3.6,4.06-6.9,10.19-9.37,19.26a117.9,117.9,0,0,0-3.6,22.51l-.41,8.63,8.63-.25c1.4,0,29.15-1.05,47.16-17.23,4.4,6.57,11.12,11.83,19.95,15.52a69.36,69.36,0,0,0,20.09,4.94l6,.39,2-5.67c.35-1,7.36-21.22-5.83-43.15a43.87,43.87,0,0,0,25.64-34.86l.47-5.85-5.44-2.2a56.55,56.55,0,0,0-19.71-3.67,39,39,0,0,0-16.8,3.56,57.16,57.16,0,0,0-15.79-30.74l-4-3.75Z"/><path class="f" d="M79.54,818.45s11.78,13.14,30.87,3.51"/><line class="f" x1="94.47" y1="824.68" x2="96.42" y2="807.53"/><path class="f" d="M100.39,825.35a12.39,12.39,0,0,0,4.68-11.87"/><path class="f" d="M88.54,824a12.39,12.39,0,0,1-1.89-12.61"/><path class="a" d="M138.91,729s-20.26,43.61-17.15,58.54"/><path class="b" d="M140,733.16a7.87,7.87,0,0,1-2.21-.31c-4.18-1.23-8-6.19-5.12-16.15,1.76-6,6.53-14.91,12.49-14.91a6.16,6.16,0,0,1,1.66.23c6.61,1.94,6,13.29,4,20-2.95,10.07-8.55,11.15-10.82,11.15Z"/><path class="c" d="M145.15,705.79a2,2,0,0,1,.54.07c2.89.85,3.15,8.64,1.28,15-1.64,5.6-4.38,8.27-7,8.27a3.91,3.91,0,0,1-1.08-.15c-2.89-.85-4.28-4.8-2.41-11.19,1.76-6,5.77-12,8.65-12m0-8c-8.78,0-14.39,11.18-16.33,17.78-3.5,12,1.41,19.23,7.84,21.12a12.07,12.07,0,0,0,3.33.47c6.6,0,12.08-5.24,14.65-14,3-10.2,2.17-22.36-6.7-25a10.11,10.11,0,0,0-2.79-.39Z"/><path class="a" d="M150.7,755.15s-18.94,9-24.26,5.73"/><path class="b" d="M156.05,761.33c-4.49,0-7.92-2.09-9.17-5.59a8.48,8.48,0,0,1,1.79-8.4,18.94,18.94,0,0,1,8.27-5.23,33.07,33.07,0,0,1,10.67-1.93c6.46,0,8.74,2.59,9.52,4.76,2.31,6.49-7.25,12.63-13.83,15a22,22,0,0,1-7.25,1.41Z"/><path class="c" d="M167.61,744.18c2.95,0,5.24.66,5.75,2.11,1,2.84-5.13,7.62-11.4,9.86a18,18,0,0,1-5.91,1.18c-2.89,0-4.76-1.13-5.4-2.93-1-2.84,1.37-6.28,7.64-8.52a29,29,0,0,1,9.32-1.7m0-8a37.39,37.39,0,0,0-12,2.16c-11.75,4.2-14.74,12.44-12.49,18.75,1.82,5.08,6.78,8.24,12.94,8.24a25.72,25.72,0,0,0,8.59-1.64c10-3.58,19.36-11.38,16.26-20.09-1-2.77-4-7.42-13.29-7.42Z"/><path class="a" d="M114.87,744.66s5.48,16.81,11.57,16.22"/><path class="b" d="M112,744.84c-2.19,0-7.63-1-11-10.57-2.31-6.59-3.56-17.89,2.94-20.17a5.71,5.71,0,0,1,2-.34c7.84,0,12.88,14.1,12.93,14.24,3.44,9.79-.14,15-4.26,16.4a7.92,7.92,0,0,1-2.59.44Z"/><path class="c" d="M105.89,717.76c2.87,0,7.11,5.74,9.16,11.57,2.21,6.28,1,10.3-1.81,11.29a3.73,3.73,0,0,1-1.27.22c-2.55,0-5.32-2.53-7.21-7.9-2.21-6.28-2.36-14.07.48-15.07a2,2,0,0,1,.65-.11m0-8a10,10,0,0,0-3.3.56c-8.72,3.07-8.9,15.25-5.38,25.27,4.2,12,11.72,13.25,14.76,13.25a11.71,11.71,0,0,0,3.92-.67c6.32-2.22,10.84-9.73,6.71-21.5-2.21-6.28-8.21-16.91-16.71-16.91Z"/></svg>