<svg xmlns="http://www.w3.org/2000/svg" width="510" height="900" viewBox="0 0 510 900"><defs><style>.a{fill:#8c9c73;}.b{fill:#432d1e;}.c{fill:none;stroke-width:8px;}.c,.f{stroke:#432d1e;stroke-miterlimit:10;}.d{fill:#a88ad1;}.e,.f{fill:#c7b0d5;}.f{stroke-width:6px;}</style></defs><title>help</title><path class="a" d="M349.94,255a43,43,0,0,1-8.51-1.19,51.79,51.79,0,0,0-7.47-1.18l-.91,0a49.32,49.32,0,0,0-5,.37,59.13,59.13,0,0,1-6.38.45,23.23,23.23,0,0,1-6.28-.78c-3.93-1.08-7.18-3.49-10.32-5.82a49,49,0,0,0-5.64-3.8,40.86,40.86,0,0,0-5.49-2.24c-3.66-1.29-7.81-2.75-11.3-5.77-2.95-2.56-4.27-6-5.43-9.08a27,27,0,0,0-1.78-4.06,28,28,0,0,0-2.89-3.65c-2.13-2.43-4.54-5.18-5.39-8.84s.09-7.24.93-10.37a26.46,26.46,0,0,0,1-4.5,27.7,27.7,0,0,0-.19-4.52c-.32-3.24-.67-6.91.83-10.46s4.25-5.7,6.74-7.72a27.5,27.5,0,0,0,3.54-3.19,29.12,29.12,0,0,0,2.64-4c1.64-2.76,3.5-5.88,6.67-7.79s7-2.17,10.23-2.33a18,18,0,0,0,8.81-2.06C311,151.29,314,150,317.35,150c.36,0,.71,0,1.06,0,3.76.32,6.83,2.31,9.54,4.06a27.36,27.36,0,0,0,4,2.33,25.73,25.73,0,0,0,4.27,1.18c3.19.71,6.81,1.51,9.76,4.06,3.49,3,5.54,6.91,7.35,10.35a39.88,39.88,0,0,0,3,5.11,47.91,47.91,0,0,0,4.57,5c2.76,2.77,5.62,5.64,7.26,9.37,1.84,4.21,2,8.6,2.15,12.48a38.54,38.54,0,0,0,.51,5.92,50.59,50.59,0,0,0,2.24,7.22c1.26,3.46,2.57,7,2.59,10.65,0,2,.08,3.54.13,4.81.27,6.56-.11,8.22-5.34,14.27s-6.83,6.67-13.36,7.35c-1.27.13-2.85.3-4.78.57A18.2,18.2,0,0,1,349.94,255Z"/><path class="b" d="M317.35,154c.25,0,.49,0,.73,0,4.45.37,8.14,4.31,12.34,6.08s9.47,1.56,13,4.59c4.71,4.07,6.46,10.41,9.75,14.82,3.7,5,9.15,8.56,11.37,13.62,2.5,5.69,1.33,12.23,2.41,17.58,1.29,6.36,4.72,12,4.75,17.11.08,10.43,1.49,9.81-4.24,16.44s-5.32,5.14-15.66,6.57a13.87,13.87,0,0,1-1.84.12c-4.66,0-10.05-2-15.76-2.36-.37,0-.75,0-1.13,0-3.58,0-7.49.82-11.4.82a19.29,19.29,0,0,1-5.22-.64c-5.33-1.46-9.68-6.34-15.12-9.28-4.84-2.62-11.36-3.44-16.07-7.52-3.51-3-4.14-8.41-6.41-12.17s-6.79-7-7.81-11.34,1.61-9.13,2-13.62-1.44-9.57.33-13.76,6.59-6.35,9.62-9.85,4.6-8.67,8.36-10.94,9.22-1.31,13.57-2.32c4.15-1,8.23-3.95,12.46-3.95m0-8h0c-4.18,0-7.76,1.54-10.64,2.79a24.36,24.36,0,0,1-3.64,1.37,24,24,0,0,1-3.79.36c-3.54.17-7.95.39-12.1,2.9s-6.25,6.17-8,9.17a26.19,26.19,0,0,1-2.24,3.39,26.42,26.42,0,0,1-3,2.7c-2.71,2.2-6.08,4.93-7.91,9.27s-1.47,8.86-1.13,12.39a24.86,24.86,0,0,1,.2,3.81,25.49,25.49,0,0,1-.84,3.79c-.92,3.4-2.06,7.64-1,12.31s4,7.94,6.29,10.58A25.29,25.29,0,0,1,272,223.9a23.45,23.45,0,0,1,1.47,3.41c1.26,3.33,2.84,7.47,6.56,10.68,4.06,3.52,8.78,5.19,12.57,6.53a36.89,36.89,0,0,1,4.92,2,46.22,46.22,0,0,1,5.16,3.5c3.28,2.43,7,5.19,11.64,6.47a27.5,27.5,0,0,0,7.35.92,63.36,63.36,0,0,0,6.81-.47c1.68-.18,3.27-.35,4.59-.35.23,0,.46,0,.69,0a47.56,47.56,0,0,1,6.87,1.09,45.41,45.41,0,0,0,9.33,1.28,21.55,21.55,0,0,0,2.94-.2c1.87-.26,3.34-.41,4.65-.55,7.88-.83,10.27-2.13,16-8.71s6.64-9.13,6.32-17.05c-.05-1.31-.11-2.79-.13-4.68,0-4.3-1.45-8.21-2.83-12a46.64,46.64,0,0,1-2.08-6.65,34.81,34.81,0,0,1-.43-5.27c-.15-4-.34-9-2.49-13.94-1.94-4.41-5.2-7.69-8.08-10.58a44.34,44.34,0,0,1-4.2-4.61,35.53,35.53,0,0,1-2.67-4.58c-1.88-3.56-4.21-8-8.27-11.5-3.72-3.22-8-4.18-11.52-4.95a23.78,23.78,0,0,1-3.58-1,25.61,25.61,0,0,1-3.41-2c-2.95-1.92-6.62-4.3-11.37-4.7-.46,0-.93,0-1.39,0Z"/><path class="a" d="M201.67,252.18a47.57,47.57,0,0,1-9.4-1.19c-1.6-.32-3.1-.62-4.44-.77-.71-.07-1.41-.11-2.08-.11a22.37,22.37,0,0,0-5.06.66,18,18,0,0,1-3.95.57c-3.14,0-5.72-1.42-8.38-4.59-4.76-5.68-3.19-9.48-1.8-12.84a20.11,20.11,0,0,0,1.79-6.93c.09-1.35.06-2.89,0-4.51-.08-3.92-.18-8.36,1.34-12.94,1.32-4,3.93-7.4,6.46-10.7,1-1.33,2.09-2.72,3-4.11.77-1.15,1.52-2.44,2.32-3.8,2-3.44,4.26-7.34,8-10.45,3.13-2.63,6.86-3.49,10.14-4.26,1.15-.26,2.22-.52,3.19-.82s2.1-.74,3.22-1.19c2.79-1.09,6-2.34,9.39-2.34q.61,0,1.23.06c3.93.34,7.18,2.34,10.06,4.11,1,.63,2,1.23,3,1.73s1.92.9,3,1.36c3.1,1.33,6.62,2.84,9.24,6s3.49,6.85,4.25,10.14c.27,1.14.52,2.22.83,3.19s.74,2.09,1.18,3.22c1.23,3.13,2.63,6.69,2.29,10.62s-2.35,7.18-4.11,10.05c-.63,1-1.23,2-1.73,3s-.91,1.92-1.37,3c-1.33,3.1-2.83,6.62-6,9.24-3.72,3.12-8,4.66-11.68,6-1.49.54-2.89,1.05-4.15,1.62-1.54.69-3.09,1.5-4.59,2.28-3.68,1.91-7.49,3.89-11.66,4.49A24.44,24.44,0,0,1,201.67,252.18Z"/><path class="b" d="M215.46,175.86c.3,0,.59,0,.88,0,4.18.37,7.74,3.43,11.52,5.4s8.22,3,11,6.35,3.1,8,4.33,12,3.67,8.1,3.3,12.28-3.43,7.74-5.4,11.52-3,8.22-6.35,11c-4.54,3.8-10.27,5-14.9,7.06-5.37,2.42-10.14,5.73-15.18,6.46a20.5,20.5,0,0,1-3,.21c-4.87,0-9.43-1.51-13.42-1.93a22.56,22.56,0,0,0-2.5-.14c-4.26,0-6.76,1.23-9,1.23-1.7,0-3.26-.7-5.31-3.16-5.28-6.29.24-7.33.91-16.93.34-4.81-.73-10.72,1.17-16.47,1.6-4.83,5.7-8.95,9-13.81,2.87-4.2,5-9.63,9.56-13.44,3.35-2.8,8-3.09,12-4.32s7.54-3.35,11.41-3.35m0-8c-4.19,0-7.89,1.46-10.85,2.62-1.06.42-2.06.81-3,1.09s-1.84.5-2.9.75c-3.54.82-7.95,1.85-11.81,5.08-4.25,3.57-6.81,8-8.86,11.51-.76,1.3-1.47,2.53-2.17,3.55-.89,1.3-1.87,2.58-2.91,3.94-2.73,3.55-5.56,7.23-7.09,11.87-1.73,5.23-1.63,10.25-1.54,14.28,0,1.54.06,3,0,4.15a16.28,16.28,0,0,1-1.5,5.69c-1.45,3.51-3.88,9.4,2.44,16.93,1.24,1.49,5,6,11.44,6a21.56,21.56,0,0,0,4.8-.66,18.61,18.61,0,0,1,4.21-.57,15.63,15.63,0,0,1,1.65.09c1.16.13,2.58.41,4.09.71a51.14,51.14,0,0,0,10.18,1.27,29.74,29.74,0,0,0,4.16-.29c4.84-.7,8.95-2.84,12.93-4.9,1.51-.79,2.94-1.54,4.38-2.18,1.13-.51,2.46-1,3.88-1.52,3.84-1.4,8.63-3.15,12.88-6.71,3.86-3.24,5.64-7.4,7.07-10.74.43-1,.84-2,1.24-2.72s1-1.75,1.59-2.72c1.89-3.09,4.25-6.93,4.68-11.79s-1.22-9.06-2.55-12.44c-.41-1.06-.81-2.06-1.09-2.95s-.49-1.83-.74-2.9c-.82-3.54-1.85-7.94-5.09-11.8s-7.39-5.64-10.73-7.08c-1-.43-2-.83-2.72-1.23s-1.75-1-2.72-1.59c-3.09-1.9-6.93-4.26-11.8-4.69-.52,0-1-.07-1.58-.07Z"/><path class="c" d="M199.19,70.63s28.72,38.57,28.72,53.82"/><path class="d" d="M197.66,76.09c-5.21,0-10.52-3.92-14.95-11-5.4-8.67-9.85-22.84-2.83-27.22a7.07,7.07,0,0,1,3.79-1c7.1,0,15.49,9.32,19.39,15.58,2.86,4.58,4.35,8.82,4.45,12.61.12,4.25-1.56,7.67-4.72,9.64A9.71,9.71,0,0,1,197.66,76.09Z"/><path class="b" d="M183.67,40.8c4.26,0,11.5,6.48,16,13.7,5.16,8.28,4.76,14.4,1,16.73a5.59,5.59,0,0,1-3,.86c-3.44,0-7.64-2.86-11.56-9.14-5.16-8.29-7.85-19.38-4.11-21.71a3.12,3.12,0,0,1,1.68-.44m0-8h0a11.17,11.17,0,0,0-5.91,1.65c-6.49,4-5.85,12.41-4.88,17a50.27,50.27,0,0,0,6.43,15.69C184.5,75.5,191,80.09,197.66,80.09A13.63,13.63,0,0,0,204.91,78c6.26-3.9,10.42-13.51,1.55-27.75-4-6.49-13.39-17.47-22.79-17.47Z"/><path class="c" d="M193,98.63s20.36,4.92,24.91.67"/><path class="c" d="M225.91,81.06s-1.94,17.57-8,18.24"/><path class="d" d="M184.6,109a34.7,34.7,0,0,1-4.65-.33c-9.32-1.3-22-6.57-20.9-14.24s14-8.43,18-8.43a43.41,43.41,0,0,1,6,.41c12.69,1.76,16.36,8.37,15.64,13.51C198.06,104.35,194.05,109,184.6,109Z"/><path class="b" d="M177.05,90a39.31,39.31,0,0,1,5.43.37c8.76,1.21,12.78,5,12.23,9-.45,3.29-3.93,5.63-10.12,5.63a29,29,0,0,1-4.09-.3c-8.76-1.21-18-5.77-17.49-9.72.44-3.16,7-5,14-5m0-8h0c-12.72,0-20.93,4.44-22,11.88-.44,3.14.21,9.14,9.41,14a46.62,46.62,0,0,0,14.9,4.7,37.94,37.94,0,0,0,5.19.37,22,22,0,0,0,11.26-2.68,13.45,13.45,0,0,0,6.79-9.85c.67-4.87-1.37-9.57-5.6-12.91-3.31-2.62-7.84-4.34-13.46-5.11a46.8,46.8,0,0,0-6.53-.45Z"/><path class="d" d="M227.42,83.83a8.89,8.89,0,0,1-1.15-.08,9.38,9.38,0,0,1-7.34-6c-1.25-3-1.58-6.77-1-11.28,1-7.47,5.24-19.34,12.38-19.34a5.79,5.79,0,0,1,.83.06c2.44.32,5.69,2.17,7.24,9.09a38.86,38.86,0,0,1,.45,13C237.41,80,232,83.83,227.42,83.83Z"/><path class="b" d="M230.33,51.09l.3,0c3.58.48,5.31,9.66,4.25,17.58-1,7.46-4.11,11.14-7.46,11.14-.21,0-.41,0-.62,0-3.58-.48-5.94-4.91-4.89-12.83,1-7.7,4.92-15.87,8.42-15.87m0-8h0C219.81,43.09,215,58,214,65.9c-.69,5.22-.27,9.72,1.26,13.36a13.32,13.32,0,0,0,10.5,8.46,13.54,13.54,0,0,0,1.68.11c6.27,0,13.61-4.75,15.39-18.08a42.71,42.71,0,0,0-.51-14.38c-2.16-9.66-7.58-11.78-10.61-12.19a10.35,10.35,0,0,0-1.36-.09Z"/><path class="e" d="M205.22,214a128.29,128.29,0,0,1,1.13-24.81c1.38-8.94,4.42-19.25,11-24.86-26.3-13.44-28.64-37.06-28.74-38.16l-.25-3,2.82-1.08A57.19,57.19,0,0,1,209.78,119c8.9,0,16.73,2.3,23.12,6.74-.31-27.14,19-39.86,19.9-40.45l2.32-1.48,2.21,1.63c.88.64,18.39,13.84,21.42,37.58,6.82-6.86,16.56-10.52,28.46-10.52a59.23,59.23,0,0,1,14.64,1.79l2.82.78.1,2.94c0,.3.6,28.42-27.33,40.79,20.92,22.49,15.42,47.18,15.15,48.29L311.9,210l-3,.15s-.58,0-1.61,0c-6.07,0-34.09-1.14-45.68-21.42-6.14,9.13-16,16.71-28.82,22.21a100.85,100.85,0,0,1-23,6.76l-4.28.61Z"/><path class="b" d="M255,88.63s23.37,17.22,19.86,47.65c6.57-16.43,21.36-19.81,32.39-19.81a55.76,55.76,0,0,1,13.56,1.64s1,29.2-30.6,39.13c24.82,22.25,18.53,48.9,18.53,48.9s-.51,0-1.42,0c-7,0-38.1-1.45-45.22-26.66-11.81,28.39-52.85,34.25-52.85,34.25s-3.1-47.32,18.08-49.5c-32.37-11.46-34.68-38.4-34.68-38.4A53.44,53.44,0,0,1,209.78,123c9.22,0,20.28,2.67,28.21,13.15-6.29-32.59,17-47.49,17-47.49m.32-9.7-4.64,3a48.62,48.62,0,0,0-13.25,13.93A53.23,53.23,0,0,0,229.26,119a45.94,45.94,0,0,0-19.47-4,61.85,61.85,0,0,0-20,3.41l-5.64,2.15.52,6c.1,1.13,2.37,24.09,26.31,38.8-3.72,4.91-6.85,12.3-8.55,23.27a131.72,131.72,0,0,0-1.17,25.68l.56,8.61,8.55-1.22c1.58-.22,33.32-5,51.12-26.08,10.73,13.44,29.44,18.57,45.82,18.57,1.05,0,1.69,0,1.8,0l6-.29,1.39-5.86c.26-1.13,5.6-25-12.67-47.93a48.73,48.73,0,0,0,24.95-42.21l-.2-5.86-5.65-1.58a63.48,63.48,0,0,0-15.71-1.93c-10.15,0-18.88,2.45-25.81,7.11a63.57,63.57,0,0,0-21.7-33.39l-4.42-3.26Z"/><path class="f" d="M243.85,158.34s15,13.29,35.22,0"/><line class="f" x1="261.34" y1="162.31" x2="261.34" y2="142.75"/><path class="f" d="M268.1,162.31a14.08,14.08,0,0,0,3.75-14"/><path class="f" d="M254.57,162.31a14.08,14.08,0,0,1-3.75-14"/></svg>