<svg xmlns="http://www.w3.org/2000/svg" width="510" height="900" viewBox="0 0 510 900"><defs><style>.a,.e{fill:none;stroke-miterlimit:10;stroke-width:6px;}.a{stroke:#432d1e;}.b{fill:#927ba0;}.c{fill:#fff;}.d{fill:#59624a;}.e{stroke:#fff;}</style></defs><title>help_large_white</title><path class="a" d="M305-10.1s14.77,45.76,9.87,60.2"/><path class="a" d="M290.1,14.4s17.69,11.22,23.37,8.66"/><path class="a" d="M326.93,8.37s-7.49,16-13.46,14.69"/><path class="b" d="M285.49,21.79A24,24,0,0,1,275,18.86a41.26,41.26,0,0,1-11.19-8.2C259,5.53,259.19,2,260.21,0c.84-1.67,2.91-3.67,8-3.67C272.84-3.68,279-2,284.16.56,288.42,2.71,291.5,5.2,293.3,8c2,3,2.28,6.26.87,9.06C292.66,20.06,289.49,21.79,285.49,21.79Z"/><path class="c" d="M268.22-.68c4.1,0,9.78,1.51,14.59,3.93,7.9,4,10.47,8.88,8.68,12.45-1,1.94-3.05,3.09-6,3.09a21.12,21.12,0,0,1-9.18-2.61c-7.89-4-15.21-11.27-13.42-14.84.7-1.4,2.69-2,5.33-2m0-6h0c-6.63,0-9.47,2.9-10.69,5.33-1.45,2.89-1.93,7.67,4.06,14.06a44.5,44.5,0,0,0,12,8.83,26.83,26.83,0,0,0,11.87,3.25c5.18,0,9.32-2.33,11.36-6.4,1.88-3.73,1.5-8.12-1-12-2.1-3.24-5.57-6.09-10.32-8.48-5.6-2.81-12.22-4.56-17.28-4.56Z"/><path class="b" d="M330.24,10.94a7.58,7.58,0,0,1-3.39-.8c-3.94-2-6.79-7.77-1.85-17.73A39.15,39.15,0,0,1,331.56-17c3-3.14,5.86-4.72,8.39-4.72a5.34,5.34,0,0,1,2.42.55c5.9,2.92,3.39,14.64-.27,22C338.88,7.37,334.67,10.94,330.24,10.94Z"/><path class="c" d="M340-18.7a2.35,2.35,0,0,1,1.09.24c3.24,1.6,1.92,10.85-1.63,18-2.85,5.74-6.26,8.39-9.17,8.39a4.55,4.55,0,0,1-2.05-.49c-3.24-1.6-4.05-6.55-.5-13.71,3.18-6.43,8.8-12.44,12.26-12.44m0-6h0c-7.76,0-14.93,10.32-17.64,15.77-2.18,4.4-3.15,8.44-2.9,12a11.34,11.34,0,0,0,6.11,9.73,10.6,10.6,0,0,0,4.72,1.11c3.26,0,9.49-1.53,14.54-11.72a40.58,40.58,0,0,0,4-13.11c.4-3.71.28-10.32-5-12.95A8.47,8.47,0,0,0,340-24.7Z"/><path class="a" d="M202.82,5.41s-15.21,54.3-8.71,106.3"/><path class="b" d="M202.89,9.61a8.67,8.67,0,0,1-2-.23c-4.94-1.16-9.65-7-6.67-19.78C196.26-19,202.16-31,209-31a5.79,5.79,0,0,1,1.31.15c2.35.55,5.35,2.78,6.28,10.3a44.84,44.84,0,0,1-1,15.18c-2.19,9.4-7,15-12.77,15Z"/><path class="c" d="M209-28a2.56,2.56,0,0,1,.62.07c4.3,1,5.32,12.38,3.1,21.88-2,8.56-5.94,12.69-9.85,12.69a5.53,5.53,0,0,1-1.28-.15c-4.3-1-6.65-6.67-4.43-16.18C199.29-18.76,204.79-28,209-28m0-6c-4.25,0-8.22,2.88-11.8,8.57a48.88,48.88,0,0,0-5.88,14.38C190-5.48,190-.63,191.22,3.34c1.46,4.69,4.75,8,9,9a12,12,0,0,0,2.65.31c7.3,0,13.16-6.48,15.69-17.33a48.2,48.2,0,0,0,1-16.23C218.45-30.18,214.29-33,211-33.8a8.87,8.87,0,0,0-2-.23Z"/><path class="a" d="M217.72,29.91S200,41.13,194.34,38.57"/><path class="a" d="M180.89,23.88s7.48,16,13.45,14.69"/><path class="b" d="M222.33,37.3c-4,0-7.17-1.73-8.68-4.74-1.41-2.81-1.1-6,.87-9.06,1.8-2.79,4.88-5.29,9.14-7.43,5.21-2.61,11.32-4.24,15.94-4.24,5.09,0,7.17,2,8,3.67,1,2,1.23,5.54-3.57,10.67a41.47,41.47,0,0,1-11.19,8.2,24,24,0,0,1-10.52,2.93Z"/><path class="c" d="M239.6,14.83c2.64,0,4.63.62,5.33,2,1.79,3.57-5.53,10.87-13.43,14.83a21.15,21.15,0,0,1-9.17,2.62c-3,0-5-1.15-6-3.09-1.8-3.57.78-8.49,8.68-12.46,4.81-2.41,10.48-3.92,14.59-3.92m0-6c-5.06,0-11.68,1.75-17.28,4.56-4.75,2.38-8.22,5.24-10.32,8.48-2.53,3.91-2.91,8.29-1,12,2,4.07,6.18,6.4,11.36,6.4a27,27,0,0,0,11.87-3.25,44.5,44.5,0,0,0,12-8.83c6-6.39,5.51-11.18,4.06-14.07-1.22-2.42-4.07-5.32-10.69-5.32Z"/><path class="b" d="M177.58,26.44c-4.43,0-8.64-3.57-11.86-10-3.66-7.39-6.17-19.11-.28-22a5.42,5.42,0,0,1,2.43-.56c2.52,0,5.35,1.59,8.38,4.73a38.65,38.65,0,0,1,6.57,9.38c4.94,10,2.09,15.78-1.86,17.74a7.49,7.49,0,0,1-3.38.79Z"/><path class="c" d="M167.87-3.2c3.45,0,9.07,6,12.26,12.45,3.55,7.15,2.74,12.11-.5,13.71a4.54,4.54,0,0,1-2,.48c-2.91,0-6.33-2.65-9.17-8.38-3.55-7.16-4.87-16.41-1.63-18a2.45,2.45,0,0,1,1.09-.24m0-6a8.31,8.31,0,0,0-3.76.87c-5.31,2.63-5.43,9.24-5,13A41,41,0,0,0,163,17.72c5.06,10.2,11.29,11.72,14.55,11.72a10.59,10.59,0,0,0,4.72-1.1,11.35,11.35,0,0,0,6.11-9.73c.25-3.59-.73-7.64-2.91-12C182.8,1.12,175.63-9.2,167.87-9.2Z"/><path class="a" d="M218.48,68.83s-20.74,8.24-27.39,6.35"/><path class="a" d="M175.32,64.4s8.78,11.76,15.77,10.78"/><path class="b" d="M223.87,75.05c-4.35,0-7.59-1.17-9.37-3.39a5.53,5.53,0,0,1-1-5.21c1-3.44,5.3-6.36,12.65-8.67a65,65,0,0,1,18-3c4.43,0,7.15.83,8.58,2.61a4.5,4.5,0,0,1,.76,4.17c-1.54,5.07-12,9.59-17.93,11.46a39.6,39.6,0,0,1-11.65,2Z"/><path class="c" d="M244.11,57.76c3.08,0,5.41.46,6.24,1.48,2.1,2.62-6.48,8-15.73,10.89a36.7,36.7,0,0,1-10.75,1.92c-3.46,0-5.88-.84-7-2.27-2.1-2.62.92-6.23,10.17-9.14a62.51,62.51,0,0,1,17.1-2.88m0-6a68.06,68.06,0,0,0-18.9,3.16c-8.47,2.66-13.25,6.15-14.62,10.66a8.58,8.58,0,0,0,1.57,8c1.65,2.06,5,4.51,11.71,4.51a42.58,42.58,0,0,0,12.55-2.19,59.42,59.42,0,0,0,11.82-5.14c4.61-2.71,7.18-5.35,8.08-8.31A7.44,7.44,0,0,0,255,55.49c-2.68-3.34-7.52-3.73-10.92-3.73Z"/><path class="b" d="M171.45,67.08c-4.65,0-9.42-2.65-13.09-7.29-3.11-3.93-5.67-9.77-4.38-14a5.87,5.87,0,0,1,3.93-4,7.52,7.52,0,0,1,2.16-.31c5.38,0,12.72,5.22,16.72,10.27,3.66,4.63,3.68,8,3.05,10a7.34,7.34,0,0,1-5.09,4.76,11.31,11.31,0,0,1-3.3.48Z"/><path class="c" d="M160.07,44.53c4.05,0,10.64,4.42,14.37,9.13,4.16,5.26,3.21,8.89-.59,10.07a8.19,8.19,0,0,1-2.4.35c-3.41,0-7.41-1.94-10.74-6.15-4.16-5.25-5.7-12-1.91-13.22a4.24,4.24,0,0,1,1.27-.18m0-6a10.14,10.14,0,0,0-3,.45,8.89,8.89,0,0,0-5.9,6c-1.73,5.58,1.39,12.29,4.89,16.7,4.24,5.36,9.86,8.43,15.44,8.43a14.19,14.19,0,0,0,4.18-.62,10.23,10.23,0,0,0,7.08-6.73c.84-2.72.9-7.14-3.57-12.79a36.05,36.05,0,0,0-8.51-7.65c-2.65-1.71-6.63-3.76-10.56-3.76Z"/><path class="d" d="M410.82,107.42a34.28,34.28,0,0,1-9.25-1.63,28.75,28.75,0,0,0-5.21-1.14c-.45,0-.88-.05-1.29-.05a17.36,17.36,0,0,0-6.26,1.26,13.23,13.23,0,0,1-4.54,1h0c-2.36,0-4.51-1.06-6.74-3.34-4.59-4.66-3.27-8.2-2.11-11.32a16.65,16.65,0,0,0,1.35-7.52,29.1,29.1,0,0,0-1-5.24c-.88-3.4-1.87-7.27-1.29-11.44.47-3.46,2.23-6.55,3.93-9.54a40.33,40.33,0,0,0,2.94-5.88,33.08,33.08,0,0,0,1.26-5.46c.61-3.45,1.3-7.35,3.53-10.77,1.92-2.95,4.85-5,7.69-6.94a39.16,39.16,0,0,0,5.17-4,23.71,23.71,0,0,0,2.77-3.61c1.59-2.37,3.39-5.05,6.27-6.48a13.77,13.77,0,0,1,6.2-1.24c1,0,2,.05,3,.11s1.77.1,2.59.1a12.72,12.72,0,0,0,1.75-.1,24,24,0,0,0,4.21-1.27A21.21,21.21,0,0,1,433,11.2a10.17,10.17,0,0,1,1.75.15c3.23.53,5.75,2.59,8,4.4a23.12,23.12,0,0,0,3.62,2.6,21.73,21.73,0,0,0,4,1.39c2.8.79,6,1.68,8.36,4.11s3.22,5.62,4,8.44a21.8,21.8,0,0,0,1.31,4A23.52,23.52,0,0,0,466.52,40c1.77,2.26,3.78,4.82,4.26,8.06s-.7,6.31-1.75,9a22.13,22.13,0,0,0-1.34,4.19,22.57,22.57,0,0,0-.09,4.33c.12,2.9.25,6.18-1.3,9.15s-4.2,4.6-6.59,6.15a23,23,0,0,0-3.66,2.7,39.06,39.06,0,0,0-4.12,5.1c-2,2.8-4.1,5.69-7.08,7.56-3.46,2.16-7.38,2.78-10.84,3.32a32.7,32.7,0,0,0-5.48,1.16,40.6,40.6,0,0,0-5.93,2.83c-3,1.65-6.15,3.35-9.62,3.76A19.15,19.15,0,0,1,410.82,107.42Z"/><path class="c" d="M433,14.2a7.44,7.44,0,0,1,1.25.1c4,.68,7,4.78,10.71,6.71s8.66,1.92,11.62,4.94,2.93,8.12,4.72,11.71,5.91,6.8,6.51,10.83-2.4,8.19-3.08,12.25.84,8.9-1.09,12.59-6.67,5.13-9.7,8.1c-4.06,4-6.42,9.59-10.68,12.26-4.8,3-10.94,2.54-15.71,4.18-5.37,1.85-10,5.86-14.92,6.45a15.81,15.81,0,0,1-1.81.1c-5.2,0-10.06-2.45-14.24-2.76-.53,0-1-.06-1.51-.06-5.42,0-8.09,2.28-10.8,2.28-1.39,0-2.8-.6-4.6-2.44-5.61-5.71.63-7.39.1-16.91-.26-4.66-3.17-10.23-2.36-16.1.68-4.94,4.77-9.46,6.72-14.8,1.73-4.74,1.39-10.89,4.48-15.62,2.74-4.21,8.4-6.47,12.46-10.46,3-3,4.68-7.75,8.27-9.55a10.87,10.87,0,0,1,4.86-.92c1.84,0,3.74.21,5.56.21a14.31,14.31,0,0,0,2.19-.14c3.65-.54,7.39-2.95,11.05-2.95m0-6h0a23.71,23.71,0,0,0-8.31,1.9,21.41,21.41,0,0,1-3.62,1.12,9.55,9.55,0,0,1-1.31.07c-.73,0-1.54,0-2.41-.09s-2.05-.12-3.15-.12a16.73,16.73,0,0,0-7.53,1.55c-3.59,1.79-5.72,4.95-7.43,7.49a21.59,21.59,0,0,1-2.38,3.15A36.13,36.13,0,0,1,392.08,27c-2.93,2-6.25,4.33-8.5,7.77-2.56,3.93-3.3,8.16-4,11.89a31.52,31.52,0,0,1-1.13,5A36.71,36.71,0,0,1,375.76,57c-1.84,3.24-3.74,6.59-4.3,10.62-.65,4.76.47,9.11,1.36,12.6a27.24,27.24,0,0,1,1,4.66,13.81,13.81,0,0,1-1.17,6.3c-1.18,3.16-3.14,8.45,2.78,14.48,2.79,2.85,5.7,4.23,8.88,4.23a16.16,16.16,0,0,0,5.54-1.19,14.65,14.65,0,0,1,5.26-1.09c.34,0,.7,0,1.07,0a27.18,27.18,0,0,1,4.63,1,36.74,36.74,0,0,0,10.05,1.74,23.22,23.22,0,0,0,2.52-.14c4-.48,7.42-2.32,10.69-4.11a37.55,37.55,0,0,1,5.48-2.62,31.15,31.15,0,0,1,5-1c3.74-.58,8-1.25,12-3.74,3.49-2.18,5.84-5.46,7.93-8.35a36.17,36.17,0,0,1,3.78-4.71,21.54,21.54,0,0,1,3.19-2.32c2.57-1.66,5.77-3.73,7.62-7.29s1.77-7.54,1.64-10.65a20.25,20.25,0,0,1,0-3.72,20.61,20.61,0,0,1,1.18-3.59c1.12-2.89,2.51-6.48,1.91-10.53s-3-7-4.86-9.47A22.07,22.07,0,0,1,466.67,35a20.1,20.1,0,0,1-1.09-3.46c-.79-3-1.77-6.78-4.71-9.78s-6.69-4.06-9.7-4.9a20.11,20.11,0,0,1-3.44-1.16,22,22,0,0,1-3.11-2.26c-2.39-1.95-5.37-4.37-9.38-5A12.78,12.78,0,0,0,433,8.2Z"/><path class="d" d="M508.29,93.61a35.29,35.29,0,0,1-8-1.27c-1.68-.4-3.42-.82-5.15-1.07-1.25-.19-2.64-.25-4.11-.32-3.29-.14-7-.31-10.61-1.94-3.06-1.4-5.47-3.83-7.8-6.18-1.15-1.16-2.34-2.36-3.59-3.41a31.78,31.78,0,0,0-2.69-2c-2.25-1.55-4.81-3.3-6.25-6.08s-1.42-6-1.36-8.76a30.18,30.18,0,0,0,0-3.18c-.09-1-.29-2-.5-3.15-.52-2.71-1.11-5.78-.13-8.86s3.17-5.14,5.14-7.05c.85-.82,1.64-1.59,2.32-2.39a32.13,32.13,0,0,0,2-2.68c1.55-2.26,3.3-4.82,6.08-6.25a15.1,15.1,0,0,1,7.07-1.39l1.7,0,1.55,0c.64,0,1.16,0,1.63-.06a29.36,29.36,0,0,0,3.14-.5,28,28,0,0,1,5.26-.66,11.82,11.82,0,0,1,3.6.53c3,.95,5.14,3.18,7,5.15.82.84,1.59,1.64,2.39,2.31,1.25,1.06,2.63,2,4,3,2.71,1.9,5.51,3.87,7.39,6.65,2.22,3.26,3,6.91,3.71,10.13a39.13,39.13,0,0,0,1,4c.54,1.66,1.24,3.3,1.92,4.9,1.32,3.1,2.57,6,2.77,9.15.12,1.72.27,3.09.4,4.18.58,5,.31,6.6-3.64,11.28S519,93,514,93.23c-1.1.06-2.47.13-4.19.31a15,15,0,0,1-1.51.07Z"/><path class="c" d="M493.94,29.49a8.87,8.87,0,0,1,2.7.39c3.33,1.06,5.56,4.5,8.4,6.89,3.86,3.26,8.39,5.43,10.82,9,2.81,4.14,3,9.27,4.33,13.39,1.6,4.9,4.29,9.22,4.56,13.31.54,8.17,2,8-2.54,13.34s-4.57,3.89-12.71,4.73a9.55,9.55,0,0,1-1.2.06c-3.8,0-8.09-1.63-12.7-2.31-4.28-.64-9.37,0-13.92-2-3.94-1.8-6.84-5.9-10.7-9.16-2.84-2.39-6.6-4-8.2-7.13s-.77-7.26-1.07-10.82-1.86-7.39-.76-10.84,4.49-5.57,6.89-8.41,4-6.6,7.13-8.21a12.25,12.25,0,0,1,5.69-1.05c1.08,0,2.18.05,3.25.05.64,0,1.27,0,1.88-.07,2.65-.22,5.46-1.15,8.15-1.15m0-6v0a30,30,0,0,0-5.83.72,28.6,28.6,0,0,1-2.83.45c-.37,0-.81.05-1.37.05l-1.49,0-1.76,0a17.87,17.87,0,0,0-8.44,1.72c-3.45,1.78-5.52,4.8-7.18,7.22a29.62,29.62,0,0,1-1.79,2.45c-.57.68-1.32,1.4-2.11,2.17-2.11,2-4.74,4.59-5.91,8.29s-.52,7.43,0,10.34c.2,1,.39,2,.46,2.83s0,1.81,0,2.86c-.06,3-.14,6.65,1.7,10.2s4.79,5.52,7.22,7.18c.9.63,1.76,1.21,2.44,1.79,1.15,1,2.24,2.07,3.4,3.23,2.52,2.55,5.12,5.18,8.68,6.8,4.12,1.87,8.34,2.06,11.72,2.21a36.65,36.65,0,0,1,3.81.29c1.6.23,3.28.63,4.9,1a38.13,38.13,0,0,0,8.68,1.35,18,18,0,0,0,1.82-.09c1.64-.17,2.92-.23,4-.29,5.77-.31,8.13-1.21,12.64-6.54s5-7.82,4.32-13.56c-.13-1.12-.28-2.39-.38-4-.24-3.62-1.65-6.93-3-10.13-.66-1.53-1.33-3.12-1.83-4.65A37.25,37.25,0,0,1,525,53.6c-.72-3.32-1.61-7.44-4.15-11.18-2.2-3.24-5.23-5.37-8.16-7.43-1.34-.94-2.61-1.83-3.76-2.8-.68-.58-1.4-1.32-2.17-2.11-2-2.11-4.58-4.74-8.29-5.92a14.64,14.64,0,0,0-4.51-.67Z"/><path class="d" d="M393.92,201.77c-.7,0-1.5,0-2.43-.05-1.27,0-2.71-.08-4.54-.08h-.3c-3.46,0-6.8-1.18-10.33-2.43a52.76,52.76,0,0,0-7.39-2.21,40.27,40.27,0,0,0-6.09-.46c-3.79-.11-8.08-.23-12.13-1.95-3.57-1.53-6.4-4.29-9.14-7a47.82,47.82,0,0,0-5.19-4.61,40.25,40.25,0,0,0-5.27-3c-3.37-1.73-7.19-3.69-10.12-7-2.42-2.74-3.23-6.22-3.94-9.29a26.63,26.63,0,0,0-1.28-4.43,28.45,28.45,0,0,0-2.45-4.16c-1.72-2.6-3.66-5.54-4-9s1-6.79,2.24-9.67a27.35,27.35,0,0,0,1.61-4.5,27.38,27.38,0,0,0,.44-4.68c.12-3.14.26-6.69,2.09-9.79s4.61-4.71,7.38-6.39a29.5,29.5,0,0,0,4.07-2.79,28.91,28.91,0,0,0,3.28-3.7c2-2.53,4.1-5.15,7.27-6.52a14.47,14.47,0,0,1,5.93-1.09c1.37,0,2.72.12,4,.23s2.37.21,3.46.21a11.84,11.84,0,0,0,1.24-.06,26.86,26.86,0,0,0,4.67-1,26.8,26.8,0,0,1,7.18-1.3,12.39,12.39,0,0,1,2.69.28c3.43.76,6.1,3.06,8.46,5.09a28.8,28.8,0,0,0,3.83,3,26.72,26.72,0,0,0,4.23,1.82c3,1.09,6.31,2.32,8.73,5.07,2.93,3.31,4.4,7.35,5.7,10.91a39.3,39.3,0,0,0,2.35,5.61,50.09,50.09,0,0,0,3.93,5.72c2.31,3.05,4.7,6.2,5.76,9.93,1.22,4.24.8,8.51.43,12.29a40.89,40.89,0,0,0-.3,6.09,52.55,52.55,0,0,0,1.27,7.61c.81,3.68,1.57,7.15,1.13,10.56-.25,1.95-.4,3.54-.52,4.82-.61,6.39-1.08,7.64-6.89,12.77C400.49,200.48,398.63,201.77,393.92,201.77Z"/><path class="c" d="M364.22,98a9.36,9.36,0,0,1,2,.21c4.35,1,7.49,5.37,11.41,7.69s9.17,2.82,12.24,6.29c4.12,4.67,5,11.18,7.67,16,3,5.42,7.92,9.72,9.44,15,1.71,6-.33,12.3,0,17.75.42,6.47,3.06,12.52,2.41,17.59-1.32,10.34.16,9.92-6.41,15.72-4.44,3.91-5.6,4.53-9.12,4.53-1.63,0-3.76-.13-7-.13h-.34c-5.1,0-10.76-3.36-17.11-4.58-5.36-1-11.9.21-17.61-2.23-5.09-2.17-8.74-7.59-13.74-11.24-4.44-3.24-10.79-4.93-14.91-9.6-3.07-3.48-3-8.9-4.72-12.93-1.81-4.18-5.79-7.84-6.21-12.29s2.82-8.83,3.8-13.23-.14-9.67,2.18-13.59,7.38-5.4,10.86-8.46,5.71-8,9.75-9.72a11.83,11.83,0,0,1,4.74-.84c2.47,0,5.05.44,7.49.44.51,0,1,0,1.52-.07,3.81-.36,7.77-2.33,11.57-2.33m0-6a29.21,29.21,0,0,0-8,1.42,28.11,28.11,0,0,1-4.14.94c-.28,0-.6,0-1,0-1,0-2.05-.1-3.2-.2-1.37-.12-2.79-.24-4.29-.24a17.75,17.75,0,0,0-7.13,1.33c-3.85,1.68-6.28,4.73-8.42,7.42a27.14,27.14,0,0,1-2.91,3.31,26.48,26.48,0,0,1-3.65,2.47c-2.94,1.79-6.27,3.82-8.41,7.44s-2.37,7.87-2.5,11.19a25.24,25.24,0,0,1-.37,4.15,25.61,25.61,0,0,1-1.44,4c-1.28,3-2.87,6.83-2.47,11.11s2.57,7.52,4.48,10.4a27.83,27.83,0,0,1,2.2,3.7,25.66,25.66,0,0,1,1.11,3.92c.75,3.25,1.69,7.29,4.61,10.6,3.3,3.74,7.39,5.84,11,7.69a38.86,38.86,0,0,1,4.88,2.79,48.39,48.39,0,0,1,4.86,4.34c2.93,2.86,6,5.82,10,7.56,4.58,2,9.17,2.08,13.23,2.2a36.91,36.91,0,0,1,5.61.41,50,50,0,0,1,6.95,2.09c3.61,1.28,7.35,2.6,11.29,2.6H387c1.78,0,3.2,0,4.45.08.94,0,1.75.05,2.52.05,5.68,0,8.22-1.74,13.09-6,6.47-5.7,7.22-7.74,7.88-14.73.13-1.32.27-2.82.51-4.72.51-3.92-.34-7.82-1.16-11.58a49.36,49.36,0,0,1-1.21-7.16,35.47,35.47,0,0,1,.29-5.61c.39-4,.84-8.62-.53-13.4-1.22-4.27-3.78-7.65-6.26-10.92a47.92,47.92,0,0,1-3.7-5.36,38.46,38.46,0,0,1-2.15-5.19c-1.39-3.81-3-8.13-6.27-11.87-2.92-3.31-6.81-4.74-9.94-5.89a25.14,25.14,0,0,1-3.75-1.59,27,27,0,0,1-3.39-2.64c-2.63-2.26-5.61-4.82-9.77-5.75a15.9,15.9,0,0,0-3.34-.35Z"/><path class="d" d="M282.16,145.44a35.59,35.59,0,0,1-8-1.17,36.41,36.41,0,0,0-4-.77,16.57,16.57,0,0,0-1.7-.09,17.68,17.68,0,0,0-4.56.66,14.43,14.43,0,0,1-3.46.54c-2.5,0-4.57-1.13-6.7-3.67-3.89-4.65-2.51-7.78-1.3-10.55a16.82,16.82,0,0,0,1.65-6.08,35.74,35.74,0,0,0-.06-4.09c-.15-3.25-.33-6.94.91-10.7,1.07-3.24,3.26-5.94,5.38-8.55,1-1.24,2-2.51,2.92-3.82a40.45,40.45,0,0,0,2.08-3.54c1.57-2.89,3.35-6.15,6.39-8.7,2.54-2.13,5.62-2.74,8.33-3.28a30.65,30.65,0,0,0,3-.7,31.15,31.15,0,0,0,3-1.19c2.27-1,4.84-2.08,7.65-2.08.31,0,.62,0,.92,0,3.18.28,5.79,2,8.09,3.51,1,.63,1.87,1.23,2.75,1.69a29.87,29.87,0,0,0,2.84,1.22c2.58,1,5.51,2.15,7.64,4.69s2.74,5.62,3.28,8.33a30.65,30.65,0,0,0,.7,3,31.15,31.15,0,0,0,1.19,3c1.08,2.53,2.32,5.4,2,8.57s-2,5.79-3.51,8.09a31.13,31.13,0,0,0-1.69,2.75,27.5,27.5,0,0,0-1.22,2.84c-1,2.58-2.15,5.51-4.69,7.64-3,2.54-6.57,3.72-9.68,4.77a40.25,40.25,0,0,0-3.85,1.42c-1.44.65-2.88,1.44-4.27,2.21-2.94,1.63-6,3.31-9.36,3.8A18.12,18.12,0,0,1,282.16,145.44Z"/><path class="c" d="M293.67,80.66q.33,0,.66,0c3.56.31,6.5,3.2,9.72,4.87s7.17,2.33,9.56,5.18,2.37,7,3.42,10.31,3.41,6.87,3.1,10.42-3.2,6.5-4.87,9.72-2.33,7.17-5.18,9.56c-3.86,3.23-8.89,4-12.83,5.75-4.57,2.06-8.54,5.16-12.83,5.78a15.72,15.72,0,0,1-2.26.16c-4.25,0-8.24-1.55-11.72-1.92a18.18,18.18,0,0,0-2-.11c-3.8,0-6,1.2-8,1.2-1.4,0-2.71-.59-4.4-2.6-4.48-5.36.47-6.32,1-14.49.29-4.09-.91-9.17.71-14.06,1.36-4.12,5.11-7.49,7.93-11.62,2.44-3.57,4.05-8.39,7.92-11.63,2.84-2.39,7-2.37,10.31-3.42s6.44-3.13,9.76-3.13m0-6h0A22.17,22.17,0,0,0,284.83,77c-1,.42-1.91.82-2.72,1.07a25.81,25.81,0,0,1-2.69.63c-2.92.58-6.55,1.3-9.68,3.92-3.47,2.91-5.48,6.6-7.09,9.56-.67,1.22-1.3,2.37-1.92,3.29-.83,1.2-1.78,2.38-2.78,3.62-2.29,2.82-4.65,5.74-5.9,9.49-1.42,4.3-1.21,8.46-1.05,11.8a34.59,34.59,0,0,1,.06,3.74,14,14,0,0,1-1.41,5.08c-1.25,2.84-3.33,7.6,1.75,13.67,2.68,3.2,5.63,4.75,9,4.75a17,17,0,0,0,4.16-.63,15.58,15.58,0,0,1,3.86-.57,11.22,11.22,0,0,1,1.39.08,32.74,32.74,0,0,1,3.67.71,38.17,38.17,0,0,0,8.68,1.24,21.32,21.32,0,0,0,3.12-.22c3.92-.57,7.2-2.38,10.38-4.14,1.4-.78,2.72-1.51,4-2.11,1-.45,2.26-.87,3.57-1.31,3.2-1.07,7.18-2.4,10.66-5.32,3.12-2.62,4.47-6.07,5.55-8.84.38-1,.73-1.85,1.09-2.54s.94-1.6,1.53-2.49c1.63-2.47,3.65-5.54,4-9.47s-1.11-7.31-2.28-10c-.42-1-.82-1.91-1.08-2.72s-.42-1.69-.62-2.69c-.58-2.92-1.3-6.55-3.93-9.68s-6.07-4.47-8.84-5.56a27.34,27.34,0,0,1-2.54-1.08c-.75-.39-1.6-.95-2.49-1.54-2.47-1.62-5.54-3.64-9.47-4-.39,0-.79,0-1.19,0Z"/><path class="d" d="M41.9,159.92A11.33,11.33,0,0,1,37,158.63c-5.91-2.81-5.88-6.59-5.86-9.92a16.78,16.78,0,0,0-1.3-7.53,30.41,30.41,0,0,0-2.77-4.56c-2-2.9-4.25-6.19-5.14-10.31-.73-3.41-.14-6.92.43-10.31a39.86,39.86,0,0,0,.75-6.53,32.58,32.58,0,0,0-.68-5.56c-.61-3.45-1.3-7.35-.38-11.33.8-3.43,2.86-6.34,4.85-9.15a38.93,38.93,0,0,0,3.49-5.55,23.1,23.1,0,0,0,1.36-4.34c.69-2.77,1.47-5.9,3.68-8.24s5.45-3.36,8.23-4.19a23.26,23.26,0,0,0,4.07-1.49A23.47,23.47,0,0,0,51.28,57c2.2-1.86,4.69-4,7.94-4.57a10.22,10.22,0,0,1,1.94-.18,21.85,21.85,0,0,1,7.07,1.58A23.8,23.8,0,0,0,72.51,55a11.56,11.56,0,0,0,1.41.08c.88,0,1.83-.07,2.84-.15s2.22-.17,3.38-.17A13.37,13.37,0,0,1,86,56c3.07,1.47,4.94,4.19,6.6,6.58a21,21,0,0,0,2.62,3.35,22.94,22.94,0,0,0,3.62,2.57c2.44,1.52,5.21,3.24,6.77,6.12s1.5,6.17,1.44,9.05a22.12,22.12,0,0,0,.17,4.4,22.4,22.4,0,0,0,1.4,4.1c1.1,2.68,2.35,5.72,1.91,9s-2.37,5.77-4.09,8A24.37,24.37,0,0,0,104,113a39.8,39.8,0,0,0-2.12,6.21c-.93,3.32-1.9,6.75-4.07,9.53-2.5,3.21-6,5.13-9,6.82a33.12,33.12,0,0,0-4.76,3,40.94,40.94,0,0,0-4.61,4.69c-2.27,2.58-4.63,5.25-7.74,6.82-3.76,1.9-7.74,2.21-11.24,2.49a29,29,0,0,0-5.29.72A16.56,16.56,0,0,0,48.42,157c-1.78,1.46-3.63,3-6.52,3Z"/><path class="c" d="M61.16,55.24c3.58,0,7.31,2.28,11,2.76a13.19,13.19,0,0,0,1.8.11c2,0,4.15-.32,6.22-.32a10.47,10.47,0,0,1,4.59.87c3.82,1.82,5.54,6.63,8.45,9.39s7.88,4.36,9.82,8,.55,8.52,1.3,12.56,3.83,8.08,3.29,12.2-4.52,7.11-6.34,10.93c-2.45,5.14-2.76,11.22-5.85,15.18-3.48,4.46-9.4,6.13-13.32,9.31-4.41,3.58-7.36,8.92-11.82,11.16-5.28,2.67-11.49,1.73-16,3-7.32,2.06-8.53,6.58-12.38,6.58a8.41,8.41,0,0,1-3.59-1c-7.22-3.45-1.94-7.17-5.7-15.93-1.84-4.29-6.47-8.53-7.73-14.32-1.05-4.87,1.25-10.52,1.25-16.2,0-5-2.41-10.71-1.13-16.22,1.13-4.89,5.67-9,8.12-14.09,1.82-3.82,1.74-8.89,4.51-11.8s8-3.17,11.55-5.11,6.54-6.14,10.59-6.89a7.19,7.19,0,0,1,1.39-.13m0-6a13.57,13.57,0,0,0-2.49.23c-4,.74-7,3.23-9.33,5.22a20.2,20.2,0,0,1-3,2.29,20.28,20.28,0,0,1-3.5,1.25c-3,.89-6.69,2-9.54,5s-3.68,6.61-4.42,9.58a21.81,21.81,0,0,1-1.16,3.77,36.32,36.32,0,0,1-3.23,5.11c-2,2.9-4.39,6.2-5.32,10.2-1.06,4.57-.31,8.8.35,12.53a30.31,30.31,0,0,1,.63,5,37.76,37.76,0,0,1-.7,6C18.8,119.17,18.16,123,19,127c1,4.69,3.55,8.39,5.59,11.37a27.23,27.23,0,0,1,2.49,4.05,13.76,13.76,0,0,1,1.06,6.32c0,3.37-.06,9,7.57,12.65a14.28,14.28,0,0,0,6.17,1.58c4,0,6.54-2.11,8.42-3.65a13.76,13.76,0,0,1,5.59-3.16,27.58,27.58,0,0,1,4.71-.61c3.59-.28,8.06-.64,12.35-2.8,3.63-1.83,6.18-4.72,8.64-7.52a38.2,38.2,0,0,1,4.25-4.34,30.88,30.88,0,0,1,4.32-2.67c3.31-1.83,7.06-3.91,9.95-7.61,2.53-3.24,3.63-7.13,4.59-10.56a36.79,36.79,0,0,1,1.94-5.72,21.45,21.45,0,0,1,2.21-3.28c1.84-2.44,4.14-5.48,4.67-9.45s-.93-7.7-2.11-10.57a21.38,21.38,0,0,1-1.23-3.51,21.19,21.19,0,0,1-.12-3.79c.06-3.09.14-6.94-1.81-10.54s-5.19-5.6-7.81-7.24a21.37,21.37,0,0,1-3.15-2.2,19.53,19.53,0,0,1-2.21-2.87c-1.78-2.57-4-5.77-7.78-7.58a16,16,0,0,0-7.18-1.46c-1.27,0-2.46.09-3.61.18-1,.07-1.84.14-2.61.14a7.11,7.11,0,0,1-1-.06A20.7,20.7,0,0,1,69.21,51a24.22,24.22,0,0,0-8-1.75Z"/><path class="a" d="M237.58,762.6s-15.21,54.3-8.71,106.31"/><path class="b" d="M237.65,766.8a8.76,8.76,0,0,1-2-.23c-3.26-.76-5.68-3.22-6.84-6.93-1.07-3.44-1-7.77.17-12.84,2-8.57,7.91-20.64,14.77-20.64a6.42,6.42,0,0,1,1.31.15c7.3,1.71,7.5,16.22,5.33,25.49s-7,15-12.77,15Z"/><path class="c" d="M243.78,729.16a2.57,2.57,0,0,1,.62.08c4.3,1,5.32,12.37,3.1,21.87-2,8.57-5.94,12.69-9.85,12.69a5.53,5.53,0,0,1-1.28-.15c-4.3-1-6.65-6.67-4.43-16.17,2.11-9.05,7.6-18.32,11.84-18.32m0-6c-4.26,0-8.22,2.89-11.8,8.58a49.17,49.17,0,0,0-5.89,14.38c-1.3,5.6-1.34,10.45-.11,14.41,1.46,4.7,4.75,8,9,9a11.35,11.35,0,0,0,2.65.31c7.29,0,13.16-6.47,15.69-17.32a48.2,48.2,0,0,0,1-16.23c-1.14-9.24-5.3-12.09-8.58-12.86a8.87,8.87,0,0,0-2-.23Z"/><path class="a" d="M252.48,787.11s-17.7,11.22-23.38,8.65"/><path class="a" d="M215.64,781.08s7.49,16,13.46,14.68"/><path class="b" d="M257.09,794.49c-4,0-7.17-1.73-8.68-4.74-2.12-4.22-.77-11.07,10-16.48,5.21-2.62,11.32-4.24,15.94-4.24,5.09,0,7.16,2,8,3.67,1,2,1.23,5.54-3.57,10.66a41.06,41.06,0,0,1-11.19,8.2,23.88,23.88,0,0,1-10.52,2.93Z"/><path class="c" d="M274.36,772c2.63,0,4.62.62,5.32,2,1.8,3.57-5.52,10.87-13.42,14.84a21.12,21.12,0,0,1-9.17,2.61c-3,0-5-1.14-6-3.08-1.8-3.58.78-8.49,8.68-12.46,4.81-2.42,10.48-3.92,14.59-3.92m0-6c-5.06,0-11.69,1.74-17.29,4.56-12.76,6.41-14.09,15-11.34,20.51,2,4.06,6.18,6.39,11.36,6.39A26.8,26.8,0,0,0,269,794.24a44.31,44.31,0,0,0,12-8.82c6-6.39,5.51-11.18,4.06-14.07-1.22-2.43-4.07-5.32-10.69-5.32Z"/><path class="b" d="M212.34,783.64c-4.43,0-8.64-3.57-11.86-10-3.66-7.39-6.17-19.11-.28-22a5.38,5.38,0,0,1,2.43-.55c2.52,0,5.35,1.59,8.38,4.72a38.9,38.9,0,0,1,6.57,9.39c4.94,10,2.09,15.78-1.86,17.74a7.63,7.63,0,0,1-3.38.79Z"/><path class="c" d="M202.63,754c3.45,0,9.07,6,12.26,12.44,3.55,7.16,2.74,12.11-.5,13.72a4.54,4.54,0,0,1-2,.48c-2.91,0-6.33-2.65-9.17-8.39-3.55-7.15-4.87-16.4-1.63-18a2.45,2.45,0,0,1,1.09-.24m0-6a8.3,8.3,0,0,0-3.75.87c-8.24,4.08-5.16,17.82-1.08,26,5.06,10.2,11.28,11.72,14.55,11.72a10.42,10.42,0,0,0,4.71-1.11c5.19-2.57,9.14-9.81,3.21-21.75-2.7-5.46-9.87-15.78-17.64-15.78Z"/><path class="a" d="M253.23,826s-20.73,8.23-27.38,6.35"/><path class="a" d="M210.08,821.6s8.78,11.75,15.77,10.78"/><path class="b" d="M258.63,832.25c-4.35,0-7.59-1.18-9.37-3.39a5.57,5.57,0,0,1-1-5.21c1-3.44,5.31-6.36,12.66-8.67a65,65,0,0,1,18-3c4.43,0,7.15.83,8.57,2.6a4.49,4.49,0,0,1,.77,4.18c-1.54,5.07-12,9.58-17.93,11.45a39.32,39.32,0,0,1-11.65,2.06Z"/><path class="c" d="M278.87,815c3.08,0,5.41.45,6.23,1.48,2.1,2.62-6.47,8-15.72,10.89a36.7,36.7,0,0,1-10.75,1.92c-3.46,0-5.88-.84-7-2.27-2.1-2.62.92-6.23,10.17-9.14a62.13,62.13,0,0,1,17.1-2.88m0-6a68.28,68.28,0,0,0-18.9,3.15c-8.47,2.67-13.26,6.16-14.63,10.67a8.59,8.59,0,0,0,1.58,8c1.65,2.06,5,4.52,11.71,4.52a42.35,42.35,0,0,0,12.55-2.2A58.84,58.84,0,0,0,283,827.91c4.61-2.71,7.18-5.34,8.08-8.3a7.46,7.46,0,0,0-1.29-6.92c-2.68-3.34-7.52-3.73-10.92-3.73Z"/><path class="b" d="M206.21,824.28c-4.65,0-9.43-2.66-13.09-7.29-3.11-3.93-5.67-9.77-4.38-14a5.85,5.85,0,0,1,3.93-4,7.14,7.14,0,0,1,2.16-.31c5.38,0,12.72,5.22,16.72,10.27,3.66,4.62,3.68,8,3,10a7.3,7.3,0,0,1-5.1,4.75,10.87,10.87,0,0,1-3.29.49Z"/><path class="c" d="M194.83,801.73c4,0,10.63,4.41,14.37,9.13,4.16,5.25,3.2,8.89-.59,10.07a8.19,8.19,0,0,1-2.4.35c-3.41,0-7.41-1.94-10.74-6.15-4.16-5.26-5.71-12-1.91-13.22a4.24,4.24,0,0,1,1.27-.18m0-6a10.14,10.14,0,0,0-3.05.45,8.88,8.88,0,0,0-5.9,6c-1.73,5.59,1.39,12.29,4.88,16.71,4.24,5.36,9.87,8.43,15.45,8.43a14.19,14.19,0,0,0,4.18-.62,10.25,10.25,0,0,0,7.08-6.73c.84-2.72.9-7.15-3.57-12.79a35.83,35.83,0,0,0-8.51-7.65c-2.65-1.72-6.63-3.76-10.56-3.76Z"/><path class="d" d="M137,110.34c-.44,0-.89,0-1.34,0-3.35-.26-6.44-1.72-9.44-3.13-1.48-.7-3-1.42-4.54-2a33.14,33.14,0,0,0-3.2-.92c-2.65-.69-5.65-1.46-8-3.58s-3.39-5.15-4.28-7.77c-.37-1.07-.71-2.09-1.12-3a28.54,28.54,0,0,0-1.55-2.78c-1.41-2.37-3-5.06-3.15-8.29s1.22-5.92,2.42-8.38c.51-1.06,1-2.06,1.36-3s.63-2,.92-3.19c.68-2.65,1.46-5.66,3.58-8s5.15-3.38,7.76-4.27c1.08-.37,2.09-.72,3-1.13a30.6,30.6,0,0,0,2.78-1.54c2.37-1.42,5-3,8.29-3.16h.42c2.95,0,5.61,1.29,8,2.43a32.47,32.47,0,0,0,3,1.36c1.54.56,3.17,1,4.75,1.43,3.2.86,6.5,1.75,9.23,3.72,3.19,2.31,5.19,5.46,6.94,8.25.79,1.25,1.53,2.43,2.31,3.42,1.08,1.38,2.3,2.68,3.48,3.94,2.31,2.47,4.49,4.8,5.75,7.65.69,1.59,1.31,2.81,1.8,3.8,2.25,4.47,2.56,6.09.45,11.84s-3.4,6.79-8,8.74c-1,.44-2.28,1-3.84,1.73-2.8,1.36-6,1.73-9.33,2.12-1.72.2-3.49.41-5.21.76-1.24.25-2.56.67-4,1.11a30.72,30.72,0,0,1-9.3,1.86Z"/><path class="c" d="M130.93,49.18c3.38,0,6.57,2.36,10,3.61,4.73,1.73,9.74,2.22,13.25,4.76,4.06,2.93,6,7.68,8.65,11.09,3.18,4,7.19,7.2,8.84,11,3.3,7.49,4.59,6.84,2.18,13.4s-3,5.23-10.32,8.8c-3.69,1.79-8.78,1.61-13.83,2.64-3.93.81-8.11,2.91-12.67,2.91-.37,0-.73,0-1.11,0-4.31-.34-8.44-3.21-13.18-4.94-3.49-1.28-7.58-1.52-10.15-3.89s-3.21-6.56-4.71-9.8-4.28-6.31-4.43-9.93S105.73,72,107,68.48s1.52-7.58,3.89-10.15,6.56-3.21,9.8-4.71,6.31-4.28,9.93-4.43h.3m0-6h-.55c-4,.17-7.16,2.06-9.7,3.58a26,26,0,0,1-2.5,1.4,27,27,0,0,1-2.68,1c-2.81,1-6.3,2.14-9,5.08s-3.54,6.4-4.27,9.24c-.28,1.07-.53,2.07-.84,2.91s-.76,1.77-1.24,2.76c-1.29,2.64-2.88,5.94-2.72,9.82s2.06,7.16,3.58,9.7c.54.9,1,1.76,1.4,2.5s.66,1.68,1,2.68c.95,2.81,2.14,6.3,5.08,9s6.4,3.54,9.25,4.27c1.06.27,2.07.53,2.91.84,1.4.52,2.81,1.18,4.29,1.88,3.24,1.53,6.59,3.1,10.49,3.41.52,0,1,.06,1.57.06a33.29,33.29,0,0,0,10.2-2,38.23,38.23,0,0,1,3.68-1c1.58-.33,3.29-.52,4.95-.72,3.45-.4,7-.82,10.29-2.4,1.49-.73,2.67-1.22,3.7-1.67,5.32-2.26,7.23-3.91,9.64-10.46s2-9.06-.58-14.23c-.51-1-1.08-2.14-1.75-3.66-1.46-3.32-3.92-5.94-6.29-8.48-1.14-1.22-2.32-2.48-3.31-3.75-.69-.88-1.4-2-2.14-3.17-1.81-2.87-4.06-6.44-7.73-9.09-3.17-2.29-6.74-3.25-10.2-4.18-1.58-.43-3.08-.83-4.49-1.35a29.65,29.65,0,0,1-2.76-1.24c-2.51-1.21-5.63-2.73-9.27-2.73Z"/><path class="b" d="M275,947.26a80.28,80.28,0,0,1-17.31-7.93c-9.59-5.85-16.48-13-20.24-21-6.18,8.06-16.61,12.42-30.08,12.42a55.67,55.67,0,0,1-9.6-.78l-2.22-.43-.19-2.25c-.08-.9-1.61-21,17.57-36.31a35.48,35.48,0,0,1-17-35.2l.38-2.17,2.18-.28a39.39,39.39,0,0,1,4.63-.24c6.63,0,20.64,1.39,28.4,12.21,5-18.5,20.38-26.95,21.14-27.36l1.82-1,1.56,1.35c.66.57,14.47,12.84,10.95,34.29a29.67,29.67,0,0,1,13.78-3.2,44.45,44.45,0,0,1,19.64,5l2,1.09-.51,2.21c-.2.85-4.75,19.25-27.15,26.74,3.3,3.59,5.89,9.92,6,20.92A101.34,101.34,0,0,1,278.8,945l-.67,3.17Z"/><path class="c" d="M254.09,840.6s16.62,14.38,8,39.34a25.81,25.81,0,0,1,18.74-7.52A41.7,41.7,0,0,1,299,877s-4.89,21-31.69,26.3c16.43,4.12,8.59,41,8.59,41s-31.66-9.3-37.73-33c-6.2,13.93-21,16.38-30.74,16.38a52.21,52.21,0,0,1-9-.73s-1.91-21.7,20.18-36.4c-23.75-11.43-19.65-34.31-19.65-34.31a35.46,35.46,0,0,1,4.24-.22c8.17,0,25.63,2.13,29.88,19.77.71-24.38,21.08-35.27,21.08-35.27m.8-7.24-3.63,1.95a50.14,50.14,0,0,0-20.94,24.14,30.94,30.94,0,0,0-8.26-5.53,46.11,46.11,0,0,0-18.93-3.82,40.52,40.52,0,0,0-5,.27l-4.36.56-.78,4.33a38.43,38.43,0,0,0,15.05,36c-17.21,15.89-15.72,35.38-15.64,36.3l.39,4.51,4.44.86a59.46,59.46,0,0,0,10.17.83c12.5,0,22.6-3.56,29.47-10.21,11.44,18.78,36.1,26.23,37.31,26.58l6.22,1.83,1.34-6.34a104,104,0,0,0,2-20.28c-.09-9-1.79-15.23-4.25-19.48,20.7-8.73,25.12-26.6,25.32-27.47l1-4.41-4-2.2a47.81,47.81,0,0,0-21.09-5.36A33.62,33.62,0,0,0,270.52,868,41,41,0,0,0,258,836.06l-3.12-2.7Z"/><path class="e" d="M254.9,896.77s-13.3,8.77-27.75-4"/><line class="e" x1="240.67" y1="897.91" x2="242.9" y2="882.5"/><path class="e" d="M235.34,897.14A11.21,11.21,0,0,1,234,885.7"/><path class="e" d="M246,898.68a11.19,11.19,0,0,0,4.54-10.58"/><path class="d" d="M255.42,252.65l-1.13,0c-3.88-.23-7.47-1.88-10.95-3.47a49.78,49.78,0,0,0-6.44-2.59,40.56,40.56,0,0,0-6-1.07c-3.76-.5-8-1.05-11.9-3.19-3.2-1.76-5.13-4.77-6.84-7.42a27.29,27.29,0,0,0-2.7-3.73,28.4,28.4,0,0,0-3.71-3.1c-2.49-1.86-5.32-4-6.81-7.15s-1.32-6.74-1.15-9.86a28.08,28.08,0,0,0,0-4.77,27.61,27.61,0,0,0-1.17-4.56c-.95-3-2-6.39-1.34-9.92s2.76-6,4.79-8.51a28.53,28.53,0,0,0,2.89-4,28.56,28.56,0,0,0,1.84-4.58c1-3.07,2.12-6.24,4.64-8.6s6.06-3.36,9.09-4.17a26.82,26.82,0,0,0,4.48-1.44,27.84,27.84,0,0,0,4-2.55c2.55-1.81,5.43-3.85,9-4.3a11.68,11.68,0,0,1,1.46-.09,23,23,0,0,1,8.22,2,28.66,28.66,0,0,0,4.6,1.48,27.25,27.25,0,0,0,4.6.29c3.15,0,6.72.06,9.93,1.82,3.87,2.14,6.62,5.44,9,8.35A40.64,40.64,0,0,0,278,172a49.52,49.52,0,0,0,5.63,4.06c3.2,2.09,6.51,4.25,8.78,7.4,2.57,3.58,3.62,7.74,4.54,11.42a40.44,40.44,0,0,0,1.78,5.84,51.51,51.51,0,0,0,3.77,6.73c2,3.19,3.88,6.21,4.62,9.56.42,1.92.81,3.47,1.13,4.71,1.59,6.22,1.57,7.56-2.17,14.35s-4.86,7.51-11,9.49c-1.22.4-2.73.89-4.58,1.56-3.24,1.17-6.79,1.18-10.55,1.2a52.23,52.23,0,0,0-7.7.41,40.49,40.49,0,0,0-5.89,1.62C263.1,251.43,259.38,252.65,255.42,252.65Z"/><path class="c" d="M237.48,156.55c4.07,0,8.14,2.67,12.25,3.46,4.32.83,9.59-.45,13.65,1.79,5.45,3,8.48,8.83,12.62,12.46,4.65,4.09,10.73,6.47,13.95,11,3.63,5.05,3.84,11.7,6,16.7,2.58,6,7.11,10.75,8.21,15.75,2.24,10.19,3.49,9.29-.74,17s-4.13,6.13-13.94,9.68c-4.81,1.74-11.28.47-17.69,1.47-5.12.8-10.54,3.87-16.38,3.87l-.95,0c-5.52-.32-10.78-4.19-16.72-5.94-5.28-1.55-11.83-1-17.28-4-4.06-2.23-5.8-7.37-8.8-10.58s-8.1-5.42-10-9.46-.33-9.27-.9-13.74-3.39-9-2.53-13.53c.83-4.32,5.13-7.57,7.36-11.63s2.7-9.43,5.9-12.44,8.75-3.19,12.79-5.08,7.62-6,12.09-6.59a8,8,0,0,1,1.09-.07m0-6h0a14,14,0,0,0-1.84.12c-4.26.54-7.61,2.91-10.3,4.82a26.54,26.54,0,0,1-3.58,2.28,25.27,25.27,0,0,1-4,1.26c-3.21.85-7.21,1.91-10.38,4.88s-4.32,6.57-5.43,9.82a27,27,0,0,1-1.62,4.1,28,28,0,0,1-2.6,3.57c-2.16,2.67-4.61,5.7-5.4,9.83s.42,8.21,1.42,11.38a25.18,25.18,0,0,1,1.05,4,25.08,25.08,0,0,1,0,4.24c-.17,3.3-.39,7.4,1.43,11.29s5,6.21,7.73,8.29a26.49,26.49,0,0,1,3.32,2.74,25,25,0,0,1,2.37,3.31c1.8,2.8,4.05,6.29,7.91,8.42,4.38,2.41,8.93,3,13,3.53a38.74,38.74,0,0,1,5.53,1,46.32,46.32,0,0,1,6,2.44c3.72,1.71,7.58,3.47,12,3.73.43,0,.87,0,1.31,0,4.44,0,8.4-1.3,11.89-2.44a38.57,38.57,0,0,1,5.41-1.5,49.44,49.44,0,0,1,7.25-.38c3.85,0,7.83,0,11.56-1.38,1.8-.65,3.23-1.11,4.49-1.52,6.68-2.17,8.5-3.35,12.67-10.91s4.18-9.72,2.45-16.53c-.33-1.28-.7-2.74-1.11-4.61-.85-3.87-3-7.24-5-10.51a48.58,48.58,0,0,1-3.55-6.33,37.78,37.78,0,0,1-1.63-5.38c-1-3.94-2.11-8.4-5-12.44-2.59-3.61-6.14-5.92-9.57-8.16a48.73,48.73,0,0,1-5.29-3.8,38.8,38.8,0,0,1-3.78-4.15c-2.6-3.12-5.54-6.66-9.91-9.07-3.86-2.13-8-2.16-11.34-2.19a25.63,25.63,0,0,1-4.07-.23,27.08,27.08,0,0,1-4.08-1.34,25.63,25.63,0,0,0-9.3-2.23Z"/><path class="d" d="M145.05,239a35.42,35.42,0,0,1-8-1.17,37.31,37.31,0,0,0-4-.77,16.76,16.76,0,0,0-1.71-.09,18.23,18.23,0,0,0-4.56.65,14.44,14.44,0,0,1-3.45.55c-2.51,0-4.57-1.14-6.7-3.68-3.89-4.64-2.52-7.78-1.31-10.54a16.68,16.68,0,0,0,1.65-6.08,35.58,35.58,0,0,0-.05-4.09c-.16-3.25-.34-6.94.91-10.71,1.07-3.23,3.25-5.93,5.37-8.55,1-1.23,2-2.51,2.93-3.81.71-1,1.37-2.26,2.07-3.55,1.57-2.88,3.35-6.15,6.39-8.69,2.54-2.13,5.62-2.74,8.34-3.28,1.08-.22,2.11-.43,3-.71s1.95-.73,3-1.18a19.46,19.46,0,0,1,7.65-2.08c.31,0,.62,0,.93,0,3.18.28,5.78,2,8.08,3.51a32.18,32.18,0,0,0,2.76,1.69c.83.43,1.8.81,2.84,1.22,2.58,1,5.5,2.15,7.63,4.69s2.74,5.61,3.28,8.33a28.5,28.5,0,0,0,.71,3,32,32,0,0,0,1.18,3c1.09,2.53,2.32,5.39,2,8.57s-2,5.78-3.51,8.08a32.18,32.18,0,0,0-1.69,2.76c-.43.83-.81,1.81-1.22,2.84-1,2.58-2.15,5.5-4.69,7.63-3,2.55-6.56,3.73-9.68,4.77-1.38.47-2.7.91-3.85,1.43-1.44.65-2.88,1.44-4.27,2.21-2.94,1.63-6,3.31-9.35,3.8A19.69,19.69,0,0,1,145.05,239Z"/><path class="c" d="M156.55,174.24c.22,0,.44,0,.67,0,3.55.32,6.5,3.2,9.71,4.88s7.17,2.33,9.56,5.17,2.37,7,3.42,10.32,3.42,6.86,3.1,10.42-3.2,6.5-4.87,9.71-2.33,7.18-5.17,9.56c-3.87,3.24-8.89,4-12.84,5.76-4.56,2.06-8.53,5.16-12.82,5.78a15.82,15.82,0,0,1-2.26.16c-4.26,0-8.25-1.55-11.72-1.92a18.49,18.49,0,0,0-2-.11c-3.79,0-6,1.2-8,1.2-1.41,0-2.72-.59-4.4-2.6-4.49-5.36.47-6.32,1-14.49.28-4.09-.91-9.18.7-14.06,1.37-4.12,5.11-7.49,7.94-11.62,2.44-3.58,4.05-8.39,7.91-11.63,2.85-2.39,7-2.38,10.32-3.43s6.44-3.12,9.75-3.12m0-6h0a22.34,22.34,0,0,0-8.83,2.32,28.22,28.22,0,0,1-2.72,1.08c-.74.23-1.69.42-2.7.62-2.92.58-6.55,1.31-9.67,3.93-3.48,2.91-5.49,6.6-7.1,9.56a36.75,36.75,0,0,1-1.92,3.28c-.82,1.21-1.77,2.38-2.78,3.63-2.29,2.82-4.65,5.74-5.89,9.49-1.42,4.3-1.22,8.46-1.06,11.8a34.41,34.41,0,0,1,.06,3.73,13.61,13.61,0,0,1-1.41,5.08c-1.24,2.85-3.33,7.61,1.76,13.68,2.68,3.19,5.62,4.75,9,4.75a17.49,17.49,0,0,0,4.16-.63,15.12,15.12,0,0,1,3.85-.57,13.2,13.2,0,0,1,1.39.07,34.68,34.68,0,0,1,3.67.71,37.69,37.69,0,0,0,8.69,1.25,22.8,22.8,0,0,0,3.12-.22c3.91-.57,7.2-2.39,10.37-4.14,1.4-.78,2.73-1.51,4.06-2.11,1-.46,2.25-.87,3.57-1.31,3.2-1.07,7.18-2.41,10.65-5.32,3.13-2.62,4.47-6.07,5.56-8.84a26.22,26.22,0,0,1,1.08-2.54,28,28,0,0,1,1.54-2.49c1.62-2.47,3.64-5.54,4-9.48s-1.11-7.31-2.28-10c-.42-1-.82-1.91-1.07-2.72s-.42-1.69-.63-2.69c-.58-2.92-1.3-6.55-3.92-9.68S175,176,172.25,174.9a26.5,26.5,0,0,1-2.55-1.08c-.75-.39-1.59-.95-2.49-1.54-2.46-1.62-5.54-3.65-9.47-4a11.72,11.72,0,0,0-1.19,0Z"/><path class="d" d="M275.72,989.17c-2.25,0-4.41-.94-6.81-2.95-5.34-4.49-4.38-8.36-3.53-11.77a19.31,19.31,0,0,0,.59-8.38,35.34,35.34,0,0,0-1.58-5.6c-1.23-3.62-2.62-7.72-2.44-12.29.16-3.78,1.67-7.37,3.13-10.84a50,50,0,0,0,2.45-6.66,40.8,40.8,0,0,0,.89-6c.38-3.79.81-8.09,2.86-12,1.76-3.39,4.68-6,7.51-8.46a47.51,47.51,0,0,0,5.08-4.94,29,29,0,0,0,2.69-4.14c1.62-2.81,3.29-5.71,6.21-7.54s6.6-2.13,9.73-2.33a27.59,27.59,0,0,0,4.67-.55,28.31,28.31,0,0,0,4.46-1.72c2.75-1.24,5.59-2.51,8.81-2.51l.8,0c3.5.25,6.49,2.12,9.13,3.78a27.73,27.73,0,0,0,4.22,2.34,25.51,25.51,0,0,0,4.46,1.17c3.09.64,6.58,1.36,9.38,3.71s4.12,5.67,5.28,8.6a27.38,27.38,0,0,0,1.93,4.19,28.77,28.77,0,0,0,3,3.75c2.08,2.31,4.45,4.93,5.3,8.34s0,6.86-.78,9.89a27.31,27.31,0,0,0-.93,4.69,27.85,27.85,0,0,0,.27,4.69c.35,3.12.74,6.66-.61,10s-3.86,5.35-6.35,7.43a29.59,29.59,0,0,0-3.61,3.36,49,49,0,0,0-4,5.86c-2,3.22-4,6.54-7,8.87-3.51,2.7-7.68,3.87-11.35,4.9a41.36,41.36,0,0,0-5.76,1.91,50.72,50.72,0,0,0-6.14,3.57c-3.16,2-6.44,4.15-10.13,5a22.88,22.88,0,0,1-4.86.49,50.06,50.06,0,0,1-7.67-.76,39.21,39.21,0,0,0-5.49-.59h-.29a19.26,19.26,0,0,0-8.16,2,12.83,12.83,0,0,1-5.39,1.51Z"/><path class="c" d="M320.44,883.46c.19,0,.39,0,.59,0,4.45.31,8.21,4.19,12.43,5.9s9.5,1.42,13,4.4,4.26,8.35,6.59,12.08,6.9,6.89,8,11.22-1.47,9.15-1.78,13.65,1.58,9.54-.13,13.76-6.49,6.44-9.47,10c-4,4.77-6.19,10.93-10.55,14.28-4.91,3.77-11.5,4.17-16.53,6.46-5.65,2.58-10.33,7.17-15.66,8.33a19.68,19.68,0,0,1-4.22.42c-4.72,0-9.27-1.35-13.16-1.35h-.35c-7.36.16-10.14,3.55-13.49,3.55-1.4,0-2.9-.59-4.88-2.25-6.71-5.63-.32-8-1.9-18.31-.78-5.05-4.25-10.83-4-17.31.22-5.45,3.92-10.85,5.49-16.87,1.38-5.35.63-11.91,3.5-17.39,2.54-4.88,8.23-8.09,12.23-12.86,3-3.55,4.47-8.74,8.19-11.07s9.21-1.44,13.54-2.51,8.26-4.14,12.54-4.14m0-6c-3.86,0-7.15,1.47-10,2.77a26.51,26.51,0,0,1-3.95,1.55,26.23,26.23,0,0,1-4.14.47c-3.31.21-7.44.47-11.13,2.78s-5.5,5.6-7.22,8.58a26.58,26.58,0,0,1-2.39,3.71,45.84,45.84,0,0,1-4.77,4.62c-3,2.68-6.16,5.44-8.18,9.32-2.32,4.44-2.78,9-3.19,13.12a37.9,37.9,0,0,1-.8,5.54,47.29,47.29,0,0,1-2.31,6.26c-1.57,3.71-3.19,7.56-3.36,11.88-.21,5.12,1.34,9.7,2.59,13.38a34.18,34.18,0,0,1,1.46,5.08,16.46,16.46,0,0,1-.54,7.21c-.91,3.62-2.27,9.09,4.52,14.79,3,2.49,5.74,3.65,8.73,3.65a15.69,15.69,0,0,0,6.61-1.77,16.34,16.34,0,0,1,7-1.78h.22a36.44,36.44,0,0,1,5,.56,53.23,53.23,0,0,0,8.12.79,25.48,25.48,0,0,0,5.49-.56c4.23-.92,7.74-3.18,11.13-5.37a46.5,46.5,0,0,1,5.76-3.36,38.16,38.16,0,0,1,5.32-1.75c3.93-1.11,8.39-2.36,12.37-5.41,3.47-2.67,5.65-6.23,7.76-9.68a44.67,44.67,0,0,1,3.72-5.5,27,27,0,0,1,3.24-3c2.64-2.21,5.63-4.71,7.2-8.61s1.18-8.14.81-11.44a25.57,25.57,0,0,1-.25-4.16,26.6,26.6,0,0,1,.83-4.15c.81-3.2,1.82-7.19.79-11.36s-3.66-7-6-9.62a27.24,27.24,0,0,1-2.72-3.33A25,25,0,0,1,356.5,899c-1.23-3.09-2.76-7-6.14-9.79s-7.44-3.67-10.71-4.35a24.31,24.31,0,0,1-3.94-1,26.94,26.94,0,0,1-3.75-2.1c-2.93-1.85-6.26-3.93-10.51-4.23l-1,0Z"/><path class="b" d="M149.75,212.49c-.37-1.76-7.88-38.15,5.76-51.14-28.74-9-34.51-32.36-34.76-33.42l-.51-2.21,2-1.1a55.21,55.21,0,0,1,24.3-6.16,36.06,36.06,0,0,1,18.37,4.71,49.16,49.16,0,0,1,3.36-30,43.6,43.6,0,0,1,9.85-14l1.56-1.35,1.81,1c1,.51,20.95,11.48,26.61,35.56C217.4,99.77,235.61,98,244.07,98a48.53,48.53,0,0,1,5.72.3l2.18.28.39,2.16c0,.3,4.69,28.23-22,44,24.7,19,22.77,44.51,22.67,45.64l-.2,2.25-2.22.43a68.2,68.2,0,0,1-11.91,1c-17.24,0-30.44-5.75-38-16.36-4.51,10.36-13.27,19.68-25.67,27.23a98.77,98.77,0,0,1-21.56,9.88l-3.1.92Z"/><path class="c" d="M180.05,81.47s25.59,13.69,26.48,44.32c5.34-22.17,27.28-24.84,37.54-24.84a45.77,45.77,0,0,1,5.33.27s5.15,28.76-24.68,43.11c27.75,18.47,25.34,45.75,25.34,45.75a66.05,66.05,0,0,1-11.34.91c-12.18,0-30.83-3.08-38.63-20.59-7.62,29.79-47.4,41.47-47.4,41.47s-9.85-46.4,10.8-51.58c-33.67-6.72-39.82-33-39.82-33a52.46,52.46,0,0,1,22.84-5.78,32.44,32.44,0,0,1,23.55,9.44c-10.9-31.35,10-49.43,10-49.43m-.81-7.24-3.12,2.7a46.36,46.36,0,0,0-10.61,15,51.56,51.56,0,0,0-4.37,26.13,40.39,40.39,0,0,0-14.62-2.6A58.38,58.38,0,0,0,120.76,122l-4,2.2,1,4.41c.25,1.08,5.85,23.73,32.59,34.13-4.67,6.94-6,16.75-6.07,25.22a129.12,129.12,0,0,0,2.47,25.15l1.34,6.34,6.22-1.83a103.27,103.27,0,0,0,22.27-10.19c11.21-6.84,19.59-15.09,24.72-24.28,8.34,9,21.2,13.84,37.35,13.84a72.13,72.13,0,0,0,12.48-1l4.44-.86.4-4.51c.1-1.14,2-25.92-20.57-45.61A46.15,46.15,0,0,0,254,119a46.86,46.86,0,0,0,1.27-18.8l-.78-4.33-4.36-.57a51.53,51.53,0,0,0-6.1-.32c-6,0-14.8.81-23.13,4.66A36.71,36.71,0,0,0,209.31,108c-7.5-21.4-25.49-31.27-26.43-31.77l-3.64-2Z"/><path class="e" d="M179,152.05s16.71,11,34.86-5.05"/><line class="e" x1="196.91" y1="153.48" x2="194.11" y2="134.12"/><path class="e" d="M203.6,152.51a14.06,14.06,0,0,0,1.71-14.36"/><path class="e" d="M190.21,154.45a14.08,14.08,0,0,1-5.71-13.29"/><path class="b" d="M357.07,135a62.22,62.22,0,0,1-16.95-7.59c-9.08-5.89-14.68-13.44-16.46-22.08-12.16,10.34-29.36,12-39.28,12a77.12,77.12,0,0,1-10.73-.67l-3.2-.48.73-3.16C272,109.51,279,81,293.82,75.29c-18.68-17.51-14.74-37.62-14.54-38.55l.46-2.21,2.26-.16c.07,0,.75,0,1.89,0,5.56,0,22.22,1.13,31.68,13.82C321.75,25.3,341,19.56,341.88,19.3l2-.57,1.24,1.65c.56.75,11.9,16.21,8.08,36.72a28.41,28.41,0,0,1,14.66-3.81c12.27,0,22.84,6.61,23.29,6.89L393,61.36l-.56,2.13c-.07.25-6.56,23.59-32.82,26.53,12,23.73,1.28,42.76.8,43.6l-1.13,2Z"/><path class="c" d="M342.7,22.18s15,19.94,4.54,44.1a25.27,25.27,0,0,1,20.6-10c11.54,0,21.68,6.43,21.68,6.43S383.09,87,354.67,87.32c14.9,24.44,3.13,44.8,3.13,44.8s-32.2-8-31.76-33.44c-11,13.4-29.94,15.71-41.66,15.71a75.68,75.68,0,0,1-10.28-.63S282.52,77.31,299,77.31a11.16,11.16,0,0,1,2.2.22c-23.78-17.45-19-40.17-19-40.17s.61,0,1.68,0c6,0,26.29,1.38,33.1,19.72,2.9-28.36,25.71-34.86,25.71-34.86m2.33-6.9-4,1.13a43.78,43.78,0,0,0-26.72,25.87,36.88,36.88,0,0,0-12-7.56,51.8,51.8,0,0,0-18.45-3.4c-1.22,0-2,0-2.11.05l-4.51.33-.93,4.43c-.2.94-4,20.47,12.48,38.37Q281,79.66,274.91,93a114.42,114.42,0,0,0-6.66,19.36l-1.45,6.32,6.4,1a81,81,0,0,0,11.18.7c9.42,0,25.13-1.48,37.58-10,2.72,7.57,8.3,14.2,16.53,19.54a65.72,65.72,0,0,0,17.86,8l4.38,1.1,2.26-3.92c.5-.86,10.88-19.32,1-42.75a40.93,40.93,0,0,0,31.32-28.12L396.45,60l-3.72-2.35c-.47-.3-11.76-7.36-24.89-7.36a32.66,32.66,0,0,0-11,1.84,53.57,53.57,0,0,0-9.33-33.55L345,15.28Z"/><path class="e" d="M316.31,76.75s9,14.64,29,8.72"/><line class="e" x1="329.7" y1="84.35" x2="334.55" y2="68.26"/><path class="e" d="M335.26,86a12.08,12.08,0,0,0,6.55-10.56"/><path class="e" d="M324.14,82.67a12.07,12.07,0,0,1,.38-12.41"/><path class="b" d="M43.26,96.47c-.48-.84-11.18-19.88.8-43.6-12.9-1.45-20.89-7.8-25.44-13.2a37.52,37.52,0,0,1-7.38-13.34l-.56-2.12L12.53,23c.45-.28,11-6.89,23.29-6.89A28.41,28.41,0,0,1,50.48,20C46.66-.56,58-16,58.56-16.77l1.24-1.65,2,.57c.91.25,20.14,6,26.31,28.84,9.46-12.7,26.12-13.83,31.68-13.83,1.14,0,1.82,0,1.89.06l2.26.16.46,2.21c.2.92,4.14,21-14.54,38.54,14.79,5.67,21.82,34.23,22.64,37.8l.73,3.15-3.2.49a78.18,78.18,0,0,1-10.73.66c-9.92,0-27.12-1.68-39.28-12-1.78,8.64-7.38,16.19-16.46,22.08a62.22,62.22,0,0,1-16.95,7.59l-2.2.55Z"/><path class="c" d="M61-15s22.81,6.5,25.71,34.85C93.48,1.55,113.79.16,119.77.16c1.07,0,1.68,0,1.68,0s4.77,22.72-19,40.16a12,12,0,0,1,2.2-.21c16.5,0,24.92,36.44,24.92,36.44a75.68,75.68,0,0,1-10.28.63c-11.72,0-30.67-2.3-41.66-15.7C78.06,86.93,45.86,95,45.86,95S34.09,74.61,49,50.17c-28.42-.35-34.85-24.6-34.85-24.6s10.14-6.43,21.68-6.43a25.27,25.27,0,0,1,20.6,10C46,5,61-15,61-15m-2.33-6.9-2.47,3.3A53.57,53.57,0,0,0,46.83,15a32.66,32.66,0,0,0-11-1.84c-13.13,0-24.42,7.06-24.89,7.36L7.21,22.85,8.34,27.1a40.35,40.35,0,0,0,8,14.51A40.37,40.37,0,0,0,39.66,55.22c-9.87,23.43.51,41.89,1,42.75l2.26,3.91,4.38-1.09a65.59,65.59,0,0,0,17.86-8C73.4,87.47,79,80.84,81.7,73.27c12.46,8.49,28.16,10,37.58,10a84.08,84.08,0,0,0,11.18-.69l6.4-1-1.45-6.31a113.4,113.4,0,0,0-6.66-19.36q-6.12-13.37-13.91-18.54C131.35,19.45,127.52-.08,127.32-1l-.93-4.43-4.51-.33c-.14,0-.89-.06-2.11-.06a51.78,51.78,0,0,0-18.44,3.41,36.82,36.82,0,0,0-12,7.56A43.74,43.74,0,0,0,62.6-20.74l-4-1.13Z"/><path class="e" d="M87.35,39.6s-9,14.64-29,8.72"/><line class="e" x1="73.96" y1="47.2" x2="69.11" y2="31.11"/><path class="e" d="M68.4,48.87a12.06,12.06,0,0,1-6.54-10.56"/><path class="e" d="M79.52,45.52a12.07,12.07,0,0,0-.38-12.41"/><path class="d" d="M153.31,915.11l-1.14,0c-3.87-.23-7.47-1.88-10.94-3.47a51,51,0,0,0-6.44-2.59,41,41,0,0,0-6-1.07c-3.76-.5-8-1.05-11.9-3.19-3.2-1.76-5.13-4.77-6.84-7.42a27.19,27.19,0,0,0-2.7-3.74,29.18,29.18,0,0,0-3.71-3.09c-2.49-1.86-5.32-4-6.81-7.15s-1.31-6.74-1.15-9.86a27.08,27.08,0,0,0,0-4.77,27.61,27.61,0,0,0-1.17-4.56c-.94-3-2-6.39-1.33-9.92s2.75-6,4.79-8.51a29.37,29.37,0,0,0,2.89-4,29.51,29.51,0,0,0,1.84-4.58c1-3.07,2.12-6.24,4.63-8.6s6.06-3.36,9.1-4.17a27,27,0,0,0,4.47-1.44,28.72,28.72,0,0,0,4-2.55c2.55-1.81,5.43-3.85,9-4.3a11.8,11.8,0,0,1,1.46-.09,22.9,22.9,0,0,1,8.22,2,28.66,28.66,0,0,0,4.6,1.48,27.25,27.25,0,0,0,4.6.29c3.15,0,6.73.06,9.93,1.82,3.87,2.14,6.62,5.44,9,8.35a41.64,41.64,0,0,0,4.11,4.49,50.43,50.43,0,0,0,5.63,4.06c3.21,2.09,6.52,4.25,8.78,7.4,2.57,3.58,3.62,7.74,4.55,11.42a38.07,38.07,0,0,0,1.78,5.84,50.31,50.31,0,0,0,3.76,6.73c2,3.19,3.88,6.2,4.62,9.56.42,1.92.82,3.47,1.13,4.71,1.59,6.22,1.57,7.56-2.17,14.35s-4.86,7.51-11,9.49c-1.22.4-2.74.89-4.59,1.56-3.23,1.17-6.79,1.18-10.55,1.2a52.23,52.23,0,0,0-7.7.41,40.38,40.38,0,0,0-5.88,1.62C161,913.89,157.26,915.11,153.31,915.11Z"/><path class="c" d="M135.36,819c4.07,0,8.15,2.67,12.25,3.46,4.32.83,9.59-.45,13.65,1.79,5.45,3,8.49,8.83,12.62,12.46,4.65,4.09,10.73,6.47,14,11,3.63,5.05,3.84,11.7,6,16.7,2.58,6,7.11,10.75,8.21,15.75,2.24,10.19,3.49,9.29-.73,17s-4.14,6.13-13.95,9.68c-4.81,1.74-11.28.47-17.69,1.47-5.11.8-10.53,3.87-16.37,3.87l-1,0c-5.51-.32-10.78-4.19-16.72-5.94-5.27-1.55-11.82-1-17.28-4-4.06-2.23-5.79-7.37-8.8-10.58s-8.1-5.42-10-9.46-.33-9.27-.89-13.74-3.4-9.05-2.54-13.53c.83-4.32,5.13-7.57,7.37-11.63s2.69-9.43,5.9-12.44,8.75-3.19,12.79-5.09,7.61-6,12.08-6.58a8.08,8.08,0,0,1,1.09-.07m0-6h0a14,14,0,0,0-1.84.12c-4.26.54-7.61,2.91-10.3,4.82a25.35,25.35,0,0,1-3.58,2.28,24.93,24.93,0,0,1-4,1.26c-3.21.85-7.2,1.91-10.38,4.88s-4.32,6.57-5.42,9.82a26.9,26.9,0,0,1-1.63,4.1,27.08,27.08,0,0,1-2.6,3.57c-2.16,2.67-4.61,5.7-5.4,9.83s.42,8.21,1.42,11.38a25.18,25.18,0,0,1,1,4,26.07,26.07,0,0,1,0,4.24c-.18,3.3-.4,7.4,1.43,11.29s5,6.21,7.73,8.29a25.63,25.63,0,0,1,3.31,2.74,24.08,24.08,0,0,1,2.37,3.31c1.8,2.8,4,6.29,7.92,8.42,4.37,2.41,8.93,3,13,3.53a38.74,38.74,0,0,1,5.53,1,45.76,45.76,0,0,1,6,2.44c3.73,1.71,7.58,3.47,12,3.73.43,0,.87,0,1.31,0,4.43,0,8.39-1.3,11.88-2.44a37,37,0,0,1,5.42-1.5,49.29,49.29,0,0,1,7.25-.38c3.85,0,7.83,0,11.55-1.38,1.8-.65,3.23-1.12,4.49-1.52,6.68-2.17,8.51-3.35,12.67-10.91s4.19-9.72,2.45-16.53c-.33-1.28-.7-2.74-1.11-4.61-.85-3.87-3-7.24-5-10.51a49.78,49.78,0,0,1-3.55-6.33,36.59,36.59,0,0,1-1.62-5.38c-1-3.94-2.12-8.4-5-12.44-2.6-3.61-6.14-5.92-9.58-8.16a48.73,48.73,0,0,1-5.29-3.8,39.89,39.89,0,0,1-3.78-4.15c-2.59-3.12-5.53-6.66-9.9-9.07-3.87-2.13-8-2.16-11.35-2.19a25.49,25.49,0,0,1-4.06-.23,26.8,26.8,0,0,1-4.09-1.34,25.58,25.58,0,0,0-9.3-2.23Z"/><path class="d" d="M429.34,963.61l-1.13,0c-3.87-.23-7.47-1.87-10.94-3.46a50.56,50.56,0,0,0-6.45-2.6,40.56,40.56,0,0,0-6-1.07c-3.76-.49-8-1.05-11.9-3.19-3.2-1.76-5.13-4.76-6.84-7.41a26,26,0,0,0-2.7-3.74,27.6,27.6,0,0,0-3.71-3.09c-2.49-1.87-5.32-4-6.81-7.16s-1.31-6.74-1.15-9.86a28.08,28.08,0,0,0,0-4.77,27.61,27.61,0,0,0-1.17-4.56c-.94-3-2-6.38-1.34-9.91s2.76-6,4.8-8.52a29.61,29.61,0,0,0,2.89-4,28.56,28.56,0,0,0,1.83-4.58c1.05-3.06,2.12-6.23,4.64-8.6s6.06-3.36,9.1-4.16a28,28,0,0,0,4.47-1.45,27,27,0,0,0,4-2.55c2.55-1.8,5.43-3.85,8.95-4.29a11.8,11.8,0,0,1,1.46-.09,23.15,23.15,0,0,1,8.22,2,27.69,27.69,0,0,0,4.6,1.48,26.25,26.25,0,0,0,4.6.29c3.15,0,6.73.06,9.93,1.82,3.87,2.14,6.62,5.44,9,8.36A40.49,40.49,0,0,0,451.9,883a49.18,49.18,0,0,0,5.63,4.06c3.2,2.09,6.51,4.25,8.78,7.4,2.57,3.58,3.62,7.75,4.54,11.42a40.05,40.05,0,0,0,1.78,5.84,51.51,51.51,0,0,0,3.77,6.73c2,3.2,3.88,6.21,4.62,9.57.42,1.92.82,3.46,1.13,4.71,1.59,6.22,1.57,7.56-2.17,14.34s-4.86,7.51-11,9.5c-1.22.39-2.73.88-4.58,1.55-3.24,1.17-6.79,1.19-10.55,1.2a50.9,50.9,0,0,0-7.7.42,39.48,39.48,0,0,0-5.89,1.61C437,962.4,433.3,963.61,429.34,963.61Z"/><path class="c" d="M411.4,867.52c4.07,0,8.14,2.66,12.25,3.45,4.32.83,9.59-.45,13.65,1.79,5.45,3,8.49,8.84,12.62,12.47,4.65,4.08,10.73,6.47,13.95,10.95,3.63,5.05,3.84,11.7,6,16.71,2.58,6,7.11,10.75,8.21,15.74,2.24,10.19,3.49,9.29-.73,17s-4.14,6.13-13.95,9.68c-4.81,1.74-11.28.48-17.69,1.47-5.12.8-10.54,3.87-16.38,3.87l-.95,0c-5.52-.33-10.78-4.2-16.72-5.94-5.28-1.56-11.83-1-17.28-4-4.06-2.24-5.8-7.38-8.8-10.58s-8.1-5.43-10-9.47-.33-9.27-.89-13.74-3.4-9.05-2.54-13.53c.83-4.31,5.13-7.57,7.36-11.63s2.7-9.43,5.9-12.44,8.76-3.19,12.8-5.08,7.61-6,12.08-6.59a10.09,10.09,0,0,1,1.09-.06m0-6h0a14,14,0,0,0-1.84.11c-4.26.54-7.61,2.91-10.3,4.82a24.47,24.47,0,0,1-3.58,2.28,25.2,25.2,0,0,1-4,1.27c-3.21.84-7.21,1.9-10.38,4.88s-4.32,6.56-5.43,9.82a27.37,27.37,0,0,1-1.62,4.1,27.72,27.72,0,0,1-2.6,3.56c-2.16,2.67-4.61,5.7-5.4,9.83s.42,8.22,1.42,11.38a25.18,25.18,0,0,1,1.05,4,26.19,26.19,0,0,1,0,4.25c-.18,3.29-.4,7.39,1.42,11.28s5,6.22,7.74,8.29a26.47,26.47,0,0,1,3.31,2.74,24.08,24.08,0,0,1,2.37,3.31c1.8,2.8,4.05,6.29,7.91,8.42,4.38,2.41,8.94,3,13,3.53a38.74,38.74,0,0,1,5.53,1,47.77,47.77,0,0,1,6,2.44c3.72,1.71,7.58,3.47,12,3.73.44,0,.88,0,1.31,0,4.44,0,8.4-1.29,11.89-2.44a38.57,38.57,0,0,1,5.41-1.5,49.44,49.44,0,0,1,7.25-.38c3.85,0,7.84,0,11.56-1.38,1.8-.65,3.23-1.11,4.49-1.52,6.68-2.17,8.51-3.35,12.67-10.9s4.18-9.73,2.45-16.54c-.33-1.28-.7-2.74-1.11-4.61-.85-3.86-3-7.24-5-10.51a48.58,48.58,0,0,1-3.55-6.33,37.39,37.39,0,0,1-1.63-5.38c-1-3.93-2.11-8.4-5-12.44-2.6-3.6-6.15-5.92-9.58-8.16a47.41,47.41,0,0,1-5.29-3.8,38.89,38.89,0,0,1-3.78-4.15c-2.59-3.12-5.53-6.66-9.91-9.06-3.86-2.13-8-2.17-11.34-2.2a24.49,24.49,0,0,1-4.07-.23,27.08,27.08,0,0,1-4.08-1.34,25.78,25.78,0,0,0-9.3-2.22Z"/><path class="d" d="M42.93,901.48a35.59,35.59,0,0,1-8-1.17,37.31,37.31,0,0,0-4-.77,16.61,16.61,0,0,0-1.71-.09,18.23,18.23,0,0,0-4.56.65,14.36,14.36,0,0,1-3.45.55c-2.5,0-4.57-1.14-6.7-3.68-3.89-4.64-2.52-7.78-1.3-10.54a16.88,16.88,0,0,0,1.65-6.08,38.19,38.19,0,0,0-.06-4.09c-.16-3.25-.34-6.94.91-10.71,1.07-3.23,3.26-5.93,5.37-8.55,1-1.23,2-2.51,2.93-3.81.71-1.05,1.37-2.26,2.08-3.55,1.57-2.88,3.35-6.14,6.39-8.69,2.53-2.13,5.61-2.74,8.33-3.28,1.09-.22,2.11-.43,3-.71s1.95-.73,3-1.18a19.41,19.41,0,0,1,7.65-2.08c.3,0,.61,0,.92,0,3.18.28,5.79,2,8.09,3.51a32.08,32.08,0,0,0,2.75,1.69c.83.43,1.81.81,2.84,1.22,2.58,1,5.5,2.15,7.63,4.69s2.74,5.62,3.29,8.33a28.6,28.6,0,0,0,.7,3c.3.95.73,1.95,1.18,3,1.09,2.53,2.33,5.39,2,8.57s-2,5.79-3.51,8.09c-.63,1-1.22,1.86-1.69,2.75s-.81,1.81-1.22,2.84c-1,2.58-2.15,5.5-4.69,7.63-3,2.55-6.56,3.73-9.67,4.77-1.39.47-2.7.91-3.85,1.43-1.45.65-2.88,1.44-4.28,2.21-2.94,1.63-6,3.31-9.35,3.8A19.69,19.69,0,0,1,42.93,901.48Z"/><path class="c" d="M54.44,836.69l.66,0c3.55.32,6.5,3.2,9.71,4.88s7.18,2.32,9.56,5.17,2.38,7,3.43,10.32,3.41,6.86,3.1,10.42S77.7,874,76,877.22s-2.32,7.18-5.17,9.56C67,890,62,890.76,58,892.54c-4.56,2.06-8.53,5.16-12.82,5.78a15.82,15.82,0,0,1-2.26.16c-4.26,0-8.25-1.55-11.72-1.92a18.36,18.36,0,0,0-2-.11c-3.79,0-6,1.2-8,1.2-1.41,0-2.71-.59-4.4-2.6-4.49-5.36.47-6.32,1-14.49.29-4.09-.91-9.18.71-14.07,1.36-4.11,5.11-7.48,7.93-11.61,2.44-3.58,4.05-8.39,7.91-11.63,2.85-2.39,7-2.38,10.32-3.43s6.44-3.12,9.76-3.13m0-6h0A22.51,22.51,0,0,0,45.6,833a27.23,27.23,0,0,1-2.72,1.08c-.74.23-1.69.42-2.69.62-2.92.58-6.55,1.31-9.68,3.93-3.47,2.91-5.48,6.6-7.1,9.56-.66,1.21-1.29,2.37-1.92,3.28-.82,1.21-1.77,2.38-2.78,3.63-2.28,2.82-4.65,5.74-5.89,9.49-1.42,4.3-1.22,8.45-1.06,11.8a32,32,0,0,1,.06,3.73,13.81,13.81,0,0,1-1.4,5.08c-1.25,2.85-3.34,7.61,1.75,13.68,2.68,3.19,5.62,4.75,9,4.75a17.49,17.49,0,0,0,4.16-.63,15.12,15.12,0,0,1,3.85-.57,13.2,13.2,0,0,1,1.39.07,34.68,34.68,0,0,1,3.67.71,37.77,37.77,0,0,0,8.69,1.25,22.8,22.8,0,0,0,3.12-.22c3.91-.57,7.2-2.39,10.38-4.14,1.4-.78,2.72-1.51,4-2.11,1-.46,2.26-.87,3.57-1.31,3.2-1.07,7.18-2.41,10.65-5.32,3.13-2.62,4.48-6.07,5.56-8.84A26.22,26.22,0,0,1,81.34,880c.4-.76,1-1.6,1.54-2.49,1.62-2.47,3.65-5.54,4-9.48s-1.1-7.31-2.27-10a27.23,27.23,0,0,1-1.08-2.72c-.23-.74-.42-1.69-.62-2.7-.58-2.91-1.31-6.54-3.93-9.67s-6.07-4.48-8.84-5.56a26.22,26.22,0,0,1-2.54-1.08,28,28,0,0,1-2.49-1.54c-2.47-1.62-5.54-3.65-9.48-4a11.66,11.66,0,0,0-1.18-.06Z"/><path class="b" d="M490.63,55.06c-1.15-.25-25.75-5.76-35.94-23.51-4.19,6.06-12.86,13.19-30.46,13.19a44.06,44.06,0,0,1-4.71-.22l-2.24-.27L416.91,42c-.13-.81-2.83-18.88,13.33-34.06A32.35,32.35,0,0,1,414.52-10a32.14,32.14,0,0,1-1.83-12.91l.22-2.19,2.16-.44a41,41,0,0,1,7.57-.65c6.34,0,16.39,1.36,23.05,9C449.18-34,462.39-42.61,463.05-43l1.75-1.1,1.65,1.23c.64.48,13.86,10.6,12.35,30.1a28.18,28.18,0,0,1,14.36-3.69A41.51,41.51,0,0,1,509-13.17l2.05,1L510.7-10c-.12.79-3,17.69-22.61,26.08,3.14,3.14,5.79,8.73,6.6,18.45a92.35,92.35,0,0,1-.45,18l-.44,3.21Z"/><path class="c" d="M464.66-40.49s16,11.94,9.81,35.13C480-11.7,487-13.49,493.16-13.49a38.49,38.49,0,0,1,14.58,3.05s-3.05,19.31-27,25.93c15.17,2.65,10.51,36.64,10.51,36.64S462,45.8,454.88,24.71c-5.46,15.16-22.54,17-30.65,17a41.27,41.27,0,0,1-4.36-.2S416.7,22,435.75,7.2c-22.28-8.78-20.08-29.79-20.08-29.79a38.35,38.35,0,0,1,7-.59c8.08,0,20.86,2.31,25.25,16.05-1-22.14,16.77-33.36,16.77-33.36m.28-7.28-3.49,2.21a46.14,46.14,0,0,0-17.37,22.85c-5.5-4.21-12.81-6.47-21.44-6.47a44.16,44.16,0,0,0-8.17.71l-4.31.88-.46,4.37a35.21,35.21,0,0,0,2,14.23A34.83,34.83,0,0,0,425.43,8.57C411.2,24.2,413.82,41.67,414,42.5l.73,4.46,4.48.54a48.52,48.52,0,0,0,5.07.24c13.08,0,23.58-3.92,30.25-11.06C466.34,52.7,488.87,57.75,490,58l6.33,1.37.88-6.42c.42-3,3-24-4.43-35.75,18-9.46,20.76-25.89,20.88-26.7l.71-4.47-4.11-1.91a44.85,44.85,0,0,0-17.1-3.6,32.56,32.56,0,0,0-11.27,1.92A37.76,37.76,0,0,0,468.24-45.3l-3.3-2.47Z"/><path class="e" d="M469.11,10.36s-11.47,8.83-25.42-1.8"/><line class="e" x1="456.29" y1="12.34" x2="457.29" y2="-1.78"/><path class="e" d="M451.41,12a10.18,10.18,0,0,1-2-10.27"/><path class="e" d="M461.17,12.68a10.16,10.16,0,0,0,3.42-9.88"/><path class="a" d="M328.62,728.48s21.82,52,21.82,104.41"/><path class="b" d="M328,732.72c-5.43,0-10.33-4.87-13.47-13.37-3.3-8.93-4.9-23.35,2.14-26a5.75,5.75,0,0,1,2-.36c7,0,13.78,11.47,16.45,18.7,1.8,4.89,2.4,9.17,1.76,12.72-.68,3.82-2.79,6.57-5.93,7.73A8.71,8.71,0,0,1,328,732.72Z"/><path class="c" d="M318.71,696c4.2,0,10.51,8.27,13.64,16.74,3.38,9.15,1.74,15.06-2.4,16.59a5.63,5.63,0,0,1-1.94.35c-3.7,0-7.79-3.65-10.66-11.41-3.38-9.16-3.78-20.57.36-22.09a2.81,2.81,0,0,1,1-.18m0-6h0a8.77,8.77,0,0,0-3.06.55c-9.56,3.53-7.48,20.15-3.92,29.8s9.54,15.33,16.29,15.33a11.56,11.56,0,0,0,4-.72c6.06-2.23,11.25-9.94,5.94-24.3a49.35,49.35,0,0,0-7.35-13.2c-3.94-5-7.95-7.46-11.91-7.46Z"/><path class="a" d="M316.87,754.64s18.95,8.94,24.27,5.69"/><path class="a" d="M352.68,744.09s-5.45,16.82-11.54,16.24"/><path class="b" d="M311.23,762.66a26.83,26.83,0,0,1-8.82-1.72,41.35,41.35,0,0,1-12.12-6.75c-5.4-4.49-5.62-8-4.86-10.15s3.23-4.8,10.5-4.8a41.61,41.61,0,0,1,13.33,2.41c11.37,4,13.56,10.66,12,15.11C319.91,760.51,316.26,762.66,311.23,762.66Z"/><path class="c" d="M295.93,742.24a38.69,38.69,0,0,1,12.33,2.23c8.32,3,11.49,7.52,10.15,11.29-.85,2.4-3.33,3.9-7.18,3.9a23.85,23.85,0,0,1-7.82-1.55c-8.32-3-16.49-9.3-15.15-13.06.68-1.93,3.74-2.81,7.67-2.81m0-6h0c-9,0-12.23,3.7-13.33,6.8s-1,7.86,5.77,13.46a44.67,44.67,0,0,0,13,7.26,29.6,29.6,0,0,0,9.82,1.9c6.28,0,11.08-2.95,12.84-7.89,2-5.76-.35-14.17-13.8-18.95a44.75,44.75,0,0,0-14.34-2.58Z"/><path class="b" d="M355.33,746.29a7.65,7.65,0,0,1-2.51-.43,8.29,8.29,0,0,1-5.32-6.65c-.59-3-.16-6.6,1.28-10.72,2.15-6.15,7.79-15.9,13.8-15.9a5.46,5.46,0,0,1,1.76.29c2,.71,4.48,2.93,4.58,9.45a37.26,37.26,0,0,1-2.13,12.45C364.24,742.09,360.06,746.29,355.33,746.29Z"/><path class="c" d="M362.58,715.59a2.22,2.22,0,0,1,.77.13c3.41,1.19,3.25,10.53.61,18.07-2.25,6.45-5.58,9.5-8.63,9.5a4.62,4.62,0,0,1-1.52-.26c-3.41-1.2-4.83-6-2.2-13.55,2.45-7,7.53-13.89,11-13.89m0-6h0c-8.21,0-14.47,11.72-16.63,17.91-1.62,4.63-2.09,8.77-1.39,12.29a11.32,11.32,0,0,0,7.27,8.9,10.47,10.47,0,0,0,3.5.6c2.88,0,10-1.32,14.3-13.52,3-8.67,4.38-22.68-4.3-25.72a8.49,8.49,0,0,0-2.75-.46Z"/><path class="a" d="M320.94,793.36s21.6,5.6,28,2.91"/><path class="a" d="M363.22,783.62s-7.26,12.74-14.31,12.65"/><path class="b" d="M312.74,800.41a46.54,46.54,0,0,1-8.19-.81c-6.12-1.12-17.06-4.3-19.22-9.15a4.46,4.46,0,0,1,.25-4.23c.6-1,2.44-4,14.14-4a70.28,70.28,0,0,1,12.28,1.1c7.58,1.38,12.17,3.75,13.63,7a5.54,5.54,0,0,1-.39,5.3C323.36,798.73,318.92,800.41,312.74,800.41Z"/><path class="c" d="M299.73,785.24a67.57,67.57,0,0,1,11.73,1c9.54,1.74,13,5,11.22,7.81-1.23,2-4.69,3.31-9.94,3.31a43.19,43.19,0,0,1-7.66-.76c-9.54-1.74-18.71-6-16.95-8.86,1.06-1.73,5.86-2.55,11.6-2.55m0-6h0c-12,0-15.28,3.08-16.71,5.41a7.45,7.45,0,0,0-.43,7c1.26,2.82,4.14,5.12,9.06,7.23A58.83,58.83,0,0,0,304,802.55a48.86,48.86,0,0,0,8.73.86c9.31,0,13.32-3.35,15.05-6.17a8.56,8.56,0,0,0,.58-8.09c-1.92-4.3-7.1-7.17-15.83-8.77a74.51,74.51,0,0,0-12.81-1.14Z"/><path class="b" d="M366,785.88a10.91,10.91,0,0,1-1.9-.16,7.34,7.34,0,0,1-5.65-4.08c-.87-1.94-1.27-5.31,1.79-10.35,3.59-5.92,10.85-12.32,16.3-12.32a6.78,6.78,0,0,1,1.2.1,5.87,5.87,0,0,1,4.39,3.47c1.8,4,0,10.11-2.61,14.4C376.08,782.54,371,785.88,366,785.88Z"/><path class="c" d="M376.5,762a3.63,3.63,0,0,1,.67.06c3.91.69,3.22,7.62-.26,13.35-3.08,5.08-7.31,7.51-11,7.51a7.67,7.67,0,0,1-1.37-.12c-3.91-.7-5.3-4.19-1.83-9.92C366,767.44,372.5,762,376.5,762m0-6h0c-7.66,0-15.64,8.44-18.87,13.77-3.73,6.15-3.12,10.54-1.95,13.13a10.19,10.19,0,0,0,7.85,5.8,14,14,0,0,0,2.43.22c6.12,0,12.14-3.89,16.08-10.4,2.93-4.81,5.19-11.85,2.78-17.18a8.86,8.86,0,0,0-6.59-5.19,9.85,9.85,0,0,0-1.73-.15Z"/><path class="b" d="M319,932.64c-.37-1.76-7.88-38.16,5.76-51.14-28.74-9-34.51-32.36-34.76-33.43l-.52-2.2,2-1.1a55.16,55.16,0,0,1,24.3-6.16,36.09,36.09,0,0,1,18.37,4.71,49.16,49.16,0,0,1,3.36-30,43.67,43.67,0,0,1,9.84-14l1.56-1.35,1.82,1c1,.52,20.94,11.49,26.61,35.56,9.32-14.61,27.53-16.43,36-16.43a45.76,45.76,0,0,1,5.71.3l2.18.28.39,2.16c.05.3,4.7,28.23-22,44,24.7,19,22.77,44.51,22.67,45.64l-.2,2.25-2.22.43a68.2,68.2,0,0,1-11.91,1c-17.24,0-30.45-5.75-38-16.36-4.51,10.36-13.27,19.67-25.67,27.23a99.8,99.8,0,0,1-21.56,9.88l-3.11.91Z"/><path class="c" d="M349.33,801.62s25.59,13.69,26.48,44.32c5.34-22.17,27.28-24.84,37.54-24.84a45.77,45.77,0,0,1,5.33.27s5.15,28.76-24.69,43.11c27.76,18.47,25.35,45.74,25.35,45.74a65.36,65.36,0,0,1-11.34.92c-12.18,0-30.84-3.09-38.63-20.59C361.75,920.34,322,932,322,932s-9.84-46.39,10.81-51.57C299.09,873.72,293,847.39,293,847.39a52.46,52.46,0,0,1,22.84-5.78,32.43,32.43,0,0,1,23.54,9.44c-10.89-31.35,10-49.43,10-49.43m-.81-7.24-3.12,2.7a46.19,46.19,0,0,0-10.61,15,51.46,51.46,0,0,0-4.37,26.13,40.4,40.4,0,0,0-14.63-2.6A58.44,58.44,0,0,0,290,842.15l-3.95,2.2,1,4.41c.25,1.08,5.85,23.73,32.58,34.13-4.67,6.94-6,16.75-6.07,25.22a129.6,129.6,0,0,0,2.48,25.15l1.34,6.34,6.21-1.83a103,103,0,0,0,22.28-10.2c11.21-6.83,19.58-15.08,24.72-24.27,8.34,9,21.19,13.84,37.35,13.84a70.48,70.48,0,0,0,12.48-1l4.44-.86.4-4.5c.1-1.14,2-25.93-20.57-45.61a46.73,46.73,0,0,0,19.83-44.83l-.77-4.33-4.36-.56a51.73,51.73,0,0,0-6.1-.32c-6,0-14.81.81-23.14,4.66a36.67,36.67,0,0,0-11.62,8.34,61.23,61.23,0,0,0-26.43-31.77l-3.64-2Z"/><path class="e" d="M348.31,872.2s16.71,11,34.86-5.05"/><line class="e" x1="366.18" y1="873.63" x2="363.38" y2="854.26"/><path class="e" d="M372.88,872.66a14.08,14.08,0,0,0,1.71-14.36"/><path class="e" d="M359.49,874.6a14.08,14.08,0,0,1-5.71-13.29"/><path class="b" d="M131.41,869.81a63.83,63.83,0,0,1-18.49-4.56c-10.3-4.31-17.34-10.94-20.69-19.39C86,853.5,76.52,859.35,64.44,863a88.4,88.4,0,0,1-20.7,3.61l-3.24.1.16-3.24A111.68,111.68,0,0,1,44.08,842c2.15-7.89,6-16.91,12.62-20.91-22.16-14.24-21.85-35.33-21.83-36.3l.07-2.26,2.19-.56a48.27,48.27,0,0,1,11-1.2c7.78,0,17.77,1.75,25.51,9.07,2-24.29,20.41-33.64,21.28-34.06l1.85-.91,1.51,1.4c.71.66,15.06,14.26,14.85,35.78,5.49-4.78,12.64-7.26,21.14-7.26a52.3,52.3,0,0,1,17.83,3.3l2,.83-.18,2.19a38.46,38.46,0,0,1-5,14.79c-3.62,6.3-10.54,14.19-23.36,18,16.51,21.79,9.18,43,8.84,43.94l-.76,2.13Z"/><path class="c" d="M96.23,758.47s18.76,17.42,12.65,43.74c6.19-11.5,16.51-14.42,25.38-14.42a49.42,49.42,0,0,1,16.7,3.08s-2.05,25.69-30.72,31.24c19.54,22,11.37,44.71,11.37,44.71s-34-2.24-38.22-28c-13.18,23.7-49.74,24.74-49.74,24.74S45.64,822,64.29,822h.14c-27.22-13.27-26.56-37.11-26.56-37.11a45.35,45.35,0,0,1,10.25-1.11c8.84,0,21.29,2.45,28.5,14.63-2.26-29.19,19.61-39.93,19.61-39.93m1.06-7.2-3.71,1.81a44.76,44.76,0,0,0-22.23,31.18C65,780,57.12,777.77,48.12,777.77a51.06,51.06,0,0,0-11.74,1.3L32,780.19l-.13,4.52c0,1-.32,21.47,19.75,36.5-5.3,5-8.51,12.94-10.43,20a115,115,0,0,0-3.53,22.08l-.31,6.47,6.47-.19c1.41,0,30.33-1.09,47.64-18.37,4.11,7.2,11,12.91,20.3,16.82a67.14,67.14,0,0,0,19.45,4.78l4.51.3,1.53-4.25c.35-1,7.46-21.55-6.9-43.42a41.9,41.9,0,0,0,26.59-34.08l.36-4.39-4.08-1.65a55.69,55.69,0,0,0-19-3.52,36.08,36.08,0,0,0-18.41,4.59,54.87,54.87,0,0,0-15.54-32.31l-3-2.8Z"/><path class="e" d="M79.54,818.45s11.78,13.14,30.87,3.51"/><line class="e" x1="94.47" y1="823.68" x2="96.42" y2="806.53"/><path class="e" d="M100.39,824.35a12.39,12.39,0,0,0,4.68-11.87"/><path class="e" d="M88.54,823a12.39,12.39,0,0,1-1.89-12.61"/><path class="a" d="M138.91,729s-20.26,43.61-17.15,58.54"/><path class="b" d="M140,732.16a7,7,0,0,1-1.93-.27c-3.74-1.1-7.15-5.66-4.44-14.91,1.61-5.49,6.16-14.19,11.53-14.19a4.94,4.94,0,0,1,1.38.19c5.59,1.64,5.31,11.95,3.32,18.75-2.76,9.42-7.82,10.43-9.86,10.43Z"/><path class="c" d="M145.15,705.79a2,2,0,0,1,.54.07c2.89.85,3.15,8.64,1.28,15-1.64,5.6-4.38,8.27-7,8.27a3.91,3.91,0,0,1-1.08-.15c-2.89-.85-4.28-4.8-2.41-11.19,1.76-6,5.77-12,8.65-12m0-6c-3.47,0-6.72,2.12-9.66,6.32a35.61,35.61,0,0,0-4.75,10A20.78,20.78,0,0,0,130.1,727a10.43,10.43,0,0,0,7.12,7.82,10,10,0,0,0,2.77.39c5.66,0,10.43-4.7,12.74-12.59,2.26-7.73,2.71-20.1-5.36-22.47a7.88,7.88,0,0,0-2.22-.31Z"/><path class="a" d="M150.7,755.15s-18.94,9-24.26,5.73"/><path class="b" d="M156.05,760.33c-4.05,0-7.13-1.84-8.23-4.93a7.49,7.49,0,0,1,1.62-7.41,17.9,17.9,0,0,1,7.84-4.94,32.11,32.11,0,0,1,10.33-1.87c5.88,0,7.91,2.23,8.58,4.1,2,5.49-6.56,11.32-13.23,13.7a21,21,0,0,1-6.91,1.35Z"/><path class="c" d="M167.61,744.18c2.95,0,5.24.66,5.75,2.11,1,2.84-5.13,7.62-11.4,9.86a18,18,0,0,1-5.91,1.18c-2.89,0-4.76-1.13-5.4-2.93-1-2.84,1.37-6.28,7.64-8.52a29,29,0,0,1,9.32-1.7m0-6a35.26,35.26,0,0,0-11.34,2.05,20.73,20.73,0,0,0-9.13,5.83A10.42,10.42,0,0,0,145,756.41c1.54,4.33,5.67,6.92,11.05,6.92A23.63,23.63,0,0,0,164,761.8a34.57,34.57,0,0,0,10.26-5.75c6-5,5.58-9.54,4.78-11.78s-3.37-6.09-11.4-6.09Z"/><path class="a" d="M114.87,744.66s5.48,16.81,11.57,16.22"/><path class="b" d="M112,743.84c-4.17,0-7.83-3.61-10-9.9-2.35-6.69-3.18-17,2.32-18.9a5,5,0,0,1,1.64-.28c5.3,0,10.07,8.12,12,13.57,3.19,9.1,0,13.83-3.65,15.13a7,7,0,0,1-2.26.38Z"/><path class="c" d="M105.89,717.76c2.87,0,7.11,5.74,9.16,11.57,2.21,6.28,1,10.3-1.81,11.29a3.73,3.73,0,0,1-1.27.22c-2.55,0-5.32-2.53-7.21-7.9-2.21-6.28-2.36-14.07.48-15.07a2,2,0,0,1,.65-.11m0-6a7.77,7.77,0,0,0-2.63.45c-7.93,2.78-6.83,15.11-4.16,22.72,3.78,10.75,10.26,11.91,12.87,11.91a9.83,9.83,0,0,0,3.26-.55,10.45,10.45,0,0,0,6.7-8.18,20.9,20.9,0,0,0-1.22-10.77c-2-5.79-7.44-15.58-14.82-15.58Z"/></svg>