<svg xmlns="http://www.w3.org/2000/svg" width="510" height="900" viewBox="0 0 510 900"><defs><style>.a{fill:#8c9c73;}.b{fill:#432d1e;}.c{fill:#ffdc82;}.d{fill:#eb8273;}</style></defs><title>join_game</title><path class="a" d="M163.88,232a67.54,67.54,0,0,1-17.26-2.47l-3-.89.16-3.15c.18-3.48,1.39-18.73,8.75-24.95-1.69-4.67-.34-10.19,1.1-13.36l.46-1,.91-.63a27.35,27.35,0,0,1,14-4.35c5.17,0,12.33,1.93,17.9,10.8,7.12.95,12.27,3.81,15.33,8.54,5.45,8.42,1.62,19.31,1.45,19.77l-.54,1.5-1.43.72a16.45,16.45,0,0,1-6.85,1.45,17.39,17.39,0,0,1-8.69-2.36c-3.72,6.75-11.42,10.39-22.27,10.39Z"/><path class="b" d="M169,185.14c5.12,0,11,2.3,15.47,10.57,23.18,1.77,15.45,23.18,15.45,23.18a12.35,12.35,0,0,1-5.06,1c-2.95,0-6.81-1-10.55-4.88C182.24,225.41,172.7,228,163.89,228a64,64,0,0,1-16.13-2.3s1.12-21.73,10.46-23.66c-5-4.35-1-13.2-1-13.2A23.12,23.12,0,0,1,169,185.14m0-8a31,31,0,0,0-16.28,5.06l-1.82,1.26-.92,2a24.44,24.44,0,0,0-1.91,13.77q-4.11,4.68-6.33,13.31a72.33,72.33,0,0,0-2,12.68l-.33,6.28,6,1.8A72.16,72.16,0,0,0,163.89,236c10.61,0,18.78-3.3,23.67-9.33a21.06,21.06,0,0,0,7.29,1.29,20.21,20.21,0,0,0,8.64-1.87l2.86-1.43,1.09-3c.48-1.34,4.54-13.39-1.86-23.29-2.45-3.79-7.22-8.35-16.34-10-5.11-7.21-12.18-11.13-20.25-11.13Z"/><path class="a" d="M367.66,261.32c-23.24,0-38.4-8.09-44.29-23.5a32.34,32.34,0,0,1-19.73,6.89h0a29.09,29.09,0,0,1-12.25-2.54l-1.43-.72-.54-1.5c-.32-.87-7.56-21.45,2.57-37.11,5.88-9.09,16.2-14.46,30.7-16,6.15-10.48,16.92-22.06,34.43-22.06,14.4,0,26.05,7.92,26.54,8.25l.91.63.46,1c.34.75,7.19,16.16.84,27.28,16.55,10.08,18.92,45.94,19.15,50.39l.16,3.15-3,.89A135.37,135.37,0,0,1,367.66,261.32Z"/><path class="b" d="M357.11,168.8c13.32,0,24.27,7.55,24.27,7.55s8.32,18.3-2,27.29c19.3,4,21.63,48.93,21.63,48.93a132.52,132.52,0,0,1-33.35,4.75c-18.22,0-37.94-5.24-42.2-26.72-7.75,8.07-15.73,10.11-21.83,10.11a25.48,25.48,0,0,1-10.46-2.12s-16-44.27,31.95-47.93c9.31-17.1,21.4-21.86,32-21.86m0-8c-10.65,0-25.39,4-36.85,22.32-14.71,1.93-25.35,7.82-31.64,17.55-11.19,17.31-3.31,39.69-3,40.64l1.08,3,2.86,1.44a33.56,33.56,0,0,0,14,3,35.65,35.65,0,0,0,18.09-5,37.14,37.14,0,0,0,15.93,15.39c8,4.12,18.07,6.2,30,6.2a139.87,139.87,0,0,0,35.63-5.08l6-1.8-.33-6.29a139.92,139.92,0,0,0-3.81-24.53c-3.26-12.75-8.06-21.79-14.33-27,3.56-9.61.78-21-2.2-27.58l-.92-2-1.82-1.26c-.53-.36-13.18-9-28.81-9Z"/><path class="c" d="M247.77,153.78c-.69-.49-17-12.31-24.77-27-6.61-12.52-8.92-21.43-6.87-26.48A7.43,7.43,0,0,1,220.74,96a8.64,8.64,0,0,1,2.61-.4c7.34,0,16.92,8.82,23.85,21.94,7.84,14.83,6.94,32.52,6.9,33.27l-.41,7.26Z"/><path class="b" d="M223.35,99.55c5.05,0,13.57,7,20.32,19.81,7.4,14,6.43,31.17,6.43,31.17S234,138.94,226.54,124.92s-9.3-23.62-4.57-25.16a4.39,4.39,0,0,1,1.38-.21m0-8a12.35,12.35,0,0,0-3.85.6,11.38,11.38,0,0,0-7.08,6.65c-3.39,8.38,2.4,21,7.05,29.86,8.19,15.5,25.25,27.85,26,28.37l11.83,8.49.82-14.54c.05-.79,1-19.55-7.35-35.36C243,101,232.27,91.55,223.35,91.55Z"/><path class="d" d="M238,160c-6.66,0-23.74-.51-38.4-5.27-17.78-5.78-24.44-7.94-26.3-12.52a6.06,6.06,0,0,1,.32-5.2c2.18-4.14,8.49-6.61,16.86-6.61a61.27,61.27,0,0,1,18.69,3.29c18.43,6,33.4,18.7,34,19.24l7.79,6.67L240.7,160S239.7,160,238,160Z"/><path class="b" d="M190.44,134.39a57,57,0,0,1,17.45,3.1c17.88,5.8,32.67,18.47,32.67,18.47s-.95,0-2.6,0c-6.31,0-23-.47-37.16-5.08-17.88-5.8-25.64-8.34-23.68-12,1.2-2.28,5.8-4.47,13.32-4.47m0-8h0c-10,0-17.47,3.19-20.4,8.74a10,10,0,0,0-.48,8.57c2.55,6.31,9.69,8.63,28.77,14.82,15.2,4.94,32.78,5.47,39.63,5.47,1.74,0,2.76,0,2.87,0l20.52-.72-15.59-13.35c-.65-.56-16.22-13.78-35.4-20a64.85,64.85,0,0,0-19.91-3.49Z"/><path class="c" d="M180.35,194c-4.07,0-5.93-1.9-6.77-3.5-.71-1.34-1.29-3.62,0-6.83,2.23-5.49,10.37-13.69,26-18.76,14.66-4.76,31.74-5.27,38.4-5.27,1.74,0,2.74,0,2.74,0l10.24.36-7.78,6.68c-.63.53-15.6,13.25-34,19.24q-4,1.29-7.46,2.46C191.52,191.75,184.82,194,180.35,194Z"/><path class="b" d="M238,163.61c1.65,0,2.6,0,2.6,0s-14.79,12.67-32.67,18.47c-13.3,4.32-22.76,7.86-27.54,7.86-1.64,0-2.73-.42-3.23-1.37-2-3.71,5.8-14.11,23.68-19.92,14.17-4.6,30.84-5.07,37.16-5.07m0-8c-6.85,0-24.43.53-39.63,5.47-14.14,4.59-25,12.66-28.44,21.06a12,12,0,0,0,.15,10.2c1.11,2.1,3.93,5.63,10.31,5.63,5.12,0,12.07-2.31,22.58-5.8l7.43-2.45c19.18-6.23,34.75-19.45,35.4-20l15.59-13.35-20.51-.72c-.12,0-1.14,0-2.88,0Z"/><path class="d" d="M228.59,221.66a12.56,12.56,0,0,1-3.92-.64,9.49,9.49,0,0,1-6.26-5.48c-1.81-4.46-.39-10.66,4.59-20.11,7.76-14.68,24.08-26.49,24.77-27l5.92-4.24.41,7.26c0,.75.94,18.44-6.9,33.27C241.1,216.28,235.19,221.66,228.59,221.66Z"/><path class="b" d="M250.1,171.69s1,17.15-6.43,31.17c-6.06,11.46-10.92,14.8-15.08,14.8a8.6,8.6,0,0,1-2.68-.44c-4.73-1.54-6.78-5.9.63-19.92s23.56-25.61,23.56-25.61m7.17-15-11.83,8.49c-.72.52-17.78,12.87-26,28.38-5.59,10.58-7.06,17.82-4.77,23.48a13.45,13.45,0,0,0,8.73,7.77,16.63,16.63,0,0,0,5.16.84c10.83,0,17.83-10.88,22.15-19.06,8.35-15.8,7.4-34.57,7.35-35.36l-.82-14.54Z"/><path class="c" d="M281.41,221.66c-6.6,0-12.51-5.38-18.62-16.93-7.83-14.83-6.93-32.52-6.89-33.27l.41-7.26,5.92,4.24c.69.5,17,12.31,24.77,27,5,9.45,6.4,15.65,4.59,20.11a9.49,9.49,0,0,1-6.26,5.48A12.56,12.56,0,0,1,281.41,221.66Z"/><path class="b" d="M259.9,171.69s16.15,11.59,23.56,25.61,5.36,18.38.63,19.92a8.6,8.6,0,0,1-2.68.44c-4.16,0-9-3.34-15.08-14.8-7.4-14-6.43-31.17-6.43-31.17m-7.17-15-.82,14.54c0,.79-1,19.56,7.35,35.36,9,17.09,17,19.06,22.15,19.06a16.63,16.63,0,0,0,5.16-.84,13.45,13.45,0,0,0,8.73-7.77c2.29-5.66.82-12.9-4.77-23.48-8.19-15.51-25.25-27.86-26-28.38l-11.83-8.49Z"/><path class="d" d="M329.65,194c-4.47,0-11.17-2.22-21.32-5.59q-3.49-1.17-7.46-2.46c-18.43-6-33.4-18.71-34-19.24L259.05,160l10.25-.36s1,0,2.74,0c6.66,0,23.74.51,38.4,5.27,15.6,5.07,23.74,13.27,26,18.76,1.3,3.21.72,5.49,0,6.83C335.58,192.07,333.72,194,329.65,194Z"/><path class="b" d="M272,163.61c6.31,0,23,.47,37.16,5.07,17.88,5.81,25.64,16.21,23.68,19.92-.5,1-1.59,1.37-3.23,1.37-4.78,0-14.24-3.54-27.54-7.86-17.88-5.8-32.67-18.47-32.67-18.47s.95,0,2.6,0m0-8h0c-1.74,0-2.76,0-2.87,0l-20.52.72,15.59,13.35c.65.56,16.22,13.78,35.4,20l7.43,2.45c10.51,3.49,17.46,5.8,22.58,5.8,6.38,0,9.2-3.53,10.31-5.63a12,12,0,0,0,.15-10.2c-3.41-8.4-14.3-16.47-28.44-21.06-15.2-4.94-32.78-5.47-39.63-5.47Z"/><path class="d" d="M272,160c-1.74,0-2.74,0-2.74,0l-10.24-.37,7.78-6.67c.63-.54,15.6-13.25,34-19.24a61.27,61.27,0,0,1,18.69-3.29c8.37,0,14.68,2.47,16.86,6.61a6.06,6.06,0,0,1,.32,5.2c-1.86,4.58-8.52,6.74-26.3,12.52C295.78,159.48,278.7,160,272,160Z"/><path class="b" d="M319.56,134.39c7.52,0,12.12,2.19,13.32,4.47,2,3.71-5.8,6.25-23.68,12C295,155.52,278.36,156,272,156c-1.65,0-2.6,0-2.6,0s14.79-12.67,32.67-18.47a57,57,0,0,1,17.45-3.1m0-8h0a64.86,64.86,0,0,0-19.92,3.49c-19.18,6.23-34.75,19.45-35.4,20l-15.59,13.35,20.51.72c.12,0,1.14,0,2.88,0,6.85,0,24.43-.53,39.63-5.47,19.08-6.19,26.22-8.51,28.77-14.82a10,10,0,0,0-.48-8.57c-2.93-5.56-10.37-8.74-20.4-8.74Z"/><path class="c" d="M255.9,150.76c0-.75-.94-18.44,6.89-33.27,6.94-13.12,16.52-21.94,23.86-21.94a8.34,8.34,0,0,1,2.61.41,7.39,7.39,0,0,1,4.61,4.35c2.05,5-.26,14-6.87,26.48-7.76,14.68-24.08,26.5-24.77,27L256.31,158Z"/><path class="b" d="M286.65,99.55a4.39,4.39,0,0,1,1.38.21c4.73,1.54,2.84,11.14-4.57,25.16s-23.56,25.61-23.56,25.61-1-17.15,6.43-31.17c6.74-12.77,15.27-19.81,20.32-19.81m0-8h0c-8.92,0-19.67,9.45-27.39,24.07-8.35,15.81-7.4,34.57-7.35,35.36l.82,14.54L264.56,157c.72-.52,17.78-12.87,26-28.37,9.71-18.39,8.67-25.85,7.05-29.86a11.38,11.38,0,0,0-7.08-6.65,12.35,12.35,0,0,0-3.85-.6Z"/><path class="d" d="M251.87,146.45c-.37-.47-9.21-11.53-9.21-22.86,0-13.84,6.19-20,12.32-20s12.32,6.19,12.32,20c0,11.33-8.83,22.39-9.21,22.86L255,150.3Z"/><path class="b" d="M255,107.56c4.6,0,8.32,6,8.32,16S255,143.94,255,143.94s-8.32-10.3-8.32-20.35,3.73-16,8.32-16m0-8c-8.12,0-16.32,7.43-16.32,24,0,12.51,9.07,24.09,10.1,25.37l6.22,7.7,6.23-7.7c1-1.28,10.09-12.86,10.09-25.37,0-16.6-8.19-24-16.32-24Z"/><path class="d" d="M239.25,152.14c-.71-.14-17.42-3.48-28.31-11-6.17-4.23-13.52-10.53-13.52-16.45a6.52,6.52,0,0,1,2.91-5.52,9.51,9.51,0,0,1,5.5-1.51c5.47,0,13.27,3.21,21.41,8.8,11.18,7.69,16.26,19.69,16.47,20.19l2.87,6.9Z"/><path class="b" d="M205.83,121.69c4.32,0,11.29,2.7,19.14,8.1,10.34,7.1,15.05,18.43,15.05,18.43s-16.48-3.24-26.81-10.34-13.87-13.15-10.62-15.39a5.75,5.75,0,0,1,3.24-.8m0-8h0a13.41,13.41,0,0,0-7.77,2.21,10.56,10.56,0,0,0-4.64,8.82c0,6.24,5,12.7,15.25,19.75,11.57,7.95,29.07,11.45,29.81,11.6L253.15,159l-5.74-13.8c-.23-.56-5.76-13.61-17.9-22-8.92-6.13-17.33-9.51-23.68-9.51Z"/><path class="c" d="M202.6,168.24c-7.43,0-12.59,0-16.37-.43-2.31-.25-9.31-1-9.31-6.67,0-6.92,12-12.34,27.33-12.34,15.18,0,30.38,5.74,31,6l9.79,3.74-9.79,3.74c-.64.24-15.84,6-31,6Z"/><path class="b" d="M204.25,152.8c14.61,0,29.6,5.72,29.6,5.72s-15,5.72-29.6,5.72h-1.64c-13.63,0-21.69-.06-21.69-3.1s8.71-8.34,23.33-8.34m0-8c-18.16,0-31.33,6.87-31.33,16.34a9.87,9.87,0,0,0,6.21,9.07,21.44,21.44,0,0,0,6.68,1.57c4,.43,9.23.46,16.8.46h1.64c15.9,0,31.78-6,32.45-6.25l19.58-7.47L236.7,151c-.67-.25-16.55-6.24-32.45-6.24Z"/><path class="d" d="M205.16,200.48a8.25,8.25,0,0,1-4.78-1.35,6.69,6.69,0,0,1-2.9-5.71c0-5.19,5.05-11.76,13.52-17.57,10.89-7.49,27.6-10.83,28.31-11l7.33-1.44-2.87,6.9c-.21.5-5.29,12.5-16.47,20.19C220.69,195.07,211.49,200.48,205.16,200.48Z"/><path class="b" d="M240.08,168.8s-4.71,11.33-15.05,18.43c-8.31,5.72-15.63,9.25-19.87,9.25a4.43,4.43,0,0,1-2.51-.64c-3.25-2.24.28-9.59,10.61-16.7s26.82-10.34,26.82-10.34m13.13-10.73L238.54,161c-.74.15-18.24,3.65-29.81,11.6-9.69,6.66-15.25,14.27-15.25,20.87a10.73,10.73,0,0,0,4.64,9,12.18,12.18,0,0,0,7,2c5.9,0,14.11-3.58,24.4-10.66,12.15-8.34,17.68-21.39,17.9-21.95l5.75-13.8Z"/><path class="c" d="M255.06,214.74c-7.51,0-13.63-9.58-13.63-21.35,0-11.49,10.28-22.61,10.71-23.08l2.92-3.12,2.93,3.12c.43.47,10.71,11.59,10.71,23.08C268.7,205.16,262.58,214.74,255.06,214.74Z"/><path class="b" d="M255.06,173.05s9.64,10.29,9.64,20.34-5,17.35-9.64,17.35-9.63-7.3-9.63-17.35,9.63-20.34,9.63-20.34m0-11.72-5.84,6.25c-1.2,1.29-11.79,13-11.79,25.81,0,14.21,7.75,25.35,17.63,25.35s17.64-11.14,17.64-25.35c0-12.83-10.59-24.52-11.79-25.81l-5.85-6.25Z"/><path class="d" d="M304.94,200.44c-6.32,0-15.52-5.41-22.13-9.95-11.18-7.69-16.27-19.68-16.48-20.19l-2.87-6.9,7.34,1.44c.7.14,17.41,3.48,28.31,11,8.46,5.81,13.51,12.38,13.51,17.57a6.69,6.69,0,0,1-2.9,5.71A8.23,8.23,0,0,1,304.94,200.44Z"/><path class="b" d="M270,168.76s16.48,3.24,26.81,10.34,13.86,14.46,10.61,16.7a4.41,4.41,0,0,1-2.51.64c-4.23,0-11.55-3.53-19.87-9.25-10.33-7.1-15-18.43-15-18.43M256.9,158l5.74,13.8c.23.56,5.76,13.61,17.9,22,10.29,7.07,18.5,10.65,24.4,10.65a12.19,12.19,0,0,0,7.05-2.05,10.74,10.74,0,0,0,4.63-9c0-6.6-5.56-14.21-15.25-20.87-11.56-7.95-29.06-11.45-29.8-11.6L256.9,158Z"/><path class="c" d="M305.8,168.18c-15.18,0-30.39-5.74-31-6L265,158.46l9.79-3.73c.64-.25,15.85-6,31-6s27.33,5.42,27.33,12.35c0,5.67-7,6.42-9.31,6.66-3.78.4-8.94.43-16.38.43Z"/><path class="b" d="M305.8,152.74c14.62,0,23.33,5.19,23.33,8.35s-8.06,3.09-21.69,3.09H305.8c-14.62,0-29.6-5.72-29.6-5.72s15-5.72,29.6-5.72m0-8c-15.91,0-31.78,6-32.45,6.25l-19.58,7.47,19.58,7.48c.67.25,16.54,6.24,32.45,6.24h1.64c7.57,0,12.82,0,16.8-.45a22,22,0,0,0,6.68-1.57,9.88,9.88,0,0,0,6.21-9.07c0-9.47-13.17-16.35-31.33-16.35Z"/><path class="c" d="M266.28,146.64c.21-.5,5.29-12.5,16.47-20.19,8.14-5.59,15.94-8.8,21.41-8.8a9.51,9.51,0,0,1,5.5,1.51,6.51,6.51,0,0,1,2.91,5.52c0,5.92-7.35,12.22-13.52,16.45-10.89,7.49-27.6,10.83-28.31,11l-7.34,1.44Z"/><path class="b" d="M304.16,121.65a5.75,5.75,0,0,1,3.24.8c3.25,2.24-.28,8.28-10.62,15.39S270,148.18,270,148.18s4.71-11.33,15-18.43c7.85-5.4,14.82-8.1,19.14-8.1m0-8h0c-6.35,0-14.76,3.38-23.68,9.51-12.14,8.34-17.67,21.39-17.9,22l-5.74,13.8L271.51,156c.74-.15,18.24-3.65,29.81-11.6,10.26-7.05,15.25-13.51,15.25-19.75a10.56,10.56,0,0,0-4.64-8.82,13.51,13.51,0,0,0-7.77-2.21Z"/><path class="c" d="M255,166.82c-10.55,0-18.5-4.9-18.5-11.4S244.43,144,255,144s18.51,4.9,18.51,11.39S265.53,166.82,255,166.82Z"/><path class="b" d="M255,148c8,0,14.51,3.31,14.51,7.39s-6.5,7.4-14.51,7.4-14.5-3.31-14.5-7.4S247,148,255,148m0-8c-13,0-22.5,6.47-22.5,15.39s9.46,15.4,22.5,15.4,22.51-6.48,22.51-15.4S268,140,255,140Z"/><path class="a" d="M530.84,929.94a104.27,104.27,0,0,1-20-2l-3.08-.66-.07-3.15c-.08-3.33-.34-29.6,11.11-39-4.89-8.34-.75-20-.54-20.54l.38-1,.86-.69c.4-.33,10-8,22.17-8,6.93,0,16.81,2.59,25.33,14.62,11,.4,19.07,4,24.1,10.56,8.76,11.52,4.39,27.76,4.2,28.45l-.42,1.54-1.38.82a23.17,23.17,0,0,1-11.29,2.81,25.31,25.31,0,0,1-12.81-3.59C564.88,923,551.45,929.94,530.84,929.94Z"/><path class="b" d="M541.67,858.92c7.46,0,15.9,3.33,23.18,14.58,36,0,26.6,34,26.6,34a19.47,19.47,0,0,1-9.24,2.24c-4.34,0-9.77-1.39-15.33-6.37-2.26,18.74-21,22.59-36,22.59a100.88,100.88,0,0,1-19.15-1.88s-.82-33.69,13.37-37.78c-8.22-6.12-3-20.27-3-20.27s8.77-7.09,19.65-7.09m0-8h0c-13.32,0-23.56,8-24.68,8.87l-1.73,1.39-.76,2.08c-1.86,5.11-3.3,13.66-.55,21-4.18,4.6-7.12,11.65-8.78,21.09a107.89,107.89,0,0,0-1.48,18.94l.15,6.29,6.16,1.33a108.17,108.17,0,0,0,20.84,2.06c10.48,0,19.32-1.71,26.28-5.07a30.78,30.78,0,0,0,14.27-13.3,28.52,28.52,0,0,0,10.82,2.15,27,27,0,0,0,13.35-3.38l2.74-1.64.86-3.08c.53-1.92,4.9-19.09-4.88-31.94-5.47-7.2-13.93-11.24-25.18-12-9.23-12.06-19.86-14.72-27.43-14.72Z"/></svg>