<svg xmlns="http://www.w3.org/2000/svg" width="510" height="900" viewBox="0 0 510 900"><defs><style>.a,.e{fill:#59624a;}.b{fill:#fff;}.c{fill:#c9685a;}.d{fill:#e0bd88;}.e{stroke:#fff;stroke-miterlimit:10;stroke-width:6px;}</style></defs><title>join_game_white_large</title><path class="a" d="M90.82,121.86c-14.85,0-29.81-6.7-43.28-19.37A99.23,99.23,0,0,1,31.62,83.3L30.24,81l2.13-1.63c.75-.56,18.46-13.88,37-13.88.74,0,1.47,0,2.2.06C55.32,41.68,73.77,16.13,74,15.85l.77-1L76,14.65a41.48,41.48,0,0,1,4.52-.21c7.67,0,22,1.56,32.19,12,6.38,6.56,10,15.52,10.73,26.69,4.94-3.42,11.12-5.14,18.45-5.14a63.37,63.37,0,0,1,22.64,4.69l1.74.76.06,1.9c0,1.25.84,30.89-11.63,43.76a18.92,18.92,0,0,1-14,6h0a26.53,26.53,0,0,1-7.34-1.12C119.38,115.85,105.08,121.86,90.82,121.86Z"/><path class="b" d="M80.55,17.44c11.22,0,41.16,3.62,40,42.34C126.29,53,134.34,51,141.92,51a60.71,60.71,0,0,1,21.44,4.44s1.49,46.68-22.66,46.68a24.65,24.65,0,0,1-8-1.49c-15.24,13.35-29.35,18.24-41.85,18.24-34.41,0-56.63-37.1-56.63-37.1S51.62,68.49,69.41,68.49A30.58,30.58,0,0,1,79.21,70c-23.81-24-2.82-52.39-2.82-52.39a38.79,38.79,0,0,1,4.16-.19m0-6a45.93,45.93,0,0,0-4.88.23L73.1,12l-1.54,2.09A56.68,56.68,0,0,0,63,33.52,42.43,42.43,0,0,0,66.35,62.6C47.94,63.9,31.29,76.42,30.55,77l-4.27,3.25L29,84.84c1,1.64,24.4,40,61.78,40,14.57,0,29.12-5.91,43.27-17.57a28.73,28.73,0,0,0,6.61.82,22.08,22.08,0,0,0,16.18-6.92C170,87.64,169.47,58.52,169.36,55.24l-.12-3.79-3.48-1.52A66.7,66.7,0,0,0,141.92,45,37.28,37.28,0,0,0,126,48.28c-1.41-9.77-5.12-17.79-11.09-23.93C104,13.12,88.7,11.44,80.55,11.44Z"/><path class="c" d="M224.24,77.21C223.7,76.8,210.93,67,204.32,54c-7.23-14.16-8.24-24.29-2.72-27.11a5.75,5.75,0,0,1,2.63-.62c7.39,0,14.87,13.1,17.74,18.73,6.61,12.95,7.07,29,7.08,29.73L229.2,81Z"/><path class="b" d="M204.23,29.29c3.61,0,9.41,6,15.07,17.09,6.37,12.49,6.75,28.44,6.75,28.44S213.36,65.15,207,52.66s-7.42-21.35-4-23.08a2.66,2.66,0,0,1,1.26-.29m0-6h0a8.81,8.81,0,0,0-4,.94c-2.43,1.25-6.3,4.69-4.85,13.8.77,4.84,2.93,10.84,6.26,17.36,6.91,13.55,20.21,23.78,20.77,24.2l9.93,7.57-.3-12.48c0-.71-.49-17.47-7.41-31-8.59-16.83-15.84-20.36-20.41-20.36Z"/><path class="c" d="M225.44,74.5c-.34-.59-8.38-14.54-9.53-29-.56-7-.28-13,.79-17.5,1.62-6.77,4.74-8.41,7.08-8.59l.44,0c5.95,0,10.22,9.18,11.44,24.54,1.15,14.5-4.59,29.55-4.83,30.18l-2.25,5.83Z"/><path class="b" d="M224.22,22.35c3.73,0,7.36,8,8.45,21.78C233.78,58.11,228,73,228,73s-8-13.78-9.13-27.77,1.31-22.56,5.12-22.86h.2m0-6c-.23,0-.45,0-.68,0-8.18.65-12,11.33-10.62,29.32,1.2,15.17,9.57,29.7,9.92,30.31l6.29,10.79,4.5-11.64c.25-.66,6.23-16.33,5-31.5-1.39-17.61-6.52-27.31-14.43-27.31Z"/><path class="d" d="M230,69.58c-.09-.67-2.18-16.64,2.31-30.48,2.08-6.42,7.76-21.36,15.51-21.36a5.71,5.71,0,0,1,1.75.27c5.9,1.91,6.49,12.09,1.59,27.21-4.48,13.83-15.55,25.54-16,26l-4.3,4.52Z"/><path class="b" d="M247.81,20.74a2.81,2.81,0,0,1,.82.12c3.63,1.18,4,10.09-.33,23.43S233,69.18,233,69.18,230.83,53.37,235.15,40c4-12.37,9.06-19.29,12.66-19.29m0-6h0c-4.91,0-12.08,4.06-18.37,23.44-4.69,14.47-2.52,31.1-2.42,31.8l1.67,12.38,8.62-9c.48-.51,12-12.7,16.69-27.18,2.26-7,3.45-13.23,3.45-18.13,0-4-.92-10.89-7-12.85a8.62,8.62,0,0,0-2.67-.42Z"/><path class="c" d="M231.87,64.42c.17-.65,4.36-16.21,13.8-27.27,7.74-9.08,15-14.28,20-14.28a6.06,6.06,0,0,1,4,1.39c4.72,4,1.38,13.65-8.94,25.75C251.3,61.07,236.6,67.66,236,67.93l-5.71,2.53Z"/><path class="b" d="M265.68,25.87a3,3,0,0,1,2.05.68c2.91,2.47-.17,10.84-9.27,21.51s-23.69,17.13-23.69,17.13,4.07-15.42,13.18-26.1c7.44-8.72,14-13.22,17.73-13.22m0-6h0c-7.62,0-16.33,8.34-22.3,15.33C233.51,46.78,229.15,63,229,63.66l-3.19,12.07,11.42-5c.64-.29,16-7.15,25.82-18.72,11.71-13.73,14.85-24.65,8.61-30a9,9,0,0,0-5.95-2.11Z"/><path class="d" d="M222,78.18c-.66-.17-16.22-4.36-27.28-13.79-12.09-10.32-16.91-19.3-12.88-24a6.34,6.34,0,0,1,5.07-2.11c5,0,12.32,3.92,20.67,11.05,11.07,9.44,17.65,24.14,17.93,24.76L228,79.78Z"/><path class="b" d="M186.86,41.26c3.88,0,10.64,3.44,18.73,10.33,10.67,9.1,17.12,23.69,17.12,23.69s-15.42-4.07-26.09-13.18-15-16.88-12.55-19.78a3.48,3.48,0,0,1,2.79-1.06m0-6h0a9.45,9.45,0,0,0-7.36,3.16c-5.32,6.24-.5,16.54,13.22,28.25,11.58,9.87,27.77,14.23,28.46,14.41l12.07,3.19L228.2,72.85c-.29-.64-7.14-15.95-18.72-25.82-6.29-5.37-15.32-11.77-22.62-11.77Z"/><path class="c" d="M206.59,80.77A67.24,67.24,0,0,1,186,77.91c-15.12-4.9-23-11.35-21.09-17.26.72-2.23,3.05-4.89,10-4.89,4.59,0,10.53,1.14,17.18,3.3,13.84,4.48,25.54,15.55,26,16l4.51,4.31-6.18.84A82.06,82.06,0,0,1,206.59,80.77Z"/><path class="b" d="M174.91,58.76c4,0,9.6,1,16.26,3.15,13.34,4.33,24.89,15.34,24.89,15.34a79.49,79.49,0,0,1-9.47.52,66,66,0,0,1-19.69-2.71c-13.34-4.33-20.34-9.85-19.16-13.48.59-1.82,3.12-2.82,7.17-2.82m0-6h0c-4,0-10.91.91-12.88,7-2.53,7.8,5.86,15.47,23,21a70.17,70.17,0,0,0,21.54,3,82.82,82.82,0,0,0,10.27-.58l12.37-1.67-9-8.62c-.52-.48-12.71-12-27.18-16.7-7-2.25-13.21-3.44-18.11-3.44Z"/><path class="d" d="M177,89.22c-12.08,0-19-2.9-19.38-8.15-.18-2.34.95-5.68,7.37-8.35,4.24-1.76,10.18-3,17.16-3.54,1.27-.1,2.59-.15,3.93-.15,13.2,0,25.72,4.78,26.25,5l5.82,2.25-5.39,3.14c-.59.34-14.55,8.38-29,9.53C181.35,89.12,179.09,89.22,177,89.22Z"/><path class="b" d="M186.06,72c12.78,0,25.16,4.78,25.16,4.78s-13.79,8-27.77,9.14c-2.31.18-4.48.27-6.48.27-10.11,0-16.13-2.22-16.38-5.39-.31-3.8,7.79-7.55,21.77-8.66,1.23-.1,2.46-.14,3.7-.14m0-6h0c-1.43,0-2.83,0-4.18.16-7.29.58-13.54,1.88-18.07,3.76-3.65,1.52-9.71,5-9.21,11.35.76,9.5,14.34,10.92,22.37,10.92,2.2,0,4.54-.1,6.95-.29,15.17-1.2,29.71-9.57,30.32-9.93L225,75.72l-11.65-4.5C212.83,71,199.8,66,186.06,66Z"/><path class="e" d="M237.52,98.37l11.73-43.43S227,60.57,220.22,64s-24.75,18.36-24.75,18.36Z"/><path class="e" d="M253.76,153.65,286.57,188l24.7,7.28c5.12,1.51,9.88-4.3,9.88-12v-.06c0-6.28-3.19-11.55-7.41-12.2l-18-2.8a14.58,14.58,0,0,1-7.47-3.72l-20.06-18a19.17,19.17,0,0,1-4.77-7.13l-19.9-49.66c-1.62-4-4.64-6.34-7.79-6h0c-6.38.78-9.77,11.54-6.09,19.3Z"/><path class="e" d="M395.8,209.33l37-26.15,27.89-5.54a9.34,9.34,0,0,1,11.17,9.16v0a9.35,9.35,0,0,1-8.37,9.29l-20.32,2.13a20.38,20.38,0,0,0-8.43,2.83l-22.66,13.74C409.91,216.18,395.8,209.33,395.8,209.33Z"/><path class="e" d="M253.18,209.36l45,5.29,27.15-8.44a9.34,9.34,0,0,0,5.44-13.38l0,0A9.34,9.34,0,0,0,319,188.62l-18.87,7.83a20.36,20.36,0,0,1-8.76,1.53l-26.46-1.26a15.74,15.74,0,0,1-7.32-2.2L219.77,172a9.35,9.35,0,0,0-9.9.22h0a9.33,9.33,0,0,0,1,16.18Z"/><path class="e" d="M433.9,166.53,471,192.68l27.89,5.54A9.34,9.34,0,0,0,510,189.06V189a9.34,9.34,0,0,0-8.37-9.29l-20.32-2.13a20.43,20.43,0,0,1-8.43-2.83L450.23,161a15.8,15.8,0,0,1-5.38-5.43l-22.48-37.81a9.34,9.34,0,0,0-8.79-4.54h0a9.34,9.34,0,0,0-6.88,14.69Z"/><path class="c" d="M124.37,779.44C124,779,115.11,768.24,112,756a50.9,50.9,0,0,1-1.86-15.08c.42-6.22,3-8.15,5.08-8.68a5.12,5.12,0,0,1,1.29-.16c7.13,0,11.34,13.67,12.83,19.54,3.08,12.22.36,25.9.25,26.47l-1.25,6.12Z"/><path class="b" d="M116.54,735.1c3.12,0,7.14,6.25,9.92,17.28,3,11.69.22,25.13.22,25.13s-8.79-10.53-11.74-22.22-2.13-19.32,1-20.12a2,2,0,0,1,.55-.07m0-6a8.1,8.1,0,0,0-2,.25c-4.32,1.09-10.78,6.1-5.4,27.4,3.25,12.88,12.56,24.13,12.95,24.61l8,9.59,2.49-12.24c.12-.6,3-14.93-.28-27.8-4.55-18-11.07-21.81-15.74-21.81Z"/><path class="c" d="M125.82,777.25c-.17-.56-4.27-13.89-2.44-26.35.91-6.25,3.85-20.78,11.31-20.78a4.87,4.87,0,0,1,.76.06c5.54.81,7.64,9.52,5.62,23.31-1.82,12.46-9.57,24.06-9.9,24.55l-3.49,5.17Z"/><path class="b" d="M134.69,733.12l.32,0c3.25.48,4.84,8,3.09,19.91s-9.42,23.31-9.42,23.31-4.08-13.1-2.33-25c1.69-11.54,5.18-18.21,8.34-18.21m0-6h0c-7,0-12.08,8.29-14.28,23.34-1.92,13.14,2.36,27.1,2.55,27.69l3.72,11.92,7-10.36c.34-.51,8.45-12.65,10.38-25.79a53.64,53.64,0,0,0,.3-16.13c-1.42-8.34-5.91-10.21-8.46-10.58a7.85,7.85,0,0,0-1.19-.09Z"/><path class="d" d="M130.56,773.84c.06-.59,1.37-14.47,7.83-25.29,3.41-5.7,10.05-15.27,16.28-15.27a5.39,5.39,0,0,1,2.8.75c4.81,2.87,3.42,11.72-3.72,23.69-6.46,10.82-18.05,18.56-18.54,18.89L130,780.06Z"/><path class="b" d="M154.67,736.28a2.48,2.48,0,0,1,1.26.32c2.82,1.69,1.42,9.22-4.76,19.58s-17.62,17.93-17.62,17.93,1.23-13.66,7.42-24c5.37-9,10.58-13.81,13.7-13.81m0-6h0c-4,0-10.6,2.9-18.86,16.74-6.8,11.39-8.18,25.93-8.24,26.55L126.45,786l10.41-6.89c.51-.34,12.66-8.46,19.46-19.85,11.26-18.87,6.52-25.52,2.69-27.81a8.45,8.45,0,0,0-4.34-1.17Z"/><path class="d" d="M122.4,779.92c-.53-.28-12.85-6.81-20.37-16.91a51.09,51.09,0,0,1-7.49-13.22c-2-5.91-.35-8.68,1.38-10a5.51,5.51,0,0,1,3.34-1.07c6.1,0,13.34,8.51,17.11,13.58,7.53,10.1,10.25,23.78,10.36,24.36l1.19,6.12Z"/><path class="b" d="M99.26,741.75c3.17,0,8.66,4.25,14.71,12.37,7.2,9.67,9.82,23.14,9.82,23.14s-12.15-6.37-19.35-16-9.37-17-6.73-19a2.49,2.49,0,0,1,1.55-.48m0-6h0a8.58,8.58,0,0,0-5.14,1.66C92.06,739,89,742.73,91.7,750.75a53.94,53.94,0,0,0,7.92,14c7.93,10.65,20.84,17.49,21.38,17.77l11.06,5.8-2.38-12.26c-.12-.6-3-14.93-10.9-25.57-5-6.75-12.48-14.79-19.52-14.79Z"/><path class="c" d="M117.56,780.62c-.58,0-14.46-1.37-25.28-7.83a50.77,50.77,0,0,1-12-9.35c-4.1-4.69-3.65-7.88-2.55-9.73.78-1.3,2.45-2.85,6-2.85,4.3,0,10.58,2.33,17.69,6.58,10.82,6.45,18.57,18,18.89,18.53l3.45,5.21Z"/><path class="b" d="M83.75,753.86c3.49,0,9.18,2,16.16,6.15,10.35,6.18,17.92,17.62,17.92,17.62s-13.66-1.23-24-7.42-15.17-12.15-13.49-15c.55-.92,1.72-1.39,3.42-1.39m0-6h0c-5.22,0-7.61,2.7-8.57,4.31-1.32,2.21-2.71,6.88,2.86,13.25a53.66,53.66,0,0,0,12.7,10c11.4,6.8,25.94,8.18,26.55,8.24l12.44,1.12-6.89-10.41c-.34-.51-8.46-12.66-19.86-19.46-5.35-3.2-13-7-19.23-7Z"/><path class="e" d="M131.79,799.45l18.14-34.16s-19.73.46-26.08,2.05S99.6,778,99.6,778Z"/><path class="a" d="M222.86,870c.36-3.83,4-6.61,8.75-6.61a11.44,11.44,0,0,1,1.43.09,9.37,9.37,0,0,1,6.39,3.43,6.28,6.28,0,0,1,1.29,4.76l-4.67,31.25-16.34.1Z"/><path class="b" d="M231.61,866.39a7.79,7.79,0,0,1,1.07.07c3.12.38,5.41,2.53,5.08,4.77l-4.3,28.71L223,900l2.83-29.71c.22-2.28,2.72-3.9,5.77-3.9m0-6h0c-6.29,0-11.23,3.92-11.74,9.33L217,899.43,216.4,906l6.64,0,10.45-.06,5.14,0,.76-5.08,4.3-28.71a9.28,9.28,0,0,0-1.87-7,12.42,12.42,0,0,0-8.41-4.6,15.53,15.53,0,0,0-1.8-.11Z"/><path class="a" d="M.84,928.94A103.54,103.54,0,0,1-18.95,927l-2.3-.5-.06-2.36c-.08-3.34-.36-30.26,11.43-38.73-5.37-7.95-1.13-19.86-.92-20.43l.28-.78.65-.52c.39-.32,9.74-7.76,21.54-7.76,9.76,0,18.09,4.91,24.8,14.6,10.91.31,18.92,3.73,23.83,10.19,8.46,11.12,4.22,26.9,4,27.57L64,909.44l-1,.61a22.53,22.53,0,0,1-10.78,2.67,24.26,24.26,0,0,1-13.38-4.09C34.86,921.77,21.58,928.94.84,928.94Z"/><path class="b" d="M11.67,858.92c7.46,0,15.9,3.33,23.18,14.58,36,0,26.6,34,26.6,34a19.47,19.47,0,0,1-9.24,2.24c-4.34,0-9.77-1.39-15.33-6.37-2.26,18.74-21,22.59-36,22.59a100.88,100.88,0,0,1-19.15-1.88s-.82-33.69,13.37-37.78C-13.16,880.16-8,866-8,866s8.77-7.09,19.65-7.09m0-6h0c-12.85,0-23,8.08-23.43,8.42l-1.29,1-.57,1.56c-1.85,5.06-3.28,13.75-.07,20.73-4.39,4.25-7.46,11.27-9.17,21a105.07,105.07,0,0,0-1.45,18.54l.11,4.72,4.62,1a106.92,106.92,0,0,0,20.42,2c25.1,0,35.43-9.73,39.57-19a26.89,26.89,0,0,0,11.8,2.78,25.47,25.47,0,0,0,12.32-3.09l2.06-1.24.64-2.31c.2-.72,4.81-17.89-4.54-30.19-5.25-6.91-13.53-10.71-24.64-11.31-5.33-7.21-13.88-14.66-26.38-14.66Z"/><path class="a" d="M131,806.45c-.74-2.38-3-10.45-.89-14.32a4.18,4.18,0,0,1,2.49-2.12,4.06,4.06,0,0,1,1.1-.16c4.59,0,7.52,8.25,8.56,11.79l29.78,100.93-11.19,1.3Z"/><path class="b" d="M133.73,792.85c1.58,0,4.07,4.18,5.68,9.64L168.18,900l-5.17.6-29.12-95c-2-6.44-2.15-12.16-.4-12.68h0a.67.67,0,0,1,.24,0m0-6h0a6.91,6.91,0,0,0-2,.29,7.22,7.22,0,0,0-4.27,3.57c-2.44,4.59-.63,12.38.67,16.62l29.11,95,1.47,4.78,5-.58,5.17-.6,7.07-.83-2-6.83-28.77-97.51c-1.88-6.36-5.39-13.94-11.44-13.94Z"/><path class="a" d="M416.32,255c-20.75,0-34-7.16-38-20.3A24.28,24.28,0,0,1,365,238.75h0a22.6,22.6,0,0,1-10.79-2.67l-1-.62-.32-1.15c-.18-.67-4.42-16.45,4-27.58,4.91-6.46,12.93-9.88,23.84-10.19,6.7-9.69,15-14.6,24.8-14.6,11.8,0,21.14,7.44,21.53,7.76l.65.52.29.78c.21.58,4.45,12.48-.93,20.43,11.79,8.48,11.52,35.4,11.43,38.73l0,2.36-2.31.5A103.37,103.37,0,0,1,416.32,255Z"/><path class="b" d="M405.49,184.94c10.87,0,19.65,7.09,19.65,7.09s5.17,14.15-3.05,20.28c14.19,4.08,13.38,37.78,13.38,37.78A101.4,101.4,0,0,1,416.32,252c-15,0-33.79-3.85-36-22.58-5.56,5-11,6.37-15.33,6.37a19.53,19.53,0,0,1-9.25-2.24s-9.41-34,26.6-34c7.28-11.24,15.73-14.58,23.19-14.58m0-6c-12.51,0-21.05,7.46-26.39,14.67-11.1.6-19.38,4.4-24.64,11.31-9.35,12.29-4.74,29.46-4.54,30.19l.64,2.31,2.06,1.23a25.36,25.36,0,0,0,12.33,3.1A26.88,26.88,0,0,0,376.74,239c4.15,9.26,14.48,19,39.58,19a107.35,107.35,0,0,0,20.41-2l4.62-1,.11-4.72A105.21,105.21,0,0,0,440,231.69c-1.71-9.71-4.78-16.73-9.16-21,3.21-7,1.77-15.67-.08-20.74l-.57-1.56-1.29-1c-.43-.35-10.58-8.43-23.42-8.43Z"/><path class="d" d="M326.48,165.06c-.52-.4-12.89-9.81-18.59-21.28-4.86-9.77-6.48-16.67-4.82-20.51a5.63,5.63,0,0,1,3.58-3.22,6.53,6.53,0,0,1,1.83-.26c5.67,0,12.95,7,18.11,17.34,5.76,11.58,4.74,25.2,4.69,25.78l-.44,5.44Z"/><path class="b" d="M308.48,122.79c3.89,0,10.41,5.61,15.42,15.68,5.46,11,4.39,24.19,4.39,24.19s-12.26-9.25-17.72-20.22-6.74-18.42-3.06-19.52a3.39,3.39,0,0,1,1-.13m0-6h0a9.54,9.54,0,0,0-2.68.38,8.57,8.57,0,0,0-5.48,4.91c-2.75,6.33,1.47,16.18,4.88,23,6,12.1,18.93,21.93,19.48,22.34l8.71,6.58.88-10.88c.05-.61,1.14-15-5-27.36-5.74-11.54-13.9-19-20.79-19Z"/><path class="c" d="M320.58,169.68c-2.95,0-18.35-.23-31.37-4.81-13.61-4.79-18.69-6.58-20-10.11a4.64,4.64,0,0,1,.34-3.94c1.66-3,6.26-4.75,12.29-4.75a46.19,46.19,0,0,1,15.12,2.9c14.1,5,25.42,15.05,25.89,15.48l5.72,5.14Z"/><path class="b" d="M281.81,149.07a43.12,43.12,0,0,1,14.12,2.73c13.7,4.82,24.89,14.88,24.89,14.88h-.24c-2.08,0-17.62-.15-30.38-4.64-13.7-4.82-19.65-6.93-18.07-9.75.94-1.67,4.28-3.22,9.68-3.22m0-6c-7.24,0-12.68,2.29-14.91,6.29a7.58,7.58,0,0,0-.53,6.46c1.83,4.84,7.28,6.76,21.84,11.88,13.48,4.74,29.33,5,32.37,5h.3l15.37-.18-11.42-10.28c-.49-.44-12.24-10.92-26.91-16.08a48.89,48.89,0,0,0-16.11-3.07Z"/><path class="d" d="M273.87,194.82c-3.28,0-4.72-1.51-5.35-2.78a6,6,0,0,1,.14-5.2c1.81-4.18,8.23-10.34,20.35-14,9.87-2.95,21.16-3.39,27-3.39,2.94,0,4.76.11,4.84.11l7.68.46-6,4.86c-.5.41-12.29,9.94-26.62,14.21-2.05.61-4,1.21-5.8,1.76C282.42,193.26,277.31,194.82,273.87,194.82Z"/><path class="b" d="M316,172.5c2.88,0,4.66.11,4.66.11S309,182.12,295.1,186.27c-10.18,3-17.48,5.55-21.23,5.55-1.38,0-2.28-.34-2.67-1.12-1.44-2.9,4.75-10.79,18.67-14.94,9.4-2.8,20.15-3.26,26.14-3.26m0-6h0c-6,0-17.62.46-27.86,3.51-10.95,3.27-19.47,9.26-22.24,15.64a9.06,9.06,0,0,0-.08,7.73c.83,1.66,3,4.44,8,4.44,3.89,0,9.16-1.61,17.15-4l5.79-1.75c14.9-4.45,27.14-14.34,27.65-14.76l11.93-9.73L321,166.62c-.08,0-2-.12-5-.12Z"/><path class="c" d="M310.56,217.11a9.81,9.81,0,0,1-3.2-.56,7.25,7.25,0,0,1-4.68-4.3c-1.31-3.45-.1-8.19,3.92-15.37,6.25-11.18,19.06-20,19.61-20.35l4.51-3.08.17,5.46c0,.58.39,14.23-5.93,25.52C320.11,213.08,315.54,217.11,310.56,217.11Z"/><path class="b" d="M327.89,179s.43,13.26-5.55,24c-4.82,8.61-8.59,11.15-11.78,11.15a6.59,6.59,0,0,1-2.21-.39c-3.62-1.28-5.12-4.68.87-15.37S327.89,179,327.89,179m5.65-11.11-9,6.15c-.57.38-13.94,9.58-20.54,21.37-4.49,8-5.75,13.53-4.11,17.89a10.2,10.2,0,0,0,6.49,6.07,12.64,12.64,0,0,0,4.2.73c8.12,0,13.6-8.11,17-14.21,6.72-12,6.33-26.48,6.31-27.09l-.35-10.91Z"/><path class="d" d="M351.36,218.1c-5.15,0-9.66-4.25-14.2-13.37-5.76-11.59-4.74-25.21-4.69-25.78l.44-5.44,4.36,3.29c.52.39,12.89,9.81,18.59,21.28,3.67,7.36,4.64,12.15,3.18,15.54a7.26,7.26,0,0,1-4.89,4.06A9.79,9.79,0,0,1,351.36,218.1Z"/><path class="b" d="M335.46,179.19s12.26,9.26,17.72,20.22,3.8,14.3.12,15.4a7.06,7.06,0,0,1-1.94.29c-3.25,0-7-2.61-11.51-11.71-5.46-11-4.39-24.2-4.39-24.2m-5.1-11.37-.88,10.89c-.05.6-1.14,15,5,27.35,3.22,6.46,8.46,15,16.89,15a12.91,12.91,0,0,0,3.65-.54,10.22,10.22,0,0,0,6.78-5.75c1.85-4.27.85-9.84-3.24-18.07-6-12.09-18.93-21.93-19.48-22.34l-8.71-6.58Z"/><path class="c" d="M389.16,197.62c-3.44,0-8.67-1.88-16.58-4.72-1.78-.64-3.69-1.33-5.71-2-14.11-5-25.42-15.05-25.89-15.48l-5.72-5.14,7.95-.09c3,0,18.36.23,31.38,4.81,11.93,4.2,18,10.66,19.65,14.92a5.91,5.91,0,0,1-.11,5.2C393.49,196.24,392.1,197.62,389.16,197.62Z"/><path class="b" d="M343.22,173.15c2.07,0,17.62.15,30.38,4.64,13.7,4.82,19.5,13,17.92,15.83a2.46,2.46,0,0,1-2.36,1c-3.63,0-10.94-3-21.29-6.59C354.16,183.21,343,173.15,343,173.15h.24m0-6h-.3l-15.37.18L339,177.61c.49.44,12.24,10.92,26.9,16.08l5.7,2c8.21,2.95,13.63,4.9,17.59,4.9,4.62,0,6.74-2.55,7.59-4.07a9,9,0,0,0,.3-7.72c-2.46-6.51-10.68-12.9-21.46-16.7-13.48-4.74-29.33-5-32.37-5Z"/><path class="c" d="M347.78,170.33c-2.93,0-4.75-.11-4.83-.12l-7.69-.45,6-4.86c.49-.41,12.28-9.94,26.61-14.21a48.26,48.26,0,0,1,13.65-2.2c6.76,0,12,2.06,13.64,5.38a4.62,4.62,0,0,1,.15,3.94c-1.51,3.47-6.68,5-20.49,9.13C364.91,169.89,353.63,170.33,347.78,170.33Z"/><path class="b" d="M381.49,151.49c6.26,0,10,1.85,11,3.71,1.44,2.9-4.6,4.72-18.52,8.87-9.4,2.8-20.16,3.26-26.15,3.26-2.88,0-4.65-.11-4.65-.11s11.65-9.51,25.57-13.66a45.18,45.18,0,0,1,12.79-2.07m0-6h0a51.23,51.23,0,0,0-14.5,2.32c-14.9,4.44-27.14,14.34-27.66,14.76L327.4,172.3l15.37.91c.08,0,2,.12,5,.12,6,0,17.63-.46,27.86-3.51C390.43,165.41,396,163.76,398,159a7.59,7.59,0,0,0-.21-6.48c-2.2-4.41-8.3-7-16.33-7Z"/><path class="d" d="M332.86,162.94c0-.57-.39-14.23,5.93-25.51,5.51-9.84,13-16.46,18.58-16.46a6.4,6.4,0,0,1,2.16.36,5.65,5.65,0,0,1,3.42,3.39c1.48,3.92-.47,10.73-5.8,20.25-6.26,11.18-19.07,20-19.61,20.36L333,168.4Z"/><path class="b" d="M357.37,124a3.57,3.57,0,0,1,1.16.19c3.63,1.27,2,8.66-4,19.35s-18.68,19.34-18.68,19.34-.42-13.27,5.56-24c5.4-9.65,12-14.92,16-14.92m0-6h0c-6.87,0-15,6.9-21.2,18-6.72,12-6.33,26.47-6.31,27.08l.35,10.91,9-6.14c.57-.39,13.94-9.59,20.54-21.37,7.81-13.95,7.16-19.68,6-22.78a8.61,8.61,0,0,0-5.24-5.16,9.43,9.43,0,0,0-3.15-.53Z"/><path class="c" d="M329.8,159.49c-.28-.37-6.87-9.05-6.66-17.77.25-10.47,5-15.16,9.62-15.16h.18c2.87.07,5.45,1.9,7.06,5a22.37,22.37,0,0,1,2,10.6c-.21,8.72-7.22,17.07-7.52,17.42l-2.4,2.83Z"/><path class="b" d="M332.76,129.56h.1c3.55.09,6.32,4.78,6.13,12.54s-6.81,15.56-6.81,15.56-6.23-8.11-6-15.87,3.12-12.23,6.62-12.23m0-6h0c-6.06,0-12.32,5.6-12.62,18.09-.23,9.6,6.52,18.67,7.29,19.67l4.52,5.89,4.81-5.67c.81-1,8-9.69,8.23-19.29.31-12.7-5.8-18.54-12-18.68Z"/><path class="c" d="M319.9,163.62c-.55-.12-13.37-3-21.63-9-4.67-3.38-10.2-8.35-10.09-12.89a5,5,0,0,1,2.3-4.13,7.12,7.12,0,0,1,4-1.05c4.22,0,10.27,2.62,16.58,7.18a39,39,0,0,1,12.31,15.86l2,5.23Z"/><path class="b" d="M294.45,139.56c3.32,0,8.74,2.21,14.82,6.61a36.21,36.21,0,0,1,11.28,14.52s-12.67-2.81-20.52-8.49-10.46-10.42-7.91-12.08a4.27,4.27,0,0,1,2.33-.56m0-6h0a10.15,10.15,0,0,0-5.61,1.53,8,8,0,0,0-3.66,6.58c-.12,4.75,3.59,9.79,11.33,15.39,8.76,6.34,22.17,9.36,22.74,9.49L330.19,169l-4.05-10.46a42.45,42.45,0,0,0-13.35-17.21c-4-2.89-11.71-7.75-18.34-7.75Z"/><path class="d" d="M293.7,175.41l-1.16,0h-.64c-5.55-.14-9.94-.24-13.07-.63-1.8-.23-7.28-.91-7.18-5.26.12-5,8.93-9,20-9l1.21,0c11.71.28,23.33,5,23.82,5.19l7.28,3-7.41,2.63C316.12,171.52,305,175.41,293.7,175.41Z"/><path class="b" d="M291.69,163.54l1.14,0c11.29.27,22.75,5,22.75,5s-10.94,3.88-21.88,3.88l-1.08,0c-11.29-.27-18-.39-18-2.83s6.43-6,17-6m0-6h0a38.55,38.55,0,0,0-14.77,2.59c-7.07,2.92-8.21,7.07-8.27,9.29a7.46,7.46,0,0,0,4.64,7,17.22,17.22,0,0,0,5.17,1.3c3.27.41,7.73.52,13.37.66h.64l1.23,0c11.84,0,23.4-4,23.89-4.22l14.82-5.25-14.55-6c-.51-.21-12.63-5.12-24.89-5.42l-1.28,0Z"/><path class="c" d="M292.87,200.32A6.44,6.44,0,0,1,289,199.2a5.12,5.12,0,0,1-2.1-4.39c.1-4,4.11-8.93,10.73-13.25,8.54-5.57,21.49-7.83,22-7.93l5.52-.95L323,177.81a39.28,39.28,0,0,1-13.07,15.24C304.8,196.37,297.72,200.32,292.87,200.32Z"/><path class="b" d="M320.21,176.59a36.26,36.26,0,0,1-12,13.95c-6.43,4.2-12.08,6.78-15.37,6.78a3.49,3.49,0,0,1-2.08-.55c-2.47-1.79.39-7.4,8.51-12.7s20.91-7.48,20.91-7.48m10-7.81-11.05,1.89c-.57.1-14.12,2.48-23.17,8.38-7.56,4.93-12,10.65-12.08,15.69a8.1,8.1,0,0,0,3.33,6.89,9.34,9.34,0,0,0,5.6,1.69c4.49,0,10.76-2.61,18.65-7.75A42.42,42.42,0,0,0,325.69,179l4.55-10.25Z"/><path class="d" d="M330.92,212.26c-5.75-.14-10.26-7.61-10-16.65.21-8.84,8.33-17.21,8.68-17.57l2.25-2.28,2.13,2.39c.33.37,8,9.12,7.82,18s-5,16.15-10.68,16.15Z"/><path class="b" d="M331.7,180.15s7.25,8.13,7.06,15.89-4.15,13.22-7.68,13.22H331c-3.54-.09-7.3-5.82-7.11-13.58s7.82-15.53,7.82-15.53m.21-8.78-4.49,4.57c-.95,1-9.3,9.75-9.54,19.59a25.14,25.14,0,0,0,2.93,12.76c2.44,4.33,6.1,6.87,10,7h.23c7.41,0,13.42-8.38,13.68-19.07.24-9.85-7.68-19-8.58-20l-4.27-4.79Z"/><path class="c" d="M369.93,202.15c-4.87,0-12-4.39-17.08-8.08a39,39,0,0,1-12.31-15.87l-2-5.22,5.48,1.21c.54.12,13.37,3,21.62,9,6.41,4.63,10.17,9.77,10.08,13.75a5.11,5.11,0,0,1-2.31,4.28A6.17,6.17,0,0,1,369.93,202.15Z"/><path class="b" d="M343.34,177.12s12.66,2.81,20.51,8.49,10.44,11.43,7.89,13.09a3.24,3.24,0,0,1-1.81.45c-3.25,0-8.91-2.88-15.32-7.51a36.14,36.14,0,0,1-11.27-14.52m-9.65-8.29,4.05,10.46A42.52,42.52,0,0,0,351.1,196.5c7.94,5.74,14.27,8.65,18.83,8.65a9.23,9.23,0,0,0,5.09-1.42,8.15,8.15,0,0,0,3.67-6.73c.12-5-4-11-11.32-16.25-8.75-6.34-22.17-9.36-22.73-9.49l-10.95-2.43Z"/><path class="d" d="M380,177.41c-2.4,0-5.16-.07-8.36-.14l-.64,0c-11.71-.28-23.33-5-23.82-5.2l-7.27-3,7.41-2.62c.46-.16,11.56-4,22.88-4l1.16,0a36.84,36.84,0,0,1,14.35,2.89c4.22,1.9,6.51,4.41,6.44,7.06C392,177.41,385.34,177.41,380,177.41Z"/><path class="b" d="M370.18,165.4l1.09,0c11.29.27,17.92,4.44,17.86,6.88,0,1.7-3.33,2.11-9.16,2.11-2.51,0-5.51-.08-8.92-.16-11.29-.27-22.75-5-22.75-5s10.94-3.88,21.88-3.88m0-6h0c-11.83,0-23.4,4-23.88,4.22l-14.82,5.25,14.54,6c.51.21,12.63,5.12,24.89,5.42h.64c3.22.08,6,.15,8.42.15a40.7,40.7,0,0,0,7.94-.54c6.56-1.33,7.19-6,7.22-7.43.06-2.28-.94-6.59-8.21-9.87a40,40,0,0,0-15.51-3.15l-1.23,0Z"/><path class="d" d="M340.94,160A39.07,39.07,0,0,1,354,144.75c6.22-4.05,12.19-6.38,16.37-6.38a7.46,7.46,0,0,1,4.45,1.25,5,5,0,0,1,2.1,4.24c-.11,4.54-5.89,9.24-10.71,12.39-8.54,5.57-21.49,7.83-22,7.93l-5.52.94Z"/><path class="b" d="M370.38,141.37a4.61,4.61,0,0,1,2.69.68c2.47,1.79-.37,6.39-8.49,11.68s-20.9,7.49-20.9,7.49a36.18,36.18,0,0,1,12-13.95c6.05-4,11.39-5.9,14.74-5.9m0-6h0c-4.82,0-11.22,2.44-18,6.87a42.32,42.32,0,0,0-14.17,16.54L333.64,169l11.05-1.9c.57-.09,14.12-2.47,23.17-8.37,8-5.22,11.95-10.07,12.07-14.82a8,8,0,0,0-3.34-6.75,10.37,10.37,0,0,0-6.21-1.82Z"/><path class="a" d="M377.48,945.14c-36.91,0-59.26-12.76-65-37-8,6.09-16.62,9.16-25.76,9.16h0a37.7,37.7,0,0,1-17.63-4.2l-1-.6-.33-1.15c-.34-1.15-8-28.21,6.2-47.39,8.36-11.31,22.43-17.32,41.83-17.89,11.57-17.71,26.17-26.69,43.41-26.69,20,0,35.95,12.36,36.61,12.88l.66.52.29.77c.39,1,8.62,23.18-2.39,36.41,22.79,12.57,22.48,66,22.45,68.39l0,2.36-2.3.53A182.8,182.8,0,0,1,377.48,945.14Z"/><path class="b" d="M359.14,822.39c19.2,0,34.76,12.24,34.76,12.24s9.6,25.21-5,36.37c25.5,7,24.83,67.32,24.83,67.32a181.07,181.07,0,0,1-36.28,3.82c-26.54,0-58.64-6.95-63-39.59-10,9.23-19.93,11.76-27.77,11.76a34.79,34.79,0,0,1-16.12-3.79s-17.66-60.61,46.81-61.47c13-20.61,28.25-26.66,41.75-26.66m0-6c-12.42,0-30.1,4.73-45.06,26.75-19.56.87-33.88,7.27-42.59,19.05-15.07,20.36-7,48.81-6.67,50l.67,2.3,2.07,1.21a40.31,40.31,0,0,0,19.14,4.6,44.37,44.37,0,0,0,24-7.3C314.65,925,322.8,934,335,940c11.07,5.42,25.36,8.17,42.46,8.17a186.16,186.16,0,0,0,37.63-4l4.6-1.06.05-4.72a182.14,182.14,0,0,0-3-32.23c-3.47-18.33-9.57-30.73-18.19-37,9.09-14.61,1.29-35.6.9-36.63l-.59-1.56-1.31-1c-.7-.56-17.43-13.53-38.47-13.53Z"/><path class="a" d="M496.22,153.76c-19.24,0-32.79-7.32-39.49-21.25-8.77,9.51-18.52,11.65-25.51,11.65h0a29.32,29.32,0,0,1-8.82-1.25l-1.13-.39-.55-1.07c-.46-.88-11-21.78-2.45-39.75,5-10.56,15.48-17.71,31.09-21.28,9.92-24.13,26.87-29.25,39.46-29.25a57.13,57.13,0,0,1,23.69,5.47l.74.38.43.71c.48.76,10.49,17.16,4.11,29.79,20.27,7.33,28.32,50,28.68,52l.42,2.32-2.15,1C543.72,143.2,519.71,153.76,496.22,153.76Z"/><path class="b" d="M488.82,54.17a54.35,54.35,0,0,1,22.32,5.14s11.72,18.87,1.7,30.19C534.56,91.12,543.52,140,543.52,140s-24.18,10.75-47.3,10.75c-16.43,0-32.33-5.44-38.6-24-8.87,12-19.38,14.44-26.4,14.44a26.28,26.28,0,0,1-7.83-1.08S399.57,93.86,451.56,83c9-23.18,24.36-28.84,37.26-28.84m0-6c-13.27,0-31,5.25-41.63,29.69-15.72,3.89-26.36,11.47-31.63,22.55-9.2,19.3,2,41.48,2.49,42.41l1.1,2.14,2.27.78a31.77,31.77,0,0,0,9.8,1.42,36.31,36.31,0,0,0,24.78-9.7c7.7,12.67,21.42,19.3,40.22,19.3,24.11,0,48.7-10.8,49.73-11.26l4.32-1.92-.85-4.65a152.7,152.7,0,0,0-7.52-25.79c-5.59-14-12.37-23.13-20.21-27.21,4.47-13.53-5-29-5.46-29.78l-.88-1.42L513.88,54a60.29,60.29,0,0,0-25.06-5.81Z"/><path class="d" d="M362.23,52.39c-.81-.43-20.09-10.89-30.49-25.6C323,14.37,319.23,5.34,320.64-.07a6.7,6.7,0,0,1,3.66-4.5,8.44,8.44,0,0,1,3.64-.76c7.56,0,18,7.89,26.66,20.12,10.48,14.81,12,33.94,12,34.74L367,55Z"/><path class="b" d="M327.94-2.33c5.69,0,15.47,6.48,24.22,18.85,10.11,14.3,11.49,33.23,11.49,33.23s-19.35-10.39-29.46-24.7S320.63.5,325.59-1.86a5.42,5.42,0,0,1,2.35-.47m0-6h0a11.36,11.36,0,0,0-4.92,1,9.76,9.76,0,0,0-5.28,6.45c-1.67,6.4,2.11,16,11.55,29.35C340.09,43.8,360,54.58,360.81,55l9.62,5.16-.8-10.89c-.06-.84-1.63-20.77-12.58-36.26-9.18-13-20.61-21.38-29.11-21.38Z"/><path class="c" d="M329.77,61.86a114,114,0,0,1-20.63-1.71c-19.28-3.6-27.26-5.09-29.62-9.27a5.22,5.22,0,0,1-.3-4.55c1.7-4.56,9.53-9.15,23.21-9.15a74.64,74.64,0,0,1,13.67,1.35c20.77,3.88,38.75,15.52,39.51,16l6.44,4.21L354.46,60A167.61,167.61,0,0,1,329.77,61.86Z"/><path class="b" d="M302.43,40.18a71.13,71.13,0,0,1,13.12,1.3C336,45.29,354,57.06,354,57.06a165.1,165.1,0,0,1-24.2,1.8,111.34,111.34,0,0,1-20.08-1.66c-20.41-3.81-29.28-5.48-27.66-9.82,1.23-3.3,8.17-7.2,20.4-7.2m0-6h0c-13.3,0-23.51,4.36-26,11.1a8.27,8.27,0,0,0,.5,7.08c3,5.39,10.85,6.85,31.68,10.74a116.34,116.34,0,0,0,21.18,1.76A169.73,169.73,0,0,0,355,63l15.19-2.52L357.25,52c-.78-.51-19.25-12.47-40.6-16.46a77.9,77.9,0,0,0-14.22-1.4Z"/><path class="d" d="M291.79,106a5.9,5.9,0,0,1-5.12-2.38c-.79-1.13-1.57-3.14-.74-6.31,1.58-6,9.08-15.76,25-23.33,19-9,42.83-11.38,43.84-11.48l7.66-.72-5.15,5.72c-.6.67-15,16.53-34.09,25.6-2.77,1.31-5.38,2.58-7.83,3.76C304,102.34,296.45,106,291.79,106Z"/><path class="b" d="M355.06,65.47s-14.39,16-33.15,24.9c-15,7.11-25.24,12.61-30.12,12.61a3,3,0,0,1-2.67-1.12c-2.67-3.78,4.35-16.28,23.11-25.19s42.83-11.2,42.83-11.2M369.82,58,354.49,59.5c-1,.09-25.35,2.49-44.84,11.75A67.13,67.13,0,0,0,291.43,83.6C287,88,284.1,92.43,283,96.53c-1.12,4.29,0,7.15,1.19,8.8a8.89,8.89,0,0,0,7.57,3.65c5.35,0,12.7-3.56,24.89-9.44,2.44-1.18,5-2.44,7.81-3.75,19.61-9.32,34.41-25.62,35-26.31L369.82,58Z"/><path class="c" d="M348.52,129.43a13.56,13.56,0,0,1-2.42-.23,9.15,9.15,0,0,1-6.67-4.41c-2.39-4.23-1.69-10.86,2.27-21.49,6.29-16.88,22.24-31.93,22.92-32.56l4-3.73,1,5.37c.15.79,3.59,19.66-2.75,36.67C361.69,123,355.86,129.43,348.52,129.43Z"/><path class="b" d="M366.67,72.93s3.51,18.65-2.61,35.07c-5.41,14.54-10.66,18.43-15.54,18.43a9.79,9.79,0,0,1-1.87-.18c-5.4-1-8.26-5.49-2.14-21.9s22.16-31.42,22.16-31.42m3.88-11.84-8,7.46c-.7.65-17.15,16.17-23.69,33.7-4.29,11.54-4.93,18.94-2.06,24a12.07,12.07,0,0,0,8.73,5.88,16,16,0,0,0,3,.28c11.51,0,17.59-12.75,21.16-22.34,6.63-17.77,3-37.44,2.88-38.27l-2-10.73Z"/><path class="d" d="M406.42,121.9c-6.2,0-12.55-4.89-20-15.4-10.47-14.82-12-33.94-12-34.75l-.4-5.44,4.81,2.58c.82.44,20.1,10.9,30.5,25.61,6.55,9.26,8.92,15.49,7.69,20.19a9.15,9.15,0,0,1-5.32,6A12.34,12.34,0,0,1,406.42,121.9Z"/><path class="b" d="M377.39,71.53s19.36,10.4,29.47,24.7,8.5,19.37,3.54,21.73a9.26,9.26,0,0,1-4,.94c-4.38,0-9.91-3.36-17.52-14.13-10.11-14.31-11.5-33.24-11.5-33.24m-6.77-10.45L371.41,72c.06.84,1.63,20.77,12.58,36.26,8,11.37,15.17,16.67,22.42,16.67a15.24,15.24,0,0,0,6.56-1.52,12.07,12.07,0,0,0,6.93-7.93c1.47-5.64-1-12.63-8.14-22.68C401,77.49,381.07,66.7,380.23,66.25l-9.61-5.17Z"/><path class="c" d="M454.45,84.73c-4.75,0-11.71-1.35-21.35-3.22-2.66-.51-5.51-1.07-8.53-1.63-20.77-3.88-38.75-15.52-39.51-16l-6.44-4.21,7.59-1.26a167.61,167.61,0,0,1,24.69-1.84,113.89,113.89,0,0,1,20.63,1.71C448.87,61.5,458.61,69,461.68,74.41c1.61,2.86,1.38,5,.9,6.29C461.08,84.73,456.09,84.73,454.45,84.73Z"/><path class="b" d="M410.9,59.55A111.27,111.27,0,0,1,431,61.21c20.42,3.81,30.4,14.1,28.78,18.44-.54,1.48-2.36,2.08-5.31,2.08-5.75,0-15.84-2.28-29.33-4.8-20.41-3.81-38.42-15.58-38.42-15.58a165.28,165.28,0,0,1,24.2-1.8m0-6v0a171.33,171.33,0,0,0-25.18,1.88L370.53,58l12.89,8.42c.78.51,19.25,12.47,40.6,16.46,3,.56,5.85,1.11,8.51,1.63,9.8,1.89,16.88,3.27,21.92,3.27,4,0,9.1-1,10.94-6,.7-1.89,1.08-5-1.1-8.81-2.09-3.7-6-7.27-11.44-10.35a67.47,67.47,0,0,0-20.77-7.28,116.34,116.34,0,0,0-21.18-1.76Z"/><path class="c" d="M383.38,50.93c.6-.67,15-16.53,34.09-25.6,11.3-5.36,19.67-6.49,24.71-6.49,6.16,0,10.88,1.68,12.94,4.59a5.24,5.24,0,0,1,.88,4.48c-1.22,4.65-8.55,8.13-26.27,16.54-19,9-42.83,11.38-43.84,11.48l-7.66.72Z"/><path class="b" d="M442.18,21.84c5.55,0,9.19,1.48,10.49,3.33,2.68,3.78-5.46,7.66-24.22,16.57s-42.84,11.2-42.84,11.2S400,37,418.76,28c9.61-4.56,17.58-6.2,23.42-6.2m0-6h0c-5.35,0-14.19,1.18-26,6.78-19.61,9.32-34.41,25.62-35,26.31l-10.3,11.44,15.33-1.46c1-.09,25.35-2.49,44.84-11.75,19.15-9.09,26.31-12.49,27.88-18.49a8.32,8.32,0,0,0-1.33-7c-2.67-3.78-8.14-5.86-15.39-5.86Z"/><path class="d" d="M371.43,48.91c-.15-.8-3.59-19.67,2.74-36.67C380-3.42,389.44-14.35,397.12-14.35a8,8,0,0,1,1.39.12,6.69,6.69,0,0,1,4.69,3.42C406-5.95,404.66,3.74,399.35,18c-6.29,16.89-22.25,31.93-22.92,32.57l-4,3.72Z"/><path class="b" d="M397.12-11.35a4.61,4.61,0,0,1,.84.07c5.4,1,4.69,11.8-1.42,28.22s-22.16,31.41-22.16,31.41S370.87,29.7,377,13.29c5.81-15.6,14.64-24.64,20.14-24.64m0-6h0c-9.05,0-19.4,11.47-25.76,28.54-6.62,17.78-3,37.45-2.88,38.27l2,10.73,8-7.45c.69-.65,17.15-16.17,23.68-33.71,5.71-15.32,6.9-25.57,3.65-31.32a9.72,9.72,0,0,0-6.75-4.88,10.37,10.37,0,0,0-1.94-.18Z"/><path class="c" d="M366,44c-.46-.44-11.36-11-12.92-22.88-.75-5.75-.34-10.85,1.17-14.74,1.67-4.28,4.6-6.9,8.25-7.38a8.57,8.57,0,0,1,1.13-.07c6.78,0,12.13,7.47,13.64,19,1.55,11.92-6.3,24.88-6.64,25.43l-1.94,3.16Z"/><path class="b" d="M363.61,1.93c4.77,0,9.3,6,10.66,16.43,1.43,11-6.22,23.47-6.22,23.47s-10.58-10.1-12-21.1S357.83,2.63,362.87,2a4.6,4.6,0,0,1,.74-.05m0-6a11.19,11.19,0,0,0-1.52.1c-4.72.61-8.6,4-10.65,9.27-1.7,4.35-2.17,10-1.35,16.2,1.66,12.74,12.58,23.49,13.82,24.67l5.38,5.13L373.17,45c.9-1.46,8.71-14.65,7.05-27.39C378.51,4.43,372-4.07,363.61-4.07Z"/><path class="c" d="M352.08,51.65c-.78,0-19.28-1.31-32-7.83-7.06-3.61-15.63-9.14-16.39-15a5.82,5.82,0,0,1,1.93-5.22c1.64-1.47,4.08-2.22,7.26-2.22,5.68,0,13.37,2.34,21.67,6.58,13,6.64,20.05,18.7,20.34,19.21L357.68,52Z"/><path class="b" d="M312.86,24.36c4.83,0,12,2,20.3,6.25,12.34,6.31,19.11,18,19.11,18s-18.51-1.19-30.84-7.5-17.07-12.43-13.82-15.34c1.06-1,2.87-1.45,5.25-1.45m0-6c-3.94,0-7.06,1-9.26,3a8.86,8.86,0,0,0-2.91,7.84c.75,5.76,6.81,11.58,18,17.3,13.29,6.8,32.39,8.1,33.2,8.15l11.19.73-5.61-9.72c-.31-.54-7.82-13.35-21.57-20.38-8.72-4.46-16.9-6.91-23-6.91Z"/><path class="d" d="M295.16,76.38c-2,0-8.15,0-8.77-4.75-.85-6.57,11.49-13.82,27-15.83a77.85,77.85,0,0,1,10.07-.61,115.85,115.85,0,0,1,24.26,2.71l7.64,1.83-6.92,3.73c-.65.35-16.27,8.69-32.64,10.82l-.92.12C306.36,75.5,299.65,76.38,295.16,76.38Z"/><path class="b" d="M323.42,58.19A113.58,113.58,0,0,1,347,60.82s-15.6,8.4-31.61,10.48c-8.87,1.16-15.76,2.08-20.21,2.08-3.58,0-5.59-.6-5.79-2.14-.45-3.46,8.36-10.38,24.37-12.47a75.27,75.27,0,0,1,9.68-.58m0-6v0h0a82.14,82.14,0,0,0-10.46.63C295,55.16,282.3,63.41,283.42,72c.44,3.36,2.83,7.37,11.74,7.37,4.69,0,11.48-.89,20.07-2l.91-.12c16.92-2.2,33-10.78,33.69-11.15l13.83-7.45L348.38,55a119.67,119.67,0,0,0-25-2.79Z"/><path class="c" d="M320.05,109.56a7.18,7.18,0,0,1-3.29-.74,6,6,0,0,1-3.23-4.76c-.68-5.22,3.74-12.68,11.84-19.94C336,74.56,353.58,68.6,354.32,68.35l5.32-1.78L358.17,72c-.16.57-3.9,14-14.75,23.78C336.41,102.06,326.66,109.56,320.05,109.56Z"/><path class="b" d="M355.27,71.2s-3.54,13.07-13.85,22.33c-8.87,8-16.84,13-21.37,13a4.12,4.12,0,0,1-1.92-.41c-3.88-2-1.07-10.55,9.24-19.8s27.9-15.15,27.9-15.15M364,61.94l-10.63,3.57c-.77.25-18.9,6.4-30,16.37-9,8.05-13.63,16.27-12.81,22.57a9.07,9.07,0,0,0,4.84,7,10.15,10.15,0,0,0,4.66,1.07c6.07,0,14.61-4.9,25.38-14.57,11.49-10.32,15.47-24.62,15.63-25.22L364,61.94Z"/><path class="d" d="M377,118c-7.13,0-13.88-8.91-15.36-20.29-1.57-12,7.79-25.24,8.19-25.79l1.87-2.61,2.47,2c.53.44,13,10.8,14.52,22.84S385.39,117,378.06,118A7,7,0,0,1,377,118Z"/><path class="b" d="M372.29,73.71s12,9.9,13.46,20.91-3.05,19.72-8.08,20.38c-.21,0-.42,0-.64,0-4.93,0-11-7.13-12.39-17.67-1.43-11,7.65-23.66,7.65-23.66M371.16,65l-3.74,5.21c-1.07,1.49-10.42,15-8.73,27.93S368.28,121,377,121a11,11,0,0,0,1.41-.09c9.1-1.19,15.05-13.35,13.26-27.1-1.69-13-14.17-23.61-15.59-24.77L371.16,65Z"/><path class="c" d="M428.94,95.31c-6.65,0-16.24-4.2-23.12-7.71-13-6.64-20.05-18.71-20.34-19.22l-2.81-4.85,5.6.36c.78,0,19.28,1.31,32,7.83,9.68,5,15.87,11,16.55,16.24a6,6,0,0,1-1.9,5.43A8.73,8.73,0,0,1,428.94,95.31Z"/><path class="b" d="M388.08,66.88s18.51,1.2,30.84,7.51,17.25,13.86,14,16.77a5.87,5.87,0,0,1-4,1.15c-4.84,0-12.72-2.76-21.75-7.38-12.34-6.31-19.11-18.05-19.11-18.05m-10.81-6.71,5.61,9.71c.31.54,7.82,13.35,21.57,20.39,7.18,3.67,17.25,8,24.49,8a11.56,11.56,0,0,0,8-2.68,9.09,9.09,0,0,0,2.88-8c-.82-6.3-7.44-13-18.16-18.54-13.29-6.79-32.39-8.09-33.2-8.15l-11.19-.72Z"/><path class="d" d="M416.93,60.35a115.85,115.85,0,0,1-24.26-2.71L385,55.8,392,52.08c.65-.36,16.27-8.69,32.64-10.82A63.86,63.86,0,0,1,433,40.7c11.92,0,21.06,3.76,21.73,9,.65,5-5.94,6.54-8.43,7.12-4.32,1-10.52,1.82-18.36,2.84l-.91.12A79.67,79.67,0,0,1,416.93,60.35Z"/><path class="b" d="M433,43.7c11.37,0,18.39,3.5,18.76,6.34.45,3.46-9.11,4.64-25.12,6.72a75.29,75.29,0,0,1-9.68.59,113.58,113.58,0,0,1-23.56-2.63S409,46.32,425,44.23a62.1,62.1,0,0,1,8-.53m0-6h0a67.8,67.8,0,0,0-8.76.58c-16.92,2.2-33,10.79-33.69,11.16l-13.83,7.45L392,60.55a118.53,118.53,0,0,0,25,2.8,80.39,80.39,0,0,0,10.46-.64l.91-.12c7.93-1,14.19-1.84,18.65-2.88a22.4,22.4,0,0,0,6.43-2.33,8.17,8.17,0,0,0,4.3-8.11c-1-8-13.16-11.57-24.71-11.57Z"/><path class="d" d="M382.18,43.56c.16-.57,3.9-14,14.75-23.79C405.61,12,414.23,7.32,420,7.32a8.3,8.3,0,0,1,3.79.83,5.84,5.84,0,0,1,3.2,4.56c.77,5.87-6.1,13.42-12,18.71C404.33,41,386.77,46.94,386,47.19L380.71,49Z"/><path class="b" d="M420,10.32a5.38,5.38,0,0,1,2.42.5c3.88,2,.88,9.11-9.43,18.37s-27.9,15.15-27.9,15.15S388.62,31.26,398.93,22c8.56-7.69,16.42-11.69,21.06-11.69m0-6h0c-6.57,0-15.71,4.82-25.07,13.22-11.49,10.32-15.47,24.63-15.63,25.23l-2.94,10.82L387,50c.77-.26,18.9-6.41,30-16.38,9.35-8.4,13.72-15.57,13-21.33a8.89,8.89,0,0,0-4.82-6.84A11.19,11.19,0,0,0,420,4.32Z"/><path class="c" d="M366.77,65.78c-8.84,0-15.25-3.58-15.94-8.91-.82-6.32,6.67-12.13,17.42-13.54a35.84,35.84,0,0,1,4.36-.28c8.85,0,15.25,3.58,15.95,8.91.43,3.34-1.41,6.6-5.19,9.19a28.45,28.45,0,0,1-12.24,4.34A33.84,33.84,0,0,1,366.77,65.78Z"/><path class="b" d="M372.61,46.05c7,0,12.48,2.51,13,6.29.58,4.48-6.06,9-14.83,10.18a32.27,32.27,0,0,1-4,.26c-7,0-12.47-2.52-13-6.3-.58-4.47,6.06-9,14.84-10.17a30.28,30.28,0,0,1,4-.26m0-6h0a36.42,36.42,0,0,0-4.75.31,31.51,31.51,0,0,0-13.54,4.84c-4.69,3.21-7,7.61-6.47,12.06.92,7,8.34,11.52,18.92,11.52a38.25,38.25,0,0,0,4.75-.31,31.77,31.77,0,0,0,13.55-4.84c4.68-3.22,7-7.61,6.46-12.06-.91-7-8.34-11.52-18.92-11.52Z"/><path class="d" d="M130.55,165.7c-.67-.64-16.65-15.66-23-32.54-5.32-14.24-6.63-23.93-3.88-28.79A6.69,6.69,0,0,1,108.4,101a7.3,7.3,0,0,1,1.4-.13c7.68,0,17.12,10.93,23,26.57,6.35,17,2.93,35.87,2.78,36.66l-1,5.37Z"/><path class="b" d="M109.8,103.82c5.5,0,14.33,9,20.16,24.62,6.13,16.41,2.64,35.06,2.64,35.06s-16.06-15-22.19-31.39-6.85-27.2-1.45-28.21a4.6,4.6,0,0,1,.84-.08m0-6h0a10.48,10.48,0,0,0-2,.18,9.76,9.76,0,0,0-6.75,4.89c-3.24,5.76-2,16,3.69,31.32,6.55,17.53,23,33,23.72,33.68l8,7.45,2-10.73c.15-.83,3.72-20.51-2.92-38.27-6.38-17.06-16.73-28.52-25.78-28.52Z"/><path class="c" d="M121.09,171.09c-1-.1-24.82-2.42-43.85-11.43-17.72-8.4-25.06-11.87-26.28-16.51a5.27,5.27,0,0,1,.87-4.48c2.07-2.93,6.8-4.61,13-4.61,5,0,13.39,1.12,24.67,6.47,19.09,9,33.52,24.89,34.12,25.56l5.16,5.72Z"/><path class="b" d="M64.81,137.06c5.83,0,13.79,1.63,23.39,6.18,18.77,8.89,33.17,24.86,33.17,24.86S97.3,165.84,78.53,157,51.61,144.18,54.28,140.4c1.31-1.85,4.95-3.34,10.53-3.34m0-6v0h0c-7.28,0-12.76,2.09-15.43,5.88a8.28,8.28,0,0,0-1.32,7c1.58,6,8.74,9.39,27.9,18.46,19.5,9.24,43.83,11.61,44.85,11.7l15.33,1.44-10.31-11.43c-.62-.69-15.44-17-35.06-26.26-11.79-5.59-20.62-6.76-26-6.76Z"/><path class="d" d="M52.54,200c-1.63,0-6.6,0-8.1-4-.48-1.29-.72-3.43.89-6.28,3.06-5.44,12.79-12.93,30.13-16.19a113.67,113.67,0,0,1,20.79-1.73,167.72,167.72,0,0,1,24.53,1.81l7.59,1.25L121.93,179c-.75.5-18.73,12.16-39.49,16.06q-4.53.85-8.52,1.64C64.27,198.6,57.29,200,52.54,200Z"/><path class="b" d="M96.25,174.74a165.5,165.5,0,0,1,24,1.77s-18,11.79-38.4,15.62C68.38,194.67,58.29,197,52.54,197c-2.94,0-4.74-.6-5.29-2.07-1.62-4.34,8.35-14.64,28.76-18.47a111.32,111.32,0,0,1,20.24-1.68m0-6v0h0a116.86,116.86,0,0,0-21.34,1.78,67.39,67.39,0,0,0-20.77,7.3c-5.39,3.08-9.34,6.67-11.42,10.36-2.18,3.86-1.8,6.92-1.09,8.81,1.84,4.93,6.95,6,10.91,6,5,0,12.13-1.38,21.95-3.29,2.65-.52,5.49-1.07,8.5-1.64,21.35-4,39.81-16,40.59-16.5l12.87-8.44-15.19-2.5a171.05,171.05,0,0,0-25-1.85Z"/><path class="c" d="M100.63,237.08a12.19,12.19,0,0,1-5.26-1.23,9.13,9.13,0,0,1-5.32-6c-1.23-4.71,1.13-10.94,7.67-20.21C108.1,195,127.37,184.48,128.19,184l4.8-2.58-.39,5.44c-.06.81-1.54,19.93-12,34.76C113.18,232.18,106.83,237.08,100.63,237.08Z"/><path class="b" d="M129.61,186.68s-1.36,18.94-11.46,33.25c-7.61,10.78-13.13,14.15-17.52,14.15a9.13,9.13,0,0,1-4-.94c-5-2.35-6.59-7.41,3.51-21.73s29.44-24.73,29.44-24.73m6.77-10.45-9.62,5.17c-.84.45-20.7,11.26-31.49,26.55-7.1,10.06-9.6,17.06-8.12,22.7a12.07,12.07,0,0,0,6.94,7.91,15.18,15.18,0,0,0,6.54,1.52c7.26,0,14.39-5.3,22.42-16.69,10.94-15.5,12.48-35.43,12.54-36.27l.79-10.89Z"/><path class="d" d="M158.53,244.55c-7.33,0-13.17-6.47-18.36-20.36-6.35-17-2.93-35.88-2.78-36.67l1-5.37,4,3.73c.68.63,16.65,15.66,23,32.53,4,10.63,4.68,17.25,2.29,21.49a9.14,9.14,0,0,1-6.67,4.42A12.72,12.72,0,0,1,158.53,244.55Z"/><path class="b" d="M140.34,188.07s16.06,15,22.19,31.39,3.28,20.9-2.12,21.91a9.9,9.9,0,0,1-1.88.18c-4.88,0-10.12-3.89-15.55-18.41-6.13-16.41-2.64-35.07-2.64-35.07m-3.89-11.84-2,10.74c-.16.83-3.72,20.5,2.92,38.27,3.58,9.58,9.67,22.31,21.17,22.31a16.16,16.16,0,0,0,3-.28,12.06,12.06,0,0,0,8.72-5.9c2.86-5.07,2.22-12.48-2.09-24-6.55-17.53-23-33-23.72-33.68l-8-7.45Z"/><path class="c" d="M215.24,221c-4.66,0-12.19-3.63-23.58-9.12-2.45-1.18-5.06-2.44-7.83-3.75-19.09-9-33.52-24.89-34.12-25.56l-5.16-5.72,7.67.72c1,.1,24.82,2.41,43.85,11.43,15.94,7.55,23.45,17.27,25,23.3.83,3.17.06,5.18-.74,6.31A5.87,5.87,0,0,1,215.24,221Z"/><path class="b" d="M151.94,180.6s24.07,2.26,42.84,11.15,25.8,21.39,23.13,25.17a3,3,0,0,1-2.67,1.12c-4.89,0-15.15-5.48-30.13-12.58-18.77-8.89-33.17-24.86-33.17-24.86m-14.77-7.41,10.31,11.43c.62.69,15.44,17,35.06,26.26,2.77,1.31,5.38,2.57,7.82,3.74,12.18,5.87,19.53,9.42,24.88,9.42a8.88,8.88,0,0,0,7.58-3.66c1.16-1.65,2.31-4.51,1.18-8.8-1.08-4.1-4-8.57-8.42-12.92a67.22,67.22,0,0,0-18.23-12.33c-19.5-9.24-43.83-11.61-44.85-11.71l-15.33-1.43Z"/><path class="c" d="M177.06,177a167.72,167.72,0,0,1-24.53-1.81l-7.59-1.25,6.44-4.22c.75-.5,18.73-12.16,39.49-16.06a74.49,74.49,0,0,1,13.73-1.37c13.64,0,21.46,4.58,23.16,9.13a5.22,5.22,0,0,1-.3,4.55c-2.36,4.18-10.34,5.68-29.61,9.3A113.67,113.67,0,0,1,177.06,177Z"/><path class="b" d="M204.6,155.25c12.2,0,19.12,3.88,20.35,7.18,1.62,4.34-7.24,6-27.65,9.85A111.4,111.4,0,0,1,177.06,174a165.5,165.5,0,0,1-24-1.77s18-11.79,38.4-15.63a71.9,71.9,0,0,1,13.18-1.31m0-6h0a77.83,77.83,0,0,0-14.28,1.42c-21.35,4-39.81,16-40.59,16.5l-12.87,8.44,15.19,2.5a171.05,171.05,0,0,0,25,1.85,117,117,0,0,0,21.34-1.78c20.83-3.92,28.63-5.38,31.68-10.78a8.29,8.29,0,0,0,.49-7.07c-2.52-6.73-12.71-11.08-26-11.08Z"/><path class="d" d="M140.34,164.67c0-.8,1.54-19.93,12-34.76,8.5-12,19.21-20.14,26.65-20.14a8.36,8.36,0,0,1,3.63.76,6.68,6.68,0,0,1,3.66,4.49c1.42,5.41-2.3,14.45-11.06,26.87-10.39,14.72-29.65,25.2-30.47,25.64l-4.81,2.59Z"/><path class="b" d="M179,112.77a5.37,5.37,0,0,1,2.34.47c5,2.35,1.54,12.61-8.56,26.92s-29.44,24.73-29.44,24.73,1.36-18.93,11.46-33.25c8.74-12.38,18.51-18.87,24.2-18.87m0-6h0c-8.5,0-19.92,8.4-29.1,21.41-10.94,15.5-12.48,35.44-12.54,36.28l-.79,10.89,9.61-5.18c.84-.45,20.71-11.26,31.5-26.55,9.43-13.37,13.19-23,11.51-29.36a9.69,9.69,0,0,0-5.28-6.44,11.32,11.32,0,0,0-4.91-1Z"/><path class="c" d="M136.32,158.54c-.33-.55-8.2-13.5-6.66-25.42,1.5-11.58,6.84-19.06,13.63-19.06a8.42,8.42,0,0,1,1.12.07c6,.78,11.27,7.92,9.44,22.11-1.54,11.92-12.43,22.45-12.9,22.9l-2.68,2.56Z"/><path class="b" d="M143.29,117.06a6,6,0,0,1,.73,0c5,.65,8.27,7.74,6.85,18.74s-12,21.12-12,21.12-7.66-12.46-6.24-23.47c1.35-10.47,5.88-16.44,10.65-16.44m0-6h0c-8.39,0-14.9,8.51-16.6,21.67-1.65,12.74,6.18,25.92,7.08,27.38l3.89,6.32L143,161.3c1.23-1.18,12.15-11.94,13.79-24.68.81-6.25.34-11.85-1.36-16.2-2.06-5.28-6-8.65-10.67-9.26a10.8,10.8,0,0,0-1.5-.1Z"/><path class="c" d="M120.93,162.39c-.74-.25-18.31-6.19-29-15.74-5.9-5.28-12.78-12.82-12-18.7a5.82,5.82,0,0,1,3.2-4.55,8.19,8.19,0,0,1,3.8-.84c5.75,0,14.38,4.65,23.06,12.43,10.86,9.72,14.62,23.2,14.78,23.76l1.47,5.42Z"/><path class="b" d="M86.94,125.56c4.64,0,12.5,4,21.06,11.66,10.32,9.25,13.88,22.32,13.88,22.32s-17.6-5.88-27.92-15.12-13.32-16.37-9.45-18.35a5.29,5.29,0,0,1,2.43-.51m0-6h0a11.15,11.15,0,0,0-5.17,1.17,8.84,8.84,0,0,0-4.8,6.84c-.75,5.76,3.62,12.93,13,21.32,11.12,10,29.25,16.09,30,16.34l10.64,3.56-3-10.82c-.16-.61-4.16-14.91-15.66-25.22-9.36-8.38-18.5-13.19-25.07-13.19Z"/><path class="d" d="M90,175.61a78.18,78.18,0,0,1-10-.6l-.92-.12c-7.84-1-14-1.81-18.36-2.81-2.49-.58-9.09-2.11-8.44-7.12.67-5.21,9.84-9,21.79-9a64.4,64.4,0,0,1,8.31.55c16.38,2.11,32,10.43,32.66,10.78L122,171l-7.64,1.84A115.68,115.68,0,0,1,90,175.61Z"/><path class="b" d="M74.11,159a63,63,0,0,1,7.93.53c16,2.07,31.62,10.45,31.62,10.45A113.46,113.46,0,0,1,90,172.61a74,74,0,0,1-9.58-.58c-16-2.06-25.57-3.23-25.12-6.69.36-2.85,7.4-6.36,18.81-6.37m0-6h0c-11.58,0-23.73,3.59-24.76,11.6a8.16,8.16,0,0,0,4.3,8.11A22.85,22.85,0,0,0,60.08,175c4.47,1,10.73,1.84,18.66,2.87l.91.12a82.51,82.51,0,0,0,10.35.62,119.38,119.38,0,0,0,25.06-2.82l15.29-3.68-13.85-7.44c-.68-.36-16.78-8.93-33.69-11.12a68.82,68.82,0,0,0-8.7-.58Z"/><path class="c" d="M78.18,210.57a8.7,8.7,0,0,1-6-1.9,6,6,0,0,1-1.91-5.43C71,198,77.14,191.93,86.82,187c12.74-6.53,31.23-7.81,32-7.86l5.59-.37-2.8,4.86c-.29.51-7.35,12.59-20.32,19.24C94.43,206.37,84.83,210.57,78.18,210.57Z"/><path class="b" d="M119,182.1s-6.76,11.75-19.09,18.07c-9,4.63-16.92,7.4-21.76,7.4a5.86,5.86,0,0,1-4-1.14c-3.24-2.91,1.66-10.47,14-16.79S119,182.1,119,182.1m10.8-6.72-11.19.74c-.81,0-19.91,1.37-33.19,8.18-10.71,5.5-17.32,12.26-18.14,18.55a9.06,9.06,0,0,0,2.89,8.05,11.57,11.57,0,0,0,8,2.67c7.25,0,17.32-4.38,24.5-8.06,13.75-7,21.24-19.87,21.55-20.41l5.6-9.72Z"/><path class="d" d="M130.15,233.21a6.77,6.77,0,0,1-1-.07c-3.6-.46-6.82-3.41-8.84-8.08a30.21,30.21,0,0,1-1.85-15.65c1.55-12,14-22.42,14.49-22.85l2.47-2,1.88,2.6c.4.55,9.77,13.74,8.21,25.79C144,224.29,137.29,233.21,130.15,233.21Z"/><path class="b" d="M134.85,188.87s9.1,12.65,7.68,23.65c-1.36,10.55-7.44,17.69-12.38,17.69-.21,0-.42,0-.63,0-5-.65-9.52-9.36-8.1-20.37s13.43-20.93,13.43-20.93m1.13-8.71L131,184.25c-1.42,1.16-13.88,11.8-15.56,24.78a33.33,33.33,0,0,0,2.07,17.22c2.46,5.67,6.54,9.26,11.21,9.87a11,11,0,0,0,1.4.09c8.77,0,16.64-9.85,18.33-22.92s-7.68-26.43-8.76-27.92L136,180.16Z"/><path class="c" d="M187.11,224.62c-6.62,0-16.37-7.49-23.38-13.77-10.86-9.72-14.62-23.2-14.77-23.77l-1.48-5.41,5.32,1.78c.74.25,18.31,6.18,29,15.73,8.1,7.26,12.54,14.71,11.86,19.93a6,6,0,0,1-3.23,4.77A7.18,7.18,0,0,1,187.11,224.62Z"/><path class="b" d="M151.85,186.29s17.6,5.88,27.92,15.13,13.14,17.8,9.26,19.79a4.15,4.15,0,0,1-1.92.41c-4.53,0-12.51-5.06-21.38-13-10.32-9.25-13.88-22.33-13.88-22.33m-8.73-9.24,2.94,10.82c.17.6,4.16,14.91,15.67,25.21,10.76,9.65,19.3,14.54,25.38,14.54a10.15,10.15,0,0,0,4.66-1.07,9.09,9.09,0,0,0,4.84-7.05c.81-6.3-3.87-14.52-12.84-22.55-11.12-10-29.25-16.09-30-16.35l-10.63-3.55Z"/><path class="d" d="M211.87,191.39c-4.49,0-11.18-.87-19.65-2l-.91-.12c-16.37-2.11-32-10.43-32.66-10.78l-6.92-3.72,7.64-1.84a114.92,114.92,0,0,1,24.36-2.74,78.35,78.35,0,0,1,10,.6c15.46,2,27.82,9.23,27,15.8C220.05,191.39,213.89,191.39,211.87,191.39Z"/><path class="b" d="M183.73,173.23a75.63,75.63,0,0,1,9.58.57c16,2.07,24.83,9,24.38,12.44-.2,1.55-2.22,2.15-5.82,2.15-4.45,0-11.33-.91-20.18-2-16-2.07-31.62-10.46-31.62-10.46a113.87,113.87,0,0,1,23.66-2.65m0-6h0a118.73,118.73,0,0,0-25.06,2.82l-15.29,3.68,13.85,7.44c.68.36,16.78,8.93,33.7,11.12l.91.11c8.57,1.11,15.34,2,20,2,8.94,0,11.34-4,11.77-7.38,1.11-8.6-11.6-16.84-29.56-19.16a82.51,82.51,0,0,0-10.35-.62Z"/><path class="d" d="M152.1,162.24c.29-.51,7.35-12.59,20.32-19.24,8.31-4.26,16-6.6,21.69-6.6,3.16,0,5.6.74,7.24,2.21a5.85,5.85,0,0,1,1.94,5.22c-.76,5.88-9.33,11.42-16.38,15-12.74,6.53-31.23,7.81-32,7.86l-5.59.37Z"/><path class="b" d="M194.11,139.4c2.37,0,4.17.49,5.23,1.44,3.25,2.91-1.47,9-13.8,15.36s-30.84,7.53-30.84,7.53,6.76-11.74,19.09-18.06c8.27-4.24,15.49-6.27,20.32-6.27m0-6h0c-6.15,0-14.34,2.46-23.06,6.93-13.74,7-21.24,19.87-21.55,20.41l-5.6,9.72,11.19-.74c.81-.05,19.91-1.37,33.19-8.18,11.19-5.74,17.24-11.57,18-17.33a8.88,8.88,0,0,0-2.91-7.83c-2.21-2-5.32-3-9.24-3Z"/><path class="d" d="M140.15,180.91a33.32,33.32,0,0,1-4.32-.28,28.61,28.61,0,0,1-12.25-4.32c-3.78-2.59-5.62-5.85-5.19-9.19.69-5.34,7.1-8.93,16-8.93a35.19,35.19,0,0,1,4.32.28,28.53,28.53,0,0,1,12.24,4.33c3.79,2.58,5.63,5.85,5.2,9.19C155.43,177.33,149,180.91,140.15,180.91Z"/><path class="b" d="M134.36,161.19a29.83,29.83,0,0,1,3.94.26c8.78,1.13,15.42,5.68,14.85,10.15-.49,3.79-6,6.31-13,6.31a29.83,29.83,0,0,1-3.94-.26c-8.78-1.13-15.42-5.67-14.85-10.15.49-3.79,6-6.31,13-6.31m0-6h0c-10.61,0-18,4.53-19,11.54-1,8.15,7.37,15.24,20,16.88a37.59,37.59,0,0,0,4.71.3c10.61,0,18-4.53,18.95-11.54,1.05-8.14-7.38-15.24-20-16.87a35.82,35.82,0,0,0-4.71-.31Z"/><path class="d" d="M230.88,805.22c-.75-.54-18.52-13.4-26.94-29.33-7.1-13.44-9.63-22.88-7.53-28.06a6.66,6.66,0,0,1,4.21-4,7.92,7.92,0,0,1,2.46-.38c7.59,0,17.67,9.44,25.09,23.48,8.47,16,7.5,35.2,7.45,36l-.31,5.45Z"/><path class="b" d="M203.08,746.46c5.57,0,15,7.78,22.44,21.88,8.18,15.49,7.11,34.44,7.11,34.44s-17.85-12.8-26-28.29-10.28-26.1-5-27.8a5,5,0,0,1,1.53-.23m0-6a10.88,10.88,0,0,0-3.39.53,9.71,9.71,0,0,0-6.06,5.71c-2.48,6.12,0,16.13,7.66,30.59,8.74,16.55,27.06,29.81,27.84,30.37L238,814l.62-10.9c0-.84,1.06-20.81-7.8-37.58-8-15.23-18.94-25.08-27.74-25.08Z"/><path class="c" d="M219.21,811.81c-7.29,0-26-.56-42-5.75-18.65-6.06-26.37-8.57-28.18-13a5.23,5.23,0,0,1,.29-4.55c2.13-4,8.79-6.54,17.38-6.54a66.25,66.25,0,0,1,20.2,3.56c20.09,6.53,36.43,20.4,37.11,21l5.84,5-7.69.27S221.11,811.81,219.21,811.81Z"/><path class="b" d="M166.72,785A63.2,63.2,0,0,1,186,788.37c19.75,6.41,36.08,20.41,36.08,20.41s-1,0-2.87,0c-7,0-25.4-.52-41.05-5.61C158.4,796.79,149.83,794,152,789.89c1.33-2.52,6.41-4.94,14.72-4.94m0-6h0c-9.85,0-17.34,3-20,8.14a8.28,8.28,0,0,0-.42,7.08c2.33,5.74,9.88,8.19,30,14.74,16.41,5.33,35.48,5.9,42.91,5.9,1.91,0,3,0,3.08,0l15.39-.53-11.7-10c-.7-.6-17.48-14.85-38.13-21.56A69.19,69.19,0,0,0,166.72,779Z"/><path class="d" d="M155.57,849.35c-3.79,0-5.48-1.69-6.23-3.11-.64-1.22-1.15-3.31.08-6.35,2.34-5.78,11-14.46,27.81-19.91,16-5.2,34.69-5.76,42-5.76,1.89,0,3,0,3,0l7.69.27-5.84,5c-.68.58-17,14.46-37.11,21q-4.38,1.43-8.25,2.72C167.6,846.92,160.28,849.35,155.57,849.35Z"/><path class="b" d="M219.21,817.22c1.83,0,2.87,0,2.87,0s-16.33,14-36.08,20.41c-14.7,4.77-25.15,8.68-30.43,8.68-1.82,0-3-.46-3.57-1.51-2.17-4.1,6.4-15.59,26.16-22,15.65-5.08,34.07-5.61,41.05-5.61m0-6c-7.43,0-26.5.58-42.91,5.91A67.59,67.59,0,0,0,156.64,827c-4.95,3.75-8.4,7.81-10,11.74-1.67,4.11-.89,7.1.05,8.88s3.32,4.71,8.88,4.71c5.2,0,12.7-2.49,24.05-6.26,2.57-.86,5.32-1.77,8.23-2.71,20.65-6.71,37.43-21,38.13-21.56l11.7-10-15.39-.54s-1.17,0-3.08,0Z"/><path class="c" d="M208.86,879.94a12.47,12.47,0,0,1-3.89-.64,9.1,9.1,0,0,1-6-5.23c-1.83-4.51-.28-11,5-21,8.42-15.93,26.19-28.79,26.94-29.33l4.43-3.19.31,5.45c0,.81,1,20-7.45,36C221.7,874.24,215.57,879.94,208.86,879.94Z"/><path class="b" d="M232.63,826.15s1.07,19-7.11,34.44c-6.69,12.66-12.06,16.35-16.66,16.35a9.63,9.63,0,0,1-3-.49c-5.22-1.7-7.48-6.51.71-22s26-28.3,26-28.3M238,814.91l-8.87,6.37c-.78.56-19.1,13.82-27.84,30.37-5.75,10.88-7.33,18.14-5.14,23.54a12.06,12.06,0,0,0,7.89,7,15.39,15.39,0,0,0,4.82.79c10.43,0,17.53-11.15,22-19.54,8.86-16.78,7.85-36.74,7.8-37.58L238,814.91Z"/><path class="d" d="M267.21,879.94c-6.71,0-12.84-5.7-19.31-17.94-8.47-16-7.5-35.21-7.45-36l.31-5.45,4.43,3.19c.76.54,18.52,13.4,26.94,29.33,5.29,10,6.84,16.51,5,21a9.1,9.1,0,0,1-6,5.23A12.47,12.47,0,0,1,267.21,879.94Z"/><path class="b" d="M243.44,826.15s17.85,12.81,26,28.3,5.93,20.3.71,22a9.63,9.63,0,0,1-3,.49c-4.6,0-10-3.69-16.66-16.35-8.18-15.48-7.11-34.44-7.11-34.44m-5.37-11.24-.62,10.91c0,.84-1.06,20.8,7.8,37.58,9.25,17.52,17,19.54,22,19.54a15.39,15.39,0,0,0,4.82-.79,12,12,0,0,0,7.89-7c2.2-5.4.61-12.66-5.14-23.54-8.74-16.55-27.06-29.81-27.84-30.37l-8.87-6.37Z"/><path class="c" d="M320.5,849.35c-4.71,0-12-2.43-23.1-6.11q-3.87-1.29-8.25-2.72c-20.09-6.52-36.43-20.4-37.11-21l-5.84-5,7.69-.27s1.08,0,3,0c7.29,0,26,.56,42,5.76,16.78,5.45,25.47,14.13,27.81,19.91,1.23,3,.72,5.13.08,6.35C326,847.66,324.29,849.35,320.5,849.35Z"/><path class="b" d="M256.86,817.22c7,0,25.4.53,41.05,5.61,19.76,6.42,28.33,17.91,26.17,22-.56,1-1.76,1.51-3.58,1.51-5.28,0-15.73-3.91-30.42-8.68C270.32,831.25,254,817.26,254,817.26s1,0,2.87,0m0-6h0c-1.91,0-3,0-3.08,0l-15.38.54,11.69,10c.7.6,17.48,14.85,38.13,21.56,2.92.94,5.66,1.85,8.23,2.71,11.35,3.77,18.86,6.26,24.05,6.26,5.56,0,7.95-3,8.88-4.71s1.72-4.77.05-8.88c-1.59-3.93-5.05-8-10-11.74a67.46,67.46,0,0,0-19.66-9.89c-16.41-5.33-35.47-5.91-42.91-5.91Z"/><path class="c" d="M256.86,811.81c-1.9,0-3,0-3,0l-7.69-.27,5.84-5c.68-.59,17-14.46,37.11-21a66.3,66.3,0,0,1,20.2-3.56c8.59,0,15.25,2.51,17.38,6.54A5.23,5.23,0,0,1,327,793c-1.81,4.45-9.53,7-28.18,13C282.84,811.25,264.15,811.81,256.86,811.81Z"/><path class="b" d="M309.35,785c8.31,0,13.4,2.42,14.73,4.94,2.16,4.1-6.41,6.9-26.17,13.31-15.65,5.09-34.07,5.61-41.05,5.61-1.83,0-2.87,0-2.87,0s16.33-14,36.09-20.41A63.1,63.1,0,0,1,309.35,785m0-6h0a69.24,69.24,0,0,0-21.13,3.71c-20.65,6.71-37.43,21-38.13,21.56l-11.69,10,15.38.53c.05,0,1.17,0,3.08,0,7.44,0,26.5-.57,42.91-5.9,20.16-6.55,27.7-9,30-14.74a8.28,8.28,0,0,0-.42-7.08c-2.69-5.1-10.18-8.14-20-8.14Z"/><path class="d" d="M240.45,803c0-.81-1-20,7.45-36,7.42-14,17.5-23.48,25.1-23.48a7.86,7.86,0,0,1,2.45.38,6.66,6.66,0,0,1,4.21,4c2.1,5.18-.43,14.62-7.53,28.06-8.42,15.93-26.18,28.79-26.94,29.33l-4.43,3.18Z"/><path class="b" d="M273,746.46a4.94,4.94,0,0,1,1.52.23c5.23,1.7,3.14,12.31-5,27.8s-26,28.29-26,28.29-1.07-18.95,7.11-34.44c7.45-14.1,16.88-21.87,22.45-21.88m0-6h0c-8.81,0-19.7,9.85-27.75,25.08-8.86,16.77-7.84,36.74-7.8,37.58l.62,10.9,8.87-6.36c.78-.56,19.1-13.82,27.84-30.37,7.64-14.46,10.14-24.47,7.66-30.59a9.71,9.71,0,0,0-6.06-5.71,10.82,10.82,0,0,0-3.38-.53Z"/><path class="c" d="M235.68,797.38c-.4-.5-9.86-12.34-9.86-24.36,0-14.31,6.13-20.72,12.2-20.72s12.19,6.41,12.19,20.72c0,12-9.46,23.86-9.86,24.36L238,800.27Z"/><path class="b" d="M238,755.3c5.07,0,9.19,6.62,9.19,17.72S238,795.49,238,795.49s-9.2-11.37-9.2-22.47,4.12-17.72,9.2-17.72m0-6c-7.57,0-15.2,7.34-15.2,23.72,0,12.85,9.45,24.91,10.53,26.25L238,805l4.66-5.77c1.08-1.34,10.53-13.4,10.53-26.25,0-16.38-7.63-23.72-15.19-23.72Z"/><path class="c" d="M220.91,803.17c-.77-.15-18.95-3.79-30.74-11.9-6.54-4.49-14.32-11.08-14.32-17a5.83,5.83,0,0,1,2.59-4.93,9.24,9.24,0,0,1,5.28-1.41c5.76,0,14.09,3.45,22.84,9.47,12,8.26,17.47,21.14,17.7,21.68l2.15,5.18Z"/><path class="b" d="M183.72,770.92c4.77,0,12.46,3,21.15,9,11.41,7.84,16.62,20.36,16.62,20.36s-18.21-3.58-29.63-11.43-15.31-14.53-11.72-17a6.3,6.3,0,0,1,3.58-.89m0-6h0a12.08,12.08,0,0,0-7,1.94,8.87,8.87,0,0,0-3.89,7.4c0,5.81,5.25,12.36,15.62,19.49,12.3,8.45,31.07,12.21,31.86,12.36l11,2.16L227,797.92c-.24-.58-6-14.25-18.77-23-9.24-6.35-18.19-10-24.54-10Z"/><path class="d" d="M180.14,820.92c-17.94,0-26.95,0-26.95-6.42,0-6.62,13.18-12.21,28.78-12.21,16.51,0,33.07,6.25,33.77,6.51l7.34,2.8-7.34,2.81c-.7.26-17.26,6.51-33.77,6.51Z"/><path class="b" d="M182,805.29c16.14,0,32.7,6.31,32.7,6.31s-16.56,6.32-32.7,6.32h-1.81c-15.06,0-24-.06-24-3.42s9.63-9.21,25.78-9.21m0-6c-18.12,0-31.78,6.54-31.78,15.21a8.15,8.15,0,0,0,5.18,7.43,21.69,21.69,0,0,0,6.53,1.51c4.25.45,10,.48,18.26.48H182c17.05,0,34.12-6.44,34.84-6.71l14.68-5.61L216.81,806c-.72-.28-17.79-6.71-34.84-6.71Z"/><path class="c" d="M183,856.54a7.72,7.72,0,0,1-4.48-1.24,6,6,0,0,1-2.59-5.14c0-5.26,5.36-12.08,14.32-18.24,11.79-8.11,30-11.75,30.74-11.9l5.5-1.08-2.15,5.18c-.22.54-5.68,13.42-17.69,21.68C199.5,850.7,189.6,856.54,183,856.54Z"/><path class="b" d="M221.55,823s-5.2,12.52-16.62,20.36c-9.19,6.32-17.27,10.22-22,10.22a4.88,4.88,0,0,1-2.78-.71c-3.59-2.47.31-10.59,11.73-18.44S221.55,823,221.55,823m9.85-8.05-11,2.17c-.79.15-19.56,3.91-31.86,12.36-9.92,6.83-15.62,14.38-15.62,20.72a9.06,9.06,0,0,0,3.9,7.62,10.67,10.67,0,0,0,6.17,1.76c5.93,0,14.46-3.79,25.35-11.27,12.73-8.75,18.52-22.42,18.76-23l4.31-10.36Z"/><path class="d" d="M238.11,872.29c-7.4,0-13.65-10.15-13.65-22.16s11-24,11.46-24.53l2.19-2.34,2.19,2.34c.47.5,11.45,12.38,11.45,24.53S245.5,872.29,238.11,872.29Z"/><path class="b" d="M238.11,827.65s10.64,11.38,10.64,22.48-5.57,19.16-10.64,19.16-10.64-8.07-10.64-19.16,10.64-22.48,10.64-22.48m0-8.78-4.38,4.68c-1.26,1.34-12.26,13.49-12.26,26.58,0,13.87,7.46,25.16,16.64,25.16s16.64-11.29,16.64-25.16c0-13.09-11-25.24-12.26-26.58l-4.38-4.68Z"/><path class="c" d="M293.21,856.5c-6.62,0-16.52-5.84-23.65-10.75-12-8.25-17.47-21.13-17.69-21.68l-2.16-5.17,5.5,1.08c.77.15,19,3.79,30.75,11.89,9,6.16,14.31,13,14.31,18.25a6,6,0,0,1-2.59,5.14A7.74,7.74,0,0,1,293.21,856.5Z"/><path class="b" d="M254.64,822.92s18.2,3.58,29.62,11.42,15.31,16,11.72,18.45a4.83,4.83,0,0,1-2.77.71c-4.68,0-12.76-3.91-21.95-10.22-11.42-7.85-16.62-20.36-16.62-20.36m-9.85-8,4.31,10.35c.24.58,6,14.25,18.76,23,10.88,7.49,19.41,11.28,25.35,11.28a10.6,10.6,0,0,0,6.17-1.77,9,9,0,0,0,3.89-7.61c0-6.35-5.69-13.9-15.61-20.72-12.3-8.45-31.07-12.21-31.87-12.37l-11-2.16Z"/><path class="d" d="M294.16,820.86c-16.51,0-33.08-6.25-33.77-6.52l-7.35-2.8,7.35-2.8c.69-.27,17.26-6.52,33.77-6.52,15.59,0,28.77,5.6,28.77,12.22,0,6.42-9,6.42-27,6.42Z"/><path class="b" d="M294.16,805.22c16.14,0,25.77,5.73,25.77,9.22s-8.91,3.42-24,3.42h-1.81c-16.15,0-32.7-6.32-32.7-6.32s16.55-6.32,32.7-6.32m0-6c-17.06,0-34.13,6.44-34.84,6.72l-14.69,5.6,14.69,5.61c.71.27,17.78,6.71,34.84,6.71H296c8.26,0,14,0,18.26-.48a21.62,21.62,0,0,0,6.52-1.51,8.15,8.15,0,0,0,5.18-7.43c0-8.67-13.66-15.22-31.77-15.22Z"/><path class="d" d="M251.8,799c.23-.54,5.68-13.43,17.7-21.68,8.75-6,17.08-9.47,22.84-9.47a9.16,9.16,0,0,1,5.28,1.41,5.83,5.83,0,0,1,2.59,4.93c0,5.93-7.79,12.52-14.32,17-11.79,8.1-30,11.74-30.74,11.89l-5.5,1.09Z"/><path class="b" d="M292.34,770.88a6.3,6.3,0,0,1,3.58.88c3.59,2.47-.31,9.15-11.72,17s-29.63,11.42-29.63,11.42,5.21-12.51,16.62-20.36c8.69-6,16.38-8.94,21.15-8.94m0-6h0c-6.35,0-15.3,3.64-24.54,10-12.74,8.75-18.53,22.42-18.77,23l-4.3,10.35,11-2.16c.79-.16,19.56-3.91,31.86-12.37,10.37-7.12,15.62-13.67,15.62-19.48a8.87,8.87,0,0,0-3.89-7.4,12.07,12.07,0,0,0-7-1.94Z"/><ellipse class="d" cx="238.02" cy="808.18" rx="19.02" ry="11.17"/><path class="b" d="M238,800c8.85,0,16,3.66,16,8.17s-7.17,8.17-16,8.17-16-3.65-16-8.17,7.18-8.17,16-8.17m0-6c-12.76,0-22,6-22,14.17s9.27,14.17,22,14.17,22-6,22-14.17S250.78,794,238,794Z"/><path class="d" d="M77.9,841.54c-.45-.47-11.14-11.76-14.92-24-3.22-10.43-3.7-17.5-1.44-21a5.65,5.65,0,0,1,4.06-2.6,6.53,6.53,0,0,1,.78,0c5.84,0,12.47,8.28,16.13,20.13,3.82,12.36.61,25.63.47,26.19l-1.31,5.3Z"/><path class="b" d="M66.38,796.87c3.83,0,9.77,6.7,13.27,18,3.61,11.71.42,24.59.42,24.59s-10.61-11.11-14.22-22.82-3.68-19.27.13-19.76l.4,0m0-6h0a8.92,8.92,0,0,0-1.16.07,8.59,8.59,0,0,0-6.2,4c-3.74,5.81-1.16,16.21,1.09,23.52,4,12.91,15.15,24.7,15.62,25.19l7.54,7.9,2.62-10.6c.15-.59,3.55-14.65-.51-27.8-4.17-13.51-11.63-22.24-19-22.24Z"/><path class="c" d="M71.59,845.19c-.7-.11-17.39-2.72-30.45-9.86-12.65-6.92-17.38-9.5-18.13-13.21a4.61,4.61,0,0,1,1-3.83c1.57-2,4.64-3.07,8.64-3.07,3.81,0,10.15,1,18.71,5.67,13.12,7.17,22.65,19,23,19.46l4.82,6Z"/><path class="b" d="M32.62,818.22c4.17,0,10.1,1.38,17.27,5.3,12.74,7,22.15,18.7,22.15,18.7s-16.72-2.55-29.46-9.52-18.27-10-16.25-12.54c.88-1.11,3.06-1.94,6.29-1.94m0-6h0c-4.93,0-8.83,1.49-11,4.2a7.59,7.59,0,0,0-1.56,6.29c1,5.08,6.09,7.85,19.63,15.25S70.41,848,71.14,848.16l15.22,2.32-9.64-12c-.41-.52-10.31-12.75-23.95-20.21-9.12-5-16-6-20.15-6Z"/><path class="d" d="M23.92,862.61c-1.75,0-6.41,0-7.58-3.8a6,6,0,0,1,1-5.11c2.46-3.83,9.79-8.87,22.33-10.48a71.83,71.83,0,0,1,9.11-.55,115.73,115.73,0,0,1,22.84,2.46l7.51,1.69-6.67,3.83c-.55.32-13.73,7.82-28.56,9.73l-6,.79A119.1,119.1,0,0,1,23.92,862.61Z"/><path class="b" d="M48.76,845.68a114.51,114.51,0,0,1,22.18,2.37s-13,7.5-27.44,9.35c-8.72,1.12-15.43,2.21-19.58,2.21-2.72,0-4.34-.46-4.72-1.69-.95-3.09,6.43-9.88,20.84-11.73a68.71,68.71,0,0,1,8.72-.51m0-6h0a76.09,76.09,0,0,0-9.49.56c-11.33,1.45-20.71,6-24.48,11.84a9,9,0,0,0-1.32,7.61c1.21,3.93,4.73,5.92,10.45,5.92a123.33,123.33,0,0,0,14.35-1.46l6-.8c15.42-2,29.1-9.76,29.68-10.1l13.34-7.67-15-3.38a120.15,120.15,0,0,0-23.5-2.52Z"/><path class="c" d="M55.23,890.46a9.27,9.27,0,0,1-4.52-1.2,7.21,7.21,0,0,1-3.92-5c-.74-3.62,1.22-8.1,6.35-14.53,8-10,22-16.65,22.63-16.93l5-2.3L80,855.92c-.07.57-1.92,14.11-10,24.23C64.43,887.18,59.73,890.46,55.23,890.46Z"/><path class="b" d="M77,855.53s-1.72,13.17-9.35,22.75c-5.53,7-9.44,9.18-12.46,9.18a6.27,6.27,0,0,1-3.08-.83c-3.37-1.84-4.3-5.44,3.33-15S77,855.53,77,855.53m7.36-10-9.89,4.61c-.63.29-15.31,7.21-23.72,17.78-5.72,7.19-7.87,12.43-6.95,17a10.21,10.21,0,0,0,5.43,7,12.39,12.39,0,0,0,6,1.56c5.49,0,10.94-3.64,17.15-11.44C81,871.25,82.91,856.92,83,856.31l1.41-10.83Z"/><path class="d" d="M95.39,898c-7.65,0-11.29-8.92-13.36-15.62-3.82-12.36-.61-25.64-.47-26.2l1.31-5.29,3.77,3.94c.46.48,11.14,11.77,14.92,24,2.43,7.86,2.62,12.74.62,15.85a7.25,7.25,0,0,1-5.47,3.22A10,10,0,0,1,95.39,898Z"/><path class="b" d="M84.47,856.94s10.61,11.11,14.22,22.82,1.45,14.72-2.36,15.21a7.54,7.54,0,0,1-.94.06c-3.53,0-7.17-2.76-10.49-13.5-3.62-11.71-.43-24.59-.43-24.59m-3.19-12.05-2.63,10.6c-.15.59-3.55,14.66.51,27.81C81.51,890.91,85.75,901,95.39,901a14.12,14.12,0,0,0,1.7-.11,10.17,10.17,0,0,0,7.61-4.58c2.52-3.91,2.44-9.58-.27-18.36-4-12.9-15.14-24.69-15.62-25.19l-7.53-7.9Z"/><path class="c" d="M135.8,883.91c-3.5,0-8.55-2.81-16.91-7.45-1.65-.92-3.42-1.91-5.3-2.93-13.12-7.18-22.66-19-23.06-19.46l-4.81-6,7.61,1.16c.7.11,17.39,2.72,30.45,9.86,11.09,6.07,16.08,13.44,17,17.9a6,6,0,0,1-.95,5.12A4.92,4.92,0,0,1,135.8,883.91Z"/><path class="b" d="M92.87,852.19s16.72,2.56,29.47,9.52,17.14,16,15.12,18.52a2,2,0,0,1-1.66.68c-3.32,0-10.35-4.32-20.77-10-12.75-7-22.16-18.7-22.16-18.7m-14.31-8.26,9.63,12c.42.52,10.32,12.76,24,20.22,1.87,1,3.64,2,5.29,2.92,9.08,5,14.08,7.83,18.36,7.83a8,8,0,0,0,6.36-2.94,9.06,9.06,0,0,0,1.54-7.58c-1.37-6.81-8.46-14.45-18.48-19.94-13.52-7.39-30.71-10.08-31.44-10.19l-15.22-2.33Z"/><path class="c" d="M116.16,851.74a116.15,116.15,0,0,1-22.84-2.45l-7.51-1.69,6.67-3.84c.55-.32,13.73-7.82,28.56-9.72a55.72,55.72,0,0,1,7.14-.48c11.6,0,18,4,19.27,8a4.6,4.6,0,0,1-.49,3.92c-2,3.18-7.4,3.86-21.7,5.7A71.63,71.63,0,0,1,116.16,851.74Z"/><path class="b" d="M128.18,836.56c10.1,0,15.61,3.34,16.41,5.91.95,3.09-5.3,3.9-19.71,5.75a68.72,68.72,0,0,1-8.72.52A114.22,114.22,0,0,1,94,846.36s13-7.5,27.45-9.35a53.81,53.81,0,0,1,6.76-.45m0-6v0h0a59.82,59.82,0,0,0-7.52.5c-15.42,2-29.1,9.77-29.68,10.1l-13.34,7.68,15,3.37a118.74,118.74,0,0,0,23.5,2.53,74.26,74.26,0,0,0,9.49-.57c15.3-2,21-2.69,23.83-7a7.55,7.55,0,0,0,.84-6.42c-1.9-6.16-10.59-10.14-22.14-10.14Z"/><path class="d" d="M84.53,840.48c.07-.57,1.92-14.1,10-24.22,6.45-8.11,14.18-13.34,19.69-13.34a7,7,0,0,1,3.37.8,5.63,5.63,0,0,1,2.83,3.9c.83,4.11-2.2,10.52-9,19-8,10-22,16.64-22.64,16.92l-5,2.31Z"/><path class="b" d="M114.2,805.92a4,4,0,0,1,1.93.43c3.37,1.85.56,8.87-7.07,18.45S87.5,840.87,87.5,840.87s1.72-13.16,9.35-22.74c6.43-8.08,13.32-12.21,17.35-12.21m0-6h0c-6.49,0-14.93,5.54-22,14.47-8.57,10.76-10.53,25.1-10.61,25.7l-1.41,10.83,9.9-4.61c.62-.29,15.3-7.2,23.71-17.77,10-12.51,10.24-18.27,9.59-21.51a8.57,8.57,0,0,0-4.33-5.94,9.87,9.87,0,0,0-4.81-1.17Z"/><path class="c" d="M82.08,836.58c-.22-.4-5.33-10-3.72-18.61,1.58-8.33,5.72-13.5,10.82-13.5a7.07,7.07,0,0,1,1.3.12c2.83.54,5.07,2.76,6.16,6.09a22.23,22.23,0,0,1,.26,10.78c-1.62,8.57-9.89,15.69-10.24,16l-2.83,2.4Z"/><path class="b" d="M89.18,807.47a3.81,3.81,0,0,1,.75.07c3.49.66,5.46,5.74,4,13.37s-9.23,14.25-9.23,14.25-4.85-9-3.41-16.64c1.34-7.08,4.62-11,7.87-11m0-6h0c-5.2,0-11.55,4.19-13.76,15.94-1.78,9.44,3.41,19.48,4,20.59L83,844.54l5.65-4.81c1-.82,9.46-8.27,11.24-17.71,2.36-12.48-2.72-19.23-8.8-20.37a9.69,9.69,0,0,0-1.86-.18Z"/><path class="c" d="M71.63,839.06c-.51-.21-12.71-5.14-19.89-12.37-4.06-4.08-8.72-9.89-7.88-14.34a4.93,4.93,0,0,1,2.94-3.71,6.35,6.35,0,0,1,2.62-.52c4.28,0,10.51,3.69,16.67,9.89a39.07,39.07,0,0,1,9.59,17.64l1.16,5.49Z"/><path class="b" d="M49.42,811.12c3.21,0,8.69,3.12,14.54,9a36.19,36.19,0,0,1,8.78,16.15s-12-4.82-18.87-11.69-8.64-12-5.86-13.2a3.41,3.41,0,0,1,1.41-.26m0-6a9.46,9.46,0,0,0-3.83.77,8,8,0,0,0-4.68,5.9c-.88,4.67,2,10.24,8.7,17,7.62,7.66,20.37,12.82,20.91,13L80.93,846l-2.31-11c-.1-.45-2.42-11.1-10.4-19.14-4-4-11.76-10.77-18.8-10.77Z"/><path class="d" d="M53.93,847.21a61.21,61.21,0,0,1-11.19-1l-.65-.12c-5.46-1-9.77-1.85-12.79-2.73-1.74-.52-7-2.08-6.23-6.35.71-3.76,6.29-6.19,14.21-6.19a44.14,44.14,0,0,1,8.21.81c11.5,2.17,22.21,8.69,22.66,9l6.7,4.12-7.74,1.39A82.5,82.5,0,0,1,53.93,847.21Z"/><path class="b" d="M37.28,833.87a42.23,42.23,0,0,1,7.65.75c11.1,2.1,21.65,8.59,21.65,8.59a79.93,79.93,0,0,1-12.65,1,58.65,58.65,0,0,1-10.64-.9C32.19,841.22,25.57,840,26,837.62c.34-1.79,4.53-3.75,11.26-3.75m0-6h0c-9.58,0-16.15,3.31-17.16,8.64a7.49,7.49,0,0,0,3.44,7.66,17.52,17.52,0,0,0,4.9,2.11c3.16.94,7.54,1.76,13.09,2.81l.63.12a64.68,64.68,0,0,0,11.75,1,84.82,84.82,0,0,0,13.72-1.1l15.47-2.79-13.4-8.23c-.47-.28-11.63-7.09-23.68-9.36a47.31,47.31,0,0,0-8.76-.86Z"/><path class="c" d="M40.86,871.05a7.37,7.37,0,0,1-5.43-1.86,5.13,5.13,0,0,1-1.37-4.68c.74-3.91,5.5-8.15,12.73-11.34,9.33-4.11,22.47-4.26,23-4.26l5.6,0-3.07,4.69A39.11,39.11,0,0,1,57,866.49C52.28,868.57,45.66,871.05,40.86,871.05Z"/><path class="b" d="M69.84,851.91a36.2,36.2,0,0,1-14.06,11.83c-6.15,2.72-11.5,4.31-14.92,4.31a4.63,4.63,0,0,1-3.31-1c-2.14-2.16,1.59-7.24,10.45-11.15s21.84-4,21.84-4M81,845.82l-11.21.09c-.59,0-14.33.15-24.22,4.52C37.32,854.07,32.05,859,31.12,864a8.1,8.1,0,0,0,2.18,7.34,10.23,10.23,0,0,0,7.56,2.75c4.27,0,10.11-1.62,17.34-4.82a42.35,42.35,0,0,0,16.66-14L81,845.82Z"/><path class="d" d="M75.87,889a6.89,6.89,0,0,1-1.21-.11c-5.66-1.07-8.9-9.17-7.22-18.06,1.64-8.69,11-15.64,11.4-15.93L81.43,853l1.71,2.71c.27.41,6.46,10.29,4.82,19C86.42,882.8,81.22,889,75.87,889Z"/><path class="b" d="M80.61,857.27s5.84,9.2,4.4,16.83C83.66,881.26,79.28,886,75.87,886a3.6,3.6,0,0,1-.66-.06c-3.49-.66-6.26-6.92-4.83-14.55s10.23-14.07,10.23-14.07m1.63-8.63-5.18,3.79c-1.09.81-10.75,8.12-12.57,17.8a25.08,25.08,0,0,0,.83,13.06c1.7,4.67,4.9,7.76,8.78,8.49a9.48,9.48,0,0,0,1.77.17c6.88,0,13.21-7,15-16.74s-4.51-20-5.23-21.15l-3.44-5.42Z"/><path class="c" d="M116,885.27c-5,0-11.85-5.9-16.76-10.85a39,39,0,0,1-9.59-17.64l-1.16-5.48,5.21,2.08c.51.2,12.71,5.13,19.89,12.36,5.57,5.61,8.46,11.29,7.72,15.2a5.07,5.07,0,0,1-3,3.85A5.66,5.66,0,0,1,116,885.27Z"/><path class="b" d="M92.58,856.16s12,4.82,18.88,11.7,8.46,13,5.67,14.19a2.71,2.71,0,0,1-1.13.22c-3.13,0-8.61-3.9-14.63-10a36.22,36.22,0,0,1-8.79-16.15m-8.18-9.73,2.31,11c.1.45,2.41,11.1,10.4,19.14,11.65,11.73,17.1,11.73,18.89,11.73a8.77,8.77,0,0,0,3.55-.73,8.14,8.14,0,0,0,4.71-6c.93-5-2.18-11.47-8.54-17.87-7.62-7.67-20.37-12.82-20.91-13L84.4,846.43Z"/><path class="d" d="M135.44,863.09c-3.22,0-8.15-.93-15-2.21l-.64-.12c-11.5-2.17-22.21-8.7-22.66-9l-6.7-4.11,7.73-1.39a80.82,80.82,0,0,1,13.19-1.06,60.3,60.3,0,0,1,11.19,1,37,37,0,0,1,13.7,5.17c3.85,2.56,5.71,5.4,5.21,8C141.18,861.06,139.87,863.09,135.44,863.09Z"/><path class="b" d="M111.4,848.22a58.65,58.65,0,0,1,10.64.9c11.09,2.1,17,7.28,16.52,9.68-.18.92-1.25,1.29-3.12,1.29-3,0-8.18-1-15-2.28-11.1-2.09-21.65-8.58-21.65-8.58a79.16,79.16,0,0,1,12.65-1m0-6h0a86.18,86.18,0,0,0-13.72,1.1l-15.47,2.79,13.39,8.23c.47.29,11.64,7.09,23.69,9.37l.63.11c7,1.32,12,2.27,15.52,2.27a11.62,11.62,0,0,0,4.42-.73,7.27,7.27,0,0,0,4.59-5.45c.42-2.24.14-6.65-6.5-11.06a40.13,40.13,0,0,0-14.8-5.62,63.76,63.76,0,0,0-11.75-1Z"/><path class="d" d="M93,838.88A39,39,0,0,1,108.34,826c5.6-2.47,10.88-3.83,14.87-3.83,2.91,0,5.1.71,6.5,2.12a5,5,0,0,1,1.39,4.53c-.84,4.46-7.29,8.17-12.56,10.49-9.33,4.12-22.47,4.26-23,4.27l-5.61,0Z"/><path class="b" d="M123.21,825.11c2.05,0,3.56.43,4.38,1.25,2.14,2.16-1.4,6.24-10.26,10.16s-21.84,4-21.84,4a36.18,36.18,0,0,1,14.06-11.84c5.51-2.43,10.31-3.58,13.66-3.58m0-6h0c-4.46,0-10,1.42-16.08,4.09a42.34,42.34,0,0,0-16.66,14l-6.15,9.37,11.21-.08c.58,0,14.33-.16,24.22-4.52,8.74-3.86,13.42-8,14.3-12.68a8,8,0,0,0-2.21-7.2c-2-2-4.89-3-8.63-3Z"/><path class="d" d="M85.9,852.87a24.16,24.16,0,0,1-4.44-.42c-8-1.51-13.27-6.32-12.35-11.2.73-3.86,5.1-6.36,11.14-6.36a24.27,24.27,0,0,1,4.44.43A20.81,20.81,0,0,1,93.44,839c2.78,2.14,4.09,4.88,3.59,7.5C96.3,850.38,91.93,852.87,85.9,852.87Z"/><path class="b" d="M80.25,837.89a20.46,20.46,0,0,1,3.88.38c6.08,1.14,10.54,4.59,10,7.69-.45,2.41-3.83,3.91-8.18,3.91A21.46,21.46,0,0,1,82,849.5c-6.08-1.15-10.53-4.59-10-7.7.46-2.41,3.84-3.91,8.19-3.91m0-6h0c-7.55,0-13.08,3.46-14.09,8.8-1.25,6.67,4.94,12.86,14.74,14.7a26.78,26.78,0,0,0,5,.48c7.54,0,13.07-3.45,14.08-8.8,1.26-6.67-4.94-12.85-14.74-14.7a26.75,26.75,0,0,0-5-.48Z"/><path class="d" d="M331.93,178.3c-10,0-17.5-4.47-17.5-10.39s7.52-10.4,17.5-10.4,17.51,4.47,17.51,10.4S341.91,178.3,331.93,178.3Z"/><path class="b" d="M331.93,160.51c8,0,14.51,3.31,14.51,7.4s-6.5,7.39-14.51,7.39-14.5-3.31-14.5-7.39,6.49-7.4,14.5-7.4m0-6c-11.88,0-20.5,5.63-20.5,13.4s8.62,13.39,20.5,13.39,20.51-5.63,20.51-13.39-8.63-13.4-20.51-13.4Z"/></svg>