<svg xmlns="http://www.w3.org/2000/svg" width="510" height="900" viewBox="0 0 510 900"><defs><style>.a,.e,.f{fill:#59624a;}.b{fill:#432d1e;}.c{fill:#c9685a;}.d{fill:#e0bd88;}.e,.f{stroke:#432d1e;stroke-linejoin:round;}.e{stroke-width:8px;}.f{stroke-width:7px;}</style></defs><title>join_game_large</title><path class="a" d="M90.82,123.36c-15.24,0-30.56-6.84-44.3-19.77A101.14,101.14,0,0,1,30.33,84.07l-2.07-3.45,3.2-2.44C32.22,77.6,50,64.25,68.86,64c-11.13-19-3-39.67,3.91-49l1.15-1.57,1.93-.23a43.88,43.88,0,0,1,4.7-.22c7.91,0,22.74,1.62,33.27,12.45,6.16,6.35,9.82,14.8,10.94,25.21a34.69,34.69,0,0,1,17.16-4.11,64.86,64.86,0,0,1,23.24,4.82l2.61,1.13.09,2.85c0,1.28.85,31.53-12.06,44.86a20.32,20.32,0,0,1-15.09,6.46h0a27,27,0,0,1-7-1C119.66,117.4,105.24,123.36,90.82,123.36Z"/><path class="b" d="M80.55,17.44c11.22,0,41.16,3.62,40,42.34C126.29,53,134.34,51,141.92,51a60.71,60.71,0,0,1,21.44,4.44s1.49,46.68-22.66,46.68a24.65,24.65,0,0,1-8-1.49c-15.24,13.35-29.35,18.24-41.85,18.24-34.41,0-56.63-37.1-56.63-37.1S51.62,68.49,69.41,68.49A30.58,30.58,0,0,1,79.21,70c-23.81-24-2.82-52.39-2.82-52.39a38.79,38.79,0,0,1,4.16-.19m0-9h0a43.87,43.87,0,0,0-5.23.26l-3.86.46-2.31,3.12a59,59,0,0,0-9.06,20.58,45.42,45.42,0,0,0,1.82,27.23c-17.55,2.75-32.46,14-33.17,14.51l-6.41,4.88,4.14,6.9c1,1.7,25.29,41.48,64.35,41.48,14.9,0,29.69-5.83,44-17.34a30.53,30.53,0,0,0,5.84.59A25,25,0,0,0,159,103.27c14-14.42,13.43-44.72,13.32-48.12l-.18-5.7L167,47.18a70.17,70.17,0,0,0-25-5.19,42.35,42.35,0,0,0-13.63,2.12,43.58,43.58,0,0,0-11.24-21.85c-11.68-12-27.88-13.82-36.5-13.82Z"/><path class="b" d="M87.21,35.56a21.29,21.29,0,0,1,4.07,1.6,31.56,31.56,0,0,1,3.63,2.11c1.15.77,2.23,1.6,3.29,2.47.53.43,1,.9,1.51,1.36s1,.91,1.46,1.4a46.57,46.57,0,0,1,9,13.24c.51,1.25,1.1,2.45,1.52,3.73s.86,2.55,1.21,3.86.62,2.63.83,4c.11.67.25,1.33.34,2l.15,2c.06.68.06,1.37.09,2.05s0,1.36,0,2c-.08,1.38-.23,2.77-.41,4.14-.12.69-.2,1.37-.36,2S113.19,85,113,85.7a26.39,26.39,0,0,1-1.56,4l-.9.1-.63-3.67-.32-1.83c-.13-.61-.29-1.21-.43-1.81l-.81-3.63-1-3.57-.52-1.78-.61-1.75c-.42-1.17-.81-2.35-1.25-3.5-1-2.29-1.84-4.6-2.94-6.82a111.34,111.34,0,0,0-6.92-13.15l-2-3.14L91,42.13c-1.39-2-2.86-4.06-4.42-6Z"/><path class="b" d="M59,88.09a10.74,10.74,0,0,1,2.5-2.8c.47-.39,1-.71,1.47-1.06s1-.57,1.55-.86a22,22,0,0,1,3.26-1.27c.55-.17,1.1-.27,1.66-.4a14.41,14.41,0,0,1,1.68-.29,27,27,0,0,1,3.35-.21c1.1,0,2.19.13,3.3.21s2.11.41,3.18.62,2,.62,3.06,1,2,.75,2.91,1.25,1.85,1,2.74,1.55A21.73,21.73,0,0,1,92.2,87.6c.82.64,1.6,1.34,2.36,2.05a33.93,33.93,0,0,1,4,5,24.78,24.78,0,0,1,2.69,6.3l-.52.74-4.77-2.94L91.05,96c-1.68-.78-3.3-1.71-5-2.46S82.67,92,80.91,91.43s-3.5-1.19-5.27-1.72L73,89.09c-.9-.18-1.82-.31-2.72-.48s-1.83-.2-2.74-.31-1.84-.1-2.75-.06a19.25,19.25,0,0,0-5.39.68Z"/><path class="b" d="M128.93,89.08a14,14,0,0,1-1.52-5.45,17.09,17.09,0,0,1,.35-4.94A17.91,17.91,0,0,1,132,70.54a18.16,18.16,0,0,1,7.61-5.14,16,16,0,0,1,10.38-.16l.47.76a77.91,77.91,0,0,0-6.17,4.93,57.21,57.21,0,0,0-5.55,5.57,57.93,57.93,0,0,0-4.86,6.18c-.76,1.07-1.47,2.18-2.15,3.3a37.28,37.28,0,0,0-1.91,3.43Z"/><path class="b" d="M102.37,54.51c-.08.05,0,0,.09,0a.77.77,0,0,0,.24-.06,3.09,3.09,0,0,0,.53-.19,7.35,7.35,0,0,0,1.09-.54,8.06,8.06,0,0,0,1.05-.71,6.64,6.64,0,0,0,1-.87,11.85,11.85,0,0,0,2.82-4.81,20.43,20.43,0,0,0,.84-6.2c-.06-1.07-.13-2.17-.23-3.28l-.56-3.31,1.52,3c.44,1,.84,2.13,1.25,3.22a23.56,23.56,0,0,1,1.14,7.1,17.18,17.18,0,0,1-1.8,7.6,12.78,12.78,0,0,1-1,1.78,15.93,15.93,0,0,1-2.83,3.19,10.82,10.82,0,0,1-.88.7,5.19,5.19,0,0,1-.49.34,4.5,4.5,0,0,1-.65.38Z"/><path class="b" d="M106.4,59.58a4.3,4.3,0,0,1-.76.22c-.22.06-.4.09-.6.13-.39.08-.77.12-1.15.16a16.39,16.39,0,0,1-2.2.09A16.69,16.69,0,0,1,99.55,60a14.17,14.17,0,0,1-2.06-.41,20.08,20.08,0,0,1-7.14-3.53l-1.49-1.21-1.32-1.33-.65-.67-.58-.72-1.14-1.43c-.69-1-1.33-2-2-3l-1.65-3.14L84,47.06c.88.76,1.74,1.53,2.62,2.24l1.39,1,.68.48.73.41,1.44.79,1.49.62a15,15,0,0,0,5.94,1.05,9.35,9.35,0,0,0,1.41-.13,11.1,11.1,0,0,0,1.35-.29,10.61,10.61,0,0,0,1.24-.44,4.7,4.7,0,0,0,.55-.27,1.57,1.57,0,0,0,.23-.13s.16-.11.06-.09Z"/><path class="b" d="M111.16,79.45a8.06,8.06,0,0,1-1.72.14c-.48,0-.91,0-1.36-.07a18,18,0,0,1-2.49-.43c-.8-.17-1.55-.45-2.31-.68s-1.47-.56-2.16-.9a32.35,32.35,0,0,1-7.39-4.88c-1.13-.9-2.11-1.95-3.13-2.92s-1.89-2.09-2.81-3.14-1.72-2.18-2.54-3.29l-2.34-3.4L86,62.6c1,.87,2.13,1.69,3.19,2.52s2.2,1.55,3.33,2.26S94.76,68.76,96,69.3a27.07,27.07,0,0,0,7.11,2.53c.59.13,1.18.17,1.76.26s1.15.09,1.7.06A11.35,11.35,0,0,0,108.1,72c.23,0,.48-.09.68-.15l.28-.09.09,0s0,0,0,0h-.1Z"/><path class="b" d="M111.46,70.77l-.11,0s0,0,0,0l0,0,.15,0a3.22,3.22,0,0,0,.38.05,5.93,5.93,0,0,0,.93,0,9.28,9.28,0,0,0,2.07-.5,14.41,14.41,0,0,0,4.18-2.48,26.32,26.32,0,0,0,3.74-3.79c.54-.73,1.1-1.46,1.64-2.21L126,59.56l-.6,2.76c-.24.92-.52,1.83-.79,2.76a30.56,30.56,0,0,1-2.43,5.41,20.06,20.06,0,0,1-4,5,16.43,16.43,0,0,1-2.87,2,13.45,13.45,0,0,1-1.71.79c-.33.1-.62.22-1,.31l-.54.13-.32,0a.82.82,0,0,1-.18,0l-.29,0Z"/><path class="b" d="M87.25,94.21a6.72,6.72,0,0,1-1,.68c-.3.16-.57.28-.85.42-.56.24-1.1.46-1.64.63a24.2,24.2,0,0,1-3.18.79,29.17,29.17,0,0,1-6.14.36,41.27,41.27,0,0,1-5.83-.66c-1-.19-1.88-.4-2.81-.61L63,95.07l2.81-.24c.93-.13,1.85-.25,2.76-.4a36.19,36.19,0,0,0,5.29-1.31,23.74,23.74,0,0,0,4.72-2.07,15.39,15.39,0,0,0,2-1.36,8.07,8.07,0,0,0,.8-.73c.1-.12.22-.24.3-.35s.23-.29.06-.19Z"/><path class="c" d="M223.63,78c-.55-.41-13.49-10.37-20.2-23.52-3.23-6.33-5.33-12.13-6.07-16.77-1.18-7.46,1.41-10.48,3.79-11.69a6.63,6.63,0,0,1,3.08-.73c7.65,0,15,12.07,18.63,19.27C229.57,57.72,230,74,230.05,74.73Z"/><path class="b" d="M204.23,29.29c3.61,0,9.41,6,15.07,17.09,6.37,12.49,6.75,28.44,6.75,28.44S213.36,65.15,207,52.66s-7.42-21.35-4-23.08a2.66,2.66,0,0,1,1.26-.29m0-8h0a10.75,10.75,0,0,0-4.9,1.16c-2.91,1.49-7.56,5.53-5.92,15.89.8,5,3,11.26,6.45,18,7.13,14,20.77,24.45,21.35,24.89l12.84-6.56c0-.72-.5-17.93-7.63-31.89-5-9.78-12.9-21.45-22.19-21.45Z"/><path class="c" d="M224.57,75c-.34-.59-8.49-14.74-9.66-29.46-1.33-16.72,1.88-26.62,8.79-27.17l.52,0c6.62,0,11.16,9.28,12.44,25.46,1.17,14.73-4.65,30-4.9,30.62Z"/><path class="b" d="M224.22,22.35c3.73,0,7.36,8,8.45,21.78C233.78,58.11,228,73,228,73s-8-13.78-9.13-27.77,1.31-22.56,5.11-22.86h.21m0-8q-.42,0-.84,0c-3.26.26-9.1,2.22-11.55,12.41-1.19,5-1.5,11.56-.91,19.07,1.24,15.61,9.83,30.53,10.2,31.16l14.37-1.14c.26-.68,6.4-16.76,5.16-32.38-1.49-18.8-7.33-29.15-16.43-29.15Z"/><path class="d" d="M229,69.72c-.09-.69-2.21-16.88,2.35-30.92,2.67-8.24,8.36-22.06,16.46-22.06a6.76,6.76,0,0,1,2.05.32c6.6,2.14,7.41,12.51,2.24,28.47-4.55,14-15.77,25.91-16.24,26.41Z"/><path class="b" d="M247.81,20.74a2.81,2.81,0,0,1,.82.12c3.63,1.18,4,10.09-.33,23.43S233,69.18,233,69.18,230.83,53.37,235.15,40c4-12.37,9.06-19.29,12.66-19.29m0-8h0c-10.1,0-16.6,13.5-20.27,24.82-4.83,14.91-2.6,32-2.5,32.69l13.71,4.45c.5-.52,12.32-13,17.16-27.94,2.32-7.16,3.54-13.64,3.54-18.75,0-10.49-5.24-13.75-8.35-14.76a10.77,10.77,0,0,0-3.29-.51Z"/><path class="c" d="M230.9,64.17c.18-.67,4.42-16.44,14-27.67,4.66-5.47,13.56-14.63,20.78-14.63a7,7,0,0,1,4.65,1.63c5.27,4.5,2.06,14.4-8.83,27.16C251.92,61.89,237,68.57,236.39,68.85Z"/><path class="b" d="M265.68,25.87a3,3,0,0,1,2.05.68c2.91,2.47-.17,10.84-9.27,21.51s-23.69,17.13-23.69,17.13,4.07-15.42,13.18-26.1c7.44-8.72,14-13.22,17.73-13.22m0-8h0c-8.38,0-17.58,8.72-23.82,16C231.69,45.82,227.22,62.44,227,63.14l11,9.36c.66-.29,16.37-7.33,26.54-19.25C269.43,47.53,273,42,275,37.29c4-9.7.43-14.71-2.06-16.83a11,11,0,0,0-7.25-2.59Z"/><path class="d" d="M221.69,79.15c-.67-.18-16.43-4.42-27.67-14C188.61,60.53,184.46,56,182,52c-3.95-6.45-2.71-10.23-1-12.26a7.3,7.3,0,0,1,5.83-2.46c7,0,16.38,7.07,21.32,11.29,11.24,9.58,17.91,24.48,18.19,25.11Z"/><path class="b" d="M186.86,41.26c3.88,0,10.64,3.44,18.73,10.33,10.67,9.1,17.12,23.69,17.12,23.69s-15.42-4.07-26.09-13.18-15-16.88-12.55-19.78a3.48,3.48,0,0,1,2.79-1.06m0-8h0A11.42,11.42,0,0,0,178,37.12c-2.12,2.5-4.87,8,.61,17,2.67,4.35,7.11,9.24,12.84,14.12C203.35,78.36,220,82.83,220.67,83L230,72c-.3-.66-7.33-16.37-19.25-26.54-6.55-5.58-16-12.24-23.92-12.24Z"/><path class="c" d="M206.59,81.77a68.33,68.33,0,0,1-20.92-2.91c-6.76-2.19-12.34-4.81-16.14-7.57-6.12-4.44-6.42-8.4-5.6-11s3.41-5.58,11-5.58c4.69,0,10.74,1.16,17.49,3.35,14,4.55,25.92,15.77,26.42,16.24l-2.23,6.86A83.09,83.09,0,0,1,206.59,81.77Z"/><path class="b" d="M174.91,58.76c4,0,9.6,1,16.26,3.15,13.34,4.33,24.89,15.34,24.89,15.34a79.49,79.49,0,0,1-9.47.52,66,66,0,0,1-19.69-2.71c-13.34-4.33-20.34-9.85-19.16-13.48.59-1.82,3.12-2.82,7.17-2.82m0-8h0c-10.5,0-13.77,5.23-14.78,8.35s-1.44,9.26,7.05,15.42c4.13,3,10.1,5.82,17.26,8.14a72.25,72.25,0,0,0,22.15,3.1,85,85,0,0,0,10.54-.6l4.45-13.71c-.53-.51-13-12.33-28-17.16C186.49,52,180,50.76,174.91,50.76Z"/><path class="d" d="M177,90.22c-12.67,0-19.91-3.22-20.37-9.07-.21-2.67,1-6.46,8-9.35,4.34-1.81,10.37-3,17.46-3.62,1.29-.1,2.64-.15,4-.15,13.37,0,26.07,4.85,26.6,5l.57,7.19c-.59.35-14.74,8.5-29.46,9.66C181.4,90.12,179.11,90.22,177,90.22Z"/><path class="b" d="M186.06,72c12.78,0,25.16,4.78,25.16,4.78s-13.79,8-27.77,9.14c-2.31.18-4.48.27-6.48.27-10.11,0-16.13-2.22-16.38-5.39-.31-3.8,7.79-7.55,21.77-8.66,1.23-.1,2.46-.14,3.7-.14m0-8h0c-1.48,0-2.94.06-4.33.17-7.51.59-14,1.94-18.68,3.9-9.69,4-10.7,10.1-10.44,13.36.23,2.87,1.82,8.09,9.9,10.83A45.94,45.94,0,0,0,177,94.22c2.25,0,4.64-.1,7.11-.3,15.62-1.24,30.54-9.83,31.16-10.19L214.1,69.35c-.56-.21-13.93-5.32-28-5.32Z"/><path class="e" d="M237.52,98.37l11.73-43.43S227,60.57,220.22,64s-24.75,18.36-24.75,18.36Z"/><path class="f" d="M253.76,153.65,286.57,188l24.7,7.28c5.12,1.51,9.88-4.3,9.88-12v-.06c0-6.28-3.19-11.55-7.41-12.2l-18-2.8a14.58,14.58,0,0,1-7.47-3.72l-20.06-18a19.17,19.17,0,0,1-4.77-7.13l-19.9-49.66c-1.62-4-4.64-6.34-7.79-6h0c-6.38.78-9.77,11.54-6.09,19.3Z"/><path class="f" d="M395.8,209.33l37-26.15,27.89-5.54a9.34,9.34,0,0,1,11.17,9.16v0a9.35,9.35,0,0,1-8.37,9.29l-20.32,2.13a20.38,20.38,0,0,0-8.43,2.83l-22.66,13.74C409.91,216.18,395.8,209.33,395.8,209.33Z"/><path class="f" d="M253.18,209.36l45,5.29,27.15-8.44a9.34,9.34,0,0,0,5.44-13.38l0,0A9.34,9.34,0,0,0,319,188.62l-18.87,7.83a20.36,20.36,0,0,1-8.76,1.53l-26.46-1.26a15.74,15.74,0,0,1-7.32-2.2L219.77,172a9.35,9.35,0,0,0-9.9.22h0a9.33,9.33,0,0,0,1,16.18Z"/><path class="f" d="M433.9,166.53,471,192.68l27.89,5.54A9.34,9.34,0,0,0,510,189.06V189a9.34,9.34,0,0,0-8.37-9.29l-20.32-2.13a20.43,20.43,0,0,1-8.43-2.83L450.23,161a15.8,15.8,0,0,1-5.38-5.43l-22.48-37.81a9.34,9.34,0,0,0-8.79-4.54h0a9.34,9.34,0,0,0-6.88,14.69Z"/><path class="c" d="M123.61,780.08c-.39-.46-9.41-11.38-12.55-23.81a52,52,0,0,1-1.89-15.4c.46-6.82,3.43-9,5.84-9.58a6.05,6.05,0,0,1,1.53-.19c7.55,0,11.89,12.72,13.8,20.3,3.14,12.43.38,26.33.26,26.91Z"/><path class="b" d="M116.54,735.1c3.12,0,7.14,6.25,9.92,17.28,3,11.69.22,25.13.22,25.13s-8.79-10.53-11.74-22.22-2.13-19.32,1-20.12a2,2,0,0,1,.55-.07m0-8a10.09,10.09,0,0,0-2.51.31c-7.31,1.85-8.62,9.84-8.85,13.2a55.76,55.76,0,0,0,2,16.63c3.36,13.31,12.95,24.91,13.35,25.4l14-3.53c.12-.62,3.06-15.38-.3-28.69-2.69-10.64-7.94-23.32-17.68-23.32Z"/><path class="c" d="M124.87,777.55c-.18-.57-4.34-14.11-2.48-26.8,1.18-8.08,4.35-21.63,12.3-21.63a5.46,5.46,0,0,1,.9.07c6.25.91,8.61,9.82,6.47,24.44-1.86,12.69-9.73,24.47-10.06,25Z"/><path class="b" d="M134.69,733.12l.32,0c3.25.48,4.84,8,3.09,19.91s-9.42,23.31-9.42,23.31-4.08-13.1-2.33-25c1.69-11.54,5.18-18.21,8.34-18.21m0-8h0c-5.75,0-13.23,4.35-16.26,25-2,13.58,2.43,28,2.62,28.57l14.27,2.09c.35-.52,8.71-13,10.7-26.62a55.75,55.75,0,0,0,.3-16.75c-.57-3.32-2.69-11.14-10.15-12.23a10.53,10.53,0,0,0-1.48-.11Z"/><path class="d" d="M129.57,773.75c.05-.6,1.39-14.7,8-25.71,3.52-5.89,10.41-15.76,17.14-15.76a6.36,6.36,0,0,1,3.31.89c2.14,1.27,4.36,4.19,2.85,10.86a51.69,51.69,0,0,1-6.23,14.2c-6.57,11-18.34,18.88-18.84,19.21Z"/><path class="b" d="M154.67,736.28a2.48,2.48,0,0,1,1.26.32c2.82,1.69,1.42,9.22-4.76,19.58s-17.62,17.93-17.62,17.93,1.23-13.66,7.42-24c5.37-9,10.58-13.81,13.7-13.81m0-8h0c-6.64,0-13.56,6-20.57,17.71s-8.46,26.76-8.52,27.4L138,780.78c.52-.35,13-8.71,20.07-20.5a55.9,55.9,0,0,0,6.69-15.37c.74-3.27,1.78-11.31-4.7-15.17a10.4,10.4,0,0,0-5.36-1.46Z"/><path class="d" d="M121.93,780.8c-.53-.28-13-6.91-20.7-17.2-8.83-11.85-11-20.81-5.91-24.58a6.51,6.51,0,0,1,3.94-1.27c6.53,0,14,8.76,17.92,14,7.65,10.29,10.42,24.18,10.53,24.76Z"/><path class="b" d="M99.26,741.75c3.17,0,8.66,4.25,14.71,12.37,7.2,9.67,9.82,23.14,9.82,23.14s-12.15-6.37-19.35-16-9.37-17-6.73-19a2.49,2.49,0,0,1,1.55-.48m0-8a10.52,10.52,0,0,0-6.33,2.06c-2.5,1.86-6.24,6.36-3.13,15.58A56,56,0,0,0,98,766c8.2,11,21.49,18.06,22,18.35l11.57-8.61c-.12-.62-3.06-15.38-11.26-26.39-7.7-10.34-14.8-15.59-21.12-15.59Z"/><path class="c" d="M117.47,781.61c-.59-.05-14.69-1.39-25.7-8-12.69-7.57-18.11-15-14.87-20.45.74-1.25,2.62-3.34,6.85-3.34,4.48,0,10.94,2.38,18.2,6.72,11,6.57,18.89,18.35,19.22,18.84Z"/><path class="b" d="M83.75,753.86c3.49,0,9.18,2,16.16,6.15,10.35,6.18,17.92,17.62,17.92,17.62s-13.66-1.23-24-7.42-15.17-12.15-13.49-15c.55-.92,1.72-1.39,3.42-1.39m0-8h0c-6.21,0-9.11,3.31-10.29,5.29-3.86,6.47.86,13.05,3.07,15.58a55.47,55.47,0,0,0,13.19,10.35c11.78,7,26.76,8.46,27.39,8.52l7.39-12.38c-.35-.53-8.71-13-20.49-20.08-5.57-3.32-13.61-7.28-20.26-7.28Z"/><path class="e" d="M131.79,799.45l18.14-34.16s-19.73.46-26.08,2.05S99.6,778,99.6,778Z"/><path class="a" d="M222.36,870c.39-4.09,4.28-7.06,9.25-7.06a12.41,12.41,0,0,1,1.49.09,9.92,9.92,0,0,1,6.73,3.63,6.84,6.84,0,0,1,1.39,5.14l-4.74,31.67-17.32.1Z"/><path class="b" d="M231.61,866.39a7.79,7.79,0,0,1,1.07.07c3.12.38,5.41,2.53,5.08,4.77l-4.3,28.71L223,900l2.83-29.71c.22-2.28,2.72-3.9,5.77-3.9m0-7h0c-6.81,0-12.17,4.3-12.74,10.23L216,899.34l-.74,7.7,7.75,0,10.45-.06,6,0,.89-5.92,4.3-28.72a10.26,10.26,0,0,0-2.07-7.77,13.39,13.39,0,0,0-9.08-5,15.47,15.47,0,0,0-1.92-.12Z"/><path class="a" d="M.84,930.44a104.85,104.85,0,0,1-20.1-2l-3.47-.75-.08-3.54c-.08-3.32-.34-29.32,11-39.1-4.68-8.52-.58-20-.37-20.61l.43-1.17,1-.78c.41-.33,10.15-8.09,22.48-8.09,7,0,17,2.6,25.59,14.63,11,.45,19.15,4.06,24.24,10.75C70.4,891.51,66,908,65.79,908.68l-.49,1.74-1.54.92a23.85,23.85,0,0,1-11.56,2.88,25.65,25.65,0,0,1-12.53-3.36C34.89,923.55,21.4,930.44.84,930.44Z"/><path class="b" d="M11.67,858.92c7.46,0,15.9,3.33,23.18,14.58,36,0,26.6,34,26.6,34a19.47,19.47,0,0,1-9.24,2.24c-4.34,0-9.77-1.39-15.33-6.37-2.26,18.74-21,22.59-36,22.59a100.88,100.88,0,0,1-19.15-1.88s-.82-33.69,13.37-37.78C-13.16,880.16-8,866-8,866s8.77-7.09,19.65-7.09m0-9h0c-13.67,0-24.16,8.16-25.31,9.09l-1.94,1.57-.86,2.34c-1.87,5.13-3.32,13.64-.75,21.09-4.1,4.74-7,11.81-8.62,21.14a107.81,107.81,0,0,0-1.5,19.13l.17,7.09,6.93,1.49A109.49,109.49,0,0,0,.84,934.94c10.63,0,19.62-1.74,26.72-5.16a32,32,0,0,0,14.28-13,29.33,29.33,0,0,0,10.37,1.9,28.13,28.13,0,0,0,13.86-3.52l3.09-1.85,1-3.47c.55-2,5-19.57-5-32.8-5.59-7.35-14.14-11.51-25.46-12.4-9.41-12.09-20.22-14.76-27.95-14.76Z"/><path class="b" d="M34.87,885.35A100.47,100.47,0,0,1,24.79,895c-3.22,2.7-6.28,5.15-9.39,7.45-.8.55-1.61,1.09-2.35,1.7s-1.56,1.15-2.4,1.67c-1.51,1.21-3.27,2.22-4.9,3.43-.84.58-1.77,1.11-2.66,1.71s-1.79,1.2-2.76,1.8-2,1.22-3,1.85a36.47,36.47,0,0,1-3.45,1.86l-.81-.4,1.54-3a23.84,23.84,0,0,1,1.66-3l1.87-2.83c.63-.94,1.39-1.79,2.08-2.69a55.84,55.84,0,0,1,4.6-5c1.72-1.48,3.37-3.05,5.23-4.36a61.35,61.35,0,0,1,11.73-6.82,55.55,55.55,0,0,1,12.94-4Z"/><path class="b" d="M22,877.14a18.59,18.59,0,0,1-7,1.27,19.17,19.17,0,0,1-5.74-1,20.72,20.72,0,0,1-5-2.5A41.71,41.71,0,0,1-1,870.47l-.05-.59a20.76,20.76,0,0,1,6.15.33,44.65,44.65,0,0,1,5.94,1.54c1.93.65,3.83,1.36,5.7,2.17s3.69,1.7,5.47,2.69Z"/><path class="b" d="M55.49,901.09a18.79,18.79,0,0,1-6.89-1.91,19.33,19.33,0,0,1-4.76-3.36,20.35,20.35,0,0,1-3.44-4.44,40.39,40.39,0,0,1-2.7-6.25l.22-.56a20.74,20.74,0,0,1,5.4,3,46.54,46.54,0,0,1,4.68,4c1.45,1.43,2.86,2.9,4.19,4.44A60.13,60.13,0,0,1,56,900.72Z"/><path class="b" d="M25.11,886.09a6.8,6.8,0,0,1,.65,1.2c.16.35.27.66.41,1a18.84,18.84,0,0,1,.57,1.92,25.27,25.27,0,0,1,.62,3.75,32,32,0,0,1-.26,7.15,44,44,0,0,1-1.53,6.69c-.35,1.07-.74,2.12-1.11,3.17L23.17,914l.31-3.29c0-1.1.1-2.18.11-3.26a40.38,40.38,0,0,0-.49-6.37,26.64,26.64,0,0,0-1.59-5.85,17.91,17.91,0,0,0-1.29-2.51,11.16,11.16,0,0,0-.74-1.07c-.13-.15-.26-.32-.38-.44s-.12-.13-.18-.17l-.07-.05s0,0,0,0l0,.06Z"/><path class="b" d="M10.9,893.7a4.3,4.3,0,0,1,.22.48,3.84,3.84,0,0,1,.14.4,7.32,7.32,0,0,1,.25.75c.15.49.26,1,.38,1.47a24.3,24.3,0,0,1,.43,2.89,24,24,0,0,1-.13,5.63,23.13,23.13,0,0,1-1.38,5.23,25.35,25.35,0,0,1-2.37,4.61,24.15,24.15,0,0,0,.4-5,19.75,19.75,0,0,0-.65-4.71,19,19,0,0,0-1.65-4.22,19.69,19.69,0,0,0-1.14-1.84c-.22-.28-.42-.57-.64-.82a3.7,3.7,0,0,0-.32-.35l-.16-.16s-.1-.1-.1-.05Z"/><path class="b" d="M6.14,899.61a3.7,3.7,0,0,0-.61-.45c-.25-.15-.5-.31-.77-.45a16.64,16.64,0,0,0-1.64-.81,17.33,17.33,0,0,0-3.54-1.11,11.83,11.83,0,0,0-3.76-.07,10,10,0,0,0-3.74,1.49A11.14,11.14,0,0,1-5,894.89,15.13,15.13,0,0,1-.78,892.8,21.34,21.34,0,0,1,3.93,892a21.66,21.66,0,0,1,2.42-.07q.62,0,1.23.06a9.85,9.85,0,0,1,1.36.17Z"/><path class="b" d="M19.13,891.39c.1.07,0,0,0-.06s-.08-.11-.12-.17a4.73,4.73,0,0,0-.31-.38,8.07,8.07,0,0,0-.78-.76A11,11,0,0,0,16,888.7a15.16,15.16,0,0,0-4.84-1.6l-1.34-.17c-.46,0-.91,0-1.38,0a24.43,24.43,0,0,0-2.82.11c-1,.1-1.89.29-2.86.43l-2.86.71,2.49-1.64c.88-.47,1.76-1,2.68-1.42A25.2,25.2,0,0,1,8,883.92c.5-.16,1-.34,1.51-.47L11,883.1a20.6,20.6,0,0,1,6.71-.14,17.49,17.49,0,0,1,3.47.88,16.06,16.06,0,0,1,1.73.74c.28.15.57.3.87.48.15.1.29.17.45.29a4.73,4.73,0,0,1,.56.43Z"/><path class="b" d="M49.25,891.12c-.08,0-.29.12-.45.2s-.35.21-.52.33c-.34.24-.68.5-1,.78a12.82,12.82,0,0,0-1.82,1.86,9.63,9.63,0,0,0-1.34,2.32,7.63,7.63,0,0,0-.5,2.84,8.75,8.75,0,0,1-1.5-2.84,12.84,12.84,0,0,1-.51-3.41,18.06,18.06,0,0,1,.33-3.51,17.8,17.8,0,0,1,.42-1.75c.08-.29.18-.59.28-.88a6.14,6.14,0,0,1,.4-1Z"/><path class="b" d="M9,871.68c.08,0,.15-.27.22-.44s.13-.38.19-.58a12.43,12.43,0,0,0,.29-1.24,14,14,0,0,0,.22-2.6,9.73,9.73,0,0,0-.44-2.64A7.92,7.92,0,0,0,8,861.67a8.79,8.79,0,0,1,3,1.24,12.61,12.61,0,0,1,2.56,2.3,18.28,18.28,0,0,1,2,2.92,17.34,17.34,0,0,1,.79,1.62c.12.27.23.56.35.85a7.43,7.43,0,0,1,.3,1Z"/><path class="b" d="M15.72,873.11a6.74,6.74,0,0,1-.92.53L14,874a17,17,0,0,1-1.68.63,18.14,18.14,0,0,1-3.44.77,12.41,12.41,0,0,1-3.45-.09,8.78,8.78,0,0,1-3-1.13,7.82,7.82,0,0,0,2.76-.85,9.58,9.58,0,0,0,2.13-1.62,13.2,13.2,0,0,0,1.62-2,12.1,12.1,0,0,0,.64-1.1c.1-.18.19-.37.27-.55s.18-.4.14-.47Z"/><path class="a" d="M130.55,806.6c-.75-2.43-3-10.67-.85-14.71a4.63,4.63,0,0,1,2.78-2.36,4.45,4.45,0,0,1,1.25-.18c2,0,5.92,1.58,9,12.15L172.71,903l-12.19,1.42Z"/><path class="b" d="M133.73,792.85c1.58,0,4.07,4.18,5.68,9.64L168.18,900l-5.17.6-29.12-95c-2-6.44-2.15-12.16-.4-12.68h0a.67.67,0,0,1,.24,0m0-7a7.81,7.81,0,0,0-2.25.33,8.23,8.23,0,0,0-4.87,4.06c-2.62,4.91-.75,13,.59,17.38l29.12,95,1.71,5.58,5.79-.67L169,907l8.26-1-2.36-8-28.76-97.51c-2-6.69-5.73-14.66-12.4-14.66Z"/><path class="a" d="M416.32,256.46c-20.57,0-34.06-6.88-38.84-19.57A25.65,25.65,0,0,1,365,240.25h0a23.85,23.85,0,0,1-11.56-2.88l-1.54-.93-.48-1.73c-.19-.7-4.62-17.18,4.29-28.88,5.08-6.69,13.23-10.3,24.23-10.76,8.61-12,18.58-14.63,25.6-14.63,12.32,0,22.07,7.76,22.48,8.09l1,.79.42,1.17c.22.58,4.32,12.09-.37,20.6,11.31,9.78,11.05,35.79,11,39.11l-.08,3.54-3.46.75A105.57,105.57,0,0,1,416.32,256.46Z"/><path class="b" d="M405.49,184.94c10.87,0,19.65,7.09,19.65,7.09s5.17,14.15-3.05,20.28c14.19,4.08,13.38,37.78,13.38,37.78A101.4,101.4,0,0,1,416.32,252c-15,0-33.79-3.85-36-22.58-5.56,5-11,6.37-15.33,6.37a19.53,19.53,0,0,1-9.25-2.24s-9.41-34,26.6-34c7.28-11.24,15.73-14.58,23.19-14.58m0-9c-7.73,0-18.54,2.68-28,14.76-11.32.9-19.87,5.05-25.46,12.4-10.06,13.24-5.58,30.84-5,32.81l1,3.47,3.09,1.85A28.26,28.26,0,0,0,365,244.75a29.54,29.54,0,0,0,10.36-1.9,32,32,0,0,0,14.28,13c7.1,3.43,16.09,5.16,26.73,5.16a111,111,0,0,0,21.05-2.07l6.92-1.5.17-7.08A108.49,108.49,0,0,0,443,231.17q-2.46-14-8.63-21.14c2.57-7.45,1.13-15.95-.75-21.09l-.86-2.34L430.79,185c-1.15-.94-11.64-9.1-25.3-9.1Z"/><path class="b" d="M382.44,210.49a16.8,16.8,0,0,1,3.87-1.26,25.82,25.82,0,0,1,3.87-.51,34.75,34.75,0,0,1,3.82.05c.63,0,1.25.14,1.88.23s1.26.16,1.87.3a34.46,34.46,0,0,1,13.65,6.19,34,34,0,0,1,2.93,2.43c.89.91,1.83,1.77,2.67,2.72s1.6,2,2.31,3.06a16.8,16.8,0,0,1,1.05,1.59l.9,1.71a25,25,0,0,1,2.83,15.13l-.8.39-1.71-2.85a22.82,22.82,0,0,0-1.81-2.78l-1.92-2.69c-.65-.89-1.42-1.69-2.13-2.54-1.38-1.72-3-3.2-4.55-4.77-1.69-1.42-3.31-2.92-5.13-4.17a64.82,64.82,0,0,0-11.31-6.81l-3-1.37c-1-.39-2.05-.83-3.09-1.2a53.05,53.05,0,0,0-6.32-2Z"/><path class="b" d="M394.9,202.63a13.91,13.91,0,0,1,4.05-6.18,15.62,15.62,0,0,1,5.63-3.24,15.43,15.43,0,0,1,6.68-.67,10.75,10.75,0,0,1,1.78.35,10.51,10.51,0,0,1,1.79.61,9.12,9.12,0,0,1,3.33,2.4l-.05.6-1.48.05c-.49,0-1,.12-1.48.17a29.61,29.61,0,0,0-2.93.55,56.37,56.37,0,0,0-5.77,1.64c-1.91.6-3.79,1.31-5.67,2-.95.36-1.88.73-2.81,1.11s-1.88.73-2.8,1.13Z"/><path class="b" d="M361.19,226.74a14,14,0,0,1,1-7.32,15.77,15.77,0,0,1,9.4-8.86,10.29,10.29,0,0,1,1.76-.46,11.13,11.13,0,0,1,1.87-.22,8.87,8.87,0,0,1,4,.72l.22.56-1.31.68c-.43.25-.84.54-1.26.8a27.46,27.46,0,0,0-2.4,1.77,54.44,54.44,0,0,0-4.49,4c-1.47,1.37-2.86,2.82-4.24,4.29-.7.72-1.38,1.46-2.06,2.21s-1.37,1.48-2,2.23Z"/><path class="b" d="M398.3,217.11l0-.07,0,0-.07,0-.18.18c-.12.11-.25.29-.38.43a11.16,11.16,0,0,0-.74,1.07,18,18,0,0,0-1.28,2.52,26.5,26.5,0,0,0-1.6,5.85,40.34,40.34,0,0,0-.49,6.36c0,1.08.07,2.17.11,3.27l.31,3.28L392.69,237c-.36-1-.75-2.1-1.1-3.17a42.72,42.72,0,0,1-1.54-6.68,32,32,0,0,1-.26-7.15,25.06,25.06,0,0,1,.62-3.75,18.37,18.37,0,0,1,.58-1.93c.13-.33.24-.65.4-1a7.82,7.82,0,0,1,.66-1.2Z"/><path class="b" d="M413,224.06c0-.05-.06,0-.1.06l-.16.15-.32.36c-.22.25-.42.54-.63.81a16.36,16.36,0,0,0-1.14,1.85,19,19,0,0,0-1.66,4.22,20.19,20.19,0,0,0-.65,4.71,24.71,24.71,0,0,0,.4,5,25.35,25.35,0,0,1-2.37-4.61,23,23,0,0,1-1.37-5.23,23.45,23.45,0,0,1-.14-5.63,24.34,24.34,0,0,1,.44-2.89c.11-.48.22-1,.38-1.46.06-.25.15-.5.24-.76s.09-.25.15-.4a3.19,3.19,0,0,1,.21-.48Z"/><path class="b" d="M408.21,218.15a11.93,11.93,0,0,1,1.36-.18c.42,0,.83-.05,1.23-.05.82,0,1.62,0,2.42.06a22,22,0,0,1,4.71.85,14.48,14.48,0,0,1,4.22,2.09,10.89,10.89,0,0,1,2.92,3.32,9.78,9.78,0,0,0-3.74-1.5,11.83,11.83,0,0,0-3.76.07,17.27,17.27,0,0,0-3.53,1.12,15.77,15.77,0,0,0-1.65.81c-.26.14-.52.3-.77.45a3.21,3.21,0,0,0-.61.45Z"/><path class="b" d="M392.32,211.8a5.29,5.29,0,0,1,.56-.42c.17-.12.3-.2.45-.29.3-.19.59-.33.88-.48a15.91,15.91,0,0,1,1.72-.74,17.16,17.16,0,0,1,3.47-.88,20.32,20.32,0,0,1,6.71.14l1.57.34c.52.14,1,.32,1.52.48a27,27,0,0,1,2.88,1.14c.92.44,1.8,1,2.68,1.43l2.5,1.64-2.86-.71c-1-.15-1.92-.34-2.87-.43a22.23,22.23,0,0,0-2.82-.11c-.46,0-.92,0-1.38.05l-1.34.17a14.92,14.92,0,0,0-4.84,1.6,10.84,10.84,0,0,0-1.94,1.32,8,8,0,0,0-.78.76,4.68,4.68,0,0,0-.31.37.73.73,0,0,0-.11.18s-.09.13,0,.06Z"/><path class="b" d="M374.12,212.11a7.44,7.44,0,0,1,.41,1c.1.3.19.59.27.88.17.59.31,1.17.42,1.75a17.48,17.48,0,0,1,.33,3.52,12.31,12.31,0,0,1-.5,3.4,8.84,8.84,0,0,1-1.5,2.84,8.1,8.1,0,0,0-.5-2.84,9.91,9.91,0,0,0-1.34-2.31,14.08,14.08,0,0,0-1.83-1.87,10.76,10.76,0,0,0-1-.77l-.51-.34c-.16-.08-.38-.23-.45-.19Z"/><path class="b" d="M400.17,197.64a5.85,5.85,0,0,1,.31-1c.11-.29.22-.58.34-.86.24-.56.51-1.09.79-1.61a18.71,18.71,0,0,1,2-2.92,12.67,12.67,0,0,1,2.56-2.31,9,9,0,0,1,3-1.24,7.59,7.59,0,0,0-1.42,2.52,9.35,9.35,0,0,0-.44,2.63,14.11,14.11,0,0,0,.5,3.84c.06.2.13.4.19.59s.14.41.22.43Z"/><path class="b" d="M407.2,193.6c0,.07.08.3.14.47s.17.36.27.55c.19.37.41.74.64,1.1a13.14,13.14,0,0,0,1.63,2,9.89,9.89,0,0,0,2.13,1.62,8,8,0,0,0,2.76.85,9,9,0,0,1-3,1.13,12.34,12.34,0,0,1-3.44.08,18.84,18.84,0,0,1-3.45-.76c-.56-.19-1.12-.39-1.68-.63q-.42-.18-.84-.39a6.14,6.14,0,0,1-.92-.52Z"/><path class="d" d="M325.58,166.26c-.54-.41-13.17-10-19-21.81-7.63-15.35-5.53-20.19-4.84-21.78a7.08,7.08,0,0,1,4.53-4.06,8,8,0,0,1,2.25-.32c6.32,0,14,7.13,19.45,18.17,5.95,11.95,4.89,26,4.85,26.57Z"/><path class="b" d="M308.48,122.79c3.89,0,10.41,5.61,15.42,15.68,5.46,11,4.39,24.19,4.39,24.19s-12.26-9.25-17.72-20.22-6.74-18.42-3.06-19.52a3.39,3.39,0,0,1,1-.13m0-9a12.32,12.32,0,0,0-3.54.51,11.53,11.53,0,0,0-7.37,6.58c-1.56,3.59-2.74,10.14,4.94,25.57,6.23,12.51,18.93,22.32,20.36,23.4l14.39-6.46c.13-1.61,1.09-16.1-5.3-28.93-5-10-13.75-20.67-23.48-20.67Z"/><path class="c" d="M320.58,171.18c-3,0-18.62-.24-31.87-4.9-14.08-4.95-19.35-6.8-20.93-11a6.08,6.08,0,0,1,.43-5.2c2-3.51,6.92-5.52,13.6-5.52a47.73,47.73,0,0,1,15.61,3c14.39,5.06,25.92,15.35,26.41,15.78l-3,7.85Z"/><path class="b" d="M281.81,149.07a43.12,43.12,0,0,1,14.12,2.73c13.7,4.82,24.89,14.88,24.89,14.88h-.24c-2.08,0-17.62-.15-30.38-4.64-13.7-4.82-19.65-6.93-18.07-9.75.94-1.67,4.28-3.22,9.68-3.22m0-9c-8.36,0-14.75,2.85-17.53,7.82a10.64,10.64,0,0,0-.71,9c2.32,6.15,8.13,8.19,23.64,13.65,14,4.9,30.25,5.15,33.37,5.15h.33L326.84,160c-.52-.46-12.7-11.33-27.92-16.68a52,52,0,0,0-17.11-3.24Z"/><path class="d" d="M273.87,196.32c-4.26,0-6-2.26-6.7-3.61a7.45,7.45,0,0,1,.11-6.47c2.56-5.89,10.92-11.69,21.3-14.79,10.06-3,21.5-3.45,27.43-3.45,3,0,4.85.11,4.93.12l2.58,8c-.51.41-12.52,10.12-27.14,14.48q-3.08.91-5.8,1.76C282.72,194.74,277.53,196.32,273.87,196.32Z"/><path class="b" d="M316,172.5c2.88,0,4.66.11,4.66.11S309,182.12,295.1,186.27c-10.18,3-17.48,5.55-21.23,5.55-1.38,0-2.28-.34-2.67-1.12-1.44-2.9,4.75-10.79,18.67-14.94,9.4-2.8,20.15-3.26,26.14-3.26m0-9h0c-7.54,0-18.64.63-28.71,3.64-11.78,3.51-21,10.14-24.14,17.31a12,12,0,0,0,0,10.26c.91,1.84,3.79,6.11,10.72,6.11,4.33,0,9.78-1.66,18-4.18l5.77-1.75c15.46-4.61,28.16-14.87,28.69-15.31l-5.16-16c-.21,0-2.13-.12-5.19-.12Z"/><path class="c" d="M310.56,218.61a11,11,0,0,1-3.7-.65,8.73,8.73,0,0,1-5.59-5.18c-1.47-3.9-.23-9,4-16.63,6.43-11.48,19.52-20.48,20.07-20.86l7,3.57c0,.59.4,14.65-6.12,26.3C323,210.94,317.89,218.61,310.56,218.61Z"/><path class="b" d="M327.89,179s.43,13.26-5.55,24c-4.82,8.61-8.59,11.15-11.78,11.15a6.59,6.59,0,0,1-2.21-.39c-3.62-1.28-5.12-4.68.87-15.37S327.89,179,327.89,179m-5.06-7.44c-1.48,1-14.65,10.2-21.47,22.38-3.54,6.34-6.83,13.72-4.3,20.42a13.1,13.1,0,0,0,8.31,7.84,15.66,15.66,0,0,0,5.19.9c9.7,0,15.85-9,19.63-15.75,7-12.51,6.75-27,6.7-28.64l-14.06-7.15Z"/><path class="d" d="M351.36,219.6c-7.59,0-12.51-8.11-15.54-14.21-5.95-11.95-4.9-26-4.85-26.56l7.2-3.23c.53.4,13.17,10,19,21.81,3.87,7.79,4.86,13,3.2,16.8a8.75,8.75,0,0,1-5.83,4.91A11.32,11.32,0,0,1,351.36,219.6Z"/><path class="b" d="M335.46,179.19s12.26,9.26,17.72,20.22,3.8,14.3.12,15.4a7.06,7.06,0,0,1-1.94.29c-3.25,0-7-2.61-11.51-11.71-5.46-11-4.39-24.2-4.39-24.2m5.42-7.18-14.39,6.45c-.13,1.61-1.09,16.1,5.3,28.94,3.57,7.17,9.48,16.7,19.57,16.7a15.7,15.7,0,0,0,4.51-.67,13.11,13.11,0,0,0,8.67-7.42c2.85-6.58-.07-14.11-3.31-20.61C355,182.9,342.31,173.09,340.88,172Z"/><path class="c" d="M389.16,199.12c-3.7,0-9-1.91-17.08-4.81l-5.71-2C352,187.22,340.46,176.93,340,176.5l3-7.85h.27c3,0,18.63.24,31.88,4.9,10.22,3.59,18.29,9.8,20.56,15.8a7.45,7.45,0,0,1-.21,6.47C394.75,197.05,393,199.12,389.16,199.12Z"/><path class="b" d="M343.22,173.15c2.07,0,17.62.15,30.38,4.64,13.7,4.82,19.5,13,17.92,15.83a2.46,2.46,0,0,1-2.36,1c-3.63,0-10.94-3-21.29-6.59C354.16,183.21,343,173.15,343,173.15h.24m0-9h-.33L337,179.84c.51.46,12.7,11.33,27.92,16.68l5.68,2c8.8,3.16,14.11,5.07,18.6,5.07a11.2,11.2,0,0,0,10.21-5.6,12,12,0,0,0,.49-10.25c-2.76-7.31-11.68-14.39-23.28-18.47-13.94-4.9-30.24-5.15-33.36-5.15Z"/><path class="c" d="M347.78,171.83c-3,0-4.84-.11-4.92-.12l-2.58-8c.51-.41,12.52-10.12,27.14-14.48A49.66,49.66,0,0,1,381.49,147c7.45,0,13.05,2.32,15,6.21a6,6,0,0,1,.18,5.21c-1.78,4.11-7.13,5.7-21.44,10C365.16,171.38,353.71,171.83,347.78,171.83Z"/><path class="b" d="M381.49,151.49c6.26,0,10,1.85,11,3.71,1.44,2.9-4.6,4.72-18.52,8.87-9.4,2.8-20.16,3.26-26.15,3.26-2.88,0-4.65-.11-4.65-.11s11.65-9.51,25.57-13.66a45.18,45.18,0,0,1,12.79-2.07m0-9h0a54,54,0,0,0-15.36,2.45c-15.47,4.61-28.16,14.87-28.69,15.31l5.16,15.95c.2,0,2.13.13,5.18.13,7.54,0,18.65-.64,28.72-3.64,15.77-4.7,21.66-6.46,24.28-12.49a10.61,10.61,0,0,0-.28-9c-2.75-5.53-9.68-8.7-19-8.7Z"/><path class="d" d="M331.36,163c0-.59-.4-14.65,6.12-26.3,5.86-10.46,13.66-17.22,19.89-17.22a7.86,7.86,0,0,1,2.66.45,7.06,7.06,0,0,1,4.32,4.27c.62,1.63,2.48,6.56-5.89,21.52-6.43,11.48-19.52,20.48-20.07,20.86Z"/><path class="b" d="M357.37,124a3.57,3.57,0,0,1,1.16.19c3.63,1.27,2,8.66-4,19.35s-18.68,19.34-18.68,19.34-.42-13.27,5.56-24c5.4-9.65,12-14.92,16-14.92m0-9h0C353,115,348.5,117,344,121.1a52.45,52.45,0,0,0-10.4,13.4c-7,12.51-6.74,27-6.69,28.64l14.06,7.15c1.48-1,14.65-10.2,21.47-22.39,8.42-15,7.55-21.64,6.17-25.3a11.53,11.53,0,0,0-7-6.93,12.51,12.51,0,0,0-4.15-.7Z"/><path class="c" d="M328.62,160.4c-.74-1-7.2-9.63-7-18.72.28-11.48,5.79-16.62,11.12-16.62H333c3.44.09,6.49,2.21,8.36,5.83a23.74,23.74,0,0,1,2.16,11.32c-.22,9.09-7.09,17.44-7.88,18.36Z"/><path class="b" d="M332.76,129.56h.1c3.55.09,6.32,4.78,6.13,12.54s-6.81,15.56-6.81,15.56-6.23-8.11-6-15.87,3.12-12.23,6.62-12.23m0-9h0c-7.52,0-15.27,6.5-15.62,21-.26,10.64,7.07,20.49,7.91,21.58l14,.34c.89-1.05,8.69-10.53,8.95-21.17.36-14.77-7.23-21.57-14.91-21.75Z"/><path class="c" d="M319.57,165.08c-.55-.12-13.67-3.08-22.18-9.23-7.21-5.22-10.81-10-10.71-14.14a6.5,6.5,0,0,1,3-5.36,8.61,8.61,0,0,1,4.79-1.29c4.53,0,10.9,2.72,17.46,7.47a40.73,40.73,0,0,1,12.83,16.53Z"/><path class="b" d="M294.45,139.56c3.32,0,8.74,2.21,14.82,6.61a36.21,36.21,0,0,1,11.28,14.52s-12.67-2.81-20.52-8.49-10.46-10.42-7.91-12.08a4.27,4.27,0,0,1,2.33-.56m0-9h0a13.06,13.06,0,0,0-7.25,2,11,11,0,0,0-5,9c-.14,5.81,4,11.67,12.57,17.89,9.1,6.58,22.36,9.66,23.85,10l10.34-12a44.87,44.87,0,0,0-14.39-18.56c-4.3-3.11-12.62-8.32-20.1-8.32Z"/><path class="d" d="M293.7,176.91l-1.19,0h-.64c-5.6-.14-10-.25-13.22-.65-5.73-.71-8.59-3-8.5-6.78.15-6,9.21-10.41,21.54-10.41l1.25,0c12,.29,23.85,5.1,24.35,5.31l-.2,8.4C316.61,172.94,305.28,176.91,293.7,176.91Z"/><path class="b" d="M291.69,163.54l1.14,0c11.29.27,22.75,5,22.75,5s-10.94,3.88-21.88,3.88l-1.08,0c-11.29-.27-18-.39-18-2.83s6.43-6,17-6m0-9h0c-15.12,0-25.82,6.09-26,14.81a10.51,10.51,0,0,0,6.37,9.8,20.26,20.26,0,0,0,6.06,1.55c3.42.43,7.94.54,13.66.67l.65,0,1.3,0c12.34,0,24.38-4.22,24.89-4.4L319,160.2c-.53-.22-13.15-5.33-25.95-5.64l-1.36,0Z"/><path class="c" d="M292.87,201.82a7.94,7.94,0,0,1-4.72-1.4,6.67,6.67,0,0,1-2.72-5.65c.11-4.53,4.27-9.81,11.41-14.47,8.8-5.73,22-8.05,22.6-8.15l4.88,6.27a40.8,40.8,0,0,1-13.62,15.89C303.06,199.29,297.06,201.82,292.87,201.82Z"/><path class="b" d="M320.21,176.59a36.26,36.26,0,0,1-12,13.95c-6.43,4.2-12.08,6.78-15.37,6.78a3.49,3.49,0,0,1-2.08-.55c-2.47-1.79.39-7.4,8.51-12.7s20.91-7.48,20.91-7.48m-1.53-8.87c-1.49.25-14.89,2.68-24.3,8.82-4.93,3.22-13.24,9.85-13.44,18.12a11.06,11.06,0,0,0,4.57,9.4,12.39,12.39,0,0,0,7.36,2.26c7.66,0,17.16-6.2,20.29-8.24a44.94,44.94,0,0,0,15.27-17.83l-9.75-12.53Zm1.53,17.87Z"/><path class="d" d="M330.89,213.76c-6.59-.16-11.75-8.32-11.51-18.19.23-9.27,8.2-17.65,9.11-18.58l6.57.16c.86,1,8.42,9.73,8.2,19-.24,9.71-5.7,17.61-12.18,17.61Z"/><path class="b" d="M331.7,180.15s7.25,8.13,7.06,15.89-4.15,13.22-7.68,13.22H331c-3.54-.09-7.3-5.82-7.11-13.58s7.82-15.53,7.82-15.53m-6.42-6.31a44.53,44.53,0,0,0-4.92,6.19c-3.52,5.3-5.36,10.49-5.48,15.43a28.22,28.22,0,0,0,3.31,14.3c3,5.28,7.56,8.37,12.59,8.5h.3c9.05,0,16.38-9.66,16.68-22,.12-4.94-1.47-10.22-4.73-15.68a44.51,44.51,0,0,0-4.61-6.42l-13.14-.32Z"/><path class="c" d="M369.93,203.65c-4.24,0-10.28-2.81-17.95-8.37a40.7,40.7,0,0,1-12.84-16.53l5.17-6c.56.12,13.68,3.08,22.18,9.23,6.91,5,10.8,10.47,10.7,15a6.66,6.66,0,0,1-3,5.5A7.65,7.65,0,0,1,369.93,203.65Z"/><path class="b" d="M343.34,177.12s12.66,2.81,20.51,8.49,10.44,11.43,7.89,13.09a3.24,3.24,0,0,1-1.81.45c-3.25,0-8.91-2.88-15.32-7.51a36.14,36.14,0,0,1-11.27-14.52m2-8.79-10.34,12a44.78,44.78,0,0,0,14.39,18.56c12.75,9.22,18.65,9.22,20.59,9.22a12.12,12.12,0,0,0,6.73-1.91,11.06,11.06,0,0,0,5-9.16c.2-8.28-7.77-15.31-12.55-18.76-9.1-6.59-22.36-9.66-23.84-10Z"/><path class="d" d="M380,178.91c-2.42,0-5.19-.07-8.39-.15h-.65c-12-.29-23.85-5.1-24.35-5.31l.21-8.4c.47-.17,11.8-4.14,23.38-4.14l1.2,0a38.57,38.57,0,0,1,14.93,3c4.8,2.17,7.4,5.17,7.32,8.47C393.47,178.91,385.35,178.91,380,178.91Z"/><path class="b" d="M370.18,165.4l1.09,0c11.29.27,17.92,4.44,17.86,6.88,0,1.7-3.33,2.11-9.16,2.11-2.51,0-5.51-.08-8.92-.16-11.29-.27-22.75-5-22.75-5s10.94-3.88,21.88-3.88m0-9h0c-12.34,0-24.38,4.22-24.89,4.4l-.4,16.81c.53.21,13.14,5.33,25.95,5.64h.64c3.23.08,6,.15,8.49.15a43.51,43.51,0,0,0,8.54-.6c6.94-1.41,9.52-6.24,9.62-10.3.07-3-1.13-8.68-10-12.67a43.54,43.54,0,0,0-16.67-3.42l-1.31,0Z"/><path class="d" d="M339.57,159.39a40.7,40.7,0,0,1,13.62-15.89c6.55-4.28,12.66-6.63,17.19-6.63a8.91,8.91,0,0,1,5.33,1.54,6.51,6.51,0,0,1,2.72,5.49c-.1,4.16-3.93,8.74-11.39,13.6-8.79,5.74-22,8.06-22.6,8.16Z"/><path class="b" d="M370.38,141.37a4.61,4.61,0,0,1,2.69.68c2.47,1.79-.37,6.39-8.49,11.68s-20.9,7.49-20.9,7.49a36.18,36.18,0,0,1,12-13.95c6.05-4,11.39-5.9,14.74-5.9m0-9h0c-7.28,0-15.44,4.61-19.65,7.36a44.94,44.94,0,0,0-15.28,17.83l9.75,12.53c1.5-.26,14.89-2.68,24.3-8.82,8.89-5.8,13.28-11.44,13.43-17.26a10.92,10.92,0,0,0-4.59-9.25,13.24,13.24,0,0,0-8-2.39Z"/><path class="d" d="M331.72,176.74c-9.1-.22-15.6-4.67-15.45-10.59.14-5.7,6.57-9.84,15.29-9.84h.65c9.1.22,15.6,4.68,15.46,10.59-.14,5.7-6.57,9.84-15.3,9.84Z"/><path class="b" d="M331.56,160.81h.55c6.18.15,11.14,2.83,11.06,6s-4.86,5.44-10.8,5.44h-.54c-6.19-.15-11.14-2.83-11.06-6s4.86-5.45,10.79-5.45m0-9h0c-11.27,0-19.59,6-19.79,14.23-.21,8.53,8.14,14.92,19.84,15.2h.76c11.27,0,19.6-6,19.8-14.23.2-8.52-8.14-14.91-19.85-15.2Z"/><path class="a" d="M377.48,946.64c-36.62,0-59.22-12.4-65.92-36a42.72,42.72,0,0,1-24.86,8.14h0a39.41,39.41,0,0,1-18.39-4.4l-1.55-.91-.5-1.72c-.35-1.17-8.2-28.93,6.43-48.7,8.54-11.54,22.74-17.75,42.21-18.47,11.8-17.73,26.67-26.72,44.24-26.72,20.52,0,36.86,12.67,37.54,13.2l1,.78.45,1.16c.38,1,8.37,22.52-1.57,36.5,8.93,5.76,15.23,18.12,18.79,36.91a180.47,180.47,0,0,1,2.93,31.93l0,3.55-3.45.79A184.34,184.34,0,0,1,377.48,946.64Z"/><path class="b" d="M359.14,822.39c19.2,0,34.76,12.24,34.76,12.24s9.6,25.21-5,36.37c25.5,7,24.83,67.32,24.83,67.32a181.07,181.07,0,0,1-36.28,3.82c-26.54,0-58.64-6.95-63-39.59-10,9.23-19.93,11.76-27.77,11.76a34.79,34.79,0,0,1-16.12-3.79s-17.66-60.61,46.81-61.47c13-20.61,28.25-26.66,41.75-26.66m0-9c-22.43,0-37.47,13.77-46.68,26.83-19.75,1.17-34.33,7.95-43.39,20.18-15.94,21.55-7.5,51.38-7.13,52.64l1,3.45,3.11,1.81a43.63,43.63,0,0,0,20.65,5,46.54,46.54,0,0,0,22.49-5.91c4.6,11,12.91,19.59,24.51,25.27s26.22,8.47,43.78,8.47a188.69,188.69,0,0,0,38.3-4l6.9-1.58.08-7.09a186,186,0,0,0-3-32.82c-3.34-17.64-9.13-30.1-17.29-37.23,2.82-5.65,4-12.54,3.39-20.41a64.18,64.18,0,0,0-3.54-16.53l-.89-2.33-2-1.54c-.73-.58-18.26-14.17-40.32-14.17Z"/><path class="b" d="M317.84,869a30.6,30.6,0,0,1,3.23-.53c1.07-.09,2.14-.15,3.21-.19a50.52,50.52,0,0,1,6.4.18,65.83,65.83,0,0,1,12.53,2.38,75.7,75.7,0,0,1,23,11.22c1.7,1.32,3.43,2.6,5,4s3.2,2.9,4.71,4.42,3,3.13,4.27,4.86c.66.86,1.37,1.66,2,2.55L384,900.6a54.1,54.1,0,0,1,8.9,23.9l-.8.41a103.45,103.45,0,0,0-6.26-10.17,97.81,97.81,0,0,0-7.28-9.43,108,108,0,0,0-8.37-8.48,118.64,118.64,0,0,0-9.29-7.44,117.75,117.75,0,0,0-31.72-16.26,91,91,0,0,0-11.48-3.21Z"/><path class="b" d="M340.12,854.53a30.32,30.32,0,0,1,8.33-8.24,41.19,41.19,0,0,1,10.06-5,36.81,36.81,0,0,1,11.27-2.07,21.19,21.19,0,0,1,3,.09,22,22,0,0,1,3,.41,23.13,23.13,0,0,1,2.95.85c.49.21,1,.42,1.44.64s.92.48,1.36.78l0,.6-2.68.06c-.89.06-1.78.2-2.67.29s-1.77.29-2.65.42-1.76.33-2.64.54a88.82,88.82,0,0,0-10.34,3.06c-3.43,1.14-6.8,2.41-10.14,3.79q-2.51,1-5,2.14c-1.66.71-3.31,1.43-4.94,2.2Z"/><path class="b" d="M280.42,898.43a30.1,30.1,0,0,1,3.94-11,41.06,41.06,0,0,1,6.88-8.9,37.41,37.41,0,0,1,9.26-6.76,23.67,23.67,0,0,1,2.71-1.2,21.23,21.23,0,0,1,5.9-1.43l1.57-.05c.54,0,1,0,1.57.11l.22.56-2.39,1.21c-.77.45-1.52,1-2.27,1.43s-1.48,1-2.22,1.52-1.44,1.06-2.14,1.64a88.3,88.3,0,0,0-8,7.24c-2.6,2.5-5.09,5.12-7.49,7.81q-1.82,2-3.57,4.08c-1.18,1.36-2.36,2.73-3.5,4.13Z"/><path class="b" d="M344,878.21h0l-.07.08-.16.19-.34.45c-.24.3-.45.68-.68,1a23.29,23.29,0,0,0-1.24,2.27c-.41.77-.71,1.62-1.07,2.44s-.59,1.71-.89,2.57a50.57,50.57,0,0,0-2,11,73.9,73.9,0,0,0,.07,11.52c.19,1.93.44,3.85.67,5.8l1,5.78-2-5.55c-.56-1.89-1.15-3.78-1.67-5.7a77,77,0,0,1-2.1-11.81,56.18,56.18,0,0,1,.1-12.29c.18-1,.31-2.08.52-3.12s.44-2.09.77-3.13a31.87,31.87,0,0,1,1.06-3.12c.23-.52.42-1,.7-1.57a12.92,12.92,0,0,1,1-1.76Z"/><path class="b" d="M370.2,890.58a2,2,0,0,0-.23.27l-.26.37q-.29.39-.54.81c-.36.55-.68,1.14-1,1.73a36.08,36.08,0,0,0-3.86,11.88,37.7,37.7,0,0,0-.26,8.64,41.05,41.05,0,0,0,.58,4.38c.26,1.46.69,2.88,1,4.35-.65-1.34-1.4-2.66-2-4.06a39.22,39.22,0,0,1-1.58-4.29,40.33,40.33,0,0,1-1.78-9.13,41.22,41.22,0,0,1,.33-9.53,42.31,42.31,0,0,1,1-4.78c.24-.79.46-1.58.75-2.38.13-.39.29-.79.45-1.2.08-.2.16-.4.26-.61a6.77,6.77,0,0,1,.33-.7Z"/><path class="b" d="M365.36,884.73c.83-.23,1.43-.32,2.13-.45s1.35-.21,2-.29c1.34-.16,2.68-.26,4-.29a36.24,36.24,0,0,1,8,.65,23.76,23.76,0,0,1,7.41,2.78,18.18,18.18,0,0,1,5.61,5.16,17.31,17.31,0,0,0-6.4-3.33,21.13,21.13,0,0,0-6.93-.62,31.12,31.12,0,0,0-6.78,1.29c-1.1.34-2.18.72-3.24,1.15-.53.22-1.05.45-1.55.69a14.42,14.42,0,0,0-1.38.71Z"/><path class="b" d="M337.9,873a8.73,8.73,0,0,1,.77-.63c.23-.19.44-.32.67-.48.44-.31.88-.57,1.33-.83a13.51,13.51,0,0,1,1.34-.73,14.1,14.1,0,0,1,1.36-.65l1.37-.57c.46-.18.93-.32,1.4-.48a25.43,25.43,0,0,1,2.81-.77,34.87,34.87,0,0,1,11.26-.58l2.73.37c.9.17,1.79.41,2.67.61l1.32.31c.44.11.86.28,1.29.41l2.55.86c1.67.62,3.28,1.4,4.9,2.09l4.64,2.51-5-1.58c-1.71-.36-3.38-.81-5.07-1.09l-2.55-.34c-.42,0-.84-.14-1.26-.16l-1.28,0c-.84,0-1.68-.09-2.52-.08l-2.5.14a30,30,0,0,0-9.37,2.3,18.43,18.43,0,0,0-2.09,1c-.34.2-.68.37-1,.58l-.94.63c-.33.2-.61.45-.91.67s-.59.46-.85.7-.54.48-.76.73a3.67,3.67,0,0,0-.34.36c-.08.1-.23.26-.2.26Z"/><path class="b" d="M300.61,873.8a13.68,13.68,0,0,1,.76,1.43c.22.45.43.9.61,1.35.39.9.72,1.81,1,2.73a29.8,29.8,0,0,1,1.26,5.62,21.56,21.56,0,0,1-.11,5.68,15.79,15.79,0,0,1-1.82,5.11,14.65,14.65,0,0,0-.18-5.09,18.07,18.07,0,0,0-1.73-4.55,24.79,24.79,0,0,0-2.72-4c-.51-.61-1-1.2-1.6-1.75-.27-.28-.56-.54-.84-.8a6.19,6.19,0,0,0-.8-.65Z"/><path class="b" d="M352.5,845.24a14.81,14.81,0,0,1,.32-1.59c.12-.48.24-1,.39-1.43a29,29,0,0,1,1-2.76,30.17,30.17,0,0,1,2.61-5.13,21,21,0,0,1,3.69-4.31,15.62,15.62,0,0,1,4.66-2.78,15,15,0,0,0-3.11,4,18.65,18.65,0,0,0-1.56,4.62,25.72,25.72,0,0,0-.41,4.78,23.21,23.21,0,0,0,.12,2.37c0,.39.09.77.14,1.15a6,6,0,0,0,.2,1Z"/><path class="b" d="M359.58,840.07a7,7,0,0,0,.57.86c.23.3.46.61.71.91.5.61,1,1.2,1.59,1.76a24.79,24.79,0,0,0,3.66,3.1,18.57,18.57,0,0,0,4.37,2.17,15,15,0,0,0,5,.67,16,16,0,0,1-5.26,1.32,21.72,21.72,0,0,1-5.66-.45,31,31,0,0,1-5.47-1.8c-.89-.39-1.76-.81-2.62-1.29-.43-.22-.85-.48-1.28-.73a15.77,15.77,0,0,1-1.35-.9Z"/><path class="a" d="M496.22,155.26c-19,0-32.63-6.95-39.87-20.2a35.07,35.07,0,0,1-25.13,10.6h0a30.61,30.61,0,0,1-9.31-1.33l-1.7-.59-.82-1.6c-.47-.91-11.36-22.45-2.48-41.09,5.16-10.81,15.7-18.18,31.36-21.91,10.28-24.28,27.62-29.47,40.55-29.47a58.64,58.64,0,0,1,24.37,5.64l1.11.57.66,1.06c.48.77,10.16,16.64,4.85,29.75,8,3.57,15,12.62,20.69,27a148.39,148.39,0,0,1,7.44,25.5l.64,3.49-3.24,1.43C544.32,144.58,520,155.26,496.22,155.26Z"/><path class="b" d="M488.82,54.17a54.35,54.35,0,0,1,22.32,5.14s11.72,18.87,1.7,30.19C534.56,91.12,543.52,140,543.52,140s-24.18,10.75-47.29,10.75c-16.44,0-32.34-5.44-38.61-24-8.87,12-19.38,14.44-26.4,14.44a26.28,26.28,0,0,1-7.83-1.08S399.57,93.86,451.56,83c9-23.18,24.36-28.84,37.26-28.84m0-9a44.83,44.83,0,0,0-25,7.2C456,57.48,449.69,65.18,445,75.31c-15.85,4.23-26.67,12.22-32.19,23.81-9.83,20.62,2,44.09,2.54,45.08l1.64,3.2,3.4,1.18a35,35,0,0,0,10.79,1.58,39.28,39.28,0,0,0,24.1-8.29,40,40,0,0,0,13.51,11.76c7.52,4.07,16.73,6.13,27.39,6.13,24.74,0,49.89-11,50.95-11.52l6.48-2.88-1.28-7A155.23,155.23,0,0,0,544.68,112c-5.37-13.49-11.91-22.7-19.51-27.55,2.49-11.06-2.19-23.16-6.39-29.92l-1.32-2.12-2.21-1.13a63.7,63.7,0,0,0-26.43-6.14Z"/><path class="b" d="M455.06,99a25.91,25.91,0,0,1,2.54-1.13c.85-.3,1.72-.57,2.59-.84a38.56,38.56,0,0,1,5.26-1.14,51.42,51.42,0,0,1,10.66-.43,58.74,58.74,0,0,1,20.67,5.28c1.61.82,3.23,1.59,4.78,2.51s3.08,1.88,4.55,2.92,2.91,2.13,4.23,3.37c.66.61,1.37,1.17,2,1.82l1.88,1.94a41.61,41.61,0,0,1,10.32,18.76l-.71.56a84.47,84.47,0,0,0-6.68-7.21,82.17,82.17,0,0,0-7.37-6.45,88.75,88.75,0,0,0-8.09-5.52c-2.82-1.65-5.71-3.17-8.68-4.53a95.53,95.53,0,0,0-18.5-6.41c-3.18-.75-6.41-1.34-9.65-1.77a76.5,76.5,0,0,0-9.77-.83Z"/><path class="b" d="M470.76,83.82a22.62,22.62,0,0,1,5-8.55,29.6,29.6,0,0,1,7.3-5.85,27.39,27.39,0,0,1,9-3.32,16.49,16.49,0,0,1,2.48-.3,16.83,16.83,0,0,1,2.56,0,16.49,16.49,0,0,1,2.6.39l1.29.4c.43.18.84.33,1.25.55l.08.59-2.15.48c-.71.2-1.4.45-2.1.68s-1.38.51-2.08.75-1.37.55-2,.86a74.42,74.42,0,0,0-7.86,4.12c-2.59,1.44-5.12,3-7.6,4.64-1.24.81-2.47,1.65-3.69,2.5s-2.47,1.66-3.67,2.53Z"/><path class="b" d="M429.4,128.73a22.54,22.54,0,0,1,.83-9.9,29.67,29.67,0,0,1,4-8.43,27.53,27.53,0,0,1,6.63-6.88,17.21,17.21,0,0,1,2.11-1.34,16.39,16.39,0,0,1,2.31-1.11,16.56,16.56,0,0,1,2.51-.77c.46-.08.9-.15,1.34-.2a12.56,12.56,0,0,1,1.37-.06l.32.51-1.72,1.36c-.56.49-1.07,1-1.61,1.52s-1,1.06-1.54,1.58-1,1.09-1.47,1.66a72.63,72.63,0,0,0-5.3,7.12c-1.71,2.42-3.31,4.92-4.84,7.47-.77,1.27-1.51,2.56-2.24,3.85s-1.5,2.58-2.21,3.88Z"/><path class="b" d="M478.24,102.73v0s0,0,0,.06l-.1.16-.2.39c-.15.26-.27.58-.4.87a19.62,19.62,0,0,0-.67,2,30.16,30.16,0,0,0-.88,4.27,41.64,41.64,0,0,0-.05,9.14,61.76,61.76,0,0,0,1.69,9.31c.43,1.54.91,3.06,1.37,4.61l1.66,4.55-2.57-4.14c-.77-1.43-1.58-2.85-2.33-4.31a62.91,62.91,0,0,1-3.73-9.21,46.09,46.09,0,0,1-2-10,35.22,35.22,0,0,1,0-5.34,26.59,26.59,0,0,1,.33-2.76c.1-.48.17-.94.31-1.44a11.23,11.23,0,0,1,.53-1.66Z"/><path class="b" d="M501.44,108.53s-.08.12-.14.21l-.16.33c-.11.22-.22.45-.32.7-.21.48-.39,1-.58,1.5a30.48,30.48,0,0,0-.88,3.22,29.16,29.16,0,0,0-.63,6.83,30.12,30.12,0,0,0,1,7,34,34,0,0,0,1.07,3.48c.41,1.15,1,2.25,1.44,3.4-.76-1-1.6-1.9-2.32-2.93a33.88,33.88,0,0,1-2-3.19,33,33,0,0,1-3.06-7.12,33.57,33.57,0,0,1-1.41-7.84,35,35,0,0,1,0-4.1c.06-.69.1-1.38.2-2.09,0-.35.09-.71.16-1.07,0-.18.06-.37.11-.56a5.55,5.55,0,0,1,.16-.66Z"/><path class="b" d="M495.57,103.71c.68-.32,1.16-.48,1.73-.69s1.08-.37,1.63-.52a31.52,31.52,0,0,1,3.29-.8,30.73,30.73,0,0,1,6.69-.59,21.25,21.25,0,0,1,6.51,1.26,16.14,16.14,0,0,1,5.31,3.45,15.19,15.19,0,0,0-5.74-1.5,18.17,18.17,0,0,0-5.62.76,27.65,27.65,0,0,0-7.49,3.77c-.38.26-.74.54-1.1.82a11.2,11.2,0,0,0-.94.8Z"/><path class="b" d="M471.31,98.76a7.55,7.55,0,0,1,.56-.68c.18-.19.33-.34.5-.5.32-.34.66-.62,1-.91a21.21,21.21,0,0,1,2.05-1.55,26.48,26.48,0,0,1,4.36-2.34A29.41,29.41,0,0,1,489,90.65l2.29-.08c.77,0,1.52.07,2.28.11a38.46,38.46,0,0,1,4.44.55c1.45.27,2.88.68,4.29,1l4.14,1.38-4.3-.4c-1.44,0-2.86-.06-4.27,0a35.69,35.69,0,0,0-4.17.44c-.69.13-1.37.23-2,.38l-2,.54a24.12,24.12,0,0,0-7,3.45,16.72,16.72,0,0,0-1.46,1.18,13.31,13.31,0,0,0-1.31,1.29,12.91,12.91,0,0,0-1.12,1.37,8.16,8.16,0,0,0-.46.68c-.06.12-.15.24-.19.33s-.13.24-.07.2Z"/><path class="b" d="M442.33,105.12a12.59,12.59,0,0,1,.86,1.1c.23.35.47.7.69,1,.44.7.85,1.41,1.22,2.14a26.12,26.12,0,0,1,1.8,4.52,17.83,17.83,0,0,1,.67,4.73,13,13,0,0,1-.84,4.45,12.15,12.15,0,0,0-1.12-4,15.12,15.12,0,0,0-2.25-3.28,20.58,20.58,0,0,0-2.93-2.6c-.52-.38-1.06-.74-1.6-1.06-.27-.17-.55-.32-.82-.47a3.58,3.58,0,0,0-.73-.33Z"/><path class="b" d="M478.64,74.54a11.76,11.76,0,0,1,.05-1.39c0-.42.07-.84.13-1.25q.15-1.23.42-2.43a24.76,24.76,0,0,1,1.49-4.63,17.69,17.69,0,0,1,2.49-4.07,13,13,0,0,1,3.48-2.9A11.88,11.88,0,0,0,485,61.7a14.87,14.87,0,0,0-.35,4,19.9,19.9,0,0,0,.6,3.86,18.85,18.85,0,0,0,.56,1.85c.1.3.22.59.33.87a4.12,4.12,0,0,0,.36.73Z"/><path class="b" d="M484.65,68.53a4,4,0,0,0,.52.61c.22.22.44.44.68.65A17.51,17.51,0,0,0,487.32,71a20.53,20.53,0,0,0,3.32,2.07,15.18,15.18,0,0,0,3.79,1.24,12.15,12.15,0,0,0,4.2-.08,13.3,13.3,0,0,1-4,2.07,17.66,17.66,0,0,1-4.72.69,26.86,26.86,0,0,1-7.24-1c-.4-.11-.8-.24-1.21-.37a11.36,11.36,0,0,1-1.29-.51Z"/><path class="d" d="M361.52,53.72c-.83-.45-20.4-11.07-31-26.07-9-12.79-12.85-22.24-11.32-28.1a8.26,8.26,0,0,1,4.47-5.47,9.8,9.8,0,0,1,4.28-.91c8,0,19,8.14,27.89,20.75,10.71,15.15,12.25,34.68,12.31,35.5Z"/><path class="b" d="M327.94-2.33c5.69,0,15.47,6.48,24.22,18.85,10.11,14.3,11.49,33.23,11.49,33.23s-19.35-10.39-29.46-24.7S320.63.5,325.59-1.86a5.42,5.42,0,0,1,2.35-.47m0-9h0A14.39,14.39,0,0,0,321.73-10a12.7,12.7,0,0,0-6.89,8.4c-2.54,9.73,5.63,22.83,12,31.84,11.21,15.85,31.69,27,32.55,27.43l13.24-8.58c-.07-.88-1.7-21.62-13.13-37.78-9.88-14-22-22.65-31.56-22.65Z"/><path class="c" d="M329.77,63.36a115,115,0,0,1-20.9-1.74c-20.34-3.79-27.95-5.21-30.66-10a6.82,6.82,0,0,1-.4-5.81c2.3-6.16,12-10.13,24.62-10.13a76.78,76.78,0,0,1,13.95,1.37c21.05,3.94,39.28,15.74,40.05,16.24L354.7,61.5A169.27,169.27,0,0,1,329.77,63.36Z"/><path class="b" d="M302.43,40.18a71.13,71.13,0,0,1,13.12,1.3C336,45.29,354,57.06,354,57.06a165.1,165.1,0,0,1-24.2,1.8,111.34,111.34,0,0,1-20.08-1.66c-20.41-3.81-29.28-5.48-27.66-9.82,1.23-3.3,8.17-7.2,20.4-7.2m0-9h0c-14.79,0-25.83,5-28.83,13.06a11.19,11.19,0,0,0,.7,9.59C278,60.44,286.21,62,308,66.05a119.69,119.69,0,0,0,21.73,1.81,173.28,173.28,0,0,0,25.67-1.92l3.45-16.41c-.8-.52-19.76-12.8-41.69-16.9a81.25,81.25,0,0,0-14.77-1.45Z"/><path class="d" d="M291.79,107.48a7.39,7.39,0,0,1-6.34-3c-1-1.38-1.95-3.82-1-7.55,1.66-6.34,9.42-16.52,25.81-24.31,19.26-9.14,43.33-11.51,44.35-11.61l3.77,7.49c-.62.68-15.22,16.76-34.57,26-2.77,1.32-5.38,2.58-7.82,3.76C304,104,296.8,107.48,291.79,107.48Z"/><path class="b" d="M355.06,65.47s-14.39,16-33.15,24.9c-15,7.11-25.24,12.61-30.12,12.61a3,3,0,0,1-2.67-1.12c-2.67-3.78,4.35-16.28,23.11-25.19s42.83-11.2,42.83-11.2m-.85-9c-1,.1-25.88,2.55-45.85,12C293.49,75.6,282.67,86,280.13,95.77a13.36,13.36,0,0,0,1.64,11.29,11.8,11.8,0,0,0,10,4.92c6,0,13.62-3.67,26.19-9.74,2.44-1.18,5-2.43,7.79-3.74,20.16-9.58,35.34-26.3,36-27l-7.54-15Zm.85,18h0Z"/><path class="c" d="M348.52,130.93a14.83,14.83,0,0,1-2.7-.25,10.61,10.61,0,0,1-7.69-5.15c-2.63-4.66-2-11.67,2.16-22.75,6.41-17.21,22.62-32.5,23.3-33.14l7.5,2.46c.15.81,3.67,20.08-2.81,37.47C364.86,118.74,359.1,130.93,348.52,130.93Z"/><path class="b" d="M366.67,72.93s3.51,18.65-2.61,35.07c-5.41,14.54-10.66,18.43-15.54,18.43a9.79,9.79,0,0,1-1.87-.18c-5.4-1-8.26-5.49-2.14-21.9s22.16-31.42,22.16-31.42m-6.15-6.57C359.8,67,342.85,83,336.07,101.2c-4.63,12.44-5.2,20.63-1.86,26.54A15,15,0,0,0,345,135.1a19.31,19.31,0,0,0,3.52.33c13.38,0,20.09-13.86,24-24.29,6.9-18.55,3.17-39,3-39.87l-15-4.91Z"/><path class="d" d="M406.42,123.4c-6.73,0-13.47-5.1-21.2-16C374.5,92.21,373,72.69,372.91,71.86l6.61-4.29c.83.44,20.41,11.07,31,26.06,6.83,9.66,9.27,16.27,7.92,21.44a10.57,10.57,0,0,1-6.12,7A13.66,13.66,0,0,1,406.42,123.4Z"/><path class="b" d="M377.39,71.53s19.36,10.4,29.47,24.7,8.5,19.37,3.54,21.73a9.26,9.26,0,0,1-4,.94c-4.38,0-9.91-3.36-17.52-14.13-10.11-14.31-11.5-33.24-11.5-33.24m4.26-7.93-13.23,8.59c.06.87,1.7,21.61,13.12,37.77s19.64,17.94,24.87,17.94a18.27,18.27,0,0,0,7.85-1.81,15,15,0,0,0,8.54-9.88c1.72-6.57-.93-14.34-8.59-25.18-11.21-15.85-31.69-27-32.56-27.43Z"/><path class="c" d="M454.45,86.23c-4.9,0-11.92-1.36-21.64-3.25-2.66-.51-5.5-1.06-8.51-1.62C403.24,77.42,385,65.62,384.24,65.12L386,56.91a169.27,169.27,0,0,1,24.93-1.86,115.15,115.15,0,0,1,20.91,1.74C449.65,60.12,459.75,68,463,73.68c1.9,3.35,1.59,5.95,1,7.54C462.74,84.54,459.54,86.23,454.45,86.23Z"/><path class="b" d="M410.9,59.55A111.27,111.27,0,0,1,431,61.21c20.42,3.81,30.4,14.1,28.78,18.44-.54,1.48-2.36,2.08-5.31,2.08-5.75,0-15.84-2.28-29.33-4.8-20.41-3.81-38.42-15.58-38.42-15.58a165.28,165.28,0,0,1,24.2-1.8m0-9v0a173.44,173.44,0,0,0-25.67,1.92l-3.45,16.41c.8.52,19.76,12.8,41.69,16.9,3,.56,5.84,1.11,8.49,1.62,10,1.93,17.16,3.33,22.49,3.33,4,0,11.18-1,13.75-7.93a13.36,13.36,0,0,0-1.3-11.34c-4.95-8.76-18.08-16.07-34.27-19.1a119.69,119.69,0,0,0-21.73-1.81Z"/><path class="c" d="M382.27,49.93c.61-.68,15.21-16.76,34.56-25.95,11.55-5.49,20.16-6.64,25.35-6.64,6.65,0,11.82,1.91,14.17,5.23a6.82,6.82,0,0,1,1.1,5.72c-1.4,5.32-8.39,8.64-27.07,17.52C411.12,55,387.05,57.32,386,57.42Z"/><path class="b" d="M442.18,21.84c5.55,0,9.19,1.48,10.49,3.33,2.68,3.78-5.46,7.66-24.22,16.57s-42.84,11.2-42.84,11.2S400,37,418.76,28c9.61-4.56,17.58-6.2,23.42-6.2m0-9h0c-8.11,0-17.54,2.45-27.28,7.07-20.16,9.58-35.34,26.3-36,27l7.54,15c1.05-.1,25.88-2.54,45.85-12s27.57-13.09,29.49-20.44A11.26,11.26,0,0,0,460,20c-3.25-4.6-9.59-7.13-17.84-7.13Z"/><path class="d" d="M370,49.19c-.16-.82-3.67-20.09,2.81-37.47,6-16.24,16.06-27.57,24.35-27.57a9.15,9.15,0,0,1,1.66.15,8.23,8.23,0,0,1,5.72,4.15c3,5.27,1.72,15.38-3.75,30.06-6.41,17.21-22.61,32.49-23.3,33.13Z"/><path class="b" d="M397.12-11.35a4.61,4.61,0,0,1,.84.07c5.4,1,4.69,11.8-1.42,28.22s-22.16,31.41-22.16,31.41S370.87,29.7,377,13.29c5.81-15.6,14.64-24.64,20.14-24.64m0-9h0c-10.46,0-21.67,12-28.57,30.49s-3.18,39-3,39.88l15,4.91c.72-.67,17.68-16.66,24.45-34.85,8-21.59,5.82-29.66,3.45-33.85a12.68,12.68,0,0,0-8.81-6.35,12.89,12.89,0,0,0-2.49-.23Z"/><path class="c" d="M365,45.09c-.48-.46-11.75-11.34-13.37-23.78-.79-6-.35-11.35,1.25-15.47,1.85-4.75,5.3-7.78,9.46-8.33a11.55,11.55,0,0,1,1.32-.08c7.58,0,13.51,8,15.12,20.35s-6.49,25.84-6.84,26.4Z"/><path class="b" d="M363.61,1.93c4.77,0,9.3,6,10.66,16.43,1.43,11-6.22,23.47-6.22,23.47s-10.58-10.1-12-21.1S357.83,2.63,362.87,2a4.6,4.6,0,0,1,.74-.05m0-9a15.15,15.15,0,0,0-1.9.12c-5.84.76-10.61,4.83-13.07,11.16-1.88,4.82-2.4,10.94-1.53,17.68,1.79,13.76,13.41,25.19,14.73,26.45l13.89-1.8C376.68,45,385,31,383.19,17.19c-1.91-14.74-9.6-24.26-19.58-24.26Z"/><path class="c" d="M352,53.15c-.8-.06-19.6-1.34-32.61-8C312,41.38,303,35.52,302.18,29a7.29,7.29,0,0,1,2.42-6.54c1.92-1.72,4.7-2.6,8.26-2.6,5.91,0,13.85,2.4,22.35,6.74,13.37,6.84,20.66,19.28,21,19.8Z"/><path class="b" d="M312.86,24.36c4.83,0,12,2,20.3,6.25,12.34,6.31,19.11,18,19.11,18s-18.51-1.19-30.84-7.5-17.07-12.43-13.82-15.34c1.06-1,2.87-1.45,5.25-1.45m0-9c-4.7,0-8.49,1.26-11.27,3.75a11.82,11.82,0,0,0-3.87,10.47c.89,6.89,7.31,13.29,19.61,19.58,13.83,7.08,33.53,8.42,34.36,8.48l8.38-13.49c-.33-.57-8.27-14.12-22.81-21.55-9.12-4.67-17.79-7.24-24.4-7.24Z"/><path class="d" d="M295.16,77.88c-6.28,0-9.73-2-10.25-6.06-1-7.63,11.41-15.32,28.25-17.51a80.82,80.82,0,0,1,10.26-.62A117.71,117.71,0,0,1,348,56.44l1.08,8.34c-.66.36-16.52,8.82-33.16,11l-.91.12C306.5,77,299.75,77.88,295.16,77.88Z"/><path class="b" d="M323.42,58.19A113.58,113.58,0,0,1,347,60.82s-15.6,8.4-31.61,10.48c-8.87,1.16-15.76,2.08-20.21,2.08-3.58,0-5.59-.6-5.79-2.14-.45-3.46,8.36-10.38,24.37-12.47a75.27,75.27,0,0,1,9.68-.58m0-9v0h0a84.4,84.4,0,0,0-10.84.66c-20,2.6-33.5,12.08-32.14,22.55a11,11,0,0,0,7.58,9,21.34,21.34,0,0,0,7.14,1c4.88,0,11.76-.9,20.46-2l.91-.12c17.46-2.27,34-11.11,34.72-11.49l-2.17-16.67a122.12,122.12,0,0,0-25.66-2.88Z"/><path class="c" d="M320.05,111.06a8.62,8.62,0,0,1-4-.9,7.5,7.5,0,0,1-4-5.91C311.3,98.54,315.9,90.6,324.37,83c10.87-9.77,28.72-15.82,29.47-16.07l5.78,5.44c-.16.59-4,14.48-15.2,24.51C337.22,103.35,327.14,111.06,320.05,111.06Z"/><path class="b" d="M355.27,71.2s-3.54,13.07-13.85,22.33c-8.87,8-16.84,13-21.37,13a4.12,4.12,0,0,1-1.92-.41c-3.88-2-1.07-10.55,9.24-19.8s27.9-15.15,27.9-15.15m-2.86-8.54c-.79.27-19.49,6.61-31.05,17-9.71,8.72-14.73,17.89-13.78,25.18a12,12,0,0,0,6.45,9.33,13,13,0,0,0,6,1.4c6.93,0,15.89-5,27.38-15.33,12.15-10.91,16.36-26,16.53-26.68L352.41,62.66Zm2.86,17.54h0Z"/><path class="d" d="M377,119.54c-7.87,0-15.27-9.49-16.85-21.59-1.64-12.62,8.05-26.29,8.46-26.87l6.52-.85c.54.45,13.41,11.19,15,23.81,1.68,12.94-3.68,24.34-12,25.42A9.87,9.87,0,0,1,377,119.54Z"/><path class="b" d="M372.29,73.71s12,9.9,13.46,20.91-3.05,19.72-8.08,20.38c-.21,0-.42,0-.64,0-4.93,0-11-7.13-12.39-17.67-1.43-11,7.65-23.66,7.65-23.66M378,66.76l-13,1.7c-1.14,1.59-11.1,16-9.26,30.07,1.89,14.54,11,25.51,21.31,25.51a13.49,13.49,0,0,0,1.8-.12c5.75-.75,10.69-5,13.57-11.66a36.28,36.28,0,0,0,2.27-18.8C392.84,79.34,379.53,68,378,66.76Z"/><path class="c" d="M428.94,96.81c-6.95,0-16.78-4.29-23.8-7.88-13.37-6.83-20.66-19.27-21-19.8l4.19-6.74c.79,0,19.59,1.33,32.6,8,10.13,5.18,16.62,11.68,17.36,17.39a7.49,7.49,0,0,1-2.39,6.74A10.16,10.16,0,0,1,428.94,96.81Z"/><path class="b" d="M388.08,66.88s18.51,1.2,30.84,7.51,17.25,13.86,14,16.77a5.87,5.87,0,0,1-4,1.15c-4.84,0-12.72-2.76-21.75-7.38-12.34-6.31-19.11-18.05-19.11-18.05m.58-9-8.38,13.48c.33.57,8.27,14.13,22.81,21.56,10.86,5.55,19.55,8.37,25.85,8.37a14.44,14.44,0,0,0,10-3.45,12,12,0,0,0,3.85-10.67c-1-7.29-8.15-14.88-19.77-20.82C409.19,59.3,389.49,58,388.66,57.9Z"/><path class="d" d="M416.93,61.85a116.57,116.57,0,0,1-24.61-2.76l-1.08-8.33c.66-.36,16.52-8.82,33.16-11A66.66,66.66,0,0,1,433,39.2c13.09,0,22.42,4.12,23.22,10.26.83,6.36-7,8.18-9.58,8.79-4.39,1-10.62,1.83-18.51,2.86l-.91.12A80.94,80.94,0,0,1,416.93,61.85Z"/><path class="b" d="M433,43.7c11.37,0,18.39,3.5,18.76,6.34.45,3.46-9.11,4.64-25.12,6.72a75.29,75.29,0,0,1-9.68.59,113.58,113.58,0,0,1-23.56-2.63S409,46.32,425,44.23a62.1,62.1,0,0,1,8-.53m0-9h0a70.29,70.29,0,0,0-9.15.61c-17.46,2.27-34,11.11-34.72,11.48l2.17,16.68a122.23,122.23,0,0,0,25.66,2.88,84.4,84.4,0,0,0,10.84-.66l.92-.12c8-1,14.33-1.87,18.95-2.94A25.54,25.54,0,0,0,454.92,60a11.06,11.06,0,0,0,5.73-11.07c-1.12-8.62-12-14.18-27.68-14.18Z"/><path class="d" d="M380.73,43.16c.16-.58,4-14.47,15.2-24.5C405,10.5,413.78,5.82,420,5.82a9.74,9.74,0,0,1,4.47,1,7.28,7.28,0,0,1,4,5.69c.85,6.53-6.32,14.49-12.49,20-10.87,9.76-28.72,15.81-29.47,16.07Z"/><path class="b" d="M420,10.32a5.38,5.38,0,0,1,2.42.5c3.88,2,.88,9.11-9.43,18.37s-27.9,15.15-27.9,15.15S388.62,31.26,398.93,22c8.56-7.69,16.42-11.69,21.06-11.69m0-9h0c-10,0-21.25,8.76-27.07,14-12.15,10.91-16.36,26-16.53,26.68l11.55,10.88c.79-.26,19.49-6.6,31.05-17,10.28-9.23,14.84-17.07,13.94-24a11.81,11.81,0,0,0-6.42-9.12A14.19,14.19,0,0,0,420,1.32Z"/><path class="d" d="M366.77,67.28c-9.63,0-16.63-4.11-17.43-10.22-.93-7.16,7.12-13.7,18.72-15.21a35.11,35.11,0,0,1,4.55-.3c9.63,0,16.64,4.1,17.43,10.21.51,3.87-1.62,7.75-5.82,10.63A30.14,30.14,0,0,1,371.33,67,35.26,35.26,0,0,1,366.77,67.28Z"/><path class="b" d="M372.61,46.05c7,0,12.48,2.51,13,6.29.58,4.48-6.06,9-14.83,10.18a32.27,32.27,0,0,1-4,.26c-7,0-12.47-2.52-13-6.3-.58-4.47,6.06-9,14.84-10.17a30.28,30.28,0,0,1,4-.26m0-9h0a38.66,38.66,0,0,0-5.13.34,34.57,34.57,0,0,0-14.86,5.33C347,46.6,344.15,52,344.88,57.64c1.12,8.59,9.71,14.14,21.89,14.14a40.7,40.7,0,0,0,5.14-.34,34.53,34.53,0,0,0,14.85-5.34c5.65-3.87,8.48-9.31,7.75-14.92-1.1-8.45-9.9-14.13-21.9-14.13Z"/><path class="d" d="M129.53,166.79c-.69-.64-16.91-15.9-23.34-33.11-5.48-14.67-6.75-24.78-3.78-30.05a8.29,8.29,0,0,1,5.72-4.16,9.18,9.18,0,0,1,1.67-.15c8.42,0,18.22,11.07,24.37,27.54,6.5,17.38,3,36.66,2.85,37.47Z"/><path class="b" d="M109.8,103.82c5.5,0,14.33,9,20.16,24.62,6.13,16.41,2.64,35.06,2.64,35.06s-16.06-15-22.19-31.39-6.85-27.2-1.45-28.21a4.6,4.6,0,0,1,.84-.08m0-9h0a13.84,13.84,0,0,0-2.5.23,12.7,12.7,0,0,0-8.81,6.37c-4.94,8.75-.38,23.51,3.49,33.84,6.79,18.18,23.76,34.15,24.48,34.82l15-4.92c.16-.86,3.87-21.33-3.06-39.87S120.25,94.82,109.8,94.82Z"/><path class="c" d="M121,172.58c-1-.09-25.09-2.44-44.35-11.56-18.7-8.86-25.69-12.17-27.09-17.49a6.8,6.8,0,0,1,1.1-5.73c2.35-3.33,7.52-5.24,14.2-5.24,5.18,0,13.78,1.15,25.31,6.61,19.36,9.17,34,25.24,34.6,25.92Z"/><path class="b" d="M64.81,137.06c5.83,0,13.79,1.63,23.39,6.18,18.77,8.89,33.17,24.86,33.17,24.86S97.3,165.84,78.53,157,51.61,144.18,54.28,140.4c1.31-1.85,4.95-3.34,10.53-3.34m0-9v0h0c-8.28,0-14.63,2.54-17.88,7.15a11.22,11.22,0,0,0-1.77,9.46c1.93,7.35,9.44,10.9,29.51,20.41s44.81,11.88,45.86,12l7.53-15c-.64-.7-15.85-17.41-36-27-9.73-4.61-19.15-7.05-27.24-7.05Z"/><path class="d" d="M52.54,201.46c-5.07,0-8.27-1.68-9.51-5-.59-1.59-.9-4.19,1-7.55,3.23-5.71,13.32-13.57,31.16-16.92a114.94,114.94,0,0,1,21.07-1.76A169.39,169.39,0,0,1,121,172.07l1.73,8.21c-.76.5-19,12.32-40,16.28-3,.56-5.86,1.12-8.52,1.63C64.47,200.09,57.44,201.46,52.54,201.46Z"/><path class="b" d="M96.25,174.74a165.5,165.5,0,0,1,24,1.77s-18,11.79-38.4,15.62C68.38,194.67,58.29,197,52.54,197c-2.94,0-4.74-.6-5.29-2.07-1.62-4.34,8.35-14.64,28.76-18.47a111.32,111.32,0,0,1,20.24-1.68m0-9v0a120.4,120.4,0,0,0-21.9,1.83c-16.18,3-29.3,10.37-34.25,19.14A13.34,13.34,0,0,0,38.82,198c2.57,6.89,9.7,7.92,13.72,7.92,5.33,0,12.54-1.4,22.52-3.35,2.65-.51,5.48-1.07,8.49-1.63,21.93-4.12,40.87-16.42,41.67-16.94l-3.47-16.41a173.15,173.15,0,0,0-25.5-1.89Z"/><path class="c" d="M100.63,238.58a13.75,13.75,0,0,1-5.9-1.37,10.6,10.6,0,0,1-6.13-6.94c-1.36-5.17,1.08-11.79,7.89-21.45,10.59-15,30.16-25.65,31-26.1L134.1,187c-.06.82-1.58,20.35-12.27,35.51C114.1,233.48,107.36,238.58,100.63,238.58Z"/><path class="b" d="M129.61,186.68s-1.36,18.94-11.46,33.25c-7.61,10.78-13.13,14.15-17.52,14.15a9.13,9.13,0,0,1-4-.94c-5-2.35-6.59-7.41,3.51-21.73s29.44-24.73,29.44-24.73m-4.27-7.92c-.86.47-21.33,11.6-32.52,27.47-7.66,10.84-10.3,18.61-8.57,25.18a15,15,0,0,0,8.55,9.87,18.35,18.35,0,0,0,7.83,1.8c10.93,0,19.43-10.25,24.87-18,11.41-16.17,13-36.91,13.09-37.79l-13.25-8.57Zm4.27,16.92Z"/><path class="d" d="M158.53,246.05c-10.57,0-16.34-12.18-19.77-21.34-6.49-17.38-3-36.66-2.85-37.47l7.5-2.46c.68.64,16.91,15.9,23.34,33.11,4.14,11.07,4.81,18.09,2.18,22.75a10.54,10.54,0,0,1-7.69,5.15A14,14,0,0,1,158.53,246.05Z"/><path class="b" d="M140.34,188.07s16.06,15,22.19,31.39,3.28,20.9-2.12,21.91a9.9,9.9,0,0,1-1.88.18c-4.88,0-10.12-3.89-15.55-18.41-6.13-16.41-2.64-35.07-2.64-35.07m6.14-6.58-15,4.93c-.16.86-3.87,21.33,3.06,39.87,3.89,10.41,10.61,24.26,24,24.26a19.52,19.52,0,0,0,3.54-.33,15,15,0,0,0,10.78-7.37c3.34-5.92,2.76-14.1-1.89-26.54-6.79-18.18-23.76-34.15-24.48-34.82Z"/><path class="c" d="M215.24,222.54c-5,0-12.24-3.49-24.23-9.27-2.45-1.17-5-2.43-7.83-3.74-19.35-9.18-34-25.24-34.59-25.92l3.77-7.49c1,.09,25.08,2.44,44.35,11.56,16.41,7.78,24.17,17.94,25.84,24.28,1,3.73,0,6.17-1,7.56A7.41,7.41,0,0,1,215.24,222.54Z"/><path class="b" d="M151.94,180.6s24.07,2.26,42.84,11.15,25.8,21.39,23.13,25.17a3,3,0,0,1-2.67,1.12c-4.89,0-15.15-5.48-30.13-12.58-18.77-8.89-33.17-24.86-33.17-24.86m.84-9-7.53,15c.64.7,15.85,17.41,36,27q4.14,2,7.79,3.74c12.57,6,20.16,9.71,26.19,9.71a11.81,11.81,0,0,0,10-4.93,13.38,13.38,0,0,0,1.63-11.29c-2.55-9.73-13.39-20.16-28.26-27.2-20-9.47-44.82-11.88-45.86-12Z"/><path class="c" d="M177.06,178.46a169.39,169.39,0,0,1-24.77-1.83l-1.74-8.21c.77-.5,19-12.32,40-16.28a76.62,76.62,0,0,1,14-1.39c12.63,0,22.27,4,24.56,10.1a6.81,6.81,0,0,1-.39,5.82c-2.7,4.79-10.31,6.21-30.64,10A114.94,114.94,0,0,1,177.06,178.46Z"/><path class="b" d="M204.6,155.25c12.2,0,19.12,3.88,20.35,7.18,1.62,4.34-7.24,6-27.65,9.85A111.4,111.4,0,0,1,177.06,174a165.5,165.5,0,0,1-24-1.77s18-11.79,38.4-15.63a71.9,71.9,0,0,1,13.18-1.31m0-9h0a80.41,80.41,0,0,0-14.84,1.47c-21.93,4.12-40.88,16.42-41.67,16.94l3.47,16.41a174.77,174.77,0,0,0,25.5,1.89,120.4,120.4,0,0,0,21.9-1.83c21.83-4.1,30-5.64,33.73-12.25a11.24,11.24,0,0,0,.69-9.6c-3-8-14-13-28.78-13Z"/><path class="d" d="M138.84,164.56c.06-.82,1.58-20.35,12.27-35.51C160,116.42,171,108.27,179,108.27a9.93,9.93,0,0,1,4.27.9,8.23,8.23,0,0,1,4.47,5.47c1.54,5.86-2.26,15.31-11.29,28.11-10.58,15-30.15,25.65-31,26.1Z"/><path class="b" d="M179,112.77a5.37,5.37,0,0,1,2.34.47c5,2.35,1.54,12.61-8.56,26.92s-29.44,24.73-29.44,24.73,1.36-18.93,11.46-33.25c8.74-12.38,18.51-18.87,24.2-18.87m0-9h0c-9.59,0-21.68,8.69-31.55,22.68-11.41,16.18-13,36.92-13.09,37.79l13.25,8.57c.86-.46,21.33-11.6,32.52-27.46,13.28-18.83,13.19-27.19,12-31.85a12.68,12.68,0,0,0-6.9-8.39,14.35,14.35,0,0,0-6.2-1.34Z"/><path class="c" d="M135,159.32c-.34-.56-8.47-14-6.86-26.4s7.52-20.36,15.11-20.36a9.61,9.61,0,0,1,1.31.09c6.76.87,12.7,8.56,10.74,23.78-1.61,12.44-12.87,23.33-13.35,23.79Z"/><path class="b" d="M143.29,117.06a6,6,0,0,1,.73,0c5,.65,8.27,7.74,6.85,18.74s-12,21.12-12,21.12-7.66-12.46-6.24-23.47c1.35-10.47,5.88-16.44,10.65-16.44m0-9h0c-10,0-17.67,9.53-19.58,24.29-1.77,13.76,6.55,27.78,7.5,29.33l13.89,1.79c1.32-1.26,12.92-12.7,14.7-26.46.87-6.75.34-12.86-1.55-17.69-2.47-6.32-7.23-10.38-13.07-11.14a15.11,15.11,0,0,0-1.89-.12Z"/><path class="c" d="M120.46,163.81c-.76-.25-18.61-6.28-29.5-16-6.17-5.53-13.35-13.48-12.51-20a7.3,7.3,0,0,1,4-5.7,9.76,9.76,0,0,1,4.48-1c6.2,0,15,4.67,24.06,12.81,11.19,10,15.06,23.9,15.22,24.49Z"/><path class="b" d="M86.94,125.56c4.64,0,12.5,4,21.06,11.66,10.32,9.25,13.88,22.32,13.88,22.32s-17.6-5.88-27.92-15.12-13.32-16.37-9.45-18.35a5.29,5.29,0,0,1,2.43-.51m0-9h0a14.05,14.05,0,0,0-6.53,1.5A11.79,11.79,0,0,0,74,127.19c-.89,6.89,3.68,14.72,14,23.93,11.57,10.37,30.28,16.7,31.07,17l11.53-10.9c-.17-.64-4.39-15.77-16.55-26.66-5.82-5.21-17.08-14-27.07-14Z"/><path class="d" d="M90,177.11a79.5,79.5,0,0,1-10.16-.61l-.91-.12c-7.89-1-14.12-1.82-18.51-2.84-2.57-.6-10.41-2.42-9.59-8.77.8-6.16,10.15-10.29,23.28-10.29a65.66,65.66,0,0,1,8.5.56c16.65,2.15,32.51,10.59,33.18,11l-1.08,8.34A117.53,117.53,0,0,1,90,177.11Z"/><path class="b" d="M74.11,159a63,63,0,0,1,7.93.53c16,2.07,31.62,10.45,31.62,10.45A113.46,113.46,0,0,1,90,172.61a74,74,0,0,1-9.58-.58c-16-2.06-25.57-3.23-25.12-6.69.36-2.85,7.4-6.36,18.81-6.37m0-9h0c-15.74,0-26.63,5.58-27.74,14.21-.57,4.45,1.57,8.58,5.75,11.07a25.58,25.58,0,0,0,7.28,2.66c4.61,1.07,10.94,1.89,19,2.92l.91.12a84.75,84.75,0,0,0,10.73.65,122.33,122.33,0,0,0,25.77-2.91L117.92,162c-.7-.38-17.27-9.2-34.73-11.45a71,71,0,0,0-9.08-.6Z"/><path class="c" d="M78.18,212.07a10.1,10.1,0,0,1-7-2.29A7.49,7.49,0,0,1,68.8,203c.74-5.71,7.22-12.22,17.34-17.4,13-6.67,31.8-8,32.6-8l4.19,6.74c-.3.53-7.58,13-20.94,19.82C95,207.78,85.13,212.07,78.18,212.07Z"/><path class="b" d="M119,182.1s-6.76,11.75-19.09,18.07c-9,4.63-16.92,7.4-21.76,7.4a5.86,5.86,0,0,1-4-1.14c-3.24-2.91,1.66-10.47,14-16.79S119,182.1,119,182.1m-.59-9c-.83.06-20.53,1.42-34.36,8.51-11.6,6-18.8,13.55-19.74,20.84a12,12,0,0,0,3.86,10.66,14.44,14.44,0,0,0,10,3.44c6.3,0,15-2.82,25.87-8.39,14.52-7.45,22.45-21,22.78-21.59l-8.39-13.47Zm.59,18h0Z"/><path class="d" d="M130.15,234.71a9.55,9.55,0,0,1-1.2-.08c-4.14-.53-7.79-3.81-10-9a31.79,31.79,0,0,1-2-16.43c1.63-12.62,14.48-23.37,15-23.82l6.51.84c.42.58,10.12,14.24,8.49,26.86C145.43,225.22,138,234.71,130.15,234.71Z"/><path class="b" d="M134.85,188.87s9.1,12.65,7.68,23.65c-1.36,10.55-7.44,17.69-12.38,17.69-.21,0-.42,0-.63,0-5-.65-9.52-9.36-8.1-20.37s13.43-20.93,13.43-20.93m-5.73-6.94c-1.51,1.25-14.8,12.59-16.63,26.72a36.33,36.33,0,0,0,2.3,18.79c2.88,6.66,7.83,10.91,13.58,11.65a13.31,13.31,0,0,0,1.78.12c10.27,0,19.43-11,21.31-25.53,1.82-14.13-8.16-28.48-9.3-30.06l-13-1.69Z"/><path class="c" d="M187.11,226.12c-7.09,0-17.17-7.7-24.38-14.15-11.18-10-15.06-23.91-15.22-24.49l5.77-5.45c.75.25,18.6,6.28,29.49,16,8.47,7.58,13.09,15.52,12.35,21.24a7.48,7.48,0,0,1-4,5.9A8.57,8.57,0,0,1,187.11,226.12Z"/><path class="b" d="M151.85,186.29s17.6,5.88,27.92,15.13,13.14,17.8,9.26,19.79a4.15,4.15,0,0,1-1.92.41c-4.53,0-12.51-5.06-21.38-13-10.32-9.25-13.88-22.33-13.88-22.33m2.85-8.53-11.53,10.9c.17.64,4.39,15.77,16.55,26.66,11.5,10.3,20.46,15.3,27.39,15.3a13.12,13.12,0,0,0,6-1.4,12,12,0,0,0,6.44-9.34c.94-7.29-4.09-16.46-13.81-25.17-11.57-10.36-30.28-16.69-31.07-17Z"/><path class="d" d="M211.87,192.89c-4.59,0-11.32-.87-19.84-2l-.91-.12c-16.65-2.15-32.51-10.59-33.18-11l1.08-8.34a116.88,116.88,0,0,1,24.71-2.78,79.5,79.5,0,0,1,10.16.61c16.83,2.17,29.25,9.85,28.27,17.48C221.64,190.84,218.18,192.89,211.87,192.89Z"/><path class="b" d="M183.73,173.23a75.63,75.63,0,0,1,9.58.57c16,2.07,24.83,9,24.38,12.44-.2,1.55-2.22,2.15-5.82,2.15-4.45,0-11.33-.91-20.18-2-16-2.07-31.62-10.46-31.62-10.46a113.87,113.87,0,0,1,23.66-2.65m0-9h0a122.7,122.7,0,0,0-25.77,2.9l-2.15,16.68c.7.38,17.27,9.2,34.73,11.45l.91.12c8.68,1.12,15.54,2,20.42,2a21.37,21.37,0,0,0,7.15-1,11,11,0,0,0,7.6-9c1.35-10.47-12.17-19.94-32.16-22.52a82.93,82.93,0,0,0-10.73-.65Z"/><path class="d" d="M150.8,161.49c.3-.53,7.58-13,20.94-19.82,8.51-4.37,16.45-6.77,22.37-6.77,3.54,0,6.32.87,8.24,2.59a7.27,7.27,0,0,1,2.42,6.53c-.84,6.53-9.8,12.4-17.18,16.18-13,6.67-31.8,8-32.6,8Z"/><path class="b" d="M194.11,139.4c2.37,0,4.17.49,5.23,1.44,3.25,2.91-1.47,9-13.8,15.36s-30.84,7.53-30.84,7.53,6.76-11.74,19.09-18.06c8.27-4.24,15.49-6.27,20.32-6.27m0-9h0c-6.62,0-15.29,2.58-24.43,7.26-14.52,7.45-22.45,21-22.78,21.58l8.39,13.48c.83-.06,20.53-1.43,34.36-8.51,12.29-6.31,18.7-12.72,19.59-19.61a11.84,11.84,0,0,0-3.89-10.46c-2.77-2.48-6.55-3.74-11.24-3.74Z"/><path class="d" d="M140.15,182.41a36.59,36.59,0,0,1-4.52-.29,30,30,0,0,1-12.89-4.58c-4.21-2.87-6.34-6.75-5.84-10.62.79-6.12,7.81-10.23,17.46-10.23a36.59,36.59,0,0,1,4.52.29,30.13,30.13,0,0,1,12.89,4.58c4.21,2.88,6.34,6.75,5.84,10.62C156.82,178.3,149.8,182.41,140.15,182.41Z"/><path class="b" d="M134.36,161.19a29.83,29.83,0,0,1,3.94.26c8.78,1.13,15.42,5.68,14.85,10.15-.49,3.79-6,6.31-13,6.31a29.83,29.83,0,0,1-3.94-.26c-8.78-1.13-15.42-5.67-14.85-10.15.49-3.79,6-6.31,13-6.31m0-9h0c-12,0-20.83,5.69-21.92,14.16-1.28,9.87,8.24,18.37,22.62,20.23a39.89,39.89,0,0,0,5.09.33c12,0,20.83-5.69,21.92-14.16.73-5.6-2.1-11-7.76-14.91a34.69,34.69,0,0,0-14.86-5.32,39.89,39.89,0,0,0-5.09-.33Z"/><path class="d" d="M230,806.44c-.76-.55-18.8-13.61-27.38-29.85-7.32-13.85-9.87-23.72-7.6-29.32a8.25,8.25,0,0,1,5.14-4.86,9.28,9.28,0,0,1,2.91-.45c8.14,0,18.75,9.76,26.43,24.28,8.66,16.41,7.67,36,7.62,36.79Z"/><path class="b" d="M203.08,746.46c5.57,0,15,7.78,22.44,21.88,8.18,15.49,7.11,34.44,7.11,34.44s-17.85-12.8-26-28.29-10.28-26.1-5-27.8a5,5,0,0,1,1.53-.23m0-9a14,14,0,0,0-4.31.67,12.7,12.7,0,0,0-7.92,7.44c-3.78,9.32,2.64,23.37,7.79,33.12,9.07,17.17,27.94,30.83,28.74,31.4l14.23-6.8c0-.88,1.11-21.65-8.14-39.15-8.69-16.45-20.34-26.68-30.39-26.68Z"/><path class="c" d="M219.21,813.31c-7.36,0-26.24-.56-42.44-5.83-19.68-6.39-27-8.78-29.11-13.87a6.81,6.81,0,0,1,.36-5.82c2.42-4.6,9.42-7.34,18.7-7.34a67.49,67.49,0,0,1,20.67,3.64c20.37,6.62,36.92,20.67,37.62,21.27l-2.77,7.91S221.14,813.31,219.21,813.31Z"/><path class="b" d="M166.72,785A63.2,63.2,0,0,1,186,788.37c19.75,6.41,36.08,20.41,36.08,20.41s-1,0-2.87,0c-7,0-25.4-.52-41.05-5.61C158.4,796.79,149.83,794,152,789.89c1.33-2.52,6.41-4.94,14.72-4.94m0-9h0c-11.15,0-19.41,3.55-22.68,9.74a11.23,11.23,0,0,0-.55,9.61c2.86,7,10.76,9.6,31.89,16.46,16.81,5.46,36.25,6,43.83,6,1.93,0,3.06,0,3.18,0l5.55-15.83c-.73-.62-17.94-15.24-39.16-22.13A72.14,72.14,0,0,0,166.72,776Z"/><path class="d" d="M155.57,850.85c-4.54,0-6.61-2.13-7.55-3.91-.8-1.5-1.44-4,0-7.61,2.46-6.08,11.47-15.17,28.74-20.78,16.2-5.26,35.08-5.83,42.44-5.83,1.93,0,3,0,3,0l2.77,7.92c-.7.59-17.25,14.65-37.63,21.27l-8.23,2.71C167.93,848.39,160.52,850.85,155.57,850.85Z"/><path class="b" d="M219.21,817.22c1.83,0,2.87,0,2.87,0s-16.33,14-36.08,20.41c-14.7,4.77-25.15,8.68-30.43,8.68-1.82,0-3-.46-3.57-1.51-2.17-4.1,6.4-15.59,26.16-22,15.65-5.08,34.07-5.61,41.05-5.61m0-9h0c-7.58,0-27,.59-43.83,6-15.66,5.09-27.74,14-31.52,23.36A13.34,13.34,0,0,0,144,849c1.24,2.36,4.39,6.31,11.53,6.31,5.68,0,13.37-2.55,25-6.42,2.56-.85,5.3-1.76,8.21-2.7,21.22-6.89,38.43-21.52,39.16-22.14l-5.55-15.82c-.12,0-1.25,0-3.18,0Z"/><path class="c" d="M208.86,881.44a14.25,14.25,0,0,1-4.36-.71,10.58,10.58,0,0,1-7-6.1c-2-5-.45-11.83,5.08-22.28,8.58-16.24,26.62-29.3,27.38-29.85l7.12,3.4c0,.82,1,20.39-7.62,36.8C222.74,875.49,216.18,881.44,208.86,881.44Z"/><path class="b" d="M232.63,826.15s1.07,19-7.11,34.44c-6.69,12.66-12.06,16.35-16.66,16.35a9.63,9.63,0,0,1-3-.49c-5.22-1.7-7.48-6.51.71-22s26-28.3,26-28.3m-5.25-7.31c-.8.58-19.67,14.24-28.74,31.4-6.2,11.74-7.83,19.78-5.27,26.08a15,15,0,0,0,9.74,8.69,18.64,18.64,0,0,0,5.75.93c12,0,19.82-12.07,24.61-21.14,9.25-17.5,8.19-38.28,8.14-39.15l-14.23-6.81Z"/><path class="d" d="M267.21,881.44c-7.32,0-13.88-6-20.63-18.74-8.67-16.41-7.67-36-7.63-36.8l7.12-3.4c.76.55,18.8,13.61,27.38,29.85,5.53,10.45,7.09,17.33,5.08,22.28a10.56,10.56,0,0,1-7,6.1A14.25,14.25,0,0,1,267.21,881.44Z"/><path class="b" d="M243.44,826.15s17.85,12.81,26,28.3,5.93,20.3.71,22a9.63,9.63,0,0,1-3,.49c-4.6,0-10-3.69-16.66-16.35-8.18-15.48-7.11-34.44-7.11-34.44m5.25-7.31-14.23,6.81c-.05.87-1.11,21.65,8.14,39.15,4.79,9.07,12.56,21.14,24.61,21.14A18.64,18.64,0,0,0,273,885a15,15,0,0,0,9.74-8.69c2.56-6.3.93-14.34-5.27-26.08-9.07-17.16-27.94-30.82-28.74-31.4Z"/><path class="c" d="M320.5,850.85c-4.95,0-12.36-2.46-23.58-6.19L288.69,842c-20.38-6.62-36.93-20.68-37.63-21.27l2.77-7.92s1.11,0,3,0c7.37,0,26.24.57,42.44,5.83,17.27,5.61,26.28,14.7,28.74,20.78,1.45,3.57.81,6.11,0,7.61C327.11,848.72,325,850.85,320.5,850.85Z"/><path class="b" d="M256.86,817.22c7,0,25.4.53,41.05,5.61,19.76,6.42,28.33,17.91,26.17,22-.56,1-1.76,1.51-3.58,1.51-5.28,0-15.73-3.91-30.42-8.68C270.32,831.25,254,817.26,254,817.26s1,0,2.87,0m0-9h0c-1.93,0-3.06,0-3.18,0l-5.55,15.82c.73.62,17.95,15.25,39.17,22.14,2.9.94,5.64,1.85,8.21,2.7,11.63,3.87,19.31,6.42,25,6.42,7.14,0,10.29-4,11.53-6.31a13.34,13.34,0,0,0,.18-11.41c-3.78-9.32-15.86-18.27-31.52-23.36-16.81-5.46-36.25-6-43.83-6Z"/><path class="c" d="M256.86,813.31c-1.93,0-3,0-3,0l-2.77-7.91c.7-.6,17.25-14.65,37.63-21.27a67.38,67.38,0,0,1,20.66-3.64c9.28,0,16.28,2.74,18.7,7.34a6.81,6.81,0,0,1,.36,5.82c-2.07,5.09-9.43,7.48-29.11,13.87C283.1,812.75,264.23,813.31,256.86,813.31Z"/><path class="b" d="M309.35,785c8.31,0,13.4,2.42,14.73,4.94,2.16,4.1-6.41,6.9-26.17,13.31-15.65,5.09-34.07,5.61-41.05,5.61-1.83,0-2.87,0-2.87,0s16.33-14,36.09-20.41A63.1,63.1,0,0,1,309.35,785m0-9h0a72,72,0,0,0-22.05,3.86c-21.22,6.89-38.44,21.51-39.17,22.13l5.55,15.83c.12,0,1.25,0,3.18,0,7.58,0,27-.59,43.83-6,21.13-6.86,29-9.43,31.89-16.46a11.23,11.23,0,0,0-.55-9.61c-3.27-6.19-11.53-9.74-22.68-9.74Z"/><path class="d" d="M239,803c0-.82-1-20.38,7.63-36.79C254.25,751.72,264.86,742,273,742a9.28,9.28,0,0,1,2.91.45,8.25,8.25,0,0,1,5.14,4.86c2.28,5.6-.28,15.47-7.6,29.32-8.58,16.24-26.62,29.3-27.38,29.85Z"/><path class="b" d="M273,746.46a4.94,4.94,0,0,1,1.52.23c5.23,1.7,3.14,12.31-5,27.8s-26,28.29-26,28.29-1.07-18.95,7.11-34.44c7.45-14.1,16.88-21.87,22.45-21.88m0-9h0c-10.05,0-21.7,10.23-30.39,26.68-9.25,17.5-8.19,38.27-8.14,39.15l14.23,6.8c.8-.57,19.67-14.23,28.74-31.4,10.76-20.37,9.6-28.65,7.79-33.12a12.7,12.7,0,0,0-7.92-7.44,14,14,0,0,0-4.3-.67Z"/><path class="c" d="M234.52,798.32c-.42-.51-10.2-12.76-10.2-25.3,0-15.35,6.88-22.22,13.7-22.22s13.69,6.87,13.69,22.22c0,12.54-9.78,24.79-10.19,25.3Z"/><path class="b" d="M238,755.31c5.07,0,9.19,6.61,9.19,17.71S238,795.49,238,795.49s-9.2-11.37-9.2-22.47,4.12-17.71,9.2-17.71m0-9c-9.06,0-18.2,8.26-18.2,26.71,0,13.88,10.05,26.71,11.2,28.13h14c1.14-1.42,11.19-14.25,11.19-28.13,0-18.45-9.14-26.71-18.19-26.71Z"/><path class="c" d="M220.62,804.64c-.78-.15-19.26-3.85-31.3-12.13-6.83-4.69-15-11.67-15-18.25a7.28,7.28,0,0,1,3.24-6.16,10.65,10.65,0,0,1,6.13-1.68c6.05,0,14.69,3.55,23.69,9.74,12.37,8.5,18,21.78,18.23,22.34Z"/><path class="b" d="M183.72,770.92c4.77,0,12.46,3,21.15,9,11.41,7.84,16.62,20.36,16.62,20.36s-18.21-3.58-29.63-11.43-15.31-14.53-11.72-17a6.3,6.3,0,0,1,3.58-.89m0-9a15,15,0,0,0-8.68,2.47,11.82,11.82,0,0,0-5.19,9.87c0,7,5.53,14.13,16.92,22,12.8,8.8,32.16,12.68,33,12.84l10.05-12.29c-.26-.61-6.38-15.07-19.84-24.32-9.87-6.79-19.2-10.53-26.24-10.53Z"/><path class="d" d="M180.15,822.42c-8.22,0-13.92,0-18.1-.47-2.56-.28-10.36-1.1-10.36-7.45,0-7.69,13.3-13.71,30.28-13.71,16.78,0,33.6,6.34,34.3,6.61v8.41c-.7.27-17.52,6.61-34.3,6.61Z"/><path class="b" d="M182,805.29c16.14,0,32.7,6.31,32.7,6.31s-16.56,6.32-32.7,6.32h-1.81c-15.06,0-24-.06-24-3.42s9.63-9.21,25.78-9.21m0-9c-20.15,0-34.78,7.66-34.78,18.21a11.07,11.07,0,0,0,7,10.17,24.37,24.37,0,0,0,7.43,1.75c4.4.47,10.21.5,18.58.5H182c17.6,0,35.17-6.63,35.91-6.91V803.2c-.74-.29-18.31-6.91-35.91-6.91Z"/><path class="c" d="M183,858a9.18,9.18,0,0,1-5.32-1.5,7.48,7.48,0,0,1-3.25-6.38c0-5.76,5.6-13,15-19.48,12.05-8.28,30.52-12,31.3-12.13l5,6.14c-.24.56-5.86,13.84-18.23,22.34C200.17,852.06,190,858,183,858Z"/><path class="b" d="M221.55,823s-5.2,12.52-16.62,20.36c-9.19,6.32-17.27,10.22-22,10.22a4.88,4.88,0,0,1-2.78-.71c-3.59-2.47.31-10.59,11.73-18.44S221.55,823,221.55,823m-1.73-8.83c-.82.16-20.18,4-33,12.84-10.75,7.39-16.92,15.84-16.92,23.19a12,12,0,0,0,5.2,10.09,13.61,13.61,0,0,0,7.87,2.29c6.55,0,15.65-4,27.05-11.8,13.45-9.25,19.58-23.71,19.83-24.32l-10-12.29ZM221.55,832h0Z"/><path class="d" d="M238.11,873.79c-8.35,0-15.14-10.61-15.14-23.66,0-12.73,11.37-25,11.85-25.55h6.57c.49.51,11.86,12.82,11.86,25.55C253.25,863.18,246.46,873.79,238.11,873.79Z"/><path class="b" d="M238.11,827.65s10.64,11.38,10.64,22.48-5.57,19.16-10.64,19.16-10.64-8.07-10.64-19.16,10.64-22.48,10.64-22.48m6.57-6.15H231.53c-1.33,1.43-13.06,14.39-13.06,28.63a36.32,36.32,0,0,0,4.68,18.34c3.71,6.24,9.16,9.82,15,9.82s11.24-3.58,15-9.82a36.32,36.32,0,0,0,4.68-18.34c0-14.24-11.73-27.2-13.07-28.63Z"/><path class="c" d="M293.21,858c-7,0-17.19-6-24.5-11-12.37-8.5-18-21.78-18.23-22.34l5-6.15c.78.16,19.26,3.86,31.31,12.14,9.37,6.44,15,13.72,15,19.48a7.49,7.49,0,0,1-3.24,6.38A9.25,9.25,0,0,1,293.21,858Z"/><path class="b" d="M254.64,822.92s18.2,3.58,29.62,11.42,15.31,16,11.72,18.45a4.83,4.83,0,0,1-2.77.71c-4.68,0-12.76-3.91-21.95-10.22-11.42-7.85-16.62-20.36-16.62-20.36m1.73-8.83-10,12.29c.25.61,6.38,15.07,19.83,24.32,11.4,7.83,20.5,11.8,27,11.8a13.54,13.54,0,0,0,7.87-2.3,12,12,0,0,0,5.19-10.08c0-7.35-6.16-15.8-16.91-23.19-12.81-8.8-32.17-12.68-33-12.84Z"/><path class="d" d="M294.16,822.36c-16.79,0-33.6-6.34-34.31-6.61v-8.41c.71-.27,17.52-6.62,34.31-6.62,17,0,30.27,6,30.27,13.72,0,6.35-7.8,7.17-10.37,7.44-4.18.45-9.88.48-18.11.48Z"/><path class="b" d="M294.16,805.22c16.14,0,25.77,5.73,25.77,9.22s-8.91,3.42-24,3.42h-1.81c-16.15,0-32.7-6.32-32.7-6.32s16.55-6.32,32.7-6.32m0-9c-17.61,0-35.17,6.63-35.91,6.91V820c.74.28,18.3,6.91,35.91,6.91H296c8.36,0,14.17,0,18.57-.5a24.37,24.37,0,0,0,7.43-1.75,11.07,11.07,0,0,0,7-10.17c0-10.56-14.62-18.22-34.77-18.22Z"/><path class="d" d="M250.42,798.45c.23-.56,5.85-13.83,18.23-22.34,9-6.18,17.64-9.73,23.69-9.73a10.57,10.57,0,0,1,6.13,1.68,7.27,7.27,0,0,1,3.24,6.16c0,6.58-8.14,13.55-15,18.25-12,8.28-30.52,12-31.3,12.13Z"/><path class="b" d="M292.34,770.88a6.3,6.3,0,0,1,3.58.88c3.59,2.47-.31,9.15-11.72,17s-29.63,11.42-29.63,11.42,5.21-12.51,16.62-20.36c8.69-6,16.38-8.94,21.15-8.94m0-9h0c-7,0-16.37,3.74-26.24,10.52-13.46,9.25-19.58,23.71-19.84,24.33L256.31,809c.82-.16,20.18-4,33-12.84,11.39-7.82,16.92-15,16.92-21.95a11.8,11.8,0,0,0-5.19-9.87,15,15,0,0,0-8.67-2.47Z"/><path class="d" d="M238,820.85c-11.7,0-20.53-5.44-20.53-12.67s8.83-12.67,20.53-12.67,20.52,5.45,20.52,12.67S249.72,820.85,238,820.85Z"/><path class="b" d="M238,800c8.85,0,16,3.66,16,8.17s-7.17,8.17-16,8.17-16-3.65-16-8.17,7.18-8.17,16-8.17m0-9c-14.5,0-25,7.22-25,17.17s10.53,17.17,25,17.17,25-7.22,25-17.17S252.52,791,238,791Z"/><path class="d" d="M76.81,842.58c-.46-.49-11.38-12-15.26-24.6-5.06-16.38-2.21-20.81-1.27-22.27a7.12,7.12,0,0,1,5.13-3.28,7.66,7.66,0,0,1,1-.06C73,792.37,80,800.88,84,813.55s.63,26.43.49,27Z"/><path class="b" d="M66.38,796.87c3.83,0,9.77,6.7,13.27,18,3.61,11.71.42,24.59.42,24.59s-10.61-11.11-14.22-22.82-3.68-19.27.13-19.76l.4,0m0-9h0a11.13,11.13,0,0,0-1.53.1,11.53,11.53,0,0,0-8.34,5.31c-2.12,3.28-4.34,9.56.75,26,4.12,13.34,15.07,25.08,16.31,26.37l15.24-4c.39-1.57,3.68-15.71-.55-29.42-4.57-14.79-13.16-24.35-21.87-24.35Z"/><path class="c" d="M71.36,846.67c-.71-.11-17.65-2.76-30.94-10-13.09-7.16-18-9.84-18.88-14.23a6.07,6.07,0,0,1,1.27-5.06c1.86-2.35,5.35-3.64,9.81-3.64,4,0,10.59,1,19.43,5.85,13.38,7.32,23.1,19.33,23.5,19.84Z"/><path class="b" d="M32.62,818.22c4.17,0,10.1,1.38,17.27,5.3,12.74,7,22.15,18.7,22.15,18.7s-16.72-2.55-29.46-9.52-18.27-10-16.25-12.54c.88-1.11,3.06-1.94,6.29-1.94m0-9h0c-5.86,0-10.6,1.9-13.33,5.33a10.66,10.66,0,0,0-2.16,8.76c1.3,6.44,6.7,9.39,21.13,17.29,14,7.64,31.68,10.41,32.42,10.52l8.38-14.53c-.43-.53-10.69-13.22-24.85-21-9.68-5.29-17.08-6.4-21.59-6.4Z"/><path class="d" d="M23.92,864.11c-1.86,0-7.52,0-9-4.86a7.42,7.42,0,0,1,1.15-6.36c3.48-5.4,12.67-9.78,23.41-11.16a73,73,0,0,1,9.3-.56,117.94,117.94,0,0,1,23.17,2.49L73.19,852c-.57.33-14,8-29.12,9.92l-6,.79A121.1,121.1,0,0,1,23.92,864.11Z"/><path class="b" d="M48.76,845.68a114.51,114.51,0,0,1,22.18,2.37s-13,7.5-27.44,9.35c-8.72,1.12-15.43,2.21-19.58,2.21-2.72,0-4.34-.46-4.72-1.69-.95-3.09,6.43-9.88,20.84-11.73a68.71,68.71,0,0,1,8.72-.51m0-9h0a78.38,78.38,0,0,0-9.87.58c-12.19,1.57-22.39,6.62-26.62,13.19a12,12,0,0,0-1.67,10.13,11.07,11.07,0,0,0,7.19,7.17,18.68,18.68,0,0,0,6.13.86,123.67,123.67,0,0,0,14.75-1.49l6-.79c16-2.05,30.2-10.13,30.79-10.48l-2.51-16.58a123.9,123.9,0,0,0-24.16-2.59Z"/><path class="c" d="M55.23,892A10.78,10.78,0,0,1,50,890.58a8.74,8.74,0,0,1-4.68-6c-.82-4.1,1.23-9,6.65-15.77,8.2-10.29,22.57-17.06,23.18-17.34l6.36,4.66c-.08.59-2,14.52-10.29,25C65.3,888.5,60.22,892,55.23,892Z"/><path class="b" d="M77,855.53s-1.72,13.17-9.35,22.75c-5.53,7-9.44,9.18-12.46,9.18a6.27,6.27,0,0,1-3.08-.83c-3.37-1.84-4.3-5.44,3.33-15S77,855.53,77,855.53m-3.8-8.15c-1.62.75-16.1,7.69-24.8,18.62-4.52,5.68-8.95,12.43-7.54,19.46a13.1,13.1,0,0,0,6.93,9.07,15.28,15.28,0,0,0,7.4,1.93c8.5,0,15.2-7.18,19.5-12.57,8.93-11.22,11-25.59,11.23-27.19l-12.72-9.32ZM77,864.53Z"/><path class="d" d="M95.39,899.53c-8.64,0-12.58-9.52-14.79-16.68-3.94-12.75-.64-26.42-.5-27l7.63-2c.46.48,11.38,12,15.26,24.6,2.57,8.32,2.71,13.59.45,17.1a8.75,8.75,0,0,1-6.54,3.9A13,13,0,0,1,95.39,899.53Z"/><path class="b" d="M84.47,856.94s10.61,11.11,14.22,22.82,1.45,14.72-2.36,15.21a7.54,7.54,0,0,1-.94.06c-3.53,0-7.17-2.76-10.49-13.5-3.62-11.71-.43-24.59-.43-24.59M91,850.72l-15.24,4c-.39,1.57-3.68,15.71.56,29.41C77.81,889.09,82.43,904,95.39,904a16.39,16.39,0,0,0,2.08-.14,13.12,13.12,0,0,0,9.76-5.92c3.87-6,2.21-13.93.06-20.87C103.17,863.75,92.22,852,91,850.72Z"/><path class="c" d="M135.8,885.41c-3.89,0-8.77-2.72-17.63-7.64l-5.3-2.93c-13.38-7.31-23.1-19.33-23.51-19.83l4.19-7.27c.72.11,17.66,2.76,31,10C134,863,141,870.39,142.23,876.69A7.38,7.38,0,0,1,141,883,6.45,6.45,0,0,1,135.8,885.41Z"/><path class="b" d="M92.87,852.19s16.72,2.56,29.47,9.52,17.14,16,15.12,18.52a2,2,0,0,1-1.66.68c-3.32,0-10.35-4.32-20.77-10-12.75-7-22.16-18.7-22.16-18.7m1.36-8.9-8.38,14.53c.43.54,10.7,13.23,24.86,21,1.87,1,3.63,2,5.27,2.91,9.52,5.29,14.77,8.21,19.82,8.21a10.88,10.88,0,0,0,8.71-4.08,12,12,0,0,0,2.13-10c-1.54-7.66-9.2-16.08-20-22-14-7.64-31.68-10.41-32.43-10.53Z"/><path class="c" d="M116.16,853.24A117.94,117.94,0,0,1,93,850.75l-1.26-8.29c.56-.32,14-8,29.12-9.91a56.86,56.86,0,0,1,7.33-.49c10.87,0,19,3.56,20.71,9.08a6.09,6.09,0,0,1-.67,5.17c-2.42,3.77-8,4.48-22.77,6.38A74.66,74.66,0,0,1,116.16,853.24Z"/><path class="b" d="M128.18,836.56c10.1,0,15.61,3.34,16.41,5.91.95,3.09-5.3,3.9-19.71,5.75a68.72,68.72,0,0,1-8.72.52A114.22,114.22,0,0,1,94,846.36s13-7.5,27.45-9.35a53.81,53.81,0,0,1,6.76-.45m0-9v0h0a62.29,62.29,0,0,0-7.91.53c-16,2-30.19,10.13-30.78,10.47L92,855.14a122.48,122.48,0,0,0,24.16,2.6,78.3,78.3,0,0,0,9.87-.59c16.31-2.09,22.42-2.88,26-8.4a10.68,10.68,0,0,0,1.18-8.94c-2.34-7.56-11.92-12.25-25-12.25Z"/><path class="d" d="M83,840.29c.08-.59,2-14.52,10.29-25,6.83-8.57,14.83-13.9,20.87-13.9a8.36,8.36,0,0,1,4.09,1,7.06,7.06,0,0,1,3.58,4.92c.34,1.7,1.39,6.87-9.29,20.27C104.38,837.9,90,844.67,89.4,845Z"/><path class="b" d="M114.2,805.92a4,4,0,0,1,1.93.43c3.37,1.85.56,8.87-7.07,18.45S87.5,840.87,87.5,840.87s1.72-13.16,9.35-22.74c6.43-8.08,13.32-12.21,17.35-12.21m0-9h0c-7.49,0-16.61,5.83-24.39,15.6-8.93,11.22-11,25.58-11.23,27.19L91.3,849c1.63-.76,16.1-7.7,24.8-18.62,10.74-13.49,11-20.14,10.18-24a11.53,11.53,0,0,0-5.83-8,12.89,12.89,0,0,0-6.25-1.54Z"/><path class="c" d="M80.75,837.29c-.57-1.06-5.54-10.67-3.86-19.6C78.6,808.61,83.31,803,89.18,803a8.37,8.37,0,0,1,1.58.15c3.38.64,6,3.23,7.31,7.1a23.75,23.75,0,0,1,.3,11.52c-1.68,8.93-9.82,16.07-10.74,16.85Z"/><path class="b" d="M89.18,807.47a3.81,3.81,0,0,1,.75.07c3.49.66,5.46,5.74,4,13.37s-9.23,14.25-9.23,14.25-4.85-9-3.41-16.64c1.34-7.08,4.62-11,7.87-11m0-9h0c-6.4,0-14.15,4.83-16.71,18.39-2,10.45,3.67,21.35,4.32,22.56L90.55,842c1-.89,10.27-9,12.24-19.44,2.74-14.52-3.65-22.46-11.19-23.88a13.14,13.14,0,0,0-2.42-.23Z"/><path class="c" d="M71.07,840.45c-.52-.21-13-5.25-20.4-12.7-6.27-6.31-9.06-11.59-8.29-15.68a6.5,6.5,0,0,1,3.82-4.81,7.88,7.88,0,0,1,3.22-.64c4.74,0,11.21,3.76,17.73,10.33a40.75,40.75,0,0,1,10,18.39Z"/><path class="b" d="M49.42,811.12c3.21,0,8.69,3.12,14.54,9a36.19,36.19,0,0,1,8.78,16.15s-12-4.82-18.87-11.69-8.64-12-5.86-13.2a3.41,3.41,0,0,1,1.41-.26m0-9h0a12.28,12.28,0,0,0-5,1A10.93,10.93,0,0,0,38,811.23c-1.08,5.72,2,12.16,9.52,19.69,7.92,8,20.51,13.14,21.92,13.71l12.15-10.22a44.89,44.89,0,0,0-11.21-20.63c-4.32-4.36-12.8-11.66-20.92-11.66Z"/><path class="d" d="M53.93,848.71a62.41,62.41,0,0,1-11.47-1l-.64-.12c-5.5-1-9.85-1.86-12.94-2.77-5.53-1.63-8-4.34-7.28-8.06.86-4.57,6.87-7.41,15.68-7.41a46,46,0,0,1,8.48.83c11.78,2.22,22.72,8.89,23.18,9.17l-1.56,8.26A82.57,82.57,0,0,1,53.93,848.71Z"/><path class="b" d="M37.28,833.87a42.23,42.23,0,0,1,7.65.75c11.1,2.1,21.65,8.59,21.65,8.59a79.93,79.93,0,0,1-12.65,1,58.65,58.65,0,0,1-10.64-.9C32.19,841.22,25.57,840,26,837.62c.34-1.79,4.53-3.75,11.26-3.75m0-9h0C26,824.87,18.49,829,17.18,836a10.5,10.5,0,0,0,4.7,10.7,20.15,20.15,0,0,0,5.73,2.51c3.31,1,7.75,1.81,13.38,2.87l.63.12a66.28,66.28,0,0,0,12.31,1.06,88.3,88.3,0,0,0,14.25-1.15l3.12-16.52c-.49-.3-12.12-7.39-24.7-9.76a50.77,50.77,0,0,0-9.32-.91Z"/><path class="c" d="M40.86,872.55a8.8,8.8,0,0,1-6.5-2.31,6.65,6.65,0,0,1-1.77-6c.84-4.46,5.8-9,13.59-12.44,9.61-4.24,23.06-4.39,23.63-4.39l3.79,7a40.7,40.7,0,0,1-16,13.49C52.75,870,45.92,872.55,40.86,872.55Z"/><path class="b" d="M69.84,851.91a36.2,36.2,0,0,1-14.06,11.83c-6.15,2.72-11.5,4.31-14.92,4.31a4.63,4.63,0,0,1-3.31-1c-2.14-2.16,1.59-7.24,10.45-11.15s21.84-4,21.84-4m-.07-9c-1.52,0-15.13.24-25.4,4.77-5.39,2.38-14.67,7.59-16.2,15.72a11.08,11.08,0,0,0,3,10c1.65,1.65,4.66,3.63,9.69,3.63,4.69,0,10.93-1.71,18.55-5.07a45,45,0,0,0,18-15.14l-7.6-13.93Zm.07,18h0Z"/><path class="d" d="M75.87,890.45a8.18,8.18,0,0,1-1.49-.14c-6.47-1.22-10.25-10.1-8.42-19.81,1.72-9.11,11-16.09,12-16.86l6.46,1.22c.7,1.1,6.74,11,5,20.07C87.76,883.78,81.93,890.45,75.87,890.45Z"/><path class="b" d="M80.61,857.27s5.84,9.2,4.4,16.83C83.66,881.26,79.28,886,75.87,886a3.6,3.6,0,0,1-.66-.06c-3.49-.66-6.26-6.92-4.83-14.55s10.23-14.07,10.23-14.07M75.29,850a45.72,45.72,0,0,0-5.85,5.32c-4.33,4.66-7,9.49-7.9,14.34-2.33,12.35,2.94,23.35,12,25.06a11.93,11.93,0,0,0,2.32.22c8.32,0,15.89-8.07,18-19.18.91-4.86.19-10.32-2.13-16.24a44.45,44.45,0,0,0-3.52-7.08L75.29,850Z"/><path class="c" d="M116,886.77c-4.39,0-10.38-3.8-17.82-11.29a40.75,40.75,0,0,1-10-18.39l6.07-5.1c.53.21,13,5.25,20.4,12.69,6,6.05,9,12.08,8.13,16.54a6.64,6.64,0,0,1-3.83,4.95A7.27,7.27,0,0,1,116,886.77Z"/><path class="b" d="M92.58,856.16s12,4.82,18.88,11.7,8.46,13,5.67,14.19a2.71,2.71,0,0,1-1.13.22c-3.13,0-8.61-3.9-14.63-10a36.22,36.22,0,0,1-8.79-16.15m3.35-8.35L83.78,858A44.67,44.67,0,0,0,95,878.65c11.24,11.31,17.38,12.62,21,12.62a11.6,11.6,0,0,0,4.76-1,11,11,0,0,0,6.44-8.23c1.54-8.13-5.2-16.36-9.35-20.54-7.92-8-20.51-13.14-21.92-13.7Z"/><path class="d" d="M135.44,864.59c-3.36,0-8.35-.94-15.24-2.24l-.63-.12c-11.78-2.22-22.72-8.89-23.18-9.17L98,844.8a83.91,83.91,0,0,1,13.45-1.08,62.41,62.41,0,0,1,11.47,1,38.52,38.52,0,0,1,14.25,5.4c4.39,2.91,6.47,6.3,5.86,9.53C142.7,861.12,141.4,864.59,135.44,864.59Z"/><path class="b" d="M111.4,848.22a58.65,58.65,0,0,1,10.64.9c11.09,2.1,17,7.28,16.52,9.68-.18.92-1.25,1.29-3.12,1.29-3,0-8.18-1-15-2.28-11.1-2.09-21.65-8.58-21.65-8.58a79.16,79.16,0,0,1,12.65-1m0-9h0a88.3,88.3,0,0,0-14.25,1.15L94,856.9c.49.3,12.12,7.38,24.7,9.75l.63.12c7.14,1.35,12.3,2.32,16.08,2.32a14.83,14.83,0,0,0,5.53-.94,10.37,10.37,0,0,0,6.43-7.68c.56-3,.29-8.75-7.8-14.12a43.58,43.58,0,0,0-15.89-6.07,67.14,67.14,0,0,0-12.31-1.06Z"/><path class="d" d="M91.72,838.06a40.78,40.78,0,0,1,16-13.48c5.79-2.56,11.29-4,15.48-4,3.33,0,5.87.86,7.57,2.57a6.49,6.49,0,0,1,1.8,5.86c-.77,4.09-5.29,8-13.44,11.58-9.6,4.25-23,4.39-23.62,4.4Z"/><path class="b" d="M123.21,825.11c2.05,0,3.56.43,4.38,1.25,2.14,2.16-1.4,6.24-10.26,10.16s-21.84,4-21.84,4a36.18,36.18,0,0,1,14.06-11.84c5.51-2.43,10.31-3.58,13.66-3.58m0-9h0c-4.88,0-10.86,1.51-17.29,4.35a44.79,44.79,0,0,0-18,15.13l7.6,13.94c1.51,0,15.13-.25,25.4-4.78,9.72-4.29,15-9.15,16-14.87a10.94,10.94,0,0,0-3-9.87c-2.57-2.58-6.19-3.9-10.76-3.9Z"/><path class="d" d="M85.9,854.37a25.55,25.55,0,0,1-4.72-.45c-8.94-1.69-14.64-7.13-13.54-12.95.87-4.6,5.82-7.58,12.61-7.58a25.55,25.55,0,0,1,4.72.45,22.47,22.47,0,0,1,9.39,4c3.24,2.5,4.75,5.77,4.15,9C97.64,851.4,92.69,854.37,85.9,854.37Z"/><path class="b" d="M80.25,837.89a20.46,20.46,0,0,1,3.88.38c6.08,1.14,10.54,4.59,10,7.69-.45,2.41-3.83,3.91-8.18,3.91A21.46,21.46,0,0,1,82,849.5c-6.08-1.15-10.53-4.59-10-7.7.46-2.41,3.84-3.91,8.19-3.91m0-9h0c-9.06,0-15.74,4.42-17,11.25-.93,4.92,1.19,9.79,5.81,13.36a26.52,26.52,0,0,0,11.32,4.84,30.13,30.13,0,0,0,5.55.53c9.06,0,15.74-4.41,17-11.24,1.58-8.38-5.63-16-17.13-18.21a30.13,30.13,0,0,0-5.55-.53Z"/></svg>