<svg xmlns="http://www.w3.org/2000/svg" width="510" height="900" viewBox="0 0 510 900"><defs><style>.a{fill:#59624a;}.b{fill:#432d1e;}.c{fill:#e0bd88;}.d{fill:#c9685a;}</style></defs><title>join_game</title><path class="a" d="M163.89,232.45A68.47,68.47,0,0,1,146.47,230l-3.39-1,.18-3.53c.18-3.49,1.38-18.57,8.67-25.08-1.57-4.75-.22-10.23,1.23-13.42l.51-1.13,1-.71A27.27,27.27,0,0,1,169,180.64c5.26,0,12.53,1.94,18.19,10.84,7.16,1,12.35,3.92,15.46,8.73,5.58,8.63,1.67,19.74,1.5,20.21l-.61,1.69-1.61.8a16.58,16.58,0,0,1-7.07,1.5,17.81,17.81,0,0,1-8.52-2.18C183.3,227.39,177,232.45,163.89,232.45Z"/><path class="b" d="M169,185.14c5.12,0,11,2.3,15.47,10.57,23.18,1.77,15.45,23.18,15.45,23.18a12.35,12.35,0,0,1-5.06,1c-2.95,0-6.81-1-10.55-4.88C182.24,225.41,172.7,228,163.89,228a64,64,0,0,1-16.13-2.3s1.12-21.73,10.46-23.66c-5-4.35-1-13.2-1-13.2A23.12,23.12,0,0,1,169,185.14m0-9h0a32.08,32.08,0,0,0-16.85,5.24l-2,1.41-1,2.27A25.8,25.8,0,0,0,147,198.94q-4,4.83-6.22,13.38a72.22,72.22,0,0,0-2,12.86l-.37,7.08,6.79,2a73.45,73.45,0,0,0,18.7,2.67c10.63,0,18.9-3.24,24-9.15a22.22,22.22,0,0,0,6.95,1.11,21.07,21.07,0,0,0,9.08-2l3.22-1.61,1.23-3.39c.5-1.39,4.7-13.87-2-24.18-2.52-3.9-7.39-8.59-16.6-10.4-5.28-7.27-12.54-11.22-20.83-11.22Z"/><path class="b" d="M183.9,203.5a47.92,47.92,0,0,1-6.19,7.73,32.11,32.11,0,0,1-5.66,4.61,27.74,27.74,0,0,1-3.05,1.64,33.76,33.76,0,0,1-3.4,1.43c-.61.23-1.29.42-2,.64s-1.38.45-2.15.66a50,50,0,0,1-5.39,1.25l-.77-.46,1.11-1.89a16.32,16.32,0,0,1,1.19-1.86l1.33-1.76c.46-.58,1-1.1,1.47-1.65a34.25,34.25,0,0,1,3.22-3c1.19-.88,2.33-1.82,3.6-2.58a40.05,40.05,0,0,1,7.95-3.81,34.65,34.65,0,0,1,8.62-1.81Z"/><path class="b" d="M175.94,197.52a13.19,13.19,0,0,1-5.22,1.74,7.79,7.79,0,0,1-3.7-.5,7.17,7.17,0,0,1-2.79-2.17,14.51,14.51,0,0,1-1.22-1.83l-1.45-2.65v-.6a12.71,12.71,0,0,1,4,.44,27.38,27.38,0,0,1,3.77,1.27c1.21.52,2.41,1.08,3.57,1.71a34,34,0,0,1,3.36,2.07Z"/><path class="b" d="M196.3,214.54a13.27,13.27,0,0,1-5.46-.69,7.78,7.78,0,0,1-3.12-2.06,7.26,7.26,0,0,1-1.58-3.16,15.52,15.52,0,0,1-.3-2.18l-.16-3,.26-.54a12.73,12.73,0,0,1,3.4,2.13,27.75,27.75,0,0,1,2.85,2.78c.87,1,1.71,2,2.48,3.08a34.85,34.85,0,0,1,2.13,3.33Z"/><path class="b" d="M174.15,209.52a2.17,2.17,0,0,1,.13.4,1.35,1.35,0,0,1,.07.31,3.89,3.89,0,0,1,.1.56c.06.37.09.73.12,1.08a16.61,16.61,0,0,1-.7,5.9,15.27,15.27,0,0,1-1.5,3.36,16.3,16.3,0,0,1-2.1,2.76,14.43,14.43,0,0,0,.16-3.26,12.08,12.08,0,0,0-.55-3,11,11,0,0,0-1.2-2.57,9.82,9.82,0,0,0-.78-1.07,4.47,4.47,0,0,0-.42-.44,1.12,1.12,0,0,0-.21-.18s-.07-.06-.1-.06-.07-.05,0,0Z"/><path class="b" d="M168.91,215a10.58,10.58,0,0,0-1.12-1c-.42-.34-.84-.66-1.28-1a21.22,21.22,0,0,0-2.75-1.7,11,11,0,0,0-3-1.09,5,5,0,0,0-3.25.35,6,6,0,0,1,3-2.33,13.82,13.82,0,0,1,3.88-.88,27.56,27.56,0,0,1,4-.07c.65,0,1.31.09,2,.17a17.82,17.82,0,0,1,2.06.33Z"/><path class="a" d="M367.66,261.82c-23.17,0-38.4-8-44.52-23.21a32.73,32.73,0,0,1-19.5,6.6h0a29.49,29.49,0,0,1-12.47-2.6l-1.61-.8-.61-1.69c-.32-.88-7.64-21.68,2.62-37.55,5.94-9.17,16.29-14.61,30.81-16.18,10.75-18.19,24.73-22.09,34.74-22.09,14.56,0,26.33,8,26.82,8.34l1,.71.51,1.13c.34.75,7.13,16,1,27.32,16.41,10.58,18.76,46.09,19,50.54l.18,3.53-3.4,1A135.86,135.86,0,0,1,367.66,261.82Z"/><path class="b" d="M357.11,168.8c13.32,0,24.27,7.55,24.27,7.55s8.32,18.3-2,27.29c19.3,4,21.63,48.93,21.63,48.93a132.52,132.52,0,0,1-33.35,4.75c-18.22,0-37.94-5.24-42.2-26.72-7.75,8.07-15.73,10.11-21.83,10.11a25.48,25.48,0,0,1-10.46-2.12s-16-44.27,31.95-47.93c9.31-17.1,21.4-21.86,32-21.86m0-9c-10.83,0-25.79,4-37.44,22.39-14.78,2-25.49,8.05-31.89,17.94-11.46,17.72-3.42,40.55-3.07,41.51l1.22,3.39,3.22,1.61a34,34,0,0,0,14.48,3.07,36.57,36.57,0,0,0,17.71-4.61A38.18,38.18,0,0,0,337.2,260c8.11,4.19,18.35,6.31,30.46,6.31a141.26,141.26,0,0,0,35.92-5.12l6.79-2L410,252.1a140.38,140.38,0,0,0-3.84-24.72c-3.22-12.61-8-21.67-14.13-27.07,3.31-9.78.52-21.12-2.46-27.69l-1-2.27-2.06-1.41c-.54-.38-13.43-9.14-29.37-9.14Z"/><path class="b" d="M326.4,205.39a24,24,0,0,1,4.88-1.38,37.45,37.45,0,0,1,4.91-.55,44.56,44.56,0,0,1,9.73.68,51.4,51.4,0,0,1,18.14,7.08c1.35.93,2.73,1.82,4,2.84s2.55,2.08,3.75,3.2a46.1,46.1,0,0,1,3.4,3.59c.53.63,1.1,1.22,1.58,1.9l1.45,2a41.27,41.27,0,0,1,4.59,8.72,30.92,30.92,0,0,1,2.08,9.73l-.77.46a77.11,77.11,0,0,0-5.17-7.23,72.44,72.44,0,0,0-5.86-6.64,80.25,80.25,0,0,0-6.62-5.89,84.91,84.91,0,0,0-7.26-5.07A87.26,87.26,0,0,0,335,208.19a66.61,66.61,0,0,0-8.66-1.9Z"/><path class="b" d="M342.26,193.61a19.87,19.87,0,0,1,5.35-7.44,25.36,25.36,0,0,1,7.22-4.5,23.79,23.79,0,0,1,8.52-1.86,16.19,16.19,0,0,1,2.29.08,17.35,17.35,0,0,1,2.33.37,16.54,16.54,0,0,1,2.32.76c.38.19.76.38,1.13.58a12.12,12.12,0,0,1,1.06.7v.6l-2,.19c-.66.1-1.31.25-2,.36s-1.3.3-2,.45a18.36,18.36,0,0,0-1.93.53,65.36,65.36,0,0,0-7.53,2.78c-2.49,1-4.95,2.09-7.37,3.27-1.21.58-2.41,1.19-3.6,1.8s-2.42,1.2-3.6,1.84Z"/><path class="b" d="M299.87,229.09a19.87,19.87,0,0,1,1.6-9,25.23,25.23,0,0,1,4.56-7.19,23.59,23.59,0,0,1,6.87-5.36,13.74,13.74,0,0,1,2.1-.92,14.82,14.82,0,0,1,2.26-.68,15,15,0,0,1,2.42-.32q.65,0,1.26,0a10.76,10.76,0,0,1,1.27.17l.26.54-1.71,1c-.55.38-1.07.79-1.61,1.18s-1,.83-1.56,1.24-1,.86-1.51,1.32a66.1,66.1,0,0,0-5.58,5.77c-1.82,2-3.55,4-5.22,6.13-.84,1.06-1.66,2.12-2.47,3.2s-1.65,2.13-2.44,3.21Z"/><path class="b" d="M347.09,211.69v0s0,0,0,0l-.11.12-.22.31a7.92,7.92,0,0,0-.46.71,15.76,15.76,0,0,0-.84,1.64,26.12,26.12,0,0,0-1.33,3.67,36.76,36.76,0,0,0-1.2,8.15,54.51,54.51,0,0,0,.33,8.54c.19,1.43.43,2.86.64,4.31l.92,4.29-1.87-4c-.55-1.37-1.11-2.74-1.63-4.14a58.21,58.21,0,0,1-2.38-8.71,41.94,41.94,0,0,1-.75-9.3,34.06,34.06,0,0,1,.57-4.85c.15-.82.37-1.65.61-2.49.15-.42.26-.83.45-1.27a9,9,0,0,1,.69-1.49Z"/><path class="b" d="M367.26,219.57s-.09.09-.15.16a2,2,0,0,0-.18.26c-.13.18-.26.37-.38.57-.25.4-.47.83-.71,1.26a26.83,26.83,0,0,0-1.2,2.73,26,26,0,0,0-1.45,6,27.29,27.29,0,0,0-.05,6.39,25.82,25.82,0,0,0,.51,3.25c.21,1.09.56,2.14.85,3.24-.59-1-1.25-1.88-1.79-2.88a30.62,30.62,0,0,1-1.51-3.1,31.43,31.43,0,0,1-2.45-14,31.61,31.61,0,0,1,.42-3.72c.13-.63.24-1.26.41-1.89.07-.31.16-.64.26-1,.05-.16.1-.33.16-.5a5.7,5.7,0,0,1,.23-.6Z"/><path class="b" d="M362.06,214c.66-.2,1.12-.28,1.66-.4s1-.19,1.56-.26c1-.15,2.05-.25,3.08-.3a28.63,28.63,0,0,1,6.14.34,19.34,19.34,0,0,1,5.72,2,14.4,14.4,0,0,1,4.33,3.81,13.57,13.57,0,0,0-5-1.93,16.42,16.42,0,0,0-5.1.12,23.63,23.63,0,0,0-4.81,1.53,22.37,22.37,0,0,0-2.25,1.11c-.37.19-.71.41-1.06.62a8.5,8.5,0,0,0-.9.62Z"/><path class="b" d="M340.73,206.85a6.08,6.08,0,0,1,.61-.55c.18-.16.34-.27.52-.41.34-.26.68-.48,1-.7a19.23,19.23,0,0,1,2.06-1.16,19.44,19.44,0,0,1,2.12-.89,16.74,16.74,0,0,1,2.15-.68,26.35,26.35,0,0,1,8.6-.76l2.09.22c.69.1,1.36.26,2,.38a36.06,36.06,0,0,1,3.93,1.07c1.28.43,2.51,1,3.73,1.45l3.54,1.77-3.83-.81c-1.29-.15-2.56-.36-3.83-.45a32,32,0,0,0-3.79,0c-.63.05-1.25.06-1.86.12l-1.82.29a21,21,0,0,0-6.61,2.35,12.18,12.18,0,0,0-1.42.9,12.67,12.67,0,0,0-1.29,1,11.67,11.67,0,0,0-1.12,1.1,3.9,3.9,0,0,0-.46.56,1.51,1.51,0,0,0-.2.26c0,.07-.13.2-.06.15Z"/><path class="b" d="M314.54,209.16a10.89,10.89,0,0,1,.64,1.13c.17.35.34.7.49,1.05.31.7.58,1.4.82,2.11a22.88,22.88,0,0,1,1,4.35,16,16,0,0,1,0,4.38,11.88,11.88,0,0,1-1.38,3.91,10.71,10.71,0,0,0-.62-3.76,13.31,13.31,0,0,0-1.72-3.15,18.4,18.4,0,0,0-2.39-2.59c-.43-.39-.88-.76-1.34-1.1-.22-.17-.46-.33-.68-.48a3,3,0,0,0-.62-.35Z"/><path class="b" d="M350.05,186.25a10.33,10.33,0,0,1,.23-1.28c.09-.38.18-.75.28-1.12.21-.73.45-1.45.72-2.15a23.31,23.31,0,0,1,2-4,16.64,16.64,0,0,1,2.82-3.35,11.8,11.8,0,0,1,3.54-2.15,11,11,0,0,0-1.91,3.3A13.26,13.26,0,0,0,357,179a18.61,18.61,0,0,0,.19,3.51c.08.58.2,1.15.33,1.7.07.28.15.55.22.81a4.09,4.09,0,0,0,.26.67Z"/><path class="b" d="M356.77,181.24a3,3,0,0,0,.36.61c.17.23.33.46.51.68.35.45.73.88,1.13,1.31a19,19,0,0,0,2.66,2.31,13.39,13.39,0,0,0,3.2,1.63,10.57,10.57,0,0,0,3.77.52,11.71,11.71,0,0,1-3.87,1.48,16.39,16.39,0,0,1-4.38.16,22.93,22.93,0,0,1-4.37-.9,21.93,21.93,0,0,1-2.14-.77c-.35-.14-.7-.29-1.06-.46a9.93,9.93,0,0,1-1.14-.6Z"/><path class="c" d="M247.48,154.19c-.69-.5-17.11-12.38-24.92-27.17-10.07-19.07-7.68-25-6.89-26.9a7.87,7.87,0,0,1,4.91-4.64,9,9,0,0,1,2.77-.43c7.52,0,17.28,8.93,24.3,22.2,7.9,15,7,32.78,6.95,33.54Z"/><path class="b" d="M223.35,99.55c5.05,0,13.57,7,20.32,19.81,7.4,14,6.43,31.17,6.43,31.17S234,138.94,226.54,124.92s-9.3-23.62-4.57-25.16a4.39,4.39,0,0,1,1.38-.21m0-9h0a13.41,13.41,0,0,0-4.16.65,12.28,12.28,0,0,0-7.69,7.23c-1.71,4.19-2.82,11.94,7.08,30.69,8.3,15.72,25.55,28.2,26.28,28.72l14.23-6.8c.05-.8,1-19.84-7.46-35.89-8-15.17-18.85-24.6-28.28-24.6Z"/><path class="d" d="M238,160.49c-6.69,0-23.82-.51-38.55-5.3-17.95-5.83-24.67-8-26.61-12.8a6.56,6.56,0,0,1,.34-5.63c2.27-4.3,8.74-6.87,17.3-6.87a61.61,61.61,0,0,1,18.84,3.32c18.53,6,33.57,18.79,34.21,19.33l-2.78,7.92S239.71,160.49,238,160.49Z"/><path class="b" d="M190.44,134.39a57,57,0,0,1,17.45,3.1c17.88,5.8,32.67,18.47,32.67,18.47s-.95,0-2.6,0c-6.31,0-23-.47-37.16-5.08-17.88-5.8-25.64-8.34-23.68-12,1.2-2.28,5.8-4.47,13.32-4.47m0-9h0c-10.41,0-18.17,3.38-21.28,9.27a11,11,0,0,0-.53,9.42c2.73,6.74,10,9.09,29.39,15.39,15.34,5,33,5.52,39.94,5.52,1.76,0,2.8,0,2.91,0l5.54-15.82c-.66-.57-16.37-13.91-35.74-20.2a66,66,0,0,0-20.22-3.54Z"/><path class="c" d="M180.35,194.47c-4.32,0-6.31-2.05-7.21-3.77-.76-1.43-1.38-3.86,0-7.25,2.27-5.58,10.51-13.92,26.28-19,14.73-4.78,31.86-5.29,38.55-5.29,1.75,0,2.75,0,2.75,0l2.78,7.92c-.64.54-15.68,13.32-34.21,19.33-2.64.86-5.12,1.69-7.45,2.46C191.64,192.23,184.91,194.47,180.35,194.47Z"/><path class="b" d="M238,163.61c1.65,0,2.6,0,2.6,0s-14.79,12.67-32.67,18.47c-13.3,4.32-22.76,7.86-27.54,7.86-1.64,0-2.73-.42-3.23-1.37-2-3.71,5.8-14.11,23.68-19.92,14.17-4.6,30.84-5.07,37.16-5.07m0-9h0c-6.9,0-24.6.53-39.94,5.51-14.41,4.68-25.54,13-29.06,21.64a12.93,12.93,0,0,0,.2,11.05c1,1.85,4,6.16,11.19,6.16,5.28,0,12.29-2.33,22.9-5.85l7.42-2.45c19.37-6.29,35.08-19.63,35.74-20.2l-5.54-15.83c-.11,0-1.15,0-2.91,0Z"/><path class="d" d="M228.59,222.16a13.22,13.22,0,0,1-4.07-.66,9.94,9.94,0,0,1-6.57-5.77c-1.88-4.61-.45-10.94,4.61-20.53,7.81-14.79,24.23-26.67,24.92-27.17l7.12,3.41c0,.75,1,18.57-6.95,33.53C241.45,216.7,235.39,222.16,228.59,222.16Z"/><path class="b" d="M250.1,171.69s1,17.15-6.43,31.17c-6.06,11.46-10.92,14.8-15.08,14.8a8.6,8.6,0,0,1-2.68-.44c-4.73-1.54-6.78-5.9.63-19.92s23.56-25.61,23.56-25.61m-5.24-7.31c-.73.52-18,13-26.28,28.72-5.81,11-7.25,18.29-4.8,24.32a14.37,14.37,0,0,0,9.35,8.36,17.61,17.61,0,0,0,5.46.88c11.37,0,18.59-11.18,23-19.59,8.47-16,7.51-35.09,7.46-35.89l-14.23-6.8Z"/><path class="c" d="M281.41,222.16c-6.8,0-12.86-5.46-19.06-17.19-7.9-15-7-32.78-7-33.53l7.12-3.41c.69.5,17.11,12.38,24.92,27.17,5.06,9.59,6.49,15.92,4.62,20.53a10,10,0,0,1-6.58,5.77A13.22,13.22,0,0,1,281.41,222.16Z"/><path class="b" d="M259.9,171.69s16.15,11.59,23.56,25.61,5.36,18.38.63,19.92a8.6,8.6,0,0,1-2.68.44c-4.16,0-9-3.34-15.08-14.8-7.4-14-6.43-31.17-6.43-31.17m5.24-7.31-14.23,6.8c0,.8-1,19.84,7.46,35.89,4.45,8.41,11.67,19.59,23,19.59a17.61,17.61,0,0,0,5.46-.88,14.37,14.37,0,0,0,9.35-8.36c2.45-6,1-13.31-4.8-24.32-8.3-15.72-25.55-28.2-26.28-28.72Z"/><path class="d" d="M329.65,194.47c-4.55,0-11.29-2.24-21.48-5.62-2.33-.77-4.81-1.6-7.45-2.46-18.53-6-33.57-18.79-34.21-19.33l2.78-7.92s1,0,2.75,0c6.69,0,23.83.51,38.55,5.29,15.77,5.13,24,13.47,26.28,19,1.37,3.39.75,5.82,0,7.26C336,192.42,334,194.47,329.65,194.47Z"/><path class="b" d="M272,163.61c6.31,0,23,.47,37.16,5.07,17.88,5.81,25.64,16.21,23.68,19.92-.5,1-1.59,1.37-3.23,1.37-4.78,0-14.24-3.54-27.54-7.86-17.88-5.8-32.67-18.47-32.67-18.47s.95,0,2.6,0m0-9h0c-1.76,0-2.8,0-2.91,0l-5.54,15.83c.66.57,16.37,13.91,35.74,20.2l7.42,2.45c10.61,3.52,17.62,5.85,22.9,5.85,7.16,0,10.21-4.31,11.19-6.16a12.93,12.93,0,0,0,.2-11.05c-3.52-8.67-14.65-17-29.06-21.64-15.34-5-33-5.51-39.94-5.51Z"/><path class="d" d="M272,160.49c-1.75,0-2.75,0-2.75,0l-2.78-7.92c.64-.54,15.68-13.32,34.21-19.33a61.61,61.61,0,0,1,18.84-3.32c8.56,0,15,2.57,17.3,6.87a6.56,6.56,0,0,1,.34,5.63c-1.94,4.79-8.66,7-26.61,12.8C295.86,160,278.73,160.49,272,160.49Z"/><path class="b" d="M319.56,134.39c7.52,0,12.12,2.19,13.32,4.47,2,3.71-5.8,6.25-23.68,12C295,155.52,278.36,156,272,156c-1.65,0-2.6,0-2.6,0s14.79-12.67,32.67-18.47a57,57,0,0,1,17.45-3.1m0-9h0a66,66,0,0,0-20.23,3.54c-19.37,6.29-35.08,19.63-35.74,20.2L269.13,165c.11,0,1.15,0,2.91,0,6.9,0,24.6-.53,39.94-5.52,19.4-6.3,26.66-8.65,29.39-15.39a11,11,0,0,0-.53-9.42c-3.11-5.89-10.87-9.27-21.28-9.27Z"/><path class="c" d="M255.4,150.79c0-.76-1-18.58,7-33.54,7-13.27,16.78-22.2,24.3-22.2a9,9,0,0,1,2.77.43,7.87,7.87,0,0,1,4.91,4.64c3.18,7.83-4.4,22.19-6.89,26.9-7.81,14.79-24.23,26.67-24.92,27.17Z"/><path class="b" d="M286.65,99.55a4.39,4.39,0,0,1,1.38.21c4.73,1.54,2.84,11.14-4.57,25.16s-23.56,25.61-23.56,25.61-1-17.15,6.43-31.17c6.75-12.77,15.27-19.81,20.32-19.81m0-9c-9.43,0-20.26,9.43-28.28,24.6-8.47,16-7.51,35.09-7.46,35.89l14.23,6.8c.73-.52,18-13,26.28-28.72,9.9-18.75,8.79-26.5,7.08-30.69a12.28,12.28,0,0,0-7.69-7.23,13.41,13.41,0,0,0-4.16-.65Z"/><path class="d" d="M251.48,146.76c-.38-.47-9.32-11.66-9.32-23.17,0-14.18,6.44-20.53,12.82-20.53s12.82,6.35,12.82,20.53c0,11.51-8.94,22.7-9.32,23.17Z"/><path class="b" d="M255,107.56c4.6,0,8.32,6,8.32,16S255,143.94,255,143.94s-8.32-10.3-8.32-20.35,3.73-16,8.32-16m0-9c-8.62,0-17.32,7.74-17.32,25,0,12.86,9.27,24.69,10.32,26h14c1.06-1.31,10.32-13.14,10.32-26,0-17.29-8.7-25-17.32-25Z"/><path class="d" d="M239.15,152.63c-.71-.14-17.52-3.5-28.49-11-9.12-6.27-13.74-11.94-13.74-16.87a7.1,7.1,0,0,1,3.12-5.93,10,10,0,0,1,5.79-1.6c5.57,0,13.47,3.24,21.69,8.89,11.3,7.77,16.44,19.9,16.66,20.41Z"/><path class="b" d="M205.83,121.69c4.32,0,11.29,2.7,19.14,8.1,10.34,7.1,15.05,18.43,15.05,18.43s-16.48-3.24-26.81-10.34-13.87-13.15-10.62-15.39a5.75,5.75,0,0,1,3.24-.8m0-9h0a14.39,14.39,0,0,0-8.34,2.39,11.54,11.54,0,0,0-5.07,9.64c0,6.59,5.13,13.32,15.69,20.57,11.73,8.07,29.43,11.61,30.18,11.76l10-12.29c-.59-1.41-6.08-14-18.26-22.39-5.26-3.61-15.4-9.68-24.24-9.68Z"/><path class="c" d="M202.6,168.74c-7.45,0-12.62,0-16.42-.44-2.42-.25-9.76-1-9.76-7.16,0-7.2,12.22-12.84,27.83-12.84,15.27,0,30.56,5.77,31.2,6v8.41c-.64.25-15.93,6-31.2,6Z"/><path class="b" d="M204.25,152.8c14.61,0,29.6,5.72,29.6,5.72s-15,5.72-29.6,5.72h-1.64c-13.63,0-21.69-.06-21.69-3.1s8.71-8.34,23.33-8.34m0-9c-18.74,0-32.33,7.29-32.33,17.34a10.84,10.84,0,0,0,6.8,10,22.77,22.77,0,0,0,7,1.66c4,.43,9.31.46,16.91.46h1.64c16.09,0,32.13-6.06,32.81-6.31V150.11c-.68-.26-16.72-6.31-32.81-6.31Z"/><path class="d" d="M205.16,201a8.78,8.78,0,0,1-5.06-1.43,7.31,7.31,0,0,1-3.12-6.13c0-5.35,5.14-12.08,13.73-18,11-7.55,27.79-10.91,28.5-11.05l5,6.14c-.21.51-5.35,12.64-16.65,20.41C220.91,195.52,211.61,201,205.16,201Z"/><path class="b" d="M240.08,168.8s-4.71,11.33-15.05,18.43c-8.31,5.72-15.63,9.25-19.87,9.25a4.43,4.43,0,0,1-2.51-.64c-3.25-2.24.28-9.59,10.61-16.7s26.82-10.34,26.82-10.34M238.34,160c-.74.15-18.44,3.69-30.17,11.76-5.86,4-15.69,12.19-15.69,21.69a11.71,11.71,0,0,0,5.07,9.83,13.15,13.15,0,0,0,7.61,2.23c6.11,0,14.51-3.64,25-10.83,12.17-8.37,17.67-21,18.26-22.39l-10-12.29Zm1.74,17.83Z"/><path class="c" d="M255.06,215.24c-7.79,0-14.13-9.8-14.13-21.85,0-11.69,10.4-22.95,10.85-23.42h6.57c.44.47,10.85,11.73,10.85,23.42C269.2,205.44,262.86,215.24,255.06,215.24Z"/><path class="b" d="M255.06,173.05s9.64,10.29,9.64,20.34-5,17.35-9.64,17.35-9.63-7.3-9.63-17.35,9.63-20.34,9.63-20.34m6.58-6.15H248.49c-1.23,1.32-12.06,13.27-12.06,26.49,0,14.77,8.19,26.35,18.63,26.35s18.64-11.58,18.64-26.35c0-13.22-10.83-25.17-12.06-26.49Z"/><path class="d" d="M304.94,200.94c-6.45,0-15.75-5.46-22.42-10-11.3-7.77-16.44-19.9-16.65-20.41l5-6.14c.71.14,17.52,3.5,28.5,11.05,8.6,5.91,13.73,12.63,13.73,18a7.29,7.29,0,0,1-3.12,6.13A8.76,8.76,0,0,1,304.94,200.94Z"/><path class="b" d="M270,168.76s16.48,3.24,26.81,10.34,13.86,14.46,10.61,16.7a4.41,4.41,0,0,1-2.51.64c-4.23,0-11.55-3.53-19.87-9.25-10.33-7.1-15-18.43-15-18.43m1.73-8.83-10,12.29A55.06,55.06,0,0,0,280,194.61c10.46,7.19,18.86,10.83,25,10.83a13.21,13.21,0,0,0,7.61-2.22,11.72,11.72,0,0,0,5.07-9.84c0-9.5-9.82-17.67-15.68-21.69-11.74-8.07-29.43-11.61-30.18-11.76Z"/><path class="c" d="M305.8,168.68c-15.27,0-30.56-5.77-31.2-6v-8.41c.64-.25,15.93-6,31.2-6,15.61,0,27.83,5.64,27.83,12.85,0,6.12-7.34,6.9-9.76,7.16-3.81.4-9,.43-16.43.43Z"/><path class="b" d="M305.8,152.74c14.62,0,23.33,5.19,23.33,8.35s-8.06,3.09-21.69,3.09H305.8c-14.62,0-29.6-5.72-29.6-5.72s15-5.72,29.6-5.72m0-9c-16.09,0-32.13,6.06-32.81,6.31v16.82c.68.26,16.72,6.31,32.81,6.31h1.64c7.6,0,12.88,0,16.9-.46a22.8,22.8,0,0,0,7-1.65,10.85,10.85,0,0,0,6.8-10c0-10.05-13.6-17.35-32.33-17.35Z"/><path class="c" d="M265.81,146.45c.22-.51,5.36-12.64,16.66-20.41,8.22-5.65,16.12-8.89,21.69-8.89a10,10,0,0,1,5.79,1.6,7.09,7.09,0,0,1,3.11,5.93c0,4.93-4.62,10.6-13.73,16.87-11,7.54-27.78,10.9-28.49,11Z"/><path class="b" d="M304.16,121.65a5.75,5.75,0,0,1,3.24.8c3.25,2.24-.28,8.28-10.62,15.39S270,148.18,270,148.18s4.71-11.33,15-18.43c7.85-5.4,14.82-8.1,19.14-8.1m0-9h0c-8.84,0-19,6.07-24.24,9.68-12.18,8.37-17.67,21-18.26,22.39l10,12.29c.75-.15,18.45-3.69,30.18-11.76,10.56-7.25,15.69-14,15.69-20.57a11.53,11.53,0,0,0-5.08-9.64,14.34,14.34,0,0,0-8.33-2.39Z"/><path class="c" d="M255,167.32c-10.83,0-19-5.12-19-11.9s8.17-11.89,19-11.89,19,5.11,19,11.89S265.82,167.32,255,167.32Z"/><path class="b" d="M255,148c8,0,14.51,3.31,14.51,7.39s-6.5,7.4-14.51,7.4-14.5-3.31-14.5-7.4S247,148,255,148m0-9c-13.62,0-23.5,6.89-23.5,16.39s9.88,16.4,23.5,16.4,23.51-6.9,23.51-16.4S268.6,139,255,139Z"/><path class="a" d="M530.84,930.44a104.85,104.85,0,0,1-20.1-2l-3.47-.75-.08-3.54c-.08-3.32-.34-29.32,11-39.1-4.68-8.52-.58-20-.37-20.61l.43-1.17,1-.78c.41-.33,10.15-8.09,22.48-8.09,7,0,17,2.6,25.59,14.63,11,.45,19.15,4.06,24.24,10.75,8.9,11.71,4.48,28.19,4.29,28.88l-.49,1.74-1.54.92a23.85,23.85,0,0,1-11.56,2.88,25.65,25.65,0,0,1-12.53-3.36C564.89,923.55,551.4,930.44,530.84,930.44Z"/><path class="b" d="M541.67,858.92c7.46,0,15.9,3.33,23.18,14.58,36,0,26.6,34,26.6,34a19.47,19.47,0,0,1-9.24,2.24c-4.34,0-9.77-1.39-15.33-6.37-2.26,18.74-21,22.59-36,22.59a100.88,100.88,0,0,1-19.15-1.88s-.82-33.69,13.37-37.78c-8.22-6.12-3-20.27-3-20.27s8.77-7.09,19.65-7.09m0-9h0c-13.67,0-24.16,8.16-25.31,9.09l-1.94,1.57-.86,2.34c-1.87,5.13-3.32,13.64-.75,21.09-4.1,4.74-7,11.81-8.62,21.14a107.81,107.81,0,0,0-1.5,19.13l.17,7.09,6.93,1.49a109.49,109.49,0,0,0,21.05,2.08c10.63,0,19.62-1.74,26.72-5.16a32,32,0,0,0,14.28-13,29.33,29.33,0,0,0,10.37,1.9,28.13,28.13,0,0,0,13.86-3.52l3.09-1.85,1-3.47c.55-2,5-19.57-5-32.8-5.59-7.35-14.14-11.51-25.46-12.4-9.41-12.09-20.22-14.76-28-14.76Z"/></svg>