<svg xmlns="http://www.w3.org/2000/svg" width="510" height="900" viewBox="0 0 510 900"><defs><style>.a{fill:#59624a;}.b{fill:#fff;}.c{fill:#e0bd88;}.d{fill:#c9685a;}</style></defs><title>join_game_white</title><path class="a" d="M163.88,231a67.12,67.12,0,0,1-17-2.42l-2.26-.68.12-2.36c.11-2.14,1.22-18.84,9-24.66-2.56-5.73.64-12.92.8-13.28l.35-.76.68-.47A26.15,26.15,0,0,1,169,182.14c5,0,11.93,1.9,17.3,10.73,7.06.85,12.14,3.58,15.09,8.15,5.18,8,1.51,18.45,1.35,18.89l-.4,1.13-1.08.53a15.08,15.08,0,0,1-6.4,1.35,16.52,16.52,0,0,1-9.09-2.78c-3.35,7-10.94,10.81-21.87,10.81Z"/><path class="b" d="M169,185.14c5.12,0,11,2.3,15.47,10.57,23.18,1.77,15.45,23.18,15.45,23.18a12.35,12.35,0,0,1-5.06,1c-2.95,0-6.81-1-10.55-4.88C182.24,225.41,172.7,228,163.89,228a64,64,0,0,1-16.13-2.3s1.12-21.73,10.46-23.66c-5-4.35-1-13.2-1-13.2A23.12,23.12,0,0,1,169,185.14m0-6h0a28.76,28.76,0,0,0-15.14,4.71l-1.37.94-.69,1.51c-1.46,3.22-2.81,8.62-1.56,13.56-2.85,2.88-5,7.29-6.56,13.2a70.79,70.79,0,0,0-1.91,12.28l-.24,4.72,4.53,1.34A70.12,70.12,0,0,0,163.89,234c12.84,0,19.53-4.67,23-9.77a19.09,19.09,0,0,0,8,1.73,18.3,18.3,0,0,0,7.74-1.65l2.15-1.08.81-2.25c.45-1.25,4.23-12.45-1.65-21.54-3.25-5-8.57-8.15-15.83-9.3-6-9-13.55-11-19.08-11Z"/><path class="a" d="M367.66,260.32c-23.4,0-38.43-8.32-43.82-24.15a31.57,31.57,0,0,1-20.2,7.54h0a28.46,28.46,0,0,1-11.8-2.44l-1.07-.53-.41-1.13c-.31-.85-7.39-21,2.47-36.22,5.78-8.94,16-14.17,30.46-15.58,6-10.36,16.54-22,33.83-22,14.1,0,25.49,7.75,26,8.08l.68.47.35.76c.33.74,7.35,16.49.36,27.21,7,3.71,12.32,12.61,15.87,26.54A133.69,133.69,0,0,1,404,252.41l.12,2.36-2.26.67A134.21,134.21,0,0,1,367.66,260.32Z"/><path class="b" d="M357.11,168.8c13.32,0,24.27,7.55,24.27,7.55s8.32,18.3-2,27.29c19.3,4,21.63,48.93,21.63,48.93a132.52,132.52,0,0,1-33.35,4.75c-18.22,0-37.94-5.24-42.2-26.72-7.75,8.07-15.73,10.11-21.83,10.11a25.48,25.48,0,0,1-10.46-2.12s-16-44.27,31.95-47.93c9.31-17.1,21.4-21.86,32-21.86m0-6c-10.29,0-24.6,3.94-35.65,22.19-14.59,1.72-25.07,7.35-31.16,16.77-10.66,16.48-3.1,38-2.77,38.87l.81,2.25,2.15,1.08a31.29,31.29,0,0,0,13.14,2.75,33.91,33.91,0,0,0,18.86-5.82,34.71,34.71,0,0,0,16.08,16.46c7.68,4,17.47,6,29.09,6a137.92,137.92,0,0,0,35.06-5l4.53-1.34-.24-4.72a138.43,138.43,0,0,0-3.76-24.14c-3.35-13.12-8.31-22.1-14.8-26.84,2-4.32,2.56-9.55,1.74-15.48a47.8,47.8,0,0,0-3.35-11.94l-.69-1.51-1.37-.94c-.51-.35-12.65-8.61-27.67-8.61Z"/><path class="c" d="M248.35,153c-.68-.49-16.81-12.17-24.46-26.65-6.47-12.24-8.77-20.87-6.83-25.64a6.31,6.31,0,0,1,4-3.77,7.3,7.3,0,0,1,2.31-.36c7,0,16.21,8.6,23,21.41,7.71,14.59,6.82,32,6.78,32.74l-.31,5.45Z"/><path class="b" d="M223.35,99.55c5.05,0,13.57,7,20.32,19.81,7.4,14,6.43,31.17,6.43,31.17S234,138.94,226.54,124.92s-9.3-23.62-4.57-25.16a4.39,4.39,0,0,1,1.38-.21m0-6a10.49,10.49,0,0,0-3.23.5,9.36,9.36,0,0,0-5.84,5.5c-.85,2.1-3.44,8.49,7,28.17,8,15.1,24.66,27.18,25.37,27.69l8.87,6.36.61-10.9c.05-.77,1-19-7.12-34.32-7.38-14-17.43-23-25.62-23Z"/><path class="d" d="M238,159c-6.61,0-23.56-.51-38.09-5.22-17-5.52-24-7.8-25.68-12a5,5,0,0,1,.27-4.36c2-3.74,8.11-6.07,16-6.07a60.17,60.17,0,0,1,18.38,3.24c18.24,5.93,33.07,18.52,33.69,19.05l5.84,5-7.69.27S239.68,159,238,159Z"/><path class="b" d="M190.44,134.39a57,57,0,0,1,17.45,3.1c17.88,5.8,32.67,18.47,32.67,18.47s-.95,0-2.6,0c-6.31,0-23-.47-37.16-5.08-17.88-5.8-25.64-8.34-23.68-12,1.2-2.28,5.8-4.47,13.32-4.47m0-6h0c-9.13,0-16.09,2.87-18.63,7.67a8,8,0,0,0-.4,6.89c2.21,5.44,9.1,7.68,27.53,13.67,14.94,4.85,32.26,5.37,39,5.37,1.74,0,2.76,0,2.81,0l15.38-.54-11.69-10c-.64-.54-15.91-13.51-34.71-19.62a63.11,63.11,0,0,0-19.3-3.39Z"/><path class="c" d="M180.35,193c-3.57,0-5.17-1.61-5.89-3-.61-1.15-1.1-3.13.06-6,2.15-5.29,10.07-13.23,25.35-18.19,14.52-4.72,31.47-5.22,38.09-5.22,1.72,0,2.7,0,2.7,0l7.69.27-5.84,5c-.62.53-15.45,13.12-33.69,19.05-2.64.86-5.14,1.68-7.47,2.46C191.3,190.77,184.66,193,180.35,193Z"/><path class="b" d="M238,163.61c1.65,0,2.6,0,2.6,0s-14.79,12.67-32.67,18.47c-13.3,4.32-22.76,7.86-27.54,7.86-1.64,0-2.73-.42-3.23-1.37-2-3.71,5.8-14.11,23.68-19.92,14.17-4.6,30.84-5.07,37.16-5.07m0-6c-6.76,0-24.08.52-39,5.37-13.38,4.34-24.06,12.16-27.2,19.91-1.59,3.92-.84,6.79.07,8.52S175,196,180.35,196c4.8,0,11.62-2.27,22-5.7l7.45-2.45c18.8-6.11,34.07-19.08,34.71-19.63l11.69-10-15.38-.54c-.05,0-1.07,0-2.81,0Z"/><path class="d" d="M228.59,220.66a11.8,11.8,0,0,1-3.61-.59,8.55,8.55,0,0,1-5.64-4.9c-1.69-4.17-.29-10.11,4.55-19.27,7.65-14.48,23.78-26.16,24.46-26.65l4.44-3.18.31,5.45c0,.73.93,18.16-6.78,32.75C240.41,215.45,234.78,220.66,228.59,220.66Z"/><path class="b" d="M250.1,171.69s1,17.15-6.43,31.17c-6.06,11.46-10.92,14.8-15.08,14.8a8.6,8.6,0,0,1-2.68-.44c-4.73-1.54-6.78-5.9.63-19.92s23.56-25.61,23.56-25.61m5.38-11.24-8.87,6.36c-.71.51-17.4,12.59-25.37,27.69-5.29,10-6.74,16.73-4.68,21.79a11.44,11.44,0,0,0,7.49,6.63,14.77,14.77,0,0,0,4.54.74c9.75,0,16.3-10.27,20.38-18,8.1-15.32,7.17-33.55,7.12-34.32l-.61-10.9Z"/><path class="c" d="M281.41,220.66c-6.19,0-11.82-5.21-17.73-16.39-7.71-14.59-6.82-32-6.78-32.75l.31-5.45,4.43,3.18c.69.49,16.82,12.17,24.47,26.65,4.84,9.16,6.24,15.1,4.56,19.27a8.59,8.59,0,0,1-5.65,4.9A11.8,11.8,0,0,1,281.41,220.66Z"/><path class="b" d="M259.9,171.69s16.15,11.59,23.56,25.61,5.36,18.38.63,19.92a8.6,8.6,0,0,1-2.68.44c-4.16,0-9-3.34-15.08-14.8-7.4-14-6.43-31.17-6.43-31.17m-5.38-11.24-.61,10.9c0,.77-1,19,7.12,34.32,8.52,16.13,15.71,18,20.38,18a14.77,14.77,0,0,0,4.54-.74,11.44,11.44,0,0,0,7.49-6.63c2.06-5.06.61-11.78-4.68-21.79-8-15.1-24.66-27.18-25.37-27.69l-8.87-6.36Z"/><path class="d" d="M329.65,193c-4.31,0-10.95-2.2-21-5.54q-3.5-1.17-7.47-2.46c-18.24-5.93-33.07-18.52-33.69-19.05l-5.84-5,7.69-.27s1,0,2.7,0c6.62,0,23.57.5,38.09,5.22,15.28,5,23.2,12.9,25.35,18.19,1.16,2.85.67,4.83.06,6C334.82,191.36,333.22,193,329.65,193Z"/><path class="b" d="M272,163.61c6.31,0,23,.47,37.16,5.07,17.88,5.81,25.64,16.21,23.68,19.92-.5,1-1.59,1.37-3.23,1.37-4.78,0-14.24-3.54-27.54-7.86-17.88-5.8-32.67-18.47-32.67-18.47s.95,0,2.6,0m0-6h0c-1.74,0-2.76,0-2.81,0l-15.38.54,11.69,10c.64.55,15.91,13.52,34.71,19.63l7.45,2.45c10.33,3.43,17.15,5.7,21.95,5.7,5.33,0,7.64-2.86,8.54-4.56s1.66-4.6.07-8.52c-3.14-7.75-13.82-15.57-27.2-19.91-14.94-4.85-32.26-5.37-39-5.37Z"/><path class="d" d="M272,159c-1.72,0-2.7,0-2.7,0l-7.69-.27,5.84-5c.62-.53,15.45-13.12,33.69-19.05a60.17,60.17,0,0,1,18.38-3.24c7.87,0,14,2.33,16,6.07a5,5,0,0,1,.27,4.36c-1.68,4.15-8.71,6.43-25.68,12C295.6,158.48,278.65,159,272,159Z"/><path class="b" d="M319.56,134.39c7.52,0,12.12,2.19,13.32,4.47,2,3.71-5.8,6.25-23.68,12C295,155.52,278.36,156,272,156c-1.65,0-2.6,0-2.6,0s14.79-12.67,32.67-18.47a57,57,0,0,1,17.45-3.1m0-6h0a63.12,63.12,0,0,0-19.31,3.39c-18.8,6.11-34.07,19.08-34.71,19.62l-11.69,10,15.38.54s1.07,0,2.81,0c6.76,0,24.08-.52,39-5.37,18.43-6,25.32-8.23,27.53-13.67a8,8,0,0,0-.4-6.89c-2.54-4.8-9.5-7.67-18.63-7.67Z"/><path class="c" d="M256.9,150.7c0-.73-.93-18.15,6.78-32.74,6.76-12.81,16-21.41,23-21.41a7.3,7.3,0,0,1,2.31.36,6.31,6.31,0,0,1,4,3.77c1.94,4.77-.36,13.4-6.83,25.64-7.65,14.48-23.78,26.16-24.47,26.65l-4.43,3.18Z"/><path class="b" d="M286.65,99.55a4.39,4.39,0,0,1,1.38.21c4.73,1.54,2.84,11.14-4.57,25.16s-23.56,25.61-23.56,25.61-1-17.15,6.43-31.17c6.74-12.77,15.27-19.81,20.32-19.81m0-6h0c-8.19,0-18.24,9-25.62,23-8.1,15.32-7.17,33.55-7.12,34.32l.61,10.9,8.87-6.36c.71-.51,17.4-12.59,25.37-27.69,10.4-19.68,7.81-26.07,7-28.17a9.36,9.36,0,0,0-5.84-5.5,10.49,10.49,0,0,0-3.23-.5Z"/><path class="d" d="M252.65,145.82c-.37-.45-9-11.25-9-22.23,0-13.15,5.69-19,11.32-19s11.32,5.88,11.32,19c0,11-8.62,21.78-9,22.23L255,148.71Z"/><path class="b" d="M255,107.56c4.6,0,8.32,6,8.32,16S255,143.94,255,143.94s-8.32-10.3-8.32-20.35,3.73-16,8.32-16m0-6c-7.13,0-14.32,6.81-14.32,22,0,11.83,8.67,22.89,9.66,24.12l4.66,5.77,4.67-5.77c1-1.23,9.65-12.29,9.65-24.12,0-15.22-7.19-22-14.32-22Z"/><path class="d" d="M239.44,151.16c-.7-.13-17.21-3.44-27.93-10.81-6-4.1-13.09-10.14-13.09-15.63a5.56,5.56,0,0,1,2.47-4.7,8.61,8.61,0,0,1,4.94-1.33c5.27,0,12.87,3.14,20.84,8.63,10.94,7.52,15.91,19.25,16.12,19.75l2.15,5.17Z"/><path class="b" d="M205.83,121.69c4.32,0,11.29,2.7,19.14,8.1,10.34,7.1,15.05,18.43,15.05,18.43s-16.48-3.24-26.81-10.34-13.87-13.15-10.62-15.39a5.75,5.75,0,0,1,3.24-.8m0-6h0a11.54,11.54,0,0,0-6.64,1.86,8.6,8.6,0,0,0-3.77,7.17c0,5.45,4.84,11.54,14.39,18.1,11.23,7.72,28.33,11.14,29.05,11.29l11,2.16-4.31-10.36c-.22-.53-5.53-13-17.19-21.07-8.59-5.9-16.59-9.15-22.54-9.15Z"/><path class="c" d="M202.6,167.24c-16.43,0-24.68,0-24.68-6.1s11.81-11.34,26.33-11.34c15,0,30,5.67,30.67,5.92l7.34,2.8-7.34,2.8c-.64.24-15.68,5.92-30.67,5.92Z"/><path class="b" d="M204.25,152.8c14.61,0,29.6,5.72,29.6,5.72s-15,5.72-29.6,5.72h-1.64c-13.63,0-21.69-.06-21.69-3.1s8.71-8.34,23.33-8.34m0-6c-16.73,0-29.33,6.16-29.33,14.34a7.93,7.93,0,0,0,5,7.25A20.42,20.42,0,0,0,186,169.8c3.88.41,9.09.44,16.59.44h1.64c15.54,0,31.08-5.87,31.74-6.12l14.68-5.6L236,152.91c-.66-.25-16.2-6.11-31.74-6.11Z"/><path class="d" d="M205.16,199.48a7.27,7.27,0,0,1-4.21-1.17,5.73,5.73,0,0,1-2.47-4.89c0-4.86,4.89-11.12,13.08-16.75,10.73-7.37,27.24-10.67,27.94-10.81l5.5-1.08L242.85,170c-.21.5-5.18,12.24-16.12,19.75C220.24,194.17,211.23,199.48,205.16,199.48Z"/><path class="b" d="M240.08,168.8s-4.71,11.33-15.05,18.43c-8.31,5.72-15.63,9.25-19.87,9.25a4.43,4.43,0,0,1-2.51-.64c-3.25-2.24.28-9.59,10.61-16.7s26.82-10.34,26.82-10.34m9.84-8.05-11,2.16c-.72.15-17.83,3.57-29.06,11.29-9.14,6.28-14.38,13.29-14.38,19.22a8.77,8.77,0,0,0,3.77,7.36,10.21,10.21,0,0,0,5.91,1.7c5.49,0,13.32-3.46,23.27-10.3,11.66-8,17-20.54,17.19-21.07l4.3-10.36Z"/><path class="c" d="M255.06,213.74c-6.84,0-12.63-9.32-12.63-20.35s10-21.94,10.44-22.39l2.19-2.35,2.2,2.35c.42.45,10.44,11.29,10.44,22.39S261.91,213.74,255.06,213.74Z"/><path class="b" d="M255.06,173.05s9.64,10.29,9.64,20.34-5,17.35-9.64,17.35-9.63-7.3-9.63-17.35,9.63-20.34,9.63-20.34m0-8.79L250.68,169c-1.15,1.23-11.25,12.37-11.25,24.44,0,12.87,7,23.35,15.63,23.35s15.64-10.48,15.64-23.35c0-12.07-10.1-23.21-11.25-24.44l-4.39-4.69Z"/><path class="d" d="M304.94,199.44c-6.06,0-15.07-5.31-21.57-9.78-10.94-7.51-15.91-19.25-16.11-19.75l-2.16-5.17,5.5,1.08c.7.14,17.22,3.44,27.94,10.81,8.19,5.63,13.08,11.89,13.08,16.75a5.71,5.71,0,0,1-2.47,4.89A7.25,7.25,0,0,1,304.94,199.44Z"/><path class="b" d="M270,168.76s16.48,3.24,26.81,10.34,13.86,14.46,10.61,16.7a4.41,4.41,0,0,1-2.51.64c-4.23,0-11.55-3.53-19.87-9.25-10.33-7.1-15-18.43-15-18.43m-9.85-8,4.31,10.36c.22.53,5.52,13.05,17.18,21.07,9.95,6.84,17.78,10.3,23.27,10.3a10.21,10.21,0,0,0,5.91-1.7,8.75,8.75,0,0,0,3.77-7.36c0-5.93-5.24-12.94-14.38-19.22C289,166.44,271.91,163,271.18,162.87l-11-2.16Z"/><path class="c" d="M305.8,167.18c-15,0-30-5.67-30.67-5.91l-7.34-2.81,7.34-2.8c.63-.24,15.67-5.92,30.67-5.92,14.52,0,26.33,5.09,26.33,11.35,0,6.09-8.25,6.09-24.69,6.09Z"/><path class="b" d="M305.8,152.74c14.62,0,23.33,5.19,23.33,8.35s-8.06,3.09-21.69,3.09H305.8c-14.62,0-29.6-5.72-29.6-5.72s15-5.72,29.6-5.72m0-6c-15.54,0-31.09,5.87-31.74,6.12l-14.69,5.6,14.69,5.61c.65.25,16.2,6.11,31.74,6.11h1.64c7.5,0,12.71,0,16.59-.44a20.42,20.42,0,0,0,6.08-1.41,7.93,7.93,0,0,0,5-7.24c0-8.18-12.61-14.35-29.33-14.35Z"/><path class="c" d="M267.2,147c.21-.5,5.18-12.23,16.12-19.75,8-5.48,15.57-8.63,20.84-8.63A8.61,8.61,0,0,1,309.1,120a5.56,5.56,0,0,1,2.47,4.7c0,5.49-7.12,11.53-13.09,15.63-10.72,7.37-27.23,10.68-27.93,10.81l-5.5,1.08Z"/><path class="b" d="M304.16,121.65a5.75,5.75,0,0,1,3.24.8c3.25,2.24-.28,8.28-10.62,15.39S270,148.18,270,148.18s4.71-11.33,15-18.43c7.85-5.4,14.82-8.1,19.14-8.1m0-6h0c-6,0-14,3.25-22.54,9.15-11.67,8-17,20.55-17.19,21.07l-4.31,10.36,11-2.16c.72-.15,17.82-3.57,29.05-11.29,9.55-6.56,14.39-12.65,14.39-18.1a8.6,8.6,0,0,0-3.77-7.17,11.54,11.54,0,0,0-6.64-1.86Z"/><path class="c" d="M255,165.82c-10,0-17.5-4.47-17.5-10.4S245,145,255,145s17.51,4.47,17.51,10.39S265,165.82,255,165.82Z"/><path class="b" d="M255,148c8,0,14.51,3.31,14.51,7.39s-6.5,7.4-14.51,7.4-14.5-3.31-14.5-7.4S247,148,255,148m0-6c-11.88,0-20.5,5.63-20.5,13.39s8.62,13.4,20.5,13.4,20.51-5.64,20.51-13.4S266.86,142,255,142Z"/><path class="a" d="M530.84,928.94A103.54,103.54,0,0,1,511.05,927l-2.3-.5-.06-2.36c-.08-3.34-.36-30.26,11.43-38.73-5.37-7.95-1.13-19.86-.92-20.43l.28-.78.65-.52c.39-.32,9.74-7.76,21.54-7.76,9.76,0,18.09,4.91,24.8,14.6,10.91.31,18.92,3.73,23.83,10.19,8.46,11.12,4.22,26.9,4,27.57l-.32,1.16-1,.61a22.53,22.53,0,0,1-10.78,2.67,24.26,24.26,0,0,1-13.38-4.09C564.86,921.77,551.58,928.94,530.84,928.94Z"/><path class="b" d="M541.67,858.92c7.46,0,15.9,3.33,23.18,14.58,36,0,26.6,34,26.6,34a19.47,19.47,0,0,1-9.24,2.24c-4.34,0-9.77-1.39-15.33-6.37-2.26,18.74-21,22.59-36,22.59a100.88,100.88,0,0,1-19.15-1.88s-.82-33.69,13.37-37.78c-8.22-6.12-3-20.27-3-20.27s8.77-7.09,19.65-7.09m0-6h0c-12.85,0-23,8.08-23.43,8.42l-1.29,1-.57,1.56c-1.85,5.06-3.28,13.75-.07,20.73-4.39,4.25-7.46,11.27-9.17,21a105.07,105.07,0,0,0-1.45,18.54l.11,4.72,4.62,1a106.92,106.92,0,0,0,20.42,2c25.1,0,35.43-9.73,39.57-19a26.89,26.89,0,0,0,11.8,2.78,25.47,25.47,0,0,0,12.32-3.09l2.06-1.24.64-2.31c.2-.72,4.81-17.89-4.54-30.19-5.25-6.91-13.53-10.71-24.64-11.31-5.33-7.21-13.88-14.66-26.38-14.66Z"/></svg>