<svg xmlns="http://www.w3.org/2000/svg" width="510" height="900" viewBox="0 0 510 900"><defs><style>.a,.e{fill:#8c9c73;}.b{fill:#432d1e;}.c{fill:#eb8273;}.d{fill:#ffdc82;}.e{stroke:#432d1e;stroke-miterlimit:10;stroke-width:8px;}</style></defs><title>join_game_large</title><path class="a" d="M90.82,122.86c-15.11,0-30.31-6.79-44-19.64a100.06,100.06,0,0,1-16.1-19.41l-1.84-3.07,2.85-2.16c.75-.58,18.72-14.09,37.64-14.09h.31c-14.8-23.95,3.24-49,3.45-49.24l1-1.38,1.71-.21a42.72,42.72,0,0,1,4.64-.22c7.83,0,22.51,1.6,32.91,12.3,6.22,6.41,9.87,15,10.87,25.64,4.85-2.92,10.74-4.39,17.59-4.39a64.66,64.66,0,0,1,23,4.77l2.32,1,.08,2.53c0,1.28.85,31.33-11.92,44.5a19.84,19.84,0,0,1-14.73,6.31h0a26.76,26.76,0,0,1-7.1-1C119.57,116.88,105.18,122.86,90.82,122.86Z"/><path class="b" d="M80.55,17.44c11.22,0,41.16,3.62,40,42.34C126.29,53,134.34,51,141.92,51a60.71,60.71,0,0,1,21.44,4.44s1.49,46.68-22.66,46.68a24.65,24.65,0,0,1-8-1.49c-15.24,13.35-29.35,18.24-41.85,18.24-34.41,0-56.63-37.1-56.63-37.1S51.62,68.49,69.41,68.49A30.58,30.58,0,0,1,79.21,70c-23.81-24-2.82-52.39-2.82-52.39a38.79,38.79,0,0,1,4.16-.19m0-8h0a44.34,44.34,0,0,0-5.11.25L72,10.1,70,12.88a58.82,58.82,0,0,0-8.89,20.2A44.31,44.31,0,0,0,63.33,60.9c-17.83,2.33-33.27,13.95-34,14.49l-5.69,4.34,3.68,6.14c1,1.67,25,41,63.49,41,14.79,0,29.5-5.85,43.78-17.41a29.63,29.63,0,0,0,6.1.66,24.05,24.05,0,0,0,17.62-7.53c13.69-14.14,13.15-44,13-47.4l-.16-5.06-4.64-2A68.88,68.88,0,0,0,141.92,43a40.44,40.44,0,0,0-14.38,2.46c-1.72-9.05-5.47-16.58-11.21-22.49C104.91,11.2,89,9.44,80.55,9.44Z"/><path class="c" d="M223.63,78c-.55-.41-13.49-10.37-20.2-23.52C195.8,39.54,195,29.17,201.15,26a6.63,6.63,0,0,1,3.08-.73c7.65,0,15,12.07,18.63,19.27C229.57,57.72,230,74,230.05,74.73l.2,8.32Z"/><path class="b" d="M204.23,29.29c3.61,0,9.41,6,15.07,17.09,6.37,12.49,6.75,28.44,6.75,28.44S213.36,65.15,207,52.66s-7.42-21.35-4-23.08a2.66,2.66,0,0,1,1.26-.29m0-8h0a10.75,10.75,0,0,0-4.9,1.16c-2.91,1.49-7.56,5.53-5.92,15.89.8,5,3,11.26,6.45,18,7.13,14,20.77,24.45,21.35,24.89l13.24,10.09-.4-16.65c0-.72-.5-17.93-7.63-31.89-5-9.78-12.9-21.45-22.19-21.45Z"/><path class="c" d="M224.57,75c-.34-.59-8.49-14.74-9.66-29.46-.56-7.09-.28-13.25.81-17.81,1.77-7.35,5.31-9.15,8-9.36l.52,0c6.62,0,11.16,9.28,12.44,25.46,1.17,14.73-4.65,30-4.9,30.62l-3,7.77Z"/><path class="b" d="M224.22,22.35c3.73,0,7.36,8,8.45,21.78C233.78,58.11,228,73,228,73s-8-13.78-9.13-27.77,1.31-22.56,5.12-22.86h.2m0-8q-.42,0-.84,0c-3.26.26-9.1,2.22-11.55,12.41-1.19,5-1.5,11.56-.91,19.07,1.24,15.61,9.83,30.53,10.2,31.16l8.37,14.39,6-15.53c.26-.68,6.4-16.76,5.16-32.38-1.49-18.8-7.33-29.15-16.43-29.15Z"/><path class="d" d="M229,69.72c-.09-.69-2.21-16.88,2.35-30.92,2.67-8.24,8.36-22.06,16.46-22.06a6.87,6.87,0,0,1,2.06.32c6.59,2.14,7.4,12.51,2.23,28.47-4.55,14-15.77,25.91-16.24,26.41l-5.75,6Z"/><path class="b" d="M247.81,20.74a2.81,2.81,0,0,1,.82.12c3.63,1.18,4,10.09-.33,23.43S233,69.18,233,69.18,230.83,53.37,235.15,40c4-12.37,9.06-19.29,12.66-19.29m0-8h0c-10.1,0-16.6,13.5-20.27,24.82-4.83,14.91-2.6,32-2.5,32.69l2.23,16.5,11.48-12c.5-.52,12.32-13,17.16-27.94,2.32-7.16,3.54-13.64,3.54-18.75,0-10.49-5.24-13.75-8.35-14.76a10.77,10.77,0,0,0-3.29-.51Z"/><path class="c" d="M230.9,64.17c.18-.67,4.42-16.44,14-27.67,4.66-5.47,13.56-14.63,20.78-14.63a7,7,0,0,1,4.65,1.63c5.27,4.5,2.06,14.4-8.83,27.16C251.92,61.89,237,68.57,236.39,68.85l-7.62,3.36Z"/><path class="b" d="M265.68,25.87a3,3,0,0,1,2.05.68c2.91,2.47-.17,10.84-9.27,21.51s-23.69,17.13-23.69,17.13,4.07-15.42,13.18-26.1c7.44-8.72,14-13.22,17.73-13.22m0-8h0c-8.38,0-17.58,8.72-23.82,16C231.69,45.82,227.22,62.44,227,63.14l-4.25,16.1L238,72.5c.66-.29,16.37-7.33,26.54-19.25C269.43,47.53,273,42,275,37.29c4-9.7.43-14.71-2.06-16.83a11,11,0,0,0-7.25-2.59Z"/><path class="d" d="M221.69,79.15c-.67-.18-16.43-4.42-27.67-14C181.26,54.26,176.53,45,181,39.72a7.3,7.3,0,0,1,5.83-2.46c7,0,16.38,7.07,21.32,11.29,11.24,9.58,17.91,24.48,18.19,25.11l3.37,7.62Z"/><path class="b" d="M186.86,41.26c3.88,0,10.64,3.44,18.73,10.33,10.67,9.1,17.12,23.69,17.12,23.69s-15.42-4.07-26.09-13.18-15-16.88-12.55-19.78a3.48,3.48,0,0,1,2.79-1.06m0-8h0A11.42,11.42,0,0,0,178,37.12c-2.12,2.5-4.87,8,.61,17,2.67,4.35,7.11,9.24,12.84,14.12C203.35,78.36,220,82.83,220.67,83l16.09,4.25L230,72c-.3-.66-7.33-16.37-19.25-26.54-6.55-5.58-16-12.24-23.92-12.24Z"/><path class="c" d="M206.59,81.77a68.33,68.33,0,0,1-20.92-2.91c-15.95-5.17-23.87-11.92-21.74-18.52.83-2.54,3.4-5.58,11-5.58,4.69,0,10.74,1.16,17.49,3.35,14,4.55,25.92,15.77,26.42,16.24l6,5.75-8.25,1.11A83.09,83.09,0,0,1,206.59,81.77Z"/><path class="b" d="M174.91,58.76c4,0,9.6,1,16.26,3.15,13.34,4.33,24.89,15.34,24.89,15.34a79.49,79.49,0,0,1-9.47.52,66,66,0,0,1-19.69-2.71c-13.34-4.33-20.34-9.85-19.16-13.48.59-1.82,3.12-2.82,7.17-2.82m0-8h0c-10.5,0-13.77,5.23-14.78,8.35s-1.44,9.26,7.05,15.42c4.13,3,10.1,5.82,17.26,8.14a72.25,72.25,0,0,0,22.15,3.1,85,85,0,0,0,10.54-.6l16.5-2.23-12-11.48c-.53-.51-13-12.33-28-17.16C186.49,52,180,50.76,174.91,50.76Z"/><path class="d" d="M177,90.22c-12.67,0-19.91-3.22-20.37-9.07-.21-2.67,1-6.46,8-9.35,4.34-1.8,10.37-3,17.46-3.62,1.29-.1,2.64-.15,4-.15,13.38,0,26.08,4.85,26.61,5l7.77,3-7.2,4.19c-.59.35-14.74,8.5-29.46,9.66C181.4,90.12,179.12,90.22,177,90.22Z"/><path class="b" d="M186.06,72c12.78,0,25.16,4.78,25.16,4.78s-13.79,8-27.77,9.14c-2.31.18-4.48.27-6.48.27-10.11,0-16.13-2.22-16.38-5.39-.31-3.8,7.79-7.55,21.77-8.66,1.23-.1,2.46-.14,3.7-.14m0-8h0c-1.48,0-2.94.06-4.33.17-7.51.59-14,1.94-18.68,3.9-9.69,4-10.7,10.1-10.44,13.36.23,2.87,1.82,8.09,9.9,10.83A45.94,45.94,0,0,0,177,94.22c2.25,0,4.64-.1,7.11-.3,15.62-1.24,30.54-9.83,31.16-10.19l14.39-8.38-15.53-6c-.56-.21-13.93-5.32-28-5.32Z"/><path class="e" d="M237.52,98.37l11.73-43.43S227,60.57,220.22,64s-24.75,18.36-24.75,18.36Z"/><path class="e" d="M253.76,153.65,286.57,188l24.7,7.28c5.12,1.51,9.88-4.3,9.88-12v-.06c0-6.28-3.19-11.55-7.41-12.2l-18-2.8a14.58,14.58,0,0,1-7.47-3.72l-20.06-18a19.17,19.17,0,0,1-4.77-7.13l-19.9-49.66c-1.62-4-4.64-6.34-7.79-6h0c-6.38.78-9.77,11.54-6.09,19.3Z"/><path class="e" d="M395.8,209.33l37-26.15,27.89-5.54a9.34,9.34,0,0,1,11.17,9.16v0a9.35,9.35,0,0,1-8.37,9.29l-20.32,2.13a20.38,20.38,0,0,0-8.43,2.83l-22.66,13.74C409.91,216.18,395.8,209.33,395.8,209.33Z"/><path class="e" d="M253.18,209.36l45,5.29,27.15-8.44a9.34,9.34,0,0,0,5.44-13.38l0,0A9.34,9.34,0,0,0,319,188.62l-18.87,7.83a20.36,20.36,0,0,1-8.76,1.53l-26.46-1.26a15.74,15.74,0,0,1-7.32-2.2L219.77,172a9.35,9.35,0,0,0-9.9.22h0a9.33,9.33,0,0,0,1,16.18Z"/><path class="e" d="M433.9,166.53,471,192.68l27.89,5.54A9.34,9.34,0,0,0,510,189.06V189a9.34,9.34,0,0,0-8.37-9.29l-20.32-2.13a20.43,20.43,0,0,1-8.43-2.83L450.23,161a15.8,15.8,0,0,1-5.38-5.43l-22.48-37.81a9.34,9.34,0,0,0-8.79-4.54h0a9.34,9.34,0,0,0-6.88,14.69Z"/><path class="c" d="M123.61,780.08c-.39-.46-9.41-11.38-12.55-23.81a52,52,0,0,1-1.89-15.4c.46-6.82,3.43-9,5.84-9.58a6.05,6.05,0,0,1,1.53-.19c7.55,0,11.88,12.72,13.8,20.3,3.14,12.43.38,26.33.26,26.91l-1.66,8.16Z"/><path class="b" d="M116.54,735.1c3.12,0,7.14,6.25,9.92,17.28,3,11.69.22,25.13.22,25.13s-8.79-10.53-11.74-22.22-2.13-19.32,1-20.12a2,2,0,0,1,.55-.07m0-8a10.09,10.09,0,0,0-2.51.31c-7.31,1.85-8.62,9.84-8.85,13.2a55.76,55.76,0,0,0,2,16.63c3.36,13.31,12.95,24.91,13.35,25.4l10.67,12.78,3.32-16.31c.12-.62,3.06-15.38-.3-28.69-2.69-10.64-7.94-23.32-17.68-23.32Z"/><path class="c" d="M124.87,777.55c-.18-.57-4.34-14.11-2.48-26.8,1.18-8.08,4.35-21.63,12.3-21.63a5.46,5.46,0,0,1,.9.07c6.25.91,8.61,9.82,6.47,24.44-1.86,12.69-9.73,24.47-10.06,25l-4.65,6.91Z"/><path class="b" d="M134.69,733.12l.32,0c3.25.48,4.84,8,3.09,19.91s-9.42,23.31-9.42,23.31-4.08-13.1-2.33-25c1.69-11.54,5.18-18.21,8.34-18.21m0-8h0c-5.75,0-13.23,4.35-16.26,25-2,13.58,2.43,28,2.62,28.57l5,15.89,9.31-13.8c.35-.52,8.71-13,10.7-26.62a55.75,55.75,0,0,0,.3-16.75c-.57-3.32-2.69-11.14-10.15-12.23a10.53,10.53,0,0,0-1.48-.11Z"/><path class="d" d="M129.57,773.75c.05-.6,1.39-14.7,8-25.71,3.52-5.89,10.42-15.76,17.14-15.76a6.36,6.36,0,0,1,3.31.89c5.43,3.24,4.2,12.37-3.38,25.06-6.57,11-18.34,18.88-18.84,19.21l-6.94,4.6Z"/><path class="b" d="M154.67,736.28a2.48,2.48,0,0,1,1.26.32c2.82,1.69,1.42,9.22-4.76,19.58s-17.62,17.93-17.62,17.93,1.23-13.66,7.42-24c5.37-9,10.58-13.81,13.7-13.81m0-8h0c-6.64,0-13.56,6-20.57,17.71s-8.46,26.77-8.52,27.4L124.08,790,138,780.78c.52-.35,13-8.71,20.07-20.5a55.9,55.9,0,0,0,6.69-15.37c.74-3.27,1.78-11.31-4.7-15.17a10.4,10.4,0,0,0-5.36-1.46Z"/><path class="d" d="M121.93,780.8c-.53-.28-13-6.91-20.7-17.2a51.66,51.66,0,0,1-7.64-13.49c-2.18-6.48-.27-9.61,1.73-11.09a6.51,6.51,0,0,1,3.94-1.27c6.53,0,14,8.76,17.92,14,7.65,10.29,10.42,24.18,10.53,24.77l1.59,8.17Z"/><path class="b" d="M99.26,741.75c3.17,0,8.66,4.25,14.71,12.37,7.2,9.67,9.82,23.14,9.82,23.14s-12.15-6.37-19.35-16-9.37-17-6.73-19a2.49,2.49,0,0,1,1.55-.48m0-8a10.52,10.52,0,0,0-6.33,2.06c-2.5,1.86-6.24,6.36-3.13,15.58A56,56,0,0,0,98,766c8.2,11,21.49,18.06,22,18.35l14.75,7.73-3.18-16.34c-.12-.62-3.06-15.38-11.26-26.39-7.7-10.34-14.8-15.59-21.12-15.59Z"/><path class="c" d="M117.47,781.61c-.59-.05-14.69-1.39-25.7-8a51.68,51.68,0,0,1-12.22-9.55c-4.5-5.15-3.93-8.77-2.65-10.9.74-1.25,2.62-3.34,6.85-3.34,4.48,0,10.94,2.38,18.21,6.72,11,6.57,18.88,18.34,19.21,18.84l4.59,6.94Z"/><path class="b" d="M83.75,753.86c3.49,0,9.18,2,16.16,6.15,10.35,6.18,17.92,17.62,17.92,17.62s-13.66-1.23-24-7.42-15.17-12.15-13.49-15c.55-.92,1.72-1.39,3.42-1.39m0-8h0c-6.21,0-9.11,3.31-10.29,5.29-3.86,6.47.86,13.05,3.07,15.58a55.47,55.47,0,0,0,13.19,10.35c11.78,7,26.76,8.46,27.39,8.52l16.58,1.5-9.19-13.88c-.35-.53-8.71-13-20.49-20.08-5.57-3.32-13.61-7.28-20.26-7.28Z"/><path class="e" d="M131.79,799.45l18.14-34.16s-19.73.46-26.08,2.05S99.6,778,99.6,778Z"/><path class="a" d="M221.86,869.91c.42-4.36,4.52-7.52,9.75-7.52a13.43,13.43,0,0,1,1.55.09,10.45,10.45,0,0,1,7.07,3.83,7.29,7.29,0,0,1,1.48,5.51l-4.8,32.1L218.6,904Z"/><path class="b" d="M231.61,866.39a7.79,7.79,0,0,1,1.07.07c3.12.38,5.41,2.53,5.08,4.77l-4.3,28.71L223,900l2.83-29.71c.22-2.28,2.72-3.9,5.77-3.9m0-8h0c-7.34,0-13.12,4.68-13.73,11.14L215,899.24l-.84,8.81,8.85,0,10.46-.06,6.85,0,1-6.78,4.3-28.71a11.25,11.25,0,0,0-2.26-8.52,14.44,14.44,0,0,0-9.76-5.38,17.45,17.45,0,0,0-2-.12Z"/><path class="a" d="M.84,929.94a104.27,104.27,0,0,1-20-2l-3.08-.66-.07-3.15c-.08-3.33-.34-29.6,11.11-39-4.89-8.34-.75-20-.54-20.54l.38-1,.86-.69c.4-.33,10-8,22.17-8,6.93,0,16.81,2.59,25.33,14.62,11,.4,19.07,4,24.1,10.56,8.76,11.52,4.39,27.76,4.2,28.45l-.42,1.54-1.38.82a23.17,23.17,0,0,1-11.29,2.81,25.31,25.31,0,0,1-12.81-3.59C34.88,923,21.45,929.94.84,929.94Z"/><path class="b" d="M11.67,858.92c7.46,0,15.9,3.33,23.18,14.58,36,0,26.6,34,26.6,34a19.47,19.47,0,0,1-9.24,2.24c-4.34,0-9.77-1.39-15.33-6.37-2.26,18.74-21,22.59-36,22.59a100.88,100.88,0,0,1-19.15-1.88s-.82-33.69,13.37-37.78C-13.16,880.16-8,866-8,866s8.77-7.09,19.65-7.09m0-8h0c-13.32,0-23.56,8-24.68,8.87l-1.73,1.39-.76,2.08c-1.86,5.11-3.3,13.66-.55,21-4.18,4.6-7.12,11.65-8.78,21.09a107.89,107.89,0,0,0-1.48,18.94l.15,6.29,6.16,1.33A108.17,108.17,0,0,0,.84,933.94c10.48,0,19.32-1.71,26.28-5.07a30.78,30.78,0,0,0,14.27-13.3,28.52,28.52,0,0,0,10.82,2.15,27,27,0,0,0,13.35-3.38l2.74-1.64.86-3.08c.53-1.92,4.9-19.09-4.88-31.94-5.47-7.2-13.93-11.24-25.18-12-9.23-12.06-19.86-14.72-27.43-14.72Z"/><path class="a" d="M130.07,806.74c-.76-2.47-3.06-10.88-.81-15.08a5.21,5.21,0,0,1,3.08-2.6,4.68,4.68,0,0,1,1.39-.21c5.07,0,8.14,7.84,9.52,12.51l30.11,102.06L160.16,905Z"/><path class="b" d="M133.73,792.85c1.58,0,4.07,4.18,5.68,9.64L168.18,900l-5.17.6-29.12-95c-2-6.44-2.15-12.16-.4-12.68h0a.67.67,0,0,1,.24,0m0-8h0a9.07,9.07,0,0,0-2.54.37,9.19,9.19,0,0,0-5.46,4.55c-2.79,5.22-.87,13.61.51,18.15l29.12,95,2,6.37,6.62-.77,5.17-.6,9.43-1.1-2.69-9.11-28.76-97.51c-2.07-7-6.07-15.38-13.36-15.38Z"/><path class="a" d="M416.32,256c-20.62,0-34-7-38.57-19.8a25.27,25.27,0,0,1-12.8,3.59h0a23.31,23.31,0,0,1-11.3-2.81l-1.37-.83-.43-1.54c-.19-.68-4.55-16.93,4.2-28.44,5-6.61,13.13-10.16,24.11-10.57,5-7,13.2-14.62,25.33-14.62s21.76,7.66,22.16,8l.86.7.38,1c.22.58,4.36,12.2-.53,20.54,11.44,9.38,11.19,35.66,11.1,39l-.07,3.15-3.08.66A104.7,104.7,0,0,1,416.32,256Z"/><path class="b" d="M405.49,184.94c10.87,0,19.65,7.09,19.65,7.09s5.17,14.15-3.05,20.28c14.19,4.08,13.38,37.78,13.38,37.78A101.4,101.4,0,0,1,416.32,252c-15,0-33.79-3.85-36-22.58-5.56,5-11,6.37-15.33,6.37a19.53,19.53,0,0,1-9.25-2.24s-9.41-34,26.6-34c7.28-11.24,15.73-14.58,23.19-14.58m0-8c-7.58,0-18.2,2.66-27.44,14.73-11.24.79-19.7,4.83-25.18,12-9.78,12.85-5.41,30-4.87,31.93l.85,3.08,2.74,1.65A27.19,27.19,0,0,0,365,243.75a28.42,28.42,0,0,0,10.82-2.16A30.73,30.73,0,0,0,390,254.9c7,3.36,15.8,5.06,26.29,5.06a109.4,109.4,0,0,0,20.83-2l6.16-1.33.15-6.3A106.7,106.7,0,0,0,442,231.35c-1.66-9.44-4.6-16.49-8.78-21.1,2.76-7.3,1.32-15.86-.55-21l-.76-2.08-1.72-1.4c-1.13-.91-11.37-8.87-24.68-8.87Z"/><path class="d" d="M325.88,165.86c-.53-.4-13.08-10-18.89-21.64-7.53-15.13-5.5-19.81-4.83-21.35a6.59,6.59,0,0,1,4.21-3.78,7.37,7.37,0,0,1,2.11-.3c6.14,0,13.59,7,19,17.89,5.89,11.83,4.85,25.72,4.8,26.31l-.59,7.25Z"/><path class="b" d="M308.48,122.79c3.89,0,10.41,5.61,15.42,15.68,5.46,11,4.39,24.19,4.39,24.19s-12.26-9.25-17.72-20.22-6.74-18.42-3.06-19.52a3.39,3.39,0,0,1,1-.13m0-8h0a11.35,11.35,0,0,0-3.25.47,10.53,10.53,0,0,0-6.74,6c-1.48,3.4-2.58,9.67,4.92,24.73,6.22,12.51,19.5,22.62,20.06,23l11.62,8.77,1.17-14.51c.06-.63,1.18-15.6-5.19-28.41-4.84-9.72-13.32-20.11-22.59-20.11Z"/><path class="c" d="M320.58,170.68c-3,0-18.53-.23-31.71-4.87-13.92-4.9-19.12-6.73-20.62-10.7a5.6,5.6,0,0,1,.39-4.78c1.88-3.34,6.67-5.26,13.17-5.26a47.33,47.33,0,0,1,15.45,3c14.29,5,25.75,15.25,26.23,15.69l7.62,6.85Z"/><path class="b" d="M281.81,149.07a43.12,43.12,0,0,1,14.12,2.73c13.7,4.82,24.89,14.88,24.89,14.88h-.24c-2.08,0-17.62-.15-30.38-4.64-13.7-4.82-19.65-6.93-18.07-9.75.94-1.67,4.28-3.22,9.68-3.22m0-8c-8,0-14.06,2.67-16.66,7.31a9.56,9.56,0,0,0-.65,8.14c2.16,5.72,7.85,7.72,23.05,13.06,13.79,4.85,29.93,5.1,33,5.1h.32l20.49-.24-15.22-13.71c-.51-.45-12.55-11.19-27.58-16.48a51,51,0,0,0-16.78-3.18Z"/><path class="d" d="M273.87,195.82c-4,0-5.63-2.09-6.25-3.33a7,7,0,0,1,.12-6.05c1.9-4.37,8.54-10.8,21-14.51,10-3,21.38-3.43,27.28-3.43,3,0,4.82.11,4.9.12l10.24.6-7.95,6.49c-.5.41-12.44,10.06-27,14.39-2.05.61-4,1.2-5.8,1.76C282.62,194.25,277.46,195.82,273.87,195.82Z"/><path class="b" d="M316,172.5c2.88,0,4.66.11,4.66.11S309,182.12,295.1,186.27c-10.18,3-17.48,5.55-21.23,5.55-1.38,0-2.28-.34-2.67-1.12-1.44-2.9,4.75-10.79,18.67-14.94,9.4-2.8,20.15-3.26,26.14-3.26m0-8h0c-7.47,0-18.47.63-28.43,3.6-11.5,3.43-20.51,9.85-23.51,16.75a11,11,0,0,0,0,9.42c.83,1.67,3.45,5.55,9.83,5.55,4.18,0,9.58-1.64,17.74-4.14l5.77-1.75c15.28-4.55,27.82-14.69,28.35-15.12l15.9-13-20.49-1.21c-.08,0-2.05-.12-5.12-.12Z"/><path class="c" d="M310.56,218.11a10.78,10.78,0,0,1-3.54-.62,8.25,8.25,0,0,1-5.28-4.88c-1.42-3.76-.19-8.76,4-16.22,6.37-11.38,19.36-20.31,19.91-20.69l6-4.1.23,7.28c0,.58.39,14.51-6.06,26C320.79,213.92,315.94,218.11,310.56,218.11Z"/><path class="b" d="M327.89,179s.43,13.26-5.55,24c-4.82,8.61-8.59,11.15-11.78,11.15a6.59,6.59,0,0,1-2.21-.39c-3.62-1.28-5.12-4.68.87-15.37S327.89,179,327.89,179m7.53-14.81-12,8.2c-.58.39-14.33,9.85-21.15,22C297.37,203.14,296.1,209,298,214a12.11,12.11,0,0,0,7.7,7.24,14.47,14.47,0,0,0,4.86.85c9.17,0,15.1-8.69,18.76-15.24,7-12.49,6.59-27.49,6.57-28.12l-.47-14.55Z"/><path class="d" d="M351.36,219.1c-7.32,0-12.12-7.95-15.1-13.93-5.88-11.83-4.84-25.72-4.79-26.3l.59-7.26,5.81,4.39c.53.4,13.08,10,18.89,21.63,3.81,7.65,4.79,12.7,3.19,16.39a8.24,8.24,0,0,1-5.51,4.62A10.7,10.7,0,0,1,351.36,219.1Z"/><path class="b" d="M335.46,179.19s12.26,9.26,17.72,20.22,3.8,14.3.12,15.4a7.06,7.06,0,0,1-1.94.29c-3.25,0-7-2.61-11.51-11.71-5.46-11-4.39-24.2-4.39-24.2M328.66,164l-1.18,14.52c-.05.63-1.17,15.59,5.2,28.4,3.45,6.94,9.14,16.15,18.68,16.15a14.68,14.68,0,0,0,4.22-.63,12.15,12.15,0,0,0,8-6.86c2.14-4.93,1.16-10.84-3.28-19.76-6.23-12.51-19.5-22.62-20.06-23L328.66,164Z"/><path class="c" d="M389.16,198.62c-3.62,0-8.91-1.9-16.92-4.78l-5.7-2c-14.29-5-25.75-15.24-26.23-15.68l-7.62-6.85,10.52-.12c3,0,18.54.23,31.71,4.87,12.26,4.31,18.57,11,20.26,15.51a7,7,0,0,1-.17,6C394.37,196.71,392.76,198.62,389.16,198.62Z"/><path class="b" d="M343.22,173.15c2.07,0,17.62.15,30.38,4.64,13.7,4.82,19.5,13,17.92,15.83a2.46,2.46,0,0,1-2.36,1c-3.63,0-10.94-3-21.29-6.59C354.16,183.21,343,173.15,343,173.15h.24m0-8h-.32l-20.49.24,15.22,13.71c.51.45,12.54,11.19,27.58,16.48l5.68,2c8.71,3.13,14,5,18.27,5a10.22,10.22,0,0,0,9.34-5.09,11,11,0,0,0,.42-9.41c-2.66-7-11.35-13.89-22.67-17.87-13.79-4.86-29.94-5.1-33-5.1Z"/><path class="c" d="M347.78,171.33c-3,0-4.81-.11-4.89-.12l-10.25-.6,8-6.49c.5-.41,12.44-10.06,27-14.39a49,49,0,0,1,13.93-2.24c7.25,0,12.69,2.22,14.54,5.93a5.59,5.59,0,0,1,.16,4.79c-1.69,3.9-7,5.47-21.12,9.69C365.08,170.88,353.68,171.33,347.78,171.33Z"/><path class="b" d="M381.49,151.49c6.26,0,10,1.85,11,3.71,1.44,2.9-4.6,4.72-18.52,8.87-9.4,2.8-20.16,3.26-26.15,3.26-2.88,0-4.65-.11-4.65-.11s11.65-9.51,25.57-13.66a45.18,45.18,0,0,1,12.79-2.07m0-8h0a53,53,0,0,0-15.07,2.41c-15.28,4.55-27.82,14.69-28.35,15.12l-15.91,13,20.49,1.21c.09,0,2.05.12,5.13.12,7.48,0,18.48-.63,28.43-3.6,15.45-4.6,21.22-6.32,23.65-11.92a9.52,9.52,0,0,0-.25-8.17c-2.58-5.18-9.18-8.15-18.12-8.15Z"/><path class="d" d="M331.86,163c0-.59-.39-14.51,6.06-26,5.77-10.31,13.4-17,19.45-17a7.36,7.36,0,0,1,2.49.42,6.6,6.6,0,0,1,4,4c.6,1.57,2.4,6.34-5.86,21.09-6.37,11.38-19.36,20.32-19.91,20.69l-6,4.1Z"/><path class="b" d="M357.37,124a3.57,3.57,0,0,1,1.16.19c3.63,1.27,2,8.66-4,19.35s-18.68,19.34-18.68,19.34-.42-13.27,5.56-24c5.4-9.65,12-14.92,16-14.92m0-8h0c-9.07,0-17.8,9.82-22.94,19-7,12.49-6.59,27.49-6.57,28.13l.47,14.55,12-8.2c.58-.4,14.33-9.85,21.15-22.05,8.22-14.67,7.43-21,6.12-24.45a10.57,10.57,0,0,0-6.44-6.35,11.6,11.6,0,0,0-3.82-.64Z"/><path class="c" d="M329,160.1c-.29-.38-7.09-9.34-6.87-18.4.27-11.15,5.53-16.14,10.62-16.14h.2c3.25.08,6.14,2.11,7.92,5.56A23.13,23.13,0,0,1,343,142.2c-.22,9.07-7.45,17.69-7.76,18.05L332,164Z"/><path class="b" d="M332.76,129.56h.1c3.55.09,6.32,4.79,6.13,12.54s-6.81,15.56-6.81,15.56-6.23-8.11-6-15.87,3.12-12.23,6.62-12.23m0-8h0c-7,0-14.29,6.2-14.62,20-.25,10.29,6.89,19.88,7.7,20.94l6,7.85,6.41-7.55c.87-1,8.46-10.25,8.71-20.54.34-14.08-6.75-20.56-13.93-20.73Z"/><path class="c" d="M319.68,164.59c-.55-.12-13.57-3.05-22-9.15-7.06-5.11-10.6-9.73-10.5-13.72a6,6,0,0,1,2.75-4.95,8.17,8.17,0,0,1,4.52-1.21c4.43,0,10.69,2.69,17.16,7.37a40.28,40.28,0,0,1,12.67,16.31l2.7,7Z"/><path class="b" d="M294.45,139.56c3.32,0,8.74,2.21,14.82,6.61a36.21,36.21,0,0,1,11.28,14.52s-12.67-2.81-20.52-8.49-10.46-10.42-7.91-12.08a4.27,4.27,0,0,1,2.33-.56m0-8h0a12,12,0,0,0-6.7,1.86,10,10,0,0,0-4.57,8.2c-.13,5.46,3.84,11,12.16,17.06,8.93,6.47,22,9.5,23.47,9.82l14.6,3.24L328,157.8a43.65,43.65,0,0,0-14-18.11c-4.2-3-12.32-8.13-19.51-8.13Z"/><path class="d" d="M293.7,176.41l-1.18,0h-.64c-5.59-.14-10-.25-13.17-.64-5.43-.68-8.14-2.79-8.06-6.27.14-5.66,9.18-9.93,21-9.93l1.24,0c11.89.29,23.68,5.06,24.17,5.27l9.7,4-9.88,3.5C316.45,172.47,305.2,176.41,293.7,176.41Z"/><path class="b" d="M291.69,163.54l1.14,0c11.29.27,22.75,5,22.75,5s-10.94,3.88-21.88,3.88l-1.08,0c-11.29-.27-18-.39-18-2.83s6.43-6,17-6m0-8h0c-14.54,0-24.84,5.69-25,13.83a9.4,9.4,0,0,0,5.79,8.87,19.24,19.24,0,0,0,5.76,1.47c3.37.42,7.87.53,13.57.66l.64,0,1.28,0c12.18,0,24.06-4.16,24.56-4.34l19.75-7-19.39-7.94c-.53-.22-13-5.26-25.6-5.57l-1.32,0Z"/><path class="c" d="M292.87,201.32a7.32,7.32,0,0,1-4.42-1.31,6.15,6.15,0,0,1-2.52-5.22c.11-4.38,4.19-9.5,11.19-14.07,8.7-5.68,21.85-8,22.41-8.07l7.37-1.27-3,6.83a40.13,40.13,0,0,1-13.44,15.68C305.23,197.28,298,201.32,292.87,201.32Z"/><path class="b" d="M320.21,176.59a36.26,36.26,0,0,1-12,13.95c-6.43,4.2-12.08,6.78-15.37,6.78a3.49,3.49,0,0,1-2.08-.55c-2.47-1.79.39-7.4,8.51-12.7s20.91-7.48,20.91-7.48m13.38-10.41-14.74,2.52c-1.47.26-14.68,2.65-23.92,8.67-4.77,3.12-12.8,9.5-13,17.32a10.08,10.08,0,0,0,4.16,8.56,11.3,11.3,0,0,0,6.77,2.07c7.36,0,16.68-6.08,19.74-8.08a43.85,43.85,0,0,0,14.91-17.4l6.07-13.66Z"/><path class="d" d="M330.9,213.26c-6.31-.16-11.25-8.09-11-17.68.22-9.07,8.07-17.33,9-18.24l3-3.05,2.85,3.2c.85.95,8.29,9.57,8.07,18.65-.23,9.44-5.47,17.12-11.68,17.12Z"/><path class="b" d="M331.7,180.15s7.25,8.13,7.06,15.89-4.15,13.22-7.68,13.22H331c-3.54-.09-7.3-5.82-7.11-13.58s7.82-15.53,7.82-15.53m.28-11.71-6,6.1c-1,1-9.85,10.34-10.11,21a27.19,27.19,0,0,0,3.18,13.78c2.8,5,7.07,7.87,11.74,8h.28c8.5,0,15.39-9.24,15.68-21,.25-10.61-8.13-20.33-9.09-21.41L332,168.44Z"/><path class="c" d="M369.93,203.15c-4.13,0-10.07-2.78-17.66-8.27a40,40,0,0,1-12.66-16.32l-2.71-7,7.3,1.62c.55.13,13.58,3.06,22,9.16,6.77,4.9,10.59,10.21,10.49,14.58a6.16,6.16,0,0,1-2.77,5.1A7.17,7.17,0,0,1,369.93,203.15Z"/><path class="b" d="M343.34,177.12s12.66,2.81,20.51,8.49,10.44,11.43,7.89,13.09a3.24,3.24,0,0,1-1.81.45c-3.25,0-8.91-2.88-15.32-7.51a36.14,36.14,0,0,1-11.27-14.52m-12.87-11.05L335.88,180a43.75,43.75,0,0,0,14,18.11c12.49,9,18.15,9,20,9a11.12,11.12,0,0,0,6.18-1.75,10.08,10.08,0,0,0,4.57-8.35c.19-7.81-7.52-14.58-12.14-17.92-8.93-6.47-22-9.5-23.47-9.82l-14.6-3.24Z"/><path class="d" d="M380,178.41c-2.41,0-5.18-.07-8.38-.14l-.64,0c-11.89-.29-23.68-5.07-24.18-5.27l-9.7-4,9.88-3.5c.48-.17,11.73-4.11,23.22-4.11l1.18,0a37.89,37.89,0,0,1,14.74,3c4.61,2.08,7.11,4.92,7,8C393,178.41,385.47,178.41,380,178.41Z"/><path class="b" d="M370.18,165.4l1.09,0c11.29.27,17.92,4.44,17.86,6.88,0,1.7-3.33,2.11-9.16,2.11-2.51,0-5.51-.08-8.92-.16-11.29-.27-22.75-5-22.75-5s10.94-3.88,21.88-3.88m0-8h0c-12.17,0-24.05,4.16-24.55,4.34l-19.76,7,19.4,7.94c.52.22,13,5.26,25.59,5.57h.64c3.23.08,6,.15,8.47.15a42.31,42.31,0,0,0,8.34-.58c4.18-.84,8.68-3.74,8.82-9.34.07-2.77-1.06-8-9.39-11.74a42.64,42.64,0,0,0-16.28-3.33l-1.28,0Z"/><path class="d" d="M340,159.59a40.31,40.31,0,0,1,13.44-15.67c6.47-4.23,12.48-6.55,16.92-6.55a8.36,8.36,0,0,1,5,1.44,6,6,0,0,1,2.52,5.08c-.1,4-3.85,8.43-11.16,13.19-8.71,5.68-21.86,8-22.42,8.08L337,166.43Z"/><path class="b" d="M370.38,141.37a4.61,4.61,0,0,1,2.69.68c2.47,1.79-.37,6.39-8.49,11.68s-20.9,7.49-20.9,7.49a36.18,36.18,0,0,1,12-13.95c6.05-4,11.39-5.9,14.74-5.9m0-8h0c-5.2,0-12,2.55-19.11,7.2a43.69,43.69,0,0,0-14.9,17.4l-6.08,13.66L345,169.1c1.48-.25,14.69-2.64,23.92-8.66,8.6-5.61,12.84-11,13-16.45a10,10,0,0,0-4.17-8.42,12.31,12.31,0,0,0-7.38-2.2Z"/><path class="a" d="M377.48,946.14c-36.71,0-59.23-12.51-65.63-36.29a42.41,42.41,0,0,1-25.15,8.46h0A38.88,38.88,0,0,1,268.57,914l-1.39-.81-.44-1.53c-.34-1.16-8.13-28.69,6.35-48.26,8.49-11.47,22.64-17.61,42.09-18.28,11.72-17.72,26.5-26.71,44-26.71,20.35,0,36.55,12.56,37.23,13.1l.87.68.4,1c.39,1,8.46,22.74-1.84,36.49,22.29,13.88,22,66.27,22,68.67l0,3.15-3.07.7A183.61,183.61,0,0,1,377.48,946.14Z"/><path class="b" d="M359.14,822.39c19.2,0,34.76,12.24,34.76,12.24s9.6,25.21-5,36.37c25.5,7,24.83,67.32,24.83,67.32a181.07,181.07,0,0,1-36.28,3.82c-26.54,0-58.64-6.95-63-39.59-10,9.23-19.93,11.76-27.77,11.76a34.79,34.79,0,0,1-16.12-3.79s-17.66-60.61,46.81-61.47c13-20.61,28.25-26.66,41.75-26.66m0-8c-22.23,0-37.09,13.83-46.14,26.8-19.69,1.07-34.18,7.72-43.12,19.81-15.65,21.15-7.35,50.52-7,51.76l.89,3.07,2.77,1.6a42.34,42.34,0,0,0,20.14,4.88,45.75,45.75,0,0,0,23-6.34c4.42,11.26,12.71,20,24.45,25.8,11.35,5.55,25.93,8.37,43.34,8.37a188.43,188.43,0,0,0,38.07-4l6.14-1.41.07-6.3a184.8,184.8,0,0,0-3-32.62c-3.38-17.85-9.27-30.29-17.56-37.17,8.16-15.32.56-35.8.17-36.83l-.79-2.08-1.74-1.37c-.73-.57-18-14-39.71-14Z"/><path class="a" d="M496.22,154.76c-19.07,0-32.68-7.07-39.74-20.53-8.75,8.89-18.32,10.93-25.26,10.93h0a29.57,29.57,0,0,1-9.15-1.31l-1.51-.52-.73-1.42c-.46-.9-11.24-22.23-2.47-40.64,5.12-10.73,15.63-18,31.27-21.71C458.79,55.33,476,50.17,488.82,50.17A58.22,58.22,0,0,1,513,55.75l1,.51.58.94C515,58,524.79,74,519.15,87c19.65,8.23,27.41,47.48,28.3,52.33l.57,3.1-2.88,1.28C544.12,144.12,519.92,154.76,496.22,154.76Z"/><path class="b" d="M488.82,54.17a54.35,54.35,0,0,1,22.32,5.14s11.72,18.87,1.7,30.19C534.56,91.12,543.52,140,543.52,140s-24.18,10.75-47.3,10.75c-16.43,0-32.33-5.44-38.6-24-8.87,12-19.38,14.44-26.4,14.44a26.28,26.28,0,0,1-7.83-1.08S399.57,93.86,451.56,83c9-23.18,24.36-28.84,37.26-28.84m0-8a43.92,43.92,0,0,0-24.49,7c-7.75,5.08-14,12.79-18.58,23-15.8,4.11-26.56,12-32,23.39-9.62,20.18,2,43.22,2.52,44.19l1.47,2.84,3,1a33.47,33.47,0,0,0,10.46,1.53,38.41,38.41,0,0,0,24.31-8.73c6.74,9.82,18.87,18.33,40.7,18.33,24.52,0,49.49-11,50.54-11.44l5.75-2.55-1.13-6.2a154.76,154.76,0,0,0-7.64-26.17c-5.43-13.63-12-22.81-19.7-27.44,1.15-4.43,1.3-10-.59-16.91a53.31,53.31,0,0,0-5.53-13l-1.17-1.88-2-1a62.48,62.48,0,0,0-26-6Z"/><path class="d" d="M361.76,53.27c-.83-.44-20.3-11-30.84-25.91C322,14.7,318.18,5.39,319.68-.32a7.77,7.77,0,0,1,4.2-5.15,9.4,9.4,0,0,1,4.06-.86c7.87,0,18.66,8.06,27.48,20.54,10.63,15,12.16,34.43,12.22,35.25l.53,7.26Z"/><path class="b" d="M327.94-2.33c5.69,0,15.47,6.48,24.22,18.85,10.11,14.3,11.49,33.23,11.49,33.23s-19.35-10.39-29.46-24.7S320.63.5,325.59-1.86a5.42,5.42,0,0,1,2.35-.47m0-8h0a13.36,13.36,0,0,0-5.78,1.25,11.68,11.68,0,0,0-6.35,7.75c-2.44,9.32,5.59,22.16,11.84,31C338.73,45.33,359,56.34,359.87,56.8l12.82,6.89-1.06-14.52c-.06-.87-1.67-21.33-12.94-37.27C349-1.81,337.21-10.33,327.94-10.33Z"/><path class="c" d="M329.77,62.86A114.06,114.06,0,0,1,309,61.13c-20.17-3.76-27.72-5.17-30.31-9.76a6.3,6.3,0,0,1-.37-5.39c2.22-5.95,11.7-9.8,24.15-9.8a75.73,75.73,0,0,1,13.85,1.37c21,3.91,39.11,15.66,39.88,16.16l8.59,5.62L354.62,61A169,169,0,0,1,329.77,62.86Z"/><path class="b" d="M302.43,40.18a71.13,71.13,0,0,1,13.12,1.3C336,45.29,354,57.06,354,57.06a165.1,165.1,0,0,1-24.2,1.8,111.34,111.34,0,0,1-20.08-1.66c-20.41-3.81-29.28-5.48-27.66-9.82,1.23-3.3,8.17-7.2,20.4-7.2m0-8h0c-14.36,0-25.05,4.75-27.9,12.4a10.26,10.26,0,0,0,.64,8.76c3.51,6.21,11.55,7.71,33.05,11.72a118.58,118.58,0,0,0,21.55,1.8A171.68,171.68,0,0,0,355.27,65l20.26-3.35L358.34,50.36c-.79-.51-19.59-12.69-41.32-16.75a80.15,80.15,0,0,0-14.59-1.43Z"/><path class="d" d="M291.79,107a6.82,6.82,0,0,1-5.93-2.81c-.92-1.3-1.82-3.59-.9-7.13,1.64-6.24,9.31-16.27,25.55-24,19.18-9.1,43.16-11.47,44.17-11.56l10.22-1L358,68.15c-.61.67-15.14,16.68-34.4,25.83-2.77,1.32-5.38,2.58-7.82,3.76C303.88,103.5,296.68,107,291.79,107Z"/><path class="b" d="M355.06,65.47s-14.39,16-33.15,24.9c-15,7.11-25.24,12.61-30.12,12.61a3,3,0,0,1-2.67-1.12c-2.67-3.78,4.35-16.28,23.11-25.19s42.83-11.2,42.83-11.2m19.68-9.9L354.3,57.51c-1,.09-25.7,2.52-45.51,11.93C291.33,77.74,283,88.61,281.09,96a12.43,12.43,0,0,0,1.5,10.46,10.82,10.82,0,0,0,9.2,4.5c5.81,0,13.32-3.63,25.76-9.64,2.43-1.18,5-2.44,7.79-3.75,20-9.49,35-26.07,35.67-26.77l13.73-15.25Z"/><path class="c" d="M348.52,130.43a13.7,13.7,0,0,1-2.6-.25,10.07,10.07,0,0,1-7.36-4.9c-2.55-4.51-1.87-11.4,2.2-22.33,6.37-17.1,22.49-32.3,23.18-32.94l5.31-5,1.35,7.15c.15.81,3.64,20-2.79,37.2C364.45,118.43,358.79,130.43,348.52,130.43Z"/><path class="b" d="M366.67,72.93s3.51,18.65-2.61,35.07c-5.41,14.54-10.66,18.43-15.54,18.43a9.79,9.79,0,0,1-1.87-.18c-5.4-1-8.26-5.49-2.14-21.9s22.16-31.42,22.16-31.42m5.17-15.79-10.64,10c-.71.66-17.49,16.49-24.19,34.46-4.52,12.14-5.12,20.07-1.93,25.7a14,14,0,0,0,10.1,6.87,18.21,18.21,0,0,0,3.34.31c12.76,0,19.26-13.49,23-23.64,6.81-18.29,3.13-38.49,3-39.34l-2.69-14.31Z"/><path class="d" d="M406.42,122.9c-6.56,0-13.16-5-20.8-15.82C375,92,373.46,72.64,373.41,71.82l-.53-7.26L379.29,68c.82.44,20.3,11,30.83,25.91,6.74,9.53,9.16,16,7.84,21a10.08,10.08,0,0,1-5.85,6.62A13.27,13.27,0,0,1,406.42,122.9Z"/><path class="b" d="M377.39,71.53s19.36,10.4,29.47,24.7,8.5,19.37,3.54,21.73a9.26,9.26,0,0,1-4,.94c-4.38,0-9.91-3.36-17.52-14.13-10.11-14.31-11.5-33.24-11.5-33.24m-9-13.93,1.06,14.52c.06.86,1.67,21.33,12.94,37.26,8.45,12,16.09,17.52,24.05,17.52a17.21,17.21,0,0,0,7.42-1.72,14,14,0,0,0,8-9.22c1.64-6.26-1-13.77-8.44-24.35C402.32,76,382,65,381.18,64.49L368.36,57.6Z"/><path class="c" d="M454.45,85.73c-4.85,0-11.85-1.36-21.54-3.24l-8.52-1.63c-21-3.91-39.11-15.66-39.87-16.16l-8.59-5.62,10.12-1.68a169,169,0,0,1,24.85-1.85,114,114,0,0,1,20.81,1.73c17.68,3.3,27.66,11,30.84,16.64,1.8,3.19,1.52,5.64,1,7.13C462.36,84.15,459.31,85.73,454.45,85.73Z"/><path class="b" d="M410.9,59.55A111.27,111.27,0,0,1,431,61.21c20.42,3.81,30.4,14.1,28.78,18.44-.54,1.48-2.36,2.08-5.31,2.08-5.75,0-15.84-2.28-29.33-4.8-20.41-3.81-38.42-15.58-38.42-15.58a165.28,165.28,0,0,1,24.2-1.8m0-8v0a171.68,171.68,0,0,0-25.5,1.91l-20.26,3.35,17.19,11.24c.79.51,19.59,12.69,41.32,16.75,3,.56,5.85,1.11,8.5,1.62,9.91,1.92,17.07,3.31,22.3,3.31,8.35,0,11.57-4,12.81-7.28A12.38,12.38,0,0,0,466,72c-5.75-10.17-21.12-16.28-33.58-18.6a118.58,118.58,0,0,0-21.55-1.8Z"/><path class="c" d="M382.64,50.26c.61-.67,15.14-16.68,34.4-25.83,11.47-5.45,20-6.59,25.14-6.59,6.49,0,11.5,1.83,13.76,5a6.29,6.29,0,0,1,1,5.3c-1.33,5.1-8.27,8.39-26.8,17.2C411,54.47,387,56.83,386,56.92l-10.22,1Z"/><path class="b" d="M442.18,21.84c5.55,0,9.19,1.48,10.49,3.33,2.68,3.78-5.46,7.66-24.22,16.57s-42.84,11.2-42.84,11.2S400,37,418.76,28c9.61-4.56,17.58-6.2,23.42-6.2m0-8h0c-8,0-17.25,2.41-26.85,7-20,9.49-35,26.07-35.67,26.77L365.93,62.85l20.44-2c1-.09,25.7-2.52,45.51-11.93S459,36.07,460.83,29.18a10.24,10.24,0,0,0-1.63-8.63c-3.05-4.33-9.1-6.71-17-6.71Z"/><path class="d" d="M370.45,49.09c-.16-.8-3.64-19.94,2.79-37.2,6-16,15.79-27.24,23.88-27.24a9.08,9.08,0,0,1,1.57.14,7.73,7.73,0,0,1,5.38,3.91c2.9,5.13,1.63,15.1-3.78,29.63-6.37,17.1-22.5,32.31-23.18,33l-5.32,5Z"/><path class="b" d="M397.12-11.35a4.61,4.61,0,0,1,.84.07c5.4,1,4.69,11.8-1.42,28.22s-22.16,31.41-22.16,31.41S370.87,29.7,377,13.29c5.81-15.6,14.64-24.64,20.14-24.64m0-8h0c-10,0-20.88,11.71-27.63,29.84-6.82,18.29-3.13,38.49-3,39.34l2.69,14.31,10.63-9.94c.71-.67,17.5-16.5,24.19-34.47,3.79-10.15,8.26-24.62,3.52-33a11.69,11.69,0,0,0-8.12-5.87,12.64,12.64,0,0,0-2.31-.21Z"/><path class="c" d="M365.29,44.72c-.47-.45-11.62-11.21-13.22-23.47-.77-5.92-.34-11.18,1.23-15.23,1.81-4.64,5-7.49,9.05-8a10.66,10.66,0,0,1,1.26-.08c7.31,0,13.05,7.81,14.63,19.91,1.59,12.27-6.43,25.52-6.78,26.08l-2.58,4.22Z"/><path class="b" d="M363.61,1.93c4.77,0,9.3,6,10.66,16.43,1.43,11-6.22,23.47-6.22,23.47s-10.58-10.1-12-21.1S357.83,2.63,362.87,2a4.6,4.6,0,0,1,.74-.05m0-8a15.19,15.19,0,0,0-1.78.11c-8.48,1.11-16,10.11-13.73,27.72,1.75,13.42,13.14,24.63,14.43,25.86l7.17,6.83L374.87,46c.94-1.52,9.08-15.26,7.33-28.69-1.85-14.21-9.14-23.39-18.59-23.39Z"/><path class="c" d="M352,52.65c-.79,0-19.49-1.33-32.42-7.94-7.27-3.72-16.1-9.47-16.92-15.78a6.8,6.8,0,0,1,2.25-6.1c1.83-1.64,4.5-2.47,7.93-2.47,5.83,0,13.69,2.38,22.13,6.69,13.23,6.77,20.45,19.08,20.75,19.6l3.74,6.48Z"/><path class="b" d="M312.86,24.36c4.83,0,12,2,20.3,6.25,12.34,6.31,19.11,18,19.11,18s-18.51-1.19-30.84-7.5-17.07-12.43-13.82-15.34c1.06-1,2.87-1.45,5.25-1.45m0-8c-4.45,0-8,1.18-10.6,3.5a10.85,10.85,0,0,0-3.55,9.59c.84,6.45,7.26,12.78,19.07,18.82,13.65,7,33.16,8.31,34,8.37l14.92,1-7.48-13c-.32-.56-8.12-13.86-22.39-21.16-9-4.6-17.5-7.13-23.95-7.13Z"/><path class="d" d="M295.16,77.38c-9,0-9.58-4.23-9.76-5.62-.94-7.23,11.54-14.83,27.82-17a80,80,0,0,1,10.2-.62,116.83,116.83,0,0,1,24.49,2.74l10.19,2.44-9.22,5c-.67.36-16.44,8.78-33,10.93l-.92.12C306.45,76.5,299.72,77.38,295.16,77.38Z"/><path class="b" d="M323.42,58.19A113.58,113.58,0,0,1,347,60.82s-15.6,8.4-31.61,10.48c-8.87,1.16-15.76,2.08-20.21,2.08-3.58,0-5.59-.6-5.79-2.14-.45-3.46,8.36-10.38,24.37-12.47a75.27,75.27,0,0,1,9.68-.58m0-8v0h0a84.2,84.2,0,0,0-10.71.65c-10.45,1.36-17.39,4.42-21.37,6.74-9.55,5.59-10.31,11.6-9.9,14.69.44,3.4,2.81,9.11,13.72,9.11,4.82,0,11.66-.89,20.33-2l.91-.12c17.28-2.25,33.68-11,34.37-11.38l18.46-9.94L348.85,53a121.13,121.13,0,0,0-25.43-2.85Z"/><path class="c" d="M320.05,110.56a8.24,8.24,0,0,1-3.75-.85,7,7,0,0,1-3.76-5.52c-.73-5.55,3.82-13.33,12.16-20.82,10.8-9.7,28.55-15.72,29.3-16L361.09,65l-2,7.21c-.15.58-4,14.34-15,24.27C337,102.92,327,110.56,320.05,110.56Z"/><path class="b" d="M355.27,71.2s-3.54,13.07-13.85,22.33c-8.87,8-16.84,13-21.37,13a4.12,4.12,0,0,1-1.92-.41c-3.88-2-1.07-10.55,9.24-19.8s27.9-15.15,27.9-15.15m11.64-12.34-14.18,4.75c-.78.26-19.29,6.54-30.7,16.78-9.46,8.5-14.37,17.36-13.46,24.31a11,11,0,0,0,5.91,8.57,12.08,12.08,0,0,0,5.57,1.29c9.92,0,22.56-11.35,26.71-15.08C358.69,88.77,362.82,73.92,363,73.29l3.92-14.43Z"/><path class="d" d="M377,119c-7.63,0-14.81-9.29-16.35-21.16-1.62-12.42,8-25.94,8.36-26.51l2.5-3.47,3.3,2.72c.54.45,13.26,11.06,14.88,23.48,1.64,12.67-3.53,23.82-11.53,24.86A8.92,8.92,0,0,1,377,119Z"/><path class="b" d="M372.29,73.71s12,9.9,13.46,20.91-3.05,19.72-8.08,20.38c-.21,0-.42,0-.64,0-4.93,0-11-7.13-12.39-17.67-1.43-11,7.65-23.66,7.65-23.66m-1.51-11.62-5,7c-1.12,1.56-10.88,15.62-9.09,29.36,1.83,14,10.56,24.64,20.32,24.64a13.26,13.26,0,0,0,1.67-.11c10.19-1.33,16.91-14.49,15-29.34-1.79-13.74-14.82-24.84-16.3-26.06l-6.6-5.44Z"/><path class="c" d="M428.94,96.31c-6.85,0-16.6-4.26-23.57-7.82-13.24-6.77-20.46-19.09-20.76-19.61l-3.74-6.47,7.46.48c.79,0,19.49,1.33,32.42,7.94,10,5.1,16.36,11.46,17.08,17a7,7,0,0,1-2.23,6.31A9.64,9.64,0,0,1,428.94,96.31Z"/><path class="b" d="M388.08,66.88s18.51,1.2,30.84,7.51,17.25,13.86,14,16.77a5.87,5.87,0,0,1-4,1.15c-4.84,0-12.72-2.76-21.75-7.38-12.34-6.31-19.11-18.05-19.11-18.05m-14.41-8.95,7.48,12.95c.32.56,8.12,13.87,22.39,21.17,10.72,5.48,19.26,8.26,25.4,8.26a13.5,13.5,0,0,0,9.34-3.2,11,11,0,0,0,3.52-9.79c-.91-7-7.92-14.27-19.23-20.06-13.65-7-33.16-8.31-34-8.36l-14.92-1Z"/><path class="d" d="M416.93,61.35a116.83,116.83,0,0,1-24.49-2.74l-10.19-2.44,9.22-5c.67-.36,16.44-8.78,33-10.93A66,66,0,0,1,433,39.7c12.63,0,22,4,22.73,9.83s-6.48,7.59-9.2,8.23c-4.37,1-10.59,1.83-18.46,2.85l-.91.12A80,80,0,0,1,416.93,61.35Z"/><path class="b" d="M433,43.7c11.37,0,18.39,3.5,18.76,6.34.45,3.46-9.11,4.64-25.12,6.72a75.29,75.29,0,0,1-9.68.59,113.58,113.58,0,0,1-23.56-2.63S409,46.32,425,44.23a62.1,62.1,0,0,1,8-.53m0-8h0a70.05,70.05,0,0,0-9,.6c-17.28,2.25-33.68,11-34.37,11.37l-18.46,9.94,20.39,4.89a121.63,121.63,0,0,0,25.42,2.85,84.2,84.2,0,0,0,10.71-.65l.92-.12c8-1,14.29-1.86,18.85-2.93a24.44,24.44,0,0,0,7-2.56A10.09,10.09,0,0,0,459.66,49C458.61,40.92,448.13,35.7,433,35.7Z"/><path class="d" d="M381.22,43.29c.15-.58,4-14.33,15-24.26C405.26,11,413.91,6.32,420,6.32a9.29,9.29,0,0,1,4.24.94A6.79,6.79,0,0,1,428,12.58c.82,6.31-6.24,14.13-12.32,19.59-10.8,9.69-28.55,15.71-29.3,16l-7.09,2.38Z"/><path class="b" d="M420,10.32a5.38,5.38,0,0,1,2.42.5c3.88,2,.88,9.11-9.43,18.37s-27.9,15.15-27.9,15.15S388.62,31.26,398.93,22c8.56-7.69,16.42-11.69,21.06-11.69m0-8h0c-4.15,0-13.09,1.78-26.4,13.73-11.93,10.71-16.06,25.57-16.23,26.2l-3.92,14.43,14.18-4.75c.78-.27,19.29-6.54,30.7-16.79,9.88-8.86,14.46-16.63,13.62-23.08a10.82,10.82,0,0,0-5.89-8.36A13.25,13.25,0,0,0,420,2.32Z"/><path class="c" d="M366.77,66.78c-9.36,0-16.17-3.93-16.93-9.78-.9-6.88,7-13.18,18.28-14.66a36.11,36.11,0,0,1,4.49-.29c9.37,0,16.18,3.93,16.94,9.78C390,55.56,388,59.16,383.94,62a29.6,29.6,0,0,1-12.68,4.5A34.09,34.09,0,0,1,366.77,66.78Z"/><path class="b" d="M372.61,46.05c7,0,12.48,2.51,13,6.29.58,4.48-6.06,9-14.83,10.18a32.27,32.27,0,0,1-4,.26c-7,0-12.47-2.52-13-6.3-.58-4.47,6.06-9,14.84-10.17a30.28,30.28,0,0,1,4-.26m0-8h0a38.51,38.51,0,0,0-5,.33,33.55,33.55,0,0,0-14.42,5.17c-5.33,3.65-8,8.74-7.32,14,1.05,8.06,9.25,13.27,20.9,13.27a38.66,38.66,0,0,0,5-.33,33.64,33.64,0,0,0,14.42-5.17c5.33-3.66,8-8.75,7.31-14-1-8.06-9.25-13.26-20.9-13.26Z"/><path class="d" d="M129.87,166.43c-.68-.64-16.82-15.83-23.21-32.92C101.23,119,100,109,102.85,103.88a7.74,7.74,0,0,1,5.37-3.91,8.22,8.22,0,0,1,1.58-.15c8.09,0,17.92,11.19,23.91,27.22,6.44,17.25,3,36.39,2.82,37.2l-1.33,7.15Z"/><path class="b" d="M109.8,103.82c5.5,0,14.33,9,20.16,24.62,6.13,16.41,2.64,35.06,2.64,35.06s-16.06-15-22.19-31.39-6.85-27.2-1.45-28.21a4.6,4.6,0,0,1,.84-.08m0-8h0a12.83,12.83,0,0,0-2.32.21,11.73,11.73,0,0,0-8.12,5.88c-4.73,8.39-.24,22.85,3.55,33,6.72,18,23.52,33.78,24.23,34.44l10.65,9.93L140.46,165c.16-.85,3.82-21.05-3-39.33-6.77-18.12-17.62-29.82-27.65-29.82Z"/><path class="c" d="M121,172.08c-1-.09-25-2.43-44.19-11.52C58.27,151.78,51.33,148.49,50,143.4a6.31,6.31,0,0,1,1-5.31c2.26-3.19,7.29-5,13.8-5,5.13,0,13.65,1.14,25.1,6.56,19.27,9.13,33.82,25.13,34.43,25.8l6.88,7.62Z"/><path class="b" d="M64.81,137.06c5.83,0,13.79,1.63,23.39,6.18,18.77,8.89,33.17,24.86,33.17,24.86S97.3,165.84,78.53,157,51.61,144.18,54.28,140.4c1.31-1.85,4.95-3.34,10.53-3.34m0-8v0h0c-8,0-14,2.39-17.06,6.73a10.21,10.21,0,0,0-1.62,8.63c1.81,6.89,9.2,10.39,29,19.76s44.49,11.79,45.53,11.89L141.06,178l-13.75-15.24c-.63-.7-15.7-17.26-35.69-26.73-9.59-4.55-18.86-6.95-26.81-6.95Z"/><path class="d" d="M52.54,201c-4.84,0-7.88-1.57-9-4.67-.56-1.49-.84-3.94,1-7.13,3.17-5.61,13.14-13.35,30.82-16.67a114.65,114.65,0,0,1,21-1.75,166.67,166.67,0,0,1,24.69,1.83l10.12,1.66-8.58,5.63c-.76.5-18.9,12.27-39.86,16.21-3,.56-5.85,1.12-8.51,1.63C64.4,199.59,57.39,201,52.54,201Z"/><path class="b" d="M96.25,174.74a165.5,165.5,0,0,1,24,1.77s-18,11.79-38.4,15.62C68.38,194.67,58.29,197,52.54,197c-2.94,0-4.74-.6-5.29-2.07-1.62-4.34,8.35-14.64,28.76-18.47a111.32,111.32,0,0,1,20.24-1.68m0-8v0h0a118.29,118.29,0,0,0-21.71,1.82C62.08,170.9,46.72,177,41,187.2a12.43,12.43,0,0,0-1.22,10.49C41,201,44.22,205,52.54,205c5.24,0,12.41-1.4,22.33-3.33,2.65-.52,5.49-1.07,8.49-1.63,21.74-4.08,40.52-16.28,41.31-16.8L141.84,172l-20.25-3.33a171.76,171.76,0,0,0-25.34-1.88Z"/><path class="c" d="M100.63,238.08A13.14,13.14,0,0,1,95,236.76a10.07,10.07,0,0,1-5.86-6.62c-1.32-5,1.09-11.5,7.81-21,10.52-14.91,30-25.5,30.81-26l6.41-3.45L133.6,187c-.06.82-1.57,20.22-12.18,35.27C113.79,233.05,107.18,238.08,100.63,238.08Z"/><path class="b" d="M129.61,186.68s-1.36,18.94-11.46,33.25c-7.61,10.78-13.13,14.15-17.52,14.15a9.13,9.13,0,0,1-4-.94c-5-2.35-6.59-7.41,3.51-21.73s29.44-24.73,29.44-24.73m9-13.94-12.81,6.9c-.86.46-21.13,11.49-32.19,27.16-7.46,10.59-10.06,18.1-8.41,24.36a14,14,0,0,0,8,9.21,17.14,17.14,0,0,0,7.4,1.71c8,0,15.61-5.57,24.06-17.54,11.25-15.95,12.84-36.42,12.9-37.28l1-14.52Z"/><path class="d" d="M158.53,245.55c-10.26,0-15.93-12-19.3-21-6.44-17.26-3-36.4-2.82-37.21l1.33-7.15,5.33,5c.68.63,16.82,15.82,23.21,32.91,4.08,10.93,4.77,17.82,2.22,22.33a10.07,10.07,0,0,1-7.35,4.91A14,14,0,0,1,158.53,245.55Z"/><path class="b" d="M140.34,188.07s16.06,15,22.19,31.39,3.28,20.9-2.12,21.91a9.9,9.9,0,0,1-1.88.18c-4.88,0-10.12-3.89-15.55-18.41-6.13-16.41-2.64-35.07-2.64-35.07m-5.19-15.78-2.68,14.31c-.16.85-3.82,21.05,3,39.34,3.79,10.13,10.3,23.61,23,23.61a17.61,17.61,0,0,0,3.36-.32A14,14,0,0,0,172,242.36c3.18-5.64,2.58-13.56-2-25.7-6.71-18-23.51-33.78-24.23-34.44l-10.64-9.93Z"/><path class="c" d="M215.24,222c-4.89,0-12.09-3.47-24-9.22l-7.82-3.75C164.13,200,149.58,184,149,183.28l-6.88-7.62,10.22,1c1,.09,25,2.43,44.19,11.52,16.25,7.69,23.93,17.71,25.57,24,.93,3.54,0,5.84-.89,7.14A6.84,6.84,0,0,1,215.24,222Z"/><path class="b" d="M151.94,180.6s24.07,2.26,42.84,11.15,25.8,21.39,23.13,25.17a3,3,0,0,1-2.67,1.12c-4.89,0-15.15-5.48-30.13-12.58-18.77-8.89-33.17-24.86-33.17-24.86m-19.69-9.89L146,186c.63.7,15.7,17.26,35.69,26.73q4.14,2,7.8,3.74c12.44,6,19.94,9.61,25.75,9.61a10.81,10.81,0,0,0,9.21-4.51,12.39,12.39,0,0,0,1.49-10.46c-1.95-7.41-10.26-18.27-27.73-26.55-19.82-9.39-44.49-11.79-45.53-11.89l-20.43-1.92Z"/><path class="c" d="M177.06,178a166.67,166.67,0,0,1-24.69-1.83l-10.13-1.66,8.59-5.63c.76-.5,18.9-12.27,39.85-16.21a76.6,76.6,0,0,1,13.92-1.38c12.42,0,21.88,3.84,24.1,9.78a6.34,6.34,0,0,1-.37,5.39c-2.59,4.59-10.13,6-30.3,9.79A114.65,114.65,0,0,1,177.06,178Z"/><path class="b" d="M204.6,155.25c12.2,0,19.12,3.88,20.35,7.18,1.62,4.34-7.24,6-27.65,9.85A111.4,111.4,0,0,1,177.06,174a165.5,165.5,0,0,1-24-1.77s18-11.79,38.4-15.63a71.9,71.9,0,0,1,13.18-1.31m0-8h0A80,80,0,0,0,190,148.7c-21.74,4.08-40.52,16.28-41.31,16.79l-17.17,11.26,20.25,3.33A171.76,171.76,0,0,0,177.06,182a118.29,118.29,0,0,0,21.71-1.82c21.5-4,29.54-5.55,33-11.75a10.25,10.25,0,0,0,.62-8.76c-2.85-7.64-13.52-12.38-27.84-12.38Z"/><path class="d" d="M139.34,164.6c.06-.82,1.56-20.21,12.18-35.26,8.82-12.5,19.6-20.57,27.47-20.57a9.43,9.43,0,0,1,4.06.85,7.77,7.77,0,0,1,4.2,5.15c1.5,5.7-2.27,15-11.21,27.69-10.52,14.92-30,25.51-30.81,25.95l-6.41,3.45Z"/><path class="b" d="M179,112.77a5.37,5.37,0,0,1,2.34.47c5,2.35,1.54,12.61-8.56,26.92s-29.44,24.73-29.44,24.73,1.36-18.93,11.46-33.25c8.74-12.38,18.51-18.87,24.2-18.87m0-8h0c-9.27,0-21.05,8.53-30.74,22.26C137,143,135.41,163.45,135.35,164.31l-1,14.52,12.82-6.9c.86-.46,21.13-11.49,32.18-27.16,13-18.48,13-26.55,11.82-31a11.72,11.72,0,0,0-6.36-7.74,13.28,13.28,0,0,0-5.77-1.24Z"/><path class="c" d="M135.47,159.06c-.34-.56-8.38-13.8-6.8-26.07,1.56-12.11,7.3-19.93,14.62-19.93a10.63,10.63,0,0,1,1.25.08c6.51.84,12.22,8.35,10.3,23.23-1.58,12.26-12.72,23-13.2,23.49l-3.58,3.42Z"/><path class="b" d="M143.29,117.06a6,6,0,0,1,.73,0c5,.65,8.27,7.74,6.85,18.74s-12,21.12-12,21.12-7.66-12.46-6.24-23.47c1.35-10.47,5.88-16.44,10.65-16.44m0-8h0c-9.46,0-16.75,9.19-18.58,23.42-1.74,13.42,6.42,27.15,7.35,28.68l5.19,8.43,7.16-6.84c1.29-1.23,12.67-12.45,14.4-25.87,2.27-17.62-5.27-26.61-13.76-27.71a14.85,14.85,0,0,0-1.76-.11Z"/><path class="c" d="M120.61,163.34c-.75-.25-18.5-6.26-29.32-15.94C85.21,142,78.13,134.13,79,127.83a6.77,6.77,0,0,1,3.74-5.32,9.18,9.18,0,0,1,4.25-1c6.08,0,14.73,4.62,23.73,12.68,11.07,9.92,14.91,23.67,15.07,24.25l2,7.22Z"/><path class="b" d="M86.94,125.56c4.64,0,12.5,4,21.06,11.66,10.32,9.25,13.88,22.32,13.88,22.32s-17.6-5.88-27.92-15.12-13.32-16.37-9.45-18.35a5.29,5.29,0,0,1,2.43-.51m0-8h0A13.21,13.21,0,0,0,80.86,119,10.84,10.84,0,0,0,75,127.31c-.83,6.45,3.76,14.21,13.65,23.07,11.42,10.23,29.93,16.49,30.72,16.75l14.18,4.74-3.93-14.43c-.17-.63-4.32-15.48-16.26-26.18-13.31-11.92-22.25-13.7-26.4-13.7Z"/><path class="d" d="M90,176.61A78.39,78.39,0,0,1,79.91,176l-.91-.12c-7.88-1-14.1-1.81-18.47-2.83-2.72-.63-10-2.31-9.2-8.22S61.45,155,74.11,155a66.51,66.51,0,0,1,8.44.55c16.55,2.14,32.34,10.54,33,10.9l9.24,5-10.19,2.45A116.17,116.17,0,0,1,90,176.61Z"/><path class="b" d="M74.11,159a61.11,61.11,0,0,1,7.93.52c16,2.07,31.62,10.45,31.62,10.45A113.46,113.46,0,0,1,90,172.61a74,74,0,0,1-9.58-.58c-16-2.06-25.57-3.23-25.12-6.69.36-2.85,7.4-6.36,18.81-6.36m0-8h0c-15.2,0-25.7,5.24-26.75,13.35-.52,4,1.45,7.8,5.27,10.08a24.64,24.64,0,0,0,7,2.55c4.56,1.06,10.87,1.87,18.85,2.9l.92.12a82.61,82.61,0,0,0,10.6.64,121,121,0,0,0,25.53-2.88l20.38-4.9-18.46-9.92c-.69-.37-17.11-9.11-34.39-11.34a69.11,69.11,0,0,0-9-.6Z"/><path class="c" d="M78.18,211.57a9.67,9.67,0,0,1-6.65-2.16,7,7,0,0,1-2.23-6.3c.71-5.55,7.09-11.92,17.07-17,12.91-6.62,31.61-7.92,32.4-8l7.46-.49-3.73,6.48c-.3.52-7.51,12.84-20.73,19.63C94.79,207.31,85,211.57,78.18,211.57Z"/><path class="b" d="M119,182.1s-6.76,11.75-19.09,18.07c-9,4.63-16.92,7.4-21.76,7.4a5.86,5.86,0,0,1-4-1.14c-3.24-2.91,1.66-10.47,14-16.79S119,182.1,119,182.1m14.4-9-14.92,1c-.83,0-20.32,1.41-34,8.4-11.31,5.8-18.31,13.12-19.21,20.08a11,11,0,0,0,3.53,9.79,13.52,13.52,0,0,0,9.32,3.18c6.14,0,14.69-2.79,25.41-8.28,14.27-7.32,22-20.63,22.38-21.19l7.46-13Z"/><path class="d" d="M130.15,234.21a8.74,8.74,0,0,1-1.14-.08c-3.95-.51-7.46-3.67-9.63-8.67a31.35,31.35,0,0,1-1.93-16.17c1.61-12.43,14.31-23.06,14.85-23.5l3.3-2.73,2.5,3.47c.41.57,10,14.08,8.4,26.51C145,224.91,137.79,234.21,130.15,234.21Z"/><path class="b" d="M134.85,188.87s9.1,12.65,7.68,23.65c-1.36,10.55-7.44,17.69-12.38,17.69-.21,0-.42,0-.63,0-5-.65-9.52-9.36-8.1-20.37s13.43-20.93,13.43-20.93m1.5-11.61-6.59,5.44c-1.48,1.22-14.5,12.33-16.27,26.07A35.18,35.18,0,0,0,115.71,227c2.74,6.34,7.4,10.37,12.79,11.06a12.94,12.94,0,0,0,1.65.11c9.77,0,18.5-10.6,20.31-24.66,1.78-13.74-8-27.79-9.11-29.35l-5-6.94Z"/><path class="c" d="M187.11,225.62c-6.94,0-16.91-7.63-24.05-14C152,201.68,148.15,187.93,148,187.35l-2-7.22,7.09,2.37c.75.25,18.5,6.25,29.32,15.94,8.34,7.48,12.9,15.25,12.18,20.8a7,7,0,0,1-3.76,5.53A8.12,8.12,0,0,1,187.11,225.62Z"/><path class="b" d="M151.85,186.29s17.6,5.88,27.92,15.13,13.14,17.8,9.26,19.79a4.15,4.15,0,0,1-1.92.41c-4.53,0-12.51-5.06-21.38-13-10.32-9.25-13.88-22.33-13.88-22.33M140.2,174l3.93,14.43c.17.62,4.32,15.48,16.26,26.17,4.16,3.73,16.8,15.05,26.72,15.05a12.05,12.05,0,0,0,5.57-1.29,11,11,0,0,0,5.91-8.58c.9-6.95-4-15.81-13.48-24.29-11.43-10.23-29.94-16.49-30.72-16.75L140.2,174Z"/><path class="d" d="M211.87,192.39c-4.56,0-11.27-.87-19.78-2l-.91-.12c-16.55-2.13-32.34-10.54-33-10.89l-9.23-5L159.13,172a117.3,117.3,0,0,1,24.6-2.76,78.27,78.27,0,0,1,10.09.61c16.28,2.1,28.77,9.69,27.84,16.91C220.93,192.39,214.11,192.39,211.87,192.39Z"/><path class="b" d="M183.73,173.23a75.63,75.63,0,0,1,9.58.57c16,2.07,24.83,9,24.38,12.44-.2,1.55-2.22,2.15-5.82,2.15-4.45,0-11.33-.91-20.18-2-16-2.07-31.62-10.46-31.62-10.46a113.87,113.87,0,0,1,23.66-2.65m0-8h0a121,121,0,0,0-25.53,2.88L137.82,173l18.47,9.92c.69.37,17.1,9.11,34.38,11.34l.91.12c8.65,1.11,15.48,2,20.29,2,10.95,0,13.32-5.72,13.76-9.12.4-3.09-.36-9.11-9.93-14.68-4-2.32-10.92-5.37-21.36-6.72a82.88,82.88,0,0,0-10.61-.64Z"/><path class="d" d="M151.23,161.74c.3-.52,7.51-12.85,20.73-19.63,8.45-4.33,16.31-6.71,22.15-6.71,3.42,0,6.08.83,7.9,2.47a6.78,6.78,0,0,1,2.27,6.09c-.82,6.31-9.65,12.07-16.91,15.8-12.92,6.62-31.62,7.91-32.41,8l-7.46.49Z"/><path class="b" d="M194.11,139.4c2.37,0,4.17.49,5.23,1.44,3.25,2.91-1.47,9-13.8,15.36s-30.84,7.53-30.84,7.53,6.76-11.74,19.09-18.06c8.27-4.24,15.49-6.27,20.32-6.27m0-8h0c-6.46,0-15,2.54-24,7.15-14.27,7.32-22,20.63-22.37,21.19l-7.47,13,14.92-1c.83-.06,20.33-1.41,34-8.4,11.81-6.06,18.22-12.4,19.05-18.85a10.8,10.8,0,0,0-3.56-9.58c-2.58-2.32-6.14-3.49-10.57-3.49Z"/><path class="d" d="M140.15,181.91a35.36,35.36,0,0,1-4.45-.29A29.59,29.59,0,0,1,123,177.13c-4.11-2.81-6.1-6.41-5.62-10.14.75-5.86,7.57-9.8,17-9.8a35.36,35.36,0,0,1,4.45.29A29.59,29.59,0,0,1,151.49,162c4.11,2.81,6.1,6.41,5.62,10.14C156.36,178,149.54,181.91,140.15,181.91Z"/><path class="b" d="M134.36,161.19a29.83,29.83,0,0,1,3.94.26c8.78,1.13,15.42,5.68,14.85,10.15-.49,3.79-6,6.31-13,6.31a29.83,29.83,0,0,1-3.94-.26c-8.78-1.13-15.42-5.67-14.85-10.15.49-3.79,6-6.31,13-6.31m0-8h0c-11.67,0-19.89,5.22-20.93,13.29-1.2,9.29,7.95,17.33,21.75,19.11a40,40,0,0,0,5,.32c11.67,0,19.89-5.21,20.93-13.28,1.2-9.3-8-17.33-21.75-19.12a40,40,0,0,0-5-.32Z"/><path class="d" d="M230.29,806c-.75-.54-18.71-13.54-27.23-29.68-7.24-13.71-9.79-23.43-7.58-28.9a7.79,7.79,0,0,1,4.83-4.56,9,9,0,0,1,2.77-.43c7.95,0,18.39,9.65,26,24,8.61,16.29,7.62,35.72,7.57,36.54l-.41,7.26Z"/><path class="b" d="M203.08,746.46c5.57,0,15,7.78,22.44,21.88,8.18,15.49,7.11,34.44,7.11,34.44s-17.85-12.8-26-28.29-10.28-26.1-5-27.8a5,5,0,0,1,1.53-.23m0-8a12.93,12.93,0,0,0-4,.62,11.67,11.67,0,0,0-7.3,6.87c-3.62,8.93,2.68,22.69,7.74,32.27,9,17,27.65,30.49,28.44,31.06l11.83,8.49.82-14.54c0-.86,1.1-21.37-8-38.63-8.39-15.87-20-26.14-29.51-26.14Z"/><path class="c" d="M219.21,812.81c-7.34,0-26.15-.56-42.29-5.8-19.51-6.34-26.81-8.71-28.79-13.59a6.3,6.3,0,0,1,.33-5.4c2.34-4.43,9.16-7.07,18.26-7.07a67.4,67.4,0,0,1,20.51,3.61c20.28,6.59,36.76,20.59,37.45,21.18l7.79,6.67-10.25.37S221.13,812.81,219.21,812.81Z"/><path class="b" d="M166.72,785A63.2,63.2,0,0,1,186,788.37c19.75,6.41,36.08,20.41,36.08,20.41s-1,0-2.87,0c-7,0-25.4-.52-41.05-5.61C158.4,796.79,149.83,794,152,789.89c1.33-2.52,6.41-4.94,14.72-4.94m0-8v0h0c-10.76,0-18.71,3.35-21.8,9.2a10.24,10.24,0,0,0-.5,8.77c2.68,6.61,10.46,9.14,31.27,15.89,16.68,5.42,36,6,43.52,6,1.94,0,3.1,0,3.15,0l20.51-.71L227.29,802.7c-.72-.61-17.79-15.11-38.82-21.94A71,71,0,0,0,166.72,777Z"/><path class="d" d="M155.57,850.35c-4.29,0-6.23-2-7.11-3.64-.75-1.41-1.34-3.8,0-7.2,2.43-6,11.33-14.93,28.43-20.48,16.14-5.24,35-5.81,42.29-5.81,1.92,0,3,0,3,0l10.25.36-7.79,6.68c-.69.59-17.17,14.59-37.45,21.17q-4.38,1.42-8.24,2.72C167.82,847.9,160.44,850.35,155.57,850.35Z"/><path class="b" d="M219.21,817.22c1.83,0,2.87,0,2.87,0s-16.33,14-36.08,20.41c-14.7,4.77-25.15,8.68-30.43,8.68-1.82,0-3-.46-3.57-1.51-2.17-4.1,6.4-15.59,26.16-22,15.65-5.08,34.07-5.61,41.05-5.61m0-8c-7.53,0-26.84.59-43.52,6-12.06,3.91-26.51,11.95-30.9,22.78a12.4,12.4,0,0,0,.13,10.57c1.14,2.15,4,5.77,10.65,5.77,5.52,0,13.14-2.53,24.68-6.36,2.57-.86,5.31-1.77,8.22-2.71,21-6.83,38.1-21.33,38.82-21.95L242.87,810l-20.51-.72c-.05,0-1.2,0-3.15,0Z"/><path class="c" d="M208.86,880.94a13.53,13.53,0,0,1-4.2-.69,10.08,10.08,0,0,1-6.66-5.81c-1.95-4.8-.39-11.55,5.06-21.86,8.52-16.14,26.48-29.13,27.23-29.68l5.92-4.24.41,7.27c0,.82,1,20.25-7.57,36.53C222.39,875.07,216,880.94,208.86,880.94Z"/><path class="b" d="M232.63,826.15s1.07,19-7.11,34.44c-6.69,12.66-12.06,16.35-16.66,16.35a9.63,9.63,0,0,1-3-.49c-5.22-1.7-7.48-6.51.71-22s26-28.3,26-28.3m7.16-15L228,819.65c-.79.57-19.48,14.1-28.44,31.06-6.05,11.45-7.66,19.24-5.23,25.24a14.06,14.06,0,0,0,9.13,8.11,17.83,17.83,0,0,0,5.44.88c11.51,0,19.06-11.76,23.73-20.61,9.12-17.26,8.07-37.76,8-38.63l-.82-14.53Z"/><path class="d" d="M267.21,880.94c-7.12,0-13.53-5.87-20.19-18.48-8.61-16.28-7.62-35.71-7.57-36.53l.41-7.27,5.92,4.24c.76.55,18.71,13.54,27.23,29.68,5.45,10.31,7,17.06,5.06,21.86a10.08,10.08,0,0,1-6.66,5.81A13.53,13.53,0,0,1,267.21,880.94Z"/><path class="b" d="M243.44,826.15s17.85,12.81,26,28.3,5.93,20.3.71,22a9.63,9.63,0,0,1-3,.49c-4.6,0-10-3.69-16.66-16.35-8.18-15.48-7.11-34.44-7.11-34.44m-7.16-15-.82,14.53c-.05.87-1.1,21.37,8,38.63,9.76,18.48,18.22,20.61,23.73,20.61a17.83,17.83,0,0,0,5.44-.88,14,14,0,0,0,9.13-8.11c2.43-6,.82-13.79-5.23-25.24-9-17-27.65-30.49-28.44-31.06l-11.83-8.48Z"/><path class="c" d="M320.5,850.35c-4.87,0-12.25-2.45-23.42-6.16q-3.85-1.29-8.24-2.72c-20.28-6.58-36.76-20.58-37.45-21.17l-7.79-6.68,10.25-.36s1.1,0,3,0c7.34,0,26.15.57,42.29,5.81,17.1,5.55,26,14.51,28.43,20.48,1.38,3.4.78,5.79,0,7.2C326.74,848.37,324.79,850.35,320.5,850.35Z"/><path class="b" d="M256.86,817.22c7,0,25.4.53,41.05,5.61,19.76,6.42,28.33,17.91,26.17,22-.56,1-1.76,1.51-3.58,1.51-5.28,0-15.73-3.91-30.42-8.68C270.32,831.25,254,817.26,254,817.26s1,0,2.87,0m0-8v0h0c-1.94,0-3.1,0-3.15,0L233.2,810l15.59,13.35c.71.62,17.78,15.12,38.82,21.95,2.9.94,5.64,1.85,8.21,2.71,11.54,3.83,19.16,6.36,24.68,6.36,6.61,0,9.51-3.62,10.65-5.77a12.4,12.4,0,0,0,.13-10.57c-4.39-10.83-18.84-18.87-30.9-22.78-16.68-5.42-36-6-43.52-6Z"/><path class="c" d="M256.86,812.81c-1.92,0-3,0-3,0l-10.25-.37,7.79-6.67c.69-.59,17.17-14.59,37.45-21.18A67.4,67.4,0,0,1,309.35,781c9.1,0,15.92,2.64,18.26,7.07a6.34,6.34,0,0,1,.34,5.4c-2,4.88-9.29,7.25-28.8,13.59C283,812.25,264.2,812.81,256.86,812.81Z"/><path class="b" d="M309.35,785c8.31,0,13.4,2.42,14.73,4.94,2.16,4.1-6.41,6.9-26.17,13.31-15.65,5.09-34.07,5.61-41.05,5.61-1.83,0-2.87,0-2.87,0s16.33-14,36.09-20.41A63.1,63.1,0,0,1,309.35,785m0-8h0a71,71,0,0,0-21.74,3.81c-21,6.83-38.11,21.33-38.82,21.94L233.2,816.06l20.51.71s1.21,0,3.15,0c7.53,0,26.84-.58,43.52-6,20.81-6.75,28.59-9.28,31.27-15.89a10.24,10.24,0,0,0-.5-8.77c-3.09-5.85-11-9.2-21.8-9.2Z"/><path class="d" d="M239.45,803c0-.82-1-20.25,7.57-36.54,7.58-14.36,18-24,26-24a9,9,0,0,1,2.76.43,7.79,7.79,0,0,1,4.83,4.56c2.21,5.47-.34,15.19-7.58,28.9-8.52,16.14-26.47,29.14-27.23,29.68l-5.92,4.24Z"/><path class="b" d="M273,746.46a4.94,4.94,0,0,1,1.52.23c5.23,1.7,3.14,12.31-5,27.8s-26,28.29-26,28.29-1.07-18.95,7.11-34.44c7.45-14.1,16.88-21.87,22.45-21.88m0-8h0c-9.54,0-21.12,10.27-29.51,26.14-9.12,17.26-8.07,37.77-8,38.63l.82,14.54,11.83-8.49c.79-.57,19.48-14.1,28.44-31.06,10.56-20,9.48-28,7.74-32.27a11.67,11.67,0,0,0-7.3-6.87,12.86,12.86,0,0,0-4-.62Z"/><path class="c" d="M234.91,798c-.42-.51-10.09-12.62-10.09-25,0-15,6.63-21.72,13.2-21.72S251.21,758,251.21,773c0,12.37-9.67,24.48-10.08,25L238,801.86Z"/><path class="b" d="M238,755.3c5.07,0,9.19,6.62,9.19,17.72S238,795.49,238,795.49s-9.2-11.37-9.2-22.47,4.12-17.72,9.2-17.72m0-8c-8.56,0-17.2,8-17.2,25.72,0,13.53,9.85,26.11,11,27.5l6.23,7.7,6.22-7.7c1.12-1.39,11-14,11-27.5,0-17.76-8.64-25.72-17.19-25.72Z"/><path class="c" d="M220.72,804.15c-.78-.15-19.16-3.83-31.12-12-6.73-4.63-14.75-11.48-14.75-17.84a6.77,6.77,0,0,1,3-5.75,10.15,10.15,0,0,1,5.84-1.59c5.95,0,14.49,3.52,23.41,9.65,12.25,8.42,17.82,21.56,18.05,22.12l2.87,6.9Z"/><path class="b" d="M183.72,770.92c4.77,0,12.46,3,21.15,9,11.41,7.84,16.62,20.36,16.62,20.36s-18.21-3.58-29.63-11.43-15.31-14.53-11.72-17a6.3,6.3,0,0,1,3.58-.89m0-8a14,14,0,0,0-8.11,2.29,10.83,10.83,0,0,0-4.76,9c0,6.51,5.55,13.62,16.48,21.13,12.64,8.69,31.81,12.53,32.62,12.69L234.62,811l-5.75-13.81c-.25-.6-6.26-14.8-19.47-23.88-9.72-6.67-18.84-10.35-25.68-10.35Z"/><path class="d" d="M180.14,821.92c-8.19,0-13.88,0-18-.47-2.45-.26-9.91-1.05-9.91-7,0-7.29,13.36-13.21,29.78-13.21,16.69,0,33.42,6.31,34.12,6.58l9.79,3.73-9.79,3.74c-.7.27-17.43,6.58-34.12,6.58Z"/><path class="b" d="M182,805.29c16.14,0,32.7,6.31,32.7,6.31s-16.56,6.32-32.7,6.32h-1.81c-15.06,0-24-.06-24-3.42s9.63-9.21,25.78-9.21m0-8c-10.54,0-17.81,2.13-22.06,3.92-10.19,4.31-11.72,10.18-11.72,13.29a10.09,10.09,0,0,0,6.37,9.26,23.9,23.9,0,0,0,7.13,1.67c4.35.46,10.14.49,18.47.49H182c17.42,0,34.82-6.56,35.55-6.84l19.58-7.48-19.58-7.47c-.73-.28-18.13-6.84-35.55-6.84Z"/><path class="c" d="M183,857.54a8.72,8.72,0,0,1-5-1.41,7,7,0,0,1-3-6c0-5.59,5.52-12.72,14.75-19.07,12-8.22,30.34-11.9,31.12-12.05l7.34-1.44-2.87,6.9c-.24.56-5.8,13.7-18.05,22.12C200,851.6,189.86,857.54,183,857.54Z"/><path class="b" d="M221.55,823s-5.2,12.52-16.62,20.36c-9.19,6.32-17.27,10.22-22,10.22a4.88,4.88,0,0,1-2.78-.71c-3.59-2.47.31-10.59,11.73-18.44S221.55,823,221.55,823m13.13-10.73L220,815.11c-.81.16-20,4-32.61,12.69-10.48,7.2-16.49,15.35-16.49,22.36a11,11,0,0,0,4.76,9.26,12.63,12.63,0,0,0,7.31,2.12c6.35,0,15.26-3.91,26.48-11.62,13.21-9.08,19.23-23.28,19.48-23.88l5.74-13.81Z"/><path class="d" d="M238.11,873.29c-8.08,0-14.65-10.39-14.65-23.16,0-12.54,11.25-24.7,11.73-25.21l2.92-3.12,2.92,3.12c.48.51,11.72,12.67,11.72,25.21C252.75,862.9,246.18,873.29,238.11,873.29Z"/><path class="b" d="M238.11,827.65s10.64,11.38,10.64,22.48-5.57,19.16-10.64,19.16-10.64-8.07-10.64-19.16,10.64-22.48,10.64-22.48m0-11.71-5.85,6.25c-1.31,1.4-12.79,14.08-12.79,27.94,0,15,8.36,27.16,18.64,27.16s18.64-12.19,18.64-27.16c0-13.86-11.49-26.54-12.8-27.94l-5.84-6.25Z"/><path class="c" d="M293.21,857.5c-6.88,0-17-5.94-24.22-10.92-12.25-8.42-17.82-21.57-18.05-22.12l-2.87-6.91,7.34,1.45c.77.15,19.15,3.83,31.11,12,9.24,6.35,14.75,13.48,14.75,19.07a7,7,0,0,1-3,6A8.72,8.72,0,0,1,293.21,857.5Z"/><path class="b" d="M254.64,822.92s18.2,3.58,29.62,11.42,15.31,16,11.72,18.45a4.83,4.83,0,0,1-2.77.71c-4.68,0-12.76-3.91-21.95-10.22-11.42-7.85-16.62-20.36-16.62-20.36m-13.13-10.73,5.74,13.8c.25.6,6.26,14.8,19.48,23.88,11.22,7.72,20.13,11.63,26.48,11.63a12.58,12.58,0,0,0,7.3-2.12,11,11,0,0,0,4.76-9.26c0-7-6-15.17-16.48-22.37-12.64-8.68-31.8-12.52-32.61-12.68l-14.67-2.88Z"/><path class="d" d="M294.16,821.86c-16.7,0-33.43-6.31-34.13-6.58l-9.79-3.74L260,807.8c.7-.26,17.43-6.58,34.13-6.58,16.41,0,29.77,5.93,29.77,13.22,0,5.9-7.47,6.69-9.92,6.95-4.16.44-9.85.47-18.05.47Z"/><path class="b" d="M294.16,805.22c16.14,0,25.77,5.73,25.77,9.22s-8.91,3.42-24,3.42h-1.81c-16.15,0-32.7-6.32-32.7-6.32s16.55-6.32,32.7-6.32m0-8c-17.43,0-34.82,6.57-35.56,6.85L239,811.54,258.6,819c.74.28,18.13,6.84,35.56,6.84H296c8.33,0,14.11,0,18.47-.5a23.63,23.63,0,0,0,7.12-1.66,10.09,10.09,0,0,0,6.37-9.26c0-3.11-1.52-9-11.72-13.29-4.25-1.79-11.52-3.93-22-3.93Z"/><path class="d" d="M250.88,798.65c.23-.56,5.8-13.7,18.05-22.13,8.92-6.13,17.46-9.64,23.41-9.64a10.13,10.13,0,0,1,5.85,1.59,6.79,6.79,0,0,1,3,5.75c0,6.36-8,13.21-14.75,17.83-12,8.23-30.34,11.9-31.12,12.06L248,805.55Z"/><path class="b" d="M292.34,770.88a6.3,6.3,0,0,1,3.58.88c3.59,2.47-.31,9.15-11.72,17s-29.63,11.42-29.63,11.42,5.21-12.51,16.62-20.36c8.69-6,16.38-8.94,21.15-8.94m0-8h0c-6.84,0-16,3.67-25.68,10.35-13.21,9.08-19.22,23.28-19.47,23.88l-5.75,13.8L256.11,808c.81-.16,20-4,32.62-12.68,10.93-7.52,16.48-14.63,16.48-21.13a10.83,10.83,0,0,0-4.76-9.05,14,14,0,0,0-8.1-2.29Z"/><ellipse class="d" cx="238.02" cy="808.18" rx="20.02" ry="12.17"/><path class="b" d="M238,800c8.85,0,16,3.66,16,8.17s-7.17,8.17-16,8.17-16-3.65-16-8.17,7.18-8.17,16-8.17m0-8c-13.92,0-24,6.8-24,16.17s10.11,16.17,24,16.17,24-6.8,24-16.17S251.94,792,238,792Z"/><path class="d" d="M77.18,842.23c-.46-.48-11.3-11.94-15.15-24.4C57,801.68,59.8,797.39,60.7,796a6.6,6.6,0,0,1,4.77-3.05,6.84,6.84,0,0,1,.91-.06c6.37,0,13.24,8.37,17.09,20.83,3.9,12.62.62,26.16.48,26.73L82.2,847.5Z"/><path class="b" d="M66.38,796.87c3.83,0,9.77,6.7,13.27,18,3.61,11.71.42,24.59.42,24.59s-10.61-11.11-14.22-22.82-3.68-19.27.13-19.76l.4,0m0-8A11.16,11.16,0,0,0,65,789a10.54,10.54,0,0,0-7.62,4.86c-2,3.11-4.1,9.12.86,25.19,4.13,13.35,15.6,25.47,16.08,26l10,10.54,3.5-14.14c.16-.61,3.68-15.2-.54-28.87-4.44-14.37-12.65-23.65-20.91-23.65Z"/><path class="c" d="M71.44,846.18c-.71-.11-17.57-2.75-30.78-10-12.95-7.08-17.79-9.73-18.63-13.89a5.57,5.57,0,0,1,1.17-4.65c1.76-2.22,5.11-3.45,9.42-3.45,3.93,0,10.44,1,19.19,5.79,13.29,7.27,23,19.21,23.35,19.71l6.42,8Z"/><path class="b" d="M32.62,818.22c4.17,0,10.1,1.38,17.27,5.3,12.74,7,22.15,18.7,22.15,18.7s-16.72-2.55-29.46-9.52-18.27-10-16.25-12.54c.88-1.11,3.06-1.94,6.29-1.94m0-8h0c-5.55,0-10,1.76-12.55,5a9.52,9.52,0,0,0-2,7.93c1.21,6,6.5,8.88,20.63,16.61,13.82,7.56,31.36,10.3,32.09,10.41l20.3,3.1-12.85-16c-.42-.53-10.57-13.07-24.55-20.72-9.49-5.19-16.72-6.28-21.11-6.28Z"/><path class="d" d="M23.92,863.61c-1.77,0-7.15,0-8.54-4.51a6.92,6.92,0,0,1,1.1-5.94c2.58-4,10.16-9.28,23.05-10.94a73.67,73.67,0,0,1,9.23-.55,117.2,117.2,0,0,1,23.06,2.48l10,2.25-8.9,5.12c-.56.32-13.9,7.92-28.93,9.85-2.12.27-4.13.54-6,.8A122.75,122.75,0,0,1,23.92,863.61Z"/><path class="b" d="M48.76,845.68a114.51,114.51,0,0,1,22.18,2.37s-13,7.5-27.44,9.35c-8.72,1.12-15.43,2.21-19.58,2.21-2.72,0-4.34-.46-4.72-1.69-.95-3.09,6.43-9.88,20.84-11.73a68.71,68.71,0,0,1,8.72-.51m0-8h0a76.16,76.16,0,0,0-9.74.58c-11.91,1.52-21.84,6.4-25.91,12.73a11,11,0,0,0-1.55,9.29c1,3.35,4,7.33,12.36,7.33a122.36,122.36,0,0,0,14.62-1.48c1.86-.25,3.86-.52,6-.79,15.81-2,29.82-10,30.41-10.35l17.8-10.24-20-4.5a121.68,121.68,0,0,0-23.94-2.57Z"/><path class="c" d="M55.23,891.46a10.28,10.28,0,0,1-5-1.32,8.24,8.24,0,0,1-4.43-5.67c-.79-3.94,1.23-8.67,6.55-15.36,8.13-10.2,22.4-16.92,23-17.2l6.6-3.08-1,7.22c-.07.58-2,14.39-10.18,24.72C65,888.06,60.06,891.46,55.23,891.46Z"/><path class="b" d="M77,855.53s-1.72,13.17-9.35,22.75c-5.53,7-9.44,9.18-12.46,9.18a6.27,6.27,0,0,1-3.08-.83c-3.37-1.84-4.3-5.44,3.33-15S77,855.53,77,855.53m9.82-13.4-13.2,6.15c-.64.3-15.73,7.41-24.44,18.34-6.2,7.8-8.4,13.37-7.34,18.64a12.14,12.14,0,0,0,6.43,8.39,14.27,14.27,0,0,0,6.92,1.81c8.07,0,14.55-7,18.72-12.2,8.91-11.19,10.94-26.06,11-26.69l1.89-14.44Z"/><path class="d" d="M95.39,899c-8.31,0-12.15-9.32-14.32-16.32-3.9-12.63-.62-26.17-.48-26.74l1.75-7.06,5,5.26c.46.49,11.3,11.94,15.15,24.4,2.52,8.17,2.67,13.31.5,16.69a8.24,8.24,0,0,1-6.19,3.67A10.06,10.06,0,0,1,95.39,899Z"/><path class="b" d="M84.47,856.94s10.61,11.11,14.22,22.82,1.45,14.72-2.36,15.21a7.54,7.54,0,0,1-.94.06c-3.53,0-7.17-2.76-10.49-13.5-3.62-11.71-.43-24.59-.43-24.59m-4.26-16.06L76.71,855c-.15.62-3.68,15.2.54,28.88C78.71,888.62,83.16,903,95.39,903a16.1,16.1,0,0,0,2-.13,12.17,12.17,0,0,0,9-5.48c2.9-4.51,2.89-10.5,0-20-4.13-13.35-15.59-25.47-16.08-26L80.21,840.88Z"/><path class="c" d="M135.8,884.91c-3.76,0-8.89-2.85-17.39-7.58l-5.3-2.93c-13.29-7.27-23-19.2-23.36-19.71l-6.42-8,10.15,1.55c.71.1,17.57,2.74,30.78,10,11.39,6.23,16.54,13.9,17.48,18.58a6.88,6.88,0,0,1-1.15,5.93A6,6,0,0,1,135.8,884.91Z"/><path class="b" d="M92.87,852.19s16.72,2.56,29.47,9.52,17.14,16,15.12,18.52a2,2,0,0,1-1.66.68c-3.32,0-10.35-4.32-20.77-10-12.75-7-22.16-18.7-22.16-18.7m-19.08-11,12.84,16c.43.53,10.57,13.07,24.56,20.72l5.28,2.92c9.37,5.21,14.54,8.08,19.33,8.08a9.89,9.89,0,0,0,7.92-3.7,11,11,0,0,0,1.94-9.21c-1.49-7.38-8.95-15.54-19.48-21.3-13.83-7.56-31.36-10.31-32.1-10.42l-20.29-3.1Z"/><path class="c" d="M116.16,852.74a116.34,116.34,0,0,1-23.06-2.48l-10-2.25,8.9-5.12c.56-.32,13.9-7.92,28.93-9.85a57.83,57.83,0,0,1,7.27-.48c10.49,0,18.62,3.51,20.23,8.73a5.58,5.58,0,0,1-.61,4.75c-2.3,3.57-7.77,4.27-22.41,6.15A73.79,73.79,0,0,1,116.16,852.74Z"/><path class="b" d="M128.18,836.56c10.1,0,15.61,3.34,16.41,5.91.95,3.09-5.3,3.9-19.71,5.75a68.72,68.72,0,0,1-8.72.52A114.22,114.22,0,0,1,94,846.36s13-7.5,27.45-9.35a53.81,53.81,0,0,1,6.76-.45m0-8h0a60.37,60.37,0,0,0-7.78.52c-15.81,2-29.83,10-30.42,10.35L72.19,849.66l20,4.51a122.43,122.43,0,0,0,23.94,2.57,78.14,78.14,0,0,0,9.74-.58c16-2,22-2.82,25.26-7.95a9.51,9.51,0,0,0,1.07-8.1c-2.2-7.13-11.41-11.55-24-11.55Z"/><path class="d" d="M83.54,840.35c.07-.58,2-14.38,10.18-24.72,6.74-8.46,14.58-13.71,20.48-13.71a8,8,0,0,1,3.85.92,6.62,6.62,0,0,1,3.33,4.59c.33,1.64,1.34,6.64-9.19,19.86-8.13,10.21-22.4,16.93-23,17.21l-6.6,3.07Z"/><path class="b" d="M114.2,805.92a4,4,0,0,1,1.93.43c3.37,1.85.56,8.87-7.07,18.45S87.5,840.87,87.5,840.87s1.72-13.16,9.35-22.74c6.43-8.08,13.32-12.21,17.35-12.21m0-8h0c-7.19,0-16,5.69-23.6,15.22-8.92,11.2-10.95,26.07-11,26.7l-1.89,14.43,13.2-6.15c.64-.29,15.73-7.4,24.44-18.34,10.48-13.16,10.71-19.51,10-23.14a10.51,10.51,0,0,0-5.33-7.3,11.88,11.88,0,0,0-5.77-1.42Z"/><path class="c" d="M81.19,837.05c-.22-.41-5.49-10.35-3.81-19.27s6.19-14.31,11.8-14.31a8.26,8.26,0,0,1,1.49.14c3.2.6,5.72,3.07,6.92,6.77a23.22,23.22,0,0,1,.29,11.27c-1.68,8.91-10.21,16.25-10.57,16.56l-3.77,3.21Z"/><path class="b" d="M89.18,807.47a3.81,3.81,0,0,1,.75.07c3.49.66,5.46,5.74,4,13.37s-9.23,14.25-9.23,14.25-4.85-9-3.41-16.64c1.34-7.08,4.62-11,7.87-11m0-8h0c-6,0-13.29,4.62-15.73,17.57C71.54,827.16,77,837.77,77.67,839l4.69,8.72,7.54-6.41c1-.87,10-8.76,11.91-18.87,2.61-13.84-3.34-21.38-10.4-22.71a11.87,11.87,0,0,0-2.23-.21Z"/><path class="c" d="M71.26,840c-.52-.2-12.9-5.21-20.23-12.58-6.15-6.19-8.89-11.32-8.15-15.24a6,6,0,0,1,3.52-4.44,7.44,7.44,0,0,1,3-.6c4.61,0,10.94,3.71,17.38,10.18a40.25,40.25,0,0,1,9.86,18.15l1.54,7.31Z"/><path class="b" d="M49.42,811.12c3.21,0,8.69,3.12,14.54,9a36.19,36.19,0,0,1,8.78,16.15s-12-4.82-18.87-11.69-8.64-12-5.86-13.2a3.41,3.41,0,0,1,1.41-.26m0-8a11.35,11.35,0,0,0-4.64.94A9.93,9.93,0,0,0,39,811.42c-1,5.37,2,11.52,9.24,18.8C56,838,68.38,843.14,69.77,843.7l13.89,5.55-3.09-14.63a43.76,43.76,0,0,0-10.93-20.14c-4.22-4.24-12.46-11.36-20.22-11.36Z"/><path class="d" d="M53.93,848.21a61.44,61.44,0,0,1-11.38-1l-.64-.12c-5.49-1-9.82-1.85-12.89-2.76-5.24-1.54-7.58-4.06-6.93-7.48,1-5.17,8.49-7,15.19-7a46,46,0,0,1,8.39.82c11.69,2.21,22.55,8.83,23,9.11l8.93,5.49-10.32,1.85A82.19,82.19,0,0,1,53.93,848.21Z"/><path class="b" d="M37.28,833.87a42.23,42.23,0,0,1,7.65.75c11.1,2.1,21.65,8.59,21.65,8.59a79.93,79.93,0,0,1-12.65,1,58.65,58.65,0,0,1-10.64-.9C32.19,841.22,25.57,840,26,837.62c.34-1.79,4.53-3.75,11.26-3.75m0-8h0c-10.76,0-17.91,3.84-19.12,10.26a9.41,9.41,0,0,0,4.28,9.69,19.36,19.36,0,0,0,5.46,2.38c3.25,1,7.68,1.8,13.28,2.85l.63.12a66,66,0,0,0,12.12,1A87.4,87.4,0,0,0,68,851.08l20.63-3.72-17.86-11c-.48-.3-11.95-7.29-24.36-9.63a49.57,49.57,0,0,0-9.13-.89Z"/><path class="c" d="M40.86,872.05a8.3,8.3,0,0,1-6.14-2.16,6.14,6.14,0,0,1-1.64-5.56c.81-4.3,5.66-8.7,13.31-12.07,9.51-4.2,22.86-4.35,23.42-4.35l7.48-.06-4.1,6.25a40.21,40.21,0,0,1-15.8,13.3C52.6,869.52,45.83,872.05,40.86,872.05Z"/><path class="b" d="M69.84,851.91a36.2,36.2,0,0,1-14.06,11.83c-6.15,2.72-11.5,4.31-14.92,4.31a4.63,4.63,0,0,1-3.31-1c-2.14-2.16,1.59-7.24,10.45-11.15s21.84-4,21.84-4m14.89-8.12-15,.12c-1.5,0-14.92.24-25,4.69-5.21,2.3-14.17,7.31-15.62,15a10.09,10.09,0,0,0,2.73,9.12,12.16,12.16,0,0,0,9,3.34c4.55,0,10.66-1.68,18.15-5a43.61,43.61,0,0,0,17.52-14.77l8.2-12.5Z"/><path class="d" d="M75.87,890a7.3,7.3,0,0,1-1.4-.13c-6.2-1.17-9.8-9.79-8-19.22,1.69-8.92,10.77-15.8,11.8-16.55l3.45-2.53L84,855.13c.68,1.08,6.63,10.79,5,19.71C87.32,883.45,81.7,890,75.87,890Z"/><path class="b" d="M80.61,857.27s5.84,9.2,4.4,16.83C83.66,881.26,79.28,886,75.87,886a3.6,3.6,0,0,1-.66-.06c-3.49-.66-6.26-6.92-4.83-14.55s10.23-14.07,10.23-14.07m2.17-11.51-6.9,5.06c-1.16.85-11.39,8.61-13.36,19-2.22,11.79,2.7,22.28,11.21,23.89a11.75,11.75,0,0,0,2.14.2c7.84,0,15-7.73,17-18.37,2-10.43-4.73-21.38-5.5-22.59l-4.59-7.23Z"/><path class="c" d="M116,886.27c-4.25,0-10.13-3.75-17.47-11.14A40.19,40.19,0,0,1,88.67,857l-1.54-7.32,6.94,2.78c.52.21,12.9,5.21,20.23,12.59,5.89,5.92,8.8,11.79,8,16.08a6.13,6.13,0,0,1-3.55,4.59A6.75,6.75,0,0,1,116,886.27Z"/><path class="b" d="M92.58,856.16s12,4.82,18.88,11.7,8.46,13,5.67,14.19a2.71,2.71,0,0,1-1.13.22c-3.13,0-8.61-3.9-14.63-10a36.22,36.22,0,0,1-8.79-16.15m-10.91-13,3.09,14.63A43.76,43.76,0,0,0,95.69,878c5.26,5.29,13.08,12.32,20.31,12.32a10.84,10.84,0,0,0,4.36-.9,10.1,10.1,0,0,0,5.86-7.5c1.45-7.69-5.07-15.61-9.08-19.65-7.78-7.83-20.2-12.93-21.59-13.48l-13.88-5.56Z"/><path class="d" d="M135.44,864.09c-3.32,0-8.28-.93-15.15-2.23l-.63-.12c-11.69-2.2-22.55-8.82-23-9.1l-8.93-5.49L98,845.29a83.54,83.54,0,0,1,13.36-1.07,62.39,62.39,0,0,1,11.38,1,38.07,38.07,0,0,1,14.06,5.32c4.21,2.8,6.22,6,5.65,9C142.17,861.24,140.82,864.09,135.44,864.09Z"/><path class="b" d="M111.4,848.22a58.65,58.65,0,0,1,10.64.9c11.09,2.1,17,7.28,16.52,9.68-.18.92-1.25,1.29-3.12,1.29-3,0-8.18-1-15-2.28-11.1-2.09-21.65-8.58-21.65-8.58a79.16,79.16,0,0,1,12.65-1m0-8v0h0a88.61,88.61,0,0,0-14.07,1.13L76.7,845.07l17.86,11c.48.3,12,7.29,24.36,9.63l.63.12c7.08,1.34,12.2,2.3,15.89,2.3,8.82,0,10.63-6,11-7.81.51-2.72.24-8-7.37-13.1a42.72,42.72,0,0,0-15.53-5.92,66,66,0,0,0-12.12-1Z"/><path class="d" d="M92.14,838.33A40.23,40.23,0,0,1,107.93,825c5.73-2.52,11.15-3.91,15.28-3.91,3.19,0,5.62.81,7.21,2.42a6,6,0,0,1,1.67,5.42c-.74,3.92-5.17,7.69-13.15,11.22-9.51,4.2-22.86,4.34-23.42,4.35l-7.48.05Z"/><path class="b" d="M123.21,825.11c2.05,0,3.56.43,4.38,1.25,2.14,2.16-1.4,6.24-10.26,10.16s-21.84,4-21.84,4a36.18,36.18,0,0,1,14.06-11.84c5.51-2.43,10.31-3.58,13.66-3.58m0-8h0c-4.74,0-10.58,1.48-16.89,4.26A43.69,43.69,0,0,0,88.8,836.14l-8.2,12.5,15-.11c1.5,0,14.92-.24,25-4.69C130,839.69,135,835.07,136,829.7a10,10,0,0,0-2.76-9c-2.37-2.39-5.76-3.61-10-3.61Z"/><path class="d" d="M85.9,853.87a25.44,25.44,0,0,1-4.63-.44c-8.66-1.64-14.18-6.84-13.14-12.37.83-4.42,5.48-7.17,12.12-7.17a24.42,24.42,0,0,1,4.62.45,21.77,21.77,0,0,1,9.18,3.87c3.09,2.39,4.53,5.48,4,8.49C97.18,851.12,92.54,853.87,85.9,853.87Z"/><path class="b" d="M80.25,837.89a20.46,20.46,0,0,1,3.88.38c6.08,1.14,10.54,4.59,10,7.69-.45,2.41-3.83,3.91-8.18,3.91A21.46,21.46,0,0,1,82,849.5c-6.08-1.15-10.53-4.59-10-7.7.46-2.41,3.84-3.91,8.19-3.91m0-8h0c-8.56,0-14.86,4.1-16,10.43-1.47,7.81,5.39,15,16.33,17a29,29,0,0,0,5.37.51c8.55,0,14.85-4.09,16-10.43,1.47-7.81-5.4-15-16.34-17a29.82,29.82,0,0,0-5.36-.51Z"/><path class="d" d="M331.93,179.3c-10.55,0-18.5-4.9-18.5-11.39s7.95-11.4,18.5-11.4,18.51,4.9,18.51,11.4S342.48,179.3,331.93,179.3Z"/><path class="b" d="M331.93,160.51c8,0,14.51,3.31,14.51,7.4s-6.5,7.39-14.51,7.39-14.5-3.31-14.5-7.39,6.49-7.4,14.5-7.4m0-8c-13,0-22.5,6.48-22.5,15.4s9.46,15.39,22.5,15.39,22.51-6.47,22.51-15.39-9.47-15.4-22.51-15.4Z"/></svg>