<svg xmlns="http://www.w3.org/2000/svg" width="510" height="900" viewBox="0 0 510 900"><defs><style>.a{fill:#432d1e;}.b,.c{fill:#db85a0;}.c,.e,.f,.g{stroke:#432d1e;stroke-miterlimit:2;}.c,.f{stroke-width:7px;}.d,.f{fill:#ebaed3;}.e{fill:none;}.e,.g{stroke-width:10px;}.g,.h{fill:#aebf7c;}</style></defs><title>new_game_large</title><path class="a" d="M5.48,888.77a63.48,63.48,0,0,1,5.28-6.27l1.37-1.43,1.4-1.38c.93-.93,1.88-1.79,2.84-2.66a125.42,125.42,0,0,1,11.83-9.44,139.48,139.48,0,0,1,12.49-7.87q6.39-3.59,13-6.55l-5.6,4A36.79,36.79,0,0,1,60.53,847,39.11,39.11,0,0,1,69,843.88c.77-.2,1.63-.33,2.43-.51s1.7-.26,2.59-.36a32.39,32.39,0,0,1,5.83-.15l.8,0a.67.67,0,0,1,.62.71.64.64,0,0,1-.14.36l-4.91,6.24-5,6.12c-1.69,2-3.44,4-5.16,6s-3.42,4-5.2,6l-.28.31-.34.13L46.74,874.3q-6.72,2.78-13.49,5.45l-13.53,5.36L6.13,890.34a.8.8,0,0,1-1-.46.78.78,0,0,1,.1-.74Z"/><path class="a" d="M117.1,874.13a84.25,84.25,0,0,1,8.71-4.45c1.45-.67,2.91-1.28,4.37-1.87s2.93-1.14,4.39-1.7c5.86-2.15,11.75-4,17.66-5.47,1.47-.39,3-.7,4.43-1.06s3-.71,4.44-1c3-.63,5.93-1.16,8.9-1.66q8.92-1.49,17.88-2.25l-6.35,1.89A83.6,83.6,0,0,1,192,851.27a72.65,72.65,0,0,1,11.33-3.74,67.27,67.27,0,0,1,12.33-1.94c1.08-.08,2.19-.09,3.28-.14s2.23,0,3.39,0a42.68,42.68,0,0,1,7.17.83l.59.12a.74.74,0,0,1,.57.88.71.71,0,0,1-.34.48l-10,6.09-10.12,5.92c-3.37,2-6.79,3.86-10.18,5.8s-6.79,3.88-10.22,5.74l-.34.19-.36,0-18,1.2c-6,.4-12,.81-18,1.14l-18,1-18,.89a.81.81,0,0,1-.84-.77.79.79,0,0,1,.39-.73Z"/><path class="b" d="M93.62,865.82a23.25,23.25,0,0,1-12-12.05,26.25,26.25,0,0,1-2.15-10.2,29.62,29.62,0,0,1-14.78,3.93,32.67,32.67,0,0,1-15.44-3.87L45,841.11l7-12-14.71-.57,2.39-6.46c.25-.68,5.51-14.45,20.87-18.38-15.41-16.53-10-30.48-9.68-31.15l2-4.85,14.54,6.81.2-16.14,6.1,1.48c.56.14,9.93,2.59,16.47,15C94.78,762.09,101.91,758,103,757.4l5.32-2.76,2.86,9.29,8.32-7.58,3,5.82c2.84,5.54,5.44,16.91.79,28.66.4,0,.81,0,1.22,0,15.4,0,23.68,14.55,24,15.17l2.75,4.95-15.43,6.22,7.93,9.89-5.25,2.85c-.56.31-5.65,3-14,3a42.12,42.12,0,0,1-6.59-.53c6.19,12.38,2.2,22.91-2,27.75l-2.83,3.27-11.2-7.17-3,11.71Z"/><path class="a" d="M105.32,761.84l3.42,11.1,9.31-8.49s9.57,18.66-6.61,35.56c4.85-3,9.22-4.21,13.07-4.21,12.64,0,19.66,12.6,19.66,12.6L127.75,815l8.4,10.47s-4.3,2.34-11.63,2.34c-5.59,0-12.93-1.35-21.48-6.11,22.46,19.65,9.12,35.06,9.12,35.06l-13.35-8.55-3.37,12.94s-17.73-6.91-8-31.72c-7.38,10.35-15.86,13-22.69,13a28.13,28.13,0,0,1-12.92-3.19l8.65-14.84-16.14-.63a26.41,26.41,0,0,1,24.75-16.15,35.31,35.31,0,0,1,3.62.19c-23.7-17.75-17.25-33.4-17.25-33.4l16.82,7.88.21-17.62s16.13,3.91,18.62,32.76c1.15-28.87,14.24-35.66,14.24-35.66m6-14.4L100.72,753c-1,.53-6.44,3.63-11.34,11.89-.42-.48-.84-1-1.28-1.43C82,757,76,755.3,74.82,755l-12.21-3-.15,12.56,0,2.09-2.77-1.29L50.18,761l-4,9.69c-.47,1.14-2.71,7.26-.78,16a40.54,40.54,0,0,0,6.81,14.86,36.89,36.89,0,0,0-17.29,18.84l-4.76,12.91,13.27.52-.27.46-5,8.65,8.65,5a38.06,38.06,0,0,0,17.95,4.55,34.79,34.79,0,0,0,10.68-1.66,30.22,30.22,0,0,0,1.67,4.94,28.5,28.5,0,0,0,14.74,14.7l10.47,4.08L105,864.07l1.76,1.13,7.29,4.67,5.66-6.55A28.67,28.67,0,0,0,126,847.45a30.88,30.88,0,0,0-.72-9.63c9-.15,14.6-3,15.66-3.54l10.5-5.72-7.46-9.3,3.94-1.59,10.51-4.24-5.51-9.9c-3.2-5.74-11.28-14.94-23-17.21a41.87,41.87,0,0,0-3-26.43l-6-11.64-7.32,6.67-2.3-7.48Z"/><ellipse class="c" cx="93.41" cy="810.21" rx="6.74" ry="5.31" transform="translate(-525.47 279.03) rotate(-42.78)"/><path class="b" d="M89.81,806.31c-4.91-3-10.66-13.41-10.66-13.41"/><path class="a" d="M87.19,810.57A16.71,16.71,0,0,1,83.81,806a35.34,35.34,0,0,1-2-4.4,71,71,0,0,1-2.68-8.73,70.14,70.14,0,0,0,6.69,5.76,30.47,30.47,0,0,0,3.48,2.28,7.53,7.53,0,0,0,3.1,1.11Z"/><path class="b" d="M96.57,804.47c1.41-7.45,8.09-15.62,8.09-15.62"/><path class="a" d="M91.65,803.54A30.08,30.08,0,0,1,97.56,795a53.91,53.91,0,0,1,7.1-6.18,51,51,0,0,0-2.71,8.58,33.83,33.83,0,0,0-.62,4.2,15.88,15.88,0,0,0,.15,3.77Z"/><path class="b" d="M99.51,808.37c9.07-2.25,14.39,1.13,14.39,1.13"/><path class="a" d="M98.31,803.52c.76.05,1.5.09,2.24.16s1.47.17,2.2.33a25.69,25.69,0,0,1,4.22,1.13,21.51,21.51,0,0,1,3.8,1.83,14.17,14.17,0,0,1,3.13,2.53,13.1,13.1,0,0,0-3.74-.11,18.69,18.69,0,0,0-3.48.74,20.53,20.53,0,0,0-3.15,1.33c-.49.25-1,.57-1.44.84s-.93.62-1.37.92Z"/><path class="b" d="M92.47,816.2c-.65,6.27,3.54,15.07,3.54,15.07"/><path class="a" d="M97.45,816.72a9.57,9.57,0,0,0-1.15,2.89,24.39,24.39,0,0,0-.52,3.67,43.93,43.93,0,0,0,.23,8,46.85,46.85,0,0,1-5.06-6.7,31.19,31.19,0,0,1-2.08-4,19.21,19.21,0,0,1-1.37-4.9Z"/><path class="b" d="M87.54,813.17c-9,.25-16.48,6.71-16.48,6.71"/><path class="a" d="M87.67,818.17a16.25,16.25,0,0,0-3.72-.73,21.82,21.82,0,0,0-4.18.1,30.91,30.91,0,0,0-8.71,2.34,33.22,33.22,0,0,1,6.74-6.94,28.92,28.92,0,0,1,4.38-2.79,25.89,25.89,0,0,1,5.22-2Z"/><path class="b" d="M277,873.67l-7.85,10-4-4.47c-.35-.39-6.1-7.07-7-19.5a26.58,26.58,0,0,1-17.24,6.52h0a23.34,23.34,0,0,1-10.26-2.26l-3.82-2,4.47-12.52-12.1-.34.81-5.56c.83-5.68,5.79-15.57,18.53-18.75a31,31,0,0,1-6.87-29.45l1.48-4.78,13.24,4.11-2.75-14.45,6.83.86a31.19,31.19,0,0,1,22.56,16.25c9.91-14.78,21.12-16.62,26.06-16.62a12.83,12.83,0,0,1,2.16.15l5.17.86-3.37,15.7,15.77-3.44-.07,6.27c0,.58-.29,10.28-10.92,19.45,13.65,1.71,19.26,7.83,19.94,8.63l3.89,4.56-8.41,4.87,9.26,6.4-5,4.22A37.11,37.11,0,0,1,305.19,856h0a35.76,35.76,0,0,1-5.37-.41,23.52,23.52,0,0,1,.88,7.05c-.29,12-9.59,20.55-10,20.9l-4.21,3.8Z"/><path class="a" d="M299.13,785.63a9,9,0,0,1,1.33.08l-3.89,18.17,17.21-3.76s-.19,16.59-27.73,25.51a77.37,77.37,0,0,1,14.4-1.46c17.32,0,23.55,7.32,23.55,7.32L314,837.31l10.36,7.17A32,32,0,0,1,305.19,851a32.85,32.85,0,0,1-17-5c17.4,17.33-.81,33.78-.81,33.78l-10.15-14.5-8.31,10.53s-10-11.33-3.77-33.11C257,858,247.47,861.17,240.94,861.17a18.44,18.44,0,0,1-7.92-1.68l5.33-14.93L225,844.18s2.25-15.48,22.32-15.48a46.87,46.87,0,0,1,6.77.53c-24.52-10.15-17.6-32.49-17.6-32.49l16.4,5.1-3-15.88s19.24,2.45,21.92,24.06c9.94-22.48,23.14-24.39,27.34-24.39m-61.65-11.32,2.47,13-.51-.16-9.55-3-3,9.56a37.94,37.94,0,0,0-.66,17.31,35.24,35.24,0,0,0,4.26,11.25,28.46,28.46,0,0,0-15.44,20.39l-1.62,11.12,10.84.31-.7,2-2.91,8.15,7.64,4.05a28.35,28.35,0,0,0,12.6,2.84A30.27,30.27,0,0,0,254.41,868c2.16,8.68,6.23,13.58,7,14.45l7.93,8.95,7.39-9.36,2.43,3.48,6.49,9.29,8.41-7.6c1.16-1,11.29-10.59,11.63-24.49,0-.56,0-1.15,0-1.76a41.81,41.81,0,0,0,25.08-8.85l10-8.43-8.15-5.64,6.77-3.92L331.61,825c-1-1.21-5.24-5.61-14.1-8.42.37-.5.72-1,1.07-1.53,4.87-7.36,5.19-13.64,5.2-14.83l.14-12.56-12.27,2.68-2,.45.64-3,2.2-10.25-10.34-1.71a18.3,18.3,0,0,0-3-.22c-5.06,0-15.69,1.57-25.77,13A36.73,36.73,0,0,0,251.13,776l-13.65-1.73Z"/><ellipse class="c" cx="274.19" cy="830.75" rx="5.31" ry="6.74" transform="translate(-566.91 590.15) rotate(-55.77)"/><path class="b" d="M277.17,826.36C279,820.91,287.85,813,287.85,813"/><path class="a" d="M272.43,824.77a16.85,16.85,0,0,1,3.67-4.31,35.87,35.87,0,0,1,3.84-2.93,71,71,0,0,1,7.91-4.56,68,68,0,0,0-4.11,7.81,30,30,0,0,0-1.44,3.9,7.44,7.44,0,0,0-.39,3.28Z"/><path class="b" d="M280.48,832.54c7.59-.31,17,4.37,17,4.37"/><path class="a" d="M280.28,827.54a29.7,29.7,0,0,1,9.63,3.85,54.36,54.36,0,0,1,7.62,5.52,51,51,0,0,0-9-.71,33.86,33.86,0,0,0-4.24.34,16.47,16.47,0,0,0-3.64,1Z"/><path class="b" d="M277.35,836.28c4.23,8.33,2.13,14.28,2.13,14.28"/><path class="a" d="M281.8,834c.13.75.26,1.48.35,2.22s.17,1.47.18,2.22a26.3,26.3,0,0,1-.15,4.36,22.06,22.06,0,0,1-.94,4.12,14,14,0,0,1-1.76,3.62,12.6,12.6,0,0,0-.74-3.67,17.87,17.87,0,0,0-1.49-3.22,20.46,20.46,0,0,0-2-2.77c-.35-.43-.77-.83-1.14-1.23s-.82-.76-1.21-1.12Z"/><path class="b" d="M268.14,831.18c-6.26.77-13.89,6.84-13.89,6.84"/><path class="a" d="M268.75,836.15a9.48,9.48,0,0,0-3.07-.47,22.85,22.85,0,0,0-3.7.32,43.65,43.65,0,0,0-7.73,2,47.51,47.51,0,0,1,5.39-6.45,32.1,32.1,0,0,1,3.42-2.92,19.44,19.44,0,0,1,4.47-2.43Z"/><path class="b" d="M270,825.69c-2.26-8.68-10.24-14.54-10.24-14.54"/><path class="a" d="M265.14,827a16.86,16.86,0,0,0-.13-3.79,21.6,21.6,0,0,0-1-4.06,30.9,30.9,0,0,0-4.24-8,33,33,0,0,1,8.28,5,28.83,28.83,0,0,1,3.7,3.64,24.89,24.89,0,0,1,3.09,4.63Z"/><path class="d" d="M350.19,878.26c-.63-.35-11.95-6.87-18.22-24.34-9.29,18.51-24.78,20.28-30.28,20.28a20.11,20.11,0,0,1-2.9-.18l-4.28-.64.11-18.89-16,5.11-1.07-5.52A30.06,30.06,0,0,1,282.38,833a34.89,34.89,0,0,1,12.38-11,40,40,0,0,1-23.86-34.39l-.19-5,19.9-.71-10.22-17.66,6.73-1.44a34.55,34.55,0,0,1,6.7-.58,40,40,0,0,1,30,12.93c6.88-31.26,27-35.16,28-35.33l5.16-.9,2.83,22.43,19-11.72,2,6c.25.76,4.58,14.36-7.35,31.86a62,62,0,0,1,16.46-2.38c9.85,0,15.16,2.94,15.74,3.27l5.17,3-9,10.48L417,806l-3.33,5.63c-.48.82-11.21,18.54-33.84,21.27a30.59,30.59,0,0,1,5.82,10.43c4.76,14.76-2.94,29.15-3.27,29.76l-2.71,5-18.57-13.36-5.66,16.45Z"/><path class="a" d="M352.62,744.77l3.15,24.92,20.29-12.49s7.18,21.27-24,45c16.67-9.63,29.3-12.08,37.83-12.08,8.78,0,13.21,2.59,13.21,2.59L392.9,804.59l16.43,4.52S398,828.27,373.87,828.27a49.89,49.89,0,0,1-10-1c30,14.34,14.06,43.48,14.06,43.48l-19.43-14-5.9,17.16s-17.89-10-19.62-40.58c-5.16,33-24.76,35.88-31.32,35.88a16.12,16.12,0,0,1-2.16-.12l.13-21.44-17.23,5.49s-4.91-25.25,30.46-32.09c-35.84-2-37-33.59-37-33.59l23.22-.83-10.94-18.91a29.79,29.79,0,0,1,5.65-.47c8.31,0,23.83,2.73,33.08,21.38,3.17-39.92,25.72-43.85,25.72-43.85m8.61-11.65-10.32,1.8c-1.46.25-9.13,1.91-17,9.7-5.62,5.56-9.9,12.74-12.81,21.46a46.42,46.42,0,0,0-27.28-8.84,39,39,0,0,0-7.75.69l-13.46,2.87,6.89,11.92,2.61,4.5-6.58.24-10,.36.37,10a47.73,47.73,0,0,0,6.42,20.73,43.41,43.41,0,0,0,12.9,13.94,37,37,0,0,0-7,7.73A34.79,34.79,0,0,0,272.62,855l2.14,11,10.71-3.41,4.11-1.31-.05,7.67,0,8.65L298,879a25.43,25.43,0,0,0,3.65.23,37.07,37.07,0,0,0,22.24-7.58,40.74,40.74,0,0,0,7.3-7.2,54.69,54.69,0,0,0,4.21,6.62c5.68,7.66,11.26,11,12.32,11.59l10.44,5.82,3.88-11.3,1.53-4.44,8.51,6.12,9.2,6.62,5.42-10c.93-1.71,9-17.19,3.63-33.69a35.46,35.46,0,0,0-2.27-5.46,53.38,53.38,0,0,0,29.84-22.15l6.66-11.27L412,799.47l-1.22-.34,7.76-9-10.35-6c-1.13-.66-7.32-4-18.26-4a60.36,60.36,0,0,0-6.91.41,50.05,50.05,0,0,0,2.45-7.23c2.69-10.61.54-17.9.09-19.26l-4-11.9-10.7,6.59L363.75,753l-1.2-9.53-1.32-10.39Z"/><ellipse class="e" cx="339.22" cy="814" rx="7.17" ry="9.11" transform="matrix(0.26, -0.97, 0.97, 0.26, -534.68, 932.13)"/><path class="a" d="M336.07,807.13a23.36,23.36,0,0,1,2.27-6.78,50.82,50.82,0,0,1,3.14-5.48,97.84,97.84,0,0,1,7.23-9.68,95.21,95.21,0,0,0-2.57,11.49,44.19,44.19,0,0,0-.55,5.6,13.82,13.82,0,0,0,.48,4.72Z"/><path class="a" d="M346.22,808.81a40.92,40.92,0,0,1,13.41-.15,73.9,73.9,0,0,1,12.14,2.76,71.27,71.27,0,0,0-11.83,2.23,51.75,51.75,0,0,0-5.43,1.9,26.84,26.84,0,0,0-4.61,2.56Z"/><path class="a" d="M349.19,816c.51.82,1,1.62,1.51,2.44s.94,1.66,1.33,2.54a35.6,35.6,0,0,1,2,5.24,29.07,29.07,0,0,1,1,5.38,18.87,18.87,0,0,1-.22,5.27,17.42,17.42,0,0,0-2.16-4.49,25.51,25.51,0,0,0-3-3.73,27.88,27.88,0,0,0-3.53-3c-.6-.46-1.28-.86-1.9-1.27s-1.32-.76-2-1.13Z"/><path class="a" d="M333.92,821.74a16.12,16.12,0,0,0-4.2,1.34,36.46,36.46,0,0,0-4.38,2.47,61.39,61.39,0,0,0-8.31,6.64c.61-1.71,1.31-3.39,2.08-5.07s1.61-3.33,2.57-5a43.45,43.45,0,0,1,3.24-4.84,26.47,26.47,0,0,1,4.56-4.54Z"/><path class="a" d="M327.43,812.21a24.37,24.37,0,0,0-2.4-4.75,30.73,30.73,0,0,0-3.54-4.49,41.58,41.58,0,0,0-4.4-4.05,40.92,40.92,0,0,0-5.07-3.48,41,41,0,0,1,6.2,1.25,47.86,47.86,0,0,1,6.11,2.16,38.85,38.85,0,0,1,5.92,3.22,33.88,33.88,0,0,1,5.49,4.57Z"/><path class="d" d="M141.38,814.59,129,821.78l-2.24-5.15a26.66,26.66,0,0,1,.15-19.16,30.18,30.18,0,0,1,7.55-10.9c-16-3.79-23.71-17.13-25.68-24.71L107.53,757l16.16-4.18L111.94,740l6.26-2.85a35.29,35.29,0,0,1,13.8-2.68,34.6,34.6,0,0,1,19,5.6c.46-27,16.58-34,17.36-34.3l4.85-2,6.44,18,13.68-13.26,3.24,5.38c.36.58,6.3,10.82.41,27.16,6.18-3.09,13-5.3,20-5.3a21.58,21.58,0,0,1,6.18.76l5.71,1.84-5.49,10.26,13.32.67-2,6.22c-2.27,7-9.76,18.68-23.82,24.16a27,27,0,0,1,6.09,7.16c6.9,11.78,3,25.6,2.86,26.19l-1.58,5.44-18-7.73-1.69,14.79-5.72-1.71c-.59-.18-10.9-3.42-19.43-16.13-4.72,16.1-16.9,21.65-24.36,22.16l-4.32.29Z"/><path class="a" d="M170.23,710.41l7.29,20.38,14.75-14.29s10,16.56-11.82,42.29c17-15.55,30-18,36.53-18a16.81,16.81,0,0,1,4.65.52l-6.38,11.94,14.67.74s-7.59,23.22-34.85,23.71c27.87,6.48,19.92,34,19.92,34l-19-8.15L194.27,819s-16.9-5.06-24.05-30.48c2.18,34.7-21.51,36.31-21.51,36.31l-3.88-18.06-13.48,7.82S122.52,794.31,151,782a46,46,0,0,1-7.4.63c-24.26,0-30-22-30-22l19.38-5-12.73-13.87A30.85,30.85,0,0,1,132,739.48c7.2,0,16.59,2.47,24.76,12.6-4.77-34.17,13.47-41.67,13.47-41.67m5.89-13.24-9.69,4c-1.25.51-7.74,3.49-13.13,11.85a46.49,46.49,0,0,0-6.76,19.18A39.87,39.87,0,0,0,132,729.48a40.93,40.93,0,0,0-15.88,3.13l-12.52,5.71,9.31,10.15,1.47,1.6-3.26.85-9.69,2.51,2.52,9.69a41.26,41.26,0,0,0,21.93,25.77,33.68,33.68,0,0,0-3.61,6.74,31.54,31.54,0,0,0-.09,23l4.48,10.31,9.72-5.65,1.56-.91,1,4.6,1.82,8.46,8.64-.58a31.84,31.84,0,0,0,17.32-7.46,34.36,34.36,0,0,0,8.1-9.94,48.17,48.17,0,0,0,3.56,3.43c6.42,5.58,12,7.43,13,7.74l11.45,3.43,1.36-11.88.25-2.17,6.59,2.84,10.4,4.47,3.15-10.88c.48-1.68,4.5-16.73-3.35-30.11a29.71,29.71,0,0,0-2.05-3.06,47,47,0,0,0,20.22-24.18l4.07-12.43-12-.6,4.59-8.6-11.41-3.67a26,26,0,0,0-7.71-1,44.46,44.46,0,0,0-12.82,2,39.61,39.61,0,0,0,.37-4.47c.31-9.8-3-15.85-3.71-17l-6.49-10.75-9,8.74-3.6,3.49L179.65,707l-3.53-9.87Z"/><ellipse class="e" cx="171.85" cy="771.14" rx="6.18" ry="7.85" transform="translate(-605.93 909.9) rotate(-87.55)"/><path class="a" d="M167.24,766.11a19.62,19.62,0,0,1,.81-6.31,42.09,42.09,0,0,1,1.79-5.22,82.64,82.64,0,0,1,4.63-9.44,78.29,78.29,0,0,0,.32,10.2,35.37,35.37,0,0,0,.75,4.78,10.33,10.33,0,0,0,1.44,3.7Z"/><path class="a" d="M176.38,764.9a35.2,35.2,0,0,1,11.54-2.38,62.51,62.51,0,0,1,10.82.4,59.42,59.42,0,0,0-9.43,4.41,40.25,40.25,0,0,0-4.11,2.75,21.29,21.29,0,0,0-3.22,3.11Z"/><path class="a" d="M181,770.41c.58.63,1.16,1.24,1.72,1.88s1.08,1.28,1.56,2a30.89,30.89,0,0,1,2.61,4.21,25.08,25.08,0,0,1,1.73,4.48,16.06,16.06,0,0,1,.65,4.56,15.08,15.08,0,0,0-2.8-3.28,21,21,0,0,0-3.33-2.45,25.11,25.11,0,0,0-3.6-1.71c-.6-.25-1.26-.42-1.86-.63s-1.26-.32-1.87-.48Z"/><path class="a" d="M169.26,779.18a12.66,12.66,0,0,0-3.31,1.69,29.56,29.56,0,0,0-3.33,2.75,51.8,51.8,0,0,0-6.06,7,55.36,55.36,0,0,1,1.74-9.49,37.09,37.09,0,0,1,1.72-4.81,22.3,22.3,0,0,1,3-4.89Z"/><path class="a" d="M161.12,772.33a20.14,20.14,0,0,0-2.7-3.6,26.15,26.15,0,0,0-3.67-3.24,36.53,36.53,0,0,0-9.24-4.9,35.56,35.56,0,0,1,5.48-.27,40.4,40.4,0,0,1,5.64.53,33.73,33.73,0,0,1,5.72,1.49A29,29,0,0,1,168,765.1Z"/><path class="a" d="M291.29,158.75a64.35,64.35,0,0,1,11.22-4.86A103.34,103.34,0,0,1,313.56,151c1.83-.35,3.66-.68,5.48-1s3.64-.51,5.45-.68c3.63-.36,7.24-.54,10.84-.56l-6.63.94a128.67,128.67,0,0,1,15.54-6.53,121.27,121.27,0,0,1,16.35-4.45,110.73,110.73,0,0,1,17.3-2,73.74,73.74,0,0,1,18.67,1.55l.48.11a.77.77,0,0,1,.13,1.47c-5.18,2.17-10.34,4.41-15.54,6.53s-10.39,4.26-15.61,6.33l-15.68,6.18c-5.21,2.09-10.48,4-15.72,6.05l-.37.14-.37,0-10.7-1L312.5,162.9c-3.57-.39-7.13-.73-10.69-1.18l-10.67-1.27a.78.78,0,0,1-.68-.87.78.78,0,0,1,.39-.58Z"/><path class="a" d="M187.18,50.68a42.82,42.82,0,0,1,8.15,0,58.71,58.71,0,0,1,20.22,5.42,64.76,64.76,0,0,1,11.19,6.62,67.33,67.33,0,0,1,9.7,8.58l-8.67-2.92A62.26,62.26,0,0,1,235,70c1.2.35,2.4.74,3.6,1.2l1.8.66,1.8.77a56.91,56.91,0,0,1,7.19,3.75,43.35,43.35,0,0,1,7.19,5.41l.47.44a.73.73,0,0,1,0,1,.75.75,0,0,1-.5.23l-7.19.29c-2.4.12-4.8.18-7.19.23l-7.2.16c-2.4.06-4.79,0-7.19.08h-.53l-.45-.33-10.32-7.76-10.22-7.9c-3.42-2.61-6.74-5.35-10.12-8s-6.65-5.47-10-8.2a.72.72,0,0,1-.1-1,.7.7,0,0,1,.47-.26Z"/><path class="a" d="M433.68,113.64a54.41,54.41,0,0,1,15.6-2.19,70.28,70.28,0,0,1,14,1.37,76.13,76.13,0,0,1,12.95,3.84,81.37,81.37,0,0,1,12,5.93l-5.9-1.24a74,74,0,0,1,8.34,1.56q2.08.53,4.17,1.17c1.39.49,2.78.9,4.17,1.46a67,67,0,0,1,8.35,3.87,47.75,47.75,0,0,1,8.34,5.74l.46.4a.73.73,0,0,1,.07,1,.77.77,0,0,1-.53.26l-8.34.31c-2.78.13-5.56.17-8.35.23l-8.34.17-8.34.06h-.33l-.32-.14c-4.1-1.79-8.22-3.5-12.29-5.35l-12.22-5.48c-4.08-1.83-8.11-3.76-12.16-5.63S437,117.14,433,115.2a.74.74,0,0,1-.34-1,.72.72,0,0,1,.45-.39Z"/><path class="a" d="M470.45,103.1a34.77,34.77,0,0,1,6.79-2,33.33,33.33,0,0,1,5.88-.65,29.19,29.19,0,0,1,10,1.37,28.26,28.26,0,0,1,14.65,11l6.53,9.6-.58,1.36a34.36,34.36,0,0,1-1.86,3.68c-.35.61-.76,1.22-1.19,1.84l-.63.92-.72.92a36.34,36.34,0,0,1-3.3,3.68c-.66.61-1.31,1.22-2.06,1.84-.35.3-.79.61-1.18.92s-.8.61-1.28.92l-.73.47a.63.63,0,0,1-1-.47c-.1-1.23-.18-2.46-.25-3.68s-.16-2.46-.2-3.68l-.27-7.36.72,1.31-7.73-4.89c-2.59-1.62-5.09-3.36-7.64-5s-5-3.43-7.54-5.19c-1.25-.87-2.5-1.75-3.72-2.67s-2.46-1.81-3.67-2.75a.64.64,0,0,1-.11-.9.63.63,0,0,1,.26-.2Z"/><path class="d" d="M440.39,79.82a23.19,23.19,0,0,1-8.64-14.62,26,26,0,0,1,.42-10.4,30,30,0,0,1-8,1.09,32.67,32.67,0,0,1-21.34-8.47l-3.57-3.5L409,34l-14.11-4.17,3.89-5.67c.35-.52,8.82-12.58,24.76-12.67-10.9-19.83-2.19-32-1.75-32.6l3.12-4.21,12.43,10.17,4.15-15.59L447-27.78c.51.27,9,4.94,12.29,18.56C467-20.45,474.9-22.69,476.12-23L482-24.34l.48,9.7,9.93-5.3,1.46,6.37c1.4,6.07,1.13,17.73-6.27,28a25.19,25.19,0,0,1,15.59,10.4,34.34,34.34,0,0,1,5.17,10.48l1.46,5.47L493.29,43l5.26,11.53L492.76,56a23.62,23.62,0,0,1-5.47.55,38.39,38.39,0,0,1-15.11-3.29c3,13.54-3.48,22.77-8.73,26.44l-3.55,2.47-9.1-9.7L445,83.09Z"/><path class="a" d="M444.69-23.36s14.68,7.75,10,36.32c8.2-27.7,22.55-31.07,22.55-31.07l.59,11.6L489-12.45S493.65,8,473.82,20.4a28.21,28.21,0,0,1,8.69-1.49c16.29,0,21,17.65,21,17.65L486,39l5.57,12.21a19.2,19.2,0,0,1-4.23.39c-5.52,0-15.82-1.7-26.94-12.18,16.95,24.56.24,36.22.24,36.22L449.74,64,443.3,75.75s-15.49-11,0-32.71c-7,5.91-13.51,7.85-19.1,7.85a27.61,27.61,0,0,1-17.84-7l12-12.26L402.89,27s7.21-10.5,20.82-10.5a30.72,30.72,0,0,1,10.6,2c-18.61-23-8.52-36.61-8.52-36.61L440.17-6.33l4.52-17m-6.43-14.71L435-25.93l-.54,2-2.36-1.94L424-32.48l-6.25,8.42c-.74,1-4.41,6.36-4.69,15.32a40.52,40.52,0,0,0,3,16.1,36.81,36.81,0,0,0-21.39,14l-7.79,11.35,12.73,3.76-.37.38-7,7.14,7.15,7a37.45,37.45,0,0,0,24.84,9.89c.74,0,1.47,0,2.21-.07a30.25,30.25,0,0,0,.4,5.21A28.6,28.6,0,0,0,437.49,83.9l9.15,6.52,5.23-9.5,1.42,1.52,5.92,6.32,7.1-5a28.79,28.79,0,0,0,10-13.85A30.81,30.81,0,0,0,478,60.43a40.67,40.67,0,0,0,9.34,1.13,28,28,0,0,0,6.71-.71l11.58-3-4.95-10.84,4.21-.58,11.23-1.53L513.15,34c-1.72-6.48-7.39-17.27-18-22.32a41,41,0,0,0,3.54-10.43,41,41,0,0,0,.07-15.93l-2.93-12.75L487-22.76l-.39-7.82L475-27.84c-1.13.26-7.13,1.93-13.91,8.74-.28-.57-.58-1.14-.9-1.7-4.31-7.69-9.76-10.85-10.81-11.4l-11.1-5.87Z"/><ellipse class="f" cx="453.84" cy="25.86" rx="6.74" ry="5.31" transform="translate(42.91 220.21) rotate(-28.57)"/><path class="d" d="M451.3,21.2c-4-4.12-7-15.63-7-15.63"/><path class="a" d="M447.72,24.69a17,17,0,0,1-2.16-5.24,36.52,36.52,0,0,1-.84-4.75,70.65,70.65,0,0,1-.45-9.13,68.42,68.42,0,0,0,5.07,7.23,31.06,31.06,0,0,0,2.81,3.07,7.48,7.48,0,0,0,2.74,1.84Z"/><path class="d" d="M458.31,21.07C461.51,14.19,470,7.91,470,7.91"/><path class="a" d="M453.77,19a29.85,29.85,0,0,1,7.82-6.8A53.5,53.5,0,0,1,470,7.91a50.28,50.28,0,0,0-4.73,7.66,34.07,34.07,0,0,0-1.64,3.92,17,17,0,0,0-.78,3.69Z"/><path class="d" d="M460.21,25.58c9.34,0,13.67,4.62,13.67,4.62"/><path class="a" d="M460.23,20.58c.73.23,1.43.45,2.13.7s1.39.53,2.06.86a26.08,26.08,0,0,1,3.81,2.13A22,22,0,0,1,471.47,27a14.18,14.18,0,0,1,2.41,3.22,12.88,12.88,0,0,0-3.6-1,18.51,18.51,0,0,0-3.55-.14,20.54,20.54,0,0,0-3.38.52c-.54.11-1.09.31-1.61.45s-1.05.38-1.55.57Z"/><path class="d" d="M451.46,31.43c-2.17,5.92-.27,15.48-.27,15.48"/><path class="a" d="M456.16,33.16a9.15,9.15,0,0,0-1.82,2.52,23.19,23.19,0,0,0-1.41,3.43,44.08,44.08,0,0,0-1.74,7.8,46.2,46.2,0,0,1-3.26-7.74,29.07,29.07,0,0,1-1-4.37,19.34,19.34,0,0,1-.12-5.09Z"/><path class="d" d="M447.42,27.29c-8.75-2-17.62,2.45-17.62,2.45"/><path class="a" d="M446.32,32.17a15.76,15.76,0,0,0-3.43-1.62,21.6,21.6,0,0,0-4.07-.94,31.09,31.09,0,0,0-9,.13A33.52,33.52,0,0,1,438,24.67,28.2,28.2,0,0,1,443,23.05a26,26,0,0,1,5.54-.64Z"/><path class="b" d="M380,121.32l-8.92,8.19L367.77,125a23.23,23.23,0,0,1-3.51-16.62A26.1,26.1,0,0,1,368,98.6c-17.38-.93-25.08-15.71-25.41-16.35l-2.27-4.47,12.36-6.26-12-8.47,5.51-4.13a32.21,32.21,0,0,1,18-5.63,30.33,30.33,0,0,1,9.53,1.54c-4-22.26,8.17-31,8.77-31.43l4.31-3L395.25,34l8.91-13.45,4.33,4.56c.39.42,6.95,7.57,5.7,21.55,9.25-7,16.62-7.73,19.37-7.73a8.8,8.8,0,0,1,.95,0l5.83.68-1.49,5.65-1,3.59,11.11-1.85-.66,6.51c-.62,6.19-4.6,17.15-14.88,24.49A23.8,23.8,0,0,1,439,82.53c8.15,8.83,7.43,21.42,7.39,22l-.37,5.66L429.67,107l1.29,12.6-6-.45c-.51,0-9.32-.82-18.62-9.16-1.51,13.77-10.59,20.45-16.73,22.24l-4.15,1.21Z"/><path class="a" d="M385.27,27.5l9.85,15.75,9.74-14.68s11.42,12-2.14,37.62C417.59,45.07,430.9,44,433.55,44a4.68,4.68,0,0,1,.49,0l-3.16,11.17,12.43-2.07s-2.1,20.86-24.86,26.28c24.55.31,22.94,24.81,22.94,24.81L424,100.81l1.37,13.35S410.28,113,399.61,93c8.21,28.69-11.36,34.4-11.36,34.4L381.68,113l-9.86,9s-11.14-15.41,10.47-31a33.84,33.84,0,0,1-12.57,2.62C354,93.65,347,80,347,80l15.33-7.77-13.22-9.29a27.07,27.07,0,0,1,15-4.63c5.17,0,11.23,1.59,17.51,6.63-10.27-27.77,3.64-37.42,3.64-37.42m18.2-14.93L396.53,23l-1.16,1.75-1.62-2.59-5.56-8.89-8.62,6c-1,.7-6.21,4.62-9.34,13a40.57,40.57,0,0,0-2.35,16.19,36,36,0,0,0-3.76-.2,37,37,0,0,0-21,6.63l-11,8.26L343,70.82l-.48.24-8.92,4.53,4.53,8.92a36.9,36.9,0,0,0,22.48,18,30.5,30.5,0,0,0-1.28,5.06,28.51,28.51,0,0,0,4.4,20.35L370.3,137l8-7.33.86,1.9,3.59,7.88,8.31-2.42a28.81,28.81,0,0,0,13.88-9.93,30.87,30.87,0,0,0,4.61-8.45,35.34,35.34,0,0,0,15.09,5.49l11.91.9-1.21-11.86,4.17.8,11.13,2.15.74-11.31c.1-1.55.73-15.46-8.71-25.68-.38-.41-.8-.83-1.24-1.25a41.93,41.93,0,0,0,11.84-23.81l1.31-13-9.78,1.63,2.13-7.53L435,34c-.29,0-.78-.06-1.44-.06A33.18,33.18,0,0,0,419,37.81q-.13-.93-.3-1.86c-1.63-8.67-5.78-13.4-6.6-14.26l-8.64-9.12Z"/><ellipse class="c" cx="397.78" cy="78.13" rx="6.74" ry="5.31" transform="translate(-7.51 69.64) rotate(-9.91)"/><path class="b" d="M396.87,72.9c-2.49-5.19-1.67-17.05-1.67-17.05"/><path class="a" d="M392.35,75.06A16.91,16.91,0,0,1,392,69.4a35.52,35.52,0,0,1,.71-4.77,71.8,71.8,0,0,1,2.5-8.78,69.19,69.19,0,0,0,2.49,8.47,30,30,0,0,0,1.68,3.8,7.51,7.51,0,0,0,2,2.62Z"/><path class="b" d="M403.54,75c5.23-5.5,15.28-8.73,15.28-8.73"/><path class="a" d="M399.92,71.57a29.9,29.9,0,0,1,9.58-3.94,54.25,54.25,0,0,1,9.32-1.34A50.81,50.81,0,0,0,411.89,72a34.15,34.15,0,0,0-2.81,3.19,16.93,16.93,0,0,0-1.92,3.25Z"/><path class="b" d="M403.9,79.9c8.84,3,11.47,8.75,11.47,8.75"/><path class="a" d="M405.52,75.17c.61.45,1.22.88,1.8,1.35s1.14.94,1.67,1.47a25.52,25.52,0,0,1,2.93,3.24,21.7,21.7,0,0,1,2.2,3.6,14.36,14.36,0,0,1,1.25,3.82,13.12,13.12,0,0,0-3.08-2.12A18.25,18.25,0,0,0,409,85.26a20,20,0,0,0-3.37-.58c-.55-.07-1.13-.06-1.67-.09s-1.11,0-1.65,0Z"/><path class="b" d="M393.74,82.65c-3.95,4.91-5.21,14.58-5.21,14.58"/><path class="a" d="M397.64,85.78a9.43,9.43,0,0,0-2.53,1.81,24.13,24.13,0,0,0-2.44,2.8,44.56,44.56,0,0,0-4.14,6.84,46.07,46.07,0,0,1-.61-8.38,30.7,30.7,0,0,1,.41-4.48,19.44,19.44,0,0,1,1.52-4.86Z"/><path class="b" d="M391.23,77.43c-7.66-4.66-17.47-3.31-17.47-3.31"/><path class="a" d="M388.64,81.7a16.39,16.39,0,0,0-2.74-2.63,20.3,20.3,0,0,0-3.56-2.19,30.28,30.28,0,0,0-8.58-2.76A33.22,33.22,0,0,1,383.19,72a27.33,27.33,0,0,1,5.19,0,25,25,0,0,1,5.45,1.17Z"/><path class="g" d="M311.71,212.86c-9.25-9.15-19.54-10.16-27-3.64s-5.76,21.85,4.5,30.84c12.12,10.63,33.56,12.7,33.56,12.7S322.77,223.81,311.71,212.86Z"/><path class="h" d="M295,215.4c9.74,7,13,15,13,15"/><path class="a" d="M295.24,215a9.5,9.5,0,0,1,3.92-.82,7.62,7.62,0,0,1,3,.67,4.51,4.51,0,0,1,1.17.78,4.66,4.66,0,0,1,.81,1.18c.44.87.73,1.86,1.2,2.66a24.25,24.25,0,0,1,2.14,5.19,20.38,20.38,0,0,1,.89,5.56.54.54,0,0,1-.54.54.56.56,0,0,1-.34-.12l0,0c-1.36-1.12-2.71-2.18-4.09-3.12s-2.71-1.85-4-2.72a12.48,12.48,0,0,0-2.23-1,3,3,0,0,1-1.65-1.5,8.7,8.7,0,0,1-.77-2.59,14.1,14.1,0,0,1-.07-3.87v0A1,1,0,0,1,295.24,215Z"/><path class="g" d="M24.29,87.78c9.24-9.15,19.53-10.16,27-3.65S57.05,106,46.79,115c-12.13,10.63-33.56,12.7-33.56,12.7S13.22,98.73,24.29,87.78Z"/><path class="h" d="M41.05,90.32c-9.74,7-13,15-13,15"/><path class="a" d="M41.34,90.73a14.58,14.58,0,0,1-.06,3.87,9,9,0,0,1-.78,2.59,3,3,0,0,1-1.64,1.5,12.58,12.58,0,0,0-2.24,1c-1.3.87-2.64,1.77-4,2.72s-2.72,2-4.09,3.12l0,0a.54.54,0,0,1-.76-.08.55.55,0,0,1-.13-.34,20.77,20.77,0,0,1,.89-5.56,24.78,24.78,0,0,1,2.14-5.19c.47-.8.76-1.79,1.2-2.67a5.08,5.08,0,0,1,.81-1.17,4.69,4.69,0,0,1,1.17-.78,7.67,7.67,0,0,1,3-.67,9.49,9.49,0,0,1,3.91.82,1,1,0,0,1,.59.78Z"/><path class="g" d="M450.09,145.41c-6.11-11.48-15.64-15.5-24.69-11.5s-12,19.16-4.86,30.79c8.42,13.75,28.28,22.09,28.28,22.09S457.41,159.15,450.09,145.41Z"/><path class="h" d="M433.34,142.86c7.21,9.62,7.94,18.19,7.94,18.19"/><path class="a" d="M433.74,142.56a9.6,9.6,0,0,1,4,.38,7.66,7.66,0,0,1,2.69,1.54,4.22,4.22,0,0,1,.89,1.1,4.8,4.8,0,0,1,.43,1.36c.16,1,.14,2,.35,2.9a24.92,24.92,0,0,1,.51,5.59,20.86,20.86,0,0,1-.81,5.58.54.54,0,0,1-.67.35.51.51,0,0,1-.29-.22l0,0c-1-1.48-1.94-2.89-3-4.2s-2-2.56-3-3.78a12.49,12.49,0,0,0-1.84-1.61,3,3,0,0,1-1.13-1.92,9.45,9.45,0,0,1,0-2.7,14.59,14.59,0,0,1,1.1-3.72v0A1,1,0,0,1,433.74,142.56Z"/><path class="g" d="M514.06,79.23c-9.16-9.23-19.44-10.34-27-3.9s-6,21.79,4.2,30.88c12,10.75,33.44,13,33.44,13S525,90.29,514.06,79.23Z"/><path class="h" d="M497.27,81.62c9.68,7.13,12.85,15.13,12.85,15.13"/><path class="a" d="M497.57,81.21a9.61,9.61,0,0,1,3.92-.78,7.76,7.76,0,0,1,3,.7,4.34,4.34,0,0,1,1.17.8,4.6,4.6,0,0,1,.79,1.18c.44.87.72,1.86,1.18,2.67A24.46,24.46,0,0,1,509.75,91a20.46,20.46,0,0,1,.83,5.57.54.54,0,0,1-.54.54.57.57,0,0,1-.34-.13l-.05,0c-1.35-1.13-2.68-2.21-4.06-3.16s-2.69-1.87-4-2.75a11.26,11.26,0,0,0-2.23-1,3,3,0,0,1-1.63-1.52,9.1,9.1,0,0,1-.75-2.6A14.41,14.41,0,0,1,497,82v0A1,1,0,0,1,497.57,81.21Z"/><path class="d" d="M329.38,133.5c-.62-.35-11.95-6.88-18.22-24.35-9.29,18.52-24.78,20.28-30.28,20.28a20.11,20.11,0,0,1-2.9-.18l-4.28-.64.11-18.89-16,5.11-1.07-5.51a30,30,0,0,1,4.86-21.07,34.7,34.7,0,0,1,12.38-11,40,40,0,0,1-23.87-34.39l-.19-5,19.9-.72L259.58,19.49l6.73-1.44a34.6,34.6,0,0,1,6.71-.58A40,40,0,0,1,303,30.4C309.88-.86,330-4.76,331-4.93l5.16-.9L339,16.6,358,4.89l2,6c.26.75,4.58,14.35-7.35,31.86a61.68,61.68,0,0,1,16.46-2.39c9.85,0,15.16,2.94,15.74,3.28l5.17,3-9,10.48,15.14,4.16-3.33,5.63c-.48.82-11.21,18.54-33.84,21.27a30.59,30.59,0,0,1,5.82,10.43c4.77,14.76-2.94,29.16-3.27,29.76l-2.71,5L340.26,120l-5.66,16.45Z"/><path class="a" d="M331.82,0,335,24.92l20.28-12.48s7.19,21.26-24,45c16.67-9.63,29.3-12.08,37.83-12.08,8.79,0,13.21,2.59,13.21,2.59L372.09,59.83l16.44,4.51S377.2,83.51,353.06,83.51a49.94,49.94,0,0,1-10-1C373,96.81,357.15,126,357.15,126l-19.43-14-5.9,17.16s-17.89-10-19.62-40.58c-5.15,33.05-24.76,35.88-31.32,35.88a15.85,15.85,0,0,1-2.15-.12l.12-21.44-17.22,5.49s-4.92-25.25,30.45-32.08c-35.84-2-37-33.6-37-33.6l23.22-.83L267.36,22.94a30,30,0,0,1,5.66-.47c8.31,0,23.83,2.73,33.07,21.38C309.27,3.94,331.82,0,331.82,0m8.6-11.65L330.1-9.85c-1.46.25-9.13,1.92-17,9.7-5.62,5.56-9.9,12.74-12.81,21.46A46.42,46.42,0,0,0,273,12.47a39.86,39.86,0,0,0-7.75.69L251.81,16,258.7,28l2.61,4.5-6.58.24-10,.36.37,10a47.7,47.7,0,0,0,6.42,20.73,43.41,43.41,0,0,0,12.9,13.94,37.84,37.84,0,0,0-7,7.73,34.85,34.85,0,0,0-5.62,24.82l2.15,11,10.7-3.41,4.11-1.31,0,7.67-.06,8.66,8.56,1.29a25.43,25.43,0,0,0,3.65.23,37,37,0,0,0,22.24-7.58,40.74,40.74,0,0,0,7.3-7.2,55.68,55.68,0,0,0,4.21,6.63c5.68,7.65,11.26,11,12.32,11.58l10.44,5.82,3.88-11.3,1.53-4.44,8.51,6.13,9.2,6.61,5.42-9.94c.94-1.72,9-17.2,3.64-33.7a36.52,36.52,0,0,0-2.28-5.46,53.42,53.42,0,0,0,29.85-22.15l6.65-11.27L391.18,54.7,390,54.36l7.76-9-10.35-6c-1.13-.66-7.32-4-18.26-4a60.5,60.5,0,0,0-6.91.41,50.05,50.05,0,0,0,2.45-7.23c2.69-10.6.55-17.9.09-19.25l-4-11.9L350,3.92l-7.07,4.35-1.2-9.52-1.32-10.4Z"/><ellipse class="e" cx="318.41" cy="69.23" rx="7.17" ry="9.11" transform="matrix(0.26, -0.97, 0.97, 0.26, 169.51, 359.07)"/><path class="a" d="M315.26,62.36a23.06,23.06,0,0,1,2.28-6.78,49.67,49.67,0,0,1,3.13-5.47,96.9,96.9,0,0,1,7.24-9.69,93.13,93.13,0,0,0-2.58,11.5,44,44,0,0,0-.55,5.59,13.82,13.82,0,0,0,.48,4.72Z"/><path class="a" d="M325.41,64a40.92,40.92,0,0,1,13.41-.15A74.94,74.94,0,0,1,351,66.65a71.27,71.27,0,0,0-11.83,2.23,49.58,49.58,0,0,0-5.43,1.91,26.82,26.82,0,0,0-4.61,2.55Z"/><path class="a" d="M328.38,71.27c.52.82,1,1.62,1.51,2.45s.94,1.65,1.33,2.53a36,36,0,0,1,2,5.24,29,29,0,0,1,1,5.39,19.21,19.21,0,0,1-.21,5.26,17.68,17.68,0,0,0-2.16-4.48,25.14,25.14,0,0,0-3-3.74,29.61,29.61,0,0,0-3.53-3c-.6-.46-1.28-.85-1.9-1.27s-1.32-.76-2-1.13Z"/><path class="a" d="M313.11,77a16.51,16.51,0,0,0-4.2,1.34,36.46,36.46,0,0,0-4.38,2.47,61.39,61.39,0,0,0-8.31,6.64c.61-1.71,1.32-3.39,2.08-5.07s1.61-3.33,2.57-5a42.11,42.11,0,0,1,3.25-4.83A25.45,25.45,0,0,1,308.68,68Z"/><path class="a" d="M306.63,67.44a25.54,25.54,0,0,0-2.4-4.75,32.07,32.07,0,0,0-3.55-4.49,42.67,42.67,0,0,0-4.4-4.05,39.48,39.48,0,0,0-5.07-3.48,42.3,42.3,0,0,1,6.2,1.25,46.43,46.43,0,0,1,6.11,2.17,37.27,37.27,0,0,1,5.93,3.22,33.66,33.66,0,0,1,5.48,4.56Z"/><path class="b" d="M251.84,200.93c-.42-.3-7.57-5.48-11.28-17.39-7.32,9.65-16.47,11-21,11a20.56,20.56,0,0,1-4.77-.51l-4.18-1.09,1.47-13.22-11.86,2.45-.49-5.6a23.23,23.23,0,0,1,5.5-16.07,26,26,0,0,1,8.21-6.44A31,31,0,0,1,200,127l.34-5,13.82,1-6-13.44,6.84-.72a17.45,17.45,0,0,1,2-.09c4,0,15.34.94,23.73,10.67,8-21.14,22.92-22.43,23.65-22.48l5.23-.36.33,16.06,14.55-7,1.38,6.13c.13.56,2.08,10.07-6.16,21.44a47.68,47.68,0,0,1,5.14-.28c10.39,0,15.69,3.67,16.26,4.09l4.82,3.54-7.06,6.68,10.48,4.1-3.89,5.25A36.81,36.81,0,0,1,280.14,170a23.56,23.56,0,0,1,2.48,6.66c2.48,11.76-4.6,22.2-4.9,22.64L274.5,204l-12.42-11.07-5.35,11.48Z"/><path class="a" d="M264.72,101.88l.38,18.57L281,112.84S284.63,129,259.87,144c10.62-4.73,18.89-6.14,25-6.14,9,0,13.3,3.11,13.3,3.11l-8.45,8,11.74,4.59a31.72,31.72,0,0,1-24.15,11.53,35.39,35.39,0,0,1-10.66-1.71c20.91,12.86,7,33.06,7,33.06l-13.21-11.78-5.67,12.16s-12.38-8.72-11.28-31.36c-5.65,21.27-17.86,24.06-23.88,24.06a15.48,15.48,0,0,1-3.51-.35l1.76-15.76-13.1,2.7s-1.66-18.94,24.88-21.23c-26.2-4.25-24.61-27.57-24.61-27.57l17.14,1.18-6.58-14.75a14.41,14.41,0,0,1,1.46-.06c4.64,0,19.09,1.42,25.41,18.43,5.42-29.1,22.31-30.25,22.31-30.25m9.78-10.69L264,91.9c-1.23.08-7.71.78-14.7,6.39A40.63,40.63,0,0,0,239,111a34.24,34.24,0,0,0-5.49-3.4A37.87,37.87,0,0,0,217,103.7a21.89,21.89,0,0,0-2.51.12l-13.69,1.44,5.41,12.13-.54,0-10-.69-.68,10a38.1,38.1,0,0,0,3.34,17,35,35,0,0,0,6.74,10,29,29,0,0,0-3.68,3.67A28.54,28.54,0,0,0,194.75,177l1,11.19L206.34,186l-.23,2.07-1,8.6,8.37,2.18a24.87,24.87,0,0,0,6,.68,30.46,30.46,0,0,0,19.28-6.94A35.43,35.43,0,0,0,249,205l9.77,6.88,5-10.8,3.17,2.82,8.46,7.55,6.43-9.33c.89-1.28,8.55-12.9,5.69-26.51-.12-.56-.26-1.13-.43-1.73,11.12-2.8,19-9.81,22.38-14.36l7.8-10.5L308,145.43l5.69-5.38L304.07,133c-1-.76-6.2-4.21-15.67-4.93.25-.58.48-1.17.7-1.76,3-8.28,1.91-14.47,1.65-15.62L288,98.39l-11.33,5.43-1.89.91-.07-3.06-.21-10.48Z"/><ellipse class="c" cx="249.5" cy="151.75" rx="5.31" ry="6.74" transform="translate(18.63 330.57) rotate(-69.07)"/><path class="b" d="M251.4,146.8c.53-5.73,7.31-15.5,7.31-15.5"/><path class="a" d="M246.42,146.34a16.9,16.9,0,0,1,2.58-5.05,35.9,35.9,0,0,1,3.06-3.72,71,71,0,0,1,6.65-6.27,68,68,0,0,0-2.2,8.55A30.81,30.81,0,0,0,256,144a7.45,7.45,0,0,0,.38,3.28Z"/><path class="b" d="M256,152c7.31-2,17.59.34,17.59.34"/><path class="a" d="M254.7,147.23A29.65,29.65,0,0,1,265,148.76a53.69,53.69,0,0,1,8.68,3.62,51.2,51.2,0,0,0-8.89,1.37,36.05,36.05,0,0,0-4,1.3,17,17,0,0,0-3.32,1.81Z"/><path class="b" d="M253.85,156.41c6,7.13,5.36,13.4,5.36,13.4"/><path class="a" d="M257.67,153.18c.29.7.58,1.39.84,2.08s.5,1.4.69,2.12a27.23,27.23,0,0,1,.85,4.28,21.4,21.4,0,0,1,0,4.23,14,14,0,0,1-.88,3.92,12.87,12.87,0,0,0-1.56-3.4,17.92,17.92,0,0,0-2.2-2.79,19.34,19.34,0,0,0-2.59-2.23c-.44-.34-.94-.63-1.39-.93s-1-.55-1.43-.82Z"/><path class="b" d="M243.72,153.57c-5.92,2.18-11.95,9.84-11.95,9.84"/><path class="a" d="M245.45,158.25a9.55,9.55,0,0,0-3.09.26,24.56,24.56,0,0,0-3.53,1.15,44.93,44.93,0,0,0-7.06,3.75,46.69,46.69,0,0,1,3.77-7.51,30.69,30.69,0,0,1,2.65-3.63,19.19,19.19,0,0,1,3.79-3.39Z"/><path class="b" d="M244.24,147.8c-4.19-7.93-13.3-11.8-13.3-11.8"/><path class="a" d="M239.82,150.13a15.68,15.68,0,0,0-1-3.66,20.79,20.79,0,0,0-1.93-3.7,30.73,30.73,0,0,0-5.95-6.77,33,33,0,0,1,9.2,3,28.56,28.56,0,0,1,4.44,2.69,25.86,25.86,0,0,1,4.08,3.8Z"/><path class="b" d="M178.54,58.17c-.48-.19-8.62-3.59-15-14.3-7,15.87-21.72,16.1-22.52,16.1l-4.5-.1L135,46.67l-11,5.1-1.76-5.33a23.23,23.23,0,0,1,1.67-16.91,26.26,26.26,0,0,1,6.5-8.16,31.15,31.15,0,0,1-19.3-23.25l-.81-4.94L124-9.06,115-20.76,121.52-23a30.4,30.4,0,0,1,9.35-1.38A30.46,30.46,0,0,1,149-18.66c2.93-22.4,17.15-27.08,17.84-27.3l5-1.55,4,15.55,12.56-10.13,2.74,5.65c.26.52,4.35,9.32-1.07,22.28a41.08,41.08,0,0,1,13.58-2.52,21.6,21.6,0,0,1,8.12,1.31L217.31-13,212-4.91l11.15,1.58-2.59,6A36.68,36.68,0,0,1,199,21.59a23.73,23.73,0,0,1,3.93,5.9c5.11,10.87.62,22.66.42,23.16l-2.06,5.28L186.65,48l-2.57,12.4Z"/><path class="a" d="M168.31-41.18l4.64,18,13.72-11.06S193.93-19.33,173.28,1c13.85-10.55,24.29-12.64,30.39-12.64a17.16,17.16,0,0,1,6.17.91l-6.39,9.7L215.93.7a31.58,31.58,0,0,1-28.74,17.66c-.93,0-1.9,0-2.89-.1,23.31,7.71,14.39,30.57,14.39,30.57l-15.57-8.44L180.4,53.53s-14.05-5.64-18.19-27.92c-.8,28.92-20,29.36-21.15,29.36H141l-1.91-15.74L127,44.87s-6-18.06,19.33-26.38c-1,.07-2.05.11-3,.11C119.53,18.6,116-2.69,116-2.69l17-2.78-9.79-12.85a25.49,25.49,0,0,1,7.69-1.1c6.41,0,15.61,2.19,22.68,12.81-1.41-29.58,14.76-34.57,14.76-34.57m7.06-12.65-10,3.09c-1.18.37-7.32,2.53-12.84,9.59a40.48,40.48,0,0,0-7.12,14.74,35.63,35.63,0,0,0-14.53-3,35.07,35.07,0,0,0-11,1.66l-13,4.56,8.05,10.55-.53.09-9.87,1.62,1.63,9.87a36.7,36.7,0,0,0,16,23.92,30.2,30.2,0,0,0-2.74,4.43,28.61,28.61,0,0,0-2,20.73L121,58.68l9.83-4.57.25,2.07,1,8.51,8.66.28h.29a29.09,29.09,0,0,0,16.66-5.79A31.28,31.28,0,0,0,163.94,53c5.82,6.79,11.65,9.35,12.73,9.78l11.1,4.46,2.41-11.67,3.74,2,10,5.4L208,52.47c.57-1.45,5.36-14.53-.56-27.11-.23-.5-.49-1-.78-1.55A42.49,42.49,0,0,0,225.12,4.66l5.17-12-9.81-1.39,4.3-6.54-11-4.69a26.62,26.62,0,0,0-10.08-1.7,40.54,40.54,0,0,0-6.3.51c.1-.62.2-1.25.27-1.87,1.07-8.76-1.46-14.52-2-15.59l-5.49-11.29L180.39-42l-1.63,1.32-.77-3-2.62-10.15Z"/><ellipse class="c" cx="164.96" cy="10.85" rx="5.31" ry="6.74" transform="translate(132.24 172.9) rotate(-82.35)"/><path class="b" d="M165.67,5.59c-.8-5.69,3.56-16.76,3.56-16.76"/><path class="a" d="M160.72,6.29a16.85,16.85,0,0,1,1.35-5.5,36.32,36.32,0,0,1,2.13-4.33,69.4,69.4,0,0,1,5-7.63,67.13,67.13,0,0,0-.18,8.83,29.66,29.66,0,0,0,.45,4.13,7.58,7.58,0,0,0,1.12,3.11Z"/><path class="b" d="M171.39,9.63C178,6,188.59,5.92,188.59,5.92"/><path class="a" d="M169,5.25a29.89,29.89,0,0,1,10.32-.86,53.62,53.62,0,0,1,9.29,1.53,50.86,50.86,0,0,0-8.34,3.38,33.57,33.57,0,0,0-3.63,2.19A16.77,16.77,0,0,0,173.8,14Z"/><path class="b" d="M170.26,14.39c7.52,5.55,8.3,11.81,8.3,11.81"/><path class="a" d="M173.24,10.37c.44.61.88,1.21,1.3,1.83s.81,1.24,1.15,1.9a26.64,26.64,0,0,1,1.82,4,22.1,22.1,0,0,1,1,4.1,14.35,14.35,0,0,1,0,4,13,13,0,0,0-2.3-2.95A19.19,19.19,0,0,0,173.48,21a20.88,20.88,0,0,0-3-1.57c-.5-.23-1.06-.4-1.56-.59s-1.07-.31-1.59-.46Z"/><path class="b" d="M159.75,14c-5.25,3.48-9.37,12.32-9.37,12.32"/><path class="a" d="M162.51,18.11a9.43,9.43,0,0,0-2.95,1A23.8,23.8,0,0,0,156.39,21a44.66,44.66,0,0,0-6,5.27,47.19,47.19,0,0,1,1.94-8.17A30.3,30.3,0,0,1,154.07,14,19,19,0,0,1,157,9.78Z"/><path class="b" d="M158.93,8.21C153,1.46,143.27-.22,143.27-.22"/><path class="a" d="M155.17,11.5a16.29,16.29,0,0,0-1.81-3.33A21.75,21.75,0,0,0,150.62,5a30.72,30.72,0,0,0-7.35-5.22,33.59,33.59,0,0,1,9.65.78,28.86,28.86,0,0,1,4.93,1.6,25.49,25.49,0,0,1,4.85,2.76Z"/><path class="d" d="M76,88.17a23.23,23.23,0,0,1-8.65-14.62,26.22,26.22,0,0,1,.42-10.4,29.57,29.57,0,0,1-8,1.09c-12.55,0-21-8.12-21.34-8.46l-3.57-3.51,9.71-9.89L30.5,38.21l3.9-5.67C34.75,32,43.21,20,59.15,19.87,48.26,0,57-12.14,57.4-12.73l3.13-4.21L73-6.77,77.1-22.36l5.56,2.93c.51.27,9,4.94,12.29,18.56,7.66-11.23,15.58-13.47,16.8-13.75L117.58-16l.49,9.7,9.93-5.3,1.46,6.37c1.39,6.07,1.12,17.73-6.27,28a25.25,25.25,0,0,1,15.59,10.4A34.61,34.61,0,0,1,144,43.63l1.45,5.47-16.48,2.25,5.25,11.53-5.79,1.48a23.19,23.19,0,0,1-5.46.56,38.41,38.41,0,0,1-15.11-3.3c3,13.54-3.49,22.77-8.74,26.44l-3.54,2.47-9.1-9.7L80.59,91.44Z"/><path class="a" d="M80.32-15S95-7.26,90.33,21.31c8.2-27.7,22.56-31.07,22.56-31.07l.58,11.6L124.59-4.1s4.69,20.44-15.15,32.85a28.17,28.17,0,0,1,8.69-1.48c16.29,0,21,17.65,21,17.65l-17.54,2.39,5.56,12.21a18.59,18.59,0,0,1-4.22.4c-5.53,0-15.82-1.71-26.95-12.19,17,24.56.24,36.23.24,36.23L85.37,72.39,78.92,84.1s-15.48-11,0-32.71c-7,5.91-13.52,7.85-19.11,7.85A27.64,27.64,0,0,1,42,52.2L54,39.94,38.52,35.37s7.2-10.5,20.81-10.5a30.73,30.73,0,0,1,10.61,2c-18.61-23-8.52-36.61-8.52-36.61L75.79,2l4.53-17M73.88-29.72,70.66-17.58l-.54,2-2.37-1.94-8.11-6.64-6.25,8.42c-.73,1-4.41,6.37-4.69,15.32a40.53,40.53,0,0,0,3,16.1,36.87,36.87,0,0,0-21.4,14L22.49,41.06l12.73,3.76-.37.38-7,7.14,7.15,7a37.44,37.44,0,0,0,24.83,9.89c.74,0,1.48,0,2.21-.07a30.26,30.26,0,0,0,.41,5.21A28.55,28.55,0,0,0,73.12,92.25l9.15,6.52,5.22-9.5,1.43,1.53,5.92,6.31,7.1-5a28.79,28.79,0,0,0,10-13.85,30.79,30.79,0,0,0,1.66-9.53,40.85,40.85,0,0,0,9.35,1.14,27.75,27.75,0,0,0,6.7-.72l11.58-3L136.26,55.4l4.21-.58,11.22-1.53-2.91-10.94c-1.72-6.48-7.39-17.28-18.05-22.33A41.42,41.42,0,0,0,134.27,9.6a41.18,41.18,0,0,0,.06-15.94l-2.92-12.75-8.74,4.68-.4-7.82L110.6-19.49c-1.12.26-7.13,1.93-13.9,8.74-.29-.57-.59-1.14-.9-1.7C91.49-20.14,86-23.3,85-23.85L73.88-29.72Z"/><ellipse class="f" cx="89.47" cy="34.21" rx="6.74" ry="5.31" transform="translate(-5.46 46.96) rotate(-28.57)"/><path class="d" d="M86.93,29.55c-4-4.12-7-15.63-7-15.63"/><path class="a" d="M83.35,33a16.8,16.8,0,0,1-2.16-5.24,35,35,0,0,1-.85-4.75,72.39,72.39,0,0,1-.45-9.13A67.05,67.05,0,0,0,85,21.15a29.87,29.87,0,0,0,2.81,3.07,7.46,7.46,0,0,0,2.73,1.84Z"/><path class="d" d="M93.93,29.42c3.2-6.88,11.68-13.16,11.68-13.16"/><path class="a" d="M89.4,27.32a29.85,29.85,0,0,1,7.82-6.8,54.27,54.27,0,0,1,8.39-4.26,51.92,51.92,0,0,0-4.73,7.66,34,34,0,0,0-1.63,3.92,15.85,15.85,0,0,0-.78,3.69Z"/><path class="d" d="M95.83,33.93c9.35,0,13.67,4.62,13.67,4.62"/><path class="a" d="M95.86,28.93c.72.23,1.43.45,2.13.71s1.38.52,2.06.85a26.61,26.61,0,0,1,3.81,2.13,21.86,21.86,0,0,1,3.23,2.71,13.89,13.89,0,0,1,2.41,3.22,12.82,12.82,0,0,0-3.59-1,18.61,18.61,0,0,0-3.56-.14,20.88,20.88,0,0,0-3.38.52c-.54.11-1.09.31-1.61.45s-1,.38-1.55.57Z"/><path class="d" d="M87.09,39.78c-2.18,5.92-.27,15.48-.27,15.48"/><path class="a" d="M91.78,41.51A9.58,9.58,0,0,0,90,44a24.32,24.32,0,0,0-1.41,3.43,45,45,0,0,0-1.73,7.8,46.23,46.23,0,0,1-3.27-7.74,31.73,31.73,0,0,1-1-4.37,19,19,0,0,1-.11-5.09Z"/><path class="d" d="M83,35.64c-8.75-2-17.61,2.46-17.61,2.46"/><path class="a" d="M82,40.52a16.72,16.72,0,0,0-3.43-1.62A21.52,21.52,0,0,0,74.44,38a30.68,30.68,0,0,0-9,.14A33.25,33.25,0,0,1,73.67,33,28.2,28.2,0,0,1,78.6,31.4a26,26,0,0,1,5.54-.64Z"/><path class="d" d="M162.22,219.41l-9.78,15.82-4.4-3.48A32.57,32.57,0,0,1,137.2,211a38.11,38.11,0,0,1,2.8-18.71,43,43,0,0,1-13.53,2.23c-18.82,0-30.93-12.88-31.43-13.43l-3.39-3.68L108,162.39l-21.29-7.47,4.17-5.47c.5-.65,12.48-16,33.7-16a46,46,0,0,1,6.26.44c-17.22-31.24-3.16-49-2.49-49.78l3.34-4,18.58,16.85,7.54-23.52,5.4,3.21c.75.45,14.42,8.91,16.56,32.88C193,89.11,206.9,86.3,207.66,86.16l5.9-1.07v15.36L229.28,93l1.14,6.44A51.36,51.36,0,0,1,229.27,119a50.73,50.73,0,0,1-12.41,22.68c20,2.69,29.26,21.26,31.42,31.43l1.18,5.54-25.14,2.15,7.07,17.84-5.86,1.18a27.55,27.55,0,0,1-5.38.43c-6.1,0-16.3-1.33-28-8.26,2.26,8.29,2.68,17.3-.82,26a33.42,33.42,0,0,1-11.91,15.12l-3.67,2.29Z"/><path class="a" d="M160.62,80.86s21.2,12.59,12.15,54.64C187,95,208.56,91.08,208.56,91.08v17.26l16.94-8S230.93,131,200.57,148a43.45,43.45,0,0,1,11.27-1.6c25.64,0,31.55,27.8,31.55,27.8l-26.2,2.24,7.35,18.53a24,24,0,0,1-4.39.33c-7.58,0-23.94-2.39-41-20.14,23.33,37.71-2.35,53.77-2.35,53.77l-15.23-18-10.44,16.91s-22.15-17.55,2.45-48.55c-10,7.66-19.22,10.27-27.12,10.27-16.85,0-27.76-11.82-27.76-11.82l18.77-17.3-22.65-8s10.73-14.07,29.72-14.07a44.73,44.73,0,0,1,17.54,3.8c-25.9-35.55-9.91-55-9.91-55l20.45,18.53,8-24.92m-5.69-15-3.83,12L147.85,88l-8.95-8.11-7.77-7-6.67,8.09c-1,1.21-6,7.87-7,19.69-.73,8.89,1,18.21,5.12,27.87-22.44.91-35.16,17.25-35.7,18l-8.35,10.94,13,4.56,6.94,2.44-6.52,6-7.36,6.79,6.78,7.35c.57.61,14.13,15,35.11,15a45.74,45.74,0,0,0,6.29-.43,40.41,40.41,0,0,0-.52,12.48,37.32,37.32,0,0,0,12.69,24.07l8.81,7,5.91-9.56,3.2-5.19,6.33,7.47,5.6,6.61,7.33-4.59a38.22,38.22,0,0,0,13.9-17.5,41.91,41.91,0,0,0,2.8-19,57,57,0,0,0,21.34,4.38,32.74,32.74,0,0,0,6.38-.53l11.71-2.37-4.41-11.11-2.39-6,12.8-1.09,11.29-1-2.36-11.08a53.92,53.92,0,0,0-7.64-17.41c-5.22-7.74-11.93-13.12-19.79-16a57.18,57.18,0,0,0,9.6-40.11l-2.28-12.89-11.83,5.59-2.67,1.26V79.1l-11.79,2.14c-1.78.33-12.52,2.77-24.15,16a54.58,54.58,0,0,0-3.57-9.3C173.83,77.45,167,73,165.73,72.26l-10.8-6.42Z"/><ellipse class="e" cx="170.52" cy="154.57" rx="10.01" ry="7.88" transform="translate(-50.15 89.2) rotate(-25.69)"/><path class="a" d="M163.35,150.77a25.55,25.55,0,0,1-3-7.12,55.78,55.78,0,0,1-1.39-6.72,105.62,105.62,0,0,1-1.13-13.17,104.14,104.14,0,0,0,5.84,11.5,48.6,48.6,0,0,0,3.45,5.15,16.39,16.39,0,0,0,3.73,3.76Z"/><path class="a" d="M173.08,145.48a39,39,0,0,1,5.18-5.49,62.06,62.06,0,0,1,5.63-4.29,80.94,80.94,0,0,1,11.93-6.55,77.32,77.32,0,0,0-8.44,10.14,55,55,0,0,0-3.29,5.41,30.14,30.14,0,0,0-2.16,5.44Z"/><path class="a" d="M180.26,149.64c1,.3,2,.57,3,.89s1.95.67,2.9,1.1a38.53,38.53,0,0,1,5.42,2.8,31.89,31.89,0,0,1,4.7,3.65,20.51,20.51,0,0,1,3.66,4.44,19.69,19.69,0,0,0-5-2.31,28.67,28.67,0,0,0-5.15-1.09,31.55,31.55,0,0,0-5.13-.13c-.84,0-1.69.16-2.51.23s-1.66.27-2.47.4Z"/><path class="a" d="M171.17,164.63a19.22,19.22,0,0,0-2.45,4.25,40.91,40.91,0,0,0-1.76,5.25c-.5,1.83-.88,3.72-1.21,5.64s-.58,3.87-.73,5.85c-.68-1.87-1.25-3.78-1.77-5.72s-1-3.93-1.29-6a47.33,47.33,0,0,1-.63-6.3,29.15,29.15,0,0,1,.64-6.92Z"/><path class="a" d="M159.54,161A27.44,27.44,0,0,0,154,158.9a35.48,35.48,0,0,0-6.21-1.09,47.86,47.86,0,0,0-6.57-.1,45,45,0,0,0-6.69.83,46.59,46.59,0,0,1,6.09-3.26,51.4,51.4,0,0,1,6.64-2.44,41.91,41.91,0,0,1,7.2-1.43,37.66,37.66,0,0,1,7.73,0Z"/><path class="g" d="M218.75,876.44c12-5.12,21.91-2.28,26.45,6.52s-2.66,22.44-15.5,27c-15.19,5.43-35.89-.51-35.89-.51S204.44,882.56,218.75,876.44Z"/><path class="h" d="M233.41,885c-11.65,3-17.59,9.19-17.59,9.19"/><path class="a" d="M233.53,885.44a14.29,14.29,0,0,1-1.48,3.58,9,9,0,0,1-1.67,2.13,3,3,0,0,1-2.08.79,11.6,11.6,0,0,0-2.44.09c-1.53.34-3.1.68-4.73,1.06s-3.27.86-4.95,1.4l-.06,0a.54.54,0,0,1-.68-.35.5.5,0,0,1,0-.36,20.51,20.51,0,0,1,2.86-4.85,24.86,24.86,0,0,1,3.9-4c.73-.57,1.37-1.39,2.1-2a4.6,4.6,0,0,1,1.18-.79,4.26,4.26,0,0,1,1.38-.3,7.71,7.71,0,0,1,3.06.49,9.58,9.58,0,0,1,3.35,2.2,1,1,0,0,1,.25.94Z"/><path class="g" d="M430.92,845.13c-9.24-9.15-19.54-10.16-27-3.65s-5.77,21.85,4.49,30.85C420.54,883,442,885,442,885S442,856.08,430.92,845.13Z"/><path class="h" d="M414.16,847.67c9.74,7,13,15,13,15"/><path class="a" d="M414.45,847.27a9.53,9.53,0,0,1,3.92-.82,7.45,7.45,0,0,1,3,.67,4.32,4.32,0,0,1,1.18.78,5,5,0,0,1,.8,1.17c.44.87.73,1.86,1.2,2.67a24.59,24.59,0,0,1,2.15,5.19,20.76,20.76,0,0,1,.88,5.56.54.54,0,0,1-.54.54.56.56,0,0,1-.34-.12l0,0c-1.37-1.12-2.71-2.18-4.09-3.13s-2.71-1.84-4-2.71a11.8,11.8,0,0,0-2.23-1,3,3,0,0,1-1.65-1.5,9,9,0,0,1-.77-2.59,14.58,14.58,0,0,1-.06-3.87v0A1,1,0,0,1,414.45,847.27Z"/><path class="g" d="M54.24,884.29c8.39-9.94,18.55-11.87,26.56-6s7.7,21.25-1.71,31.12C68,921,46.8,925,46.8,925S44.2,896.19,54.24,884.29Z"/><path class="h" d="M71.16,885.32c-9.07,7.89-11.59,16.11-11.59,16.11"/><path class="a" d="M71.49,885.7a14.28,14.28,0,0,1,.28,3.86,8.62,8.62,0,0,1-.54,2.65,3,3,0,0,1-1.5,1.65A12,12,0,0,0,67.59,895c-1.22,1-2.47,2-3.75,3.06s-2.53,2.24-3.79,3.48l0,0a.54.54,0,0,1-.76,0,.55.55,0,0,1-.15-.33,20.69,20.69,0,0,1,.38-5.62,25.15,25.15,0,0,1,1.67-5.37c.4-.84.6-1.85,1-2.76a4.79,4.79,0,0,1,.7-1.23,4.14,4.14,0,0,1,1.1-.89,7.53,7.53,0,0,1,3-.94,9.42,9.42,0,0,1,4,.47,1,1,0,0,1,.65.72Z"/></svg>