<svg xmlns="http://www.w3.org/2000/svg" width="510" height="900" viewBox="0 0 510 900"><defs><style>.a,.b{fill:#aebf7c;}.a,.e,.g{stroke:#432d1e;stroke-miterlimit:2;}.a,.g{stroke-width:10px;}.c{fill:#432d1e;}.d,.e{fill:#db85a0;}.e{stroke-width:7px;}.f{fill:#ebaed3;}.g{fill:none;}</style></defs><title>new_game</title><path class="a" d="M377,202.22c-9.25-9.15-19.54-10.16-27-3.64s-5.77,21.85,4.49,30.84c12.12,10.63,33.56,12.7,33.56,12.7S388.07,213.18,377,202.22Z"/><path class="b" d="M360.25,204.77c9.74,7,13,15,13,15"/><path class="c" d="M360.54,204.36a9.53,9.53,0,0,1,3.92-.82,7.62,7.62,0,0,1,3,.67,4.16,4.16,0,0,1,1.17.79,4.44,4.44,0,0,1,.81,1.17c.44.87.73,1.86,1.2,2.66a24.81,24.81,0,0,1,2.15,5.19,20.77,20.77,0,0,1,.88,5.57.54.54,0,0,1-.54.53.5.5,0,0,1-.34-.12l-.05,0c-1.36-1.12-2.71-2.18-4.09-3.12s-2.71-1.85-4-2.72a12.48,12.48,0,0,0-2.23-1,3,3,0,0,1-1.65-1.5A9,9,0,0,1,360,209a13.76,13.76,0,0,1-.06-3.87v0A1,1,0,0,1,360.54,204.36Z"/><path class="d" d="M308.61,202.85c-.42-.29-7.57-5.48-11.28-17.39-7.32,9.65-16.47,11-21,11a19.61,19.61,0,0,1-4.77-.52l-4.19-1.09,1.47-13.22L257,184.09l-.49-5.59a23.21,23.21,0,0,1,5.5-16.07,26.28,26.28,0,0,1,8.2-6.45,31,31,0,0,1-13.44-27.07l.34-5,13.83,1-6-13.44,6.85-.73c.13,0,.85-.08,2-.08,4,0,15.34.93,23.73,10.66,8-21.14,22.91-22.43,23.64-22.48l5.23-.35.34,16.05,14.55-7,1.38,6.13c.12.56,2.08,10.06-6.16,21.43a47.54,47.54,0,0,1,5.14-.28c10.39,0,15.68,3.67,16.25,4.09l4.83,3.55-7.06,6.67,10.48,4.11-3.9,5.25a36.81,36.81,0,0,1-25.31,13.44,23.69,23.69,0,0,1,2.48,6.65c2.48,11.77-4.6,22.21-4.91,22.65l-3.22,4.66-12.41-11.08-5.35,11.48Z"/><path class="c" d="M321.48,103.8l.39,18.58,15.89-7.62S341.39,131,316.64,146c10.62-4.73,18.89-6.14,25-6.14,9.05,0,13.29,3.12,13.29,3.12l-8.44,8,11.74,4.59A31.72,31.72,0,0,1,334.05,167a35.43,35.43,0,0,1-10.66-1.71c20.92,12.86,7,33.06,7,33.06L317.16,186.6l-5.67,12.17s-12.38-8.72-11.28-31.36c-5.65,21.26-17.86,24.06-23.88,24.06a15.07,15.07,0,0,1-3.51-.36l1.75-15.76-13.09,2.71s-1.66-18.95,24.88-21.24c-26.21-4.24-24.61-27.57-24.61-27.57l17.14,1.19-6.59-14.75s.54-.06,1.47-.06c4.64,0,19.08,1.42,25.4,18.43,5.42-29.11,22.31-30.26,22.31-30.26m9.78-10.69-10.46.72c-1.22.08-7.7.78-14.69,6.38a40.61,40.61,0,0,0-10.32,12.7,35.43,35.43,0,0,0-5.49-3.4,37.82,37.82,0,0,0-16.53-3.88c-1.32,0-2.2.08-2.52.11l-13.69,1.45L263,119.31l-.53,0-10-.69-.69,10a38.2,38.2,0,0,0,3.35,17,34.94,34.94,0,0,0,6.73,10,30.46,30.46,0,0,0-3.68,3.68,28.49,28.49,0,0,0-6.65,19.72l1,11.2,10.61-2.2-.23,2.08-1,8.6,8.38,2.18a24.87,24.87,0,0,0,6,.68,30.46,30.46,0,0,0,19.28-6.94c4.1,7.92,9.17,11.74,10.12,12.41l9.77,6.88,5-10.8,3.17,2.83,8.45,7.54,6.44-9.32c.88-1.28,8.55-12.91,5.68-26.52-.11-.55-.25-1.13-.42-1.73,11.12-2.8,19-9.81,22.38-14.35L374,151l-9.23-3.61,5.69-5.37-9.66-7.1c-1-.76-6.2-4.2-15.67-4.93.25-.58.48-1.16.7-1.75,3.06-8.28,1.91-14.47,1.65-15.63l-2.75-12.25-11.33,5.42-1.89.91-.06-3.06-.22-10.48Z"/><ellipse class="e" cx="306.27" cy="153.68" rx="5.31" ry="6.74" transform="translate(53.31 384.83) rotate(-69.07)"/><path class="d" d="M308.16,148.72c.53-5.73,7.32-15.49,7.32-15.49"/><path class="c" d="M303.19,148.26a16.71,16.71,0,0,1,2.58-5,36,36,0,0,1,3.06-3.73,69.64,69.64,0,0,1,6.65-6.26,67.57,67.57,0,0,0-2.2,8.55,29.31,29.31,0,0,0-.51,4.12,7.58,7.58,0,0,0,.37,3.28Z"/><path class="d" d="M312.81,154c7.31-2,17.59.33,17.59.33"/><path class="c" d="M311.46,149.15a29.85,29.85,0,0,1,10.25,1.53,53.81,53.81,0,0,1,8.69,3.62,51.06,51.06,0,0,0-8.89,1.38,31.33,31.33,0,0,0-4,1.3,16.2,16.2,0,0,0-3.32,1.8Z"/><path class="d" d="M310.62,158.34c6,7.13,5.36,13.4,5.36,13.4"/><path class="c" d="M314.43,155.11c.3.7.59,1.38.85,2.08s.5,1.39.69,2.12a26.78,26.78,0,0,1,.85,4.28,22.08,22.08,0,0,1,0,4.22,14.07,14.07,0,0,1-.88,3.93,12.87,12.87,0,0,0-1.56-3.4,18.62,18.62,0,0,0-2.2-2.8,21.54,21.54,0,0,0-2.59-2.23c-.44-.34-.94-.63-1.39-.93s-1-.55-1.44-.81Z"/><path class="d" d="M300.49,155.49c-5.92,2.19-11.95,9.85-11.95,9.85"/><path class="c" d="M302.22,160.18a9.6,9.6,0,0,0-3.1.25,23.71,23.71,0,0,0-3.52,1.16,43.69,43.69,0,0,0-7.06,3.75,47,47,0,0,1,3.76-7.51A30.18,30.18,0,0,1,295,154.2a19.29,19.29,0,0,1,3.8-3.4Z"/><path class="d" d="M301,149.72c-4.19-7.92-13.31-11.8-13.31-11.8"/><path class="c" d="M296.59,152.06a16.43,16.43,0,0,0-1-3.66,21.55,21.55,0,0,0-1.93-3.71,30.78,30.78,0,0,0-6-6.77,33.44,33.44,0,0,1,9.21,3,28.33,28.33,0,0,1,4.44,2.7,25.4,25.4,0,0,1,4.08,3.8Z"/><path class="f" d="M219,221.33l-9.77,15.83-4.41-3.49A32.55,32.55,0,0,1,194,213a38.13,38.13,0,0,1,2.8-18.71,42.69,42.69,0,0,1-13.54,2.23c-18.81,0-30.92-12.88-31.43-13.43l-3.39-3.67,16.33-15.05-21.29-7.47,4.17-5.47c.5-.66,12.48-16,33.69-16a44.25,44.25,0,0,1,6.26.45c-17.21-31.24-3.16-49-2.48-49.79l3.33-4L207,98.79l7.54-23.52,5.39,3.21c.76.45,14.43,8.91,16.57,32.89C249.74,91,263.67,88.23,264.43,88.09l5.9-1.08v15.37L286.05,95l1.14,6.44A51.36,51.36,0,0,1,286,120.94a50.57,50.57,0,0,1-12.42,22.68c20,2.7,29.27,21.26,31.43,31.44l1.18,5.54-25.15,2.14,7.08,17.84-5.86,1.19a29,29,0,0,1-5.38.42c-6.1,0-16.3-1.32-28-8.25,2.26,8.29,2.69,17.29-.81,26a33.35,33.35,0,0,1-11.91,15.12l-3.67,2.3Z"/><path class="c" d="M217.39,82.78s21.2,12.6,12.14,54.65C243.77,96.93,265.33,93,265.33,93v17.25l16.93-8s5.44,30.67-24.92,47.61a43.33,43.33,0,0,1,11.27-1.6c25.64,0,31.55,27.81,31.55,27.81L274,178.33l7.35,18.54a24.54,24.54,0,0,1-4.38.32c-7.58,0-24-2.39-41-20.13,23.32,37.71-2.35,53.76-2.35,53.76l-15.23-18-10.44,16.9s-22.16-17.54,2.45-48.54c-10,7.66-19.22,10.26-27.13,10.26-16.84,0-27.75-11.82-27.75-11.82l18.77-17.29-22.65-8s10.73-14.08,29.71-14.08a44.72,44.72,0,0,1,17.54,3.81c-25.89-35.56-9.9-55-9.9-55l20.45,18.54,8-24.93m-5.69-15-3.83,12-3.25,10.15-9-8.12-7.76-7-6.67,8.09c-1,1.22-6,7.87-7,19.7-.73,8.89,1,18.21,5.13,27.86-22.44.92-35.16,17.26-35.71,18l-8.34,10.95,13,4.56,6.94,2.43-6.53,6-7.36,6.78,6.79,7.35c.57.62,14.12,15,35.1,15a47.39,47.39,0,0,0,6.3-.42,40.71,40.71,0,0,0-.53,12.48,37.24,37.24,0,0,0,12.7,24.06l8.81,7,5.91-9.56,3.2-5.19,6.33,7.47,5.59,6.6,7.34-4.59a38.16,38.16,0,0,0,13.9-17.49,42,42,0,0,0,2.8-19,56.79,56.79,0,0,0,21.34,4.38,33.79,33.79,0,0,0,6.37-.52L295,204.29l-4.41-11.11-2.39-6,12.8-1.09,11.29-1L309.94,174a53.72,53.72,0,0,0-7.65-17.41c-5.21-7.74-11.92-13.13-19.79-16a57.09,57.09,0,0,0,9.61-40.11l-2.28-12.88L278,93.23l-2.67,1.26V81l-11.8,2.15c-1.77.32-12.52,2.77-24.15,16a54.14,54.14,0,0,0-3.56-9.31c-5.22-10.51-12-14.93-13.32-15.71l-10.8-6.41Z"/><ellipse class="g" cx="227.28" cy="156.5" rx="10.01" ry="7.88" transform="translate(-45.37 113.99) rotate(-25.69)"/><path class="c" d="M220.11,152.7a26.06,26.06,0,0,1-3-7.12,56,56,0,0,1-1.4-6.73,107.52,107.52,0,0,1-1.12-13.17,104.29,104.29,0,0,0,5.84,11.51,50,50,0,0,0,3.44,5.14,16.21,16.21,0,0,0,3.74,3.76Z"/><path class="c" d="M229.85,147.4a39.49,39.49,0,0,1,5.18-5.49,61.93,61.93,0,0,1,5.63-4.28,81.41,81.41,0,0,1,11.92-6.56,79.39,79.39,0,0,0-8.43,10.14,55.18,55.18,0,0,0-3.29,5.42,29.92,29.92,0,0,0-2.17,5.44Z"/><path class="c" d="M237,151.56c1,.3,2,.57,3,.9s2,.67,2.9,1.1a38,38,0,0,1,5.42,2.8A31.4,31.4,0,0,1,253,160a20.75,20.75,0,0,1,3.65,4.44,19.6,19.6,0,0,0-4.94-2.3,28.62,28.62,0,0,0-5.16-1.1,31.49,31.49,0,0,0-5.13-.12c-.83,0-1.69.15-2.51.22s-1.66.28-2.47.41Z"/><path class="c" d="M227.94,166.55a19.31,19.31,0,0,0-2.45,4.26,40.26,40.26,0,0,0-1.77,5.24c-.49,1.83-.87,3.73-1.2,5.65s-.58,3.87-.74,5.84c-.67-1.86-1.24-3.78-1.76-5.72s-1-3.93-1.29-6a45.87,45.87,0,0,1-.63-6.31,28.11,28.11,0,0,1,.64-6.91Z"/><path class="c" d="M216.31,163a28.94,28.94,0,0,0-5.51-2.14,34.68,34.68,0,0,0-6.22-1.08,47,47,0,0,0-13.26.73,46.73,46.73,0,0,1,6.09-3.27,50.06,50.06,0,0,1,6.65-2.43,40.87,40.87,0,0,1,7.19-1.43,36.3,36.3,0,0,1,7.73,0Z"/></svg>