<svg xmlns="http://www.w3.org/2000/svg" width="510" height="900" viewBox="0 0 510 900"><defs><style>.a{fill:#432d1e;}.b{fill:#db85a0;}.c{fill:#ebaed3;}.d{fill:#aebf7c;}</style></defs><title>new_game_large</title><path class="a" d="M5.56,889A95.48,95.48,0,0,1,17,878.67q6-4.6,12.22-8.54c2.08-1.31,4.19-2.56,6.3-3.8s4.24-2.43,6.42-3.52,4.31-2.26,6.52-3.27,4.37-2.1,6.61-3l-4.27,3.06L52.1,858c.43-.5.9-1,1.35-1.46s.89-1,1.37-1.43l1.47-1.34.73-.68.79-.63,1.57-1.25c.55-.41,1.11-.78,1.67-1.18l.84-.58.89-.54a42.48,42.48,0,0,1,7.71-3.77A40.15,40.15,0,0,1,75,843.81,30.18,30.18,0,0,1,80,843l.5,0a.55.55,0,0,1,.6.51.6.6,0,0,1-.12.39L76,850l-5.09,6.08-5.18,6c-1.73,2-3.43,4-5.21,6l-.21.23-.26.11c-9,3.66-17.93,7.42-26.94,11l-13.51,5.41L6.05,890.15a.61.61,0,0,1-.8-.35.62.62,0,0,1,.12-.65Z"/><path class="a" d="M117.12,874.33a134.51,134.51,0,0,1,17.58-6.43c5.89-1.75,11.8-3.22,17.72-4.49s11.87-2.3,17.82-3.12l4.47-.62,4.47-.51,4.48-.5,4.48-.38-4.84,1.44c.84-.49,1.67-1,2.53-1.47l2.6-1.36c1.7-.95,3.51-1.73,5.27-2.57s3.62-1.53,5.44-2.28,3.71-1.38,5.64-1.93a81.49,81.49,0,0,1,11.84-2.83c1-.17,2.07-.29,3.11-.44s2.1-.23,3.19-.3a47.85,47.85,0,0,1,6.68,0l.37,0a.59.59,0,0,1,.56.63.63.63,0,0,1-.29.48l-10.08,6L210,859.5c-3.38,2-6.8,3.85-10.2,5.78S193,869.14,189.59,871l-.26.14-.28,0c-12,.79-23.93,1.66-35.91,2.38l-18,1.09-18,1a.64.64,0,0,1-.67-.6.65.65,0,0,1,.37-.61Z"/><path class="b" d="M94,864.89a22.51,22.51,0,0,1-11.42-11.52,25.75,25.75,0,0,1-2-11.6,28.73,28.73,0,0,1-15.81,4.73,32.23,32.23,0,0,1-14.93-3.73l-3.46-2,7.31-12.54-15-.59,1.9-5.16c.25-.69,5.71-15,21.89-18.14C46,787.7,51.46,773.63,51.73,773l1.6-3.88,15,7,.19-16.43,4.88,1.19C74,761,84,763.61,90.31,777.52c4.68-14.64,12.71-19,13.17-19.23l4.26-2.21,3,9.65,8.51-7.76,2.39,4.66c2.88,5.61,5.5,17.39.11,29.33a23.73,23.73,0,0,1,2.79-.16c14.82,0,22.82,14.05,23.15,14.65l2.21,4-15.63,6.31,8,10-4.2,2.29c-.53.28-5.42,2.82-13.54,2.82a41.51,41.51,0,0,1-8.46-.89c7.31,12.71,3.34,23.59-.87,28.46L112.92,862l-11.63-7.44-3.12,11.95Z"/><path class="a" d="M105.32,761.84l3.42,11.1,9.31-8.49s9.57,18.66-6.61,35.56c4.85-3,9.22-4.21,13.07-4.21,12.64,0,19.66,12.6,19.66,12.6L127.75,815l8.4,10.47s-4.3,2.34-11.63,2.34c-5.59,0-12.93-1.35-21.48-6.11,22.46,19.65,9.12,35.06,9.12,35.06l-13.35-8.55-3.37,12.94s-17.73-6.91-8-31.72c-7.38,10.35-15.86,13-22.69,13a28.13,28.13,0,0,1-12.92-3.19l8.65-14.84-16.14-.63a26.41,26.41,0,0,1,24.75-16.15,35.31,35.31,0,0,1,3.62.19c-23.7-17.75-17.25-33.4-17.25-33.4l16.82,7.88.21-17.62s16.13,3.91,18.62,32.76c1.15-28.87,14.24-35.66,14.24-35.66m4.83-11.52-8.51,4.42c-1.06.55-7.06,4-12,13.7a35.65,35.65,0,0,0-3-3.64c-5.68-6-11.24-7.57-12.29-7.83l-9.77-2.37-.12,10-.06,5.2-5.58-2.61-7.59-3.56L48,771.43c-.43,1.05-2.47,6.65-.68,14.82a39.82,39.82,0,0,0,7.93,16c-13.44,5.55-18.23,18.09-18.48,18.77L33,831.4l11,.43,2.84.11-1.94,3.34-4,6.92,6.91,4a36,36,0,0,0,16.95,4.28,32.65,32.65,0,0,0,12.18-2.33,28.72,28.72,0,0,0,2,6.81,26.45,26.45,0,0,0,13.63,13.64l8.38,3.26,2.27-8.7.59-2.28,4.08,2.61,5.83,3.74,4.53-5.24A27,27,0,0,0,124,847.28a29.05,29.05,0,0,0-1.38-11.49c.63,0,1.27,0,1.9,0,8.92,0,14.44-2.76,15.45-3.31l8.4-4.57-6-7.46-1.66-2.08,6.43-2.59,8.41-3.39-4.41-7.92c-.36-.64-8.46-14.87-23.7-16.55a39.8,39.8,0,0,0-2.29-27.16l-4.77-9.31-7.73,7-2.52-8.21Z"/><path class="b" d="M92,820.22a8.65,8.65,0,0,1-6.44-2.72c-3.49-3.76-2.79-10.1,1.56-14.12a11.63,11.63,0,0,1,7.76-3.18,8.64,8.64,0,0,1,6.44,2.71c3.49,3.77,2.79,10.11-1.56,14.13A11.63,11.63,0,0,1,92,820.22Z"/><path class="a" d="M94.85,804.2a4.69,4.69,0,0,1,3.51,1.43c2,2.15,1.39,5.94-1.35,8.47a7.56,7.56,0,0,1-5,2.12,4.69,4.69,0,0,1-3.51-1.43c-2-2.15-1.39-5.95,1.35-8.48a7.6,7.6,0,0,1,5-2.11m0-8h0a15.5,15.5,0,0,0-10.48,4.24,15.79,15.79,0,0,0-4.91,9,12.83,12.83,0,0,0,3.13,10.78,12.61,12.61,0,0,0,9.38,4A15.46,15.46,0,0,0,102.45,820a15.76,15.76,0,0,0,4.91-9,12.81,12.81,0,0,0-3.13-10.78,12.61,12.61,0,0,0-9.38-4Z"/><path class="b" d="M89.81,806.31c-4.91-3-10.66-13.41-10.66-13.41"/><path class="a" d="M87.71,809.72a17.08,17.08,0,0,1-3.35-4.2,36,36,0,0,1-2.13-4.19,70.72,70.72,0,0,1-3.08-8.43A68.77,68.77,0,0,0,85.44,799a32.5,32.5,0,0,0,3.33,2.5,9.77,9.77,0,0,0,3.13,1.46Z"/><path class="b" d="M96.57,804.47c1.41-7.45,8.09-15.62,8.09-15.62"/><path class="a" d="M92.64,803.73A30,30,0,0,1,98,795.27a54.37,54.37,0,0,1,6.66-6.42,51.92,51.92,0,0,0-3.15,8.34,35.94,35.94,0,0,0-.88,4.16,19,19,0,0,0-.13,3.87Z"/><path class="b" d="M99.51,808.37c9.07-2.25,14.39,1.13,14.39,1.13"/><path class="a" d="M98.55,804.49c.73,0,1.44,0,2.15,0s1.42.1,2.13.21a26.32,26.32,0,0,1,4.11.89,21.69,21.69,0,0,1,3.77,1.57,14.23,14.23,0,0,1,3.19,2.29,13.21,13.21,0,0,0-3.68-.35,18.43,18.43,0,0,0-3.51.48,20.67,20.67,0,0,0-3.25,1.09c-.52.2-1,.48-1.53.72s-1,.55-1.45.81Z"/><path class="b" d="M92.47,816.2c-.65,6.27,3.54,15.07,3.54,15.07"/><path class="a" d="M96.45,816.61a11.48,11.48,0,0,0-.89,3.1,24.51,24.51,0,0,0-.26,3.7,44.17,44.17,0,0,0,.71,7.86,47.86,47.86,0,0,1-4.58-6.83,31.06,31.06,0,0,1-1.82-4,19.14,19.14,0,0,1-1.11-4.71Z"/><path class="b" d="M87.54,813.17c-9,.25-16.48,6.71-16.48,6.71"/><path class="a" d="M87.64,817.17a17.69,17.69,0,0,0-3.87-.45,21.68,21.68,0,0,0-4.2.36,31.12,31.12,0,0,0-8.51,2.8A33.31,33.31,0,0,1,78,813.4a28.18,28.18,0,0,1,4.36-2.52,25.17,25.17,0,0,1,5.07-1.7Z"/><path class="b" d="M277,872l-7.94,10.06-3.17-3.58c-.36-.39-6.53-7.55-6.83-21-6.51,6.06-13.07,7.64-18.14,7.64h0a22.18,22.18,0,0,1-9.79-2.15l-3.06-1.62,4.65-13-12.36-.35.65-4.45c.83-5.68,6-15.74,19.54-18.29a29.89,29.89,0,0,1-7.91-29.75l1.18-3.83L247.71,796l-2.8-14.74,5.46.7A30.72,30.72,0,0,1,262,786.53a29.37,29.37,0,0,1,11,12.73A42.15,42.15,0,0,1,285.44,786a25.38,25.38,0,0,1,13.68-4.41,13.21,13.21,0,0,1,2,.13l4.13.69-3.47,16.19,16.05-3.5-.05,5c0,.59-.31,10.93-12.41,20.21,15,1.2,21,7.71,21.67,8.52l3.11,3.65-8.74,5.07,9.48,6.55-4,3.38a36.05,36.05,0,0,1-21.7,7.43h0a34.18,34.18,0,0,1-6.83-.69,22.83,22.83,0,0,1,1.34,8.3c-.28,11.59-9.27,19.85-9.65,20.19l-3.37,3Z"/><path class="a" d="M299.13,785.63a9,9,0,0,1,1.33.08l-3.89,18.17,17.21-3.76s-.19,16.59-27.73,25.51a77.37,77.37,0,0,1,14.4-1.46c17.32,0,23.55,7.32,23.55,7.32L314,837.31l10.36,7.17A32,32,0,0,1,305.19,851a32.85,32.85,0,0,1-17-5c17.4,17.33-.81,33.78-.81,33.78l-10.15-14.5-8.31,10.53s-10-11.33-3.77-33.11C257,858,247.47,861.17,240.94,861.17a18.44,18.44,0,0,1-7.92-1.68l5.33-14.93L225,844.18s2.25-15.48,22.32-15.48a46.87,46.87,0,0,1,6.77.53c-24.52-10.15-17.6-32.49-17.6-32.49l16.4,5.1-3-15.88s19.24,2.45,21.92,24.06c9.94-22.48,23.14-24.39,27.34-24.39m-59.18-9L242,787.46l.53,2.79-3.69-1.15-7.65-2.37-2.36,7.65a35.87,35.87,0,0,0-.61,16.33,33,33,0,0,0,5.25,12.5c-11,4.51-15.57,14.07-16.41,19.81l-1.3,8.9,9,.25,2.36.07-1.63,4.56-2.33,6.52,6.12,3.24a26,26,0,0,0,11.66,2.61,28.72,28.72,0,0,0,14.9-4.17,43.14,43.14,0,0,0,1.18,4.82,31.9,31.9,0,0,0,5.89,11.32l6.34,7.15,5.93-7.5,1.64-2.09,4,5.69,5.19,7.43,6.73-6.08c1.09-1,10.65-10,11-23.06a26.13,26.13,0,0,0-.18-3.75c.56,0,1.12,0,1.68,0a39.62,39.62,0,0,0,24.28-8.38l8-6.74-8.6-6,7.43-4.3-6.21-7.3a24.79,24.79,0,0,0-7.84-5.65,40.08,40.08,0,0,0-8.19-2.94,37.55,37.55,0,0,0,2.85-3.76c4.57-6.88,4.86-12.65,4.87-13.74l.11-10.05-9.82,2.14L307,793.41l1.29-6,1.76-8.2-8.27-1.37a16.4,16.4,0,0,0-2.64-.19c-5,0-15.82,1.66-25.83,14.21a33.67,33.67,0,0,0-9.14-8.68A34.54,34.54,0,0,0,250.88,778L240,776.64Z"/><path class="b" d="M275.57,840.55a11.94,11.94,0,0,1-6.62-2.11,11.7,11.7,0,0,1-4.63-6.06A8.58,8.58,0,0,1,272.8,821a11.89,11.89,0,0,1,6.62,2.11c4.9,3.33,6.53,9.49,3.65,13.73A8.86,8.86,0,0,1,275.57,840.55Z"/><path class="a" d="M272.8,825a7.91,7.91,0,0,1,4.37,1.41c3.08,2.1,4.24,5.76,2.59,8.18a4.91,4.91,0,0,1-4.19,2,7.91,7.91,0,0,1-4.37-1.41c-3.08-2.1-4.23-5.76-2.59-8.18a4.92,4.92,0,0,1,4.19-2m0-8h0a12.79,12.79,0,0,0-10.8,5.51c-4.13,6.06-2,14.72,4.7,19.29a15.76,15.76,0,0,0,8.87,2.8,12.79,12.79,0,0,0,10.8-5.51c4.13-6.07,2-14.72-4.7-19.29a15.73,15.73,0,0,0-8.87-2.8Z"/><path class="b" d="M277.17,826.36C279,820.91,287.85,813,287.85,813"/><path class="a" d="M273.38,825.09a17.26,17.26,0,0,1,3.34-4.21,36.7,36.7,0,0,1,3.6-3,71.59,71.59,0,0,1,7.53-4.89,68.68,68.68,0,0,0-4.49,7.49,30,30,0,0,0-1.68,3.8,9.6,9.6,0,0,0-.72,3.38Z"/><path class="b" d="M280.48,832.54c7.59-.31,17,4.37,17,4.37"/><path class="a" d="M280.32,828.54a30,30,0,0,1,9.45,3.33,54.39,54.39,0,0,1,7.76,5,52.23,52.23,0,0,0-8.84-1.19,33.22,33.22,0,0,0-4.25.08,18.43,18.43,0,0,0-3.8.73Z"/><path class="b" d="M277.35,836.28c4.23,8.33,2.13,14.28,2.13,14.28"/><path class="a" d="M280.91,834.47c.15.71.31,1.41.43,2.11s.23,1.41.28,2.12a25.78,25.78,0,0,1,.06,4.21,21.49,21.49,0,0,1-.69,4,14,14,0,0,1-1.51,3.62,12.64,12.64,0,0,0-.49-3.66,18,18,0,0,0-1.25-3.32,22,22,0,0,0-1.79-2.93c-.32-.46-.71-.89-1-1.32s-.76-.83-1.13-1.23Z"/><path class="b" d="M268.14,831.18c-6.26.77-13.89,6.84-13.89,6.84"/><path class="a" d="M268.63,835.15a11.42,11.42,0,0,0-3.22-.17,25.65,25.65,0,0,0-3.66.57,45.68,45.68,0,0,0-7.5,2.47,46,46,0,0,1,5.63-6,30.14,30.14,0,0,1,3.44-2.66,19.22,19.22,0,0,1,4.33-2.15Z"/><path class="b" d="M270,825.69c-2.26-8.68-10.24-14.54-10.24-14.54"/><path class="a" d="M266.1,826.7a17.57,17.57,0,0,0-.42-3.88,22.54,22.54,0,0,0-1.3-4,31.05,31.05,0,0,0-4.64-7.66,33.24,33.24,0,0,1,7.88,5.3,28.65,28.65,0,0,1,3.42,3.68,25.31,25.31,0,0,1,2.81,4.56Z"/><path class="c" d="M350.68,877.39c-.64-.35-12.64-7.27-18.56-26.15-8.89,20.1-24.89,22-30.43,22a18.64,18.64,0,0,1-2.75-.17l-3.43-.51.12-19.4-16.26,5.18-.86-4.41a29,29,0,0,1,4.7-20.32,34.76,34.76,0,0,1,14-11.66A39,39,0,0,1,271.9,787.6l-.15-4,20.56-.74L282,765l5.38-1.15a33.12,33.12,0,0,1,6.49-.56,39,39,0,0,1,30.56,14.11c6.3-32.42,26.61-36.36,27.56-36.52l4.13-.72L359,763l19.28-11.87,1.61,4.76c.26.77,4.82,15.12-8.9,33.33a62.83,62.83,0,0,1,19-3.17c9.59,0,14.68,2.82,15.23,3.14l4.14,2.42L400,802.41l15.4,4.23-2.66,4.5c-.49.82-11.57,19.13-35,21a29.88,29.88,0,0,1,6.94,11.54c4.63,14.35-2.88,28.38-3.2,29l-2.17,4-18.74-13.48-5.71,16.59Z"/><path class="a" d="M352.62,744.77l3.15,24.92,20.29-12.49s7.18,21.27-24,45c16.67-9.63,29.3-12.08,37.83-12.08,8.78,0,13.21,2.59,13.21,2.59L392.9,804.59l16.43,4.52S398,828.27,373.87,828.27a49.89,49.89,0,0,1-10-1c30,14.34,14.06,43.48,14.06,43.48l-19.43-14-5.9,17.16s-17.89-10-19.62-40.58c-5.16,33-24.76,35.88-31.32,35.88a16.12,16.12,0,0,1-2.16-.12l.13-21.44-17.23,5.49s-4.91-25.25,30.46-32.09c-35.84-2-37-33.59-37-33.59l23.22-.83-10.94-18.91a29.79,29.79,0,0,1,5.65-.47c8.31,0,23.83,2.73,33.08,21.38,3.17-39.92,25.72-43.85,25.72-43.85m6.89-9.32-8.26,1.44c-1,.17-20.75,4-29.07,32.56a42,42,0,0,0-8.61-5.68,44.83,44.83,0,0,0-19.74-4.53,36.82,36.82,0,0,0-7.33.65l-10.77,2.29,5.51,9.54,4.28,7.38-9.91.36-8,.28.29,8a45.49,45.49,0,0,0,6.15,19.8,41.34,41.34,0,0,0,14.64,14.78,36,36,0,0,0-8.79,9,32.71,32.71,0,0,0-5.32,23.32l1.72,8.82,8.56-2.73,6.74-2.15L291.53,869l0,6.92,6.85,1a23.39,23.39,0,0,0,3.35.21,35,35,0,0,0,21-7.18,39.45,39.45,0,0,0,8.81-9.41c6.85,14.33,16.6,19.94,17.2,20.27l8.35,4.66,3.11-9,2.4-7,10.7,7.69,7.36,5.29,4.34-8c.35-.66,8.64-16.15,3.48-32.12a32.94,32.94,0,0,0-3.41-7.37,51.15,51.15,0,0,0,31.16-21.88l5.33-9-10.1-2.77-4.26-1.18,2-2.34,6.24-7.28-8.28-4.84c-1.05-.61-6.83-3.68-17.25-3.68a60,60,0,0,0-10.35.93c8.1-15.8,4.33-27.64,4.08-28.37l-3.21-9.52-8.56,5.27-9.72,6-1.59-12.6-1.05-8.32Z"/><path class="a" d="M338.15,806.68a11.07,11.07,0,0,1,2.92.39c4.86,1.29,8,5.45,7,9.28-.81,3-4,5-7.73,5a11.45,11.45,0,0,1-2.92-.39c-4.87-1.3-8-5.45-7-9.28.81-3,4-5,7.73-5m0-8h0c-7.51,0-13.72,4.38-15.46,10.91-2.16,8.09,3.51,16.64,12.62,19.07a19.27,19.27,0,0,0,5,.66c7.51,0,13.72-4.39,15.46-10.91a14.51,14.51,0,0,0-2.6-12.45,18.38,18.38,0,0,0-10-6.62,19.19,19.19,0,0,0-5-.66Z"/><path class="a" d="M337.07,807.12a23.13,23.13,0,0,1,2-6.58,50.66,50.66,0,0,1,2.88-5.48,98.14,98.14,0,0,1,6.76-9.87,95.08,95.08,0,0,0-3,11.31,44.57,44.57,0,0,0-.81,5.59,15.88,15.88,0,0,0,.2,4.92Z"/><path class="a" d="M346.59,809.74a41,41,0,0,1,13.07-.58,74.19,74.19,0,0,1,12.11,2.26,72.28,72.28,0,0,0-11.86,1.73,52.49,52.49,0,0,0-5.54,1.67,28.26,28.26,0,0,0-4.84,2.36Z"/><path class="a" d="M348.5,816.76c.53.78,1.06,1.53,1.56,2.31s1,1.58,1.38,2.41a34.58,34.58,0,0,1,2.17,5,28.54,28.54,0,0,1,1.2,5.22,18.42,18.42,0,0,1,0,5.19,17.56,17.56,0,0,0-1.92-4.56,25.66,25.66,0,0,0-2.8-3.91,29.49,29.49,0,0,0-3.38-3.24c-.58-.51-1.24-.94-1.84-1.4s-1.29-.85-1.92-1.26Z"/><path class="a" d="M333.47,820.84a18.67,18.67,0,0,0-4.23,1.66,39.46,39.46,0,0,0-4.26,2.71,61.24,61.24,0,0,0-8,7,64.64,64.64,0,0,1,5-9.7,43.09,43.09,0,0,1,3.36-4.6,26.35,26.35,0,0,1,4.53-4.22Z"/><path class="a" d="M328.27,811.65a26.87,26.87,0,0,0-2.71-4.73,33.44,33.44,0,0,0-3.78-4.36,41.89,41.89,0,0,0-4.58-3.86,40.38,40.38,0,0,0-5.18-3.26,42,42,0,0,1,6.08,1.47,45.3,45.3,0,0,1,5.94,2.36,36.94,36.94,0,0,1,5.69,3.34,33.68,33.68,0,0,1,5.18,4.59Z"/><path class="c" d="M142.07,813l-12.59,7.32-1.8-4.12a25.62,25.62,0,0,1,.17-18.4A30,30,0,0,1,136.62,786c-16.84-3-24.88-16.73-26.87-24.38l-1-3.88,16.8-4.35-12-13,5-2.28A34.92,34.92,0,0,1,132,735.48,33.7,33.7,0,0,1,152,742c-.28-27.89,16-35,16.75-35.26l3.88-1.6,6.61,18.48,13.89-13.46,2.6,4.31c.36.59,6.65,11.44-.62,28.74,9.79-5.35,17.42-6.4,21.91-6.4a20.17,20.17,0,0,1,5.88.72l4.56,1.46-5.67,10.6,13.6.69-1.63,5c-.07.21-6,17.77-24.89,24.17a25.86,25.86,0,0,1,7.24,8c6.7,11.41,2.93,24.83,2.77,25.4l-1.26,4.35-18.17-7.81-1.7,14.94-4.59-1.37c-.59-.18-11.58-3.64-20.11-17.63-4.08,17.27-16.52,23.11-24,23.62l-3.45.24Z"/><path class="a" d="M170.23,710.41l7.29,20.38,14.75-14.29s10,16.56-11.82,42.29c17-15.55,30-18,36.53-18a16.81,16.81,0,0,1,4.65.52l-6.38,11.94,14.67.74s-7.59,23.22-34.85,23.71c27.87,6.48,19.92,34,19.92,34l-19-8.15L194.27,819s-16.9-5.06-24.05-30.48c2.18,34.7-21.51,36.31-21.51,36.31l-3.88-18.06-13.48,7.82S122.52,794.31,151,782a46,46,0,0,1-7.4.63c-24.26,0-30-22-30-22l19.38-5-12.73-13.87A30.85,30.85,0,0,1,132,739.48c7.2,0,16.59,2.47,24.76,12.6-4.77-34.17,13.47-41.67,13.47-41.67m4.71-10.59L167.19,703c-.81.33-16.65,7.18-18.95,32.1A37.71,37.71,0,0,0,132,731.48a38.82,38.82,0,0,0-15,2.95l-10,4.57,7.45,8.11,3.72,4.06-6.48,1.69-7.75,2,2,7.75c1.94,7.46,9,20,23.14,25.43a31.8,31.8,0,0,0-4.89,8.33,29.38,29.38,0,0,0-.11,21.45l3.58,8.25,7.77-4.52,3.95-2.29,1.57,7.29,1.45,6.77,6.91-.47a30.19,30.19,0,0,0,16.18-7,33,33,0,0,0,8.91-12c8.33,9.9,17.08,12.65,17.64,12.81l9.16,2.75,1.08-9.5.55-4.85,9.07,3.9,8.32,3.58,2.52-8.71c.46-1.59,4.27-15.88-3.16-28.54a29.65,29.65,0,0,0-3.38-4.68,44.92,44.92,0,0,0,21.38-24.19l3.25-10L230.32,746l-2.06-.11.43-.8,4.52-8.46-9.13-2.93a24.14,24.14,0,0,0-7.1-.91,44.43,44.43,0,0,0-15.36,3,42.93,42.93,0,0,0,.92-7.49c.28-9.24-2.81-14.84-3.43-15.87l-5.19-8.6-7.22,7-5.83,5.64-3.1-8.69-2.83-7.89Z"/><path class="a" d="M171.68,765h.43c4.33.18,7.73,3.1,7.58,6.51s-3.54,5.85-7.68,5.85h-.43c-4.33-.19-7.73-3.1-7.58-6.51s3.54-5.85,7.68-5.85m0-8h0c-8.47,0-15.35,5.93-15.67,13.51a13.54,13.54,0,0,0,4.89,10.87,16.94,16.94,0,0,0,10.34,4l.77,0c8.47,0,15.35-5.94,15.67-13.51.34-7.81-6.5-14.47-15.23-14.85Z"/><path class="a" d="M168.22,765.88a19.69,19.69,0,0,1,.58-6,41.4,41.4,0,0,1,1.54-5.17,81.12,81.12,0,0,1,4.13-9.52,81.71,81.71,0,0,0-.18,10.12,39.06,39.06,0,0,0,.5,4.83,12.52,12.52,0,0,0,1.21,4Z"/><path class="a" d="M176.94,765.73A35.53,35.53,0,0,1,188.06,763a62.54,62.54,0,0,1,10.68-.08,60.79,60.79,0,0,0-9.57,3.93,41.29,41.29,0,0,0-4.26,2.54,23.05,23.05,0,0,0-3.49,3Z"/><path class="a" d="M180.45,771.27c.59.58,1.17,1.14,1.73,1.73s1.1,1.19,1.6,1.84a30.43,30.43,0,0,1,2.7,4,25,25,0,0,1,1.9,4.28,16,16,0,0,1,.86,4.43,15.61,15.61,0,0,0-2.58-3.41,22.61,22.61,0,0,0-3.17-2.65,24.81,24.81,0,0,0-3.51-2c-.58-.3-1.23-.51-1.82-.76s-1.25-.42-1.86-.63Z"/><path class="a" d="M168.63,778.4a15,15,0,0,0-3.27,2,30.09,30.09,0,0,0-3.17,3,52.46,52.46,0,0,0-5.63,7.21,54.84,54.84,0,0,1,2.17-9.23,36.67,36.67,0,0,1,1.89-4.61,22.14,22.14,0,0,1,3-4.57Z"/><path class="a" d="M161.81,771.61a21.24,21.24,0,0,0-3-3.52,27.59,27.59,0,0,0-3.88-3.07,36.88,36.88,0,0,0-9.42-4.43,37.68,37.68,0,0,1,5.42,0,39,39,0,0,1,5.51.76A32.55,32.55,0,0,1,162,763a29.21,29.21,0,0,1,5.37,2.84Z"/><path class="a" d="M291.27,159a74.24,74.24,0,0,1,11.1-3.49c3.67-.86,7.33-1.51,11-2,1.82-.23,3.63-.44,5.45-.63s3.62-.32,5.43-.4,3.61-.19,5.41-.19,3.6-.05,5.39,0l-5.06.71c2.56-1.15,5.1-2.37,7.72-3.39,1.3-.52,2.59-1.08,3.9-1.57l4-1.45c1.31-.51,2.65-.94,4-1.36s2.67-.89,4-1.28c2.71-.77,5.42-1.57,8.19-2.19a133.46,133.46,0,0,1,16.92-3,85.86,85.86,0,0,1,18-.25l.3,0a.61.61,0,0,1,.55.67.65.65,0,0,1-.38.51c-5.19,2.13-10.37,4.32-15.58,6.42l-15.64,6.28-15.68,6.15c-5.22,2.08-10.48,4.05-15.72,6.07h0a1.34,1.34,0,0,1-.56.08l-10.69-1-10.69-1.09c-3.57-.37-7.13-.71-10.69-1.12l-10.68-1.2a.63.63,0,0,1-.55-.68.62.62,0,0,1,.38-.5Z"/><path class="a" d="M187.05,50.84a44.45,44.45,0,0,1,7.45.88c2.36.45,4.58,1.09,6.79,1.74a73.76,73.76,0,0,1,12.3,5.17,86.66,86.66,0,0,1,11,6.9A84.29,84.29,0,0,1,234.39,74l-6.62-2.23,1.8.24,1.8.32c1.19.21,2.39.41,3.59.72s2.4.54,3.6.9l1.8.51,1.8.59a62.12,62.12,0,0,1,7.19,2.86A45.71,45.71,0,0,1,256.54,82l.33.23a.59.59,0,0,1,.14.82.63.63,0,0,1-.47.25c-4.79.13-9.59.34-14.38.39l-7.2.13c-2.4.05-4.79,0-7.19.06a1.21,1.21,0,0,1-.73-.24h0l-10.31-7.78L206.48,68c-3.42-2.61-6.77-5.32-10.16-8s-6.7-5.41-10-8.11a.59.59,0,0,1,.38-1.05Z"/><path class="a" d="M433.6,113.83a59,59,0,0,1,14.81-.41A84.44,84.44,0,0,1,462,115.75c2.22.52,4.34,1.23,6.5,1.87s4.24,1.45,6.29,2.34l3.09,1.29,3,1.42,1.51.71,1.49.79c1,.52,2,1,3,1.58l-4.51-1,4.17.5,4.17.69,4.17.89c1.39.38,2.78.7,4.17,1.12a78.57,78.57,0,0,1,8.35,3,51.56,51.56,0,0,1,8.34,4.39l.31.2a.61.61,0,0,1,.17.83.6.6,0,0,1-.48.27l-8.34.24c-2.78.1-5.56.12-8.35.17l-8.34.14-8.34,0a1.16,1.16,0,0,1-.49-.1h0c-4.09-1.79-8.21-3.52-12.28-5.36l-12.23-5.46c-4.08-1.83-8.13-3.72-12.19-5.58s-8.08-3.82-12.12-5.72a.61.61,0,0,1-.28-.8.58.58,0,0,1,.43-.33Z"/><path class="a" d="M470.34,103.27a29.4,29.4,0,0,1,6.1-1,34.45,34.45,0,0,1,5.4.08,35.12,35.12,0,0,1,9.46,2.22,37,37,0,0,1,8.05,4.42,36,36,0,0,1,6.77,6.37l3.86,4.74a3.87,3.87,0,0,1,.68,3.64,31.68,31.68,0,0,1-1.43,3.68c-.25.61-.57,1.22-.9,1.84l-.48.92-.55.92a36,36,0,0,1-2.52,3.68,29.89,29.89,0,0,1-3.46,3.68l-.41.37a.54.54,0,0,1-.75,0,.54.54,0,0,1-.14-.33l-.18-3.68c0-1.23-.14-2.46-.16-3.68l-.21-7.36.55,1-7.72-4.91c-2.58-1.63-5.09-3.36-7.64-5s-5.06-3.4-7.57-5.14-5-3.54-7.46-5.32a.53.53,0,0,1,.17-.94Z"/><path class="c" d="M441,79a22.64,22.64,0,0,1-8.24-14,25.87,25.87,0,0,1,.87-11.73,29,29,0,0,1-9.4,1.58,31.66,31.66,0,0,1-20.64-8.18l-2.86-2.8,10.17-10.37-14.39-4.25,3.11-4.54c.35-.5,8.58-12.23,24.12-12.23.52,0,1,0,1.56,0-11.9-20.17-3.12-32.47-2.69-33l2.5-3.37L437.9-13.36l4.22-15.88,4.44,2.34c.52.28,9.59,5.28,12.3,20.31,8.13-13,17-15.29,17.49-15.41L481-23.1l.5,10.09,10.17-5.44,1.17,5.1c1.41,6.16,1.06,18.22-7.1,28.47,13.16,1.74,19.84,13.81,21.6,20.42l1.16,4.38-16.7,2.27,5.32,11.67L492.51,55a22.87,22.87,0,0,1-5.22.52,38.14,38.14,0,0,1-16.59-4.07c4,14.13-2.55,23.71-7.82,27.4l-2.84,2-9.45-10.08-6,10.83Z"/><path class="a" d="M444.69-23.36s14.68,7.75,10,36.32c8.2-27.7,22.55-31.07,22.55-31.07l.59,11.6L489-12.45S493.65,8,473.82,20.4a28.21,28.21,0,0,1,8.69-1.49c16.29,0,21,17.65,21,17.65L486,39l5.57,12.21a19.2,19.2,0,0,1-4.23.39c-5.52,0-15.82-1.7-26.94-12.18,16.95,24.56.24,36.22.24,36.22L449.74,64,443.3,75.75s-15.49-11,0-32.71c-7,5.91-13.51,7.85-19.1,7.85a27.61,27.61,0,0,1-17.84-7l12-12.26L402.89,27s7.21-10.5,20.82-10.5a30.72,30.72,0,0,1,10.6,2c-18.61-23-8.52-36.61-8.52-36.61L440.17-6.33l4.52-17m-5.14-11.77L437-25.41l-1.33,5-4.77-3.9-6.49-5.31-5,6.73c-.67.9-4,5.83-4.29,14.19a39.68,39.68,0,0,0,3.76,17.55A35.07,35.07,0,0,0,396.3,22.49l-6.23,9.08,10.56,3.12,2.72.8-2.7,2.76L395,44l5.72,5.61a35.34,35.34,0,0,0,23.44,9.32,32.77,32.77,0,0,0,4.32-.29,28.05,28.05,0,0,0,.27,7.1,26.43,26.43,0,0,0,9.86,16.57L446,87.49l4.34-7.88,1.13-2.06,3.31,3.53,4.74,5,5.68-4a27.24,27.24,0,0,0,9.22-12.86,29.06,29.06,0,0,0,1.49-11.5,40,40,0,0,0,11.41,1.75,26.41,26.41,0,0,0,6.21-.64l9.27-2.37-4-8.7-1.1-2.42,6.87-.94,9-1.22-2.33-8.76C509.5,28,503.58,16.93,492.3,12.66A38.73,38.73,0,0,0,496.68.86a38.82,38.82,0,0,0,.08-15.1l-2.34-10.2-9.22,4.93-.43-8.58-9.33,2.19c-1.16.28-7.83,2.14-15,10.35a37.28,37.28,0,0,0-2-4.27c-4-7.21-9-10.11-10-10.61l-8.88-4.7Z"/><path class="c" d="M452.57,35.52A9,9,0,0,1,444.41,31c-2.45-4.5-.22-10.47,5-13.3a12,12,0,0,1,5.73-1.5,9,9,0,0,1,8.15,4.53c2.46,4.51.22,10.48-5,13.31A12,12,0,0,1,452.57,35.52Z"/><path class="a" d="M455.12,20.19a5.1,5.1,0,0,1,4.64,2.44c1.4,2.58-.11,6.11-3.38,7.89a8,8,0,0,1-3.81,1,5.1,5.1,0,0,1-4.65-2.44c-1.4-2.57.11-6.1,3.38-7.88a8.06,8.06,0,0,1,3.82-1m0-8h0a16.11,16.11,0,0,0-7.64,2c-7.14,3.89-10.09,12.29-6.58,18.74a13,13,0,0,0,11.67,6.61,16,16,0,0,0,7.64-2,15.67,15.67,0,0,0,7-7.51,12.79,12.79,0,0,0-.38-11.22,13,13,0,0,0-11.67-6.62Z"/><path class="c" d="M451.3,21.2c-4-4.12-7-15.63-7-15.63"/><path class="a" d="M448.44,24a17,17,0,0,1-2.22-4.9,36.17,36.17,0,0,1-1-4.58,72.23,72.23,0,0,1-.91-8.94A70.07,70.07,0,0,0,448.88,13a30.61,30.61,0,0,0,2.61,3.23,9.42,9.42,0,0,0,2.68,2.19Z"/><path class="c" d="M458.31,21.07C461.51,14.19,470,7.91,470,7.91"/><path class="a" d="M454.68,19.39A29.89,29.89,0,0,1,462,12.51a53.88,53.88,0,0,1,8-4.6,52,52,0,0,0-5.1,7.32A34.34,34.34,0,0,0,463,19a18.81,18.81,0,0,0-1.09,3.72Z"/><path class="c" d="M460.21,25.58c9.34,0,13.67,4.62,13.67,4.62"/><path class="a" d="M460.23,21.58c.7.19,1.39.37,2.07.58s1.36.44,2,.72a25.94,25.94,0,0,1,3.77,1.87,21.62,21.62,0,0,1,3.27,2.45,14.05,14.05,0,0,1,2.53,3A13.07,13.07,0,0,0,470.4,29a19.38,19.38,0,0,0-3.52-.4,20.45,20.45,0,0,0-3.43.26c-.55.07-1.11.22-1.65.32s-1.08.29-1.61.44Z"/><path class="c" d="M451.46,31.43c-2.17,5.92-.27,15.48-.27,15.48"/><path class="a" d="M455.22,32.81a11.78,11.78,0,0,0-1.63,2.78,25.62,25.62,0,0,0-1.16,3.53,45.55,45.55,0,0,0-1.24,7.79,47.07,47.07,0,0,1-2.76-7.75,31.35,31.35,0,0,1-.8-4.27,19.29,19.29,0,0,1,.08-4.84Z"/><path class="c" d="M447.42,27.29c-8.75-2-17.62,2.45-17.62,2.45"/><path class="a" d="M446.54,31.19a17.86,17.86,0,0,0-3.64-1.39,22.3,22.3,0,0,0-4.16-.68,31.3,31.3,0,0,0-8.94.62,33.3,33.3,0,0,1,8.32-4.57A27.85,27.85,0,0,1,443,23.8a25.1,25.1,0,0,1,5.33-.41Z"/><path class="b" d="M380.32,119.66,371.21,128l-2.63-3.64a22.59,22.59,0,0,1-3.34-15.88,25.9,25.9,0,0,1,4.58-10.84h-.1c-18,0-25.92-15.21-26.25-15.86l-1.81-3.57,12.95-6.56L342.33,63l4.41-3.31a31.13,31.13,0,0,1,17.38-5.43A29.34,29.34,0,0,1,375,56.37c-4.82-22.9,7.44-31.74,8-32.15l3.44-2.39,8.79,14,9.08-13.7,3.46,3.65c.41.42,7.38,8,5.16,23.12,9.87-8.14,17.8-9,20.64-9,.56,0,.86,0,.86,0l4.67.54-1.2,4.53-1.45,5.11,11.37-1.9-.52,5.21c-.63,6.28-4.82,17.58-15.83,24.69a22.8,22.8,0,0,1,6.79,5c7.87,8.51,7.17,20.69,7.13,21.21l-.29,4.52-16.55-3.19,1.3,12.76-4.76-.36c-.53,0-10-.89-19.53-10.32-.76,14.65-10,21.63-16.18,23.43l-3.32,1Z"/><path class="a" d="M385.27,27.5l9.85,15.75,9.74-14.68s11.42,12-2.14,37.62C417.59,45.07,430.9,44,433.55,44a4.68,4.68,0,0,1,.49,0l-3.16,11.17,12.43-2.07s-2.1,20.86-24.86,26.28c24.55.31,22.94,24.81,22.94,24.81L424,100.81l1.37,13.35S410.28,113,399.61,93c8.21,28.69-11.36,34.4-11.36,34.4L381.68,113l-9.86,9s-11.14-15.41,10.47-31a33.84,33.84,0,0,1-12.57,2.62C354,93.65,347,80,347,80l15.33-7.77-13.22-9.29a27.07,27.07,0,0,1,15-4.63c5.17,0,11.23,1.59,17.51,6.63-10.27-27.77,3.64-37.42,3.64-37.42m18.48-11.73-5.56,8.38-2.87,4.33-3.27-5.22-4.45-7.11-6.89,4.78c-.92.64-5.69,4.24-8.61,12.07a39.78,39.78,0,0,0-2.05,17.82,33.36,33.36,0,0,0-5.93-.53,34.85,34.85,0,0,0-19.78,6.23l-8.81,6.61,9,6.34,2.32,1.63-3.44,1.75-7.14,3.62,3.62,7.13c.33.66,7.5,14.39,23.41,17.45a28.08,28.08,0,0,0-2,6.8,26.45,26.45,0,0,0,4,18.86L370.6,134l6.63-6.08,1.74-1.59,2,4.4,2.87,6.3,6.65-1.93a27.11,27.11,0,0,0,12.86-9.24,29.08,29.08,0,0,0,5.08-10.4,41.07,41.07,0,0,0,4.24,2.65,31.83,31.83,0,0,0,12.11,4l9.53.71-1-9.51-.27-2.64,6.81,1.31,8.9,1.71.59-9c.1-1.46.69-14.59-8.18-24.19a27.63,27.63,0,0,0-2.74-2.57,39.8,39.8,0,0,0,12.82-24.05l1.05-10.42L442,45.17l2.33-8.25L434.8,36c-.25,0-.67,0-1.25,0-2.5,0-8.53.56-16.24,5.07a36.35,36.35,0,0,0-.57-4.7c-1.52-8.12-5.33-12.47-6.08-13.26l-6.91-7.29Z"/><path class="b" d="M397.23,87.48c-5.14,0-9.26-3.09-10-7.51a8.81,8.81,0,0,1,2.26-7.39A11.7,11.7,0,0,1,396.18,69a12,12,0,0,1,2.15-.19c5.13,0,9.26,3.09,10,7.51a8.81,8.81,0,0,1-2.26,7.39,11.73,11.73,0,0,1-6.72,3.62A12,12,0,0,1,397.23,87.48Z"/><path class="a" d="M398.33,72.77c3.06,0,5.65,1.7,6.09,4.19.5,2.89-2.06,5.75-5.73,6.39a8.19,8.19,0,0,1-1.47.13c-3.06,0-5.64-1.7-6.08-4.19-.51-2.89,2.06-5.75,5.72-6.39a8.27,8.27,0,0,1,1.47-.13m0-8h0a16,16,0,0,0-2.84.25,15.73,15.73,0,0,0-9,4.89,12.78,12.78,0,0,0-3.22,10.75c1.09,6.27,7,10.82,14,10.82a16.06,16.06,0,0,0,2.85-.25,15.76,15.76,0,0,0,9-4.89,12.81,12.81,0,0,0,3.22-10.75c-1.1-6.27-7-10.82-14-10.82Z"/><path class="b" d="M396.87,72.9c-2.49-5.19-1.67-17.05-1.67-17.05"/><path class="a" d="M393.26,74.63a17.07,17.07,0,0,1-.54-5.35,38.59,38.59,0,0,1,.48-4.68,70.91,70.91,0,0,1,2-8.75,67,67,0,0,0,2,8.5,29.93,29.93,0,0,0,1.44,3.9,9.47,9.47,0,0,0,1.83,2.92Z"/><path class="b" d="M403.54,75c5.23-5.5,15.28-8.73,15.28-8.73"/><path class="a" d="M400.64,72.26a30.24,30.24,0,0,1,9.1-4.19,54.34,54.34,0,0,1,9.08-1.78,51.93,51.93,0,0,0-7.17,5.3,35.57,35.57,0,0,0-3,3,18.59,18.59,0,0,0-2.21,3.17Z"/><path class="b" d="M403.9,79.9c8.84,3,11.47,8.75,11.47,8.75"/><path class="a" d="M405.2,76.11c.6.41,1.2.8,1.78,1.22s1.14.85,1.67,1.33a24.5,24.5,0,0,1,3,3A21.5,21.5,0,0,1,413.94,85a14.27,14.27,0,0,1,1.43,3.65,13.42,13.42,0,0,0-2.9-2.29,17.94,17.94,0,0,0-3.21-1.5,20.75,20.75,0,0,0-3.32-.85c-.55-.12-1.13-.15-1.67-.23s-1.12-.07-1.66-.1Z"/><path class="b" d="M393.74,82.65c-3.95,4.91-5.21,14.58-5.21,14.58"/><path class="a" d="M396.86,85.16a11.21,11.21,0,0,0-2.43,2.11,24.74,24.74,0,0,0-2.23,3,44.93,44.93,0,0,0-3.67,7,47.93,47.93,0,0,1-.14-8.23,31.74,31.74,0,0,1,.62-4.31,19.2,19.2,0,0,1,1.62-4.55Z"/><path class="b" d="M391.23,77.43c-7.66-4.66-17.47-3.31-17.47-3.31"/><path class="a" d="M389.16,80.85a17.73,17.73,0,0,0-3-2.49,22.66,22.66,0,0,0-3.72-2,31.52,31.52,0,0,0-8.67-2.26,33.27,33.27,0,0,1,9.34-1.68,27.64,27.64,0,0,1,5,.26A24.92,24.92,0,0,1,393.31,74Z"/><path class="d" d="M322.38,256.74c-.92-.09-22.87-2.33-35.81-13.67a30.29,30.29,0,0,1-10.45-22.35c0-6,2.12-11.16,6-14.52A20.16,20.16,0,0,1,295.47,201c6.53,0,13.11,3.11,19,9,12.11,12,12.25,41.49,12.25,42.74v4.41Z"/><path class="a" d="M295.47,205c5.27,0,10.93,2.57,16.24,7.83,11.06,10.95,11.06,39.9,11.06,39.9s-21.44-2.07-33.56-12.7c-10.26-9-11.95-24.33-4.5-30.84A16.11,16.11,0,0,1,295.47,205m0-8a24.09,24.09,0,0,0-16,6.16c-4.72,4.13-7.33,10.35-7.33,17.52a34.33,34.33,0,0,0,11.81,25.36C297.84,258.26,321,260.63,322,260.73l8.77.84v-8.81c0-3.3-.38-32.66-13.44-45.58-6.7-6.64-14.26-10.15-21.86-10.15Z"/><path class="d" d="M295,215.4c9.74,7,13,15,13,15"/><path class="a" d="M295.18,215.08a8.22,8.22,0,0,1,6.34.51,5.3,5.3,0,0,1,1.12.8,5.74,5.74,0,0,1,.83,1.11c.47.82.81,1.73,1.3,2.5s.91,1.58,1.3,2.41.72,1.68,1,2.53a21.51,21.51,0,0,1,1.21,5.32.43.43,0,0,1-.39.45.44.44,0,0,1-.33-.12l0,0c-1.23-1.2-2.48-2.34-3.77-3.37-.63-.53-1.27-1-1.93-1.51s-1.27-1-1.9-1.45a13.63,13.63,0,0,0-2.13-1.15,4.12,4.12,0,0,1-1.68-1.55,10.19,10.19,0,0,1-1-2.4,12.12,12.12,0,0,1-.45-3.4v0A.66.66,0,0,1,295.18,215.08Z"/><path class="d" d="M9.23,127.68c0-1.25.13-30.75,12.24-42.74,5.94-5.88,12.53-9,19.05-9a20.16,20.16,0,0,1,13.39,5.17c3.84,3.36,6,8.51,6,14.51A30.3,30.3,0,0,1,49.42,118c-12.94,11.34-34.88,13.58-35.81,13.67l-4.38.43Z"/><path class="a" d="M40.52,80a16.13,16.13,0,0,1,10.76,4.18C58.73,90.65,57.05,106,46.79,115c-12.13,10.63-33.56,12.7-33.56,12.7s0-28.95,11.06-39.9C29.6,82.52,35.26,80,40.52,80m0-8h0c-7.6,0-15.16,3.51-21.86,10.15C5.6,95,5.22,124.38,5.23,127.68v8.81l8.77-.85c1-.09,24.16-2.46,38.06-14.65A34.31,34.31,0,0,0,63.88,95.63c0-7.17-2.61-13.39-7.34-17.52a24.09,24.09,0,0,0-16-6.16Z"/><path class="d" d="M41.05,90.32c-9.74,7-13,15-13,15"/><path class="a" d="M41.28,90.65a11.76,11.76,0,0,1-.45,3.4,9.41,9.41,0,0,1-1,2.4A4.06,4.06,0,0,1,38.15,98,13.63,13.63,0,0,0,36,99.15c-.63.48-1.27.95-1.9,1.45s-1.3,1-1.92,1.51c-1.29,1-2.54,2.17-3.77,3.37l0,0a.41.41,0,0,1-.59,0,.38.38,0,0,1-.12-.32,21.39,21.39,0,0,1,1.2-5.32c.31-.85.66-1.7,1-2.53s.83-1.62,1.29-2.41.83-1.69,1.31-2.5a5.32,5.32,0,0,1,.82-1.11,5,5,0,0,1,1.12-.8A8.22,8.22,0,0,1,40.81,90a.65.65,0,0,1,.47.62Z"/><path class="d" d="M447.27,190.48c-.86-.36-21.15-9-30.15-23.69a30.26,30.26,0,0,1-3.34-24.44c1.78-5.73,5.33-10,10-12.09a20.89,20.89,0,0,1,8.49-1.86c8.45,0,16.24,5.52,21.35,15.13,8,15-.61,43.26-1,44.45l-1.3,4.21Z"/><path class="a" d="M432.27,132.4c6.77,0,13.25,4.42,17.82,13,7.32,13.74-1.27,41.38-1.27,41.38S429,178.45,420.54,164.7c-7.13-11.63-4.19-26.78,4.86-30.79a16.9,16.9,0,0,1,6.87-1.51m0-8a24.81,24.81,0,0,0-10.11,2.2c-5.74,2.54-10.07,7.71-12.2,14.55a34.34,34.34,0,0,0,3.75,27.73c9.66,15.77,31.1,24.91,32,25.29l8.12,3.41,2.62-8.41c1-3.16,9.33-31.3.7-47.52-5.84-11-14.91-17.25-24.89-17.25Z"/><path class="d" d="M433.34,142.86c7.21,9.62,7.94,18.19,7.94,18.19"/><path class="a" d="M433.66,142.62a8.17,8.17,0,0,1,5.89,2.37,4.94,4.94,0,0,1,.84,1.1,5.57,5.57,0,0,1,.46,1.3c.21.92.26,1.9.5,2.77s.4,1.79.52,2.69.2,1.82.24,2.73a21.13,21.13,0,0,1-.43,5.43.42.42,0,0,1-.5.32.42.42,0,0,1-.27-.21l0,0c-.82-1.51-1.68-3-2.6-4.33-.44-.7-.91-1.37-1.39-2s-.93-1.31-1.39-1.95a13.14,13.14,0,0,0-1.69-1.73,4.06,4.06,0,0,1-1.15-2,10.38,10.38,0,0,1-.24-2.59,12,12,0,0,1,.59-3.38v0A.68.68,0,0,1,433.66,142.62Z"/><path class="d" d="M524.31,123.22c-.92-.1-22.84-2.55-35.68-14a30.3,30.3,0,0,1-10.24-22.45c.06-6,2.23-11.14,6.11-14.46a20.17,20.17,0,0,1,13.24-5c6.59,0,13.21,3.17,19.16,9.17,12,12.1,11.85,41.61,11.84,42.86l0,4.4Z"/><path class="a" d="M497.74,71.25c5.31,0,11,2.62,16.32,8,11,11.06,10.68,40,10.68,40s-21.42-2.28-33.44-13c-10.18-9.09-11.72-24.44-4.2-30.88a16.12,16.12,0,0,1,10.64-4.08m0-8a24.15,24.15,0,0,0-15.85,6c-4.76,4.08-7.42,10.28-7.5,17.45A34.35,34.35,0,0,0,486,112.18c13.78,12.32,36.94,14.91,37.92,15l8.76.94.09-8.81c0-3.31-.07-32.67-13-45.72-6.71-6.77-14.32-10.35-22-10.35Z"/><path class="d" d="M497.27,81.62c9.68,7.13,12.85,15.13,12.85,15.13"/><path class="a" d="M497.51,81.29a8.2,8.2,0,0,1,6.33.58,5,5,0,0,1,1.12.81,5.09,5.09,0,0,1,.81,1.12c.47.81.8,1.74,1.28,2.5s.9,1.6,1.28,2.43.71,1.68,1,2.54a21.49,21.49,0,0,1,1.15,5.33.42.42,0,0,1-.39.45.41.41,0,0,1-.32-.13l0,0A49.26,49.26,0,0,0,506,93.49c-.62-.54-1.26-1-1.91-1.53s-1.26-1-1.89-1.47a13.18,13.18,0,0,0-2.12-1.17,4,4,0,0,1-1.66-1.57,9.7,9.7,0,0,1-1-2.41,11.91,11.91,0,0,1-.41-3.4v0A.66.66,0,0,1,497.51,81.29Z"/><path class="c" d="M329.87,132.62c-.64-.35-12.64-7.27-18.56-26.15-8.89,20.1-24.89,22-30.43,22a21.39,21.39,0,0,1-2.75-.16l-3.42-.52.11-19.4-16.26,5.19-.86-4.42a29,29,0,0,1,4.71-20.32,34.66,34.66,0,0,1,13.94-11.66,39,39,0,0,1-25.26-34.31l-.15-4,20.56-.74L261.14,20.18,266.52,19a33.17,33.17,0,0,1,6.5-.56,38.93,38.93,0,0,1,30.55,14.11C309.88.16,330.18-3.77,331.13-3.94l4.13-.72,2.9,22.92L357.44,6.4l1.6,4.76c.26.76,4.82,15.11-8.9,33.32a62.83,62.83,0,0,1,19-3.17c9.59,0,14.68,2.82,15.23,3.14l4.14,2.42-9.24,10.77,15.4,4.23L392,66.38c-.48.81-11.57,19.12-35.05,21a29.88,29.88,0,0,1,6.94,11.54c4.63,14.35-2.87,28.38-3.2,29l-2.16,4-18.75-13.48L334.05,135Z"/><path class="a" d="M331.82,0,335,24.92l20.28-12.48s7.19,21.26-24,45c16.67-9.63,29.3-12.08,37.83-12.08,8.79,0,13.21,2.59,13.21,2.59L372.09,59.83l16.44,4.51S377.2,83.51,353.06,83.51a49.94,49.94,0,0,1-10-1C373,96.81,357.15,126,357.15,126l-19.43-14-5.9,17.16s-17.89-10-19.62-40.58c-5.15,33.05-24.76,35.88-31.32,35.88a15.85,15.85,0,0,1-2.15-.12l.12-21.44-17.22,5.49s-4.92-25.25,30.45-32.08c-35.84-2-37-33.6-37-33.6l23.22-.83L267.36,22.94a30,30,0,0,1,5.66-.47c8.31,0,23.83,2.73,33.07,21.38C309.27,3.94,331.82,0,331.82,0m6.88-9.32-8.26,1.44c-1,.17-20.75,4-29.07,32.56A42,42,0,0,0,292.76,19,44.83,44.83,0,0,0,273,14.47a36.82,36.82,0,0,0-7.33.65l-10.77,2.3L260.43,27l4.28,7.38-9.91.36-8,.29.29,8a45.5,45.5,0,0,0,6.15,19.79,41.34,41.34,0,0,0,14.64,14.78,36.15,36.15,0,0,0-8.79,9,32.71,32.71,0,0,0-5.32,23.32l1.72,8.82,8.56-2.73,6.74-2.14-.06,10.42-.05,6.93,6.85,1a23.39,23.39,0,0,0,3.35.21,35,35,0,0,0,21-7.17,39.68,39.68,0,0,0,8.81-9.42c6.85,14.33,16.6,19.94,17.2,20.28l8.35,4.65,3.11-9,2.41-7,10.69,7.69,7.36,5.3,4.34-8c.35-.65,8.64-16.15,3.48-32.12a33.57,33.57,0,0,0-3.4-7.37,51.11,51.11,0,0,0,31.15-21.88l5.33-9-10.09-2.77-4.27-1.18,2-2.34,6.24-7.28L386.35,41c-1.05-.62-6.83-3.69-17.25-3.69a60,60,0,0,0-10.35.93c8.1-15.8,4.33-27.63,4.08-28.36L359.62.36l-8.56,5.26-9.71,6L339.75-1,338.7-9.32Z"/><path class="a" d="M317.34,61.91a11.07,11.07,0,0,1,2.92.39c4.87,1.29,8,5.45,7,9.28-.81,3-4,5-7.73,5a11,11,0,0,1-2.92-.39c-4.87-1.29-8-5.45-7-9.28.81-3,4-5,7.73-5m0-8h0c-7.51,0-13.72,4.38-15.46,10.91-2.16,8.09,3.51,16.64,12.63,19.07a19.19,19.19,0,0,0,5,.66c7.51,0,13.72-4.38,15.46-10.91,2.16-8.09-3.51-16.64-12.63-19.07a19.19,19.19,0,0,0-5-.66Z"/><path class="a" d="M316.26,62.35a23.46,23.46,0,0,1,2-6.58,50.66,50.66,0,0,1,2.88-5.48,98.22,98.22,0,0,1,6.77-9.87,95.14,95.14,0,0,0-3,11.31,44.84,44.84,0,0,0-.81,5.59,16,16,0,0,0,.2,4.93Z"/><path class="a" d="M325.78,65a41,41,0,0,1,13.07-.58A74.19,74.19,0,0,1,351,66.65a73.37,73.37,0,0,0-11.86,1.73,51.61,51.61,0,0,0-5.53,1.67,28.75,28.75,0,0,0-4.85,2.36Z"/><path class="a" d="M327.69,72c.53.78,1.06,1.54,1.56,2.32s1,1.57,1.38,2.4a34.22,34.22,0,0,1,2.17,5A28.25,28.25,0,0,1,334,87a18.81,18.81,0,0,1,0,5.19,17.93,17.93,0,0,0-1.93-4.56,25.08,25.08,0,0,0-2.8-3.9,28.75,28.75,0,0,0-3.38-3.25c-.58-.51-1.24-.94-1.84-1.4s-1.29-.85-1.92-1.26Z"/><path class="a" d="M312.67,76.07a18.16,18.16,0,0,0-4.24,1.67,37.87,37.87,0,0,0-4.26,2.7,62,62,0,0,0-7.95,7,65.12,65.12,0,0,1,5-9.7,43.2,43.2,0,0,1,3.37-4.6,25.91,25.91,0,0,1,4.52-4.22Z"/><path class="a" d="M307.46,66.89a27,27,0,0,0-2.71-4.74A33.44,33.44,0,0,0,301,57.79a42.73,42.73,0,0,0-4.57-3.86,41.2,41.2,0,0,0-5.19-3.26,41.72,41.72,0,0,1,6.08,1.47,45.43,45.43,0,0,1,5.95,2.36,38.18,38.18,0,0,1,5.68,3.34,33.22,33.22,0,0,1,5.18,4.59Z"/><path class="b" d="M252.42,200.11c-.43-.3-8.09-5.86-11.47-18.85-7.25,10.82-16.79,12.28-21.39,12.28a19.12,19.12,0,0,1-4.52-.48l-3.35-.87,1.53-13.73-12.1,2.5-.39-4.48A22.6,22.6,0,0,1,206,161.14a25.82,25.82,0,0,1,9.51-7A29.9,29.9,0,0,1,201,127.06l.28-4,14.48,1-6.11-13.7,5.48-.58c.12,0,.8-.08,1.88-.08,4.05,0,15.86,1,24.07,11.67,7.6-22.13,22.66-23.43,23.38-23.48l4.18-.29.34,16.56,14.82-7.1,1.1,4.9c.13.57,2.22,10.7-7.43,22.52a48.73,48.73,0,0,1,7.39-.58c10.07,0,15.12,3.49,15.66,3.89l3.87,2.84L297,147.56l10.73,4.21-3.12,4.2a35.65,35.65,0,0,1-26.22,13.12,22.78,22.78,0,0,1,3.21,7.78c2.4,11.34-4.45,21.44-4.75,21.86l-2.57,3.73-12.57-11.22-5.42,11.62Z"/><path class="a" d="M264.72,101.88l.38,18.57L281,112.84S284.63,129,259.87,144c10.62-4.73,18.89-6.14,25-6.14,9,0,13.3,3.11,13.3,3.11l-8.45,8,11.74,4.59a31.72,31.72,0,0,1-24.15,11.53,35.39,35.39,0,0,1-10.66-1.71c20.91,12.86,7,33.06,7,33.06l-13.21-11.78-5.67,12.16s-12.38-8.72-11.28-31.36c-5.65,21.27-17.86,24.06-23.88,24.06a15.48,15.48,0,0,1-3.51-.35l1.76-15.76-13.1,2.7s-1.66-18.94,24.88-21.23c-26.2-4.25-24.61-27.57-24.61-27.57l17.14,1.18-6.58-14.75a14.41,14.41,0,0,1,1.46-.06c4.64,0,19.09,1.42,25.41,18.43,5.42-29.1,22.31-30.25,22.31-30.25m7.82-8.55-8.37.57c-1.12.07-7.05.72-13.58,5.95a39.67,39.67,0,0,0-10.88,14.21A35.23,35.23,0,0,0,217,105.7a19.84,19.84,0,0,0-2.3.11l-11,1.15L208.23,117l1.16,2.59-3.85-.26-8-.55-.55,8a36.06,36.06,0,0,0,3.17,16,32.82,32.82,0,0,0,8,10.94,28.08,28.08,0,0,0-5.21,4.81,26.43,26.43,0,0,0-6.2,18.26l.79,9,8.8-1.82,2.31-.48-.54,4.81-.76,6.88,6.7,1.75a23.09,23.09,0,0,0,5.52.61,28.51,28.51,0,0,0,20-8.25,41.18,41.18,0,0,0,2.26,4.43,31.86,31.86,0,0,0,8.34,9.66l7.82,5.51,4-8.67,1.13-2.41,5.17,4.62,6.77,6,5.15-7.46c.83-1.21,8.06-12.18,5.37-25a27,27,0,0,0-1-3.61,40.28,40.28,0,0,0,23.35-14.08l6.23-8.4-9.73-3.81,6.24-5.9-7.73-5.67c-1.05-.77-6.76-4.57-17.58-4.67a37.47,37.47,0,0,0,1.92-4.32c2.86-7.75,1.81-13.43,1.58-14.5l-2.21-9.8-9.06,4.34-4.69,2.25-.13-6.16-.17-8.38Z"/><path class="b" d="M250.54,161.26a12,12,0,0,1-4.36-.82c-5.53-2.11-8.54-7.73-6.71-12.52a9.34,9.34,0,0,1,9-5.68,12.26,12.26,0,0,1,4.37.82c5.53,2.12,8.54,7.74,6.7,12.53C258.22,159,254.69,161.26,250.54,161.26Z"/><path class="a" d="M248.46,146.24a8.22,8.22,0,0,1,2.94.56c3.47,1.33,5.44,4.62,4.4,7.36-.75,2-2.85,3.1-5.26,3.1a8.33,8.33,0,0,1-2.93-.55c-3.48-1.33-5.45-4.63-4.4-7.37.75-2,2.84-3.1,5.25-3.1m0-8h0c-5.81,0-10.81,3.24-12.72,8.25-2.63,6.85,1.42,14.79,9,17.69a16.14,16.14,0,0,0,5.79,1.08c5.82,0,10.81-3.23,12.73-8.24,2.62-6.85-1.42-14.79-9-17.7a16.37,16.37,0,0,0-5.8-1.08Z"/><path class="b" d="M251.4,146.8c.53-5.73,7.31-15.5,7.31-15.5"/><path class="a" d="M247.42,146.43a17,17,0,0,1,2.28-4.87,38.07,38.07,0,0,1,2.81-3.77,73.5,73.5,0,0,1,6.2-6.49,69,69,0,0,0-2.64,8.32,33.25,33.25,0,0,0-.77,4.09,9.64,9.64,0,0,0,.08,3.45Z"/><path class="b" d="M256,152c7.31-2,17.59.34,17.59.34"/><path class="a" d="M255,148.19a30.06,30.06,0,0,1,10,1.07,53.73,53.73,0,0,1,8.7,3.12,51.68,51.68,0,0,0-8.87.87,35,35,0,0,0-4.12,1.06,17.93,17.93,0,0,0-3.53,1.59Z"/><path class="b" d="M253.85,156.41c6,7.13,5.36,13.4,5.36,13.4"/><path class="a" d="M256.9,153.83c.32.66.63,1.3.91,1.95s.55,1.32.76,2a25.9,25.9,0,0,1,1,4.08,21.68,21.68,0,0,1,.26,4.08,14.12,14.12,0,0,1-.64,3.87,13,13,0,0,0-1.32-3.45,18.9,18.9,0,0,0-2-2.94,20.58,20.58,0,0,0-2.42-2.43c-.41-.38-.89-.71-1.31-1.05s-.93-.64-1.38-.94Z"/><path class="b" d="M243.72,153.57c-5.92,2.18-11.95,9.84-11.95,9.84"/><path class="a" d="M245.11,157.32a11.47,11.47,0,0,0-3.17.56,27.41,27.41,0,0,0-3.44,1.41,44.68,44.68,0,0,0-6.73,4.12,47,47,0,0,1,4.1-7.13,31.33,31.33,0,0,1,2.73-3.38,19.47,19.47,0,0,1,3.73-3.09Z"/><path class="b" d="M244.24,147.8c-4.19-7.93-13.3-11.8-13.3-11.8"/><path class="a" d="M240.7,149.67a17.82,17.82,0,0,0-1.3-3.68,22.87,22.87,0,0,0-2.18-3.6,31.37,31.37,0,0,0-6.28-6.39,33.36,33.36,0,0,1,8.88,3.35,28.42,28.42,0,0,1,4.18,2.79,25.09,25.09,0,0,1,3.78,3.79Z"/><path class="b" d="M178.91,57.25c-.49-.2-9.21-3.84-15.48-15.69C157,58.73,141.85,59,141.06,59l-3.61-.08-1.67-13.71-11.2,5.21-1.41-4.26A22.55,22.55,0,0,1,124.78,30a25.68,25.68,0,0,1,7.66-9A30.06,30.06,0,0,1,112.08-2L111.42-6l14.34-2.35-9.1-11.93,5.19-1.83a29.54,29.54,0,0,1,9-1.32,29.41,29.41,0,0,1,18.91,6.64c2.31-23.29,16.66-28,17.35-28.23l4-1.23,4.14,16,12.79-10.31,2.2,4.52c.25.52,4.61,9.9-2.07,23.62a41.41,41.41,0,0,1,15.47-3.3,20.48,20.48,0,0,1,7.73,1.23l4.41,1.87-5.55,8.44,11.42,1.62-2.07,4.81A35.56,35.56,0,0,1,197.12,21.1,22.71,22.71,0,0,1,202,27.91c4.94,10.49.59,21.9.4,22.38l-1.65,4.22-14.81-8L183.35,59Z"/><path class="a" d="M168.31-41.18l4.64,18,13.72-11.06S193.93-19.33,173.28,1c13.85-10.55,24.29-12.64,30.39-12.64a17.16,17.16,0,0,1,6.17.91l-6.39,9.7L215.93.7a31.58,31.58,0,0,1-28.74,17.66c-.93,0-1.9,0-2.89-.1,23.31,7.71,14.39,30.57,14.39,30.57l-15.57-8.44L180.4,53.53s-14.05-5.64-18.19-27.92c-.8,28.92-20,29.36-21.15,29.36H141l-1.91-15.74L127,44.87s-6-18.06,19.33-26.38c-1,.07-2.05.11-3,.11C119.53,18.6,116-2.69,116-2.69l17-2.78-9.79-12.85a25.49,25.49,0,0,1,7.69-1.1c6.41,0,15.61,2.19,22.68,12.81-1.41-29.58,14.76-34.57,14.76-34.57M174-51.3l-8,2.47c-1.08.34-6.7,2.33-11.85,8.91a39.64,39.64,0,0,0-7.34,16.4,33.6,33.6,0,0,0-15.89-3.9,33,33,0,0,0-10.34,1.55l-10.39,3.64,6.68,8.76,1.72,2.26-3.81.62-7.9,1.3,1.3,7.9a35.88,35.88,0,0,0,6.13,14,32.93,32.93,0,0,0,10.91,9.67,28.28,28.28,0,0,0-4,5.87,26.44,26.44,0,0,0-1.84,19.2l2.82,8.54,8.15-3.8,2.14-1,.58,4.81.83,6.81,6.93.22h.24a27.41,27.41,0,0,0,15.47-5.4,29.29,29.29,0,0,0,7.32-7.92,39.62,39.62,0,0,0,3.24,3.82A31.78,31.78,0,0,0,177.42,61l8.87,3.56,1.94-9.36.54-2.6,6.1,3.3,8,4.32,3.3-8.44c.53-1.37,5.05-13.7-.51-25.53A26.7,26.7,0,0,0,203.81,23,40.19,40.19,0,0,0,223.28,3.87l4.14-9.61L217.07-7.21l4.72-7.17L213-18.14a24.68,24.68,0,0,0-9.3-1.54,40.76,40.76,0,0,0-8.89,1,37.32,37.32,0,0,0,.88-4.65c1-8.19-1.32-13.49-1.8-14.46l-4.39-9-7.82,6.31-4.05,3.26-1.54-6L174-51.3Z"/><path class="b" d="M165.4,20.19a11.87,11.87,0,0,1-1.68-.12c-5.87-.78-10.09-5.56-9.4-10.65.61-4.58,4.91-7.9,10.21-7.9a11.81,11.81,0,0,1,1.67.11c5.87.79,10.09,5.57,9.41,10.65C175,16.86,170.7,20.19,165.4,20.19Z"/><path class="a" d="M164.53,5.52a8.94,8.94,0,0,1,1.14.07c3.69.5,6.36,3.26,6,6.16-.35,2.6-3,4.44-6.24,4.44a9,9,0,0,1-1.15-.08c-3.68-.5-6.36-3.25-6-6.16.35-2.6,3-4.43,6.25-4.43m0-8h0c-7.33,0-13.29,4.78-14.18,11.37-1,7.27,4.78,14.07,12.84,15.15a16.3,16.3,0,0,0,2.21.15c7.32,0,13.28-4.79,14.17-11.37A12.79,12.79,0,0,0,175.93,2.2a15.76,15.76,0,0,0-9.2-4.54,18.05,18.05,0,0,0-2.2-.14Z"/><path class="b" d="M165.67,5.59c-.8-5.69,3.56-16.76,3.56-16.76"/><path class="a" d="M161.71,6.15a17,17,0,0,1,1.1-5.26,37.55,37.55,0,0,1,1.87-4.31,71.26,71.26,0,0,1,4.55-7.75,69.89,69.89,0,0,0-.67,8.71,33,33,0,0,0,.2,4.15A9.52,9.52,0,0,0,169.63,5Z"/><path class="b" d="M171.39,9.63C178,6,188.59,5.92,188.59,5.92"/><path class="a" d="M169.46,6.13a30.15,30.15,0,0,1,9.94-1.25,54.31,54.31,0,0,1,9.19,1,51.35,51.35,0,0,0-8.43,2.89,35.17,35.17,0,0,0-3.77,2,18.66,18.66,0,0,0-3.07,2.36Z"/><path class="b" d="M170.26,14.39c7.52,5.55,8.3,11.81,8.3,11.81"/><path class="a" d="M172.64,11.17c.46.57.91,1.12,1.33,1.7s.84,1.15,1.2,1.77a25.88,25.88,0,0,1,1.93,3.73,21.92,21.92,0,0,1,1.19,3.91,14.11,14.11,0,0,1,.27,3.92,13.1,13.1,0,0,0-2.08-3.06,18.32,18.32,0,0,0-2.6-2.4A20.73,20.73,0,0,0,171,18.92c-.49-.27-1-.48-1.53-.72s-1.05-.4-1.55-.6Z"/><path class="b" d="M159.75,14c-5.25,3.48-9.37,12.32-9.37,12.32"/><path class="a" d="M162,17.28a11.33,11.33,0,0,0-3,1.28,26.36,26.36,0,0,0-3,2.15,45.9,45.9,0,0,0-5.6,5.56,47.51,47.51,0,0,1,2.35-7.88,31.2,31.2,0,0,1,1.89-3.92,19.55,19.55,0,0,1,2.91-3.86Z"/><path class="b" d="M158.93,8.21C153,1.46,143.27-.22,143.27-.22"/><path class="a" d="M155.92,10.84a18.12,18.12,0,0,0-2.11-3.27,23.32,23.32,0,0,0-3-3,31.34,31.34,0,0,0-7.58-4.78A33.77,33.77,0,0,1,152.69,1a29.31,29.31,0,0,1,4.71,1.76,25.42,25.42,0,0,1,4.54,2.82Z"/><path class="c" d="M76.6,87.36a22.6,22.6,0,0,1-8.24-14,25.73,25.73,0,0,1,.87-11.73,29.09,29.09,0,0,1-9.41,1.58,31.64,31.64,0,0,1-20.64-8.18l-2.85-2.8L46.5,41.89,32.11,37.64l3.11-4.54c.34-.5,8.57-12.23,24.11-12.23.52,0,1,0,1.57,0C49,.75,57.78-11.55,58.21-12.13l2.5-3.37L73.52-5l4.23-15.88,4.44,2.35c.52.27,9.59,5.27,12.3,20.3,8.13-13,17-15.29,17.48-15.41l4.67-1.1.51,10.09,10.17-5.44L128.49-5c1.41,6.16,1,18.22-7.11,28.48,13.16,1.73,19.84,13.8,21.6,20.41l1.17,4.38-16.7,2.27,5.32,11.67-4.63,1.18a22,22,0,0,1-5.22.53,38.25,38.25,0,0,1-16.59-4.07c4,14.12-2.55,23.7-7.83,27.39l-2.84,2L86.22,79.14,80.26,90Z"/><path class="a" d="M80.32-15S95-7.26,90.33,21.31c8.2-27.7,22.56-31.07,22.56-31.07l.58,11.6L124.59-4.1s4.69,20.44-15.15,32.85a28.17,28.17,0,0,1,8.69-1.48c16.29,0,21,17.65,21,17.65l-17.54,2.39,5.56,12.21a18.59,18.59,0,0,1-4.22.4c-5.53,0-15.82-1.71-26.95-12.19,17,24.56.24,36.23.24,36.23L85.37,72.39,78.92,84.1s-15.48-11,0-32.71c-7,5.91-13.52,7.85-19.11,7.85A27.64,27.64,0,0,1,42,52.2L54,39.94,38.52,35.37s7.2-10.5,20.81-10.5a30.73,30.73,0,0,1,10.61,2c-18.61-23-8.52-36.61-8.52-36.61L75.79,2l4.53-17M75.17-26.77l-2.58,9.71-1.34,5-4.76-3.9L60-21.25l-5,6.73c-.68.9-4,5.83-4.3,14.19a39.56,39.56,0,0,0,3.77,17.55A35.15,35.15,0,0,0,31.92,30.84l-6.23,9.08L36.25,43l2.73.8L36.27,46.6l-5.6,5.72,5.72,5.6a35.3,35.3,0,0,0,23.43,9.32A32.77,32.77,0,0,0,64.14,67a28.05,28.05,0,0,0,.27,7.1,26.42,26.42,0,0,0,9.87,16.57l7.32,5.22L85.93,88l1.14-2.06,3.31,3.53,4.73,5,5.68-4A27.09,27.09,0,0,0,110,77.66a29.23,29.23,0,0,0,1.48-11.5,39.78,39.78,0,0,0,11.42,1.76,26.25,26.25,0,0,0,6.21-.65l9.26-2.37-4-8.7-1.1-2.42,6.88-.94,9-1.22-2.33-8.76c-1.73-6.49-7.64-17.58-18.92-21.85a39,39,0,0,0,4.37-11.8,38.82,38.82,0,0,0,.08-15.1L130-16.09l-9.21,4.93-.43-8.57-9.34,2.18c-1.16.28-7.82,2.14-15,10.35a34.9,34.9,0,0,0-2-4.27c-4-7.21-9-10.1-10-10.61l-8.89-4.69Z"/><path class="c" d="M88.19,43.87A9,9,0,0,1,80,39.34c-2.46-4.5-.22-10.47,5-13.3a12,12,0,0,1,5.72-1.5,9,9,0,0,1,8.16,4.53c2.45,4.51.22,10.48-5,13.31A12,12,0,0,1,88.19,43.87Z"/><path class="a" d="M90.74,28.54A5.11,5.11,0,0,1,95.39,31c1.4,2.58-.12,6.11-3.39,7.89a8,8,0,0,1-3.81,1,5.08,5.08,0,0,1-4.64-2.44c-1.4-2.57.11-6.1,3.38-7.88a8,8,0,0,1,3.81-1m0-8h0a16.11,16.11,0,0,0-7.64,2C76,26.41,73,34.81,76.52,41.26a13,13,0,0,0,11.67,6.61,16,16,0,0,0,7.64-2,15.69,15.69,0,0,0,7-7.51,12.79,12.79,0,0,0-.39-11.22,13,13,0,0,0-11.67-6.62Z"/><path class="c" d="M86.93,29.55c-4-4.12-7-15.63-7-15.63"/><path class="a" d="M84.06,32.34a17.23,17.23,0,0,1-2.21-4.9,38.06,38.06,0,0,1-1-4.58,72.23,72.23,0,0,1-.91-8.94,69.13,69.13,0,0,0,4.62,7.42,30.61,30.61,0,0,0,2.61,3.23,9.42,9.42,0,0,0,2.68,2.19Z"/><path class="c" d="M93.93,29.42c3.2-6.88,11.68-13.16,11.68-13.16"/><path class="a" d="M90.3,27.74a30.47,30.47,0,0,1,7.28-6.88,54.39,54.39,0,0,1,8-4.6,52.81,52.81,0,0,0-5.09,7.32,35.47,35.47,0,0,0-1.88,3.82,19.16,19.16,0,0,0-1.08,3.71Z"/><path class="c" d="M95.83,33.93c9.35,0,13.67,4.62,13.67,4.62"/><path class="a" d="M95.85,29.93c.7.19,1.39.37,2.08.58s1.35.44,2,.72a25.94,25.94,0,0,1,3.77,1.87A21,21,0,0,1,107,35.55a13.77,13.77,0,0,1,2.53,3A13,13,0,0,0,106,37.31a19.38,19.38,0,0,0-3.52-.4,20.33,20.33,0,0,0-3.42.26c-.55.07-1.11.22-1.65.32s-1.09.29-1.61.44Z"/><path class="c" d="M87.09,39.78c-2.18,5.92-.27,15.48-.27,15.48"/><path class="a" d="M90.84,41.16a11.77,11.77,0,0,0-1.62,2.78,25.62,25.62,0,0,0-1.17,3.53,44.74,44.74,0,0,0-1.23,7.79,47.31,47.31,0,0,1-2.77-7.74,31.5,31.5,0,0,1-.79-4.28,19.27,19.27,0,0,1,.07-4.84Z"/><path class="c" d="M83,35.64c-8.75-2-17.61,2.46-17.61,2.46"/><path class="a" d="M82.17,39.54a18.09,18.09,0,0,0-3.64-1.39,23.16,23.16,0,0,0-4.16-.68,31.28,31.28,0,0,0-8.94.63,32.67,32.67,0,0,1,8.32-4.58,27.61,27.61,0,0,1,4.84-1.37,25.05,25.05,0,0,1,5.33-.41Z"/><path class="c" d="M162.09,217.71l-9.91,16L148.66,231a31.41,31.41,0,0,1-10.46-20.05c-.76-6.55.46-13.34,3.62-20.31a42.42,42.42,0,0,1-15.35,3c-18.39,0-30.2-12.57-30.7-13.11l-2.71-2.94L109.88,162l-21.57-7.56,3.34-4.38c.49-.64,12.17-15.65,32.9-15.65a44.58,44.58,0,0,1,8.15.77c-18.45-31.78-4.28-49.66-3.61-50.48l2.67-3.23,19,17.18,7.63-23.8,4.32,2.57c.76.45,15.14,9.36,16.28,35.15,13.45-22.33,28.12-25.28,28.89-25.42l4.72-.86V102l16-7.53.92,5.15c.05.29,4,24.46-14.76,42.83,20.87,1.59,30.44,20.6,32.63,30.86l.94,4.43-25.36,2.17,7.13,18-4.69,1a26.76,26.76,0,0,1-5.18.41c-6.36,0-17.29-1.48-29.67-9.5,2.82,8.79,3.72,18.52,0,27.88a32.33,32.33,0,0,1-11.52,14.64L176,234.12Z"/><path class="a" d="M160.62,80.86s21.2,12.59,12.15,54.64C187,95,208.56,91.08,208.56,91.08v17.26l16.94-8S230.93,131,200.57,148a43.45,43.45,0,0,1,11.27-1.6c25.64,0,31.55,27.8,31.55,27.8l-26.2,2.24,7.35,18.53a24,24,0,0,1-4.39.33c-7.58,0-23.94-2.39-41-20.14,23.33,37.71-2.35,53.77-2.35,53.77l-15.23-18-10.44,16.91s-22.15-17.55,2.45-48.55c-10,7.66-19.22,10.27-27.12,10.27-16.85,0-27.76-11.82-27.76-11.82l18.77-17.3-22.65-8s10.73-14.07,29.72-14.07a44.73,44.73,0,0,1,17.54,3.8c-25.9-35.55-9.91-55-9.91-55l20.45,18.53,8-24.92m-4.55-12L153,78.41l-4.2,13.11-11.26-10.2-6.21-5.63L126,82.16c-.7.84-14.5,18.23-.32,48.26h-1.14c-22.68,0-35.55,16.52-36.08,17.22l-6.68,8.76L92.18,160l10.09,3.54-9,8.27-5.89,5.43,5.43,5.88c.55.59,13.52,14.4,33.64,14.4a44.84,44.84,0,0,0,8.92-.9,39.39,39.39,0,0,0-1.17,14.72,35.09,35.09,0,0,0,12,22.73l7,5.58L158,232l4.65-7.53,8.11,9.57,4.47,5.28,5.87-3.67a36,36,0,0,0,13.11-16.54,41,41,0,0,0,2.28-21.48,55.87,55.87,0,0,0,23.71,5.61,30.74,30.74,0,0,0,6-.49l9.37-1.9L232,192l-3.39-8.54,15.48-1.32,9-.77-1.88-8.86a52,52,0,0,0-7.35-16.71c-5.53-8.2-12.81-13.63-21.4-16A55,55,0,0,0,233.37,99l-1.82-10.31-9.47,4.46-5.52,2.61V81.49l-9.43,1.72c-1.25.23-7.91,1.72-16.28,8.78a65.56,65.56,0,0,0-9.26,9.65C177.42,81.82,165.44,74.41,164.71,74l-8.64-5.13Z"/><path class="a" d="M172.3,146.25c3.19,0,6,1.41,7.24,4,1.89,3.93-.62,9.05-5.6,11.45a12.22,12.22,0,0,1-5.2,1.22c-3.2,0-6-1.42-7.25-4-1.88-3.92.63-9,5.61-11.44a12,12,0,0,1,5.2-1.22m0-8h0a20.12,20.12,0,0,0-8.67,2c-8.95,4.31-13.14,14.23-9.35,22.12,2.53,5.26,8.07,8.52,14.46,8.52a20.19,20.19,0,0,0,8.66-2c8.95-4.31,13.15-14.23,9.35-22.13-2.53-5.25-8.06-8.51-14.45-8.51Z"/><path class="a" d="M164.1,150.11a25.7,25.7,0,0,1-3.07-6.78,55.54,55.54,0,0,1-1.6-6.57,107.53,107.53,0,0,1-1.6-13,106.69,106.69,0,0,0,5.37,11.67,49.55,49.55,0,0,0,3.24,5.3,18.44,18.44,0,0,0,3.66,4.1Z"/><path class="a" d="M174,145.94a40,40,0,0,1,4.88-5.48,63,63,0,0,1,5.4-4.4,81.54,81.54,0,0,1,11.58-6.91,79.25,79.25,0,0,0-8.79,9.78,57.92,57.92,0,0,0-3.52,5.3,32.64,32.64,0,0,0-2.47,5.44Z"/><path class="a" d="M180.21,150.64c1,.25,2,.48,2.93.76s1.93.58,2.86,1a37.38,37.38,0,0,1,5.39,2.53,31.26,31.26,0,0,1,4.76,3.39,20.7,20.7,0,0,1,3.78,4.23,19.48,19.48,0,0,0-4.82-2.52,29.43,29.43,0,0,0-5.11-1.35,32.11,32.11,0,0,0-5.16-.39c-.84,0-1.71.06-2.55.09s-1.69.19-2.52.27Z"/><path class="a" d="M170.25,164.24a21.19,21.19,0,0,0-2.26,4.52,42,42,0,0,0-1.53,5.35c-.41,1.85-.71,3.75-1,5.68s-.41,3.87-.48,5.83c-.59-1.88-1.08-3.79-1.52-5.74s-.79-3.91-1-5.93a46.59,46.59,0,0,1-.39-6.2,28.71,28.71,0,0,1,.82-6.65Z"/><path class="a" d="M159.81,160.07a29.9,29.9,0,0,0-5.73-1.92,36.18,36.18,0,0,0-6.31-.83,46.77,46.77,0,0,0-6.58.14,45.57,45.57,0,0,0-6.63,1.08,47.4,47.4,0,0,1,6.15-3,50.43,50.43,0,0,1,6.63-2.18,40.32,40.32,0,0,1,7.1-1.18,36.52,36.52,0,0,1,7.51.21Z"/><path class="d" d="M214.58,916.29a88,88,0,0,1-21.87-3l-4.23-1.21,1.61-4.1c.46-1.16,11.42-28.56,27.09-35.26A32.68,32.68,0,0,1,230,869.9a20.41,20.41,0,0,1,18.76,11.22c2.34,4.54,2.42,10.11.22,15.69a30.23,30.23,0,0,1-17.93,17A48.83,48.83,0,0,1,214.58,916.29Z"/><path class="a" d="M230,873.9c6.79,0,12.19,3.21,15.21,9.06,4.54,8.79-2.66,22.44-15.5,27a45.57,45.57,0,0,1-15.12,2.29,84.63,84.63,0,0,1-20.77-2.8s10.63-26.93,24.94-33A28.78,28.78,0,0,1,230,873.9m0-8h0a36.63,36.63,0,0,0-14.38,3.18c-16.9,7.23-28,34.4-29.24,37.47l-3.23,8.2,8.47,2.43a92.87,92.87,0,0,0,23,3.11,53,53,0,0,0,17.81-2.76,34.34,34.34,0,0,0,20.31-19.25c2.62-6.67,2.49-13.42-.39-19A24.31,24.31,0,0,0,230,865.9Z"/><path class="d" d="M233.41,885c-11.65,3-17.59,9.19-17.59,9.19"/><path class="a" d="M233.51,885.34a11.73,11.73,0,0,1-1.67,3,9.81,9.81,0,0,1-1.81,1.87,4.08,4.08,0,0,1-2.13.82,13.8,13.8,0,0,0-2.41.29c-.76.21-1.53.42-2.3.65s-1.57.44-2.34.7a50.42,50.42,0,0,0-4.74,1.75l0,0a.42.42,0,0,1-.55-.23.4.4,0,0,1,0-.34,21.38,21.38,0,0,1,3.07-4.51c.6-.68,1.24-1.33,1.89-2s1.38-1.2,2.1-1.77,1.39-1.26,2.12-1.84a5.38,5.38,0,0,1,1.18-.73,5,5,0,0,1,1.34-.33,8.17,8.17,0,0,1,6.08,1.85.64.64,0,0,1,.21.74Z"/><path class="d" d="M441.6,889c-.93-.09-22.87-2.33-35.82-13.68A30.25,30.25,0,0,1,395.33,853c0-6,2.12-11.15,6-14.51a20.16,20.16,0,0,1,13.38-5.17c6.53,0,13.12,3.11,19.05,9C445.84,854.27,446,883.78,446,885v4.4Z"/><path class="a" d="M414.68,837.3c5.27,0,10.93,2.57,16.24,7.83C442,856.08,442,885,442,885s-21.44-2.08-33.56-12.7c-10.26-9-11.95-24.33-4.49-30.85a16.11,16.11,0,0,1,10.75-4.18m0-8a24.09,24.09,0,0,0-16,6.16c-4.72,4.13-7.33,10.35-7.33,17.52a34.31,34.31,0,0,0,11.82,25.36c13.9,12.19,37.08,14.56,38.06,14.65l8.77.85V885c0-3.3-.37-32.66-13.43-45.59-6.71-6.63-14.27-10.14-21.87-10.14Z"/><path class="d" d="M414.16,847.67c9.74,7,13,15,13,15"/><path class="a" d="M414.4,847.35a8.19,8.19,0,0,1,6.33.51,5,5,0,0,1,1.12.8,5.11,5.11,0,0,1,.83,1.11c.47.81.81,1.73,1.3,2.5s.91,1.58,1.3,2.41.73,1.67,1,2.53a21,21,0,0,1,1.21,5.32.42.42,0,0,1-.39.45.41.41,0,0,1-.32-.12l0,0c-1.23-1.2-2.48-2.34-3.77-3.37-.62-.53-1.27-1-1.92-1.51s-1.28-1-1.91-1.45a14.07,14.07,0,0,0-2.13-1.16,4,4,0,0,1-1.68-1.54,10.19,10.19,0,0,1-1-2.4,12.21,12.21,0,0,1-.44-3.4v0A.64.64,0,0,1,414.4,847.35Z"/><path class="d" d="M42.81,925.38c-.11-1.24-2.61-30.64,8.37-43.67C57,874.79,64.11,871,71.14,871a20.36,20.36,0,0,1,12,4c4.13,3,6.7,7.94,7.24,13.92A30.24,30.24,0,0,1,82,912.12C70.1,924.59,48.45,928.78,47.54,929l-4.33.82Z"/><path class="a" d="M71.14,875a16.29,16.29,0,0,1,9.66,3.26c8,5.82,7.7,21.25-1.71,31.12C68,921,46.8,925,46.8,925s-2.6-28.83,7.44-40.73c5.26-6.23,11.21-9.31,16.9-9.31m0-8v0h0c-8.23,0-16.4,4.32-23,12.15-11.85,14-9.6,43.32-9.3,46.61l.79,8.77,8.66-1.63c1-.18,23.84-4.61,36.6-18a34.36,34.36,0,0,0,9.5-26.31c-.65-7.14-3.8-13.11-8.88-16.8A24.37,24.37,0,0,0,71.14,867Z"/><path class="d" d="M71.16,885.32c-9.07,7.89-11.59,16.11-11.59,16.11"/><path class="a" d="M71.42,885.63a11.82,11.82,0,0,1-.14,3.42,9.77,9.77,0,0,1-.78,2.48A4,4,0,0,1,69,893.22a13.41,13.41,0,0,0-2,1.35c-.59.53-1.19,1.06-1.77,1.61s-1.21,1.09-1.78,1.68c-1.19,1.14-2.33,2.38-3.45,3.69l0,0a.41.41,0,0,1-.59,0,.43.43,0,0,1-.14-.31,20.93,20.93,0,0,1,.72-5.41c.23-.88.5-1.75.8-2.61s.69-1.69,1.08-2.52.67-1.75,1.07-2.6a5.75,5.75,0,0,1,.73-1.19,5.26,5.26,0,0,1,1-.89A8.2,8.2,0,0,1,70.9,885a.66.66,0,0,1,.52.57Z"/></svg>