<svg xmlns="http://www.w3.org/2000/svg" width="510" height="900" viewBox="0 0 510 900"><defs><style>.a{fill:#aebf7c;}.b{fill:#fff;}.c{fill:#db85a0;}.d{fill:#ebaed3;}</style></defs><title>new_game_white</title><path class="a" d="M387.78,245.11c-.91-.09-22.54-2.3-35.25-13.43a29.26,29.26,0,0,1-10.11-21.6c0-5.71,2-10.6,5.62-13.76a19.18,19.18,0,0,1,12.73-4.92c6.26,0,12.6,3,18.35,8.69,11.82,11.7,11.95,40.8,11.95,42v3.31Z"/><path class="b" d="M360.77,194.4c5.27,0,10.93,2.57,16.24,7.82,11.06,11,11.06,39.9,11.06,39.9s-21.44-2.07-33.56-12.7c-10.26-9-11.95-24.33-4.49-30.84a16.11,16.11,0,0,1,10.75-4.18m0-6a22.08,22.08,0,0,0-14.7,5.66c-4.29,3.74-6.65,9.43-6.65,16a32.28,32.28,0,0,0,11.13,23.85c13.43,11.77,36,14.07,36.94,14.17l6.58.63v-6.61c0-3.21-.36-31.8-12.84-44.16-6.32-6.26-13.4-9.56-20.46-9.56Z"/><path class="a" d="M360.25,204.77c9.74,7,13,15,13,15"/><path class="b" d="M360.42,204.52a8.56,8.56,0,0,1,5.73,1.17c1.65.86,2.33,2.74,3.32,4.2.48.76.95,1.51,1.37,2.29s.8,1.59,1.15,2.41a21.79,21.79,0,0,1,1.52,5.07.3.3,0,0,1-.25.35.29.29,0,0,1-.28-.1l0,0a42.37,42.37,0,0,0-3.45-3.62c-.58-.57-1.19-1.11-1.81-1.64s-1.21-1.06-1.83-1.57a16.44,16.44,0,0,0-2-1.32,5.89,5.89,0,0,1-1.71-1.59,12.56,12.56,0,0,1-1.23-2.21,10.89,10.89,0,0,1-.83-2.93v0A.42.42,0,0,1,360.42,204.52Z"/><path class="c" d="M309.76,201.22c-.44-.31-8.75-6.35-11.64-20.72-4.12,7.13-10.9,14-21.79,14a18.67,18.67,0,0,1-4.27-.45l-2.51-.66,1.58-14.23-12.35,2.55-.29-3.36a21.47,21.47,0,0,1,5-14.61,25.68,25.68,0,0,1,11.09-7.47,28.88,28.88,0,0,1-15.86-27.19l.2-3,15.15,1-6.23-14,4.11-.44c.07,0,.72-.07,1.78-.07,4.1,0,16.45,1.05,24.4,12.86,7.16-23.31,22.4-24.63,23.11-24.68l3.14-.21.35,17.06,15.09-7.23.82,3.67c.13.59,2.37,11.46-9.06,23.78a50.07,50.07,0,0,1,10-1.06c9.75,0,14.55,3.32,15.07,3.7l2.9,2.13-7.62,7.2,11,4.3-2.34,3.15A34.57,34.57,0,0,1,334.05,170h-.78a22,22,0,0,1,4.16,9c2.31,10.93-4.31,20.68-4.59,21.09l-1.93,2.8-12.74-11.36-5.48,11.75Z"/><path class="b" d="M321.48,103.8l.39,18.58,15.89-7.62S341.39,131,316.64,146c10.62-4.73,18.89-6.14,25-6.14,9.05,0,13.29,3.12,13.29,3.12l-8.44,8,11.74,4.59A31.72,31.72,0,0,1,334.05,167a35.43,35.43,0,0,1-10.66-1.71c20.92,12.86,7,33.06,7,33.06L317.16,186.6l-5.67,12.17s-12.38-8.72-11.28-31.36c-5.65,21.26-17.86,24.06-23.88,24.06a15.07,15.07,0,0,1-3.51-.36l1.75-15.76-13.09,2.71s-1.66-18.95,24.88-21.24c-26.21-4.24-24.61-27.57-24.61-27.57l17.14,1.19-6.59-14.75s.54-.06,1.47-.06c4.64,0,19.08,1.42,25.4,18.43,5.42-29.11,22.31-30.26,22.31-30.26m5.87-6.41-6.27.43c-.74.05-15.55,1.32-23.92,21.61-8.52-8.91-19.44-9.8-23.39-9.8-1.16,0-1.9.07-2.1.09l-8.21.87,3.36,7.54,2.52,5.63-7.18-.49-6-.42-.41,6a33.82,33.82,0,0,0,3,15.08,30.7,30.7,0,0,0,9.55,12,26.38,26.38,0,0,0-7.07,5.9,24.28,24.28,0,0,0-5.74,16.8l.59,6.72,6.6-1.36,5-1-.84,7.55-.58,5.16,5,1.31a21,21,0,0,0,5,.55A26.8,26.8,0,0,0,297,187.52c3.94,11,10.65,15.86,11.07,16.15l5.86,4.13,3-6.5,2.26-4.85,7.18,6.41,5.07,4.53,3.87-5.6c.31-.45,7.62-11.23,5.06-23.41a25,25,0,0,0-1.89-5.6A38,38,0,0,0,363,159.08l4.67-6.3-7.31-2.86-2.92-1.14L359,147.3l5.23-4.94-5.8-4.26c-1-.71-6.36-4.28-16.84-4.28-1,0-2.05,0-3.09.1a36.18,36.18,0,0,0,3.58-7.11c2.66-7.22,1.72-12.4,1.5-13.36L342,106.09l-6.8,3.26-7.49,3.59-.19-9.26-.13-6.29Z"/><path class="c" d="M307.31,162.19a11.23,11.23,0,0,1-4-.76c-5-1.91-7.76-7-6.13-11.23,1.17-3.06,4.33-5,8.06-5a11.21,11.21,0,0,1,4,.75,10.74,10.74,0,0,1,5.4,4.42,7.83,7.83,0,0,1,.73,6.82A8.36,8.36,0,0,1,307.31,162.19Z"/><path class="b" d="M305.23,148.17a8.33,8.33,0,0,1,2.93.55c3.48,1.33,5.45,4.63,4.4,7.37-.75,2-2.84,3.1-5.25,3.1a8.22,8.22,0,0,1-2.94-.56c-3.47-1.33-5.44-4.62-4.4-7.36.75-2,2.85-3.1,5.26-3.1m0-6h0c-5,0-9.24,2.73-10.86,7a10.79,10.79,0,0,0,1,9.43,13.73,13.73,0,0,0,6.9,5.68,14.2,14.2,0,0,0,5.08.95c5,0,9.24-2.73,10.86-7a10.79,10.79,0,0,0-1-9.43,13.73,13.73,0,0,0-6.9-5.68,14.2,14.2,0,0,0-5.08-1Z"/><path class="c" d="M308.16,148.72c.53-5.73,7.32-15.49,7.32-15.49"/><path class="b" d="M305.18,148.45a17,17,0,0,1,2-4.69,36.09,36.09,0,0,1,2.55-3.81,70.66,70.66,0,0,1,5.76-6.72,70,70,0,0,0-3.09,8.09,34.8,34.8,0,0,0-1,4.05,11.63,11.63,0,0,0-.22,3.63Z"/><path class="c" d="M312.81,154c7.31-2,17.59.33,17.59.33"/><path class="b" d="M312,151.08a30.09,30.09,0,0,1,9.67.6,54.44,54.44,0,0,1,8.73,2.62,53,53,0,0,0-8.85.38,39.5,39.5,0,0,0-4.2.8,21.14,21.14,0,0,0-3.74,1.38Z"/><path class="c" d="M310.62,158.34c6,7.13,5.36,13.4,5.36,13.4"/><path class="b" d="M312.91,156.4c.33.61.66,1.21,1,1.83s.59,1.23.83,1.88a25.8,25.8,0,0,1,1.2,3.87,22.07,22.07,0,0,1,.47,3.94,14.25,14.25,0,0,1-.39,3.82,13.75,13.75,0,0,0-1.07-3.51,20.21,20.21,0,0,0-1.77-3.08,22.87,22.87,0,0,0-2.25-2.64,26.89,26.89,0,0,0-2.56-2.23Z"/><path class="c" d="M300.49,155.49c-5.92,2.19-11.95,9.85-11.95,9.85"/><path class="b" d="M301.53,158.3a13.5,13.5,0,0,0-3.24.89,26.61,26.61,0,0,0-3.35,1.65,45.71,45.71,0,0,0-6.4,4.5,46.67,46.67,0,0,1,4.42-6.76,23.24,23.24,0,0,1,6.48-5.9Z"/><path class="c" d="M301,149.72c-4.19-7.92-13.31-11.8-13.31-11.8"/><path class="b" d="M298.35,151.13a18.62,18.62,0,0,0-1.61-3.69,23.7,23.7,0,0,0-2.43-3.51,31.72,31.72,0,0,0-6.61-6,33.52,33.52,0,0,1,8.56,3.73,28.4,28.4,0,0,1,3.93,2.9,25,25,0,0,1,3.47,3.77Z"/><path class="d" d="M218.73,217.94l-10,16.26-2.64-2.1A30.3,30.3,0,0,1,196,212.72c-.82-7.1.75-14.51,4.68-22.14a42.11,42.11,0,0,1-17.41,3.89c-17.95,0-29.47-12.26-30-12.78l-2-2.21,17.3-15.95-21.83-7.66,2.5-3.28c.48-.62,11.87-15.26,32.1-15.26a43.86,43.86,0,0,1,10.19,1.23c-19.86-32.41-5.53-50.49-4.87-51.3l2-2.42L208,102.36l7.71-24.08,3.24,1.92c.78.47,16,9.89,15.88,37.88,13.64-24.74,29.2-27.88,30-28l3.54-.65v16.12l16.2-7.64.69,3.86c0,.29,4.18,25.38-16.2,43.55,27.4.29,34,29.87,34.07,30.17l.71,3.33L278.23,181l7.19,18.12-3.52.71a27.06,27.06,0,0,1-5,.38c-6.66,0-18.41-1.65-31.57-11,11.35,30.22-9.93,44-10.18,44.17l-2.2,1.37Z"/><path class="b" d="M217.39,82.78s21.2,12.6,12.14,54.65C243.77,96.93,265.33,93,265.33,93v17.25l16.93-8s5.44,30.67-24.92,47.61a43.33,43.33,0,0,1,11.27-1.6c25.64,0,31.55,27.81,31.55,27.81L274,178.33l7.35,18.54a24.54,24.54,0,0,1-4.38.32c-7.58,0-24-2.39-41-20.13,23.32,37.71-2.35,53.76-2.35,53.76l-15.23-18-10.44,16.9s-22.16-17.54,2.45-48.54c-10,7.66-19.22,10.26-27.13,10.26-16.84,0-27.75-11.82-27.75-11.82l18.77-17.29-22.65-8s10.73-14.08,29.71-14.08a44.72,44.72,0,0,1,17.54,3.81c-25.89-35.56-9.9-55-9.9-55l20.45,18.54,8-24.93m-3.41-9L211.68,81,206.53,97,193,84.73l-4.66-4.23-4,4.86c-.68.83-14.64,18.42,1.46,49.2-1.5-.15-3-.23-4.47-.23-21.7,0-34,15.77-34.49,16.44l-5,6.57,7.79,2.73,13.23,4.64-11.43,10.53L147,179.31l4.07,4.41c.52.56,12.91,13.75,32.16,13.75a43.58,43.58,0,0,0,11.88-1.67A38.31,38.31,0,0,0,193,213.07a33.56,33.56,0,0,0,11.2,21.38l5.29,4.19L213,232.9l6.1-9.87L229,234.7l3.36,4,4.4-2.75a33.9,33.9,0,0,0,12.31-15.59c3.27-8.15,3.2-16.53,1.42-24.36,11,6,20.57,7.23,26.43,7.23a30.37,30.37,0,0,0,5.58-.44l7-1.43-2.65-6.66-4.37-11,18.16-1.55,6.77-.58L306,174.85a50.51,50.51,0,0,0-7-16c-5.9-8.74-13.88-14.16-23.36-15.92A51.59,51.59,0,0,0,287,121.18a52.2,52.2,0,0,0,1.16-20L286.8,93.5l-7.1,3.35-8.37,4v-15l-7.08,1.28c-.71.13-7.19,1.47-15.35,8.34a67.14,67.14,0,0,0-11.71,13.06c-3-22.37-16-30.43-16.73-30.88L214,73.77Z"/><path class="b" d="M229.07,148.17c3.19,0,6,1.42,7.24,4,1.89,3.92-.62,9-5.61,11.44a12,12,0,0,1-5.2,1.22c-3.19,0-6-1.41-7.24-4-1.89-3.92.62-9.05,5.61-11.45a12.15,12.15,0,0,1,5.2-1.22m0-6h0a18.08,18.08,0,0,0-7.8,1.82c-8,3.82-11.73,12.55-8.42,19.45,2.19,4.55,7,7.38,12.65,7.38a18.07,18.07,0,0,0,7.8-1.81,17.45,17.45,0,0,0,8.17-7.92,13.14,13.14,0,0,0,.25-11.53c-2.2-4.56-7-7.39-12.65-7.39Z"/><path class="b" d="M221.62,151.38a25.91,25.91,0,0,1-3.15-6.45,56.89,56.89,0,0,1-1.8-6.41,105.23,105.23,0,0,1-2.07-12.84,103.7,103.7,0,0,0,4.9,11.84,50.36,50.36,0,0,0,3,5.46,20.2,20.2,0,0,0,3.59,4.43Z"/><path class="b" d="M231.62,148.33a39.66,39.66,0,0,1,4.57-5.47,61.9,61.9,0,0,1,5.16-4.51,81.83,81.83,0,0,1,11.23-7.28,80.39,80.39,0,0,0-9.13,9.43,57.85,57.85,0,0,0-3.76,5.19,34.44,34.44,0,0,0-2.77,5.44Z"/><path class="b" d="M236.92,153.56c1,.21,1.93.4,2.88.64s1.9.49,2.82.83a36.79,36.79,0,0,1,5.36,2.26,31.23,31.23,0,0,1,4.8,3.14,20.61,20.61,0,0,1,3.91,4,19.88,19.88,0,0,0-4.68-2.73,29.21,29.21,0,0,0-5.07-1.6,32.77,32.77,0,0,0-5.19-.67c-.85-.07-1.73,0-2.58,0s-1.73.1-2.58.14Z"/><path class="b" d="M226.1,165.77a23.39,23.39,0,0,0-2.09,4.78,45.27,45.27,0,0,0-1.29,5.46c-.32,1.88-.54,3.79-.7,5.71s-.25,3.87-.24,5.82c-.51-1.88-.91-3.8-1.26-5.74s-.63-3.91-.79-5.9a47.44,47.44,0,0,1-.15-6.1,28.15,28.15,0,0,1,1-6.38Z"/><path class="b" d="M216.84,161a30.26,30.26,0,0,0-6-1.71,37.64,37.64,0,0,0-6.41-.59,48.79,48.79,0,0,0-6.59.41,45.5,45.5,0,0,0-6.57,1.32,46.81,46.81,0,0,1,6.21-2.78,51,51,0,0,1,6.63-1.93,41.51,41.51,0,0,1,7-.93,36.72,36.72,0,0,1,7.29.42Z"/></svg>