<svg xmlns="http://www.w3.org/2000/svg" width="510" height="900" viewBox="0 0 510 900"><defs><style>.a{fill:#432d1e;}.b{fill:#db85a0;}.c{fill:#fff;}.d{fill:#ebaed3;}.e{fill:#aebf7c;}</style></defs><title>new_game_white_large</title><path class="a" d="M5.52,888.86a87.14,87.14,0,0,1,11.18-11,138.74,138.74,0,0,1,12-9c1-.71,2.07-1.34,3.11-2s2.07-1.34,3.13-2c2.12-1.2,4.21-2.5,6.36-3.64q6.44-3.5,13.09-6.44l-4.94,3.54A41.21,41.21,0,0,1,55,852.63c1-.88,2.08-1.69,3.18-2.48L59.87,849l.87-.56.92-.51a38.1,38.1,0,0,1,8.1-3.43c.73-.24,1.53-.42,2.3-.62s1.59-.36,2.44-.5a30.24,30.24,0,0,1,5.45-.49h.65a.59.59,0,0,1,.6.61.65.65,0,0,1-.13.38l-4.94,6.2-5.07,6.1c-1.7,2-3.45,4-5.17,6s-3.43,4-5.21,6l-.24.27-.3.12-13.47,5.52q-6.72,2.77-13.49,5.47L19.66,885,6.09,890.24a.71.71,0,0,1-.8-1.11Z"/><path class="a" d="M117.11,874.23a90.68,90.68,0,0,1,8.74-4c1.46-.6,2.92-1.15,4.39-1.69s2.93-1,4.4-1.54c5.87-2,11.77-3.58,17.68-5s11.85-2.53,17.8-3.41S182,857,188,856.46l-5.6,1.67a95,95,0,0,1,10.44-5.34c1.8-.78,3.66-1.47,5.5-2.17s3.75-1.31,5.71-1.8a73.72,73.72,0,0,1,12.09-2.39c1-.12,2.13-.19,3.19-.29s2.17-.12,3.29-.12a42.56,42.56,0,0,1,6.92.4l.49.07a.66.66,0,0,1,.56.76.68.68,0,0,1-.32.48l-10.05,6-10.13,5.89c-3.38,2-6.8,3.86-10.2,5.79s-6.78,3.87-10.22,5.74l-.3.16-.31,0c-12,.78-23.94,1.67-35.92,2.36l-18,1.07-18,.93a.72.72,0,0,1-.75-.69.73.73,0,0,1,.38-.67Z"/><path class="b" d="M94.35,864a21.51,21.51,0,0,1-10.87-11,25.62,25.62,0,0,1-1.79-13.23,27.92,27.92,0,0,1-17,5.76,31,31,0,0,1-14.43-3.6l-2.59-1.51,7.64-13.12-15.28-.59,1.43-3.88c.06-.17,5.91-15.47,23.07-17.81-17.73-16.74-12.18-31-11.9-31.65l1.19-2.91,15.46,7.24.2-16.73,3.66.89c.58.14,11.33,2.95,17.31,18.67,4.35-16.39,13-21.08,13.46-21.32l3.19-1.66,3.08,10,8.72-7.95,1.79,3.49c.09.17,7.32,14.71-.71,30.17a23,23,0,0,1,4.5-.45c14.24,0,22,13.56,22.28,14.14l1.65,3-15.82,6.38,8.11,10.12-3.15,1.72c-.2.11-5.05,2.7-13.06,2.7a41.46,41.46,0,0,1-10.59-1.41c8.7,13.1,4.74,24.42.5,29.32l-1.7,2L100.67,853l-3.18,12.2Z"/><path class="c" d="M105.32,761.84l3.42,11.1,9.31-8.49s9.57,18.66-6.61,35.56c4.85-3,9.22-4.21,13.07-4.21,12.64,0,19.66,12.6,19.66,12.6L127.75,815l8.4,10.47s-4.3,2.34-11.63,2.34c-5.59,0-12.93-1.35-21.48-6.11,22.46,19.65,9.12,35.06,9.12,35.06l-13.35-8.55-3.37,12.94s-17.73-6.91-8-31.72c-7.38,10.35-15.86,13-22.69,13a28.13,28.13,0,0,1-12.92-3.19l8.65-14.84-16.14-.63a26.41,26.41,0,0,1,24.75-16.15,35.31,35.31,0,0,1,3.62.19c-23.7-17.75-17.25-33.4-17.25-33.4l16.82,7.88.21-17.62s16.13,3.91,18.62,32.76c1.15-28.87,14.24-35.66,14.24-35.66m3.62-8.64-6.38,3.31c-1.09.57-7.79,4.43-12.59,16a35.75,35.75,0,0,0-4.78-6.33c-5.29-5.59-10.35-7-11.31-7.27l-7.33-1.77-.09,7.53-.1,8.31L58,769.05l-5.69-2.67-2.4,5.82c-.28.68-5.7,14.53,8.79,31-14.65,4.55-19.74,17.87-20,18.55l-2.86,7.75,8.25.32,6.17.24-3.62,6.22-3,5.18,5.19,3a33.85,33.85,0,0,0,15.94,4,30.56,30.56,0,0,0,13.85-3.29,26.47,26.47,0,0,0,2.17,9,24.31,24.31,0,0,0,12.52,12.59l6.28,2.44,1.7-6.52,1.29-4.95,6.4,4.1,4.37,2.8,3.4-3.93a24.91,24.91,0,0,0,5.3-13.58,27.92,27.92,0,0,0-2.37-13.58,42.21,42.21,0,0,0,4.89.29c8.61,0,13.92-2.75,14.5-3.07l6.3-3.43-4.49-5.59-3.35-4.17,8.93-3.61,6.31-2.54-3.31-5.94c-.35-.64-8.82-15.51-24.63-15.68a37.7,37.7,0,0,0-1.39-28.09l-3.58-7L114,760l-2.32,2.11-.63-2-2.12-6.88Z"/><path class="b" d="M92,819.22a7.65,7.65,0,0,1-5.71-2.4c-3.11-3.36-2.43-9.06,1.51-12.71a10.62,10.62,0,0,1,7.08-2.91,7.68,7.68,0,0,1,5.71,2.39c3.11,3.37,2.43,9.07-1.51,12.71A10.59,10.59,0,0,1,92,819.22Z"/><path class="c" d="M94.85,804.2a4.69,4.69,0,0,1,3.51,1.43c2,2.15,1.39,5.94-1.35,8.47a7.56,7.56,0,0,1-5,2.12,4.69,4.69,0,0,1-3.51-1.43c-2-2.15-1.39-5.95,1.35-8.48a7.6,7.6,0,0,1,5-2.11m0-6h0a14,14,0,0,0-13.41,11.55,10.78,10.78,0,0,0,2.62,9.11A10.6,10.6,0,0,0,92,822.22a14,14,0,0,0,13.41-11.56,10.8,10.8,0,0,0-2.62-9.11,10.62,10.62,0,0,0-7.91-3.35Z"/><path class="b" d="M89.81,806.31c-4.91-3-10.66-13.41-10.66-13.41"/><path class="c" d="M88.24,808.87A17.12,17.12,0,0,1,84.91,805a39,39,0,0,1-2.28-4,72,72,0,0,1-3.48-8.13A72.67,72.67,0,0,0,85,799.25a31.61,31.61,0,0,0,3.18,2.7,11.55,11.55,0,0,0,3.16,1.81Z"/><path class="b" d="M96.57,804.47c1.41-7.45,8.09-15.62,8.09-15.62"/><path class="c" d="M93.62,803.92a30.47,30.47,0,0,1,4.82-8.41,54,54,0,0,1,6.22-6.66,52.78,52.78,0,0,0-3.59,8.1,38.37,38.37,0,0,0-1.13,4.12,20.73,20.73,0,0,0-.43,4Z"/><path class="b" d="M99.51,808.37c9.07-2.25,14.39,1.13,14.39,1.13"/><path class="c" d="M98.79,805.46c.7,0,1.38-.05,2.07-.05s1.37,0,2,.09a25.27,25.27,0,0,1,4,.64,20.46,20.46,0,0,1,3.74,1.32,13.72,13.72,0,0,1,3.25,2,13.3,13.3,0,0,0-3.62-.59,19.75,19.75,0,0,0-3.54.22,21.73,21.73,0,0,0-3.36.84,27.28,27.28,0,0,0-3.14,1.31Z"/><path class="b" d="M92.47,816.2c-.65,6.27,3.54,15.07,3.54,15.07"/><path class="c" d="M95.46,816.51a13.34,13.34,0,0,0-.64,3.29,27.42,27.42,0,0,0,0,3.74,46.43,46.43,0,0,0,1.2,7.73,48.38,48.38,0,0,1-4.1-7,23.49,23.49,0,0,1-2.42-8.42Z"/><path class="b" d="M87.54,813.17c-9,.25-16.48,6.71-16.48,6.71"/><path class="c" d="M87.62,816.17a19,19,0,0,0-4-.18,23.92,23.92,0,0,0-4.22.63,31.55,31.55,0,0,0-8.32,3.26,33.62,33.62,0,0,1,7.14-6,27.37,27.37,0,0,1,4.34-2.25,24.91,24.91,0,0,1,4.91-1.43Z"/><path class="b" d="M277.07,870.32l-8,10.18-2.38-2.68c-.36-.4-7-8.14-6.57-22.7-6.83,7.24-13.84,9-19.14,9h0a21,21,0,0,1-9.32-2l-2.29-1.22,4.81-13.48-12.61-.36.49-3.34c0-.16,2.5-15.57,20.78-17.78a28.87,28.87,0,0,1-9.19-30.11l.89-2.86,14.5,4.5-2.85-15,4.1.52c.19,0,16.4,2.29,22.54,18.47,3.78-6.45,8.2-11.34,13.19-14.58a24.39,24.39,0,0,1,13.14-4.25,11.76,11.76,0,0,1,1.83.12l3.1.52L300.48,800l16.34-3.57,0,3.77c0,.6-.33,11.7-14.29,21.06,17,.56,23.51,8,23.79,8.33l2.33,2.74-9.07,5.25,9.71,6.71-3,2.53a34.89,34.89,0,0,1-21.05,7.2h0a33.51,33.51,0,0,1-8.48-1.1,22,22,0,0,1,2,9.69c-.27,11.17-8.95,19.14-9.32,19.47l-2.52,2.28Z"/><path class="c" d="M299.13,785.63a9,9,0,0,1,1.33.08l-3.89,18.17,17.21-3.76s-.19,16.59-27.73,25.51a77.37,77.37,0,0,1,14.4-1.46c17.32,0,23.55,7.32,23.55,7.32L314,837.31l10.36,7.17A32,32,0,0,1,305.19,851a32.85,32.85,0,0,1-17-5c17.4,17.33-.81,33.78-.81,33.78l-10.15-14.5-8.31,10.53s-10-11.33-3.77-33.11C257,858,247.47,861.17,240.94,861.17a18.44,18.44,0,0,1-7.92-1.68l5.33-14.93L225,844.18s2.25-15.48,22.32-15.48a46.87,46.87,0,0,1,6.77.53c-24.52-10.15-17.6-32.49-17.6-32.49l16.4,5.1-3-15.88s19.24,2.45,21.92,24.06c9.94-22.48,23.14-24.39,27.34-24.39M242.43,779l1.54,8.11,1.16,6.07L238.26,791l-5.74-1.78L230.75,795a33.65,33.65,0,0,0-.55,15.36,30.63,30.63,0,0,0,6.55,13.85c-12.08,3.69-16.87,13.44-17.7,19.13l-1,6.67,6.74.19,5.11.15-2.56,7.15-1.74,4.89,4.59,2.43a24.21,24.21,0,0,0,10.72,2.38,27.23,27.23,0,0,0,16.42-5.6c1.31,11.6,6.71,17.86,7.05,18.24l4.75,5.37,4.45-5.63,3.31-4.2,5.52,7.89,3.89,5.57,5.05-4.55c.41-.37,10-9.19,10.31-21.63a25.2,25.2,0,0,0-.55-5.89,36.38,36.38,0,0,0,4.05.23,38.14,38.14,0,0,0,23-7.91l6-5-6.46-4.47-2.58-1.78,1.86-1.08,6.22-3.61-4.66-5.47c-.66-.79-5.94-6.55-18.44-8.66a35.21,35.21,0,0,0,5.12-6.09c4.26-6.42,4.53-11.68,4.54-12.66l.08-7.54-7.36,1.61L304.39,796l1.94-9.06,1.32-6.15-6.21-1a14.4,14.4,0,0,0-2.31-.16c-5,0-16,1.77-26,15.7a31.24,31.24,0,0,0-10.1-10.48A32.35,32.35,0,0,0,250.63,780l-8.2-1Z"/><path class="b" d="M275.57,839.55a11,11,0,0,1-6.06-1.93,10.72,10.72,0,0,1-4.23-5.54A7.57,7.57,0,0,1,272.8,822a11,11,0,0,1,6.06,1.93c4.44,3,6,8.56,3.38,12.35A7.88,7.88,0,0,1,275.57,839.55Z"/><path class="c" d="M272.8,825a7.91,7.91,0,0,1,4.37,1.41c3.08,2.1,4.24,5.76,2.59,8.18a4.91,4.91,0,0,1-4.19,2,7.91,7.91,0,0,1-4.37-1.41c-3.08-2.1-4.23-5.76-2.59-8.18a4.92,4.92,0,0,1,4.19-2m0-6h0a10.84,10.84,0,0,0-9.15,4.63c-3.5,5.16-1.63,12.57,4.18,16.52a13.75,13.75,0,0,0,7.74,2.45,10.83,10.83,0,0,0,9.15-4.63c3.51-5.16,1.63-12.57-4.17-16.52A14,14,0,0,0,272.8,819Z"/><path class="b" d="M277.17,826.36C279,820.91,287.85,813,287.85,813"/><path class="c" d="M274.33,825.41a17.21,17.21,0,0,1,3-4.11,39.06,39.06,0,0,1,3.36-3.12,70.77,70.77,0,0,1,7.15-5.21,71.15,71.15,0,0,0-4.87,7.16,34.44,34.44,0,0,0-1.92,3.71,11.7,11.7,0,0,0-1.05,3.48Z"/><path class="b" d="M280.48,832.54c7.59-.31,17,4.37,17,4.37"/><path class="c" d="M280.36,829.54a30.21,30.21,0,0,1,9.28,2.81,54.75,54.75,0,0,1,7.89,4.56,53.36,53.36,0,0,0-8.7-1.67,36.41,36.41,0,0,0-4.27-.18,20.55,20.55,0,0,0-4,.47Z"/><path class="b" d="M277.35,836.28c4.23,8.33,2.13,14.28,2.13,14.28"/><path class="c" d="M280,834.92c.18.68.37,1.34.52,2s.29,1.33.37,2a25,25,0,0,1,.28,4,21.42,21.42,0,0,1-.45,3.94,13.94,13.94,0,0,1-1.26,3.63,13.1,13.1,0,0,0-.24-3.66,18.29,18.29,0,0,0-1-3.4,21.85,21.85,0,0,0-1.57-3.09,26.28,26.28,0,0,0-2-2.77Z"/><path class="b" d="M268.14,831.18c-6.26.77-13.89,6.84-13.89,6.84"/><path class="c" d="M268.51,834.16a13.81,13.81,0,0,0-3.36.12,27.91,27.91,0,0,0-3.64.83,46,46,0,0,0-7.26,2.91,46.89,46.89,0,0,1,5.86-5.56,23.16,23.16,0,0,1,7.66-4.25Z"/><path class="b" d="M270,825.69c-2.26-8.68-10.24-14.54-10.24-14.54"/><path class="c" d="M267.07,826.45a19.55,19.55,0,0,0-.72-4,24.37,24.37,0,0,0-1.56-4,32.14,32.14,0,0,0-5.05-7.36,33,33,0,0,1,7.47,5.6,27.2,27.2,0,0,1,3.16,3.72,24.21,24.21,0,0,1,2.51,4.47Z"/><path class="d" d="M351.17,876.52c-.66-.37-13.46-7.75-18.89-28.32-8.39,22-25,24-30.59,24a17.33,17.33,0,0,1-2.6-.16l-2.57-.38.12-19.91L280.13,857l-.64-3.31A27.9,27.9,0,0,1,284,834.13c3.56-5.26,8.84-9.39,15.79-12.34A37,37,0,0,1,278.36,805a41,41,0,0,1-5.47-17.46l-.1-3L294,783.8,283.5,765.64l4-.86a31.88,31.88,0,0,1,6.28-.54A38,38,0,0,1,325,779.71c5.67-33.74,26.2-37.73,27.14-37.9l3.1-.54,3,23.43,19.53-12,1.2,3.57c.27.78,5.1,16-10.84,35a64.6,64.6,0,0,1,21.85-4.2c9.33,0,14.2,2.69,14.73,3l3.1,1.81L398.26,803l15.66,4.31-2,3.38c-.49.82-12,19.84-36.52,20.61A29.08,29.08,0,0,1,383.71,844c4.51,13.94-2.8,27.61-3.12,28.18l-1.62,3-18.92-13.61-5.75,16.73Z"/><path class="c" d="M352.62,744.77l3.15,24.92,20.29-12.49s7.18,21.27-24,45c16.67-9.63,29.3-12.08,37.83-12.08,8.78,0,13.21,2.59,13.21,2.59L392.9,804.59l16.43,4.52S398,828.27,373.87,828.27a49.89,49.89,0,0,1-10-1c30,14.34,14.06,43.48,14.06,43.48l-19.43-14-5.9,17.16s-17.89-10-19.62-40.58c-5.16,33-24.76,35.88-31.32,35.88a16.12,16.12,0,0,1-2.16-.12l.13-21.44-17.23,5.49s-4.91-25.25,30.46-32.09c-35.84-2-37-33.59-37-33.59l23.22-.83-10.94-18.91a29.79,29.79,0,0,1,5.65-.47c8.31,0,23.83,2.73,33.08,21.38,3.17-39.92,25.72-43.85,25.72-43.85m5.17-7-6.2,1.08c-1,.17-20.95,4-28.34,34.31a40.17,40.17,0,0,0-10.57-7.61,42.79,42.79,0,0,0-18.85-4.32,36,36,0,0,0-6.92.6l-8.07,1.73,4.13,7.15L288.91,781l-13.23.48-6,.21.22,6a44,44,0,0,0,5.87,18.86,39.36,39.36,0,0,0,16.8,15.61,35,35,0,0,0-11,10.31,31.24,31.24,0,0,0-5,21.83l1.29,6.61,6.43-2,9.35-3L293.53,869l0,5.2,5.14.77a20.23,20.23,0,0,0,3.05.19c5.46,0,20.53-1.68,30.14-18.86,6.52,16.27,17.26,22.45,17.87,22.8l6.27,3.49,2.33-6.78,3.28-9.53,12.88,9.27,5.51,4,3.26-6c.34-.62,8.24-15.39,3.34-30.55a31.29,31.29,0,0,0-4.89-9.37C403.59,830.2,414,813,414.5,812.16l4-6.76-7.57-2.08-7.31-2,4.07-4.74,4.68-5.46-6.21-3.63c-.6-.35-6.12-3.41-16.24-3.41a61.25,61.25,0,0,0-14.24,1.78C386.11,769,382,756,381.75,755.28l-2.41-7.14-6.42,4-12.36,7.61-2-15.68-.79-6.24Z"/><path class="c" d="M338.15,806.68a11.07,11.07,0,0,1,2.92.39c4.86,1.29,8,5.45,7,9.28-.81,3-4,5-7.73,5a11.45,11.45,0,0,1-2.92-.39c-4.87-1.3-8-5.45-7-9.28.81-3,4-5,7.73-5m0-6h0c-6.59,0-12,3.79-13.53,9.43-1.87,7,3.16,14.47,11.21,16.62a17.42,17.42,0,0,0,4.47.59c6.59,0,12-3.79,13.53-9.43a12.52,12.52,0,0,0-2.27-10.73,16.43,16.43,0,0,0-8.94-5.89,17.54,17.54,0,0,0-4.47-.59Z"/><path class="c" d="M338.07,807.1a23.75,23.75,0,0,1,1.72-6.37,52.38,52.38,0,0,1,2.62-5.49,98.82,98.82,0,0,1,6.3-10,98.77,98.77,0,0,0-3.5,11.13,49.15,49.15,0,0,0-1.07,5.57,18.58,18.58,0,0,0-.07,5.14Z"/><path class="c" d="M347,810.67a36.49,36.49,0,0,1,6.47-1,57,57,0,0,1,6.27,0,74.2,74.2,0,0,1,12.08,1.76,73.05,73.05,0,0,0-11.89,1.23,53.47,53.47,0,0,0-5.64,1.43,30.69,30.69,0,0,0-5.08,2.17Z"/><path class="c" d="M347.81,817.48c.54.73,1.09,1.45,1.6,2.18s1,1.49,1.44,2.29a33.65,33.65,0,0,1,2.32,4.8,27.69,27.69,0,0,1,1.4,5,18.72,18.72,0,0,1,.26,5.11,18,18,0,0,0-1.68-4.64,26.8,26.8,0,0,0-2.6-4.07,32.27,32.27,0,0,0-3.23-3.47c-.56-.54-1.2-1-1.79-1.52s-1.26-.93-1.87-1.39Z"/><path class="c" d="M333,819.94a20.66,20.66,0,0,0-4.27,2,39.23,39.23,0,0,0-4.15,2.94,62.25,62.25,0,0,0-7.58,7.32,63.54,63.54,0,0,1,5.38-9.36,43.9,43.9,0,0,1,3.47-4.36,26,26,0,0,1,4.49-3.9Z"/><path class="c" d="M329.1,811.1a28.1,28.1,0,0,0-3-4.72,34,34,0,0,0-4-4.23,45.07,45.07,0,0,0-4.74-3.68,41.27,41.27,0,0,0-5.3-3,42.13,42.13,0,0,1,6,1.69,46,46,0,0,1,5.77,2.55,37.63,37.63,0,0,1,5.45,3.47,33.45,33.45,0,0,1,4.87,4.6Z"/><path class="d" d="M142.76,811.48,130,818.92l-1.35-3.09a24.54,24.54,0,0,1,.18-17.63A30,30,0,0,1,139,785.35c-22.48-2.58-28.25-23.77-28.31-24l-.75-2.9,17.45-4.52-12.15-13.24L119,739a33.87,33.87,0,0,1,13-2.5A32.8,32.8,0,0,1,153,744c-1.13-28.95,15.32-36.09,16.08-36.41l2.91-1.2,6.78,19,14.1-13.66,2,3.22c.37.6,7.08,12.19-2,30.64,10.88-6.58,19.31-7.81,24.1-7.81a19.33,19.33,0,0,1,5.57.67l3.42,1.1-5.84,10.93,13.86.7-1.22,3.73c-.07.21-6.29,18.51-26.23,24.15a25.26,25.26,0,0,1,8.67,8.8c6.48,11,2.83,24.07,2.67,24.62l-.95,3.27-18.36-7.9-1.72,15.09-3.44-1c-.61-.18-12.37-3.89-20.83-19.42-4.14,23.73-23.44,25.36-23.67,25.37l-2.59.18Z"/><path class="c" d="M170.23,710.41l7.29,20.38,14.75-14.29s10,16.56-11.82,42.29c17-15.55,30-18,36.53-18a16.81,16.81,0,0,1,4.65.52l-6.38,11.94,14.67.74s-7.59,23.22-34.85,23.71c27.87,6.48,19.92,34,19.92,34l-19-8.15L194.27,819s-16.9-5.06-24.05-30.48c2.18,34.7-21.51,36.31-21.51,36.31l-3.88-18.06-13.48,7.82S122.52,794.31,151,782a46,46,0,0,1-7.4.63c-24.26,0-30-22-30-22l19.38-5-12.73-13.87A30.85,30.85,0,0,1,132,739.48c7.2,0,16.59,2.47,24.76,12.6-4.77-34.17,13.47-41.67,13.47-41.67m3.53-7.95-5.81,2.4c-.79.32-16.79,7.25-17.92,33.46a35.59,35.59,0,0,0-18-4.84,36.46,36.46,0,0,0-14.22,2.77l-7.51,3.43,5.58,6.08,6,6.52-9.71,2.51-5.81,1.51,1.51,5.81a37.94,37.94,0,0,0,7,13.27,34.92,34.92,0,0,0,17.64,11.73,30.79,30.79,0,0,0-6.51,10,27.31,27.31,0,0,0-.14,19.93l2.69,6.18,5.83-3.39,6.33-3.67,2.14,10,1.1,5.08,5.18-.35a28.07,28.07,0,0,0,15-6.54,32.06,32.06,0,0,0,9.62-14.39c8.49,11.63,18.22,14.69,18.79,14.86l6.87,2.05.81-7.12.86-7.52,11.53,5,6.25,2.68,1.89-6.53c.17-.6,4.16-14.82-3-27a28,28,0,0,0-5-6.3,42.81,42.81,0,0,0,22.86-24.2l2.44-7.46-7.84-.39-5.21-.27,1.91-3.59,3.4-6.34-6.85-2.2a22.13,22.13,0,0,0-6.49-.81c-4,0-10.32.78-18.35,4.4,4.75-15.5-.88-25.2-1.23-25.78L193.5,707l-5.41,5.25L180,720l-4.16-11.61-2.12-5.93Z"/><path class="c" d="M171.68,765h.43c4.33.18,7.73,3.1,7.58,6.51s-3.54,5.85-7.68,5.85h-.43c-4.33-.19-7.73-3.1-7.58-6.51s3.54-5.85,7.68-5.85m0-6h0c-7.39,0-13.4,5.09-13.67,11.59a11.58,11.58,0,0,0,4.19,9.27,14.92,14.92,0,0,0,9.13,3.49l.68,0c7.39,0,13.4-5.09,13.68-11.6C186,765,180,759.3,172.37,759Z"/><path class="c" d="M169.19,765.65a20,20,0,0,1,.35-5.79,45.79,45.79,0,0,1,1.29-5.13,85.39,85.39,0,0,1,3.64-9.59,81.29,81.29,0,0,0-.67,10.05,38.94,38.94,0,0,0,.24,4.87,14.54,14.54,0,0,0,1,4.22Z"/><path class="c" d="M177.5,766.56a35.78,35.78,0,0,1,10.7-3.08,63.48,63.48,0,0,1,10.54-.56,61.09,61.09,0,0,0-9.71,3.45,44,44,0,0,0-4.42,2.33,25.72,25.72,0,0,0-3.75,2.83Z"/><path class="c" d="M179.93,772.12c.59.54,1.18,1,1.75,1.6s1.12,1.1,1.62,1.7a30.15,30.15,0,0,1,2.81,3.71,24.73,24.73,0,0,1,2,4.08,15.7,15.7,0,0,1,1.08,4.3,15.32,15.32,0,0,0-2.37-3.54,22.45,22.45,0,0,0-3-2.85,24.81,24.81,0,0,0-3.41-2.21c-.57-.34-1.2-.6-1.79-.9s-1.24-.51-1.84-.76Z"/><path class="c" d="M168,777.62a16.68,16.68,0,0,0-3.23,2.33,32.6,32.6,0,0,0-3,3.17,53.8,53.8,0,0,0-5.19,7.46,54.56,54.56,0,0,1,2.61-9,27.11,27.11,0,0,1,5.07-8.65Z"/><path class="c" d="M162.5,770.89a23.65,23.65,0,0,0-3.29-3.44,28.85,28.85,0,0,0-4.09-2.89,37.43,37.43,0,0,0-9.61-4,35.72,35.72,0,0,1,5.36.22,40.53,40.53,0,0,1,5.38,1,32.24,32.24,0,0,1,5.32,1.84,28.2,28.2,0,0,1,5.07,2.93Z"/><path class="a" d="M291.28,158.85a68.07,68.07,0,0,1,11.16-4.18,111.37,111.37,0,0,1,11-2.48c1.82-.29,3.65-.56,5.46-.8s3.64-.42,5.45-.53,3.62-.27,5.42-.3,3.6-.1,5.4-.1l-5.85.83a146.68,146.68,0,0,1,15.56-6.48,135.36,135.36,0,0,1,16.28-4.62,117.58,117.58,0,0,1,17.1-2.49,78.58,78.58,0,0,1,18.32.65l.39.07a.7.7,0,0,1,.58.8.72.72,0,0,1-.42.53c-5.19,2.15-10.36,4.36-15.56,6.48L366,152.53l-15.68,6.17c-5.22,2.08-10.48,4-15.72,6.05h0a1.42,1.42,0,0,1-.64.09l-10.7-1-10.69-1.1c-3.56-.38-7.13-.72-10.68-1.16l-10.68-1.23a.7.7,0,0,1-.61-.78.66.66,0,0,1,.38-.54Z"/><path class="a" d="M187.11,50.76a42.53,42.53,0,0,1,7.8.42,63.25,63.25,0,0,1,7.05,1.4,67.2,67.2,0,0,1,12.61,4.75,74.15,74.15,0,0,1,11.09,6.77,76.93,76.93,0,0,1,9.76,8.49L227.77,70a63.39,63.39,0,0,1,7.19,1.5c1.2.32,2.4.63,3.6,1l1.8.59,1.8.68a59.61,59.61,0,0,1,7.19,3.3,43.94,43.94,0,0,1,7.19,4.78l.4.33a.66.66,0,0,1,.09.93.7.7,0,0,1-.49.24l-7.19.26c-2.4.1-4.8.15-7.19.19L235,84c-2.4.06-4.79,0-7.19.07a1.35,1.35,0,0,1-.84-.28h0L216.59,76l-10.23-7.89c-3.42-2.61-6.75-5.34-10.14-8s-6.67-5.45-10-8.16a.66.66,0,0,1,.37-1.17Z"/><path class="a" d="M433.64,113.73a56,56,0,0,1,15.21-1.3,75.35,75.35,0,0,1,13.81,1.87,81.2,81.2,0,0,1,12.88,4,91.79,91.79,0,0,1,12,5.87l-5.2-1.1c1.39.16,2.78.36,4.17.58l4.17.8,4.17,1c1.39.43,2.78.8,4.17,1.29a74.39,74.39,0,0,1,8.35,3.41,49,49,0,0,1,8.34,5.07l.38.29a.67.67,0,0,1,.13.94.69.69,0,0,1-.51.27l-8.34.28c-2.78.11-5.56.14-8.35.2l-8.34.15-8.34.05a1.47,1.47,0,0,1-.56-.11h0c-4.09-1.79-8.21-3.51-12.28-5.35l-12.23-5.47c-4.07-1.83-8.11-3.74-12.17-5.61s-8.06-3.85-12.1-5.77a.68.68,0,0,1-.31-.9.63.63,0,0,1,.44-.36Z"/><path class="a" d="M470.4,103.19a30.91,30.91,0,0,1,6.44-1.52,33.33,33.33,0,0,1,5.64-.28,31.11,31.11,0,0,1,9.74,1.79A31.79,31.79,0,0,1,507,114.09l4.8,6.44a3.42,3.42,0,0,1,.45,3.23,33.77,33.77,0,0,1-1.64,3.68c-.31.61-.67,1.22-1.05,1.84l-.55.92-.64.92a37.11,37.11,0,0,1-2.91,3.68,32.23,32.23,0,0,1-4,3.68l-.54.42a.6.6,0,0,1-1-.42c-.09-1.23-.16-2.46-.22-3.68s-.14-2.46-.18-3.68l-.23-7.36.63,1.16L492.19,120c-2.58-1.62-5.09-3.36-7.64-5s-5.05-3.42-7.55-5.16-5-3.54-7.42-5.37a.59.59,0,0,1-.12-.83.51.51,0,0,1,.28-.2Z"/><path class="d" d="M441.55,78.2a21.56,21.56,0,0,1-7.83-13.33,25.61,25.61,0,0,1,1.5-13.25,28.35,28.35,0,0,1-11,2.27A30.57,30.57,0,0,1,404.26,46l-2.15-2.11,10.64-10.84-14.67-4.33,2.34-3.4c.33-.48,8.27-11.8,23.29-11.8a30.9,30.9,0,0,1,3.44.19c-13.08-20.58-4.19-33-3.77-33.6l1.88-2.52,13.2,10.81,4.3-16.17L446.1-26c.52.28,10.25,5.64,12.19,22.34,8.25-14.81,17.78-17.24,18.29-17.36l3.5-.82.52,10.47L491-16.95l.88,3.83c0,.19,3.48,16.06-8.1,29.07,13.86.73,20.83,13.17,22.6,19.84l.87,3.29-16.9,2.3,5.38,11.8-3.48.89a21.53,21.53,0,0,1-5,.49A38,38,0,0,1,469,49.49c5.23,14.86-1.39,24.86-6.71,28.58l-2.13,1.48L450.38,69.1,444.3,80.15Z"/><path class="c" d="M444.69-23.36s14.68,7.75,10,36.32c8.2-27.7,22.55-31.07,22.55-31.07l.59,11.6L489-12.45S493.65,8,473.82,20.4a28.21,28.21,0,0,1,8.69-1.49c16.29,0,21,17.65,21,17.65L486,39l5.57,12.21a19.2,19.2,0,0,1-4.23.39c-5.52,0-15.82-1.7-26.94-12.18,16.95,24.56.24,36.22.24,36.22L449.74,64,443.3,75.75s-15.49-11,0-32.71c-7,5.91-13.51,7.85-19.1,7.85a27.61,27.61,0,0,1-17.84-7l12-12.26L402.89,27s7.21-10.5,20.82-10.5a30.72,30.72,0,0,1,10.6,2c-18.61-23-8.52-36.61-8.52-36.61L440.17-6.33l4.52-17m-3.86-8.82L438.9-24.9l-2.14,8-7.17-5.87-4.86-4L421-21.68c-.45.6-9.1,12.7.91,32.25-15.4.86-23.59,12.54-23.94,13.05l-4.68,6.81,7.92,2.34,5.92,1.75-5,5.13-4.21,4.29,4.29,4.2c.36.36,9.08,8.75,22,8.75a30.55,30.55,0,0,0,6.66-.74,27,27,0,0,0-.1,9.22,24.33,24.33,0,0,0,9.05,15.27l5.49,3.91,3.25-5.9L451,74.17l5.19,5.54,3.55,3.79,4.26-3a25,25,0,0,0,8.48-11.87,27.85,27.85,0,0,0,1-13.77,38.92,38.92,0,0,0,13.77,2.67A24.52,24.52,0,0,0,493,57L500,55.2l-3-6.52-2.22-4.87,9.54-1.3,6.74-.92L509.29,35c-1.74-6.52-8-18-20-21.24A36.82,36.82,0,0,0,494.72.47a36.81,36.81,0,0,0,.09-14.26l-1.76-7.65-6.92,3.7-2.77,1.48-.1-2.15-.37-7.18-7,1.64c-1.19.28-8.64,2.38-16.13,12.42a35.81,35.81,0,0,0-3.08-7.31c-3.76-6.72-8.31-9.36-9.18-9.82l-6.67-3.52Z"/><path class="d" d="M452.57,34.52a8.06,8.06,0,0,1-7.28-4c-2.19-4-.14-9.39,4.58-12a11.11,11.11,0,0,1,5.25-1.37,8,8,0,0,1,7.27,4c2.19,4,.14,9.38-4.58,12A11,11,0,0,1,452.57,34.52Z"/><path class="c" d="M455.12,20.19a5.1,5.1,0,0,1,4.64,2.44c1.4,2.58-.11,6.11-3.38,7.89a8,8,0,0,1-3.81,1,5.1,5.1,0,0,1-4.65-2.44c-1.4-2.57.11-6.1,3.38-7.88a8.06,8.06,0,0,1,3.82-1m0-6h0a14,14,0,0,0-6.69,1.74c-6.16,3.36-8.76,10.55-5.78,16a11,11,0,0,0,9.92,5.57,14.12,14.12,0,0,0,6.68-1.73,13.71,13.71,0,0,0,6.08-6.55,10.82,10.82,0,0,0-.3-9.48,11,11,0,0,0-9.91-5.57Z"/><path class="d" d="M451.3,21.2c-4-4.12-7-15.63-7-15.63"/><path class="c" d="M449.15,23.29a17.3,17.3,0,0,1-2.27-4.56,37.41,37.41,0,0,1-1.24-4.41,74.22,74.22,0,0,1-1.37-8.75,69.49,69.49,0,0,0,4.15,7.61,34.91,34.91,0,0,0,2.41,3.4,12.06,12.06,0,0,0,2.62,2.53Z"/><path class="d" d="M458.31,21.07C461.51,14.19,470,7.91,470,7.91"/><path class="c" d="M455.59,19.81a30,30,0,0,1,6.74-7A53.64,53.64,0,0,1,470,7.91a53.12,53.12,0,0,0-5.47,7,39.48,39.48,0,0,0-2.11,3.71A21.32,21.32,0,0,0,461,22.34Z"/><path class="d" d="M460.21,25.58c9.34,0,13.67,4.62,13.67,4.62"/><path class="c" d="M460.22,22.58c.68.15,1.35.28,2,.45s1.32.35,2,.59a26.22,26.22,0,0,1,3.72,1.6,21.53,21.53,0,0,1,3.3,2.2,14.21,14.21,0,0,1,2.65,2.78,13.28,13.28,0,0,0-3.36-1.46,18.62,18.62,0,0,0-3.49-.65,21.17,21.17,0,0,0-3.47,0,25,25,0,0,0-3.36.5Z"/><path class="d" d="M451.46,31.43c-2.17,5.92-.27,15.48-.27,15.48"/><path class="c" d="M454.28,32.47a13.51,13.51,0,0,0-1.43,3,27.38,27.38,0,0,0-.92,3.62,46.43,46.43,0,0,0-.74,7.79,47.8,47.8,0,0,1-2.26-7.75,23.11,23.11,0,0,1-.28-8.76Z"/><path class="d" d="M447.42,27.29c-8.75-2-17.62,2.45-17.62,2.45"/><path class="c" d="M446.76,30.22a19.39,19.39,0,0,0-3.85-1.17,24.59,24.59,0,0,0-4.25-.43,32.24,32.24,0,0,0-8.86,1.12,33.72,33.72,0,0,1,8.4-4.08A27.28,27.28,0,0,1,443,24.55a24.69,24.69,0,0,1,5.11-.19Z"/><path class="b" d="M380.66,118l-9.29,8.52-2-2.73a21.51,21.51,0,0,1-3.16-15.13,25.56,25.56,0,0,1,5.67-12.08c-.74.05-1.46.08-2.18.08-17.39,0-25-14.68-25.36-15.31L343,78.66l13.54-6.86L344,63l3.3-2.48a30.06,30.06,0,0,1,16.78-5.23,28.5,28.5,0,0,1,12.25,2.78c-5.8-23.68,6.6-32.63,7.19-33l2.58-1.79,9.06,14.46,9.24-13.94L407,26.5c.41.44,7.9,8.62,4.41,25C422,41.9,430.62,41,433.56,41a7.41,7.41,0,0,1,.76,0l3.52.39-.92,3.41-1.87,6.62,11.64-1.94-.4,3.91c0,.19-1.83,16.32-17,24.94a22,22,0,0,1,8.19,5.58c7.58,8.2,6.9,20,6.86,20.46l-.22,3.39-16.75-3.22,1.32,12.9-3.58-.27c-.54,0-10.73-1-20.56-11.75.19,15.73-9.27,23.08-15.5,24.9l-2.49.72Z"/><path class="c" d="M385.27,27.5l9.85,15.75,9.74-14.68s11.42,12-2.14,37.62C417.59,45.07,430.9,44,433.55,44a4.68,4.68,0,0,1,.49,0l-3.16,11.17,12.43-2.07s-2.1,20.86-24.86,26.28c24.55.31,22.94,24.81,22.94,24.81L424,100.81l1.37,13.35S410.28,113,399.61,93c8.21,28.69-11.36,34.4-11.36,34.4L381.68,113l-9.86,9s-11.14-15.41,10.47-31a33.84,33.84,0,0,1-12.57,2.62C354,93.65,347,80,347,80l15.33-7.77-13.22-9.29a27.07,27.07,0,0,1,15-4.63c5.17,0,11.23,1.59,17.51,6.63-10.27-27.77,3.64-37.42,3.64-37.42M404,19l-4.16,6.28-4.59,6.93-4.91-7.86L387,19l-5.17,3.58c-.61.43-12.68,9.12-9.45,30.84a30.79,30.79,0,0,0-8.28-1.12,32.76,32.76,0,0,0-18.58,5.83l-6.61,5,6.76,4.75,5,3.55-6.41,3.25L339,77.35l2.71,5.35c.33.65,7.83,15,24.64,16.77a26.53,26.53,0,0,0-3.05,8.7A24.29,24.29,0,0,0,367,125.54l4,5.46,5-4.55,3.76-3.46,3.15,6.91,2.16,4.73,5-1.45a25,25,0,0,0,11.83-8.54,27.79,27.79,0,0,0,5.37-12.7c9,7.43,17.29,8.16,17.8,8.2l7.15.54-.73-7.13-.55-5.32,9.46,1.82,6.67,1.28.45-6.78c0-.55.79-13.56-7.66-22.7A25,25,0,0,0,435.21,78a37.62,37.62,0,0,0,14.07-24.33l.78-7.81-7.74,1.29-3.1.52.59-2.07,1.95-6.92L434.61,38c-.17,0-.53,0-1.06,0-2.65,0-9.52.69-18.2,6.67a36.47,36.47,0,0,0-.58-7.94c-1.41-7.56-4.88-11.52-5.56-12.24L404,19Z"/><path class="b" d="M397.23,86.48c-4.64,0-8.36-2.75-9.05-6.68a7.81,7.81,0,0,1,2-6.55,10.75,10.75,0,0,1,6.15-3.31,12,12,0,0,1,2-.17c4.64,0,8.36,2.75,9,6.68a7.79,7.79,0,0,1-2,6.55,10.73,10.73,0,0,1-6.14,3.31A12.13,12.13,0,0,1,397.23,86.48Z"/><path class="c" d="M398.33,72.77c3.06,0,5.65,1.7,6.09,4.19.5,2.89-2.06,5.75-5.73,6.39a8.19,8.19,0,0,1-1.47.13c-3.06,0-5.64-1.7-6.08-4.19-.51-2.89,2.06-5.75,5.72-6.39a8.27,8.27,0,0,1,1.47-.13m0-6h0a14.08,14.08,0,0,0-2.5.22A13.76,13.76,0,0,0,388,71.24a10.81,10.81,0,0,0-2.74,9.08c.93,5.31,6,9.16,12,9.16a13.92,13.92,0,0,0,2.5-.22A13.75,13.75,0,0,0,407.59,85a10.81,10.81,0,0,0,2.74-9.08c-.93-5.31-6-9.16-12-9.16Z"/><path class="b" d="M396.87,72.9c-2.49-5.19-1.67-17.05-1.67-17.05"/><path class="c" d="M394.16,74.19a17.05,17.05,0,0,1-.7-5,38,38,0,0,1,.24-4.58,72.79,72.79,0,0,1,1.5-8.72,70.37,70.37,0,0,0,1.5,8.53,33.19,33.19,0,0,0,1.2,4,11.66,11.66,0,0,0,1.67,3.22Z"/><path class="b" d="M403.54,75c5.23-5.5,15.28-8.73,15.28-8.73"/><path class="c" d="M401.37,73A30.45,30.45,0,0,1,410,68.51a54,54,0,0,1,8.84-2.22,52.3,52.3,0,0,0-7.41,4.86A40,40,0,0,0,408.22,74a21.2,21.2,0,0,0-2.51,3.1Z"/><path class="b" d="M403.9,79.9c8.84,3,11.47,8.75,11.47,8.75"/><path class="c" d="M404.87,77.06c.6.36,1.19.7,1.77,1.07s1.14.76,1.67,1.19a26,26,0,0,1,3,2.71,21.21,21.21,0,0,1,2.42,3.14,13.73,13.73,0,0,1,1.62,3.48,13.42,13.42,0,0,0-2.71-2.46,19.36,19.36,0,0,0-3.1-1.73,21.17,21.17,0,0,0-3.28-1.12,26.22,26.22,0,0,0-3.35-.61Z"/><path class="b" d="M393.74,82.65c-3.95,4.91-5.21,14.58-5.21,14.58"/><path class="c" d="M396.08,84.53A13.85,13.85,0,0,0,393.75,87a27.16,27.16,0,0,0-2,3.13,46.65,46.65,0,0,0-3.19,7.15,47.82,47.82,0,0,1,.34-8.08,23.1,23.1,0,0,1,2.54-8.38Z"/><path class="b" d="M391.23,77.43c-7.66-4.66-17.47-3.31-17.47-3.31"/><path class="c" d="M389.67,80a19.44,19.44,0,0,0-3.27-2.34,24.13,24.13,0,0,0-3.89-1.76,31.64,31.64,0,0,0-8.75-1.77A33.37,33.37,0,0,1,383,72.93a29,29,0,0,1,4.86.47,25,25,0,0,1,4.91,1.46Z"/><path class="e" d="M322.48,255.75c-.92-.09-22.55-2.3-35.25-13.44a29.22,29.22,0,0,1-10.11-21.59c0-5.71,2-10.6,5.62-13.76A19.17,19.17,0,0,1,295.47,202c6.26,0,12.6,3,18.35,8.7,11.81,11.7,11.95,40.8,11.95,42v3.31Z"/><path class="c" d="M295.47,205c5.27,0,10.93,2.57,16.24,7.83,11.06,10.95,11.06,39.9,11.06,39.9s-21.44-2.07-33.56-12.7c-10.26-9-11.95-24.33-4.5-30.84A16.11,16.11,0,0,1,295.47,205m0-6a22.09,22.09,0,0,0-14.7,5.67c-4.29,3.74-6.65,9.43-6.65,16a32.3,32.3,0,0,0,11.13,23.86c13.43,11.77,36,14.07,36.94,14.16l6.58.64v-6.61c0-3.22-.36-31.81-12.84-44.16-6.32-6.26-13.4-9.57-20.46-9.57Z"/><path class="e" d="M295,215.4c9.74,7,13,15,13,15"/><path class="c" d="M295.12,215.16a8.51,8.51,0,0,1,5.73,1.17c1.65.85,2.33,2.73,3.32,4.2.47.76.94,1.51,1.37,2.29s.8,1.59,1.15,2.4a22,22,0,0,1,1.52,5.08.31.31,0,0,1-.26.35.33.33,0,0,1-.28-.1v0a42.37,42.37,0,0,0-3.45-3.62c-.58-.57-1.19-1.11-1.81-1.64s-1.21-1.06-1.83-1.57a16.44,16.44,0,0,0-2-1.32,5.77,5.77,0,0,1-1.71-1.59,12.56,12.56,0,0,1-1.23-2.21,11,11,0,0,1-.83-2.93v0A.42.42,0,0,1,295.12,215.16Z"/><path class="e" d="M10.23,127.68c0-1.23.13-30.33,12-42C27.92,80,34.27,77,40.52,77a19.15,19.15,0,0,1,12.73,4.93c3.63,3.16,5.62,8.05,5.63,13.76a29.31,29.31,0,0,1-10.11,21.59c-12.71,11.14-34.34,13.35-35.26,13.44l-3.28.32Z"/><path class="c" d="M40.52,80a16.13,16.13,0,0,1,10.76,4.18C58.73,90.65,57.05,106,46.79,115c-12.13,10.63-33.56,12.7-33.56,12.7s0-28.95,11.06-39.9C29.6,82.52,35.26,80,40.52,80m0-6h0c-7.06,0-14.13,3.31-20.45,9.57C7.58,95.87,7.23,124.46,7.23,127.68v6.61l6.57-.64c1-.09,23.52-2.39,36.94-14.16A32.35,32.35,0,0,0,61.88,95.63c0-6.58-2.37-12.27-6.65-16A22.12,22.12,0,0,0,40.52,74Z"/><path class="e" d="M41.05,90.32c-9.74,7-13,15-13,15"/><path class="c" d="M41.22,90.57a11,11,0,0,1-.83,2.93,12,12,0,0,1-1.23,2.21,5.77,5.77,0,0,1-1.71,1.59,17.22,17.22,0,0,0-2,1.32c-.61.51-1.23,1-1.82,1.57s-1.23,1.07-1.82,1.64a42.26,42.26,0,0,0-3.44,3.62h0a.32.32,0,0,1-.44,0,.3.3,0,0,1-.1-.28,22,22,0,0,1,1.53-5.08c.34-.81.73-1.61,1.14-2.4s.9-1.54,1.37-2.29c1-1.47,1.67-3.35,3.32-4.2a8.53,8.53,0,0,1,5.73-1.17.41.41,0,0,1,.35.46Z"/><path class="e" d="M447.65,189.56c-.84-.36-20.84-8.88-29.67-23.29a29.26,29.26,0,0,1-3.25-23.63c1.7-5.45,5.06-9.52,9.45-11.47a20,20,0,0,1,8.09-1.77c8.07,0,15.53,5.32,20.47,14.6,7.82,14.68-.69,42.51-1.06,43.68l-1,3.16Z"/><path class="c" d="M432.27,132.4c6.77,0,13.25,4.42,17.82,13,7.32,13.74-1.27,41.38-1.27,41.38S429,178.45,420.54,164.7c-7.13-11.63-4.19-26.78,4.86-30.79a16.9,16.9,0,0,1,6.87-1.51m0-6a22.91,22.91,0,0,0-9.3,2c-5.2,2.3-9.15,7-11.1,13.32a32.3,32.3,0,0,0,3.55,26.09c9.33,15.22,30.19,24.11,31.07,24.48l6.09,2.56,2-6.31c.95-3.07,9.09-30.48.84-46-5.48-10.29-13.9-16.19-23.12-16.19Z"/><path class="e" d="M433.34,142.86c7.21,9.62,7.94,18.19,7.94,18.19"/><path class="c" d="M433.58,142.68a8.51,8.51,0,0,1,5.11,2.82c1.33,1.3,1.42,3.3,1.93,5,.23.87.45,1.72.63,2.6s.29,1.75.38,2.63a21.86,21.86,0,0,1-.05,5.3.3.3,0,0,1-.35.26.31.31,0,0,1-.23-.18v0a44.33,44.33,0,0,0-2.23-4.47c-.38-.72-.8-1.42-1.24-2.1s-.84-1.38-1.28-2a16.1,16.1,0,0,0-1.54-1.87,5.89,5.89,0,0,1-1.17-2,12.84,12.84,0,0,1-.51-2.47,10.61,10.61,0,0,1,.08-3.05v0A.43.43,0,0,1,433.58,142.68Z"/><path class="e" d="M524.42,122.22c-.91-.1-22.52-2.51-35.12-13.77a29.24,29.24,0,0,1-9.91-21.69c.06-5.71,2.11-10.58,5.76-13.71a19.18,19.18,0,0,1,12.59-4.8c6.32,0,12.7,3.07,18.45,8.87,11.7,11.81,11.56,40.91,11.55,42.15l0,3.3Z"/><path class="c" d="M497.74,71.25c5.31,0,11,2.62,16.32,8,11,11.06,10.68,40,10.68,40s-21.42-2.28-33.44-13c-10.18-9.09-11.72-24.44-4.2-30.88a16.12,16.12,0,0,1,10.64-4.08m0-6a22.14,22.14,0,0,0-14.54,5.52c-4.32,3.71-6.74,9.37-6.81,16a32.32,32.32,0,0,0,10.91,24c13.31,11.89,35.85,14.41,36.8,14.51l6.57.7.07-6.6c0-3.22-.06-31.81-12.42-44.29-6.33-6.38-13.44-9.76-20.58-9.76Z"/><path class="e" d="M497.27,81.62c9.68,7.13,12.85,15.13,12.85,15.13"/><path class="c" d="M497.45,81.38a8.54,8.54,0,0,1,5.72,1.22c1.64.87,2.31,2.76,3.28,4.23.47.76.93,1.52,1.35,2.3s.78,1.6,1.12,2.42a21.86,21.86,0,0,1,1.48,5.09.32.32,0,0,1-.26.35.31.31,0,0,1-.28-.11l0,0a42.37,42.37,0,0,0-3.41-3.65c-.58-.58-1.19-1.13-1.8-1.65s-1.2-1.08-1.81-1.59a15.38,15.38,0,0,0-2-1.34A5.9,5.9,0,0,1,499.11,87a13,13,0,0,1-1.21-2.22,10.76,10.76,0,0,1-.8-2.94v0A.42.42,0,0,1,497.45,81.38Z"/><path class="d" d="M330.36,131.75c-.65-.36-13.46-7.75-18.89-28.32-8.39,22-25,24-30.59,24a20.19,20.19,0,0,1-2.6-.15l-2.57-.39.12-19.91-16.51,5.26-.64-3.31a28,28,0,0,1,4.55-19.57C266.79,84.1,272.08,80,279,77a37,37,0,0,1-21.47-16.78,40.74,40.74,0,0,1-5.46-17.46l-.11-3L273.2,39,262.69,20.87l4-.86a32.88,32.88,0,0,1,6.29-.54,38,38,0,0,1,31.14,15.47C309.83,1.2,330.36-2.79,331.3-3l3.1-.54,3,23.43,19.53-12,1.21,3.57c.26.77,5.09,16-10.85,35a64.42,64.42,0,0,1,21.85-4.21c9.33,0,14.2,2.7,14.73,3l3.1,1.82-9.48,11.06,15.66,4.3-2,3.38c-.49.82-12,19.84-36.52,20.61A29.13,29.13,0,0,1,362.9,99.2c4.51,13.94-2.8,27.61-3.11,28.18l-1.63,3-18.91-13.61-5.76,16.74Z"/><path class="c" d="M331.82,0,335,24.92l20.28-12.48s7.19,21.26-24,45c16.67-9.63,29.3-12.08,37.83-12.08,8.79,0,13.21,2.59,13.21,2.59L372.09,59.83l16.44,4.51S377.2,83.51,353.06,83.51a49.94,49.94,0,0,1-10-1C373,96.81,357.15,126,357.15,126l-19.43-14-5.9,17.16s-17.89-10-19.62-40.58c-5.15,33.05-24.76,35.88-31.32,35.88a15.85,15.85,0,0,1-2.15-.12l.12-21.44-17.22,5.49s-4.92-25.25,30.45-32.08c-35.84-2-37-33.6-37-33.6l23.22-.83L267.36,22.94a30,30,0,0,1,5.66-.47c8.31,0,23.83,2.73,33.07,21.38C309.27,3.94,331.82,0,331.82,0M337-7l-6.2,1.08c-1,.17-20.94,4-28.34,34.31a40.17,40.17,0,0,0-10.57-7.61A42.79,42.79,0,0,0,273,16.47a35.74,35.74,0,0,0-6.91.6L258,18.8,262.16,26l5.94,10.26-13.23.48-6,.21.22,6A44.15,44.15,0,0,0,255,61.76a39.36,39.36,0,0,0,16.8,15.61,34.9,34.9,0,0,0-11,10.32,31.12,31.12,0,0,0-5,21.82l1.28,6.61,6.43-2,9.35-3-.07,13.19,0,5.19,5.14.77a20.23,20.23,0,0,0,3.05.19c5.47,0,20.53-1.68,30.14-18.86,6.52,16.27,17.26,22.46,17.88,22.8l6.26,3.49,2.33-6.78,3.28-9.53,12.88,9.27,5.52,4,3.25-6c.34-.62,8.24-15.39,3.34-30.55a31.29,31.29,0,0,0-4.89-9.37c21.91-3.47,32.34-20.7,32.82-21.51l4-6.76-7.57-2.07-7.31-2,4.06-4.74,4.68-5.46-6.21-3.63c-.59-.35-6.12-3.41-16.24-3.41a61.25,61.25,0,0,0-14.24,1.78c10.45-16.88,6.33-29.83,6.08-30.57l-2.41-7.14-6.42,4-12.36,7.6-2-15.68L337-7Z"/><path class="c" d="M317.34,61.91a11.07,11.07,0,0,1,2.92.39c4.87,1.29,8,5.45,7,9.28-.81,3-4,5-7.73,5a11,11,0,0,1-2.92-.39c-4.87-1.29-8-5.45-7-9.28.81-3,4-5,7.73-5m0-6h0c-6.59,0-12,3.79-13.53,9.43C301.94,72.36,307,79.81,315,82a17.48,17.48,0,0,0,4.47.59c6.59,0,12-3.79,13.53-9.43,1.87-7-3.16-14.47-11.21-16.62a17.48,17.48,0,0,0-4.47-.59Z"/><path class="c" d="M317.26,62.34A23.82,23.82,0,0,1,319,56a51.41,51.41,0,0,1,2.63-5.49,95.42,95.42,0,0,1,6.3-10,96.83,96.83,0,0,0-3.51,11.13,48.9,48.9,0,0,0-1.07,5.58,18.5,18.5,0,0,0-.07,5.13Z"/><path class="c" d="M326.15,65.9a37.28,37.28,0,0,1,6.47-1,56.81,56.81,0,0,1,6.26,0A74.2,74.2,0,0,1,351,66.65a73.05,73.05,0,0,0-11.89,1.23,56,56,0,0,0-5.64,1.43,30.69,30.69,0,0,0-5.08,2.17Z"/><path class="c" d="M327,72.71c.54.74,1.09,1.45,1.6,2.19s1,1.48,1.44,2.28a33.11,33.11,0,0,1,2.32,4.8,28.55,28.55,0,0,1,1.41,5,18.74,18.74,0,0,1,.26,5.11,18.38,18.38,0,0,0-1.69-4.64,26.8,26.8,0,0,0-2.6-4.07A31.29,31.29,0,0,0,326.51,80c-.56-.54-1.2-1-1.78-1.52s-1.26-.93-1.88-1.39Z"/><path class="c" d="M312.22,75.18a20.84,20.84,0,0,0-4.27,2,39.23,39.23,0,0,0-4.15,2.94,63,63,0,0,0-7.58,7.32,65.39,65.39,0,0,1,5.38-9.36,42.6,42.6,0,0,1,3.48-4.36,25.56,25.56,0,0,1,4.48-3.9Z"/><path class="c" d="M308.29,66.33a27.41,27.41,0,0,0-3-4.71,33.42,33.42,0,0,0-4-4.24,44.06,44.06,0,0,0-4.74-3.68,40.61,40.61,0,0,0-5.3-3,42.13,42.13,0,0,1,6,1.69A46,46,0,0,1,303,54.91a37.1,37.1,0,0,1,5.45,3.47A33.52,33.52,0,0,1,313.27,63Z"/><path class="b" d="M253,199.29c-.45-.31-8.76-6.34-11.65-20.71-4.11,7.13-10.9,14-21.79,14a17.81,17.81,0,0,1-4.26-.45l-2.52-.65,1.59-14.24L202,179.75l-.3-3.35a21.45,21.45,0,0,1,5.05-14.61,25.58,25.58,0,0,1,11.08-7.48A28.88,28.88,0,0,1,202,127.12l.21-3,15.15,1.05-6.24-14,4.11-.43a16.29,16.29,0,0,1,1.78-.08c4.1,0,16.45,1.06,24.41,12.86,7.16-23.3,22.39-24.63,23.1-24.68l3.14-.21.36,17.06,15.08-7.23.83,3.68c.13.58,2.36,11.46-9.06,23.77a50.6,50.6,0,0,1,10-1c9.76,0,14.56,3.32,15.07,3.7l2.9,2.13-7.62,7.19,11,4.3-2.34,3.15a34.56,34.56,0,0,1-26.56,12.74h-.79a22,22,0,0,1,4.17,9c2.3,10.93-4.32,20.69-4.6,21.1L274.14,201,261.41,189.6l-5.48,11.76Z"/><path class="c" d="M264.72,101.88l.38,18.57L281,112.84S284.63,129,259.87,144c10.62-4.73,18.89-6.14,25-6.14,9,0,13.3,3.11,13.3,3.11l-8.45,8,11.74,4.59a31.72,31.72,0,0,1-24.15,11.53,35.39,35.39,0,0,1-10.66-1.71c20.91,12.86,7,33.06,7,33.06l-13.21-11.78-5.67,12.16s-12.38-8.72-11.28-31.36c-5.65,21.27-17.86,24.06-23.88,24.06a15.48,15.48,0,0,1-3.51-.35l1.76-15.76-13.1,2.7s-1.66-18.94,24.88-21.23c-26.2-4.25-24.61-27.57-24.61-27.57l17.14,1.18-6.58-14.75a14.41,14.41,0,0,1,1.46-.06c4.64,0,19.09,1.42,25.41,18.43,5.42-29.1,22.31-30.25,22.31-30.25m5.86-6.42-6.27.43c-.74,0-15.55,1.33-23.91,21.61-8.52-8.91-19.44-9.8-23.4-9.8-1.15,0-1.89.07-2.09.09l-8.22.87,3.37,7.55,2.51,5.63-7.17-.5-6-.41-.41,6A33.72,33.72,0,0,0,202,142a30.56,30.56,0,0,0,9.55,12,26.76,26.76,0,0,0-7.07,5.91,24.33,24.33,0,0,0-5.74,16.8l.59,6.71,6.6-1.36,5-1-.84,7.54-.58,5.16,5,1.31a20.46,20.46,0,0,0,5,.55,26.84,26.84,0,0,0,20.65-9.94c3.94,11,10.64,15.85,11.06,16.15l5.86,4.12,3-6.49,2.26-4.85,7.19,6.41,5.07,4.52,3.86-5.59c.31-.45,7.63-11.24,5.06-23.42a24.8,24.8,0,0,0-1.89-5.6,38,38,0,0,0,24.55-13.69l4.68-6.3L303.63,148l-2.93-1.15,1.57-1.47,5.22-4.94-5.79-4.26c-1-.72-6.36-4.28-16.85-4.28-1,0-2,0-3.09.1a35.91,35.91,0,0,0,3.58-7.11c2.67-7.22,1.72-12.4,1.5-13.37l-1.65-7.35-6.79,3.26L270.91,111l-.19-9.27-.14-6.29Z"/><path class="b" d="M250.54,160.26a11.12,11.12,0,0,1-4-.75c-5-1.92-7.77-7-6.13-11.24a8.35,8.35,0,0,1,8.05-5,11.44,11.44,0,0,1,4,.75c5,1.92,7.77,7,6.13,11.24C257.43,158.29,254.27,160.26,250.54,160.26Z"/><path class="c" d="M248.46,146.24a8.22,8.22,0,0,1,2.94.56c3.47,1.33,5.44,4.62,4.4,7.36-.75,2-2.85,3.1-5.26,3.1a8.33,8.33,0,0,1-2.93-.55c-3.48-1.33-5.45-4.63-4.4-7.37.75-2,2.84-3.1,5.25-3.1m0-6h0c-5,0-9.24,2.73-10.86,7-2.22,5.82,1.3,12.6,7.86,15.11a14.2,14.2,0,0,0,5.08.95c5,0,9.24-2.73,10.86-7,2.23-5.82-1.3-12.6-7.86-15.11a14.2,14.2,0,0,0-5.08-.95Z"/><path class="b" d="M251.4,146.8c.53-5.73,7.31-15.5,7.31-15.5"/><path class="c" d="M248.41,146.52a17.25,17.25,0,0,1,2-4.69A38.86,38.86,0,0,1,253,138a73.24,73.24,0,0,1,5.76-6.72,71.24,71.24,0,0,0-3.09,8.1,34.64,34.64,0,0,0-1,4,11.6,11.6,0,0,0-.21,3.63Z"/><path class="b" d="M256,152c7.31-2,17.59.34,17.59.34"/><path class="c" d="M255.24,149.15a30.4,30.4,0,0,1,9.67.61,53.62,53.62,0,0,1,8.72,2.62,53,53,0,0,0-8.85.37,37.14,37.14,0,0,0-4.2.81,20.74,20.74,0,0,0-3.73,1.37Z"/><path class="b" d="M253.85,156.41c6,7.13,5.36,13.4,5.36,13.4"/><path class="c" d="M256.14,154.47c.33.62.66,1.22,1,1.83s.59,1.24.82,1.88a25,25,0,0,1,1.2,3.87,21.41,21.41,0,0,1,.48,3.94,13.86,13.86,0,0,1-.4,3.82,12.93,12.93,0,0,0-1.07-3.5,18.67,18.67,0,0,0-1.77-3.08,21.23,21.23,0,0,0-2.24-2.64,24.68,24.68,0,0,0-2.57-2.24Z"/><path class="b" d="M243.72,153.57c-5.92,2.18-11.95,9.84-11.95,9.84"/><path class="c" d="M244.76,156.38a13.57,13.57,0,0,0-3.24.88,28,28,0,0,0-3.35,1.65,45.71,45.71,0,0,0-6.4,4.5,48.17,48.17,0,0,1,4.43-6.76,23.39,23.39,0,0,1,6.48-5.9Z"/><path class="b" d="M244.24,147.8c-4.19-7.93-13.3-11.8-13.3-11.8"/><path class="c" d="M241.59,149.2a19.78,19.78,0,0,0-1.61-3.69,24.48,24.48,0,0,0-2.44-3.5,31.91,31.91,0,0,0-6.6-6,33.11,33.11,0,0,1,8.55,3.73,27,27,0,0,1,3.94,2.9,24.55,24.55,0,0,1,3.46,3.77Z"/><path class="b" d="M138.34,57.91l-1.73-14.22L125.18,49l-1.06-3.2a21.5,21.5,0,0,1,1.55-15.38,25.65,25.65,0,0,1,9-9.8C116.33,16.2,113.1-2,113.06-2.2l-.49-3,15-2.46-9.27-12.16,3.89-1.36a28.7,28.7,0,0,1,8.69-1.27,28.48,28.48,0,0,1,19.74,7.69C152.23-39,166.75-43.84,167.43-44l3-.93,4.27,16.53,13-10.51,1.65,3.39C189.63-35,194.3-25,186-10.35c7.44-3.42,13.42-4.33,17.67-4.33A19.8,19.8,0,0,1,211-13.53l3.31,1.4-5.76,8.76,11.68,1.66-1.55,3.6A34.41,34.41,0,0,1,195,20.58a22,22,0,0,1,6.1,7.76c4.75,10.11.55,21.12.37,21.58l-1.24,3.17-15-8.13-2.63,12.69-3.33-1.33c-.5-.2-9.92-4.14-16-17.37-5.64,18.76-21.39,19-22.18,19Z"/><path class="c" d="M168.31-41.18l4.64,18,13.72-11.06S193.93-19.33,173.28,1c13.85-10.55,24.29-12.64,30.39-12.64a17.16,17.16,0,0,1,6.17.91l-6.39,9.7L215.93.7a31.58,31.58,0,0,1-28.74,17.66c-.93,0-1.9,0-2.89-.1,23.31,7.71,14.39,30.57,14.39,30.57l-15.57-8.44L180.4,53.53s-14.05-5.64-18.19-27.92c-.8,28.92-20,29.36-21.15,29.36H141l-1.91-15.74L127,44.87s-6-18.06,19.33-26.38c-1,.07-2.05.11-3,.11C119.53,18.6,116-2.69,116-2.69l17-2.78-9.79-12.85a25.49,25.49,0,0,1,7.69-1.1c6.41,0,15.61,2.19,22.68,12.81-1.41-29.58,14.76-34.57,14.76-34.57m4.24-7.59-6,1.85c-.71.22-14.85,4.88-18.32,26.59a31.42,31.42,0,0,0-17.35-5.09A31.26,31.26,0,0,0,121.19-24l-7.79,2.73,5,6.57,3.74,4.9-7.1,1.17-5.92,1,1,5.92a33.86,33.86,0,0,0,5.78,13.19,30.7,30.7,0,0,0,12.64,10.24A26.94,26.94,0,0,0,123,29.08a24.29,24.29,0,0,0-1.72,17.67l2.12,6.4,6.11-2.84,4.63-2.16.92,7.54.62,5.12,5.2.16h.19a26.57,26.57,0,0,0,22.65-15c6.36,9.77,14,12.95,14.45,13.14l6.66,2.67,1.45-7,1.09-5.23,8.47,4.59,6,3.24L204.27,51c.2-.51,4.85-12.69-.45-23.95a24.48,24.48,0,0,0-3.11-5,37.8,37.8,0,0,0,20.73-19l3.11-7.21-7.77-1.11-3.11-.44,1.18-1.79,4-6-6.62-2.81a22.43,22.43,0,0,0-8.51-1.39,40.5,40.5,0,0,0-11.85,1.9,35.63,35.63,0,0,0,1.85-7.75c.94-7.64-1.17-12.46-1.61-13.35l-3.29-6.78-5.87,4.73-6.46,5.22-2.32-9-1.57-6.09Z"/><path class="b" d="M165.4,19.19a11.54,11.54,0,0,1-1.55-.11c-5.32-.71-9.15-5-8.54-9.52.55-4.08,4.42-7,9.22-7a11.38,11.38,0,0,1,1.54.1c5.32.72,9.15,5,8.54,9.53C174.07,16.23,170.19,19.19,165.4,19.19Z"/><path class="c" d="M164.53,5.52a8.94,8.94,0,0,1,1.14.07c3.69.5,6.36,3.26,6,6.16-.35,2.6-3,4.44-6.24,4.44a9,9,0,0,1-1.15-.08c-3.68-.5-6.36-3.25-6-6.16.35-2.6,3-4.43,6.25-4.43m0-6h0c-6.32,0-11.44,4.05-12.2,9.64-.83,6.17,4.16,12,11.13,12.9a15.67,15.67,0,0,0,1.94.13c6.31,0,11.44-4.06,12.19-9.64a10.81,10.81,0,0,0-3.1-9,13.75,13.75,0,0,0-8-3.94,14.15,14.15,0,0,0-1.94-.13Z"/><path class="b" d="M165.67,5.59c-.8-5.69,3.56-16.76,3.56-16.76"/><path class="c" d="M162.7,6a17.19,17.19,0,0,1,.86-5,35.2,35.2,0,0,1,1.61-4.29,70.33,70.33,0,0,1,4.06-7.87,69.08,69.08,0,0,0-1.15,8.59A32.45,32.45,0,0,0,168,1.59a11.8,11.8,0,0,0,.62,3.59Z"/><path class="b" d="M171.39,9.63C178,6,188.59,5.92,188.59,5.92"/><path class="c" d="M169.94,7a30.51,30.51,0,0,1,9.55-1.63,53.69,53.69,0,0,1,9.1.55,52.19,52.19,0,0,0-8.53,2.4,39.4,39.4,0,0,0-3.9,1.74,21,21,0,0,0-3.32,2.2Z"/><path class="b" d="M170.26,14.39c7.52,5.55,8.3,11.81,8.3,11.81"/><path class="c" d="M172.05,12c.46.52.92,1,1.36,1.55s.85,1.07,1.23,1.65a25.16,25.16,0,0,1,2.06,3.49,20.8,20.8,0,0,1,1.36,3.72,13.86,13.86,0,0,1,.5,3.81A13.31,13.31,0,0,0,176.71,23a19.29,19.29,0,0,0-2.43-2.59,21,21,0,0,0-2.79-2.05,26.28,26.28,0,0,0-3-1.59Z"/><path class="b" d="M159.75,14c-5.25,3.48-9.37,12.32-9.37,12.32"/><path class="c" d="M161.41,16.44a13.51,13.51,0,0,0-2.95,1.61,27.4,27.4,0,0,0-2.88,2.37,46.39,46.39,0,0,0-5.2,5.85,47.74,47.74,0,0,1,2.76-7.59,23,23,0,0,1,5-7.23Z"/><path class="b" d="M158.93,8.21C153,1.46,143.27-.22,143.27-.22"/><path class="c" d="M156.67,10.19A19,19,0,0,0,154.26,7a25,25,0,0,0-3.18-2.86,32,32,0,0,0-7.81-4.33,33.24,33.24,0,0,1,9.19,1.67A28.68,28.68,0,0,1,157,3.36a25.18,25.18,0,0,1,4.24,2.88Z"/><path class="d" d="M77.18,86.55a21.51,21.51,0,0,1-7.84-13.33A25.62,25.62,0,0,1,70.85,60a28.4,28.4,0,0,1-11,2.27,30.6,30.6,0,0,1-19.94-7.89l-2.14-2.1L48.38,41.4,33.71,37.07,36,33.67c.34-.48,8.27-11.8,23.29-11.8a28.75,28.75,0,0,1,3.45.2C49.7,1.48,58.58-11,59-11.54l1.87-2.52L74.09-3.25l4.3-16.17,3.33,1.76C82.25-17.38,92-12,93.92,4.68c8.24-14.81,17.77-17.24,18.28-17.36l3.5-.82L116.23-3l10.4-5.57.88,3.83c0,.19,3.49,16.06-8.09,29.07C133.27,25,140.24,37.47,142,44.14l.88,3.29L126,49.73l5.38,11.8-3.47.89a21.28,21.28,0,0,1-5,.5,38,38,0,0,1-18.28-5.08c5.22,14.86-1.39,24.86-6.71,28.58L95.8,87.9,86,77.45l-6.08,11Z"/><path class="c" d="M80.32-15S95-7.26,90.33,21.31c8.2-27.7,22.56-31.07,22.56-31.07l.58,11.6L124.59-4.1s4.69,20.44-15.15,32.85a28.17,28.17,0,0,1,8.69-1.48c16.29,0,21,17.65,21,17.65l-17.54,2.39,5.56,12.21a18.59,18.59,0,0,1-4.22.4c-5.53,0-15.82-1.71-26.95-12.19,17,24.56.24,36.23.24,36.23L85.37,72.39,78.92,84.1s-15.48-11,0-32.71c-7,5.91-13.52,7.85-19.11,7.85A27.64,27.64,0,0,1,42,52.2L54,39.94,38.52,35.37s7.2-10.5,20.81-10.5a30.73,30.73,0,0,1,10.61,2c-18.61-23-8.52-36.61-8.52-36.61L75.79,2l4.53-17m-3.86-8.82-1.94,7.28-2.13,8-7.17-5.87-4.87-4-3.75,5c-.44.6-9.1,12.7.92,32.25-15.41.86-23.6,12.54-24,13L28.9,38.78l7.92,2.34,5.92,1.75L37.7,48l-4.2,4.29,4.28,4.2c.37.36,9.09,8.75,22,8.75a31.19,31.19,0,0,0,6.67-.73,26.66,26.66,0,0,0-.1,9.21,24.29,24.29,0,0,0,9,15.27l5.49,3.91L84.18,87l2.46-4.48,5.2,5.54,3.55,3.79,4.26-3A25,25,0,0,0,108.12,77a27.85,27.85,0,0,0,1-13.77,38.71,38.71,0,0,0,13.77,2.68,24,24,0,0,0,5.71-.59l7-1.78-3-6.52-2.22-4.87,9.55-1.3,6.73-.92-1.75-6.57c-1.73-6.52-8-18-20-21.24a36.67,36.67,0,0,0,5.46-13.3,36.63,36.63,0,0,0,.09-14.27l-1.75-7.65-6.92,3.7L119-7.91l-.11-2.15-.36-7.18-7,1.64c-1.2.28-8.64,2.38-16.14,12.42a35.78,35.78,0,0,0-3.07-7.31c-3.76-6.72-8.31-9.36-9.19-9.82l-6.66-3.52Z"/><path class="d" d="M88.19,42.87a8,8,0,0,1-7.28-4c-2.19-4-.13-9.39,4.58-12a11.14,11.14,0,0,1,5.25-1.37,8.05,8.05,0,0,1,7.28,4c2.19,4,.14,9.38-4.58,12A11,11,0,0,1,88.19,42.87Z"/><path class="c" d="M90.74,28.54A5.11,5.11,0,0,1,95.39,31c1.4,2.58-.12,6.11-3.39,7.89a8,8,0,0,1-3.81,1,5.08,5.08,0,0,1-4.64-2.44c-1.4-2.57.11-6.1,3.38-7.88a8,8,0,0,1,3.81-1m0-6h0a14,14,0,0,0-6.68,1.74c-6.17,3.36-8.76,10.55-5.78,16a11,11,0,0,0,9.91,5.57,14.06,14.06,0,0,0,6.68-1.73A13.73,13.73,0,0,0,101,37.59a10.76,10.76,0,0,0-.31-9.47,11,11,0,0,0-9.91-5.58Z"/><path class="d" d="M86.93,29.55c-4-4.12-7-15.63-7-15.63"/><path class="c" d="M84.78,31.64a17,17,0,0,1-2.27-4.56,35.59,35.59,0,0,1-1.24-4.41,71.94,71.94,0,0,1-1.38-8.75A71.22,71.22,0,0,0,84,21.53a33.34,33.34,0,0,0,2.42,3.4,11.84,11.84,0,0,0,2.62,2.53Z"/><path class="d" d="M93.93,29.42c3.2-6.88,11.68-13.16,11.68-13.16"/><path class="c" d="M91.21,28.16a30.24,30.24,0,0,1,6.74-7,54.2,54.2,0,0,1,7.66-4.94,52.85,52.85,0,0,0-5.46,7A35.48,35.48,0,0,0,98,27a20.89,20.89,0,0,0-1.39,3.74Z"/><path class="d" d="M95.83,33.93c9.35,0,13.67,4.62,13.67,4.62"/><path class="c" d="M95.85,30.93c.68.15,1.35.28,2,.45s1.33.35,2,.59a25.73,25.73,0,0,1,3.72,1.6,22.12,22.12,0,0,1,3.31,2.2,13.87,13.87,0,0,1,2.64,2.78,13.33,13.33,0,0,0-3.36-1.46,18.47,18.47,0,0,0-3.49-.65,21,21,0,0,0-3.46,0,25.11,25.11,0,0,0-3.37.5Z"/><path class="d" d="M87.09,39.78c-2.18,5.92-.27,15.48-.27,15.48"/><path class="c" d="M89.91,40.82a13.52,13.52,0,0,0-1.44,3,29,29,0,0,0-.92,3.62,46.43,46.43,0,0,0-.73,7.79,46.84,46.84,0,0,1-2.27-7.75,23.53,23.53,0,0,1-.28-8.76Z"/><path class="d" d="M83,35.64c-8.75-2-17.61,2.46-17.61,2.46"/><path class="c" d="M82.39,38.57a19.48,19.48,0,0,0-3.86-1.17A24.47,24.47,0,0,0,74.29,37a31.83,31.83,0,0,0-8.86,1.13A33.17,33.17,0,0,1,73.82,34a28.22,28.22,0,0,1,4.76-1.11,24.79,24.79,0,0,1,5.12-.19Z"/><path class="d" d="M162,216l-10,16.26-2.64-2.09a30.39,30.39,0,0,1-10.09-19.38c-.82-7.1.75-14.51,4.68-22.14a42.25,42.25,0,0,1-17.4,3.89c-18,0-29.48-12.27-30-12.79l-2-2.2,17.31-15.95L89.94,154l2.5-3.29c.48-.62,11.87-15.25,32.11-15.25a44.3,44.3,0,0,1,10.18,1.22c-19.85-32.4-5.53-50.48-4.86-51.29l2-2.43,19.33,17.52,7.72-24.08,3.24,1.93c.78.46,16,9.89,15.87,37.88,13.64-24.75,29.21-27.89,30-28l3.54-.64v16.12L227.77,96l.68,3.87c.05.28,4.18,25.38-16.2,43.54,27.4.29,34,29.88,34.08,30.18l.71,3.32-25.58,2.18,7.19,18.12-3.52.71a26.49,26.49,0,0,1-5,.39c-6.66,0-18.4-1.65-31.57-11,11.35,30.22-9.93,44-10.18,44.17l-2.2,1.38Z"/><path class="c" d="M160.62,80.86s21.2,12.59,12.15,54.64C187,95,208.56,91.08,208.56,91.08v17.26l16.94-8S230.93,131,200.57,148a43.45,43.45,0,0,1,11.27-1.6c25.64,0,31.55,27.8,31.55,27.8l-26.2,2.24,7.35,18.53a24,24,0,0,1-4.39.33c-7.58,0-23.94-2.39-41-20.14,23.33,37.71-2.35,53.77-2.35,53.77l-15.23-18-10.44,16.91s-22.15-17.55,2.45-48.55c-10,7.66-19.22,10.27-27.12,10.27-16.85,0-27.76-11.82-27.76-11.82l18.77-17.3-22.65-8s10.73-14.07,29.72-14.07a44.73,44.73,0,0,1,17.54,3.8c-25.9-35.55-9.91-55-9.91-55l20.45,18.53,8-24.92m-3.41-9L154.91,79l-5.15,16.06L136.21,82.8l-4.66-4.22-4,4.85c-.68.83-14.63,18.42,1.47,49.2-1.5-.15-3-.22-4.47-.22-21.71,0-34,15.76-34.49,16.44l-5,6.56,7.79,2.74,13.23,4.64L94.65,173.32l-4.42,4.06,4.07,4.42c.52.56,12.92,13.75,32.17,13.75a43.31,43.31,0,0,0,11.88-1.68,38.32,38.32,0,0,0-2.14,17.27,33.54,33.54,0,0,0,11.21,21.39l5.28,4.18,3.55-5.73,6.1-9.88,9.88,11.68,3.36,4L180,234a33.89,33.89,0,0,0,12.31-15.6c3.27-8.14,3.2-16.52,1.43-24.35,11,6,20.57,7.23,26.42,7.23a28.81,28.81,0,0,0,5.58-.45l7-1.42-2.64-6.67-4.38-11,18.16-1.55,6.78-.58-1.42-6.65a50.41,50.41,0,0,0-7-16c-5.89-8.75-13.88-14.16-23.36-15.92a51.59,51.59,0,0,0,11.39-21.74,52.62,52.62,0,0,0,1.17-20L230,91.57l-7.1,3.35-8.38,4v-15l-7.07,1.29c-.72.13-7.2,1.47-15.35,8.34a67.07,67.07,0,0,0-11.72,13c-3-22.37-16-30.43-16.73-30.87l-6.48-3.85Z"/><path class="c" d="M172.3,146.25c3.19,0,6,1.41,7.24,4,1.89,3.93-.62,9.05-5.6,11.45a12.22,12.22,0,0,1-5.2,1.22c-3.2,0-6-1.42-7.25-4-1.88-3.92.63-9,5.61-11.44a12,12,0,0,1,5.2-1.22m0-6h0a18.1,18.1,0,0,0-7.8,1.81c-8,3.83-11.73,12.56-8.41,19.45,2.19,4.56,7,7.39,12.65,7.39a18.11,18.11,0,0,0,7.8-1.82c8-3.82,11.73-12.55,8.41-19.45-2.19-4.55-7-7.38-12.65-7.38Z"/><path class="c" d="M164.85,149.45a25.52,25.52,0,0,1-3.14-6.45,54.38,54.38,0,0,1-1.81-6.41,107.37,107.37,0,0,1-2.07-12.83,106.32,106.32,0,0,0,4.9,11.84,56.27,56.27,0,0,0,3,5.46,21,21,0,0,0,3.59,4.43Z"/><path class="c" d="M174.85,146.41a39.23,39.23,0,0,1,4.58-5.48,62.37,62.37,0,0,1,5.16-4.51,81.48,81.48,0,0,1,11.23-7.27,79.6,79.6,0,0,0-9.14,9.42,58.62,58.62,0,0,0-3.75,5.19,33.31,33.31,0,0,0-2.77,5.45Z"/><path class="c" d="M180.15,151.63c1,.22,1.93.4,2.89.64s1.89.49,2.82.83a37.79,37.79,0,0,1,5.36,2.27,31.67,31.67,0,0,1,4.8,3.13,20.66,20.66,0,0,1,3.91,4,19.6,19.6,0,0,0-4.69-2.73,29,29,0,0,0-5.07-1.61,33.83,33.83,0,0,0-5.18-.66c-.86-.07-1.74,0-2.59,0s-1.73.1-2.57.15Z"/><path class="c" d="M169.33,163.84a23.23,23.23,0,0,0-2.08,4.79,41.39,41.39,0,0,0-1.29,5.46c-.33,1.87-.55,3.78-.71,5.71s-.25,3.87-.23,5.82c-.51-1.89-.92-3.81-1.27-5.75s-.62-3.9-.79-5.9a47.28,47.28,0,0,1-.15-6.09,28.15,28.15,0,0,1,1-6.39Z"/><path class="c" d="M160.08,159.11a30.56,30.56,0,0,0-6-1.71,36.65,36.65,0,0,0-6.41-.58,47.05,47.05,0,0,0-6.58.4,46.32,46.32,0,0,0-6.57,1.32,47.54,47.54,0,0,1,6.21-2.78,51.66,51.66,0,0,1,6.63-1.93,41.37,41.37,0,0,1,7-.92,35.89,35.89,0,0,1,7.28.42Z"/><path class="e" d="M214.58,915.29A86.73,86.73,0,0,1,193,912.37l-3.18-.91,1.21-3.07c.46-1.15,11.27-28.17,26.56-34.71A31.56,31.56,0,0,1,230,870.9c8,0,14.32,3.79,17.88,10.68,2.2,4.28,2.27,9.55.17,14.86a29.26,29.26,0,0,1-17.33,16.38A48,48,0,0,1,214.58,915.29Z"/><path class="c" d="M230,873.9c6.79,0,12.19,3.21,15.21,9.06,4.54,8.79-2.66,22.44-15.5,27a45.57,45.57,0,0,1-15.12,2.29,84.63,84.63,0,0,1-20.77-2.8s10.63-26.93,24.94-33A28.78,28.78,0,0,1,230,873.9m0-6h0a34.63,34.63,0,0,0-13.6,3c-16.14,6.91-27,33.37-28.16,36.37l-2.42,6.14,6.35,1.83a90.56,90.56,0,0,0,22.42,3,50.84,50.84,0,0,0,17.14-2.65,32.3,32.3,0,0,0,19.12-18.1c2.41-6.12,2.3-12.28-.31-17.34A22.35,22.35,0,0,0,230,867.9Z"/><path class="e" d="M233.41,885c-11.65,3-17.59,9.19-17.59,9.19"/><path class="c" d="M233.48,885.25a10.94,10.94,0,0,1-1.85,2.42,12.23,12.23,0,0,1-1.95,1.6,5.71,5.71,0,0,1-2.18.85,15.82,15.82,0,0,0-2.37.49c-.76.25-1.52.5-2.27.79s-1.54.54-2.29.86a44,44,0,0,0-4.54,2.09l0,0a.31.31,0,0,1-.42-.13.32.32,0,0,1,0-.3,22,22,0,0,1,3.28-4.16c.63-.63,1.28-1.23,2-1.82s1.4-1.1,2.12-1.63c1.45-1,2.78-2.49,4.63-2.68a8.54,8.54,0,0,1,5.75,1,.43.43,0,0,1,.16.57Z"/><path class="e" d="M441.69,888c-.91-.09-22.54-2.3-35.25-13.44A29.24,29.24,0,0,1,396.33,853c0-5.7,2-10.59,5.62-13.76a19.18,19.18,0,0,1,12.73-4.92c6.26,0,12.6,3,18.35,8.7,11.82,11.7,12,40.8,12,42v3.3Z"/><path class="c" d="M414.68,837.3c5.27,0,10.93,2.57,16.24,7.83C442,856.08,442,885,442,885s-21.44-2.08-33.56-12.7c-10.26-9-11.95-24.33-4.49-30.85a16.11,16.11,0,0,1,10.75-4.18m0-6A22.13,22.13,0,0,0,400,837c-4.28,3.75-6.65,9.44-6.65,16a32.3,32.3,0,0,0,11.13,23.86c13.43,11.77,36,14.07,36.94,14.16l6.58.64V885c0-3.22-.36-31.81-12.84-44.17-6.32-6.25-13.39-9.56-20.46-9.56Z"/><path class="e" d="M414.16,847.67c9.74,7,13,15,13,15"/><path class="c" d="M414.34,847.43a8.49,8.49,0,0,1,5.72,1.17c1.65.85,2.34,2.73,3.32,4.19.48.76.95,1.52,1.38,2.3s.79,1.59,1.14,2.4a22.55,22.55,0,0,1,1.53,5.08.31.31,0,0,1-.54.24l0,0a43.76,43.76,0,0,0-3.45-3.61c-.58-.57-1.19-1.12-1.81-1.64s-1.21-1.06-1.83-1.57a15.93,15.93,0,0,0-2-1.32,5.93,5.93,0,0,1-1.72-1.59,12.54,12.54,0,0,1-1.22-2.21,10.72,10.72,0,0,1-.83-2.94v0A.41.41,0,0,1,414.34,847.43Z"/><path class="e" d="M43.81,925.29c-.11-1.23-2.58-30.22,8.14-42.93C57.59,875.66,64.41,872,71.14,872a19.3,19.3,0,0,1,11.42,3.84c3.9,2.83,6.32,7.51,6.84,13.2a29.28,29.28,0,0,1-8.14,22.41C69.6,923.67,48.25,927.8,47.35,928l-3.25.61Z"/><path class="c" d="M71.14,875a16.29,16.29,0,0,1,9.66,3.26c8,5.82,7.7,21.25-1.71,31.12C68,921,46.8,925,46.8,925s-2.6-28.83,7.44-40.73c5.26-6.23,11.21-9.31,16.9-9.31m0-6h0c-7.63,0-15.26,4.06-21.48,11.44-11.33,13.43-9.13,41.93-8.84,45.14l.59,6.58,6.5-1.22c.94-.18,23.2-4.49,35.52-17.42a32.28,32.28,0,0,0,8.95-24.75c-.59-6.56-3.45-12-8-15.36A22.38,22.38,0,0,0,71.14,869Z"/><path class="e" d="M71.16,885.32c-9.07,7.89-11.59,16.11-11.59,16.11"/><path class="c" d="M71.36,885.55a10.74,10.74,0,0,1-.57,3,12.78,12.78,0,0,1-1,2.3,5.94,5.94,0,0,1-1.57,1.74,16.27,16.27,0,0,0-1.9,1.5c-.56.56-1.14,1.13-1.68,1.73S63.5,897,63,897.62a43,43,0,0,0-3.12,3.9v0a.31.31,0,0,1-.43.08.34.34,0,0,1-.13-.27,22,22,0,0,1,1.07-5.2c.27-.84.58-1.67.92-2.49s.76-1.61,1.16-2.41c.85-1.54,1.37-3.48,2.94-4.47A8.47,8.47,0,0,1,71,885.1a.41.41,0,0,1,.4.43Z"/></svg>